<svg xmlns="http://www.w3.org/2000/svg" viewBox="0 0 512 512" fill="none">
  <defs>
    <linearGradient id="bodyGrad" x1="256" y1="120" x2="256" y2="422" gradientUnits="userSpaceOnUse">
      <stop offset="0" stop-color="#41547B"/>
      <stop offset="0.45" stop-color="#334565"/>
      <stop offset="1" stop-color="#27344D"/>
    </linearGradient>
    <linearGradient id="lidGrad" x1="256" y1="66" x2="256" y2="162" gradientUnits="userSpaceOnUse">
      <stop offset="0" stop-color="#4F668E"/>
      <stop offset="1" stop-color="#2E3E5D"/>
    </linearGradient>
    <linearGradient id="glow" x1="102" y1="256" x2="410" y2="256" gradientUnits="userSpaceOnUse">
      <stop offset="0" stop-color="#72EDF5"/>
      <stop offset="1" stop-color="#B5FCFF"/>
    </linearGradient>
    <filter id="softGlow" x="-30%" y="-30%" width="160%" height="160%">
      <feGaussianBlur stdDeviation="4" result="blur"/>
      <feMerge>
        <feMergeNode in="blur"/>
        <feMergeNode in="SourceGraphic"/>
      </feMerge>
    </filter>
  </defs>

  <ellipse cx="256" cy="470" rx="120" ry="20" fill="#102033" opacity="0.35"/>

  <path d="M157 165C188 136 222 124 256 124C290 124 324 136 355 165L344 188H168L157 165Z" fill="url(#lidGrad)" stroke="#D6EEFF" stroke-opacity="0.32" stroke-width="6"/>
  <ellipse cx="256" cy="116" rx="19" ry="15" fill="#6FD9ED" fill-opacity="0.7" stroke="#E8FCFF" stroke-opacity="0.6" stroke-width="5"/>

  <path d="M171 198C171 174 190 154 214 154H298C322 154 341 174 341 198V216H171V198Z" fill="#2D3C59"/>

  <path d="M116 219H176V314H116C100 314 88 301 88 286V247C88 231 100 219 116 219Z" fill="#2F3F5E" stroke="#D7EEFF" stroke-opacity="0.25" stroke-width="6"/>
  <path d="M396 219H336V314H396C412 314 424 301 424 286V247C424 231 412 219 396 219Z" fill="#2F3F5E" stroke="#D7EEFF" stroke-opacity="0.25" stroke-width="6"/>
  <rect x="120" y="244" width="56" height="40" rx="7" stroke="url(#glow)" stroke-opacity="0.75" stroke-width="6"/>
  <rect x="336" y="244" width="56" height="40" rx="7" stroke="url(#glow)" stroke-opacity="0.75" stroke-width="6"/>

  <path d="M144 228C144 198 168 174 198 174H314C344 174 368 198 368 228V302C368 370 317 425 256 425C195 425 144 370 144 302V228Z" fill="url(#bodyGrad)" stroke="#E4F5FF" stroke-opacity="0.42" stroke-width="7"/>

  <path d="M190 331C206 346 229 355 256 355C283 355 306 346 322 331" stroke="url(#glow)" stroke-opacity="0.85" stroke-width="8" stroke-linecap="round"/>
  <path d="M182 270H331" stroke="url(#glow)" stroke-opacity="0.78" stroke-width="6" stroke-linecap="round"/>
  <path d="M198 239C215 247 233 251 256 251C279 251 297 247 314 239" stroke="url(#glow)" stroke-opacity="0.76" stroke-width="6" stroke-linecap="round"/>

  <path d="M171 177C191 167 212 162 256 162C300 162 321 167 341 177" stroke="url(#glow)" stroke-opacity="0.65" stroke-width="5" stroke-linecap="round"/>
  <circle cx="208" cy="192" r="8" fill="#95F5FF"/>
  <circle cx="256" cy="188" r="9" fill="#A8FBFF"/>
  <circle cx="304" cy="192" r="8" fill="#95F5FF"/>

  <path d="M190 396L184 458C183 465 188 470 195 470H212C219 470 224 465 223 458L218 396" fill="#2B3A56" stroke="#D7EEFF" stroke-opacity="0.32" stroke-width="6"/>
  <path d="M248 406L245 472C245 478 250 484 256 484C262 484 267 478 267 472L264 406" fill="#2B3A56" stroke="#D7EEFF" stroke-opacity="0.32" stroke-width="6"/>
  <path d="M294 396L289 458C288 465 293 470 300 470H317C324 470 329 465 328 458L322 396" fill="#2B3A56" stroke="#D7EEFF" stroke-opacity="0.32" stroke-width="6"/>

  <g filter="url(#softGlow)">
    <path d="M232 292L248 282L262 293L278 282" stroke="#C8FFFF" stroke-opacity="0.85" stroke-width="4" stroke-linecap="round"/>
    <path d="M214 311L236 302" stroke="#C8FFFF" stroke-opacity="0.74" stroke-width="3" stroke-linecap="round"/>
    <path d="M298 311L276 302" stroke="#C8FFFF" stroke-opacity="0.74" stroke-width="3" stroke-linecap="round"/>
  </g>
</svg>
