<?xml version="1.0" encoding="UTF-8"?>
<!DOCTYPE svg PUBLIC "-//W3C//DTD SVG 1.1//EN" "http://www.w3.org/Graphics/SVG/1.1/DTD/svg11.dtd">
<svg xmlns="http://www.w3.org/2000/svg" version="1.1" width="512px" height="512px" style="shape-rendering:geometricPrecision; text-rendering:geometricPrecision; image-rendering:optimizeQuality; fill-rule:evenodd; clip-rule:evenodd" xmlns:xlink="http://www.w3.org/1999/xlink">
<g><path style="opacity:1" fill="#505063" d="M 285.5,48.5 C 240.833,49.8333 196.167,49.8333 151.5,48.5C 158.925,46.8572 166.591,46.0238 174.5,46C 194.879,25.2392 218.879,19.5726 246.5,29C 254.216,32.1894 260.883,36.8561 266.5,43C 273.276,43.4425 279.609,45.2759 285.5,48.5 Z"/></g>
<g><path style="opacity:1" fill="#c94a43" d="M 463.5,118.5 C 453.532,119.396 443.532,119.729 433.5,119.5C 433.057,86.7332 429.057,54.3999 421.5,22.5C 422.657,15.5279 426.824,12.5279 434,13.5C 442.692,12.8429 448.692,16.5096 452,24.5C 459.532,55.3865 463.365,86.7199 463.5,118.5 Z"/></g>
<g><path style="opacity:1" fill="#4a4a5b" d="M 151.5,48.5 C 196.167,49.8333 240.833,49.8333 285.5,48.5C 298.86,57.679 305.527,70.5123 305.5,87C 305.688,104.131 298.688,117.298 284.5,126.5C 288.412,103.73 281.912,84.7302 265,69.5C 264.054,73.8075 262.554,77.8075 260.5,81.5C 213.998,80.4118 167.332,80.4118 120.5,81.5C 124.325,64.3432 134.658,53.3432 151.5,48.5 Z"/></g>
<g><path style="opacity:1" fill="#e6a59a" d="M 284.5,126.5 C 284.5,131.5 284.5,136.5 284.5,141.5C 282.508,154.047 280.342,166.714 278,179.5C 276.347,184.139 274.181,188.472 271.5,192.5C 268.036,195.462 264.703,198.629 261.5,202C 259.35,203.411 257.016,204.245 254.5,204.5C 255.821,185.884 256.487,167.051 256.5,148C 256.5,129.33 256.167,110.83 255.5,92.5C 257.438,88.9568 259.105,85.2901 260.5,81.5C 262.554,77.8075 264.054,73.8075 265,69.5C 281.912,84.7302 288.412,103.73 284.5,126.5 Z"/></g>
<g><path style="opacity:1" fill="#444456" d="M 260.5,81.5 C 259.105,85.2901 257.438,88.9568 255.5,92.5C 252.554,98.071 248.888,103.071 244.5,107.5C 203.33,107.168 162.33,107.501 121.5,108.5C 118.113,99.6885 117.78,90.6885 120.5,81.5C 167.332,80.4118 213.998,80.4118 260.5,81.5 Z"/></g>
<g><path style="opacity:1" fill="#e6afa4" d="M 255.5,92.5 C 256.167,110.83 256.5,129.33 256.5,148C 256.487,167.051 255.821,185.884 254.5,204.5C 252.379,204.675 250.379,204.341 248.5,203.5C 243.466,202.602 238.799,200.935 234.5,198.5C 234.5,171.833 234.5,145.167 234.5,118.5C 238.515,115.484 241.848,111.817 244.5,107.5C 248.888,103.071 252.554,98.071 255.5,92.5 Z"/></g>
<g><path style="opacity:1" fill="#3c3c4f" d="M 244.5,107.5 C 241.848,111.817 238.515,115.484 234.5,118.5C 227.009,124.326 219.009,129.326 210.5,133.5C 208.213,133.724 206.047,134.391 204,135.5C 201.551,134.056 199.385,132.222 197.5,130C 187.944,126.888 181.444,130.055 178,139.5C 177.324,144.871 177.491,150.204 178.5,155.5C 175.099,163.289 170.432,170.289 164.5,176.5C 155.316,183.59 144.983,188.257 133.5,190.5C 129.425,191.341 126.425,190.008 124.5,186.5C 125.023,179.737 126.19,173.07 128,166.5C 128.667,155.833 128.667,145.167 128,134.5C 127.648,132.753 127.148,131.086 126.5,129.5C 124.99,122.459 123.323,115.459 121.5,108.5C 162.33,107.501 203.33,107.168 244.5,107.5 Z"/></g>
<g><path style="opacity:1" fill="#b42b2b" d="M 429.5,159.5 C 429.561,167.766 428.561,175.766 426.5,183.5C 424.705,174.242 420.538,166.242 414,159.5C 407.551,149.039 404.885,137.706 406,125.5C 408.76,123.297 411.76,122.964 415,124.5C 416.666,131.483 418.332,138.483 420,145.5C 422.448,150.752 425.614,155.419 429.5,159.5 Z"/></g>
<g><path style="opacity:1" fill="#6f95a7" d="M 126.5,129.5 C 127.148,131.086 127.648,132.753 128,134.5C 128.667,145.167 128.667,155.833 128,166.5C 126.19,173.07 125.023,179.737 124.5,186.5C 110.5,186.5 96.5,186.5 82.5,186.5C 82.8128,182.958 82.4794,179.625 81.5,176.5C 81.2688,164.037 78.1021,152.371 72,141.5C 68.2778,134.93 62.7778,130.93 55.5,129.5C 79.0193,125.545 102.686,125.545 126.5,129.5 Z"/></g>
<g><path style="opacity:1" fill="#d4716c" d="M 244.5,128.5 C 252.619,128.469 254.619,131.969 250.5,139C 241.412,139.426 239.412,135.926 244.5,128.5 Z"/></g>
<g><path style="opacity:1" fill="#d4716c" d="M 264.5,128.5 C 272.619,128.469 274.619,131.969 270.5,139C 261.412,139.426 259.412,135.926 264.5,128.5 Z"/></g>
<g><path style="opacity:1" fill="#e6b8b1" d="M 234.5,118.5 C 234.5,145.167 234.5,171.833 234.5,198.5C 224.676,195.426 216.343,190.092 209.5,182.5C 210.496,166.342 210.83,150.009 210.5,133.5C 219.009,129.326 227.009,124.326 234.5,118.5 Z"/></g>
<g><path style="opacity:1" fill="#e5c2bb" d="M 210.5,133.5 C 210.83,150.009 210.496,166.342 209.5,182.5C 206.976,178.257 204.643,173.924 202.5,169.5C 191.803,169.484 183.803,164.817 178.5,155.5C 177.491,150.204 177.324,144.871 178,139.5C 181.444,130.055 187.944,126.888 197.5,130C 199.385,132.222 201.551,134.056 204,135.5C 206.047,134.391 208.213,133.724 210.5,133.5 Z"/></g>
<g><path style="opacity:1" fill="#456976" d="M 55.5,129.5 C 62.7778,130.93 68.2778,134.93 72,141.5C 78.1021,152.371 81.2688,164.037 81.5,176.5C 83.4234,192.13 80.5901,206.797 73,220.5C 70.0954,224.582 66.2621,227.249 61.5,228.5C 54.9334,228.633 49.7667,225.966 46,220.5C 43.6284,217.09 41.7951,213.423 40.5,209.5C 45.9659,213.085 51.9659,214.252 58.5,213C 66.6613,208.205 71.4946,201.039 73,191.5C 73.6667,184.5 73.6667,177.5 73,170.5C 69.6478,159.245 62.1478,154.078 50.5,155C 45.7435,157.422 42.9102,161.255 42,166.5C 40.1315,174.296 41.9648,180.963 47.5,186.5C 48.3283,181.868 48.8283,177.202 49,172.5C 51.4149,168.649 54.9149,167.482 59.5,169C 61.0488,170.214 62.2155,171.714 63,173.5C 64.9624,181.514 64.9624,189.514 63,197.5C 55.3532,205.714 48.0199,205.381 41,196.5C 37.5927,190.43 35.0927,184.096 33.5,177.5C 32.9128,162.931 36.0795,149.265 43,136.5C 46.1021,132.2 50.2687,129.867 55.5,129.5 Z"/></g>
<g><path style="opacity:1" fill="#456a75" d="M 284.5,141.5 C 294.129,143.615 300.962,149.282 305,158.5C 308.077,169.352 308.91,180.352 307.5,191.5C 295.462,191.228 283.462,191.562 271.5,192.5C 274.181,188.472 276.347,184.139 278,179.5C 280.342,166.714 282.508,154.047 284.5,141.5 Z"/></g>
<g><path style="opacity:1" fill="#d2514a" d="M 463.5,118.5 C 463.54,127.528 463.04,136.528 462,145.5C 458.61,167.571 456.11,189.737 454.5,212C 455.074,217.556 456.741,222.722 459.5,227.5C 447.835,227.87 436.168,228.204 424.5,228.5C 424.55,213.47 425.217,198.47 426.5,183.5C 428.561,175.766 429.561,167.766 429.5,159.5C 431.934,146.297 433.267,132.963 433.5,119.5C 443.532,119.729 453.532,119.396 463.5,118.5 Z"/></g>
<g><path style="opacity:1" fill="#d3706b" d="M 202.5,169.5 C 204.643,173.924 206.976,178.257 209.5,182.5C 216.343,190.092 224.676,195.426 234.5,198.5C 238.799,200.935 243.466,202.602 248.5,203.5C 248.5,206.833 248.5,210.167 248.5,213.5C 248.5,216.5 248.5,219.5 248.5,222.5C 245.167,221.833 241.833,221.167 238.5,220.5C 232.941,219.092 227.608,217.092 222.5,214.5C 215.294,210.954 208.627,206.621 202.5,201.5C 202.5,190.833 202.5,180.167 202.5,169.5 Z"/></g>
<g><path style="opacity:1" fill="#6e94a2" d="M 40.5,209.5 C 36.2507,199.373 33.9173,188.706 33.5,177.5C 35.0927,184.096 37.5927,190.43 41,196.5C 48.0199,205.381 55.3532,205.714 63,197.5C 64.9624,189.514 64.9624,181.514 63,173.5C 62.2155,171.714 61.0488,170.214 59.5,169C 54.9149,167.482 51.4149,168.649 49,172.5C 48.8283,177.202 48.3283,181.868 47.5,186.5C 41.9648,180.963 40.1315,174.296 42,166.5C 42.9102,161.255 45.7435,157.422 50.5,155C 62.1478,154.078 69.6478,159.245 73,170.5C 73.6667,177.5 73.6667,184.5 73,191.5C 71.4946,201.039 66.6613,208.205 58.5,213C 51.9659,214.252 45.9659,213.085 40.5,209.5 Z"/></g>
<g><path style="opacity:1" fill="#6d93a0" d="M 81.5,176.5 C 82.4794,179.625 82.8128,182.958 82.5,186.5C 96.5,186.5 110.5,186.5 124.5,186.5C 126.425,190.008 129.425,191.341 133.5,190.5C 132.216,204.8 128.216,218.3 121.5,231C 102.814,231.359 84.1471,230.859 65.5,229.5C 63.901,229.768 62.5676,229.434 61.5,228.5C 66.2621,227.249 70.0954,224.582 73,220.5C 80.5901,206.797 83.4234,192.13 81.5,176.5 Z"/></g>
<g><path style="opacity:1" fill="#6e94a2" d="M 178.5,155.5 C 183.803,164.817 191.803,169.484 202.5,169.5C 202.5,180.167 202.5,190.833 202.5,201.5C 202.828,212.346 202.494,223.013 201.5,233.5C 201.681,227.35 198.681,224.684 192.5,225.5C 183.631,226.013 175.298,228.346 167.5,232.5C 161.794,232.829 156.128,232.495 150.5,231.5C 158.211,213.944 162.878,195.611 164.5,176.5C 170.432,170.289 175.099,163.289 178.5,155.5 Z"/></g>
<g><path style="opacity:1" fill="#456475" d="M 307.5,191.5 C 306.566,198.918 304.566,205.918 301.5,212.5C 283.829,212.64 266.162,212.973 248.5,213.5C 248.5,210.167 248.5,206.833 248.5,203.5C 250.379,204.341 252.379,204.675 254.5,204.5C 257.016,204.245 259.35,203.411 261.5,202C 264.703,198.629 268.036,195.462 271.5,192.5C 283.462,191.562 295.462,191.228 307.5,191.5 Z"/></g>
<g><path style="opacity:1" fill="#e6c0b8" d="M 202.5,201.5 C 208.627,206.621 215.294,210.954 222.5,214.5C 222.5,238.5 222.5,262.5 222.5,286.5C 218.247,283.59 214.247,280.256 210.5,276.5C 206.4,272.074 202.4,267.741 198.5,263.5C 200.16,253.577 201.16,243.577 201.5,233.5C 202.494,223.013 202.828,212.346 202.5,201.5 Z"/></g>
<g><path style="opacity:1" fill="#e6b2a9" d="M 222.5,214.5 C 227.608,217.092 232.941,219.092 238.5,220.5C 238.831,246.005 238.498,271.339 237.5,296.5C 235.5,295.833 233.5,295.167 231.5,294.5C 228.5,291.833 225.5,289.167 222.5,286.5C 222.5,262.5 222.5,238.5 222.5,214.5 Z"/></g>
<g><path style="opacity:1" fill="#e6a69b" d="M 238.5,220.5 C 241.833,221.167 245.167,221.833 248.5,222.5C 248.19,225.713 248.523,228.713 249.5,231.5C 249.325,239.127 250.325,246.46 252.5,253.5C 252.734,266.772 250.568,279.772 246,292.5C 244.974,295.239 243.474,297.572 241.5,299.5C 240.128,298.488 238.795,297.488 237.5,296.5C 238.498,271.339 238.831,246.005 238.5,220.5 Z"/></g>
<g><path style="opacity:1" fill="#40636f" d="M 301.5,212.5 C 297.829,226.171 289.163,234.837 275.5,238.5C 267.857,232.869 259.19,230.536 249.5,231.5C 248.523,228.713 248.19,225.713 248.5,222.5C 248.5,219.5 248.5,216.5 248.5,213.5C 266.162,212.973 283.829,212.64 301.5,212.5 Z"/></g>
<g><path style="opacity:1" fill="#3f6471" d="M 164.5,176.5 C 162.878,195.611 158.211,213.944 150.5,231.5C 156.128,232.495 161.794,232.829 167.5,232.5C 163.383,236.941 161.716,242.274 162.5,248.5C 158.403,253.687 154.07,258.687 149.5,263.5C 130.338,262.948 111.005,262.948 91.5,263.5C 91.5,259.833 91.5,256.167 91.5,252.5C 80.8502,251.747 70.1836,251.08 59.5,250.5C 60.415,243.171 62.415,236.171 65.5,229.5C 84.1471,230.859 102.814,231.359 121.5,231C 128.216,218.3 132.216,204.8 133.5,190.5C 144.983,188.257 155.316,183.59 164.5,176.5 Z"/></g>
<g><path style="opacity:1" fill="#d95750" d="M 459.5,227.5 C 463.525,231.844 468.192,235.511 473.5,238.5C 475.456,247.061 476.289,255.728 476,264.5C 470.789,267.443 466.122,271.11 462,275.5C 459.066,280.469 457.233,285.802 456.5,291.5C 446.435,291.987 436.435,292.653 426.5,293.5C 424.058,271.725 423.391,250.058 424.5,228.5C 436.168,228.204 447.835,227.87 459.5,227.5 Z"/></g>
<g><path style="opacity:1" fill="#4d4d5e" d="M 201.5,233.5 C 201.16,243.577 200.16,253.577 198.5,263.5C 197.833,267.833 197.167,272.167 196.5,276.5C 184.869,277.516 173.202,278.182 161.5,278.5C 161.301,268.473 161.634,258.473 162.5,248.5C 161.716,242.274 163.383,236.941 167.5,232.5C 175.298,228.346 183.631,226.013 192.5,225.5C 198.681,224.684 201.681,227.35 201.5,233.5 Z"/></g>
<g><path style="opacity:1" fill="#618694" d="M 59.5,250.5 C 70.1836,251.08 80.8502,251.747 91.5,252.5C 91.5,256.167 91.5,259.833 91.5,263.5C 91.1667,279.5 90.8333,295.5 90.5,311.5C 80.1871,310.539 69.8538,309.873 59.5,309.5C 59.5,289.833 59.5,270.167 59.5,250.5 Z"/></g>
<g><path style="opacity:1" fill="#3c5b6f" d="M 149.5,263.5 C 135.423,281.331 122.09,299.665 109.5,318.5C 108.198,321.107 108.364,323.773 110,326.5C 113.448,329.776 116.615,333.109 119.5,336.5C 114.444,342.89 109.777,349.557 105.5,356.5C 98.0992,366.287 91.4326,376.62 85.5,387.5C 83.7273,380.534 82.0607,373.534 80.5,366.5C 80.3551,357.797 80.8551,349.13 82,340.5C 83.6275,334.112 86.1275,328.112 89.5,322.5C 79.5222,321.501 69.5222,321.168 59.5,321.5C 59.5,317.5 59.5,313.5 59.5,309.5C 69.8538,309.873 80.1871,310.539 90.5,311.5C 90.8333,295.5 91.1667,279.5 91.5,263.5C 111.005,262.948 130.338,262.948 149.5,263.5 Z"/></g>
<g><path style="opacity:1" fill="#48485a" d="M 249.5,231.5 C 259.19,230.536 267.857,232.869 275.5,238.5C 275.833,239.167 276.167,239.833 276.5,240.5C 285.248,252.314 292.748,264.981 299,278.5C 302.08,285.574 304.247,292.907 305.5,300.5C 296.825,301.132 288.158,301.799 279.5,302.5C 273.876,284.247 264.876,267.914 252.5,253.5C 250.325,246.46 249.325,239.127 249.5,231.5 Z"/></g>
<g><path style="opacity:1" fill="#e3d7ce" d="M 162.5,248.5 C 161.634,258.473 161.301,268.473 161.5,278.5C 160.651,292.831 159.651,307.164 158.5,321.5C 145.489,321.603 132.489,321.27 119.5,320.5C 115.761,320.486 112.428,319.82 109.5,318.5C 122.09,299.665 135.423,281.331 149.5,263.5C 154.07,258.687 158.403,253.687 162.5,248.5 Z"/></g>
<g><path style="opacity:1" fill="#e3d7ce" d="M 252.5,253.5 C 264.876,267.914 273.876,284.247 279.5,302.5C 281.14,308.392 282.14,314.392 282.5,320.5C 282.5,321.833 282.5,323.167 282.5,324.5C 263.846,323.778 245.179,323.278 226.5,323C 224.618,322.802 222.952,322.302 221.5,321.5C 229.24,315.096 235.907,307.762 241.5,299.5C 243.474,297.572 244.974,295.239 246,292.5C 250.568,279.772 252.734,266.772 252.5,253.5 Z"/></g>
<g><path style="opacity:1" fill="#e6dbd3" d="M 276.5,240.5 C 282.335,241.39 287.668,243.557 292.5,247C 309.411,264.739 325.744,282.906 341.5,301.5C 330.012,302.495 318.345,302.828 306.5,302.5C 305.662,302.158 305.328,301.492 305.5,300.5C 304.247,292.907 302.08,285.574 299,278.5C 292.748,264.981 285.248,252.314 276.5,240.5 Z"/></g>
<g><path style="opacity:1" fill="#e4d7cd" d="M 198.5,263.5 C 202.4,267.741 206.4,272.074 210.5,276.5C 214.247,280.256 218.247,283.59 222.5,286.5C 225.5,289.167 228.5,291.833 231.5,294.5C 221.065,311.85 206.065,321.85 186.5,324.5C 190.262,308.595 193.595,292.595 196.5,276.5C 197.167,272.167 197.833,267.833 198.5,263.5 Z"/></g>
<g><path style="opacity:1" fill="#bba297" d="M 231.5,294.5 C 233.5,295.167 235.5,295.833 237.5,296.5C 238.795,297.488 240.128,298.488 241.5,299.5C 235.907,307.762 229.24,315.096 221.5,321.5C 210.246,330.03 197.58,335.03 183.5,336.5C 184.213,332.313 185.213,328.313 186.5,324.5C 206.065,321.85 221.065,311.85 231.5,294.5 Z"/></g>
<g><path style="opacity:1" fill="#3d3d50" d="M 305.5,300.5 C 305.328,301.492 305.662,302.158 306.5,302.5C 308.995,319.972 307.328,336.972 301.5,353.5C 299.479,356.235 297.479,358.901 295.5,361.5C 292.15,363.196 288.817,364.863 285.5,366.5C 285.663,356.518 285.33,346.518 284.5,336.5C 284.745,330.916 284.078,325.583 282.5,320.5C 282.14,314.392 281.14,308.392 279.5,302.5C 288.158,301.799 296.825,301.132 305.5,300.5 Z"/></g>
<g><path style="opacity:1" fill="#3f3f51" d="M 196.5,276.5 C 193.595,292.595 190.262,308.595 186.5,324.5C 185.213,328.313 184.213,332.313 183.5,336.5C 182.232,338.905 181.565,341.572 181.5,344.5C 178.55,352.298 176.216,360.298 174.5,368.5C 172.595,372.216 171.261,376.216 170.5,380.5C 169.833,380.5 169.5,380.833 169.5,381.5C 161.614,379.053 157.614,373.72 157.5,365.5C 158.119,350.841 158.452,336.175 158.5,321.5C 159.651,307.164 160.651,292.831 161.5,278.5C 173.202,278.182 184.869,277.516 196.5,276.5 Z"/></g>
<g><path style="opacity:1" fill="#e1d1ca" d="M 341.5,301.5 C 348.489,305.802 350.655,311.802 348,319.5C 342.073,324.54 335.906,329.207 329.5,333.5C 320.427,340.58 311.094,347.246 301.5,353.5C 307.328,336.972 308.995,319.972 306.5,302.5C 318.345,302.828 330.012,302.495 341.5,301.5 Z"/></g>
<g><path style="opacity:1" fill="#e15e55" d="M 456.5,291.5 C 459.007,308.21 461.841,324.877 465,341.5C 467.272,358.77 468.772,376.103 469.5,393.5C 459.742,390.297 449.742,389.631 439.5,391.5C 438.61,377.821 437.443,364.155 436,350.5C 432.895,331.477 429.728,312.477 426.5,293.5C 436.435,292.653 446.435,291.987 456.5,291.5 Z"/></g>
<g><path style="opacity:1" fill="#e0cbc5" d="M 109.5,318.5 C 112.428,319.82 115.761,320.486 119.5,320.5C 132.489,321.27 145.489,321.603 158.5,321.5C 158.452,336.175 158.119,350.841 157.5,365.5C 157.167,365.5 156.833,365.5 156.5,365.5C 145.69,356.198 134.69,347.031 123.5,338C 122.255,337.209 120.922,336.709 119.5,336.5C 116.615,333.109 113.448,329.776 110,326.5C 108.364,323.773 108.198,321.107 109.5,318.5 Z"/></g>
<g><path style="opacity:1" fill="#e0cdc6" d="M 282.5,320.5 C 284.078,325.583 284.745,330.916 284.5,336.5C 284.5,339.833 284.5,343.167 284.5,346.5C 250.165,345.903 215.832,345.236 181.5,344.5C 181.565,341.572 182.232,338.905 183.5,336.5C 197.58,335.03 210.246,330.03 221.5,321.5C 222.952,322.302 224.618,322.802 226.5,323C 245.179,323.278 263.846,323.778 282.5,324.5C 282.5,323.167 282.5,321.833 282.5,320.5 Z"/></g>
<g><path style="opacity:1" fill="#567d88" d="M 59.5,321.5 C 69.5222,321.168 79.5222,321.501 89.5,322.5C 86.1275,328.112 83.6275,334.112 82,340.5C 80.8551,349.13 80.3551,357.797 80.5,366.5C 68.1769,365.862 55.8436,365.528 43.5,365.5C 42.7363,348.445 48.0696,333.778 59.5,321.5 Z"/></g>
<g><path style="opacity:1" fill="#d4716b" d="M 329.5,333.5 C 331.762,342.618 334.428,351.618 337.5,360.5C 334.628,362.351 331.628,364.017 328.5,365.5C 319.694,368.102 311.028,371.102 302.5,374.5C 299.928,370.361 297.595,366.027 295.5,361.5C 297.479,358.901 299.479,356.235 301.5,353.5C 311.094,347.246 320.427,340.58 329.5,333.5 Z"/></g>
<g><path style="opacity:1" fill="#d3716b" d="M 119.5,336.5 C 120.922,336.709 122.255,337.209 123.5,338C 134.69,347.031 145.69,356.198 156.5,365.5C 152.833,369.5 149.167,373.5 145.5,377.5C 137.266,372.884 128.932,368.55 120.5,364.5C 115.667,361.582 110.667,358.916 105.5,356.5C 109.777,349.557 114.444,342.89 119.5,336.5 Z"/></g>
<g><path style="opacity:1" fill="#dfc7bf" d="M 284.5,336.5 C 285.33,346.518 285.663,356.518 285.5,366.5C 285.5,368.5 285.5,370.5 285.5,372.5C 256.831,372.194 228.164,371.694 199.5,371C 190.773,371.141 182.44,370.308 174.5,368.5C 176.216,360.298 178.55,352.298 181.5,344.5C 215.832,345.236 250.165,345.903 284.5,346.5C 284.5,343.167 284.5,339.833 284.5,336.5 Z"/></g>
<g><path style="opacity:1" fill="#e6bab2" d="M 105.5,356.5 C 110.667,358.916 115.667,361.582 120.5,364.5C 120.815,378.579 120.482,392.579 119.5,406.5C 101.579,407.475 84.9128,412.475 69.5,421.5C 73.7537,409.659 79.087,398.326 85.5,387.5C 91.4326,376.62 98.0992,366.287 105.5,356.5 Z"/></g>
<g><path style="opacity:1" fill="#e7aea5" d="M 337.5,360.5 C 343.801,376.801 355.135,388.135 371.5,394.5C 364.276,405.933 359.61,418.267 357.5,431.5C 345.1,429.969 335.1,424.303 327.5,414.5C 328.496,398.342 328.83,382.009 328.5,365.5C 331.628,364.017 334.628,362.351 337.5,360.5 Z"/></g>
<g><path style="opacity:1" fill="#4f7580" d="M 43.5,365.5 C 55.8436,365.528 68.1769,365.862 80.5,366.5C 82.0607,373.534 83.7273,380.534 85.5,387.5C 79.087,398.326 73.7537,409.659 69.5,421.5C 67.7028,422.73 65.7028,423.396 63.5,423.5C 52.268,418.076 45.768,409.076 44,396.5C 43.5002,386.172 43.3335,375.839 43.5,365.5 Z"/></g>
<g><path style="opacity:1" fill="#39576a" d="M 156.5,365.5 C 156.833,365.5 157.167,365.5 157.5,365.5C 157.614,373.72 161.614,379.053 169.5,381.5C 169.5,393.833 169.5,406.167 169.5,418.5C 165.719,418.974 162.552,420.641 160,423.5C 156.881,431.926 154.715,440.592 153.5,449.5C 152.13,447.75 151.13,445.75 150.5,443.5C 147.243,435.976 143.243,428.976 138.5,422.5C 136.555,418.264 133.888,414.597 130.5,411.5C 128.69,407.689 125.69,406.023 121.5,406.5C 129.5,396.833 137.5,387.167 145.5,377.5C 149.167,373.5 152.833,369.5 156.5,365.5 Z"/></g>
<g><path style="opacity:1" fill="#e7bcb4" d="M 328.5,365.5 C 328.83,382.009 328.496,398.342 327.5,414.5C 317.654,402.148 309.321,388.814 302.5,374.5C 311.028,371.102 319.694,368.102 328.5,365.5 Z"/></g>
<g><path style="opacity:1" fill="#e5aca2" d="M 120.5,364.5 C 128.932,368.55 137.266,372.884 145.5,377.5C 137.5,387.167 129.5,396.833 121.5,406.5C 120.833,406.5 120.167,406.5 119.5,406.5C 120.482,392.579 120.815,378.579 120.5,364.5 Z"/></g>
<g><path style="opacity:1" fill="#d9c0b9" d="M 174.5,368.5 C 182.44,370.308 190.773,371.141 199.5,371C 228.164,371.694 256.831,372.194 285.5,372.5C 285.39,380.525 285.724,388.525 286.5,396.5C 282.919,395.74 279.252,395.24 275.5,395C 240.489,394.375 205.489,393.541 170.5,392.5C 170.5,388.5 170.5,384.5 170.5,380.5C 171.261,376.216 172.595,372.216 174.5,368.5 Z"/></g>
<g><path style="opacity:1" fill="#d9bab4" d="M 170.5,392.5 C 205.489,393.541 240.489,394.375 275.5,395C 279.252,395.24 282.919,395.74 286.5,396.5C 286.5,396.833 286.5,397.167 286.5,397.5C 266.612,407.297 246.112,415.63 225,422.5C 206.266,417.258 188.266,410.258 171,401.5C 170.502,398.518 170.335,395.518 170.5,392.5 Z"/></g>
<g><path style="opacity:1" fill="#b9a196" d="M 170.5,380.5 C 170.5,384.5 170.5,388.5 170.5,392.5C 170.335,395.518 170.502,398.518 171,401.5C 188.266,410.258 206.266,417.258 225,422.5C 246.112,415.63 266.612,407.297 286.5,397.5C 287.354,404.178 288.354,410.845 289.5,417.5C 279.649,421.089 269.982,425.255 260.5,430C 250.919,433.804 241.253,437.304 231.5,440.5C 227.126,439.656 222.793,438.656 218.5,437.5C 202.152,431.381 185.818,425.047 169.5,418.5C 169.5,406.167 169.5,393.833 169.5,381.5C 169.5,380.833 169.833,380.5 170.5,380.5 Z"/></g>
<g><path style="opacity:1" fill="#be6f65" d="M 371.5,394.5 C 373.894,395.015 376.228,395.681 378.5,396.5C 377.789,416.263 376.456,435.93 374.5,455.5C 368.455,455.697 362.455,455.363 356.5,454.5C 356.269,446.791 356.602,439.124 357.5,431.5C 359.61,418.267 364.276,405.933 371.5,394.5 Z"/></g>
<g><path style="opacity:1" fill="#b26559" d="M 378.5,396.5 C 386.153,397.593 393.82,398.593 401.5,399.5C 399.954,417.455 398.954,435.455 398.5,453.5C 390.559,454.606 382.559,455.273 374.5,455.5C 376.456,435.93 377.789,416.263 378.5,396.5 Z"/></g>
<g><path style="opacity:1" fill="#9d5446" d="M 401.5,399.5 C 410.467,400.383 419.467,400.716 428.5,400.5C 427.573,407.443 427.24,414.443 427.5,421.5C 443.826,420.682 460.16,420.015 476.5,419.5C 476.263,418.209 476.596,417.209 477.5,416.5C 477.666,424.174 477.5,431.841 477,439.5C 476.16,445.189 473.327,449.523 468.5,452.5C 458.567,454.719 448.567,455.053 438.5,453.5C 435.232,452.076 432.066,450.409 429,448.5C 418.961,450.979 408.795,452.645 398.5,453.5C 398.954,435.455 399.954,417.455 401.5,399.5 Z"/></g>
<g><path style="opacity:1" fill="#bb6d63" d="M 119.5,406.5 C 120.167,406.5 120.833,406.5 121.5,406.5C 125.69,406.023 128.69,407.689 130.5,411.5C 116.531,423.802 103.198,436.802 90.5,450.5C 79.0662,445.284 67.7329,439.784 56.5,434C 55.4464,432.612 55.2797,431.112 56,429.5C 58.6877,427.636 61.1877,425.636 63.5,423.5C 65.7028,423.396 67.7028,422.73 69.5,421.5C 84.9128,412.475 101.579,407.475 119.5,406.5 Z"/></g>
<g><path style="opacity:1" fill="#aa5f52" d="M 469.5,393.5 C 472.559,395.397 474.726,398.064 476,401.5C 477.25,406.42 477.75,411.42 477.5,416.5C 476.596,417.209 476.263,418.209 476.5,419.5C 460.16,420.015 443.826,420.682 427.5,421.5C 427.24,414.443 427.573,407.443 428.5,400.5C 430.671,395.662 434.337,392.662 439.5,391.5C 449.742,389.631 459.742,390.297 469.5,393.5 Z"/></g>
<g><path style="opacity:1" fill="#b06357" d="M 130.5,411.5 C 133.888,414.597 136.555,418.264 138.5,422.5C 126.5,433.833 114.833,445.5 103.5,457.5C 98.9726,455.405 94.6392,453.072 90.5,450.5C 103.198,436.802 116.531,423.802 130.5,411.5 Z"/></g>
<g><path style="opacity:1" fill="#4a6f78" d="M 289.5,417.5 C 293.426,417.047 296.592,418.38 299,421.5C 302.748,426.998 305.415,432.998 307,439.5C 311.014,458.407 311.847,477.407 309.5,496.5C 298.718,496.217 288.052,495.217 277.5,493.5C 283.494,481.197 289.494,468.863 295.5,456.5C 282.982,453.348 270.316,450.681 257.5,448.5C 248.833,445.833 240.167,443.167 231.5,440.5C 241.253,437.304 250.919,433.804 260.5,430C 269.982,425.255 279.649,421.089 289.5,417.5 Z"/></g>
<g><path style="opacity:1" fill="#6c91a0" d="M 169.5,418.5 C 185.818,425.047 202.152,431.381 218.5,437.5C 211.386,450.063 205.052,463.063 199.5,476.5C 183.202,471.96 167.869,465.293 153.5,456.5C 153.5,454.167 153.5,451.833 153.5,449.5C 154.715,440.592 156.881,431.926 160,423.5C 162.552,420.641 165.719,418.974 169.5,418.5 Z"/></g>
<g><path style="opacity:1" fill="#a3594c" d="M 138.5,422.5 C 143.243,428.976 147.243,435.976 150.5,443.5C 137.535,454.463 124.869,465.796 112.5,477.5C 114.096,468.577 111.096,461.91 103.5,457.5C 114.833,445.5 126.5,433.833 138.5,422.5 Z"/></g>
<g><path style="opacity:1" fill="#5f8491" d="M 218.5,437.5 C 222.793,438.656 227.126,439.656 231.5,440.5C 240.167,443.167 248.833,445.833 257.5,448.5C 252.044,461.413 246.044,474.08 239.5,486.5C 225.719,484.565 212.385,481.232 199.5,476.5C 205.052,463.063 211.386,450.063 218.5,437.5 Z"/></g>
<g><path style="opacity:1" fill="#954e3f" d="M 150.5,443.5 C 151.13,445.75 152.13,447.75 153.5,449.5C 153.5,451.833 153.5,454.167 153.5,456.5C 152.221,469.784 152.221,483.118 153.5,496.5C 144.418,496.914 135.418,496.414 126.5,495C 119.025,491.364 114.359,485.531 112.5,477.5C 124.869,465.796 137.535,454.463 150.5,443.5 Z"/></g>
<g><path style="opacity:1" fill="#557b86" d="M 257.5,448.5 C 270.316,450.681 282.982,453.348 295.5,456.5C 289.494,468.863 283.494,481.197 277.5,493.5C 265.764,492.3 254.097,490.633 242.5,488.5C 241.5,487.833 240.5,487.167 239.5,486.5C 246.044,474.08 252.044,461.413 257.5,448.5 Z"/></g>
<g><path style="opacity:1" fill="#b62c2c" d="M 468.5,452.5 C 468.064,466.989 466.397,481.322 463.5,495.5C 453.522,496.499 443.522,496.832 433.5,496.5C 435.905,482.257 437.572,467.923 438.5,453.5C 448.567,455.053 458.567,454.719 468.5,452.5 Z"/></g>
<g><path style="opacity:1" fill="#39586c" d="M 153.5,456.5 C 167.869,465.293 183.202,471.96 199.5,476.5C 212.385,481.232 225.719,484.565 239.5,486.5C 240.5,487.167 241.5,487.833 242.5,488.5C 213.199,495.012 183.532,497.679 153.5,496.5C 152.221,483.118 152.221,469.784 153.5,456.5 Z"/></g>
</svg>
