<?xml version="1.0" encoding="UTF-8"?>
<!DOCTYPE svg PUBLIC "-//W3C//DTD SVG 1.1//EN" "http://www.w3.org/Graphics/SVG/1.1/DTD/svg11.dtd">
<svg xmlns="http://www.w3.org/2000/svg" version="1.1" width="512px" height="512px" style="shape-rendering:geometricPrecision; text-rendering:geometricPrecision; image-rendering:optimizeQuality; fill-rule:evenodd; clip-rule:evenodd" xmlns:xlink="http://www.w3.org/1999/xlink">
<g><path style="opacity:1" fill="#33333f" d="M 460.5,492.5 C 458.5,492.5 456.5,492.5 454.5,492.5C 456.784,480.61 458.117,468.61 458.5,456.5C 452.5,456.5 446.5,456.5 440.5,456.5C 439.821,468.576 438.487,480.576 436.5,492.5C 434.5,492.5 432.5,492.5 430.5,492.5C 428.833,492.5 427.167,492.5 425.5,492.5C 427.923,479.476 429.256,466.476 429.5,453.5C 428.148,452.104 426.481,451.437 424.5,451.5C 400.683,456.652 376.683,458.152 352.5,456C 351.667,455.167 350.833,454.333 350,453.5C 349.667,446.833 349.333,440.167 349,433.5C 338.52,430.594 329.854,424.928 323,416.5C 311.406,400.982 301.073,384.649 292,367.5C 290.008,368.229 289.174,369.729 289.5,372C 290.274,384.904 291.607,397.738 293.5,410.5C 297.536,411.02 300.703,413.02 303,416.5C 310.894,430.408 314.894,445.408 315,461.5C 315.916,472.934 315.249,484.268 313,495.5C 311.406,497.297 309.406,498.297 307,498.5C 285.738,496.613 264.571,493.946 243.5,490.5C 205.792,498.122 167.792,500.289 129.5,497C 115.001,491.2 108.168,480.366 109,464.5C 108.215,462.714 107.049,461.214 105.5,460C 87.9222,451.295 70.4222,442.461 53,433.5C 50.1643,428.053 51.6643,424.22 57.5,422C 50.0388,416.256 45.2055,408.756 43,399.5C 41.4397,384.874 41.1064,370.208 42,355.5C 42.8657,341.443 47.8657,329.109 57,318.5C 57.3333,294.833 57.6667,271.167 58,247.5C 58.4582,243.584 59.2915,239.75 60.5,236C 47.5861,229.394 39.4194,218.894 36,204.5C 32.2192,188.307 31.5526,171.973 34,155.5C 35.5533,148.393 38.22,141.726 42,135.5C 44.921,131.908 48.421,129.075 52.5,127C 72.4065,123.403 92.4065,122.736 112.5,125C 113.582,126.33 114.249,127.83 114.5,129.5C 113.883,131.229 112.883,132.729 111.5,134C 99.4861,134.167 87.4861,134.667 75.5,135.5C 81.8773,143.781 86.044,153.114 88,163.5C 91.0896,181.55 89.7563,199.217 84,216.5C 82.7533,219.329 81.2533,221.995 79.5,224.5C 93.1128,226.355 106.779,226.855 120.5,226C 124.592,217.559 127.592,208.725 129.5,199.5C 127.252,196.071 124.752,192.737 122,189.5C 123.744,177.124 124.911,164.624 125.5,152C 125.404,145.136 124.904,138.303 124,131.5C 123.617,130.944 123.117,130.611 122.5,130.5C 119.651,119.117 117.318,107.617 115.5,96C 119.191,60.6465 138.858,43.3131 174.5,44C 195.999,22.7113 220.999,17.378 249.5,28C 256.701,31.0978 263.035,35.4312 268.5,41C 291.104,44.2713 304.604,57.1046 309,79.5C 312.35,100.456 306.017,117.789 290,131.5C 289.502,134.482 289.335,137.482 289.5,140.5C 301.758,144.291 308.924,152.624 311,165.5C 315.348,189.769 310.514,211.936 296.5,232C 293.739,232.722 291.073,232.555 288.5,231.5C 287.677,229.545 287.51,227.545 288,225.5C 300.84,206.128 304.507,185.128 299,162.5C 296.705,157.872 293.371,154.205 289,151.5C 288.055,151.905 287.388,152.572 287,153.5C 286.579,167.137 283.579,180.137 278,192.5C 273.392,200.441 266.892,206.275 258.5,210C 256.866,210.494 255.199,210.66 253.5,210.5C 253.5,216.167 253.5,221.833 253.5,227.5C 263.224,226.367 271.557,229.201 278.5,236C 279.793,236.49 281.127,236.657 282.5,236.5C 291.211,240.031 298.711,245.364 305,252.5C 317.962,267.797 331.295,282.797 345,297.5C 349.525,301.716 352.359,306.883 353.5,313C 353.053,315.956 352.22,318.789 351,321.5C 346.454,325.714 341.621,329.547 336.5,333C 335.196,333.804 334.529,334.971 334.5,336.5C 337.691,348.878 342.525,360.545 349,371.5C 356.805,380.817 366.638,386.65 378.5,389C 393.044,391.879 407.711,393.212 422.5,393C 424.029,389.971 426.362,387.805 429.5,386.5C 430.388,374.138 429.888,361.805 428,349.5C 425.765,334.091 423.099,318.758 420,303.5C 417.417,283.918 415.917,264.252 415.5,244.5C 416.5,222.823 417.334,201.157 418,179.5C 417.127,173.752 415.127,168.419 412,163.5C 402.149,152.627 396.983,139.794 396.5,125C 398.42,119.259 401.92,118.092 407,121.5C 407.916,135.259 412.916,147.259 422,157.5C 427.938,111.537 424.605,66.2035 412,21.5C 410.877,18.0437 411.71,15.2103 414.5,13C 425.833,12.3333 437.167,12.3333 448.5,13C 449.333,13.8333 450.167,14.6667 451,15.5C 461.992,55.105 466.659,95.4383 465,136.5C 461.466,161.934 458.633,187.434 456.5,213C 457.009,217.52 458.509,221.686 461,225.5C 465.138,229.57 469.805,232.903 475,235.5C 477.346,246.432 478.179,257.432 477.5,268.5C 466.42,272.247 460.087,279.913 458.5,291.5C 465.168,322.504 469.334,353.838 471,385.5C 473.692,389.895 476.025,394.562 478,399.5C 478.667,413.167 478.667,426.833 478,440.5C 476.928,444.98 474.594,448.647 471,451.5C 469.625,464.538 467.959,477.538 466,490.5C 464.599,492.192 462.766,492.859 460.5,492.5 Z"/></g>
<g><path style="opacity:1" fill="#69697c" d="M 290.5,64.5 C 251.331,65.3188 211.998,65.9855 172.5,66.5C 182.786,45.7509 199.619,34.7509 223,33.5C 239.341,34.0881 253.174,40.2548 264.5,52C 275.196,52.1827 283.862,56.3494 290.5,64.5 Z"/></g>
<g><path style="opacity:1" fill="#d75b55" d="M 452.5,86.5 C 446.833,86.5 441.167,86.5 435.5,86.5C 432.809,65.356 429.142,44.356 424.5,23.5C 430.5,23.5 436.5,23.5 442.5,23.5C 445.188,36.1081 447.688,48.7747 450,61.5C 451.491,69.7739 452.324,78.1072 452.5,86.5 Z"/></g>
<g><path style="opacity:1" fill="#646476" d="M 156.5,85.5 C 155.518,88.9619 155.185,92.6286 155.5,96.5C 145.756,97.1325 136.09,97.1325 126.5,96.5C 127.242,73.6382 138.742,59.9715 161,55.5C 162.5,55.8333 164,56.1667 165.5,56.5C 159.888,65.3373 156.888,75.004 156.5,85.5 Z"/></g>
<g><path style="opacity:1" fill="#636375" d="M 290.5,64.5 C 298.129,74.8848 300.629,86.5514 298,99.5C 296.388,105.391 293.721,110.725 290,115.5C 289.832,96.0049 282.332,80.1716 267.5,68C 264.653,67.0561 262.153,67.5561 260,69.5C 257.774,79.2745 253.941,88.2745 248.5,96.5C 221.5,96.5 194.5,96.5 167.5,96.5C 167.5,91.5 167.5,86.5 167.5,81.5C 167.798,75.9483 169.464,70.9483 172.5,66.5C 211.998,65.9855 251.331,65.3188 290.5,64.5 Z"/></g>
<g><path style="opacity:1" fill="#f8b8ad" d="M 254.5,199.5 C 254.5,168.833 254.5,138.167 254.5,107.5C 259.592,99.6518 263.926,91.3185 267.5,82.5C 276.989,92.9775 280.656,105.311 278.5,119.5C 278.473,139.35 276.64,159.017 273,178.5C 270.037,188.493 263.87,195.493 254.5,199.5 Z"/></g>
<g><path style="opacity:1" fill="#df5e56" d="M 435.5,86.5 C 441.167,86.5 446.833,86.5 452.5,86.5C 453.228,89.0795 453.728,91.7462 454,94.5C 454.5,106.495 454.667,118.495 454.5,130.5C 453.539,132.265 453.205,134.265 453.5,136.5C 447.833,136.5 442.167,136.5 436.5,136.5C 436.5,133.833 436.5,131.167 436.5,128.5C 436.596,114.487 436.263,100.487 435.5,86.5 Z"/></g>
<g><path style="opacity:1" fill="#5c5c6e" d="M 167.5,81.5 C 167.5,86.5 167.5,91.5 167.5,96.5C 194.5,96.5 221.5,96.5 248.5,96.5C 238.2,112.455 224.2,124.121 206.5,131.5C 197.267,123.598 188.101,123.598 179,131.5C 173.553,125.939 170.22,119.273 169,111.5C 166.67,101.421 166.17,91.4215 167.5,81.5 Z"/></g>
<g><path style="opacity:1" fill="#f8bfb5" d="M 254.5,107.5 C 254.5,138.167 254.5,168.833 254.5,199.5C 248.721,199.566 243.387,198.233 238.5,195.5C 239.833,171.833 239.833,148.167 238.5,124.5C 243.861,118.807 249.195,113.14 254.5,107.5 Z"/></g>
<g><path style="opacity:1" fill="#58586b" d="M 156.5,85.5 C 155.491,101.289 158.324,116.289 165,130.5C 167.667,133.833 170.333,137.167 173,140.5C 173.494,142.134 173.66,143.801 173.5,145.5C 172.566,146.568 172.232,147.901 172.5,149.5C 160.5,149.5 148.5,149.5 136.5,149.5C 136.078,142.457 135.245,135.457 134,128.5C 131.183,117.888 128.683,107.222 126.5,96.5C 136.09,97.1325 145.756,97.1325 155.5,96.5C 155.185,92.6286 155.518,88.9619 156.5,85.5 Z"/></g>
<g><path style="opacity:1" fill="#f8c8c0" d="M 238.5,124.5 C 239.833,148.167 239.833,171.833 238.5,195.5C 222.669,191.667 212.335,182.001 207.5,166.5C 208.833,158.5 208.833,150.5 207.5,142.5C 218.585,137.791 228.918,131.791 238.5,124.5 Z"/></g>
<g><path style="opacity:1" fill="#81a5b3" d="M 114.5,129.5 C 117.096,130.265 119.763,130.599 122.5,130.5C 123.117,130.611 123.617,130.944 124,131.5C 124.904,138.303 125.404,145.136 125.5,152C 124.911,164.624 123.744,177.124 122,189.5C 124.752,192.737 127.252,196.071 129.5,199.5C 127.592,208.725 124.592,217.559 120.5,226C 106.779,226.855 93.1128,226.355 79.5,224.5C 81.2533,221.995 82.7533,219.329 84,216.5C 89.7563,199.217 91.0896,181.55 88,163.5C 86.044,153.114 81.8773,143.781 75.5,135.5C 87.4861,134.667 99.4861,134.167 111.5,134C 112.883,132.729 113.883,131.229 114.5,129.5 Z"/></g>
<g><path style="opacity:1" fill="#e2847f" d="M 244.5,130.5 C 252.562,130.232 254.562,133.566 250.5,140.5C 245.385,142.727 242.385,141.06 241.5,135.5C 242.092,133.577 243.092,131.911 244.5,130.5 Z"/></g>
<g><path style="opacity:1" fill="#e1847e" d="M 264.5,130.5 C 272.818,130.987 274.485,134.487 269.5,141C 261.088,140.812 259.421,137.312 264.5,130.5 Z"/></g>
<g><path style="opacity:1" fill="#f6d2cb" d="M 207.5,142.5 C 208.833,150.5 208.833,158.5 207.5,166.5C 201.862,165.201 196.195,163.701 190.5,162C 183.498,156.214 181.665,149.047 185,140.5C 190.843,133.582 196.009,134.082 200.5,142C 202.81,142.497 205.143,142.663 207.5,142.5 Z"/></g>
<g><path style="opacity:1" fill="#567b87" d="M 51.5,213.5 C 60.7825,215.443 67.6159,212.11 72,203.5C 76.7165,192.526 77.7165,181.193 75,169.5C 69.7953,157.161 61.2953,153.828 49.5,159.5C 42.5451,169.159 42.8785,178.492 50.5,187.5C 51.1051,182.423 51.9384,177.423 53,172.5C 59.896,167.607 64.5627,169.274 67,177.5C 67.8842,184.582 67.5508,191.582 66,198.5C 60.0815,205.573 53.5815,206.24 46.5,200.5C 45.1682,196.736 44.3349,192.736 44,188.5C 43.3333,179.167 43.3333,169.833 44,160.5C 45.1869,150.953 49.3536,143.12 56.5,137C 58.1667,136.333 59.8333,136.333 61.5,137C 68.0647,141.617 72.5647,147.784 75,155.5C 80.9254,174.172 80.9254,192.838 75,211.5C 68.2377,226.716 60.4043,227.382 51.5,213.5 Z"/></g>
<g><path style="opacity:1" fill="#505063" d="M 173.5,145.5 C 173.595,149.225 173.762,152.891 174,156.5C 165.515,174.476 151.349,184.476 131.5,186.5C 134.563,174.389 136.23,162.055 136.5,149.5C 148.5,149.5 160.5,149.5 172.5,149.5C 172.232,147.901 172.566,146.568 173.5,145.5 Z"/></g>
<g><path style="opacity:1" fill="#80a5b3" d="M 51.5,213.5 C 49.2461,209.407 47.5794,205.073 46.5,200.5C 53.5815,206.24 60.0815,205.573 66,198.5C 67.5508,191.582 67.8842,184.582 67,177.5C 64.5627,169.274 59.896,167.607 53,172.5C 51.9384,177.423 51.1051,182.423 50.5,187.5C 42.8785,178.492 42.5451,169.159 49.5,159.5C 61.2953,153.828 69.7953,157.161 75,169.5C 77.7165,181.193 76.7165,192.526 72,203.5C 67.6159,212.11 60.7825,215.443 51.5,213.5 Z"/></g>
<g><path style="opacity:1" fill="#82a7b4" d="M 195.5,174.5 C 197.44,184.91 198.107,195.577 197.5,206.5C 187.319,206.827 177.319,206.494 167.5,205.5C 168.666,196.843 169.832,188.177 171,179.5C 174.357,175.644 177.524,171.644 180.5,167.5C 184.886,171.193 189.886,173.527 195.5,174.5 Z"/></g>
<g><path style="opacity:1" fill="#e1645d" d="M 436.5,128.5 C 436.5,131.167 436.5,133.833 436.5,136.5C 442.167,136.5 447.833,136.5 453.5,136.5C 453.205,134.265 453.539,132.265 454.5,130.5C 451.944,149.441 449.778,168.441 448,187.5C 446.79,198.146 446.457,208.813 447,219.5C 449.423,229.597 455.257,237.097 464.5,242C 465.252,242.671 465.586,243.504 465.5,244.5C 452.837,244.96 440.171,245.293 427.5,245.5C 427.5,250.833 427.5,256.167 427.5,261.5C 426.339,248.006 426.173,234.34 427,220.5C 429.366,189.599 432.533,158.932 436.5,128.5 Z"/></g>
<g><path style="opacity:1" fill="#df827d" d="M 243.5,222.5 C 241.5,221.833 239.5,221.167 237.5,220.5C 235.035,220.233 232.701,219.566 230.5,218.5C 227.529,217.173 224.529,215.84 221.5,214.5C 216.999,212.084 212.666,209.417 208.5,206.5C 208.334,201.156 208.501,195.823 209,190.5C 218.908,198.706 230.075,204.706 242.5,208.5C 243.493,213.12 243.827,217.786 243.5,222.5 Z"/></g>
<g><path style="opacity:1" fill="#537683" d="M 288.5,231.5 C 286.5,233.167 284.5,234.833 282.5,236.5C 281.127,236.657 279.793,236.49 278.5,236C 271.557,229.201 263.224,226.367 253.5,227.5C 253.5,221.833 253.5,216.167 253.5,210.5C 255.199,210.66 256.866,210.494 258.5,210C 266.892,206.275 273.392,200.441 278,192.5C 283.579,180.137 286.579,167.137 287,153.5C 287.388,152.572 288.055,151.905 289,151.5C 293.371,154.205 296.705,157.872 299,162.5C 304.507,185.128 300.84,206.128 288,225.5C 287.51,227.545 287.677,229.545 288.5,231.5 Z"/></g>
<g><path style="opacity:1" fill="#527482" d="M 157.5,188.5 C 158.497,188.47 159.164,188.97 159.5,190C 156.948,204.321 152.782,218.155 147,231.5C 145.833,232.667 144.667,233.833 143.5,235C 138.845,235.499 134.179,235.666 129.5,235.5C 134.374,222.489 138.374,209.156 141.5,195.5C 147.266,193.92 152.599,191.587 157.5,188.5 Z"/></g>
<g><path style="opacity:1" fill="#f8cec7" d="M 208.5,206.5 C 212.666,209.417 216.999,212.084 221.5,214.5C 221.831,235.673 221.497,256.673 220.5,277.5C 214.793,272.96 209.96,267.627 206,261.5C 207.59,243.23 208.423,224.897 208.5,206.5 Z"/></g>
<g><path style="opacity:1" fill="#7a9ead" d="M 195.5,174.5 C 196.5,174.5 197.5,174.5 198.5,174.5C 198.833,190.181 198.499,205.848 197.5,221.5C 187.399,220.604 177.732,222.437 168.5,227C 165.854,227.497 163.187,227.664 160.5,227.5C 162.463,219.949 164.796,212.615 167.5,205.5C 177.319,206.494 187.319,206.827 197.5,206.5C 198.107,195.577 197.44,184.91 195.5,174.5 Z"/></g>
<g><path style="opacity:1" fill="#f9c7bc" d="M 221.5,214.5 C 224.529,215.84 227.529,217.173 230.5,218.5C 230.5,240.833 230.5,263.167 230.5,285.5C 226.854,283.183 223.52,280.516 220.5,277.5C 221.497,256.673 221.831,235.673 221.5,214.5 Z"/></g>
<g><path style="opacity:1" fill="#f9c0b6" d="M 230.5,218.5 C 232.701,219.566 235.035,220.233 237.5,220.5C 237.831,243.673 237.498,266.673 236.5,289.5C 234.205,288.525 232.205,287.192 230.5,285.5C 230.5,263.167 230.5,240.833 230.5,218.5 Z"/></g>
<g><path style="opacity:1" fill="#f7b8ae" d="M 237.5,220.5 C 239.5,221.167 241.5,221.833 243.5,222.5C 243.251,231.937 244.085,241.27 246,250.5C 247.822,264.291 246.156,277.624 241,290.5C 239.251,291.553 237.751,291.22 236.5,289.5C 237.498,266.673 237.831,243.673 237.5,220.5 Z"/></g>
<g><path style="opacity:1" fill="#517582" d="M 89.5,251.5 C 82.5,251.5 75.5,251.5 68.5,251.5C 69.1743,246.105 70.1743,240.772 71.5,235.5C 78.5693,235.446 85.5693,236.112 92.5,237.5C 90.5496,241.968 89.5496,246.634 89.5,251.5 Z"/></g>
<g><path style="opacity:1" fill="#507481" d="M 153.5,252.5 C 135.845,253.283 118.178,253.616 100.5,253.5C 100.5,251.833 100.5,250.167 100.5,248.5C 100.751,244.751 101.417,241.085 102.5,237.5C 108.176,237.334 113.843,237.501 119.5,238C 122.879,244.522 128.212,247.022 135.5,245.5C 142.937,246.41 149.27,244.244 154.5,239C 156.134,238.506 157.801,238.34 159.5,238.5C 159.664,241.187 159.497,243.854 159,246.5C 156.932,248.396 155.099,250.396 153.5,252.5 Z"/></g>
<g><path style="opacity:1" fill="#4e6d80" d="M 100.5,248.5 C 100.5,250.167 100.5,251.833 100.5,253.5C 118.178,253.616 135.845,253.283 153.5,252.5C 137.766,272.958 122.266,293.625 107,314.5C 106.19,319.257 106.524,323.924 108,328.5C 110.35,330.683 112.517,333.016 114.5,335.5C 106.467,347.19 98.4672,358.856 90.5,370.5C 87.5209,357.706 88.0209,345.04 92,332.5C 93.497,328.835 95.497,325.502 98,322.5C 98.3333,301.833 98.6667,281.167 99,260.5C 99.1762,256.312 99.6762,252.312 100.5,248.5 Z"/></g>
<g><path style="opacity:1" fill="#646476" d="M 295.5,286.5 C 290.167,286.5 284.833,286.5 279.5,286.5C 275.774,280.053 272.274,273.386 269,266.5C 264.667,260.5 260.333,254.5 256,248.5C 252.542,237.305 256.375,234.471 267.5,240C 275.424,248.668 282.257,258.168 288,268.5C 291.347,274.188 293.847,280.188 295.5,286.5 Z"/></g>
<g><path style="opacity:1" fill="#646476" d="M 189.5,290.5 C 182.274,291.822 174.941,292.489 167.5,292.5C 167.5,290.833 167.5,289.167 167.5,287.5C 167.731,274.159 168.231,260.825 169,247.5C 168.365,240.256 171.532,235.756 178.5,234C 184.015,231.943 189.682,231.276 195.5,232C 196.98,233.299 197.646,234.966 197.5,237C 196.188,255.057 193.521,272.89 189.5,290.5 Z"/></g>
<g><path style="opacity:1" fill="#7196a3" d="M 68.5,251.5 C 75.5,251.5 82.5,251.5 89.5,251.5C 88.8566,271.295 88.1899,290.961 87.5,310.5C 81.1961,309.74 74.8627,309.407 68.5,309.5C 68.5,291.167 68.5,272.833 68.5,254.5C 68.5,253.5 68.5,252.5 68.5,251.5 Z"/></g>
<g><path style="opacity:1" fill="#5c5c6e" d="M 167.5,287.5 C 167.5,289.167 167.5,290.833 167.5,292.5C 174.941,292.489 182.274,291.822 189.5,290.5C 187.475,300.6 185.141,310.6 182.5,320.5C 177.228,321.4 171.895,321.733 166.5,321.5C 166.5,319.167 166.5,316.833 166.5,314.5C 166.173,305.318 166.507,296.318 167.5,287.5 Z"/></g>
<g><path style="opacity:1" fill="#f3e3db" d="M 156.5,265.5 C 157.166,269.486 157.499,273.653 157.5,278C 156.321,303.166 155.155,328.333 154,353.5C 142.123,343.288 129.956,333.454 117.5,324C 116.919,323.107 116.585,322.107 116.5,321C 118.204,316.948 120.371,313.115 123,309.5C 134.383,294.957 145.549,280.29 156.5,265.5 Z"/></g>
<g><path style="opacity:1" fill="#f5e5de" d="M 229.5,297.5 C 220.772,310.976 208.772,318.976 193.5,321.5C 196.833,306.171 200.166,290.838 203.5,275.5C 211.281,283.953 219.948,291.287 229.5,297.5 Z"/></g>
<g><path style="opacity:1" fill="#f3e4dd" d="M 294.5,258.5 C 309.765,275.604 325.265,292.604 341,309.5C 341.638,310.609 342.138,311.775 342.5,313C 341.571,315.597 339.904,317.597 337.5,319C 328.578,325.378 319.744,331.878 311,338.5C 314.675,309.876 309.175,283.209 294.5,258.5 Z"/></g>
<g><path style="opacity:1" fill="#c4aca5" d="M 229.5,297.5 C 231.358,298.595 233.025,299.929 234.5,301.5C 226.397,312.431 216.063,320.598 203.5,326C 201.081,327.509 200.081,329.675 200.5,332.5C 196.593,332.726 192.926,333.726 189.5,335.5C 190.904,330.737 192.238,326.071 193.5,321.5C 208.772,318.976 220.772,310.976 229.5,297.5 Z"/></g>
<g><path style="opacity:1" fill="#496474" d="M 68.5,254.5 C 68.5,272.833 68.5,291.167 68.5,309.5C 74.8627,309.407 81.1961,309.74 87.5,310.5C 87.5,312.167 87.5,313.833 87.5,315.5C 80.8333,315.5 74.1667,315.5 67.5,315.5C 67.1695,294.993 67.5028,274.66 68.5,254.5 Z"/></g>
<g><path style="opacity:1" fill="#57576a" d="M 279.5,286.5 C 284.833,286.5 290.167,286.5 295.5,286.5C 302.684,306.879 303.184,327.545 297,348.5C 295.691,350.976 293.858,352.976 291.5,354.5C 290.706,331.205 286.706,308.538 279.5,286.5 Z"/></g>
<g><path style="opacity:1" fill="#f1e1da" d="M 279.5,341.5 C 278.596,340.791 278.263,339.791 278.5,338.5C 248.841,337.597 219.175,336.931 189.5,336.5C 189.5,336.167 189.5,335.833 189.5,335.5C 192.926,333.726 196.593,332.726 200.5,332.5C 201.974,334.137 203.808,335.137 206,335.5C 226.441,327.394 241.441,313.394 251,293.5C 253.637,285.285 255.804,276.951 257.5,268.5C 271.798,290.685 279.132,315.018 279.5,341.5 Z"/></g>
<g><path style="opacity:1" fill="#545467" d="M 166.5,314.5 C 166.5,316.833 166.5,319.167 166.5,321.5C 171.895,321.733 177.228,321.4 182.5,320.5C 178.363,338.014 173.53,355.348 168,372.5C 166.615,371.449 165.615,370.116 165,368.5C 164.201,350.309 164.701,332.309 166.5,314.5 Z"/></g>
<g><path style="opacity:1" fill="#ee6d66" d="M 465.5,244.5 C 466.1,249.5 466.767,254.5 467.5,259.5C 458.612,264.897 452.445,272.564 449,282.5C 448.833,285.5 448.667,288.5 448.5,291.5C 450.876,310.218 453.71,328.885 457,347.5C 458.9,359.427 459.733,371.427 459.5,383.5C 453.5,383.5 447.5,383.5 441.5,383.5C 441.285,374.487 440.785,365.487 440,356.5C 437.186,336.429 433.853,316.429 430,296.5C 428.882,284.849 428.049,273.183 427.5,261.5C 427.5,256.167 427.5,250.833 427.5,245.5C 440.171,245.293 452.837,244.96 465.5,244.5 Z"/></g>
<g><path style="opacity:1" fill="#f2e0d3" d="M 189.5,336.5 C 219.175,336.931 248.841,337.597 278.5,338.5C 278.263,339.791 278.596,340.791 279.5,341.5C 279.5,342.833 279.5,344.167 279.5,345.5C 255.689,344.618 231.856,343.952 208,343.5C 201.131,343.497 194.631,342.83 188.5,341.5C 188.366,339.708 188.699,338.042 189.5,336.5 Z"/></g>
<g><path style="opacity:1" fill="#dd817c" d="M 331.5,362.5 C 323.302,364.601 315.302,367.267 307.5,370.5C 305.399,367.752 303.566,364.752 302,361.5C 301.333,360.5 301.333,359.5 302,358.5C 309.153,352.591 316.486,346.925 324,341.5C 326.592,348.441 329.092,355.441 331.5,362.5 Z"/></g>
<g><path style="opacity:1" fill="#de827c" d="M 143.5,373.5 C 133.297,367.898 122.963,362.565 112.5,357.5C 115.613,352.547 118.946,347.714 122.5,343C 123.908,342.685 125.241,343.018 126.5,344C 134.5,350.667 142.5,357.333 150.5,364C 148.024,367.145 145.69,370.312 143.5,373.5 Z"/></g>
<g><path style="opacity:1" fill="#f9c4bb" d="M 112.5,357.5 C 122.963,362.565 133.297,367.898 143.5,373.5C 137.718,381.789 131.718,389.955 125.5,398C 119.421,398.374 113.421,399.207 107.5,400.5C 107.5,388.833 107.5,377.167 107.5,365.5C 108.669,362.489 110.336,359.822 112.5,357.5 Z"/></g>
<g><path style="opacity:1" fill="#638894" d="M 64.5,325.5 C 70.8682,325.17 77.2015,325.504 83.5,326.5C 79.6099,334.729 77.9432,343.396 78.5,352.5C 78.4807,363.179 79.814,373.679 82.5,384C 77.6954,394.444 72.5287,404.61 67,414.5C 58.8233,409.965 54.1567,402.965 53,393.5C 52.3333,379.833 52.3333,366.167 53,352.5C 54.6742,342.495 58.5075,333.495 64.5,325.5 Z"/></g>
<g><path style="opacity:1" fill="#ecd9cd" d="M 181.5,365.5 C 181.629,363.784 181.962,362.117 182.5,360.5C 185.583,359.875 188.749,359.542 192,359.5C 220.826,360.465 249.66,361.132 278.5,361.5C 278.5,363.5 278.5,365.5 278.5,367.5C 246.186,366.32 213.853,365.653 181.5,365.5 Z"/></g>
<g><path style="opacity:1" fill="#f8c8c0" d="M 331.5,362.5 C 333.684,366.369 335.684,370.369 337.5,374.5C 337.829,387.677 337.495,400.677 336.5,413.5C 324.112,401.075 314.446,386.742 307.5,370.5C 315.302,367.267 323.302,364.601 331.5,362.5 Z"/></g>
<g><path style="opacity:1" fill="#edd5ce" d="M 188.5,341.5 C 194.631,342.83 201.131,343.497 208,343.5C 231.856,343.952 255.689,344.618 279.5,345.5C 279.5,358.167 279.5,370.833 279.5,383.5C 279.5,385.5 279.5,387.5 279.5,389.5C 245.514,388.361 211.514,387.695 177.5,387.5C 177.5,384.5 177.5,381.5 177.5,378.5C 178.078,373.835 179.411,369.501 181.5,365.5C 213.853,365.653 246.186,366.32 278.5,367.5C 278.5,365.5 278.5,363.5 278.5,361.5C 249.66,361.132 220.826,360.465 192,359.5C 188.749,359.542 185.583,359.875 182.5,360.5C 184.13,353.949 186.13,347.615 188.5,341.5 Z"/></g>
<g><path style="opacity:1" fill="#f6ccc5" d="M 107.5,365.5 C 107.5,377.167 107.5,388.833 107.5,400.5C 99.0998,402.718 90.7664,404.885 82.5,407C 89.5041,392.208 97.8374,378.375 107.5,365.5 Z"/></g>
<g><path style="opacity:1" fill="#4a637b" d="M 155.5,374.5 C 158.212,377.872 161.546,380.539 165.5,382.5C 166.325,392.484 166.325,402.484 165.5,412.5C 162.041,413.436 159.207,415.436 157,418.5C 155.47,422.09 154.136,425.757 153,429.5C 147.612,420.114 141.446,411.281 134.5,403C 141.875,393.737 148.875,384.237 155.5,374.5 Z"/></g>
<g><path style="opacity:1" fill="#eccdc7" d="M 177.5,378.5 C 177.5,381.5 177.5,384.5 177.5,387.5C 211.514,387.695 245.514,388.361 279.5,389.5C 279.5,387.5 279.5,385.5 279.5,383.5C 280.477,386.287 280.81,389.287 280.5,392.5C 280.66,394.199 280.494,395.866 280,397.5C 262.646,406.396 244.646,413.73 226,419.5C 208.861,415.177 192.361,409.177 176.5,401.5C 176.175,393.648 176.508,385.982 177.5,378.5 Z"/></g>
<g><path style="opacity:1" fill="#f6bab0" d="M 337.5,374.5 C 340.222,378.732 343.555,382.565 347.5,386C 352.197,389.343 356.864,392.677 361.5,396C 356.914,404.329 353.914,413.163 352.5,422.5C 345.937,421.555 340.604,418.555 336.5,413.5C 337.495,400.677 337.829,387.677 337.5,374.5 Z"/></g>
<g><path style="opacity:1" fill="#c6ada6" d="M 280.5,392.5 C 281.353,397.495 282.02,402.662 282.5,408C 282.167,409.167 281.833,410.333 281.5,411.5C 265.193,419.769 248.36,426.769 231,432.5C 212.675,427.114 194.841,420.448 177.5,412.5C 176.511,408.893 176.177,405.226 176.5,401.5C 192.361,409.177 208.861,415.177 226,419.5C 244.646,413.73 262.646,406.396 280,397.5C 280.494,395.866 280.66,394.199 280.5,392.5 Z"/></g>
<g><path style="opacity:1" fill="#ba6f63" d="M 387.5,401.5 C 393.748,402.892 400.082,403.558 406.5,403.5C 410.298,404.483 414.298,404.817 418.5,404.5C 418.172,415.014 418.506,425.347 419.5,435.5C 419.5,437.5 419.5,439.5 419.5,441.5C 408.249,443.486 396.916,444.819 385.5,445.5C 386.839,430.755 387.506,416.088 387.5,401.5 Z"/></g>
<g><path style="opacity:1" fill="#cb7e72" d="M 387.5,401.5 C 387.506,416.088 386.839,430.755 385.5,445.5C 377.191,446.288 368.858,446.621 360.5,446.5C 359.588,430.148 363.088,414.815 371,400.5C 371.893,399.919 372.893,399.585 374,399.5C 378.441,400.622 382.941,401.289 387.5,401.5 Z"/></g>
<g><path style="opacity:1" fill="#825651" d="M 406.5,403.5 C 410.833,403.5 415.167,403.5 419.5,403.5C 419.5,414.167 419.5,424.833 419.5,435.5C 418.506,425.347 418.172,415.014 418.5,404.5C 414.298,404.817 410.298,404.483 406.5,403.5 Z"/></g>
<g><path style="opacity:1" fill="#cb7e73" d="M 128.5,412.5 C 118.368,422.131 108.368,431.964 98.5,442C 97.9056,442.464 97.2389,442.631 96.5,442.5C 86.5454,438.189 76.8787,433.356 67.5,428C 85.1197,415.349 104.786,409.349 126.5,410C 127.381,410.708 128.047,411.542 128.5,412.5 Z"/></g>
<g><path style="opacity:1" fill="#b56c5f" d="M 467.5,403.5 C 467.5,411.833 467.5,420.167 467.5,428.5C 457.191,429.257 446.857,429.923 436.5,430.5C 433.887,430.357 431.553,429.69 429.5,428.5C 429.334,419.827 429.5,411.16 430,402.5C 431.5,398.333 434.333,395.5 438.5,394C 445.167,393.333 451.833,393.333 458.5,394C 463.793,395.123 466.793,398.29 467.5,403.5 Z"/></g>
<g><path style="opacity:1" fill="#bf7367" d="M 128.5,412.5 C 133.669,417.679 137.669,423.679 140.5,430.5C 140.649,431.552 140.483,432.552 140,433.5C 132.632,441.036 125.132,448.369 117.5,455.5C 115.704,454.207 114.037,452.707 112.5,451C 106.947,448.392 101.613,445.559 96.5,442.5C 97.2389,442.631 97.9056,442.464 98.5,442C 108.368,431.964 118.368,422.131 128.5,412.5 Z"/></g>
<g><path style="opacity:1" fill="#567a86" d="M 285.5,420.5 C 289.639,419.704 292.805,421.037 295,424.5C 299.209,431.628 301.709,439.295 302.5,447.5C 284.432,445.713 266.765,442.213 249.5,437C 261.949,432.272 273.949,426.772 285.5,420.5 Z"/></g>
<g><path style="opacity:1" fill="#a86255" d="M 467.5,403.5 C 468.659,413.992 468.825,424.659 468,435.5C 467.169,440.681 464.336,444.181 459.5,446C 452.5,446.667 445.5,446.667 438.5,446C 431.164,442.497 428.164,436.663 429.5,428.5C 431.553,429.69 433.887,430.357 436.5,430.5C 446.857,429.923 457.191,429.257 467.5,428.5C 467.5,420.167 467.5,411.833 467.5,403.5 Z"/></g>
<g><path style="opacity:1" fill="#7da2b0" d="M 218.5,439.5 C 213.723,449.389 208.723,459.056 203.5,468.5C 188.721,464.738 174.888,458.738 162,450.5C 160.604,441.198 161.937,432.198 166,423.5C 168.153,421.556 170.653,421.056 173.5,422C 188.186,428.727 203.186,434.56 218.5,439.5 Z"/></g>
<g><path style="opacity:1" fill="#ab6355" d="M 140.5,430.5 C 144.083,435.327 146.916,440.661 149,446.5C 148.745,460.15 148.579,473.817 148.5,487.5C 128.604,490.101 119.104,481.434 120,461.5C 118.878,459.593 118.045,457.593 117.5,455.5C 125.132,448.369 132.632,441.036 140,433.5C 140.483,432.552 140.649,431.552 140.5,430.5 Z"/></g>
<g><path style="opacity:1" fill="#7196a2" d="M 218.5,439.5 C 230.703,443.301 243.036,446.634 255.5,449.5C 250.892,459.048 246.559,468.715 242.5,478.5C 229.097,476.331 216.097,472.997 203.5,468.5C 208.723,459.056 213.723,449.389 218.5,439.5 Z"/></g>
<g><path style="opacity:1" fill="#688e9a" d="M 255.5,449.5 C 262.167,451.167 268.833,452.833 275.5,454.5C 271.55,464.072 266.884,473.072 261.5,481.5C 254.92,481.26 248.587,480.26 242.5,478.5C 246.559,468.715 250.892,459.048 255.5,449.5 Z"/></g>
<g><path style="opacity:1" fill="#618691" d="M 275.5,454.5 C 285.131,456.093 294.798,457.426 304.5,458.5C 304.687,467.861 304.354,477.195 303.5,486.5C 289.169,486.427 275.169,484.761 261.5,481.5C 266.884,473.072 271.55,464.072 275.5,454.5 Z"/></g>
<g><path style="opacity:1" fill="#c84040" d="M 460.5,492.5 C 450.5,493.833 440.5,493.833 430.5,492.5C 432.5,492.5 434.5,492.5 436.5,492.5C 438.487,480.576 439.821,468.576 440.5,456.5C 446.5,456.5 452.5,456.5 458.5,456.5C 458.117,468.61 456.784,480.61 454.5,492.5C 456.5,492.5 458.5,492.5 460.5,492.5 Z"/></g>
<g><path style="opacity:1" fill="#4a697c" d="M 162.5,463.5 C 179.836,472.164 197.836,478.997 216.5,484C 198.607,486.818 180.607,487.985 162.5,487.5C 162.5,479.5 162.5,471.5 162.5,463.5 Z"/></g>
</svg>
