<?xml version="1.0" encoding="UTF-8"?>
<svg version="1.1" xmlns="http://www.w3.org/2000/svg" width="512" height="512">
<path d="M0 0 C3.2734375 0.4375 3.2734375 0.4375 5.0859375 2.4375 C9.37381279 13.27002705 9.91210885 25.29406898 6.2734375 36.4375 C6.88832031 36.39109375 7.50320313 36.3446875 8.13671875 36.296875 C9.34908203 36.24273437 9.34908203 36.24273437 10.5859375 36.1875 C11.38644531 36.14109375 12.18695313 36.0946875 13.01171875 36.046875 C15.2734375 36.4375 15.2734375 36.4375 17.08203125 38.015625 C18.72706385 41.35962569 18.38268284 43.75133044 18.0234375 47.4375 C17.86101562 49.2628125 17.86101562 49.2628125 17.6953125 51.125 C17.37251225 53.65957976 16.98272446 55.9916829 16.2734375 58.4375 C17.08683594 58.57285156 17.90023438 58.70820312 18.73828125 58.84765625 C39.51623028 62.75082553 57.29399494 72.7747796 73.2734375 86.4375 C74.22089844 87.20320313 74.22089844 87.20320313 75.1875 87.984375 C80.630691 92.44443459 86.24478197 97.04898765 88.3359375 103.9375 C86.63231544 109.54943149 82.11795922 112.37989203 77.2734375 115.4375 C76.6134375 115.4375 75.9534375 115.4375 75.2734375 115.4375 C76.04945313 116.49324219 76.82546875 117.54898438 77.625 118.63671875 C95.12700814 142.57413549 111.06992747 167.19518621 123.9609375 193.9375 C124.25943604 194.55633057 124.55793457 195.17516113 124.86547852 195.81274414 C134.08118618 215.00466661 134.08118618 215.00466661 132.2734375 220.4375 C130.46508789 222.17578125 130.46508789 222.17578125 128.05859375 223.75 C127.14996582 224.34683594 126.24133789 224.94367188 125.30517578 225.55859375 C120.43279938 228.57822725 115.51492902 231.51065338 110.55053711 234.37567139 C107.36816124 236.21255901 104.19434214 238.06414097 101.01953125 239.9140625 C100.37543304 240.28890778 99.73133484 240.66375305 99.06771851 241.04995728 C92.43572275 244.91452431 85.85061109 248.85554099 79.2734375 252.8125 C78.23630615 253.43640625 77.1991748 254.0603125 76.13061523 254.703125 C74.31196891 255.7980538 72.49363497 256.89350187 70.67578125 257.98974609 C69.88300781 258.46750488 69.09023438 258.94526367 68.2734375 259.4375 C67.38785156 259.9938916 66.50226563 260.5502832 65.58984375 261.12353516 C63.2734375 262.4375 63.2734375 262.4375 61.2734375 262.4375 C61.40363281 263.10136719 61.53382813 263.76523437 61.66796875 264.44921875 C61.87486328 265.77373047 61.87486328 265.77373047 62.0859375 267.125 C62.23675781 267.99511719 62.38757813 268.86523438 62.54296875 269.76171875 C62.23647918 272.80440505 61.41712166 274.1247259 59.14331055 276.1496582 C54.85177079 279.10537986 50.0216761 281.08535618 45.2734375 283.1875 C44.19320313 283.68121094 43.11296875 284.17492187 42 284.68359375 C32.20847216 289.09582543 32.20847216 289.09582543 28.2734375 289.4375 C25.4609375 287 25.4609375 287 23.2734375 284.4375 C24.12460166 280.80792435 24.58322571 278.91774984 27.70361328 276.74658203 C28.6986084 276.31716309 29.69360352 275.88774414 30.71875 275.4453125 C31.79511719 274.96835937 32.87148438 274.49140625 33.98046875 274 C35.10839844 273.525625 36.23632812 273.05125 37.3984375 272.5625 C38.53410156 272.06492187 39.66976563 271.56734375 40.83984375 271.0546875 C43.64333183 269.82963389 46.45390209 268.62503987 49.2734375 267.4375 C47.85888011 260.05697446 46.44213212 252.67687232 45.02258396 245.29730511 C44.36350518 241.87069126 43.70518267 238.44393572 43.04858398 235.0168457 C42.29375061 231.07720273 41.53563642 227.13819736 40.77734375 223.19921875 C40.54189346 221.96789719 40.30644318 220.73657562 40.06385803 219.46794128 C39.84370529 218.32698502 39.62355255 217.18602875 39.39672852 216.01049805 C39.10693871 214.50159248 39.10693871 214.50159248 38.81129456 212.96220398 C38.29967078 210.33017032 38.29967078 210.33017032 37.2734375 207.4375 C13.5134375 210.9025 13.5134375 210.9025 -10.7265625 214.4375 C-8.4165625 217.7375 -6.1065625 221.0375 -3.7265625 224.4375 C12.47519596 250.75534817 25.05991703 290.77334209 18.1484375 321.875 C14.87890713 332.79854618 9.06058006 341.1517577 0.2734375 348.4375 C-0.3865625 348.4375 -1.0465625 348.4375 -1.7265625 348.4375 C-1.71015593 355.60554762 -1.65492933 362.77257892 -1.57397461 369.94018555 C-1.55092102 372.37338672 -1.53642891 374.80668589 -1.53100586 377.23999023 C-1.70156379 395.96784365 -1.70156379 395.96784365 4.2734375 413.4375 C6.72724366 420.01816199 6.84964851 426.0823767 4.44921875 432.71484375 C2.61489575 436.60824869 0.57886596 439.6042756 -2.7265625 442.4375 C-2.51 442.98535156 -2.2934375 443.53320312 -2.0703125 444.09765625 C1.00175342 452.8445106 1.98718708 463.01598738 -0.7890625 472 C-3.69279925 477.15179102 -6.93813823 480.36800029 -12.4914856 482.49798584 C-18.38439565 484.11142396 -24.53817835 483.71505405 -30.59716797 483.69628906 C-32.00230083 483.69900226 -33.40743227 483.70256504 -34.81256104 483.70690918 C-38.61431818 483.71599802 -42.41596632 483.71250299 -46.21772528 483.70615101 C-50.20668668 483.70107083 -54.19563904 483.70578825 -58.18460083 483.70892334 C-64.88431464 483.71255796 -71.5839843 483.70777802 -78.28369141 483.69824219 C-86.01297706 483.68736749 -93.74215711 483.69087807 -101.4714402 483.701895 C-108.12220689 483.71099288 -114.77294193 483.71224068 -121.42371285 483.70701766 C-125.38940479 483.70391054 -129.35504723 483.70345367 -133.32073593 483.71009064 C-137.05215353 483.71589963 -140.78343605 483.71180269 -144.51483917 483.70030212 C-146.52526162 483.69642764 -148.53569558 483.70231143 -150.54611206 483.70855713 C-168.58744098 483.62473865 -168.58744098 483.62473865 -175.7265625 477.4375 C-179.79100887 472.74545529 -181.82194133 468.6364717 -182.7578125 462.5 C-183.59554132 459.00246211 -184.11782009 457.00563042 -186.76489258 454.53515625 C-189.46106525 452.95481289 -192.16921372 451.67457254 -195.0390625 450.4375 C-197.12365085 449.447952 -199.20695246 448.45568953 -201.2890625 447.4609375 C-202.88814453 446.7198877 -202.88814453 446.7198877 -204.51953125 445.96386719 C-209.63542054 443.52899052 -214.58111887 440.80123083 -219.5390625 438.0625 C-220.41409424 437.58683594 -221.28912598 437.11117188 -222.19067383 436.62109375 C-223.87000293 435.70465849 -225.54320728 434.77689251 -227.20947266 433.83691406 C-228.98000764 432.85255844 -230.77413386 431.91004397 -232.58349609 430.99902344 C-235.17119153 429.62540397 -237.47875383 428.31652983 -239.7265625 426.4375 C-240.6953125 422.93359375 -240.6953125 422.93359375 -239.7265625 419.4375 C-237.91936615 417.1168956 -236.38171316 415.41421859 -234.2265625 413.5 C-233.70191406 413.00693359 -233.17726562 412.51386719 -232.63671875 412.00585938 C-231.34868885 410.79979501 -230.03961987 409.61626741 -228.7265625 408.4375 C-231.56123631 403.98872958 -234.68334509 400.07854712 -238.1640625 396.125 C-245.04474295 388.06425261 -249.31302069 382.32303319 -249.1953125 371.33203125 C-248.7265625 368.4375 -248.7265625 368.4375 -247.14819336 365.78955078 C-245.35220973 361.55481692 -245.83527663 358.31565747 -246.51171875 353.91015625 C-247.77000536 344.12453835 -248.1317216 334.46942741 -248.15209961 324.60913086 C-248.16419513 321.84468824 -248.21380672 319.08234835 -248.26367188 316.31835938 C-248.35749994 306.07422858 -248.33993016 297.3481465 -240.88256836 289.49584961 C-237.78532814 286.57461395 -235.96783191 285.49781735 -231.7265625 284.4375 C-231.0665625 265.2975 -230.4065625 246.1575 -229.7265625 226.4375 C-233.0265625 226.1075 -236.3265625 225.7775 -239.7265625 225.4375 C-249.16667472 221.4699166 -255.38482664 216.06550529 -259.54541016 206.56835938 C-268.17836143 185.10595419 -269.1326532 161.41990933 -261.7265625 139.4375 C-258.12564705 131.4030875 -253.56792741 125.67700254 -245.54296875 121.96484375 C-230.14595402 116.11560747 -216.45127159 118.00917184 -200.74829102 121.83349609 C-199.27380493 122.18275146 -199.27380493 122.18275146 -197.76953125 122.5390625 C-196.89321045 122.75900879 -196.01688965 122.97895508 -195.11401367 123.20556641 C-192.26719339 123.48212631 -191.10163872 122.97544882 -188.7265625 121.4375 C-187.94152344 120.74527344 -187.15648437 120.05304688 -186.34765625 119.33984375 C-180.84402637 115.34540597 -173.38334921 117.05281942 -166.9765625 117.98046875 C-155.47948204 120.18488778 -155.47948204 120.18488778 -150.7265625 124.4375 C-150.1903125 125.30375 -149.6540625 126.17 -149.1015625 127.0625 C-145.66170511 130.50235739 -142.12614626 130.45539472 -137.40625 130.98046875 C-134.7265625 131.4375 -134.7265625 131.4375 -132.7265625 133.4375 C-132.4140625 136.9375 -132.4140625 136.9375 -132.7265625 140.4375 C-135.6442125 142.3826 -137.35193535 142.89026317 -140.7265625 143.4375 C-140.38882813 144.65824219 -140.05109375 145.87898437 -139.703125 147.13671875 C-139.25223412 148.79937886 -138.80173461 150.46214514 -138.3515625 152.125 C-138.12984375 152.92228516 -137.908125 153.71957031 -137.6796875 154.54101562 C-134.47525127 166.46340337 -133.41758776 177.98601032 -133.5390625 190.3125 C-133.5400293 192.21128906 -133.5400293 192.21128906 -133.54101562 194.1484375 C-133.56868994 200.00309287 -133.65143545 205.674819 -134.7265625 211.4375 C-134.12328125 211.41429687 -133.52 211.39109375 -132.8984375 211.3671875 C-132.09921875 211.34914062 -131.3 211.33109375 -130.4765625 211.3125 C-129.68765625 211.28929687 -128.89875 211.26609375 -128.0859375 211.2421875 C-125.7265625 211.4375 -125.7265625 211.4375 -121.7265625 213.4375 C-115.4565625 213.1075 -109.1865625 212.7775 -102.7265625 212.4375 C-102.7265625 195.2775 -102.7265625 178.1175 -102.7265625 160.4375 C-105.0365625 160.1075 -107.3465625 159.7775 -109.7265625 159.4375 C-115.54059586 157.00325074 -119.93456129 153.08519827 -122.7265625 147.4375 C-124.59113293 142.28847705 -125.74942961 137.34662249 -125.9140625 131.875 C-126.35339984 126.71278629 -129.31696798 123.90101137 -132.59375 120.08984375 C-141.00301223 109.63217149 -144.48162109 95.91767131 -144.07421875 82.6328125 C-142.30879705 66.40680184 -136.39138167 52.98144022 -124.7265625 41.4375 C-124.13488281 40.81230469 -123.54320312 40.18710937 -122.93359375 39.54296875 C-113.6822781 30.49587641 -100.32193296 25.3213564 -87.7265625 23.4375 C-86.47359375 23.24800781 -85.220625 23.05851562 -83.9296875 22.86328125 C-79.48906376 22.38857946 -75.07310732 22.39668641 -70.61328125 22.4453125 C-69.87271988 22.45310226 -69.13215851 22.46089203 -68.36915588 22.46891785 C-65.27621997 22.50563714 -62.18361155 22.54713328 -59.09106445 22.60888672 C-46.42876353 22.84731786 -35.21581484 21.78515193 -23.7265625 15.9375 C-23.0550415 15.60363281 -22.38352051 15.26976562 -21.69165039 14.92578125 C-15.6293747 11.73366935 -11.13065755 7.53824595 -6.47265625 2.5625 C-3.7265625 0.4375 -3.7265625 0.4375 0 0 Z M-9.1640625 20.625 C-14.45401359 24.3733082 -19.67150165 27.13308051 -25.7265625 29.4375 C-26.70882812 29.83195312 -27.69109375 30.22640625 -28.703125 30.6328125 C-38.88841802 34.04381227 -48.8097744 33.65070131 -59.4440918 33.51000977 C-80.69888138 33.24361252 -101.62802092 34.91553757 -118.0390625 50.125 C-128.81897162 61.73586045 -132.56568987 74.59056099 -132.07421875 90.01953125 C-131.48713177 99.86112905 -127.60692486 107.67542168 -121.7265625 115.4375 C-121.01693359 114.91349609 -121.01693359 114.91349609 -120.29296875 114.37890625 C-113.88361223 109.96856931 -108.65168646 108.71789394 -100.9765625 110.125 C-96.7259352 111.84159949 -93.93405598 114.23000652 -90.7265625 117.4375 C-87.0837498 112.14954609 -85.68222072 108.81200403 -85.4140625 102.4375 C-84.77505857 93.99888922 -83.36541699 86.46139929 -77.0390625 80.4375 C-71.07021896 75.81109153 -64.30752017 73.52778508 -56.7265625 74.4375 C-54.7890625 75.5625 -54.7890625 75.5625 -53.7265625 77.4375 C-53.68396565 79.43704633 -53.68050426 81.43803041 -53.7265625 83.4375 C-54.60699219 83.60765625 -55.48742187 83.7778125 -56.39453125 83.953125 C-58.13669922 84.31664063 -58.13669922 84.31664063 -59.9140625 84.6875 C-61.06261719 84.91953125 -62.21117187 85.1515625 -63.39453125 85.390625 C-67.55452348 86.69763311 -70.52473597 88.42717198 -72.80078125 92.234375 C-74.16728934 96.5863116 -74.902061 100.72852883 -75.3359375 105.27880859 C-76.29099695 115.13474658 -78.90835206 122.10368196 -86.2265625 129 C-89.26820837 131.38745596 -91.79055615 132.34596497 -95.7265625 132.4375 C-98.40948539 131.09603856 -98.60360312 129.74160004 -99.7265625 127 C-100.87366017 124.20843027 -101.57274916 122.59131334 -103.7265625 120.4375 C-107.09367441 120.07150957 -109.06717149 120.06325105 -112.0390625 121.75 C-114.45066016 124.16159766 -114.70313753 126.15054414 -114.9765625 129.5 C-114.58019033 135.74286167 -113.18029766 141.11152374 -109.8515625 146.4375 C-105.57440016 149.1748839 -101.48714089 149.51815265 -96.4921875 150.078125 C-93.7265625 150.4375 -93.7265625 150.4375 -92.7265625 151.4375 C-92.52104985 154.67089903 -92.40700882 157.90251564 -92.30078125 161.140625 C-91.59566962 165.18902102 -90.7213454 166.62407818 -87.7265625 169.4375 C-84.85154122 171.2019108 -81.86071294 172.6123077 -78.7890625 174 C-77.93876465 174.39131104 -77.0884668 174.78262207 -76.21240234 175.18579102 C-65.87988041 179.84821704 -52.11213412 186.04072932 -40.53125 184.0625 C-34.25672898 181.67220628 -30.89711132 177.15320022 -28.1015625 171.3125 C-23.63692973 160.89502353 -21.79603391 150.51182827 -21.19140625 139.23046875 C-21.14842911 138.4650325 -21.10545197 137.69959625 -21.06117249 136.91096497 C-20.97150403 135.30001906 -20.88334678 133.68898839 -20.79663086 132.07788086 C-20.66498955 129.64215303 -20.52718079 127.20683022 -20.38867188 124.77148438 C-19.95553508 116.98369073 -19.60821175 109.24075974 -19.7265625 101.4375 C-20.88671875 101.30794922 -20.88671875 101.30794922 -22.0703125 101.17578125 C-30.63166347 100.02084653 -36.78073769 97.98381891 -42.6015625 91.4375 C-46.40757772 86.06430205 -47.62547334 80.97459899 -47.7265625 74.4375 C-46.80557445 69.41392879 -45.40464794 66.01617772 -41.7265625 62.4375 C-36.20656915 59.54377447 -31.68761597 58.97408725 -25.51171875 58.92578125 C-24.65597763 58.90783005 -23.80023651 58.88987885 -22.91856384 58.87138367 C-20.20877889 58.81757969 -17.499167 58.78348187 -14.7890625 58.75 C-12.94203336 58.71680044 -11.09502698 58.68230836 -9.24804688 58.64648438 C-4.74101092 58.56187078 -0.23402362 58.49491787 4.2734375 58.4375 C4.9334375 55.1375 5.5934375 51.8375 6.2734375 48.4375 C5.28601563 48.47230469 4.29859375 48.50710937 3.28125 48.54296875 C1.99992188 48.57003906 0.71859375 48.59710938 -0.6015625 48.625 C-2.51582031 48.67720703 -2.51582031 48.67720703 -4.46875 48.73046875 C-5.54382813 48.63378906 -6.61890625 48.53710938 -7.7265625 48.4375 C-9.7265625 45.4375 -9.7265625 45.4375 -9.5078125 43.0625 C-8.42198936 39.41413425 -6.67877961 36.27883416 -4.8828125 32.9375 C-3.07471831 29.02810716 -2.59160565 25.39995437 -2.6640625 21.125 C-2.695 19.2996875 -2.695 19.2996875 -2.7265625 17.4375 C-5.62586957 17.4375 -6.8598025 18.8958833 -9.1640625 20.625 Z M-36.7265625 73.4375 C-37.13420353 77.59543846 -36.98106842 79.94734045 -35.0390625 83.6875 C-31.25277865 88.19010783 -27.97537033 89.67493997 -22.10595703 90.20727539 C-21.42388184 90.26262451 -20.74180664 90.31797363 -20.0390625 90.375 C-1.01380311 92.42682827 10.25078189 105.10455845 21.84521484 119.37158203 C23.8532005 121.90709465 25.84277794 124.45447958 27.79663086 127.03198242 C30.10963749 130.21417481 30.10963749 130.21417481 33.2734375 132.4375 C38.94910941 128.45016088 44.61468995 124.44882007 50.2734375 120.4375 C51.09553711 119.85548828 51.91763672 119.27347656 52.76464844 118.67382812 C55.18816939 116.95465193 57.6064678 115.22837079 60.0234375 113.5 C60.77286621 112.96930908 61.52229492 112.43861816 62.29443359 111.8918457 C66.32036521 109.00149185 69.8858406 106.05849432 73.2734375 102.4375 C56.93890425 84.2242345 33.75801009 71.30098243 9.2734375 69.4375 C6.08924458 69.2961078 2.90974196 69.25114548 -0.27734375 69.234375 C-1.1391777 69.22867493 -2.00101166 69.22297485 -2.88896179 69.21710205 C-4.69134321 69.20774089 -6.49374105 69.20115395 -8.29614258 69.19726562 C-11.04993813 69.18746128 -13.80301632 69.15631621 -16.55664062 69.125 C-18.31770396 69.11847736 -20.07877255 69.113224 -21.83984375 69.109375 C-22.65761795 69.0970282 -23.47539215 69.0846814 -24.31794739 69.07196045 C-29.38472127 69.09175526 -32.96711069 69.67804819 -36.7265625 73.4375 Z M-8.7265625 104.4375 C-9.18889034 109.25421303 -9.59980557 114.07172056 -9.96557617 118.89672852 C-10.09670259 120.53395388 -10.24131769 122.17016118 -10.40014648 123.80493164 C-11.8008983 134.84050989 -11.8008983 134.84050989 -7.49609375 144.609375 C-6.24549519 145.89121119 -4.98947352 147.16779274 -3.7265625 148.4375 C6.0345973 163.92895217 7.57371368 181.55951807 7.2734375 199.4375 C16.25699866 198.81381512 25.11713189 197.69049295 34.0234375 196.375 C35.30476563 196.18873047 36.58609375 196.00246094 37.90625 195.81054688 C41.02913313 195.35609746 44.15149531 194.89836118 47.2734375 194.4375 C48.39318828 191.07824765 48.22795304 190.63088859 46.97265625 187.5078125 C46.66038086 186.7233374 46.34810547 185.9388623 46.02636719 185.13061523 C45.67477539 184.28313721 45.32318359 183.43565918 44.9609375 182.5625 C44.59774414 181.67699463 44.23455078 180.79148926 43.86035156 179.87915039 C32.25394535 151.96628396 17.39658869 121.54942802 -8.7265625 104.4375 Z M60.89453125 125.81640625 C60.22421875 126.32268555 59.55390625 126.82896484 58.86328125 127.35058594 C58.15300781 127.89489258 57.44273437 128.43919922 56.7109375 129 C55.63199219 129.81839355 55.63199219 129.81839355 54.53125 130.65332031 C49.41464591 134.54147846 44.31882671 138.45724851 39.2734375 142.4375 C40.95347744 148.01927203 43.38254452 153.16666218 45.8359375 158.4375 C50.994384 169.63408387 55.69971793 180.99149076 60.2734375 192.4375 C61.40523438 192.3653125 62.53703125 192.293125 63.703125 192.21875 C65.18489376 192.12496717 66.6666647 192.03121896 68.1484375 191.9375 C69.26798828 191.86595703 69.26798828 191.86595703 70.41015625 191.79296875 C76.046875 191.4375 76.046875 191.4375 78.2734375 191.4375 C78.2734375 194.4075 78.2734375 197.3775 78.2734375 200.4375 C77.46600098 200.55343506 76.65856445 200.66937012 75.82666016 200.78881836 C72.18339359 201.31397154 68.54091709 201.84441704 64.8984375 202.375 C62.99191406 202.64860352 62.99191406 202.64860352 61.046875 202.92773438 C59.83515625 203.10498047 58.6234375 203.28222656 57.375 203.46484375 C55.69398193 203.70835571 55.69398193 203.70835571 53.97900391 203.95678711 C51.31614497 204.29787534 51.31614497 204.29787534 49.2734375 205.4375 C52.06757383 220.81732324 54.94338503 236.16390738 58.2734375 251.4375 C67.26069532 246.64916825 76.02532979 241.5193945 84.7734375 236.3125 C85.47299561 235.89696869 86.17255371 235.48143738 86.89331055 235.05331421 C98.14100646 228.3690087 109.28048288 221.53475549 120.2734375 214.4375 C108.69779404 186.19292996 93.23993964 160.05122809 75.2734375 135.4375 C74.82387695 134.81359375 74.37431641 134.1896875 73.91113281 133.546875 C72.66463271 131.81711355 71.4089295 130.09458245 70.1484375 128.375 C69.44460938 127.41464844 68.74078125 126.45429688 68.015625 125.46484375 C67.44070313 124.79582031 66.86578125 124.12679687 66.2734375 123.4375 C63.68601603 123.4375 62.94071734 124.26049499 60.89453125 125.81640625 Z M-179.7265625 128.4375 C-181.14977016 132.91623734 -179.67888673 136.06546669 -178.1015625 140.3125 C-170.25725192 162.73959546 -167.11023284 185.35229977 -167.88745117 209.06420898 C-167.90783447 209.98403564 -167.92821777 210.9038623 -167.94921875 211.8515625 C-167.97765869 212.6657666 -168.00609863 213.4799707 -168.03540039 214.31884766 C-167.6442145 217.00241379 -166.85899034 217.8118154 -164.7265625 219.4375 C-161.02975777 220.66976824 -157.57046854 221.02108897 -153.7265625 220.4375 C-151.37134025 218.6662382 -151.37134025 218.6662382 -149.7265625 216.4375 C-148.2415625 215.4475 -148.2415625 215.4475 -146.7265625 214.4375 C-140.27554909 189.63387089 -144.84143915 157.91556154 -156.69921875 135.45703125 C-159.39936416 131.43542739 -160.97518633 130.82776539 -165.56640625 129.8046875 C-166.58863281 129.64226562 -167.61085938 129.47984375 -168.6640625 129.3125 C-169.68371094 129.14492187 -170.70335937 128.97734375 -171.75390625 128.8046875 C-174.45248632 128.47135435 -177.01195185 128.36751004 -179.7265625 128.4375 Z M-223.7265625 129.4375 C-222.32137525 133.13536118 -220.63958422 136.56863966 -218.7890625 140.0625 C-209.07115605 159.56924652 -208.22132304 184.76215199 -214.7265625 205.4375 C-215.92556425 208.21073067 -217.27405169 210.78291127 -218.7265625 213.4375 C-218.7265625 214.0975 -218.7265625 214.7575 -218.7265625 215.4375 C-218.04255371 215.35185791 -217.35854492 215.26621582 -216.65380859 215.17797852 C-192.67409828 212.19210741 -192.67409828 212.19210741 -182.0078125 211.6484375 C-179.7618562 211.68579295 -179.7618562 211.68579295 -178.7265625 210.4375 C-176.87988689 187.03693606 -180.34878215 163.3763645 -188.7265625 141.4375 C-189.12230469 140.40028809 -189.51804688 139.36307617 -189.92578125 138.29443359 C-191.48570957 135.22356229 -191.48570957 135.22356229 -194.57397461 134.20556641 C-195.70585205 133.98562012 -196.83772949 133.76567383 -198.00390625 133.5390625 C-199.23947266 133.28769531 -200.47503906 133.03632813 -201.74804688 132.77734375 C-203.04033203 132.54144531 -204.33261719 132.30554688 -205.6640625 132.0625 C-206.95248047 131.80339844 -208.24089844 131.54429687 -209.56835938 131.27734375 C-216.59672474 129.88512306 -216.59672474 129.88512306 -223.7265625 129.4375 Z M-248.82421875 140.12890625 C-255.01761913 151.40890162 -257.01603591 166.02130681 -253.96484375 178.5703125 C-252.03863368 183.67134312 -249.65698894 188.73596207 -244.7890625 191.5625 C-242.09343605 191.3991287 -240.52876503 190.4802003 -238.71484375 188.4921875 C-236.17329888 183.20818511 -236.63330244 175.78446375 -238.42578125 170.296875 C-240.6255041 166.62138873 -243.87206136 165.01434138 -247.7265625 163.4375 C-247.76897973 161.10455225 -247.76749187 158.77047433 -247.7265625 156.4375 C-246.7265625 155.4375 -246.7265625 155.4375 -243.6015625 155.125 C-239.11074633 155.48716259 -236.0292124 156.40220748 -232.7265625 159.4375 C-226.62213179 167.77602648 -225.92693904 177.34877282 -227.4140625 187.3125 C-228.38799503 191.75927089 -229.57613633 195.03163387 -232.7265625 198.4375 C-237.68030677 201.20016508 -242.17521115 201.95053936 -247.7265625 202.4375 C-245.91347201 207.72568061 -243.39767814 211.32342291 -238.7265625 214.4375 C-235.6419901 214.50604605 -233.62674707 214.12653016 -231.14453125 212.2265625 C-221.07988513 201.77971463 -221.26873868 185.69891173 -221.44921875 172.140625 C-221.86193336 159.79614618 -225.21120029 146.23944007 -233.26953125 136.58984375 C-235.45054835 134.57702848 -237.41092373 133.51448507 -240.2890625 132.8125 C-244.45189808 133.87989374 -246.53515892 136.60163613 -248.82421875 140.12890625 Z M-11.7265625 157.4375 C-12.1184375 158.675 -12.5103125 159.9125 -12.9140625 161.1875 C-20.98783002 185.18243524 -20.98783002 185.18243524 -30.58203125 191.44140625 C-35.06105342 193.52182638 -39.90681903 194.46405427 -44.7265625 195.4375 C-44.7265625 197.7475 -44.7265625 200.0575 -44.7265625 202.4375 C-42.9940625 201.9425 -42.9940625 201.9425 -41.2265625 201.4375 C-34.70237208 199.83809529 -30.00939627 199.7958771 -23.8515625 202.83203125 C-18.19239001 204.44447929 -10.27933949 203.36211591 -4.7265625 201.4375 C-0.7160492 193.4164734 -3.35419248 178.26180027 -5.79296875 170.0703125 C-7.30688286 165.80094801 -8.91653436 161.59045798 -10.7265625 157.4375 C-11.0565625 157.4375 -11.3865625 157.4375 -11.7265625 157.4375 Z M-91.7265625 180.4375 C-91.87569893 186.39645621 -91.98414959 192.354309 -92.05615234 198.31469727 C-92.08618954 200.33897849 -92.12703268 202.36313104 -92.17919922 204.38696289 C-92.25259395 207.30908055 -92.28614934 210.22946748 -92.3125 213.15234375 C-92.35895157 214.49352516 -92.35895157 214.49352516 -92.40634155 215.86180115 C-92.41065971 224.05829001 -88.88218061 229.08728544 -83.3828125 234.92578125 C-82.67125 235.52777344 -81.9596875 236.12976563 -81.2265625 236.75 C-80.15921875 237.67232422 -80.15921875 237.67232422 -79.0703125 238.61328125 C-76.70591704 240.57312682 -76.70591704 240.57312682 -73.59375 242.02734375 C-69.35910966 245.58698011 -69.16078975 249.38669028 -68.3515625 254.6875 C-68.18785156 255.62335938 -68.02414063 256.55921875 -67.85546875 257.5234375 C-67.4561738 259.82525545 -67.08087817 262.12840503 -66.7265625 264.4375 C-65.03342046 261.20752583 -64.20675251 258.33073947 -63.4765625 254.75 C-61.44084745 246.32954228 -57.64373074 240.62537618 -50.7265625 235.4375 C-48.16792918 231.20004411 -47.93973145 227.26755197 -48.7265625 222.4375 C-49.82913352 220.09299955 -51.12731548 217.95797815 -52.48046875 215.75 C-56.21086319 208.82713633 -55.81848352 201.07994375 -55.7265625 193.4375 C-56.40122559 193.22134033 -57.07588867 193.00518066 -57.77099609 192.7824707 C-60.8839093 191.77989429 -63.99268907 190.76503078 -67.1015625 189.75 C-68.16246094 189.41033203 -69.22335938 189.07066406 -70.31640625 188.72070312 C-76.43175834 186.71351701 -82.114505 184.42882485 -87.78759766 181.37963867 C-89.66708713 180.29182084 -89.66708713 180.29182084 -91.7265625 180.4375 Z M-40.7265625 213.4375 C-40.241875 214.39527344 -39.7571875 215.35304687 -39.2578125 216.33984375 C-37.44081281 219.94178113 -35.64159489 223.55231231 -33.85107422 227.16748047 C-33.13888357 228.60515928 -32.42462176 230.04181551 -31.70751953 231.47705078 C-15.97023103 263.11678673 -5.95507235 297.26373483 -2.7265625 332.4375 C-1.7365625 332.4375 -0.7465625 332.4375 0.2734375 332.4375 C8.81026535 318.31683507 9.39112591 306.13191972 6.6484375 290.125 C6.4716748 289.08609619 6.29491211 288.04719238 6.11279297 286.97680664 C1.72356917 262.41022765 -6.34583581 237.55997171 -22.4140625 218.0625 C-23.07281372 217.25014893 -23.07281372 217.25014893 -23.74487305 216.42138672 C-29.35707389 209.94359124 -33.58349439 209.72310458 -40.7265625 213.4375 Z M-186.7265625 222.4375 C-186.0665625 235.9675 -185.4065625 249.4975 -184.7265625 263.4375 C-178.6453503 258.22565312 -178.6453503 258.22565312 -173.2265625 252.5625 C-172.46859375 251.70269531 -171.710625 250.84289062 -170.9296875 249.95703125 C-170.20265625 249.12558594 -169.475625 248.29414063 -168.7265625 247.4375 C-168.08203125 246.71949219 -167.4375 246.00148438 -166.7734375 245.26171875 C-163.11421172 241.16497684 -159.83892052 236.96456621 -156.7265625 232.4375 C-158.39259032 230.77147218 -160.63266566 230.95443247 -162.9140625 230.625 C-167.88590497 229.75977027 -170.88455819 228.68842673 -174.7265625 225.4375 C-175.3865625 224.4475 -176.0465625 223.4575 -176.7265625 222.4375 C-180.0265625 222.4375 -183.3265625 222.4375 -186.7265625 222.4375 Z M-145.7265625 227.4375 C-145.90916652 229.81444731 -145.95929606 232.0613202 -145.9140625 234.4375 C-145.90507935 235.15839813 -145.89609619 235.87929626 -145.88684082 236.62203979 C-145.81798427 240.99730935 -145.69853011 245.36393471 -145.48950195 249.73486328 C-144.86409064 262.91186158 -144.64045169 276.05302705 -144.6640625 289.2421875 C-144.66548563 290.05702858 -144.66690876 290.87186966 -144.66837502 291.71140289 C-144.68059554 297.578465 -144.70274299 303.4454753 -144.7265625 309.3125 C-144.75031178 315.26057681 -144.77053649 321.20862905 -144.78250122 327.1567421 C-144.78894011 329.50995762 -144.80142028 331.86308978 -144.81420898 334.21627808 C-144.81783826 335.64792816 -144.82119039 337.07957899 -144.82421875 338.51123047 C-144.82945557 339.75629364 -144.83469238 341.00135681 -144.84008789 342.28414917 C-144.74654902 344.88234218 -144.50258439 346.97522245 -143.7265625 349.4375 C-143.0665625 349.4375 -142.4065625 349.4375 -141.7265625 349.4375 C-128.44592917 324.55496508 -125.53890894 297.81973944 -125.54125977 269.96240234 C-125.53909371 267.10368484 -125.52094501 264.24536727 -125.50195312 261.38671875 C-125.46345424 248.66345446 -126.01453208 236.05670621 -127.7265625 223.4375 C-128.78812729 222.16485595 -128.78812729 222.16485595 -131.2265625 222.1875 C-136.43140677 222.55927459 -141.95440711 223.66534461 -145.7265625 227.4375 Z M-202.98046875 224.09375 C-204.26147461 224.29677734 -204.26147461 224.29677734 -205.56835938 224.50390625 C-206.46619141 224.64699219 -207.36402344 224.79007813 -208.2890625 224.9375 C-209.19076172 225.08058594 -210.09246094 225.22367188 -211.02148438 225.37109375 C-213.25662021 225.72587722 -215.49163973 226.08137726 -217.7265625 226.4375 C-218.84389294 230.08146278 -218.93077696 233.5818921 -219.04296875 237.37890625 C-219.06379517 238.05526123 -219.08462158 238.73161621 -219.1060791 239.4284668 C-219.17185129 241.61886874 -219.23078356 243.80938687 -219.2890625 246 C-219.33189298 247.49796712 -219.37478047 248.99593262 -219.41772461 250.49389648 C-219.71256372 261.14308544 -219.85156802 271.78425137 -219.7265625 282.4375 C-216.66257799 282.57280844 -213.60459124 282.6717407 -210.5390625 282.75 C-209.24258789 282.8128418 -209.24258789 282.8128418 -207.91992188 282.87695312 C-207.07880859 282.89306641 -206.23769531 282.90917969 -205.37109375 282.92578125 C-204.60128174 282.95196533 -203.83146973 282.97814941 -203.03833008 283.00512695 C-199.43223999 282.11969455 -197.96622928 280.33610724 -195.7265625 277.4375 C-195.00956567 274.1194438 -195.00956567 274.1194438 -195.16796875 270.46875 C-195.16957504 269.79927841 -195.17118134 269.12980682 -195.1728363 268.44004822 C-195.1858748 266.27138432 -195.23623548 264.10552921 -195.2890625 261.9375 C-195.30782208 260.44931455 -195.32539492 258.96111369 -195.34179688 257.47290039 C-195.5102782 246.06587489 -196.28429372 234.75673444 -197.7265625 223.4375 C-199.49740975 223.4375 -201.23478769 223.81629076 -202.98046875 224.09375 Z M-110.9140625 224.4375 C-112.26564453 224.7159375 -112.26564453 224.7159375 -113.64453125 225 C-114.33160156 225.144375 -115.01867187 225.28875 -115.7265625 225.4375 C-115.6857959 226.73445801 -115.6450293 228.03141602 -115.60302734 229.36767578 C-112.6169581 327.3440458 -112.6169581 327.3440458 -134.7265625 358.4375 C-135.7165625 359.4275 -135.7165625 359.4275 -136.7265625 360.4375 C-136.91425768 362.87687054 -136.97854855 365.20164728 -136.95361328 367.64111328 C-136.95390533 368.3826767 -136.95419739 369.12424011 -136.95449829 369.88827515 C-136.95310244 372.34490571 -136.93752948 374.80123478 -136.921875 377.2578125 C-136.91814577 378.95889114 -136.91529837 380.65997192 -136.91329956 382.36105347 C-136.90565599 386.84260976 -136.88600134 391.32403683 -136.8638916 395.80554199 C-136.84344872 400.37685396 -136.83430118 404.94818677 -136.82421875 409.51953125 C-136.80275609 418.49224434 -136.76861146 427.46486143 -136.7265625 436.4375 C-120.77574716 436.53095843 -104.82502069 436.60148645 -88.87399769 436.64474869 C-81.46758176 436.6653704 -74.061336 436.69348329 -66.6550293 436.73925781 C-60.19937119 436.77913784 -53.74383633 436.80493567 -47.28805846 436.81385398 C-43.86998754 436.81906685 -40.45226917 436.83131013 -37.03431129 436.86042023 C-33.2177284 436.88938533 -29.4018799 436.8934587 -25.58520508 436.89160156 C-23.88695839 436.91317322 -23.88695839 436.91317322 -22.15440369 436.93518066 C-16.07200044 436.94301641 -16.07200044 436.94301641 -10.59867859 434.54974365 C-6.99559612 430.48451066 -5.1104721 427.46014477 -5.29296875 421.82421875 C-6.04461916 417.68675567 -7.80247268 413.98279156 -9.53515625 410.171875 C-11.45831391 405.75807054 -11.85550818 402.14112662 -11.88427734 397.3215332 C-11.89453949 396.08115799 -11.90480164 394.84078278 -11.91537476 393.56282043 C-11.91881268 392.90049723 -11.9222506 392.23817402 -11.92579269 391.55578041 C-11.93770321 389.4523941 -11.95720091 387.34920219 -11.97891235 385.24589539 C-12.04001099 379.264668 -12.0937971 373.2834486 -12.12792969 367.30200195 C-12.26618692 344.37491871 -12.95137866 321.56933786 -18.4765625 299.1875 C-18.73477783 298.11435547 -18.99299316 297.04121094 -19.2590332 295.93554688 C-24.11990043 276.28826801 -31.62459999 257.95029724 -39.7265625 239.4375 C-40.88333094 240.55921485 -42.03391373 241.68771103 -43.16088867 242.83935547 C-44.2558716 243.95704738 -45.37269681 245.05356711 -46.50512695 246.13330078 C-51.88058115 251.62534833 -53.42212656 256.8885723 -54.9140625 264.3125 C-55.15616455 265.40643066 -55.3982666 266.50036133 -55.64770508 267.62744141 C-56.36607162 270.89265711 -57.05146872 274.16309306 -57.7265625 277.4375 C-58.28487085 280.11592046 -58.84539394 282.79367421 -59.41723633 285.46923828 C-59.73987944 286.99097224 -60.05034047 288.51535882 -60.34643555 290.04248047 C-60.90948879 292.76190092 -61.51653597 295.0916519 -62.96484375 297.4765625 C-65.6900823 298.96305626 -67.81174413 298.15001116 -70.7265625 297.4375 C-71.25312055 294.94805057 -71.77786636 292.45823533 -72.30078125 289.96801758 C-72.75453396 287.80728257 -73.21029146 285.64696767 -73.66796875 283.48706055 C-74.79495941 278.11850831 -75.86810149 272.75446404 -76.7734375 267.34375 C-76.93553711 266.39975342 -77.09763672 265.45575684 -77.26464844 264.4831543 C-77.56585604 262.70090321 -77.85115032 260.91586749 -78.11816406 259.12817383 C-79.04732615 253.71434947 -80.31143707 251.02355568 -84.7265625 247.4375 C-85.39558594 246.85226562 -86.06460938 246.26703125 -86.75390625 245.6640625 C-87.38425781 245.13554687 -88.01460937 244.60703125 -88.6640625 244.0625 C-95.72878898 237.87587512 -99.66350876 232.39242771 -102.7265625 223.4375 C-105.6420101 223.4375 -108.06810731 223.84613269 -110.9140625 224.4375 Z M-157.7265625 251.4375 C-161.96334892 255.55838649 -165.983367 259.79460298 -169.84375 264.26953125 C-171.9423157 266.68592951 -174.0809595 269.06279024 -176.2265625 271.4375 C-179.48333179 275.04635246 -182.70939058 278.67700806 -185.8828125 282.359375 C-187.28680107 283.94183669 -188.73218552 285.48767593 -190.1953125 287.015625 C-191.030625 287.89734375 -191.8659375 288.7790625 -192.7265625 289.6875 C-193.9021875 290.90179688 -193.9021875 290.90179688 -195.1015625 292.140625 C-196.97120321 294.23545882 -196.97120321 294.23545882 -196.4855957 296.35717773 C-195.66331691 298.61084052 -194.67712588 300.12787477 -193.20703125 302.01953125 C-192.68520264 302.69677246 -192.16337402 303.37401367 -191.62573242 304.07177734 C-191.06088135 304.79059082 -190.49603027 305.5094043 -189.9140625 306.25 C-189.33309814 306.99975098 -188.75213379 307.74950195 -188.15356445 308.52197266 C-183.80421338 314.11643669 -179.37338332 319.64497808 -174.92358398 325.15966797 C-170.66833981 330.45384186 -166.64775936 335.89015974 -162.7265625 341.4375 C-159.43565203 340.87010164 -157.82671002 340.044641 -155.7265625 337.4375 C-155.15143299 335.25148284 -155.15143299 335.25148284 -155.04736328 332.82861328 C-154.98309143 331.93837463 -154.91881958 331.04813599 -154.8526001 330.13092041 C-154.66602345 326.14378192 -154.58369467 322.17101558 -154.59375 318.1796875 C-154.59243073 317.32495346 -154.59111145 316.47021942 -154.5897522 315.58958435 C-154.58785106 312.83051827 -154.59414544 310.07155562 -154.6015625 307.3125 C-154.60244873 306.37095062 -154.60333496 305.42940125 -154.60424805 304.45932007 C-154.62337068 287.10423923 -155.02071613 269.77766729 -155.7265625 252.4375 C-156.3865625 252.1075 -157.0465625 251.7775 -157.7265625 251.4375 Z M-232.7265625 297.4375 C-237.93486233 305.01406659 -237.21492832 312.93824787 -237.0390625 321.75 C-237.0275464 323.2102737 -237.0177686 324.67056219 -237.00976562 326.13085938 C-236.94268658 333.93615054 -236.61271568 341.67663086 -235.7265625 349.4375 C-231.67225315 345.54027643 -228.12021565 341.38254901 -224.6015625 337 C-224.03896729 336.30350342 -223.47637207 335.60700684 -222.89672852 334.8894043 C-218.23717341 329.10704904 -213.63721946 323.27843636 -209.06640625 317.42578125 C-206.97030194 314.7487866 -204.85589311 312.08809861 -202.7265625 309.4375 C-204.06235967 305.43010849 -206.04159079 302.47783457 -208.60546875 299.18359375 C-209.82719739 297.28076204 -210.29670842 295.64472825 -210.7265625 293.4375 C-222.54391482 292.46851628 -222.54391482 292.46851628 -232.7265625 297.4375 Z M-195.7265625 317.4375 C-197.65571259 319.89585873 -199.54217727 322.37347081 -201.4140625 324.875 C-206.09694812 331.07163133 -210.88719487 337.15152508 -215.8515625 343.125 C-220.24245576 348.41429353 -224.59702218 353.72511825 -228.8515625 359.125 C-229.28871582 359.67696045 -229.72586914 360.2289209 -230.17626953 360.79760742 C-231.37766926 362.33032221 -232.55268556 363.88360527 -233.7265625 365.4375 C-234.50773437 366.39269531 -235.28890625 367.34789062 -236.09375 368.33203125 C-237.82779739 371.63004005 -238.17447478 373.70873599 -237.47851562 377.38525391 C-236.03681518 381.31997272 -233.31146598 384.11330276 -230.4765625 387.125 C-229.90292969 387.76244141 -229.32929688 388.39988281 -228.73828125 389.05664062 C-225.49949778 392.63110666 -222.14199305 396.02206945 -218.7265625 399.4375 C-202.5565625 383.2675 -186.3865625 367.0975 -169.7265625 350.4375 C-171.7065625 347.7975 -173.6865625 345.1575 -175.7265625 342.4375 C-176.70496094 341.12910156 -177.68335938 339.82070313 -178.69140625 338.47265625 C-185.26722439 329.67822966 -185.26722439 329.67822966 -191.9140625 320.9375 C-192.44386719 320.2465625 -192.97367188 319.555625 -193.51953125 318.84375 C-193.91785156 318.3796875 -194.31617188 317.915625 -194.7265625 317.4375 C-195.0565625 317.4375 -195.3865625 317.4375 -195.7265625 317.4375 Z M-158.24121094 353.59570312 C-158.7674707 354.13130859 -159.29373047 354.66691406 -159.8359375 355.21875 C-160.42246094 355.80978516 -161.00898438 356.40082031 -161.61328125 357.00976562 C-162.22816406 357.64591797 -162.84304687 358.28207031 -163.4765625 358.9375 C-164.10691406 359.57880859 -164.73726562 360.22011719 -165.38671875 360.88085938 C-169.14391563 364.72751332 -172.78565036 368.64593961 -176.26171875 372.75 C-178.61121948 375.45662484 -181.16201788 377.93550525 -183.7265625 380.4375 C-182.3334222 383.69051796 -180.77696095 385.47136216 -178.0390625 387.6875 C-173.80271158 391.29596319 -170.26466002 395.15008164 -166.7265625 399.4375 C-166.23430176 400.03336914 -165.74204102 400.62923828 -165.23486328 401.24316406 C-163.51894246 403.32487218 -161.80897303 405.4113068 -160.1015625 407.5 C-159.55089111 408.17281006 -159.00021973 408.84562012 -158.43286133 409.53881836 C-155.80980238 412.77051236 -153.27919826 416.02391828 -150.890625 419.43359375 C-149.81941406 420.92052734 -149.81941406 420.92052734 -148.7265625 422.4375 C-148.3965625 422.4375 -148.0665625 422.4375 -147.7265625 422.4375 C-147.63377668 414.57053506 -147.56275437 406.70369891 -147.51931381 398.83632374 C-147.49846157 395.18292185 -147.47018842 391.52989503 -147.42480469 387.87670898 C-147.38126064 384.34943151 -147.35740761 380.8225142 -147.34705353 377.29498863 C-147.33609376 375.29800401 -147.30488102 373.30116376 -147.27337646 371.30439758 C-147.27307434 370.08350937 -147.27277222 368.86262115 -147.27246094 367.60473633 C-147.25913727 365.99590324 -147.25913727 365.99590324 -147.24554443 364.35456848 C-147.84274307 360.73293875 -149.28999539 359.12290777 -151.7265625 356.4375 C-152.43542144 355.12611096 -153.12112702 353.79972983 -153.7265625 352.4375 C-156.64716356 352.13378445 -156.64716356 352.13378445 -158.24121094 353.59570312 Z M-194.82446289 391.43774414 C-195.73188232 392.35676514 -196.63930176 393.27578613 -197.57421875 394.22265625 C-198.3093998 394.96351723 -198.3093998 394.96351723 -199.05943298 395.71934509 C-201.16051658 397.83674827 -203.25585868 399.95979679 -205.35131836 402.08276367 C-206.88176146 403.63158466 -208.41475007 405.17782392 -209.94921875 406.72265625 C-210.44563873 407.22374908 -210.94205872 407.72484192 -211.45352173 408.24111938 C-214.93432186 411.72538164 -218.54959534 414.95964643 -222.39624023 418.03295898 C-224.07039457 419.47808908 -224.07039457 419.47808908 -223.7265625 422.4375 C-222.91203613 422.86981934 -222.09750977 423.30213867 -221.25830078 423.74755859 C-193.86382914 438.29688653 -193.86382914 438.29688653 -182.9765625 444.3125 C-182.25227051 444.71001465 -181.52797852 445.1075293 -180.78173828 445.51708984 C-178.14009342 446.98699003 -175.87550625 448.28855625 -173.7265625 450.4375 C-173.453125 452.79296875 -173.453125 452.79296875 -173.3515625 455.625 C-172.94035636 461.03448764 -171.98438594 464.09373542 -168.7265625 468.4375 C-164.49042938 471.7842792 -160.60444068 471.8058979 -155.4140625 471.625 C-154.67349609 471.61146484 -153.93292969 471.59792969 -153.16992188 471.58398438 C-151.35515175 471.54885979 -149.54075962 471.49505972 -147.7265625 471.4375 C-146.74324956 443.10295957 -156.47102051 428.19300475 -174.7265625 407.4375 C-175.35046875 406.70273437 -175.974375 405.96796875 -176.6171875 405.2109375 C-181.34321229 399.66779627 -186.40518727 394.41227225 -191.7265625 389.4375 C-193.08904536 389.32248984 -193.08904536 389.32248984 -194.82446289 391.43774414 Z M-136.7265625 447.4375 C-136.7265625 455.3575 -136.7265625 463.2775 -136.7265625 471.4375 C-116.5965625 471.4375 -96.4665625 471.4375 -75.7265625 471.4375 C-75.7265625 463.5175 -75.7265625 455.5975 -75.7265625 447.4375 C-95.8565625 447.4375 -115.9865625 447.4375 -136.7265625 447.4375 Z M-64.7265625 447.4375 C-64.7265625 455.3575 -64.7265625 463.2775 -64.7265625 471.4375 C-55.8165625 471.4375 -46.9065625 471.4375 -37.7265625 471.4375 C-37.7265625 463.5175 -37.7265625 455.5975 -37.7265625 447.4375 C-46.6365625 447.4375 -55.5465625 447.4375 -64.7265625 447.4375 Z M-26.7265625 447.4375 C-26.7265625 455.3575 -26.7265625 463.2775 -26.7265625 471.4375 C-22.7665625 471.4375 -18.8065625 471.4375 -14.7265625 471.4375 C-11.43607262 467.05018016 -11.2373256 464.63000354 -11.2890625 459.4375 C-11.26908203 458.7259375 -11.24910156 458.014375 -11.22851562 457.28125 C-11.23148922 454.09355796 -11.55495146 451.75770719 -13.06640625 448.9375 C-16.81452395 446.53701819 -16.81452395 446.53701819 -26.7265625 447.4375 Z " fill="#000000" transform="translate(322.7265625,14.5625)"/>
<path d="M0 0 C1.875 1.125 1.875 1.125 3 3 C3.39365568 6.14924548 3.52854531 8.11909116 1.875 10.875 C-0.88090884 12.52854531 -2.85075452 12.39365568 -6 12 C-7.875 10.875 -7.875 10.875 -9 9 C-9.39365568 5.85075452 -9.52854531 3.88090884 -7.875 1.125 C-5.11909116 -0.52854531 -3.14924548 -0.39365568 0 0 Z " fill="#000000" transform="translate(231,272)"/>
<path d="M0 0 C3.0625 0.3125 3.0625 0.3125 4.9375 1.4375 C6.59104531 4.19340884 6.45615568 6.16325452 6.0625 9.3125 C4.9375 11.1875 4.9375 11.1875 3.0625 12.3125 C0.0625 12.75 0.0625 12.75 -2.9375 12.3125 C-4.875 10.6875 -4.875 10.6875 -5.9375 8.3125 C-5.64908355 3.50555913 -5.26034464 0.55961113 0 0 Z " fill="#000000" transform="translate(231.9375,291.6875)"/>
<path d="M0 0 C2 2 2 2 2.375 5.4375 C2 9 2 9 0.375 11 C-2.83596428 12.35198496 -4.69946166 12.00451167 -8 11 C-10.15502531 7.76746204 -10.46856135 6.74849077 -10 3 C-7.65916893 -0.99318242 -4.22752593 -0.38432054 0 0 Z " fill="#000000" transform="translate(291,136)"/>
<path d="M0 0 C2.31361802 3.47042703 2.51020728 4.91834173 2 9 C0.375 10.9375 0.375 10.9375 -2 12 C-5.125 11.875 -5.125 11.875 -8 11 C-10.15502531 7.76746204 -10.46856135 6.74849077 -10 3 C-7.66359177 -0.98563758 -4.22275562 -0.46066425 0 0 Z " fill="#000000" transform="translate(268,136)"/>
</svg>
