<?xml version="1.0" encoding="UTF-8"?>
<svg version="1.1" xmlns="http://www.w3.org/2000/svg" width="512" height="512">
<path d="M0 0 C0.33 -1.65 0.66 -3.3 1 -5 C3.92049381 -6.53710201 6.07675882 -7.20157432 9.34375 -6.48828125 C19.78672296 -2.66886059 26.22023021 4.08482279 31 14 C36.67819874 27.46704373 37.30920597 41.43608585 37.125 55.875 C37.11493026 57.25650378 37.1058116 58.63801484 37.09765625 60.01953125 C37.0743904 63.34654732 37.04170564 66.67317285 37 70 C37.95680664 70.46245117 38.91361328 70.92490234 39.89941406 71.40136719 C45.06027167 74.06225661 47.17955129 77.96841271 49.3125 83.25 C50.81006054 91.41851203 50.83834783 99.45984636 47 107 C44.48519099 109.95490059 42.22008337 111.85327776 39 114 C38.01 114 37.02 114 36 114 C36.02618408 114.8564209 36.05236816 115.7128418 36.0793457 116.59521484 C36.16533938 119.81943365 36.22761905 123.04306181 36.2746582 126.26806641 C36.29956805 127.65498264 36.33351002 129.04177087 36.37719727 130.42822266 C36.67597252 140.16478096 36.16054284 148.50976545 29.18481445 155.93115234 C24.44335241 160.34625669 19.97535636 162.28752284 13.4375 162.1875 C12.50808594 162.18105469 11.57867187 162.17460937 10.62109375 162.16796875 C8 162 8 162 4 161 C4 163.97 4 166.94 4 170 C26.65801822 168.8375657 49.20028681 167.04863148 71.265625 161.41796875 C74.45854575 160.92990801 76.87622609 161.2102323 80 162 C82 164 82 164 82.04248047 166.05981445 C81.34473255 171.84771852 80.36828496 177.49375996 79.125 183.1875 C77.58173675 190.61476284 76.31594125 198.04306571 75.3125 205.5625 C75.19342285 206.42190186 75.0743457 207.28130371 74.95166016 208.16674805 C74.71732442 210.00170165 74.51204878 211.84051228 74.33007812 213.68139648 C74.15305835 215.46115226 73.96652682 217.24074184 73.72021484 219.01223755 C71.87635112 232.4182886 74.32925205 242.14125534 79.64819336 254.46890259 C81.3424073 258.39589663 82.95254982 262.35585493 84.57049561 266.31474304 C85.41743432 268.38383602 86.2687495 270.45114274 87.12432861 272.51667786 C91.4643898 283.01282051 95.46076951 293.62797808 99.38433838 304.28573608 C100.47902382 307.25559211 101.58434446 310.22132416 102.69091797 313.18676758 C103.36751959 315.01619572 104.04349656 316.84585505 104.71875 318.67578125 C105.02318024 319.48950195 105.32761047 320.30322266 105.64126587 321.14160156 C107.55365404 326.37354139 108.89185373 331.5392485 110 337 C123.6382902 329.43694816 134.89156675 315.44787791 144.0625 303.0625 C144.52793213 302.43569336 144.99336426 301.80888672 145.47290039 301.16308594 C149.01266301 296.44237444 149.01266301 296.44237444 151 291 C149.54757417 288.25968093 149.54757417 288.25968093 147.25 285.6875 C143.02458997 280.21932232 140.43602974 276.45408329 141.34375 269.28515625 C141.81272863 266.82646683 142.35585111 264.41803585 143 262 C142.27296875 261.74863281 141.5459375 261.49726563 140.796875 261.23828125 C129.00701851 256.01847049 120.68454342 242.8186233 116.0625 231.25 C115.34656782 229.17626541 114.65562232 227.09358387 114 225 C113.75507813 224.2678125 113.51015625 223.535625 113.2578125 222.78125 C108.95589603 207.45935572 112.16518167 190.07165081 119.1875 176.125 C122.73241384 170.0047214 126.98556463 164.96155907 132 160 C132.57878906 159.38769531 133.15757812 158.77539062 133.75390625 158.14453125 C139.40891121 152.61603647 146.48059721 149.36145622 153.46484375 145.8203125 C156.74094325 144.36070746 156.74094325 144.36070746 158 143 C158.16003488 140.33573315 158.25942889 137.69439572 158.31640625 135.02734375 C158.3475779 133.83087975 158.3475779 133.83087975 158.37937927 132.61024475 C158.44496158 130.05275389 158.50379967 127.4951572 158.5625 124.9375 C158.60567699 123.20767118 158.64929101 121.47785321 158.69335938 119.74804688 C158.80065172 115.4988074 158.90189426 111.2494611 159 107 C158.21592773 106.87165771 157.43185547 106.74331543 156.62402344 106.61108398 C153.33398267 105.84489753 152.36343508 104.64818496 150.25 102.0625 C149.36054687 100.99708984 149.36054687 100.99708984 148.453125 99.91015625 C145.00030524 95.37136898 145.57903469 90.50373165 146 85 C147.65669153 80.0299254 150.52152649 76.70061618 155 74 C162.24099529 71.56655076 169.35329332 71.66759395 176.9375 71.6875 C178.77344727 71.66333008 178.77344727 71.66333008 180.64648438 71.63867188 C188.92591487 71.63421817 196.18694114 72.01586698 202.875 77.25 C206.55178326 82.00819011 208.31117803 85.96863769 208 92 C207.29916908 97.00484686 205.55546573 100.42467134 202 104 C198.98054395 106.22864613 197.75856468 107 194 107 C194.09367845 111.76922298 194.19980386 116.5379469 194.31738281 121.30664062 C194.35562358 122.92830859 194.39048503 124.55005996 194.421875 126.171875 C194.46763257 128.50551117 194.52560816 130.83857562 194.5859375 133.171875 C194.60326431 134.25647003 194.60326431 134.25647003 194.62094116 135.36297607 C194.76939937 140.50164586 194.76939937 140.50164586 197 145 C199.49251632 146.38602543 201.90843305 147.58693948 204.5 148.75 C220.78882592 156.52153185 231.45771806 168.07813614 238 185 C238.3403125 185.82371094 238.680625 186.64742187 239.03125 187.49609375 C244.34268514 202.86482969 241.97924385 221.95038596 235.125 236.3125 C233.32689134 239.77769936 231.44369293 242.83707573 229 245.875 C226.60854637 248.82890722 226.60854637 248.82890722 227.5625 252.0625 C228.036875 253.031875 228.51125 254.00125 229 255 C231.71319787 262.08446109 231.56705558 267.81959177 228.95703125 274.875 C224.58002262 284.5937457 213.42783512 290.93627797 204 295 C201 295.75 201 295.75 199 296 C198.95681641 296.58918213 198.91363281 297.17836426 198.86914062 297.78540039 C196.52380401 325.32427841 186.15319338 353.36399907 174 378 C173.63938477 378.73895508 173.27876953 379.47791016 172.90722656 380.23925781 C162.3553044 401.65596237 147.24597794 424.47473363 128 439 C124.3125 439.625 124.3125 439.625 121 439 C117.76981755 434.67122758 116.26417402 429.46570307 114.68945312 424.3515625 C113.72467127 421.66414787 112.82056818 419.48886422 110.3059082 417.99072266 C108.22583246 417.2147544 106.13619734 416.60299923 104 416 C102.59842105 415.46875505 101.20369891 414.91906919 99.81640625 414.3515625 C99.1203125 414.07119141 98.42421875 413.79082031 97.70703125 413.50195312 C94.12283444 412.0362843 90.55645716 410.53165818 87 409 C85.98808594 408.56429688 84.97617187 408.12859375 83.93359375 407.6796875 C81.70578302 406.59975357 79.84844209 405.64414059 78 404 C76.75 400.375 76.75 400.375 77 397 C78.0625 395.0625 78.0625 395.0625 80 394 C85.63229483 393.33688332 89.2058556 395.27066216 94 397.875 C98.60110158 400.32257847 102.97537981 402.50831588 108 404 C107.73445313 403.09121094 107.46890625 402.18242187 107.1953125 401.24609375 C104.10324017 390.24328162 101.84740036 379.51139558 102.08203125 368.0234375 C102.31855375 349.04737662 97.79172027 334.21380768 90.91064453 316.85302734 C88.78482221 311.48332474 86.74898148 306.0807491 84.71484375 300.67578125 C81.92231412 293.26908805 79.11388212 285.86893047 76.2734375 278.48046875 C75.97183212 277.69553543 75.67022675 276.91060211 75.35948181 276.10188293 C73.93071816 272.39102829 72.48106133 268.69037976 71 265 C70.36936187 331.71004046 70.36936187 331.71004046 72.375 398.375 C72.43821442 399.5646637 72.50142883 400.75432739 72.56655884 401.9800415 C73.32636397 415.86391948 74.3077552 429.73299279 75.34396362 443.59872437 C76.76016752 462.78508734 76.76016752 462.78508734 76 468 C72.08699675 470.60866883 68.79112753 470.28085745 64.25163269 470.26069641 C63.34675419 470.26452196 62.44187568 470.26834751 61.50957662 470.27228898 C58.46490349 470.28264183 55.42041815 470.27862247 52.37573242 470.2746582 C50.19785893 470.27900347 48.01998698 470.28418599 45.84211731 470.29014587 C39.91644409 470.30356851 33.99083453 470.30411081 28.06514907 470.30158257 C23.12224095 470.30051486 18.17934582 470.30539121 13.23644048 470.310188 C0.90850961 470.32193056 -11.41938593 470.32105171 -23.74731924 470.31463119 C-33.78608676 470.30978552 -43.82477366 470.3183499 -53.86352539 470.33618164 C-65.51975062 470.35681258 -77.17591966 470.36728221 -88.83216399 470.36360615 C-95.00274849 470.36179122 -101.17324963 470.36445025 -107.34382057 470.37832069 C-113.14764666 470.39087767 -118.95129038 470.38897501 -124.7551136 470.37590981 C-126.88600984 470.37353967 -129.01691882 470.3762943 -131.14780045 470.38453293 C-134.05564029 470.39496515 -136.96286425 470.3869278 -139.87068176 470.3742218 C-140.71494888 470.38159609 -141.55921599 470.38897037 -142.42906696 470.39656812 C-148.19939272 470.34348723 -152.47481125 469.32931457 -156.86328125 465.28125 C-157.34152344 464.6934375 -157.81976563 464.105625 -158.3125 463.5 C-158.80363281 462.9121875 -159.29476562 462.324375 -159.80078125 461.71875 C-162.88068805 457.30455133 -162.40293907 452.141204 -162 447 C-160.40830374 438.67731699 -155.8265546 433.79187272 -150 428 C-171.25054962 411.6651666 -194.03878414 399.8337807 -220.5234375 394.7734375 C-223 394 -223 394 -225 391 C-224.8627087 385.23376558 -221.89464403 380.80660447 -219 376 C-219.85271484 375.5978125 -219.85271484 375.5978125 -220.72265625 375.1875 C-227.45330248 371.77161277 -232.7782102 367.53365217 -236.15625 360.640625 C-240.05286194 348.44567281 -235.29489957 337.80586794 -230 327 C-229.65759277 326.29439941 -229.31518555 325.58879883 -228.96240234 324.86181641 C-210.48515002 287.29399482 -180.90370898 251.0871077 -149.15625 223.875 C-145.63433304 220.81246352 -142.2234611 217.6323829 -138.84375 214.4140625 C-136 212 -136 212 -132.96875 210.4609375 C-129.45347916 208.57775669 -127.92119006 207.54190964 -126 204 C-125.47021199 195.62173574 -127.44851222 187.19108456 -129 179 C-129.41930124 176.48205053 -129.80446691 173.96136145 -130.1875 171.4375 C-130.33960938 170.47972656 -130.49171875 169.52195313 -130.6484375 168.53515625 C-131.87409841 159.69677926 -131.87409841 159.69677926 -129.9375 155.9375 C-125.42102734 153.75211 -119.43251726 156.37244959 -114.80126953 157.71362305 C-93.71776139 163.77295082 -71.78696774 164.71024115 -50 166 C-49.99467124 160.66058093 -50.02821876 155.32334627 -50.09765625 149.984375 C-50.11581305 148.16869514 -50.12338531 146.35287708 -50.12011719 144.53710938 C-50.11725897 141.92469446 -50.15257952 139.31514316 -50.1953125 136.703125 C-50.1816716 135.48728729 -50.1816716 135.48728729 -50.16775513 134.24688721 C-50.2253665 132.00784178 -50.33348574 130.13946071 -51 128 C-53.82255516 125.48995843 -53.82255516 125.48995843 -57 124 C-62.27623785 118.39079568 -64.52783932 111.96538566 -64.30859375 104.3046875 C-63.57172006 98.8014536 -61.11283139 94.55276897 -56.8125 91.0625 C-53.9371199 89.25663851 -51.63329201 88.66467712 -48.26171875 88.37109375 C-47.06035278 88.25979126 -47.06035278 88.25979126 -45.8347168 88.14624023 C-45.22926025 88.09798096 -44.62380371 88.04972168 -44 88 C-43.98598145 87.03344482 -43.98598145 87.03344482 -43.97167969 86.04736328 C-43.91734956 83.07252233 -43.83383021 80.09915023 -43.75 77.125 C-43.73582031 76.11179687 -43.72164062 75.09859375 -43.70703125 74.0546875 C-43.3422103 62.67227379 -39.59044981 53.25058356 -31.2578125 45.34765625 C-20.15260061 36.29299178 -5.11567409 32.70089263 9 34 C14.59446097 35.05235613 19.97254726 36.26639686 25 39 C21.2735712 20.62883211 21.2735712 20.62883211 9 7 C8.9175 7.7425 8.835 8.485 8.75 9.25 C7.82482641 12.64230315 6.87553044 13.97935699 4 16 C-0.28012027 16.19907536 -2.76480961 14.57548341 -6.125 12.1875 C-17.93608407 3.88781931 -32.23415174 2.81033002 -46.125 4.9375 C-54.23383545 6.39944585 -61.59344117 9.46547031 -69.1875 12.57958984 C-75.74284923 15.22802918 -82.25910626 17.3733934 -89.125 19.0625 C-89.94774414 19.26601074 -90.77048828 19.46952148 -91.61816406 19.67919922 C-95.47801045 20.58058592 -99.00778674 21.24851127 -103 21 C-97.05632785 28.28054673 -91.43439171 32.88087847 -83 37 C-81 39 -81 39 -80.4375 41.19921875 C-81.34332938 45.70949419 -84.61946837 47.88553391 -88 50.8125 C-88.66773438 51.40998047 -89.33546875 52.00746094 -90.0234375 52.62304688 C-91.67173359 54.09473981 -93.33032159 55.55267048 -95 57 C-90.92643745 59.71570837 -86.53089431 61.04865632 -81.93359375 62.68359375 C-79 64 -79 64 -77 67 C-76.34873958 71.59020895 -78.02518994 74.44944414 -80.1875 78.4375 C-83.86819218 85.4158896 -86.53019683 92.51091942 -89 100 C-88.43152344 100.10957031 -87.86304688 100.21914062 -87.27734375 100.33203125 C-75.18487395 102.81512605 -75.18487395 102.81512605 -72 106 C-71.73694538 109.02512811 -71.58945784 111.20457456 -73 113.9375 C-76.39257058 115.73980312 -79.44001997 114.89133738 -83 114 C-98.17510005 109.2863935 -98.17510005 109.2863935 -101 106 C-101.73454019 99.75303894 -100.28492587 94.78351678 -98.1875 88.9375 C-97.92646484 88.17373047 -97.66542969 87.40996094 -97.39648438 86.62304688 C-95.79070044 81.9880804 -93.98367056 77.48559739 -92 73 C-92.79664063 72.67386719 -93.59328125 72.34773438 -94.4140625 72.01171875 C-109.00621118 65.99378882 -109.00621118 65.99378882 -111 64 C-111.53642312 60.85809314 -111.45881581 58.76519119 -109.80078125 56 C-108.25676934 53.94650306 -106.65339465 51.96619905 -105 50 C-104.278125 49.071875 -103.55625 48.14375 -102.8125 47.1875 C-101.28564518 45.34474419 -99.73334368 43.64667649 -98 42 C-98.59425781 41.71769531 -99.18851563 41.43539062 -99.80078125 41.14453125 C-108.3862131 36.67644682 -114.73660733 27.52678535 -119 19 C-119.1875 15.5 -119.1875 15.5 -119 12 C-116.13809531 9.13809531 -114.0708038 9.76358169 -110.0625 9.6875 C-95.84258398 9.05579022 -82.93092825 4.46430857 -69.75 -0.625 C-45.32715853 -10.01383423 -24.17679251 -10.69467528 0 0 Z M-26.45703125 56.6640625 C-31.00175733 62.61018826 -32.30559739 68.28495173 -32.125 75.734375 C-32.11742676 76.45361145 -32.10985352 77.1728479 -32.10205078 77.91387939 C-32.07777688 80.19283964 -32.04049355 82.47127388 -32 84.75 C-31.94690604 87.76561026 -31.90692597 90.780975 -31.875 93.796875 C-31.85840332 94.48956482 -31.84180664 95.18225464 -31.82470703 95.89593506 C-31.80716725 97.59820275 -31.89501897 99.30088201 -32 101 C-34 103 -34 103 -36.375 103.3125 C-39 103 -39 103 -40.9375 101.5 C-42.99068305 99.77173473 -42.99068305 99.77173473 -46 99.5 C-49.14953744 99.75550397 -49.14953744 99.75550397 -51.4375 102.125 C-53.22223469 104.88502066 -53.22223469 104.88502066 -53.0625 107.9375 C-51.67396922 111.93973577 -50.13394752 114.13277142 -47 117 C-42.23207769 118.58930744 -37.86139147 117.90444492 -33 117 C-31.515 117.495 -31.515 117.495 -30 118 C-28.82421875 120.6953125 -28.82421875 120.6953125 -27.6875 124.125 C-23.38646192 135.62369365 -16.93051286 139.9880428 -6.05517578 145.08642578 C5.57107897 150.35570958 5.57107897 150.35570958 18 150 C20.01671142 148.53111041 20.01671142 148.53111041 21.375 146.5625 C21.85710937 145.94503906 22.33921875 145.32757813 22.8359375 144.69140625 C26.23434149 139.75345682 25.2631535 133.72377352 25.29516602 127.93408203 C25.31232692 125.77180818 25.35620542 123.61108493 25.40039062 121.44921875 C25.41052276 120.06511538 25.41903723 118.68099903 25.42578125 117.296875 C25.44036377 116.04229492 25.45494629 114.78771484 25.4699707 113.49511719 C24.9155897 109.37225046 23.45928537 107.30246057 21 104 C19.75 100.625 19.75 100.625 19 98 C17.68 98 16.36 98 15 98 C14.69707031 98.67546875 14.39414062 99.3509375 14.08203125 100.046875 C9.18499106 110.47380364 9.18499106 110.47380364 2.96484375 112.7421875 C-2.3954047 114.23165619 -6.89868376 114.35844967 -12 112 C-16.21588161 109.33867193 -19.8467755 106.06084563 -21.5625 101.24609375 C-23.02005656 93.76310248 -23.38324735 85.32261839 -19.33984375 78.6171875 C-15.04977517 73.43908723 -10.33252685 71.32043527 -3.75 70.6875 C2.19703783 71.18308649 6.86828044 73.39690167 10.875 77.875 C12.93830732 80.90927547 14.07464549 83.46682823 15 87 C16.32 87 17.64 87 19 87 C19.26554687 86.30132812 19.53109375 85.60265625 19.8046875 84.8828125 C20.15789062 83.97273438 20.51109375 83.06265625 20.875 82.125 C21.22304688 81.22007813 21.57109375 80.31515625 21.9296875 79.3828125 C23 77 23 77 25 75 C26.25149889 68.02012135 26.41071519 59.95341516 25 53 C22.20270564 49.3207229 19.42404206 48.09260433 15 47 C14.07767578 46.70996094 14.07767578 46.70996094 13.13671875 46.4140625 C-0.3012789 43.80998983 -17.07644684 45.95058004 -26.45703125 56.6640625 Z M-11 86 C-12.65193501 90.95580504 -12.64613479 94.60434885 -10.4375 99.375 C-8.15145944 102.26630536 -8.15145944 102.26630536 -4.5 103.125 C-1.00682379 103.31878589 -1.00682379 103.31878589 1.3125 101.375 C3.64058205 98.09844008 5.16384362 95.93540277 4.8125 91.78515625 C4.17171017 88.25509085 3.59446924 85.70062446 1.25 82.9375 C-4.0999005 80.70837479 -7.46973334 81.4237284 -11 86 Z M33 82 C29.3943705 86.02166368 29.57074808 90.26662946 29.6953125 95.39453125 C30.06188808 98.52922241 30.9883189 100.56921868 33 103 C35.97516292 102.00827903 36.86152455 101.27035683 38.3125 98.4375 C39.3709201 93.14539951 39.2384794 88.20772416 36.5625 83.4375 C35.10854982 81.77431449 35.10854982 81.77431449 33 82 Z M158.54858398 85.83959961 C156.71161226 87.97201202 156.71161226 87.97201202 156.9375 91.0625 C157.75226787 94.11382463 157.75226787 94.11382463 160.1875 95.75 C163.07912043 97.03516463 165.99375047 98.01870693 169 99 C169.1015993 105.72594266 169.17154911 112.45168668 169.21972656 119.17822266 C169.23981517 121.46540726 169.26709128 123.75254068 169.30175781 126.03955078 C169.35039558 129.33118334 169.37299679 132.62213557 169.390625 135.9140625 C169.41127014 136.93303619 169.43191528 137.95200989 169.45318604 139.00186157 C169.45501843 144.82760365 169.09758183 148.49426933 165 153 C162.96044922 154.45629883 162.96044922 154.45629883 160.8046875 155.45703125 C160.01094727 155.84238037 159.21720703 156.22772949 158.39941406 156.62475586 C157.1498291 157.21268921 157.1498291 157.21268921 155.875 157.8125 C141.21978459 165.14978933 131.48711463 174.84243577 125.78125 190.484375 C121.30205238 204.90739132 122.48048344 219.4484047 129.50390625 232.875 C137.36022642 245.99924715 148.15433795 254.78338546 162.8046875 259.2421875 C179.18199357 263.12629187 193.81820496 259.58554749 208 251 C218.94936989 243.55576376 226.31610215 231.36939299 229.41015625 218.63671875 C231.79171098 203.95309324 229.71450949 189.38610486 221 177 C215.02540351 169.49169483 208.83292161 163.20582071 200.08203125 159.140625 C199.37183838 158.80691895 198.66164551 158.47321289 197.92993164 158.12939453 C196.50948484 157.47492952 195.07773474 156.84430113 193.63452148 156.24169922 C188.95955262 154.11471519 186.95031185 151.978508 184.79244995 147.35244751 C183.35750595 143.0927079 183.49098072 138.89889404 183.57421875 134.4453125 C183.57750687 133.46255341 183.58079498 132.47979431 183.58418274 131.46725464 C183.59455019 129.40485945 183.61440848 127.34249216 183.64331055 125.28027344 C183.68765727 122.11377029 183.70479409 118.94802631 183.71679688 115.78125 C183.73021091 113.77342647 183.74513109 111.76561232 183.76171875 109.7578125 C183.76910568 108.80891144 183.77649261 107.86001038 183.78410339 106.88235474 C183.79693863 106.00739349 183.80977386 105.13243225 183.82299805 104.23095703 C183.83284225 103.46010773 183.84268646 102.68925842 183.85282898 101.89505005 C184 100 184 100 185 98 C186.99609375 97.21875 186.99609375 97.21875 189.4375 96.5 C193.09382035 95.42683488 193.09382035 95.42683488 196 93 C196.45238677 88.96627889 196.45238677 88.96627889 194.92749023 85.33569336 C191.97444972 83.28932418 189.40415876 83.59308719 185.84765625 83.56640625 C185.15111435 83.5611644 184.45457245 83.55592255 183.73692322 83.55052185 C182.26514009 83.54410475 180.79330566 83.54543471 179.3215332 83.55395508 C177.07344844 83.56245859 174.82791134 83.53371679 172.58007812 83.50195312 C171.14843826 83.50034075 169.71679391 83.50091934 168.28515625 83.50390625 C166.98457275 83.50205322 165.68398926 83.5002002 164.34399414 83.49829102 C160.94560302 83.73752662 160.94560302 83.73752662 158.54858398 85.83959961 Z M-38 130 C-38.17391434 135.5499697 -38.30047214 141.0983314 -38.38452148 146.65039062 C-38.41957944 148.53608856 -38.4672419 150.42159819 -38.52807617 152.30664062 C-39.46125724 164.46420702 -39.46125724 164.46420702 -34.6640625 175.0625 C-33.46962101 176.07432157 -32.24904519 177.05641138 -31 178 C-29.96001072 179.14962346 -28.93640472 180.31450383 -27.9375 181.5 C-24.59351677 184.81337469 -20.80369643 187.10247149 -16.75 189.4375 C-16.13503662 189.79199219 -15.52007324 190.14648438 -14.88647461 190.51171875 C-12.04881102 192.08356373 -10.29453777 193 -7 193 C-7 180.79 -7 168.58 -7 156 C-12.28 153.36 -17.56 150.72 -23 148 C-30.74649211 143.39397766 -33.48684447 138.22397771 -37 130 C-37.33 130 -37.66 130 -38 130 Z M-118 170 C-117.51235911 176.94303612 -116.80773417 183.84463049 -115.94921875 190.75 C-111.93278013 223.19295872 -109.13452258 255.70486647 -107.34375 288.34765625 C-107.30084839 289.12427109 -107.25794678 289.90088593 -107.21374512 290.70103455 C-106.36059061 307.00209879 -105.84193069 323.32254549 -105.453125 339.640625 C-105.42083644 340.98939445 -105.42083644 340.98939445 -105.38789558 342.36541176 C-104.86046356 365.06074737 -104.88320061 387.75440066 -104.93133545 410.45452881 C-104.94370331 416.94079717 -104.94801288 423.42707603 -104.95378876 429.91335297 C-104.96326698 439.60892259 -104.98250949 449.30442674 -105 459 C-91.47 459 -77.94 459 -64 459 C-62.14204145 396.99063347 -61.93718356 334.64999713 -64.8046875 272.671875 C-64.87707038 271.08914694 -64.94945298 269.50641888 -65.02183533 267.9236908 C-65.34165126 260.98225973 -65.6719499 254.04186574 -66.04374313 247.10300827 C-67.3272689 222.90512985 -67.81420542 199.62975322 -58 177 C-58.95028076 176.93006836 -59.90056152 176.86013672 -60.87963867 176.78808594 C-94.0512016 174.31200206 -94.0512016 174.31200206 -110.24609375 170.76953125 C-114.01442402 169.86612085 -114.01442402 169.86612085 -118 170 Z M57.39453125 175.83984375 C56.32783203 176.01580078 55.26113281 176.19175781 54.16210938 176.37304688 C52.50405273 176.65245117 52.50405273 176.65245117 50.8125 176.9375 C38.96140114 178.92792195 27.3836062 180.1174666 15.375 180.5625 C13.72564453 180.62727539 13.72564453 180.62727539 12.04296875 180.69335938 C9.36207118 180.79826406 6.68109999 180.90042726 4 181 C2.70891537 192.17635887 3.54952423 200.58238297 8.8125 210.625 C23.17695927 238.04549138 30.22931773 268.8178626 34.75 299.25 C34.90211945 300.24891266 34.90211945 300.24891266 35.05731201 301.26800537 C39.99971714 334.25511676 39.40493222 367.71840571 39.60089111 400.97888184 C39.64147071 407.53675074 39.69231151 414.09454013 39.7421875 420.65234375 C39.83794456 433.43484446 39.92170399 446.21738041 40 459 C48.25 459 56.5 459 65 459 C64.73445313 455.23464844 64.46890625 451.46929687 64.1953125 447.58984375 C58.81701747 370.21320329 54.95279714 291.83194294 62.9375 214.5 C63.01681763 213.73029877 63.09613525 212.96059753 63.17785645 212.16757202 C64.11725097 203.23740149 65.34047046 194.41294632 67.03807068 185.59289551 C67.71513153 182.01038721 68.15493913 178.64791156 68 175 C64.35600057 174.91102102 60.98673223 175.23504828 57.39453125 175.83984375 Z M-46 180 C-55.88275753 191.97020467 -56.37139747 209.03531263 -56.25 223.8125 C-56.24540771 225.03477295 -56.24081543 226.2570459 -56.23608398 227.51635742 C-56.11930723 240.03621762 -55.45183704 252.52615018 -54.78442383 265.02661133 C-54.03931063 279.13645081 -53.61674589 293.24008483 -53.34204102 307.36645508 C-53.13555882 317.59802213 -52.6768067 327.78858756 -52 338 C-49.42614934 335.52018859 -47.20425079 333.07030118 -45.1875 330.12109375 C-44.67566162 329.3748877 -44.16382324 328.62868164 -43.63647461 327.85986328 C-43.09643799 327.0604834 -42.55640137 326.26110352 -42 325.4375 C-41.14450562 324.17655518 -41.14450562 324.17655518 -40.27172852 322.89013672 C-25.48741777 300.97399371 -12.22134048 278.2325522 -0.33789062 254.61523438 C0.89211319 252.21089115 2.17835186 249.84795833 3.484375 247.484375 C6.1276612 242.49091131 8.26741198 238.27804736 7.5859375 232.47265625 C6.58124693 229.43466333 5.40106822 226.67901731 3.91650391 223.84765625 C2.93224335 221.86340375 2.16012284 219.85621363 1.38671875 217.78125 C-1.84841431 209.47488816 -1.84841431 209.47488816 -8.46484375 203.90234375 C-11.01746393 202.84305738 -13.61733394 202.00683422 -16.2578125 201.1953125 C-26.9021676 197.79534104 -35.26658215 189.79807854 -43 182 C-43.33 181.34 -43.66 180.68 -44 180 C-44.66 180 -45.32 180 -46 180 Z M-125 218 C-125.845625 218.78503906 -126.69125 219.57007813 -127.5625 220.37890625 C-128.70828013 221.44016161 -129.85411651 222.50135624 -131 223.5625 C-131.55300781 224.07619141 -132.10601562 224.58988281 -132.67578125 225.11914062 C-135.62590566 227.84885344 -138.60530444 230.52463944 -141.66015625 233.13671875 C-146.92733815 237.72727133 -151.85267623 242.6666384 -156.7902832 247.60498047 C-158.42575882 249.23827448 -160.06907708 250.8633847 -161.71289062 252.48828125 C-168.27389528 259.01473218 -174.25009361 265.73910861 -180 273 C-180.86310832 274.02778518 -181.73149695 275.05120751 -182.609375 276.06640625 C-198.88286692 295.04224811 -223.84097709 324.54616177 -226.3125 350.25 C-225.94557898 354.65305225 -224.92596311 357.724784 -222 361 C-217.00518864 364.73162353 -217.00518864 364.73162353 -211.0703125 365.9765625 C-207.8732636 364.46852056 -205.75000835 361.92129034 -203.375 359.375 C-192.81018997 348.50266366 -179.98191676 341.07808483 -165.6875 336.0625 C-156.29770642 332.46674293 -149.02684325 324.16624123 -141.75390625 317.47265625 C-139.04396955 315.03947904 -136.26904746 312.72742938 -133.4375 310.4375 C-132.09558594 309.32955078 -132.09558594 309.32955078 -130.7265625 308.19921875 C-128.88559485 306.71431218 -127.00307435 305.27970117 -125.0859375 303.89453125 C-119.85760185 299.98336396 -119.85760185 299.98336396 -117.54933167 294.14762878 C-117.59178513 293.11302017 -117.63423859 292.07841156 -117.67797852 291.01245117 C-117.71722443 289.8632016 -117.75647034 288.71395203 -117.79690552 287.52987671 C-117.89743729 285.78258774 -117.89743729 285.78258774 -118 284 C-118.05453339 282.94076324 -118.10906677 281.88152649 -118.16525269 280.79019165 C-118.35683142 277.54051736 -118.59195711 274.29662691 -118.83984375 271.05078125 C-118.96946251 269.28277412 -118.96946251 269.28277412 -119.10169983 267.47904968 C-119.28360977 265.00922565 -119.46775197 262.53956507 -119.65405273 260.07006836 C-119.93753595 256.31202337 -120.214496 252.55354233 -120.49023438 248.79492188 C-120.66889391 246.38018042 -120.84791789 243.96546589 -121.02734375 241.55078125 C-121.10967758 240.44011795 -121.19201141 239.32945465 -121.27684021 238.18513489 C-121.50834152 235.12258343 -121.75301698 232.06133564 -122 229 C-122.07018341 228.02082611 -122.14036682 227.04165222 -122.212677 226.0328064 C-122.32311844 224.66921494 -122.32311844 224.66921494 -122.43579102 223.27807617 C-122.49662369 222.47480392 -122.55745636 221.67153168 -122.62013245 220.84391785 C-122.74548874 220.23542496 -122.87084503 219.62693207 -123 219 C-123.99 218.505 -123.99 218.505 -125 218 Z M216 258 C215.23429687 258.56267578 215.23429687 258.56267578 214.453125 259.13671875 C200.51455227 268.94808998 185.89969041 272.19720599 169 271 C165.47957694 270.36426598 162.06322445 269.58414985 158.609375 268.65625 C155.96353874 267.87804911 155.96353874 267.87804911 153 268 C152.54248423 271.05010511 152.55122879 273.22867448 154.125 275.93359375 C156.20983346 278.71880095 158.39183121 281.3502126 160.76953125 283.890625 C161.59517578 284.78007812 161.59517578 284.78007812 162.4375 285.6875 C162.95183594 286.20699219 163.46617187 286.72648437 163.99609375 287.26171875 C165 289 165 289 164.92578125 291.28125 C163.71812513 294.82778443 161.85018327 297.74483472 159.75 300.8125 C159.30599854 301.46557129 158.86199707 302.11864258 158.40454102 302.79150391 C150.64157111 314.01910561 141.96458653 324.29054364 132.375 334 C131.29605469 335.09550171 131.29605469 335.09550171 130.1953125 336.21313477 C126.15654934 340.20344385 122.39610312 343.08750189 117.4375 345.8125 C114.81069986 347.60223181 113.3019143 348.81290753 112.50537109 351.94482422 C111.77241126 357.99727585 112.3403699 363.96548398 113 370 C113.12181641 371.23967529 113.12181641 371.23967529 113.24609375 372.50439453 C115.08214926 390.12699659 119.72428807 407.46510644 126 424 C163.11992747 393.84005893 181.92845158 338.19058489 188.45727539 292.51147461 C189 290 189 290 191 287 C193.46875 286.078125 193.46875 286.078125 196.5 285.25 C205.09887156 282.53836544 214.52681791 277.22714666 219 269 C219.66639414 265.97042666 219.47461925 264.16412833 219 261 C217.54310348 259.27640733 217.54310348 259.27640733 216 258 Z M12 253 C11.50113281 254.10472656 11.00226563 255.20945312 10.48828125 256.34765625 C-0.76934497 280.88954912 -14.56194563 304.83253732 -30 327 C-30.37302246 327.53753906 -30.74604492 328.07507813 -31.13037109 328.62890625 C-46.02829194 350.02829194 -46.02829194 350.02829194 -52 356 C-52.09304018 357.47354348 -52.11746265 358.95150591 -52.11352539 360.42797852 C-52.11344986 361.36887833 -52.11337433 362.30977814 -52.11329651 363.27919006 C-52.10813522 364.30209641 -52.10297394 365.32500275 -52.09765625 366.37890625 C-52.0962413 367.42070541 -52.09482635 368.46250458 -52.09336853 369.53587341 C-52.0877508 372.87811094 -52.0751953 376.22028257 -52.0625 379.5625 C-52.05748728 381.82226466 -52.05292398 384.08203037 -52.04882812 386.34179688 C-52.03777561 391.89455391 -52.02102024 397.44727225 -52 403 C-50.78546143 403.07782715 -50.78546143 403.07782715 -49.54638672 403.15722656 C-48.47662598 403.23424805 -47.40686523 403.31126953 -46.3046875 403.390625 C-45.24749512 403.46313477 -44.19030273 403.53564453 -43.10107422 403.61035156 C-40.17234641 403.97834476 -37.84608773 404.6415103 -35.125 405.75 C-31.61647145 407.09423787 -31.61647145 407.09423787 -28 405.6875 C-27.01 405.130625 -26.02 404.57375 -25 404 C-19.35255971 403.17129952 -14.80617956 403.75862309 -10 407 C-4.54010857 411.83590383 -4.97294974 416.10820105 -3 424 C7.56 424 18.12 424 29 424 C29.12315971 381.71516551 29.22062708 340.03348529 24 298 C22.10438978 300.44663232 20.44772077 302.84932284 19.01171875 305.58984375 C5.86161602 330.21039634 -10.72885343 352.70788906 -28.52636719 374.15039062 C-30.64798845 376.81331354 -32.59478936 379.59812988 -34.53222656 382.3972168 C-36 384 -36 384 -39.75 385.125 C-43 385 -43 385 -45 383 C-44.89967704 377.05944777 -42.81922439 373.95958816 -38.875 369.8125 C-30.94376083 361.01785706 -23.97888334 351.55712988 -17 342 C-16.17918945 340.87924072 -16.17918945 340.87924072 -15.34179688 339.73583984 C8.14668181 310.13240855 8.14668181 310.13240855 19.8984375 276.6328125 C19.72570312 275.80523437 19.55296875 274.97765625 19.375 274.125 C19.08109375 272.71154297 19.08109375 272.71154297 18.78125 271.26953125 C17.31758082 265.14407574 15.6867459 259.0673724 14 253 C13.34 253 12.68 253 12 253 Z M-124.9375 317.4375 C-130.753264 322.91578906 -136.76153795 328.00515293 -143 333 C-145.00780863 334.65760945 -147.00424737 336.32788293 -149 338 C-147.61946345 341.19119001 -146.10060526 343.03343562 -143.4375 345.25 C-142.37015625 346.15685547 -142.37015625 346.15685547 -141.28125 347.08203125 C-140.5284375 347.71496094 -139.775625 348.34789062 -139 349 C-133.16608081 353.98480424 -127.91178168 359.10351746 -123 365 C-121.02099493 367.3542566 -119.02554521 369.68509118 -117 372 C-116.67 372 -116.34 372 -116 372 C-115.97483089 366.50887364 -115.95692424 361.0177826 -115.94506836 355.52661133 C-115.94011345 353.6678814 -115.93334763 351.80915521 -115.92456055 349.95043945 C-115.86618854 337.26311115 -116.19203303 324.66240002 -117 312 C-120.45453601 312 -122.55154109 315.15036982 -124.9375 317.4375 Z M-197 368 C-201.92616296 373.1554707 -206.45620479 378.26314353 -209 385 C-208.39341553 385.17950195 -207.78683105 385.35900391 -207.16186523 385.54394531 C-185.57323255 392.04705777 -165.79598619 401.03085517 -148 415 C-146.53433594 416.13501953 -146.53433594 416.13501953 -145.0390625 417.29296875 C-142.66129978 419.16315748 -140.30409068 421.03993858 -138 423 C-137.41605469 423.42410156 -136.83210938 423.84820312 -136.23046875 424.28515625 C-134.11538578 427.23284332 -134.46236229 429.51488748 -135 433 C-137.51953125 435.2578125 -137.51953125 435.2578125 -140.8125 437.125 C-145.95584479 440.08687836 -148.78443116 442.35329347 -150.6875 448.0625 C-151.10615496 450.33107078 -151.10615496 450.33107078 -151 454 C-148.44454669 457.352396 -146.96948226 458.82961325 -142.77026367 459.56762695 C-141.58150635 459.54144287 -140.39274902 459.51525879 -139.16796875 459.48828125 C-137.87568359 459.47216797 -136.58339844 459.45605469 -135.25195312 459.43945312 C-133.89711843 459.39768274 -132.54230072 459.35535809 -131.1875 459.3125 C-129.81319134 459.28740069 -128.43883884 459.26459036 -127.06445312 459.24414062 C-123.70852024 459.18526461 -120.3548191 459.1030642 -117 459 C-116.15189602 455.29063693 -115.84449452 451.80903304 -115.77539062 448.00732422 C-115.75287231 446.82194061 -115.730354 445.63655701 -115.70715332 444.41525269 C-115.63573192 438.9985734 -115.57848192 433.58204981 -115.54003906 428.16503906 C-115.51781413 425.31513822 -115.47611012 422.46655738 -115.41699219 419.6171875 C-115.34534106 416.15530083 -115.30912786 412.69464941 -115.29692078 409.23205948 C-115.28165692 407.29385855 -115.23193464 405.35602538 -115.18127441 403.41842651 C-115.20143385 394.42318219 -117.44865483 389.02828274 -123 382 C-123.82612038 380.93887245 -123.82612038 380.93887245 -124.66893005 379.85630798 C-126.10295416 378.06069014 -127.59498356 376.33936158 -129.125 374.625 C-129.67776611 373.99779053 -130.23053223 373.37058105 -130.80004883 372.72436523 C-143.7431986 358.06488471 -143.7431986 358.06488471 -159 346 C-172.85046112 346 -187.52850539 358.83007075 -197 368 Z M-52 414 C-52.33 428.85 -52.66 443.7 -53 459 C-47.72 459 -42.44 459 -37 459 C-36.950533 453.51905634 -36.9142486 448.03824287 -36.89013672 442.55712891 C-36.88008407 440.69284806 -36.86643995 438.82858297 -36.84912109 436.96435547 C-36.82484047 434.28348909 -36.81350953 431.60283134 -36.8046875 428.921875 C-36.79436493 428.08944275 -36.78404236 427.2570105 -36.77340698 426.39935303 C-36.64615751 420.85451108 -36.64615751 420.85451108 -39 416 C-43.59628479 413.32917961 -43.59628479 413.32917961 -52 414 Z M-25 416 C-26.71802382 419.43604765 -26.1196618 423.38438896 -26.09765625 427.1640625 C-26.0962413 428.07127045 -26.09482635 428.97847839 -26.09336853 429.91317749 C-26.08776096 432.81715155 -26.07520718 435.72104915 -26.0625 438.625 C-26.05748598 440.59114472 -26.0529229 442.55729065 -26.04882812 444.5234375 C-26.03778906 449.3489879 -26.02051935 454.17448097 -26 459 C-22.37 459 -18.74 459 -15 459 C-14.90108923 453.23426315 -14.82851155 447.4690206 -14.78027344 441.70263672 C-14.76016368 439.74128619 -14.73287182 437.77999556 -14.69824219 435.81884766 C-14.64969579 432.99887305 -14.62702514 430.17969135 -14.609375 427.359375 C-14.58872986 426.48319519 -14.56808472 425.60701538 -14.54681396 424.70428467 C-14.5187615 419.70901479 -14.5187615 419.70901479 -16.89941406 415.41503906 C-20.18293785 413.20312555 -21.747897 414.11168213 -25 416 Z M-3 435 C-3 442.92 -3 450.84 -3 459 C7.56 459 18.12 459 29 459 C29 451.08 29 443.16 29 435 C18.44 435 7.88 435 -3 435 Z " fill="#000000" transform="translate(254,25)"/>
<path d="M0 0 C6.22712343 8.60026498 6.45186402 19.59825191 5.28125 29.76953125 C3.68377209 37.24536888 0.29741309 43.07648832 -4.71875 48.76953125 C-5.24339844 49.38699219 -5.76804687 50.00445312 -6.30859375 50.640625 C-13.4277384 58.42980679 -22.72632096 62.02973617 -33.08203125 62.98828125 C-45.20394092 63.45227779 -56.14290359 59.66258211 -65.1640625 51.578125 C-74.4276735 42.05464372 -78.06580249 31.15787698 -77.93359375 18.11328125 C-77.65648149 13.80040687 -77.16966266 9.42498802 -74.71875 5.76953125 C-71.76620125 4.01121478 -70.36859154 3.61547399 -67 4.4140625 C-66.0821875 4.79949219 -65.164375 5.18492187 -64.21875 5.58203125 C-52.39998139 10.44565373 -42.34307662 9.32203885 -30.703125 4.52734375 C-29.16398437 3.87378906 -29.16398437 3.87378906 -27.59375 3.20703125 C-20.31304483 0.13172067 -7.25758972 -5.19577446 0 0 Z M-29.68969727 16.29321289 C-36.09395143 19.04165351 -41.46862896 19.940628 -48.46875 19.89453125 C-49.17451172 19.89259766 -49.88027344 19.89066406 -50.60742188 19.88867188 C-55.71792476 19.84643631 -60.66392343 19.49164933 -65.71875 18.76953125 C-67.43425761 24.35432246 -65.91269651 29.16633639 -63.52734375 34.3671875 C-58.88409003 42.7554088 -52.80318399 47.63127224 -43.71875 50.76953125 C-35.94084745 52.71400689 -28.06626508 51.22962419 -20.96875 47.64453125 C-13.43001465 43.0053095 -9.07953936 36.95919491 -6.37109375 28.578125 C-4.84387072 22.00283542 -5.08132741 16.0334099 -7.71875 9.76953125 C-15.51189762 9.76953125 -22.68378169 13.26119248 -29.68969727 16.29321289 Z " fill="#000000" transform="translate(466.71875,211.23046875)"/>
<path d="M0 0 C1.9375 1.0625 1.9375 1.0625 3 3 C2.9375 6.5625 2.9375 6.5625 2 10 C0.25 11.5 0.25 11.5 -2 12 C-5.34977063 11.68097423 -6.59179639 11.40820361 -9 9 C-9.33015665 5.89652746 -9.50531294 3.84218824 -7.875 1.125 C-5.11909116 -0.52854531 -3.14924548 -0.39365568 0 0 Z " fill="#000000" transform="translate(427,195)"/>
<path d="M0 0 C0.94552734 0.16242188 0.94552734 0.16242188 1.91015625 0.328125 C3.91015625 3.328125 3.91015625 3.328125 3.59765625 6.953125 C2.91015625 10.328125 2.91015625 10.328125 1.91015625 11.328125 C-3.93090335 11.69898593 -3.93090335 11.69898593 -6.08984375 11.328125 C-8.08984375 8.328125 -8.08984375 8.328125 -7.77734375 4.703125 C-6.67536757 -0.70657624 -5.2523859 0.19064922 0 0 Z " fill="#000000" transform="translate(448.08984375,233.671875)"/>
<path d="M0 0 C0.94552734 0.16242188 0.94552734 0.16242188 1.91015625 0.328125 C3.91015625 3.328125 3.91015625 3.328125 3.66015625 6.953125 C3.41265625 8.066875 3.16515625 9.180625 2.91015625 10.328125 C0.11145598 11.72747513 -1.99483167 11.58077905 -5.08984375 11.328125 C-7.02734375 10.265625 -7.02734375 10.265625 -8.08984375 8.328125 C-7.58273328 0.97502324 -7.28976192 0.26460116 0 0 Z " fill="#000000" transform="translate(425.08984375,240.671875)"/>
</svg>
