<?xml version="1.0" encoding="UTF-8"?>
<!DOCTYPE svg PUBLIC "-//W3C//DTD SVG 1.1//EN" "http://www.w3.org/Graphics/SVG/1.1/DTD/svg11.dtd">
<svg xmlns="http://www.w3.org/2000/svg" version="1.1" width="512px" height="512px" style="shape-rendering:geometricPrecision; text-rendering:geometricPrecision; image-rendering:optimizeQuality; fill-rule:evenodd; clip-rule:evenodd" xmlns:xlink="http://www.w3.org/1999/xlink">
<g><path style="opacity:1" fill="#3e3d50" d="M 228.5,17.5 C 213.721,55.5003 199.721,93.8336 186.5,132.5C 178.598,132.453 170.932,131.119 163.5,128.5C 176.097,91.7109 189.097,55.0443 202.5,18.5C 211.063,16.3656 219.73,16.0323 228.5,17.5 Z"/></g>
<g><path style="opacity:1" fill="#37374b" d="M 202.5,18.5 C 189.097,55.0443 176.097,91.7109 163.5,128.5C 159.897,127.877 157.23,126.044 155.5,123C 157.978,111.885 161.978,101.385 167.5,91.5C 160.131,88.098 152.798,84.598 145.5,81C 150.446,73.719 156.446,67.3857 163.5,62C 151.192,56.3588 142.192,47.3588 136.5,35C 143.84,35.3353 151.173,34.6687 158.5,33C 173.302,28.4247 187.969,23.5914 202.5,18.5 Z"/></g>
<g><path style="opacity:1" fill="#444456" d="M 228.5,17.5 C 236.341,18.2655 243.341,20.9322 249.5,25.5C 244.835,38.4951 240.168,51.4951 235.5,64.5C 221.982,70.8644 214.982,81.5311 214.5,96.5C 214.792,101.509 215.126,106.509 215.5,111.5C 215.808,113.924 215.474,116.257 214.5,118.5C 205.519,113.141 198.685,115.141 194,124.5C 193.398,127.221 193.565,129.887 194.5,132.5C 191.833,132.5 189.167,132.5 186.5,132.5C 199.721,93.8336 213.721,55.5003 228.5,17.5 Z"/></g>
<g><path style="opacity:1" fill="#4c4c5e" d="M 285.5,72.5 C 275.358,62.0917 263.024,58.2584 248.5,61C 244.011,61.705 239.678,62.8717 235.5,64.5C 240.168,51.4951 244.835,38.4951 249.5,25.5C 251.679,25.84 253.512,26.84 255,28.5C 256.858,25.4284 258.024,22.095 258.5,18.5C 266.368,19.8671 272.535,23.8671 277,30.5C 283.806,43.6608 286.639,57.6608 285.5,72.5 Z"/></g>
<g><path style="opacity:1" fill="#e6ccc6" d="M 285.5,72.5 C 285.5,79.8333 285.5,87.1667 285.5,94.5C 280.209,98.0751 277.209,103.075 276.5,109.5C 272.833,109.5 269.167,109.5 265.5,109.5C 263.311,97.8232 256.311,92.9899 244.5,95C 236.874,98.7446 233.207,104.911 233.5,113.5C 233.5,114.833 233.5,116.167 233.5,117.5C 232.539,115.735 232.205,113.735 232.5,111.5C 226.833,111.5 221.167,111.5 215.5,111.5C 215.126,106.509 214.792,101.509 214.5,96.5C 214.982,81.5311 221.982,70.8644 235.5,64.5C 239.678,62.8717 244.011,61.705 248.5,61C 263.024,58.2584 275.358,62.0917 285.5,72.5 Z"/></g>
<g><path style="opacity:1" fill="#c1cee7" d="M 446.5,124.5 C 438.167,123.167 429.833,123.167 421.5,124.5C 409.817,123.137 405.65,116.803 409,105.5C 410.167,103 412,101.167 414.5,100C 427.5,98 440.5,98 453.5,100C 462.833,107.667 462.833,115.333 453.5,123C 451.26,123.977 448.927,124.477 446.5,124.5 Z"/></g>
<g><path style="opacity:1" fill="#e0e3e6" d="M 300.5,113.5 C 278.178,114.351 255.845,114.351 233.5,113.5C 233.207,104.911 236.874,98.7446 244.5,95C 256.311,92.9899 263.311,97.8232 265.5,109.5C 269.167,109.5 272.833,109.5 276.5,109.5C 277.209,103.075 280.209,98.0751 285.5,94.5C 292.229,93.0105 296.729,95.6771 299,102.5C 300.108,106.086 300.608,109.753 300.5,113.5 Z"/></g>
<g><path style="opacity:1" fill="#cbd4e6" d="M 233.5,113.5 C 255.845,114.351 278.178,114.351 300.5,113.5C 301.228,121.503 298.561,128.003 292.5,133C 290.19,133.497 287.857,133.663 285.5,133.5C 280.369,130.087 277.369,125.253 276.5,119C 272.848,118.501 269.182,118.335 265.5,118.5C 262.391,130.778 254.724,135.278 242.5,132C 239.954,130.289 237.954,128.123 236.5,125.5C 234.394,123.281 233.394,120.615 233.5,117.5C 233.5,116.167 233.5,114.833 233.5,113.5 Z"/></g>
<g><path style="opacity:1" fill="#d4736e" d="M 285.5,133.5 C 285.5,135.167 285.5,136.833 285.5,138.5C 279.591,137.092 275.757,133.426 274,127.5C 269.709,125.435 267.043,126.768 266,131.5C 260.409,137.474 253.575,139.641 245.5,138C 240.663,135.504 237.33,131.671 235.5,126.5C 235.624,125.893 235.957,125.56 236.5,125.5C 237.954,128.123 239.954,130.289 242.5,132C 254.724,135.278 262.391,130.778 265.5,118.5C 269.182,118.335 272.848,118.501 276.5,119C 277.369,125.253 280.369,130.087 285.5,133.5 Z"/></g>
<g><path style="opacity:1" fill="#7f91aa" d="M 446.5,124.5 C 446.5,128.833 446.5,133.167 446.5,137.5C 438.167,137.5 429.833,137.5 421.5,137.5C 421.5,133.167 421.5,128.833 421.5,124.5C 429.833,123.167 438.167,123.167 446.5,124.5 Z"/></g>
<g><path style="opacity:1" fill="#e6b7b0" d="M 215.5,111.5 C 221.167,111.5 226.833,111.5 232.5,111.5C 232.205,113.735 232.539,115.735 233.5,117.5C 233.394,120.615 234.394,123.281 236.5,125.5C 235.957,125.56 235.624,125.893 235.5,126.5C 237.33,131.671 240.663,135.504 245.5,138C 253.575,139.641 260.409,137.474 266,131.5C 267.043,126.768 269.709,125.435 274,127.5C 275.757,133.426 279.591,137.092 285.5,138.5C 285.5,140.833 285.5,143.167 285.5,145.5C 257.39,143.607 229.056,142.607 200.5,142.5C 196.977,140.127 194.977,136.793 194.5,132.5C 193.565,129.887 193.398,127.221 194,124.5C 198.685,115.141 205.519,113.141 214.5,118.5C 215.474,116.257 215.808,113.924 215.5,111.5 Z"/></g>
<g><path style="opacity:1" fill="#d4706a" d="M 249.5,182.5 C 235.781,184.245 222.114,186.245 208.5,188.5C 208.5,174.167 208.5,159.833 208.5,145.5C 212.198,145.448 215.865,145.114 219.5,144.5C 220.047,152.426 223.38,158.926 229.5,164C 236.301,168.484 243.468,172.318 251,175.5C 251.815,178.198 251.315,180.532 249.5,182.5 Z"/></g>
<g><path style="opacity:1" fill="#e6ada3" d="M 200.5,142.5 C 229.056,142.607 257.39,143.607 285.5,145.5C 285.666,151.509 285.499,157.509 285,163.5C 279.541,179.469 269.041,183.802 253.5,176.5C 252.534,178.396 252.201,180.396 252.5,182.5C 251.5,182.5 250.5,182.5 249.5,182.5C 251.315,180.532 251.815,178.198 251,175.5C 243.468,172.318 236.301,168.484 229.5,164C 223.38,158.926 220.047,152.426 219.5,144.5C 215.865,145.114 212.198,145.448 208.5,145.5C 208.5,159.833 208.5,174.167 208.5,188.5C 208.167,188.5 207.833,188.5 207.5,188.5C 207.5,174.167 207.5,159.833 207.5,145.5C 204.509,145.834 202.176,144.834 200.5,142.5 Z"/></g>
<g><path style="opacity:1" fill="#cbd3e6" d="M 421.5,137.5 C 429.833,137.5 438.167,137.5 446.5,137.5C 446.334,146.839 446.5,156.173 447,165.5C 448.104,168.721 449.937,171.388 452.5,173.5C 427.154,169.124 406.321,177.124 390,197.5C 373.798,225.749 376.965,251.582 399.5,275C 415.72,288.137 434.054,292.304 454.5,287.5C 443.207,291.666 431.54,292.499 419.5,290C 414.835,288.389 410.168,286.889 405.5,285.5C 381.146,270.788 370.646,249.121 374,220.5C 379.139,197.048 392.972,181.215 415.5,173C 417,171.5 418.5,170 420,168.5C 421.426,158.246 421.926,147.912 421.5,137.5 Z"/></g>
<g><path style="opacity:1" fill="#ced9e6" d="M 452.5,173.5 C 479.529,183.029 493.529,202.196 494.5,231C 494.225,247.7 488.559,262.2 477.5,274.5C 473.675,277.477 469.675,280.311 465.5,283C 462.029,285.072 458.362,286.572 454.5,287.5C 434.054,292.304 415.72,288.137 399.5,275C 376.965,251.582 373.798,225.749 390,197.5C 406.321,177.124 427.154,169.124 452.5,173.5 Z"/></g>
<g><path style="opacity:1" fill="#d3d8e6" d="M 389.5,246.5 C 391.24,249.638 393.24,252.638 395.5,255.5C 407.289,271.83 423.289,278.33 443.5,275C 455.924,272.465 465.59,265.965 472.5,255.5C 476.152,251.192 478.486,246.192 479.5,240.5C 481.145,235.766 481.811,230.766 481.5,225.5C 482.319,215.431 477.986,209.097 468.5,206.5C 457.928,193.309 444.595,188.975 428.5,193.5C 425.509,193.166 423.176,194.166 421.5,196.5C 421.44,195.957 421.107,195.624 420.5,195.5C 410.517,200.81 403.85,208.81 400.5,219.5C 397.729,218.367 394.896,217.367 392,216.5C 390.744,216.648 389.577,216.982 388.5,217.5C 393.977,197.857 406.644,185.357 426.5,180C 454.669,176 474.836,186.834 487,212.5C 494.585,239.081 487.085,260.248 464.5,276C 438.943,288.309 416.443,284.142 397,263.5C 392.848,258.533 390.348,252.866 389.5,246.5 Z"/></g>
<g><path style="opacity:1" fill="#e6bbb3" d="M 249.5,182.5 C 250.5,182.5 251.5,182.5 252.5,182.5C 252.5,187.5 252.5,192.5 252.5,197.5C 251.506,206.652 251.173,215.985 251.5,225.5C 234.183,220.345 220.183,210.512 209.5,196C 208.906,195.536 208.239,195.369 207.5,195.5C 208.506,194.604 208.506,193.938 207.5,193.5C 207.5,191.833 207.5,190.167 207.5,188.5C 207.833,188.5 208.167,188.5 208.5,188.5C 222.114,186.245 235.781,184.245 249.5,182.5 Z"/></g>
<g><path style="opacity:1" fill="#e6837c" d="M 207.5,193.5 C 208.506,193.938 208.506,194.604 207.5,195.5C 204.167,196.833 201.833,199.167 200.5,202.5C 198.526,204.428 197.026,206.761 196,209.5C 194.897,212.98 193.731,216.313 192.5,219.5C 171.845,218.265 151.178,217.265 130.5,216.5C 130.737,217.791 130.404,218.791 129.5,219.5C 128.635,209.446 127.302,199.446 125.5,189.5C 125.289,186.876 126.456,185.21 129,184.5C 140.162,188.4 151.662,190.9 163.5,192C 178.137,193.277 192.804,193.777 207.5,193.5 Z"/></g>
<g><path style="opacity:1" fill="#dbe0e6" d="M 468.5,206.5 C 465.09,206.457 461.757,206.957 458.5,208C 448.278,212.277 437.944,216.277 427.5,220C 418.405,222.156 409.405,221.99 400.5,219.5C 403.85,208.81 410.517,200.81 420.5,195.5C 421.107,195.624 421.44,195.957 421.5,196.5C 421.157,202.326 423.824,204.826 429.5,204C 433.676,200.053 433.343,196.553 428.5,193.5C 444.595,188.975 457.928,193.309 468.5,206.5 Z"/></g>
<g><path style="opacity:1" fill="#c14273" d="M 428.5,193.5 C 433.343,196.553 433.676,200.053 429.5,204C 423.824,204.826 421.157,202.326 421.5,196.5C 423.176,194.166 425.509,193.166 428.5,193.5 Z"/></g>
<g><path style="opacity:1" fill="#c1a896" d="M 200.5,202.5 C 200.008,221.9 200.675,241.233 202.5,260.5C 206.299,293.26 209.632,325.927 212.5,358.5C 206.73,366.387 200.73,374.054 194.5,381.5C 194.5,378.167 194.5,374.833 194.5,371.5C 193.927,344.496 193.26,317.496 192.5,290.5C 190.21,266.811 190.21,243.144 192.5,219.5C 193.731,216.313 194.897,212.98 196,209.5C 197.026,206.761 198.526,204.428 200.5,202.5 Z"/></g>
<g><path style="opacity:1" fill="#e08074" d="M 321.5,260.5 C 320.833,266.833 320.167,273.167 319.5,279.5C 319.5,276.5 319.5,273.5 319.5,270.5C 306.013,269.774 292.513,269.107 279,268.5C 276.31,268.503 273.81,268.836 271.5,269.5C 270.167,266.5 268.833,263.5 267.5,260.5C 263.694,248.058 258.361,236.392 251.5,225.5C 251.173,215.985 251.506,206.652 252.5,197.5C 260.477,198.49 268.477,198.657 276.5,198C 294.291,196.2 311.958,193.866 329.5,191C 330.108,192.231 330.441,193.564 330.5,195C 325.984,216.627 322.984,238.46 321.5,260.5 Z"/></g>
<g><path style="opacity:1" fill="#dd5a91" d="M 468.5,206.5 C 477.986,209.097 482.319,215.431 481.5,225.5C 450.167,225.5 418.833,225.5 387.5,225.5C 387.737,226.791 387.404,227.791 386.5,228.5C 386.111,224.586 386.778,220.92 388.5,217.5C 389.577,216.982 390.744,216.648 392,216.5C 394.896,217.367 397.729,218.367 400.5,219.5C 409.405,221.99 418.405,222.156 427.5,220C 437.944,216.277 448.278,212.277 458.5,208C 461.757,206.957 465.09,206.457 468.5,206.5 Z"/></g>
<g><path style="opacity:1" fill="#d35186" d="M 481.5,225.5 C 481.811,230.766 481.145,235.766 479.5,240.5C 471.932,239.188 464.265,239.188 456.5,240.5C 458.7,235.616 457.2,232.616 452,231.5C 447.637,232.371 445.803,235.038 446.5,239.5C 439.313,239.175 432.313,239.509 425.5,240.5C 423.833,240.5 422.167,240.5 420.5,240.5C 409.833,239.167 399.167,239.167 388.5,240.5C 387.011,236.764 386.344,232.764 386.5,228.5C 387.404,227.791 387.737,226.791 387.5,225.5C 418.833,225.5 450.167,225.5 481.5,225.5 Z"/></g>
<g><path style="opacity:1" fill="#c1a896" d="M 131.5,230.5 C 134.076,249.444 136.076,268.444 137.5,287.5C 138.166,300.489 138.5,313.489 138.5,326.5C 122.846,339.489 107.512,352.823 92.5,366.5C 75.8545,370.155 61.5211,377.988 49.5,390C 46.2818,394.382 42.6151,398.216 38.5,401.5C 32.6948,399.367 27.3615,396.367 22.5,392.5C 22.9371,390.926 23.9371,389.759 25.5,389C 51.6172,375.382 73.6172,356.882 91.5,333.5C 112.836,305.269 123.169,273.269 122.5,237.5C 125.19,234.815 128.19,232.482 131.5,230.5 Z"/></g>
<g><path style="opacity:1" fill="#e6e3e4" d="M 456.5,240.5 C 452.842,243.301 449.508,242.968 446.5,239.5C 445.803,235.038 447.637,232.371 452,231.5C 457.2,232.616 458.7,235.616 456.5,240.5 Z"/></g>
<g><path style="opacity:1" fill="#e6e0d5" d="M 207.5,195.5 C 208.239,195.369 208.906,195.536 209.5,196C 220.183,210.512 234.183,220.345 251.5,225.5C 258.361,236.392 263.694,248.058 267.5,260.5C 266.89,261.391 266.557,262.391 266.5,263.5C 245.161,262.547 223.828,261.547 202.5,260.5C 200.675,241.233 200.008,221.9 200.5,202.5C 201.833,199.167 204.167,196.833 207.5,195.5 Z"/></g>
<g><path style="opacity:1" fill="#c54679" d="M 420.5,240.5 C 416.13,245.355 416.964,249.021 423,251.5C 428.023,250.458 429.69,247.458 428,242.5C 427.292,241.619 426.458,240.953 425.5,240.5C 432.313,239.509 439.313,239.175 446.5,239.5C 449.508,242.968 452.842,243.301 456.5,240.5C 464.265,239.188 471.932,239.188 479.5,240.5C 478.486,246.192 476.152,251.192 472.5,255.5C 446.833,255.5 421.167,255.5 395.5,255.5C 393.24,252.638 391.24,249.638 389.5,246.5C 388.85,244.565 388.517,242.565 388.5,240.5C 399.167,239.167 409.833,239.167 420.5,240.5 Z"/></g>
<g><path style="opacity:1" fill="#e6e0e2" d="M 420.5,240.5 C 422.167,240.5 423.833,240.5 425.5,240.5C 426.458,240.953 427.292,241.619 428,242.5C 429.69,247.458 428.023,250.458 423,251.5C 416.964,249.021 416.13,245.355 420.5,240.5 Z"/></g>
<g><path style="opacity:1" fill="#df7e72" d="M 192.5,219.5 C 190.21,243.144 190.21,266.811 192.5,290.5C 190.616,289.325 188.449,288.658 186,288.5C 171.33,287.539 156.663,286.539 142,285.5C 140.014,285.569 138.514,286.235 137.5,287.5C 136.076,268.444 134.076,249.444 131.5,230.5C 130.913,226.794 130.246,223.127 129.5,219.5C 130.404,218.791 130.737,217.791 130.5,216.5C 151.178,217.265 171.845,218.265 192.5,219.5 Z"/></g>
<g><path style="opacity:1" fill="#b73c6d" d="M 395.5,255.5 C 421.167,255.5 446.833,255.5 472.5,255.5C 465.59,265.965 455.924,272.465 443.5,275C 423.289,278.33 407.289,271.83 395.5,255.5 Z"/></g>
<g><path style="opacity:1" fill="#e5d7d0" d="M 202.5,260.5 C 223.828,261.547 245.161,262.547 266.5,263.5C 255.296,288.914 242.296,313.247 227.5,336.5C 222.5,343.833 217.5,351.167 212.5,358.5C 209.632,325.927 206.299,293.26 202.5,260.5 Z"/></g>
<g><path style="opacity:1" fill="#d47368" d="M 319.5,279.5 C 318.67,299.155 318.337,318.821 318.5,338.5C 307.516,337.751 296.516,337.417 285.5,337.5C 284.617,332.868 283.95,328.202 283.5,323.5C 283.011,317.196 281.678,311.196 279.5,305.5C 277.775,293.27 275.109,281.27 271.5,269.5C 273.81,268.836 276.31,268.503 279,268.5C 292.513,269.107 306.013,269.774 319.5,270.5C 319.5,273.5 319.5,276.5 319.5,279.5 Z"/></g>
<g><path style="opacity:1" fill="#a24345" d="M 477.5,274.5 C 487.344,288.669 485.011,300.503 470.5,310C 466.856,312.656 462.856,314.489 458.5,315.5C 439.746,308.616 421.412,300.95 403.5,292.5C 404.566,290.299 405.233,287.965 405.5,285.5C 410.168,286.889 414.835,288.389 419.5,290C 431.54,292.499 443.207,291.666 454.5,287.5C 458.362,286.572 462.029,285.072 465.5,283C 469.675,280.311 473.675,277.477 477.5,274.5 Z"/></g>
<g><path style="opacity:1" fill="#e4d7ce" d="M 122.5,237.5 C 123.169,273.269 112.836,305.269 91.5,333.5C 79.5,324.5 67.5,315.5 55.5,306.5C 74.7566,280.576 97.0899,257.576 122.5,237.5 Z"/></g>
<g><path style="opacity:1" fill="#4d4d5f" d="M 267.5,260.5 C 268.833,263.5 270.167,266.5 271.5,269.5C 275.109,281.27 277.775,293.27 279.5,305.5C 272.275,322.961 263.275,339.295 252.5,354.5C 251.525,352.807 250.192,351.307 248.5,350C 241.783,344.98 234.783,340.48 227.5,336.5C 242.296,313.247 255.296,288.914 266.5,263.5C 266.557,262.391 266.89,261.391 267.5,260.5 Z"/></g>
<g><path style="opacity:1" fill="#c0a795" d="M 279.5,305.5 C 281.678,311.196 283.011,317.196 283.5,323.5C 267.433,357.984 247.099,389.65 222.5,418.5C 220.567,420.937 218.4,423.271 216,425.5C 215.501,429.821 215.334,434.154 215.5,438.5C 213.883,437.962 212.216,437.629 210.5,437.5C 205.36,436.512 200.026,436.179 194.5,436.5C 194.5,433.5 194.5,430.5 194.5,427.5C 216.086,404.919 235.419,380.586 252.5,354.5C 263.275,339.295 272.275,322.961 279.5,305.5 Z"/></g>
<g><path style="opacity:1" fill="#dec5bd" d="M 321.5,260.5 C 333.15,288.117 343.817,316.117 353.5,344.5C 353.719,345.675 353.386,346.675 352.5,347.5C 341.833,352.5 331.167,357.5 320.5,362.5C 319.702,362.957 319.369,363.624 319.5,364.5C 318.507,356.016 318.174,347.349 318.5,338.5C 318.337,318.821 318.67,299.155 319.5,279.5C 320.167,273.167 320.833,266.833 321.5,260.5 Z"/></g>
<g><path style="opacity:1" fill="#dfc8c0" d="M 55.5,306.5 C 67.5,315.5 79.5,324.5 91.5,333.5C 73.6172,356.882 51.6172,375.382 25.5,389C 23.9371,389.759 22.9371,390.926 22.5,392.5C 19.7055,390.181 17.8722,387.181 17,383.5C 16.1743,378.411 16.5076,373.411 18,368.5C 27.7484,345.973 40.2484,325.307 55.5,306.5 Z"/></g>
<g><path style="opacity:1" fill="#ad4d4f" d="M 403.5,292.5 C 421.412,300.95 439.746,308.616 458.5,315.5C 456.461,316.578 454.294,317.578 452,318.5C 450.435,330.17 447.935,341.503 444.5,352.5C 430.511,347.173 416.511,341.84 402.5,336.5C 406.705,329.926 411.038,323.426 415.5,317C 410.91,312.408 407.077,307.241 404,301.5C 403.502,298.518 403.335,295.518 403.5,292.5 Z"/></g>
<g><path style="opacity:1" fill="#d27267" d="M 192.5,290.5 C 193.26,317.496 193.927,344.496 194.5,371.5C 193.515,367.366 193.182,363.032 193.5,358.5C 175.547,356.92 157.547,355.92 139.5,355.5C 139.532,345.817 139.199,336.151 138.5,326.5C 138.5,313.489 138.166,300.489 137.5,287.5C 138.514,286.235 140.014,285.569 142,285.5C 156.663,286.539 171.33,287.539 186,288.5C 188.449,288.658 190.616,289.325 192.5,290.5 Z"/></g>
<g><path style="opacity:1" fill="#ba565a" d="M 402.5,336.5 C 416.511,341.84 430.511,347.173 444.5,352.5C 441.06,367.16 436.06,381.16 429.5,394.5C 409.313,386.105 388.98,378.105 368.5,370.5C 380.833,360.167 392.167,348.833 402.5,336.5 Z"/></g>
<g><path style="opacity:1" fill="#404053" d="M 227.5,336.5 C 234.783,340.48 241.783,344.98 248.5,350C 250.192,351.307 251.525,352.807 252.5,354.5C 235.419,380.586 216.086,404.919 194.5,427.5C 194.5,412.167 194.5,396.833 194.5,381.5C 200.73,374.054 206.73,366.387 212.5,358.5C 217.5,351.167 222.5,343.833 227.5,336.5 Z"/></g>
<g><path style="opacity:1" fill="#c86267" d="M 92.5,366.5 C 97.1518,369.821 101.485,373.487 105.5,377.5C 88.8637,392.469 72.8637,408.136 57.5,424.5C 49.1943,422.053 41.0276,419.387 33,416.5C 32.3333,414.5 32.3333,412.5 33,410.5C 34.8445,407.472 36.6778,404.472 38.5,401.5C 42.6151,398.216 46.2818,394.382 49.5,390C 61.5211,377.988 75.8545,370.155 92.5,366.5 Z"/></g>
<g><path style="opacity:1" fill="#c8665d" d="M 285.5,337.5 C 296.516,337.417 307.516,337.751 318.5,338.5C 318.174,347.349 318.507,356.016 319.5,364.5C 319.604,380.506 319.937,396.506 320.5,412.5C 309.852,411.723 299.185,411.39 288.5,411.5C 288.829,396.324 288.496,381.324 287.5,366.5C 287.21,356.804 286.543,347.137 285.5,337.5 Z"/></g>
<g><path style="opacity:1" fill="#dfc9c1" d="M 283.5,323.5 C 283.95,328.202 284.617,332.868 285.5,337.5C 286.543,347.137 287.21,356.804 287.5,366.5C 287.5,385.167 287.5,403.833 287.5,422.5C 267.525,421.429 247.525,420.596 227.5,420C 225.618,419.802 223.952,419.302 222.5,418.5C 247.099,389.65 267.433,357.984 283.5,323.5 Z"/></g>
<g><path style="opacity:1" fill="#e3d3cc" d="M 353.5,344.5 C 357.401,353.531 360.735,362.864 363.5,372.5C 362.476,396.043 365.476,419.043 372.5,441.5C 353.195,437.68 336.195,429.347 321.5,416.5C 321.167,415.167 320.833,413.833 320.5,412.5C 319.937,396.506 319.604,380.506 319.5,364.5C 319.369,363.624 319.702,362.957 320.5,362.5C 331.167,357.5 341.833,352.5 352.5,347.5C 353.386,346.675 353.719,345.675 353.5,344.5 Z"/></g>
<g><path style="opacity:1" fill="#ba565a" d="M 105.5,377.5 C 112.5,382.5 118.5,388.5 123.5,395.5C 109.187,408.812 94.8536,422.145 80.5,435.5C 72.9813,431.574 65.3146,427.908 57.5,424.5C 72.8637,408.136 88.8637,392.469 105.5,377.5 Z"/></g>
<g><path style="opacity:1" fill="#c8665d" d="M 139.5,355.5 C 157.547,355.92 175.547,356.92 193.5,358.5C 193.182,363.032 193.515,367.366 194.5,371.5C 194.5,374.833 194.5,378.167 194.5,381.5C 194.5,396.833 194.5,412.167 194.5,427.5C 194.5,430.5 194.5,433.5 194.5,436.5C 200.026,436.179 205.36,436.512 210.5,437.5C 205.167,437.5 199.833,437.5 194.5,437.5C 193.566,436.432 193.232,435.099 193.5,433.5C 176.188,432.188 158.855,431.188 141.5,430.5C 141.967,425.6 141.301,420.933 139.5,416.5C 140.709,396.326 140.709,375.992 139.5,355.5 Z"/></g>
<g><path style="opacity:1" fill="#c86267" d="M 368.5,370.5 C 388.98,378.105 409.313,386.105 429.5,394.5C 419.686,419.289 405.019,440.789 385.5,459C 382.653,459.944 380.153,459.444 378,457.5C 375.464,452.393 373.631,447.06 372.5,441.5C 365.476,419.043 362.476,396.043 363.5,372.5C 365.167,371.833 366.833,371.167 368.5,370.5 Z"/></g>
<g><path style="opacity:1" fill="#aa4a4c" d="M 123.5,395.5 C 129.471,401.443 134.471,408.109 138.5,415.5C 138.631,416.239 138.464,416.906 138,417.5C 126.605,429.063 115.105,440.396 103.5,451.5C 95.8101,446.134 88.1435,440.801 80.5,435.5C 94.8536,422.145 109.187,408.812 123.5,395.5 Z"/></g>
<g><path style="opacity:1" fill="#d9c0b9" d="M 287.5,366.5 C 288.496,381.324 288.829,396.324 288.5,411.5C 288.5,426.833 288.5,442.167 288.5,457.5C 273.833,457.5 259.167,457.5 244.5,457.5C 244.666,453.486 244.499,449.486 244,445.5C 240.88,438.026 235.38,435.526 227.5,438C 224.255,439.981 222.089,442.814 221,446.5C 219.727,443.403 217.893,440.736 215.5,438.5C 215.334,434.154 215.501,429.821 216,425.5C 218.4,423.271 220.567,420.937 222.5,418.5C 223.952,419.302 225.618,419.802 227.5,420C 247.525,420.596 267.525,421.429 287.5,422.5C 287.5,403.833 287.5,385.167 287.5,366.5 Z"/></g>
<g><path style="opacity:1" fill="#ba5750" d="M 288.5,411.5 C 299.185,411.39 309.852,411.723 320.5,412.5C 320.833,413.833 321.167,415.167 321.5,416.5C 322.337,442.567 324.004,468.567 326.5,494.5C 313.833,494.5 301.167,494.5 288.5,494.5C 288.5,482.167 288.5,469.833 288.5,457.5C 288.5,442.167 288.5,426.833 288.5,411.5 Z"/></g>
<g><path style="opacity:1" fill="#d45387" d="M 194.5,437.5 C 199.833,437.5 205.167,437.5 210.5,437.5C 212.216,437.629 213.883,437.962 215.5,438.5C 217.893,440.736 219.727,443.403 221,446.5C 222.089,442.814 224.255,439.981 227.5,438C 235.38,435.526 240.88,438.026 244,445.5C 244.499,449.486 244.666,453.486 244.5,457.5C 244.167,457.5 243.833,457.5 243.5,457.5C 243.5,455.5 243.5,453.5 243.5,451.5C 236.167,451.5 228.833,451.5 221.5,451.5C 221.167,470.167 220.833,470.167 220.5,451.5C 211.833,451.5 203.167,451.5 194.5,451.5C 194.5,446.833 194.5,442.167 194.5,437.5 Z"/></g>
<g><path style="opacity:1" fill="#973a3b" d="M 138.5,415.5 C 139.167,415.5 139.5,415.833 139.5,416.5C 141.301,420.933 141.967,425.6 141.5,430.5C 141.207,451.834 140.874,473.167 140.5,494.5C 127.829,494.667 115.162,494.5 102.5,494C 94.1543,490.471 91.3209,484.304 94,475.5C 96.5684,466.953 102.068,461.12 110.5,458C 107.712,456.281 105.379,454.115 103.5,451.5C 115.105,440.396 126.605,429.063 138,417.5C 138.464,416.906 138.631,416.239 138.5,415.5 Z"/></g>
<g><path style="opacity:1" fill="#464557" d="M 244.5,457.5 C 259.167,457.5 273.833,457.5 288.5,457.5C 288.5,469.833 288.5,482.167 288.5,494.5C 273.833,494.5 259.167,494.5 244.5,494.5C 244.5,482.167 244.5,469.833 244.5,457.5 Z"/></g>
<g><path style="opacity:1" fill="#bc5952" d="M 141.5,430.5 C 158.855,431.188 176.188,432.188 193.5,433.5C 193.232,435.099 193.566,436.432 194.5,437.5C 194.5,442.167 194.5,446.833 194.5,451.5C 194.5,458.5 194.5,465.5 194.5,472.5C 193.536,479.746 193.203,487.08 193.5,494.5C 175.833,494.5 158.167,494.5 140.5,494.5C 140.874,473.167 141.207,451.834 141.5,430.5 Z"/></g>
<g><path style="opacity:1" fill="#c54679" d="M 194.5,451.5 C 203.167,451.5 211.833,451.5 220.5,451.5C 220.833,470.167 221.167,470.167 221.5,451.5C 228.833,451.5 236.167,451.5 243.5,451.5C 243.5,453.5 243.5,455.5 243.5,457.5C 243.5,462.5 243.5,467.5 243.5,472.5C 227.167,472.5 210.833,472.5 194.5,472.5C 194.5,465.5 194.5,458.5 194.5,451.5 Z"/></g>
<g><path style="opacity:1" fill="#b4386a" d="M 243.5,457.5 C 243.833,457.5 244.167,457.5 244.5,457.5C 244.5,469.833 244.5,482.167 244.5,494.5C 227.5,494.5 210.5,494.5 193.5,494.5C 193.203,487.08 193.536,479.746 194.5,472.5C 210.833,472.5 227.167,472.5 243.5,472.5C 243.5,467.5 243.5,462.5 243.5,457.5 Z"/></g>
</svg>
