<?xml version="1.0" encoding="UTF-8"?>
<svg version="1.1" xmlns="http://www.w3.org/2000/svg" width="512" height="512">
<path d="M0 0 C5.95041744 1.19509518 11.65746191 3.13940952 17.38964844 5.10546875 C18.04971893 5.32888947 18.70978943 5.55231018 19.38986206 5.78250122 C30.94011997 9.70205125 42.08456747 14.18300136 53.01464844 19.60546875 C53.8522168 20.01345703 54.68978516 20.42144531 55.55273438 20.84179688 C90.32989374 37.88559739 122.80095657 63.1317032 148.01464844 92.60546875 C148.80484375 93.50652344 149.59503906 94.40757813 150.40917969 95.3359375 C160.82988495 107.31127406 170.28955871 120.11822607 178.95214844 133.41796875 C179.5990564 134.3766687 179.5990564 134.3766687 180.2590332 135.35473633 C182.18041262 138.39580638 183.02004713 140.29918291 182.95605469 143.9296875 C182.01464844 146.60546875 182.01464844 146.60546875 179.01464844 148.60546875 C176.23730469 148.82421875 176.23730469 148.82421875 173.01464844 147.60546875 C170.42789998 144.69468009 168.47999965 141.42020891 166.45214844 138.10546875 C165.21708627 136.17288443 163.97742392 134.24323299 162.73339844 132.31640625 C162.11207031 131.35057617 161.49074219 130.38474609 160.85058594 129.38964844 C145.20783023 105.66757581 124.66343767 82.72631082 102.01464844 65.60546875 C100.75668367 64.60990784 99.50030552 63.61234037 98.24511719 62.61328125 C70.01879035 40.32741444 37.62761077 23.48600917 3.01464844 13.60546875 C3.83260094 33.34714807 13.49563383 53.77157731 26.51464844 68.41796875 C33.68082403 74.6883724 40.29128241 77.29627506 49.32714844 80.16796875 C85.94217352 92.22339737 120.11707597 111.65001451 148.29589844 138.0703125 C150.60043078 140.21922268 152.93818806 142.30188166 155.32714844 144.35546875 C161.07046591 149.34810365 166.2443227 154.6787004 171.01464844 160.60546875 C174.82551045 159.24201186 177.8124952 157.48710141 181.07714844 155.10546875 C183.97926746 152.99483674 186.75321679 151.11190369 190.01464844 149.60546875 C189.45502923 146.66314094 188.81184414 143.76088981 188.11230469 140.84765625 C185.47298674 129.809815 183.96703744 118.9088224 183.01464844 107.60546875 C182.40959473 107.48389404 181.80454102 107.36231934 181.18115234 107.23706055 C177.74878157 106.23643589 176.23297946 104.35427024 174.01464844 101.60546875 C169.32740522 84.89525614 171.98784246 65.13408031 179.70214844 49.85546875 C188.02415975 35.62210432 201.24097616 25.54221034 217.12402344 21.171875 C233.3261184 17.99714018 249.83303508 19.67058067 264.06933594 28.5 C268.18082113 31.41369479 271.89979995 34.34997822 275.26464844 38.10546875 C277.796605 40.85171757 277.796605 40.85171757 281.13964844 41.16796875 C286.54244382 40.383692 291.75572101 39.05620735 297.01464844 37.60546875 C297.16160156 36.69925781 297.30855469 35.79304688 297.45996094 34.859375 C299.41848472 24.22256481 302.62784134 16.59773425 311.24511719 9.8203125 C317.91098386 5.24396695 325.67488474 3.78335267 333.62792969 5.0078125 C345.67280885 8.1735739 353.42154118 15.88168226 359.67089844 26.390625 C371.56330433 48.93158822 373.47463507 73.573772 374.01464844 98.60546875 C374.53299162 120.84637856 376.80885564 143.44895251 391.01464844 161.60546875 C392.62403207 163.06341118 394.26991821 164.48221959 395.95214844 165.85546875 C399.91783346 169.1511831 399.91783346 169.1511831 400.82714844 173.41796875 C400.01464844 176.60546875 400.01464844 176.60546875 398.29589844 178.3359375 C393.01360465 181.27557017 385.8564768 178.11896019 380.38574219 176.59375 C353.11072639 168.03297862 331.02939526 150.0756707 317.70581055 124.61206055 C316.05603096 121.3137053 314.50816476 117.97719499 313.01464844 114.60546875 C312.73782227 113.98172363 312.46099609 113.35797852 312.17578125 112.71533203 C300.49910665 85.94630902 300.49910665 85.94630902 302.01464844 73.60546875 C304.01464844 71.60546875 304.01464844 71.60546875 306.95214844 71.29296875 C310.01464844 71.60546875 310.01464844 71.60546875 311.63256836 72.88208008 C313.16680455 74.79520025 313.64531751 76.114979 314.19042969 78.4921875 C314.37508789 79.25740723 314.55974609 80.02262695 314.75 80.81103516 C314.94045898 81.63007324 315.13091797 82.44911133 315.32714844 83.29296875 C322.45202886 111.80870794 336.00822828 139.03108431 361.70214844 155.04296875 C366.36608184 157.79791748 370.85070602 159.98540838 376.01464844 161.60546875 C375.55574219 160.74566406 375.09683594 159.88585937 374.62402344 159 C364.08399406 138.88544012 361.99418579 118.4653864 361.51464844 96.04296875 C360.97248128 71.06018886 359.26223765 41.4649862 340.94433594 22.38671875 C336.14530033 17.95683972 331.84617791 17.02648866 325.47558594 17.265625 C320.66217844 17.93033365 317.52223245 19.69455707 314.51074219 23.51171875 C312.35044126 26.81063983 310.82831028 29.72759104 310.01464844 33.60546875 C311.06652344 33.66734375 312.11839844 33.72921875 313.20214844 33.79296875 C317.83820717 34.78098127 319.23464217 35.79288872 322.01464844 39.60546875 C323.7488021 44.01517378 324.1408541 47.65892627 323.51464844 52.35546875 C320.27377689 59.37735711 313.1891353 62.29689049 306.57714844 65.60546875 C303.36050147 67.22263612 300.17577773 68.88227237 297.01464844 70.60546875 C296.31235107 70.96286133 295.61005371 71.32025391 294.88647461 71.68847656 C292.04121608 73.34950801 290.33397741 74.47894348 289.4128418 77.72851562 C289.16898278 80.29588814 289.1430388 82.77752604 289.20214844 85.35546875 C289.21427046 101.45351995 289.21427046 101.45351995 284.97558594 107.52734375 C282.22975752 111.83752859 282.10611373 115.84270738 281.63964844 120.85546875 C280.32480803 132.42606431 277.66608502 143.52717142 272.29980469 153.9296875 C270.73322068 156.54423613 270.73322068 156.54423613 271.45214844 159.41796875 C274.11630244 164.85284292 276.91484906 170.2056025 282.01464844 173.60546875 C284.17081535 173.92280855 284.17081535 173.92280855 286.54980469 173.9140625 C287.44248047 173.93919922 288.33515625 173.96433594 289.25488281 173.99023438 C291.10898917 174.02487858 292.96316052 174.05623051 294.81738281 174.08398438 C305.36392688 174.39306823 314.72899255 177.01821907 322.73730469 184.13671875 C324.01464844 185.60546875 324.01464844 185.60546875 324.01464844 187.60546875 C325.27277344 187.79109375 326.53089844 187.97671875 327.82714844 188.16796875 C336.342835 190.06482784 344.21192589 195.32392166 349.01464844 202.60546875 C351.48581367 207.6601249 351.33436776 212.23989455 350.01464844 217.60546875 C347.55839802 222.42699734 344.70765904 224.95289754 340.01464844 227.60546875 C339.35464844 227.60546875 338.69464844 227.60546875 338.01464844 227.60546875 C338.25699219 228.30027344 338.49933594 228.99507812 338.74902344 229.7109375 C344.16971852 246.16066218 346.72447494 263.3715635 348.01464844 280.60546875 C348.1514502 282.34884521 348.1514502 282.34884521 348.29101562 284.12744141 C349.11285267 295.51408127 349.03206567 306.85010554 348.9178772 318.25979614 C348.77454315 334.61304844 348.86385987 350.87152105 350.32714844 367.16796875 C350.38618347 367.84543152 350.44521851 368.52289429 350.50604248 369.22088623 C350.9078256 373.69752426 351.424619 378.14996456 352.01464844 382.60546875 C352.15173721 383.64255478 352.15173721 383.64255478 352.29159546 384.70059204 C353.70428721 394.94937052 356.22693942 403.76136812 360.70214844 413.16796875 C361.21326172 414.28365234 361.724375 415.39933594 362.25097656 416.54882812 C363.48822502 419.24302335 364.74241072 421.92766823 366.01464844 424.60546875 C368.90175688 421.76255074 371.67054088 418.90458766 374.26464844 415.79296875 C383.52745406 405.22107283 394.32427084 397.42958332 407.88964844 393.60546875 C413.6802255 391.48765138 415.84600743 388.76755052 418.45214844 383.41796875 C419.75194571 380.5186271 420.90341303 377.58158019 422.01464844 374.60546875 C422.44148926 373.50235352 422.44148926 373.50235352 422.87695312 372.37695312 C436.66130415 336.24260141 433.08120477 297.77665705 422.63964844 261.29296875 C422.37192627 260.35155029 422.1042041 259.41013184 421.82836914 258.44018555 C419.40885118 250.28128027 416.25871377 242.46300401 413.01464844 234.60546875 C412.97500977 235.51385498 412.93537109 236.42224121 412.89453125 237.3581543 C410.82184863 282.90277827 407.09725529 362.76054295 371.01464844 396.60546875 C367.26464844 397.35546875 367.26464844 397.35546875 364.01464844 396.60546875 C362.01464844 393.60546875 362.01464844 393.60546875 362.14355469 390.37890625 C363.11135361 386.18655754 364.81256171 382.90413285 366.95214844 379.23046875 C393.51988147 331.16731816 400.64867197 274.24741672 399.84326172 220.17895508 C399.80114114 217.17916511 399.7775854 214.17969063 399.75683594 211.1796875 C399.73821503 210.26104416 399.71959412 209.34240082 399.70040894 208.3959198 C399.69695465 207.54685562 399.69350037 206.69779144 399.68994141 205.82299805 C399.68026337 205.07849899 399.67058533 204.33399994 399.66061401 203.56694031 C400.11743311 201.03600655 401.00675531 200.16505043 403.01464844 198.60546875 C405.45214844 198.10546875 405.45214844 198.10546875 408.01464844 198.60546875 C436.59451934 230.26181651 445.73739064 289.82602281 444.17871094 330.60498047 C442.96546015 352.79374867 437.59067938 374.02337502 427.01464844 393.60546875 C426.56863281 394.48074219 426.12261719 395.35601562 425.66308594 396.2578125 C422.09941858 402.1280253 416.94826234 403.40086277 410.61230469 405.40625 C396.34761083 410.16114795 385.86270121 419.7479968 377.01464844 431.60546875 C376.53640625 432.16492188 376.05816406 432.724375 375.56542969 433.30078125 C372.51283384 437.39233078 372.91985114 441.50510635 373.07714844 446.41796875 C373.33695594 454.7874134 371.78735885 460.28065438 366.25292969 466.625 C356.09753884 476.40960578 342.23646894 477.7582528 328.76464844 477.96875 C326.01464844 477.60546875 326.01464844 477.60546875 324.37475586 476.41552734 C322.54363922 473.97864011 322.58663378 472.31133816 322.50292969 469.28125 C322.44975586 467.73920898 322.44975586 467.73920898 322.39550781 466.16601562 C322.37294922 465.09416016 322.35039062 464.02230469 322.32714844 462.91796875 C322.29298828 461.83451172 322.25882812 460.75105469 322.22363281 459.63476562 C322.14110284 456.95843655 322.07196907 454.28243716 322.01464844 451.60546875 C321.35464844 451.93546875 320.69464844 452.26546875 320.01464844 452.60546875 C269.21188738 456.86974196 204.18257638 456.25318512 158.01464844 431.60546875 C154.15184523 452.16218938 154.15184523 452.16218938 151.47167969 472.89453125 C151.01464844 475.60546875 151.01464844 475.60546875 149.01464844 477.60546875 C135.74296313 479.24054038 118.03219391 476.63290316 106.77636719 469.109375 C101.76082815 465.13912198 98.45684566 460.89785791 97.01464844 454.60546875 C96.5839791 448.88193566 96.18384019 443.09789348 98.01464844 437.60546875 C90.72029155 423.24629767 76.74353696 415.15621022 62.25292969 409.65625 C59.23984767 408.67854305 56.37820327 408.14108727 53.26464844 407.60546875 C47.04052952 405.97039542 44.32107868 401.6809799 41.13964844 396.38671875 C40.42486158 395.12995066 39.71657923 393.8694622 39.01464844 392.60546875 C38.66273437 391.98414063 38.31082031 391.3628125 37.94824219 390.72265625 C13.58200033 347.02526311 15.91182778 293.24102229 28.94824219 246.4296875 C40.30076452 207.74805803 40.30076452 207.74805803 48.01464844 202.60546875 C51.33705167 202.92960565 52.62241147 203.21323178 55.01464844 205.60546875 C55.34306286 208.38022002 55.55439962 211.07760324 55.69042969 213.86328125 C55.79370775 215.60558845 55.89765917 217.34785584 56.00219727 219.09008789 C56.05453522 220.00984406 56.10687317 220.92960022 56.16079712 221.87722778 C59.49165427 279.00775241 72.16741448 342.33967667 107.71386719 388.9296875 C109.46502715 392.53192345 108.99787753 394.78795484 108.01464844 398.60546875 C105.17227532 400.02665531 103.15899628 399.93416002 100.01464844 399.60546875 C63.2169466 367.53890001 50.22596118 291.63245002 45.30834961 246.69482422 C45.01566809 244.61272243 44.56209746 242.63409859 44.01464844 240.60546875 C39.91666492 254.14770287 36.37821932 267.64858271 34.01464844 281.60546875 C33.89605469 282.28931641 33.77746094 282.97316406 33.65527344 283.67773438 C27.97799052 317.84281196 32.85753851 352.57757331 48.01464844 383.60546875 C48.46582031 384.66894531 48.91699219 385.73242188 49.38183594 386.828125 C52.28864395 392.66530975 55.23086564 395.08170503 61.27148438 397.1340332 C63.64843017 397.85814401 66.03362357 398.54326821 68.42480469 399.21875 C82.83358666 403.33597075 93.85388491 413.01233231 104.01464844 423.60546875 C105.75047513 419.90464724 107.48093561 416.20163928 109.19824219 412.4921875 C110.20152713 410.32916094 111.22409886 408.19102429 112.29980469 406.0625 C117.74026618 395.03677386 117.63078309 381.63661771 118.57714844 369.54296875 C118.67477982 368.31932114 118.67477982 368.31932114 118.77438354 367.07095337 C119.9766118 351.65289678 120.35388923 336.25242219 120.57714844 320.79296875 C121.67446844 246.23528066 121.67446844 246.23528066 135.01464844 220.60546875 C134.25152344 220.04859375 133.48839844 219.49171875 132.70214844 218.91796875 C128.91932658 215.6629825 127.36993084 213.08125719 126.20214844 208.23046875 C125.90594245 202.50381966 126.91897146 198.45065447 130.76464844 194.16796875 C138.89787592 186.66167755 149.21528792 181.72126183 160.01464844 179.60546875 C160.15386719 178.99703125 160.29308594 178.38859375 160.43652344 177.76171875 C161.01464844 175.60546875 161.01464844 175.60546875 162.26464844 173.10546875 C162.51214844 172.28046875 162.75964844 171.45546875 163.01464844 170.60546875 C160.33903702 165.72530427 156.30720955 165.02706001 151.26074219 163.48828125 C136.80689413 159.55739117 121.67264595 158.39088321 107.99951172 165.6796875 C103.21408102 168.46377427 98.60829209 171.51841796 94.01464844 174.60546875 C82.10294991 182.51309421 70.4386413 186.12052909 56.01464844 184.60546875 C43.83829999 182.04051014 34.26601939 175.6833945 27.01464844 165.60546875 C20.15141322 154.38618015 14.42654713 139.99089402 16.01464844 126.60546875 C17.32714844 124.875 17.32714844 124.875 19.01464844 123.60546875 C22.45214844 123.60546875 22.45214844 123.60546875 26.01464844 124.60546875 C27.37641766 126.24898332 28.7042691 127.92069531 30.01464844 129.60546875 C39.67647732 137.1056044 50.86076919 139.52308372 62.89355469 138.1796875 C68.93378588 137.06840592 74.33473577 134.76676424 79.94433594 132.3359375 C86.87991971 129.3545372 93.64340001 127.22172474 101.01464844 125.60546875 C102.63581053 125.24509897 104.25690072 124.88440563 105.87792969 124.5234375 C107.25681417 124.21734984 108.63571293 123.91132645 110.01464844 123.60546875 C88.76906959 109.75226953 66.79202667 99.35394728 42.81860352 91.10546875 C22.54836519 84.12841865 10.57808669 72.02100867 1.08251953 53.01733398 C-6.14311257 37.83869749 -12.25485969 19.56577145 -9.98535156 2.60546875 C-7.04030848 -1.31838997 -4.51089578 -0.60777009 0 0 Z M202.01464844 41.60546875 C200.98339844 42.32734375 199.95214844 43.04921875 198.88964844 43.79296875 C190.6832918 50.9051445 185.30738982 62.96521278 184.01464844 73.60546875 C183.8785479 77.00258143 183.87487902 80.39354085 183.88964844 83.79296875 C183.88578125 84.69466797 183.88191406 85.59636719 183.87792969 86.52539062 C183.87921875 87.39099609 183.88050781 88.25660156 183.88183594 89.1484375 C183.88296387 89.9324292 183.8840918 90.7164209 183.88525391 91.52416992 C183.93744594 93.80178182 183.93744594 93.80178182 185.01464844 96.60546875 C195.95551313 91.3842318 202.49794762 80.63223147 207.20214844 69.79296875 C209.01464844 66.60546875 209.01464844 66.60546875 212.07714844 65.41796875 C215.01464844 65.60546875 215.01464844 65.60546875 216.52636719 66.85546875 C218.13498314 68.74696467 219.44105315 70.69231892 220.76464844 72.79296875 C229.95450389 86.65639372 242.67489065 95.15328856 259.01464844 98.91796875 C264.62344285 99.88468779 270.34167073 100.00734361 276.01464844 99.60546875 C279.51463936 96.10547783 278.25050099 86.04376811 278.26464844 81.41796875 C278.24927977 68.73113024 276.31674896 59.17687434 269.01464844 48.60546875 C268.43714844 47.71859375 267.85964844 46.83171875 267.26464844 45.91796875 C258.66598251 37.080451 247.19961552 31.6117296 234.87182617 31.31298828 C222.02688487 31.20389608 212.37760774 33.72961968 202.01464844 41.60546875 Z M301.95214844 46.91796875 C296.40742098 49.54835159 290.96715885 51.13666748 285.01464844 52.60546875 C285.67464844 55.90546875 286.33464844 59.20546875 287.01464844 62.60546875 C287.64628906 62.25355469 288.27792969 61.90164062 288.92871094 61.5390625 C296.5231895 57.34787332 304.23779664 53.44280584 312.01464844 49.60546875 C311.68464844 47.95546875 311.35464844 46.30546875 311.01464844 44.60546875 C306.91788186 44.60546875 305.50511544 45.14410157 301.95214844 46.91796875 Z M213.01464844 82.60546875 C212.55316406 83.35570313 212.09167969 84.1059375 211.61621094 84.87890625 C207.94001799 90.64747779 204.67632655 95.0908386 199.51464844 99.60546875 C196.73160897 102.26899118 195.21289477 103.77723964 194.31152344 107.54296875 C194.26379213 110.66141418 194.53982109 113.52517851 195.01464844 116.60546875 C195.09328125 117.53230469 195.17191406 118.45914063 195.25292969 119.4140625 C195.77838045 123.67464518 196.45342483 126.72981774 199.88964844 129.48046875 C213.53828234 137.54947244 232.21979957 138.89270538 247.51464844 135.48046875 C253.49112182 133.70594164 258.75094716 130.90801681 264.01464844 127.60546875 C264.66949219 127.23808594 265.32433594 126.87070313 265.99902344 126.4921875 C268.74656962 124.69319893 269.91209496 123.06075395 270.62792969 119.8828125 C270.92713282 117.08904833 271.12299538 114.41306766 271.01464844 111.60546875 C269.13470531 109.72552563 266.35762665 110.04617207 263.83129883 109.70605469 C244.53685602 107.07057292 229.31903511 100.04590362 216.01464844 85.60546875 C215.02012777 84.60001928 214.02266729 83.59738507 213.01464844 82.60546875 Z M83.01464844 143.60546875 C80.70608331 144.53200049 78.39358952 145.44880742 76.07714844 146.35546875 C75.0575 146.7628125 74.03785156 147.17015625 72.98730469 147.58984375 C61.27647496 151.59091567 48.61869224 150.16658998 37.01464844 146.60546875 C35.59842329 146.20805863 34.18183243 145.8119459 32.76464844 145.41796875 C31.85714844 145.14984375 30.94964844 144.88171875 30.01464844 144.60546875 C34.56551884 156.99977478 39.71631615 165.89207029 52.01464844 171.60546875 C60.85925779 174.9525147 69.46433191 174.25836678 78.01464844 170.60546875 C84.23248084 167.33191135 90.16931379 163.51601413 95.99902344 159.6015625 C105.13477466 153.48905843 115.19386461 149.44277411 126.31542969 149.5078125 C127.29189453 149.51103516 128.26835937 149.51425781 129.27441406 149.51757812 C130.28181641 149.52595703 131.28921875 149.53433594 132.32714844 149.54296875 C133.35388672 149.54748047 134.380625 149.55199219 135.43847656 149.55664062 C137.96392726 149.56838691 140.48925749 149.5848131 143.01464844 149.60546875 C140.06134645 145.9294397 137.25073851 142.7068559 133.51464844 139.79296875 C132.78246094 139.20902344 132.05027344 138.62507812 131.29589844 138.0234375 C118.13199635 129.84108055 95.86525252 138.1930222 83.01464844 143.60546875 Z M263.01464844 140.60546875 C260.88330855 141.32076154 258.78229376 142.12767984 256.70214844 142.98046875 C239.36897945 150.0560383 218.65621673 147.7110389 201.01464844 142.60546875 C206.33879176 154.70579448 213.1126142 163.33652044 225.42480469 168.64453125 C231.44202672 170.78357463 236.07027493 171.05438319 242.01464844 168.60546875 C253.55426983 162.7171003 259.85535533 153.1552499 265.01464844 141.60546875 C264.35464844 141.27546875 263.69464844 140.94546875 263.01464844 140.60546875 Z M179.28979492 170.88549805 C174.80556442 175.19487804 174.80556442 175.19487804 172.01464844 180.60546875 C172.77648437 180.89679688 173.53832031 181.188125 174.32324219 181.48828125 C182.55828239 184.75762305 189.22009731 188.75659075 196.27246094 194.046875 C211.62446127 205.53067118 227.98845163 216.09316105 245.90527344 223.13671875 C246.93136719 223.62140625 247.95746094 224.10609375 249.01464844 224.60546875 C250.07714844 227.60546875 250.07714844 227.60546875 250.01464844 230.60546875 C249.35464844 231.59546875 248.69464844 232.58546875 248.01464844 233.60546875 C242.04803563 233.11378796 237.49601413 231.8596663 232.13964844 229.23046875 C231.41350342 228.88032715 230.6873584 228.53018555 229.93920898 228.16943359 C214.97493093 220.77622458 201.32588921 211.30896347 187.98730469 201.34375 C176.72159539 192.95089495 176.72159539 192.95089495 163.19042969 190.265625 C154.70244246 191.59139679 145.10830653 196.57568549 139.01464844 202.60546875 C138.18837716 205.22337576 138.18837716 205.22337576 138.01464844 207.60546875 C144.26870698 211.66215537 150.73212835 215.17873717 157.32669067 218.64950562 C181.73569089 231.5202436 205.3617497 245.7168667 227.98730469 261.5234375 C232.81298087 264.84225738 236.21527058 265.39342146 242.01464844 264.60546875 C245.12805427 263.34830736 247.79882913 261.60191089 250.57714844 259.73046875 C251.35815918 259.23015137 252.13916992 258.72983398 252.94384766 258.21435547 C255.31230037 256.69503407 257.66395119 255.15207308 260.01464844 253.60546875 C283.0400409 238.69442956 307.1419278 225.60808491 333.4921875 217.61743164 C336.06318334 216.58599748 337.37714154 215.82210225 339.01464844 213.60546875 C339.4912302 210.17022123 339.4912302 210.17022123 338.01464844 206.60546875 C333.83421587 202.76540543 328.60260404 199.69876441 323.01464844 198.60546875 C317.31996182 199.12056603 312.25434025 200.68801312 306.88964844 202.54296875 C306.10460937 202.80787109 305.31957031 203.07277344 304.51074219 203.34570312 C301.355127 204.41797372 298.2436952 205.51071242 295.16308594 206.78515625 C292.35765211 207.85632189 289.98890886 207.80825923 287.01464844 207.60546875 C286.01464844 206.60546875 286.01464844 206.60546875 285.95214844 203.04296875 C285.97277344 201.90859375 285.99339844 200.77421875 286.01464844 199.60546875 C293.52007477 196.0005002 301.06802398 193.08792211 309.01464844 190.60546875 C309.01464844 189.94546875 309.01464844 189.28546875 309.01464844 188.60546875 C298.623525 184.15213013 287.69906808 185.10342033 276.67871094 186.375 C253.96156603 188.3402662 226.49231261 185.09659772 208.24121094 170.3671875 C201.89118745 164.80864259 201.89118745 164.80864259 199.35839844 161.33203125 C198.91496094 160.76226562 198.47152344 160.1925 198.01464844 159.60546875 C191.32884746 159.60546875 183.94347397 166.3856226 179.28979492 170.88549805 Z M256.88964844 171.54296875 C256.16519531 172.08824219 255.44074219 172.63351563 254.69433594 173.1953125 C254.14003906 173.66066406 253.58574219 174.12601563 253.01464844 174.60546875 C253.01464844 174.93546875 253.01464844 175.26546875 253.01464844 175.60546875 C257.30464844 175.60546875 261.59464844 175.60546875 266.01464844 175.60546875 C264.61089013 172.06224987 264.61089013 172.06224987 263.01464844 168.60546875 C260.21341565 168.60546875 259.0969643 169.86176939 256.88964844 171.54296875 Z M146.01464844 225.60546875 C142.55176859 231.90297379 140.59292611 237.99809707 138.95214844 244.98046875 C138.6961084 246.06030029 138.44006836 247.14013184 138.17626953 248.25268555 C134.57555968 264.15562971 132.72109096 280.30215635 133.01464844 296.60546875 C133.86285156 296.40050781 134.71105469 296.19554687 135.58496094 295.984375 C143.30069196 294.21230051 150.43422012 293.20386402 158.34667969 292.9140625 C159.66732422 292.76130859 159.66732422 292.76130859 161.01464844 292.60546875 C162.23578703 290.16319156 162.07132475 288.73378134 161.97167969 286.01171875 C161.53610194 269.08226357 163.50367568 254.32877531 170.01464844 238.60546875 C158.81195896 229.97642603 158.81195896 229.97642603 146.01464844 225.60546875 Z M314.63964844 235.91796875 C313.20105469 236.52415039 313.20105469 236.52415039 311.73339844 237.14257812 C310.80785156 237.53896484 309.88230469 237.93535156 308.92871094 238.34375 C307.65954834 238.8857605 307.65954834 238.8857605 306.36474609 239.4387207 C304.00702185 240.60925511 302.06351138 241.96111884 300.01464844 243.60546875 C300.34078125 244.48460937 300.66691406 245.36375 301.00292969 246.26953125 C305.65309296 259.8265731 306.60010925 273.70347325 307.70507812 287.89428711 C307.85353453 290.56895559 307.85353453 290.56895559 309.01464844 292.60546875 C310.91554846 293.04100839 310.91554846 293.04100839 313.20605469 293.16796875 C314.06908203 293.24273437 314.93210937 293.3175 315.82128906 293.39453125 C316.73072266 293.46414063 317.64015625 293.53375 318.57714844 293.60546875 C324.93987905 294.10742266 330.85907017 294.88161953 337.01464844 296.60546875 C337.42266584 276.36075352 336.2181296 250.01243107 327.01464844 231.60546875 C322.73958063 231.60546875 318.51441267 234.25182013 314.63964844 235.91796875 Z M180.01464844 244.60546875 C172.59660185 259.85576758 170.18826742 274.66650931 174.72558594 291.1953125 C176.56995067 296.41537233 179.36584979 300.69379985 182.57714844 305.16796875 C189.6080535 315.00442075 191.53990484 323.75564562 189.66162109 335.88525391 C189.52675293 336.68624512 189.39188477 337.48723633 189.25292969 338.3125 C187.75123811 346.56863606 187.75123811 346.56863606 190.13330078 354.25244141 C193.49057015 357.42227702 197.52096229 359.41412828 201.64404297 361.41796875 C205.08890522 363.14359285 208.36313795 365.1326209 211.671875 367.10351562 C219.96688101 372.86812401 219.96688101 372.86812401 229.19433594 375.5 C233.38455774 374.17096843 237.21875692 372.26774636 241.13964844 370.29296875 C242.01331055 369.85436523 242.88697266 369.41576172 243.78710938 368.96386719 C252.46861297 364.51557073 260.84160155 359.5268103 268.89477539 354.01855469 C271.01464844 352.60546875 271.01464844 352.60546875 273.34350586 351.32519531 C275.68395485 349.9136993 277.32447827 348.75946354 279.01464844 346.60546875 C279.77010651 342.60634357 279.31815291 338.87232943 278.82714844 334.85546875 C277.57271294 322.94946559 279.18576978 314.96233174 285.45214844 304.79296875 C293.8835682 290.23254884 297.15687386 273.98081876 293.10839844 257.30078125 C292.1983585 254.33015088 291.2235629 251.46584672 290.01464844 248.60546875 C279.84213251 253.1122796 270.69857694 259.13968546 261.38183594 265.16796875 C257.81650942 267.45950252 254.24876444 269.74582059 250.64746094 271.98046875 C249.87547363 272.46257812 249.10348633 272.9446875 248.30810547 273.44140625 C242.63384266 276.32142382 236.14197055 276.40353686 230.09667969 274.625 C224.03413839 272.52923048 218.94360321 268.87232066 213.70724487 265.25506592 C211.33266861 263.61514625 208.94228351 261.99900291 206.55226135 260.38171387 C205.36599751 259.57886214 204.18047317 258.7749166 202.99571228 257.96984863 C198.20322635 254.7164573 193.36121606 251.55467557 188.45214844 248.48046875 C187.81075928 248.07368896 187.16937012 247.66690918 186.50854492 247.24780273 C183.49047413 245.23204152 183.49047413 245.23204152 180.01464844 244.60546875 Z M142.51464844 305.54296875 C141.81339844 305.72537109 141.11214844 305.90777344 140.38964844 306.09570312 C136.60957258 307.0949383 136.60957258 307.0949383 133.01464844 308.60546875 C133.01464844 312.56546875 133.01464844 316.52546875 133.01464844 320.60546875 C134.7896875 320.78722656 134.7896875 320.78722656 136.60058594 320.97265625 C138.19696579 321.1416847 139.79331852 321.31096938 141.38964844 321.48046875 C142.55173828 321.59841797 142.55173828 321.59841797 143.73730469 321.71875 C149.63838081 322.35274991 155.13850136 323.43023933 161.01464844 324.60546875 C161.01464844 317.67546875 161.01464844 310.74546875 161.01464844 303.60546875 C154.0357072 303.60546875 148.96767468 303.74977204 142.51464844 305.54296875 Z M309.01464844 303.60546875 C309.01464844 306.90546875 309.01464844 310.20546875 309.01464844 313.60546875 C310.11421875 313.71503906 311.21378906 313.82460938 312.34667969 313.9375 C320.85182376 314.83298104 328.81056161 316.06335734 337.01464844 318.60546875 C337.01464844 315.30546875 337.01464844 312.00546875 337.01464844 308.60546875 C335.14164819 307.95385863 333.26614294 307.3094468 331.38964844 306.66796875 C330.34550781 306.30832031 329.30136719 305.94867188 328.22558594 305.578125 C323.32396444 304.09332725 318.75179342 303.47388571 313.63964844 303.54296875 C312.11339844 303.56359375 310.58714844 303.58421875 309.01464844 303.60546875 Z M296.01464844 309.60546875 C294.97737771 310.84606812 293.98453628 312.1240078 293.01464844 313.41796875 C292.47839844 314.12566406 291.94214844 314.83335937 291.38964844 315.5625 C288.37221991 320.04578159 288.83112645 324.54313755 288.82714844 329.73046875 C288.81490234 330.54773438 288.80265625 331.365 288.79003906 332.20703125 C288.77015269 340.58582096 289.81576851 347.60045074 294.57714844 354.66796875 C295.1971875 355.60769531 295.81722656 356.54742187 296.45605469 357.515625 C296.97039062 358.20527344 297.48472656 358.89492188 298.01464844 359.60546875 C298.34464844 359.60546875 298.67464844 359.60546875 299.01464844 359.60546875 C298.89489791 354.57402117 298.77058217 349.54271277 298.64233398 344.51147461 C298.59946269 342.80577529 298.55776263 341.10004607 298.51733398 339.39428711 C298.28036519 329.43282109 297.927047 319.53214124 297.01464844 309.60546875 C296.68464844 309.60546875 296.35464844 309.60546875 296.01464844 309.60546875 Z M173.01464844 311.60546875 C172.27396091 314.94254131 171.87377249 318.0718942 171.80932617 321.48754883 C171.78938095 322.42814651 171.76943573 323.3687442 171.74888611 324.33784485 C171.73217361 325.34010605 171.71546112 326.34236725 171.69824219 327.375 C171.67746109 328.41113937 171.65667999 329.44727875 171.63526917 330.51481628 C171.57002714 333.8158014 171.51100664 337.11686424 171.45214844 340.41796875 C171.40893911 342.65951316 171.36532405 344.90104978 171.32128906 347.14257812 C171.21437177 352.63012682 171.11255881 358.11775236 171.01464844 363.60546875 C177.37961619 355.14381909 178.80440969 349.3489553 179.45214844 338.73046875 C179.60586914 336.88775391 179.60586914 336.88775391 179.76269531 335.0078125 C180.32034855 326.81426179 180.36286708 319.52766773 174.82714844 313.04296875 C174.22902344 312.56859375 173.63089844 312.09421875 173.01464844 311.60546875 Z M309.01464844 324.60546875 C308.98562414 327.87628346 308.9678416 331.14706505 308.95214844 334.41796875 C308.94376953 335.34673828 308.93539063 336.27550781 308.92675781 337.23242188 C308.92353516 338.12509766 308.9203125 339.01777344 308.91699219 339.9375 C308.91175537 340.75968018 308.90651855 341.58186035 308.90112305 342.42895508 C308.92723319 344.78719471 308.92723319 344.78719471 310.01464844 347.60546875 C310.706875 347.48429687 311.39910156 347.363125 312.11230469 347.23828125 C320.39088736 345.82034219 328.68517821 344.67510017 337.01464844 343.60546875 C337.49018341 339.83421226 337.67691072 336.36182041 337.01464844 332.60546875 C332.85232575 327.41713935 324.3058233 325.61172949 318.01464844 324.60546875 C315.01159646 324.51382486 312.01795321 324.53475897 309.01464844 324.60546875 Z M132.01464844 331.60546875 C132.01464844 338.53546875 132.01464844 345.46546875 132.01464844 352.60546875 C141.25464844 351.94546875 150.49464844 351.28546875 160.01464844 350.60546875 C160.34464844 346.31546875 160.67464844 342.02546875 161.01464844 337.60546875 C151.14672037 332.75238937 143.06062246 331.60546875 132.01464844 331.60546875 Z M325.70214844 355.91796875 C324.96802734 356.04880859 324.23390625 356.17964844 323.47753906 356.31445312 C318.89489434 357.15616338 314.4740211 358.25646434 310.01464844 359.60546875 C310.71746639 372.44876734 311.56082135 383.81481401 317.01464844 395.60546875 C318.22146574 398.50904148 319.40160135 401.42276042 320.58081055 404.33764648 C321.78451435 407.31259867 323.00041274 410.28222055 324.22167969 413.25 C324.73952026 414.50840698 324.73952026 414.50840698 325.26782227 415.79223633 C325.5142749 416.39060303 325.76072754 416.98896973 326.01464844 417.60546875 C333.18714055 414.13409464 338.90264561 408.99647547 342.01464844 401.60546875 C342.76286441 396.67491733 342.12399304 392.11594049 340.01464844 387.60546875 C337.27687055 386.04395115 337.27687055 386.04395115 333.95214844 385.29296875 C332.78941406 384.9784375 331.62667969 384.66390625 330.42871094 384.33984375 C327.53362014 383.71710111 324.77231096 383.29239619 321.82714844 383.04296875 C320.56902344 382.89859375 319.31089844 382.75421875 318.01464844 382.60546875 C316.01464844 379.60546875 316.01464844 379.60546875 316.32714844 376.98046875 C317.01464844 374.60546875 317.01464844 374.60546875 318.01464844 373.60546875 C319.84459377 373.47772906 321.68028663 373.42954932 323.51464844 373.41796875 C324.51496094 373.40378906 325.51527344 373.38960938 326.54589844 373.375 C330.01464844 373.60546875 330.01464844 373.60546875 339.01464844 375.60546875 C338.51964844 365.70546875 338.51964844 365.70546875 338.01464844 355.60546875 C333.50174498 354.47724289 330.15955697 355.06655364 325.70214844 355.91796875 Z M275.45214844 362.54296875 C269.55409737 366.40254311 263.6033732 370.09990454 257.45214844 373.54296875 C256.50843384 374.07168579 256.50843384 374.07168579 255.5456543 374.61108398 C251.09709862 377.07139924 246.57237906 379.35430236 242.01464844 381.60546875 C244.82481619 384.5919894 247.66590083 386.10010946 251.38964844 387.85546875 C252.51113281 388.396875 253.63261719 388.93828125 254.78808594 389.49609375 C258.36867111 390.72719083 259.51131463 390.89811451 263.01464844 389.60546875 C265.80279371 388.21101862 268.47020933 386.65133622 271.13964844 385.04296875 C271.88722412 384.59840332 272.6347998 384.15383789 273.4050293 383.69580078 C279.5391549 379.99962227 285.34650241 375.9881821 291.01464844 371.60546875 C289.85132783 367.82873488 288.5875168 364.55781886 286.45214844 361.23046875 C286.01773438 360.54210937 285.58332031 359.85375 285.13574219 359.14453125 C284.76578125 358.63664062 284.39582031 358.12875 284.01464844 357.60546875 C281.31811094 357.60546875 277.75296583 361.02136753 275.45214844 362.54296875 Z M131.01464844 364.60546875 C130.68464844 367.90546875 130.35464844 371.20546875 130.01464844 374.60546875 C131.14902344 375.01796875 132.28339844 375.43046875 133.45214844 375.85546875 C138.05979765 377.58231419 142.55228462 379.53365698 147.01464844 381.60546875 C147.74683594 381.90066406 148.47902344 382.19585937 149.23339844 382.5 C149.82121094 382.86480469 150.40902344 383.22960937 151.01464844 383.60546875 C151.76464844 387.23046875 151.76464844 387.23046875 152.01464844 390.60546875 C149.01464844 392.60546875 149.01464844 392.60546875 146.32714844 392.48046875 C142.86433325 391.56576285 140.12687534 390.19580457 136.98339844 388.52734375 C134.38358402 387.30997033 131.85690418 386.88969432 129.01464844 386.60546875 C127.50053387 392.07379987 126.76975905 397.61871832 129.00292969 402.9765625 C133.87784668 410.90001913 141.05992478 417.01536699 150.01464844 419.60546875 C155.58345095 402.6129172 159.30754999 384.45178953 159.07714844 366.48046875 C159.068125 365.54976563 159.05910156 364.6190625 159.04980469 363.66015625 C159.03820312 362.98210937 159.02660156 362.3040625 159.01464844 361.60546875 C149.30629369 361.10901879 140.45060989 362.59374093 131.01464844 364.60546875 Z M184.01464844 363.60546875 C183.14547957 365.01298096 182.29479695 366.43192085 181.45214844 367.85546875 C180.97648438 368.644375 180.50082031 369.43328125 180.01074219 370.24609375 C178.89438932 372.48346094 178.89438932 372.48346094 178.97558594 374.58984375 C180.62162093 377.7829041 183.34276739 379.5628951 186.20214844 381.60546875 C186.86069824 382.08040771 187.51924805 382.55534668 188.19775391 383.04467773 C197.30521166 389.4244842 207.13289337 394.54514526 217.01464844 399.60546875 C217.8414209 400.03182617 218.66819336 400.45818359 219.52001953 400.89746094 C267.92897673 426.06103086 267.92897673 426.06103086 320.01464844 437.60546875 C319.75423509 436.08281659 319.48067528 434.56241191 319.20214844 433.04296875 C318.97591797 431.77259766 318.97591797 431.77259766 318.74511719 430.4765625 C318.38353516 429.05537109 318.38353516 429.05537109 318.01464844 427.60546875 C317.78648437 426.42855469 317.55832031 425.25164062 317.32324219 424.0390625 C316.06364746 421.25080024 315.09784059 420.64348909 312.26831055 419.3503418 C309.18820129 418.38512316 306.10420446 417.52174159 302.9708252 416.74716187 C299.41914746 415.86538792 295.89520997 414.88188943 292.36621094 413.9140625 C291.65331909 413.72127213 290.94042725 413.52848175 290.20593262 413.32984924 C254.13363498 403.50953131 220.47560626 386.11393256 189.22509766 365.92138672 C186.96852406 364.47144905 186.96852406 364.47144905 184.01464844 363.60546875 Z M288.82714844 386.35546875 C283.99280108 389.66495232 279.13892722 392.76086263 274.01464844 395.60546875 C276.34160368 397.93242399 278.00231019 398.4400904 281.10839844 399.48046875 C282.13964844 399.8259375 283.17089844 400.17140625 284.23339844 400.52734375 C285.31621094 400.883125 286.39902344 401.23890625 287.51464844 401.60546875 C288.56652344 401.96125 289.61839844 402.31703125 290.70214844 402.68359375 C297.08294291 404.79999588 303.38546935 406.47961934 310.01464844 407.60546875 C308.09785856 401.1695111 305.55715982 395.42086826 302.32714844 389.54296875 C301.91142578 388.77275391 301.49570312 388.00253906 301.06738281 387.20898438 C300.05618364 385.33768475 299.03633461 383.47106341 298.01464844 381.60546875 C294.45888312 381.60546875 291.68355531 384.39048161 288.82714844 386.35546875 Z M173.01464844 385.60546875 C172.35464844 387.91546875 171.69464844 390.22546875 171.01464844 392.60546875 C175.46964844 392.11046875 175.46964844 392.11046875 180.01464844 391.60546875 C176.83925288 388.17967926 176.83925288 388.17967926 173.01464844 385.60546875 Z M179.13964844 401.41796875 C177.94210938 401.56427734 176.74457031 401.71058594 175.51074219 401.86132812 C172.01178759 402.43926296 169.19095885 403.01844592 166.01464844 404.60546875 C163.66555471 408.07921244 162.54156582 411.45324579 162.01464844 415.60546875 C162.34464844 416.26546875 162.67464844 416.92546875 163.01464844 417.60546875 C178.94323059 415.90661745 194.42912613 413.31054847 210.01464844 409.60546875 C207.1627784 406.58437037 204.12681388 404.87642173 200.45214844 402.91796875 C199.29585937 402.29535156 198.13957031 401.67273438 196.94824219 401.03125 C191.40165527 398.33550536 185.0540252 400.49127763 179.13964844 401.41796875 Z M122.01464844 412.60546875 C120.17971632 416.67975612 118.34667641 420.75488778 116.51538086 424.83081055 C115.89220207 426.21711173 115.26850793 427.60318138 114.64428711 428.98901367 C113.74685057 430.9816512 112.85127408 432.97511559 111.95605469 434.96875 C111.4166626 436.16798096 110.87727051 437.36721191 110.3215332 438.6027832 C108.30543558 443.23494923 107.59229743 446.53725667 108.01464844 451.60546875 C110.59260507 457.83553061 113.99901203 460.68914311 120.01464844 463.60546875 C126.34219571 466.08685984 133.25809954 466.47817145 140.01464844 466.60546875 C141.6016671 465.01845009 141.42307628 463.20646015 141.69824219 461.01171875 C141.82134766 460.06296875 141.94445312 459.11421875 142.07128906 458.13671875 C142.19697266 457.13640625 142.32265625 456.13609375 142.45214844 455.10546875 C143.23968276 448.83852893 144.09669761 442.69342265 145.63208008 436.56054688 C146.14267328 434.28323647 146.14267328 434.28323647 146.01464844 430.60546875 C145.33660156 430.27675781 144.65855469 429.94804687 143.95996094 429.609375 C135.32769805 425.19759521 128.81538814 419.419548 122.01464844 412.60546875 Z M347.01464844 414.60546875 C346.17740234 415.72308594 346.17740234 415.72308594 345.32324219 416.86328125 C343.02818362 419.58939143 340.98434218 420.77123322 337.88623047 422.43066406 C334.57875832 424.34997988 331.90324786 426.21303232 330.01464844 429.60546875 C329.1420753 436.38089926 331.02749438 443.25163707 332.46337891 449.84619141 C333.21208818 453.59371676 333.48825668 457.22791764 333.70214844 461.04296875 C333.76789063 462.13480469 333.83363281 463.22664063 333.90136719 464.3515625 C333.93875 465.09535156 333.97613281 465.83914063 334.01464844 466.60546875 C342.94584581 465.66755304 352.31661274 464.66489181 358.74121094 457.74609375 C361.20258853 454.19840985 362.54225645 451.24223186 362.41552734 446.80908203 C361.46393306 441.57821113 358.86241646 436.77053383 356.63964844 431.98046875 C355.63142297 429.75930199 354.62359558 427.53795448 353.61621094 425.31640625 C352.94066162 423.85146729 352.94066162 423.85146729 352.25146484 422.35693359 C351.10070157 419.79690555 350.03604384 417.21940718 349.01464844 414.60546875 C348.35464844 414.60546875 347.69464844 414.60546875 347.01464844 414.60546875 Z M219.17089844 417.6796875 C218.26412354 417.93347168 217.35734863 418.18725586 216.4230957 418.44873047 C215.46330811 418.7273291 214.50352051 419.00592773 213.51464844 419.29296875 C202.11937604 422.44926297 190.67577642 424.68861814 179.01464844 426.60546875 C193.33692746 436.15365477 218.1915189 437.38954219 235.01464844 439.60546875 C235.85882324 439.7226123 236.70299805 439.83975586 237.57275391 439.96044922 C255.28464095 442.34781152 273.18476046 441.80198299 291.01464844 441.60546875 C288.07624216 439.64653123 285.73254977 438.73610153 282.39746094 437.64453125 C281.24640869 437.26095459 280.09535645 436.87737793 278.90942383 436.48217773 C277.66539795 436.06911377 276.42137207 435.6560498 275.13964844 435.23046875 C262.98845691 431.1551235 251.15314472 426.5244246 239.38427734 421.45361328 C238.24265137 420.96618652 237.10102539 420.47875977 235.92480469 419.9765625 C234.92586182 419.5427124 233.92691895 419.1088623 232.89770508 418.66186523 C228.01568404 416.87301732 224.19061081 416.21492399 219.17089844 417.6796875 Z " fill="#000000" transform="translate(38.9853515625,17.39453125)"/>
<path d="M0 0 C2 2 2 2 2.375 4.9375 C2 8 2 8 0.5625 9.8125 C-3.13012854 11.52371811 -6.92806623 12.1574781 -11 12 C-11.99 11.34 -12.98 10.68 -14 10 C-14.4375 6.5625 -14.4375 6.5625 -14 3 C-10.20540185 -1.21622017 -5.22303344 -1.55279373 0 0 Z " fill="#000000" transform="translate(292,130)"/>
<path d="M0 0 C0.86882812 0.18949219 1.73765625 0.37898437 2.6328125 0.57421875 C4.875 1.3125 4.875 1.3125 6.875 3.3125 C7.1875 6.8125 7.1875 6.8125 6.875 10.3125 C3.09103019 12.83514654 1.37251357 12.40233093 -2.9609375 11.78125 C-5.76985461 11.1728203 -7.31885891 10.58980833 -9.125 8.3125 C-9.625 5.3125 -9.625 5.3125 -9.125 2.3125 C-6.03300218 -0.81479459 -4.1979367 -0.98369561 0 0 Z " fill="#000000" transform="translate(258.125,129.6875)"/>
<path d="M0 0 C1.8125 1.125 1.8125 1.125 3 3 C3.5625 5.9375 3.5625 5.9375 3 9 C-0.03042219 11.74181055 -2.1484941 12.86643045 -6.1875 13.5 C-9 13 -9 13 -11 11.375 C-12 9 -12 9 -11.5 5.9375 C-9.02298093 1.08667099 -5.4341179 -0.85801862 0 0 Z " fill="#000000" transform="translate(311,225)"/>
</svg>
