<?xml version="1.0" encoding="UTF-8"?>
<!DOCTYPE svg PUBLIC "-//W3C//DTD SVG 1.1//EN" "http://www.w3.org/Graphics/SVG/1.1/DTD/svg11.dtd">
<svg xmlns="http://www.w3.org/2000/svg" version="1.1" width="512px" height="512px" style="shape-rendering:geometricPrecision; text-rendering:geometricPrecision; image-rendering:optimizeQuality; fill-rule:evenodd; clip-rule:evenodd" xmlns:xlink="http://www.w3.org/1999/xlink">
<g><path style="opacity:1" fill="#bb6389" d="M 108.5,49.5 C 94.8648,64.4696 80.8648,79.1363 66.5,93.5C 61.2581,91.2829 56.7581,87.9496 53,83.5C 37.9131,63.7407 30.0798,41.4074 29.5,16.5C 57.6534,23.418 83.9867,34.418 108.5,49.5 Z"/></g>
<g><path style="opacity:1" fill="#d4e1e5" d="M 404.5,62.5 C 403.601,61.5285 402.434,60.8618 401,60.5C 387.32,62.4066 373.654,64.4066 360,66.5C 358.93,66.472 358.097,66.1386 357.5,65.5C 359.912,53.2457 355.246,49.2457 343.5,53.5C 343.907,31.5853 354.907,21.4186 376.5,23C 388.491,28.6627 396.657,37.8294 401,50.5C 402.477,54.4299 403.644,58.4299 404.5,62.5 Z"/></g>
<g><path style="opacity:1" fill="#d3e1e5" d="M 315.5,60.5 C 285.497,60.591 255.497,60.9243 225.5,61.5C 241.58,40.5274 262.58,33.3607 288.5,40C 300.236,43.5027 309.236,50.3361 315.5,60.5 Z"/></g>
<g><path style="opacity:1" fill="#38384b" d="M 357.5,65.5 C 353.298,68.4317 348.965,71.0984 344.5,73.5C 337.554,77.1294 330.887,81.1294 324.5,85.5C 323.833,83.1667 323.167,80.8333 322.5,78.5C 321.341,72.0182 319.007,66.0182 315.5,60.5C 325.235,59.7329 334.568,57.3995 343.5,53.5C 355.246,49.2457 359.912,53.2457 357.5,65.5 Z"/></g>
<g><path style="opacity:1" fill="#ccd9e0" d="M 315.5,60.5 C 319.007,66.0182 321.341,72.0182 322.5,78.5C 287.676,80.0601 252.676,81.0601 217.5,81.5C 218.514,74.143 221.181,67.4763 225.5,61.5C 255.497,60.9243 285.497,60.591 315.5,60.5 Z"/></g>
<g><path style="opacity:1" fill="#b0597f" d="M 108.5,49.5 C 124.636,58.5652 139.303,69.5652 152.5,82.5C 142.189,93.8133 131.855,105.147 121.5,116.5C 103.418,107.951 85.0842,100.284 66.5,93.5C 80.8648,79.1363 94.8648,64.4696 108.5,49.5 Z"/></g>
<g><path style="opacity:1" fill="#c6d1d9" d="M 322.5,78.5 C 323.167,80.8333 323.833,83.1667 324.5,85.5C 324.776,94.8791 324.276,104.212 323,113.5C 322.434,116.229 320.934,118.229 318.5,119.5C 289.021,121.313 266.854,109.646 252,84.5C 246.236,97.4214 237.736,108.088 226.5,116.5C 221.73,117.535 218.564,115.869 217,111.5C 214.843,101.408 215.009,91.4081 217.5,81.5C 252.676,81.0601 287.676,80.0601 322.5,78.5 Z"/></g>
<g><path style="opacity:1" fill="#a34e72" d="M 152.5,82.5 C 168.928,95.9264 183.262,111.26 195.5,128.5C 187.798,135.201 180.798,142.534 174.5,150.5C 171.411,148.075 168.078,146.075 164.5,144.5C 151.398,133.438 137.065,124.104 121.5,116.5C 131.855,105.147 142.189,93.8133 152.5,82.5 Z"/></g>
<g><path style="opacity:1" fill="#d4726c" d="M 318.5,119.5 C 318.167,120.167 317.833,120.833 317.5,121.5C 309.688,122.349 301.855,123.016 294,123.5C 278.323,123.156 264.656,117.823 253,107.5C 248.167,112.333 243.333,117.167 238.5,122C 235.108,124.694 231.441,126.86 227.5,128.5C 226.838,124.534 226.505,120.534 226.5,116.5C 237.736,108.088 246.236,97.4214 252,84.5C 266.854,109.646 289.021,121.313 318.5,119.5 Z"/></g>
<g><path style="opacity:1" fill="#c9d6dd" d="M 404.5,62.5 C 408.662,77.0755 410.662,92.0755 410.5,107.5C 393.337,109.785 376.17,112.118 359,114.5C 357.319,114.608 356.152,115.275 355.5,116.5C 349.947,102.766 346.28,88.4323 344.5,73.5C 348.965,71.0984 353.298,68.4317 357.5,65.5C 358.097,66.1386 358.93,66.472 360,66.5C 373.654,64.4066 387.32,62.4066 401,60.5C 402.434,60.8618 403.601,61.5285 404.5,62.5 Z"/></g>
<g><path style="opacity:1" fill="#c1cdd5" d="M 410.5,107.5 C 410.5,114.5 410.5,121.5 410.5,128.5C 410.5,129.5 410.5,130.5 410.5,131.5C 395.269,133.198 380.269,135.531 365.5,138.5C 361.102,131.701 357.769,124.367 355.5,116.5C 356.152,115.275 357.319,114.608 359,114.5C 376.17,112.118 393.337,109.785 410.5,107.5 Z"/></g>
<g><path style="opacity:1" fill="#e6b9b2" d="M 317.5,121.5 C 317.55,127.389 316.884,133.056 315.5,138.5C 306.833,137.833 298.167,137.167 289.5,136.5C 293.719,134.459 294.386,131.626 291.5,128C 287.171,126.849 283.338,127.682 280,130.5C 279.167,133.171 279.667,135.504 281.5,137.5C 275.31,137.823 269.31,137.49 263.5,136.5C 265.393,130.206 262.893,127.206 256,127.5C 250.284,128.384 249.117,131.217 252.5,136C 253.448,136.483 254.448,136.649 255.5,136.5C 246.599,137.192 237.599,137.859 228.5,138.5C 227.949,135.193 227.616,131.86 227.5,128.5C 231.441,126.86 235.108,124.694 238.5,122C 243.333,117.167 248.167,112.333 253,107.5C 264.656,117.823 278.323,123.156 294,123.5C 301.855,123.016 309.688,122.349 317.5,121.5 Z"/></g>
<g><path style="opacity:1" fill="#d4736d" d="M 263.5,136.5 C 260.833,137.833 258.167,137.833 255.5,136.5C 254.448,136.649 253.448,136.483 252.5,136C 249.117,131.217 250.284,128.384 256,127.5C 262.893,127.206 265.393,130.206 263.5,136.5 Z"/></g>
<g><path style="opacity:1" fill="#d4726d" d="M 289.5,136.5 C 286.833,136.833 284.167,137.167 281.5,137.5C 279.667,135.504 279.167,133.171 280,130.5C 283.338,127.682 287.171,126.849 291.5,128C 294.386,131.626 293.719,134.459 289.5,136.5 Z"/></g>
<g><path style="opacity:1" fill="#b9c6d1" d="M 410.5,128.5 C 412.001,143.485 416.168,157.819 423,171.5C 425.615,175.783 428.615,179.783 432,183.5C 432.884,185.641 432.384,187.307 430.5,188.5C 401.455,181.174 379.788,164.507 365.5,138.5C 380.269,135.531 395.269,133.198 410.5,131.5C 410.5,130.5 410.5,129.5 410.5,128.5 Z"/></g>
<g><path style="opacity:1" fill="#7d314b" d="M 164.5,144.5 C 168.078,146.075 171.411,148.075 174.5,150.5C 179.971,155.801 185.638,160.967 191.5,166C 195.085,169.078 198.085,172.578 200.5,176.5C 185.98,170.523 170.98,168.69 155.5,171C 150.628,172.103 145.962,173.77 141.5,176C 133.168,181.835 124.501,187.168 115.5,192C 88.5677,199.784 70.0677,190.617 60,164.5C 53.3704,147.856 57.2037,144.689 71.5,155C 81.8571,159.426 92.5238,160.426 103.5,158C 113.056,154.056 122.723,150.389 132.5,147C 143.055,144.854 153.722,144.021 164.5,144.5 Z"/></g>
<g><path style="opacity:1" fill="#e5aca2" d="M 255.5,136.5 C 258.167,137.833 260.833,137.833 263.5,136.5C 269.31,137.49 275.31,137.823 281.5,137.5C 284.167,137.167 286.833,136.833 289.5,136.5C 298.167,137.167 306.833,137.833 315.5,138.5C 315.5,138.833 315.5,139.167 315.5,139.5C 302.536,151.721 287.036,157.721 269,157.5C 254.329,157.443 241.162,153.109 229.5,144.5C 229.483,142.435 229.15,140.435 228.5,138.5C 237.599,137.859 246.599,137.192 255.5,136.5 Z"/></g>
<g><path style="opacity:1" fill="#914063" d="M 195.5,128.5 C 206.644,142.102 216.311,156.768 224.5,172.5C 219.533,177.459 214.2,182.126 208.5,186.5C 206.213,182.878 203.547,179.545 200.5,176.5C 198.085,172.578 195.085,169.078 191.5,166C 185.638,160.967 179.971,155.801 174.5,150.5C 180.798,142.534 187.798,135.201 195.5,128.5 Z"/></g>
<g><path style="opacity:1" fill="#914164" d="M 315.5,139.5 C 314.223,150.998 310.556,161.665 304.5,171.5C 302.806,172.527 301.473,173.861 300.5,175.5C 281.833,174.167 263.167,174.167 244.5,175.5C 241.998,173.83 239.998,171.664 238.5,169C 237.207,168.51 235.873,168.343 234.5,168.5C 235.263,167.732 236.263,167.232 237.5,167C 233.552,159.992 230.886,152.492 229.5,144.5C 241.162,153.109 254.329,157.443 269,157.5C 287.036,157.721 302.536,151.721 315.5,139.5 Z"/></g>
<g><path style="opacity:1" fill="#7d324b" d="M 234.5,168.5 C 235.873,168.343 237.207,168.51 238.5,169C 239.998,171.664 241.998,173.83 244.5,175.5C 253.942,187.549 266.275,192.383 281.5,190C 289.342,187.086 295.675,182.253 300.5,175.5C 301.473,173.861 302.806,172.527 304.5,171.5C 307.102,181.754 312.769,189.754 321.5,195.5C 314.235,197.009 306.902,198.842 299.5,201C 292.515,203.606 285.515,206.106 278.5,208.5C 272.3,207.065 266.3,205.065 260.5,202.5C 253.942,198.122 247.776,193.122 242,187.5C 237.648,182.113 233.815,176.447 230.5,170.5C 231.514,169.326 232.847,168.66 234.5,168.5 Z"/></g>
<g><path style="opacity:1" fill="#ad577c" d="M 230.5,170.5 C 233.815,176.447 237.648,182.113 242,187.5C 247.776,193.122 253.942,198.122 260.5,202.5C 250.171,202.951 239.838,203.284 229.5,203.5C 226.518,201.923 223.851,202.256 221.5,204.5C 209.154,204.982 196.821,205.649 184.5,206.5C 189.303,203.282 194.636,201.115 200.5,200C 202.787,195.257 205.454,190.757 208.5,186.5C 214.2,182.126 219.533,177.459 224.5,172.5C 226.5,171.833 228.5,171.167 230.5,170.5 Z"/></g>
<g><path style="opacity:1" fill="#9e4a6d" d="M 300.5,175.5 C 295.675,182.253 289.342,187.086 281.5,190C 266.275,192.383 253.942,187.549 244.5,175.5C 263.167,174.167 281.833,174.167 300.5,175.5 Z"/></g>
<g><path style="opacity:1" fill="#a65075" d="M 321.5,195.5 C 329.174,195.334 336.841,195.5 344.5,196C 349.723,196.611 354.057,198.778 357.5,202.5C 338.022,205.123 319.689,211.29 302.5,221C 297.167,224.333 291.833,227.667 286.5,231C 280.224,232.338 274.557,231.004 269.5,227C 255.61,219.897 242.277,212.063 229.5,203.5C 239.838,203.284 250.171,202.951 260.5,202.5C 266.3,205.065 272.3,207.065 278.5,208.5C 285.515,206.106 292.515,203.606 299.5,201C 306.902,198.842 314.235,197.009 321.5,195.5 Z"/></g>
<g><path style="opacity:1" fill="#7e324c" d="M 229.5,203.5 C 242.277,212.063 255.61,219.897 269.5,227C 274.557,231.004 280.224,232.338 286.5,231C 291.833,227.667 297.167,224.333 302.5,221C 319.689,211.29 338.022,205.123 357.5,202.5C 359.71,202.894 361.043,204.227 361.5,206.5C 361.586,207.496 361.252,208.329 360.5,209C 349.482,211.673 338.815,215.339 328.5,220C 314.241,227.955 300.241,236.121 286.5,244.5C 283.833,244.5 281.167,244.5 278.5,244.5C 258.268,234.613 239.601,222.28 222.5,207.5C 221.614,206.675 221.281,205.675 221.5,204.5C 223.851,202.256 226.518,201.923 229.5,203.5 Z"/></g>
<g><path style="opacity:1" fill="#a34e73" d="M 221.5,204.5 C 221.281,205.675 221.614,206.675 222.5,207.5C 239.601,222.28 258.268,234.613 278.5,244.5C 255.349,246.342 232.016,247.675 208.5,248.5C 198.99,243.245 189.324,238.245 179.5,233.5C 167.175,228.7 165.508,221.533 174.5,212C 177.727,209.888 181.06,208.055 184.5,206.5C 196.821,205.649 209.154,204.982 221.5,204.5 Z"/></g>
<g><path style="opacity:1" fill="#a04c70" d="M 361.5,206.5 C 367.101,208.878 372.768,211.378 378.5,214C 388.747,220.953 389.747,228.953 381.5,238C 378.568,239.145 375.568,239.978 372.5,240.5C 343.815,241.448 315.148,242.782 286.5,244.5C 300.241,236.121 314.241,227.955 328.5,220C 338.815,215.339 349.482,211.673 360.5,209C 361.252,208.329 361.586,207.496 361.5,206.5 Z"/></g>
<g><path style="opacity:1" fill="#d3716b" d="M 179.5,233.5 C 189.324,238.245 198.99,243.245 208.5,248.5C 211.009,249.921 213.343,251.588 215.5,253.5C 214.167,256.167 212.833,258.833 211.5,261.5C 201.003,254.522 190.336,247.689 179.5,241C 178.663,239.989 178.33,238.822 178.5,237.5C 178.833,236.167 179.167,234.833 179.5,233.5 Z"/></g>
<g><path style="opacity:1" fill="#9b4b69" d="M 372.5,240.5 C 372.5,240.833 372.5,241.167 372.5,241.5C 361.335,244.111 350.668,248.111 340.5,253.5C 340.083,252.876 339.416,252.543 338.5,252.5C 301.207,255.09 263.873,257.09 226.5,258.5C 222.684,257.091 219.017,255.424 215.5,253.5C 213.343,251.588 211.009,249.921 208.5,248.5C 232.016,247.675 255.349,246.342 278.5,244.5C 281.167,244.5 283.833,244.5 286.5,244.5C 315.148,242.782 343.815,241.448 372.5,240.5 Z"/></g>
<g><path style="opacity:1" fill="#d3706b" d="M 372.5,241.5 C 373.901,244.704 374.901,248.037 375.5,251.5C 371.687,252.16 368.021,253.326 364.5,255C 355.968,259.766 347.302,264.266 338.5,268.5C 338.167,268.5 337.833,268.5 337.5,268.5C 336.562,264.687 335.229,261.021 333.5,257.5C 335.793,256.172 338.127,254.839 340.5,253.5C 350.668,248.111 361.335,244.111 372.5,241.5 Z"/></g>
<g><path style="opacity:1" fill="#d9e1e7" d="M 477.5,304.5 C 467.867,303.087 458.2,301.754 448.5,300.5C 446.886,300.803 445.552,301.47 444.5,302.5C 448.04,275.655 449.04,248.988 447.5,222.5C 462.45,248.015 472.45,275.348 477.5,304.5 Z"/></g>
<g><path style="opacity:1" fill="#944367" d="M 340.5,253.5 C 338.127,254.839 335.793,256.172 333.5,257.5C 317.196,265.984 301.529,275.484 286.5,286C 280.138,289.257 273.805,289.257 267.5,286C 253.768,276.81 240.101,267.643 226.5,258.5C 263.873,257.09 301.207,255.09 338.5,252.5C 339.416,252.543 340.083,252.876 340.5,253.5 Z"/></g>
<g><path style="opacity:1" fill="#2c2b3e" d="M 215.5,253.5 C 219.017,255.424 222.684,257.091 226.5,258.5C 240.101,267.643 253.768,276.81 267.5,286C 273.805,289.257 280.138,289.257 286.5,286C 301.529,275.484 317.196,265.984 333.5,257.5C 335.229,261.021 336.562,264.687 337.5,268.5C 330.981,273.782 323.981,278.615 316.5,283C 308.5,289 300.5,295 292.5,301C 283.349,306.573 274.016,306.906 264.5,302C 247.238,288.231 229.572,275.065 211.5,262.5C 211.5,262.167 211.5,261.833 211.5,261.5C 212.833,258.833 214.167,256.167 215.5,253.5 Z"/></g>
<g><path style="opacity:1" fill="#e6c3bc" d="M 178.5,237.5 C 178.33,238.822 178.663,239.989 179.5,241C 190.336,247.689 201.003,254.522 211.5,261.5C 211.5,261.833 211.5,262.167 211.5,262.5C 210.737,264.368 209.737,266.035 208.5,267.5C 195.167,267.5 181.833,267.5 168.5,267.5C 170.457,256.963 173.79,246.963 178.5,237.5 Z"/></g>
<g><path style="opacity:1" fill="#e6bab2" d="M 375.5,251.5 C 378.963,262.143 381.297,273.143 382.5,284.5C 368.99,284.171 355.656,284.504 342.5,285.5C 341.039,279.984 339.706,274.317 338.5,268.5C 347.302,264.266 355.968,259.766 364.5,255C 368.021,253.326 371.687,252.16 375.5,251.5 Z"/></g>
<g><path style="opacity:1" fill="#d8e1e7" d="M 100.5,330.5 C 99.4855,331.765 97.9855,332.431 96,332.5C 83.8066,333.725 71.6399,335.059 59.5,336.5C 59.4981,297.179 67.9981,259.845 85,224.5C 85.645,260.516 90.8117,295.849 100.5,330.5 Z"/></g>
<g><path style="opacity:1" fill="#e6b5ad" d="M 168.5,267.5 C 181.833,267.5 195.167,267.5 208.5,267.5C 207.296,273.311 205.962,278.978 204.5,284.5C 191.754,284.813 179.087,284.48 166.5,283.5C 166.949,278.137 167.616,272.804 168.5,267.5 Z"/></g>
<g><path style="opacity:1" fill="#4c4c5e" d="M 211.5,262.5 C 229.572,275.065 247.238,288.231 264.5,302C 274.016,306.906 283.349,306.573 292.5,301C 300.5,295 308.5,289 316.5,283C 323.981,278.615 330.981,273.782 337.5,268.5C 337.833,268.5 338.167,268.5 338.5,268.5C 339.706,274.317 341.039,279.984 342.5,285.5C 342.5,290.833 342.5,296.167 342.5,301.5C 339.854,313.459 334.52,324.126 326.5,333.5C 290.606,331.099 254.606,329.765 218.5,329.5C 216.164,327.996 214.331,325.996 213,323.5C 210.178,318.196 207.678,312.863 205.5,307.5C 204.857,299.85 204.523,292.183 204.5,284.5C 205.962,278.978 207.296,273.311 208.5,267.5C 209.737,266.035 210.737,264.368 211.5,262.5 Z"/></g>
<g><path style="opacity:1" fill="#e6a398" d="M 166.5,283.5 C 179.087,284.48 191.754,284.813 204.5,284.5C 204.523,292.183 204.857,299.85 205.5,307.5C 205.5,310.833 205.5,314.167 205.5,317.5C 190.834,314.968 176.834,316.968 163.5,323.5C 163.584,310.075 164.584,296.742 166.5,283.5 Z"/></g>
<g><path style="opacity:1" fill="#e6a398" d="M 382.5,284.5 C 383.832,297.47 384.832,310.47 385.5,323.5C 378.7,320.771 371.7,318.605 364.5,317C 357.45,316.24 350.45,316.407 343.5,317.5C 343.313,312.155 342.98,306.822 342.5,301.5C 342.5,296.167 342.5,290.833 342.5,285.5C 355.656,284.504 368.99,284.171 382.5,284.5 Z"/></g>
<g><path style="opacity:1" fill="#e1e6e7" d="M 477.5,304.5 C 480.304,316.361 481.638,328.528 481.5,341C 481.602,349.284 480.935,357.45 479.5,365.5C 464.307,363.705 449.14,361.705 434,359.5C 433.098,359.743 432.265,360.077 431.5,360.5C 437.408,341.533 441.741,322.2 444.5,302.5C 445.552,301.47 446.886,300.803 448.5,300.5C 458.2,301.754 467.867,303.087 477.5,304.5 Z"/></g>
<g><path style="opacity:1" fill="#b96287" d="M 205.5,317.5 C 205.5,327.167 205.5,336.833 205.5,346.5C 192.129,340.626 178.129,337.959 163.5,338.5C 163.5,333.5 163.5,328.5 163.5,323.5C 176.834,316.968 190.834,314.968 205.5,317.5 Z"/></g>
<g><path style="opacity:1" fill="#b45c82" d="M 385.5,323.5 C 384.78,329.138 384.447,334.804 384.5,340.5C 371.467,334.76 357.8,332.094 343.5,332.5C 343.5,327.5 343.5,322.5 343.5,317.5C 350.45,316.407 357.45,316.24 364.5,317C 371.7,318.605 378.7,320.771 385.5,323.5 Z"/></g>
<g><path style="opacity:1" fill="#444456" d="M 218.5,329.5 C 254.606,329.765 290.606,331.099 326.5,333.5C 324.96,337.159 323.96,340.992 323.5,345C 324.318,350.471 324.652,355.971 324.5,361.5C 290.526,359.976 256.526,358.976 222.5,358.5C 222.666,351.492 222.5,344.492 222,337.5C 221.079,334.664 219.912,331.998 218.5,329.5 Z"/></g>
<g><path style="opacity:1" fill="#e1e6e7" d="M 100.5,330.5 C 109.176,357.519 120.843,383.186 135.5,407.5C 125.256,407.425 114.923,407.259 104.5,407C 89.1952,403.69 76.8619,395.857 67.5,383.5C 62.6064,368.252 59.9397,352.585 59.5,336.5C 71.6399,335.059 83.8066,333.725 96,332.5C 97.9855,332.431 99.4855,331.765 100.5,330.5 Z"/></g>
<g><path style="opacity:1" fill="#7e334c" d="M 343.5,332.5 C 357.8,332.094 371.467,334.76 384.5,340.5C 384.5,344.833 384.5,349.167 384.5,353.5C 371.97,345.922 358.303,342.255 343.5,342.5C 343.5,339.167 343.5,335.833 343.5,332.5 Z"/></g>
<g><path style="opacity:1" fill="#7f334d" d="M 163.5,338.5 C 178.129,337.959 192.129,340.626 205.5,346.5C 204.886,350.135 204.552,353.802 204.5,357.5C 197.098,354.311 189.431,351.811 181.5,350C 175.509,349.501 169.509,349.334 163.5,349.5C 163.5,345.833 163.5,342.167 163.5,338.5 Z"/></g>
<g><path style="opacity:1" fill="#ac567b" d="M 343.5,342.5 C 358.303,342.255 371.97,345.922 384.5,353.5C 384.5,355.5 384.5,357.5 384.5,359.5C 370.757,359.515 357.424,361.849 344.5,366.5C 343.724,358.525 343.39,350.525 343.5,342.5 Z"/></g>
<g><path style="opacity:1" fill="#ac557b" d="M 163.5,349.5 C 169.509,349.334 175.509,349.501 181.5,350C 189.431,351.811 197.098,354.311 204.5,357.5C 204.821,363.026 204.488,368.36 203.5,373.5C 203.5,372.167 203.5,370.833 203.5,369.5C 189.689,368.977 176.023,369.977 162.5,372.5C 162.596,364.821 162.93,357.154 163.5,349.5 Z"/></g>
<g><path style="opacity:1" fill="#3d3d50" d="M 222.5,358.5 C 256.526,358.976 290.526,359.976 324.5,361.5C 325.461,363.265 325.795,365.265 325.5,367.5C 310.986,379.26 295.32,389.26 278.5,397.5C 274.698,399.399 270.698,400.733 266.5,401.5C 250.509,393.509 235.176,384.509 220.5,374.5C 221.107,369.149 221.774,363.816 222.5,358.5 Z"/></g>
<g><path style="opacity:1" fill="#e6e6e7" d="M 479.5,365.5 C 478.733,374.561 476.733,383.227 473.5,391.5C 473.631,390.761 473.464,390.094 473,389.5C 455.811,405.342 435.644,411.009 412.5,406.5C 419.941,391.619 426.274,376.286 431.5,360.5C 432.265,360.077 433.098,359.743 434,359.5C 449.14,361.705 464.307,363.705 479.5,365.5 Z"/></g>
<g><path style="opacity:1" fill="#7f334d" d="M 384.5,359.5 C 384.423,363.215 384.756,366.881 385.5,370.5C 371.099,369.847 357.433,372.514 344.5,378.5C 344.5,374.5 344.5,370.5 344.5,366.5C 357.424,361.849 370.757,359.515 384.5,359.5 Z"/></g>
<g><path style="opacity:1" fill="#7d324b" d="M 203.5,373.5 C 203.5,375.5 203.5,377.5 203.5,379.5C 189.657,379.145 175.991,380.478 162.5,383.5C 162.5,381.833 162.5,380.167 162.5,378.5C 162.5,376.5 162.5,374.5 162.5,372.5C 176.023,369.977 189.689,368.977 203.5,369.5C 203.5,370.833 203.5,372.167 203.5,373.5 Z"/></g>
<g><path style="opacity:1" fill="#a14c70" d="M 385.5,370.5 C 385.686,379.542 386.352,388.542 387.5,397.5C 374.081,391.818 360.081,388.484 345.5,387.5C 345.736,384.391 345.403,381.391 344.5,378.5C 357.433,372.514 371.099,369.847 385.5,370.5 Z"/></g>
<g><path style="opacity:1" fill="#656597" d="M 325.5,367.5 C 330.863,375.549 335.863,383.882 340.5,392.5C 332.224,397.979 323.89,403.479 315.5,409C 310.757,412.038 305.757,414.538 300.5,416.5C 297.921,416.606 295.588,415.939 293.5,414.5C 289.811,413.055 286.145,411.388 282.5,409.5C 280.565,405.696 279.232,401.696 278.5,397.5C 295.32,389.26 310.986,379.26 325.5,367.5 Z"/></g>
<g><path style="opacity:1" fill="#7e324c" d="M 345.5,387.5 C 360.081,388.484 374.081,391.818 387.5,397.5C 388.08,401.81 388.414,406.143 388.5,410.5C 375.366,403.455 361.366,399.455 346.5,398.5C 346.448,394.802 346.114,391.135 345.5,387.5 Z"/></g>
<g><path style="opacity:1" fill="#9d4b6e" d="M 162.5,378.5 C 162.5,380.167 162.5,381.833 162.5,383.5C 175.991,380.478 189.657,379.145 203.5,379.5C 203.15,388.713 202.15,397.713 200.5,406.5C 188.383,399.684 175.383,395.684 161.5,394.5C 161.737,395.791 161.404,396.791 160.5,397.5C 160.868,390.992 161.535,384.658 162.5,378.5 Z"/></g>
<g><path style="opacity:1" fill="#38384b" d="M 340.5,392.5 C 342.265,395.709 344.265,398.709 346.5,401.5C 346.328,402.492 346.662,403.158 347.5,403.5C 352.104,414.377 356.437,425.377 360.5,436.5C 360.167,436.5 359.833,436.5 359.5,436.5C 351.906,434.51 344.239,432.51 336.5,430.5C 327.291,427.354 317.958,424.187 308.5,421C 305.367,420.14 302.7,418.64 300.5,416.5C 305.757,414.538 310.757,412.038 315.5,409C 323.89,403.479 332.224,397.979 340.5,392.5 Z"/></g>
<g><path style="opacity:1" fill="#656596" d="M 220.5,374.5 C 235.176,384.509 250.509,393.509 266.5,401.5C 268.481,403.144 270.481,404.81 272.5,406.5C 269.902,412.459 267.402,418.459 265,424.5C 264.502,426.544 263.335,427.878 261.5,428.5C 242.129,420.494 224.795,409.494 209.5,395.5C 212.389,388.054 216.056,381.054 220.5,374.5 Z"/></g>
<g><path style="opacity:1" fill="#7d324c" d="M 200.5,406.5 C 200.5,408.833 200.5,411.167 200.5,413.5C 199.167,414.5 199.167,415.5 200.5,416.5C 200.167,417.167 199.833,417.833 199.5,418.5C 188.327,411.104 175.994,406.437 162.5,404.5C 161.287,404.253 160.62,403.586 160.5,402.5C 160.5,400.833 160.5,399.167 160.5,397.5C 161.404,396.791 161.737,395.791 161.5,394.5C 175.383,395.684 188.383,399.684 200.5,406.5 Z"/></g>
<g><path style="opacity:1" fill="#38384b" d="M 209.5,395.5 C 224.795,409.494 242.129,420.494 261.5,428.5C 268.672,432.01 276.005,435.343 283.5,438.5C 296.79,444.486 310.457,449.486 324.5,453.5C 332.603,456.615 340.937,459.281 349.5,461.5C 355.134,463.918 361.134,465.751 367.5,467C 364.081,467.248 360.747,467.748 357.5,468.5C 338.833,468.5 320.167,468.5 301.5,468.5C 285.734,467.69 270.067,466.023 254.5,463.5C 244.816,461.711 235.15,459.378 225.5,456.5C 213.812,453.493 202.478,449.493 191.5,444.5C 191.328,443.508 191.662,442.842 192.5,442.5C 210.973,443.128 229.307,440.961 247.5,436C 238.628,430.395 230.294,424.061 222.5,417C 214.87,417.8 207.204,418.634 199.5,419.5C 199.5,419.167 199.5,418.833 199.5,418.5C 199.833,417.833 200.167,417.167 200.5,416.5C 200.5,415.5 200.5,414.5 200.5,413.5C 203.5,407.5 206.5,401.5 209.5,395.5 Z"/></g>
<g><path style="opacity:1" fill="#5c5c8d" d="M 278.5,397.5 C 279.232,401.696 280.565,405.696 282.5,409.5C 286.145,411.388 289.811,413.055 293.5,414.5C 289.591,422.218 286.258,430.218 283.5,438.5C 276.005,435.343 268.672,432.01 261.5,428.5C 263.335,427.878 264.502,426.544 265,424.5C 267.402,418.459 269.902,412.459 272.5,406.5C 270.481,404.81 268.481,403.144 266.5,401.5C 270.698,400.733 274.698,399.399 278.5,397.5 Z"/></g>
<g><path style="opacity:1" fill="#96afe1" d="M 67.5,383.5 C 76.8619,395.857 89.1952,403.69 104.5,407C 114.923,407.259 125.256,407.425 135.5,407.5C 140.776,415.711 146.776,423.377 153.5,430.5C 150.292,439.911 146.292,448.911 141.5,457.5C 128.318,437.887 109.984,425.72 86.5,421C 77.9217,409.677 71.5884,397.177 67.5,383.5 Z"/></g>
<g><path style="opacity:1" fill="#96afe1" d="M 473.5,391.5 C 471.041,400.753 467.208,409.42 462,417.5C 438.304,424.711 420.471,439.044 408.5,460.5C 403.422,451.673 399.422,442.339 396.5,432.5C 401.848,423.797 407.181,415.131 412.5,406.5C 435.644,411.009 455.811,405.342 473,389.5C 473.464,390.094 473.631,390.761 473.5,391.5 Z"/></g>
<g><path style="opacity:1" fill="#954467" d="M 346.5,398.5 C 361.366,399.455 375.366,403.455 388.5,410.5C 389.687,413.946 390.354,417.613 390.5,421.5C 387.125,427.049 383.125,432.216 378.5,437C 374.193,440.483 369.527,443.317 364.5,445.5C 363.167,442.5 361.833,439.5 360.5,436.5C 356.437,425.377 352.104,414.377 347.5,403.5C 347.672,402.508 347.338,401.842 346.5,401.5C 346.5,400.5 346.5,399.5 346.5,398.5 Z"/></g>
<g><path style="opacity:1" fill="#914163" d="M 160.5,402.5 C 160.62,403.586 161.287,404.253 162.5,404.5C 175.994,406.437 188.327,411.104 199.5,418.5C 199.5,418.833 199.5,419.167 199.5,419.5C 196.594,426.891 194.261,434.558 192.5,442.5C 191.662,442.842 191.328,443.508 191.5,444.5C 191.443,445.609 191.11,446.609 190.5,447.5C 175.578,443.581 164.912,434.581 158.5,420.5C 158.652,414.301 159.318,408.301 160.5,402.5 Z"/></g>
<g><path style="opacity:1" fill="#545483" d="M 293.5,414.5 C 295.588,415.939 297.921,416.606 300.5,416.5C 302.7,418.64 305.367,420.14 308.5,421C 317.958,424.187 327.291,427.354 336.5,430.5C 335.325,430.281 334.325,430.614 333.5,431.5C 330.492,438.862 327.492,446.196 324.5,453.5C 310.457,449.486 296.79,444.486 283.5,438.5C 286.258,430.218 289.591,422.218 293.5,414.5 Z"/></g>
<g><path style="opacity:1" fill="#4d4d7a" d="M 192.5,442.5 C 194.261,434.558 196.594,426.891 199.5,419.5C 207.204,418.634 214.87,417.8 222.5,417C 230.294,424.061 238.628,430.395 247.5,436C 229.307,440.961 210.973,443.128 192.5,442.5 Z"/></g>
<g><path style="opacity:1" fill="#4a4a77" d="M 336.5,430.5 C 344.239,432.51 351.906,434.51 359.5,436.5C 355.777,444.669 352.443,453.002 349.5,461.5C 340.937,459.281 332.603,456.615 324.5,453.5C 327.492,446.196 330.492,438.862 333.5,431.5C 334.325,430.614 335.325,430.281 336.5,430.5 Z"/></g>
<g><path style="opacity:1" fill="#6a6a9b" d="M 191.5,444.5 C 202.478,449.493 213.812,453.493 225.5,456.5C 220.633,469.102 215.966,481.768 211.5,494.5C 202.167,494.5 192.833,494.5 183.5,494.5C 183.612,487.82 183.946,481.153 184.5,474.5C 185.793,471.321 186.46,467.988 186.5,464.5C 187.961,458.984 189.294,453.317 190.5,447.5C 191.11,446.609 191.443,445.609 191.5,444.5 Z"/></g>
<g><path style="opacity:1" fill="#e6b8af" d="M 158.5,420.5 C 164.912,434.581 175.578,443.581 190.5,447.5C 189.294,453.317 187.961,458.984 186.5,464.5C 186.5,463.5 186.5,462.5 186.5,461.5C 170.991,461.83 155.658,461.496 140.5,460.5C 140.557,459.391 140.89,458.391 141.5,457.5C 146.292,448.911 150.292,439.911 153.5,430.5C 154.797,426.917 156.463,423.584 158.5,420.5 Z"/></g>
<g><path style="opacity:1" fill="#e6b8b1" d="M 390.5,421.5 C 392.769,425.038 394.769,428.705 396.5,432.5C 399.422,442.339 403.422,451.673 408.5,460.5C 408.5,460.833 408.5,461.167 408.5,461.5C 395.167,461.5 381.833,461.5 368.5,461.5C 368.5,462.5 368.5,463.5 368.5,464.5C 367.189,458.287 365.856,451.953 364.5,445.5C 369.527,443.317 374.193,440.483 378.5,437C 383.125,432.216 387.125,427.049 390.5,421.5 Z"/></g>
<g><path style="opacity:1" fill="#636394" d="M 225.5,456.5 C 235.15,459.378 244.816,461.711 254.5,463.5C 253.25,463.577 252.417,464.244 252,465.5C 248.598,474.539 245.098,483.539 241.5,492.5C 242.949,493.172 244.282,493.839 245.5,494.5C 234.167,494.5 222.833,494.5 211.5,494.5C 215.966,481.768 220.633,469.102 225.5,456.5 Z"/></g>
<g><path style="opacity:1" fill="#5a5a8a" d="M 254.5,463.5 C 270.067,466.023 285.734,467.69 301.5,468.5C 298.928,476.813 295.928,484.98 292.5,493C 294.058,493.21 295.391,493.71 296.5,494.5C 279.5,494.5 262.5,494.5 245.5,494.5C 244.282,493.839 242.949,493.172 241.5,492.5C 245.098,483.539 248.598,474.539 252,465.5C 252.417,464.244 253.25,463.577 254.5,463.5 Z"/></g>
<g><path style="opacity:1" fill="#e6c0b9" d="M 140.5,460.5 C 155.658,461.496 170.991,461.83 186.5,461.5C 186.5,462.5 186.5,463.5 186.5,464.5C 186.46,467.988 185.793,471.321 184.5,474.5C 169.5,474.5 154.5,474.5 139.5,474.5C 138.839,472.866 138.506,471.033 138.5,469C 138.36,465.85 139.027,463.017 140.5,460.5 Z"/></g>
<g><path style="opacity:1" fill="#e6c0b9" d="M 408.5,461.5 C 410.489,465.402 410.823,469.402 409.5,473.5C 396.246,474.481 382.913,474.814 369.5,474.5C 368.676,471.236 368.342,467.902 368.5,464.5C 368.5,463.5 368.5,462.5 368.5,461.5C 381.833,461.5 395.167,461.5 408.5,461.5 Z"/></g>
<g><path style="opacity:1" fill="#454476" d="M 359.5,436.5 C 359.833,436.5 360.167,436.5 360.5,436.5C 361.833,439.5 363.167,442.5 364.5,445.5C 365.856,451.953 367.189,458.287 368.5,464.5C 368.342,467.902 368.676,471.236 369.5,474.5C 369.5,477.167 369.5,479.833 369.5,482.5C 369.5,486.167 369.5,489.833 369.5,493.5C 367.167,493.5 364.833,493.5 362.5,493.5C 357.833,493.5 353.167,493.5 348.5,493.5C 351.299,485.102 354.299,476.769 357.5,468.5C 360.747,467.748 364.081,467.248 367.5,467C 361.134,465.751 355.134,463.918 349.5,461.5C 352.443,453.002 355.777,444.669 359.5,436.5 Z"/></g>
<g><path style="opacity:1" fill="#4e4e7b" d="M 301.5,468.5 C 320.167,468.5 338.833,468.5 357.5,468.5C 354.299,476.769 351.299,485.102 348.5,493.5C 353.167,493.5 357.833,493.5 362.5,493.5C 362.5,493.833 362.5,494.167 362.5,494.5C 340.5,494.5 318.5,494.5 296.5,494.5C 295.391,493.71 294.058,493.21 292.5,493C 295.928,484.98 298.928,476.813 301.5,468.5 Z"/></g>
<g><path style="opacity:1" fill="#e6c8c1" d="M 139.5,474.5 C 154.5,474.5 169.5,474.5 184.5,474.5C 183.946,481.153 183.612,487.82 183.5,494.5C 171.252,495.252 159.585,493.085 148.5,488C 143.641,484.658 140.641,480.158 139.5,474.5 Z"/></g>
<g><path style="opacity:1" fill="#e7c8c1" d="M 409.5,473.5 C 406.36,485.103 398.693,491.603 386.5,493C 381.192,493.83 375.859,494.33 370.5,494.5C 370.817,490.298 370.483,486.298 369.5,482.5C 369.5,479.833 369.5,477.167 369.5,474.5C 382.913,474.814 396.246,474.481 409.5,473.5 Z"/></g>
<g><path style="opacity:1" fill="#9d8ca0" d="M 369.5,482.5 C 370.483,486.298 370.817,490.298 370.5,494.5C 367.833,494.5 365.167,494.5 362.5,494.5C 362.5,494.167 362.5,493.833 362.5,493.5C 364.833,493.5 367.167,493.5 369.5,493.5C 369.5,489.833 369.5,486.167 369.5,482.5 Z"/></g>
</svg>
