<?xml version="1.0" encoding="UTF-8"?>
<!DOCTYPE svg PUBLIC "-//W3C//DTD SVG 1.1//EN" "http://www.w3.org/Graphics/SVG/1.1/DTD/svg11.dtd">
<svg xmlns="http://www.w3.org/2000/svg" version="1.1" width="512px" height="512px" style="shape-rendering:geometricPrecision; text-rendering:geometricPrecision; image-rendering:optimizeQuality; fill-rule:evenodd; clip-rule:evenodd" xmlns:xlink="http://www.w3.org/1999/xlink">
<g><path style="opacity:1" fill="#3f3e51" d="M 218.5,163.5 C 216.532,164.819 214.532,164.819 212.5,163.5C 207.91,157.311 203.576,150.978 199.5,144.5C 190.935,131.934 181.268,120.267 170.5,109.5C 164.07,101.281 156.737,93.9473 148.5,87.5C 142.146,81.8171 135.48,76.4838 128.5,71.5C 120.647,65.4075 112.314,60.0741 103.5,55.5C 83.3204,43.3318 61.8204,33.9985 39,27.5C 40.8321,48.33 48.1655,66.9967 61,83.5C 64.0628,86.0755 67.2295,88.4088 70.5,90.5C 79.6905,95.1236 89.3572,98.7903 99.5,101.5C 107.436,105.132 115.436,108.798 123.5,112.5C 133.825,117.66 143.825,123.327 153.5,129.5C 165.094,137.752 176.427,146.419 187.5,155.5C 189.5,157.833 191.5,160.167 193.5,162.5C 188.968,162.182 184.634,162.515 180.5,163.5C 176.041,160.213 171.708,156.713 167.5,153C 148.395,150.026 130.395,153.36 113.5,163C 97.6073,168.632 82.274,167.466 67.5,159.5C 66.913,160.233 66.913,161.233 67.5,162.5C 63.6002,161.57 59.6002,161.237 55.5,161.5C 53.9414,155.248 53.4414,148.915 54,142.5C 55.47,140.848 57.3033,139.848 59.5,139.5C 64.7199,144.212 70.3866,148.379 76.5,152C 85.9579,155.719 95.6246,156.386 105.5,154C 114.01,150.274 122.677,146.941 131.5,144C 137.746,142.459 144.079,141.459 150.5,141C 139.156,132.991 127.156,125.991 114.5,120C 98.3128,113.271 81.9795,106.938 65.5,101C 51.7146,91.2945 41.8813,78.4612 36,62.5C 29.5964,48.1499 26.9297,33.1499 28,17.5C 29.4733,15.9929 31.3066,15.3262 33.5,15.5C 81.0721,27.4489 123.072,49.6156 159.5,82C 182.348,103.498 202.182,127.331 219,153.5C 221.145,157.137 220.978,160.47 218.5,163.5 Z"/></g>
<g><path style="opacity:1" fill="#3f3e51" d="M 421.5,165.5 C 417.833,165.5 414.167,165.5 410.5,165.5C 406.448,155.522 403.782,145.188 402.5,134.5C 402.828,122.655 402.495,110.988 401.5,99.5C 401.376,85.2175 398.71,71.5509 393.5,58.5C 390.679,48.3571 385.012,40.1904 376.5,34C 361.899,28.6337 352.232,33.467 347.5,48.5C 355.023,49.3673 359.69,53.3673 361.5,60.5C 361.965,64.7924 361.132,68.7924 359,72.5C 354.742,75.3804 350.242,77.8804 345.5,80C 344.619,80.7083 343.953,81.5416 343.5,82.5C 338.563,84.6371 333.896,87.3038 329.5,90.5C 328.708,100.214 327.541,109.88 326,119.5C 325.047,121.455 323.713,123.122 322,124.5C 320.958,133.212 319.625,141.878 318,150.5C 316.829,155.857 314.996,160.857 312.5,165.5C 309.038,164.518 305.371,164.185 301.5,164.5C 302.961,161.606 303.794,158.606 304,155.5C 288.743,163.199 272.577,165.699 255.5,163C 249.715,161.961 244.215,160.127 239,157.5C 239.15,159.506 239.65,161.506 240.5,163.5C 236.833,163.5 233.167,163.5 229.5,163.5C 227.672,160.865 226.505,157.865 226,154.5C 223.899,144.562 222.233,134.562 221,124.5C 216.237,122.738 213.237,119.404 212,114.5C 206.777,88.1732 213.943,66.0066 233.5,48C 257.585,31.7446 281.919,31.4113 306.5,47C 309.833,50.3333 313.167,53.6667 316.5,57C 323.378,57.1148 330.045,55.9481 336.5,53.5C 338.904,28.915 352.238,18.415 376.5,22C 388.365,27.8716 396.865,37.0383 402,49.5C 407.533,62.9655 410.866,76.9655 412,91.5C 412.216,106.524 412.883,121.524 414,136.5C 415.411,146.479 417.911,156.146 421.5,165.5 Z"/></g>
<g><path style="opacity:1" fill="#cc759b" d="M 103.5,55.5 C 91.3916,65.7743 80.0583,76.9409 69.5,89C 70.056,89.3826 70.3893,89.8826 70.5,90.5C 67.2295,88.4088 64.0628,86.0755 61,83.5C 48.1655,66.9967 40.8321,48.33 39,27.5C 61.8204,33.9985 83.3204,43.3318 103.5,55.5 Z"/></g>
<g><path style="opacity:1" fill="#e4f1f7" d="M 393.5,58.5 C 392.77,60.045 391.437,60.8784 389.5,61C 380.502,62.2497 371.502,63.4164 362.5,64.5C 362.768,62.901 362.434,61.5676 361.5,60.5C 359.69,53.3673 355.023,49.3673 347.5,48.5C 352.232,33.467 361.899,28.6337 376.5,34C 385.012,40.1904 390.679,48.3571 393.5,58.5 Z"/></g>
<g><path style="opacity:1" fill="#c76f95" d="M 103.5,55.5 C 112.314,60.0741 120.647,65.4075 128.5,71.5C 118.824,81.5422 109.158,91.5422 99.5,101.5C 89.3572,98.7903 79.6905,95.1236 70.5,90.5C 70.3893,89.8826 70.056,89.3826 69.5,89C 80.0583,76.9409 91.3916,65.7743 103.5,55.5 Z"/></g>
<g><path style="opacity:1" fill="#e0edf3" d="M 314.5,77.5 C 307.03,78.831 299.196,79.4977 291,79.5C 268.837,80.1356 246.671,80.4689 224.5,80.5C 232.117,58.9008 247.45,47.5675 270.5,46.5C 286.988,46.8161 300.154,53.4828 310,66.5C 312.072,69.9712 313.572,73.6379 314.5,77.5 Z"/></g>
<g><path style="opacity:1" fill="#bf698e" d="M 128.5,71.5 C 135.48,76.4838 142.146,81.8171 148.5,87.5C 139.833,95.5 131.5,103.833 123.5,112.5C 115.436,108.798 107.436,105.132 99.5,101.5C 109.158,91.5422 118.824,81.5422 128.5,71.5 Z"/></g>
<g><path style="opacity:1" fill="#d7e3eb" d="M 314.5,77.5 C 315.776,79.5625 316.61,81.8958 317,84.5C 317.499,89.1548 317.666,93.8215 317.5,98.5C 300.825,98.5104 284.159,98.8437 267.5,99.5C 262.335,94.359 258.001,88.5257 254.5,82C 252.5,81.3333 250.5,81.3333 248.5,82C 244.43,89.7418 239.93,97.2418 235,104.5C 231.697,108.883 227.531,111.883 222.5,113.5C 221.545,105.186 221.378,96.8522 222,88.5C 222.279,85.5432 223.113,82.8766 224.5,80.5C 246.671,80.4689 268.837,80.1356 291,79.5C 299.196,79.4977 307.03,78.831 314.5,77.5 Z"/></g>
<g><path style="opacity:1" fill="#b76387" d="M 148.5,87.5 C 156.737,93.9473 164.07,101.281 170.5,109.5C 165.536,114.965 160.37,120.298 155,125.5C 154.209,126.745 153.709,128.078 153.5,129.5C 143.825,123.327 133.825,117.66 123.5,112.5C 131.5,103.833 139.833,95.5 148.5,87.5 Z"/></g>
<g><path style="opacity:1" fill="#dbe7ee" d="M 393.5,58.5 C 398.71,71.5509 401.376,85.2175 401.5,99.5C 401.5,101.833 401.5,104.167 401.5,106.5C 386.876,108.78 372.209,110.78 357.5,112.5C 354.737,105.467 352.57,98.1336 351,90.5C 348.955,89.0735 346.788,88.0735 344.5,87.5C 344.371,85.7839 344.038,84.1172 343.5,82.5C 343.953,81.5416 344.619,80.7083 345.5,80C 350.242,77.8804 354.742,75.3804 359,72.5C 361.132,68.7924 361.965,64.7924 361.5,60.5C 362.434,61.5676 362.768,62.901 362.5,64.5C 371.502,63.4164 380.502,62.2497 389.5,61C 391.437,60.8784 392.77,60.045 393.5,58.5 Z"/></g>
<g><path style="opacity:1" fill="#404052" d="M 344.5,87.5 C 346.788,88.0735 348.955,89.0735 351,90.5C 352.57,98.1336 354.737,105.467 357.5,112.5C 358.099,115.963 359.099,119.296 360.5,122.5C 362.639,128.112 365.306,133.446 368.5,138.5C 374.38,148.71 381.713,157.71 390.5,165.5C 385.637,165.181 380.97,165.514 376.5,166.5C 356.341,145.175 344.507,119.842 341,90.5C 342.039,89.2899 343.206,88.2899 344.5,87.5 Z"/></g>
<g><path style="opacity:1" fill="#dd827d" d="M 294.5,125.5 C 278.643,125.566 264.643,120.566 252.5,110.5C 246.445,116.56 240.111,122.226 233.5,127.5C 232.371,125.372 232.204,123.039 233,120.5C 240.843,113.998 247.177,106.332 252,97.5C 262.84,111.833 277.007,121.166 294.5,125.5 Z"/></g>
<g><path style="opacity:1" fill="#d1dee8" d="M 317.5,98.5 C 317.224,104.547 316.557,110.547 315.5,116.5C 296.969,117.547 280.969,111.88 267.5,99.5C 284.159,98.8437 300.825,98.5104 317.5,98.5 Z"/></g>
<g><path style="opacity:1" fill="#d3e0ec" d="M 401.5,106.5 C 401.5,109.833 401.5,113.167 401.5,116.5C 387.824,118.501 374.157,120.501 360.5,122.5C 359.099,119.296 358.099,115.963 357.5,112.5C 372.209,110.78 386.876,108.78 401.5,106.5 Z"/></g>
<g><path style="opacity:1" fill="#ad5b7f" d="M 170.5,109.5 C 181.268,120.267 190.935,131.934 199.5,144.5C 194.869,147.464 190.869,151.131 187.5,155.5C 176.427,146.419 165.094,137.752 153.5,129.5C 153.709,128.078 154.209,126.745 155,125.5C 160.37,120.298 165.536,114.965 170.5,109.5 Z"/></g>
<g><path style="opacity:1" fill="#cfdce3" d="M 401.5,99.5 C 402.495,110.988 402.828,122.655 402.5,134.5C 391.156,135.74 379.823,137.073 368.5,138.5C 365.306,133.446 362.639,128.112 360.5,122.5C 374.157,120.501 387.824,118.501 401.5,116.5C 401.5,113.167 401.5,109.833 401.5,106.5C 401.5,104.167 401.5,101.833 401.5,99.5 Z"/></g>
<g><path style="opacity:1" fill="#f9cbc2" d="M 294.5,125.5 C 299.813,126.098 305.146,126.431 310.5,126.5C 311.783,134.845 308.783,140.845 301.5,144.5C 279.281,143.089 256.948,142.089 234.5,141.5C 233.686,136.881 233.353,132.214 233.5,127.5C 240.111,122.226 246.445,116.56 252.5,110.5C 264.643,120.566 278.643,125.566 294.5,125.5 Z"/></g>
<g><path style="opacity:1" fill="#e38681" d="M 251.5,129.5 C 255.79,128.987 259.623,129.987 263,132.5C 264.416,136.508 263.082,138.841 259,139.5C 256.044,139.053 253.211,138.22 250.5,137C 249.083,134.257 249.416,131.757 251.5,129.5 Z"/></g>
<g><path style="opacity:1" fill="#e28680" d="M 283.5,129.5 C 285.857,129.337 288.19,129.503 290.5,130C 293.25,133.012 292.917,135.679 289.5,138C 286.515,138.868 283.515,139.201 280.5,139C 277.305,134.462 278.305,131.295 283.5,129.5 Z"/></g>
<g><path style="opacity:1" fill="#c9d5e1" d="M 402.5,134.5 C 403.782,145.188 406.448,155.522 410.5,165.5C 412.295,170.423 414.628,175.09 417.5,179.5C 413.035,179.176 408.701,177.676 404.5,175C 399.631,172.071 394.965,168.904 390.5,165.5C 381.713,157.71 374.38,148.71 368.5,138.5C 379.823,137.073 391.156,135.74 402.5,134.5 Z"/></g>
<g><path style="opacity:1" fill="#f6bdb4" d="M 234.5,141.5 C 256.948,142.089 279.281,143.089 301.5,144.5C 291.775,150.976 280.942,153.976 269,153.5C 256.767,153.984 245.6,150.818 235.5,144C 234.748,143.329 234.414,142.496 234.5,141.5 Z"/></g>
<g><path style="opacity:1" fill="#8d435c" d="M 180.5,163.5 C 180.953,164.458 181.619,165.292 182.5,166C 169.506,164.283 156.839,165.616 144.5,170C 135.167,175.667 125.833,181.333 116.5,187C 92.2363,194.868 75.903,186.702 67.5,162.5C 66.913,161.233 66.913,160.233 67.5,159.5C 82.274,167.466 97.6073,168.632 113.5,163C 130.395,153.36 148.395,150.026 167.5,153C 171.708,156.713 176.041,160.213 180.5,163.5 Z"/></g>
<g><path style="opacity:1" fill="#a15273" d="M 199.5,144.5 C 203.576,150.978 207.91,157.311 212.5,163.5C 214.532,164.819 216.532,164.819 218.5,163.5C 219.846,165.537 221.18,167.537 222.5,169.5C 218.836,173.157 214.836,176.491 210.5,179.5C 205.173,173.506 199.506,167.839 193.5,162.5C 191.5,160.167 189.5,157.833 187.5,155.5C 190.869,151.131 194.869,147.464 199.5,144.5 Z"/></g>
<g><path style="opacity:1" fill="#3e3e4b" d="M 55.5,161.5 C 59.6002,161.237 63.6002,161.57 67.5,162.5C 75.903,186.702 92.2363,194.868 116.5,187C 125.833,181.333 135.167,175.667 144.5,170C 156.839,165.616 169.506,164.283 182.5,166C 181.619,165.292 180.953,164.458 180.5,163.5C 184.634,162.515 188.968,162.182 193.5,162.5C 199.506,167.839 205.173,173.506 210.5,179.5C 214.836,176.491 218.836,173.157 222.5,169.5C 225.987,168.625 228.321,166.625 229.5,163.5C 233.167,163.5 236.833,163.5 240.5,163.5C 247.377,176.356 258.044,184.356 272.5,187.5C 286.02,184.642 295.687,176.976 301.5,164.5C 305.371,164.185 309.038,164.518 312.5,165.5C 311.955,167.593 311.122,169.593 310,171.5C 310.434,179.527 313.934,186.027 320.5,191C 333.895,189.342 346.562,191.676 358.5,198C 360.688,200.188 362.855,202.355 365,204.5C 374.696,206.507 382.363,211.507 388,219.5C 388.813,221.436 389.313,223.436 389.5,225.5C 386.167,225.5 382.833,225.5 379.5,225.5C 379.768,227.099 379.434,228.432 378.5,229.5C 379.226,225.74 377.893,223.073 374.5,221.5C 370.34,218.004 365.506,215.671 360,214.5C 350.386,216.903 341.22,220.237 332.5,224.5C 329.487,224.893 326.82,224.226 324.5,222.5C 324.244,220.208 324.577,218.041 325.5,216C 333.594,212.079 341.928,208.746 350.5,206C 348.807,205.153 347.14,204.32 345.5,203.5C 340.448,202.113 335.282,201.446 330,201.5C 318.24,203.135 306.406,203.801 294.5,203.5C 277.189,202.118 261.189,196.618 246.5,187C 242.797,183.633 239.464,179.966 236.5,176C 235.251,175.26 234.251,175.427 233.5,176.5C 223.596,180.799 215.596,187.465 209.5,196.5C 214.823,198.831 220.157,201.164 225.5,203.5C 233.882,210.55 242.548,217.216 251.5,223.5C 245.833,223.5 240.167,223.5 234.5,223.5C 233.167,222.833 231.833,222.167 230.5,221.5C 223.064,213.528 213.898,208.528 203,206.5C 192.066,208.545 182.9,213.545 175.5,221.5C 171.936,222.423 168.269,222.756 164.5,222.5C 164.58,216.84 166.913,212.34 171.5,209C 179.569,203.049 188.402,198.549 198,195.5C 199.123,192.751 200.623,190.251 202.5,188C 201.167,186.333 199.833,184.667 198.5,183C 179.277,174.055 160.277,174.388 141.5,184C 131.292,192.603 119.626,198.27 106.5,201C 89.2716,202.3 75.4382,196.133 65,182.5C 60.9621,175.883 57.7954,168.883 55.5,161.5 Z"/></g>
<g><path style="opacity:1" fill="#3e3e4b" d="M 390.5,165.5 C 394.965,168.904 399.631,172.071 404.5,175C 408.701,177.676 413.035,179.176 417.5,179.5C 414.628,175.09 412.295,170.423 410.5,165.5C 414.167,165.5 417.833,165.5 421.5,165.5C 425.429,173.986 431.262,180.986 439,186.5C 440.989,192.118 439.155,195.118 433.5,195.5C 410.986,192.411 391.986,182.744 376.5,166.5C 380.97,165.514 385.637,165.181 390.5,165.5 Z"/></g>
<g><path style="opacity:1" fill="#8e445d" d="M 294.5,203.5 C 288.847,205.077 283.347,207.077 278,209.5C 258.443,204.764 243.609,193.764 233.5,176.5C 234.251,175.427 235.251,175.26 236.5,176C 239.464,179.966 242.797,183.633 246.5,187C 261.189,196.618 277.189,202.118 294.5,203.5 Z"/></g>
<g><path style="opacity:1" fill="#a8587a" d="M 301.5,164.5 C 295.687,176.976 286.02,184.642 272.5,187.5C 258.044,184.356 247.377,176.356 240.5,163.5C 239.65,161.506 239.15,159.506 239,157.5C 244.215,160.127 249.715,161.961 255.5,163C 272.577,165.699 288.743,163.199 304,155.5C 303.794,158.606 302.961,161.606 301.5,164.5 Z"/></g>
<g><path style="opacity:1" fill="#87435b" d="M 300.5,183.5 C 302.441,186.459 304.441,189.459 306.5,192.5C 301.142,193.696 295.809,193.529 290.5,192C 294.09,189.386 297.424,186.552 300.5,183.5 Z"/></g>
<g><path style="opacity:1" fill="#b96488" d="M 233.5,176.5 C 243.609,193.764 258.443,204.764 278,209.5C 283.347,207.077 288.847,205.077 294.5,203.5C 306.406,203.801 318.24,203.135 330,201.5C 335.282,201.446 340.448,202.113 345.5,203.5C 324.379,209.392 304.712,218.559 286.5,231C 282.833,233 279.167,233 275.5,231C 258.926,221.576 242.26,212.409 225.5,203.5C 220.157,201.164 214.823,198.831 209.5,196.5C 215.596,187.465 223.596,180.799 233.5,176.5 Z"/></g>
<g><path style="opacity:1" fill="#8e445d" d="M 225.5,203.5 C 242.26,212.409 258.926,221.576 275.5,231C 279.167,233 282.833,233 286.5,231C 304.712,218.559 324.379,209.392 345.5,203.5C 347.14,204.32 348.807,205.153 350.5,206C 341.928,208.746 333.594,212.079 325.5,216C 324.577,218.041 324.244,220.208 324.5,222.5C 320.345,223.742 316.678,225.742 313.5,228.5C 309.945,224.768 305.945,224.601 301.5,228C 299.163,230.194 298.83,232.694 300.5,235.5C 298.5,237.167 296.5,238.833 294.5,240.5C 292.685,241.63 290.685,242.296 288.5,242.5C 275.702,236.935 263.368,230.602 251.5,223.5C 242.548,217.216 233.882,210.55 225.5,203.5 Z"/></g>
<g><path style="opacity:1" fill="#b76388" d="M 230.5,221.5 C 213.174,223.236 195.841,224.903 178.5,226.5C 176.273,225.599 175.273,223.933 175.5,221.5C 182.9,213.545 192.066,208.545 203,206.5C 213.898,208.528 223.064,213.528 230.5,221.5 Z"/></g>
<g><path style="opacity:1" fill="#b16281" d="M 374.5,221.5 C 360.685,222.984 346.685,223.984 332.5,224.5C 341.22,220.237 350.386,216.903 360,214.5C 365.506,215.671 370.34,218.004 374.5,221.5 Z"/></g>
<g><path style="opacity:1" fill="#38384b" d="M 107.5,325.5 C 103.5,325.5 99.5,325.5 95.5,325.5C 89.3805,303.213 85.3805,280.547 83.5,257.5C 83.6633,255.143 83.4966,252.81 83,250.5C 81.9614,251.244 81.4614,252.244 81.5,253.5C 73.3161,276.443 68.6495,300.109 67.5,324.5C 64.1667,324.5 60.8333,324.5 57.5,324.5C 58.4613,287.485 67.4613,252.652 84.5,220C 87.2569,219.218 89.7569,219.718 92,221.5C 92.6513,256.895 97.818,291.562 107.5,325.5 Z"/></g>
<g><path style="opacity:1" fill="#b36382" d="M 230.5,221.5 C 231.833,222.167 233.167,222.833 234.5,223.5C 236.5,225.167 238.5,226.833 240.5,228.5C 225.371,230.309 210.038,231.475 194.5,232C 193.263,232.232 192.263,232.732 191.5,233.5C 186.973,231.405 182.639,229.072 178.5,226.5C 195.841,224.903 213.174,223.236 230.5,221.5 Z"/></g>
<g><path style="opacity:1" fill="#39384b" d="M 175.5,221.5 C 175.273,223.933 176.273,225.599 178.5,226.5C 182.639,229.072 186.973,231.405 191.5,233.5C 199.036,237.768 206.703,241.768 214.5,245.5C 219.545,249.195 224.878,252.528 230.5,255.5C 231.605,256.6 232.938,257.267 234.5,257.5C 239.96,261.402 245.627,265.069 251.5,268.5C 257.321,272.804 263.321,276.97 269.5,281C 274.624,283.07 279.624,282.736 284.5,280C 291.566,275.144 298.566,270.311 305.5,265.5C 312.996,262.255 319.996,258.255 326.5,253.5C 328.954,252.773 331.287,251.773 333.5,250.5C 342.898,246.132 352.231,241.799 361.5,237.5C 366.571,236.31 371.571,234.81 376.5,233C 377.823,232.184 378.489,231.017 378.5,229.5C 379.434,228.432 379.768,227.099 379.5,225.5C 382.833,225.5 386.167,225.5 389.5,225.5C 390.174,235.328 385.841,241.828 376.5,245C 380.856,256.775 383.689,268.941 385,281.5C 387.004,297.102 387.837,312.769 387.5,328.5C 384.167,328.5 380.833,328.5 377.5,328.5C 377.768,330.099 377.434,331.432 376.5,332.5C 376.958,329.606 376.291,327.106 374.5,325C 365.856,321.371 356.856,319.871 347.5,320.5C 347.5,323.833 347.5,327.167 347.5,330.5C 344.081,328.885 340.414,327.885 336.5,327.5C 336.631,326.761 336.464,326.094 336,325.5C 335.34,327.324 334.173,328.657 332.5,329.5C 328.833,328.833 325.167,328.167 321.5,327.5C 324.943,322.949 327.61,317.949 329.5,312.5C 333.973,299.304 334.473,285.97 331,272.5C 317.281,280.887 304.115,290.054 291.5,300C 282.305,305.474 272.972,305.808 263.5,301C 248.259,288.59 232.592,276.757 216.5,265.5C 213.286,270.677 211.453,276.343 211,282.5C 209.757,291.442 210.59,300.108 213.5,308.5C 215.558,315.22 218.891,321.22 223.5,326.5C 215.833,326.5 208.167,326.5 200.5,326.5C 200.795,324.265 200.461,322.265 199.5,320.5C 189.688,319.596 180.355,321.263 171.5,325.5C 170.508,329.783 170.174,334.116 170.5,338.5C 169.517,334.702 169.183,330.702 169.5,326.5C 166.167,326.5 162.833,326.5 159.5,326.5C 158.973,302.51 161.473,278.844 167,255.5C 168.474,249.244 170.641,243.244 173.5,237.5C 167.689,234.215 164.689,229.215 164.5,222.5C 168.269,222.756 171.936,222.423 175.5,221.5 Z"/></g>
<g><path style="opacity:1" fill="#3a384b" d="M 234.5,223.5 C 240.167,223.5 245.833,223.5 251.5,223.5C 263.368,230.602 275.702,236.935 288.5,242.5C 288.893,245.513 288.226,248.18 286.5,250.5C 284.833,250.5 283.167,250.5 281.5,250.5C 275.504,247.836 269.504,245.169 263.5,242.5C 256.008,237.585 248.341,232.919 240.5,228.5C 238.5,226.833 236.5,225.167 234.5,223.5 Z"/></g>
<g><path style="opacity:1" fill="#3d394c" d="M 313.5,228.5 C 312.929,233.739 309.929,236.739 304.5,237.5C 302.927,237.248 301.594,236.582 300.5,235.5C 298.83,232.694 299.163,230.194 301.5,228C 305.945,224.601 309.945,224.768 313.5,228.5 Z"/></g>
<g><path style="opacity:1" fill="#39384b" d="M 483.5,331.5 C 479.833,330.833 476.167,330.167 472.5,329.5C 472.48,320.678 471.48,312.011 469.5,303.5C 465.984,284.118 460.151,265.452 452,247.5C 451.204,265.903 449.704,284.236 447.5,302.5C 445.834,311.832 444.167,321.166 442.5,330.5C 438.936,329.577 435.269,329.244 431.5,329.5C 439.102,292.87 441.935,255.87 440,218.5C 442.794,214.977 445.96,214.644 449.5,217.5C 469.521,252.898 480.854,290.898 483.5,331.5 Z"/></g>
<g><path style="opacity:1" fill="#af5c82" d="M 374.5,221.5 C 377.893,223.073 379.226,225.74 378.5,229.5C 378.489,231.017 377.823,232.184 376.5,233C 371.571,234.81 366.571,236.31 361.5,237.5C 339.158,238.315 316.825,239.315 294.5,240.5C 296.5,238.833 298.5,237.167 300.5,235.5C 301.594,236.582 302.927,237.248 304.5,237.5C 309.929,236.739 312.929,233.739 313.5,228.5C 316.678,225.742 320.345,223.742 324.5,222.5C 326.82,224.226 329.487,224.893 332.5,224.5C 346.685,223.984 360.685,222.984 374.5,221.5 Z"/></g>
<g><path style="opacity:1" fill="#af5c82" d="M 240.5,228.5 C 248.341,232.919 256.008,237.585 263.5,242.5C 246.987,243.052 230.653,244.052 214.5,245.5C 206.703,241.768 199.036,237.768 191.5,233.5C 192.263,232.732 193.263,232.232 194.5,232C 210.038,231.475 225.371,230.309 240.5,228.5 Z"/></g>
<g><path style="opacity:1" fill="#ad5c7c" d="M 361.5,237.5 C 352.231,241.799 342.898,246.132 333.5,250.5C 317.824,250.242 302.157,250.242 286.5,250.5C 288.226,248.18 288.893,245.513 288.5,242.5C 290.685,242.296 292.685,241.63 294.5,240.5C 316.825,239.315 339.158,238.315 361.5,237.5 Z"/></g>
<g><path style="opacity:1" fill="#ae5c7c" d="M 263.5,242.5 C 269.504,245.169 275.504,247.836 281.5,250.5C 280.737,251.268 279.737,251.768 278.5,252C 262.303,252.595 246.303,253.762 230.5,255.5C 224.878,252.528 219.545,249.195 214.5,245.5C 230.653,244.052 246.987,243.052 263.5,242.5 Z"/></g>
<g><path style="opacity:1" fill="#dc837f" d="M 207.5,258.5 C 199.148,253.66 191.148,248.327 183.5,242.5C 183.56,241.957 183.893,241.624 184.5,241.5C 192.167,245.667 199.833,249.833 207.5,254C 208.728,255.49 208.728,256.99 207.5,258.5 Z"/></g>
<g><path style="opacity:1" fill="#dc817c" d="M 367.5,252.5 C 358.546,256.643 349.88,261.31 341.5,266.5C 340.519,264.604 339.519,262.604 338.5,260.5C 347.038,255.399 356.038,251.066 365.5,247.5C 366.95,248.85 367.617,250.516 367.5,252.5 Z"/></g>
<g><path style="opacity:1" fill="#ae567c" d="M 333.5,250.5 C 331.287,251.773 328.954,252.773 326.5,253.5C 295.836,254.907 265.17,256.241 234.5,257.5C 232.938,257.267 231.605,256.6 230.5,255.5C 246.303,253.762 262.303,252.595 278.5,252C 279.737,251.768 280.737,251.268 281.5,250.5C 283.167,250.5 284.833,250.5 286.5,250.5C 302.157,250.242 317.824,250.242 333.5,250.5 Z"/></g>
<g><path style="opacity:1" fill="#858a96" d="M 83.5,257.5 C 82.8333,256.167 82.1667,254.833 81.5,253.5C 81.4614,252.244 81.9614,251.244 83,250.5C 83.4966,252.81 83.6633,255.143 83.5,257.5 Z"/></g>
<g><path style="opacity:1" fill="#f7d8d2" d="M 183.5,242.5 C 191.148,248.327 199.148,253.66 207.5,258.5C 207.167,259.167 206.833,259.833 206.5,260.5C 196.652,260.827 186.986,260.494 177.5,259.5C 178.334,253.327 180.334,247.661 183.5,242.5 Z"/></g>
<g><path style="opacity:1" fill="#a7567c" d="M 326.5,253.5 C 319.996,258.255 312.996,262.255 305.5,265.5C 287.415,265.986 269.415,266.986 251.5,268.5C 245.627,265.069 239.96,261.402 234.5,257.5C 265.17,256.241 295.836,254.907 326.5,253.5 Z"/></g>
<g><path style="opacity:1" fill="#e7edf4" d="M 469.5,303.5 C 463.412,302.3 457.245,301.3 451,300.5C 449.566,300.862 448.399,301.528 447.5,302.5C 449.704,284.236 451.204,265.903 452,247.5C 460.151,265.452 465.984,284.118 469.5,303.5 Z"/></g>
<g><path style="opacity:1" fill="#a55575" d="M 305.5,265.5 C 298.566,270.311 291.566,275.144 284.5,280C 279.624,282.736 274.624,283.07 269.5,281C 263.321,276.97 257.321,272.804 251.5,268.5C 269.415,266.986 287.415,265.986 305.5,265.5 Z"/></g>
<g><path style="opacity:1" fill="#f8ccc4" d="M 177.5,259.5 C 186.986,260.494 196.652,260.827 206.5,260.5C 203.895,266.981 201.895,273.648 200.5,280.5C 191.5,280.5 182.5,280.5 173.5,280.5C 173.831,273.183 175.165,266.183 177.5,259.5 Z"/></g>
<g><path style="opacity:1" fill="#69697c" d="M 329.5,312.5 C 290.826,311.267 252.16,309.934 213.5,308.5C 210.59,300.108 209.757,291.442 211,282.5C 211.453,276.343 213.286,270.677 216.5,265.5C 232.592,276.757 248.259,288.59 263.5,301C 272.972,305.808 282.305,305.474 291.5,300C 304.115,290.054 317.281,280.887 331,272.5C 334.473,285.97 333.973,299.304 329.5,312.5 Z"/></g>
<g><path style="opacity:1" fill="#f7cec7" d="M 367.5,252.5 C 370.24,259.131 371.907,266.131 372.5,273.5C 362.833,273.5 353.167,273.5 343.5,273.5C 342.434,271.299 341.767,268.965 341.5,266.5C 349.88,261.31 358.546,256.643 367.5,252.5 Z"/></g>
<g><path style="opacity:1" fill="#f9beb4" d="M 173.5,280.5 C 182.5,280.5 191.5,280.5 200.5,280.5C 200.5,281.5 200.5,282.5 200.5,283.5C 199.521,286.625 199.187,289.958 199.5,293.5C 190.5,293.5 181.5,293.5 172.5,293.5C 172.5,291.833 172.5,290.167 172.5,288.5C 172.279,285.721 172.612,283.054 173.5,280.5 Z"/></g>
<g><path style="opacity:1" fill="#f9c2b9" d="M 343.5,273.5 C 353.167,273.5 362.833,273.5 372.5,273.5C 373.702,277.714 374.369,282.048 374.5,286.5C 374.5,286.833 374.5,287.167 374.5,287.5C 364.833,287.5 355.167,287.5 345.5,287.5C 345.221,282.773 344.554,278.107 343.5,273.5 Z"/></g>
<g><path style="opacity:1" fill="#e6edf5" d="M 81.5,253.5 C 82.1667,254.833 82.8333,256.167 83.5,257.5C 85.3805,280.547 89.3805,303.213 95.5,325.5C 96.3627,327.421 97.0293,329.421 97.5,331.5C 87.8227,332.427 78.156,333.427 68.5,334.5C 68.5,335.5 68.5,336.5 68.5,337.5C 67.5151,333.366 67.1818,329.032 67.5,324.5C 68.6495,300.109 73.3161,276.443 81.5,253.5 Z"/></g>
<g><path style="opacity:1" fill="#fab9af" d="M 345.5,287.5 C 355.167,287.5 364.833,287.5 374.5,287.5C 374.5,290.167 374.5,292.833 374.5,295.5C 364.833,295.5 355.167,295.5 345.5,295.5C 345.5,292.833 345.5,290.167 345.5,287.5 Z"/></g>
<g><path style="opacity:1" fill="#f2aca4" d="M 200.5,283.5 C 200.5,292.5 200.5,301.5 200.5,310.5C 190.325,309.673 180.491,311.007 171,314.5C 170.199,305.615 170.699,296.948 172.5,288.5C 172.5,290.167 172.5,291.833 172.5,293.5C 181.5,293.5 190.5,293.5 199.5,293.5C 199.187,289.958 199.521,286.625 200.5,283.5 Z"/></g>
<g><path style="opacity:1" fill="#f3aca4" d="M 374.5,286.5 C 376.45,295.639 376.783,304.973 375.5,314.5C 366.143,311.06 356.476,309.726 346.5,310.5C 346.497,305.473 346.164,300.473 345.5,295.5C 355.167,295.5 364.833,295.5 374.5,295.5C 374.5,292.833 374.5,290.167 374.5,287.5C 374.5,287.167 374.5,286.833 374.5,286.5 Z"/></g>
<g><path style="opacity:1" fill="#f0f7f7" d="M 469.5,303.5 C 471.48,312.011 472.48,320.678 472.5,329.5C 472.844,340.921 472.178,352.254 470.5,363.5C 458.558,361.673 446.558,360.007 434.5,358.5C 437.375,349.21 440.042,339.876 442.5,330.5C 444.167,321.166 445.834,311.832 447.5,302.5C 448.399,301.528 449.566,300.862 451,300.5C 457.245,301.3 463.412,302.3 469.5,303.5 Z"/></g>
<g><path style="opacity:1" fill="#636375" d="M 213.5,308.5 C 252.16,309.934 290.826,311.267 329.5,312.5C 327.61,317.949 324.943,322.949 321.5,327.5C 317.674,332.793 316.007,338.793 316.5,345.5C 287.53,344.198 258.53,343.198 229.5,342.5C 229.737,341.209 229.404,340.209 228.5,339.5C 228.193,334.57 226.527,330.237 223.5,326.5C 218.891,321.22 215.558,315.22 213.5,308.5 Z"/></g>
<g><path style="opacity:1" fill="#c36d93" d="M 376.5,332.5 C 376.66,334.199 376.494,335.866 376,337.5C 366.912,333.019 357.412,330.686 347.5,330.5C 347.5,327.167 347.5,323.833 347.5,320.5C 356.856,319.871 365.856,321.371 374.5,325C 376.291,327.106 376.958,329.606 376.5,332.5 Z"/></g>
<g><path style="opacity:1" fill="#6d4d64" d="M 199.5,320.5 C 200.461,322.265 200.795,324.265 200.5,326.5C 200.829,332.206 200.495,337.872 199.5,343.5C 198.893,343.376 198.56,343.043 198.5,342.5C 199.492,335.352 199.825,328.019 199.5,320.5 Z"/></g>
<g><path style="opacity:1" fill="#393945" d="M 57.5,324.5 C 60.8333,324.5 64.1667,324.5 67.5,324.5C 67.1818,329.032 67.5151,333.366 68.5,337.5C 68.8732,356.656 72.8732,374.989 80.5,392.5C 81.5612,395.622 82.8946,398.622 84.5,401.5C 80.5,401.5 76.5,401.5 72.5,401.5C 60.9679,377.171 55.9679,351.505 57.5,324.5 Z"/></g>
<g><path style="opacity:1" fill="#383845" d="M 95.5,325.5 C 99.5,325.5 103.5,325.5 107.5,325.5C 115.491,355.479 128.325,383.146 146,408.5C 146.722,411.261 146.555,413.927 145.5,416.5C 143.143,416.663 140.81,416.497 138.5,416C 135.36,412.188 132.36,408.355 129.5,404.5C 115.853,381.532 105.186,357.199 97.5,331.5C 97.0293,329.421 96.3627,327.421 95.5,325.5 Z"/></g>
<g><path style="opacity:1" fill="#383844" d="M 159.5,326.5 C 162.833,326.5 166.167,326.5 169.5,326.5C 169.183,330.702 169.517,334.702 170.5,338.5C 180.064,338.317 189.397,339.65 198.5,342.5C 198.56,343.043 198.893,343.376 199.5,343.5C 200.495,337.872 200.829,332.206 200.5,326.5C 208.167,326.5 215.833,326.5 223.5,326.5C 226.527,330.237 228.193,334.57 228.5,339.5C 227.57,349.999 227.57,360.332 228.5,370.5C 240.256,379.802 253.089,387.468 267,393.5C 280.375,388.233 292.875,381.566 304.5,373.5C 309.118,370.722 313.618,367.722 318,364.5C 317.769,358.182 317.269,351.849 316.5,345.5C 316.007,338.793 317.674,332.793 321.5,327.5C 325.167,328.167 328.833,328.833 332.5,329.5C 327.89,336.443 326.39,344.11 328,352.5C 328.303,356.894 328.97,361.227 330,365.5C 332.583,368.997 334.916,372.664 337,376.5C 336.824,360.177 336.657,343.844 336.5,327.5C 340.414,327.885 344.081,328.885 347.5,330.5C 357.412,330.686 366.912,333.019 376,337.5C 376.494,335.866 376.66,334.199 376.5,332.5C 377.434,331.432 377.768,330.099 377.5,328.5C 380.833,328.5 384.167,328.5 387.5,328.5C 386.681,353.979 388.014,379.312 391.5,404.5C 387.936,405.423 384.269,405.756 380.5,405.5C 373.182,402.335 365.515,400.502 357.5,400C 356.29,398.961 355.29,397.794 354.5,396.5C 354.393,394.097 355.393,392.264 357.5,391C 361.848,390.585 366.181,390.751 370.5,391.5C 373.009,392.113 375.509,392.78 378,393.5C 378.452,386.156 378.285,378.823 377.5,371.5C 368.633,371.811 359.966,373.311 351.5,376C 349.656,378.804 348.989,381.97 349.5,385.5C 349.911,390.338 350.578,395.005 351.5,399.5C 351.448,401.903 351.781,404.236 352.5,406.5C 348.732,405.213 345.065,405.213 341.5,406.5C 339.926,403.696 338.093,401.029 336,398.5C 332.238,400.964 328.405,403.297 324.5,405.5C 319.025,404.511 313.358,404.178 307.5,404.5C 315.193,399.896 322.693,394.896 330,389.5C 328.742,384.02 326.242,379.02 322.5,374.5C 308.652,384.263 293.985,392.763 278.5,400C 281.359,401.26 284.026,402.76 286.5,404.5C 279.313,404.175 272.313,404.509 265.5,405.5C 250.995,397.99 236.995,389.657 223.5,380.5C 220.296,383.73 217.963,387.563 216.5,392C 220.039,396.039 224.039,399.539 228.5,402.5C 223.684,403.326 218.684,403.826 213.5,404C 215.641,405.308 217.641,406.808 219.5,408.5C 215.955,410.436 212.289,410.769 208.5,409.5C 209.747,407.677 210.414,405.677 210.5,403.5C 205.381,404.103 200.715,403.436 196.5,401.5C 196.874,393.805 197.54,386.139 198.5,378.5C 188.293,377.929 178.293,379.096 168.5,382C 167.54,385.73 167.207,389.563 167.5,393.5C 169.903,393.448 172.236,393.781 174.5,394.5C 179.935,396.468 185.101,399.135 190,402.5C 190.833,405.171 190.333,407.504 188.5,409.5C 186.598,410.511 184.598,410.678 182.5,410C 177.687,406.562 172.353,404.395 166.5,403.5C 163.038,402.518 159.371,402.185 155.5,402.5C 158.068,377.242 159.401,351.909 159.5,326.5 Z M 210.5,328.5 C 216.436,333.394 218.769,339.727 217.5,347.5C 217.271,354.519 216.771,361.519 216,368.5C 214.106,373.392 211.772,378.059 209,382.5C 210.106,364.572 210.606,346.572 210.5,328.5 Z"/></g>
<g><path style="opacity:1" fill="#383845" d="M 431.5,329.5 C 435.269,329.244 438.936,329.577 442.5,330.5C 440.042,339.876 437.375,349.21 434.5,358.5C 429.337,374.323 423.004,389.656 415.5,404.5C 413.734,407.188 412.067,410.021 410.5,413C 408.26,414.807 405.927,414.974 403.5,413.5C 402.883,413.389 402.383,413.056 402,412.5C 401.333,410.167 401.333,407.833 402,405.5C 415.461,381.578 425.294,356.244 431.5,329.5 Z"/></g>
<g><path style="opacity:1" fill="#c56e94" d="M 199.5,320.5 C 199.825,328.019 199.492,335.352 198.5,342.5C 189.397,339.65 180.064,338.317 170.5,338.5C 170.174,334.116 170.508,329.783 171.5,325.5C 180.355,321.263 189.688,319.596 199.5,320.5 Z"/></g>
<g><path style="opacity:1" fill="#3a3a46" d="M 472.5,329.5 C 476.167,330.167 479.833,330.833 483.5,331.5C 484.77,357.815 479.77,382.815 468.5,406.5C 464.5,406.5 460.5,406.5 456.5,406.5C 458.5,402.167 460.5,397.833 462.5,393.5C 466.339,383.819 469.006,373.819 470.5,363.5C 472.178,352.254 472.844,340.921 472.5,329.5 Z"/></g>
<g><path style="opacity:1" fill="#f1f8f8" d="M 97.5,331.5 C 105.186,357.199 115.853,381.532 129.5,404.5C 111.29,407.861 94.9564,403.861 80.5,392.5C 72.8732,374.989 68.8732,356.656 68.5,337.5C 68.5,336.5 68.5,335.5 68.5,334.5C 78.156,333.427 87.8227,332.427 97.5,331.5 Z"/></g>
<g><path style="opacity:1" fill="#bc678c" d="M 376.5,358.5 C 372.154,358.334 367.821,358.501 363.5,359C 358.528,360.361 353.528,361.527 348.5,362.5C 348.795,360.265 348.461,358.265 347.5,356.5C 347.5,351.5 347.5,346.5 347.5,341.5C 357.986,340.836 367.486,343.503 376,349.5C 376.498,352.482 376.665,355.482 376.5,358.5 Z"/></g>
<g><path style="opacity:1" fill="#5c5c6f" d="M 228.5,339.5 C 229.404,340.209 229.737,341.209 229.5,342.5C 258.53,343.198 287.53,344.198 316.5,345.5C 317.269,351.849 317.769,358.182 318,364.5C 313.618,367.722 309.118,370.722 304.5,373.5C 279.167,372.5 253.833,371.5 228.5,370.5C 227.57,360.332 227.57,349.999 228.5,339.5 Z"/></g>
<g><path style="opacity:1" fill="#8d455f" d="M 347.5,356.5 C 348.461,358.265 348.795,360.265 348.5,362.5C 353.528,361.527 358.528,360.361 363.5,359C 367.821,358.501 372.154,358.334 376.5,358.5C 376.5,359.5 376.5,360.5 376.5,361.5C 367.843,361.851 359.343,363.184 351,365.5C 349.674,365.245 348.674,364.578 348,363.5C 347.503,361.19 347.337,358.857 347.5,356.5 Z"/></g>
<g><path style="opacity:1" fill="#f8f8f8" d="M 434.5,358.5 C 446.558,360.007 458.558,361.673 470.5,363.5C 469.006,373.819 466.339,383.819 462.5,393.5C 448.245,403.483 432.578,407.15 415.5,404.5C 423.004,389.656 429.337,374.323 434.5,358.5 Z"/></g>
<g><path style="opacity:1" fill="#b86488" d="M 169.5,348.5 C 179.575,348.248 189.242,350.082 198.5,354C 199.469,358.737 199.803,363.57 199.5,368.5C 189.407,368.123 179.407,368.79 169.5,370.5C 169.5,363.167 169.5,355.833 169.5,348.5 Z"/></g>
<g><path style="opacity:1" fill="#565669" d="M 228.5,370.5 C 253.833,371.5 279.167,372.5 304.5,373.5C 292.875,381.566 280.375,388.233 267,393.5C 253.089,387.468 240.256,379.802 228.5,370.5 Z"/></g>
<g><path style="opacity:1" fill="#7979aa" d="M 307.5,404.5 C 304.546,406.224 301.379,407.557 298,408.5C 294.119,407.262 290.286,405.929 286.5,404.5C 284.026,402.76 281.359,401.26 278.5,400C 293.985,392.763 308.652,384.263 322.5,374.5C 326.242,379.02 328.742,384.02 330,389.5C 322.693,394.896 315.193,399.896 307.5,404.5 Z"/></g>
<g><path style="opacity:1" fill="#7979aa" d="M 265.5,405.5 C 266.167,405.5 266.5,405.833 266.5,406.5C 265.249,411.285 263.249,415.619 260.5,419.5C 249.226,414.865 238.559,409.198 228.5,402.5C 224.039,399.539 220.039,396.039 216.5,392C 217.963,387.563 220.296,383.73 223.5,380.5C 236.995,389.657 250.995,397.99 265.5,405.5 Z"/></g>
<g><path style="opacity:1" fill="#ae5c7f" d="M 196.5,401.5 C 196.167,401.5 195.833,401.5 195.5,401.5C 188.881,398.094 181.881,395.76 174.5,394.5C 172.236,393.781 169.903,393.448 167.5,393.5C 167.207,389.563 167.54,385.73 168.5,382C 178.293,379.096 188.293,377.929 198.5,378.5C 197.54,386.139 196.874,393.805 196.5,401.5 Z"/></g>
<g><path style="opacity:1" fill="#ad5d7f" d="M 370.5,391.5 C 370.209,390.351 369.376,389.684 368,389.5C 361.86,388.005 355.693,386.671 349.5,385.5C 348.989,381.97 349.656,378.804 351.5,376C 359.966,373.311 368.633,371.811 377.5,371.5C 378.285,378.823 378.452,386.156 378,393.5C 375.509,392.78 373.009,392.113 370.5,391.5 Z"/></g>
<g><path style="opacity:1" fill="#8e445e" d="M 349.5,385.5 C 355.693,386.671 361.86,388.005 368,389.5C 369.376,389.684 370.209,390.351 370.5,391.5C 366.181,390.751 361.848,390.585 357.5,391C 355.393,392.264 354.393,394.097 354.5,396.5C 353.5,396.5 352.5,396.5 351.5,396.5C 351.5,397.5 351.5,398.5 351.5,399.5C 350.578,395.005 349.911,390.338 349.5,385.5 Z"/></g>
<g><path style="opacity:1" fill="#8c435d" d="M 174.5,394.5 C 181.881,395.76 188.881,398.094 195.5,401.5C 195.276,405.179 194.942,408.846 194.5,412.5C 192.5,411.5 190.5,410.5 188.5,409.5C 190.333,407.504 190.833,405.171 190,402.5C 185.101,399.135 179.935,396.468 174.5,394.5 Z"/></g>
<g><path style="opacity:1" fill="#4a4a5c" d="M 341.5,406.5 C 344.446,412.724 347.113,419.058 349.5,425.5C 336.506,422.78 323.839,418.947 311.5,414C 316.24,411.64 320.574,408.807 324.5,405.5C 328.405,403.297 332.238,400.964 336,398.5C 338.093,401.029 339.926,403.696 341.5,406.5 Z"/></g>
<g><path style="opacity:1" fill="#333345" d="M 72.5,401.5 C 76.5,401.5 80.5,401.5 84.5,401.5C 86.5729,405.308 88.9062,408.974 91.5,412.5C 106.542,416.688 120.209,423.521 132.5,433C 136.036,436.201 139.203,439.701 142,443.5C 145.661,437.178 148.495,430.512 150.5,423.5C 154.025,417.086 155.692,410.086 155.5,402.5C 159.371,402.185 163.038,402.518 166.5,403.5C 165.385,408.75 165.219,414.083 166,419.5C 171.134,428.135 178.301,434.468 187.5,438.5C 190.659,430.029 192.992,421.362 194.5,412.5C 194.942,408.846 195.276,405.179 195.5,401.5C 195.833,401.5 196.167,401.5 196.5,401.5C 200.715,403.436 205.381,404.103 210.5,403.5C 210.414,405.677 209.747,407.677 208.5,409.5C 212.289,410.769 215.955,410.436 219.5,408.5C 217.641,406.808 215.641,405.308 213.5,404C 218.684,403.826 223.684,403.326 228.5,402.5C 238.559,409.198 249.226,414.865 260.5,419.5C 273.592,426.648 287.259,432.648 301.5,437.5C 309.285,440.762 317.285,443.428 325.5,445.5C 336.599,449.532 347.932,453.199 359.5,456.5C 359,450 357.334,443.833 354.5,438C 346.494,436.099 338.494,434.266 330.5,432.5C 323.046,429.459 315.38,426.792 307.5,424.5C 293.784,418.813 280.118,412.813 266.5,406.5C 266.5,405.833 266.167,405.5 265.5,405.5C 272.313,404.509 279.313,404.175 286.5,404.5C 290.286,405.929 294.119,407.262 298,408.5C 301.379,407.557 304.546,406.224 307.5,404.5C 313.358,404.178 319.025,404.511 324.5,405.5C 320.574,408.807 316.24,411.64 311.5,414C 323.839,418.947 336.506,422.78 349.5,425.5C 347.113,419.058 344.446,412.724 341.5,406.5C 345.065,405.213 348.732,405.213 352.5,406.5C 357.338,416.186 361.671,426.186 365.5,436.5C 373.06,432.376 378.56,426.376 382,418.5C 382.02,414.132 381.52,409.799 380.5,405.5C 384.269,405.756 387.936,405.423 391.5,404.5C 391.513,411.621 393.18,418.288 396.5,424.5C 398.956,431.413 401.956,438.079 405.5,444.5C 417.747,427.095 434.08,415.262 454.5,409C 455.066,408.005 455.733,407.172 456.5,406.5C 460.5,406.5 464.5,406.5 468.5,406.5C 466.392,410.448 464.059,414.281 461.5,418C 439.407,423.772 422.907,436.605 412,456.5C 412.158,460.459 412.325,464.459 412.5,468.5C 408.936,469.423 405.269,469.756 401.5,469.5C 401.81,466.287 401.477,463.287 400.5,460.5C 396.289,450.364 391.789,440.364 387,430.5C 381.771,437.397 375.605,443.231 368.5,448C 369.796,453.248 370.796,458.414 371.5,463.5C 371.5,465.167 371.5,466.833 371.5,468.5C 340.186,468.44 308.853,468.44 277.5,468.5C 267.157,467.232 256.824,465.899 246.5,464.5C 238.833,462.5 231.167,460.5 223.5,458.5C 214.138,455.49 204.805,452.49 195.5,449.5C 194.165,455.171 192.832,460.837 191.5,466.5C 188.167,466.5 184.833,466.5 181.5,466.5C 181.5,464.833 181.5,463.167 181.5,461.5C 183.108,457.387 183.941,453.054 184,448.5C 174.837,444.162 167.004,438.162 160.5,430.5C 155.326,440.186 150.659,450.186 146.5,460.5C 145.631,462.717 145.298,465.05 145.5,467.5C 141.586,467.115 137.919,466.115 134.5,464.5C 134.851,461.762 135.518,459.096 136.5,456.5C 131.025,446.525 123.359,438.692 113.5,433C 104.859,428.675 95.8586,425.342 86.5,423C 80.7027,416.573 76.036,409.406 72.5,401.5 Z"/></g>
<g><path style="opacity:1" fill="#a4bef1" d="M 80.5,392.5 C 94.9564,403.861 111.29,407.861 129.5,404.5C 132.36,408.355 135.36,412.188 138.5,416C 140.81,416.497 143.143,416.663 145.5,416.5C 147.412,418.657 149.079,420.991 150.5,423.5C 148.495,430.512 145.661,437.178 142,443.5C 139.203,439.701 136.036,436.201 132.5,433C 120.209,423.521 106.542,416.688 91.5,412.5C 88.9062,408.974 86.5729,405.308 84.5,401.5C 82.8946,398.622 81.5612,395.622 80.5,392.5 Z"/></g>
<g><path style="opacity:1" fill="#a65679" d="M 354.5,396.5 C 355.29,397.794 356.29,398.961 357.5,400C 365.515,400.502 373.182,402.335 380.5,405.5C 381.52,409.799 382.02,414.132 382,418.5C 378.56,426.376 373.06,432.376 365.5,436.5C 361.671,426.186 357.338,416.186 352.5,406.5C 351.781,404.236 351.448,401.903 351.5,399.5C 351.5,398.5 351.5,397.5 351.5,396.5C 352.5,396.5 353.5,396.5 354.5,396.5 Z"/></g>
<g><path style="opacity:1" fill="#a2bbee" d="M 462.5,393.5 C 460.5,397.833 458.5,402.167 456.5,406.5C 455.733,407.172 455.066,408.005 454.5,409C 434.08,415.262 417.747,427.095 405.5,444.5C 401.956,438.079 398.956,431.413 396.5,424.5C 399.194,421.124 401.527,417.457 403.5,413.5C 405.927,414.974 408.26,414.807 410.5,413C 412.067,410.021 413.734,407.188 415.5,404.5C 432.578,407.15 448.245,403.483 462.5,393.5 Z"/></g>
<g><path style="opacity:1" fill="#a15274" d="M 166.5,403.5 C 172.353,404.395 177.687,406.562 182.5,410C 184.598,410.678 186.598,410.511 188.5,409.5C 190.5,410.5 192.5,411.5 194.5,412.5C 192.992,421.362 190.659,430.029 187.5,438.5C 178.301,434.468 171.134,428.135 166,419.5C 165.219,414.083 165.385,408.75 166.5,403.5 Z"/></g>
<g><path style="opacity:1" fill="#6b6b9b" d="M 266.5,406.5 C 280.118,412.813 293.784,418.813 307.5,424.5C 306.21,425.058 305.377,426.058 305,427.5C 303.533,430.758 302.367,434.092 301.5,437.5C 287.259,432.648 273.592,426.648 260.5,419.5C 263.249,415.619 265.249,411.285 266.5,406.5 Z"/></g>
<g><path style="opacity:1" fill="#4a4a5c" d="M 241.5,429.5 C 236.833,425.833 232.167,422.167 227.5,418.5C 229.402,417.489 231.402,417.322 233.5,418C 239.04,421.27 244.707,424.27 250.5,427C 247.48,427.901 244.48,428.734 241.5,429.5 Z"/></g>
<g><path style="opacity:1" fill="#5d5d89" d="M 227.5,418.5 C 232.167,422.167 236.833,425.833 241.5,429.5C 227.655,432.481 213.655,434.481 199.5,435.5C 201.032,430.903 202.365,426.236 203.5,421.5C 211.527,420.718 219.527,419.718 227.5,418.5 Z"/></g>
<g><path style="opacity:1" fill="#636392" d="M 307.5,424.5 C 315.38,426.792 323.046,429.459 330.5,432.5C 328.559,436.718 326.892,441.051 325.5,445.5C 317.285,443.428 309.285,440.762 301.5,437.5C 302.367,434.092 303.533,430.758 305,427.5C 305.377,426.058 306.21,425.058 307.5,424.5 Z"/></g>
<g><path style="opacity:1" fill="#4a4a5c" d="M 260.5,434.5 C 263.941,434.301 267.274,434.801 270.5,436C 291.368,445.179 312.702,453.179 334.5,460C 294.195,462.169 254.862,457.169 216.5,445C 231.49,442.307 246.156,438.807 260.5,434.5 Z"/></g>
<g><path style="opacity:1" fill="#5a5a87" d="M 330.5,432.5 C 338.494,434.266 346.494,436.099 354.5,438C 357.334,443.833 359,450 359.5,456.5C 347.932,453.199 336.599,449.532 325.5,445.5C 326.892,441.051 328.559,436.718 330.5,432.5 Z"/></g>
<g><path style="opacity:1" fill="#7c7cad" d="M 223.5,458.5 C 219.919,468.828 215.919,478.995 211.5,489C 213.058,489.21 214.391,489.71 215.5,490.5C 206.833,490.5 198.167,490.5 189.5,490.5C 189.508,482.434 190.174,474.434 191.5,466.5C 192.832,460.837 194.165,455.171 195.5,449.5C 204.805,452.49 214.138,455.49 223.5,458.5 Z"/></g>
<g><path style="opacity:1" fill="#f7cac3" d="M 181.5,461.5 C 170.012,460.505 158.345,460.172 146.5,460.5C 150.659,450.186 155.326,440.186 160.5,430.5C 167.004,438.162 174.837,444.162 184,448.5C 183.941,453.054 183.108,457.387 181.5,461.5 Z"/></g>
<g><path style="opacity:1" fill="#f6c9c2" d="M 400.5,460.5 C 390.833,460.5 381.167,460.5 371.5,460.5C 371.5,461.5 371.5,462.5 371.5,463.5C 370.796,458.414 369.796,453.248 368.5,448C 375.605,443.231 381.771,437.397 387,430.5C 391.789,440.364 396.289,450.364 400.5,460.5 Z"/></g>
<g><path style="opacity:1" fill="#7575a7" d="M 223.5,458.5 C 231.167,460.5 238.833,462.5 246.5,464.5C 243.215,472.736 240.215,481.069 237.5,489.5C 238.791,489.263 239.791,489.596 240.5,490.5C 232.167,490.5 223.833,490.5 215.5,490.5C 214.391,489.71 213.058,489.21 211.5,489C 215.919,478.995 219.919,468.828 223.5,458.5 Z"/></g>
<g><path style="opacity:1" fill="#f8d4cd" d="M 146.5,460.5 C 158.345,460.172 170.012,460.505 181.5,461.5C 181.5,463.167 181.5,464.833 181.5,466.5C 180.275,471.29 179.608,476.29 179.5,481.5C 178.596,482.209 178.263,483.209 178.5,484.5C 176.167,484.5 173.833,484.5 171.5,484.5C 162.011,484.951 154.177,481.618 148,474.5C 146.864,472.257 146.03,469.924 145.5,467.5C 145.298,465.05 145.631,462.717 146.5,460.5 Z"/></g>
<g><path style="opacity:1" fill="#f7d3cc" d="M 400.5,460.5 C 401.477,463.287 401.81,466.287 401.5,469.5C 398.669,476.274 393.669,480.774 386.5,483C 381.898,484.122 377.232,484.622 372.5,484.5C 372.821,478.974 372.488,473.64 371.5,468.5C 371.5,466.833 371.5,465.167 371.5,463.5C 371.5,462.5 371.5,461.5 371.5,460.5C 381.167,460.5 390.833,460.5 400.5,460.5 Z"/></g>
<g><path style="opacity:1" fill="#33333f" d="M 134.5,464.5 C 137.919,466.115 141.586,467.115 145.5,467.5C 146.03,469.924 146.864,472.257 148,474.5C 154.177,481.618 162.011,484.951 171.5,484.5C 173.948,485.473 176.615,485.806 179.5,485.5C 179.5,484.167 179.5,482.833 179.5,481.5C 179.608,476.29 180.275,471.29 181.5,466.5C 184.833,466.5 188.167,466.5 191.5,466.5C 190.174,474.434 189.508,482.434 189.5,490.5C 188.839,494.954 186.172,496.621 181.5,495.5C 168.16,494.933 155.493,491.766 143.5,486C 137.29,480.211 134.29,473.044 134.5,464.5 Z"/></g>
<g><path style="opacity:1" fill="#6b6b9c" d="M 246.5,464.5 C 256.824,465.899 267.157,467.232 277.5,468.5C 287.463,469.681 297.463,470.348 307.5,470.5C 308.091,471.151 308.757,471.818 309.5,472.5C 306.768,478.366 304.434,484.366 302.5,490.5C 281.833,490.5 261.167,490.5 240.5,490.5C 239.791,489.596 238.791,489.263 237.5,489.5C 240.215,481.069 243.215,472.736 246.5,464.5 Z"/></g>
<g><path style="opacity:1" fill="#33333f" d="M 277.5,468.5 C 308.853,468.44 340.186,468.44 371.5,468.5C 372.488,473.64 372.821,478.974 372.5,484.5C 377.232,484.622 381.898,484.122 386.5,483C 393.669,480.774 398.669,476.274 401.5,469.5C 405.269,469.756 408.936,469.423 412.5,468.5C 410.815,480.025 404.481,487.859 393.5,492C 384.067,495.183 374.401,496.183 364.5,495C 362.963,493.89 362.297,492.39 362.5,490.5C 362.72,483.457 362.386,476.457 361.5,469.5C 343.512,470.309 325.512,470.643 307.5,470.5C 297.463,470.348 287.463,469.681 277.5,468.5 Z"/></g>
<g><path style="opacity:1" fill="#5c5c88" d="M 362.5,490.5 C 342.5,490.5 322.5,490.5 302.5,490.5C 304.434,484.366 306.768,478.366 309.5,472.5C 308.757,471.818 308.091,471.151 307.5,470.5C 325.512,470.643 343.512,470.309 361.5,469.5C 362.386,476.457 362.72,483.457 362.5,490.5 Z"/></g>
<g><path style="opacity:1" fill="#887a80" d="M 179.5,481.5 C 179.5,482.833 179.5,484.167 179.5,485.5C 176.615,485.806 173.948,485.473 171.5,484.5C 173.833,484.5 176.167,484.5 178.5,484.5C 178.263,483.209 178.596,482.209 179.5,481.5 Z"/></g>
</svg>
