<?xml version="1.0" encoding="UTF-8"?>
<!DOCTYPE svg PUBLIC "-//W3C//DTD SVG 1.1//EN" "http://www.w3.org/Graphics/SVG/1.1/DTD/svg11.dtd">
<svg xmlns="http://www.w3.org/2000/svg" version="1.1" width="512px" height="512px" style="shape-rendering:geometricPrecision; text-rendering:geometricPrecision; image-rendering:optimizeQuality; fill-rule:evenodd; clip-rule:evenodd" xmlns:xlink="http://www.w3.org/1999/xlink">
<g><path style="opacity:1" fill="#e7c9c3" d="M 318.5,55.5 C 280.239,56.4935 241.906,56.8268 203.5,56.5C 207.7,43.4614 216.033,33.9614 228.5,28C 245.85,20.484 263.85,18.484 282.5,22C 300.681,26.58 312.681,37.7466 318.5,55.5 Z"/></g>
<g><path style="opacity:1" fill="#e7bdb5" d="M 318.5,55.5 C 321.341,63.2107 322.674,71.2107 322.5,79.5C 321.549,80.9187 321.216,82.5853 321.5,84.5C 280.947,85.1519 240.614,84.4852 200.5,82.5C 199.285,75.8222 199.451,69.1555 201,62.5C 201.24,60.1484 202.073,58.1484 203.5,56.5C 241.906,56.8268 280.239,56.4935 318.5,55.5 Z"/></g>
<g><path style="opacity:1" fill="#e7b4ad" d="M 322.5,79.5 C 322.5,84.8333 322.5,90.1667 322.5,95.5C 321.596,96.209 321.263,97.209 321.5,98.5C 319.833,98.5 318.167,98.5 316.5,98.5C 316.737,97.209 316.404,96.209 315.5,95.5C 313.166,92.0079 310.166,91.5079 306.5,94C 305.619,94.7083 304.953,95.5416 304.5,96.5C 299.833,99.1667 295.167,99.1667 290.5,96.5C 288.713,94.8586 286.546,93.8586 284,93.5C 281.817,93.5221 280.317,94.5221 279.5,96.5C 254.987,98.164 230.321,99.164 205.5,99.5C 202.459,94.3416 200.793,88.675 200.5,82.5C 240.614,84.4852 280.947,85.1519 321.5,84.5C 321.216,82.5853 321.549,80.9187 322.5,79.5 Z"/></g>
<g><path style="opacity:1" fill="#63768f" d="M 480.5,127.5 C 461.124,129.649 441.791,131.983 422.5,134.5C 422.383,116.099 414.383,102.265 398.5,93C 393.249,90.4722 387.916,88.1389 382.5,86C 407.93,71.142 435.263,64.4754 464.5,66C 472.882,69.9238 478.049,76.4238 480,85.5C 480.5,99.496 480.667,113.496 480.5,127.5 Z"/></g>
<g><path style="opacity:1" fill="#d4726c" d="M 290.5,96.5 C 290.719,103.377 287.719,105.21 281.5,102C 279.845,100.556 279.178,98.7224 279.5,96.5C 280.317,94.5221 281.817,93.5221 284,93.5C 286.546,93.8586 288.713,94.8586 290.5,96.5 Z"/></g>
<g><path style="opacity:1" fill="#d4736d" d="M 315.5,95.5 C 315.628,99.8744 313.462,102.208 309,102.5C 305.438,102.099 303.938,100.099 304.5,96.5C 304.953,95.5416 305.619,94.7083 306.5,94C 310.166,91.5079 313.166,92.0079 315.5,95.5 Z"/></g>
<g><path style="opacity:1" fill="#e6aba0" d="M 315.5,95.5 C 316.404,96.209 316.737,97.209 316.5,98.5C 318.167,98.5 319.833,98.5 321.5,98.5C 321.263,97.209 321.596,96.209 322.5,95.5C 322.5,107.5 322.5,119.5 322.5,131.5C 312.871,127.271 302.871,126.438 292.5,129C 282.88,132.959 277.38,140.126 276,150.5C 270.464,144.763 266.464,138.096 264,130.5C 260.282,133.616 257.282,137.282 255,141.5C 252.249,128.09 244.916,118.09 233,111.5C 233.953,117.841 233.62,124.174 232,130.5C 229.297,133.934 225.797,135.934 221.5,136.5C 214.287,135.123 209.787,130.789 208,123.5C 205.852,117.223 206.019,111.056 208.5,105C 206.84,103.512 205.84,101.679 205.5,99.5C 230.321,99.164 254.987,98.164 279.5,96.5C 279.178,98.7224 279.845,100.556 281.5,102C 287.719,105.21 290.719,103.377 290.5,96.5C 295.167,99.1667 299.833,99.1667 304.5,96.5C 303.938,100.099 305.438,102.099 309,102.5C 313.462,102.208 315.628,99.8744 315.5,95.5 Z"/></g>
<g><path style="opacity:1" fill="#e6645d" d="M 480.5,127.5 C 480.5,134.5 480.5,141.5 480.5,148.5C 461.931,150.444 443.598,153.11 425.5,156.5C 392.749,160.51 360.082,164.844 327.5,169.5C 326.834,165.53 326.168,161.53 325.5,157.5C 329.942,155.156 331.609,151.489 330.5,146.5C 330.5,146.167 330.5,145.833 330.5,145.5C 361.103,141.341 391.77,137.675 422.5,134.5C 441.791,131.983 461.124,129.649 480.5,127.5 Z"/></g>
<g><path style="opacity:1" fill="#474658" d="M 322.5,131.5 C 327.218,134.929 329.885,139.596 330.5,145.5C 330.5,145.833 330.5,146.167 330.5,146.5C 329.423,145.982 328.256,145.648 327,145.5C 310.586,148.291 294.253,151.291 278,154.5C 276.886,150.544 276.053,150.544 275.5,154.5C 261.501,156.933 247.501,159.433 233.5,162C 232.584,162.278 231.918,162.778 231.5,163.5C 229.252,160.672 227.252,157.672 225.5,154.5C 223.022,148.782 221.689,142.782 221.5,136.5C 225.797,135.934 229.297,133.934 232,130.5C 233.62,124.174 233.953,117.841 233,111.5C 244.916,118.09 252.249,128.09 255,141.5C 257.282,137.282 260.282,133.616 264,130.5C 266.464,138.096 270.464,144.763 276,150.5C 277.38,140.126 282.88,132.959 292.5,129C 302.871,126.438 312.871,127.271 322.5,131.5 Z"/></g>
<g><path style="opacity:1" fill="#3b3a4c" d="M 330.5,146.5 C 331.609,151.489 329.942,155.156 325.5,157.5C 326.168,161.53 326.834,165.53 327.5,169.5C 328.051,172.807 328.384,176.14 328.5,179.5C 328.717,187.918 328.05,196.251 326.5,204.5C 321.798,203.996 317.131,203.329 312.5,202.5C 290.299,198.152 271.799,187.486 257,170.5C 256.154,174.234 254.654,177.568 252.5,180.5C 243.701,176.949 236.701,171.283 231.5,163.5C 231.918,162.778 232.584,162.278 233.5,162C 247.501,159.433 261.501,156.933 275.5,154.5C 276.053,150.544 276.886,150.544 278,154.5C 294.253,151.291 310.586,148.291 327,145.5C 328.256,145.648 329.423,145.982 330.5,146.5 Z"/></g>
<g><path style="opacity:1" fill="#d3706b" d="M 225.5,154.5 C 227.252,157.672 229.252,160.672 231.5,163.5C 236.701,171.283 243.701,176.949 252.5,180.5C 254.654,177.568 256.154,174.234 257,170.5C 271.799,187.486 290.299,198.152 312.5,202.5C 312.122,204.921 311.455,207.254 310.5,209.5C 309.488,212.252 308.488,214.919 307.5,217.5C 289.679,213.006 273.846,204.672 260,192.5C 257.155,198.651 256.822,204.984 259,211.5C 261.808,218.104 264.308,224.771 266.5,231.5C 265.5,231.5 264.5,231.5 263.5,231.5C 258.877,228.711 255.044,225.045 252,220.5C 249.149,212.735 247.149,204.735 246,196.5C 235.682,189.68 226.848,181.347 219.5,171.5C 221.363,167.245 223.03,162.912 224.5,158.5C 224.433,157.041 224.766,155.708 225.5,154.5 Z"/></g>
<g><path style="opacity:1" fill="#e5625a" d="M 224.5,158.5 C 223.03,162.912 221.363,167.245 219.5,171.5C 217.926,176.32 215.593,180.653 212.5,184.5C 198.459,185.839 184.459,187.505 170.5,189.5C 171.091,188.849 171.757,188.182 172.5,187.5C 170.523,180.283 169.19,172.949 168.5,165.5C 187.131,163.004 205.798,160.671 224.5,158.5 Z"/></g>
<g><path style="opacity:1" fill="#e7c9c3" d="M 98.5,173.5 C 99.038,175.117 99.3713,176.784 99.5,178.5C 99.5,182.5 99.5,186.5 99.5,190.5C 76.7753,185.319 54.1086,179.819 31.5,174C 32.056,173.617 32.3893,173.117 32.5,172.5C 39.1621,168.101 46.4955,164.934 54.5,163C 61.7439,161.051 69.0772,159.551 76.5,158.5C 87.0034,159.069 94.3367,164.069 98.5,173.5 Z"/></g>
<g><path style="opacity:1" fill="#d4534c" d="M 168.5,165.5 C 169.19,172.949 170.523,180.283 172.5,187.5C 171.757,188.182 171.091,188.849 170.5,189.5C 146.847,192.593 123.18,195.593 99.5,198.5C 100.531,191.948 100.531,185.282 99.5,178.5C 99.3713,176.784 99.038,175.117 98.5,173.5C 121.852,170.998 145.185,168.331 168.5,165.5 Z"/></g>
<g><path style="opacity:1" fill="#e7cdc7" d="M 219.5,171.5 C 226.848,181.347 235.682,189.68 246,196.5C 247.149,204.735 249.149,212.735 252,220.5C 255.044,225.045 258.877,228.711 263.5,231.5C 251.678,232.495 239.678,232.828 227.5,232.5C 223.601,230.614 219.934,228.281 216.5,225.5C 215.28,225.887 214.613,226.72 214.5,228C 215.044,229.585 215.711,231.085 216.5,232.5C 191.498,232.333 166.498,232.5 141.5,233C 140.956,233.717 140.289,234.217 139.5,234.5C 143.501,226.658 149.167,220.158 156.5,215C 169.825,206.113 184.492,200.779 200.5,199C 205.344,194.781 209.344,189.947 212.5,184.5C 215.593,180.653 217.926,176.32 219.5,171.5 Z"/></g>
<g><path style="opacity:1" fill="#e6c1b9" d="M 32.5,172.5 C 32.3893,173.117 32.056,173.617 31.5,174C 54.1086,179.819 76.7753,185.319 99.5,190.5C 99.5,186.5 99.5,182.5 99.5,178.5C 100.531,185.282 100.531,191.948 99.5,198.5C 98.8333,200.5 98.1667,202.5 97.5,204.5C 72.7737,198.819 48.1071,192.819 23.5,186.5C 22.2867,186.253 21.62,185.586 21.5,184.5C 23.7774,179.223 27.4441,175.223 32.5,172.5 Z"/></g>
<g><path style="opacity:1" fill="#7b8ca6" d="M 480.5,148.5 C 480.771,165.791 483.104,182.791 487.5,199.5C 470.627,209.902 452.294,215.902 432.5,217.5C 424.648,217.825 416.982,217.492 409.5,216.5C 419.203,197.689 424.536,177.689 425.5,156.5C 443.598,153.11 461.931,150.444 480.5,148.5 Z"/></g>
<g><path style="opacity:1" fill="#e7b9b1" d="M 21.5,184.5 C 21.62,185.586 22.2867,186.253 23.5,186.5C 48.1071,192.819 72.7737,198.819 97.5,204.5C 94.6213,212.71 89.2879,218.71 81.5,222.5C 79.1667,223.167 76.8333,223.833 74.5,224.5C 53.8333,219.167 33.1667,213.833 12.5,208.5C 14.3395,199.971 17.3395,191.971 21.5,184.5 Z"/></g>
<g><path style="opacity:1" fill="#a24a3f" d="M 328.5,179.5 C 350.142,187.915 368.642,200.915 384,218.5C 388.03,224.02 392.197,229.353 396.5,234.5C 397.167,237.167 397.833,239.833 398.5,242.5C 387.252,247.304 375.585,250.804 363.5,253C 356.976,254.011 350.643,253.345 344.5,251C 332.101,244.601 322.267,235.435 315,223.5C 313.552,218.689 312.052,214.023 310.5,209.5C 311.455,207.254 312.122,204.921 312.5,202.5C 317.131,203.329 321.798,203.996 326.5,204.5C 328.05,196.251 328.717,187.918 328.5,179.5 Z"/></g>
<g><path style="opacity:1" fill="#712c25" d="M 310.5,209.5 C 312.052,214.023 313.552,218.689 315,223.5C 322.267,235.435 332.101,244.601 344.5,251C 350.643,253.345 356.976,254.011 363.5,253C 375.585,250.804 387.252,247.304 398.5,242.5C 398.424,253.919 392.757,260.919 381.5,263.5C 370.121,269.13 358.121,271.963 345.5,272C 341.809,271.164 338.476,269.664 335.5,267.5C 329.537,262.872 323.87,257.872 318.5,252.5C 314.441,247.933 310.941,242.933 308,237.5C 306.675,232.599 306.175,227.599 306.5,222.5C 306.629,220.784 306.962,219.117 307.5,217.5C 308.488,214.919 309.488,212.252 310.5,209.5 Z"/></g>
<g><path style="opacity:1" fill="#e2e6e6" d="M 487.5,199.5 C 490.608,210.657 494.608,221.49 499.5,232C 481.436,252.858 458.769,266.025 431.5,271.5C 430.065,253.842 428.731,236.175 427.5,218.5C 429.415,218.784 431.081,218.451 432.5,217.5C 452.294,215.902 470.627,209.902 487.5,199.5 Z"/></g>
<g><path style="opacity:1" fill="#e6ada2" d="M 12.5,208.5 C 33.1667,213.833 53.8333,219.167 74.5,224.5C 58.8353,230.882 42.502,233.549 25.5,232.5C 14.8623,227.89 10.529,219.89 12.5,208.5 Z"/></g>
<g><path style="opacity:1" fill="#d8e0e6" d="M 409.5,216.5 C 416.982,217.492 424.648,217.825 432.5,217.5C 431.081,218.451 429.415,218.784 427.5,218.5C 428.731,236.175 430.065,253.842 431.5,271.5C 419.056,274.512 406.39,275.845 393.5,275.5C 389.167,271.833 385.167,267.833 381.5,263.5C 392.757,260.919 398.424,253.919 398.5,242.5C 397.833,239.833 397.167,237.167 396.5,234.5C 400.833,228.5 405.167,222.5 409.5,216.5 Z"/></g>
<g><path style="opacity:1" fill="#712b25" d="M 81.5,222.5 C 83.1667,229.167 84.8333,235.833 86.5,242.5C 68.3072,259.594 48.6405,274.761 27.5,288C 24.8976,288.977 22.3976,290.144 20,291.5C 19.5012,287.514 19.3345,283.514 19.5,279.5C 19.7797,263.595 21.7797,247.929 25.5,232.5C 42.502,233.549 58.8353,230.882 74.5,224.5C 76.8333,223.833 79.1667,223.167 81.5,222.5 Z"/></g>
<g><path style="opacity:1" fill="#d4736d" d="M 227.5,232.5 C 236.857,239.666 247.524,243.833 259.5,245C 260.747,246.494 260.747,247.994 259.5,249.5C 250.467,252.636 241.801,251.803 233.5,247C 226.978,243.086 221.311,238.253 216.5,232.5C 215.711,231.085 215.044,229.585 214.5,228C 214.613,226.72 215.28,225.887 216.5,225.5C 219.934,228.281 223.601,230.614 227.5,232.5 Z"/></g>
<g><path style="opacity:1" fill="#d3716c" d="M 306.5,222.5 C 306.175,227.599 306.675,232.599 308,237.5C 310.941,242.933 314.441,247.933 318.5,252.5C 315.848,256.482 312.848,260.149 309.5,263.5C 307.926,262.016 306.593,260.349 305.5,258.5C 305.11,255.31 303.777,252.643 301.5,250.5C 296.889,251.61 292.222,251.777 287.5,251C 283.012,250.267 282.012,248.267 284.5,245C 290.297,243.967 295.964,242.467 301.5,240.5C 302.067,234.079 303.734,228.079 306.5,222.5 Z"/></g>
<g><path style="opacity:1" fill="#e6c8c1" d="M 307.5,217.5 C 306.962,219.117 306.629,220.784 306.5,222.5C 303.734,228.079 302.067,234.079 301.5,240.5C 295.964,242.467 290.297,243.967 284.5,245C 282.012,248.267 283.012,250.267 287.5,251C 292.222,251.777 296.889,251.61 301.5,250.5C 303.777,252.643 305.11,255.31 305.5,258.5C 276.508,259.833 247.174,260.5 217.5,260.5C 187.998,260.5 158.665,260.167 129.5,259.5C 130.933,250.315 134.267,241.982 139.5,234.5C 140.289,234.217 140.956,233.717 141.5,233C 166.498,232.5 191.498,232.333 216.5,232.5C 221.311,238.253 226.978,243.086 233.5,247C 241.801,251.803 250.467,252.636 259.5,249.5C 260.747,247.994 260.747,246.494 259.5,245C 247.524,243.833 236.857,239.666 227.5,232.5C 239.678,232.828 251.678,232.495 263.5,231.5C 264.5,231.5 265.5,231.5 266.5,231.5C 264.308,224.771 261.808,218.104 259,211.5C 256.822,204.984 257.155,198.651 260,192.5C 273.846,204.672 289.679,213.006 307.5,217.5 Z"/></g>
<g><path style="opacity:1" fill="#e6c0b9" d="M 305.5,258.5 C 306.593,260.349 307.926,262.016 309.5,263.5C 303.508,270.825 297.175,277.825 290.5,284.5C 226.429,284.829 162.429,284.496 98.5,283.5C 105.693,274.566 115.026,269.233 126.5,267.5C 127.515,264.724 128.515,262.057 129.5,259.5C 158.665,260.167 187.998,260.5 217.5,260.5C 247.174,260.5 276.508,259.833 305.5,258.5 Z"/></g>
<g><path style="opacity:1" fill="#d3706b" d="M 381.5,263.5 C 385.167,267.833 389.167,271.833 393.5,275.5C 395.555,277.555 397.221,279.888 398.5,282.5C 385.097,285.387 371.43,287.387 357.5,288.5C 359.868,326.298 342.201,343.131 304.5,339C 301.939,336.844 301.939,334.677 304.5,332.5C 317.695,330.718 329.195,325.384 339,316.5C 344.8,307.943 347.634,298.609 347.5,288.5C 343.844,287.589 340.344,286.256 337,284.5C 324.09,300.618 310.923,316.618 297.5,332.5C 288.167,341.5 278.833,350.5 269.5,359.5C 250.309,377.431 229.309,392.931 206.5,406C 205.167,406.667 205.167,407.333 206.5,408C 245.345,420.265 284.345,421.765 323.5,412.5C 304.461,426.64 282.961,432.64 259,430.5C 236.166,431.19 213.999,427.69 192.5,420C 186.851,417.961 181.518,415.461 176.5,412.5C 209.509,393.826 239.843,371.493 267.5,345.5C 293.436,322.239 316.103,296.239 335.5,267.5C 338.476,269.664 341.809,271.164 345.5,272C 358.121,271.963 370.121,269.13 381.5,263.5 Z"/></g>
<g><path style="opacity:1" fill="#a1493e" d="M 86.5,242.5 C 90.3244,257.623 92.9911,272.956 94.5,288.5C 94.5,291.167 94.5,293.833 94.5,296.5C 95.286,308.314 91.4527,318.314 83,326.5C 70.1083,339.011 55.9417,349.678 40.5,358.5C 36.7502,360.706 32.7502,362.373 28.5,363.5C 24.9153,363.372 22.4153,361.705 21,358.5C 18.4914,332.046 17.9914,305.712 19.5,279.5C 19.3345,283.514 19.5012,287.514 20,291.5C 22.3976,290.144 24.8976,288.977 27.5,288C 48.6405,274.761 68.3072,259.594 86.5,242.5 Z"/></g>
<g><path style="opacity:1" fill="#e6b8b0" d="M 98.5,283.5 C 162.429,284.496 226.429,284.829 290.5,284.5C 277.532,298.803 264.198,312.803 250.5,326.5C 246.897,328.763 243.564,331.43 240.5,334.5C 224.776,334.937 209.109,334.437 193.5,333C 181.641,329.141 173.807,321.307 170,309.5C 169.439,308.978 168.772,308.645 168,308.5C 163.594,316.31 159.427,324.31 155.5,332.5C 136.833,332.5 118.167,332.5 99.5,332.5C 96.9475,320.497 95.2808,308.497 94.5,296.5C 94.5,293.833 94.5,291.167 94.5,288.5C 95.8333,286.833 97.1667,285.167 98.5,283.5 Z"/></g>
<g><path style="opacity:1" fill="#3d3c4f" d="M 318.5,252.5 C 323.87,257.872 329.537,262.872 335.5,267.5C 316.103,296.239 293.436,322.239 267.5,345.5C 261.463,339.465 255.796,333.131 250.5,326.5C 264.198,312.803 277.532,298.803 290.5,284.5C 297.175,277.825 303.508,270.825 309.5,263.5C 312.848,260.149 315.848,256.482 318.5,252.5 Z"/></g>
<g><path style="opacity:1" fill="#d3706a" d="M 94.5,296.5 C 95.2808,308.497 96.9475,320.497 99.5,332.5C 99.5,334.167 99.5,335.833 99.5,337.5C 96.5322,337.374 94.5322,335.874 93.5,333C 92.5,332.333 91.5,332.333 90.5,333C 83.7441,342.592 76.0774,351.425 67.5,359.5C 61.0499,365.625 54.0499,370.958 46.5,375.5C 43.7093,370.129 41.7093,364.462 40.5,358.5C 55.9417,349.678 70.1083,339.011 83,326.5C 91.4527,318.314 95.286,308.314 94.5,296.5 Z"/></g>
<g><path style="opacity:1" fill="#e6b5ad" d="M 304.5,332.5 C 302.167,332.5 299.833,332.5 297.5,332.5C 310.923,316.618 324.09,300.618 337,284.5C 340.344,286.256 343.844,287.589 347.5,288.5C 347.634,298.609 344.8,307.943 339,316.5C 329.195,325.384 317.695,330.718 304.5,332.5 Z"/></g>
<g><path style="opacity:1" fill="#d4716c" d="M 240.5,334.5 C 236.817,338.18 232.817,341.514 228.5,344.5C 215.483,345.671 202.483,347.004 189.5,348.5C 180.98,349.27 173.48,346.937 167,341.5C 165.961,342.244 165.461,343.244 165.5,344.5C 148.206,371.795 124.206,390.462 93.5,400.5C 109.066,388.937 123.066,375.603 135.5,360.5C 143.136,351.909 149.803,342.575 155.5,332.5C 159.427,324.31 163.594,316.31 168,308.5C 168.772,308.645 169.439,308.978 170,309.5C 173.807,321.307 181.641,329.141 193.5,333C 209.109,334.437 224.776,334.937 240.5,334.5 Z"/></g>
<g><path style="opacity:1" fill="#d5736d" d="M 211.5,309.5 C 215.637,309.146 219.637,309.646 223.5,311C 224.591,313.064 224.758,315.231 224,317.5C 219.587,318.632 215.087,318.799 210.5,318C 209.041,314.929 209.374,312.096 211.5,309.5 Z"/></g>
<g><path style="opacity:1" fill="#e6a79c" d="M 414.5,305.5 C 422.435,318.956 428.435,333.289 432.5,348.5C 409.642,349.117 389.309,356.45 371.5,370.5C 367.228,368.226 363.228,365.559 359.5,362.5C 378.197,343.804 396.53,324.804 414.5,305.5 Z"/></g>
<g><path style="opacity:1" fill="#e6afa4" d="M 398.5,282.5 C 405.053,289.256 410.386,296.923 414.5,305.5C 396.53,324.804 378.197,343.804 359.5,362.5C 350.456,355.956 342.956,347.956 337,338.5C 336.5,345.826 336.334,353.159 336.5,360.5C 323.167,360.5 309.833,360.5 296.5,360.5C 292.82,347.618 290.82,347.618 290.5,360.5C 283.313,360.825 276.313,360.491 269.5,359.5C 278.833,350.5 288.167,341.5 297.5,332.5C 299.833,332.5 302.167,332.5 304.5,332.5C 301.939,334.677 301.939,336.844 304.5,339C 342.201,343.131 359.868,326.298 357.5,288.5C 371.43,287.387 385.097,285.387 398.5,282.5 Z"/></g>
<g><path style="opacity:1" fill="#e6aea3" d="M 99.5,332.5 C 118.167,332.5 136.833,332.5 155.5,332.5C 149.803,342.575 143.136,351.909 135.5,360.5C 112.661,360.831 89.9939,360.497 67.5,359.5C 76.0774,351.425 83.7441,342.592 90.5,333C 91.5,332.333 92.5,332.333 93.5,333C 94.5322,335.874 96.5322,337.374 99.5,337.5C 99.5,335.833 99.5,334.167 99.5,332.5 Z"/></g>
<g><path style="opacity:1" fill="#a34b40" d="M 432.5,348.5 C 437.179,348.334 441.845,348.501 446.5,349C 448.333,349.5 449.5,350.667 450,352.5C 449.712,366.686 447.878,380.686 444.5,394.5C 423.143,409.053 399.477,415.053 373.5,412.5C 375.505,399.418 374.505,386.585 370.5,374C 370.989,372.862 371.322,371.695 371.5,370.5C 389.309,356.45 409.642,349.117 432.5,348.5 Z"/></g>
<g><path style="opacity:1" fill="#d4716b" d="M 296.5,360.5 C 297.177,365.801 297.677,371.134 298,376.5C 300.153,378.444 302.653,378.944 305.5,378C 308.903,377.422 312.07,376.255 315,374.5C 315.868,378.672 314.368,381.838 310.5,384C 306.438,385.448 302.605,387.282 299,389.5C 299.064,395.909 297.564,401.909 294.5,407.5C 293.675,408.386 292.675,408.719 291.5,408.5C 291.666,403.489 291.499,398.489 291,393.5C 290.781,392.062 290.281,390.729 289.5,389.5C 283.885,388.711 278.218,388.211 272.5,388C 268.591,386.218 265.258,383.718 262.5,380.5C 270.143,380.948 277.81,380.448 285.5,379C 286.667,377.833 287.833,376.667 289,375.5C 290.25,370.58 290.75,365.58 290.5,360.5C 290.82,347.618 292.82,347.618 296.5,360.5 Z"/></g>
<g><path style="opacity:1" fill="#4a495b" d="M 250.5,326.5 C 255.796,333.131 261.463,339.465 267.5,345.5C 239.843,371.493 209.509,393.826 176.5,412.5C 171.602,410.201 166.602,408.534 161.5,407.5C 161.162,400.858 162.329,394.525 165,388.5C 166.615,387.614 168.115,386.614 169.5,385.5C 190.745,374.049 210.412,360.382 228.5,344.5C 232.817,341.514 236.817,338.18 240.5,334.5C 243.564,331.43 246.897,328.763 250.5,326.5 Z"/></g>
<g><path style="opacity:1" fill="#e7a69b" d="M 67.5,359.5 C 89.9939,360.497 112.661,360.831 135.5,360.5C 123.066,375.603 109.066,388.937 93.5,400.5C 83.5039,404.616 73.5039,404.45 63.5,400C 56,393.188 50.3333,385.021 46.5,375.5C 54.0499,370.958 61.0499,365.625 67.5,359.5 Z"/></g>
<g><path style="opacity:1" fill="#e5a99e" d="M 228.5,344.5 C 210.412,360.382 190.745,374.049 169.5,385.5C 168.809,372.828 167.976,360.162 167,347.5C 166.768,346.263 166.268,345.263 165.5,344.5C 165.461,343.244 165.961,342.244 167,341.5C 173.48,346.937 180.98,349.27 189.5,348.5C 202.483,347.004 215.483,345.671 228.5,344.5 Z"/></g>
<g><path style="opacity:1" fill="#e6a397" d="M 269.5,359.5 C 276.313,360.491 283.313,360.825 290.5,360.5C 290.75,365.58 290.25,370.58 289,375.5C 287.833,376.667 286.667,377.833 285.5,379C 277.81,380.448 270.143,380.948 262.5,380.5C 265.258,383.718 268.591,386.218 272.5,388C 278.218,388.211 283.885,388.711 289.5,389.5C 290.281,390.729 290.781,392.062 291,393.5C 291.499,398.489 291.666,403.489 291.5,408.5C 292.675,408.719 293.675,408.386 294.5,407.5C 297.564,401.909 299.064,395.909 299,389.5C 302.605,387.282 306.438,385.448 310.5,384C 314.368,381.838 315.868,378.672 315,374.5C 312.07,376.255 308.903,377.422 305.5,378C 302.653,378.944 300.153,378.444 298,376.5C 297.677,371.134 297.177,365.801 296.5,360.5C 309.833,360.5 323.167,360.5 336.5,360.5C 336.5,373.167 336.5,385.833 336.5,398.5C 332.195,403.141 327.861,407.807 323.5,412.5C 284.345,421.765 245.345,420.265 206.5,408C 205.167,407.333 205.167,406.667 206.5,406C 229.309,392.931 250.309,377.431 269.5,359.5 Z"/></g>
<g><path style="opacity:1" fill="#712c25" d="M 444.5,394.5 C 439.292,416.913 429.792,437.246 416,455.5C 409.93,462.074 403.43,468.074 396.5,473.5C 398.196,466.168 397.529,459.168 394.5,452.5C 392.449,444.06 388.116,437.06 381.5,431.5C 377.686,428.79 373.686,426.457 369.5,424.5C 371.063,420.478 372.396,416.478 373.5,412.5C 399.477,415.053 423.143,409.053 444.5,394.5 Z"/></g>
<g><path style="opacity:1" fill="#e6d9d2" d="M 355.5,424.5 C 353.412,426.02 351.078,427.02 348.5,427.5C 327.858,431.085 317.858,443.418 318.5,464.5C 315.833,464.5 313.167,464.5 310.5,464.5C 306.55,464.536 302.717,463.869 299,462.5C 298.228,462.645 297.561,462.978 297,463.5C 296.367,468.612 293.867,472.445 289.5,475C 283.751,475.785 278.084,475.618 272.5,474.5C 258.345,472.951 245.845,467.618 235,458.5C 234.616,462.653 233.616,466.653 232,470.5C 228.257,474.259 223.757,475.426 218.5,474C 213.696,472.428 209.029,470.595 204.5,468.5C 188.159,460.992 176.326,448.992 169,432.5C 165.239,435.243 161.072,436.076 156.5,435C 153.5,431.486 151.167,427.653 149.5,423.5C 149.167,414.805 153.167,409.471 161.5,407.5C 166.602,408.534 171.602,410.201 176.5,412.5C 181.518,415.461 186.851,417.961 192.5,420C 213.999,427.69 236.166,431.19 259,430.5C 282.961,432.64 304.461,426.64 323.5,412.5C 327.861,407.807 332.195,403.141 336.5,398.5C 346.233,396.118 352.4,399.785 355,409.5C 355.499,414.489 355.666,419.489 355.5,424.5 Z"/></g>
<g><path style="opacity:1" fill="#e6c8c1" d="M 355.5,424.5 C 360.167,424.5 364.833,424.5 369.5,424.5C 373.686,426.457 377.686,428.79 381.5,431.5C 380.53,432.629 379.364,433.629 378,434.5C 364,439.167 350,443.833 336,448.5C 334.97,448.164 334.47,447.497 334.5,446.5C 335.953,437.539 340.953,431.372 349.5,428C 349.272,427.601 348.938,427.435 348.5,427.5C 351.078,427.02 353.412,426.02 355.5,424.5 Z"/></g>
<g><path style="opacity:1" fill="#d4a8a7" d="M 348.5,427.5 C 348.938,427.435 349.272,427.601 349.5,428C 340.953,431.372 335.953,437.539 334.5,446.5C 333.243,451.703 333.243,457.036 334.5,462.5C 329.584,463.883 324.584,464.883 319.5,465.5C 316.287,465.81 313.287,465.477 310.5,464.5C 313.167,464.5 315.833,464.5 318.5,464.5C 317.858,443.418 327.858,431.085 348.5,427.5 Z"/></g>
<g><path style="opacity:1" fill="#e6b6ae" d="M 381.5,431.5 C 388.116,437.06 392.449,444.06 394.5,452.5C 394.64,454.124 393.973,455.29 392.5,456C 374.847,461.94 357.18,467.773 339.5,473.5C 337.041,470.245 335.374,466.578 334.5,462.5C 333.243,457.036 333.243,451.703 334.5,446.5C 334.47,447.497 334.97,448.164 336,448.5C 350,443.833 364,439.167 378,434.5C 379.364,433.629 380.53,432.629 381.5,431.5 Z"/></g>
<g><path style="opacity:1" fill="#b2422f" d="M 149.5,423.5 C 151.167,427.653 153.5,431.486 156.5,435C 161.072,436.076 165.239,435.243 169,432.5C 176.326,448.992 188.159,460.992 204.5,468.5C 204.631,469.376 204.298,470.043 203.5,470.5C 192.527,476.832 181.861,483.499 171.5,490.5C 157.833,490.5 144.167,490.5 130.5,490.5C 132.574,466.946 138.908,444.612 149.5,423.5 Z"/></g>
<g><path style="opacity:1" fill="#af3f2c" d="M 334.5,462.5 C 335.374,466.578 337.041,470.245 339.5,473.5C 344.034,482.26 351.034,487.927 360.5,490.5C 348.5,490.5 336.5,490.5 324.5,490.5C 320.915,482.573 319.248,474.24 319.5,465.5C 324.584,464.883 329.584,463.883 334.5,462.5 Z"/></g>
<g><path style="opacity:1" fill="#ba5846" d="M 310.5,464.5 C 313.287,465.477 316.287,465.81 319.5,465.5C 319.248,474.24 320.915,482.573 324.5,490.5C 299.167,490.5 273.833,490.5 248.5,490.5C 256.772,485.559 264.772,480.226 272.5,474.5C 278.084,475.618 283.751,475.785 289.5,475C 293.867,472.445 296.367,468.612 297,463.5C 297.561,462.978 298.228,462.645 299,462.5C 302.717,463.869 306.55,464.536 310.5,464.5 Z"/></g>
<g><path style="opacity:1" fill="#e6a398" d="M 394.5,452.5 C 397.529,459.168 398.196,466.168 396.5,473.5C 395.397,480.444 391.73,485.61 385.5,489C 377.251,490.406 368.917,490.906 360.5,490.5C 351.034,487.927 344.034,482.26 339.5,473.5C 357.18,467.773 374.847,461.94 392.5,456C 393.973,455.29 394.64,454.124 394.5,452.5 Z"/></g>
<g><path style="opacity:1" fill="#b54f3c" d="M 272.5,474.5 C 264.772,480.226 256.772,485.559 248.5,490.5C 222.833,490.5 197.167,490.5 171.5,490.5C 181.861,483.499 192.527,476.832 203.5,470.5C 204.298,470.043 204.631,469.376 204.5,468.5C 209.029,470.595 213.696,472.428 218.5,474C 223.757,475.426 228.257,474.259 232,470.5C 233.616,466.653 234.616,462.653 235,458.5C 245.845,467.618 258.345,472.951 272.5,474.5 Z"/></g>
</svg>
