<?xml version="1.0" encoding="UTF-8"?>
<svg version="1.1" xmlns="http://www.w3.org/2000/svg" width="512" height="512">
<path d="M0 0 C16.94447832 -0.52879647 32.69167552 3.30477543 45.81640625 14.47265625 C55.97582317 24.3322871 63.74962559 37.86208029 64.55122375 52.25393677 C64.60637832 55.98427451 64.60271208 59.71072256 64.58203125 63.44140625 C64.58551694 64.82328822 64.59073601 66.20516679 64.59759521 67.58703613 C64.62537545 73.41799794 64.63807628 79.24861265 64.60888672 85.07958984 C64.59208739 88.66184801 64.60457097 92.24302872 64.63533783 95.82518005 C64.64433329 97.83468442 64.62150434 99.84425111 64.59796143 101.8536377 C64.67332205 108.95096504 65.15148285 113.41537461 70.09222412 118.71691895 C71.37890625 120.16015625 71.37890625 120.16015625 71.37890625 122.16015625 C72.0424389 122.07769653 72.70597155 121.99523682 73.38961124 121.91027832 C89.54777297 119.90254062 105.70651216 117.89952325 121.86590672 115.9017334 C129.68050554 114.93549756 137.49490175 113.96767537 145.30883789 112.99609375 C152.12083318 112.14909716 158.93319255 111.30510226 165.74600261 110.46468353 C169.35205304 110.01974051 172.95790564 109.57331437 176.56332588 109.12329102 C180.59186329 108.62051195 184.62119939 108.12443728 188.65063477 107.62890625 C190.43627838 107.40448853 190.43627838 107.40448853 192.25799561 107.17553711 C197.67252743 106.51494451 202.92341124 105.97498319 208.37890625 106.16015625 C208.3345141 101.17905092 208.26443413 96.1991845 208.17138672 91.21875 C208.14330588 89.52744451 208.12202771 87.83601093 208.10791016 86.14453125 C208.08630017 83.701162 208.03956291 81.259312 207.98828125 78.81640625 C207.98643829 77.69715759 207.98643829 77.69715759 207.98455811 76.55529785 C207.80169881 69.87710463 205.76843945 64.48841936 200.94140625 59.78515625 C191.64014259 53.88679393 181.68385051 56.14909721 171.37890625 58.28515625 C170.29254883 58.50598877 169.20619141 58.72682129 168.08691406 58.9543457 C156.81244904 61.3398393 146.04218047 64.79978637 135.37890625 69.16015625 C137.61807156 70.97947807 139.84822405 72.78788664 142.2109375 74.4453125 C151.99339811 81.37214359 158.94777727 89.95509595 162.37890625 101.53515625 C162.37890625 104.16015625 162.37890625 104.16015625 161.31640625 106.53515625 C159.37890625 108.16015625 159.37890625 108.16015625 156.37890625 108.66015625 C153.37890625 108.16015625 153.37890625 108.16015625 151.84375 106.4375 C150.33647316 104.09418694 149.1260704 101.7434662 147.94140625 99.22265625 C142.03486467 87.34008437 132.2524423 82.22222804 120.37890625 77.16015625 C114.71223958 74.49348958 114.71223958 74.49348958 113.37890625 73.16015625 C112.81640625 70.41015625 112.81640625 70.41015625 113.37890625 67.16015625 C129.19256537 54.31155821 153.81923692 48.98960958 173.37890625 45.16015625 C174.8484375 44.87205078 174.8484375 44.87205078 176.34765625 44.578125 C187.27571279 43.07129246 198.04913434 42.58908486 207.37890625 49.16015625 C208.28640625 49.71703125 209.19390625 50.27390625 210.12890625 50.84765625 C216.61647039 57.5154305 219.47701208 64.4613555 219.55249023 73.61499023 C219.56598007 74.92833847 219.57946991 76.24168671 219.59336853 77.59483337 C219.59842848 78.2960475 219.60348843 78.99726162 219.60870171 79.71972466 C219.62524873 81.93961871 219.6485049 84.15935268 219.67359924 86.37916565 C219.74389792 92.69125165 219.80358067 99.00341251 219.85571289 105.31567383 C220.13596162 138.34232292 222.03056528 169.61423156 234.1328125 200.73046875 C234.41463379 201.4565332 234.69645508 202.18259766 234.98681641 202.93066406 C235.52356047 204.29226907 236.0732195 205.64888346 236.63818359 206.99902344 C238.16458258 210.81249207 239.00729782 213.31399257 237.37890625 217.16015625 C235.50914551 219.59537351 233.39360538 221.71316749 231.19140625 223.84765625 C230.56355225 224.4627002 229.93569824 225.07774414 229.28881836 225.71142578 C207.99882815 246.10625358 179.87516567 257.48991333 150.69921875 260.375 C148.37890625 260.16015625 148.37890625 260.16015625 146.58984375 258.8515625 C145.37890625 257.16015625 145.37890625 257.16015625 144.87890625 254.16015625 C145.37890625 251.16015625 145.37890625 251.16015625 147.3359375 249.5859375 C151.33570739 247.71184763 155.23352313 247.08231024 159.56640625 246.34765625 C180.01488286 242.52676895 198.0423584 235.26881908 214.37890625 222.16015625 C215.83103516 221.00773437 215.83103516 221.00773437 217.3125 219.83203125 C221.09701202 216.74036301 221.09701202 216.74036301 224.37890625 213.16015625 C224.44678979 210.8010159 224.44678979 210.8010159 223.37890625 208.16015625 C223.05140381 207.17535278 223.05140381 207.17535278 222.71728516 206.1706543 C221.94580343 203.88514598 221.13601611 201.61632113 220.31640625 199.34765625 C220.03474609 198.55939453 219.75308594 197.77113281 219.46289062 196.95898438 C218.77132087 195.02493336 218.07553347 193.09239137 217.37890625 191.16015625 C216.8463623 191.38155273 216.31381836 191.60294922 215.76513672 191.83105469 C181.3955076 206.04633921 181.3955076 206.04633921 164.109375 204.85546875 C154.17525405 203.88098519 154.17525405 203.88098519 145.2578125 207.3671875 C140.56291086 213.75258849 139.77115989 219.42241163 140.28125 227.17578125 C140.45907084 232.60998599 138.55328916 236.43772799 135.50390625 240.91015625 C133.28642749 243.25807494 130.96049742 245.22396287 128.37890625 247.16015625 C128.84039062 247.58683594 129.301875 248.01351562 129.77734375 248.453125 C148.56581373 266.46183634 165.27346819 293.73601867 171.37890625 319.16015625 C171.37890625 320.15015625 171.37890625 321.14015625 171.37890625 322.16015625 C172.44818359 322.12535156 172.44818359 322.12535156 173.5390625 322.08984375 C179.25227324 321.9821924 184.00316408 322.17346893 189.37890625 324.16015625 C191.59113235 326.37238235 190.68867418 330.72632684 190.69799805 333.69995117 C189.99717441 375.9347484 173.53135303 418.41368127 143.54296875 448.1640625 C141.37890625 450.16015625 141.37890625 450.16015625 138.37890625 452.16015625 C137.21781561 454.33791037 137.21781561 454.33791037 136.19140625 456.84765625 C132.81540938 463.80060219 128.21910281 468.43297985 120.87890625 471.09765625 C108.633644 474.16370337 94.4845806 473.20883099 83.578125 466.69921875 C76.78811502 461.9474178 71.54070765 455.86704716 68.37890625 448.16015625 C68.37890625 447.17015625 68.37890625 446.18015625 68.37890625 445.16015625 C67.84523438 445.30453125 67.3115625 445.44890625 66.76171875 445.59765625 C57.24067079 447.96968204 48.87580542 447.42324712 39.37890625 445.16015625 C39.03859375 446.24296875 39.03859375 446.24296875 38.69140625 447.34765625 C36.52766945 451.98423512 33.15622975 455.31193438 28.37890625 457.16015625 C11.03064215 458.81955543 -6.28193841 454.09499751 -21.62109375 446.16015625 C-22.15734375 447.06765625 -22.69359375 447.97515625 -23.24609375 448.91015625 C-26.03610004 452.98414467 -28.87985232 455.61285159 -33.890625 456.61328125 C-49.43380766 457.63861864 -65.79036821 447.4651661 -76.99609375 437.66015625 C-82.09801844 432.84811364 -87.16877306 428.01292902 -90.37109375 421.72265625 C-93.10844308 418.60511952 -94.04393493 418.72639773 -98.05859375 418.41015625 C-98.98542969 418.3946875 -99.91226563 418.37921875 -100.8671875 418.36328125 C-103.81200151 418.14607511 -105.94990081 417.38182707 -108.62109375 416.16015625 C-114.53469239 430.7652111 -118.79460348 445.56367166 -121.06005859 461.1875 C-121.20781738 462.16847656 -121.35557617 463.14945312 -121.5078125 464.16015625 C-121.62729248 465.04703125 -121.74677246 465.93390625 -121.86987305 466.84765625 C-122.8223704 469.77975079 -123.96278831 470.66786123 -126.62109375 472.16015625 C-129.99145686 471.91941603 -131.20907396 471.57217604 -133.62109375 469.16015625 C-134.96453824 448.52206937 -126.76286728 426.32430925 -118.33691406 407.82739258 C-116.20794726 403.04992751 -114.9397753 398.5310863 -114.10375977 393.36303711 C-112.89159134 387.83071757 -109.14880733 384.25806554 -104.62109375 381.16015625 C-103.96109375 381.16015625 -103.30109375 381.16015625 -102.62109375 381.16015625 C-102.66234375 379.98453125 -102.70359375 378.80890625 -102.74609375 377.59765625 C-102.71610341 371.91948604 -101.82511617 367.42977704 -97.99609375 363.12890625 C-94.50034268 358.34827836 -95.49421378 353.8162614 -96.30859375 348.22265625 C-96.42654297 347.25263672 -96.54449219 346.28261719 -96.66601562 345.28320312 C-96.95897465 342.90437581 -97.27777496 340.53214799 -97.62109375 338.16015625 C-98.10666748 338.72250977 -98.59224121 339.28486328 -99.0925293 339.86425781 C-102.47738248 343.7764142 -105.91726735 347.54451619 -109.62109375 351.16015625 C-110.19730469 351.79308594 -110.77351562 352.42601562 -111.3671875 353.078125 C-128.16957779 371.02396718 -155.72720611 386.20269903 -180.62109375 387.16015625 C-189.50717101 386.64701658 -197.23070758 383.03956075 -203.30859375 376.53515625 C-207.95063235 370.81937507 -213.38150832 363.82985493 -212.62109375 356.16015625 C-211.55859375 354.28515625 -211.55859375 354.28515625 -209.62109375 353.16015625 C-206.25 353.203125 -206.25 353.203125 -202.62109375 354.16015625 C-200.43359375 356.890625 -200.43359375 356.890625 -198.62109375 360.34765625 C-195.13937552 366.61902111 -191.73151423 371.79001609 -184.62109375 374.16015625 C-166.63806309 376.72392844 -145.67490663 364.17429523 -131.62109375 354.16015625 C-117.75275348 343.65735462 -99.82641213 328.16505291 -95.99609375 310.234375 C-95.11067737 303.09720754 -95.62495764 295.76454248 -95.74804688 288.59179688 C-95.76448242 286.8215918 -95.76448242 286.8215918 -95.78125 285.015625 C-95.80650757 283.40143677 -95.80650757 283.40143677 -95.83227539 281.75463867 C-95.62109375 279.16015625 -95.62109375 279.16015625 -93.62109375 277.16015625 C-88.40503019 276.60525587 -88.40503019 276.60525587 -85.9765625 278.32421875 C-84.14035738 280.81129773 -84.13775586 282.78496346 -83.87109375 285.84765625 C-82.70395578 293.89118209 -78.79224018 297.70089984 -72.55859375 302.53515625 C-64.03866218 307.24830989 -55.24617541 306.70661168 -45.7734375 306.80541992 C-43.84531347 306.83347893 -41.9173711 306.88119819 -39.99023438 306.94897461 C-26.88187728 307.75957604 -26.88187728 307.75957604 -15.6484375 301.97265625 C-14.26221294 300.4061638 -12.9136415 298.80479524 -11.62109375 297.16015625 C-10.59021343 296.12063727 -9.54671696 295.09328227 -8.484375 294.0859375 C-7.64261719 293.22355469 -6.80085937 292.36117188 -5.93359375 291.47265625 C-3.00213536 288.50409079 -0.09209875 285.62440086 3.12890625 282.97265625 C6.23443562 280.39448093 8.75527204 277.50173438 11.36328125 274.4296875 C13.76198467 271.72882183 16.30698742 269.19380506 18.87890625 266.66015625 C22.62445598 262.96008368 26.21911925 259.18987067 29.63671875 255.18359375 C31.6717608 252.82002474 33.77491469 250.52500392 35.87890625 248.22265625 C39.95674913 243.71114912 43.72743044 239.02096328 47.37890625 234.16015625 C46.08590931 231.27577846 44.71949262 229.28796204 42.37890625 227.16015625 C41.64285156 227.53269531 40.90679687 227.90523437 40.1484375 228.2890625 C39.17261719 228.76214844 38.19679688 229.23523438 37.19140625 229.72265625 C36.22847656 230.19832031 35.26554687 230.67398438 34.2734375 231.1640625 C31.06164977 232.26933358 29.55993803 232.25346424 26.37890625 231.16015625 C24.37890625 229.16015625 24.37890625 229.16015625 23.87890625 226.28515625 C24.37890625 223.16015625 24.37890625 223.16015625 26.87890625 221.03515625 C30.67807851 218.9998854 34.48899022 217.01625832 38.37890625 215.16015625 C38.32089844 214.47953125 38.26289063 213.79890625 38.203125 213.09765625 C37.76408655 203.66460159 40.26513 195.92321228 43.37890625 187.16015625 C41.49171875 186.66708984 41.49171875 186.66708984 39.56640625 186.1640625 C24.52867331 182.05628759 10.48466158 176.52163621 -0.62109375 165.16015625 C-1.09546875 165.67578125 -1.56984375 166.19140625 -2.05859375 166.72265625 C-5.93106991 168.89502092 -9.37339299 167.91348779 -13.62109375 167.16015625 C-13.06146238 170.70598783 -12.46919815 174.24562798 -11.87109375 177.78515625 C-11.71382812 178.78417969 -11.5565625 179.78320312 -11.39453125 180.8125 C-10.23751509 187.53209384 -9.02149628 192.23663944 -3.69921875 196.8125 C-3.0959375 197.23660156 -2.49265625 197.66070312 -1.87109375 198.09765625 C1.11341771 200.51977582 1.33084111 200.839722 1.94140625 204.91015625 C1.37890625 208.16015625 1.37890625 208.16015625 -0.62109375 210.16015625 C-3.91773898 210.88381008 -5.91894974 210.56685586 -8.83984375 208.875 C-19.08606218 201.37818352 -22.15502823 192.57776358 -24.05322266 180.38427734 C-24.28211182 178.85601318 -24.28211182 178.85601318 -24.515625 177.296875 C-24.67796631 176.23919922 -24.84030762 175.18152344 -25.00756836 174.09179688 C-25.32793705 171.96433101 -25.63018859 169.83404085 -25.91235352 167.70117188 C-26.88394763 161.17407941 -28.31495676 157.19819441 -32.62109375 152.16015625 C-33.11738281 153.19914063 -33.61367187 154.238125 -34.125 155.30859375 C-38.05576244 163.42651508 -42.10603176 170.98558466 -47.62109375 178.16015625 C-48.10835937 178.97355469 -48.595625 179.78695312 -49.09765625 180.625 C-52.90899609 186.19750398 -56.6525911 187.72298312 -63.07250977 188.94726562 C-65.86857023 189.40973886 -68.66773463 189.84600166 -71.46875 190.27734375 C-77.68294321 191.25657724 -83.05314399 193.24886545 -88.62109375 196.16015625 C-89.92046875 196.83884766 -89.92046875 196.83884766 -91.24609375 197.53125 C-107.03367854 206.41176645 -116.30918717 220.0833603 -121.62109375 237.16015625 C-122.73285296 241.13600969 -123.75545151 245.12807704 -124.7265625 249.140625 C-125.62109375 252.16015625 -125.62109375 252.16015625 -127.62109375 254.16015625 C-129.46036658 254.65655906 -131.31849561 255.08439189 -133.18359375 255.47265625 C-141.81930172 257.55927468 -148.8784474 260.97914602 -154.56640625 268.00390625 C-155.80005521 270.07499576 -155.80005521 270.07499576 -155.48828125 272.25390625 C-154.76688348 274.4546195 -154.76688348 274.4546195 -153.73046875 276.67578125 C-150.4849458 283.9439242 -149.10291811 292.24655614 -148.62109375 300.16015625 C-148.56824219 300.81757813 -148.51539063 301.475 -148.4609375 302.15234375 C-148.23248663 307.41664645 -149.06335301 312.43607066 -149.99609375 317.59765625 C-150.12209961 318.30865479 -150.24810547 319.01965332 -150.37792969 319.75219727 C-151.3739534 324.9130159 -151.3739534 324.9130159 -153.62109375 327.16015625 C-158.86054504 327.71754469 -158.86054504 327.71754469 -161.33203125 325.90625 C-162.62109375 324.16015625 -162.62109375 324.16015625 -162.6953125 322.20703125 C-162.56769531 321.4490625 -162.44007813 320.69109375 -162.30859375 319.91015625 C-161.67511675 315.26924866 -161.52594203 310.71265419 -161.55859375 306.03515625 C-161.56761719 304.73320312 -161.57664062 303.43125 -161.5859375 302.08984375 C-161.59753906 301.12304688 -161.60914063 300.15625 -161.62109375 299.16015625 C-162.07097656 299.75441406 -162.52085937 300.34867187 -162.984375 300.9609375 C-179.35624506 322.05735523 -205.9656915 343.90278826 -232.62109375 350.16015625 C-235.96840084 349.79922063 -237.20955127 349.57169873 -239.62109375 347.16015625 C-240.90402013 342.6643544 -240.93669053 337.97263683 -241.15625 333.328125 C-241.19940842 332.46826996 -241.24256683 331.60841492 -241.28703308 330.72250366 C-241.4246927 327.93111877 -241.55526394 325.13948499 -241.68359375 322.34765625 C-241.72778442 321.39277313 -241.7719751 320.43789001 -241.81750488 319.45407104 C-245.34024328 242.31760485 -245.34024328 242.31760485 -236.62109375 216.16015625 C-237.21792969 215.89203125 -237.81476563 215.62390625 -238.4296875 215.34765625 C-243.59689152 212.54760273 -246.66084917 207.87705349 -248.55859375 202.41015625 C-252.03931185 188.42437932 -245.24025109 172.40936444 -238.1484375 160.4453125 C-228.13498526 145.46354892 -208.90134233 141.13032894 -192.28515625 137.4140625 C-182.74376595 135.51885484 -173.89026542 135.37959158 -165.30859375 140.5546875 C-160.04388737 144.37740629 -160.04388737 144.37740629 -158.4833374 147.26657104 C-156.67141483 149.52426253 -156.67141483 149.52426253 -153.28448486 149.41360474 C-151.89913778 149.31695641 -150.51537884 149.1956647 -149.13378906 149.05517578 C-148.38235249 148.99410707 -147.63091591 148.93303837 -146.85670853 148.87011909 C-144.44106265 148.66236755 -142.03188503 148.41797738 -139.62109375 148.16015625 C-138.85502304 148.07848961 -138.08895233 147.99682297 -137.29966736 147.91268158 C-132.51778935 147.38670518 -127.74614849 146.79191242 -122.97563934 146.1719017 C-120.34402566 145.83024385 -117.71151854 145.49637201 -115.07867432 145.16433716 C-107.60823733 144.22075515 -100.13968023 143.26262658 -92.67138672 142.30224609 C-88.0685114 141.71087097 -83.46470387 141.12724972 -78.86026764 140.54816055 C-76.27309488 140.22024645 -73.68722246 139.88315263 -71.10125732 139.54586792 C-69.51906563 139.34631918 -67.93681369 139.14724728 -66.35449219 138.94873047 C-65.28540367 138.80543304 -65.28540367 138.80543304 -64.19471741 138.65924072 C-60.46037975 138.20178528 -57.21290469 137.9244828 -53.62109375 139.16015625 C-51.62109375 142.16015625 -51.62109375 142.16015625 -51.80859375 145.22265625 C-52.62109375 148.16015625 -52.62109375 148.16015625 -55.62109375 150.16015625 C-57.48950481 150.59366035 -57.48950481 150.59366035 -59.62638855 150.85623169 C-60.43827133 150.95995087 -61.25015411 151.06367004 -62.0866394 151.17053223 C-62.97352448 151.27555054 -63.86040955 151.38056885 -64.77416992 151.48876953 C-65.71095078 151.60610443 -66.64773163 151.72343933 -67.61289978 151.84432983 C-70.71239945 152.23063437 -73.81316287 152.60558197 -76.9140625 152.98046875 C-79.0622048 153.24595612 -81.21025993 153.5121497 -83.35823059 153.77902222 C-89.01431479 154.47982565 -94.67153452 155.17101142 -100.32904053 155.86022949 C-106.10093342 156.56509922 -111.87170583 157.27901892 -117.64257812 157.9921875 C-128.9676692 159.39039129 -140.29397997 160.77844151 -151.62109375 162.16015625 C-151.60949219 162.78664062 -151.59789062 163.413125 -151.5859375 164.05859375 C-151.57691406 164.87585938 -151.56789063 165.693125 -151.55859375 166.53515625 C-151.54699219 167.34726563 -151.53539062 168.159375 -151.5234375 168.99609375 C-151.62109375 171.16015625 -151.62109375 171.16015625 -152.62109375 173.16015625 C-139.78181985 171.48518301 -126.94287651 169.80770076 -114.10435104 168.12699986 C-108.1431333 167.34669293 -102.18180445 166.56725612 -96.22021484 165.78979492 C-90.46874873 165.03970395 -84.71758357 164.28734426 -78.9666214 163.53339958 C-76.77065889 163.24591916 -74.57458853 162.95926134 -72.37841034 162.6734333 C-69.30634739 162.27346888 -66.23467822 161.87060181 -63.16308594 161.46704102 C-61.79607292 161.29009453 -61.79607292 161.29009453 -60.40144348 161.10957336 C-59.14369362 160.94343536 -59.14369362 160.94343536 -57.86053467 160.77394104 C-57.1341618 160.67899636 -56.40778893 160.58405169 -55.65940475 160.4862299 C-52.59632141 160.00468985 -52.59632141 160.00468985 -49.62109375 159.16015625 C-47.08019957 154.73486687 -45.38376378 149.93940735 -43.62109375 145.16015625 C-43.31300781 144.33257812 -43.00492188 143.505 -42.6875 142.65234375 C-40.80404398 136.3117651 -41.95220314 130.14093751 -44.62109375 124.16015625 C-46.26391805 122.54962333 -47.85042011 121.55550236 -49.84375 120.421875 C-55.12351233 116.67382394 -57.2251752 109.16004468 -58.62109375 103.16015625 C-58.6343055 100.76354425 -58.56951863 98.3654471 -58.43359375 95.97265625 C-58.32292483 89.35205076 -59.59057896 85.02986106 -62.37109375 79.10546875 C-67.68900493 66.57514052 -66.57548045 50.4531864 -61.84765625 37.90234375 C-54.76613384 22.07040512 -43.73751565 12.39996274 -27.9921875 5.4453125 C-18.95549566 2.00027007 -9.59860392 0.58650188 0 0 Z M-44.62109375 31.16015625 C-46.99623341 34.3470525 -48.88654697 37.5880203 -50.62109375 41.16015625 C-50.96011719 41.82015625 -51.29914063 42.48015625 -51.6484375 43.16015625 C-55.78489768 52.91991483 -54.85028633 66.58432328 -51.47265625 76.41015625 C-50.64418986 78.35467883 -50.64418986 78.35467883 -48.62109375 80.16015625 C-47.13609375 79.66515625 -47.13609375 79.66515625 -45.62109375 79.16015625 C-39.62601214 78.57240315 -35.44962601 79.68472516 -30.62109375 83.16015625 C-28.50561365 85.33336875 -26.56668701 87.60042305 -24.625 89.9296875 C-22.72146487 92.04843713 -20.87999317 93.59007284 -18.55859375 95.22265625 C-12.34235119 99.64010421 -7.60702154 105.1344438 -4.62109375 112.16015625 C-3.89921875 111.66515625 -3.17734375 111.17015625 -2.43359375 110.66015625 C0.59006195 109.04753988 2.02846795 108.45480082 5.37890625 109.16015625 C7.00390625 111.28515625 7.00390625 111.28515625 8.37890625 114.16015625 C8.93578125 115.25328125 9.49265625 116.34640625 10.06640625 117.47265625 C10.49953125 118.35953125 10.93265625 119.24640625 11.37890625 120.16015625 C14.80623772 119.01771243 15.36215479 118.13607179 17.50390625 115.34765625 C22.27104742 109.7119258 28.14156667 107.2070037 35.37890625 106.16015625 C38.48477984 106.04621597 41.58401803 106.06601963 44.69140625 106.09765625 C48.99171875 106.12859375 48.99171875 106.12859375 53.37890625 106.16015625 C53.37890625 99.89015625 53.37890625 93.62015625 53.37890625 87.16015625 C51.06890625 86.50015625 48.75890625 85.84015625 46.37890625 85.16015625 C45.75390625 82.84765625 45.75390625 82.84765625 45.37890625 80.16015625 C47.78326651 76.55361586 49.32570232 76.30562693 53.37890625 75.16015625 C54.00580411 56.34598707 53.56819581 40.11363186 40.5703125 25.06640625 C28.18775284 13.32743078 13.37838907 11.56699053 -2.828125 11.84765625 C-19.18190732 12.48595642 -33.52660351 19.09246511 -44.62109375 31.16015625 Z M-42.62109375 89.16015625 C-44.72321072 90.12679374 -44.72321072 90.12679374 -46.62109375 92.16015625 C-48.22112367 98.3469386 -47.66333969 103.4856124 -44.62109375 109.16015625 C-42.74031304 111.21278495 -40.93531577 112.56591441 -38.62109375 114.16015625 C-35.4387527 112.4056124 -35.4387527 112.4056124 -32.62109375 110.16015625 C-31.87299736 103.07163636 -32.1391623 97.82154335 -36.62109375 92.16015625 C-39.70490161 90.19832566 -39.70490161 90.19832566 -42.62109375 89.16015625 Z M-21.62109375 107.16015625 C-21.88921875 108.37703125 -22.15734375 109.59390625 -22.43359375 110.84765625 C-24.14178595 117.5272768 -26.64079568 120.57197741 -32.62109375 124.16015625 C-29.79889993 137.18185757 -24.33578659 146.06420073 -13.62109375 154.16015625 C-12.13609375 154.65515625 -12.13609375 154.65515625 -10.62109375 155.16015625 C-9.96109375 152.85015625 -9.30109375 150.54015625 -8.62109375 148.16015625 C-2.3468693 147.60091524 -2.3468693 147.60091524 0.8984375 150.1015625 C1.65511719 150.96652344 2.41179687 151.83148438 3.19140625 152.72265625 C15.45419615 165.815259 33.40707255 175.50177011 51.66503906 176.25439453 C53.56991823 176.25732511 55.4747692 176.21340393 57.37890625 176.16015625 C58.76397164 169.1798664 58.54380138 162.21710644 58.40722656 155.140625 C58.38363769 153.49103065 58.40320853 151.84088941 58.43359375 150.19140625 C58.46631933 147.58815876 58.46631933 147.58815876 57.37890625 144.16015625 C52.90389623 140.10753238 46.26298388 138.89756105 40.37890625 139.16015625 C35.66045201 140.09528107 31.49398223 141.52296998 27.31640625 143.91015625 C22.31918306 146.0366342 17.41041396 144.83732549 12.37890625 143.16015625 C11.67438815 141.5091334 11.01737249 139.83782817 10.37890625 138.16015625 C8.9313028 135.66123257 7.34291744 133.25848416 5.75390625 130.84765625 C5.33367187 130.20248047 4.9134375 129.55730469 4.48046875 128.89257812 C3.45052384 127.31254901 2.41524997 125.73599578 1.37890625 124.16015625 C-0.84470055 126.08562065 -0.84470055 126.08562065 -1.62109375 129.16015625 C-8.37109375 130.16015625 -8.37109375 130.16015625 -10.62109375 130.16015625 C-10.76804688 129.40992188 -10.915 128.6596875 -11.06640625 127.88671875 C-12.69241467 120.46688723 -15.02276583 114.26991229 -19.62109375 108.16015625 C-20.28109375 107.83015625 -20.94109375 107.50015625 -21.62109375 107.16015625 Z M24.37890625 123.16015625 C22.13900306 126.79999893 20.37890625 129.83532621 20.37890625 134.16015625 C23.68941264 133.41666191 26.76369319 132.27819146 29.94140625 131.09765625 C41.58053921 127.22265937 51.36518599 129.38754414 62.37890625 134.16015625 C62.05165676 127.94241601 61.03056421 123.53410329 56.37890625 119.16015625 C46.86380784 113.19736125 32.06328056 115.03667484 24.37890625 123.16015625 Z M198.98950195 117.71374512 C197.34916489 117.8983429 197.34916489 117.8983429 195.6756897 118.08666992 C194.48075897 118.22371338 193.28582825 118.36075684 192.0546875 118.50195312 C190.16150284 118.71676331 190.16150284 118.71676331 188.23007202 118.93591309 C176.61863862 120.25690921 165.01252437 121.62431754 153.40794373 123.00408173 C145.60854426 123.93068676 137.80801698 124.84317113 130.00292969 125.72070312 C123.18747017 126.4869762 116.37561763 127.27911628 109.56686306 128.10292101 C105.96475045 128.53788413 102.36217948 128.95992467 98.7550354 129.35118103 C94.73220542 129.78810291 90.71857616 130.28298989 86.703125 130.78320312 C85.50819427 130.90405273 84.31326355 131.02490234 83.0821228 131.14941406 C77.2841485 131.72734887 77.2841485 131.72734887 72.80410767 135.02149963 C71.6977396 137.1364874 71.6977396 137.1364874 71.01594543 139.29840851 C70.37890625 141.16015625 70.37890625 141.16015625 68.37890625 143.16015625 C68.39638513 145.75285608 68.51659217 148.21267165 68.75390625 150.78515625 C68.810625 151.4915625 68.86734375 152.19796875 68.92578125 152.92578125 C69.06731546 154.67136986 69.22188012 156.41589298 69.37890625 158.16015625 C69.94174316 158.41071777 70.50458008 158.6612793 71.08447266 158.91943359 C93.63737932 169.05376398 115.75449257 183.22775765 129.53125 204.48046875 C130.14097656 205.36476563 130.75070312 206.2490625 131.37890625 207.16015625 C132.03890625 207.16015625 132.69890625 207.16015625 133.37890625 207.16015625 C146.0789008 190.88510359 155.51880003 165.9116447 155.37890625 145.16015625 C146.75129247 145.74158634 138.21487205 146.61844407 129.6484375 147.7890625 C127.27541154 148.10497483 124.90236401 148.42072525 122.52929688 148.73632812 C118.84935763 149.22992153 115.16971995 149.72559611 111.49047852 150.22436523 C107.89803167 150.70993431 104.30458119 151.18744382 100.7109375 151.6640625 C99.62214798 151.8140419 98.53335846 151.9640213 97.41157532 152.11854553 C91.02398869 152.9607724 84.82096979 153.35333913 78.37890625 153.16015625 C77.37890625 146.41015625 77.37890625 146.41015625 77.37890625 144.16015625 C79.22778442 143.92063232 79.22778442 143.92063232 81.11401367 143.67626953 C111.82799567 139.6969975 142.54119377 135.71171342 173.25390625 131.72265625 C174.12843319 131.60907021 175.00296013 131.49548416 175.90398788 131.37845612 C186.72897492 129.9724658 197.55394754 128.5663646 208.37890625 127.16015625 C208.37890625 123.86015625 208.37890625 120.56015625 208.37890625 117.16015625 C205.15135433 117.16015625 202.18407286 117.3518385 198.98950195 117.71374512 Z M195.9296875 139.21875 C195.1164653 139.32735855 194.3032431 139.4359671 193.46537781 139.54786682 C191.75139354 139.77770081 190.03759558 140.00892786 188.32397461 140.24145508 C185.6912444 140.59767815 183.05760311 140.94651815 180.42382812 141.29492188 C178.75905419 141.51908321 177.09433849 141.74367751 175.4296875 141.96875 C174.63806717 142.07295761 173.84644684 142.17716522 173.03083801 142.28453064 C169.39903853 142.49697475 169.39903853 142.49697475 166.37890625 144.16015625 C166.14167164 145.51770696 165.95909703 146.88490651 165.80078125 148.25390625 C163.92398402 163.39919033 160.94793806 177.29220021 154.37890625 191.16015625 C154.37890625 191.82015625 154.37890625 192.48015625 154.37890625 193.16015625 C163.76277435 197.8520903 181.81255322 192.13514193 191.37890625 189.16015625 C199.6179976 186.39953574 207.10386654 182.92330836 214.37890625 178.16015625 C214.26820801 177.48138428 214.15750977 176.8026123 214.04345703 176.10327148 C211.98926137 163.47563269 209.94813913 150.85855393 208.37890625 138.16015625 C204.15357946 138.16015625 200.10516378 138.65408846 195.9296875 139.21875 Z M-226.62109375 164.16015625 C-229.97659362 168.61901197 -231.95238739 173.08777845 -233.80859375 178.28515625 C-234.06833984 178.98769531 -234.32808594 179.69023437 -234.59570312 180.4140625 C-237.0170156 187.03356794 -239.62046405 194.29253042 -236.78515625 201.1953125 C-233.73790943 206.01159859 -230.11698372 207.84689347 -224.62109375 209.16015625 C-221.62338856 209.34143849 -218.78080175 209.05471929 -215.80859375 208.66015625 C-214.99108643 208.56049561 -214.1735791 208.46083496 -213.33129883 208.3581543 C-198.92432755 206.42593169 -178.81047919 203.19014888 -168.93359375 191.41015625 C-163.12633224 182.04706385 -162.43033405 170.87699355 -163.62109375 160.16015625 C-165.22570671 155.30352769 -167.77148722 152.8537126 -171.68359375 149.66015625 C-186.41985178 142.65336405 -215.80858243 153.32307104 -226.62109375 164.16015625 Z M69.37890625 170.16015625 C69.14107422 171.74957031 69.14107422 171.74957031 68.8984375 173.37109375 C68.66394075 174.75931448 68.42819858 176.14732524 68.19140625 177.53515625 C68.09021484 178.23382813 67.98902344 178.9325 67.88476562 179.65234375 C67.5234375 181.68359375 67.5234375 181.68359375 66.37890625 185.16015625 C63.01759609 187.28370647 59.2867102 187.61488128 55.37890625 188.16015625 C49.36361767 202.63203269 49.36361767 202.63203269 50.9921875 217.71875 C54.15761616 223.29168778 58.85258806 227.69066566 63.37890625 232.16015625 C63.88196289 232.6696582 64.38501953 233.17916016 64.90332031 233.70410156 C73.78435624 242.75662284 73.78435624 242.75662284 85.37890625 247.16015625 C92.63043552 247.03879174 99.12954889 245.26252433 105.94140625 242.91015625 C106.82248047 242.62269531 107.70355469 242.33523438 108.61132812 242.0390625 C120.01887323 238.2763275 120.01887323 238.2763275 128.37890625 230.16015625 C129.57451725 223.34517355 127.33867401 219.55631704 123.5078125 213.9609375 C120.71242175 210.28333168 117.71584292 206.86595229 114.55859375 203.49609375 C112.62075687 201.41934384 110.81200291 199.28640484 109.00390625 197.09765625 C98.97614547 185.67333518 83.99751305 174.76931698 69.37890625 170.16015625 Z M-73.93383789 174.15405273 C-75.15205482 174.31257721 -75.15205482 174.31257721 -76.3948822 174.4743042 C-79.06584508 174.82286547 -81.73604221 175.17695448 -84.40625 175.53125 C-86.26895931 175.77576587 -88.13170712 176.01998859 -89.99449158 176.26393127 C-93.89255967 176.77522068 -97.79027801 177.28907399 -101.68774414 177.80493164 C-106.67952871 178.46556261 -111.67193733 179.12132367 -116.66458988 179.77535915 C-120.50893009 180.27924887 -124.35303015 180.78495029 -128.19705009 181.29127693 C-130.03777515 181.5336607 -131.87855065 181.77566173 -133.71937752 182.01727104 C-136.29239744 182.35541309 -138.86510948 182.69580599 -141.43774414 183.03686523 C-142.19580353 183.13612808 -142.95386292 183.23539093 -143.7348938 183.33766174 C-149.22070977 184.0237169 -149.22070977 184.0237169 -154.62109375 185.16015625 C-155.87575057 186.94783173 -155.87575057 186.94783173 -156.55859375 189.22265625 C-158.96304522 195.31134786 -162.14923162 200.42459347 -167.55859375 204.22265625 C-168.23921875 204.86203125 -168.91984375 205.50140625 -169.62109375 206.16015625 C-169.16082481 212.91389842 -167.24274259 219.57589972 -165.74609375 226.16015625 C-163.57578744 235.80459276 -161.47534066 245.44975798 -159.62109375 255.16015625 C-158.60015625 254.52787109 -158.60015625 254.52787109 -157.55859375 253.8828125 C-154.31219673 251.97900786 -150.98949549 250.27106096 -147.62109375 248.59765625 C-147.0178125 248.29408203 -146.41453125 247.99050781 -145.79296875 247.67773438 C-143.15243123 246.36033577 -140.79423666 245.19791482 -137.8984375 244.56640625 C-133.90861023 242.10270502 -133.42032882 237.55326737 -132.18359375 233.22265625 C-125.92647405 213.04722738 -114.64003682 197.0991657 -95.80859375 186.72265625 C-86.82829602 182.32054952 -77.74459518 179.63249425 -67.86230469 178.32324219 C-64.61941211 177.83525785 -62.94550883 177.50658752 -60.6640625 175.0703125 C-60.14779297 174.12478516 -60.14779297 174.12478516 -59.62109375 173.16015625 C-64.46559686 173.03883432 -69.14243472 173.5121418 -73.93383789 174.15405273 Z M-191.93359375 214.41015625 C-203.0035259 217.55595589 -214.20326863 218.92334071 -225.62109375 220.16015625 C-231.87154431 242.66177826 -230.90190482 266.89665647 -230.87109375 290.03515625 C-230.87022766 291.34343384 -230.86936157 292.65171143 -230.86846924 293.99963379 C-230.84444462 308.08246942 -230.71542322 322.11456476 -229.62109375 336.16015625 C-207.20178012 328.08561208 -183.2016446 311.6890376 -170.41015625 291.22265625 C-165.53638015 280.84911445 -168.97620948 265.50400541 -170.74609375 254.78515625 C-170.85480804 254.10525635 -170.96352234 253.42535645 -171.07553101 252.72485352 C-173.21492852 239.3663223 -176.17012234 226.2420365 -179.62109375 213.16015625 C-184.11197537 211.74740621 -187.5643506 213.09834826 -191.93359375 214.41015625 Z M54.2421875 244.28515625 C53.40042969 245.23390625 52.55867187 246.18265625 51.69140625 247.16015625 C51.24224854 247.66345459 50.79309082 248.16675293 50.33032227 248.68530273 C47.24337828 252.1519745 44.18774727 255.64673288 41.140625 259.1484375 C38.38389791 262.29636311 35.5855201 265.40575723 32.77734375 268.5078125 C31.23239279 270.2163169 29.69527744 271.93195626 28.16796875 273.65625 C21.58259909 280.99819125 14.65520451 287.99221398 7.69140625 294.97265625 C7.19413025 295.47252045 6.69685425 295.97238464 6.18450928 296.48739624 C0.96626539 301.72702549 -4.28750565 306.87867293 -9.90698242 311.69116211 C-12.30467699 313.74598738 -14.61431483 315.89261864 -16.93359375 318.03515625 C-21.81671264 322.47799393 -26.80475962 326.73599762 -31.97167969 330.84521484 C-33.14252479 331.7786328 -34.3094517 332.71697506 -35.47363281 333.65869141 C-51.54823515 346.64323218 -68.66721135 358.21691419 -86.42578125 368.77734375 C-88.71419645 370.10563425 -88.71419645 370.10563425 -90.62109375 372.16015625 C-91.0792105 374.13250958 -91.0792105 374.13250958 -91.24609375 376.28515625 C-91.36984375 377.56390625 -91.49359375 378.84265625 -91.62109375 380.16015625 C-88.71814935 382.07138166 -86.03466091 383.43190315 -82.62109375 384.16015625 C-78.8211904 383.09428298 -75.88798795 380.98018108 -72.68359375 378.72265625 C-71.77552979 378.12098633 -70.86746582 377.51931641 -69.93188477 376.89941406 C-67.13215755 375.02561353 -64.37358597 373.10253884 -61.62109375 371.16015625 C-60.78674805 370.5779834 -59.95240234 369.99581055 -59.09277344 369.39599609 C-54.52590404 366.19734231 -50.01747819 362.92806611 -45.54736328 359.59570312 C-43.83778655 358.32164594 -42.11877199 357.06027462 -40.3984375 355.80078125 C-18.29380014 339.49749555 2.31015192 321.27952201 21.75390625 301.91015625 C22.59840332 301.07033203 23.44290039 300.23050781 24.31298828 299.36523438 C29.20799074 294.45762343 33.88381268 289.43527239 38.37890625 284.16015625 C39.26780926 283.13895726 40.1571033 282.11809844 41.046875 281.09765625 C47.78268829 273.24442897 54.06309922 265.11393308 60.18359375 256.77319336 C61.1737473 255.43701188 62.19440938 254.12349973 63.22265625 252.81640625 C64.56375136 251.23203151 64.56375136 251.23203151 64.37890625 249.22265625 C62.92634102 246.22674046 60.86192585 244.34036858 58.37890625 242.16015625 C56.11300547 241.92510301 56.11300547 241.92510301 54.2421875 244.28515625 Z M107.25390625 253.66015625 C106.59519531 253.89863281 105.93648438 254.13710938 105.2578125 254.3828125 C103.63048049 254.97242555 102.00455705 255.56592358 100.37890625 256.16015625 C100.14107422 257.88298828 100.14107422 257.88298828 99.8984375 259.640625 C97.63914488 275.05109849 93.68278185 289.77332398 82.50390625 301.22265625 C80.08782491 303.92520809 78.79685992 305.82764046 78.44140625 309.47265625 C79.28021259 319.21958588 89.34900076 328.12323902 96.37890625 334.16015625 C101.56983523 338.18884183 101.56983523 338.18884183 107.37890625 341.16015625 C111.52887697 340.15752332 114.95601435 337.63591756 118.56640625 335.41015625 C131.11059707 328.01446143 145.12447649 324.55691878 159.37890625 322.16015625 C158.7725556 316.39035086 156.65892977 311.49464551 154.37890625 306.22265625 C153.97808838 305.29404785 153.57727051 304.36543945 153.16430664 303.40869141 C144.65326309 284.13959573 131.9107032 265.5012703 116.37890625 251.16015625 C113.14674502 251.16015625 110.25764491 252.55977674 107.25390625 253.66015625 Z M74.37890625 255.16015625 C73.4353125 256.50207031 73.4353125 256.50207031 72.47265625 257.87109375 C67.32391954 265.15864544 62.04060453 272.25891456 56.37890625 279.16015625 C55.35216797 280.44792969 55.35216797 280.44792969 54.3046875 281.76171875 C48.830822 288.58193896 43.01865293 295.00876904 37.03955078 301.38183594 C35.2763994 303.26992689 33.52792495 305.17088086 31.78125 307.07421875 C20.65564015 319.16023815 20.65564015 319.16023815 15.02734375 323.66796875 C10.84399525 327.20734082 10.84399525 327.20734082 9.24951172 332.24902344 C9.4332134 334.68447006 9.74810881 337.06030444 10.12890625 339.47265625 C10.2990625 340.7265918 10.2990625 340.7265918 10.47265625 342.00585938 C10.75439233 344.06018495 11.06392723 346.11066436 11.37890625 348.16015625 C12.23355469 348.22074219 13.08820313 348.28132813 13.96875 348.34375 C15.07347656 348.42753906 16.17820312 348.51132812 17.31640625 348.59765625 C18.96962891 348.71947266 18.96962891 348.71947266 20.65625 348.84375 C23.37890625 349.16015625 23.37890625 349.16015625 24.37890625 350.16015625 C24.62890625 353.09765625 24.62890625 353.09765625 24.37890625 356.16015625 C21.34365139 358.18365949 20.18464423 358.48139643 16.69140625 358.78515625 C15.47904297 358.89730469 15.47904297 358.89730469 14.2421875 359.01171875 C13.62730469 359.06070313 13.01242187 359.1096875 12.37890625 359.16015625 C12.34152344 359.98257813 12.30414063 360.805 12.265625 361.65234375 C11.83909749 368.89494812 10.83154844 375.32669405 8.37890625 382.16015625 C2.2265625 382.2578125 2.2265625 382.2578125 0.37890625 382.16015625 C-0.62109375 381.16015625 -0.62109375 381.16015625 -0.80859375 377.91015625 C-0.62941151 374.32651145 0.07721703 372.41437929 1.37890625 369.16015625 C1.64227279 365.53886627 1.66329404 362.89037 0.33984375 359.4921875 C-0.88654221 355.23971911 -0.61622431 351.65269681 -0.24609375 347.28515625 C-0.16101563 346.10953125 -0.16101563 346.10953125 -0.07421875 344.91015625 C0.06608486 342.99267363 0.22100821 341.07627026 0.37890625 339.16015625 C-3.13912064 340.41182039 -5.66299308 341.7861831 -8.43359375 344.28515625 C-9.03816406 344.82398438 -9.64273438 345.3628125 -10.265625 345.91796875 C-10.71292969 346.32789063 -11.16023438 346.7378125 -11.62109375 347.16015625 C-11.13253906 347.59199219 -10.64398438 348.02382813 -10.140625 348.46875 C-8.62109375 350.16015625 -8.62109375 350.16015625 -8.30859375 353.22265625 C-8.62109375 356.16015625 -8.62109375 356.16015625 -10.62109375 358.16015625 C-12.93432462 358.10045997 -15.24682498 358.01177246 -17.55859375 357.91015625 C-28.43949012 358.02875253 -35.44833784 364.86387583 -43.49853516 371.45849609 C-46.25506507 373.66841253 -49.09941416 375.60492015 -52.05859375 377.53515625 C-52.96996094 378.13070312 -53.88132813 378.72625 -54.8203125 379.33984375 C-55.74457031 379.94054687 -56.66882813 380.54125 -57.62109375 381.16015625 C-59.87476845 382.65466359 -62.12291748 384.15739476 -64.37109375 385.66015625 C-66.12109375 386.82682292 -67.87109375 387.99348958 -69.62109375 389.16015625 C-66.60093869 392.18031131 -62.96922011 392.82769132 -58.93359375 394.03515625 C-58.05525879 394.2983667 -57.17692383 394.56157715 -56.27197266 394.83276367 C-38.25546093 400.01808854 -19.7288614 402.34770477 -1.01879883 402.40039062 C1.04582605 402.41005987 3.1094367 402.44117262 5.17382812 402.47265625 C24.71598051 402.62810734 43.35038513 398.09517545 58.12890625 384.66015625 C60.4980385 382.02778708 62.79497013 379.34646395 65.046875 376.61328125 C66.37890625 375.16015625 66.37890625 375.16015625 68.37890625 374.16015625 C68.37890625 353.70015625 68.37890625 333.24015625 68.37890625 312.16015625 C62.76890625 313.81015625 57.15890625 315.46015625 51.37890625 317.16015625 C38.48167198 318.79790028 38.48167198 318.79790028 35.43359375 317.03515625 C33.85729254 314.232843 34.63919064 312.18626557 35.37890625 309.16015625 C36.99345703 308.92232422 36.99345703 308.92232422 38.640625 308.6796875 C55.5778187 306.03696336 69.86795339 301.4581436 80.37890625 287.16015625 C85.54341307 279.31297505 89.37890625 267.65134284 89.37890625 258.16015625 C84.42890625 257.17015625 79.47890625 256.18015625 74.37890625 255.16015625 Z M-83.62109375 309.16015625 C-86.97655393 319.67393149 -86.54921579 329.31366796 -85.68359375 340.22265625 C-85.58192549 341.57871951 -85.48100828 342.93483931 -85.38085938 344.29101562 C-85.1349618 347.58135934 -84.88151562 350.87093563 -84.62109375 354.16015625 C-77.86429051 350.6075619 -71.43163759 346.88470969 -65.24609375 342.41015625 C-64.52566895 341.89501465 -63.80524414 341.37987305 -63.06298828 340.84912109 C-53.98706516 334.32272736 -44.90779038 327.67599738 -36.62109375 320.16015625 C-36.62109375 319.83015625 -36.62109375 319.50015625 -36.62109375 319.16015625 C-37.32081299 319.14557373 -38.02053223 319.13099121 -38.74145508 319.1159668 C-41.97266818 319.04058692 -45.20294727 318.94422944 -48.43359375 318.84765625 C-49.53380859 318.82509766 -50.63402344 318.80253906 -51.76757812 318.77929688 C-63.58608288 318.39580557 -73.75516077 315.7374449 -83.62109375 309.16015625 Z M113.37890625 351.16015625 C113.59546875 352.23652344 113.81203125 353.31289063 114.03515625 354.421875 C117.07116345 370.06469502 116.31814591 383.57168876 113.37890625 399.16015625 C113.93578125 399.48886719 114.49265625 399.81757813 115.06640625 400.15625 C129.10313653 408.90549573 134.15969729 420.65542089 138.37890625 436.16015625 C140.07405553 434.51637513 141.73463935 432.85424942 143.37890625 431.16015625 C143.91 430.61359375 144.44109375 430.06703125 144.98828125 429.50390625 C168.62006661 403.92087256 176.49380376 366.71845359 179.37890625 333.16015625 C154.31666785 332.47317103 134.43454092 337.54659935 113.37890625 351.16015625 Z M79.37890625 334.16015625 C79.37890625 346.04015625 79.37890625 357.92015625 79.37890625 370.16015625 C82.34890625 371.15015625 85.31890625 372.14015625 88.37890625 373.16015625 C90.5 374.80859375 90.5 374.80859375 91.81640625 376.53515625 C92.26886719 377.09976563 92.72132813 377.664375 93.1875 378.24609375 C95.6952854 382.27499489 96.7203082 386.32703923 97.50390625 390.97265625 C97.67148437 391.94847656 97.8390625 392.92429687 98.01171875 393.9296875 C98.13289063 394.66574219 98.2540625 395.40179688 98.37890625 396.16015625 C100.85390625 395.66515625 100.85390625 395.66515625 103.37890625 395.16015625 C106.79543094 381.75371337 108.49462041 362.63461811 101.37890625 350.16015625 C98.83581883 347.9155138 96.34887264 346.39743702 93.34765625 344.82421875 C89.08834504 342.43676273 85.80951994 339.21999474 82.27734375 335.8828125 C80.68273204 334.04815793 80.68273204 334.04815793 79.37890625 334.16015625 Z M74.44140625 383.03515625 C72.16707226 385.19811821 70.1963979 387.56189248 68.19140625 389.97265625 C55.27068153 404.9855771 35.62270521 411.32035815 16.43066406 412.88867188 C-18.58433498 415.00225331 -59.53024972 408.60871897 -91.0234375 392.41015625 C-94.59289545 390.69252235 -96.85509956 391.14623474 -100.62109375 392.16015625 C-103.10495434 395.88594714 -103.00151495 397.74727027 -102.62109375 402.16015625 C-101.25112218 405.03162619 -101.25112218 405.03162619 -99.62109375 407.16015625 C-96.01116996 406.50430436 -96.01116996 406.50430436 -92.62109375 405.16015625 C-90.62149363 405.12016425 -88.62062133 405.11668826 -86.62109375 405.16015625 C-86.23179687 405.97097656 -85.8425 406.78179687 -85.44140625 407.6171875 C-76.21678505 425.87513591 -61.80357079 437.07852847 -42.68359375 444.09765625 C-39.35927698 445.13726077 -36.99219674 445.35635409 -33.62109375 444.16015625 C-32.03592491 439.82736142 -31.24719054 435.72171859 -30.62109375 431.16015625 C-29.62109375 430.16015625 -29.62109375 430.16015625 -26.84765625 429.8984375 C-23.12089473 430.20072929 -21.86860915 431.03286291 -18.99609375 433.34765625 C-8.94183783 440.80921049 3.93343522 445.00779782 16.37890625 446.16015625 C17.13300781 446.23621094 17.88710938 446.31226563 18.6640625 446.390625 C23.65707192 446.72342333 23.65707192 446.72342333 27.75390625 444.09765625 C29.55705867 440.83811149 31.0190588 437.62776725 32.37890625 434.16015625 C33.61640625 434.13953125 34.85390625 434.11890625 36.12890625 434.09765625 C36.825 434.08605469 37.52109375 434.07445312 38.23828125 434.0625 C40.37890625 434.16015625 40.37890625 434.16015625 42.23071289 434.65795898 C44.52190719 435.19358652 46.53992911 435.28951945 48.890625 435.29296875 C50.15036133 435.29490234 50.15036133 435.29490234 51.43554688 435.296875 C52.30373047 435.29300781 53.17191406 435.28914063 54.06640625 435.28515625 C54.94619141 435.28902344 55.82597656 435.29289062 56.73242188 435.296875 C57.56837891 435.29558594 58.40433594 435.29429687 59.265625 435.29296875 C60.41357544 435.29127686 60.41357544 435.29127686 61.5847168 435.28955078 C63.40200151 435.35519817 63.40200151 435.35519817 64.37890625 434.16015625 C64.69081266 432.25289068 64.99816619 430.34473313 65.27880859 428.43261719 C66.37498977 421.12168496 67.36941598 414.88957327 72.37890625 409.16015625 C73.49265625 407.86078125 73.49265625 407.86078125 74.62890625 406.53515625 C77.37890625 404.16015625 77.37890625 404.16015625 79.6953125 402.83984375 C84.42274926 400.3466655 84.42274926 400.3466655 87.0625 395.98828125 C87.19970743 391.17795026 86.25300031 387.0880848 83.37890625 383.16015625 C79.51150385 380.83971481 78.29140415 380.57771078 74.44140625 383.03515625 Z M81.31640625 415.09765625 C76.02909166 421.60014827 75.57560188 428.02542845 76.37890625 436.16015625 C78.53038248 445.023723 83.7692342 453.32707732 91.56640625 458.22265625 C96.76345306 460.5244347 101.96394546 460.68288628 107.56640625 460.78515625 C108.42194092 460.80843994 109.27747559 460.83172363 110.15893555 460.85571289 C116.15016026 460.78062613 120.08819548 459.4363971 124.37890625 455.16015625 C128.13467637 449.22361638 128.23552494 443.0373497 127.37890625 436.16015625 C124.84621147 426.17008238 121.21067519 417.15955069 112.44140625 411.28515625 C101.92611126 405.32515127 89.74344128 405.75195073 81.31640625 415.09765625 Z " fill="#000000" transform="translate(261.62109375,19.83984375)"/>
<path d="M0 0 C4.19850373 0.49922755 6.58309319 2.39697559 9.78515625 4.953125 C17.49153616 10.77770242 25.73691269 15.91243198 35.1328125 18.515625 C38.28515625 19.390625 38.28515625 19.390625 39.28515625 20.390625 C39.47265625 23.828125 39.47265625 23.828125 39.28515625 27.390625 C36.95651291 29.71926834 36.45193554 29.70907537 33.28515625 29.765625 C19.71990834 29.37681216 7.42568178 19.24828569 -2.88671875 11.34765625 C-5.06818536 9.01236827 -5.49423414 7.55098595 -5.71484375 4.390625 C-4.26189915 1.2283338 -3.47039746 0.49933776 0 0 Z " fill="#000000" transform="translate(212.71484375,224.609375)"/>
<path d="M0 0 C0.85464844 0.09667969 1.70929688 0.19335938 2.58984375 0.29296875 C5.10673179 0.82179357 6.92328397 1.38315835 9.0625 2.8125 C10 6.25 10 6.25 10.0625 9.8125 C8.875 11.546875 8.875 11.546875 7.0625 12.8125 C4.72265625 12.95703125 4.72265625 12.95703125 2.125 12.625 C1.27035156 12.52832031 0.41570312 12.43164062 -0.46484375 12.33203125 C-2.98173179 11.80320643 -4.79828397 11.24184165 -6.9375 9.8125 C-7.875 6.375 -7.875 6.375 -7.9375 2.8125 C-5.66462345 -0.50709601 -3.83345399 -0.48999036 0 0 Z " fill="#000000" transform="translate(281.9375,95.1875)"/>
<path d="M0 0 C1.5778125 0.00580078 1.5778125 0.00580078 3.1875 0.01171875 C6 0.3125 6 0.3125 9 2.3125 C9.3125 5.8125 9.3125 5.8125 9 9.3125 C6.12699457 12.18550543 3.9965678 11.61271547 0 11.625 C-1.258125 11.64175781 -2.51625 11.65851563 -3.8125 11.67578125 C-5.3903125 11.49595703 -5.3903125 11.49595703 -7 11.3125 C-9.15502531 8.07996204 -9.46856135 7.06099077 -9 3.3125 C-6.53436295 -0.21344513 -4.11233118 -0.06551508 0 0 Z " fill="#000000" transform="translate(218,307.6875)"/>
</svg>
