<?xml version="1.0" encoding="UTF-8"?>
<svg version="1.1" xmlns="http://www.w3.org/2000/svg" width="512" height="512">
<path d="M0 0 C10.58177875 9.22514045 13.9759728 23.77804196 15.4375 37.125 C15.66350077 41.7425331 15.71641354 46.35066275 15.71189499 50.9723568 C15.71091019 53.19844618 15.72409328 55.42407782 15.74087524 57.65010071 C15.78659061 63.96827868 15.81175596 70.2863979 15.81835938 76.60473633 C15.82340345 80.49733526 15.84777961 84.38943933 15.88368607 88.28186989 C15.89339879 89.75005928 15.89586327 91.21831738 15.89051437 92.68652916 C15.86143436 101.0511279 16.0939151 108.71598949 20.4375 116.125 C22.7824786 118.41135413 24.92320312 119.83310177 27.75 121.4375 C29.4375 123.125 29.4375 123.125 30.1875 126.25 C29.06015384 132.07462181 25.87581244 135.32073219 21.4375 139.125 C11.55949975 145.26419898 1.83708511 146.23412194 -9.5625 145.125 C-22.10356792 142.10271561 -31.805225 133.60657664 -39.8828125 123.93359375 C-41.87941777 120.595084 -42.33292978 117.98637109 -42.5625 114.125 C-41.5625 112.125 -41.5625 112.125 -39.5625 111.125 C-36.3125 110.875 -36.3125 110.875 -32.5625 112.125 C-30.61157208 114.19483323 -29.01849388 116.39877796 -27.36328125 118.7109375 C-21.61143786 126.42165163 -13.36006033 132.04270688 -3.765625 133.5703125 C3.00051872 133.8570135 8.39844564 132.05937782 14.4375 129.125 C13.31183728 126.73919273 12.35497986 125.03422785 10.5625 123.0625 C2.89410646 112.46207363 3.30173533 99.49524788 3.26883507 86.97745514 C3.26156057 84.78034951 3.24581559 82.58345356 3.22749329 80.38641357 C3.17553322 74.14565915 3.12712527 67.90502864 3.11157227 61.6640625 C3.10139308 57.82789869 3.07183103 53.99228041 3.03025246 50.15633392 C3.01808715 48.71017362 3.01279418 47.26393585 3.01505089 45.81772614 C3.03054833 32.64651277 1.07597468 20.52735171 -7.5625 10.125 C-9.78737879 7.72836043 -9.78737879 7.72836043 -12.5625 6.125 C-13.42875 5.57005859 -13.42875 5.57005859 -14.3125 5.00390625 C-21.55562921 1.03939045 -29.56348093 1.26292955 -37.5625 2.125 C-40.65654992 3.1489937 -42.79582743 4.35432955 -45.5625 6.125 C-46.2225 6.125 -46.8825 6.125 -47.5625 6.125 C-47.5625 6.785 -47.5625 7.445 -47.5625 8.125 C-46.83933594 8.21136719 -46.11617188 8.29773438 -45.37109375 8.38671875 C-38.92867618 10.08020543 -34.00959595 15.77419553 -30.6171875 21.28515625 C-25.81819115 30.82519006 -23.32977916 40.52573938 -26.43359375 51.08984375 C-28.47466471 55.43297508 -30.56099132 58.22496841 -34.3125 61.1875 C-37.53858969 64.1360766 -37.97767635 66.59879346 -38.19677734 70.9152832 C-38.23252409 72.39942911 -38.26535958 73.88364775 -38.29541016 75.36791992 C-38.70023121 92.91710187 -46.12510041 105.59479378 -58.54296875 117.46484375 C-61.71073008 120.36214951 -65.12314492 122.6382065 -68.91796875 124.6484375 C-71.37438817 126.85396372 -71.20723799 128.89075937 -71.5625 132.125 C-71.46199025 134.31974304 -71.28272322 136.51182247 -71.0390625 138.6953125 C-70.83796875 140.53416016 -70.83796875 140.53416016 -70.6328125 142.41015625 C-70.48585938 143.67730469 -70.33890625 144.94445312 -70.1875 146.25 C-70.04828125 147.52488281 -69.9090625 148.79976562 -69.765625 150.11328125 C-69.04452716 157.18702976 -69.04452716 157.18702976 -67.5625 164.125 C-66.94375 163.650625 -66.325 163.17625 -65.6875 162.6875 C-60.3344975 160.01099875 -54.36308719 159.25864725 -48.5625 161 C-43.03270145 163.39095798 -38.81193679 167.9713497 -34.5625 172.125 C-31.61880755 170.77038046 -29.30477861 169.18473438 -26.8125 167.125 C-21.47337024 163.08857843 -16.72484205 161.80432017 -10.0625 162.25 C0.88356526 163.92101168 7.65721658 171.14193679 14 179.75 C20.5877988 189.48782673 26.70630945 200.08024547 25.4375 212.125 C24.03379484 216.7612376 22.33269092 219.46168198 18.40625 222.37109375 C14.85167862 225.25639664 14.12854774 228.46219852 13.5625 232.875 C13.45083496 233.64505371 13.33916992 234.41510742 13.22412109 235.20849609 C7.72416944 278.23653572 24.29911518 312.48331916 49.4375 346.125 C51.44867551 348.71079708 53.48499423 351.26735214 55.56640625 353.796875 C56.85096127 355.39519397 58.08621067 357.03402132 59.27734375 358.703125 C59.86644531 359.52296875 60.45554687 360.3428125 61.0625 361.1875 C61.57039063 361.92097656 62.07828125 362.65445312 62.6015625 363.41015625 C65.06251161 365.70878744 67.14757949 365.82549743 70.4375 366.125 C78.11472132 356.30267272 84.36257817 346.51768167 89.4375 335.125 C89.95828125 333.97 90.4790625 332.815 91.015625 331.625 C106.35148601 295.46465405 110.01113424 255.90764696 112.4375 217.125 C111.70635986 217.72320557 110.97521973 218.32141113 110.22192383 218.93774414 C84.9375 239.625 84.9375 239.625 82.19140625 241.87109375 C80.34412478 243.38298227 78.49778125 244.89601749 76.65234375 246.41015625 C74.81891623 247.91351524 72.98174058 249.41231622 71.140625 250.90625 C69.31793799 252.40232835 67.51599398 253.92399366 65.734375 255.46875 C64.87328125 256.2009375 64.0121875 256.933125 63.125 257.6875 C62.36574219 258.34878906 61.60648437 259.01007813 60.82421875 259.69140625 C57.81408935 261.49945452 55.89251638 261.51631401 52.4375 261.125 C50.5 259.4375 50.5 259.4375 49.4375 257.125 C49.65234394 253.85937206 50.17875486 252.41615362 52.37109375 249.94921875 C53.19738281 249.24410156 54.02367187 248.53898437 54.875 247.8125 C55.79023438 247.02617187 56.70546875 246.23984375 57.6484375 245.4296875 C60.89723977 242.74510299 64.16736832 240.09414959 67.4765625 237.484375 C71.31180196 234.42832667 75.09307409 231.30912902 78.875 228.1875 C80.35545871 226.96613367 81.8359273 225.7447793 83.31640625 224.5234375 C84.02297363 223.94045898 84.72954102 223.35748047 85.45751953 222.75683594 C89.77345361 219.1997825 94.10653096 215.6637186 98.4375 212.125 C99.8915625 210.93390625 99.8915625 210.93390625 101.375 209.71875 C102.8290625 208.52765625 102.8290625 208.52765625 104.3125 207.3125 C105.17617188 206.60480469 106.03984375 205.89710938 106.9296875 205.16796875 C108.62239596 203.78901778 110.35225441 202.45462524 112.11328125 201.1640625 C114.62080798 198.96418191 115.50331565 197.36904271 116.75 194.3125 C119.7819111 187.81691831 124.72934593 182.85700156 131.4375 180.125 C133.7265625 179.82421875 133.7265625 179.82421875 136.0625 179.8125 C136.83851563 179.79574219 137.61453125 179.77898437 138.4140625 179.76171875 C139.08179688 179.88160156 139.74953125 180.00148437 140.4375 180.125 C149.41084199 193.58501299 145.76677192 221.8382578 145.8125 237.3125 C145.82017395 238.40013641 145.8278479 239.48777283 145.83575439 240.60836792 C145.95138848 261.16899828 144.44309764 281.61995237 139.75 301.6875 C139.49581299 302.79552979 139.24162598 303.90355957 138.97973633 305.04516602 C132.74715904 331.26452363 123.05687416 358.99561161 106.13671875 380.38671875 C105.58411377 381.08764648 105.03150879 381.78857422 104.4621582 382.51074219 C103.39770718 383.8346502 102.31024809 385.14053346 101.19604492 386.42285156 C97.51422829 390.94295786 97.11781533 393.90155033 97.42626953 399.65844727 C97.45834825 406.70391048 93.64456827 411.76473423 88.9375 416.625 C88.40415039 417.18251953 87.87080078 417.74003906 87.32128906 418.31445312 C79.65759839 426.14602808 72.50653292 431.16234424 61.87915039 434.06152344 C56.32951259 435.64658374 51.63456136 438.03995381 46.625 440.875 C-13.52870645 474.15191585 -95.56587685 466.58664999 -159.5625 451.125 C-160.59713379 450.8789502 -161.63176758 450.63290039 -162.69775391 450.37939453 C-163.68050293 450.1317334 -164.66325195 449.88407227 -165.67578125 449.62890625 C-166.54630127 449.41177979 -167.41682129 449.19465332 -168.3137207 448.97094727 C-170.76619227 448.04837491 -171.95728282 447.17947203 -173.5625 445.125 C-174.01256217 442.16406469 -173.89390989 440.67806023 -172.34765625 438.09765625 C-171.77917969 437.46730469 -171.21070313 436.83695312 -170.625 436.1875 C-170.07972656 435.55972656 -169.53445312 434.93195313 -168.97265625 434.28515625 C-166.5625 432.125 -166.5625 432.125 -164.41235352 430.91918945 C-159.71015143 428.25083658 -157.13230106 426.3402785 -155.58203125 421.03515625 C-155.14763342 419.09282962 -154.74648794 417.14283397 -154.375 415.1875 C-153.90686058 413.11426462 -153.43158336 411.04262819 -152.94921875 408.97265625 C-152.72024902 407.9686377 -152.4912793 406.96461914 -152.25537109 405.93017578 C-149.83004512 396.11093847 -145.26100535 387.0567791 -140.27783203 378.30859375 C-136.50721731 371.59693708 -135.08190879 365.99654396 -136.125 358.375 C-136.21579834 357.65489746 -136.30659668 356.93479492 -136.40014648 356.19287109 C-137.77953083 346.32683777 -140.41446733 336.569098 -143.5625 327.125 C-146.04595772 325.89954909 -146.04595772 325.89954909 -149.0625 324.875 C-160.70665682 320.21181872 -168.40515182 312.59193728 -173.94921875 301.30078125 C-179.04376398 287.62594932 -177.6675407 271.28756099 -174.31640625 257.31640625 C-173.11415645 252.27060873 -173.11415645 252.27060873 -172.5625 247.125 C-174.13228602 244.8050991 -174.13228602 244.8050991 -176.5 243.1875 C-177.62728516 242.30771484 -177.62728516 242.30771484 -178.77734375 241.41015625 C-179.36644531 240.98605469 -179.95554688 240.56195313 -180.5625 240.125 C-185.03124141 241.57076928 -188.10908186 244.05488435 -191.5625 247.125 C-196.71009669 251.59977649 -201.98062509 255.84177588 -207.42382812 259.95117188 C-209.59414012 261.59320216 -211.63495531 263.19745531 -213.5625 265.125 C-212.90894531 265.99898438 -212.90894531 265.99898438 -212.2421875 266.890625 C-207.5691548 273.32363105 -203.96089164 279.9494486 -200.5625 287.125 C-199.89938414 288.46010283 -199.23420758 289.79419906 -198.5625 291.125 C-198.12679687 290.7640625 -197.69109375 290.403125 -197.2421875 290.03125 C-194.20458628 287.66428801 -192.16667053 286.22956798 -188.3125 285.5625 C-185.5625 286.125 -185.5625 286.125 -183.625 287.8125 C-182.25174668 290.80134547 -182.55989396 292.01817708 -183.5625 295.125 C-189.52146339 301.41540321 -197.59587469 305.86948352 -205 310.25 C-206.60343262 311.20507446 -206.60343262 311.20507446 -208.23925781 312.17944336 C-220.40786314 319.339575 -232.89857509 325.8844949 -245.5625 332.125 C-246.70912109 332.69718262 -247.85574219 333.26936523 -249.03710938 333.85888672 C-250.74350586 334.68477295 -250.74350586 334.68477295 -252.484375 335.52734375 C-253.5062793 336.02613037 -254.52818359 336.52491699 -255.58105469 337.03881836 C-258.83009901 338.22249001 -261.13288755 338.5047842 -264.5625 338.125 C-269.0794374 333.30252936 -270.51904884 326.83823952 -272.375 320.625 C-272.88885254 318.92585449 -272.88885254 318.92585449 -273.41308594 317.19238281 C-278.02169688 301.60805697 -282.17095878 285.66358197 -284.60546875 269.58203125 C-284.76112305 268.58010742 -284.91677734 267.57818359 -285.07714844 266.54589844 C-285.34818048 264.71377188 -285.58986541 262.87692001 -285.79394531 261.03613281 C-286.68293015 254.91013106 -288.82008384 252.44114008 -293.66674805 248.6730957 C-296.05663016 246.72148688 -297.24801944 244.73997605 -298.5 241.9375 C-298.88027344 241.11894531 -299.26054687 240.30039062 -299.65234375 239.45703125 C-300.5625 237.125 -300.5625 237.125 -300.92578125 234.91015625 C-301.13589844 234.32105469 -301.34601563 233.73195313 -301.5625 233.125 C-303.48615995 232.20268892 -303.48615995 232.20268892 -305.8125 231.75 C-310.83517896 230.29438285 -312.68105039 228.44717442 -315.5625 224.125 C-316.88924162 220.14477513 -316.82501364 216.48136239 -316.875 212.3125 C-316.90400391 211.51779297 -316.93300781 210.72308594 -316.96289062 209.90429688 C-317.0214416 204.4590565 -316.15504497 201.4543101 -312.5625 197.125 C-308.19350892 192.85530417 -304.25808507 190.99079511 -298.5625 189.125 C-299.243125 188.58875 -299.92375 188.0525 -300.625 187.5 C-302.87098341 185.68409852 -305.10252101 183.85911634 -307.3125 182 C-307.90546875 181.50242188 -308.4984375 181.00484375 -309.109375 180.4921875 C-311.82912914 177.93327904 -311.83603977 175.53965664 -312 171.9375 C-311.97905993 166.6257023 -310.76283382 164.09538536 -307.0703125 160.3671875 C-303.56075831 157.47589674 -300.06737549 157.6855921 -295.671875 157.69140625 C-290.30039462 158.44044434 -286.05041627 161.20828846 -281.5625 164.125 C-281.52511719 163.31675781 -281.48773438 162.50851563 -281.44921875 161.67578125 C-281.38347656 160.60714844 -281.31773437 159.53851563 -281.25 158.4375 C-281.19199219 157.38175781 -281.13398438 156.32601562 -281.07421875 155.23828125 C-280.34195187 150.78319192 -278.49921778 148.11681883 -275.4375 144.875 C-271.52903442 142.49593399 -268.11302971 141.93170316 -263.5625 142.125 C-258.63957439 143.73441799 -255.09976819 146.59623617 -252.5625 151.125 C-249.62526912 160.12203081 -250.49258993 169.64485889 -250.81640625 178.95703125 C-251.14144664 186.26863201 -251.14144664 186.26863201 -248.5625 192.89453125 C-245.14261094 198.58982866 -246.29439048 205.8067385 -246.40505981 212.23117065 C-246.6177814 228.33817683 -244.62513743 240.76946179 -236.64892578 255.06982422 C-235.27894166 257.66140317 -234.36357015 260.3098106 -233.5625 263.125 C-227.96486792 260.26398805 -223.40230825 256.64182607 -218.5859375 252.6171875 C-214.93529393 249.60800068 -211.18908825 246.74236051 -207.42407227 243.87890625 C-202.73721424 240.29834595 -198.20973032 236.55267075 -193.70703125 232.7421875 C-191.5625 231.125 -191.5625 231.125 -189.5625 231.125 C-189.91183594 230.66609375 -190.26117188 230.2071875 -190.62109375 229.734375 C-191.07613281 229.12078125 -191.53117187 228.5071875 -192 227.875 C-192.67869141 226.97007812 -192.67869141 226.97007812 -193.37109375 226.046875 C-195.89861417 221.96969452 -195.88192307 217.83649026 -195.5625 213.125 C-193.71780213 206.66855746 -190.11215793 202.86455445 -184.5625 199.125 C-182.5078125 198.40625 -182.5078125 198.40625 -180.5 197.875 C-175.4964714 196.29801239 -173.93279816 192.39059317 -171.4140625 188.0546875 C-166.39858557 180.11880628 -159.95269526 174.36209399 -150.75 172.25 C-143.69841084 171.59185168 -137.62340872 175.02208818 -131.55859375 178.20703125 C-128.32618975 179.69355755 -125.03402849 180.38110104 -121.5625 181.125 C-122.5525 176.67 -122.5525 176.67 -123.5625 172.125 C-124.655625 171.939375 -125.74875 171.75375 -126.875 171.5625 C-141.21000623 167.91543128 -151.13171096 155.76681206 -158.5390625 143.73046875 C-160.4327633 140.50151036 -161.77563205 137.18124567 -163.125 133.6875 C-165.82275272 127.46960272 -169.83429375 123.34308777 -174.6875 118.75 C-175.39334229 118.07654541 -176.09918457 117.40309082 -176.82641602 116.70922852 C-179.5371662 114.20210902 -179.5371662 114.20210902 -182.5625 112.125 C-186.09679935 112.33679967 -187.78183524 113.99836026 -190.171875 116.4765625 C-190.84476562 117.16363281 -191.51765625 117.85070312 -192.2109375 118.55859375 C-192.90445313 119.28175781 -193.59796875 120.00492188 -194.3125 120.75 C-198.99200804 125.5807469 -203.71412926 130.22708968 -208.81738281 134.61132812 C-210.81955348 136.34796189 -212.70805865 138.16942446 -214.5625 140.0625 C-215.14 140.64902344 -215.7175 141.23554688 -216.3125 141.83984375 C-216.725 142.26394531 -217.1375 142.68804687 -217.5625 143.125 C-215.96072218 147.10587165 -213.18019406 149.77993174 -210.1796875 152.73828125 C-209.64658966 153.27092087 -209.11349182 153.80356049 -208.5642395 154.3523407 C-207.43516483 155.47839921 -206.30366559 156.6020312 -205.16992188 157.72338867 C-203.45914129 159.41608744 -201.75632508 161.11647489 -200.0546875 162.81835938 C-194.90486663 167.95016728 -189.76283871 173.01338805 -184.15283203 177.64916992 C-182.32191041 179.34826744 -180.90557052 181.01669163 -179.5625 183.125 C-179.6875 186.25 -179.6875 186.25 -180.5625 189.125 C-183.5625 191.125 -183.5625 191.125 -186.36181641 191.10986328 C-190.52164707 189.82986657 -192.8553749 187.44325662 -195.7734375 184.3671875 C-196.34526764 183.78591095 -196.91709778 183.2046344 -197.5062561 182.60574341 C-199.32887788 180.74864169 -201.13360418 178.87527993 -202.9375 177 C-205.31565118 174.55532711 -207.70044444 172.11719406 -210.0859375 169.6796875 C-210.6550737 169.09573212 -211.2242099 168.51177673 -211.81059265 167.91012573 C-215.39983765 164.24575265 -219.07188381 160.74825186 -223.00463867 157.44921875 C-227.070164 153.99342665 -229.70570766 151.04174429 -230.3125 145.5625 C-230.34859375 144.83933594 -230.3846875 144.11617187 -230.421875 143.37109375 C-230.90034682 135.7288355 -234.48450246 130.94451252 -240.015625 125.88671875 C-246.20840003 121.32854829 -253.719913 121.99574515 -261.09545898 122.34667969 C-270.81029341 122.72209005 -275.99129193 119.8308765 -283.41015625 113.81640625 C-284.14105469 113.11386719 -284.87195313 112.41132813 -285.625 111.6875 C-288.82151058 108.66801137 -292.0312311 106.03042272 -295.625 103.5 C-298.84039601 101.05288445 -299.47661744 100.38264767 -300.8125 96.375 C-300.5625 93.125 -300.5625 93.125 -299.34350586 91.49487305 C-297.16007455 89.81547167 -295.52071603 89.44676359 -292.81640625 88.95703125 C-291.89666016 88.78623047 -290.97691406 88.61542969 -290.02929688 88.43945312 C-289.07087891 88.27380859 -288.11246094 88.10816406 -287.125 87.9375 C-286.17044922 87.76025391 -285.21589844 87.58300781 -284.23242188 87.40039062 C-280.24185981 86.6771187 -276.6348024 86.125 -272.5625 86.125 C-272.459375 84.949375 -272.35625 83.77375 -272.25 82.5625 C-271.74048638 78.11840897 -271.04801405 73.71306913 -270.25 69.3125 C-269.91548828 67.41564453 -269.91548828 67.41564453 -269.57421875 65.48046875 C-268.48207127 61.85824987 -267.69634395 60.23826468 -264.5625 58.125 C-262.0390625 58.0859375 -262.0390625 58.0859375 -259.5625 59.125 C-257.56163003 61.39602963 -255.91198724 63.78751876 -254.2109375 66.2890625 C-249.92912019 69.25728394 -245.51294387 67.94381393 -240.5625 67.125 C-240.42674561 66.46902832 -240.29099121 65.81305664 -240.15112305 65.13720703 C-239.53006235 62.17199047 -238.89029189 59.21112065 -238.25 56.25 C-238.03666016 55.21746094 -237.82332031 54.18492188 -237.60351562 53.12109375 C-237.38759766 52.13496094 -237.17167969 51.14882812 -236.94921875 50.1328125 C-236.75545654 49.22160645 -236.56169434 48.31040039 -236.36206055 47.37158203 C-235.5625 45.125 -235.5625 45.125 -232.5625 43.125 C-229.49293067 43.08663038 -227.44393984 43.38221042 -225.05078125 45.39892578 C-223.4691531 47.10457267 -222.00843463 48.86546332 -220.5625 50.6875 C-220.03994629 51.32284668 -219.51739258 51.95819336 -218.97900391 52.61279297 C-217.4884471 54.43634156 -216.02131539 56.27601189 -214.5625 58.125 C-213.88960938 58.97191406 -213.21671875 59.81882812 -212.5234375 60.69140625 C-208.83286825 65.48187422 -206.27097003 68.94852012 -206.5 75.1953125 C-207.1941797 86.59376763 -207.1941797 86.59376763 -203.27734375 96.86328125 C-200.81968552 99.25180704 -198.44497232 101.27833443 -195.5625 103.125 C-194.99144531 102.82207031 -194.42039062 102.51914063 -193.83203125 102.20703125 C-188.76511013 99.79130466 -184.33745796 98.61357143 -178.875 100.1875 C-175.36343214 102.24143592 -172.57559623 104.40586438 -169.5625 107.125 C-169.09225666 104.36232039 -168.91281405 102.80805418 -169.5625 100.125 C-171.17036283 97.9622961 -171.17036283 97.9622961 -173.25 95.875 C-183.10312957 85.60333041 -185.04402371 72.74797308 -184.80859375 58.99609375 C-183.86147471 44.09776099 -179.20096865 31.58103631 -168.23046875 21.2578125 C-163.45975442 17.44403501 -158.32525111 15.04591704 -152.5625 13.125 C-151.02540253 11.45679734 -151.02540253 11.45679734 -149.5 9.4375 C-141.99231375 0.61794436 -130.96811321 -3.92453223 -119.5625 -4.875 C-104.52500724 -5.72539614 -87.83906398 -2.99211029 -75.375 6 C-71.38686762 8.74130726 -68.1120274 8.26777023 -63.46875 7.51953125 C-62.52515625 7.32423828 -62.52515625 7.32423828 -61.5625 7.125 C-61.19125 6.01318359 -61.19125 6.01318359 -60.8125 4.87890625 C-57.92322388 -1.4865302 -51.69106155 -5.69434438 -45.375 -8.3125 C-28.86767468 -14.06851052 -13.78824781 -10.08896181 0 0 Z M-136.5625 13.125 C-137.51125 13.785 -138.46 14.445 -139.4375 15.125 C-141.67813156 17.01178675 -141.67813156 17.01178675 -142.84375 19.60546875 C-144.9964683 22.76115807 -146.60371717 23.23827551 -150.1875 24.4375 C-160.49862931 28.47228973 -165.78392183 34.36373572 -170.46875 44.29296875 C-174.33083765 54.29301713 -174.6108745 69.50968408 -170.5625 79.4375 C-169.93453773 80.68688326 -169.28524772 81.92794909 -168.5625 83.125 C-166.49051674 80.01702512 -165.82699232 77.70897108 -164.875 74.125 C-162.37579182 65.74750441 -158.25004724 57.92704197 -151.5625 52.125 C-148.4375 51.75 -148.4375 51.75 -145.5625 52.125 C-143.13785266 54.54964734 -142.81782004 56.28182755 -141.875 59.5625 C-137.74245561 72.32747045 -130.00882324 82.08226302 -118.38671875 88.703125 C-108.43588094 94.01649767 -108.43588094 94.01649767 -97.5625 95.125 C-95.8431388 93.50151205 -95.8431388 93.50151205 -94.5625 91.3125 C-91.61577622 87.10076854 -89.49472406 84.7703942 -84.30859375 83.62890625 C-78.46722084 82.76384797 -73.69953451 83.04993062 -68.5625 86.125 C-63.87569198 90.68513753 -61.53349014 96.7164651 -60.5625 103.125 C-53.14107088 96.94047574 -50.65325678 87.46294219 -49.5625 78.125 C-48.16642206 60.90670547 -52.86023472 44.6299017 -63.375 30.875 C-74.72504235 17.54455626 -89.80179478 8.88261206 -107.25 6.3125 C-117.70389699 5.53752656 -127.95231621 6.94812902 -136.5625 13.125 Z M-58.5625 17.125 C-58.5625 21.04178651 -56.8494038 22.10867777 -54.34765625 24.91796875 C-48.2991109 32.39592963 -44.44839365 41.01919891 -41.5625 50.125 C-38.50828239 49.45526602 -38.50828239 49.45526602 -37.40234375 47.3203125 C-35.61369523 42.64486846 -35.80199333 38.16715736 -37.54296875 33.4921875 C-40.64774715 27.09156741 -43.85522562 21.17376108 -50.5625 18.125 C-53.24146239 17.61115805 -55.83644551 17.35602157 -58.5625 17.125 Z M-227.5625 62.125 C-228.5525 67.075 -229.5425 72.025 -230.5625 77.125 C-234.5225 77.785 -238.4825 78.445 -242.5625 79.125 C-241.675625 80.56875 -240.78875 82.0125 -239.875 83.5 C-239.37613281 84.31210938 -238.87726563 85.12421875 -238.36328125 85.9609375 C-236.18015448 88.58447812 -234.86716264 89.29883434 -231.5625 90.125 C-227.9712893 90.1524756 -227.9712893 90.1524756 -224.25 89.75 C-222.99574219 89.63914062 -221.74148437 89.52828125 -220.44921875 89.4140625 C-219.02029297 89.27097656 -219.02029297 89.27097656 -217.5625 89.125 C-216.52868922 78.74602761 -216.52868922 78.74602761 -220.3125 69.4375 C-221.84453897 67.71252845 -221.84453897 67.71252845 -223.5625 66.125 C-224.8825 64.805 -226.2025 63.485 -227.5625 62.125 Z M-151.5625 69.125 C-160.08152628 88.56161336 -159.96762898 110.66740512 -152.3125 130.5 C-149.74149248 136.20903482 -146.38790079 141.18706655 -142.5625 146.125 C-141.94761719 146.95644531 -141.33273438 147.78789062 -140.69921875 148.64453125 C-138.34041317 151.38281561 -135.88625927 153.2925878 -132.9375 155.375 C-131.97585937 156.06078125 -131.01421875 156.7465625 -130.0234375 157.453125 C-125.9302004 160.23392735 -123.55638027 160.44419647 -118.5625 160.125 C-108.3778239 156.47206392 -99.7055187 150.10635729 -91.5625 143.125 C-90.87800781 142.55136719 -90.19351563 141.97773438 -89.48828125 141.38671875 C-85.01658311 137.02329418 -84.58297229 132.1776419 -83.984375 126.11328125 C-83.5784609 123.23805639 -83.1859632 121.50748495 -81.5625 119.125 C-79.6875 117.74609375 -79.6875 117.74609375 -77.5625 116.5625 C-74.53974456 114.8677566 -73.56417366 114.1275105 -71.5625 111.125 C-70.67110874 105.15152093 -71.71671735 100.37875258 -74.5625 95.125 C-77.40333641 93.70458179 -79.41727278 93.81047728 -82.5625 94.125 C-86.28964824 96.75592817 -87.73490672 100.32110368 -89.4375 104.41796875 C-90.5625 106.125 -90.5625 106.125 -92.265625 106.92578125 C-104.98089509 108.02863631 -120.66020253 101.13666396 -130.625 93.625 C-131.95794747 92.48175094 -133.27213675 91.31610454 -134.5625 90.125 C-135.17222656 89.59390625 -135.78195313 89.0628125 -136.41015625 88.515625 C-142.08298441 83.27916824 -147.11020093 76.48189721 -149.5625 69.125 C-150.2225 69.125 -150.8825 69.125 -151.5625 69.125 Z M-260.5625 83.125 C-260.73265625 83.89585938 -260.9028125 84.66671875 -261.078125 85.4609375 C-261.32046875 86.46382813 -261.5628125 87.46671875 -261.8125 88.5 C-262.04453125 89.49773437 -262.2765625 90.49546875 -262.515625 91.5234375 C-263.5625 94.125 -263.5625 94.125 -265.21875 95.375 C-268.38353845 96.3877323 -271.5565801 97.08675706 -274.8125 97.75 C-276.07578125 98.01039062 -277.3390625 98.27078125 -278.640625 98.5390625 C-279.60484375 98.73242188 -280.5690625 98.92578125 -281.5625 99.125 C-278.7559773 101.96045592 -275.95160746 104.76002093 -272.9375 107.375 C-272.36773437 107.87515625 -271.79796875 108.3753125 -271.2109375 108.890625 C-268.28154085 111.08420164 -265.6378508 111.24631108 -262.11328125 111.22265625 C-261.26572266 111.21943359 -260.41816406 111.21621094 -259.54492188 111.21289062 C-258.22331055 111.20032227 -258.22331055 111.20032227 -256.875 111.1875 C-255.98232422 111.18298828 -255.08964844 111.17847656 -254.16992188 111.17382812 C-251.96738013 111.16204983 -249.76497401 111.14560164 -247.5625 111.125 C-246.01331136 100.88414034 -246.01331136 100.88414034 -248.72412109 91.29101562 C-251.87322492 87.90111637 -255.56126908 85.40977748 -259.5625 83.125 C-259.8925 83.125 -260.2225 83.125 -260.5625 83.125 Z M-235.5625 100.125 C-237.33216801 105.43400404 -238.14933973 109.64319001 -236.5625 115.125 C-232.39824937 120.84258221 -226.89857465 125.52689312 -221.5625 130.125 C-219.9125 128.475 -218.2625 126.825 -216.5625 125.125 C-217.3565625 124.40054688 -218.150625 123.67609375 -218.96875 122.9296875 C-220.00078035 121.95394971 -221.03198769 120.97734091 -222.0625 120 C-222.58714844 119.525625 -223.11179687 119.05125 -223.65234375 118.5625 C-226.2923676 116.02533422 -227.50095107 114.55071343 -228.03125 110.8828125 C-227.5625 108.125 -227.5625 108.125 -225.5625 106.125 C-223.33203125 105.65625 -223.33203125 105.65625 -220.5625 106.125 C-218.26560787 107.90026418 -216.29647959 109.6008999 -214.25 111.625 C-213.70021484 112.14964844 -213.15042969 112.67429687 -212.58398438 113.21484375 C-211.23286829 114.50721566 -209.89621783 115.81468073 -208.5625 117.125 C-206.9125 115.805 -205.2625 114.485 -203.5625 113.125 C-204.95640539 109.96780428 -206.59884972 107.8437347 -209.0625 105.4375 C-209.97515625 104.53451172 -209.97515625 104.53451172 -210.90625 103.61328125 C-213.69837143 101.10432308 -215.68822554 100.96307181 -219.3515625 100.80859375 C-220.29257813 100.76669922 -221.23359375 100.72480469 -222.203125 100.68164062 C-223.18796875 100.64232422 -224.1728125 100.60300781 -225.1875 100.5625 C-226.18007812 100.51931641 -227.17265625 100.47613281 -228.1953125 100.43164062 C-230.65089838 100.32538931 -233.10658703 100.22335036 -235.5625 100.125 Z M-86.8125 153.125 C-94.24343102 159.89398027 -102.57549958 164.66901075 -111.5625 169.125 C-111.23247646 173.07843867 -110.87793576 177.02882621 -110.50048828 180.97802734 C-110.3755526 182.32181601 -110.2573433 183.66624768 -110.14599609 185.01123047 C-109.98481809 186.94394018 -109.79745333 188.87440987 -109.609375 190.8046875 C-109.50463867 191.96726074 -109.39990234 193.12983398 -109.29199219 194.32763672 C-108.85695685 197.25727946 -108.85695685 197.25727946 -106.49707031 198.52001953 C-105.85866211 198.71966309 -105.22025391 198.91930664 -104.5625 199.125 C-103.94375 198.48884766 -103.94375 198.48884766 -103.3125 197.83984375 C-100.23710536 194.71639607 -97.123817 191.6859569 -93.8125 188.8125 C-93.16152344 188.214375 -92.51054687 187.61625 -91.83984375 187 C-89.5625 185.125 -89.5625 185.125 -86.50390625 183.375 C-82.94528827 181.02924433 -80.11254829 179.15081986 -78.5625 175.125 C-78.00575534 166.41450255 -79.84443952 157.63233585 -81.5625 149.125 C-83.58534021 149.125 -85.47059467 151.84369684 -86.8125 153.125 Z M-268.5625 154.125 C-269.8768955 155.20560916 -269.8768955 155.20560916 -269.58422852 157.80883789 C-269.53709717 158.97664795 -269.48996582 160.14445801 -269.44140625 161.34765625 C-269.39306641 162.60771484 -269.34472656 163.86777344 -269.29492188 165.16601562 C-269.23839183 166.50651508 -269.18174973 167.84700982 -269.125 169.1875 C-269.07179396 170.53188246 -269.01905347 171.87628343 -268.96679688 173.22070312 C-268.83662455 176.52234657 -268.70164389 179.82372443 -268.5625 183.125 C-266.2525 183.125 -263.9425 183.125 -261.5625 183.125 C-261.36083874 173.56849683 -261.29810389 164.48585176 -263.5625 155.125 C-265.21864657 154.74281233 -266.88707024 154.41104898 -268.5625 154.125 Z M-299.5625 169.125 C-299.8925 170.445 -300.2225 171.765 -300.5625 173.125 C-299.31533203 174.02992188 -299.31533203 174.02992188 -298.04296875 174.953125 C-296.9450894 175.76011324 -295.84744551 176.56742187 -294.75 177.375 C-294.20279297 177.77074219 -293.65558594 178.16648438 -293.09179688 178.57421875 C-290.0546581 180.81986075 -287.63456244 182.95510799 -285.5625 186.125 C-283.9125 185.795 -282.2625 185.465 -280.5625 185.125 C-280.70920497 180.28373601 -283.17875766 177.92822988 -286.51953125 174.7734375 C-290.43444775 171.6145565 -294.46573584 169.125 -299.5625 169.125 Z M-66.5625 179.125 C-67.97142675 180.41618358 -69.3805709 181.70714316 -70.79443359 182.99291992 C-72.34171209 184.40159531 -73.88261788 185.81694169 -75.421875 187.234375 C-78.96060715 190.4924642 -82.50574423 193.74353782 -86.05493164 196.99023438 C-88.60229753 199.32182046 -91.14166134 201.66122374 -93.66796875 204.015625 C-112.00872435 221.06946224 -112.00872435 221.06946224 -119.90625 221.1484375 C-125.75302303 220.81383302 -129.89038365 219.70364231 -134.5625 216.125 C-135.625 213.5625 -135.625 213.5625 -135.5625 211.125 C-134.9025 210.135 -134.2425 209.145 -133.5625 208.125 C-129.44139241 207.67705352 -127.16880193 208.32184904 -123.5625 210.125 C-120.52038569 210.5417552 -120.52038569 210.5417552 -117.5625 210.125 C-115.88496257 208.66671327 -115.88496257 208.66671327 -114.5625 207.125 C-122.59989298 200.33422307 -130.92072801 194.11731854 -139.5625 188.125 C-140.62984375 187.38121094 -141.6971875 186.63742188 -142.796875 185.87109375 C-146.18321047 183.73311076 -147.63258605 183.32297675 -151.5625 184.125 C-157.84454915 187.84769579 -161.6693754 194.13739804 -165.5625 200.125 C-164.15246664 201.77577076 -162.74116212 203.42546914 -161.32421875 205.0703125 C-160.19236683 206.39038813 -159.06916731 207.71795948 -157.95703125 209.0546875 C-152.41806104 215.60672352 -146.26241261 221.50271793 -139.2890625 226.51953125 C-138.74209717 226.91406494 -138.19513184 227.30859863 -137.6315918 227.71508789 C-136.07662086 228.8205296 -134.50545953 229.90309153 -132.93359375 230.984375 C-130.5625 233.125 -130.5625 233.125 -129.59765625 235.703125 C-129.5625 238.125 -129.5625 238.125 -131.5625 241.125 C-135.24571582 241.69045144 -137.09744542 241.38879146 -140.3515625 239.54296875 C-141.75535156 238.43888672 -141.75535156 238.43888672 -143.1875 237.3125 C-143.69966064 236.91160156 -144.21182129 236.51070313 -144.73950195 236.09765625 C-154.97872387 227.95001605 -165.92725272 218.75726022 -173.5625 208.125 C-177.94889981 208.62630284 -180.55335106 209.85792401 -183.5625 213.125 C-184.26027562 216.12427865 -184.4424408 217.26343119 -183.5625 220.125 C-180.89989871 223.76426744 -177.70457568 226.7802761 -174.4375 229.875 C-173.52186279 230.76316406 -172.60622559 231.65132812 -171.6628418 232.56640625 C-165.19167094 238.76801593 -158.58438363 244.61869435 -151.31396484 249.86083984 C-149.45022186 251.20603934 -147.61070888 252.58113987 -145.76953125 253.95703125 C-122.68987805 272.26129404 -122.68987805 272.26129404 -96.0703125 280.578125 C-90.70978801 279.60955671 -86.20301112 276.86000416 -81.5625 274.125 C-80.81419922 273.68462402 -80.06589844 273.24424805 -79.29492188 272.79052734 C-62.30909007 262.69384228 -46.21689822 251.45950564 -30.5 239.5 C-18.05522036 230.05366874 -5.04758349 221.5609176 8.96875 214.625 C11.59966191 213.02647125 12.96421212 211.82177955 14.4375 209.125 C14.75177025 199.78932504 7.76887765 190.36807278 1.9375 183.75 C0.45288667 182.19351056 -1.04564398 180.65008489 -2.5625 179.125 C-3.10003906 178.55265625 -3.63757813 177.9803125 -4.19140625 177.390625 C-6.83742988 174.82390998 -8.74314732 174.08946282 -12.375 173.375 C-17.97125394 173.75874313 -21.60550309 177.47453102 -25.5625 181.125 C-26.2328125 181.73859375 -26.903125 182.3521875 -27.59375 182.984375 C-32.17078608 187.37978267 -36.11208464 192.1928443 -40.078125 197.13671875 C-42.79955042 200.4101314 -45.65205421 203.52064673 -48.5625 206.625 C-52.19218674 210.49954431 -55.67999615 214.41401813 -59 218.5625 C-63.57187282 224.25860384 -68.52873202 229.54533734 -73.5234375 234.8671875 C-76.55630819 238.10237446 -79.49643472 241.40969155 -82.390625 244.76953125 C-83.08910362 245.57743819 -83.80732254 246.36982254 -84.5625 247.125 C-87.23308851 247.26615161 -89.88682238 247.16747107 -92.5625 247.125 C-92.93015433 242.31080937 -92.38661732 240.15833924 -89.25 236.5 C-88.52039063 235.64019531 -87.79078125 234.78039062 -87.0390625 233.89453125 C-83.95928383 230.45042545 -80.84675492 227.03813585 -77.69970703 223.65551758 C-74.70932475 220.42888995 -71.8797432 217.12094805 -69.125 213.6875 C-65.75893655 209.50250162 -62.22971848 205.54292412 -58.5625 201.625 C-54.72551364 197.50734803 -50.95032135 193.35810352 -47.3125 189.0625 C-46.58546875 188.20527344 -45.8584375 187.34804687 -45.109375 186.46484375 C-43.19484514 184.03636568 -43.19484514 184.03636568 -43.5625 180.125 C-45.0019399 178.16448155 -45.0019399 178.16448155 -46.9375 176.4375 C-47.56398438 175.83550781 -48.19046875 175.23351562 -48.8359375 174.61328125 C-51.00640173 172.74236073 -52.35581864 172.16436788 -55.1875 171.625 C-60.3748292 172.39349322 -62.88064806 175.56091774 -66.5625 179.125 Z M-283.5625 198.125 C-282.19266497 201.28615776 -281.5734362 202.1177092 -278.5625 204.125 C-277.386875 204.29 -276.21125 204.455 -275 204.625 C-271.5625 205.125 -271.5625 205.125 -269.5625 207.125 C-269.3125 209.625 -269.3125 209.625 -269.5625 212.125 C-272.56867269 215.13117269 -275.38631598 214.72085316 -279.5625 215.125 C-279.72105469 215.71667969 -279.87960937 216.30835938 -280.04296875 216.91796875 C-281.60856947 222.22025186 -283.16270722 225.51491362 -287.5625 229.125 C-288.5525 229.62 -288.5525 229.62 -289.5625 230.125 C-288.91751973 235.67183028 -287.60261673 239.20852671 -283.5 243.0625 C-278.89391783 244.72852972 -275.12032534 243.66048689 -270.5625 242.125 C-265.44176258 239.66242315 -261.24070883 236.47335637 -257.5625 232.125 C-256.81370675 228.64272346 -256.81370675 228.64272346 -256.93359375 224.8125 C-256.93118179 224.12115967 -256.92876984 223.42981934 -256.92628479 222.7175293 C-256.92726044 221.26182292 -256.94058711 219.80607814 -256.96557617 218.35058594 C-256.99990919 216.1308709 -256.98622157 213.9151374 -256.96679688 211.6953125 C-256.97369586 210.27602484 -256.98336874 208.85674738 -256.99609375 207.4375 C-257.00697021 206.15488281 -257.01784668 204.87226563 -257.02905273 203.55078125 C-257.64464311 199.59747959 -258.76504106 197.93030962 -261.5625 195.125 C-268.42037527 192.30037019 -277.22014206 194.95382103 -283.5625 198.125 Z M130.4375 194.125 C122.35659293 203.16421976 123.1319651 216.2302316 122.66174316 227.62402344 C120.66615819 274.14349015 113.82620279 327.0774594 85.34765625 365.53125 C83.13743222 368.44715999 83.13743222 368.44715999 80.4375 373.125 C83.4075 375.765 86.3775 378.405 89.4375 381.125 C92.78338087 380.00970638 93.15678616 379.49362325 95.0390625 376.6875 C95.7674231 375.60625854 95.7674231 375.60625854 96.51049805 374.50317383 C97.02265869 373.71837646 97.53481934 372.9335791 98.0625 372.125 C98.59593018 371.31119873 99.12936035 370.49739746 99.67895508 369.65893555 C115.68434066 344.88715451 125.50510744 317.47618451 130.6875 288.5 C130.83872314 287.65566406 130.98994629 286.81132812 131.14575195 285.94140625 C133.85729734 269.60170419 134.78399115 253.29025665 134.6875 236.75 C134.68572754 235.86466583 134.68395508 234.97933167 134.68212891 234.06716919 C134.65069675 220.65999432 134.16496392 207.43572647 132.4375 194.125 C131.7775 194.125 131.1175 194.125 130.4375 194.125 Z M-304.5625 205.125 C-305.85254296 207.70508592 -305.76660224 209.68241574 -305.8125 212.5625 C-305.83828125 213.53058594 -305.8640625 214.49867188 -305.890625 215.49609375 C-305.76106871 218.12593524 -305.76106871 218.12593524 -304.328125 219.98046875 C-302.01309927 221.48113809 -300.77524322 221.35265662 -298.0625 221 C-297.2890625 220.91492188 -296.515625 220.82984375 -295.71875 220.7421875 C-293.16172575 220.01028563 -292.14342574 219.25107254 -290.5625 217.125 C-289.7964431 210.66823472 -291.27435205 206.64439121 -294.5625 201.125 C-299.30797942 201.125 -300.84923738 202.3194238 -304.5625 205.125 Z M-9.625 237.875 C-10.46611328 238.41382813 -11.30722656 238.95265625 -12.17382812 239.5078125 C-12.97369141 240.03632813 -13.77355469 240.56484375 -14.59765625 241.109375 C-15.3337915 241.59116211 -16.06992676 242.07294922 -16.82836914 242.56933594 C-18.88236151 244.4119432 -19.28617002 245.40529675 -19.5625 248.125 C-19.02107705 250.62409436 -18.41825606 252.99600044 -17.6875 255.4375 C-15.23157394 263.82999217 -14.37266091 271.66968526 -14.375 280.375 C-14.37072998 281.30868408 -14.36645996 282.24236816 -14.36206055 283.2043457 C-14.38470496 288.10365594 -14.66902386 292.53656041 -15.875 297.3125 C-17.10970999 302.55371792 -15.36538259 305.78742378 -12.7265625 310.32421875 C-12.34242188 310.91847656 -11.95828125 311.51273437 -11.5625 312.125 C-5.15262233 307.89819661 1.16414703 303.55170836 7.4375 299.125 C7.17195313 298.09761719 6.90640625 297.07023437 6.6328125 296.01171875 C6.27584474 294.61202937 5.91908527 293.21228687 5.5625 291.8125 C5.38847656 291.14154297 5.21445312 290.47058594 5.03515625 289.77929688 C4.47433382 287.56716397 3.95298492 285.34811619 3.4375 283.125 C3.24784668 282.37581299 3.05819336 281.62662598 2.86279297 280.85473633 C0.71515108 271.17700844 1.22037657 261.29036193 1.3125 251.4375 C1.32255016 249.56055165 1.33167241 247.68359809 1.33984375 245.80664062 C1.36169531 241.24596327 1.3961129 236.6855402 1.4375 232.125 C-2.63955605 232.125 -6.31810762 235.68567941 -9.625 237.875 Z M-259 247.9375 C-263.43658585 250.65442938 -267.58948189 252.25793163 -272.62890625 253.484375 C-273.58603516 253.80148437 -273.58603516 253.80148437 -274.5625 254.125 C-275.8450732 256.6901464 -275.39512969 257.70395596 -274.78515625 260.4765625 C-274.60146484 261.32734375 -274.41777344 262.178125 -274.22851562 263.0546875 C-274.02935547 263.94414062 -273.83019531 264.83359375 -273.625 265.75 C-273.42970703 266.6471875 -273.23441406 267.544375 -273.03320312 268.46875 C-272.54902104 270.68890201 -272.05855031 272.9074749 -271.5625 275.125 C-261.12936801 273.80964812 -254.96504784 266.9755355 -248.5625 259.125 C-250.10519924 254.40434033 -251.64044619 249.70835908 -253.5625 245.125 C-255.53184474 245.125 -257.40814091 246.9168228 -259 247.9375 Z M-33.9296875 255.546875 C-34.64068604 256.07176514 -35.35168457 256.59665527 -36.08422852 257.13745117 C-36.86080811 257.71084229 -37.6373877 258.2842334 -38.4375 258.875 C-50.81465203 267.90710984 -63.76731322 275.93392073 -76.9375 283.75 C-77.63302979 284.16403076 -78.32855957 284.57806152 -79.04516602 285.00463867 C-83.99443478 287.9053023 -88.5309662 290.23260736 -94.3125 290.875 C-95.09109375 290.97296875 -95.8696875 291.0709375 -96.671875 291.171875 C-105.20056041 291.03357199 -111.87439054 287.75435456 -119.1875 283.625 C-120.15244385 283.08818604 -121.1173877 282.55137207 -122.11157227 281.99829102 C-135.65579297 274.37170018 -148.1190923 265.40901766 -160.5625 256.125 C-161.5525 256.62 -161.5525 256.62 -162.5625 257.125 C-163.22622101 259.51804916 -163.74711704 261.81351499 -164.1875 264.25 C-164.31721191 264.96559082 -164.44692383 265.68118164 -164.58056641 266.41845703 C-166.65199752 278.77374272 -167.31884101 291.7176014 -159.8125 302.375 C-153.42958145 310.13462648 -146.50917011 315.31262092 -136.2890625 316.5078125 C-128.79254571 316.75173387 -122.09429222 315.73349011 -114.8125 314.125 C-100.25317368 310.95305764 -87.35002074 311.46930091 -72.85620117 314.68359375 C-62.99852247 316.80974072 -51.75425897 318.46032356 -42.515625 313.453125 C-33.59413053 307.38650876 -27.59142222 300.74449575 -25.06640625 290.125 C-23.24496479 279.28106942 -23.72683447 262.89339664 -29.5625 253.125 C-31.33172126 253.125 -32.55231961 254.51976926 -33.9296875 255.546875 Z M-243.5625 270.125 C-244.201875 270.805625 -244.84125 271.48625 -245.5 272.1875 C-252.46482923 279.05478261 -259.15443826 283.2937889 -268.5625 286.125 C-267.99178589 293.58337338 -266.26906685 300.3472882 -264.125 307.5 C-263.81240234 308.57894531 -263.49980469 309.65789062 -263.17773438 310.76953125 C-261.46966157 316.71429724 -261.46966157 316.71429724 -258.5625 322.125 C-246.68175981 310.49704151 -240.70120977 293.71999605 -240.125 277.25 C-240.12990918 274.43212828 -240.22172451 273.51719685 -242.08984375 271.3671875 C-242.81880859 270.75230469 -242.81880859 270.75230469 -243.5625 270.125 Z M-227.125 273.640625 C-230.29233918 276.86887455 -230.35678102 279.57188292 -230.5625 283.875 C-231.28293409 292.81167505 -233.61777227 300.6966607 -236.5625 309.125 C-237.23119953 311.12432123 -237.89860022 313.12407983 -238.5625 315.125 C-228.53626695 310.28563719 -218.92834879 305.15506703 -209.5625 299.125 C-210.12168657 293.79186245 -211.95998927 289.75664972 -214.375 285.0625 C-214.71853516 284.36833984 -215.06207031 283.67417969 -215.41601562 282.95898438 C-217.42648832 278.98707491 -219.5059882 275.41219193 -222.5625 272.125 C-224.77178873 271.9553057 -224.77178873 271.9553057 -227.125 273.640625 Z M5.125 313.8125 C4.20074219 314.49699219 3.27648437 315.18148438 2.32421875 315.88671875 C-0.69502366 318.22775515 -3.62750498 320.67917082 -6.5625 323.125 C-5.2425 328.405 -3.9225 333.685 -2.5625 339.125 C0.07046749 336.49203251 2.27700667 334.10973788 4.5625 331.25 C8.54973036 326.61126141 13.10022651 324.04953342 18.4375 321.125 C16.7875 317.495 15.1375 313.865 13.4375 310.125 C9.51596057 310.125 8.24100544 311.48088321 5.125 313.8125 Z M-28.9453125 316.15234375 C-37.38274744 326.44438395 -41.09111137 349.58744063 -40.828125 362.71484375 C-39.88671696 371.25673732 -35.06784844 377.27185456 -29.94140625 383.859375 C-22.90226373 393.22960627 -18.45678449 403.82205743 -15.5625 415.125 C-15.33820313 415.97835937 -15.11390625 416.83171875 -14.8828125 417.7109375 C-14.42189215 419.51042106 -13.98795797 421.31680362 -13.5625 423.125 C-6.01639482 421.99272247 0.8436431 420.17053053 7.9375 417.375 C9.30007935 416.8480957 9.30007935 416.8480957 10.69018555 416.31054688 C17.24407531 413.72488984 23.4342861 410.83658892 29.4375 407.125 C28.21672587 400.49551825 25.31105259 397.48181088 20.4375 393 C2.28281314 375.54174025 -8.95482172 355.48674446 -15.65795898 331.2878418 C-17.51920522 324.78890881 -20.25177149 319.02970136 -23.5625 313.125 C-25.77957 313.125 -27.35793125 314.78901871 -28.9453125 316.15234375 Z M-116.125 325.16796875 C-120.92727265 326.24360469 -125.65176105 326.80298433 -130.5625 327.125 C-129.44142958 332.84905366 -128.2523325 338.5531149 -127 344.25 C-123.49875283 360.64220265 -123.69005084 372.70740321 -132 387.4375 C-135.69836552 394.17762362 -138.5134761 400.68833282 -140.5625 408.125 C-136.70914168 406.49331478 -133.80221748 403.910109 -130.6875 401.1875 C-125.53387763 396.74906823 -120.26807233 392.50376488 -114.88769531 388.34448242 C-109.81672118 384.39418509 -104.96024264 380.21706732 -100.17993164 375.92016602 C-97.35710949 373.43350309 -95.29511003 371.72733512 -91.5625 371.125 C-89.375 371.75 -89.375 371.75 -87.5625 373.125 C-86.5 375.4375 -86.5 375.4375 -86.5625 378.125 C-90.13619433 382.07346377 -94.19928801 385.49175364 -98.25 388.9375 C-98.86721924 389.46448486 -99.48443848 389.99146973 -100.12036133 390.53442383 C-104.39762691 394.17168292 -108.7365136 397.72013494 -113.140625 401.203125 C-116.70484893 404.03150915 -120.21845806 406.92051912 -123.734375 409.80859375 C-125.71824699 411.43350547 -127.70671509 413.05084308 -129.703125 414.66015625 C-131.21132812 415.88025391 -131.21132812 415.88025391 -132.75 417.125 C-133.67167969 417.8675 -134.59335938 418.61 -135.54296875 419.375 C-136.20941406 419.9525 -136.87585938 420.53 -137.5625 421.125 C-137.5625 421.455 -137.5625 421.785 -137.5625 422.125 C-101.47855295 429.7052831 -60.98218289 435.7268351 -24.5625 426.125 C-26.60765834 411.13892597 -33.64079507 396.54100745 -42.6875 384.5625 C-50.8042687 373.50690125 -52.17572367 362.88182353 -50.16845703 349.49755859 C-49.26442009 344.37221507 -48.17303238 339.29554086 -47.02001953 334.22119141 C-46.43424364 331.53737507 -45.97914235 328.83975386 -45.5625 326.125 C-46.30371094 326.22039062 -47.04492188 326.31578125 -47.80859375 326.4140625 C-59.60149605 327.65542064 -70.85077204 326.40695999 -82.3125 323.5 C-94.15087468 320.65002091 -104.48873825 322.52524494 -116.125 325.16796875 Z M12.875 338.3125 C9.28809263 342.02722589 6.10976252 346.19530943 4.4375 351.125 C4.83660388 354.52496087 5.77905874 357.13980573 7.4375 360.125 C10.01444081 359.11196348 12.56427277 358.06851154 15.09375 356.94140625 C22.40379762 353.71815723 29.60819741 351.67823261 37.4375 350.125 C31.52312719 340.20063705 31.52312719 340.20063705 24.4375 331.125 C19.97867925 331.125 15.98257668 335.39490617 12.875 338.3125 Z M15.4375 369.125 C16.9446342 374.37987456 20.36757198 377.60440694 24.0625 381.4375 C24.67351562 382.08267578 25.28453125 382.72785156 25.9140625 383.39257812 C27.41560336 384.9762345 28.92343043 386.55333341 30.4375 388.125 C34.08122145 387.3570618 35.35148683 386.43702626 37.6875 383.5 C42.016584 378.31256314 46.81172005 373.87551997 52.4375 370.125 C50.92785018 366.282255 48.86057121 364.39301849 45.4375 362.125 C34.39246015 360.25623596 24.62885017 362.99743322 15.4375 369.125 Z M47.9375 387.50390625 C43.7931596 391.84898814 40.37350414 395.94166776 39.625 402.0625 C40.07516361 408.60916509 45.95592147 412.92017744 50.5390625 416.9921875 C54.30795451 420.03349418 57.41804995 422.23411848 62.4375 422.125 C71.33256775 418.27652171 80.05745483 410.21974686 85.4375 402.125 C86.52870075 398.3378915 86.5727803 395.80232657 84.84375 392.16015625 C80.18739476 385.42137547 73.31529082 379.52258851 65.4375 377.125 C58.27529586 377.125 52.70081617 382.94567731 47.9375 387.50390625 Z M34.4375 417.125 C32.96216797 417.86943359 32.96216797 417.86943359 31.45703125 418.62890625 C-15.36215507 441.74630919 -69.88410268 445.60406151 -120.76171875 435.96484375 C-137.63251346 432.50143554 -137.63251346 432.50143554 -153.8125 437.25 C-154.72 437.86875 -155.6275 438.4875 -156.5625 439.125 C-121.06065179 459.20198119 -50.53366592 455.29481744 -12.5625 448.125 C-10.96486875 447.85532062 -9.36721264 447.58578846 -7.76953125 447.31640625 C11.20532636 443.90273267 29.57768369 437.44748667 46.4375 428.125 C42.63338166 424.20560535 38.62173892 420.63397269 34.4375 417.125 Z " fill="#000000" transform="translate(341.5625,29.875)"/>
<path d="M0 0 C1.41441874 2.82883747 1.31900332 4.87376745 1 8 C-1.27442703 10.63833535 -3.10621421 11.02655355 -6.5 11.875 C-10 12 -10 12 -12.4375 10.9375 C-14 9 -14 9 -14.5 6 C-14 3 -14 3 -12.25 1.1875 C-7.84075824 -1.13959982 -4.89935606 -1.19762037 0 0 Z " fill="#000000" transform="translate(224,134)"/>
<path d="M0 0 C2.5 1.1875 2.5 1.1875 4 3 C4.5 6 4.5 6 4 9 C2.5625 11 2.5625 11 0 12 C-4.24996575 11.61501198 -7.93242735 11.06757265 -11 8 C-11.32618658 4.93384617 -11.42932497 2.83181713 -10 0.0625 C-6.69439048 -1.69360506 -3.47094803 -0.90091005 0 0 Z " fill="#000000" transform="translate(199,134)"/>
<path d="M0 0 C2.25 0.9375 2.25 0.9375 4.25 2.9375 C4.71382725 6.49350891 4.67769679 8.28740088 2.6875 11.3125 C-0.63627553 13.52835036 -2.83894954 13.44448802 -6.75 12.9375 C-8.928657 9.66951451 -9.47208564 8.72844962 -8.75 4.9375 C-4.04850024 -0.09201137 -4.04850024 -0.09201137 0 0 Z " fill="#000000" transform="translate(377.75,296.0625)"/>
<path d="M0 0 C4.83870968 0.38709677 4.83870968 0.38709677 7.125 2.25 C8.0625 5.125 8.0625 5.125 8.125 8.25 C6.6875 10.625 6.6875 10.625 5.125 12.25 C-2.2677665 11.76522843 -2.2677665 11.76522843 -4.9375 9.5 C-6.13641865 6.62259523 -5.8747146 5.17224267 -4.875 2.25 C-2.875 0.25 -2.875 0.25 0 0 Z " fill="#000000" transform="translate(226.875,273.75)"/>
</svg>
