<?xml version="1.0" encoding="UTF-8"?>
<svg version="1.1" xmlns="http://www.w3.org/2000/svg" width="512" height="512">
<path d="M0 0 C3.28189251 3.28189251 3.06501785 6.98382511 3.125 11.4375 C3.0887993 15.04550302 2.72681461 18.45677879 2 22 C2.84304688 21.97679688 3.68609375 21.95359375 4.5546875 21.9296875 C6.19824219 21.90261719 6.19824219 21.90261719 7.875 21.875 C9.51082031 21.84019531 9.51082031 21.84019531 11.1796875 21.8046875 C14 22 14 22 16 24 C17.22184551 36.62573692 11.57591326 47.90912162 3.9296875 57.6328125 C-0.72107706 63.06140528 -5.61418284 67.67883505 -12 71 C-12.66 71 -13.32 71 -14 71 C-13.98428955 71.80179687 -13.9685791 72.60359375 -13.95239258 73.4296875 C-12.67413507 149.54264064 -12.67413507 149.54264064 -31.9375 174.25 C-35.04073592 177.41131787 -38.76692327 179.68684903 -43 181 C-44.65 181 -46.3 181 -48 181 C-48 187.6 -48 194.2 -48 201 C-38.43 200.01 -28.86 199.02 -19 198 C-18.34 196.02 -17.68 194.04 -17 192 C-15 190 -15 190 -12.1796875 189.65234375 C-8.36972357 190.06891229 -6.99976825 191.07888874 -4.125 193.5625 C-3.26261719 194.29984375 -2.40023438 195.0371875 -1.51171875 195.796875 C-0.68285156 196.52390625 0.14601563 197.2509375 1 198 C1.69480469 198.56203125 2.38960938 199.1240625 3.10546875 199.703125 C11.01352826 206.20635957 20.7086136 216.1258408 24 226 C24.09475844 227.95648317 24.12988471 229.91622955 24.125 231.875 C24.12757813 232.90367187 24.13015625 233.93234375 24.1328125 234.9921875 C24 238 24 238 23.11328125 240.375 C22.91641041 244.93697249 26.24522127 247.75864013 29.0625 251.125 C30.37078674 252.74424042 31.67670897 254.36539365 32.98046875 255.98828125 C33.65255371 256.81924316 34.32463867 257.65020508 35.01708984 258.50634766 C38.08188527 262.36054865 40.9789489 266.33084727 43.875 270.3125 C48.86722949 277.1380341 53.93212766 283.90265461 59.0625 290.625 C59.72620605 291.49527832 60.38991211 292.36555664 61.07373047 293.26220703 C64.33480261 297.53172637 67.60904548 301.79044219 70.90234375 306.03515625 C71.51005615 306.82132324 72.11776855 307.60749023 72.74389648 308.41748047 C73.88894835 309.89762675 75.03801689 311.37467701 76.19165039 312.84814453 C80 317.77616719 80 317.77616719 80 320 C80.92619141 319.67515625 80.92619141 319.67515625 81.87109375 319.34375 C87.42447467 317.51798093 93.13183741 315.77596609 99 317 C104.23673482 320.5079814 104.76081827 329.15771151 106 335 C108.3687441 347.89273575 106.09683179 359.95375861 99 371 C94.56154879 376.72650452 89.49076254 381.62759437 83.96484375 386.2890625 C81.87622906 388.10777669 79.94098495 390.02496268 78 392 C74.79970478 395.25029983 71.45775424 398.24724245 68 401.21875 C65.21388904 403.70013007 62.6282832 406.36184201 60.01171875 409.01953125 C58.00738184 410.99273283 55.93951107 412.847815 53.8125 414.6875 C53.15636719 415.26113281 52.50023437 415.83476562 51.82421875 416.42578125 C50.2751559 417.76255283 48.70247026 419.0718724 47.125 420.375 C44.21876802 423.96505127 43.656611 427.50172464 43 432 C43.53109375 432.37511719 44.0621875 432.75023437 44.609375 433.13671875 C50.37933741 437.31678276 54.68171498 441.07474006 57 448 C57.74889802 455.59596558 57.31473967 462.10534148 54 469 C52.20209298 470.79790702 49.75223414 470.13056656 47.35771567 470.1430676 C46.54100266 470.14220112 45.72428965 470.14133463 44.88282776 470.14044189 C44.02175492 470.14341302 43.16068208 470.14638414 42.27351612 470.1494453 C39.36535854 470.15817177 36.45724193 470.15964385 33.54907227 470.16113281 C31.47337759 470.16575815 29.39768378 470.17078242 27.32199097 470.17617798 C21.66713789 470.18933025 16.01229669 470.19575227 10.3574307 470.20018864 C6.82915094 470.20311443 3.30087447 470.20721825 -0.22740364 470.21169281 C-11.25318209 470.22537434 -22.27895307 470.23503814 -33.30473942 470.2388947 C-46.05756048 470.24337913 -58.81027456 470.26094218 -71.56306309 470.2898953 C-81.40422426 470.31146709 -91.24535523 470.32159654 -101.0865398 470.32293582 C-106.97199009 470.32398696 -112.85733991 470.32996025 -118.74276543 470.34775543 C-124.27568853 470.36415877 -129.80843479 470.36642951 -135.34137344 470.35761642 C-137.37719888 470.35684191 -139.41303353 470.36124274 -141.44883537 470.37107468 C-144.21805297 470.38366905 -146.98663227 470.37798626 -149.75584412 470.36749268 C-150.5703264 470.37554908 -151.38480869 470.38360548 -152.22397226 470.39190602 C-154.46143246 470.3719368 -154.46143246 470.3719368 -158 470 C-160.41724334 466.374135 -160.35529954 464.3769175 -160.5625 460.05078125 C-160.59931885 459.36050339 -160.6361377 458.67022552 -160.67407227 457.95903015 C-160.79135217 455.74386234 -160.89667852 453.52835946 -161 451.3125 C-161.48220541 441.29321796 -162.20218362 431.41304846 -163.56713867 421.47119141 C-164.77424816 411.79116731 -164.60810037 403.24814599 -158.9375 395 C-157 393 -157 393 -155 392 C-154.97506444 388.01644868 -154.95702972 384.03292833 -154.94506836 380.04931641 C-154.93763579 378.03676759 -154.92492171 376.02424051 -154.91210938 374.01171875 C-154.89594517 367.57836629 -154.97039025 361.3560161 -156 355 C-156.35191406 355.60360352 -156.70382813 356.20720703 -157.06640625 356.82910156 C-158.70715552 359.63829565 -160.3535562 362.44413992 -162 365.25 C-162.55300781 366.19875 -163.10601562 367.1475 -163.67578125 368.125 C-164.23652344 369.07890625 -164.79726562 370.0328125 -165.375 371.015625 C-166.23992065 372.50255859 -166.23992065 372.50255859 -167.12231445 374.01953125 C-169 377 -169 377 -171.21166992 379.76171875 C-178.30112769 388.81162301 -177.88081892 396.54254734 -177.3125 407.5 C-177.21436393 409.94592692 -177.12826628 412.39135141 -177.05863953 414.83825684 C-177.01281012 416.34813266 -176.9492486 417.85760742 -176.86531067 419.36584473 C-176.74498446 422.51493486 -176.81403902 424.64787152 -178.30053711 427.46264648 C-180 429 -180 429 -183.203125 429.44140625 C-187.53916676 428.93731909 -190.82216541 427.75980475 -194.75 425.9375 C-195.44883301 425.62095459 -196.14766602 425.30440918 -196.86767578 424.97827148 C-209.39882024 419.16198874 -220.49009996 411.01042109 -230 401 C-230.21914062 401.76183594 -230.43828125 402.52367187 -230.6640625 403.30859375 C-234.81226878 416.81555811 -242.22330445 426.49661956 -254.04296875 434.28515625 C-256.77544168 435.28324516 -258.24982742 434.90416633 -261 434 C-271.63938366 427.14084751 -280.19104223 417.63836548 -283.58764648 405.30004883 C-284.55776928 399.88884287 -284.36941998 394.35457523 -284.375 388.875 C-284.39949219 387.63234375 -284.42398438 386.3896875 -284.44921875 385.109375 C-284.47668185 376.33949126 -282.83310824 369.24597946 -280 361 C-279.17565971 357.91457858 -278.48099008 354.80994099 -277.8125 351.6875 C-277.64814453 350.95466797 -277.48378906 350.22183594 -277.31445312 349.46679688 C-275.53629054 341.33908208 -273.57799328 332.27715231 -275 324 C-277.63063481 321.55160394 -277.63063481 321.55160394 -281 320 C-287.13731871 313.72319677 -288.31185733 307.50126063 -288.30078125 298.94140625 C-288.30506638 298.1934227 -288.3093515 297.44543915 -288.31376648 296.67478943 C-288.3194754 295.10245775 -288.32003559 293.53009967 -288.31567383 291.95776367 C-288.31251297 289.5722892 -288.33601772 287.18805611 -288.36132812 284.80273438 C-288.36360164 283.26562654 -288.36430437 281.72851542 -288.36328125 280.19140625 C-288.372491 279.48907364 -288.38170074 278.78674103 -288.39118958 278.06312561 C-288.33062132 271.47489523 -286.59956763 265.20556273 -282.1875 260.125 C-281.72730469 259.57070313 -281.26710938 259.01640625 -280.79296875 258.4453125 C-278.40880918 256.52344095 -275.89956268 255.91332915 -273 255 C-273.08494536 245.48014329 -273.18003012 235.96045438 -273.28752708 226.44082546 C-273.3371525 222.01893086 -273.38348094 217.59705634 -273.421875 213.17504883 C-273.45915996 208.89552119 -273.50562698 204.61617699 -273.55806351 200.33680916 C-273.57638101 198.71645437 -273.59156926 197.09606061 -273.60334396 195.47564507 C-273.70626239 181.78261913 -274.27919593 168.56850606 -279.09765625 155.5859375 C-280.90450799 150.40786023 -281.13681912 145.52152512 -281.09765625 140.07421875 C-281.0962413 139.32662796 -281.09482635 138.57903717 -281.09336853 137.80879211 C-281.08779764 135.43498635 -281.0752506 133.06127697 -281.0625 130.6875 C-281.05748123 129.07226699 -281.05291899 127.4570325 -281.04882812 125.84179688 C-281.03783775 121.89449445 -281.02059332 117.94726353 -281 114 C-290.92382292 121.1673755 -298.13673918 129.55447946 -305.0625 139.5625 C-315.11624996 154.09059861 -325.74605082 164.6270746 -342 172 C-335.02767115 179.19724268 -327.41274148 185.51920049 -319.50610352 191.65087891 C-314.63017883 195.45302052 -309.94406478 199.44193946 -305.27758789 203.49658203 C-300.45364555 207.66521946 -295.48459045 211.62395598 -290.44140625 215.5234375 C-288.18401081 217.27041952 -286.02095379 218.97904621 -284 221 C-283.67045568 224.09771665 -283.54665399 226.17331023 -285.0625 228.9375 C-287.4836351 230.26521925 -289.30714185 230.34903124 -292.00390625 229.81640625 C-295.40633434 228.4248065 -297.73169866 225.94010229 -300.3671875 223.4296875 C-303.34701939 220.67975362 -306.47649427 218.22071878 -309.6875 215.75 C-315.27824258 211.41783871 -320.67691443 206.90599328 -326.0234375 202.27709961 C-330.13114531 198.72632001 -334.31422306 195.29333922 -338.57421875 191.92578125 C-341.23866722 189.81052666 -343.87061815 187.65866733 -346.5 185.5 C-347.41265625 184.75363281 -348.3253125 184.00726563 -349.265625 183.23828125 C-351.07096575 181.76048089 -352.87312211 180.27878071 -354.671875 178.79296875 C-359.9800223 174.44734506 -359.9800223 174.44734506 -365.8125 170.875 C-371.48075006 167.54073526 -374.26510487 163.03391791 -376.71484375 157.125 C-377.15332968 153.85737883 -376.46551366 151.93494581 -375 149 C-372.19921875 147.41796875 -372.19921875 147.41796875 -368.6875 146.1875 C-349.66361091 138.90945854 -336.41638671 124.10548795 -324.625 108.0625 C-319.83321228 101.61491129 -314.5290582 95.81047733 -309 90 C-308.34515625 89.28070313 -307.6903125 88.56140625 -307.015625 87.8203125 C-299.35843555 79.67227758 -289.77348921 73.25519174 -279.90234375 68.08984375 C-276.95073805 66.39888278 -274.55159675 64.24042641 -272 62 C-267.80088549 59.90044274 -262.30106096 60.77063079 -257.6875 60.75 C-255.97530273 60.7190625 -255.97530273 60.7190625 -254.22851562 60.6875 C-253.12572266 60.68234375 -252.02292969 60.6771875 -250.88671875 60.671875 C-249.87826904 60.6625293 -248.86981934 60.65318359 -247.83081055 60.64355469 C-243.7224822 61.16086037 -241.0613334 62.82074067 -238.3125 65.875 C-236.03852817 67.96459573 -234.33769142 68.85378329 -231.5625 70.125 C-214.01412728 78.66895989 -199.6060252 94.64302456 -188.3125 110.1875 C-176.18914186 126.8678651 -162.08917451 140.93866006 -142.29296875 147.96484375 C-140 149 -140 149 -138 152 C-138.21679289 158.61218321 -139.6782514 162.70413515 -144.50390625 167.4921875 C-147.51245843 170.1866217 -150.65763103 172.46056657 -154.0625 174.625 C-159.66407582 178.25742118 -164.55375246 182.67020512 -169.578125 187.04296875 C-173.16356642 190.1599257 -176.85197189 193.13129803 -180.578125 196.078125 C-185.09661741 199.66376736 -189.54068708 203.34123694 -194 207 C-196.74398251 209.24578427 -199.48864803 211.49072382 -202.234375 213.734375 C-204.12348985 215.28195497 -206.00874304 216.83425776 -207.890625 218.390625 C-210.58071626 220.61031779 -213.28907979 222.80584896 -216 225 C-216.66 225.56460938 -217.32 226.12921875 -218 226.7109375 C-221.25556957 229.34155398 -222.67496819 230.01547771 -226.9375 229.8125 C-227.948125 229.544375 -228.95875 229.27625 -230 229 C-230.8125 225.8125 -230.8125 225.8125 -231 222 C-227.71433397 218.24755115 -223.8765104 215.07923779 -220.0625 211.875 C-219.50038818 211.40054443 -218.93827637 210.92608887 -218.35913086 210.43725586 C-213.76095001 206.58180427 -209.05116047 202.88266076 -204.31176758 199.20336914 C-199.41119573 195.37626236 -194.69364015 191.36057317 -189.99316406 187.29174805 C-184.19861627 182.28294358 -178.37930425 177.2528695 -172 173 C-173.52367187 172.21689453 -173.52367187 172.21689453 -175.078125 171.41796875 C-190.18557862 163.43757664 -200.03035449 153.74857465 -209.72705078 139.82373047 C-216.5866666 129.99608755 -223.50167722 120.14496339 -234 114 C-233.97381592 115.001521 -233.94763184 116.00304199 -233.9206543 117.03491211 C-233.82846383 120.83871076 -233.77215502 124.64241691 -233.7253418 128.44702148 C-233.70057381 130.07707448 -233.66674869 131.70702119 -233.62280273 133.33666992 C-233.34070405 144.08628908 -234.35842679 153.25097935 -237.81958008 163.46313477 C-239.70470017 169.11147703 -240.16028448 174.25419169 -240.20532227 180.18676758 C-240.21522186 180.99704407 -240.22512146 181.80732056 -240.23532104 182.64215088 C-240.26680619 185.30958169 -240.29164193 187.97703029 -240.31640625 190.64453125 C-240.336987 192.49827018 -240.35798377 194.35200454 -240.37937927 196.20573425 C-240.43448417 201.07677497 -240.48394439 205.94785724 -240.53222656 210.81896973 C-240.5825263 215.79276207 -240.63816809 220.76649433 -240.69335938 225.74023438 C-240.80079923 235.49343822 -240.9022755 245.24669431 -241 255 C-240.21520264 255.29350342 -239.43040527 255.58700684 -238.62182617 255.8894043 C-235.68926156 257.13162763 -234.36186312 258.40392267 -232.3125 260.8125 C-231.73113281 261.47894531 -231.14976562 262.14539063 -230.55078125 262.83203125 C-227.25273039 267.44265651 -226.89829106 270.97486508 -227 276.5625 C-226.56712573 284.11812371 -223.78604038 287.55851665 -218.72265625 292.95703125 C-214.29084111 297.69968571 -211.23069366 303.40494394 -208 309 C-198.37318462 290.51085164 -189.93119356 271.42226814 -182.3788147 251.99716187 C-181.87879239 250.71385698 -181.3739312 249.43242637 -180.86410522 248.15298462 C-180.15655946 246.3699225 -179.47225898 244.57768912 -178.7890625 242.78515625 C-178.39412598 241.76301025 -177.99918945 240.74086426 -177.59228516 239.68774414 C-176.76338468 237.05030575 -176.76338468 237.05030575 -177.78027344 234.78417969 C-179.90848638 231.67109318 -182.22223445 228.70451946 -184.5390625 225.73046875 C-186.45598876 222.14776432 -186.44811161 220.03300453 -186 216 C-184.34182179 213.70136843 -182.91582248 212.04392366 -180.890625 210.13671875 C-180.36740662 209.61866165 -179.84418823 209.10060455 -179.30511475 208.56684875 C-178.20010013 207.47892083 -177.08678239 206.39936977 -175.96582031 205.32788086 C-174.25363802 203.69097807 -172.56670102 202.03118304 -170.8828125 200.36523438 C-169.8034651 199.30848267 -168.7227792 198.253096 -167.640625 197.19921875 C-166.88413666 196.46018562 -166.88413666 196.46018562 -166.11236572 195.70622253 C-161.21152215 191.03442829 -157.97830701 189.60935616 -151.328125 189.73046875 C-147.79742875 190.13922385 -145.15349861 191.38970284 -142 193 C-141.43152344 192.25234375 -140.86304688 191.5046875 -140.27734375 190.734375 C-130.85515088 178.71675338 -130.85515088 178.71675338 -123.77734375 177.671875 C-118.23829433 177.41295449 -116.39783826 178.30108087 -111 181 C-110.67 167.47 -110.34 153.94 -110 140 C-111.65 139.67 -113.3 139.34 -115 139 C-121.13760972 135.58233293 -127.2312692 129.94172666 -129.64453125 123.19921875 C-130.14290561 120.11586971 -130.15963006 117.05849058 -130.25 113.9375 C-130.54032288 107.71629546 -131.97578016 103.00196882 -134.7890625 97.46484375 C-139.96191567 86.93558456 -139.09740151 73.83920107 -135.98828125 62.83203125 C-132.12838557 51.77106536 -132.12838557 51.77106536 -128.39453125 48.6640625 C-126.18854362 46.03170752 -126.4443573 43.30404296 -126.1875 39.9375 C-125.26081202 31.16562777 -122.41824713 24.48368112 -115.5 18.8125 C-93.02163613 3.78435143 -67.66318059 2.18257642 -41.41894531 3.85644531 C-27.13064845 4.70439834 -13.56032483 -0.72644597 0 0 Z M-15.53759766 14.50048828 C-20.50118832 15.21657251 -25.39171609 15.06126054 -30.3984375 14.9921875 C-32.67577664 14.97465151 -34.9531207 14.95774516 -37.23046875 14.94140625 C-40.78904139 14.91065737 -44.34736145 14.87536311 -47.90576172 14.82861328 C-70.12191629 14.55250132 -94.40741641 14.78158522 -111.4375 31.375 C-113.86892027 35.45978606 -115.39923348 39.27190454 -114.6953125 44.08203125 C-112.26726596 51.92072472 -106.32412241 55.4530727 -99.375 59.125 C-77.19008936 69.69187764 -49.14318174 72.49495829 -25.5625 64.875 C-12.6839257 59.77723101 -3.70880363 51.23086666 2.2734375 38.82421875 C3.03732154 36.90629485 3.54693053 35.01216146 4 33 C2.51886719 32.92652344 2.51886719 32.92652344 1.0078125 32.8515625 C-0.27351563 32.77679688 -1.55484375 32.70203125 -2.875 32.625 C-4.15117187 32.55539063 -5.42734375 32.48578125 -6.7421875 32.4140625 C-10 32 -10 32 -12 30 C-12.55886694 25.08197089 -11.24450176 22.3019617 -9 18 C-9 16.68 -9 15.36 -9 14 C-12.77701373 13.87099898 -12.77701373 13.87099898 -15.53759766 14.50048828 Z M-121 58 C-127.26330926 69.48273365 -128.26226006 79.41699691 -125 92 C-121.21178967 92.28386469 -121.21178967 92.28386469 -118.875 91 C-113.43865686 89.10909804 -107.99958958 89.25941127 -102.625 91.25 C-100.06664421 92.95557053 -98.04923639 94.71431325 -96 97 C-91.27735315 95.16118218 -90.186416 92.1527086 -88.10546875 87.75390625 C-86.54787573 83.87368336 -85.72972565 80.11299914 -85 76 C-86.50626953 75.47212891 -86.50626953 75.47212891 -88.04296875 74.93359375 C-99.89101777 70.69205918 -110.94341241 65.71784629 -121 58 Z M-269 74 C-270.10501759 77.31505277 -270.14035035 79.80821037 -270.16113281 83.30053711 C-270.17074036 84.6029686 -270.1803479 85.90540009 -270.19024658 87.24729919 C-270.19509801 88.67397892 -270.19937599 90.1006607 -270.203125 91.52734375 C-270.2088825 92.99646505 -270.21464015 94.46558634 -270.22039795 95.93470764 C-270.2309076 99.02068429 -270.23674886 102.10663493 -270.24023438 105.19262695 C-270.24568483 109.11614368 -270.26963798 113.03930733 -270.29820633 116.9627142 C-270.31699406 120.00251708 -270.32204704 123.04223819 -270.32357025 126.08209419 C-270.32656683 127.52635161 -270.33449193 128.97060865 -270.34775543 130.41480827 C-270.42386077 139.34751272 -269.65793971 147.42792736 -267 156 C-266.7142511 156.94072861 -266.4285022 157.88145721 -266.13409424 158.85069275 C-265.64994076 160.42084372 -265.15574184 161.98795658 -264.6484375 163.55078125 C-263.10570273 169.37785778 -262.84181386 175.23329655 -262.79467773 181.23022461 C-262.78477814 182.02128601 -262.77487854 182.81234741 -262.76467896 183.62738037 C-262.73331553 186.21900532 -262.70840701 188.81064853 -262.68359375 191.40234375 C-262.66300244 193.20838371 -262.64200542 195.01441909 -262.62062073 196.82044983 C-262.56562474 201.55665355 -262.51611705 206.29289913 -262.46777344 211.0291748 C-262.41739356 215.86909681 -262.36179384 220.70895858 -262.30664062 225.54882812 C-262.19933424 235.03250054 -262.09782901 244.51622542 -262 254 C-259.03 254 -256.06 254 -253 254 C-252.99191315 253.09592407 -252.98382629 252.19184814 -252.97549438 251.26037598 C-252.89701616 242.67101816 -252.8095731 234.08180589 -252.71247292 225.49263763 C-252.66287773 221.07861875 -252.61654996 216.66461966 -252.578125 212.25048828 C-252.54080067 207.97744051 -252.49432506 203.70457506 -252.44193649 199.4316864 C-252.42363926 197.81494906 -252.40844419 196.19817303 -252.39665604 194.58137512 C-252.29460291 181.04735579 -251.86560509 167.95257638 -247.41210938 155.05957031 C-244.54903258 146.6655819 -244.30148459 138.85002438 -244.40625 130.046875 C-244.40796716 128.48748874 -244.40788929 126.92809959 -244.40612793 125.36871338 C-244.40776292 122.13826003 -244.42614181 118.90851615 -244.45800781 115.67822266 C-244.49808333 111.5423262 -244.50199584 107.40733654 -244.49454498 103.2712822 C-244.49147846 100.06790883 -244.50357779 96.86473893 -244.52067566 93.6614151 C-244.52768619 92.13521853 -244.53083256 90.60899899 -244.52998352 89.08278656 C-244.53178169 86.96068784 -244.55314981 84.83968274 -244.58007812 82.71777344 C-244.58849731 81.51360779 -244.5969165 80.30944214 -244.60559082 79.06878662 C-245.03148477 75.75502585 -245.66998512 74.35216687 -248 72 C-249.96363538 71.4223114 -249.96363538 71.4223114 -252.125 71.5390625 C-252.91390625 71.54292969 -253.7028125 71.54679687 -254.515625 71.55078125 C-255.33546875 71.57527344 -256.1553125 71.59976563 -257 71.625 C-257.81984375 71.62628906 -258.6396875 71.62757812 -259.484375 71.62890625 C-264.53168315 71.6609294 -264.53168315 71.6609294 -269 74 Z M-29.18359375 76.65625 C-44.23399589 79.69812196 -58.76177788 79.50766862 -74 78 C-74.27972656 79.02738281 -74.55945313 80.05476563 -74.84765625 81.11328125 C-78.35995451 93.47513509 -83.3283664 106.107614 -95 113 C-98.15234375 113.39453125 -98.15234375 113.39453125 -101 113 C-103 110 -103 110 -103.875 106.5 C-104.73205506 103.03944875 -104.73205506 103.03944875 -106.75 101 C-109.92394255 99.58935887 -111.72351205 99.95431236 -115 101 C-119.14192189 105.28474679 -119.28923124 109.81784872 -119.21484375 115.49609375 C-118.82292362 120.06374473 -117.12857758 122.87142242 -113.9375 126.0625 C-110.51668459 128.31878251 -106.96684105 129.94080453 -103.20703125 131.55859375 C-100.3825158 133.40327729 -99.8627216 134.77313522 -99 138 C-98.91127689 139.623111 -98.86980663 141.2494742 -98.875 142.875 C-98.49823395 146.85459141 -97.80360042 148.87312547 -94.875 151.625 C-85.71149663 158.52191243 -75.34870882 163.12078713 -64.625 167 C-63.80547852 167.30292969 -62.98595703 167.60585937 -62.14160156 167.91796875 C-56.41660308 169.89034995 -49.82779992 171.72296175 -44.03491211 169.11547852 C-34.66584462 163.17213566 -31.24027335 145.85717613 -28.7109375 135.8046875 C-27.48440915 129.24073906 -27.17515657 122.66470738 -27 116 C-29.31 115.34 -31.62 114.68 -34 114 C-34 111.69 -34 109.38 -34 107 C-33.43410156 106.8040625 -32.86820312 106.608125 -32.28515625 106.40625 C-31.55167969 106.1071875 -30.81820312 105.808125 -30.0625 105.5 C-29.33160156 105.2215625 -28.60070312 104.943125 -27.84765625 104.65625 C-25.40664466 102.46811276 -25.32984783 100.50265596 -25.08422852 97.32226562 C-24.93513979 93.21173819 -24.89643415 89.11290248 -24.9375 85 C-24.94201172 84.12988281 -24.94652344 83.25976562 -24.95117188 82.36328125 C-24.9628264 80.24215707 -24.98075643 78.1210689 -25 76 C-26.37852 75.96635162 -26.37852 75.96635162 -29.18359375 76.65625 Z M-234 83 C-235.07079467 91.53454441 -235.07079467 91.53454441 -234 100 C-230.60865517 103.79099826 -226.46697328 105.66571467 -222 108 C-211.83210619 115.45034862 -204.94094808 125.97499649 -197.77734375 136.16015625 C-189.28255925 148.16769458 -178.68061468 159.14934697 -164 163 C-160.93011972 163.18327643 -159.08292632 162.80863641 -156 162 C-154.27901036 160.38948759 -152.60320128 158.72780242 -151 157 C-151.96679688 156.5153125 -152.93359375 156.030625 -153.9296875 155.53125 C-162.01800615 151.39907227 -169.15496379 147.03973783 -176 141 C-176.81855469 140.31292969 -177.63710937 139.62585938 -178.48046875 138.91796875 C-186.79014372 131.76778331 -193.57398853 123.50629107 -199.875 114.5625 C-208.29741151 102.79489682 -219.38161826 90.2555695 -232 83 C-232.66 83 -233.32 83 -234 83 Z M-302.60107422 99.56933594 C-307.82155262 104.90825451 -312.21139425 110.96234641 -316.72583008 116.8918457 C-329.5707327 133.73370596 -343.788741 147.72860572 -363 157 C-362.02702707 159.65356255 -361.30781348 160.80987991 -358.875 162.3125 C-350.33392194 164.35493171 -343.16069165 160.34089134 -336 156 C-326.71369864 149.62681494 -320.66849633 142.04894662 -314.34667969 132.91357422 C-312.15052811 129.79293678 -309.83093707 126.77058125 -307.5 123.75 C-306.7059375 122.71359375 -305.911875 121.6771875 -305.09375 120.609375 C-303 118 -303 118 -301.21875 116.265625 C-299.7687861 115.05273177 -299.7687861 115.05273177 -300 113 C-299.40703125 112.72929687 -298.8140625 112.45859375 -298.203125 112.1796875 C-295.43868327 110.69943679 -293.43794481 108.77548247 -291.171875 106.6328125 C-288.07392087 104.30377504 -284.46661048 102.73330524 -281 101 C-281 95.06 -281 89.12 -281 83 C-287.90946332 83 -297.71017022 94.77040869 -302.60107422 99.56933594 Z M-98 163 C-98 171.58 -98 180.16 -98 189 C-91.20532318 192.39733841 -85.66802368 194.98771011 -78.5 196.75 C-77.67846436 196.95971436 -76.85692871 197.16942871 -76.01049805 197.38549805 C-70.34325982 198.78786896 -64.84298153 199.71264025 -59 200 C-59 193.4 -59 186.8 -59 180 C-61.805 179.01 -64.61 178.02 -67.5 177 C-76.71698484 173.66953321 -85.34180436 169.56523043 -94 165 C-95.32 164.34 -96.64 163.68 -98 163 Z M-125.25 191 C-128.51970254 194.38682622 -131.24880232 198.18992211 -134 202 C-114.94584158 217.51937638 -93.82653312 229.64454246 -70 236 C-69.09507812 236.24621094 -68.19015625 236.49242187 -67.2578125 236.74609375 C-61.0644775 238.14489994 -54.82346873 238.22900152 -48.5 238.3125 C-47.6140918 238.33030518 -46.72818359 238.34811035 -45.81542969 238.36645508 C-44.97915039 238.36540771 -44.14287109 238.36436035 -43.28125 238.36328125 C-42.15299805 238.36775269 -42.15299805 238.36775269 -41.00195312 238.37231445 C-38.37264394 237.88332707 -37.63159125 237.10523318 -36 235 C-35.04038469 233.26884079 -34.14679816 231.50035896 -33.30078125 229.7109375 C-32.57084961 228.17566406 -32.57084961 228.17566406 -31.82617188 226.609375 C-31.32666016 225.54203125 -30.82714844 224.4746875 -30.3125 223.375 C-29.80138672 222.29992187 -29.29027344 221.22484375 -28.76367188 220.1171875 C-26.26173638 215.73033789 -26.26173638 215.73033789 -25 211 C-25.82910889 211.01571045 -26.65821777 211.0314209 -27.51245117 211.04760742 C-60.71921056 211.59182995 -90.67649612 208.43677094 -119.21484375 190.03125 C-122.15749742 188.33133628 -122.67999446 188.71555063 -125.25 191 Z M-156.99291992 202.65234375 C-157.73131104 203.40644531 -158.46970215 204.16054687 -159.23046875 204.9375 C-160.43413086 206.15566406 -160.43413086 206.15566406 -161.66210938 207.3984375 C-162.49548828 208.25695312 -163.32886719 209.11546875 -164.1875 210 C-165.03248047 210.85851562 -165.87746094 211.71703125 -166.74804688 212.6015625 C-168.83888298 214.7278365 -170.92241983 216.86078464 -173 219 C-168.32443712 231.26162188 -157.61331461 240.67807743 -148.5 249.8125 C-148.01616852 250.29982605 -147.53233704 250.7871521 -147.03384399 251.28924561 C-140.37078891 257.97890168 -133.43340325 264.17290694 -126 270 C-125.30003906 270.54873779 -124.60007812 271.09747559 -123.87890625 271.6628418 C-122.01469667 273.10472094 -120.13768081 274.52651881 -118.25 275.9375 C-117.57880127 276.43983154 -116.90760254 276.94216309 -116.21606445 277.4597168 C-109.86920767 282.16733393 -103.34878281 286.58060065 -96.71777344 290.87597656 C-95.05066665 291.96684633 -93.40381771 293.08848094 -91.7578125 294.2109375 C-90.78585937 294.86320312 -89.81390625 295.51546875 -88.8125 296.1875 C-87.97332031 296.75855469 -87.13414062 297.32960938 -86.26953125 297.91796875 C-84.12544509 299.17221901 -84.12544509 299.17221901 -82.06298828 298.84765625 C-79.21282322 297.67655884 -78.37123218 296.10275642 -76.72265625 293.51953125 C-76.12646484 292.60236328 -75.53027344 291.68519531 -74.91601562 290.74023438 C-74.30435547 289.77408203 -73.69269531 288.80792969 -73.0625 287.8125 C-62.64109919 271.5781015 -62.64109919 271.5781015 -57 269.1328125 C-52.11311242 266.91212627 -50.34608069 263.54211426 -48 258.875 C-47.60683594 258.14667969 -47.21367187 257.41835938 -46.80859375 256.66796875 C-44.72528895 253.03328177 -44.72528895 253.03328177 -44 249 C-45.12792969 248.98582031 -46.25585938 248.97164062 -47.41796875 248.95703125 C-85.93036963 247.99173549 -119.49044124 229.25018678 -147.90625 204.328125 C-152.16997845 200.46298673 -152.16997845 200.46298673 -156.99291992 202.65234375 Z M-10 205 C-10.48859497 206.06806885 -10.48859497 206.06806885 -10.98706055 207.15771484 C-17.1454244 220.59160607 -23.38747146 233.97012856 -30 247.1875 C-30.7902356 248.76893799 -30.7902356 248.76893799 -31.59643555 250.38232422 C-34.30112026 255.7536786 -37.09167448 261.01215449 -40.21484375 266.15356445 C-41.3119915 268.16777141 -41.3119915 268.16777141 -40 271 C-37.98665285 272.84859704 -37.98665285 272.84859704 -35.5 274.6875 C-31.94042503 277.46059786 -28.45289423 280.27157486 -25.0625 283.25 C-24.35222656 283.87390625 -23.64195312 284.4978125 -22.91015625 285.140625 C-21.02973256 286.97105788 -19.5109205 288.85913459 -18 291 C-13.99932098 289.66644033 -13.61492791 288.05667576 -11.59375 284.40234375 C-11.27225479 283.82469772 -10.95075958 283.2470517 -10.61952209 282.65190125 C-9.56841949 280.7530512 -8.53317931 278.84615487 -7.5 276.9375 C-7.14606171 276.28972595 -6.79212341 275.6419519 -6.42745972 274.97454834 C-1.52331103 265.98880548 3.13509663 256.91634487 7.4375 247.625 C7.89125 246.65296631 8.345 245.68093262 8.8125 244.67944336 C12.02277732 237.61612369 12.02277732 237.61612369 13 230 C10.60365662 224.62313004 7.15169237 220.61469121 3.125 216.375 C2.62097656 215.8284375 2.11695313 215.281875 1.59765625 214.71875 C-1.72078355 211.17115962 -5.17603781 207.99896743 -9 205 C-9.33 205 -9.66 205 -10 205 Z M-168 246 C-168.27972656 246.75579346 -168.55945313 247.51158691 -168.84765625 248.2902832 C-174.86144609 264.43058933 -181.29258151 280.29048188 -188.5 295.9375 C-188.84434082 296.68552887 -189.18868164 297.43355774 -189.54345703 298.20425415 C-190.53598513 300.35521534 -191.53250704 302.50426199 -192.53125 304.65234375 C-192.83957764 305.31742447 -193.14790527 305.98250519 -193.46557617 306.66773987 C-195.04782033 310.05564291 -196.72448722 313.35646903 -198.53125 316.62890625 C-200.23580602 320.541225 -200.3066015 321.98089378 -199 326 C-197.88990163 328.73691584 -196.64396949 331.39618509 -195.375 334.0625 C-192.1987866 340.95896698 -189.50544878 347.91522054 -187.125 355.125 C-186.83931152 355.98875244 -186.55362305 356.85250488 -186.25927734 357.74243164 C-184.62670374 362.78754437 -183.2271027 367.84140323 -182 373 C-181.34 373 -180.68 373 -180 373 C-178.55850295 371.04745929 -178.55850295 371.04745929 -177.12890625 368.48828125 C-176.55930176 367.51270264 -175.98969727 366.53712402 -175.40283203 365.53198242 C-174.79552246 364.46955322 -174.18821289 363.40712402 -173.5625 362.3125 C-172.9422998 361.23137939 -172.32209961 360.15025879 -171.68310547 359.03637695 C-170.40434465 356.79453199 -169.13096842 354.54960769 -167.86279297 352.30175781 C-166.67141953 350.19007572 -165.47317443 348.08224641 -164.26611328 345.97949219 C-162.69295813 343.22916846 -161.15398426 340.46256938 -159.625 337.6875 C-159.15521729 336.8725708 -158.68543457 336.0576416 -158.20141602 335.21801758 C-153.99973236 327.40510117 -153.97966674 320.15879851 -156.3125 311.6875 C-157.26314695 308.80826784 -158.30187561 306.43937387 -159.75 303.75 C-161.28015933 300.38364947 -160.92202248 298.52044945 -160 295 C-157.75 294.25 -157.75 294.25 -155 294 C-151.66505921 296.73036088 -150.01775812 299.58382362 -148.3125 303.5 C-147.89613281 304.4384375 -147.47976562 305.376875 -147.05078125 306.34375 C-145.25150613 310.89210347 -144.83913675 314.79107692 -144.70288086 319.69628906 C-144.68322769 320.36011597 -144.66357452 321.02394287 -144.64332581 321.70788574 C-144.57964991 323.89370203 -144.5222144 326.07963489 -144.46484375 328.265625 C-144.42181738 329.78449582 -144.37840074 331.30335562 -144.33460999 332.82220459 C-144.22057805 336.81365993 -144.11184266 340.80524261 -144.00421143 344.796875 C-143.89337736 348.87248604 -143.77753224 352.9479543 -143.66210938 357.0234375 C-143.436503 365.01549382 -143.21649217 373.00769162 -143 381 C-139.30754535 379.27067987 -136.93261425 377.17695068 -134.04296875 374.2734375 C-133.57691727 373.8069278 -133.11086578 373.34041809 -132.63069153 372.85977173 C-131.64586655 371.8719326 -130.66346619 370.88167105 -129.68334961 369.88916016 C-128.20791957 368.39566953 -126.7248426 366.9101425 -125.24023438 365.42578125 C-119.95517359 360.12121901 -114.84156308 354.71611276 -110 349 C-109.02872282 347.87363153 -108.05737163 346.74732686 -107.0859375 345.62109375 C-105.21848187 343.43747822 -103.37012225 341.23897876 -101.53125 339.03125 C-100.12052333 337.34186127 -98.69539716 335.6633337 -97.21875 334.03125 C-93.47708375 329.59345979 -93.534551 325.42020925 -93.3125 319.8828125 C-92.86544608 315.75874012 -91.29357874 313.40337491 -89 310 C-89 309.34 -89 308.68 -89 308 C-90.64583124 306.77224388 -90.64583124 306.77224388 -92.8125 305.6015625 C-93.63290771 305.12831543 -94.45331543 304.65506836 -95.29858398 304.16748047 C-96.19005127 303.65846191 -97.08151855 303.14944336 -98 302.625 C-106.88290058 297.42852288 -115.10407549 291.74719262 -123.19775391 285.40527344 C-124.9142871 284.0668333 -126.64596258 282.75202721 -128.38671875 281.4453125 C-141.52208935 271.55794653 -153.53218419 260.77272081 -165 249 C-165.99868142 247.99868315 -166.99835241 246.99834969 -168 246 Z M16 254 C11.14475547 263.18860544 8.86352976 271.02650045 7.8125 281.375 C7.65738677 282.76622222 7.50126874 284.15733272 7.34423828 285.54833984 C6.85158883 290.02819325 6.41834124 294.51266552 6 299 C5.8942868 300.12426392 5.8942868 300.12426392 5.78643799 301.27124023 C3.89659814 321.56536367 2.71476594 341.88995671 1.8125 362.25 C1.76961853 363.20287903 1.72673706 364.15575806 1.68255615 365.13751221 C1.12487047 377.7657151 0.89354348 390.35988097 1 403 C3.71220555 399.54865419 5.15279684 396.31668701 6.6875 392.1875 C11.72655272 379.17220978 18.25022234 367.88788122 27 357 C27.74765625 356.06414062 28.4953125 355.12828125 29.265625 354.1640625 C29.83796875 353.44992187 30.4103125 352.73578125 31 352 C29.58460657 348.7760483 27.88585072 346.64333208 25.375 344.1875 C24.31539063 343.14722656 24.31539063 343.14722656 23.234375 342.0859375 C21.08809939 340.08224664 18.87748071 338.19504774 16.625 336.3125 C13.73477968 333.80915957 11.63750504 331.93128108 11 328 C11.875 325.6875 11.875 325.6875 13 324 C17.04104708 323.51435488 18.59712505 323.70294687 21.9296875 326.16015625 C22.92548628 327.11315899 23.90683054 328.08144071 24.875 329.0625 C25.91857186 330.07103626 26.96284487 331.07884751 28.0078125 332.0859375 C28.51344727 332.5819043 29.01908203 333.07787109 29.54003906 333.58886719 C31.54717032 335.52887031 33.63890048 337.36188724 35.75 339.1875 C36.38421875 339.73792969 37.0184375 340.28835938 37.671875 340.85546875 C38.11015625 341.23316406 38.5484375 341.61085938 39 342 C42.88641868 340.63525048 45.70529549 338.84746471 48.9375 336.3125 C55.21958676 331.6180991 61.92600064 328.30464204 69 325 C67.66558629 322.17250036 66.16230649 319.70389432 64.3046875 317.19140625 C63.76199219 316.45535156 63.21929687 315.71929687 62.66015625 314.9609375 C62.07105469 314.16945313 61.48195313 313.37796875 60.875 312.5625 C59.94880859 311.31146484 59.94880859 311.31146484 59.00390625 310.03515625 C53.7285222 302.93083143 48.36390171 295.89574839 42.98632812 288.86865234 C37.26269171 281.37758592 31.6573047 273.80393164 26.0859375 266.19921875 C25.05747288 264.79934601 24.02882641 263.39960686 23 262 C22.16130371 260.85265381 22.16130371 260.85265381 21.30566406 259.68212891 C20.76393555 258.94784668 20.22220703 258.21356445 19.6640625 257.45703125 C19.17631348 256.79292236 18.68856445 256.12881348 18.18603516 255.44458008 C17.59894775 254.72951294 17.59894775 254.72951294 17 254 C16.67 254 16.34 254 16 254 Z M-275 269 C-276.58957359 272.17914717 -276.20533722 275.61984382 -276.23828125 279.11328125 C-276.246353 279.91984665 -276.25442474 280.72641205 -276.26274109 281.55741882 C-276.27658143 283.26636607 -276.28730382 284.97534096 -276.29516602 286.68432617 C-276.31236506 289.2920403 -276.35624794 291.89848187 -276.40039062 294.50585938 C-276.41051897 296.16665735 -276.41903463 297.8274661 -276.42578125 299.48828125 C-276.44328934 300.26553055 -276.46079742 301.04277985 -276.47883606 301.84358215 C-276.46381587 305.61168467 -276.15052176 307.76495107 -274.09838867 310.96948242 C-269.49375716 315.42517996 -263.77088103 314.26149345 -257.6875 314.3125 C-256.54603516 314.34150391 -255.40457031 314.37050781 -254.22851562 314.40039062 C-247.75338818 314.51332712 -247.75338818 314.51332712 -241.83203125 312.23046875 C-238.20015893 307.80872228 -237.68245797 304.24147997 -237.6640625 298.6015625 C-237.6574057 297.88898285 -237.6507489 297.1764032 -237.64389038 296.44223022 C-237.63378712 294.93774996 -237.62907264 293.43322509 -237.62939453 291.92871094 C-237.62502711 289.63921393 -237.58870401 287.35165548 -237.55078125 285.0625 C-237.54491116 283.59636071 -237.54094305 282.13021233 -237.5390625 280.6640625 C-237.52469147 279.98574371 -237.51032043 279.30742493 -237.49551392 278.60855103 C-237.54283685 273.63019393 -238.8787561 270.82583594 -242 267 C-246.63639376 263.90907082 -251.35827679 264.63143566 -256.8125 264.625 C-257.89337891 264.60050781 -258.97425781 264.57601563 -260.08789062 264.55078125 C-266.34211134 264.52774545 -270.29622139 264.70350952 -275 269 Z M-58 284 C-59.54940591 286.35598395 -61.01149648 288.69816501 -62.4375 291.125 C-66.94405842 298.62241074 -72.01878953 305.57794476 -77.44116211 312.43994141 C-80.8384305 316.87074897 -83.13613436 320.17488248 -83 326 C-82.04127944 328.13332742 -82.04127944 328.13332742 -80.25 329.75 C-79.60289062 330.41257812 -78.95578125 331.07515625 -78.2890625 331.7578125 C-77.53367187 332.49773437 -76.77828125 333.23765625 -76 334 C-75.14148438 334.90492188 -74.28296875 335.80984375 -73.3984375 336.7421875 C-65.69712815 345.27939263 -65.69712815 345.27939263 -56 351 C-50.90296611 350.05684806 -48.61564894 347.97959519 -45.4375 344 C-45.0240332 343.48453613 -44.61056641 342.96907227 -44.18457031 342.43798828 C-29.02146289 325.59793551 -29.02146289 325.59793551 -21.05859375 306.09765625 C-22.21802016 302.28261415 -24.20805437 299.97134093 -26.9375 297.1875 C-27.67141968 296.41418335 -27.67141968 296.41418335 -28.42016602 295.62524414 C-37.86140104 284.83104487 -37.86140104 284.83104487 -49.9375 278.5 C-54.09405435 279.17862112 -55.22167114 280.86913394 -58 284 Z M-6 295 C-8.92150553 299.24089512 -10.17759044 302.01596675 -10.3125 307.1875 C-10.78541777 314.31022074 -14.03030182 319.24268538 -18 325 C-18.70576172 326.02818848 -18.70576172 326.02818848 -19.42578125 327.07714844 C-41.44123267 358.86021469 -41.44123267 358.86021469 -49.05273438 360.42089844 C-49.80876953 360.53723633 -50.56480469 360.65357422 -51.34375 360.7734375 C-57.13460294 361.88135688 -59.79948949 365.26976534 -63.5 369.625 C-64.88483758 371.17329436 -66.27430613 372.71745699 -67.66796875 374.2578125 C-68.37743652 375.04575195 -69.0869043 375.83369141 -69.81787109 376.64550781 C-78.27139122 385.76675956 -87.65974919 394.19391955 -97.39453125 401.92578125 C-100.31249297 404.24877626 -103.15311558 406.653037 -106 409.0625 C-110.8456589 413.1216907 -115.84291062 416.87277765 -121.015625 420.50390625 C-121.99789062 421.24447266 -121.99789062 421.24447266 -123 422 C-123 422.33 -123 422.66 -123 423 C-86.04 423 -49.08 423 -11 423 C-10.19929994 413.85798151 -10.19929994 413.85798151 -9.75048828 404.73632812 C-9.7200946 403.65646637 -9.68970093 402.57660461 -9.65838623 401.46401978 C-9.61478973 399.76479874 -9.61478973 399.76479874 -9.5703125 398.03125 C-9.49835348 395.51544877 -9.42590562 392.99966149 -9.35302734 390.48388672 C-9.31602722 389.17997986 -9.2790271 387.876073 -9.24090576 386.53265381 C-8.60160122 364.15886493 -7.68243346 341.83937966 -5.96533203 319.51757812 C-5.83855978 317.86330478 -5.71208143 316.20900888 -5.5859375 314.5546875 C-5.52765778 313.79254944 -5.46937805 313.03041138 -5.40933228 312.24517822 C-4.9892033 306.49165864 -4.83996955 300.76917855 -5 295 C-5.33 295 -5.66 295 -6 295 Z M-227 303 C-227.09796875 303.56847656 -227.1959375 304.13695312 -227.296875 304.72265625 C-228.49938069 310.93214682 -229.79841637 316.57734572 -235.0390625 320.54296875 C-236.99306147 321.77543807 -238.95649839 322.92368968 -241 324 C-240.43735643 339.67641394 -238.35444417 353.83636792 -233.02734375 368.61328125 C-232.08687713 371.71360278 -231.85942712 373.87192164 -231.9375 377.0625 C-231.40908891 385.88402951 -222.11948524 393.08989007 -216.09765625 398.80078125 C-208.07060947 405.88087875 -198.22033606 412.59322131 -188 416 C-189.1552327 375.60669124 -200.67586402 336.73872367 -225 304 C-225.66 303.67 -226.32 303.34 -227 303 Z M-263 326 C-263.09796875 327.31871094 -263.1959375 328.63742187 -263.296875 329.99609375 C-264.42282671 343.94640026 -266.43751207 356.9958221 -271.25 370.1875 C-273.17016444 376.19844957 -273.39787581 381.92948528 -273.4375 388.1875 C-273.44749023 389.10233154 -273.45748047 390.01716309 -273.46777344 390.9597168 C-273.36831069 398.8407184 -272.39113805 407.39907297 -266.6875 413.3125 C-266.08164062 413.94800781 -265.47578125 414.58351563 -264.8515625 415.23828125 C-262.32867357 417.63875152 -259.74564476 419.85705775 -257 422 C-249.76162669 416.21245533 -243.96096254 410.32049722 -242 401 C-240.91947217 387.85547375 -241.07471965 375.29738459 -245.64355469 362.86328125 C-249.95587571 351.06436266 -250.79986903 338.43071431 -252 326 C-255.63 326 -259.26 326 -263 326 Z M45 353 C44.24074219 353.65613281 43.48148437 354.31226563 42.69921875 354.98828125 C31.50555707 365.46411293 19.28379933 382.87295532 16 398 C16.73863281 398.268125 17.47726562 398.53625 18.23828125 398.8125 C26.0910174 401.84583137 32.4162988 405.77710318 39 411 C43.12177332 408.77201442 46.06612103 406.11383118 49.3125 402.75 C53.10075236 398.87005015 56.98074319 395.19565907 61.10546875 391.67578125 C63.86935371 389.23102528 66.41984517 386.58918448 69.0078125 383.9609375 C70.90327074 382.09521194 72.85446735 380.35340745 74.875 378.625 C83.98028271 370.70502036 91.12144552 363.63566343 95 352 C95.43984374 344.04189699 95.12034513 336.6862511 93 329 C75.38793547 329 57.73276644 341.9960085 45 353 Z M-88 339 C-89.30202231 340.51541789 -90.56467267 342.06465375 -91.8125 343.625 C-106.67653509 361.97390456 -106.67653509 361.97390456 -114.4453125 369.4453125 C-116.13544042 371.13544042 -117.65101131 372.91944649 -119.1875 374.75 C-126.87138591 383.62650678 -136.21538261 391.12080997 -145.09960938 398.76049805 C-145.70869141 399.28426025 -146.31777344 399.80802246 -146.9453125 400.34765625 C-147.48687988 400.81179932 -148.02844727 401.27594238 -148.58642578 401.75415039 C-151.23772365 403.91350355 -151.23772365 403.91350355 -152.25878906 407.03125 C-152.26104492 407.8459375 -152.26330078 408.660625 -152.265625 409.5 C-152.26820313 410.386875 -152.27078125 411.27375 -152.2734375 412.1875 C-152.26570312 413.115625 -152.25796875 414.04375 -152.25 415 C-152.25773438 415.928125 -152.26546875 416.85625 -152.2734375 417.8125 C-152.27085937 418.699375 -152.26828125 419.58625 -152.265625 420.5 C-152.26336914 421.3146875 -152.26111328 422.129375 -152.25878906 422.96875 C-152.18174293 425.22630451 -152.18174293 425.22630451 -150 427 C-131.55569248 414.98286388 -113.85370559 402.21126851 -97.58203125 387.3359375 C-96.1647578 386.05374458 -94.74084877 384.77829816 -93.28857422 383.53588867 C-87.40431775 378.49213411 -81.95231497 373.06632667 -76.5 367.5625 C-75.5821875 366.64017578 -74.664375 365.71785156 -73.71875 364.76757812 C-71.47684945 362.51400101 -69.237334 360.25810925 -67 358 C-71.15325078 353.79040667 -75.43167771 349.72708665 -79.75 345.6875 C-80.77673828 344.71973633 -80.77673828 344.71973633 -81.82421875 343.73242188 C-82.47519531 343.12333984 -83.12617188 342.51425781 -83.796875 341.88671875 C-84.38823242 341.33201904 -84.97958984 340.77731934 -85.58886719 340.20581055 C-86.81735067 338.89172807 -86.81735067 338.89172807 -88 339 Z M11 409 C5.31528062 422.35909054 0.67337281 434.80247748 0.8984375 449.48828125 C0.90576904 450.4069397 0.91310059 451.32559814 0.9206543 452.27209473 C0.93961798 454.51491548 0.96621901 456.75736184 1 459 C7.24795675 459.02527124 13.49590041 459.04283344 19.74389648 459.05493164 C21.87118014 459.05997298 23.99846031 459.06680591 26.12573242 459.07543945 C29.17627826 459.08751379 32.22677845 459.09323014 35.27734375 459.09765625 C36.23462875 459.10281754 37.19191376 459.10797882 38.1782074 459.11329651 C39.05904495 459.11337204 39.93988251 459.11344757 40.84741211 459.11352539 C41.62684677 459.115746 42.40628143 459.11796661 43.20933533 459.12025452 C45.02366535 459.19571386 45.02366535 459.19571386 46 458 C46.39045581 452.92407452 46.04052187 450.08853154 43 446 C40.35197811 444.16813187 40.35197811 444.16813187 37.375 442.75 C32.02673797 440.02673797 32.02673797 440.02673797 31 439 C31.06538076 437.47543961 31.20369109 435.95381536 31.375 434.4375 C31.46394531 433.53257812 31.55289062 432.62765625 31.64453125 431.6953125 C32 429 32 429 32.57421875 426.8046875 C33.21938606 424.53708006 33.21938606 424.53708006 33 421 C28.79714327 415.2360822 21.58435807 411.42994167 15 409 C13.68 409 12.36 409 11 409 Z M-149 439 C-149 445.6 -149 452.2 -149 459 C-125.9 459 -102.8 459 -79 459 C-79 451.08 -79 443.16 -79 435 C-87.09329362 434.90942813 -95.18618951 434.83612908 -103.27985477 434.79275131 C-107.0385689 434.77192622 -110.79691663 434.743703 -114.55541992 434.69824219 C-118.18644724 434.65460092 -121.8171234 434.63082474 -125.44839287 434.62049103 C-126.82983359 434.6131322 -128.21125631 434.59876213 -129.59254646 434.57707977 C-131.53554468 434.54780874 -133.47890051 434.5463641 -135.42211914 434.54589844 C-137.07758507 434.53257477 -137.07758507 434.53257477 -138.76649475 434.51898193 C-142.85602348 434.927395 -142.85602348 434.927395 -149 439 Z M-67 435 C-67 442.92 -67 450.84 -67 459 C-58.42 459 -49.84 459 -41 459 C-41 451.08 -41 443.16 -41 435 C-49.58 435 -58.16 435 -67 435 Z M-29 435 C-29 442.92 -29 450.84 -29 459 C-23.06 459 -17.12 459 -11 459 C-11 451.08 -11 443.16 -11 435 C-16.94 435 -22.88 435 -29 435 Z " fill="#000000" transform="translate(391,24)"/>
<path d="M0 0 C1.94702148 1.83496094 1.94702148 1.83496094 3.68359375 4.484375 C4.69848877 5.99354492 4.69848877 5.99354492 5.73388672 7.53320312 C6.09601257 8.08983643 6.45813843 8.64646973 6.83123779 9.2199707 C8.06550381 11.09976255 9.33813938 12.94838778 10.62158203 14.79492188 C12.99285285 18.21285109 15.32044535 21.65771707 17.63061523 25.1171875 C18.59353966 26.55147698 19.56440443 27.98046424 20.54272461 29.40429688 C21.97585232 31.49178713 23.38270709 33.59494074 24.78515625 35.703125 C25.22457047 36.33244934 25.66398468 36.96177368 26.11671448 37.61016846 C28.32529241 40.99351949 29.00859759 42.80769382 28.82592773 46.89355469 C28 50 28 50 27 51 C25.14630389 51.08737645 23.28932459 51.10698153 21.43359375 51.09765625 C20.30888672 51.09443359 19.18417969 51.09121094 18.02539062 51.08789062 C16.84138672 51.07951172 15.65738281 51.07113281 14.4375 51.0625 C13.24962891 51.05798828 12.06175781 51.05347656 10.83789062 51.04882812 C7.89187774 51.03699675 4.94596319 51.02051287 2 51 C2.02320313 51.62648437 2.04640625 52.25296875 2.0703125 52.8984375 C2.08835938 53.71570313 2.10640625 54.53296875 2.125 55.375 C2.14820313 56.18710938 2.17140625 56.99921875 2.1953125 57.8359375 C2 60 2 60 0 62 C-3.03989923 62.32339354 -5.14368353 62.45670212 -7.875 61 C-9.67232843 57.80474946 -9.06586205 54.62973048 -9 51 C-9.7113208 51.01571045 -10.4226416 51.0314209 -11.15551758 51.04760742 C-14.37443104 51.10991915 -17.59321768 51.14897867 -20.8125 51.1875 C-21.93205078 51.21263672 -23.05160156 51.23777344 -24.20507812 51.26367188 C-25.27822266 51.27333984 -26.35136719 51.28300781 -27.45703125 51.29296875 C-28.44678955 51.3086792 -29.43654785 51.32438965 -30.45629883 51.34057617 C-33 51 -33 51 -34.90893555 49.85668945 C-36 48 -36 48 -36.05834961 45.4074707 C-34.54397091 40.53176515 -31.89808952 36.69858543 -29.06640625 32.48046875 C-28.47327133 31.58129227 -27.88013641 30.68211578 -27.26902771 29.75569153 C-26.01713288 27.86231055 -24.76026839 25.97220732 -23.4987793 24.08520508 C-21.56242544 21.18738842 -19.64236636 18.27928959 -17.72460938 15.36914062 C-16.50614841 13.53062662 -15.28677866 11.69271452 -14.06640625 9.85546875 C-13.48927383 8.98262741 -12.91214142 8.10978607 -12.31752014 7.210495 C-11.78033859 6.40908585 -11.24315704 5.6076767 -10.68969727 4.78198242 C-10.21750259 4.07393967 -9.74530792 3.36589691 -9.25880432 2.63639832 C-6.74094381 -0.63672573 -3.89585623 -0.43004813 0 0 Z M-4 16 C-5.16531042 17.6383062 -6.28199181 19.3112275 -7.37890625 20.99609375 C-8.05244141 22.02927734 -8.72597656 23.06246094 -9.41992188 24.12695312 C-10.48049805 25.76567383 -10.48049805 25.76567383 -11.5625 27.4375 C-12.27341797 28.52611328 -12.98433594 29.61472656 -13.71679688 30.73632812 C-17.14134543 35.08414354 -17.14134543 35.08414354 -19 40 C-8.77 40 1.46 40 12 40 C10.48209537 36.20523844 9.23964755 33.62781748 6.99609375 30.35546875 C6.42052734 29.51435547 5.84496094 28.67324219 5.25195312 27.80664062 C4.65318359 26.94232422 4.05441406 26.07800781 3.4375 25.1875 C2.83486328 24.30384766 2.23222656 23.42019531 1.61132812 22.50976562 C-0.63936634 19.21502564 -0.63936634 19.21502564 -3 16 C-3.33 16 -3.66 16 -4 16 Z " fill="#000000" transform="translate(137,18)"/>
<path d="M0 0 C1.79296875 1.359375 1.79296875 1.359375 3 3 C2.55555556 9.44444444 2.55555556 9.44444444 1 11 C-3.71564714 11.39963111 -6.1703052 11.38521544 -10.5 9.375 C-13 7 -13 7 -13.625 3.9375 C-13 1 -13 1 -11.5625 -1 C-7.5714068 -2.55749978 -3.92049274 -1.5450929 0 0 Z " fill="#000000" transform="translate(339,129)"/>
</svg>
