<?xml version="1.0" encoding="UTF-8"?>
<!DOCTYPE svg PUBLIC "-//W3C//DTD SVG 1.1//EN" "http://www.w3.org/Graphics/SVG/1.1/DTD/svg11.dtd">
<svg xmlns="http://www.w3.org/2000/svg" version="1.1" width="512px" height="512px" style="shape-rendering:geometricPrecision; text-rendering:geometricPrecision; image-rendering:optimizeQuality; fill-rule:evenodd; clip-rule:evenodd" xmlns:xlink="http://www.w3.org/1999/xlink">
<g><path style="opacity:1" fill="#3f3e51" d="M 384.5,196.5 C 380.936,195.577 377.269,195.244 373.5,195.5C 375.833,188.335 377,181.002 377,173.5C 374.231,174.466 371.731,175.799 369.5,177.5C 361.881,179.761 354.214,181.928 346.5,184C 339.221,185.38 331.888,186.214 324.5,186.5C 318.167,186.5 311.833,186.5 305.5,186.5C 305.5,189.5 305.5,192.5 305.5,195.5C 302.512,193.727 299.179,193.06 295.5,193.5C 295.817,189.298 295.483,185.298 294.5,181.5C 293.87,179.25 292.87,177.25 291.5,175.5C 291.02,172.557 290.02,169.89 288.5,167.5C 285.489,157.469 282.489,147.469 279.5,137.5C 278.178,131.902 277.178,126.235 276.5,120.5C 276.247,116.96 275.581,113.627 274.5,110.5C 274.662,108.473 274.495,106.473 274,104.5C 267.295,108.135 260.128,110.135 252.5,110.5C 242.507,110.502 233.507,107.502 225.5,101.5C 219.157,106.513 213.157,111.846 207.5,117.5C 201.81,121.532 196.143,125.532 190.5,129.5C 183.537,131.897 180.537,136.897 181.5,144.5C 180.142,150.072 179.309,155.738 179,161.5C 178.215,163.286 177.049,164.786 175.5,166C 199.747,170.44 221.08,164.607 239.5,148.5C 245.5,144.5 250.5,139.5 254.5,133.5C 256.861,130.14 259.861,127.474 263.5,125.5C 268.45,126.741 269.783,129.741 267.5,134.5C 266.191,135.624 265.525,137.124 265.5,139C 266.519,148.807 267.186,158.64 267.5,168.5C 268.212,175.143 268.546,181.809 268.5,188.5C 268.5,190.167 268.5,191.833 268.5,193.5C 265.061,193.747 261.728,193.414 258.5,192.5C 258.813,188.958 258.479,185.625 257.5,182.5C 257.824,175.646 257.491,168.979 256.5,162.5C 256.827,157.786 256.493,153.12 255.5,148.5C 253.479,149.855 251.812,151.521 250.5,153.5C 244.128,158.531 237.461,163.197 230.5,167.5C 229.614,168.325 229.281,169.325 229.5,170.5C 228.602,176.666 227.936,183 227.5,189.5C 227.443,190.609 227.11,191.609 226.5,192.5C 196.837,191.932 167.17,191.599 137.5,191.5C 136.329,186.489 138.162,183.489 143,182.5C 167.456,187.384 191.956,187.718 216.5,183.5C 217.259,180.843 217.926,178.177 218.5,175.5C 218,175.167 217.5,174.833 217,174.5C 198.184,180.095 179.517,179.762 161,173.5C 159.627,171.305 159.294,168.971 160,166.5C 162.667,163.833 165.333,161.167 168,158.5C 169.667,148.167 171.333,137.833 173,127.5C 196.225,112.949 217.059,95.4494 235.5,75C 245.601,66.2306 256.268,58.2306 267.5,51C 277.22,40.6115 285.387,29.1115 292,16.5C 295.333,12.5 298.667,12.5 302,16.5C 303.509,30.4664 303.842,44.4664 303,58.5C 300.401,72.3202 294.734,84.6536 286,95.5C 285.983,123.1 291.816,149.434 303.5,174.5C 331.124,177.931 357.124,172.765 381.5,159C 386.416,157.31 389.416,158.977 390.5,164C 388.986,174.918 386.986,185.752 384.5,196.5 Z"/></g>
<g><path style="opacity:1" fill="#3f3e51" d="M 72.5,189.5 C 68.1667,189.5 63.8333,189.5 59.5,189.5C 59.8254,181.648 59.492,173.982 58.5,166.5C 53.8333,166.5 49.1667,166.5 44.5,166.5C 43.508,173.982 43.1746,181.648 43.5,189.5C 40.1667,189.5 36.8333,189.5 33.5,189.5C 34.0253,171.428 33.1919,153.428 31,135.5C 29.4664,128.365 27.4664,121.365 25,114.5C 21.9388,109.048 19.4388,103.381 17.5,97.5C 23.6903,69.7574 33.5236,43.4241 47,18.5C 50,15.8333 53,15.8333 56,18.5C 69.4764,43.4241 79.3097,69.7574 85.5,97.5C 81.7357,106.033 78.2357,114.7 75,123.5C 69.9657,143.199 68.299,163.199 70,183.5C 70.6552,185.628 71.4886,187.628 72.5,189.5 Z"/></g>
<g><path style="opacity:1" fill="#8899b4" d="M 292.5,52.5 C 290.165,53.6653 287.665,54.332 285,54.5C 282.992,54.6932 281.492,54.0265 280.5,52.5C 284.47,47.6851 288.303,42.6851 292,37.5C 292.499,42.4889 292.666,47.4889 292.5,52.5 Z"/></g>
<g><path style="opacity:1" fill="#eff6f8" d="M 51.5,34.5 C 51.5,50.8333 51.5,67.1667 51.5,83.5C 51.6666,96.8375 51.4999,110.171 51,123.5C 50.1465,130.27 47.3132,135.937 42.5,140.5C 40.9471,125.008 36.2804,110.508 28.5,97C 33.7127,75.1882 41.3794,54.3549 51.5,34.5 Z"/></g>
<g><path style="opacity:1" fill="#7c8ea8" d="M 273.5,60.5 C 278.197,61.7065 282.863,63.0398 287.5,64.5C 282.49,74.5013 274.49,79.0013 263.5,78C 260.609,76.7258 257.942,75.2258 255.5,73.5C 261.109,68.6889 267.109,64.3556 273.5,60.5 Z"/></g>
<g><path style="opacity:1" fill="#8295c1" d="M 51.5,34.5 C 59.5806,50.0618 65.9139,66.3951 70.5,83.5C 64.1667,83.5 57.8333,83.5 51.5,83.5C 51.5,67.1667 51.5,50.8333 51.5,34.5 Z"/></g>
<g><path style="opacity:1" fill="#5c5c6f" d="M 280.5,52.5 C 281.492,54.0265 282.992,54.6932 285,54.5C 287.665,54.332 290.165,53.6653 292.5,52.5C 290.761,67.6999 284.761,80.8665 274.5,92C 268.005,96.8893 260.671,99.7227 252.5,100.5C 245.865,99.8414 239.531,98.1747 233.5,95.5C 234.246,91.6774 236.246,88.6774 239.5,86.5C 245.057,87.8106 250.723,87.644 256.5,86C 256.833,85.6667 257.167,85.3333 257.5,85C 254.102,83.6429 251.102,81.8096 248.5,79.5C 250.173,76.8334 252.507,74.8334 255.5,73.5C 257.942,75.2258 260.609,76.7258 263.5,78C 274.49,79.0013 282.49,74.5013 287.5,64.5C 282.863,63.0398 278.197,61.7065 273.5,60.5C 275.862,57.808 278.196,55.1413 280.5,52.5 Z"/></g>
<g><path style="opacity:1" fill="#6d7f97" d="M 248.5,79.5 C 251.102,81.8096 254.102,83.6429 257.5,85C 257.167,85.3333 256.833,85.6667 256.5,86C 250.723,87.644 245.057,87.8106 239.5,86.5C 242.233,83.7606 245.233,81.4273 248.5,79.5 Z"/></g>
<g><path style="opacity:1" fill="#778ab7" d="M 51.5,83.5 C 57.8333,83.5 64.1667,83.5 70.5,83.5C 72.0669,87.9351 73.4003,92.4351 74.5,97C 64.4884,115.228 59.4884,134.728 59.5,155.5C 54.1667,155.5 48.8333,155.5 43.5,155.5C 43.7787,150.405 43.4454,145.405 42.5,140.5C 47.3132,135.937 50.1465,130.27 51,123.5C 51.4999,110.171 51.6666,96.8375 51.5,83.5 Z"/></g>
<g><path style="opacity:1" fill="#c06f56" d="M 274.5,110.5 C 267.167,113.167 259.833,113.167 252.5,110.5C 260.128,110.135 267.295,108.135 274,104.5C 274.495,106.473 274.662,108.473 274.5,110.5 Z"/></g>
<g><path style="opacity:1" fill="#f7c0a0" d="M 252.5,110.5 C 259.833,113.167 267.167,113.167 274.5,110.5C 275.581,113.627 276.247,116.96 276.5,120.5C 260.177,121.011 243.844,120.345 227.5,118.5C 226.089,117.092 224.423,116.092 222.5,115.5C 220.506,116.489 218.506,117.489 216.5,118.5C 213.518,118.037 210.518,117.704 207.5,117.5C 213.157,111.846 219.157,106.513 225.5,101.5C 233.507,107.502 242.507,110.502 252.5,110.5 Z"/></g>
<g><path style="opacity:1" fill="#403e51" d="M 451.5,196.5 C 447.833,196.5 444.167,196.5 440.5,196.5C 439.013,192.884 437.68,189.217 436.5,185.5C 434.884,175.739 433.884,165.906 433.5,156C 433.622,149.407 434.122,142.907 435,136.5C 423.74,150.114 418.573,165.781 419.5,183.5C 419.5,187.5 419.5,191.5 419.5,195.5C 415.833,195.5 412.167,195.5 408.5,195.5C 404.739,165.608 413.739,140.442 435.5,120C 439.37,117.235 443.37,114.735 447.5,112.5C 451.167,112.833 453.167,114.833 453.5,118.5C 442.218,144.206 441.551,170.206 451.5,196.5 Z"/></g>
<g><path style="opacity:1" fill="#c26c53" d="M 227.5,118.5 C 226.551,122.783 223.884,125.449 219.5,126.5C 215.534,125.054 214.534,122.387 216.5,118.5C 218.506,117.489 220.506,116.489 222.5,115.5C 224.423,116.092 226.089,117.092 227.5,118.5 Z"/></g>
<g><path style="opacity:1" fill="#f2b696" d="M 207.5,117.5 C 210.518,117.704 213.518,118.037 216.5,118.5C 214.534,122.387 215.534,125.054 219.5,126.5C 223.884,125.449 226.551,122.783 227.5,118.5C 243.844,120.345 260.177,121.011 276.5,120.5C 277.178,126.235 278.178,131.902 279.5,137.5C 278.596,136.791 278.263,135.791 278.5,134.5C 274.833,134.5 271.167,134.5 267.5,134.5C 269.783,129.741 268.45,126.741 263.5,125.5C 259.861,127.474 256.861,130.14 254.5,133.5C 233.182,132.001 211.848,130.668 190.5,129.5C 196.143,125.532 201.81,121.532 207.5,117.5 Z"/></g>
<g><path style="opacity:1" fill="#f2b08a" d="M 190.5,129.5 C 211.848,130.668 233.182,132.001 254.5,133.5C 250.5,139.5 245.5,144.5 239.5,148.5C 220.181,147.084 200.848,145.751 181.5,144.5C 180.537,136.897 183.537,131.897 190.5,129.5 Z"/></g>
<g><path style="opacity:1" fill="#eda47d" d="M 181.5,144.5 C 200.848,145.751 220.181,147.084 239.5,148.5C 221.08,164.607 199.747,170.44 175.5,166C 177.049,164.786 178.215,163.286 179,161.5C 179.309,155.738 180.142,150.072 181.5,144.5 Z"/></g>
<g><path style="opacity:1" fill="#f7d1bf" d="M 256.5,162.5 C 256.793,166.437 256.46,170.27 255.5,174C 247.211,177.708 238.544,179.208 229.5,178.5C 229.5,175.833 229.5,173.167 229.5,170.5C 234.527,168.317 239.193,165.483 243.5,162C 246.447,159.564 248.78,156.731 250.5,153.5C 251.812,151.521 253.479,149.855 255.5,148.5C 256.493,153.12 256.827,157.786 256.5,162.5 Z"/></g>
<g><path style="opacity:1" fill="#eda680" d="M 267.5,134.5 C 271.167,134.5 274.833,134.5 278.5,134.5C 278.263,135.791 278.596,136.791 279.5,137.5C 282.489,147.469 285.489,157.469 288.5,167.5C 288.209,168.649 287.376,169.316 286,169.5C 279.869,168.606 273.702,168.273 267.5,168.5C 267.186,158.64 266.519,148.807 265.5,139C 265.525,137.124 266.191,135.624 267.5,134.5 Z"/></g>
<g><path style="opacity:1" fill="#cd9e8e" d="M 250.5,153.5 C 248.78,156.731 246.447,159.564 243.5,162C 239.193,165.483 234.527,168.317 229.5,170.5C 229.281,169.325 229.614,168.325 230.5,167.5C 237.461,163.197 244.128,158.531 250.5,153.5 Z"/></g>
<g><path style="opacity:1" fill="#e89368" d="M 436.5,185.5 C 430.805,184.952 425.138,184.286 419.5,183.5C 418.573,165.781 423.74,150.114 435,136.5C 434.122,142.907 433.622,149.407 433.5,156C 433.884,165.906 434.884,175.739 436.5,185.5 Z"/></g>
<g><path style="opacity:1" fill="#d0a18f" d="M 256.5,162.5 C 257.491,168.979 257.824,175.646 257.5,182.5C 248.201,186.077 238.534,187.41 228.5,186.5C 228.737,187.791 228.404,188.791 227.5,189.5C 227.936,183 228.602,176.666 229.5,170.5C 229.5,173.167 229.5,175.833 229.5,178.5C 238.544,179.208 247.211,177.708 255.5,174C 256.46,170.27 256.793,166.437 256.5,162.5 Z"/></g>
<g><path style="opacity:1" fill="#d9e4f9" d="M 373.5,195.5 C 367.833,202.314 360.833,207.481 352.5,211C 344.422,213.803 336.422,216.803 328.5,220C 325.5,220.667 322.5,220.667 319.5,220C 311.855,210.571 307.855,199.738 307.5,187.5C 309.833,187.5 312.167,187.5 314.5,187.5C 325.539,198.899 338.539,201.733 353.5,196C 361.229,191.781 366.562,185.614 369.5,177.5C 371.731,175.799 374.231,174.466 377,173.5C 377,181.002 375.833,188.335 373.5,195.5 Z"/></g>
<g><path style="opacity:1" fill="#be6a51" d="M 291.5,175.5 C 292.87,177.25 293.87,179.25 294.5,181.5C 294.666,185.846 294.499,190.179 294,194.5C 287.013,203.486 279.347,211.819 271,219.5C 270.51,218.207 270.343,216.873 270.5,215.5C 280.636,203.897 287.636,190.564 291.5,175.5 Z"/></g>
<g><path style="opacity:1" fill="#e3eaf7" d="M 369.5,177.5 C 366.562,185.614 361.229,191.781 353.5,196C 338.539,201.733 325.539,198.899 314.5,187.5C 318.042,187.813 321.375,187.479 324.5,186.5C 331.888,186.214 339.221,185.38 346.5,184C 354.214,181.928 361.881,179.761 369.5,177.5 Z"/></g>
<g><path style="opacity:1" fill="#5f3f58" d="M 44.5,166.5 C 44.5,171.167 44.5,175.833 44.5,180.5C 44.5,183.833 44.5,187.167 44.5,190.5C 44.5,193.167 44.5,195.833 44.5,198.5C 44.5,199.833 44.5,201.167 44.5,202.5C 49.1667,202.5 53.8333,202.5 58.5,202.5C 58.5,195.167 58.5,187.833 58.5,180.5C 58.5,175.833 58.5,171.167 58.5,166.5C 59.492,173.982 59.8254,181.648 59.5,189.5C 59.5,194.167 59.5,198.833 59.5,203.5C 54.1667,203.5 48.8333,203.5 43.5,203.5C 43.5,198.833 43.5,194.167 43.5,189.5C 43.1746,181.648 43.508,173.982 44.5,166.5 Z"/></g>
<g><path style="opacity:1" fill="#d14d7f" d="M 44.5,166.5 C 49.1667,166.5 53.8333,166.5 58.5,166.5C 58.5,171.167 58.5,175.833 58.5,180.5C 53.8333,180.5 49.1667,180.5 44.5,180.5C 44.5,175.833 44.5,171.167 44.5,166.5 Z"/></g>
<g><path style="opacity:1" fill="#903864" d="M 44.5,180.5 C 49.1667,180.5 53.8333,180.5 58.5,180.5C 58.5,187.833 58.5,195.167 58.5,202.5C 53.8333,202.5 49.1667,202.5 44.5,202.5C 44.5,201.167 44.5,199.833 44.5,198.5C 50.3649,198.991 54.6982,196.658 57.5,191.5C 53.2172,190.508 48.8839,190.174 44.5,190.5C 44.5,187.167 44.5,183.833 44.5,180.5 Z"/></g>
<g><path style="opacity:1" fill="#ea946a" d="M 288.5,167.5 C 290.02,169.89 291.02,172.557 291.5,175.5C 287.636,190.564 280.636,203.897 270.5,215.5C 270.282,206.317 269.615,197.317 268.5,188.5C 268.546,181.809 268.212,175.143 267.5,168.5C 273.702,168.273 279.869,168.606 286,169.5C 287.376,169.316 288.209,168.649 288.5,167.5 Z"/></g>
<g><path style="opacity:1" fill="#f8d2bf" d="M 257.5,182.5 C 258.479,185.625 258.813,188.958 258.5,192.5C 258.5,193.167 258.5,193.833 258.5,194.5C 258.917,197.079 258.25,199.246 256.5,201C 248.203,202.351 239.87,202.684 231.5,202C 229.027,201.78 227.36,200.614 226.5,198.5C 226.5,196.5 226.5,194.5 226.5,192.5C 227.11,191.609 227.443,190.609 227.5,189.5C 228.404,188.791 228.737,187.791 228.5,186.5C 238.534,187.41 248.201,186.077 257.5,182.5 Z"/></g>
<g><path style="opacity:1" fill="#423e4b" d="M 33.5,189.5 C 36.8333,189.5 40.1667,189.5 43.5,189.5C 43.5,194.167 43.5,198.833 43.5,203.5C 48.8333,203.5 54.1667,203.5 59.5,203.5C 59.5,198.833 59.5,194.167 59.5,189.5C 63.8333,189.5 68.1667,189.5 72.5,189.5C 82.7269,202.232 93.8936,214.232 106,225.5C 111.25,233.749 114.417,242.749 115.5,252.5C 111.935,253.787 108.268,253.787 104.5,252.5C 103.73,244.355 100.897,237.022 96,230.5C 86.9969,221.83 78.3303,212.83 70,203.5C 69.5008,208.155 69.3342,212.821 69.5,217.5C 69.5,239.833 69.5,262.167 69.5,284.5C 68.5056,274.013 68.1722,263.346 68.5,252.5C 65.5,252.5 62.5,252.5 59.5,252.5C 59.8302,271.008 59.4968,289.341 58.5,307.5C 58.5,276.167 58.5,244.833 58.5,213.5C 53.8333,213.5 49.1667,213.5 44.5,213.5C 44.5,244.833 44.5,276.167 44.5,307.5C 43.5032,289.341 43.1698,271.008 43.5,252.5C 40.1667,252.5 36.8333,252.5 33.5,252.5C 33.5,231.5 33.5,210.5 33.5,189.5 Z"/></g>
<g><path style="opacity:1" fill="#d44f82" d="M 44.5,190.5 C 48.8839,190.174 53.2172,190.508 57.5,191.5C 54.6982,196.658 50.3649,198.991 44.5,198.5C 44.5,195.833 44.5,193.167 44.5,190.5 Z"/></g>
<g><path style="opacity:1" fill="#3f3f4c" d="M 294.5,181.5 C 295.483,185.298 295.817,189.298 295.5,193.5C 299.179,193.06 302.512,193.727 305.5,195.5C 305.838,211.891 307.005,228.224 309,244.5C 311.833,240.833 314.667,237.167 317.5,233.5C 332.982,226.924 348.315,220.091 363.5,213C 369.062,208.37 372.395,202.537 373.5,195.5C 377.269,195.244 380.936,195.577 384.5,196.5C 383.767,202.198 381.934,207.531 379,212.5C 375.658,217.008 371.825,221.008 367.5,224.5C 374.292,235.75 380.292,247.417 385.5,259.5C 381.544,257.391 377.544,257.058 373.5,258.5C 371.021,252.875 368.021,247.542 364.5,242.5C 362.491,237.137 359.491,232.47 355.5,228.5C 347.813,231.427 340.313,234.76 333,238.5C 332.5,244.825 332.334,251.158 332.5,257.5C 329.061,257.747 325.728,257.414 322.5,256.5C 322.666,252.486 322.499,248.486 322,244.5C 319.055,248.751 315.888,252.751 312.5,256.5C 308.167,256.5 303.833,256.5 299.5,256.5C 297.28,242.069 296.113,227.403 296,212.5C 295.313,208.674 294.48,208.674 293.5,212.5C 284.108,221.895 274.442,230.895 264.5,239.5C 260.798,241.024 257.464,243.19 254.5,246C 252.091,247.707 249.425,248.54 246.5,248.5C 245.833,248.5 245.167,248.5 244.5,248.5C 236.846,240.848 228.846,233.515 220.5,226.5C 217.037,236.015 214.037,245.682 211.5,255.5C 207.176,255.073 202.842,254.739 198.5,254.5C 196.42,250.798 194.42,246.965 192.5,243C 186.403,242.227 183.07,245.061 182.5,251.5C 181.5,252.833 180.5,254.167 179.5,255.5C 176.038,254.518 172.371,254.185 168.5,254.5C 170.212,250.073 172.212,245.74 174.5,241.5C 158.746,237.581 148.246,227.914 143,212.5C 140.694,205.61 138.861,198.61 137.5,191.5C 167.17,191.599 196.837,191.932 226.5,192.5C 226.5,194.5 226.5,196.5 226.5,198.5C 225.313,201.946 224.646,205.613 224.5,209.5C 223.378,211.288 223.211,213.288 224,215.5C 232.018,223.019 240.184,230.352 248.5,237.5C 252.167,234.833 255.833,232.167 259.5,229.5C 260.757,222.809 260.757,216.142 259.5,209.5C 259.821,204.305 259.487,199.305 258.5,194.5C 258.5,193.833 258.5,193.167 258.5,192.5C 261.728,193.414 265.061,193.747 268.5,193.5C 268.5,191.833 268.5,190.167 268.5,188.5C 269.615,197.317 270.282,206.317 270.5,215.5C 270.343,216.873 270.51,218.207 271,219.5C 279.347,211.819 287.013,203.486 294,194.5C 294.499,190.179 294.666,185.846 294.5,181.5 Z"/></g>
<g><path style="opacity:1" fill="#e0eaf7" d="M 204.5,196.5 C 206.199,196.34 207.866,196.506 209.5,197C 191.221,211.794 171.887,213.294 151.5,201.5C 150.27,199.703 149.604,197.703 149.5,195.5C 167.782,197.765 186.115,198.098 204.5,196.5 Z"/></g>
<g><path style="opacity:1" fill="#403f4b" d="M 408.5,195.5 C 412.167,195.5 415.833,195.5 419.5,195.5C 421.477,209.089 425.144,222.089 430.5,234.5C 433.732,242.301 436.399,250.301 438.5,258.5C 434.731,258.244 431.064,258.577 427.5,259.5C 423.023,247.202 418.523,234.869 414,222.5C 411.52,213.62 409.687,204.62 408.5,195.5 Z"/></g>
<g><path style="opacity:1" fill="#dde5f8" d="M 204.5,196.5 C 206.948,195.527 209.615,195.194 212.5,195.5C 209.398,205.758 203.731,214.258 195.5,221C 192.257,222.018 188.924,222.518 185.5,222.5C 175.779,222.622 166.445,220.955 157.5,217.5C 154.908,212.392 152.908,207.059 151.5,201.5C 171.887,213.294 191.221,211.794 209.5,197C 207.866,196.506 206.199,196.34 204.5,196.5 Z"/></g>
<g><path style="opacity:1" fill="#3f3e4b" d="M 440.5,196.5 C 444.167,196.5 447.833,196.5 451.5,196.5C 456.465,211.429 463.298,225.429 472,238.5C 475.727,245.284 478.894,252.284 481.5,259.5C 477.833,259.5 474.167,259.5 470.5,259.5C 466.434,251.703 462.101,244.036 457.5,236.5C 450.194,223.885 444.527,210.551 440.5,196.5 Z"/></g>
<g><path style="opacity:1" fill="#d1a08f" d="M 258.5,194.5 C 259.487,199.305 259.821,204.305 259.5,209.5C 247.861,212.163 236.194,212.163 224.5,209.5C 224.646,205.613 225.313,201.946 226.5,198.5C 227.36,200.614 229.027,201.78 231.5,202C 239.87,202.684 248.203,202.351 256.5,201C 258.25,199.246 258.917,197.079 258.5,194.5 Z"/></g>
<g><path style="opacity:1" fill="#8c3863" d="M 104.5,252.5 C 106.999,262.556 108.666,272.556 109.5,282.5C 101.792,277.098 95.9588,270.098 92,261.5C 89.0248,252.268 86.3582,242.934 84,233.5C 82.1521,231.047 79.6521,230.047 76.5,230.5C 74.9281,225.685 72.5947,221.352 69.5,217.5C 69.3342,212.821 69.5008,208.155 70,203.5C 78.3303,212.83 86.9969,221.83 96,230.5C 100.897,237.022 103.73,244.355 104.5,252.5 Z"/></g>
<g><path style="opacity:1" fill="#f4cfbc" d="M 224.5,209.5 C 236.194,212.163 247.861,212.163 259.5,209.5C 260.757,216.142 260.757,222.809 259.5,229.5C 255.833,232.167 252.167,234.833 248.5,237.5C 240.184,230.352 232.018,223.019 224,215.5C 223.211,213.288 223.378,211.288 224.5,209.5 Z"/></g>
<g><path style="opacity:1" fill="#7e90bd" d="M 324.5,186.5 C 321.375,187.479 318.042,187.813 314.5,187.5C 312.167,187.5 309.833,187.5 307.5,187.5C 307.855,199.738 311.855,210.571 319.5,220C 322.5,220.667 325.5,220.667 328.5,220C 336.422,216.803 344.422,213.803 352.5,211C 360.833,207.481 367.833,202.314 373.5,195.5C 372.395,202.537 369.062,208.37 363.5,213C 348.315,220.091 332.982,226.924 317.5,233.5C 314.667,237.167 311.833,240.833 309,244.5C 307.005,228.224 305.838,211.891 305.5,195.5C 305.5,192.5 305.5,189.5 305.5,186.5C 311.833,186.5 318.167,186.5 324.5,186.5 Z"/></g>
<g><path style="opacity:1" fill="#ee9f74" d="M 419.5,183.5 C 425.138,184.286 430.805,184.952 436.5,185.5C 437.68,189.217 439.013,192.884 440.5,196.5C 444.527,210.551 450.194,223.885 457.5,236.5C 448.48,236.074 439.48,235.407 430.5,234.5C 425.144,222.089 421.477,209.089 419.5,195.5C 419.5,191.5 419.5,187.5 419.5,183.5 Z"/></g>
<g><path style="opacity:1" fill="#7c8ebb" d="M 212.5,195.5 C 213.5,195.5 214.5,195.5 215.5,195.5C 213.47,211.575 209.637,227.242 204,242.5C 202.682,239.523 201.182,236.69 199.5,234C 190.217,232.244 180.884,230.577 171.5,229C 165.394,226.798 160.727,222.965 157.5,217.5C 166.445,220.955 175.779,222.622 185.5,222.5C 188.924,222.518 192.257,222.018 195.5,221C 203.731,214.258 209.398,205.758 212.5,195.5 Z"/></g>
<g><path style="opacity:1" fill="#bf6951" d="M 364.5,242.5 C 352.234,253.031 345.234,266.364 343.5,282.5C 341.74,287.553 341.073,292.886 341.5,298.5C 339.784,298.629 338.117,298.962 336.5,299.5C 334.5,297.833 332.5,296.167 330.5,294.5C 332.283,282.256 332.95,269.922 332.5,257.5C 332.334,251.158 332.5,244.825 333,238.5C 340.313,234.76 347.813,231.427 355.5,228.5C 359.491,232.47 362.491,237.137 364.5,242.5 Z"/></g>
<g><path style="opacity:1" fill="#d1dff9" d="M 293.5,212.5 C 293.962,231.568 293.462,250.568 292,269.5C 288.934,275.9 284.434,281.067 278.5,285C 270.304,291.098 261.304,295.598 251.5,298.5C 268.21,281.623 272.543,261.956 264.5,239.5C 274.442,230.895 284.108,221.895 293.5,212.5 Z"/></g>
<g><path style="opacity:1" fill="#ecf0f7" d="M 244.5,248.5 C 237.577,265.235 235.911,282.568 239.5,300.5C 227.228,295.885 216.561,288.885 207.5,279.5C 207.018,278.584 206.685,277.584 206.5,276.5C 208.328,269.522 209.995,262.522 211.5,255.5C 214.037,245.682 217.037,236.015 220.5,226.5C 228.846,233.515 236.846,240.848 244.5,248.5 Z"/></g>
<g><path style="opacity:1" fill="#f1a77d" d="M 430.5,234.5 C 439.48,235.407 448.48,236.074 457.5,236.5C 462.101,244.036 466.434,251.703 470.5,259.5C 470.5,260.167 470.5,260.833 470.5,261.5C 460.254,260.826 450.087,259.826 440,258.5C 439.517,259.448 439.351,260.448 439.5,261.5C 438.596,260.791 438.263,259.791 438.5,258.5C 436.399,250.301 433.732,242.301 430.5,234.5 Z"/></g>
<g><path style="opacity:1" fill="#c06a51" d="M 198.5,254.5 C 198.971,256.288 199.304,258.122 199.5,260C 198.26,265.46 197.26,270.96 196.5,276.5C 196.818,281.455 198.152,286.122 200.5,290.5C 198.139,305.731 196.972,321.065 197,336.5C 193.626,330.887 189.626,330.221 185,334.5C 184.398,338.883 183.565,343.216 182.5,347.5C 179.812,345.479 177.479,343.146 175.5,340.5C 181.848,323.421 185.514,305.755 186.5,287.5C 187.622,276.546 187.788,265.546 187,254.5C 185.871,252.859 184.371,251.859 182.5,251.5C 183.07,245.061 186.403,242.227 192.5,243C 194.42,246.965 196.42,250.798 198.5,254.5 Z"/></g>
<g><path style="opacity:1" fill="#dfe7f9" d="M 264.5,239.5 C 272.543,261.956 268.21,281.623 251.5,298.5C 250.359,299.339 249.026,300.006 247.5,300.5C 246.571,301.689 246.238,303.022 246.5,304.5C 245.288,285.992 245.288,267.325 246.5,248.5C 249.425,248.54 252.091,247.707 254.5,246C 257.464,243.19 260.798,241.024 264.5,239.5 Z"/></g>
<g><path style="opacity:1" fill="#f8f9f9" d="M 244.5,248.5 C 245.167,248.5 245.833,248.5 246.5,248.5C 245.288,267.325 245.288,285.992 246.5,304.5C 246.661,307.81 246.661,310.81 246.5,313.5C 245.167,312.5 243.833,311.5 242.5,310.5C 241.87,306.952 240.87,303.619 239.5,300.5C 235.911,282.568 237.577,265.235 244.5,248.5 Z"/></g>
<g><path style="opacity:1" fill="#39384a" d="M 76.5,230.5 C 79.6521,230.047 82.1521,231.047 84,233.5C 86.3582,242.934 89.0248,252.268 92,261.5C 95.9588,270.098 101.792,277.098 109.5,282.5C 108.666,272.556 106.999,262.556 104.5,252.5C 108.268,253.787 111.935,253.787 115.5,252.5C 117.305,260.311 118.805,268.311 120,276.5C 122.224,282.057 125.891,286.39 131,289.5C 134.054,295.289 132.387,298.623 126,299.5C 104.227,296.069 89.2268,284.069 81,263.5C 77.2305,253.428 74.8972,243.094 74,232.5C 74.7083,231.619 75.5416,230.953 76.5,230.5 Z"/></g>
<g><path style="opacity:1" fill="#39384b" d="M 33.5,252.5 C 36.8333,252.5 40.1667,252.5 43.5,252.5C 43.1698,271.008 43.5032,289.341 44.5,307.5C 49.1667,307.5 53.8333,307.5 58.5,307.5C 59.4968,289.341 59.8302,271.008 59.5,252.5C 62.5,252.5 65.5,252.5 68.5,252.5C 68.1722,263.346 68.5056,274.013 69.5,284.5C 69.1688,292.86 69.5021,301.193 70.5,309.5C 75.7976,312.413 79.4642,316.747 81.5,322.5C 87.5,322.833 93.5,323.167 99.5,323.5C 116.841,322.966 134.175,322.3 151.5,321.5C 153.884,298.295 159.551,275.962 168.5,254.5C 172.371,254.185 176.038,254.518 179.5,255.5C 175.768,265.029 172.435,274.695 169.5,284.5C 164.943,298.122 162.776,312.122 163,326.5C 166.29,331.957 170.457,336.623 175.5,340.5C 177.479,343.146 179.812,345.479 182.5,347.5C 183.565,343.216 184.398,338.883 185,334.5C 189.626,330.221 193.626,330.887 197,336.5C 196.972,321.065 198.139,305.731 200.5,290.5C 198.152,286.122 196.818,281.455 196.5,276.5C 197.26,270.96 198.26,265.46 199.5,260C 199.304,258.122 198.971,256.288 198.5,254.5C 202.842,254.739 207.176,255.073 211.5,255.5C 209.995,262.522 208.328,269.522 206.5,276.5C 206.685,277.584 207.018,278.584 207.5,279.5C 210.51,285.023 214.51,289.856 219.5,294C 226.52,300.5 234.187,306 242.5,310.5C 243.833,311.5 245.167,312.5 246.5,313.5C 247.601,314.598 248.934,314.765 250.5,314C 267.237,306.753 282.237,296.92 295.5,284.5C 297.499,282.507 298.999,280.173 300,277.5C 300.565,270.482 300.399,263.482 299.5,256.5C 303.833,256.5 308.167,256.5 312.5,256.5C 312.539,257.756 312.039,258.756 311,259.5C 310.667,266.167 310.333,272.833 310,279.5C 308.861,282.583 307.528,285.583 306,288.5C 295.46,298.89 283.96,307.89 271.5,315.5C 265.673,318.579 259.673,321.412 253.5,324C 250.923,325.25 248.257,325.584 245.5,325C 232.77,317.967 221.103,309.467 210.5,299.5C 209.719,300.729 209.219,302.062 209,303.5C 208.501,309.491 208.334,315.491 208.5,321.5C 207.18,330.372 207.346,339.372 209,348.5C 213.369,353.037 217.869,357.37 222.5,361.5C 222.833,362.167 223.167,362.833 223.5,363.5C 218.833,363.5 214.167,363.5 209.5,363.5C 204.202,358.703 199.035,353.703 194,348.5C 192.385,352.955 191.551,357.622 191.5,362.5C 188.167,362.5 184.833,362.5 181.5,362.5C 181.762,361.022 181.429,359.689 180.5,358.5C 177.149,356.141 173.815,353.808 170.5,351.5C 164.629,345.796 159.296,339.629 154.5,333C 145.657,332.176 136.99,332.343 128.5,333.5C 115.508,334.083 102.508,334.416 89.5,334.5C 86.8333,334.5 84.1667,334.5 81.5,334.5C 81.5,343.833 81.5,353.167 81.5,362.5C 78.5118,360.727 75.1785,360.06 71.5,360.5C 71.6665,348.829 71.4999,337.162 71,325.5C 69.5,322.667 67.3333,320.5 64.5,319C 56.8333,318.333 49.1667,318.333 41.5,319C 39.2911,320.873 37.4578,323.04 36,325.5C 35.5001,337.162 35.3335,348.829 35.5,360.5C 31.8333,360.5 28.1667,360.5 24.5,360.5C 24.3335,348.829 24.5001,337.162 25,325.5C 26.117,319.931 28.7837,315.264 33,311.5C 33.5,291.836 33.6666,272.169 33.5,252.5 Z"/></g>
<g><path style="opacity:1" fill="#7386b2" d="M 299.5,256.5 C 300.399,263.482 300.565,270.482 300,277.5C 298.999,280.173 297.499,282.507 295.5,284.5C 282.237,296.92 267.237,306.753 250.5,314C 248.934,314.765 247.601,314.598 246.5,313.5C 246.661,310.81 246.661,307.81 246.5,304.5C 246.238,303.022 246.571,301.689 247.5,300.5C 249.026,300.006 250.359,299.339 251.5,298.5C 261.304,295.598 270.304,291.098 278.5,285C 284.434,281.067 288.934,275.9 292,269.5C 293.462,250.568 293.962,231.568 293.5,212.5C 294.48,208.674 295.313,208.674 296,212.5C 296.113,227.403 297.28,242.069 299.5,256.5 Z"/></g>
<g><path style="opacity:1" fill="#38384b" d="M 322.5,256.5 C 325.728,257.414 329.061,257.747 332.5,257.5C 332.95,269.922 332.283,282.256 330.5,294.5C 328.955,298.593 327.121,302.593 325,306.5C 316.991,316.018 311.491,326.851 308.5,339C 308.667,339.5 308.833,340 309,340.5C 312.201,336.964 315.701,333.797 319.5,331C 321.684,330.558 323.684,331.058 325.5,332.5C 326.478,343.448 326.811,354.448 326.5,365.5C 323.061,365.747 319.728,365.414 316.5,364.5C 316.666,359.156 316.499,353.823 316,348.5C 315.283,349.044 314.783,349.711 314.5,350.5C 309.167,355.5 303.833,360.5 298.5,365.5C 294.366,364.515 290.032,364.182 285.5,364.5C 286.167,363.5 286.833,362.5 287.5,361.5C 290.797,358.704 293.964,355.704 297,352.5C 297.499,347.845 297.666,343.179 297.5,338.5C 298.395,330.477 301.062,323.144 305.5,316.5C 310.84,308.489 315.674,300.156 320,291.5C 322.229,279.95 323.063,268.283 322.5,256.5 Z"/></g>
<g><path style="opacity:1" fill="#39384b" d="M 385.5,259.5 C 388.261,265.36 390.761,271.36 393,277.5C 396.107,272.578 400.274,271.078 405.5,273C 412.628,296.933 416.795,321.433 418,346.5C 433.665,318.962 436.832,289.962 427.5,259.5C 431.064,258.577 434.731,258.244 438.5,258.5C 438.263,259.791 438.596,260.791 439.5,261.5C 446.499,288.877 444.499,315.543 433.5,341.5C 428.918,350.334 423.585,358.667 417.5,366.5C 414.167,366.5 410.833,366.5 407.5,366.5C 407.65,353.969 406.984,341.636 405.5,329.5C 404.574,315.148 402.074,301.148 398,287.5C 393.918,291.076 390.418,295.076 387.5,299.5C 377.479,309.859 368.645,321.192 361,333.5C 360.348,336.594 360.682,339.594 362,342.5C 365.725,348.052 369.225,353.718 372.5,359.5C 373.773,361.713 374.773,364.046 375.5,366.5C 371.6,365.57 367.6,365.237 363.5,365.5C 359.346,358.531 355.179,351.531 351,344.5C 348.817,338.282 349.317,332.282 352.5,326.5C 347.566,319.396 342.066,312.73 336,306.5C 335.297,304.071 335.463,301.738 336.5,299.5C 338.117,298.962 339.784,298.629 341.5,298.5C 348.458,303.458 354.458,309.458 359.5,316.5C 366.728,306.1 374.894,296.434 384,287.5C 383.975,283.455 382.808,279.788 380.5,276.5C 378.561,270.35 376.227,264.35 373.5,258.5C 377.544,257.058 381.544,257.391 385.5,259.5 Z"/></g>
<g><path style="opacity:1" fill="#f1ad82" d="M 470.5,261.5 C 476.573,274.067 480.239,287.401 481.5,301.5C 482.174,306.947 481.008,311.947 478,316.5C 467.857,333.645 453.024,341.978 433.5,341.5C 444.499,315.543 446.499,288.877 439.5,261.5C 439.351,260.448 439.517,259.448 440,258.5C 450.087,259.826 460.254,260.826 470.5,261.5 Z"/></g>
<g><path style="opacity:1" fill="#39384b" d="M 470.5,259.5 C 474.167,259.5 477.833,259.5 481.5,259.5C 495.902,294.899 497.236,330.899 485.5,367.5C 481.833,367.5 478.167,367.5 474.5,367.5C 481.827,345.896 484.16,323.896 481.5,301.5C 480.239,287.401 476.573,274.067 470.5,261.5C 470.5,260.833 470.5,260.167 470.5,259.5 Z"/></g>
<g><path style="opacity:1" fill="#f0a278" d="M 364.5,242.5 C 368.021,247.542 371.021,252.875 373.5,258.5C 376.227,264.35 378.561,270.35 380.5,276.5C 380.586,277.496 380.252,278.329 379.5,279C 368.147,280.726 356.813,282.559 345.5,284.5C 344.287,284.253 343.62,283.586 343.5,282.5C 345.234,266.364 352.234,253.031 364.5,242.5 Z"/></g>
<g><path style="opacity:1" fill="#efa67e" d="M 182.5,251.5 C 184.371,251.859 185.871,252.859 187,254.5C 187.788,265.546 187.622,276.546 186.5,287.5C 180.914,286.225 175.247,285.225 169.5,284.5C 172.435,274.695 175.768,265.029 179.5,255.5C 180.5,254.167 181.5,252.833 182.5,251.5 Z"/></g>
<g><path style="opacity:1" fill="#e96861" d="M 58.5,307.5 C 53.8333,307.5 49.1667,307.5 44.5,307.5C 44.5,276.167 44.5,244.833 44.5,213.5C 49.1667,213.5 53.8333,213.5 58.5,213.5C 58.5,244.833 58.5,276.167 58.5,307.5 Z"/></g>
<g><path style="opacity:1" fill="#ea996f" d="M 380.5,276.5 C 382.808,279.788 383.975,283.455 384,287.5C 374.894,296.434 366.728,306.1 359.5,316.5C 354.458,309.458 348.458,303.458 341.5,298.5C 341.073,292.886 341.74,287.553 343.5,282.5C 343.62,283.586 344.287,284.253 345.5,284.5C 356.813,282.559 368.147,280.726 379.5,279C 380.252,278.329 380.586,277.496 380.5,276.5 Z"/></g>
<g><path style="opacity:1" fill="#656576" d="M 322.5,256.5 C 323.063,268.283 322.229,279.95 320,291.5C 315.674,300.156 310.84,308.489 305.5,316.5C 293.988,316.828 282.654,316.495 271.5,315.5C 283.96,307.89 295.46,298.89 306,288.5C 307.528,285.583 308.861,282.583 310,279.5C 310.333,272.833 310.667,266.167 311,259.5C 312.039,258.756 312.539,257.756 312.5,256.5C 315.888,252.751 319.055,248.751 322,244.5C 322.499,248.486 322.666,252.486 322.5,256.5 Z"/></g>
<g><path style="opacity:1" fill="#7183ae" d="M 207.5,279.5 C 216.561,288.885 227.228,295.885 239.5,300.5C 240.87,303.619 241.87,306.952 242.5,310.5C 234.187,306 226.52,300.5 219.5,294C 214.51,289.856 210.51,285.023 207.5,279.5 Z"/></g>
<g><path style="opacity:1" fill="#eb996e" d="M 169.5,284.5 C 175.247,285.225 180.914,286.225 186.5,287.5C 185.514,305.755 181.848,323.421 175.5,340.5C 170.457,336.623 166.29,331.957 163,326.5C 162.776,312.122 164.943,298.122 169.5,284.5 Z"/></g>
<g><path style="opacity:1" fill="#646477" d="M 405.5,329.5 C 405.5,332.5 405.5,335.5 405.5,338.5C 401.5,338.5 397.5,338.5 393.5,338.5C 393.821,344.026 393.488,349.36 392.5,354.5C 393.604,335.86 391.937,317.526 387.5,299.5C 390.418,295.076 393.918,291.076 398,287.5C 402.074,301.148 404.574,315.148 405.5,329.5 Z"/></g>
<g><path style="opacity:1" fill="#c06951" d="M 481.5,301.5 C 484.16,323.896 481.827,345.896 474.5,367.5C 464.805,392.213 450.139,413.547 430.5,431.5C 428.307,416.755 423.807,402.755 417,389.5C 416.985,381.845 417.152,374.178 417.5,366.5C 423.585,358.667 428.918,350.334 433.5,341.5C 453.024,341.978 467.857,333.645 478,316.5C 481.008,311.947 482.174,306.947 481.5,301.5 Z"/></g>
<g><path style="opacity:1" fill="#5d5d6f" d="M 271.5,315.5 C 282.654,316.495 293.988,316.828 305.5,316.5C 301.062,323.144 298.395,330.477 297.5,338.5C 267.832,338.711 238.165,339.044 208.5,339.5C 208.5,333.5 208.5,327.5 208.5,321.5C 208.334,315.491 208.501,309.491 209,303.5C 209.219,302.062 209.719,300.729 210.5,299.5C 221.103,309.467 232.77,317.967 245.5,325C 248.257,325.584 250.923,325.25 253.5,324C 259.673,321.412 265.673,318.579 271.5,315.5 Z"/></g>
<g><path style="opacity:1" fill="#8194ad" d="M 387.5,299.5 C 391.937,317.526 393.604,335.86 392.5,354.5C 392.5,355.833 392.5,357.167 392.5,358.5C 385.922,359.46 379.255,359.793 372.5,359.5C 369.225,353.718 365.725,348.052 362,342.5C 360.682,339.594 360.348,336.594 361,333.5C 368.645,321.192 377.479,309.859 387.5,299.5 Z"/></g>
<g><path style="opacity:1" fill="#ea9b71" d="M 71.5,360.5 C 71.7373,361.791 71.404,362.791 70.5,363.5C 70.5,357.833 70.5,352.167 70.5,346.5C 59.1234,347.505 47.7901,348.839 36.5,350.5C 36.5,354.5 36.5,358.5 36.5,362.5C 35.6618,362.158 35.3284,361.492 35.5,360.5C 35.3335,348.829 35.5001,337.162 36,325.5C 37.4578,323.04 39.2911,320.873 41.5,319C 49.1667,318.333 56.8333,318.333 64.5,319C 67.3333,320.5 69.5,322.667 71,325.5C 71.4999,337.162 71.6665,348.829 71.5,360.5 Z"/></g>
<g><path style="opacity:1" fill="#7789a2" d="M 128.5,333.5 C 136.99,332.343 145.657,332.176 154.5,333C 159.296,339.629 164.629,345.796 170.5,351.5C 168.416,354.765 166.083,357.932 163.5,361C 159.974,362.337 156.308,362.837 152.5,362.5C 145.129,361.385 137.795,360.051 130.5,358.5C 131.787,357.129 132.453,355.295 132.5,353C 133.237,346.519 133.57,340.019 133.5,333.5C 131.833,333.5 130.167,333.5 128.5,333.5 Z"/></g>
<g><path style="opacity:1" fill="#8497b1" d="M 128.5,333.5 C 130.167,333.5 131.833,333.5 133.5,333.5C 133.57,340.019 133.237,346.519 132.5,353C 132.453,355.295 131.787,357.129 130.5,358.5C 121.12,357.895 111.787,356.895 102.5,355.5C 98.4642,354.98 95.2975,352.98 93,349.5C 90.8784,344.726 89.7117,339.726 89.5,334.5C 102.508,334.416 115.508,334.083 128.5,333.5 Z"/></g>
<g><path style="opacity:1" fill="#515164" d="M 89.5,334.5 C 89.7117,339.726 90.8784,344.726 93,349.5C 95.2975,352.98 98.4642,354.98 102.5,355.5C 102.177,360.944 102.177,366.277 102.5,371.5C 95.5503,369.847 88.5503,368.347 81.5,367C 81.0338,365.701 81.0338,364.201 81.5,362.5C 81.5,353.167 81.5,343.833 81.5,334.5C 84.1667,334.5 86.8333,334.5 89.5,334.5 Z"/></g>
<g><path style="opacity:1" fill="#565669" d="M 208.5,321.5 C 208.5,327.5 208.5,333.5 208.5,339.5C 238.165,339.044 267.832,338.711 297.5,338.5C 297.666,343.179 297.499,347.845 297,352.5C 293.964,355.704 290.797,358.704 287.5,361.5C 265.833,361.5 244.167,361.5 222.5,361.5C 217.869,357.37 213.369,353.037 209,348.5C 207.346,339.372 207.18,330.372 208.5,321.5 Z"/></g>
<g><path style="opacity:1" fill="#e99367" d="M 70.5,363.5 C 69.4566,366.056 67.7899,368.223 65.5,370C 57.4608,371.93 49.4608,371.93 41.5,370C 38.2108,368.59 36.5441,366.09 36.5,362.5C 36.5,358.5 36.5,354.5 36.5,350.5C 47.7901,348.839 59.1234,347.505 70.5,346.5C 70.5,352.167 70.5,357.833 70.5,363.5 Z"/></g>
<g><path style="opacity:1" fill="#8b91aa" d="M 316.5,364.5 C 316.672,365.492 316.338,366.158 315.5,366.5C 315.821,360.974 315.488,355.64 314.5,350.5C 314.783,349.711 315.283,349.044 316,348.5C 316.499,353.823 316.666,359.156 316.5,364.5 Z"/></g>
<g><path style="opacity:1" fill="#646476" d="M 170.5,351.5 C 173.815,353.808 177.149,356.141 180.5,358.5C 181.429,359.689 181.762,361.022 181.5,362.5C 181.295,368.054 182.628,373.221 185.5,378C 184.098,381.322 182.098,384.155 179.5,386.5C 177.167,386.5 174.833,386.5 172.5,386.5C 172.607,384.097 171.607,382.264 169.5,381C 164.207,380.023 158.874,379.523 153.5,379.5C 152.791,378.596 151.791,378.263 150.5,378.5C 151.058,373.115 151.725,367.782 152.5,362.5C 156.308,362.837 159.974,362.337 163.5,361C 166.083,357.932 168.416,354.765 170.5,351.5 Z"/></g>
<g><path style="opacity:1" fill="#e9edf5" d="M 209.5,363.5 C 209.5,363.833 209.5,364.167 209.5,364.5C 203.9,367.099 200.566,371.432 199.5,377.5C 194.49,373.817 191.823,368.817 191.5,362.5C 191.551,357.622 192.385,352.955 194,348.5C 199.035,353.703 204.202,358.703 209.5,363.5 Z"/></g>
<g><path style="opacity:1" fill="#58586b" d="M 405.5,329.5 C 406.984,341.636 407.65,353.969 407.5,366.5C 407.769,372.94 407.102,379.273 405.5,385.5C 398.364,388.472 392.197,392.805 387,398.5C 386.315,395.421 385.481,392.421 384.5,389.5C 386.268,386.394 387.768,383.061 389,379.5C 390.363,372.522 391.529,365.522 392.5,358.5C 392.5,357.167 392.5,355.833 392.5,354.5C 393.488,349.36 393.821,344.026 393.5,338.5C 397.5,338.5 401.5,338.5 405.5,338.5C 405.5,335.5 405.5,332.5 405.5,329.5 Z"/></g>
<g><path style="opacity:1" fill="#5a5a6d" d="M 102.5,355.5 C 111.787,356.895 121.12,357.895 130.5,358.5C 137.795,360.051 145.129,361.385 152.5,362.5C 151.725,367.782 151.058,373.115 150.5,378.5C 151.791,378.263 152.791,378.596 153.5,379.5C 136.357,377.559 119.357,374.893 102.5,371.5C 102.177,366.277 102.177,360.944 102.5,355.5 Z"/></g>
<g><path style="opacity:1" fill="#74869f" d="M 392.5,358.5 C 391.529,365.522 390.363,372.522 389,379.5C 387.768,383.061 386.268,386.394 384.5,389.5C 382.067,381.521 379.067,373.854 375.5,366.5C 374.773,364.046 373.773,361.713 372.5,359.5C 379.255,359.793 385.922,359.46 392.5,358.5 Z"/></g>
<g><path style="opacity:1" fill="#383844" d="M 24.5,360.5 C 28.1667,360.5 31.8333,360.5 35.5,360.5C 35.3284,361.492 35.6618,362.158 36.5,362.5C 36.5441,366.09 38.2108,368.59 41.5,370C 49.4608,371.93 57.4608,371.93 65.5,370C 67.7899,368.223 69.4566,366.056 70.5,363.5C 71.404,362.791 71.7373,361.791 71.5,360.5C 75.1785,360.06 78.5118,360.727 81.5,362.5C 81.0338,364.201 81.0338,365.701 81.5,367C 88.5503,368.347 95.5503,369.847 102.5,371.5C 119.357,374.893 136.357,377.559 153.5,379.5C 158.874,379.523 164.207,380.023 169.5,381C 171.607,382.264 172.607,384.097 172.5,386.5C 171.922,390.312 169.589,391.979 165.5,391.5C 135.126,388.66 105.126,383.66 75.5,376.5C 73.9991,377.752 72.3325,378.752 70.5,379.5C 69.5002,410.493 69.1668,441.493 69.5,472.5C 68.5056,462.013 68.1722,451.346 68.5,440.5C 65.5,440.5 62.5,440.5 59.5,440.5C 59.8304,420.66 59.4971,400.993 58.5,381.5C 53.8333,381.5 49.1667,381.5 44.5,381.5C 43.5029,400.993 43.1696,420.66 43.5,440.5C 40.1667,440.5 36.8333,440.5 33.5,440.5C 33.6666,419.497 33.5,398.497 33,377.5C 27.6002,373.144 24.7668,367.477 24.5,360.5 Z"/></g>
<g><path style="opacity:1" fill="#505063" d="M 222.5,361.5 C 244.167,361.5 265.833,361.5 287.5,361.5C 286.833,362.5 286.167,363.5 285.5,364.5C 274.566,373.931 264.066,383.931 254,394.5C 243.631,384.298 233.465,373.965 223.5,363.5C 223.167,362.833 222.833,362.167 222.5,361.5 Z"/></g>
<g><path style="opacity:1" fill="#393945" d="M 181.5,362.5 C 184.833,362.5 188.167,362.5 191.5,362.5C 191.823,368.817 194.49,373.817 199.5,377.5C 203.801,383.135 208.467,388.468 213.5,393.5C 225.833,407.833 239.167,421.167 253.5,433.5C 253.897,434.525 254.563,434.692 255.5,434C 276.15,415.161 295.317,394.994 313,373.5C 314.411,371.35 315.245,369.016 315.5,366.5C 316.338,366.158 316.672,365.492 316.5,364.5C 319.728,365.414 323.061,365.747 326.5,365.5C 326.069,369.422 327.069,372.922 329.5,376C 342.464,378.749 355.464,379.082 368.5,377C 366.692,373.219 365.026,369.385 363.5,365.5C 367.6,365.237 371.6,365.57 375.5,366.5C 379.067,373.854 382.067,381.521 384.5,389.5C 385.481,392.421 386.315,395.421 387,398.5C 392.197,392.805 398.364,388.472 405.5,385.5C 407.102,379.273 407.769,372.94 407.5,366.5C 410.833,366.5 414.167,366.5 417.5,366.5C 417.152,374.178 416.985,381.845 417,389.5C 423.807,402.755 428.307,416.755 430.5,431.5C 450.139,413.547 464.805,392.213 474.5,367.5C 478.167,367.5 481.833,367.5 485.5,367.5C 474.355,398.135 456.522,424.135 432,445.5C 431.536,446.094 431.369,446.761 431.5,447.5C 427.785,447.577 424.119,447.244 420.5,446.5C 420.903,429.116 417.07,412.783 409,397.5C 408.283,398.044 407.783,398.711 407.5,399.5C 402.121,403.945 396.621,408.279 391,412.5C 390.209,424.213 390.376,435.879 391.5,447.5C 388.064,446.218 384.731,446.218 381.5,447.5C 381.896,428.258 379.396,409.258 374,390.5C 372.991,389.342 371.658,388.675 370,388.5C 358.393,389.493 346.893,389.826 335.5,389.5C 341.018,401.22 345.851,413.22 350,425.5C 351.721,432.144 351.888,438.81 350.5,445.5C 346.731,445.244 343.064,445.577 339.5,446.5C 341.189,441.761 341.522,437.094 340.5,432.5C 340.277,428.838 339.277,425.505 337.5,422.5C 334.086,412.256 330.086,402.256 325.5,392.5C 323.68,388.86 321.847,385.193 320,381.5C 312.371,390.797 304.371,399.797 296,408.5C 295.5,414.825 295.334,421.158 295.5,427.5C 295.5,431.167 295.5,434.833 295.5,438.5C 295.5,443.167 295.5,447.833 295.5,452.5C 294.527,450.052 294.194,447.385 294.5,444.5C 291.5,444.5 288.5,444.5 285.5,444.5C 285.831,436.472 285.498,428.472 284.5,420.5C 283.893,420.624 283.56,420.957 283.5,421.5C 275.005,429.828 266.338,437.995 257.5,446C 255.5,446.667 253.5,446.667 251.5,446C 242.995,438.328 234.662,430.495 226.5,422.5C 225.509,429.313 225.175,436.313 225.5,443.5C 222.5,443.5 219.5,443.5 216.5,443.5C 216.667,432.828 216.5,422.161 216,411.5C 207.635,403.736 199.968,395.403 193,386.5C 189.712,390.744 187.212,395.41 185.5,400.5C 180.286,409.953 176.119,419.953 173,430.5C 172.306,434.554 172.473,438.554 173.5,442.5C 169.833,442.5 166.167,442.5 162.5,442.5C 161.205,437.276 161.372,431.943 163,426.5C 167.441,412.665 172.941,399.331 179.5,386.5C 182.098,384.155 184.098,381.322 185.5,378C 182.628,373.221 181.295,368.054 181.5,362.5 Z"/></g>
<g><path style="opacity:1" fill="#3a3a46" d="M 209.5,364.5 C 209.5,364.167 209.5,363.833 209.5,363.5C 214.167,363.5 218.833,363.5 223.5,363.5C 233.465,373.965 243.631,384.298 254,394.5C 264.066,383.931 274.566,373.931 285.5,364.5C 290.032,364.182 294.366,364.515 298.5,365.5C 284.699,379.133 270.699,392.633 256.5,406C 254.866,406.494 253.199,406.66 251.5,406.5C 243.473,399.14 235.806,391.473 228.5,383.5C 222.5,376.833 216.167,370.5 209.5,364.5 Z"/></g>
<g><path style="opacity:1" fill="#f4f6f7" d="M 209.5,364.5 C 216.167,370.5 222.5,376.833 228.5,383.5C 226.067,390.558 221.067,393.891 213.5,393.5C 208.467,388.468 203.801,383.135 199.5,377.5C 200.566,371.432 203.9,367.099 209.5,364.5 Z"/></g>
<g><path style="opacity:1" fill="#d2dff6" d="M 314.5,350.5 C 315.488,355.64 315.821,360.974 315.5,366.5C 315.245,369.016 314.411,371.35 313,373.5C 295.317,394.994 276.15,415.161 255.5,434C 254.563,434.692 253.897,434.525 253.5,433.5C 252.182,425.69 252.182,417.857 253.5,410C 253.138,408.566 252.472,407.399 251.5,406.5C 253.199,406.66 254.866,406.494 256.5,406C 270.699,392.633 284.699,379.133 298.5,365.5C 303.833,360.5 309.167,355.5 314.5,350.5 Z"/></g>
<g><path style="opacity:1" fill="#c83e3e" d="M 44.5,381.5 C 49.1667,381.5 53.8333,381.5 58.5,381.5C 58.5,391.833 58.5,402.167 58.5,412.5C 53.806,409.821 49.1393,407.155 44.5,404.5C 44.5,396.833 44.5,389.167 44.5,381.5 Z"/></g>
<g><path style="opacity:1" fill="#bf6950" d="M 381.5,447.5 C 381.854,451.23 383.187,454.563 385.5,457.5C 381.031,459.562 376.364,461.062 371.5,462C 369.845,463.444 369.178,465.278 369.5,467.5C 365.203,468.231 360.87,468.898 356.5,469.5C 354.883,461.421 352.883,453.421 350.5,445.5C 351.888,438.81 351.721,432.144 350,425.5C 345.851,413.22 341.018,401.22 335.5,389.5C 346.893,389.826 358.393,389.493 370,388.5C 371.658,388.675 372.991,389.342 374,390.5C 379.396,409.258 381.896,428.258 381.5,447.5 Z"/></g>
<g><path style="opacity:1" fill="#8596c2" d="M 216.5,443.5 C 216.819,448.363 216.486,453.03 215.5,457.5C 215.666,447.494 215.5,437.494 215,427.5C 212.561,425.371 210.061,423.371 207.5,421.5C 200.193,414.528 192.86,407.528 185.5,400.5C 187.212,395.41 189.712,390.744 193,386.5C 199.968,395.403 207.635,403.736 216,411.5C 216.5,422.161 216.667,432.828 216.5,443.5 Z"/></g>
<g><path style="opacity:1" fill="#e8edf7" d="M 228.5,383.5 C 235.806,391.473 243.473,399.14 251.5,406.5C 252.472,407.399 253.138,408.566 253.5,410C 252.182,417.857 252.182,425.69 253.5,433.5C 239.167,421.167 225.833,407.833 213.5,393.5C 221.067,393.891 226.067,390.558 228.5,383.5 Z"/></g>
<g><path style="opacity:1" fill="#889ac8" d="M 325.5,392.5 C 323.629,392.859 322.129,393.859 321,395.5C 316.283,401.377 311.783,407.377 307.5,413.5C 304.102,416.627 301.435,420.293 299.5,424.5C 298.167,425.5 296.833,426.5 295.5,427.5C 295.334,421.158 295.5,414.825 296,408.5C 304.371,399.797 312.371,390.797 320,381.5C 321.847,385.193 323.68,388.86 325.5,392.5 Z"/></g>
<g><path style="opacity:1" fill="#e79267" d="M 420.5,446.5 C 420.663,451.547 420.329,456.547 419.5,461.5C 415.326,461.666 411.326,461 407.5,459.5C 407.5,439.5 407.5,419.5 407.5,399.5C 407.783,398.711 408.283,398.044 409,397.5C 417.07,412.783 420.903,429.116 420.5,446.5 Z"/></g>
<g><path style="opacity:1" fill="#6f484f" d="M 44.5,381.5 C 44.5,389.167 44.5,396.833 44.5,404.5C 44.5,435.5 44.5,466.5 44.5,497.5C 42.5,497.5 40.5,497.5 38.5,497.5C 39.9187,496.549 41.5853,496.216 43.5,496.5C 43.5,477.833 43.5,459.167 43.5,440.5C 43.1696,420.66 43.5029,400.993 44.5,381.5 Z"/></g>
<g><path style="opacity:1" fill="#f9756f" d="M 44.5,404.5 C 49.1393,407.155 53.806,409.821 58.5,412.5C 58.5,440.833 58.5,469.167 58.5,497.5C 53.8333,497.5 49.1667,497.5 44.5,497.5C 44.5,466.5 44.5,435.5 44.5,404.5 Z"/></g>
<g><path style="opacity:1" fill="#ee9f75" d="M 407.5,399.5 C 407.5,419.5 407.5,439.5 407.5,459.5C 400.154,458.151 394.821,454.151 391.5,447.5C 390.376,435.879 390.209,424.213 391,412.5C 396.621,408.279 402.121,403.945 407.5,399.5 Z"/></g>
<g><path style="opacity:1" fill="#eef3f8" d="M 325.5,392.5 C 330.086,402.256 334.086,412.256 337.5,422.5C 337.5,423.5 337.5,424.5 337.5,425.5C 327.826,428.914 319.16,427.247 311.5,420.5C 309.384,418.6 308.051,416.267 307.5,413.5C 311.783,407.377 316.283,401.377 321,395.5C 322.129,393.859 323.629,392.859 325.5,392.5 Z"/></g>
<g><path style="opacity:1" fill="#e7edf9" d="M 185.5,400.5 C 192.86,407.528 200.193,414.528 207.5,421.5C 203.018,436.646 193.018,445.98 177.5,449.5C 175.412,447.664 174.079,445.331 173.5,442.5C 172.473,438.554 172.306,434.554 173,430.5C 176.119,419.953 180.286,409.953 185.5,400.5 Z"/></g>
<g><path style="opacity:1" fill="#73474e" d="M 58.5,381.5 C 59.4971,400.993 59.8304,420.66 59.5,440.5C 59.5,459.167 59.5,477.833 59.5,496.5C 61.4147,496.216 63.0813,496.549 64.5,497.5C 62.5,497.5 60.5,497.5 58.5,497.5C 58.5,469.167 58.5,440.833 58.5,412.5C 58.5,402.167 58.5,391.833 58.5,381.5 Z"/></g>
<g><path style="opacity:1" fill="#e4ebf9" d="M 307.5,413.5 C 308.051,416.267 309.384,418.6 311.5,420.5C 319.16,427.247 327.826,428.914 337.5,425.5C 337.5,424.5 337.5,423.5 337.5,422.5C 339.277,425.505 340.277,428.838 340.5,432.5C 340.714,434.144 340.38,435.644 339.5,437C 323.348,441.796 310.014,437.629 299.5,424.5C 301.435,420.293 304.102,416.627 307.5,413.5 Z"/></g>
<g><path style="opacity:1" fill="#8e3863" d="M 283.5,421.5 C 284.497,441.326 284.83,461.326 284.5,481.5C 264.901,467.241 245.568,452.575 226.5,437.5C 226.5,432.5 226.5,427.5 226.5,422.5C 234.662,430.495 242.995,438.328 251.5,446C 253.5,446.667 255.5,446.667 257.5,446C 266.338,437.995 275.005,429.828 283.5,421.5 Z"/></g>
<g><path style="opacity:1" fill="#d9e4f9" d="M 207.5,421.5 C 210.061,423.371 212.561,425.371 215,427.5C 215.5,437.494 215.666,447.494 215.5,457.5C 209.718,462.264 203.385,466.264 196.5,469.5C 190.297,465.308 184.797,460.308 180,454.5C 178.906,452.922 178.072,451.255 177.5,449.5C 193.018,445.98 203.018,436.646 207.5,421.5 Z"/></g>
<g><path style="opacity:1" fill="#dbe5f8" d="M 299.5,424.5 C 310.014,437.629 323.348,441.796 339.5,437C 340.38,435.644 340.714,434.144 340.5,432.5C 341.522,437.094 341.189,441.761 339.5,446.5C 338.655,447.671 337.989,449.005 337.5,450.5C 321.596,452.695 307.596,448.695 295.5,438.5C 295.5,434.833 295.5,431.167 295.5,427.5C 296.833,426.5 298.167,425.5 299.5,424.5 Z"/></g>
<g><path style="opacity:1" fill="#323143" d="M 33.5,440.5 C 36.8333,440.5 40.1667,440.5 43.5,440.5C 43.5,459.167 43.5,477.833 43.5,496.5C 41.5853,496.216 39.9187,496.549 38.5,497.5C 36.8333,497.5 35.1667,497.5 33.5,497.5C 33.5,478.5 33.5,459.5 33.5,440.5 Z"/></g>
<g><path style="opacity:1" fill="#323143" d="M 59.5,440.5 C 62.5,440.5 65.5,440.5 68.5,440.5C 68.1722,451.346 68.5056,462.013 69.5,472.5C 69.5,480.833 69.5,489.167 69.5,497.5C 67.8333,497.5 66.1667,497.5 64.5,497.5C 63.0813,496.549 61.4147,496.216 59.5,496.5C 59.5,477.833 59.5,459.167 59.5,440.5 Z"/></g>
<g><path style="opacity:1" fill="#d1def7" d="M 295.5,438.5 C 307.596,448.695 321.596,452.695 337.5,450.5C 333.624,458.38 327.957,464.713 320.5,469.5C 311.234,465.047 302.901,459.38 295.5,452.5C 295.5,447.833 295.5,443.167 295.5,438.5 Z"/></g>
<g><path style="opacity:1" fill="#333345" d="M 162.5,442.5 C 166.167,442.5 169.833,442.5 173.5,442.5C 174.079,445.331 175.412,447.664 177.5,449.5C 178.072,451.255 178.906,452.922 180,454.5C 184.797,460.308 190.297,465.308 196.5,469.5C 203.385,466.264 209.718,462.264 215.5,457.5C 216.486,453.03 216.819,448.363 216.5,443.5C 219.5,443.5 222.5,443.5 225.5,443.5C 225.5,461.167 225.5,478.833 225.5,496.5C 224.167,496.5 222.833,496.5 221.5,496.5C 219.833,496.5 218.167,496.5 216.5,496.5C 216.831,487.808 216.498,479.141 215.5,470.5C 214.893,470.624 214.56,470.957 214.5,471.5C 209.352,474.575 204.019,477.409 198.5,480C 196.5,480.667 194.5,480.667 192.5,480C 185.04,474.874 178.54,468.707 173,461.5C 170.224,473.311 168.724,485.311 168.5,497.5C 164.833,497.5 161.167,497.5 157.5,497.5C 158.513,481.547 160.513,465.713 163.5,450C 163.083,447.502 162.749,445.002 162.5,442.5 Z"/></g>
<g><path style="opacity:1" fill="#643a54" d="M 283.5,421.5 C 283.56,420.957 283.893,420.624 284.5,420.5C 285.498,428.472 285.831,436.472 285.5,444.5C 285.5,461.833 285.5,479.167 285.5,496.5C 287.415,496.216 289.081,496.549 290.5,497.5C 288.5,497.5 286.5,497.5 284.5,497.5C 284.5,492.167 284.5,486.833 284.5,481.5C 284.83,461.326 284.497,441.326 283.5,421.5 Z"/></g>
<g><path style="opacity:1" fill="#333345" d="M 285.5,444.5 C 288.5,444.5 291.5,444.5 294.5,444.5C 294.194,447.385 294.527,450.052 295.5,452.5C 302.901,459.38 311.234,465.047 320.5,469.5C 327.957,464.713 333.624,458.38 337.5,450.5C 337.989,449.005 338.655,447.671 339.5,446.5C 343.064,445.577 346.731,445.244 350.5,445.5C 352.883,453.421 354.883,461.421 356.5,469.5C 357.183,478.818 357.517,488.151 357.5,497.5C 353.833,497.5 350.167,497.5 346.5,497.5C 346.666,489.826 346.5,482.159 346,474.5C 345.889,469.897 344.889,465.564 343,461.5C 338.505,466.994 333.672,472.161 328.5,477C 326.319,478.84 323.819,480.007 321,480.5C 311.938,477.098 303.605,472.431 296,466.5C 295.5,476.828 295.334,487.161 295.5,497.5C 293.833,497.5 292.167,497.5 290.5,497.5C 289.081,496.549 287.415,496.216 285.5,496.5C 285.5,479.167 285.5,461.833 285.5,444.5 Z"/></g>
<g><path style="opacity:1" fill="#323243" d="M 391.5,447.5 C 394.821,454.151 400.154,458.151 407.5,459.5C 411.326,461 415.326,461.666 419.5,461.5C 420.329,456.547 420.663,451.547 420.5,446.5C 424.119,447.244 427.785,447.577 431.5,447.5C 431.696,455.972 430.362,464.138 427.5,472C 416.174,473.135 405.341,471.302 395,466.5C 388.304,469.01 381.471,471.01 374.5,472.5C 371.196,472.322 369.529,470.656 369.5,467.5C 369.178,465.278 369.845,463.444 371.5,462C 376.364,461.062 381.031,459.562 385.5,457.5C 383.187,454.563 381.854,451.23 381.5,447.5C 384.731,446.218 388.064,446.218 391.5,447.5 Z"/></g>
<g><path style="opacity:1" fill="#d34d7f" d="M 226.5,437.5 C 245.568,452.575 264.901,467.241 284.5,481.5C 284.5,486.833 284.5,492.167 284.5,497.5C 265.167,497.5 245.833,497.5 226.5,497.5C 226.5,477.5 226.5,457.5 226.5,437.5 Z"/></g>
<g><path style="opacity:1" fill="#5c3a53" d="M 226.5,422.5 C 226.5,427.5 226.5,432.5 226.5,437.5C 226.5,457.5 226.5,477.5 226.5,497.5C 224.833,497.5 223.167,497.5 221.5,497.5C 221.5,497.167 221.5,496.833 221.5,496.5C 222.833,496.5 224.167,496.5 225.5,496.5C 225.5,478.833 225.5,461.167 225.5,443.5C 225.175,436.313 225.509,429.313 226.5,422.5 Z"/></g>
<g><path style="opacity:1" fill="#4c536e" d="M 214.5,471.5 C 214.56,470.957 214.893,470.624 215.5,470.5C 216.498,479.141 216.831,487.808 216.5,496.5C 218.167,496.5 219.833,496.5 221.5,496.5C 221.5,496.833 221.5,497.167 221.5,497.5C 219.5,497.5 217.5,497.5 215.5,497.5C 215.826,488.651 215.493,479.984 214.5,471.5 Z"/></g>
<g><path style="opacity:1" fill="#7083b0" d="M 214.5,471.5 C 215.493,479.984 215.826,488.651 215.5,497.5C 199.833,497.5 184.167,497.5 168.5,497.5C 168.724,485.311 170.224,473.311 173,461.5C 178.54,468.707 185.04,474.874 192.5,480C 194.5,480.667 196.5,480.667 198.5,480C 204.019,477.409 209.352,474.575 214.5,471.5 Z"/></g>
<g><path style="opacity:1" fill="#7184b0" d="M 346.5,497.5 C 329.5,497.5 312.5,497.5 295.5,497.5C 295.334,487.161 295.5,476.828 296,466.5C 303.605,472.431 311.938,477.098 321,480.5C 323.819,480.007 326.319,478.84 328.5,477C 333.672,472.161 338.505,466.994 343,461.5C 344.889,465.564 345.889,469.897 346,474.5C 346.5,482.159 346.666,489.826 346.5,497.5 Z"/></g>
</svg>
