<?xml version="1.0" encoding="UTF-8"?>
<svg version="1.1" xmlns="http://www.w3.org/2000/svg" width="512" height="512">
<path d="M0 0 C5.96823317 5.96823317 3.3125 23.4094811 3.3125 31.48144531 C3.11781424 48.27309173 -1.11758003 64.83831969 -12.27734375 77.83984375 C-15.27812639 81.76285049 -15.54744506 84.51118676 -15.07202148 89.35424805 C-14.94512939 90.24797119 -14.8182373 91.14169434 -14.6875 92.0625 C-14.572854 93.02003174 -14.45820801 93.97756348 -14.34008789 94.96411133 C-11.82541572 114.43893842 -6.46729852 132.71274526 0.02612305 151.20532227 C1.04466436 154.1281707 2.02707236 157.06168801 3 160 C28.55428887 160.58224962 52.71630131 157.16187782 75.5625 145.125 C79.19046099 143.25678088 81.84937572 142.19012209 86 143 C87.66015625 144.1796875 87.66015625 144.1796875 89 146 C90.69278524 162.76915374 85.23288151 188.45282724 74.5 201.625 C71.93824223 204.48885185 69.62754272 205.74526776 66 207 C66.58265625 208.00933594 67.1653125 209.01867187 67.765625 210.05859375 C72.98262721 219.2115319 77.81495966 228.50180067 82.375 238 C82.87418945 239.03697021 83.37337891 240.07394043 83.88769531 241.14233398 C86.83588081 247.34137608 89.54159144 253.59076759 92 260 C92.70125 259.34 93.4025 258.68 94.125 258 C97.47798748 255.66748697 99.00199836 255.39160845 103 256 C106.00318226 258.28020249 106.64483639 260.53794465 107.46484375 264.14453125 C107.70565674 265.19954834 107.94646973 266.25456543 108.19458008 267.34155273 C108.43974365 268.48696533 108.68490723 269.63237793 108.9375 270.8125 C109.19619873 271.99851807 109.45489746 273.18453613 109.72143555 274.40649414 C113.43239387 292.06494129 115.65413888 310.01327718 117 328 C132.28878262 298.96849143 133.3212699 269.85448112 123.84375 238.625 C121.62016055 231.62954824 118.9207431 224.82071805 116.26538086 217.98071289 C106.20997369 191.54745672 101.36506126 159.54182944 112.73046875 132.80078125 C119.05723003 118.86572545 129.25185191 105.29950534 143 98 C146.21802062 97.61383753 148.11447494 97.48582416 150.9375 99.125 C152.6175096 102.08972282 151.89263255 103.72701399 151 107 C150.38442576 108.46233699 149.75825235 109.92023109 149.125 111.375 C138.29149876 137.90521655 144.46378863 167.96854956 155.02441406 193.47412109 C159.34306676 203.43605526 164.53379538 212.81108587 170.04272461 222.15454102 C191.0588802 257.97289622 197.57467294 300.41696737 187.1875 340.74609375 C183.60911285 353.89606207 178.45757907 366.02039219 172 378 C171.45730469 379.02480469 170.91460937 380.04960937 170.35546875 381.10546875 C161.96964562 396.22443454 146.87781718 420.06109141 131 428 C130.58110447 429.91821435 130.58110447 429.91821435 130.47265625 432.2265625 C130.36727539 433.52787109 130.36727539 433.52787109 130.25976562 434.85546875 C130.12993579 436.67822825 130.00227305 438.50114362 129.87695312 440.32421875 C129.43201151 445.76773866 128.98856172 450.34558029 126 455 C120.93495383 456.60795117 116.2907459 455.81695813 111.1875 454.75 C110.48101318 454.6159375 109.77452637 454.481875 109.04663086 454.34375 C105.16464598 453.57579695 101.72101322 452.53380967 98.0625 451 C92.471979 449.11747762 87.48137866 451.22983775 82.15063477 453.15625 C77.400053 454.83533017 74.04098885 455.30716271 69 454 C67.56939872 451.13879744 67.61307419 449.15989415 68 446 C72.00290382 442.39738656 77.89593376 441.39742396 83 440 C82.360625 438.88625 81.72125 437.7725 81.0625 436.625 C77.77269648 429.98726923 77.96094811 423.33730791 78.0625 416.0625 C78.13936978 403.01001144 76.52820861 390.40858366 72.8046875 377.90625 C72 375 72 375 72 372 C71.15743652 372.16298584 70.31487305 372.32597168 69.44677734 372.49389648 C65.85795654 373.02085678 62.47758654 373.11315208 58.8515625 373.09765625 C57.86547501 373.09553383 57.86547501 373.09553383 56.85946655 373.09336853 C54.78126269 373.08781762 52.70317073 373.07527465 50.625 373.0625 C49.20703282 373.05747864 47.78906393 373.05291685 46.37109375 373.04882812 C42.91402678 373.03786437 39.45702433 373.02063421 36 373 C36.31227539 373.74459473 36.62455078 374.48918945 36.94628906 375.25634766 C38.1304523 378.09053851 39.30741273 380.92759582 40.47998047 383.76660156 C41.22744527 385.57056543 41.98274403 387.37127711 42.73828125 389.171875 C51.37203926 410.12312778 51.37203926 410.12312778 51 420.5625 C50.71381676 428.70487474 52.38055246 436.28704076 54.02734375 444.21484375 C55.7896704 452.81389739 56.21294362 461.04403467 56.25 469.8125 C56.2809375 471.67165039 56.2809375 471.67165039 56.3125 473.56835938 C56.31765625 474.74849609 56.3228125 475.92863281 56.328125 477.14453125 C56.3374707 478.22065674 56.34681641 479.29678223 56.35644531 480.40551758 C56.23881836 481.26169678 56.12119141 482.11787598 56 483 C52.76746204 485.15502531 51.74849077 485.46856135 48 485 C45.95481053 483.43187815 45.10625642 482.51795335 44.58349609 479.96972656 C44.56367676 479.20112305 44.54385742 478.43251953 44.5234375 477.640625 C44.49306396 476.77848389 44.46269043 475.91634277 44.43139648 475.02807617 C44.41278564 474.11131104 44.3941748 473.1945459 44.375 472.25 C44.31241948 470.35542801 44.24860791 468.46089629 44.18359375 466.56640625 C44.15507324 465.62812988 44.12655273 464.68985352 44.09716797 463.72314453 C43.95973567 459.87158722 43.71179238 456.03138971 43.4375 452.1875 C43.31181641 450.38345703 43.31181641 450.38345703 43.18359375 448.54296875 C43.12300781 447.70378906 43.06242187 446.86460937 43 446 C40.48322976 448.50778177 37.97723658 451.02340364 35.5 453.5703125 C34.675 454.41335938 33.85 455.25640625 33 456.125 C32.175 456.97320312 31.35 457.82140625 30.5 458.6953125 C24.70467083 464.03788157 24.70467083 464.03788157 19.66015625 463.92578125 C15.4877829 462.87044242 12.164144 461.28922041 8.4375 459.1875 C7.80392578 458.84396484 7.17035156 458.50042969 6.51757812 458.14648438 C2.53380115 455.95971493 -1.22857512 453.54050828 -5 451 C-4.98428955 451.92337158 -4.9685791 452.84674316 -4.95239258 453.7980957 C-4.90125168 457.22539889 -4.86364465 460.65229642 -4.83520508 464.07983398 C-4.82012232 465.56297199 -4.79965311 467.04606544 -4.77368164 468.52905273 C-4.73727384 470.66140745 -4.72026927 472.79317235 -4.70703125 474.92578125 C-4.6913208 476.20880127 -4.67561035 477.49182129 -4.65942383 478.8137207 C-5 482 -5 482 -6.29174805 483.95385742 C-8 485 -8 485 -11.625 484.8125 C-12.73875 484.544375 -13.8525 484.27625 -15 484 C-16.47687035 481.0462593 -16.17880959 478.03691741 -16.20532227 474.79638672 C-16.21522186 474.0548233 -16.22512146 473.31325989 -16.23532104 472.54922485 C-16.26696363 470.09274512 -16.29170431 467.63624603 -16.31640625 465.1796875 C-16.3369734 463.478602 -16.35796981 461.77752164 -16.37937927 460.07644653 C-16.43462464 455.59499264 -16.48402303 451.11349244 -16.53222656 446.63195801 C-16.5824236 442.06058623 -16.63811904 437.48928187 -16.69335938 432.91796875 C-16.80097109 423.94537006 -16.90240936 414.97271289 -17 406 C-17.60328125 406.60835693 -18.2065625 407.21671387 -18.828125 407.84350586 C-19.62734375 408.64667236 -20.4265625 409.44983887 -21.25 410.27734375 C-22.03890625 411.07132568 -22.8278125 411.86530762 -23.640625 412.68334961 C-26.32215798 415.3163242 -29.09656509 417.79584009 -31.9609375 420.2265625 C-33.44055885 421.51343624 -34.87860135 422.84861496 -36.2890625 424.2109375 C-37.05992187 424.94570313 -37.83078125 425.68046875 -38.625 426.4375 C-39.31851563 427.11683594 -40.01203125 427.79617188 -40.7265625 428.49609375 C-43.70903228 430.46903338 -45.48740511 430.46524436 -49 430 C-50.87890625 428.92578125 -50.87890625 428.92578125 -52.5625 427.3125 C-53.22765625 426.68601562 -53.8928125 426.05953125 -54.578125 425.4140625 C-62.9007856 417.11824919 -62.9007856 417.11824919 -65.51977539 414.44458008 C-67.91726934 412.00745813 -70.14528972 409.90314019 -73 408 C-73.00586624 408.93516449 -73.01173248 409.87032898 -73.01777649 410.83383179 C-73.07491302 419.63363314 -73.14762647 428.4331852 -73.23571491 437.23273277 C-73.28050161 441.7570252 -73.31973909 446.28122585 -73.34643555 450.80566406 C-73.37238619 455.16949723 -73.41272915 459.53297876 -73.46318626 463.896595 C-73.47991101 465.5639675 -73.49139025 467.23140091 -73.49761391 468.89884567 C-73.50719457 471.22900276 -73.5351788 473.55824877 -73.56762695 475.88818359 C-73.56619186 476.58229843 -73.56475677 477.27641327 -73.5632782 477.99156189 C-73.60127258 479.91220093 -73.60127258 479.91220093 -74 483 C-77.23253796 485.15502531 -78.25150923 485.46856135 -82 485 C-83.63793945 483.86791992 -83.63793945 483.86791992 -85 482 C-85.34057617 479.1809082 -85.34057617 479.1809082 -85.29296875 475.80078125 C-85.28330078 474.59228516 -85.27363281 473.38378906 -85.26367188 472.13867188 C-85.23853516 470.87603516 -85.21339844 469.61339844 -85.1875 468.3125 C-85.17396484 467.03826172 -85.16042969 465.76402344 -85.14648438 464.45117188 C-85.11108199 461.30035943 -85.0616979 458.15038955 -85 455 C-85.47832275 455.27787354 -85.95664551 455.55574707 -86.44946289 455.84204102 C-88.64318059 457.10183377 -90.85217182 458.33210226 -93.0625 459.5625 C-93.81466797 460.00013672 -94.56683594 460.43777344 -95.34179688 460.88867188 C-99.06282925 462.93443426 -101.40068606 463.99369807 -105.71484375 464.0390625 C-109.44728626 462.85852777 -111.5657599 461.38859021 -114.5 458.8125 C-115.3765625 458.05582031 -116.253125 457.29914063 -117.15625 456.51953125 C-118.0946875 455.68808594 -119.033125 454.85664063 -120 454 C-122.32815408 451.99393911 -124.6636745 449.9965351 -127 448 C-127.4798376 451.97908605 -127.95874701 455.95828331 -128.4375 459.9375 C-128.57220703 461.05447266 -128.70691406 462.17144531 -128.84570312 463.32226562 C-128.97783203 464.42119141 -129.10996094 465.52011719 -129.24609375 466.65234375 C-129.37870605 467.73241699 -129.51131836 468.81249023 -129.64794922 469.92529297 C-129.86869827 471.85324969 -130.06214235 473.78474088 -130.21533203 475.71923828 C-130.68954448 481.58449748 -130.68954448 481.58449748 -132.31030273 483.75366211 C-134 485 -134 485 -137.625 484.8125 C-138.73875 484.544375 -139.8525 484.27625 -141 484 C-145.12865792 475.74268416 -141.38831715 461.87814577 -140.0625 453.125 C-139.69894458 450.62764406 -139.33565578 448.1302493 -138.97265625 445.6328125 C-138.0629549 439.39399109 -138.0629549 439.39399109 -137.6105957 436.56298828 C-136.80822646 431.19294159 -137.59925306 426.79047387 -138.72265625 421.5390625 C-139.36865293 413.29578089 -136.35217464 405.34129437 -133.5625 397.6875 C-133.2226709 396.7505127 -132.8828418 395.81352539 -132.53271484 394.84814453 C-128.88336075 385.14517508 -124.1385163 376.08185608 -119.10986328 367.03271484 C-118.56048096 366.026521 -118.56048096 366.026521 -118 365 C-117.59507324 364.32791504 -117.19014648 363.65583008 -116.77294922 362.96337891 C-115.64489818 360.73278285 -115.64489818 360.73278285 -117.3125 357.375 C-117.76882812 356.33472656 -117.76882812 356.33472656 -118.234375 355.2734375 C-119.09539022 352.71674944 -119.07903595 350.68709124 -119.0625 348 C-119.31676224 344.72450413 -119.62715125 343.3989866 -121.89453125 340.97265625 C-123.60235845 339.65749483 -125.33903558 338.37923805 -127.09765625 337.1328125 C-130.26686035 334.80389535 -133.04699527 332.21868004 -135.8125 329.4375 C-136.68519531 328.56996094 -137.55789062 327.70242188 -138.45703125 326.80859375 C-141 324 -141 324 -141.98901367 322.10205078 C-143.15243821 319.93435839 -144.07176744 318.54308053 -146 317 C-150.26937166 316.21335734 -154.38266708 316.63025796 -158.6875 317 C-161.22002816 317.1553385 -163.75258086 317.3102772 -166.28515625 317.46484375 C-168.21319092 317.60188721 -168.21319092 317.60188721 -170.18017578 317.74169922 C-175.99095 318.13463026 -181.80525681 318.35125941 -187.625 318.5625 C-188.68984619 318.6049585 -189.75469238 318.64741699 -190.85180664 318.69116211 C-199.90930735 319.04025694 -208.93638469 319.0768103 -218 319 C-218 329.23 -218 339.46 -218 350 C-215.03 350.33 -212.06 350.66 -209 351 C-206.43903408 351.46259139 -203.88393465 351.95889691 -201.3359375 352.48828125 C-199.88432353 352.78423643 -198.43257621 353.07953806 -196.98071289 353.37426758 C-195.85416794 353.60431992 -195.85416794 353.60431992 -194.7048645 353.83901978 C-179.45185307 356.93877054 -164.24059647 359.35505862 -148.78515625 361.17578125 C-146.52315185 361.44815899 -144.26143046 361.72289743 -142 362 C-140.7816748 362.14614746 -139.56334961 362.29229492 -138.30810547 362.44287109 C-137.1326416 362.59965332 -135.95717773 362.75643555 -134.74609375 362.91796875 C-133.68962646 363.05356201 -132.63315918 363.18915527 -131.54467773 363.32885742 C-129 364 -129 364 -127 367 C-127.1875 370.0625 -127.1875 370.0625 -128 373 C-131.2360276 375.15735173 -131.73292504 375.22587137 -135.3828125 374.93359375 C-136.73608643 374.82785034 -136.73608643 374.82785034 -138.11669922 374.7199707 C-139.60580811 374.58014771 -139.60580811 374.58014771 -141.125 374.4375 C-142.1783252 374.34235107 -143.23165039 374.24720215 -144.31689453 374.14916992 C-166.8421385 371.96160658 -189.07147784 368.06687492 -211.14794922 363.14770508 C-211.83865509 362.99738327 -212.52936096 362.84706146 -213.24099731 362.69218445 C-215.10729716 362.28550371 -216.97122889 361.86799786 -218.83496094 361.44970703 C-223.08542426 360.84577665 -225.98303589 361.66101196 -230 363 C-229.99723462 363.61052876 -229.99446924 364.22105753 -229.99162006 364.85008717 C-229.92540228 379.69722029 -229.87573994 394.54433919 -229.84456348 409.39158344 C-229.8290865 416.57157503 -229.80798125 423.75146811 -229.77368164 430.93139648 C-229.74380455 437.18853593 -229.72443104 443.44560406 -229.71773452 449.70281285 C-229.71381932 453.01680872 -229.70303512 456.33055263 -229.68280983 459.64449501 C-229.6611365 463.34165335 -229.6580289 467.0383844 -229.65942383 470.7355957 C-229.648638 471.83754776 -229.63785217 472.93949982 -229.6267395 474.07484436 C-229.63086349 475.08025269 -229.63498749 476.08566101 -229.63923645 477.12153625 C-229.63647107 477.9963178 -229.63370569 478.87109934 -229.63085651 479.77238941 C-230 482 -230 482 -231.29598522 483.81662273 C-233 485 -233 485 -236.625 484.8125 C-237.73875 484.544375 -238.8525 484.27625 -240 484 C-241.21501158 481.56997683 -241.12316211 480.03340975 -241.12025452 477.31771851 C-241.12162918 476.33051315 -241.12300385 475.3433078 -241.12442017 474.32618713 C-241.11902725 472.69591835 -241.11902725 472.69591835 -241.11352539 471.03271484 C-241.11367142 469.89125504 -241.11381744 468.74979523 -241.1139679 467.57374573 C-241.11326906 463.78612391 -241.10547798 459.99855077 -241.09765625 456.2109375 C-241.09579197 453.59062731 -241.09436811 450.97031677 -241.09336853 448.3500061 C-241.09025752 442.14872839 -241.08204722 435.94746826 -241.07201904 429.7461983 C-241.06085078 422.68703837 -241.05534565 415.62787761 -241.05032361 408.56871104 C-241.03986443 394.04579806 -241.02206854 379.52289986 -241 365 C-245.62 365 -250.24 365 -255 365 C-254.99333817 366.47387177 -254.98667633 367.94774353 -254.97981262 369.46627808 C-254.91910609 383.32823709 -254.87389773 397.19018582 -254.84456348 411.05224419 C-254.82908075 418.1795777 -254.80796457 425.30681212 -254.77368164 432.43408203 C-254.74063794 439.30698719 -254.72316717 446.17978914 -254.71536827 453.05276871 C-254.70980753 455.680336 -254.69894947 458.30789738 -254.68280983 460.93542099 C-254.66116309 464.60404595 -254.65802776 468.27223986 -254.65942383 471.94091797 C-254.648638 473.03711456 -254.63785217 474.13331116 -254.6267395 475.26272583 C-254.63292549 476.75615509 -254.63292549 476.75615509 -254.63923645 478.27975464 C-254.63647107 479.14808363 -254.63370569 480.01641262 -254.63085651 480.91105461 C-254.81358254 481.94508258 -254.81358254 481.94508258 -255 483 C-258.23253796 485.15502531 -259.25150923 485.46856135 -263 485 C-265.19257141 483.37186741 -265.92026943 482.48455663 -266.36800098 479.76350117 C-266.36481704 478.88436149 -266.36163309 478.00522181 -266.35835266 477.09944153 C-266.36221985 476.08876617 -266.36608704 475.07809082 -266.37007141 474.03678894 C-266.35377937 472.37466118 -266.35377937 472.37466118 -266.3371582 470.67895508 C-266.3377121 469.5111853 -266.33826599 468.34341553 -266.33883667 467.14025879 C-266.33857638 464.59970568 -266.33167697 462.05914672 -266.31899452 459.51862526 C-266.30067417 455.49601926 -266.30262418 451.47394697 -266.3120575 447.45133972 C-266.3349263 436.01265316 -266.32308794 424.57413828 -266.28491211 413.13549805 C-266.26405751 406.8181048 -266.26483004 400.50107139 -266.28844708 394.18368453 C-266.29985465 390.84289019 -266.29616821 387.50368958 -266.27211952 384.16285133 C-266.24578397 380.43066576 -266.25622501 376.70021279 -266.2746582 372.96801758 C-266.24925713 371.32107155 -266.24925713 371.32107155 -266.2233429 369.64085388 C-266.30110507 363.17611057 -267.24881544 359.48295869 -271.61534405 354.62221813 C-273.96557613 351.86876223 -274.13152008 349.21642951 -274.17700195 345.74731445 C-274.19625481 344.46501701 -274.19625481 344.46501701 -274.21589661 343.15681458 C-274.22328354 342.23494858 -274.23067047 341.31308258 -274.23828125 340.36328125 C-274.246353 339.4098735 -274.25442474 338.45646576 -274.26274109 337.47416687 C-274.27657449 335.45423191 -274.28729998 333.43427365 -274.29516602 331.41430664 C-274.31233793 328.34150166 -274.3562261 325.26978424 -274.40039062 322.19726562 C-274.41052164 320.23177872 -274.41903646 318.26628269 -274.42578125 316.30078125 C-274.45204338 314.93316399 -274.45204338 314.93316399 -274.47883606 313.53791809 C-274.45931979 307.73003227 -273.69530614 302.6777996 -270 298 C-268.68219729 297.30313686 -267.34972671 296.63281912 -266 296 C-266.06075884 275.20587987 -266.13841508 254.41188239 -266.23571491 233.61789989 C-266.28051566 223.96101669 -266.31996575 214.30416908 -266.34643555 204.6472168 C-266.36954383 196.22174962 -266.40308263 187.79639656 -266.44870156 179.37102014 C-266.47246236 174.9175336 -266.49130257 170.46415887 -266.49761391 166.01061058 C-266.54133083 138.80174252 -266.71884453 112.45538097 -280.7421875 88.28125 C-283.48114689 81.13613855 -280.14138729 73.23563431 -278.0625 66.1875 C-277.75820068 65.15359131 -277.45390137 64.11968262 -277.14038086 63.05444336 C-272.34105012 47.13009489 -266.70757148 31.33966661 -259.6875 16.25 C-259.38658447 15.60168213 -259.08566895 14.95336426 -258.77563477 14.28540039 C-256.59998305 9.800845 -254.0943735 5.89006954 -251 2 C-247.9375 1.25 -247.9375 1.25 -245 2 C-229.59005057 18.07718435 -222.82086279 47.97678152 -216.8125 68.75 C-216.35677612 70.29349121 -216.35677612 70.29349121 -215.8918457 71.86816406 C-213.51496549 80.46420116 -214.115578 85.80430434 -218.25 93.8125 C-224.90355595 107.4006274 -228.12732911 121.93344105 -229 137 C-229.0825 138.20156738 -229.165 139.40313477 -229.25 140.64111328 C-231.27928855 159.97870389 -231.27928855 159.97870389 -224.375 177.0625 C-222.87372587 178.61279634 -221.33296962 180.05623083 -219.703125 181.47070312 C-217.1666805 183.7482674 -214.95186426 186.29098082 -212.67431641 188.82324219 C-208.29064366 193.66966899 -203.72253822 198.2966722 -199 202.8125 C-186.52667159 215.28582841 -183.69690679 232.19750966 -181.60693359 249.04321289 C-180.25604118 258.94372885 -177.4707349 266.49075133 -169.4609375 272.69921875 C-168 274 -168 274 -166.875 276.625 C-167 279 -167 279 -167.9375 281.3125 C-170.47327136 283.38722202 -172.33398137 283.56074414 -175.56640625 283.3828125 C-189.32091474 281.21918195 -202.4699836 273.52712404 -210.94140625 262.46484375 C-217.21726004 253.04428568 -220.87144408 243.04164534 -223.8125 232.1875 C-224.03180176 231.38699219 -224.25110352 230.58648437 -224.47705078 229.76171875 C-225.68176309 225.09455243 -226.41694794 220.86024393 -226 216 C-224 214 -224 214 -220.5625 213.5625 C-217 214 -217 214 -215.44921875 215.875 C-213.41830899 220.25432024 -212.40001512 224.76187952 -211.25 229.4375 C-207.62733088 243.28139306 -203.15282039 254.44043966 -192 264 C-192 245.51682053 -196.52583099 223.43606804 -209.72265625 210.01953125 C-211.4950222 208.27611263 -213.27515933 206.54056333 -215.0625 204.8125 C-216.84727565 203.07128671 -218.6299043 201.3278694 -220.41015625 199.58203125 C-221.19527588 198.82124268 -221.98039551 198.0604541 -222.78930664 197.27661133 C-225.03501368 194.96394229 -227.003505 192.52824135 -229 190 C-229.13890528 203.36031505 -229.24557346 216.72045886 -229.31087303 230.08134842 C-229.34221077 236.28512288 -229.3847298 242.48840403 -229.45263672 248.69189453 C-229.51773968 254.67656056 -229.55368762 260.66075157 -229.56926346 266.64574432 C-229.58036592 268.93120556 -229.6020463 271.21664025 -229.63438034 273.50189972 C-229.67782158 276.69878191 -229.68393904 279.89369136 -229.68115234 283.09082031 C-229.702724 284.03956528 -229.72429565 284.98831024 -229.746521 285.96580505 C-229.72298814 288.45421028 -229.65277172 290.59831785 -229 293 C-226.22208011 295.52417021 -226.22208011 295.52417021 -223 297 C-220.17721022 300.58570594 -218.53544228 303.44874062 -218 308 C-217.34 307.67 -216.68 307.34 -216 307 C-213.60972236 306.85497612 -211.24414208 306.76557694 -208.8515625 306.71875 C-208.13121826 306.70065781 -207.41087402 306.68256561 -206.66870117 306.66392517 C-205.12319611 306.62538496 -203.57763948 306.58886999 -202.03204346 306.5541687 C-198.02110923 306.46390565 -194.01056126 306.3592992 -190 306.25390625 C-188.81937485 306.223218 -188.81937485 306.223218 -187.61489868 306.19190979 C-181.61277301 306.03030955 -175.61991008 305.77552247 -169.625 305.4375 C-162.40544852 305.03288445 -155.23318149 304.88120687 -148 305 C-148.06380859 303.39318359 -148.06380859 303.39318359 -148.12890625 301.75390625 C-148.08860717 275.50769359 -136.81074744 248.39766306 -126 225 C-126.66749268 224.8146167 -127.33498535 224.6292334 -128.02270508 224.43823242 C-138.08010236 221.55227622 -146.12416046 216.91553482 -152 208 C-156.27602698 199.96323893 -159.34448759 191.71676284 -161.5 182.875 C-161.67233154 182.17705322 -161.84466309 181.47910645 -162.0222168 180.76000977 C-162.95345885 176.55185471 -163.13841949 173.17008008 -162 169 C-160 167 -160 167 -157.77734375 166.953125 C-156.37162109 167.10007813 -156.37162109 167.10007813 -154.9375 167.25 C-153.84566406 167.35699219 -152.75382813 167.46398437 -151.62890625 167.57421875 C-149.19556313 167.85972402 -146.76556444 168.17521871 -144.33984375 168.51953125 C-123.92272591 171.37967676 -103.4206344 170.29169444 -83 168 C-83 165.03 -83 162.06 -83 159 C-83.71285156 159.20496094 -84.42570313 159.40992188 -85.16015625 159.62109375 C-86.59681641 160.02521484 -86.59681641 160.02521484 -88.0625 160.4375 C-89.00222656 160.70433594 -89.94195312 160.97117188 -90.91015625 161.24609375 C-105.0812865 164.70377787 -124.5298935 165.07983604 -137.8984375 158.59375 C-140 157 -140 157 -140.8125 153.8125 C-139.88994234 149.48357558 -139.36433544 149.28001731 -136.08984375 146.68359375 C-130.37592294 141.18325369 -130.36742353 134.83226217 -129.75 127.25 C-129.51011848 124.64958223 -129.25554068 122.05046689 -128.984375 119.453125 C-128.88866211 118.31004883 -128.79294922 117.16697266 -128.69433594 115.98925781 C-127.87686789 112.46989116 -126.77766104 111.2428982 -124 109 C-122.23831178 107.92826088 -120.44275544 106.91111969 -118.625 105.9375 C-111.15169105 101.67481164 -104.61467855 96.47775257 -98 91 C-97.40364746 90.50806152 -96.80729492 90.01612305 -96.19287109 89.50927734 C-88.02231806 82.73472039 -80.39517866 75.61162292 -73 68 C-71.33607681 66.33059436 -69.66914498 64.66418467 -68 63 C-67.47817139 62.45730469 -66.95634277 61.91460937 -66.41870117 61.35546875 C-62.16003089 56.97255948 -57.63987893 53.21921137 -52.75 49.5625 C-52.00564697 48.99756836 -51.26129395 48.43263672 -50.49438477 47.85058594 C-46.36636031 44.72899359 -42.18186417 41.71215066 -37.9375 38.75 C-25.49072073 29.71483794 -16.69772902 15.55572325 -9.375 2.23046875 C-6.81452795 -1.92302426 -4.39196791 -1.00649265 0 0 Z M-249 21 C-255.83332324 36.74195206 -261.99163849 52.57804533 -267 69 C-267.30437988 69.9904834 -267.60875977 70.9809668 -267.92236328 72.00146484 C-268.20708496 72.97422363 -268.49180664 73.94698242 -268.78515625 74.94921875 C-269.04304932 75.82280029 -269.30094238 76.69638184 -269.56665039 77.59643555 C-270.37940902 82.10438413 -268.40457891 85.51649229 -266.62597656 89.63110352 C-259.52052828 106.14701934 -256.94087399 122.22335871 -255 140 C-250.38 140 -245.76 140 -241 140 C-240.74476563 137.78796875 -240.74476563 137.78796875 -240.484375 135.53125 C-238.58563782 119.66877174 -236.2878154 104.94585734 -229.37402344 90.40063477 C-226.53636474 84.38664421 -225.35806119 79.89164489 -227.37109375 73.46484375 C-227.69424561 72.41820557 -228.01739746 71.37156738 -228.3503418 70.29321289 C-228.709104 69.18582764 -229.06786621 68.07844238 -229.4375 66.9375 C-229.80077393 65.78950928 -230.16404785 64.64151855 -230.53833008 63.45874023 C-235.17930465 49.01004596 -240.34668544 34.65848711 -247 21 C-247.66 21 -248.32 21 -249 21 Z M-9 24 C-10.87512506 26.24599632 -12.69803017 28.50897434 -14.5 30.8125 C-15.01175781 31.45509766 -15.52351563 32.09769531 -16.05078125 32.75976562 C-16.53933594 33.38173828 -17.02789062 34.00371094 -17.53125 34.64453125 C-17.98048828 35.21534424 -18.42972656 35.78615723 -18.89257812 36.37426758 C-20.19304176 38.12456664 -20.19304176 38.12456664 -21 41 C-19.56260487 41.02712066 -18.12506137 41.04645067 -16.6875 41.0625 C-15.88699219 41.07410156 -15.08648437 41.08570312 -14.26171875 41.09765625 C-11.83138666 41.09657855 -11.83138666 41.09657855 -9 40 C-7.85922343 36.57767028 -7.90184883 33.91326783 -7.9375 30.3125 C-7.94652344 29.13300781 -7.95554687 27.95351563 -7.96484375 26.73828125 C-7.97644531 25.83464844 -7.98804688 24.93101563 -8 24 C-8.33 24 -8.66 24 -9 24 Z M-38.6875 53.5 C-39.29400391 53.92925781 -39.90050781 54.35851562 -40.52539062 54.80078125 C-42.02138026 55.86093138 -43.511287 56.92965571 -45 58 C-38.40834856 63.69546985 -31.26498206 65.3125 -22.625 65.3125 C-18.93863678 64.91035129 -17.53423405 64.63929263 -15.1328125 61.765625 C-13.50506926 58.58370883 -12 55.62218304 -12 52 C-13.134375 52.061875 -14.26875 52.12375 -15.4375 52.1875 C-19.6779371 52.21013579 -23.08429168 51.16069557 -27.01953125 49.65625 C-32.05388358 47.98806225 -34.77645388 50.67794505 -38.6875 53.5 Z M-54 66 C-55.63171123 67.40893147 -57.25513945 68.82745958 -58.875 70.25 C-60.23238281 71.43335937 -60.23238281 71.43335937 -61.6171875 72.640625 C-63.74439993 74.74691403 -64.90512306 76.25651526 -66 79 C-64.9275 79.639375 -63.855 80.27875 -62.75 80.9375 C-62.14671875 81.29714844 -61.5434375 81.65679687 -60.921875 82.02734375 C-54.21395127 85.42220759 -45.11092804 85.03308478 -38 83.24609375 C-33.37481884 81.49100269 -30.39272976 79.65370897 -27 76 C-27.9178125 75.82984375 -28.835625 75.6596875 -29.78125 75.484375 C-39.14544029 73.63514415 -45.86255177 70.89637911 -54 66 Z M-77.453125 88.36328125 C-78.04609375 89.00652344 -78.6390625 89.64976563 -79.25 90.3125 C-89.09683795 100.39081877 -101.73655142 110.22422687 -114.265625 116.68359375 C-118.20917872 120.02434712 -118.24323292 123.15541316 -118.75 128.125 C-118.97004567 129.83610628 -119.19138823 131.54704631 -119.4140625 133.2578125 C-119.56149902 134.48612793 -119.56149902 134.48612793 -119.71191406 135.73925781 C-120.06618637 138.51939475 -120.56292488 141.25479253 -121.125 144 C-121.27195313 144.721875 -121.41890625 145.44375 -121.5703125 146.1875 C-122 148 -122 148 -123 151 C-97.94189309 153.66422401 -78.64808638 147.07562054 -59.0625 131.375 C-53.12376383 126.3492467 -47.98782777 121.42687522 -43.5 115.0625 C-41.77734375 112.7578125 -41.77734375 112.7578125 -40 111 C-36.0625 110.4375 -36.0625 110.4375 -33 111 C-31.75 117.625 -31.75 117.625 -34 121 C-34.27844477 124.34871893 -34.27844477 124.34871893 -34.1796875 128.1875 C-34.17210419 128.89729004 -34.16452087 129.60708008 -34.15670776 130.33837891 C-34.04493746 137.90411194 -33.61087216 145.45075307 -33.125 153 C-33.03489072 154.45684206 -32.94521873 155.91371123 -32.85595703 157.37060547 C-32.62354478 161.14525835 -32.38532644 164.91952143 -32.14575195 168.69372559 C-31.90084043 172.56903 -31.66162193 176.44468576 -31.421875 180.3203125 C-30.95337959 187.88055643 -30.47872871 195.44039641 -30 203 C-28.87713441 202.04023536 -27.7546488 201.08002615 -26.63232422 200.11962891 C-26.0071994 199.58496002 -25.38207458 199.05029114 -24.73800659 198.49942017 C-19.3180807 193.8235195 -14.53117412 188.66467996 -10 183.125 C-9.236875 182.19945312 -8.47375 181.27390625 -7.6875 180.3203125 C-4.91255792 174.86035701 -5.093324 170.02506308 -6.84033203 164.19628906 C-8.00559727 161.11544146 -9.2683754 158.09140593 -10.5625 155.0625 C-18.95470057 134.29280923 -23.82546543 113.27201606 -26 91 C-30.04924279 91.6188012 -33.92675756 92.47856607 -37.875 93.5625 C-49.02277241 96.33918442 -60.07199111 95.0554986 -70.1875 89.3125 C-70.88230469 88.87550781 -71.57710937 88.43851562 -72.29296875 87.98828125 C-74.6248413 86.63824977 -75.45192462 86.485811 -77.453125 88.36328125 Z M132 123 C118.47137533 141.45961871 115.77345548 163.16459997 119.1875 185.4375 C121.41782022 198.77256587 125.54072983 211.0371937 130.5625 223.5625 C141.52284009 250.90844767 146.35119947 283.47346735 137 312 C136.79101074 312.64533691 136.58202148 313.29067383 136.36669922 313.95556641 C132.66696516 324.96054314 127.14144325 336.39893017 119.2734375 345.05078125 C115.48909826 349.96001858 116.13020982 355.00349527 116 361 C115.90332031 361.97324219 115.80664062 362.94648438 115.70703125 363.94921875 C115.19995399 370.96219291 117.05628958 375.95040154 120.07250977 382.12817383 C124.77291794 392.15925874 126.67886198 403.2255892 129 414 C158.03290106 390.16884923 176.68382235 351.98992251 180.375 314.9375 C183.29169523 279.81136198 172.67127132 248.33652784 154.93359375 218.49609375 C146.51549803 204.2792315 140.18702306 188.98939717 136 173 C135.6803125 171.80761719 135.360625 170.61523438 135.03125 169.38671875 C131.69190441 154.25144405 132.73410573 138.41232272 133 123 C132.67 123 132.34 123 132 123 Z M-50.1875 137.9375 C-54.87872523 142.27518362 -59.78764903 145.57224897 -65.44018555 148.55249023 C-67.97161192 150.01812717 -69.75600198 151.19083269 -70.62060547 154.05810547 C-70.97073296 156.52034448 -70.97073296 156.52034448 -71 160 C-66.04904291 162.47547855 -59.37928168 161.35389704 -54.25 159.8125 C-49.89472477 158.12608792 -47.01607943 156.63476238 -44 153 C-43.39247919 149.59907466 -43.64171669 146.42135328 -44 143 C-44.12181641 141.68902344 -44.12181641 141.68902344 -44.24609375 140.3515625 C-44.46353947 138.23063039 -44.72715876 136.11451964 -45 134 C-47.01067103 134 -48.85165072 136.6626683 -50.1875 137.9375 Z M-255 151 C-255 155.29 -255 159.58 -255 164 C-250.38 164 -245.76 164 -241 164 C-241 159.71 -241 155.42 -241 151 C-245.62 151 -250.24 151 -255 151 Z M68.94897461 160.93066406 C48.10648916 169.16461123 27.25135988 171.24985137 5 172 C4.70904978 183.63800872 5.21016843 195.20001618 5.9375 206.8125 C5.98106628 207.52462646 6.02463257 208.23675293 6.06951904 208.97045898 C6.19678854 211.02880176 6.32962569 213.08669671 6.46484375 215.14453125 C6.543396 216.34440674 6.62194824 217.54428223 6.70288086 218.78051758 C6.96222246 221.59065539 7.38065087 224.25003799 8 227 C9.0828125 225.9171875 9.0828125 225.9171875 10.1875 224.8125 C11.115625 223.884375 12.04375 222.95625 13 222 C13.75224854 221.18136475 14.50449707 220.36272949 15.27954102 219.51928711 C18.19435481 216.8200173 20.71086707 215.46380844 24.33984375 213.87890625 C24.94325089 213.61166245 25.54665802 213.34441864 26.16835022 213.06907654 C28.08679546 212.22256333 30.01180581 211.39236922 31.9375 210.5625 C33.19382326 210.0108208 34.44968668 209.45809321 35.70507812 208.90429688 C40.75830687 206.68266396 45.82001157 204.4849392 50.91796875 202.36767578 C51.55037979 202.10292953 52.18279083 201.83818329 52.83436584 201.56541443 C54.57548201 200.83812838 56.31974805 200.11839629 58.06420898 199.39916992 C64.94086012 196.12182376 68.56558951 191.23025361 71.08984375 184.16015625 C74.71183272 171.76057672 74.71183272 171.76057672 76 159 C73.38617245 159 71.35109508 159.98045528 68.94897461 160.93066406 Z M-49.0625 168.9375 C-56.40000804 171.99569554 -64.16379918 171.8181856 -72 172 C-72.33 175.3 -72.66 178.6 -73 182 C-66.62720967 186.07150493 -59.22711234 186.7752325 -51.84765625 185.421875 C-48.4378501 184.50781396 -45.16244774 183.58122387 -42 182 C-42.33 177.05 -42.66 172.1 -43 167 C-45.5001774 167 -46.80703007 167.85038671 -49.0625 168.9375 Z M-255 175 C-255 178.96 -255 182.92 -255 187 C-250.38 187 -245.76 187 -241 187 C-241 183.04 -241 179.08 -241 175 C-245.62 175 -250.24 175 -255 175 Z M-150 180 C-145.68578478 197.18184162 -145.68578478 197.18184162 -133.9296875 209.87890625 C-129.99851966 212.16280336 -126.78444717 213.3560185 -122.24609375 214.03515625 C-120.59383789 214.28942383 -120.59383789 214.28942383 -118.90820312 214.54882812 C-117.19020508 214.8030957 -117.19020508 214.8030957 -115.4375 215.0625 C-113.16503064 215.40534591 -110.89287818 215.75030081 -108.62109375 216.09765625 C-107.6148999 216.24726807 -106.60870605 216.39687988 -105.57202148 216.55102539 C-103 217 -103 217 -100 218 C-98.3125 221.5625 -98.3125 221.5625 -97 225 C-94.80384185 224.17995611 -94.80384185 224.17995611 -94.17797852 221.92138672 C-93.91428467 221.01662598 -93.65059082 220.11186523 -93.37890625 219.1796875 C-93.08443604 218.17591064 -92.78996582 217.17213379 -92.48657227 216.13793945 C-92.18162842 215.06116943 -91.87668457 213.98439941 -91.5625 212.875 C-91.25046631 211.78727295 -90.93843262 210.6995459 -90.61694336 209.57885742 C-86.39324398 195.0129296 -86.39324398 195.0129296 -85 180 C-86.43557251 180.10610596 -86.43557251 180.10610596 -87.90014648 180.21435547 C-97.2457655 180.87143624 -106.54165082 181.15803289 -115.90942383 181.13037109 C-118.06533808 181.12499292 -120.22104493 181.13037138 -122.37695312 181.13671875 C-131.62559583 181.14065619 -140.77956077 180.7358918 -150 180 Z M-76 194 C-76.29256654 197.0197047 -76.3643308 198.50582791 -74.53125 200.9921875 C-73.8609375 201.61351562 -73.190625 202.23484375 -72.5 202.875 C-71.76910156 203.56078125 -71.03820312 204.2465625 -70.28515625 204.953125 C-69.15400391 205.96632812 -69.15400391 205.96632812 -68 207 C-67.31808594 207.61359375 -66.63617188 208.2271875 -65.93359375 208.859375 C-64.61590338 210.024925 -63.28787528 211.17890398 -61.94921875 212.3203125 C-60.63479129 213.45298546 -59.34570222 214.6156529 -58.08203125 215.8046875 C-57.47746094 216.36414063 -56.87289062 216.92359375 -56.25 217.5 C-55.71890625 218.0053125 -55.1878125 218.510625 -54.640625 219.03125 C-53.04155969 220.19381261 -53.04155969 220.19381261 -51.09765625 219.80859375 C-46.41064651 218.00186932 -42.83696769 216.29245547 -40 212 C-39.11539063 206.03584126 -40.14211286 199.91754267 -41 194 C-41.65484375 194.144375 -42.3096875 194.28875 -42.984375 194.4375 C-54.36512259 196.75222832 -64.64343593 196.25520421 -76 194 Z M-7 196 C-7.7734375 196.85722656 -8.546875 197.71445313 -9.34375 198.59765625 C-18.84505637 209.06026766 -29.44994088 220.47192474 -42.1171875 227.109375 C-46.21496134 229.23527618 -46.21496134 229.23527618 -48.91601562 232.83056641 C-49.49393364 235.14819081 -49.78280618 237.37102373 -50 239.75 C-50.10481689 240.62873779 -50.20963379 241.50747559 -50.31762695 242.4128418 C-51.75711142 256.51170658 -51.2498615 270.85015127 -51 285 C-53.97 285 -56.94 285 -60 285 C-61.08720437 278.21486867 -61.18714892 271.5572947 -61.18695068 264.70806885 C-61.1873194 263.2679177 -61.19164454 261.82776256 -61.19976807 260.38763428 C-61.24298987 252.30108409 -61.01658741 244.57363283 -59.375 236.625 C-58.69923796 232.3592521 -58.51619309 230.77888742 -60.8125 227.08203125 C-63.38848182 224.4235866 -66.04557446 222.22503893 -69 220 C-70.48744179 218.67590456 -71.96758696 217.34352799 -73.4375 216 C-75.58016699 214.13914516 -77.62549915 212.58300057 -80 211 C-83.70061232 223.31996893 -87.28171035 235.66934924 -90.5 248.125 C-90.76699707 249.12466797 -91.03399414 250.12433594 -91.30908203 251.15429688 C-93.07939851 258.05018083 -93.07939851 258.05018083 -92 265 C-90.09544237 268.04250086 -87.53263572 270.46736428 -85 273 C-83.8553125 274.1446875 -83.8553125 274.1446875 -82.6875 275.3125 C-77.19132521 280.5405687 -71.36962276 285.05688749 -65.1875 289.4375 C-64.11169678 290.19981934 -64.11169678 290.19981934 -63.01416016 290.97753906 C-61.03115079 292.35497534 -59.02396836 293.68376428 -57 295 C-55.49373047 296.01513672 -55.49373047 296.01513672 -53.95703125 297.05078125 C-50.41342079 298.18829425 -48.7541921 297.55202682 -45.49487305 295.87719727 C-44.50741089 295.31923462 -44.50741089 295.31923462 -43.5 294.75 C-42.45549683 294.19107056 -42.45549683 294.19107056 -41.38989258 293.62084961 C-30.06842903 287.4558997 -19.82537157 280.36794146 -10 272 C-8.83366327 271.10373714 -7.66706133 270.20781911 -6.5 269.3125 C-2.92314484 266.00390898 -1.19747555 262.77784135 -0.65649414 257.9074707 C-0.83641737 248.949153 -1.51225038 240.09736034 -2.4375 231.1875 C-2.7205457 228.37672886 -2.99825505 225.56545745 -3.2734375 222.75390625 C-3.34001053 222.07684631 -3.40658356 221.39978638 -3.47517395 220.70220947 C-4.11413639 214.07074407 -4.46770823 207.44577333 -4.69140625 200.7890625 C-4.72114183 197.86215477 -4.72114183 197.86215477 -7 196 Z M-255 198 C-255 228.69 -255 259.38 -255 291 C-250.38 291 -245.76 291 -241 291 C-241 260.31 -241 229.62 -241 198 C-245.62 198 -250.24 198 -255 198 Z M48.3671875 214.93359375 C47.47902344 215.33513672 46.59085937 215.73667969 45.67578125 216.15039062 C44.75152344 216.57513672 43.82726562 216.99988281 42.875 217.4375 C41.94300781 217.85837891 41.01101563 218.27925781 40.05078125 218.71289062 C35.73722852 220.41028429 35.73722852 220.41028429 32 223 C31.89852113 224.40435901 31.8643282 225.81367256 31.8581543 227.22167969 C31.85111984 228.12061951 31.84408539 229.01955933 31.83683777 229.94573975 C31.83267349 230.92786438 31.82850922 231.90998901 31.82421875 232.921875 C31.80098754 235.00131184 31.77686895 237.08073891 31.75195312 239.16015625 C31.7170819 242.43805141 31.68764242 245.71559579 31.67407227 248.99365234 C31.57913041 268.17190682 28.97318739 281.56488361 18.49609375 297.92578125 C10.58805432 308.75152685 10.58805432 308.75152685 8.44921875 321.234375 C8.63097656 321.81703125 8.81273437 322.3996875 9 323 C9.66386719 322.41089844 10.32773437 321.82179688 11.01171875 321.21484375 C12.33623047 320.08755859 12.33623047 320.08755859 13.6875 318.9375 C14.99267578 317.80634766 14.99267578 317.80634766 16.32421875 316.65234375 C19 315 19 315 21.76953125 315.19140625 C24 316 24 316 25 317 C25.0391163 319.66887654 25.01717505 322.31332988 24.95703125 324.98046875 C24.93462755 326.63605552 24.91317385 328.29165537 24.89257812 329.94726562 C24.85558123 332.5632648 24.81270256 335.17859998 24.75317383 337.79418945 C24.6984474 340.31471188 24.66951555 342.83449841 24.64453125 345.35546875 C24.62074905 346.13069382 24.59696686 346.90591888 24.57246399 347.70463562 C24.54751316 352.91480265 25.50024006 355.89550504 29 360 C39.31665891 363.79097424 56.32494318 363.68487345 67 361 C66.40350887 356.02272157 64.17153819 352.14426472 61.8125 347.8125 C61.40902344 347.060896 61.00554687 346.30929199 60.58984375 345.53491211 C57.88875694 340.53757892 55.07881915 335.6193099 52.09375 330.78515625 C49.9214362 327.2396298 49.8361545 324.86488489 49.8125 320.6875 C49.79832031 319.55699219 49.78414063 318.42648437 49.76953125 317.26171875 C49.99519863 314.06795157 50.63657346 311.8723571 52 309 C51.19175781 308.05898438 50.38351562 307.11796875 49.55078125 306.1484375 C48.47133178 304.89064421 47.39190596 303.63283063 46.3125 302.375 C45.78205078 301.75753906 45.25160156 301.14007813 44.70507812 300.50390625 C43.64649902 299.26997968 42.59089523 298.03349417 41.53833008 296.79443359 C40.53439159 295.62335791 39.51646599 294.46408898 38.4831543 293.31884766 C34.97982976 289.36306424 34.97982976 289.36306424 35.1875 285.625 C35.455625 284.75875 35.72375 283.8925 36 283 C38.6875 282.1875 38.6875 282.1875 42 282 C44.4375 284 44.4375 284 47 287 C48.15727475 288.17598358 49.32448096 289.34225339 50.5 290.5 C53.33333333 293.33333333 56.16666667 296.16666667 59 299 C59.34667725 298.56768066 59.69335449 298.13536133 60.05053711 297.68994141 C66.27333985 289.94358588 72.47509908 282.25091527 79.29296875 275.015625 C81.01941907 272.97707039 82.09874401 271.51154106 83 269 C82.48736799 266.50258462 82.48736799 266.50258462 81.2890625 263.921875 C80.87237305 262.93340576 80.45568359 261.94493652 80.02636719 260.92651367 C79.56391602 259.87826416 79.10146484 258.83001465 78.625 257.75 C78.16254883 256.67403564 77.70009766 255.59807129 77.22363281 254.48950195 C71.79588204 241.9931611 65.72869133 229.84964225 59 218 C58.26716797 216.61361328 58.26716797 216.61361328 57.51953125 215.19921875 C57.01808594 214.47347656 56.51664062 213.74773437 56 213 C52.77225748 213 51.27192618 213.61375347 48.3671875 214.93359375 Z M-113 226 C-124.1808351 247.31618952 -131.78325735 269.09237728 -135.875 292.875 C-135.99520508 293.56916016 -136.11541016 294.26332031 -136.23925781 294.97851562 C-137.8315999 304.29275826 -137.8315999 304.29275826 -135.27734375 313.0390625 C-134.50519531 313.89242187 -133.73304688 314.74578125 -132.9375 315.625 C-131.70773438 317.00365234 -131.70773438 317.00365234 -130.453125 318.41015625 C-129.23882812 319.69212891 -129.23882812 319.69212891 -128 321 C-127.33484375 321.72058594 -126.6696875 322.44117188 -125.984375 323.18359375 C-123.14712581 326.15036954 -120.76923695 328.29117023 -117 330 C-116.89042969 329.16855469 -116.78085938 328.33710938 -116.66796875 327.48046875 C-116.50941406 326.39378906 -116.35085937 325.30710937 -116.1875 324.1875 C-116.03667969 323.10855469 -115.88585937 322.02960938 -115.73046875 320.91796875 C-114.9795048 317.91812882 -114.56372128 316.69302348 -112 315 C-108.3125 315.3125 -108.3125 315.3125 -105 316 C-104.67 316.99 -104.34 317.98 -104 319 C-103.67 319 -103.34 319 -103 319 C-102.98018066 318.38817871 -102.96036133 317.77635742 -102.93994141 317.14599609 C-102.84140643 314.22206582 -102.73450756 311.29854034 -102.625 308.375 C-102.58536133 307.29935791 -102.54572266 306.22371582 -102.50488281 305.11547852 C-102.27901739 299.63984388 -101.96148771 294.20440113 -101.3828125 288.75390625 C-101.27888184 287.77437988 -101.17495117 286.79485352 -101.06787109 285.78564453 C-100.86068484 283.92924297 -100.63779988 282.07450572 -100.39697266 280.22216797 C-99.74341539 274.38231754 -100.44001284 271.26042249 -103 266 C-103.66853439 260.83143844 -103.35902044 255.7642673 -101.9375 250.75 C-100.3168856 244.26754242 -102.07238024 239.10133688 -104.75 233.125 C-105.23984375 231.99320313 -105.7296875 230.86140625 -106.234375 229.6953125 C-107.74921579 226.77027042 -107.74921579 226.77027042 -110.703125 226.1171875 C-111.46109375 226.07851562 -112.2190625 226.03984375 -113 226 Z M20 230 C14.22947682 236.49060556 9.27283855 242.25567172 9.5 251.3125 C9.58636719 252.46621094 9.67273438 253.61992187 9.76171875 254.80859375 C10.33960119 262.54842901 7.87990347 269.05052864 3 275 C-9.72032121 288.43949132 -26.94008201 299.41378161 -43.9375 306.5 C-44.56470947 306.7678833 -45.19191895 307.0357666 -45.83813477 307.31176758 C-49.66166599 308.82811081 -52.10697155 309.39561397 -56 308 C-58.35551299 306.81793989 -60.56598951 305.6112431 -62.8125 304.25 C-63.45541992 303.86384521 -64.09833984 303.47769043 -64.76074219 303.07983398 C-72.17164682 298.48332138 -78.80518583 292.9266722 -85.42871094 287.27758789 C-87.1854175 285.80812136 -87.1854175 285.80812136 -90 284 C-92.82602242 293.760464 -92.11607139 304.90930364 -92.1875 315 C-92.20047119 315.97880127 -92.21344238 316.95760254 -92.22680664 317.96606445 C-92.22801514 318.90538818 -92.22922363 319.84471191 -92.23046875 320.8125 C-92.23663208 322.05966797 -92.23663208 322.05966797 -92.24291992 323.33203125 C-91.65233669 329.81835645 -89.9218113 333.70721275 -85.23828125 338.21484375 C-84.76939987 338.67427872 -84.30051849 339.13371368 -83.81742859 339.60707092 C-82.3272546 341.06294577 -80.82099615 342.50064108 -79.3125 343.9375 C-77.34555654 345.83762585 -75.38527073 347.74453552 -73.42578125 349.65234375 C-72.48629639 350.5654834 -71.54681152 351.47862305 -70.57885742 352.41943359 C-67.78341795 355.21672557 -65.19164259 358.12616531 -62.62915039 361.13500977 C-59.76602181 364.41261193 -56.65966229 367.44544417 -53.5625 370.5 C-52.92634766 371.13164062 -52.29019531 371.76328125 -51.63476562 372.4140625 C-50.09217194 373.94505774 -48.54642686 375.47287667 -47 377 C-40.27824246 371.43312161 -34.2329006 365.2914864 -28.11523438 359.07617188 C-22.47797559 353.38440293 -16.81159757 347.77257608 -10.3203125 343.05078125 C-6.07030755 339.68556381 -3.89714478 336.77502971 -3.12890625 331.3984375 C-2.78083491 327.89197822 -2.56780243 324.3800253 -2.3515625 320.86328125 C-1.47751291 306.82754628 6.68185322 294.22773592 15.09375 283.2734375 C21.68941293 271.94727862 21.50963525 260.34716762 21.25 247.6875 C21.22988445 245.9642137 21.2116427 244.24090446 21.1953125 242.51757812 C21.15176234 238.34447344 21.08302208 234.17249834 21 230 C20.67 230 20.34 230 20 230 Z M92.10351562 276.70605469 C85.98043024 282.84032719 80.30355237 289.12988678 75 296 C74.5040332 296.6408252 74.00806641 297.28165039 73.49707031 297.94189453 C71.8644302 300.05899318 70.24261627 302.18390386 68.625 304.3125 C68.11259766 304.98249023 67.60019531 305.65248047 67.07226562 306.34277344 C63.65750829 310.88898092 60.50792037 315.12965931 59.49609375 320.84765625 C60.23007161 325.43928518 62.52287671 328.60522451 65.0625 332.4375 C72.88813504 344.77199445 78.3287075 357.18808607 82.73828125 371.1015625 C83.69781002 374.12715587 84.76760036 377.07232762 86 380 C86.44988281 379.63648438 86.89976562 379.27296875 87.36328125 378.8984375 C90.48274592 376.46037894 93.25461424 374.30546976 96.9453125 372.79296875 C100.13940244 371.47947223 102.45551446 370.34875588 105 368 C106.26566792 363.62379229 106.25888344 359.47048785 106.0703125 354.96728516 C106.00684603 353.19154632 106.04423968 351.41290149 106.09375 349.63671875 C106.61204874 330.91317689 104.38893999 312.15278889 101.5 293.6875 C101.3924942 292.99423615 101.2849884 292.30097229 101.17422485 291.58670044 C100.17391579 285.20316539 99.17993989 279.10025992 97 273 C94.86452513 273 93.54116042 275.2900782 92.10351562 276.70605469 Z M-261.60302734 306.57763672 C-263.63280431 310.09728842 -263.46774352 313.53585602 -263.46875 317.4921875 C-263.47636353 318.31574738 -263.48397705 319.13930725 -263.49182129 319.98782349 C-263.50261117 321.72769139 -263.5054799 323.467624 -263.50097656 325.20751953 C-263.50000567 327.85950755 -263.54160511 330.50858694 -263.5859375 333.16015625 C-263.59114606 334.85416066 -263.59383267 336.54817508 -263.59375 338.2421875 C-263.61014526 339.02987518 -263.62654053 339.81756287 -263.64343262 340.62911987 C-263.59297459 344.68198083 -263.2089853 347.25615477 -260.65039062 350.48486328 C-256.18780824 354.71971256 -251.92948908 354.21308751 -246.125 354.25 C-245.32191406 354.270625 -244.51882812 354.29125 -243.69140625 354.3125 C-237.97021019 354.35020146 -234.59559387 353.55448181 -230.39697266 349.42236328 C-228.36719569 345.90271158 -228.53225648 342.46414398 -228.53125 338.5078125 C-228.51982971 337.27247269 -228.51982971 337.27247269 -228.50817871 336.01217651 C-228.49738883 334.27230861 -228.4945201 332.532376 -228.49902344 330.79248047 C-228.49999433 328.14049245 -228.45839489 325.49141306 -228.4140625 322.83984375 C-228.40885394 321.14583934 -228.40616733 319.45182492 -228.40625 317.7578125 C-228.38985474 316.97012482 -228.37345947 316.18243713 -228.35656738 315.37088013 C-228.40702541 311.31801917 -228.7910147 308.74384523 -231.34960938 305.51513672 C-235.81219176 301.28028744 -240.07051092 301.78691249 -245.875 301.75 C-247.07962891 301.7190625 -247.07962891 301.7190625 -248.30859375 301.6875 C-254.02978981 301.64979854 -257.40440613 302.44551819 -261.60302734 306.57763672 Z M-106 333 C-108.18480274 341.42709629 -109.52185292 348.09896541 -105 356 C-103.29481899 358.20113234 -101.5859938 360.29111085 -99.75 362.375 C-99.21826172 362.98456543 -98.68652344 363.59413086 -98.13867188 364.22216797 C-96.43726082 366.15868131 -94.72215641 368.08192136 -93 370 C-92.47986328 370.57943359 -91.95972656 371.15886719 -91.42382812 371.75585938 C-82.98657414 381.07791902 -74.13293073 390.01522325 -65.28491211 398.94525146 C-64.01672335 400.22661169 -62.75091177 401.51032924 -61.48754883 402.79644775 C-59.69456886 404.61937372 -57.89171259 406.4319462 -56.0859375 408.2421875 C-55.5468576 408.79356384 -55.00777771 409.34494019 -54.45236206 409.9130249 C-51.50335999 412.8450417 -49.00389403 414.7908074 -45 416 C-37.21238325 408.97388536 -29.62667672 401.78774405 -22.2253418 394.35571289 C-20.67415273 392.79910611 -19.11760608 391.24799829 -17.56054688 389.69726562 C-12.1624959 384.30323034 -6.94571436 378.81545937 -2 373 C-0.86138116 371.70266361 0.27925951 370.40709902 1.421875 369.11328125 C2.53143289 367.84651434 3.64080871 366.57958793 4.75 365.3125 C5.31332031 364.67505859 5.87664062 364.03761719 6.45703125 363.38085938 C12.87765723 356.02673812 15.18305164 351.06104908 15.0625 341.25 C15.05798828 340.55261719 15.05347656 339.85523438 15.04882812 339.13671875 C15.0371002 337.42444197 15.01916653 335.71220967 15 334 C3.37182504 343.77823803 -7.41842345 354.31225087 -18.08227539 365.11914062 C-23.9315466 371.02301959 -29.78778197 376.85755163 -36.4609375 381.8359375 C-41.10614321 385.57106209 -42.4649295 388.81837212 -43.21142578 394.57861328 C-43.43132996 396.87312099 -43.60209281 399.16441588 -43.74609375 401.46484375 C-44 405 -44 405 -45 406 C-47.33297433 406.04092937 -49.66705225 406.04241723 -52 406 C-53 404 -53 404 -52.78125 400.4375 C-52.73742187 399.72207031 -52.69359375 399.00664062 -52.6484375 398.26953125 C-52.55135702 396.78522185 -52.42236857 395.30256929 -52.2578125 393.82421875 C-52.02390585 388.75924012 -53.26958657 386.1429061 -56.6171875 382.3515625 C-57.89947468 381.04606194 -59.18387536 379.74223265 -60.49523926 378.46594238 C-62.13307231 376.87036056 -63.74071338 375.24775338 -65.34667969 373.62011719 C-69.08177143 369.84702546 -72.85099756 366.10911616 -76.625 362.375 C-91.52809404 347.62854509 -91.52809404 347.62854509 -96.70166016 341.52978516 C-98.34099921 339.59821342 -100.07989729 337.78683035 -101.875 336 C-102.44992188 335.4225 -103.02484375 334.845 -103.6171875 334.25 C-104.81296447 332.888236 -104.81296447 332.888236 -106 333 Z M18 366 C17.26136719 366.87140625 16.52273438 367.7428125 15.76171875 368.640625 C14.73709709 369.84385043 13.71235055 371.04696952 12.6875 372.25 C11.96723633 373.10078125 11.96723633 373.10078125 11.23242188 373.96875 C10.72646484 374.56171875 10.22050781 375.1546875 9.69921875 375.765625 C9.14766113 376.43110352 8.59610352 377.09658203 8.02783203 377.78222656 C6 380 6 380 3.17138672 382.39746094 C-2.62504874 387.48156846 -5.55326621 391.71191857 -6.27180481 399.5302124 C-6.43402025 403.30730956 -6.43154425 407.0586505 -6.32421875 410.83740234 C-6.24968638 413.76230767 -6.28302307 416.67240374 -6.328125 419.59765625 C-6.48333513 429.1949449 -6.48333513 429.1949449 -3.16308594 437.94702148 C-0.88252749 440.03607337 1.29357971 441.51655774 4 443 C4.65000977 443.44327637 5.30001953 443.88655273 5.96972656 444.34326172 C7.68945585 445.51452922 9.43535915 446.54638324 11.25 447.5625 C12.12785156 448.09327148 12.12785156 448.09327148 13.0234375 448.63476562 C15.71881971 450.17282565 17.5849791 451.01731742 20.71484375 450.88671875 C29.12570458 447.6230172 34.008055 437.49888733 38 430 C41.94637717 420.91706843 39.19957249 411.63711426 35.8125 402.83764648 C35.379375 401.75684814 34.94625 400.6760498 34.5 399.5625 C33.83484375 397.87072632 33.83484375 397.87072632 33.15625 396.14477539 C30.30172776 388.98363463 27.27519627 381.91630234 24 374.9375 C23.62681641 374.14093994 23.25363281 373.34437988 22.86914062 372.52368164 C21.19308083 368.58402508 21.19308083 368.58402508 18 366 Z M-108 371 C-113.9350395 381.6128223 -119.44333119 392.27588285 -123.6875 403.6875 C-124.02587891 404.57002441 -124.36425781 405.45254883 -124.71289062 406.36181641 C-127.1450105 413.17355172 -128.2025526 419.70344272 -126.22265625 426.77734375 C-121.55619108 435.46608193 -114.81063419 446.01447041 -106 451 C-100.11845539 451.52280397 -94.71363542 447.18973427 -90 444 C-88.71766479 443.26547607 -88.71766479 443.26547607 -87.40942383 442.51611328 C-83.78593029 438.7321712 -84.09936472 435.15281331 -83.984375 430.07421875 C-83.95587463 429.09443558 -83.92737427 428.1146524 -83.89801025 427.10517883 C-83.8507862 425.02669157 -83.81809982 422.94783083 -83.79882812 420.86889648 C-83.75065998 417.73050081 -83.59596979 414.60909228 -83.4375 411.47460938 C-83.18582678 401.81733542 -83.3700508 394.55133834 -90.24200439 387.25959778 C-92.81772154 384.84772581 -95.4809592 382.59966094 -98.25881958 380.42481995 C-100.57726142 378.527623 -102.47447294 376.37068754 -104.375 374.0625 C-105.23249053 373.02691529 -106.10003678 371.99889534 -107 371 C-107.33 371 -107.66 371 -108 371 Z M101.875 386.125 C100.94429688 386.89070313 100.01359375 387.65640625 99.0546875 388.4453125 C97.54261719 389.70988281 97.54261719 389.70988281 96 391 C95.36570068 391.35674805 94.73140137 391.71349609 94.07788086 392.08105469 C91.75228472 393.55294354 90.48066492 394.65913424 89 397 C88.27884251 401.63859758 88.39244557 406.13211936 88.67944336 410.79492188 C88.81212601 412.99380211 88.88599319 415.18881539 88.95117188 417.390625 C89.31340079 425.77345012 90.45071033 430.53169783 95.75 437.203125 C98.90028728 439.71897942 102.16240899 440.64460694 106 441.75 C107.06734375 442.08064453 107.06734375 442.08064453 108.15625 442.41796875 C111.60861901 443.45496765 114.36635748 444 118 444 C119.87966836 422.51081851 118.23175226 401.37502023 108 382 C105.81947211 382 103.41899605 384.85025667 101.875 386.125 Z " fill="#000000" transform="translate(301,14)"/>
<path d="M0 0 C1.875 1.0625 1.875 1.0625 3 3 C3 6.5 3 6.5 2 10 C-0.71818109 12.40753183 -2.54115659 12.93576192 -6.125 13.4375 C-9 13 -9 13 -10.9375 11.3125 C-12 9 -12 9 -12.0625 6.5 C-9.9627227 1.55934753 -5.27520281 -0.99801134 0 0 Z " fill="#000000" transform="translate(226,113)"/>
</svg>
