<?xml version="1.0" encoding="UTF-8"?>
<!DOCTYPE svg PUBLIC "-//W3C//DTD SVG 1.1//EN" "http://www.w3.org/Graphics/SVG/1.1/DTD/svg11.dtd">
<svg xmlns="http://www.w3.org/2000/svg" version="1.1" width="512px" height="512px" style="shape-rendering:geometricPrecision; text-rendering:geometricPrecision; image-rendering:optimizeQuality; fill-rule:evenodd; clip-rule:evenodd" xmlns:xlink="http://www.w3.org/1999/xlink">
<g><path style="opacity:1" fill="#3f3e50" d="M 262.5,99.5 C 261.581,96.9108 259.914,94.9108 257.5,93.5C 253.5,88.8333 249.167,84.5 244.5,80.5C 234.777,71.1106 224.444,62.4439 213.5,54.5C 210.709,52.2651 207.709,50.2651 204.5,48.5C 197.062,42.9385 189.062,38.1051 180.5,34C 178.975,31.0924 177.975,27.9257 177.5,24.5C 161.25,27.5273 145.916,33.0273 131.5,41C 128.957,42.3819 126.957,44.2152 125.5,46.5C 125.517,48.5648 125.85,50.5648 126.5,52.5C 126.5,55.8333 126.5,59.1667 126.5,62.5C 134.49,62.0859 136.49,65.2525 132.5,72C 127.713,72.8785 123.047,72.5452 118.5,71C 118,70.5 117.5,70 117,69.5C 116.706,61.798 116.04,54.1313 115,46.5C 111.292,32.2342 102.125,25.7342 87.5,27C 80.9452,30.5548 76.1119,35.7215 73,42.5C 68.0442,52.8749 64.2109,63.5415 61.5,74.5C 53.3241,75.5847 46.6575,79.2514 41.5,85.5C 38.4534,88.5448 35.7867,91.8781 33.5,95.5C 29.1667,95.5 24.8333,95.5 20.5,95.5C 23.0621,90.7643 26.2288,86.431 30,82.5C 28.1763,68.2658 30.1763,54.5992 36,41.5C 43.4274,31.0256 52.9274,28.6923 64.5,34.5C 76.2598,15.1145 91.9265,10.9478 111.5,22C 115.752,25.5813 119.252,29.748 122,34.5C 141.184,22.2151 162.184,14.8817 185,12.5C 187.151,12.6431 188.818,13.6431 190,15.5C 190.277,19.4728 190.444,23.3062 190.5,27C 221.309,44.1732 248.476,66.0065 272,92.5C 273.208,100.811 270.041,103.144 262.5,99.5 Z"/></g>
<g><path style="opacity:1" fill="#3e3e51" d="M 436.5,195.5 C 432.833,195.5 429.167,195.5 425.5,195.5C 422.831,193.001 419.998,190.668 417,188.5C 416.009,190.808 415.176,193.141 414.5,195.5C 410.5,194.167 406.5,194.167 402.5,195.5C 411.276,177.45 412.776,158.784 407,139.5C 403.999,137.022 400.499,136.022 396.5,136.5C 382.732,135.944 374.065,142.277 370.5,155.5C 369.562,156.553 368.395,157.22 367,157.5C 356.782,154.808 347.616,150.142 339.5,143.5C 336.625,151.339 337.125,159.006 341,166.5C 341.333,166.833 341.667,167.167 342,167.5C 344.301,164.066 347.134,163.233 350.5,165C 353.702,172.401 358.369,178.734 364.5,184C 370.927,187.542 377.261,191.042 383.5,194.5C 376.646,194.176 369.979,194.509 363.5,195.5C 363.167,195.5 362.833,195.5 362.5,195.5C 356.027,191.192 350.693,185.692 346.5,179C 343.974,179.904 341.308,180.238 338.5,180C 333.06,174.626 329.56,168.126 328,160.5C 327.287,153.797 327.454,147.13 328.5,140.5C 327.178,140.33 326.011,140.663 325,141.5C 321.667,147.5 318.333,153.5 315,159.5C 314.333,160.5 314.333,161.5 315,162.5C 323.471,174.64 334.138,184.307 347,191.5C 347.494,193.134 347.66,194.801 347.5,196.5C 346.608,198.714 344.942,199.714 342.5,199.5C 338.866,198.707 335.532,197.207 332.5,195C 321.259,186.514 311.592,176.514 303.5,165C 297.724,162.606 291.724,161.939 285.5,163C 282.274,164.106 279.607,165.939 277.5,168.5C 284.839,175.181 290.172,183.181 293.5,192.5C 289.958,192.187 286.625,192.521 283.5,193.5C 281.078,189.656 278.411,185.99 275.5,182.5C 271.041,173.896 264.041,171.062 254.5,174C 246.361,175.231 240.028,179.231 235.5,186C 243.733,185.47 251.066,187.636 257.5,192.5C 244.638,192.619 231.972,191.952 219.5,190.5C 223.496,182.701 228.83,175.868 235.5,170C 240.917,166.528 246.751,164.028 253,162.5C 254.457,139.253 264.123,120.253 282,105.5C 285.711,100.41 288.044,94.743 289,88.5C 288.842,74.9195 290.509,61.5861 294,48.5C 305.942,21.9525 325.942,12.9525 354,21.5C 363.526,18.5693 373.193,16.2359 383,14.5C 412.671,19.1466 426.004,36.48 423,66.5C 421.855,73.268 419.522,79.6013 416,85.5C 415.333,101.5 415.333,117.5 416,133.5C 418.591,139.19 420.257,145.19 421,151.5C 421.737,159.522 421.57,167.522 420.5,175.5C 420.833,176.5 421.167,177.5 421.5,178.5C 429.005,182.002 434.005,187.669 436.5,195.5 Z"/></g>
<g><path style="opacity:1" fill="#de8882" d="M 204.5,48.5 C 202.527,49.1627 200.361,49.4961 198,49.5C 173.833,48.4196 149.666,47.4196 125.5,46.5C 126.957,44.2152 128.957,42.3819 131.5,41C 145.916,33.0273 161.25,27.5273 177.5,24.5C 177.975,27.9257 178.975,31.0924 180.5,34C 189.062,38.1051 197.062,42.9385 204.5,48.5 Z"/></g>
<g><path style="opacity:1" fill="#69697c" d="M 371.5,57.5 C 357.174,56.901 342.674,56.901 328,57.5C 319.472,57.4979 311.305,56.8312 303.5,55.5C 306.882,44.2368 313.882,36.0701 324.5,31C 327.743,29.9817 331.076,29.4817 334.5,29.5C 348.955,33.1705 362.955,32.0038 376.5,26C 394.004,24.5044 405.838,32.0044 412,48.5C 412.667,53.8333 412.667,59.1667 412,64.5C 411.667,64.8333 411.333,65.1667 411,65.5C 399.961,52.758 386.795,50.0914 371.5,57.5 Z"/></g>
<g><path style="opacity:1" fill="#933e3e" d="M 49.5,42.5 C 53.7205,41.8076 57.3872,42.8076 60.5,45.5C 57.3781,51.8645 55.0448,58.5312 53.5,65.5C 48.8933,66.6433 44.7266,68.6433 41,71.5C 39.3718,60.4418 42.2051,50.7751 49.5,42.5 Z"/></g>
<g><path style="opacity:1" fill="#d9887c" d="M 125.5,46.5 C 149.666,47.4196 173.833,48.4196 198,49.5C 200.361,49.4961 202.527,49.1627 204.5,48.5C 207.709,50.2651 210.709,52.2651 213.5,54.5C 211.19,55.1638 208.69,55.4971 206,55.5C 179.506,54.3048 153.006,53.3048 126.5,52.5C 125.85,50.5648 125.517,48.5648 125.5,46.5 Z"/></g>
<g><path style="opacity:1" fill="#d9837d" d="M 126.5,52.5 C 153.006,53.3048 179.506,54.3048 206,55.5C 208.69,55.4971 211.19,55.1638 213.5,54.5C 224.444,62.4439 234.777,71.1106 244.5,80.5C 242.866,81.1611 241.033,81.4944 239,81.5C 179.671,79.2883 120.504,76.9549 61.5,74.5C 64.2109,63.5415 68.0442,52.8749 73,42.5C 76.1119,35.7215 80.9452,30.5548 87.5,27C 102.125,25.7342 111.292,32.2342 115,46.5C 116.04,54.1313 116.706,61.798 117,69.5C 117.5,70 118,70.5 118.5,71C 123.047,72.5452 127.713,72.8785 132.5,72C 136.49,65.2525 134.49,62.0859 126.5,62.5C 126.5,59.1667 126.5,55.8333 126.5,52.5 Z"/></g>
<g><path style="opacity:1" fill="#973f3f" d="M 89.5,39.5 C 93.8027,38.7962 97.3027,40.1295 100,43.5C 104.354,50.9168 106.187,58.9168 105.5,67.5C 96.5822,67.8172 87.7489,67.4839 79,66.5C 77.7172,55.4962 81.2172,46.4962 89.5,39.5 Z"/></g>
<g><path style="opacity:1" fill="#636375" d="M 303.5,55.5 C 311.305,56.8312 319.472,57.4979 328,57.5C 342.674,56.901 357.174,56.901 371.5,57.5C 362.154,64.5281 355.488,73.5281 351.5,84.5C 334.577,85.4851 317.577,85.8184 300.5,85.5C 300.334,78.825 300.5,72.1583 301,65.5C 301.149,61.8675 301.982,58.5341 303.5,55.5 Z"/></g>
<g><path style="opacity:1" fill="#f8dfd8" d="M 403.5,74.5 C 403.5,78.5 403.5,82.5 403.5,86.5C 394.161,86.6665 384.827,86.4998 375.5,86C 371.044,86.1018 367.044,85.2684 363.5,83.5C 366.865,74.6326 372.865,68.1326 381.5,64C 387.595,62.7337 393.262,63.7337 398.5,67C 400.808,69.1277 402.474,71.6277 403.5,74.5 Z"/></g>
<g><path style="opacity:1" fill="#d3827c" d="M 61.5,74.5 C 120.504,76.9549 179.671,79.2883 239,81.5C 241.033,81.4944 242.866,81.1611 244.5,80.5C 249.167,84.5 253.5,88.8333 257.5,93.5C 229.816,91.6368 202.149,90.9702 174.5,91.5C 174.047,90.5416 173.381,89.7083 172.5,89C 163.151,88.3897 153.817,88.5564 144.5,89.5C 110.187,87.9374 75.8541,86.6041 41.5,85.5C 46.6575,79.2514 53.3241,75.5847 61.5,74.5 Z"/></g>
<g><path style="opacity:1" fill="#f9d9d2" d="M 403.5,74.5 C 404.49,80.6446 404.823,86.9779 404.5,93.5C 403.778,93.9175 403.278,94.5842 403,95.5C 389.246,94.5101 375.412,94.1767 361.5,94.5C 361.5,92.5 361.5,90.5 361.5,88.5C 361.402,86.4471 362.069,84.7804 363.5,83.5C 367.044,85.2684 371.044,86.1018 375.5,86C 384.827,86.4998 394.161,86.6665 403.5,86.5C 403.5,82.5 403.5,78.5 403.5,74.5 Z"/></g>
<g><path style="opacity:1" fill="#5c5c6f" d="M 351.5,84.5 C 351.466,91.7665 349.799,98.5998 346.5,105C 343.538,105.09 341.204,103.757 339.5,101C 327.505,95.5148 318.172,98.3481 311.5,109.5C 304.858,109.571 298.525,109.571 292.5,109.5C 296.963,102.11 299.63,94.1096 300.5,85.5C 317.577,85.8184 334.577,85.4851 351.5,84.5 Z"/></g>
<g><path style="opacity:1" fill="#d37c76" d="M 41.5,85.5 C 75.8541,86.6041 110.187,87.9374 144.5,89.5C 144.33,90.8221 144.663,91.9887 145.5,93C 148.329,94.2467 150.995,95.7467 153.5,97.5C 150.877,102.447 147.544,106.78 143.5,110.5C 108.35,108.442 73.0169,106.942 37.5,106C 34.008,106.07 31.008,105.237 28.5,103.5C 30.1667,100.833 31.8333,98.1667 33.5,95.5C 35.7867,91.8781 38.4534,88.5448 41.5,85.5 Z"/></g>
<g><path style="opacity:1" fill="#973f3f" d="M 174.5,91.5 C 172.768,99.303 168.768,105.636 162.5,110.5C 160.862,111.657 159.196,112.824 157.5,114C 162.684,116.171 167.85,118.338 173,120.5C 173.271,124.301 172.104,127.634 169.5,130.5C 166.167,134.5 162.5,138.167 158.5,141.5C 147.434,148.694 135.434,153.86 122.5,157C 119.553,159.436 117.22,162.269 115.5,165.5C 113.947,167.385 111.947,168.385 109.5,168.5C 109.5,167.5 109.5,166.5 109.5,165.5C 110.694,159.952 113.361,155.119 117.5,151C 124.007,147.977 130.341,144.81 136.5,141.5C 140.812,139.188 144.145,135.855 146.5,131.5C 146.833,130.167 147.167,128.833 147.5,127.5C 143.179,124.94 138.512,122.94 133.5,121.5C 133.238,120.022 133.571,118.689 134.5,117.5C 137.829,115.494 140.829,113.161 143.5,110.5C 147.544,106.78 150.877,102.447 153.5,97.5C 150.995,95.7467 148.329,94.2467 145.5,93C 144.663,91.9887 144.33,90.8221 144.5,89.5C 153.817,88.5564 163.151,88.3897 172.5,89C 173.381,89.7083 174.047,90.5416 174.5,91.5 Z"/></g>
<g><path style="opacity:1" fill="#d37c76" d="M 257.5,93.5 C 259.914,94.9108 261.581,96.9108 262.5,99.5C 260.336,104.5 257.669,109.167 254.5,113.5C 223.837,112.408 193.17,111.408 162.5,110.5C 168.768,105.636 172.768,99.303 174.5,91.5C 202.149,90.9702 229.816,91.6368 257.5,93.5 Z"/></g>
<g><path style="opacity:1" fill="#3f3e4b" d="M 20.5,95.5 C 24.8333,95.5 29.1667,95.5 33.5,95.5C 31.8333,98.1667 30.1667,100.833 28.5,103.5C 24.4759,109.562 21.8092,116.229 20.5,123.5C 19.5139,127.97 19.1805,132.637 19.5,137.5C 21.1561,143.365 21.8227,149.365 21.5,155.5C 17.8333,155.5 14.1667,155.5 10.5,155.5C 5.21785,133.93 8.55119,113.93 20.5,95.5 Z"/></g>
<g><path style="opacity:1" fill="#e38782" d="M 404.5,99.5 C 404.5,102.5 404.5,105.5 404.5,108.5C 398.25,108.118 396.583,105.285 399.5,100C 401.134,99.5065 402.801,99.3398 404.5,99.5 Z"/></g>
<g><path style="opacity:1" fill="#f8cec6" d="M 361.5,88.5 C 361.5,90.5 361.5,92.5 361.5,94.5C 375.412,94.1767 389.246,94.5101 403,95.5C 403.278,94.5842 403.778,93.9175 404.5,93.5C 404.5,95.5 404.5,97.5 404.5,99.5C 402.801,99.3398 401.134,99.5065 399.5,100C 396.583,105.285 398.25,108.118 404.5,108.5C 404.5,109.167 404.5,109.833 404.5,110.5C 402.447,111.69 400.113,112.357 397.5,112.5C 383.337,111.943 369.337,111.276 355.5,110.5C 359.083,103.492 361.083,96.1587 361.5,88.5 Z"/></g>
<g><path style="opacity:1" fill="#e28580" d="M 374.5,98.5 C 378.741,98.1846 382.574,99.1846 386,101.5C 386.825,103.701 386.325,105.534 384.5,107C 381.5,107.667 378.5,107.667 375.5,107C 371.986,104.468 371.653,101.635 374.5,98.5 Z"/></g>
<g><path style="opacity:1" fill="#cd7c75" d="M 28.5,103.5 C 31.008,105.237 34.008,106.07 37.5,106C 73.0169,106.942 108.35,108.442 143.5,110.5C 140.829,113.161 137.829,115.494 134.5,117.5C 133.571,118.689 133.238,120.022 133.5,121.5C 138.512,122.94 143.179,124.94 147.5,127.5C 119.16,126.661 90.8262,125.661 62.5,124.5C 65.431,120.983 66.931,116.983 67,112.5C 64.3742,108.928 61.3742,108.595 58,111.5C 56.9196,113.996 55.5862,116.33 54,118.5C 53.2516,120.84 53.7516,122.84 55.5,124.5C 43.8463,123.806 32.1797,123.473 20.5,123.5C 21.8092,116.229 24.4759,109.562 28.5,103.5 Z"/></g>
<g><path style="opacity:1" fill="#565669" d="M 292.5,109.5 C 298.525,109.571 304.858,109.571 311.5,109.5C 309.529,117.614 310.529,125.281 314.5,132.5C 311.695,133.319 308.695,133.819 305.5,134C 294.505,134.5 283.505,134.667 272.5,134.5C 274.14,130.559 276.306,126.892 279,123.5C 283.731,118.938 288.231,114.271 292.5,109.5 Z"/></g>
<g><path style="opacity:1" fill="#f8f3f2" d="M 62.5,124.5 C 60.1667,125.833 57.8333,125.833 55.5,124.5C 53.7516,122.84 53.2516,120.84 54,118.5C 55.5862,116.33 56.9196,113.996 58,111.5C 61.3742,108.595 64.3742,108.928 67,112.5C 66.931,116.983 65.431,120.983 62.5,124.5 Z"/></g>
<g><path style="opacity:1" fill="#cd7c74" d="M 162.5,110.5 C 193.17,111.408 223.837,112.408 254.5,113.5C 251.223,121.055 248.223,128.722 245.5,136.5C 242.431,135.257 239.098,134.591 235.5,134.5C 218.339,133.703 201.172,133.036 184,132.5C 178.784,132.494 173.951,131.827 169.5,130.5C 172.104,127.634 173.271,124.301 173,120.5C 167.85,118.338 162.684,116.171 157.5,114C 159.196,112.824 160.862,111.657 162.5,110.5 Z"/></g>
<g><path style="opacity:1" fill="#f8c6bc" d="M 355.5,110.5 C 369.337,111.276 383.337,111.943 397.5,112.5C 400.113,112.357 402.447,111.69 404.5,110.5C 404.5,113.833 404.5,117.167 404.5,120.5C 402.277,121.702 399.777,122.369 397,122.5C 371.485,121.859 345.985,121.192 320.5,120.5C 320.101,112.065 324.101,108.232 332.5,109C 335.52,111.023 337.854,113.69 339.5,117C 345.835,117.334 351.168,115.167 355.5,110.5 Z"/></g>
<g><path style="opacity:1" fill="#cd7d70" d="M 20.5,123.5 C 32.1797,123.473 43.8463,123.806 55.5,124.5C 57.8333,125.833 60.1667,125.833 62.5,124.5C 90.8262,125.661 119.16,126.661 147.5,127.5C 147.167,128.833 146.833,130.167 146.5,131.5C 104.497,129.833 62.4975,128.167 20.5,126.5C 20.5,125.5 20.5,124.5 20.5,123.5 Z"/></g>
<g><path style="opacity:1" fill="#f7bdb3" d="M 320.5,120.5 C 345.985,121.192 371.485,121.859 397,122.5C 399.777,122.369 402.277,121.702 404.5,120.5C 404.5,122.5 404.5,124.5 404.5,126.5C 385.933,123.122 371.933,129.455 362.5,145.5C 354.31,141.909 346.976,137.076 340.5,131C 335.386,130.891 330.386,130.224 325.5,129C 322.926,126.682 321.259,123.849 320.5,120.5 Z"/></g>
<g><path style="opacity:1" fill="#cd756f" d="M 20.5,123.5 C 20.5,124.5 20.5,125.5 20.5,126.5C 62.4975,128.167 104.497,129.833 146.5,131.5C 144.145,135.855 140.812,139.188 136.5,141.5C 97.5177,139.799 58.5177,138.466 19.5,137.5C 19.1805,132.637 19.5139,127.97 20.5,123.5 Z"/></g>
<g><path style="opacity:1" fill="#cd756f" d="M 169.5,130.5 C 173.951,131.827 178.784,132.494 184,132.5C 201.172,133.036 218.339,133.703 235.5,134.5C 239.098,134.591 242.431,135.257 245.5,136.5C 244.674,139.485 243.341,142.151 241.5,144.5C 213.653,144.115 185.987,143.115 158.5,141.5C 162.5,138.167 166.167,134.5 169.5,130.5 Z"/></g>
<g><path style="opacity:1" fill="#505063" d="M 314.5,132.5 C 315.391,133.261 316.058,134.261 316.5,135.5C 313.086,141.997 309.419,148.33 305.5,154.5C 290.499,149.268 277.333,152.268 266,163.5C 264.512,153.111 266.678,143.444 272.5,134.5C 283.505,134.667 294.505,134.5 305.5,134C 308.695,133.819 311.695,133.319 314.5,132.5 Z"/></g>
<g><path style="opacity:1" fill="#c7756f" d="M 19.5,137.5 C 58.5177,138.466 97.5177,139.799 136.5,141.5C 130.341,144.81 124.007,147.977 117.5,151C 113.361,155.119 110.694,159.952 109.5,165.5C 80.1359,165.023 50.8025,164.023 21.5,162.5C 21.5,160.167 21.5,157.833 21.5,155.5C 21.8227,149.365 21.1561,143.365 19.5,137.5 Z"/></g>
<g><path style="opacity:1" fill="#505063" d="M 402.5,195.5 C 400.909,198.431 398.909,201.098 396.5,203.5C 392.424,200.085 388.091,197.085 383.5,194.5C 377.261,191.042 370.927,187.542 364.5,184C 358.369,178.734 353.702,172.401 350.5,165C 347.134,163.233 344.301,164.066 342,167.5C 341.667,167.167 341.333,166.833 341,166.5C 337.125,159.006 336.625,151.339 339.5,143.5C 347.616,150.142 356.782,154.808 367,157.5C 368.395,157.22 369.562,156.553 370.5,155.5C 374.065,142.277 382.732,135.944 396.5,136.5C 400.499,136.022 403.999,137.022 407,139.5C 412.776,158.784 411.276,177.45 402.5,195.5 Z"/></g>
<g><path style="opacity:1" fill="#da807b" d="M 362.5,195.5 C 357.518,196.053 352.518,196.387 347.5,196.5C 347.66,194.801 347.494,193.134 347,191.5C 334.138,184.307 323.471,174.64 315,162.5C 314.333,161.5 314.333,160.5 315,159.5C 318.333,153.5 321.667,147.5 325,141.5C 326.011,140.663 327.178,140.33 328.5,140.5C 327.454,147.13 327.287,153.797 328,160.5C 329.56,168.126 333.06,174.626 338.5,180C 341.308,180.238 343.974,179.904 346.5,179C 350.693,185.692 356.027,191.192 362.5,195.5 Z"/></g>
<g><path style="opacity:1" fill="#c7756f" d="M 158.5,141.5 C 185.987,143.115 213.653,144.115 241.5,144.5C 240.71,145.794 239.71,146.961 238.5,148C 226.431,154.027 215.431,161.527 205.5,170.5C 203.031,169.683 200.365,169.183 197.5,169C 169.989,168.257 142.656,167.09 115.5,165.5C 117.22,162.269 119.553,159.436 122.5,157C 135.434,153.86 147.434,148.694 158.5,141.5 Z"/></g>
<g><path style="opacity:1" fill="#39384b" d="M 10.5,155.5 C 14.1667,155.5 17.8333,155.5 21.5,155.5C 21.5,157.833 21.5,160.167 21.5,162.5C 20.1958,166.36 19.5291,170.36 19.5,174.5C 23.0608,177.532 27.0608,180.032 31.5,182C 40.5201,190.004 41.8534,199.17 35.5,209.5C 36.0253,210.192 36.6919,210.692 37.5,211C 47.0386,212.699 56.0386,211.366 64.5,207C 74.8333,200.667 83.1667,192.333 89.5,182C 92.9563,180.877 95.7897,181.71 98,184.5C 100.493,190.16 102.659,195.826 104.5,201.5C 105.778,207.115 106.778,212.782 107.5,218.5C 110.009,231.026 111.009,243.693 110.5,256.5C 107.098,256.342 103.764,256.676 100.5,257.5C 99.8126,245.481 98.646,233.481 97,221.5C 96.101,213.904 94.2677,206.571 91.5,199.5C 81.7449,210.04 70.0783,217.54 56.5,222C 48.778,222.812 41.1113,222.478 33.5,221C 4.79159,213.238 -3.37508,195.738 9,168.5C 10.0754,164.23 10.5754,159.897 10.5,155.5 Z"/></g>
<g><path style="opacity:1" fill="#c76f69" d="M 21.5,162.5 C 50.8025,164.023 80.1359,165.023 109.5,165.5C 109.5,166.5 109.5,167.5 109.5,168.5C 111.947,168.385 113.947,167.385 115.5,165.5C 142.656,167.09 169.989,168.257 197.5,169C 200.365,169.183 203.031,169.683 205.5,170.5C 202.49,173.874 199.49,177.208 196.5,180.5C 137.505,178.362 78.5053,176.362 19.5,174.5C 19.5291,170.36 20.1958,166.36 21.5,162.5 Z"/></g>
<g><path style="opacity:1" fill="#4a6370" d="M 275.5,182.5 C 273.32,184.031 272.32,186.198 272.5,189C 274.427,200.949 278.427,212.116 284.5,222.5C 308.726,257.416 341.726,270.249 383.5,261C 388.968,259.097 394.301,256.93 399.5,254.5C 398.833,255.5 398.167,256.5 397.5,257.5C 365.135,277.834 333.135,277.167 301.5,255.5C 294.492,249.657 288.326,242.99 283,235.5C 276.382,223.997 270.716,211.997 266,199.5C 263.584,196.577 260.75,194.243 257.5,192.5C 251.066,187.636 243.733,185.47 235.5,186C 240.028,179.231 246.361,175.231 254.5,174C 264.041,171.062 271.041,173.896 275.5,182.5 Z"/></g>
<g><path style="opacity:1" fill="#c06f69" d="M 19.5,174.5 C 78.5053,176.362 137.505,178.362 196.5,180.5C 190.709,187.968 185.709,195.968 181.5,204.5C 155.823,203.661 130.157,202.661 104.5,201.5C 102.659,195.826 100.493,190.16 98,184.5C 95.7897,181.71 92.9563,180.877 89.5,182C 83.1667,192.333 74.8333,200.667 64.5,207C 56.0386,211.366 47.0386,212.699 37.5,211C 36.6919,210.692 36.0253,210.192 35.5,209.5C 41.8534,199.17 40.5201,190.004 31.5,182C 27.0608,180.032 23.0608,177.532 19.5,174.5 Z"/></g>
<g><path style="opacity:1" fill="#8396af" d="M 347.5,196.5 C 352.518,196.387 357.518,196.053 362.5,195.5C 362.833,195.5 363.167,195.5 363.5,195.5C 368.473,197.987 373.473,200.487 378.5,203C 380.996,204.331 382.996,206.164 384.5,208.5C 359.171,207.167 333.838,205.834 308.5,204.5C 305.083,204.539 301.75,204.873 298.5,205.5C 297.401,200.856 295.734,196.522 293.5,192.5C 290.172,183.181 284.839,175.181 277.5,168.5C 279.607,165.939 282.274,164.106 285.5,163C 291.724,161.939 297.724,162.606 303.5,165C 311.592,176.514 321.259,186.514 332.5,195C 335.532,197.207 338.866,198.707 342.5,199.5C 344.942,199.714 346.608,198.714 347.5,196.5 Z"/></g>
<g><path style="opacity:1" fill="#3f3e4c" d="M 219.5,190.5 C 231.972,191.952 244.638,192.619 257.5,192.5C 260.75,194.243 263.584,196.577 266,199.5C 270.716,211.997 276.382,223.997 283,235.5C 288.326,242.99 294.492,249.657 301.5,255.5C 296.833,255.5 292.167,255.5 287.5,255.5C 282.125,251.292 277.625,246.292 274,240.5C 267.59,229.68 262.257,218.347 258,206.5C 255.095,202.418 251.262,199.751 246.5,198.5C 238.272,195.122 230.605,195.955 223.5,201C 209.026,215.782 199.693,233.282 195.5,253.5C 192.167,253.5 188.833,253.5 185.5,253.5C 188.753,227.984 200.087,206.984 219.5,190.5 Z"/></g>
<g><path style="opacity:1" fill="#3f3f4d" d="M 293.5,192.5 C 295.734,196.522 297.401,200.856 298.5,205.5C 302.419,213.081 307.752,219.414 314.5,224.5C 322.473,230.48 331.473,234.313 341.5,236C 343.735,238.585 344.069,241.418 342.5,244.5C 336.307,245.627 330.307,244.793 324.5,242C 313.63,237.617 304.296,231.117 296.5,222.5C 290.437,213.66 286.104,203.994 283.5,193.5C 286.625,192.521 289.958,192.187 293.5,192.5 Z"/></g>
<g><path style="opacity:1" fill="#3e3f4c" d="M 363.5,195.5 C 369.979,194.509 376.646,194.176 383.5,194.5C 388.091,197.085 392.424,200.085 396.5,203.5C 398.909,201.098 400.909,198.431 402.5,195.5C 406.5,194.167 410.5,194.167 414.5,195.5C 410.583,209.164 403.25,220.664 392.5,230C 387.307,232.737 384.307,231.237 383.5,225.5C 385.893,221.598 388.893,218.098 392.5,215C 390.229,212.218 387.563,210.051 384.5,208.5C 382.996,206.164 380.996,204.331 378.5,203C 373.473,200.487 368.473,197.987 363.5,195.5 Z"/></g>
<g><path style="opacity:1" fill="#57576a" d="M 14.5,184.5 C 19.3567,186.514 23.8567,189.181 28,192.5C 30.4557,197.887 29.4557,202.554 25,206.5C 16.4573,201.744 12.9573,194.41 14.5,184.5 Z"/></g>
<g><path style="opacity:1" fill="#3f3e4b" d="M 425.5,195.5 C 429.167,195.5 432.833,195.5 436.5,195.5C 437.824,200.234 437.824,205.067 436.5,210C 447.731,223.844 454.397,239.677 456.5,257.5C 453.375,258.479 450.042,258.813 446.5,258.5C 444.651,246.943 440.651,236.276 434.5,226.5C 434.459,224.255 433.625,223.588 432,224.5C 430.541,227.747 429.374,231.08 428.5,234.5C 429.408,242.805 429.741,251.139 429.5,259.5C 426.512,257.727 423.179,257.06 419.5,257.5C 419.664,254.813 419.497,252.146 419,249.5C 416.151,252.574 413.317,255.574 410.5,258.5C 406.366,257.515 402.032,257.182 397.5,257.5C 398.167,256.5 398.833,255.5 399.5,254.5C 401.833,252.833 403.833,250.833 405.5,248.5C 412.399,241.723 417.566,233.723 421,224.5C 423.556,217.11 425.722,209.61 427.5,202C 426.967,199.774 426.3,197.607 425.5,195.5 Z"/></g>
<g><path style="opacity:1" fill="#f9dfd8" d="M 246.5,198.5 C 247.836,200.01 249.003,201.677 250,203.5C 255.666,225.828 265.332,246.161 279,264.5C 284.395,270.064 289.895,275.397 295.5,280.5C 294.036,281.16 292.369,281.493 290.5,281.5C 279.523,280.406 268.523,279.74 257.5,279.5C 256.846,273.19 256.346,266.857 256,260.5C 252.492,256.564 249.159,256.564 246,260.5C 245.531,266.182 245.698,271.848 246.5,277.5C 231.118,276.988 215.452,275.988 199.5,274.5C 197.048,274.461 195.048,273.794 193.5,272.5C 193.84,266.13 194.506,259.796 195.5,253.5C 199.693,233.282 209.026,215.782 223.5,201C 230.605,195.955 238.272,195.122 246.5,198.5 Z"/></g>
<g><path style="opacity:1" fill="#de827d" d="M 246.5,198.5 C 251.262,199.751 255.095,202.418 258,206.5C 262.257,218.347 267.59,229.68 274,240.5C 277.625,246.292 282.125,251.292 287.5,255.5C 299.957,268.902 315.291,277.402 333.5,281C 363.153,286.345 388.819,278.845 410.5,258.5C 413.317,255.574 416.151,252.574 419,249.5C 419.497,252.146 419.664,254.813 419.5,257.5C 419.806,260.385 419.473,263.052 418.5,265.5C 418.66,263.801 418.494,262.134 418,260.5C 400.97,280.769 379.136,292.269 352.5,295C 331.465,297.699 312.465,292.865 295.5,280.5C 289.895,275.397 284.395,270.064 279,264.5C 265.332,246.161 255.666,225.828 250,203.5C 249.003,201.677 247.836,200.01 246.5,198.5 Z"/></g>
<g><path style="opacity:1" fill="#7c8fa8" d="M 275.5,182.5 C 278.411,185.99 281.078,189.656 283.5,193.5C 286.104,203.994 290.437,213.66 296.5,222.5C 292.693,223.032 288.693,223.032 284.5,222.5C 278.427,212.116 274.427,200.949 272.5,189C 272.32,186.198 273.32,184.031 275.5,182.5 Z"/></g>
<g><path style="opacity:1" fill="#7c8ea8" d="M 384.5,208.5 C 387.563,210.051 390.229,212.218 392.5,215C 388.893,218.098 385.893,221.598 383.5,225.5C 381.108,226.713 378.441,227.379 375.5,227.5C 355.179,226.185 334.846,225.185 314.5,224.5C 307.752,219.414 302.419,213.081 298.5,205.5C 301.75,204.873 305.083,204.539 308.5,204.5C 333.838,205.834 359.171,207.167 384.5,208.5 Z"/></g>
<g><path style="opacity:1" fill="#ba6863" d="M 104.5,201.5 C 130.157,202.661 155.823,203.661 181.5,204.5C 171.612,224.385 165.612,245.385 163.5,267.5C 160.988,268.928 158.322,269.428 155.5,269C 135.865,255.534 119.865,238.701 107.5,218.5C 106.778,212.782 105.778,207.115 104.5,201.5 Z"/></g>
<g><path style="opacity:1" fill="#f8f8f8" d="M 107.5,218.5 C 119.865,238.701 135.865,255.534 155.5,269C 158.322,269.428 160.988,268.928 163.5,267.5C 162.167,282.833 162.167,298.167 163.5,313.5C 161.142,316.236 158.142,317.07 154.5,316C 136.136,299.494 121.47,280.328 110.5,258.5C 110.5,257.833 110.5,257.167 110.5,256.5C 111.009,243.693 110.009,231.026 107.5,218.5 Z"/></g>
<g><path style="opacity:1" fill="#768aa3" d="M 425.5,195.5 C 426.3,197.607 426.967,199.774 427.5,202C 425.722,209.61 423.556,217.11 421,224.5C 417.566,233.723 412.399,241.723 405.5,248.5C 384.343,247.327 363.343,245.994 342.5,244.5C 344.069,241.418 343.735,238.585 341.5,236C 331.473,234.313 322.473,230.48 314.5,224.5C 334.846,225.185 355.179,226.185 375.5,227.5C 378.441,227.379 381.108,226.713 383.5,225.5C 384.307,231.237 387.307,232.737 392.5,230C 403.25,220.664 410.583,209.164 414.5,195.5C 415.176,193.141 416.009,190.808 417,188.5C 419.998,190.668 422.831,193.001 425.5,195.5 Z"/></g>
<g><path style="opacity:1" fill="#f8ded7" d="M 434.5,226.5 C 440.651,236.276 444.651,246.943 446.5,258.5C 447.114,262.135 447.448,265.802 447.5,269.5C 447.5,277.5 447.5,285.5 447.5,293.5C 442.547,292.671 437.547,292.337 432.5,292.5C 434.282,275.399 433.615,258.399 430.5,241.5C 431.428,236.384 432.761,231.384 434.5,226.5 Z"/></g>
<g><path style="opacity:1" fill="#70839c" d="M 284.5,222.5 C 288.693,223.032 292.693,223.032 296.5,222.5C 304.296,231.117 313.63,237.617 324.5,242C 330.307,244.793 336.307,245.627 342.5,244.5C 363.343,245.994 384.343,247.327 405.5,248.5C 403.833,250.833 401.833,252.833 399.5,254.5C 394.301,256.93 388.968,259.097 383.5,261C 341.726,270.249 308.726,257.416 284.5,222.5 Z"/></g>
<g><path style="opacity:1" fill="#df837e" d="M 434.5,226.5 C 432.761,231.384 431.428,236.384 430.5,241.5C 433.615,258.399 434.282,275.399 432.5,292.5C 430.383,301.687 427.55,310.687 424,319.5C 423.501,323.486 423.334,327.486 423.5,331.5C 423.084,336.493 422.751,341.493 422.5,346.5C 421.291,350.618 420.624,354.951 420.5,359.5C 417.509,359.166 415.176,360.166 413.5,362.5C 411.5,361.167 409.5,359.833 407.5,358.5C 407.333,344.496 407.5,330.496 408,316.5C 418.907,305.353 425.574,292.019 428,276.5C 428.531,270.829 429.031,265.162 429.5,259.5C 429.741,251.139 429.408,242.805 428.5,234.5C 429.374,231.08 430.541,227.747 432,224.5C 433.625,223.588 434.459,224.255 434.5,226.5 Z"/></g>
<g><path style="opacity:1" fill="#38384b" d="M 185.5,253.5 C 188.833,253.5 192.167,253.5 195.5,253.5C 194.506,259.796 193.84,266.13 193.5,272.5C 192.508,279.648 192.175,286.981 192.5,294.5C 192.5,300.833 192.5,307.167 192.5,313.5C 188.896,324.744 185.229,336.077 181.5,347.5C 180.072,350.303 179.405,353.303 179.5,356.5C 178.549,357.919 178.216,359.585 178.5,361.5C 174.833,361.5 171.167,361.5 167.5,361.5C 168.344,355.449 169.51,349.449 171,343.5C 174.14,333.748 177.473,324.081 181,314.5C 181.333,302.5 181.667,290.5 182,278.5C 182.473,270.024 183.64,261.69 185.5,253.5 Z"/></g>
<g><path style="opacity:1" fill="#3a394b" d="M 287.5,255.5 C 292.167,255.5 296.833,255.5 301.5,255.5C 333.135,277.167 365.135,277.834 397.5,257.5C 402.032,257.182 406.366,257.515 410.5,258.5C 388.819,278.845 363.153,286.345 333.5,281C 315.291,277.402 299.957,268.902 287.5,255.5 Z"/></g>
<g><path style="opacity:1" fill="#393844" d="M 110.5,256.5 C 110.5,257.167 110.5,257.833 110.5,258.5C 110.667,270.171 110.5,281.838 110,293.5C 107.924,309.105 106.757,324.772 106.5,340.5C 105.532,338.393 105.198,336.059 105.5,333.5C 102.167,333.5 98.8333,333.5 95.5,333.5C 98.2712,308.244 99.9379,282.911 100.5,257.5C 103.764,256.676 107.098,256.342 110.5,256.5 Z"/></g>
<g><path style="opacity:1" fill="#3b3a4c" d="M 257.5,279.5 C 259.511,286.891 262.844,293.558 267.5,299.5C 281.061,313.429 297.728,319.929 317.5,319C 318.71,320.039 319.71,321.206 320.5,322.5C 320.5,323.5 320.5,324.5 320.5,325.5C 319.485,328.436 317.318,329.769 314,329.5C 295.346,329.118 278.846,323.118 264.5,311.5C 264.167,312.5 263.833,313.5 263.5,314.5C 263.886,316.932 264.553,319.266 265.5,321.5C 267.245,328.069 269.578,334.402 272.5,340.5C 274.833,345.167 277.167,349.833 279.5,354.5C 280.371,357.112 281.037,359.779 281.5,362.5C 278.038,363.482 274.371,363.815 270.5,363.5C 265.127,352.083 260.294,340.417 256,328.5C 253.02,332.647 249.52,336.314 245.5,339.5C 244.462,347.761 242.795,355.761 240.5,363.5C 237.167,362.833 233.833,362.167 230.5,361.5C 230.5,361.167 230.5,360.833 230.5,360.5C 230.993,358.194 231.326,355.861 231.5,353.5C 232.475,350.689 233.142,347.689 233.5,344.5C 229.818,344.665 226.152,344.499 222.5,344C 220.556,341.847 220.056,339.347 221,336.5C 226.911,335.232 232.744,333.399 238.5,331C 242.77,327.566 246.103,323.399 248.5,318.5C 250.963,314.557 252.63,310.224 253.5,305.5C 254.435,302.887 254.602,300.221 254,297.5C 251.243,292.664 249.077,287.664 247.5,282.5C 247.784,280.585 247.451,278.919 246.5,277.5C 245.698,271.848 245.531,266.182 246,260.5C 249.159,256.564 252.492,256.564 256,260.5C 256.346,266.857 256.846,273.19 257.5,279.5 Z"/></g>
<g><path style="opacity:1" fill="#3a394c" d="M 419.5,257.5 C 423.179,257.06 426.512,257.727 429.5,259.5C 429.031,265.162 428.531,270.829 428,276.5C 425.574,292.019 418.907,305.353 408,316.5C 407.5,330.496 407.333,344.496 407.5,358.5C 407.5,361.167 407.5,363.833 407.5,366.5C 403.936,365.577 400.269,365.244 396.5,365.5C 397.217,353.18 397.551,340.847 397.5,328.5C 397.5,326.833 397.5,325.167 397.5,323.5C 393.778,324.017 390.112,324.85 386.5,326C 382.514,326.499 378.514,326.666 374.5,326.5C 373.833,326.5 373.167,326.5 372.5,326.5C 369.888,323.331 369.888,320.164 372.5,317C 382.738,317.362 392.071,314.862 400.5,309.5C 408.213,302.089 413.379,293.089 416,282.5C 417.161,276.874 417.994,271.207 418.5,265.5C 419.473,263.052 419.806,260.385 419.5,257.5 Z"/></g>
<g><path style="opacity:1" fill="#38384b" d="M 456.5,257.5 C 459.263,271.597 459.93,285.93 458.5,300.5C 458.676,303.882 459.176,307.215 460,310.5C 465.907,321.982 471.574,333.649 477,345.5C 479.349,351.711 481.182,358.044 482.5,364.5C 479.663,366.402 476.329,367.069 472.5,366.5C 471.209,361.623 469.542,356.956 467.5,352.5C 465.441,345.625 462.441,339.292 458.5,333.5C 454.253,326.332 451.087,318.665 449,310.5C 448.831,296.661 448.331,282.994 447.5,269.5C 447.448,265.802 447.114,262.135 446.5,258.5C 450.042,258.813 453.375,258.479 456.5,257.5 Z"/></g>
<g><path style="opacity:1" fill="#b4645d" d="M 110.5,258.5 C 121.47,280.328 136.136,299.494 154.5,316C 158.142,317.07 161.142,316.236 163.5,313.5C 164.645,317.311 164.812,321.311 164,325.5C 154.605,356.442 150.271,388.108 151,420.5C 149.644,421.38 148.144,421.714 146.5,421.5C 147.537,419.262 147.703,416.929 147,414.5C 132.264,398.047 120.264,379.714 111,359.5C 108.71,353.339 107.21,347.005 106.5,340.5C 106.757,324.772 107.924,309.105 110,293.5C 110.5,281.838 110.667,270.171 110.5,258.5 Z"/></g>
<g><path style="opacity:1" fill="#f8d8d2" d="M 193.5,272.5 C 195.048,273.794 197.048,274.461 199.5,274.5C 215.452,275.988 231.118,276.988 246.5,277.5C 247.451,278.919 247.784,280.585 247.5,282.5C 247.649,287.575 248.315,292.575 249.5,297.5C 248.551,298.152 247.385,298.486 246,298.5C 228.193,296.784 210.359,295.451 192.5,294.5C 192.175,286.981 192.508,279.648 193.5,272.5 Z"/></g>
<g><path style="opacity:1" fill="#f9d9d2" d="M 418.5,265.5 C 417.994,271.207 417.161,276.874 416,282.5C 413.379,293.089 408.213,302.089 400.5,309.5C 370.729,307.825 341.063,305.492 311.5,302.5C 309.206,298.748 305.872,297.581 301.5,299C 300.619,299.708 299.953,300.542 299.5,301.5C 288.915,301.602 278.249,300.936 267.5,299.5C 262.844,293.558 259.511,286.891 257.5,279.5C 268.523,279.74 279.523,280.406 290.5,281.5C 292.369,281.493 294.036,281.16 295.5,280.5C 312.465,292.865 331.465,297.699 352.5,295C 379.136,292.269 400.97,280.769 418,260.5C 418.494,262.134 418.66,263.801 418.5,265.5 Z"/></g>
<g><path style="opacity:1" fill="#d4807d" d="M 247.5,282.5 C 249.077,287.664 251.243,292.664 254,297.5C 254.602,300.221 254.435,302.887 253.5,305.5C 252.167,302.833 250.833,300.167 249.5,297.5C 248.315,292.575 247.649,287.575 247.5,282.5 Z"/></g>
<g><path style="opacity:1" fill="#f9d3cc" d="M 192.5,294.5 C 210.359,295.451 228.193,296.784 246,298.5C 247.385,298.486 248.551,298.152 249.5,297.5C 250.833,300.167 252.167,302.833 253.5,305.5C 252.63,310.224 250.963,314.557 248.5,318.5C 229.631,317.435 210.965,315.768 192.5,313.5C 192.5,307.167 192.5,300.833 192.5,294.5 Z"/></g>
<g><path style="opacity:1" fill="#e28781" d="M 388.5,297.5 C 391.518,297.335 394.518,297.502 397.5,298C 400.637,302.095 399.637,304.762 394.5,306C 386.749,307.091 384.749,304.258 388.5,297.5 Z"/></g>
<g><path style="opacity:1" fill="#e38882" d="M 311.5,302.5 C 312.062,306.099 310.562,308.099 307,308.5C 301.886,308.727 299.386,306.393 299.5,301.5C 299.953,300.542 300.619,299.708 301.5,299C 305.872,297.581 309.206,298.748 311.5,302.5 Z"/></g>
<g><path style="opacity:1" fill="#f8d2cb" d="M 267.5,299.5 C 278.249,300.936 288.915,301.602 299.5,301.5C 299.386,306.393 301.886,308.727 307,308.5C 310.562,308.099 312.062,306.099 311.5,302.5C 341.063,305.492 370.729,307.825 400.5,309.5C 392.071,314.862 382.738,317.362 372.5,317C 369.888,320.164 369.888,323.331 372.5,326.5C 370.696,327.162 368.696,327.495 366.5,327.5C 355.506,326.59 344.506,325.757 333.5,325C 328.863,325.009 324.529,324.175 320.5,322.5C 319.71,321.206 318.71,320.039 317.5,319C 297.728,319.929 281.061,313.429 267.5,299.5 Z"/></g>
<g><path style="opacity:1" fill="#df847f" d="M 320.5,325.5 C 324.182,325.335 327.848,325.501 331.5,326C 334.167,327.667 334.167,329.333 331.5,331C 307.927,337.902 285.927,334.735 265.5,321.5C 264.553,319.266 263.886,316.932 263.5,314.5C 263.833,313.5 264.167,312.5 264.5,311.5C 278.846,323.118 295.346,329.118 314,329.5C 317.318,329.769 319.485,328.436 320.5,325.5 Z"/></g>
<g><path style="opacity:1" fill="#f6d2cb" d="M 447.5,269.5 C 448.331,282.994 448.831,296.661 449,310.5C 451.087,318.665 454.253,326.332 458.5,333.5C 457.903,334.139 457.07,334.472 456,334.5C 445.162,333.428 434.328,332.428 423.5,331.5C 423.334,327.486 423.501,323.486 424,319.5C 427.55,310.687 430.383,301.687 432.5,292.5C 437.547,292.337 442.547,292.671 447.5,293.5C 447.5,285.5 447.5,277.5 447.5,269.5 Z"/></g>
<g><path style="opacity:1" fill="#f8cac4" d="M 192.5,313.5 C 210.965,315.768 229.631,317.435 248.5,318.5C 246.103,323.399 242.77,327.566 238.5,331C 232.744,333.399 226.911,335.232 221,336.5C 220.056,339.347 220.556,341.847 222.5,344C 226.152,344.499 229.818,344.665 233.5,344.5C 233.142,347.689 232.475,350.689 231.5,353.5C 231.5,352.5 231.5,351.5 231.5,350.5C 214.846,349.296 198.179,348.296 181.5,347.5C 185.229,336.077 188.896,324.744 192.5,313.5 Z"/></g>
<g><path style="opacity:1" fill="#f9cdc5" d="M 265.5,321.5 C 285.927,334.735 307.927,337.902 331.5,331C 334.167,329.333 334.167,327.667 331.5,326C 327.848,325.501 324.182,325.335 320.5,325.5C 320.5,324.5 320.5,323.5 320.5,322.5C 324.529,324.175 328.863,325.009 333.5,325C 344.506,325.757 355.506,326.59 366.5,327.5C 368.696,327.495 370.696,327.162 372.5,326.5C 373.167,326.5 373.833,326.5 374.5,326.5C 374.881,327.931 375.881,328.764 377.5,329C 383.85,329.524 390.184,329.358 396.5,328.5C 396.5,335.5 396.5,342.5 396.5,349.5C 383.836,348.782 371.17,348.116 358.5,347.5C 358.737,346.209 358.404,345.209 357.5,344.5C 357.186,340.161 355.186,337.161 351.5,335.5C 351.5,339.167 351.5,342.833 351.5,346.5C 325.162,344.547 298.829,342.547 272.5,340.5C 269.578,334.402 267.245,328.069 265.5,321.5 Z"/></g>
<g><path style="opacity:1" fill="#d88480" d="M 397.5,328.5 C 397.167,328.5 396.833,328.5 396.5,328.5C 390.184,329.358 383.85,329.524 377.5,329C 375.881,328.764 374.881,327.931 374.5,326.5C 378.514,326.666 382.514,326.499 386.5,326C 390.112,324.85 393.778,324.017 397.5,323.5C 397.5,325.167 397.5,326.833 397.5,328.5 Z"/></g>
<g><path style="opacity:1" fill="#f9cdc6" d="M 423.5,331.5 C 434.328,332.428 445.162,333.428 456,334.5C 457.07,334.472 457.903,334.139 458.5,333.5C 462.441,339.292 465.441,345.625 467.5,352.5C 467.5,353.5 467.5,354.5 467.5,355.5C 453.202,354.105 438.869,352.939 424.5,352C 422.808,350.599 422.141,348.766 422.5,346.5C 422.751,341.493 423.084,336.493 423.5,331.5 Z"/></g>
<g><path style="opacity:1" fill="#333242" d="M 95.5,333.5 C 98.8333,333.5 102.167,333.5 105.5,333.5C 105.198,336.059 105.532,338.393 106.5,340.5C 107.21,347.005 108.71,353.339 111,359.5C 120.264,379.714 132.264,398.047 147,414.5C 147.703,416.929 147.537,419.262 146.5,421.5C 144.881,423.238 142.881,423.738 140.5,423C 121.891,403.372 107.724,380.872 98,355.5C 95.9721,348.306 95.1388,340.973 95.5,333.5 Z"/></g>
<g><path style="opacity:1" fill="#e2857f" d="M 357.5,344.5 C 357.608,349.87 357.275,355.203 356.5,360.5C 363.307,360.639 369.807,359.305 376,356.5C 376.5,356.833 377,357.167 377.5,357.5C 372.751,364.43 366.085,367.764 357.5,367.5C 358.426,371.094 358.759,374.76 358.5,378.5C 358.085,382.401 356.085,384.734 352.5,385.5C 352.5,382.5 352.5,379.5 352.5,376.5C 352.296,373.482 351.963,370.482 351.5,367.5C 345.448,368.687 339.448,368.687 333.5,367.5C 328.561,366.537 325.228,363.87 323.5,359.5C 331.887,361.627 340.22,361.961 348.5,360.5C 350.735,356.213 351.735,351.546 351.5,346.5C 351.5,342.833 351.5,339.167 351.5,335.5C 355.186,337.161 357.186,340.161 357.5,344.5 Z"/></g>
<g><path style="opacity:1" fill="#f9c7c0" d="M 272.5,340.5 C 298.829,342.547 325.162,344.547 351.5,346.5C 351.735,351.546 350.735,356.213 348.5,360.5C 325.719,357.704 302.719,355.704 279.5,354.5C 277.167,349.833 274.833,345.167 272.5,340.5 Z"/></g>
<g><path style="opacity:1" fill="#f9c7ba" d="M 181.5,347.5 C 198.179,348.296 214.846,349.296 231.5,350.5C 231.5,351.5 231.5,352.5 231.5,353.5C 231.326,355.861 230.993,358.194 230.5,360.5C 213.297,359.868 196.297,358.534 179.5,356.5C 179.405,353.303 180.072,350.303 181.5,347.5 Z"/></g>
<g><path style="opacity:1" fill="#f8c4bc" d="M 396.5,328.5 C 396.833,328.5 397.167,328.5 397.5,328.5C 397.551,340.847 397.217,353.18 396.5,365.5C 395.689,370.467 395.022,375.467 394.5,380.5C 382.509,379.68 370.509,379.014 358.5,378.5C 358.759,374.76 358.426,371.094 357.5,367.5C 366.085,367.764 372.751,364.43 377.5,357.5C 377,357.167 376.5,356.833 376,356.5C 369.807,359.305 363.307,360.639 356.5,360.5C 357.275,355.203 357.608,349.87 357.5,344.5C 358.404,345.209 358.737,346.209 358.5,347.5C 371.17,348.116 383.836,348.782 396.5,349.5C 396.5,342.5 396.5,335.5 396.5,328.5 Z"/></g>
<g><path style="opacity:1" fill="#f7c6bf" d="M 422.5,346.5 C 422.141,348.766 422.808,350.599 424.5,352C 438.869,352.939 453.202,354.105 467.5,355.5C 467.5,354.5 467.5,353.5 467.5,352.5C 469.542,356.956 471.209,361.623 472.5,366.5C 472.5,366.833 472.5,367.167 472.5,367.5C 470.59,368.094 468.59,368.427 466.5,368.5C 452.516,367.215 438.516,366.215 424.5,365.5C 424.5,368.167 424.5,370.833 424.5,373.5C 423.676,369.688 423.176,365.688 423,361.5C 422.292,360.619 421.458,359.953 420.5,359.5C 420.624,354.951 421.291,350.618 422.5,346.5 Z"/></g>
<g><path style="opacity:1" fill="#f9c7ba" d="M 279.5,354.5 C 302.719,355.704 325.719,357.704 348.5,360.5C 340.22,361.961 331.887,361.627 323.5,359.5C 325.228,363.87 328.561,366.537 333.5,367.5C 316.61,367.51 299.61,366.51 282.5,364.5C 282.672,363.508 282.338,362.842 281.5,362.5C 281.037,359.779 280.371,357.112 279.5,354.5 Z"/></g>
<g><path style="opacity:1" fill="#f8bfb9" d="M 179.5,356.5 C 196.297,358.534 213.297,359.868 230.5,360.5C 230.5,360.833 230.5,361.167 230.5,361.5C 229.651,363.888 228.651,366.221 227.5,368.5C 212.361,367.143 197.195,365.81 182,364.5C 180.213,364.759 178.713,365.425 177.5,366.5C 177.366,364.708 177.699,363.042 178.5,361.5C 178.216,359.585 178.549,357.919 179.5,356.5 Z"/></g>
<g><path style="opacity:1" fill="#383844" d="M 167.5,361.5 C 171.167,361.5 174.833,361.5 178.5,361.5C 177.699,363.042 177.366,364.708 177.5,366.5C 177.5,367.5 177.5,368.5 177.5,369.5C 176.167,380.5 176.167,391.5 177.5,402.5C 177.586,406.857 177.92,411.19 178.5,415.5C 176.329,424.031 174.996,432.697 174.5,441.5C 170.498,441.036 166.831,441.702 163.5,443.5C 164.179,434.088 165.513,424.755 167.5,415.5C 164.88,397.483 164.88,379.483 167.5,361.5 Z"/></g>
<g><path style="opacity:1" fill="#3b3a45" d="M 230.5,361.5 C 233.833,362.167 237.167,362.833 240.5,363.5C 238.091,376.985 232.924,389.319 225,400.5C 224.229,411.341 223.395,422.174 222.5,433C 222.801,436.097 223.801,438.93 225.5,441.5C 221.833,442.167 218.167,442.833 214.5,443.5C 212.727,440.505 211.727,437.172 211.5,433.5C 212.201,429.192 212.534,424.859 212.5,420.5C 212.503,415.473 212.836,410.473 213.5,405.5C 213.335,402.482 213.502,399.482 214,396.5C 217.934,391.634 221.1,386.301 223.5,380.5C 225.428,376.715 226.762,372.715 227.5,368.5C 228.651,366.221 229.651,363.888 230.5,361.5 Z"/></g>
<g><path style="opacity:1" fill="#393945" d="M 281.5,362.5 C 282.338,362.842 282.672,363.508 282.5,364.5C 283.026,368.312 283.693,371.979 284.5,375.5C 284.183,378.572 284.516,381.572 285.5,384.5C 286.183,384.863 286.85,385.196 287.5,385.5C 314.041,404.42 342.708,408.254 373.5,397C 376.391,395.726 379.058,394.226 381.5,392.5C 385.466,390.222 389.466,387.888 393.5,385.5C 394.452,383.955 394.785,382.288 394.5,380.5C 395.022,375.467 395.689,370.467 396.5,365.5C 400.269,365.244 403.936,365.577 407.5,366.5C 406.278,372.483 405.945,378.483 406.5,384.5C 409.433,385.93 411.933,387.93 414,390.5C 424.155,407.799 429.988,426.466 431.5,446.5C 428.272,445.586 424.939,445.253 421.5,445.5C 421.672,444.508 421.338,443.842 420.5,443.5C 420.375,438.206 419.375,433.206 417.5,428.5C 417.768,426.901 417.434,425.568 416.5,424.5C 413.815,413.946 409.481,404.112 403.5,395C 401.5,394.333 399.5,394.333 397.5,395C 368.629,414.691 337.629,418.691 304.5,407C 295.463,403.066 286.963,398.233 279,392.5C 267.308,404.709 266.641,417.376 277,430.5C 280.517,427.283 283.684,423.783 286.5,420C 288.635,419.365 290.635,419.699 292.5,421C 293.328,422.992 294.661,424.492 296.5,425.5C 296.427,427.027 297.094,428.027 298.5,428.5C 303.761,434.453 309.761,439.453 316.5,443.5C 310.974,443.179 305.64,443.512 300.5,444.5C 295.877,441.711 292.044,438.045 289,433.5C 285.04,438.19 280.207,441.023 274.5,442C 269.618,438.786 265.785,434.619 263,429.5C 261.104,434.598 259.27,439.598 257.5,444.5C 254.663,442.598 251.329,441.931 247.5,442.5C 253.239,427.022 258.405,411.356 263,395.5C 265.401,390.681 268.735,386.681 273,383.5C 273.577,376.636 272.744,369.97 270.5,363.5C 274.371,363.815 278.038,363.482 281.5,362.5 Z"/></g>
<g><path style="opacity:1" fill="#f9c0b4" d="M 227.5,368.5 C 226.762,372.715 225.428,376.715 223.5,380.5C 208.181,379.296 192.847,378.296 177.5,377.5C 177.5,374.833 177.5,372.167 177.5,369.5C 177.5,368.5 177.5,367.5 177.5,366.5C 178.713,365.425 180.213,364.759 182,364.5C 197.195,365.81 212.361,367.143 227.5,368.5 Z"/></g>
<g><path style="opacity:1" fill="#f9c0ba" d="M 282.5,364.5 C 299.61,366.51 316.61,367.51 333.5,367.5C 339.448,368.687 345.448,368.687 351.5,367.5C 351.963,370.482 352.296,373.482 352.5,376.5C 351.258,377.043 349.925,377.377 348.5,377.5C 327.181,375.629 305.847,373.963 284.5,372.5C 284.5,373.5 284.5,374.5 284.5,375.5C 283.693,371.979 283.026,368.312 282.5,364.5 Z"/></g>
<g><path style="opacity:1" fill="#3a3945" d="M 420.5,359.5 C 421.458,359.953 422.292,360.619 423,361.5C 423.176,365.688 423.676,369.688 424.5,373.5C 424.5,374.167 424.5,374.833 424.5,375.5C 424.903,378.486 425.903,381.152 427.5,383.5C 428.99,389.149 431.99,393.816 436.5,397.5C 443.912,406.32 449.245,416.32 452.5,427.5C 453.341,429.379 453.675,431.379 453.5,433.5C 462.294,431.841 470.961,432.341 479.5,435C 480.373,436.045 481.373,436.878 482.5,437.5C 482.5,438.5 482.5,439.5 482.5,440.5C 482.056,442.113 481.056,443.28 479.5,444C 472.922,442.889 466.255,442.556 459.5,443C 456.194,443.986 453.194,445.486 450.5,447.5C 446.702,446.517 442.702,446.183 438.5,446.5C 439.777,444.05 441.277,441.717 443,439.5C 441.154,423.808 434.488,410.475 423,399.5C 415.279,388.28 412.112,375.947 413.5,362.5C 415.176,360.166 417.509,359.166 420.5,359.5 Z"/></g>
<g><path style="opacity:1" fill="#f9c7ba" d="M 472.5,367.5 C 473.793,370.679 474.46,374.012 474.5,377.5C 474.38,378.586 473.713,379.253 472.5,379.5C 456.523,377.912 440.523,376.579 424.5,375.5C 424.5,374.833 424.5,374.167 424.5,373.5C 424.5,370.833 424.5,368.167 424.5,365.5C 438.516,366.215 452.516,367.215 466.5,368.5C 468.59,368.427 470.59,368.094 472.5,367.5 Z"/></g>
<g><path style="opacity:1" fill="#393844" d="M 482.5,364.5 C 484.885,372.58 486.719,380.913 488,389.5C 497.403,408.111 503.236,427.778 505.5,448.5C 502.272,447.586 498.939,447.253 495.5,447.5C 495.5,448.5 495.5,449.5 495.5,450.5C 494.833,447.5 494.167,444.5 493.5,441.5C 491.015,426.049 486.348,411.382 479.5,397.5C 477.892,394.009 476.892,390.342 476.5,386.5C 476.324,383.273 475.657,380.273 474.5,377.5C 474.46,374.012 473.793,370.679 472.5,367.5C 472.5,367.167 472.5,366.833 472.5,366.5C 476.329,367.069 479.663,366.402 482.5,364.5 Z"/></g>
<g><path style="opacity:1" fill="#f9c0b4" d="M 352.5,376.5 C 352.5,379.5 352.5,382.5 352.5,385.5C 356.085,384.734 358.085,382.401 358.5,378.5C 370.509,379.014 382.509,379.68 394.5,380.5C 394.785,382.288 394.452,383.955 393.5,385.5C 389.466,387.888 385.466,390.222 381.5,392.5C 350.176,390.065 318.843,387.731 287.5,385.5C 286.85,385.196 286.183,384.863 285.5,384.5C 284.516,381.572 284.183,378.572 284.5,375.5C 284.5,374.5 284.5,373.5 284.5,372.5C 305.847,373.963 327.181,375.629 348.5,377.5C 349.925,377.377 351.258,377.043 352.5,376.5 Z"/></g>
<g><path style="opacity:1" fill="#f8bfb9" d="M 424.5,375.5 C 440.523,376.579 456.523,377.912 472.5,379.5C 473.713,379.253 474.38,378.586 474.5,377.5C 475.657,380.273 476.324,383.273 476.5,386.5C 460.163,385.551 443.83,384.551 427.5,383.5C 425.903,381.152 424.903,378.486 424.5,375.5 Z"/></g>
<g><path style="opacity:1" fill="#f8b9af" d="M 177.5,369.5 C 177.5,372.167 177.5,374.833 177.5,377.5C 192.847,378.296 208.181,379.296 223.5,380.5C 221.1,386.301 217.934,391.634 214,396.5C 213.502,399.482 213.335,402.482 213.5,405.5C 201.452,404.804 189.452,403.804 177.5,402.5C 176.167,391.5 176.167,380.5 177.5,369.5 Z"/></g>
<g><path style="opacity:1" fill="#f8c0b4" d="M 427.5,383.5 C 443.83,384.551 460.163,385.551 476.5,386.5C 476.892,390.342 477.892,394.009 479.5,397.5C 478.129,398.787 476.295,399.453 474,399.5C 462.486,398.627 450.986,397.627 439.5,396.5C 438.274,396.52 437.274,396.853 436.5,397.5C 431.99,393.816 428.99,389.149 427.5,383.5 Z"/></g>
<g><path style="opacity:1" fill="#f5b7ae" d="M 287.5,385.5 C 318.843,387.731 350.176,390.065 381.5,392.5C 379.058,394.226 376.391,395.726 373.5,397C 342.708,408.254 314.041,404.42 287.5,385.5 Z"/></g>
<g><path style="opacity:1" fill="#f9b4a7" d="M 177.5,402.5 C 189.452,403.804 201.452,404.804 213.5,405.5C 212.836,410.473 212.503,415.473 212.5,420.5C 203.251,419.339 193.918,418.506 184.5,418C 182.155,417.764 180.155,416.93 178.5,415.5C 177.92,411.19 177.586,406.857 177.5,402.5 Z"/></g>
<g><path style="opacity:1" fill="#f8b8ad" d="M 479.5,397.5 C 486.348,411.382 491.015,426.049 493.5,441.5C 489.881,440.756 486.215,440.423 482.5,440.5C 482.5,439.5 482.5,438.5 482.5,437.5C 482.548,434.708 481.215,432.875 478.5,432C 470.154,428.665 461.487,427.165 452.5,427.5C 449.245,416.32 443.912,406.32 436.5,397.5C 437.274,396.853 438.274,396.52 439.5,396.5C 450.986,397.627 462.486,398.627 474,399.5C 476.295,399.453 478.129,398.787 479.5,397.5 Z"/></g>
<g><path style="opacity:1" fill="#899cb6" d="M 416.5,424.5 C 376.449,425.482 336.449,425.815 296.5,425.5C 294.661,424.492 293.328,422.992 292.5,421C 290.635,419.699 288.635,419.365 286.5,420C 283.684,423.783 280.517,427.283 277,430.5C 266.641,417.376 267.308,404.709 279,392.5C 286.963,398.233 295.463,403.066 304.5,407C 337.629,418.691 368.629,414.691 397.5,395C 399.5,394.333 401.5,394.333 403.5,395C 409.481,404.112 413.815,413.946 416.5,424.5 Z"/></g>
<g><path style="opacity:1" fill="#f8aea7" d="M 178.5,415.5 C 180.155,416.93 182.155,417.764 184.5,418C 193.918,418.506 203.251,419.339 212.5,420.5C 212.534,424.859 212.201,429.192 211.5,433.5C 211.727,437.172 212.727,440.505 214.5,443.5C 216.087,446.268 217.92,448.935 220,451.5C 220.955,462.931 220.622,474.264 219,485.5C 218.25,486.126 217.416,486.626 216.5,487C 204.5,487.667 192.5,487.667 180.5,487C 179.333,485.833 178.167,484.667 177,483.5C 174.873,469.588 174.04,455.588 174.5,441.5C 174.996,432.697 176.329,424.031 178.5,415.5 Z"/></g>
<g><path style="opacity:1" fill="#8495b4" d="M 416.5,424.5 C 417.434,425.568 417.768,426.901 417.5,428.5C 378.042,428.527 338.375,428.527 298.5,428.5C 297.094,428.027 296.427,427.027 296.5,425.5C 336.449,425.815 376.449,425.482 416.5,424.5 Z"/></g>
<g><path style="opacity:1" fill="#dd817c" d="M 452.5,427.5 C 461.487,427.165 470.154,428.665 478.5,432C 481.215,432.875 482.548,434.708 482.5,437.5C 481.373,436.878 480.373,436.045 479.5,435C 470.961,432.341 462.294,431.841 453.5,433.5C 453.675,431.379 453.341,429.379 452.5,427.5 Z"/></g>
<g><path style="opacity:1" fill="#8195ad" d="M 298.5,428.5 C 338.375,428.527 378.042,428.527 417.5,428.5C 419.375,433.206 420.375,438.206 420.5,443.5C 397.096,442.755 373.763,442.755 350.5,443.5C 347.83,439.988 345.33,436.322 343,432.5C 339.667,428.5 336.333,428.5 333,432.5C 330.403,436.705 327.569,440.705 324.5,444.5C 323.85,444.804 323.183,445.137 322.5,445.5C 320.55,444.628 318.55,443.961 316.5,443.5C 309.761,439.453 303.761,434.453 298.5,428.5 Z"/></g>
<g><path style="opacity:1" fill="#393945" d="M 350.5,443.5 C 350.5,443.833 350.5,444.167 350.5,444.5C 346.629,444.185 342.962,444.518 339.5,445.5C 338.5,444.167 337.5,444.167 336.5,445.5C 332.702,444.517 328.702,444.183 324.5,444.5C 327.569,440.705 330.403,436.705 333,432.5C 336.333,428.5 339.667,428.5 343,432.5C 345.33,436.322 347.83,439.988 350.5,443.5 Z"/></g>
<g><path style="opacity:1" fill="#4a636f" d="M 300.5,444.5 C 306.997,450.168 314.497,454.168 323,456.5C 326.514,455.324 329.681,453.491 332.5,451C 334.439,449.568 335.772,447.735 336.5,445.5C 337.5,444.167 338.5,444.167 339.5,445.5C 348.333,457.833 359,468.333 371.5,477C 373.971,477.706 376.305,477.373 378.5,476C 382.689,471.779 386.522,467.279 390,462.5C 394.479,473.463 399.979,483.797 406.5,493.5C 354.5,493.5 302.5,493.5 250.5,493.5C 250.873,476.886 253.207,460.553 257.5,444.5C 259.27,439.598 261.104,434.598 263,429.5C 265.785,434.619 269.618,438.786 274.5,442C 280.207,441.023 285.04,438.19 289,433.5C 292.044,438.045 295.877,441.711 300.5,444.5 Z"/></g>
<g><path style="opacity:1" fill="#f7ada6" d="M 482.5,440.5 C 486.215,440.423 489.881,440.756 493.5,441.5C 494.167,444.5 494.833,447.5 495.5,450.5C 496.498,457.138 496.665,463.805 496,470.5C 494.083,475.889 490.25,479.055 484.5,480C 474.874,481.453 465.207,481.786 455.5,481C 450.374,478.934 447.541,475.1 447,469.5C 446.333,464.167 446.333,458.833 447,453.5C 447.926,451.308 449.093,449.308 450.5,447.5C 453.194,445.486 456.194,443.986 459.5,443C 466.255,442.556 472.922,442.889 479.5,444C 481.056,443.28 482.056,442.113 482.5,440.5 Z"/></g>
<g><path style="opacity:1" fill="#333344" d="M 174.5,441.5 C 174.04,455.588 174.873,469.588 177,483.5C 178.167,484.667 179.333,485.833 180.5,487C 192.5,487.667 204.5,487.667 216.5,487C 217.416,486.626 218.25,486.126 219,485.5C 220.622,474.264 220.955,462.931 220,451.5C 217.92,448.935 216.087,446.268 214.5,443.5C 218.167,442.833 221.833,442.167 225.5,441.5C 228.324,443.8 230.157,446.8 231,450.5C 231.667,462.167 231.667,473.833 231,485.5C 228.728,492.106 224.228,496.273 217.5,498C 204.833,498.667 192.167,498.667 179.5,498C 172.333,496.167 167.833,491.667 166,484.5C 164.227,470.889 163.393,457.222 163.5,443.5C 166.831,441.702 170.498,441.036 174.5,441.5 Z"/></g>
<g><path style="opacity:1" fill="#323244" d="M 247.5,442.5 C 251.329,441.931 254.663,442.598 257.5,444.5C 253.207,460.553 250.873,476.886 250.5,493.5C 246.833,493.5 243.167,493.5 239.5,493.5C 239.899,476.106 242.566,459.106 247.5,442.5 Z"/></g>
<g><path style="opacity:1" fill="#323345" d="M 316.5,443.5 C 318.55,443.961 320.55,444.628 322.5,445.5C 323.183,445.137 323.85,444.804 324.5,444.5C 328.702,444.183 332.702,444.517 336.5,445.5C 335.772,447.735 334.439,449.568 332.5,451C 329.681,453.491 326.514,455.324 323,456.5C 314.497,454.168 306.997,450.168 300.5,444.5C 305.64,443.512 310.974,443.179 316.5,443.5 Z"/></g>
<g><path style="opacity:1" fill="#323344" d="M 350.5,444.5 C 357.196,452.528 364.863,459.528 373.5,465.5C 379.503,460.008 384.169,453.508 387.5,446C 390.956,444.877 393.79,445.71 396,448.5C 399.233,458.966 403.566,468.966 409,478.5C 411.034,481.909 413.534,484.909 416.5,487.5C 417.086,487.291 417.586,486.957 418,486.5C 421.185,473.035 422.351,459.368 421.5,445.5C 424.939,445.253 428.272,445.586 431.5,446.5C 433.68,462.488 432.18,478.155 427,493.5C 420.049,500.144 413.216,500.144 406.5,493.5C 399.979,483.797 394.479,473.463 390,462.5C 386.522,467.279 382.689,471.779 378.5,476C 376.305,477.373 373.971,477.706 371.5,477C 359,468.333 348.333,457.833 339.5,445.5C 342.962,444.518 346.629,444.185 350.5,444.5 Z"/></g>
<g><path style="opacity:1" fill="#798ba5" d="M 420.5,443.5 C 421.338,443.842 421.672,444.508 421.5,445.5C 422.351,459.368 421.185,473.035 418,486.5C 417.586,486.957 417.086,487.291 416.5,487.5C 413.534,484.909 411.034,481.909 409,478.5C 403.566,468.966 399.233,458.966 396,448.5C 393.79,445.71 390.956,444.877 387.5,446C 384.169,453.508 379.503,460.008 373.5,465.5C 364.863,459.528 357.196,452.528 350.5,444.5C 350.5,444.167 350.5,443.833 350.5,443.5C 373.763,442.755 397.096,442.755 420.5,443.5 Z"/></g>
<g><path style="opacity:1" fill="#343344" d="M 438.5,446.5 C 442.702,446.183 446.702,446.517 450.5,447.5C 449.093,449.308 447.926,451.308 447,453.5C 446.333,458.833 446.333,464.167 447,469.5C 447.541,475.1 450.374,478.934 455.5,481C 465.207,481.786 474.874,481.453 484.5,480C 490.25,479.055 494.083,475.889 496,470.5C 496.665,463.805 496.498,457.138 495.5,450.5C 495.5,449.5 495.5,448.5 495.5,447.5C 498.939,447.253 502.272,447.586 505.5,448.5C 508.979,459.856 508.145,470.856 503,481.5C 499.395,485.721 494.895,488.554 489.5,490C 476.549,492.804 463.549,493.137 450.5,491C 439.342,484.855 434.342,475.355 435.5,462.5C 435.103,456.849 436.103,451.516 438.5,446.5 Z"/></g>
</svg>
