<?xml version="1.0" encoding="UTF-8"?>
<!DOCTYPE svg PUBLIC "-//W3C//DTD SVG 1.1//EN" "http://www.w3.org/Graphics/SVG/1.1/DTD/svg11.dtd">
<svg xmlns="http://www.w3.org/2000/svg" version="1.1" width="512px" height="512px" style="shape-rendering:geometricPrecision; text-rendering:geometricPrecision; image-rendering:optimizeQuality; fill-rule:evenodd; clip-rule:evenodd" xmlns:xlink="http://www.w3.org/1999/xlink">
<g><path style="opacity:1" fill="#505063" d="M 418.5,39.5 C 412.915,40.288 407.248,40.788 401.5,41C 368.16,41.2937 334.827,41.7937 301.5,42.5C 306.725,33.4433 314.058,26.6099 323.5,22C 327.598,20.9938 331.764,20.4938 336,20.5C 344.786,21.9245 353.619,22.4245 362.5,22C 378.543,13.8131 393.876,14.8131 408.5,25C 412.834,29.1635 416.168,33.9969 418.5,39.5 Z"/></g>
<g><path style="opacity:1" fill="#832b2b" d="M 63.5,38.5 C 60.1052,47.6851 57.1052,57.0185 54.5,66.5C 47.6809,68.069 42.0142,71.4023 37.5,76.5C 35.8333,77.8333 34.1667,79.1667 32.5,80.5C 30.8126,69.3946 31.3126,58.3946 34,47.5C 40.1612,32.0051 49.9945,29.0051 63.5,38.5 Z"/></g>
<g><path style="opacity:1" fill="#4b4b5c" d="M 418.5,39.5 C 422.005,51.1967 421.505,62.8634 417,74.5C 415.974,77.2387 414.474,79.572 412.5,81.5C 411.715,61.7397 401.382,53.2397 381.5,56C 374.398,59.939 368.398,65.1057 363.5,71.5C 341.006,70.5025 318.339,70.1692 295.5,70.5C 295.59,60.7112 297.59,51.3778 301.5,42.5C 334.827,41.7937 368.16,41.2937 401.5,41C 407.248,40.788 412.915,40.288 418.5,39.5 Z"/></g>
<g><path style="opacity:1" fill="#c9726b" d="M 258.5,83.5 C 184.984,82.0061 111.318,79.6728 37.5,76.5C 42.0142,71.4023 47.6809,68.069 54.5,66.5C 57.1052,57.0185 60.1052,47.6851 63.5,38.5C 66.6221,32.4477 70.6221,26.9477 75.5,22C 94.9417,13.2101 108.942,18.7101 117.5,38.5C 118.924,47.1017 119.591,55.7683 119.5,64.5C 125.855,65.3383 132.188,66.3383 138.5,67.5C 138.649,66.448 138.483,65.448 138,64.5C 135,62.1667 132,59.8333 129,57.5C 128.667,50.5 128.333,43.5 128,36.5C 127.764,34.8807 126.931,33.8807 125.5,33.5C 143.562,22.5918 163.228,16.2585 184.5,14.5C 184.062,18.0723 183.396,21.5723 182.5,25C 210.968,40.4038 236.302,59.9038 258.5,83.5 Z"/></g>
<g><path style="opacity:1" fill="#832c2b" d="M 85.5,36.5 C 90.4466,35.6276 94.6132,36.9609 98,40.5C 101.725,48.0672 103.558,56.0672 103.5,64.5C 94.5,64.5 85.5,64.5 76.5,64.5C 75.1172,53.6513 78.1172,44.318 85.5,36.5 Z"/></g>
<g><path style="opacity:1" fill="#852d2d" d="M 125.5,33.5 C 126.931,33.8807 127.764,34.8807 128,36.5C 128.333,43.5 128.667,50.5 129,57.5C 132,59.8333 135,62.1667 138,64.5C 138.483,65.448 138.649,66.448 138.5,67.5C 132.188,66.3383 125.855,65.3383 119.5,64.5C 119.591,55.7683 118.924,47.1017 117.5,38.5C 120.167,36.8333 122.833,35.1667 125.5,33.5 Z"/></g>
<g><path style="opacity:1" fill="#e5cbc5" d="M 412.5,81.5 C 412.5,85.5 412.5,89.5 412.5,93.5C 394.167,93.5 375.833,93.5 357.5,93.5C 357.5,91.8333 357.5,90.1667 357.5,88.5C 358.085,82.3304 360.085,76.6637 363.5,71.5C 368.398,65.1057 374.398,59.939 381.5,56C 401.382,53.2397 411.715,61.7397 412.5,81.5 Z"/></g>
<g><path style="opacity:1" fill="#c06f67" d="M 37.5,76.5 C 111.318,79.6728 184.984,82.0061 258.5,83.5C 262.277,85.7209 263.944,89.0542 263.5,93.5C 262.596,94.209 262.263,95.209 262.5,96.5C 236.164,95.816 209.831,94.9827 183.5,94C 179.975,93.8213 176.641,93.3213 173.5,92.5C 173.822,90.2776 173.155,88.4443 171.5,87C 162.167,86.3333 152.833,86.3333 143.5,87C 142.388,89.1079 143.054,90.6079 145.5,91.5C 142.518,92.1649 139.352,92.4982 136,92.5C 99.5004,91.0862 63.0004,89.7529 26.5,88.5C 28.1223,85.5451 30.1223,82.8785 32.5,80.5C 34.1667,79.1667 35.8333,77.8333 37.5,76.5 Z"/></g>
<g><path style="opacity:1" fill="#842c2c" d="M 173.5,92.5 C 169.463,100.202 163.797,106.535 156.5,111.5C 160.904,114.033 165.571,116.033 170.5,117.5C 172.938,119.656 173.105,121.989 171,124.5C 168.999,127.331 166.833,129.997 164.5,132.5C 158.179,138.97 150.845,144.137 142.5,148C 135.212,150.541 127.879,152.874 120.5,155C 116.413,158.416 113.08,162.416 110.5,167C 109.552,167.483 108.552,167.649 107.5,167.5C 107.351,164.393 107.851,161.393 109,158.5C 110.875,153.573 114.042,149.74 118.5,147C 128.814,144.852 137.147,139.685 143.5,131.5C 144.594,129.388 145.594,127.221 146.5,125C 141.566,123.023 136.732,120.857 132,118.5C 131.251,117.365 131.417,116.365 132.5,115.5C 133.901,114.479 135.235,113.479 136.5,112.5C 143.109,108.302 148.109,102.635 151.5,95.5C 149.853,93.6736 147.853,92.3403 145.5,91.5C 143.054,90.6079 142.388,89.1079 143.5,87C 152.833,86.3333 162.167,86.3333 171.5,87C 173.155,88.4443 173.822,90.2776 173.5,92.5 Z"/></g>
<g><path style="opacity:1" fill="#c06963" d="M 26.5,88.5 C 63.0004,89.7529 99.5004,91.0862 136,92.5C 139.352,92.4982 142.518,92.1649 145.5,91.5C 147.853,92.3403 149.853,93.6736 151.5,95.5C 148.109,102.635 143.109,108.302 136.5,112.5C 112.508,111.581 88.5078,110.914 64.5,110.5C 61.4476,107.021 58.1143,106.687 54.5,109.5C 41.0931,108.826 27.7598,108.826 14.5,109.5C 17.2252,101.71 21.2252,94.7097 26.5,88.5 Z"/></g>
<g><path style="opacity:1" fill="#bf6963" d="M 173.5,92.5 C 176.641,93.3213 179.975,93.8213 183.5,94C 209.831,94.9827 236.164,95.816 262.5,96.5C 262.263,95.209 262.596,94.209 263.5,93.5C 263.657,94.8734 263.49,96.2068 263,97.5C 255.457,109.584 249.29,122.251 244.5,135.5C 217.845,134.316 191.178,133.316 164.5,132.5C 166.833,129.997 168.999,127.331 171,124.5C 173.105,121.989 172.938,119.656 170.5,117.5C 165.571,116.033 160.904,114.033 156.5,111.5C 163.797,106.535 169.463,100.202 173.5,92.5 Z"/></g>
<g><path style="opacity:1" fill="#404053" d="M 295.5,70.5 C 318.339,70.1692 341.006,70.5025 363.5,71.5C 360.085,76.6637 358.085,82.3304 357.5,88.5C 357.336,95.9503 354.669,102.45 349.5,108C 347.635,109.301 345.635,109.635 343.5,109C 339.021,101.963 332.687,99.6301 324.5,102C 317.693,105.449 315.026,110.949 316.5,118.5C 316.5,118.833 316.5,119.167 316.5,119.5C 302.323,119.884 288.323,119.884 274.5,119.5C 280.322,113.153 285.822,106.487 291,99.5C 294.663,90.1899 296.163,80.5232 295.5,70.5 Z"/></g>
<g><path style="opacity:1" fill="#d4716c" d="M 412.5,97.5 C 413.833,99.5 413.833,101.5 412.5,103.5C 409.141,105.487 405.475,105.987 401.5,105C 399.002,98.8166 401.168,95.9833 408,96.5C 409.592,96.6052 411.092,96.9386 412.5,97.5 Z"/></g>
<g><path style="opacity:1" fill="#e5e2e2" d="M 64.5,110.5 C 64.1631,116.814 61.1631,121.147 55.5,123.5C 52.6066,122.774 50.94,120.94 50.5,118C 51.6878,115.123 53.0211,112.29 54.5,109.5C 58.1143,106.687 61.4476,107.021 64.5,110.5 Z"/></g>
<g><path style="opacity:1" fill="#ba6964" d="M 54.5,109.5 C 53.0211,112.29 51.6878,115.123 50.5,118C 50.94,120.94 52.6066,122.774 55.5,123.5C 61.1631,121.147 64.1631,116.814 64.5,110.5C 88.5078,110.914 112.508,111.581 136.5,112.5C 135.235,113.479 133.901,114.479 132.5,115.5C 131.417,116.365 131.251,117.365 132,118.5C 136.732,120.857 141.566,123.023 146.5,125C 145.594,127.221 144.594,129.388 143.5,131.5C 98.8367,130.052 54.17,128.719 9.5,127.5C 10.2523,121.147 11.9189,115.147 14.5,109.5C 27.7598,108.826 41.0931,108.826 54.5,109.5 Z"/></g>
<g><path style="opacity:1" fill="#e6b7af" d="M 357.5,88.5 C 357.5,90.1667 357.5,91.8333 357.5,93.5C 375.833,93.5 394.167,93.5 412.5,93.5C 412.5,94.8333 412.5,96.1667 412.5,97.5C 411.092,96.9386 409.592,96.6052 408,96.5C 401.168,95.9833 399.002,98.8166 401.5,105C 405.475,105.987 409.141,105.487 412.5,103.5C 412.5,109.167 412.5,114.833 412.5,120.5C 380.504,119.753 348.504,119.086 316.5,118.5C 315.026,110.949 317.693,105.449 324.5,102C 332.687,99.6301 339.021,101.963 343.5,109C 345.635,109.635 347.635,109.301 349.5,108C 354.669,102.45 357.336,95.9503 357.5,88.5 Z"/></g>
<g><path style="opacity:1" fill="#d5746f" d="M 376.5,95.5 C 379.959,95.5313 383.292,96.198 386.5,97.5C 389.911,102.515 388.578,105.182 382.5,105.5C 374.87,105.243 372.87,101.91 376.5,95.5 Z"/></g>
<g><path style="opacity:1" fill="#38384b" d="M 274.5,119.5 C 288.323,119.884 302.323,119.884 316.5,119.5C 317.183,124.845 319.85,128.845 324.5,131.5C 319.559,141.096 314.225,150.429 308.5,159.5C 301.271,155.789 293.605,154.623 285.5,156C 282.826,156.67 280.493,157.837 278.5,159.5C 275.206,161.158 272.206,163.324 269.5,166C 265.848,166.499 262.182,166.665 258.5,166.5C 258.427,152.692 261.594,139.692 268,127.5C 269.946,124.58 272.113,121.913 274.5,119.5 Z"/></g>
<g><path style="opacity:1" fill="#e6aba1" d="M 316.5,118.5 C 348.504,119.086 380.504,119.753 412.5,120.5C 412.5,124.5 412.5,128.5 412.5,132.5C 402.652,128.688 392.652,128.521 382.5,132C 375.265,136.277 370.265,142.443 367.5,150.5C 356.824,146.748 347.324,141.081 339,133.5C 338.617,134.056 338.117,134.389 337.5,134.5C 333.14,133.954 328.807,132.954 324.5,131.5C 319.85,128.845 317.183,124.845 316.5,119.5C 316.5,119.167 316.5,118.833 316.5,118.5 Z"/></g>
<g><path style="opacity:1" fill="#38384b" d="M 412.5,132.5 C 415.038,135.245 416.538,138.578 417,142.5C 420.394,155.228 420.228,167.894 416.5,180.5C 412.905,191.692 407.238,201.692 399.5,210.5C 393.372,206.21 387.372,201.71 381.5,197C 377.556,194.859 373.556,193.025 369.5,191.5C 360.218,186.382 353.552,178.882 349.5,169C 348.833,168.333 348.167,168.333 347.5,169C 345.983,170.685 344.316,172.185 342.5,173.5C 332.659,161.585 330.992,148.585 337.5,134.5C 338.117,134.389 338.617,134.056 339,133.5C 347.324,141.081 356.824,146.748 367.5,150.5C 370.265,142.443 375.265,136.277 382.5,132C 392.652,128.521 402.652,128.688 412.5,132.5 Z"/></g>
<g><path style="opacity:1" fill="#d26f6a" d="M 324.5,131.5 C 328.807,132.954 333.14,133.954 337.5,134.5C 330.992,148.585 332.659,161.585 342.5,173.5C 344.316,172.185 345.983,170.685 347.5,169C 348.167,168.333 348.833,168.333 349.5,169C 353.552,178.882 360.218,186.382 369.5,191.5C 363.53,194.361 357.196,195.694 350.5,195.5C 338.358,191.55 328.191,184.55 320,174.5C 315.673,169.83 311.84,164.83 308.5,159.5C 314.225,150.429 319.559,141.096 324.5,131.5 Z"/></g>
<g><path style="opacity:1" fill="#b6635c" d="M 9.5,127.5 C 54.17,128.719 98.8367,130.052 143.5,131.5C 137.147,139.685 128.814,144.852 118.5,147C 114.042,149.74 110.875,153.573 109,158.5C 107.851,161.393 107.351,164.393 107.5,167.5C 108.552,167.649 109.552,167.483 110.5,167C 113.08,162.416 116.413,158.416 120.5,155C 127.879,152.874 135.212,150.541 142.5,148C 150.845,144.137 158.179,138.97 164.5,132.5C 191.178,133.316 217.845,134.316 244.5,135.5C 243.934,139.797 241.934,143.297 238.5,146C 224.277,153.062 211.61,162.229 200.5,173.5C 137.164,171.569 73.8311,169.569 10.5,167.5C 11.3048,162.699 11.9715,157.866 12.5,153C 11.2255,144.522 10.2255,136.022 9.5,127.5 Z"/></g>
<g><path style="opacity:1" fill="#2d4558" d="M 278.5,159.5 C 284.098,163.263 288.932,167.93 293,173.5C 298.912,185.563 304.245,197.897 309,210.5C 314.085,217.422 320.252,223.088 327.5,227.5C 333.92,231.459 340.753,234.792 348,237.5C 348.617,238.449 348.451,239.282 347.5,240C 329.993,239.664 315.159,233.164 303,220.5C 296.141,211.115 291.141,200.782 288,189.5C 286.111,185.033 283.278,181.366 279.5,178.5C 275.074,180.097 272.74,183.264 272.5,188C 281.508,231.341 307.841,256.674 351.5,264C 377.968,266.011 400.968,258.178 420.5,240.5C 407.056,261.744 387.722,274.244 362.5,278C 325.006,279.671 296.173,264.838 276,233.5C 270.752,223.418 266.085,213.085 262,202.5C 255.728,194.684 247.561,191.018 237.5,191.5C 233.5,191.5 229.5,191.5 225.5,191.5C 230.724,175.705 241.724,167.372 258.5,166.5C 262.182,166.665 265.848,166.499 269.5,166C 272.206,163.324 275.206,161.158 278.5,159.5 Z"/></g>
<g><path style="opacity:1" fill="#af5c56" d="M 10.5,167.5 C 73.8311,169.569 137.164,171.569 200.5,173.5C 189.56,186.365 180.894,200.698 174.5,216.5C 150.829,215.524 127.163,214.524 103.5,213.5C 100.707,208.226 97.7072,203.226 94.5,198.5C 93.854,194.203 92.354,190.203 90,186.5C 82.1282,199.356 71.2948,208.856 57.5,215C 49.8984,216.523 42.2318,216.856 34.5,216C 30.3812,215.356 26.7145,213.856 23.5,211.5C 29.1489,206.052 31.3156,199.385 30,191.5C 28.5422,189.04 26.7089,186.873 24.5,185C 18.9462,182.062 13.6129,178.896 8.5,175.5C 8.96283,172.779 9.6295,170.112 10.5,167.5 Z"/></g>
<g><path style="opacity:1" fill="#3f3e51" d="M 8.5,175.5 C 13.6129,178.896 18.9462,182.062 24.5,185C 26.7089,186.873 28.5422,189.04 30,191.5C 31.3156,199.385 29.1489,206.052 23.5,211.5C 10.5668,208.885 4.2335,200.885 4.5,187.5C 5.2305,184.891 5.7305,182.224 6,179.5C 6.6082,177.934 7.44153,176.6 8.5,175.5 Z"/></g>
<g><path style="opacity:1" fill="#e7cbc5" d="M 225.5,191.5 C 229.5,191.5 233.5,191.5 237.5,191.5C 242.686,193.843 246.852,197.509 250,202.5C 256.072,225.975 266.405,247.309 281,266.5C 309.835,297.803 344.002,304.969 383.5,288C 401.271,280.892 415.437,269.392 426,253.5C 427.632,273.022 423.299,291.022 413,307.5C 410.63,310.039 408.13,312.372 405.5,314.5C 374.322,312.251 343.322,309.585 312.5,306.5C 312.739,304.533 312.406,302.699 311.5,301C 309.2,300.342 306.867,299.842 304.5,299.5C 300.187,299.826 298.52,302.159 299.5,306.5C 290.189,305.579 280.856,304.912 271.5,304.5C 262.805,296.806 256.305,287.472 252,276.5C 250.644,275.62 249.144,275.286 247.5,275.5C 247.084,284.352 248.084,293.019 250.5,301.5C 249.207,302.158 247.707,302.492 246,302.5C 225.71,300.609 205.544,299.276 185.5,298.5C 184.627,271.401 189.46,245.401 200,220.5C 206.203,208.722 214.703,199.056 225.5,191.5 Z"/></g>
<g><path style="opacity:1" fill="#d3716b" d="M 237.5,191.5 C 247.561,191.018 255.728,194.684 262,202.5C 266.085,213.085 270.752,223.418 276,233.5C 296.173,264.838 325.006,279.671 362.5,278C 387.722,274.244 407.056,261.744 420.5,240.5C 422.653,238.206 424.32,235.54 425.5,232.5C 428.583,225.575 431.249,218.575 433.5,211.5C 435.833,213.167 437.833,215.167 439.5,217.5C 437.97,225.441 435.637,233.275 432.5,241C 438.391,265.79 437.391,290.29 429.5,314.5C 428.379,316.741 427.213,319.075 426,321.5C 425.646,332.18 425.146,342.847 424.5,353.5C 423.634,357.96 422.301,362.293 420.5,366.5C 414.901,363.562 409.567,360.229 404.5,356.5C 404.5,355.5 404.5,354.5 404.5,353.5C 404.5,345.167 404.5,336.833 404.5,328.5C 395.586,330.329 386.586,330.829 377.5,330C 375.473,328.604 375.14,326.938 376.5,325C 383.916,323.313 391.25,321.313 398.5,319C 401.239,317.974 403.572,316.474 405.5,314.5C 408.13,312.372 410.63,310.039 413,307.5C 423.299,291.022 427.632,273.022 426,253.5C 415.437,269.392 401.271,280.892 383.5,288C 344.002,304.969 309.835,297.803 281,266.5C 266.405,247.309 256.072,225.975 250,202.5C 246.852,197.509 242.686,193.843 237.5,191.5 Z"/></g>
<g><path style="opacity:1" fill="#e6e5e5" d="M 94.5,198.5 C 97.7072,203.226 100.707,208.226 103.5,213.5C 115.811,236.271 132.811,254.771 154.5,269C 157.174,268.847 159.84,268.347 162.5,267.5C 161.208,283.497 161.208,299.497 162.5,315.5C 159.681,317.097 156.681,317.597 153.5,317C 131.435,296.673 114.435,272.839 102.5,245.5C 101.87,229.444 99.2032,213.777 94.5,198.5 Z"/></g>
<g><path style="opacity:1" fill="#6c7f98" d="M 308.5,159.5 C 311.84,164.83 315.673,169.83 320,174.5C 328.191,184.55 338.358,191.55 350.5,195.5C 356.063,200.96 362.396,205.46 369.5,209C 372.333,211.833 375.167,214.667 378,217.5C 380.05,220.148 381.216,223.148 381.5,226.5C 383.199,226.66 384.866,226.494 386.5,226C 391.044,220.96 395.378,215.794 399.5,210.5C 407.238,201.692 412.905,191.692 416.5,180.5C 432.402,185.307 438.068,195.641 433.5,211.5C 431.249,218.575 428.583,225.575 425.5,232.5C 392.821,231.033 360.155,229.366 327.5,227.5C 320.252,223.088 314.085,217.422 309,210.5C 304.245,197.897 298.912,185.563 293,173.5C 288.932,167.93 284.098,163.263 278.5,159.5C 280.493,157.837 282.826,156.67 285.5,156C 293.605,154.623 301.271,155.789 308.5,159.5 Z"/></g>
<g><path style="opacity:1" fill="#2c4457" d="M 369.5,191.5 C 373.556,193.025 377.556,194.859 381.5,197C 387.372,201.71 393.372,206.21 399.5,210.5C 395.378,215.794 391.044,220.96 386.5,226C 384.866,226.494 383.199,226.66 381.5,226.5C 381.216,223.148 380.05,220.148 378,217.5C 375.167,214.667 372.333,211.833 369.5,209C 362.396,205.46 356.063,200.96 350.5,195.5C 357.196,195.694 363.53,194.361 369.5,191.5 Z"/></g>
<g><path style="opacity:1" fill="#a75650" d="M 103.5,213.5 C 127.163,214.524 150.829,215.524 174.5,216.5C 167.96,232.861 163.96,249.861 162.5,267.5C 159.84,268.347 157.174,268.847 154.5,269C 132.811,254.771 115.811,236.271 103.5,213.5 Z"/></g>
<g><path style="opacity:1" fill="#e7cbc5" d="M 439.5,217.5 C 446.503,228.185 451.336,239.852 454,252.5C 457.103,268.729 457.936,285.062 456.5,301.5C 456.963,307.282 457.963,312.948 459.5,318.5C 451.344,317.81 443.177,317.144 435,316.5C 432.705,316.453 430.871,315.787 429.5,314.5C 437.391,290.29 438.391,265.79 432.5,241C 435.637,233.275 437.97,225.441 439.5,217.5 Z"/></g>
<g><path style="opacity:1" fill="#62758e" d="M 327.5,227.5 C 360.155,229.366 392.821,231.033 425.5,232.5C 424.32,235.54 422.653,238.206 420.5,240.5C 400.968,258.178 377.968,266.011 351.5,264C 307.841,256.674 281.508,231.341 272.5,188C 272.74,183.264 275.074,180.097 279.5,178.5C 283.278,181.366 286.111,185.033 288,189.5C 291.141,200.782 296.141,211.115 303,220.5C 315.159,233.164 329.993,239.664 347.5,240C 348.451,239.282 348.617,238.449 348,237.5C 340.753,234.792 333.92,231.459 327.5,227.5 Z"/></g>
<g><path style="opacity:1" fill="#a2514b" d="M 102.5,245.5 C 114.435,272.839 131.435,296.673 153.5,317C 156.681,317.597 159.681,317.097 162.5,315.5C 163.376,318.799 163.543,322.132 163,325.5C 152.851,357.024 148.518,389.358 150,422.5C 146.073,425.448 142.739,424.782 140,420.5C 122.33,400.839 108.997,378.506 100,353.5C 98.9481,347.7 98.1148,341.867 97.5,336C 101.852,305.984 103.519,275.818 102.5,245.5 Z"/></g>
<g><path style="opacity:1" fill="#d4716b" d="M 271.5,304.5 C 282.057,314.114 294.39,320.614 308.5,324C 316.802,325.552 325.135,326.718 333.5,327.5C 334.747,329.006 334.747,330.506 333.5,332C 309.676,339.107 287.343,336.107 266.5,323C 259.551,316.89 254.217,309.723 250.5,301.5C 248.084,293.019 247.084,284.352 247.5,275.5C 249.144,275.286 250.644,275.62 252,276.5C 256.305,287.472 262.805,296.806 271.5,304.5 Z"/></g>
<g><path style="opacity:1" fill="#d5756f" d="M 394.5,297.5 C 402.045,298.062 403.378,301.229 398.5,307C 395.833,307.667 393.167,307.667 390.5,307C 387.099,301.746 388.432,298.579 394.5,297.5 Z"/></g>
<g><path style="opacity:1" fill="#d4736e" d="M 312.5,306.5 C 308.263,309.039 303.93,309.039 299.5,306.5C 298.52,302.159 300.187,299.826 304.5,299.5C 306.867,299.842 309.2,300.342 311.5,301C 312.406,302.699 312.739,304.533 312.5,306.5 Z"/></g>
<g><path style="opacity:1" fill="#e7bdb5" d="M 250.5,301.5 C 254.217,309.723 259.551,316.89 266.5,323C 287.343,336.107 309.676,339.107 333.5,332C 334.747,330.506 334.747,329.006 333.5,327.5C 325.135,326.718 316.802,325.552 308.5,324C 294.39,320.614 282.057,314.114 271.5,304.5C 280.856,304.912 290.189,305.579 299.5,306.5C 303.93,309.039 308.263,309.039 312.5,306.5C 343.322,309.585 374.322,312.251 405.5,314.5C 403.572,316.474 401.239,317.974 398.5,319C 391.25,321.313 383.916,323.313 376.5,325C 375.14,326.938 375.473,328.604 377.5,330C 386.586,330.829 395.586,330.329 404.5,328.5C 404.5,336.833 404.5,345.167 404.5,353.5C 403.849,354.091 403.182,354.757 402.5,355.5C 388.884,354.051 375.217,352.884 361.5,352C 360.915,350.698 360.249,349.531 359.5,348.5C 359.312,344.936 358.312,341.603 356.5,338.5C 355.675,337.614 354.675,337.281 353.5,337.5C 352.514,341.97 352.181,346.637 352.5,351.5C 324.539,349.042 296.539,347.042 268.5,345.5C 263.413,336.086 259.58,326.086 257,315.5C 253.934,324.723 248.434,332.056 240.5,337.5C 239.614,338.325 239.281,339.325 239.5,340.5C 237.785,341.657 235.785,342.324 233.5,342.5C 214.787,340.543 196.12,339.543 177.5,339.5C 179.985,331.855 182.485,324.188 185,316.5C 185.499,310.509 185.666,304.509 185.5,298.5C 205.544,299.276 225.71,300.609 246,302.5C 247.707,302.492 249.207,302.158 250.5,301.5 Z"/></g>
<g><path style="opacity:1" fill="#e7bcb5" d="M 429.5,314.5 C 430.871,315.787 432.705,316.453 435,316.5C 443.177,317.144 451.344,317.81 459.5,318.5C 468.28,331.398 474.947,345.398 479.5,360.5C 461.125,359.574 442.792,358.24 424.5,356.5C 424.5,355.5 424.5,354.5 424.5,353.5C 425.146,342.847 425.646,332.18 426,321.5C 427.213,319.075 428.379,316.741 429.5,314.5 Z"/></g>
<g><path style="opacity:1" fill="#d4726c" d="M 353.5,337.5 C 354.675,337.281 355.675,337.614 356.5,338.5C 358.312,341.603 359.312,344.936 359.5,348.5C 359.812,352.675 359.145,356.675 357.5,360.5C 364.375,362.038 371.042,361.371 377.5,358.5C 378.167,358.833 378.833,359.167 379.5,359.5C 374.475,366.012 367.809,369.346 359.5,369.5C 360.689,373.817 360.689,378.15 359.5,382.5C 358.661,383.641 357.994,384.974 357.5,386.5C 356.675,387.386 355.675,387.719 354.5,387.5C 354.817,383.298 354.483,379.298 353.5,375.5C 353.739,373.533 353.406,371.699 352.5,370C 343.683,371.682 335.35,370.349 327.5,366C 325.561,365.092 324.561,363.592 324.5,361.5C 329.579,362.748 334.745,363.415 340,363.5C 348.244,365.119 352.577,361.786 353,353.5C 353.499,348.177 353.666,342.844 353.5,337.5 Z"/></g>
<g><path style="opacity:1" fill="#e7b3ab" d="M 239.5,340.5 C 238.762,351.958 236.429,362.958 232.5,373.5C 213.179,371.953 193.846,370.453 174.5,369C 172.867,368.52 171.534,367.687 170.5,366.5C 171.755,357.143 174.089,348.143 177.5,339.5C 196.12,339.543 214.787,340.543 233.5,342.5C 235.785,342.324 237.785,341.657 239.5,340.5 Z"/></g>
<g><path style="opacity:1" fill="#e6b3ab" d="M 353.5,337.5 C 353.666,342.844 353.499,348.177 353,353.5C 352.577,361.786 348.244,365.119 340,363.5C 334.745,363.415 329.579,362.748 324.5,361.5C 324.561,363.592 325.561,365.092 327.5,366C 335.35,370.349 343.683,371.682 352.5,370C 353.406,371.699 353.739,373.533 353.5,375.5C 353.5,377.833 353.5,380.167 353.5,382.5C 329.175,380.642 304.842,378.808 280.5,377C 279.956,376.283 279.289,375.783 278.5,375.5C 276.962,364.885 273.628,354.885 268.5,345.5C 296.539,347.042 324.539,349.042 352.5,351.5C 352.181,346.637 352.514,341.97 353.5,337.5 Z"/></g>
<g><path style="opacity:1" fill="#e6b3ab" d="M 359.5,348.5 C 360.249,349.531 360.915,350.698 361.5,352C 375.217,352.884 388.884,354.051 402.5,355.5C 403.182,354.757 403.849,354.091 404.5,353.5C 404.5,354.5 404.5,355.5 404.5,356.5C 404.495,366.557 403.828,376.557 402.5,386.5C 388.134,385.213 373.801,383.879 359.5,382.5C 360.689,378.15 360.689,373.817 359.5,369.5C 367.809,369.346 374.475,366.012 379.5,359.5C 378.833,359.167 378.167,358.833 377.5,358.5C 371.042,361.371 364.375,362.038 357.5,360.5C 359.145,356.675 359.812,352.675 359.5,348.5 Z"/></g>
<g><path style="opacity:1" fill="#e7aa9e" d="M 170.5,366.5 C 171.534,367.687 172.867,368.52 174.5,369C 193.846,370.453 213.179,371.953 232.5,373.5C 230.21,383.08 226.043,391.746 220,399.5C 219.338,401.813 218.838,404.146 218.5,406.5C 202.213,404.862 185.88,403.529 169.5,402.5C 169.358,390.482 169.691,378.482 170.5,366.5 Z"/></g>
<g><path style="opacity:1" fill="#e7b0a6" d="M 424.5,353.5 C 424.5,354.5 424.5,355.5 424.5,356.5C 442.792,358.24 461.125,359.574 479.5,360.5C 482.494,370.3 484.66,380.3 486,390.5C 488.271,395.817 490.437,401.15 492.5,406.5C 472.732,404.542 453.065,403.209 433.5,402.5C 424.44,392.328 420.107,380.328 420.5,366.5C 422.301,362.293 423.634,357.96 424.5,353.5 Z"/></g>
<g><path style="opacity:1" fill="#7d8fa7" d="M 279.5,388.5 C 309.308,411.28 341.975,416.446 377.5,404C 385.996,399.639 394.33,395.139 402.5,390.5C 406.514,390.56 409.681,392.227 412,395.5C 416.264,402.027 419.431,409.027 421.5,416.5C 375.862,415.682 330.195,415.182 284.5,415C 277.754,414.795 271.087,414.295 264.5,413.5C 265.165,406.671 267.332,400.337 271,394.5C 273.279,391.619 276.112,389.619 279.5,388.5 Z"/></g>
<g><path style="opacity:1" fill="#e6aa9f" d="M 278.5,375.5 C 279.289,375.783 279.956,376.283 280.5,377C 304.842,378.808 329.175,380.642 353.5,382.5C 353.5,380.167 353.5,377.833 353.5,375.5C 354.483,379.298 354.817,383.298 354.5,387.5C 355.675,387.719 356.675,387.386 357.5,386.5C 357.994,384.974 358.661,383.641 359.5,382.5C 373.801,383.879 388.134,385.213 402.5,386.5C 402.5,387.833 402.5,389.167 402.5,390.5C 394.33,395.139 385.996,399.639 377.5,404C 341.975,416.446 309.308,411.28 279.5,388.5C 279.533,384.131 279.2,379.798 278.5,375.5 Z"/></g>
<g><path style="opacity:1" fill="#e7a196" d="M 169.5,402.5 C 185.88,403.529 202.213,404.862 218.5,406.5C 218.31,416.71 217.643,426.877 216.5,437C 218.035,442.871 220.868,448.038 225,452.5C 226.975,464.839 226.975,477.172 225,489.5C 223.5,492.333 221.333,494.5 218.5,496C 204.833,496.667 191.167,496.667 177.5,496C 173.667,494.833 171.167,492.333 170,488.5C 166.215,465.054 166.715,441.72 171.5,418.5C 170.832,413.153 170.166,407.82 169.5,402.5 Z"/></g>
<g><path style="opacity:1" fill="#2b4457" d="M 264.5,415.5 C 264.932,425.698 269.099,434.031 277,440.5C 282.047,437.12 286.047,432.786 289,427.5C 297.749,440.245 309.416,449.245 324,454.5C 330.035,449.965 335.202,444.632 339.5,438.5C 341.281,441.091 343.281,443.425 345.5,445.5C 353.174,458.172 363.507,468.172 376.5,475.5C 383.691,469.457 389.191,462.124 393,453.5C 397.607,466.045 403.274,478.045 410,489.5C 411.728,492.33 413.895,494.663 416.5,496.5C 359.167,496.5 301.833,496.5 244.5,496.5C 245.39,467.942 252.057,440.942 264.5,415.5 Z"/></g>
<g><path style="opacity:1" fill="#e7a297" d="M 492.5,406.5 C 500.868,427.003 505.534,448.337 506.5,470.5C 504.852,482.645 497.852,489.145 485.5,490C 475.83,491.953 466.163,491.953 456.5,490C 444.148,485.022 439.315,475.855 442,462.5C 443.211,455.065 446.711,449.065 452.5,444.5C 462.62,440.351 472.953,439.684 483.5,442.5C 485.167,442.167 486.167,441.167 486.5,439.5C 482.158,434.312 476.491,431.479 469.5,431C 466.333,430.833 463.167,430.667 460,430.5C 456.424,430.515 453.258,431.182 450.5,432.5C 446.92,421.343 441.254,411.343 433.5,402.5C 453.065,403.209 472.732,404.542 492.5,406.5 Z"/></g>
<g><path style="opacity:1" fill="#d4716b" d="M 452.5,444.5 C 451.962,440.476 451.295,436.476 450.5,432.5C 453.258,431.182 456.424,430.515 460,430.5C 463.167,430.667 466.333,430.833 469.5,431C 476.491,431.479 482.158,434.312 486.5,439.5C 486.167,441.167 485.167,442.167 483.5,442.5C 472.953,439.684 462.62,440.351 452.5,444.5 Z"/></g>
<g><path style="opacity:1" fill="#71849e" d="M 264.5,413.5 C 271.087,414.295 277.754,414.795 284.5,415C 330.195,415.182 375.862,415.682 421.5,416.5C 425.537,425.652 427.871,435.319 428.5,445.5C 401.003,446.071 373.336,446.071 345.5,445.5C 343.281,443.425 341.281,441.091 339.5,438.5C 335.202,444.632 330.035,449.965 324,454.5C 309.416,449.245 297.749,440.245 289,427.5C 286.047,432.786 282.047,437.12 277,440.5C 269.099,434.031 264.932,425.698 264.5,415.5C 264.5,414.833 264.5,414.167 264.5,413.5 Z"/></g>
<g><path style="opacity:1" fill="#667992" d="M 345.5,445.5 C 373.336,446.071 401.003,446.071 428.5,445.5C 430.962,458.697 430.795,472.031 428,485.5C 428.187,493.482 424.353,497.148 416.5,496.5C 413.895,494.663 411.728,492.33 410,489.5C 403.274,478.045 397.607,466.045 393,453.5C 389.191,462.124 383.691,469.457 376.5,475.5C 363.507,468.172 353.174,458.172 345.5,445.5 Z"/></g>
</svg>
