<?xml version="1.0" encoding="UTF-8"?>
<svg version="1.1" xmlns="http://www.w3.org/2000/svg" width="512" height="512">
<path d="M0 0 C2.31750369 2.20642509 2.98158841 3.3604396 3.07421875 6.578125 C2.94660156 7.45984375 2.81898438 8.3415625 2.6875 9.25 C2.56761719 10.14203125 2.44773438 11.0340625 2.32421875 11.953125 C2.21722656 12.62859375 2.11023438 13.3040625 2 14 C2.8353125 14.2371875 3.670625 14.474375 4.53125 14.71875 C8.56101288 16.20722097 11.89606005 18.19247305 15.5 20.5 C16.19778564 20.94287354 16.89557129 21.38574707 17.61450195 21.84204102 C29.45955317 29.43054952 40.406135 37.75366316 51 47 C51.71542969 47.61488281 52.43085938 48.22976562 53.16796875 48.86328125 C83.42954049 75.00678343 83.42954049 75.00678343 84.4375 82.0625 C84 85 84 85 82.3125 86.9375 C79.26745889 88.33657294 78.17385004 88.06080163 75 87 C72.91276286 85.22989971 71.0843691 83.50387703 69.2109375 81.53125 C68.39503647 80.69974426 68.39503647 80.69974426 67.56265259 79.85144043 C65.82363085 78.07688658 64.09850062 76.28962203 62.375 74.5 C54.60278537 66.4727769 46.84871303 58.86747646 38 52 C37.27683594 51.42330566 36.55367187 50.84661133 35.80859375 50.25244141 C22.49081159 39.64860384 8.42846607 30.8060289 -6.40234375 22.49609375 C-9 21 -9 21 -10 20 C-10.14115161 17.32941149 -10.04247107 14.67567762 -10 12 C-24.18331236 15.69342955 -37.83159309 19.51567361 -51 26 C-52.57974609 26.59941406 -52.57974609 26.59941406 -54.19140625 27.2109375 C-57.2341776 28.53976949 -58.96288099 29.36513481 -61 32 C-61.83539343 37.46260509 -61.58531863 42.524019 -61 48 C-60.05125 48.11859375 -59.1025 48.2371875 -58.125 48.359375 C-55 49 -55 49 -53 51.25 C-52 54 -52 54 -52.6875 56.75 C-54 59 -54 59 -56 60 C-57.96007226 59.98857101 -59.92014609 59.89338782 -61.875 59.75 C-62.92429687 59.68296875 -63.97359375 59.6159375 -65.0546875 59.546875 C-68.31299681 58.94188388 -69.61700314 58.25999742 -72 56 C-72.57421875 53.79858398 -72.57421875 53.79858398 -72.6875 51.24609375 C-72.74679688 50.30830078 -72.80609375 49.37050781 -72.8671875 48.40429688 C-72.91101563 47.42525391 -72.95484375 46.44621094 -73 45.4375 C-73.40122947 36.72255979 -74.3129728 28.57396614 -79.96484375 21.5625 C-85.59579956 17.10233698 -89.53430544 14.48513316 -97.0234375 14.765625 C-102.27963785 15.38888986 -105.21629862 17.9589885 -108.5 21.875 C-115.49045125 31.41164211 -120.42852585 43.55461325 -122.37109375 55.23046875 C-122.6875 57.0625 -122.6875 57.0625 -124 60 C-126.83130022 61.79135343 -129.85608515 62.87284082 -133 64 C-147.03091307 69.3082732 -155.82031841 84.87794518 -161.9375 97.9375 C-164.99207729 104.84588091 -166.31403758 111.07014304 -166.1875 118.5625 C-166.1865332 119.65594727 -166.1865332 119.65594727 -166.18554688 120.77148438 C-166.15158087 124.96439907 -165.70097493 128.85986683 -165 133 C-164.58029792 142.24320619 -164.85625661 150.96565287 -167 160 C-165.55367187 160.88751953 -165.55367187 160.88751953 -164.078125 161.79296875 C-162.80179064 162.59067772 -161.5257652 163.38888111 -160.25 164.1875 C-159.61578125 164.57486328 -158.9815625 164.96222656 -158.328125 165.36132812 C-153.52127338 168.39064608 -150.22621386 171.48918115 -147.6875 176.6875 C-146.40567585 182.86356183 -147.1634277 189.3268554 -150 195 C-141.7776307 197.74078977 -133.53336828 196.75249555 -125.8125 193.0625 C-114.77115969 186.91602997 -106.86073858 179.5263049 -100.0625 169 C-98 167 -98 167 -94.25 166.6875 C-92.64125 166.8421875 -92.64125 166.8421875 -91 167 C-88.23990383 172.42277719 -85.502689 177.83905313 -83.01953125 183.39453125 C-72.87836965 205.9029631 -55.33511541 235.82893411 -32 247 C-24.85931376 246.73376935 -19.00512643 242.514521 -13 239 C-11.47632813 238.20335937 -11.47632813 238.20335937 -9.921875 237.390625 C-1.61203411 232.44104764 0.03781733 226.55123309 2.5546875 217.7421875 C7.03878302 202.24651563 17.111661 185.43593883 30.5625 176.25 C33.15870766 173.85350062 34.12816398 171.95295048 35.6875 168.8125 C40.11141047 160.32766659 46.94757598 154.13840442 55.8828125 150.640625 C58.93309966 149.71765988 61.8257167 149.27015177 65 149 C65.01417969 148.2471875 65.02835938 147.494375 65.04296875 146.71875 C65.8896247 127.86349317 73.25543492 111.86773719 86 98 C87.05734316 97.07363403 88.13651733 96.17057041 89.25 95.3125 C95.81935555 89.7882692 98.67247681 82.33494915 100 74 C100.3175517 69.90559054 100.4465989 65.8041057 100.59350586 61.70068359 C101.34717826 43.08688993 105.50941348 27.67904277 119.4375 14.6875 C128.45670178 7.02422552 137.5333896 4.54938104 149.3125 5.3125 C153.28316202 5.65487511 157.10079461 6.19235474 161 7 C168.56624776 7.67555784 174.88056878 5.4250867 182 3 C190.64924275 0.11691908 202.29083052 1.10209919 210.57421875 4.671875 C221.57782824 10.69639549 229.08529745 19.38170684 233.0859375 31.2109375 C234.10876235 35.45085247 234.38387893 39.28273357 234.375 43.625 C234.37411377 44.4097168 234.37322754 45.19443359 234.37231445 46.00292969 C234.21282577 53.94659965 232.66615668 61.67175259 228.4519043 68.51318359 C226.46960809 73.27376111 226.56965882 77.47939072 226.6015625 82.5859375 C226.59869232 83.60168854 226.59582214 84.61743958 226.59286499 85.66397095 C226.59082858 87.80723632 226.59632873 89.95052045 226.60888672 92.09375 C226.62491258 95.3571987 226.60904028 98.61940268 226.58984375 101.8828125 C226.59182691 103.97135688 226.59567208 106.05990049 226.6015625 108.1484375 C226.59245346 109.60037003 226.59245346 109.60037003 226.5831604 111.08163452 C226.6450979 117.11397792 227.62017114 121.45917422 230 127 C232.04428029 133.78411012 232.00591831 140.04371807 231.6159668 147.07470703 C230.68235018 157.68393249 230.68235018 157.68393249 234.265625 167.21875 C237.09758949 169.06634181 239.97143281 170.50698443 243 172 C246.65485256 175.77100254 247.97970999 179.32146302 248.04296875 184.5546875 C247.98753906 185.83601562 247.93210937 187.11734375 247.875 188.4375 C247.63008929 195.26778767 248.80882328 198.34364592 253.0625 203.56640625 C267.81139199 222.09172825 270.38295275 251.4107756 269.8828125 274.08325195 C269.57056266 289.25664254 271.03809605 299.42348694 278.86083984 312.57495117 C288.38031659 328.60856408 293.82158139 346.45127196 296.9375 364.75 C298.32900664 372.85143023 300.70626032 379.65426903 304.19921875 387.05859375 C310.42706481 400.34488773 313.55992913 414.60673354 316 429 C316.28617187 430.670625 316.28617187 430.670625 316.578125 432.375 C319.37084324 456.37169007 319.37084324 456.37169007 314.5625 465.125 C307.94387694 473.48617047 298.45459541 475.48565403 288.28564453 476.77294922 C284.21264345 477.17755197 280.15402922 477.32779936 276.0625 477.375 C275.29437988 477.38893799 274.52625977 477.40287598 273.73486328 477.41723633 C265.72985077 477.35071507 258.46060346 475.34075728 252.50390625 469.8125 C245.47800748 461.3449233 245.35519199 450.50925269 245.80761719 440.06005859 C246.30131174 434.77351719 248.30516712 430.08314781 251.63671875 425.98828125 C253.55667157 423.18812084 253.13432313 420.87167139 252.6328125 417.6171875 C249.76916444 405.7737048 243.19482356 395.65776679 235.375 386.5 C227.51291097 377.12442534 223.62305934 366.38438147 223.75 354.1875 C223.74226563 353.42501953 223.73453125 352.66253906 223.7265625 351.87695312 C223.74645075 346.25354925 223.74645075 346.25354925 226 344 C231.12974575 343.45428237 231.12974575 343.45428237 233.64453125 345.03125 C235.71468538 348.03804448 235.53863064 351.27459802 235.75 354.8125 C236.83590021 366.8472522 241.60512571 375.84855259 249.953125 384.6171875 C257.06758013 392.89928221 260.96230238 402.79769565 264.08984375 413.11328125 C264.71416341 415.86808173 264.71416341 415.86808173 266 417 C267.98262107 416.85347144 269.96157473 416.65653489 271.9375 416.4375 C278.68109309 415.86688828 285.32938339 415.73135501 291.25 419.390625 C293 421 293 421 293.4375 424 C293 427 293 427 292 428.9375 C289.340793 430.35020372 287.40737308 429.81644667 284.515625 429.33984375 C278.14828736 428.47965994 271.59223246 428.18140027 265.4375 430.125 C261.59462552 433.08105729 259.52224866 436.43325401 258 441 C257.24276932 448.46058424 257.9066448 455.54412189 262 462 C270.32067166 467.2127528 281.64319763 465.2343206 290.8125 463.75 C291.90655151 463.58612793 291.90655151 463.58612793 293.02270508 463.41894531 C297.68752034 462.60095216 300.66188236 461.38262587 304 458 C311.61814766 435.14555703 297.66729952 403.12996865 288.875 382.33984375 C286.54510975 376.45141019 285.24297276 370.57364849 284.0625 364.375 C279.97496042 343.12452879 272.24508557 324.62193836 261.375 305.88671875 C258.29158219 299.4132933 257.71081234 293.14921598 257.69140625 286.1015625 C257.66621076 284.38671587 257.64081335 282.6718722 257.61523438 280.95703125 C257.5867993 278.3074651 257.56273673 275.65795115 257.54370117 273.00830078 C257.41053368 257.43502104 256.37836213 242.10385112 251.0625 227.3125 C250.70381836 226.23452148 250.70381836 226.23452148 250.33789062 225.13476562 C248.70620692 220.40331341 246.59591883 216.27793968 244 212 C240.72453085 216.91320372 239.71191522 220.1059131 240.375 226 C242.39070985 247.68709511 241.15898056 274.57639797 228 293 C227.34435059 293.60263672 226.68870117 294.20527344 226.01318359 294.82617188 C221.79211215 298.75493577 219.59089348 301.73671219 219.13916016 307.63165283 C219.01768191 311.34180097 219.05911447 315.03919154 219.125 318.75 C219.12253277 321.15030846 219.10530838 323.55023267 219.08734131 325.95046997 C219.0759747 327.57404128 219.06902757 329.19764946 219.06646729 330.82125854 C219.04383016 338.78321553 218.58058156 346.68668305 218 354.625 C217.87455811 356.46336426 217.87455811 356.46336426 217.74658203 358.33886719 C217.13595042 366.72809917 217.13595042 366.72809917 216 369 C217.0828125 369.309375 217.0828125 369.309375 218.1875 369.625 C227.68350177 374.26748975 232.48970322 388.40649004 235.7421875 397.859375 C242.91284726 420.06121746 245.17563628 442.44821517 241.75 465.625 C241.64091309 466.38804443 241.53182617 467.15108887 241.41943359 467.93725586 C240.58958783 472.75808331 239.15862899 476.133002 236 480 C232.92020054 482.17397609 229.64570418 483.07273831 225.87890625 482.90625 C219.71731748 481.69489796 216.56415769 478.2181504 212.97265625 473.125 C208.37725366 465.60695895 204.49801318 458.09578052 201 450 C200.25621094 450.74636719 199.51242187 451.49273437 198.74609375 452.26171875 C194.0076074 456.98672434 194.0076074 456.98672434 192.0625 458.8125 C191.12083984 459.71935547 191.12083984 459.71935547 190.16015625 460.64453125 C187.20990259 462.49577541 185.43057376 462.4544964 182 462 C169.81453959 455.53689106 157.85535173 443.24743543 150 432 C150 431.34 150 430.68 150 430 C149.34 430 148.68 430 148 430 C147.7421875 430.59425781 147.484375 431.18851562 147.21875 431.80078125 C145.90163023 434.177507 144.58656066 435.46785573 142.5 437.1875 C141.8915625 437.69667969 141.283125 438.20585937 140.65625 438.73046875 C137.31197534 441.29388683 134.83878149 441.15996202 130.6875 440.62109375 C118.34141058 437.76785506 108.63132048 428.78572693 100 420 C99.56429688 420.40992188 99.12859375 420.81984375 98.6796875 421.2421875 C95.04462579 424.53105286 92.00030194 427.23908449 87 428 C81.76590351 426.12109357 78.44374258 421.17814302 75 417 C69.83788612 431.40229771 65.80226804 445.60933307 64.265625 460.875 C64.14598389 462.05449219 64.02634277 463.23398437 63.90307617 464.44921875 C63.67922744 466.78302232 63.47816895 469.11914491 63.30200195 471.45703125 C63.20363037 472.52308594 63.10525879 473.58914063 63.00390625 474.6875 C62.92986572 475.64011719 62.8558252 476.59273438 62.77954102 477.57421875 C62 480 62 480 59.60913086 481.87890625 C57 483 57 483 54.25 482.25 C52 481 52 481 51 480 C48.06581513 452.35095025 58.58520334 422.28809004 69.1484375 397.28125 C70.14279123 394.6174767 70.75683058 391.96198981 71.375 389.1875 C73.43069987 380.88328666 75.81214416 375.40049117 82.609375 370.03125 C85.32403905 366.06601037 84.15455859 361.08809246 83.51171875 356.5625 C80.71650788 344.48083029 75.56283465 333.64634664 70.17333984 322.5168457 C69.01979115 320.04245254 67.9890808 317.54404366 67 315 C66.52949219 315.55429687 66.05898437 316.10859375 65.57421875 316.6796875 C64.95160156 317.40414063 64.32898438 318.12859375 63.6875 318.875 C63.07261719 319.59429687 62.45773438 320.31359375 61.82421875 321.0546875 C60 323 60 323 57 325 C56.43028864 327.98420236 56.02089987 330.86339136 55.6875 333.875 C53.60327666 349.64148622 49.56690916 370.50334896 38.43994141 382.71166992 C36.41501458 385.92964875 36.33787074 389.09900298 36.12890625 392.80078125 C36.07927231 393.55538132 36.02963837 394.30998138 35.97850037 395.08744812 C35.87840798 396.6814865 35.78555389 398.27599375 35.69946289 399.87084961 C35.56343046 402.29591266 35.38952663 404.7162704 35.21289062 407.13867188 C35.12007162 408.69257125 35.02950391 410.24660706 34.94140625 411.80078125 C34.88642471 412.51768631 34.83144318 413.23459137 34.77479553 413.97322083 C34.48082052 420.56296352 36.83450225 424.11266967 40.6875 429.25 C43.58186466 433.10915288 43.1771764 437.3585022 43.203125 441.95703125 C43.20882507 442.73761398 43.21452515 443.51819672 43.22039795 444.32243347 C43.2298395 445.97413786 43.23637858 447.62586102 43.24023438 449.27758789 C43.24992418 451.79281887 43.28094801 454.30722691 43.3125 456.82226562 C43.31903214 458.42968267 43.32428178 460.03710553 43.328125 461.64453125 C43.3404718 462.39160843 43.3528186 463.13868561 43.36553955 463.90840149 C43.33853523 470.30258112 41.75744454 474.20168466 37.3125 478.75 C30.20447108 484.12569431 21.06883555 483.31256812 12.59130859 483.26074219 C10.50458721 483.25002356 8.41872646 483.26068084 6.33203125 483.2734375 C-11.27612795 483.29525027 -11.27612795 483.29525027 -16.875 478.125 C-17.42929688 477.63257813 -17.98359375 477.14015625 -18.5546875 476.6328125 C-26.25193455 467.93700367 -24.34667153 450.00881546 -24.31567383 438.97363281 C-24.3125108 436.63298976 -24.33611156 434.29361381 -24.36132812 431.953125 C-24.39532895 423.16804786 -23.61782776 414.95741113 -21.99888611 406.32540894 C-20.85726933 399.9517819 -21.04188001 394.17298158 -21.875 387.75 C-24.65769339 360.68160464 -21.20909227 333.5438236 -10.26953125 308.53515625 C-8.84852155 304.57819079 -8.38019449 301.1729781 -8 297 C-9.10859375 297.62648438 -10.2171875 298.25296875 -11.359375 298.8984375 C-12.82288809 299.72400899 -14.28643134 300.54952702 -15.75 301.375 C-16.47960937 301.7875 -17.20921875 302.2 -17.9609375 302.625 C-18.66992188 303.02460938 -19.37890625 303.42421875 -20.109375 303.8359375 C-20.75874023 304.20251465 -21.40810547 304.5690918 -22.07714844 304.94677734 C-26.31347198 307.26718107 -29.02972752 308.6975821 -34 308 C-36.22324392 306.38740707 -37.96529389 304.92098575 -39.875 303 C-40.39892334 302.49380127 -40.92284668 301.98760254 -41.46264648 301.46606445 C-42.51083083 300.4494626 -43.55290987 299.42652285 -44.58837891 298.39697266 C-45.76077845 297.23673914 -46.96105052 296.10475113 -48.16796875 294.98046875 C-58.87224135 284.85003344 -67.05066034 272.31199244 -75 260 C-76.09220785 263.27662355 -76.27059596 265.99321075 -76.46484375 269.44140625 C-76.5417041 270.73868652 -76.61856445 272.0359668 -76.69775391 273.37255859 C-76.75639618 274.39914581 -76.75639618 274.39914581 -76.81622314 275.44647217 C-77.36087936 284.94958564 -77.92496762 294.42772881 -79.125 303.875 C-81.57973612 324.02880762 -78.53529163 339.15261661 -69 357 C-68.48050781 358.00417969 -67.96101563 359.00835937 -67.42578125 360.04296875 C-60.94783246 372.34219756 -52.80381716 384.13910295 -43.60498047 394.58398438 C-41.02960196 397.51525 -40.03073023 398.76952329 -39.5 402.75 C-39.665 403.8225 -39.83 404.895 -40 406 C-43 408 -43 408 -45.93359375 407.87109375 C-51.58884182 406.26457105 -54.48885129 401.47268689 -58 397 C-58.47856445 396.39510742 -58.95712891 395.79021484 -59.45019531 395.16699219 C-66.61777387 385.98166919 -72.77174917 376.32863678 -78.5 366.1875 C-79.36274536 364.66854126 -79.36274536 364.66854126 -80.24291992 363.11889648 C-87.65997869 349.68153316 -92.39583428 336.75538222 -92.3125 321.375 C-92.31121094 320.33053711 -92.30992188 319.28607422 -92.30859375 318.20996094 C-92.21387787 310.14253566 -91.42813887 302.25728271 -90.5 294.25 C-88.879456 279.67548609 -88.6594303 265.15635342 -88.625 250.5 C-88.61750732 249.40723755 -88.61001465 248.3144751 -88.60229492 247.18859863 C-88.48474902 226.32420109 -90.25023192 206.10959497 -96 186 C-96.94875 186.825 -97.8975 187.65 -98.875 188.5 C-100.24897247 189.6678766 -101.62407556 190.83442372 -103 192 C-104.10601562 192.95712891 -104.10601562 192.95712891 -105.234375 193.93359375 C-118.77727513 205.28573062 -130.18129017 208.97660226 -147.42626953 208.23535156 C-153.68224567 207.66328165 -159.25876942 205.47072858 -165 203 C-166.21429688 202.51660156 -166.21429688 202.51660156 -167.453125 202.0234375 C-173.83365023 199.22282528 -179.23304632 194.65865678 -181.9375 188.125 C-185.02085637 176.74179126 -183.50407144 166.12464492 -179.1875 155.39453125 C-175.92879068 146.07933915 -176.96725711 136.8413886 -178.50390625 127.29296875 C-181.4005876 108.065391 -173.62119719 89.92952267 -162.5625 74.5625 C-159.36875 70.36875 -159.36875 70.36875 -158 69 C-157.97887388 66.43166696 -158.00914392 63.87939735 -158.0625 61.3125 C-158.1449688 47.51995533 -157.33908019 32.52666686 -147.08984375 22.046875 C-141.30383607 17.77186296 -135.90543122 17.55145991 -129 18 C-126.55485588 18.4968049 -124.36371332 19.17783884 -122 20 C-121.6596875 19.50371094 -121.319375 19.00742187 -120.96875 18.49609375 C-116.28158562 11.92658411 -110.95491184 5.43705392 -103 3 C-92.99643848 2.01679281 -84.10652733 2.61392037 -75.75390625 8.61328125 C-71.66165882 11.99970986 -68.87159421 15.50918087 -66 20 C-65.13761719 19.50371094 -64.27523437 19.00742187 -63.38671875 18.49609375 C-47.69608776 9.6758519 -18.4035459 -5.31576525 0 0 Z M178.97314453 16.20776367 C170.22330808 19.24941539 161.00665128 18.87699195 152 17 C142.29585029 15.97096936 135.09425236 17.43743009 127 23 C118.50150596 30.29778938 113.75997506 41.06136705 112.7043457 52.08837891 C112.38076849 56.88032221 112.12024181 61.67407454 111.87695312 66.47070312 C110.78348825 84.68526667 105.47723079 95.55775161 92.66015625 108.33203125 C83.06913659 118.21815921 76.98272092 131.16650076 76.875 145.0625 C76.91625 146.361875 76.9575 147.66125 77 149 C77.556875 148.61328125 78.11375 148.2265625 78.6875 147.828125 C88.22218886 141.32134409 96.19952365 136.98212265 108 138 C111.01615723 138.6005453 114.00915927 139.28471086 117 140 C118.73830803 137.28886509 120.43488611 134.55389163 122.125 131.8125 C122.61871094 131.04357422 123.11242187 130.27464844 123.62109375 129.48242188 C126.47682414 125.11528042 126.47682414 125.11528042 126.40625 120.13671875 C125.9421875 119.43160156 125.478125 118.72648437 125 118 C121.46259938 111.46941424 121.27051129 105.36120429 122 98 C123.4375 94.375 123.4375 94.375 125 92 C125.495 90.515 125.495 90.515 126 89 C128.1875 87.9375 128.1875 87.9375 131 87 C131.94875 86.62875 132.8975 86.2575 133.875 85.875 C140.39266847 84.05005283 146.07625222 84.87071585 152 88 C153.734375 89.60546875 153.734375 89.60546875 155 91 C157.01432266 90.49743888 157.01432266 90.49743888 159 89 C160.74532788 84.6366803 161.21515545 80.33473102 161.8125 75.6875 C163.59341153 63.72799411 170.12517419 53.81170194 179.375 46.125 C186.56334702 40.88273677 194.13476944 38.79771091 203 40 C209.05826166 41.58998792 214.43612362 43.57874476 219 48 C219.598125 48.5775 220.19625 49.155 220.8125 49.75 C221.4003125 50.36875 221.4003125 50.36875 222 51 C223.75141618 49.24858382 223.21395448 46.8790046 223.25 44.5 C223.13880803 35.11539795 220.60582111 27.80643173 214 21 C207.02722042 15.27190603 199.98186915 12.47437791 190.9140625 12.59765625 C186.70657494 13.17858282 182.93990792 14.73155737 178.97314453 16.20776367 Z M-138.5 30.4375 C-144.13575957 36.21415356 -146.15649351 43.85454551 -146.0625 51.75 C-146.05347656 52.73484375 -146.04445312 53.7196875 -146.03515625 54.734375 C-146.02355469 55.48203125 -146.01195312 56.2296875 -146 57 C-141.36783205 56.11554075 -137.79498212 54.83899425 -134 52 C-130.45229415 46.00632311 -128 37.97702696 -128 31 C-131.79872898 28.82929773 -134.49635778 28.13540572 -138.5 30.4375 Z M185.609375 54.9296875 C177.0779286 63.09388621 172.38723118 71.03589453 171.1875 82.875 C170.14847603 90.57027126 168.04203146 95.24094821 162.3125 100.4375 C158.79890339 102.81155176 156.26710197 103.4490581 151.953125 103.42578125 C150 103 150 103 147.875 100.125 C147.25625 99.09375 146.6375 98.0625 146 97 C143.20301296 95.26198265 143.20301296 95.26198265 140 95 C135.99060398 96.46497162 134.38397465 97.42403803 132 101 C131.7452974 105.53370624 132.47051189 109.15281902 134.875 113 C136.92239437 115.20741867 136.92239437 115.20741867 140 116 C140.70511719 115.97679687 141.41023438 115.95359375 142.13671875 115.9296875 C151.02901119 115.73904111 156.40317443 120.24086877 163.203125 125.3359375 C166.63996631 127.875519 170.01265574 129.48150361 174 131 C174.3403125 130.41992188 174.680625 129.83984375 175.03125 129.2421875 C180.03557349 121.17670869 185.62327024 116.00605425 194.92578125 113.5234375 C201.56971316 112.39219623 208.27302238 112.26694356 215 112 C215 106.39 215 100.78 215 95 C212.69 94.34 210.38 93.68 208 93 C208 90.69 208 88.38 208 86 C210.31 85.34 212.62 84.68 215 84 C215.08767555 80.62516587 215.14061628 77.25062785 215.1875 73.875 C215.21263672 72.92367187 215.23777344 71.97234375 215.26367188 70.9921875 C215.33759508 63.8955599 214.42487194 59.54034203 209.375 54.25 C201.73485116 48.43971397 192.93500581 49.01651492 185.609375 54.9296875 Z M187 130 C184.24079735 134.02122431 182.6077933 138.13765361 182 143 C176.15888041 143.37929348 172.29992325 142.27594981 167.125 139.875 C166.42826172 139.56167725 165.73152344 139.24835449 165.01367188 138.92553711 C159.65282955 136.45269275 154.71197987 133.5732514 150 130 C147.81171139 137.85313252 149.03371983 144.5313303 152 152 C152.721875 151.649375 153.44375 151.29875 154.1875 150.9375 C157.46485192 149.84504936 158.76616745 149.83900927 162 151 C163.7734375 153.4765625 163.7734375 153.4765625 165.375 156.625 C170.07696071 165.82046011 176.15931716 170.55766777 185.3125 174.9375 C191.9976845 178.26241678 197.61206001 181.57933014 203.08984375 186.69921875 C204.89529175 188.18429552 204.89529175 188.18429552 207.03515625 188.03515625 C213.38317482 184.69077271 216.35022599 174.55402697 218.375 168.125 C222.26587126 154.6253684 222.43234612 140.39869767 218 127 C216.40398826 123.85994975 216.40398826 123.85994975 214.07983398 123.56420898 C199.12753387 122.56931882 199.12753387 122.56931882 187 130 Z M137 127 C134.80713697 129.87781621 133.07519229 133.06737703 131.25 136.1875 C130.45142578 137.48397461 130.45142578 137.48397461 129.63671875 138.80664062 C129.14300781 139.64775391 128.64929688 140.48886719 128.140625 141.35546875 C127.68204102 142.12528076 127.22345703 142.89509277 126.75097656 143.68823242 C125.76107092 146.02709859 125.76107092 146.02709859 126.67089844 148.55639648 C127.97138443 150.94738918 129.28163493 152.74824523 131.125 154.7421875 C131.74455566 155.41290283 132.36411133 156.08361816 133.00244141 156.7746582 C133.66163574 157.467771 134.32083008 158.16088379 135 158.875 C135.67337402 159.58809326 136.34674805 160.30118652 137.04052734 161.03588867 C142.71301505 166.9270698 148.6146947 171.50132245 155.71484375 175.546875 C158 177 158 177 158.9375 178.9375 C159.01434368 181.47334158 158.30245593 182.85477846 157 185 C150.49219109 186.02754878 146.06538307 182.63840937 141 179 C137.51928565 176.14497298 134.24320108 173.1205142 131 170 C130.29875 169.33871094 129.5975 168.67742187 128.875 167.99609375 C124.44258054 163.71084447 120.64215032 159.14115738 116.95703125 154.19921875 C113.44691321 150.25471485 109.61213352 148.37756452 104.328125 147.86328125 C99.63164416 148.1390813 95.15270324 149.84674647 91 152 C90.34 152.99 89.68 153.98 89 155 C89.70125 155.66 90.4025 156.32 91.125 157 C99.25767958 165.22431541 104.15567564 175.06511833 108.24926758 185.78662109 C110.71880121 192.24515425 113.18440858 197.92502075 118 203 C118.62261719 203.66257812 119.24523437 204.32515625 119.88671875 205.0078125 C128.47767741 213.36057452 139.44716546 217.83335278 150.76953125 221.2734375 C153 222 153 222 154 223 C154.04080783 224.99958364 154.04254356 227.00045254 154 229 C148.34574814 231.98775808 143.77523704 230.13347902 137.98828125 228.39453125 C123.2979333 223.50955661 110.94315703 214.30389753 103 201 C100.62841923 196.10780469 98.76446561 191.0508767 96.8671875 185.9609375 C93.92139376 178.41112174 90.18867012 172.23242582 85 166 C84.46761719 165.33355469 83.93523437 164.66710937 83.38671875 163.98046875 C79.83760143 160.2199896 76.82021745 159.57333686 71.6875 159.375 C62.23557092 159.86333158 55.6302088 162.57072002 49.1796875 169.51171875 C47.8964705 170.81409229 47.8964705 170.81409229 48 172 C49.14275391 172.14695312 49.14275391 172.14695312 50.30859375 172.296875 C58.90924066 173.54241188 66.13604653 175.50883723 73 181 C73.66 181 74.32 181 75 181 C75.27199219 181.5465625 75.54398437 182.093125 75.82421875 182.65625 C76.65195524 184.30622308 77.48873635 185.95167431 78.33203125 187.59375 C80.92452254 192.68296773 83.36513736 197.76334258 85.5 203.0625 C94.04163486 223.86070297 109.12693511 241.86826033 130.1015625 250.82421875 C150.26524219 258.85961662 171.9985163 260.21212083 192.1953125 251.64453125 C198.83650655 248.54031398 204.40334426 244.69759458 210 240 C210.99 239.278125 211.98 238.55625 213 237.8125 C224.1742599 228.27878241 230.77792455 213.83621683 234.9375 200.0625 C235.25509277 199.01606323 235.25509277 199.01606323 235.57910156 197.94848633 C237.18734453 192.2299086 238.19949357 187.15081605 235.1875 181.75 C232.81177252 178.65153877 232.81177252 178.65153877 230 176 C229.01 176 228.02 176 227 176 C226.72027344 176.94359375 226.44054687 177.8871875 226.15234375 178.859375 C221.62203848 193.60314343 214.21447949 208.190347 201 217 C196.45945946 216.45945946 196.45945946 216.45945946 195 215 C194.5 212.375 194.5 212.375 195 209 C197.09239868 206.38450165 199.46694454 204.18411415 202 202 C197.38933247 191.52328518 184.44037726 186.08384792 174.6875 181.4375 C166.82996187 177.56530521 161.94264168 172.13333635 157 165 C154.36 165.33 151.72 165.66 149 166 C138.59880384 153.8999418 138.46138647 142.27567816 139 127 C138.34 127 137.68 127 137 127 Z M-172 171 C-172.37059832 177.05310594 -172.08256959 181.57892935 -169 187 C-166.46900795 189.41144481 -166.46900795 189.41144481 -164 191 C-160.87802522 189.6910428 -160.87802522 189.6910428 -159 187 C-158.5081304 182.16419903 -158.5081304 182.16419903 -160.4375 177.875 C-164.08937287 175.2028979 -167.99227701 173.0894966 -172 171 Z M28.47265625 193.8046875 C11.6158859 215.27862834 5.05288914 242.77351556 4.7890625 269.76953125 C4.76099298 271.41732763 4.73232851 273.06511396 4.703125 274.71289062 C4.66203327 277.25984392 4.62506112 279.80660972 4.59863281 282.35375977 C4.44618942 295.93567726 2.63786706 307.38385879 -2.4375 320.0625 C-8.9399966 336.99230005 -11.18709224 353.95107432 -11.125 372 C-11.1252417 373.29147949 -11.1254834 374.58295898 -11.12573242 375.91357422 C-11.10405201 382.68891512 -10.9052121 389.37783658 -10.3125 396.125 C-9.88174171 402.01591067 -10.36151272 407.12186081 -11.4375 412.875 C-14.54794856 429.61818029 -15.35755706 450.37139782 -11 467 C-9.50019349 469.31060184 -9.50019349 469.31060184 -7 471 C-4.22858117 471.39806287 -1.86195576 471.56185389 0.90625 471.53125 C2.04882263 471.53699036 2.04882263 471.53699036 3.21447754 471.54284668 C4.82154668 471.54556313 6.42866024 471.53822044 8.03564453 471.52148438 C10.49221587 471.50006786 12.94586311 471.52129178 15.40234375 471.546875 C16.96615227 471.54423167 18.52995898 471.53910658 20.09375 471.53125 C21.19233337 471.54339539 21.19233337 471.54339539 22.31311035 471.55578613 C25.6027577 471.49545569 27.68479202 471.20738191 30.45654297 469.38378906 C33.39327176 464.84816427 32.66502682 459.56927291 32.63134766 454.3203125 C32.62505714 452.26863735 32.67182652 450.22282993 32.72265625 448.171875 C32.73095436 439.74099746 31.8462332 435.08264702 26 429 C23.15963319 423.31926637 23.9199708 417.20313278 24 411 C24.01482422 409.82904785 24.02964844 408.6580957 24.04492188 407.45166016 C24.61508318 380.06564327 24.61508318 380.06564327 32.75 369.08203125 C39.99155446 359.16261029 44.52073621 342.32409027 44 330 C40.7 329.67 37.4 329.34 34 329 C31.875 324.375 31.875 324.375 33 321 C35.37128792 320.29429515 37.64796662 319.74713523 40.0625 319.25 C49.27978951 317.04532253 54.17530274 313.15498795 59.3125 305.125 C63.06862339 298.3701187 66.52325138 290.89321172 65 283 C63.89082792 280.00112733 62.65004043 277.11572921 61.2890625 274.22265625 C58.33352053 266.83380132 57.71564432 259.83786423 57.875 251.9375 C57.88402344 251.07189453 57.89304687 250.20628906 57.90234375 249.31445312 C57.92560277 247.20951221 57.96145992 245.10471658 58 243 C60.97 243 63.94 243 67 243 C67.08636719 244.36511719 67.17273438 245.73023438 67.26171875 247.13671875 C68.48865997 264.03883849 71.43299226 278.7950896 84.87890625 290.5078125 C96.53651211 299.17592189 109.18491714 302.41028063 123.47485352 303.74951172 C125.75504584 304.00832375 127.8229841 304.27334501 130 305 C131.63671875 307.40625 131.63671875 307.40625 132 310 C131 313 131 313 129 314 C108.70837301 314.11824957 91.6205966 308.8358794 75 297 C76.79386543 307.93403692 80.34129883 317.04321468 85 327 C94.69836933 347.84654591 94.69836933 347.84654591 95.125 359.37890625 C95.41967746 364.6769615 95.77710081 367.80923539 99.67578125 371.60546875 C107.82511059 377.4996529 117.48835793 380.98839829 127 384 C127.99773437 384.3403125 128.99546875 384.680625 130.0234375 385.03125 C151.27029881 391.18315622 174.08629967 387.26843485 193.28125 377.1953125 C194.52849584 376.47667963 195.76781646 375.74416336 197 375 C197.72453369 374.5781543 198.44906738 374.15630859 199.19555664 373.72167969 C203.2972716 371.06517038 203.2972716 371.06517038 205.80224609 367.00048828 C206.21289144 364.64440406 206.36643196 362.39042762 206.4375 360 C206.49276855 359.13133301 206.54803711 358.26266602 206.60498047 357.36767578 C206.77276201 354.57911665 206.88678902 351.79125277 207 349 C207.10496928 347.14305112 207.21303221 345.28627449 207.32421875 343.4296875 C207.97073386 331.95152675 208.1277078 320.49370195 208 309 C206.741875 309.309375 205.48375 309.61875 204.1875 309.9375 C188.22115643 313.4380075 188.22115643 313.4380075 182 310 C180.593383 307.09299153 180.95907335 306.12277995 182 303 C184.41043204 301.79478398 186.60102354 301.73275426 189.25585938 301.5078125 C200.08016689 300.51018047 209.12252373 297.88069381 216.4375 289.3125 C225.80581674 276.30958735 229.23880083 260.88888978 229.0625 245.0625 C229.05573242 243.89364258 229.05573242 243.89364258 229.04882812 242.70117188 C229.03716908 240.80074732 229.01923877 238.90036294 229 237 C228.27039063 237.73476562 227.54078125 238.46953125 226.7890625 239.2265625 C210.14439007 255.77798747 189.6817435 268.01378058 165.5 268.1875 C142.36451031 267.90010261 120.71367402 261.13118767 103 246 C102.42378906 245.566875 101.84757812 245.13375 101.25390625 244.6875 C87.42944917 233.95997672 79.01694263 216.50114408 72.87646484 200.57177734 C70.36958778 194.24134694 67.45666043 188.62954656 60.9375 185.6875 C60.28652344 185.38199219 59.63554687 185.07648438 58.96484375 184.76171875 C46.82697129 180.05618171 36.86561255 184.49071126 28.47265625 193.8046875 Z M-78 218 C-77.81354821 226.61068259 -75.75199217 233.29068275 -72 241 C-71.71737305 241.58297852 -71.43474609 242.16595703 -71.14355469 242.76660156 C-62.93852386 259.47001752 -51.60070973 273.82622161 -39.125 287.5625 C-38.66037354 288.07570801 -38.19574707 288.58891602 -37.71704102 289.11767578 C-35.57675755 291.4416359 -33.64646897 293.23568735 -31 295 C-26.7723999 294.68684444 -23.71970825 292.89748805 -20.125 290.75 C-19.13757813 290.16734375 -18.15015625 289.5846875 -17.1328125 288.984375 C-15.58207031 288.00210938 -15.58207031 288.00210938 -14 287 C-13.37569092 286.69674805 -12.75138184 286.39349609 -12.1081543 286.08105469 C-9.96089054 284.89533051 -8.56454481 283.90064009 -7 282 C-5.84268291 277.94557821 -5.70147789 273.94859533 -5.5625 269.75 C-5.49869141 268.65558594 -5.43488281 267.56117188 -5.36914062 266.43359375 C-5.03416022 260.28615111 -4.94156383 254.15527641 -5 248 C-6.45019531 248.79664063 -6.45019531 248.79664063 -7.9296875 249.609375 C-19.67425988 256.01000822 -19.67425988 256.01000822 -25.5625 258.625 C-26.28566406 258.94726562 -27.00882813 259.26953125 -27.75390625 259.6015625 C-33.24806759 260.57617895 -37.80702075 257.05478387 -42.125 254.0625 C-52.97373715 246.43086675 -61.90945303 237.53472751 -70 227 C-71.33289707 225.27049702 -72.66619655 223.54130407 -74 221.8125 C-74.556875 221.07644531 -75.11375 220.34039062 -75.6875 219.58203125 C-76.120625 219.05996094 -76.55375 218.53789062 -77 218 C-77.33 218 -77.66 218 -78 218 Z M90 378 C83.94575667 385.3298229 81.47792519 391.5277207 81.59765625 401.1328125 C82.27434855 405.9550664 84.49785127 409.88039085 87 414 C91.02739285 412.28879016 92.75160308 409.94775569 95.2421875 406.4609375 C97 405 97 405 99.83203125 404.41015625 C104.23169016 405.22932825 106.09524113 407.75764065 108.8125 411.0625 C109.86080641 412.26486386 110.91420576 413.46280636 111.97265625 414.65625 C112.48586426 415.23503906 112.99907227 415.81382812 113.52783203 416.41015625 C118.65702955 421.94934933 124.98472436 426.26523153 132 429 C135.40866694 427.8615585 137.36221296 425.79832349 139.6875 423.125 C140.28949219 422.44695312 140.89148438 421.76890625 141.51171875 421.0703125 C143.00766194 418.98934166 143.5789756 417.50369174 144 415 C147.14117752 414.5040246 148.97903709 414.2380993 152 415 C154.86158551 417.6143643 156.84619349 420.79555617 159 424 C163.37769797 429.86554303 168.08402434 435.26367212 173.25 440.4375 C173.75748779 440.94579346 174.26497559 441.45408691 174.7878418 441.9777832 C177.38885295 444.54012081 180.0106457 446.90033448 183 449 C190.58915776 445.8447703 194.97300426 436.81063335 199 430 C201.31 430.33 203.62 430.66 206 431 C206.20044922 431.52730713 206.40089844 432.05461426 206.60742188 432.59790039 C214.19546037 452.94515167 214.19546037 452.94515167 226 471 C226.99 470.67 227.98 470.34 229 470 C234.41267918 440.06917284 231.82166481 410.00594258 216.375 383.1875 C214.39287016 380.01644227 214.39287016 380.01644227 212.1640625 379.109375 C209.00236618 378.94957807 207.56816606 380.26249075 205 382.0625 C181.80613118 397.50457182 156.31597834 400.83653809 129.28808594 395.50048828 C115.12179617 392.40180134 102.04827489 385.95186143 90 378 Z " fill="#000000" transform="translate(189,15)"/>
<path d="M0 0 C4.54809774 0.11717133 8.54522731 1.22356942 12.83984375 2.6484375 C13.55849609 2.87015625 14.27714844 3.091875 15.01757812 3.3203125 C16.83552583 3.90397843 18.62270695 4.58170588 20.40234375 5.2734375 C21.80839788 8.08554576 21.62277818 10.14934949 21.40234375 13.2734375 C18.5712965 20.24062471 14.10782036 26.44999304 9.40234375 32.2734375 C10.39234375 32.8096875 11.38234375 33.3459375 12.40234375 33.8984375 C15.40234375 36.2734375 15.40234375 36.2734375 15.76171875 39.07421875 C14.89510031 46.78900678 9.29187585 55.09649143 3.35546875 59.9453125 C-2.55641327 64.35098254 -10.94775642 70.2734375 -18.59765625 70.2734375 C-18.88640625 70.8715625 -19.17515625 71.4696875 -19.47265625 72.0859375 C-20.59765625 74.2734375 -20.59765625 74.2734375 -22.59765625 77.2734375 C-26.03515625 77.7109375 -26.03515625 77.7109375 -29.59765625 77.2734375 C-31.66015625 75.6484375 -31.66015625 75.6484375 -32.59765625 73.2734375 C-31.75531656 67.85839665 -28.64695131 63.81115138 -24.59765625 60.2734375 C-21.70912765 58.63862973 -18.6855631 57.47786987 -15.59765625 56.2734375 C-8.94518976 53.43384773 -3.50807507 50.58415405 0.40234375 44.2734375 C0.40234375 43.6134375 0.40234375 42.9534375 0.40234375 42.2734375 C-0.16355469 41.99628906 -0.72945312 41.71914062 -1.3125 41.43359375 C-2.04597656 41.07136719 -2.77945313 40.70914063 -3.53515625 40.3359375 C-4.63150391 39.79646484 -4.63150391 39.79646484 -5.75 39.24609375 C-7.59765625 38.2734375 -7.59765625 38.2734375 -8.59765625 37.2734375 C-8.97265625 34.5234375 -8.97265625 34.5234375 -8.59765625 31.2734375 C-6.19205174 28.37256147 -3.5789981 26.25905518 -0.59765625 23.9609375 C3.02040993 21.03649023 5.15023389 17.28936791 7.40234375 13.2734375 C6.54769531 13.08007812 5.69304687 12.88671875 4.8125 12.6875 C3.15541016 12.29691406 3.15541016 12.29691406 1.46484375 11.8984375 C-0.18837891 11.51558594 -0.18837891 11.51558594 -1.875 11.125 C-2.77347656 10.84398438 -3.67195313 10.56296875 -4.59765625 10.2734375 C-5.97890643 7.51093714 -5.78844931 5.32612651 -5.59765625 2.2734375 C-3.59765625 0.2734375 -3.59765625 0.2734375 0 0 Z " fill="#000000" transform="translate(140.59765625,85.7265625)"/>
<path d="M0 0 C3.13968725 1.09889054 3.89699752 1.97432885 5.5 4.875 C8.2704329 13.14570628 8.98926676 22.8130482 6.375 31.25 C5.38282098 35.36045595 5.91677568 37.46767104 6.9765625 41.4453125 C8.38185655 47.96839384 8.16042138 54.72277556 5.5 60.875 C2.1875 61.5625 2.1875 61.5625 -1.5 61.875 C-3.66363617 60.34331851 -4.3917677 59.39684959 -4.93237305 56.7902832 C-4.95855713 56.00999756 -4.98474121 55.22971191 -5.01171875 54.42578125 C-5.06489258 53.15444336 -5.06489258 53.15444336 -5.11914062 51.85742188 C-5.14169922 50.97634766 -5.16425781 50.09527344 -5.1875 49.1875 C-5.22166016 48.29482422 -5.25582031 47.40214844 -5.29101562 46.48242188 C-5.37345648 44.28007329 -5.44261551 42.07812062 -5.5 39.875 C-7.11068359 39.92720703 -7.11068359 39.92720703 -8.75390625 39.98046875 C-10.19008839 40.00862918 -11.62628762 40.03592691 -13.0625 40.0625 C-13.76697266 40.08763672 -14.47144531 40.11277344 -15.19726562 40.13867188 C-20.38882195 40.21044454 -23.88264412 39.27975155 -28.5 36.875 C-30.5 34.875 -30.5 34.875 -30.875 31.9375 C-30.5 28.875 -30.5 28.875 -28.8125 26.9375 C-25.01309173 25.19182593 -22.30631627 26.60622791 -18.5 27.875 C-16.43854893 27.943991 -14.37498599 27.95967727 -12.3125 27.9375 C-11.22582031 27.92847656 -10.13914062 27.91945313 -9.01953125 27.91015625 C-8.18808594 27.89855469 -7.35664063 27.88695312 -6.5 27.875 C-3.96591011 22.06268272 -3.79740742 17.27208058 -5.5625 11.25 C-6.57919652 7.58989254 -6.59384159 5.49309141 -5.5 1.875 C-2.5 -0.125 -2.5 -0.125 0 0 Z " fill="#000000" transform="translate(350.5,328.125)"/>
<path d="M0 0 C4.9071215 4.11137207 7.10556516 10.80224791 8.3125 16.9375 C8.60986861 21.28847231 8.87592885 25.60576205 8.3125 29.9375 C3.45171238 33.17802508 -1.91168163 32.30634672 -7.625 32.3125 C-8.81802734 32.33699219 -10.01105469 32.36148438 -11.24023438 32.38671875 C-12.38685547 32.39058594 -13.53347656 32.39445312 -14.71484375 32.3984375 C-16.28866821 32.41076416 -16.28866821 32.41076416 -17.89428711 32.42333984 C-21.38782667 31.81568809 -22.56786263 30.73451481 -24.6875 27.9375 C-25.46738527 19.01824877 -23.76940255 9.81285455 -18.375 2.5625 C-12.75795999 -2.92391117 -7.0976959 -2.80606582 0 0 Z M-9.6875 9.9375 C-10.1825 11.01 -10.6775 12.0825 -11.1875 13.1875 C-11.4659375 13.79078125 -11.744375 14.3940625 -12.03125 15.015625 C-12.90292924 17.22992836 -12.90292924 17.22992836 -12.6875 20.9375 C-9.7175 20.9375 -6.7475 20.9375 -3.6875 20.9375 C-3.81125 19.679375 -3.935 18.42125 -4.0625 17.125 C-4.13210937 16.41730469 -4.20171875 15.70960937 -4.2734375 14.98046875 C-4.61415391 12.63761858 -4.61415391 12.63761858 -6.6875 9.9375 C-7.6775 9.9375 -8.6675 9.9375 -9.6875 9.9375 Z " fill="#000000" transform="translate(101.6875,43.0625)"/>
<path d="M0 0 C3.125 0.3125 3.125 0.3125 5.0625 2 C6.125 4.3125 6.125 4.3125 6.125 6.8125 C4.55201547 10.74496132 1.98627671 12.41632973 -1.7734375 14.2265625 C-5.85772935 15.90096567 -9.41258142 16.93516306 -13.875 16.3125 C-15.8125 15.25 -15.8125 15.25 -16.875 13.3125 C-17.3125 9.9375 -17.3125 9.9375 -15.875 6.3125 C-12.0392678 4.14903666 -8.01829186 2.76987882 -3.875 1.3125 C-2.875 0.3125 -2.875 0.3125 0 0 Z " fill="#000000" transform="translate(378.875,350.6875)"/>
<path d="M0 0 C3.375 0.5 3.375 0.5 5.375 2.5 C5.96941526 6.83073973 5.58663697 9.75698885 3.3125 13.4375 C1.04221079 16.32401057 0.55649272 16.46923852 -3.3125 17.125 C-4.9521875 16.815625 -4.9521875 16.815625 -6.625 16.5 C-8.625 13.5 -8.625 13.5 -8.5 10.1875 C-7.17614102 4.60838003 -6.06106651 0.83600917 0 0 Z " fill="#000000" transform="translate(63.625,110.5)"/>
<path d="M0 0 C3.13343209 0.97484554 4.67622995 1.67622995 7 4 C6.42307692 10.57692308 6.42307692 10.57692308 5 12 C0.01078526 12.44325668 -4.49447701 12.39355909 -9 10 C-10 9 -10 9 -10.25 5.5625 C-10.1675 4.386875 -10.085 3.21125 -10 2 C-6.28424249 -0.47717167 -4.40013262 -0.30345742 0 0 Z " fill="#000000" transform="translate(380,98)"/>
<path d="M0 0 C2 2 2 2 2.4375 4.9375 C2 8 2 8 -0.0625 9.875 C-3.61034846 11.23375047 -6.22784607 11.34927351 -10 11 C-10.99 10.34 -11.98 9.68 -13 9 C-13.3125 5.5 -13.3125 5.5 -13 2 C-9.21473454 -1.78526546 -4.95124632 -1.21030465 0 0 Z " fill="#000000" transform="translate(393,295)"/>
<path d="M0 0 C0.87785156 0.09667969 1.75570313 0.19335938 2.66015625 0.29296875 C4.9375 0.8125 4.9375 0.8125 6.9375 2.8125 C7.2642107 5.88358055 7.41888276 7.96300101 5.875 10.6875 C2.81230351 12.4658399 0.40673068 12.17138593 -3.0625 11.8125 C-6 10.6875 -6 10.6875 -8.0625 8.8125 C-8.5625 5.8125 -8.5625 5.8125 -8.0625 2.8125 C-5.69196955 -0.50319372 -3.90948361 -0.48940516 0 0 Z " fill="#000000" transform="translate(309.0625,294.1875)"/>
<path d="M0 0 C0.70125 -0.01675781 1.4025 -0.03351563 2.125 -0.05078125 C2.74375 0.06910156 3.3625 0.18898437 4 0.3125 C6 3.3125 6 3.3125 5.75 6.9375 C5.5025 8.05125 5.255 9.165 5 10.3125 C1.98675805 11.81912097 -0.68286377 11.49020373 -4 11.3125 C-6 9.3125 -6 9.3125 -6.25 5.8125 C-5.90439766 0.97406727 -4.58809291 0.02530198 0 0 Z " fill="#000000" transform="translate(363,234.6875)"/>
</svg>
