<?xml version="1.0" encoding="UTF-8"?>
<!DOCTYPE svg PUBLIC "-//W3C//DTD SVG 1.1//EN" "http://www.w3.org/Graphics/SVG/1.1/DTD/svg11.dtd">
<svg xmlns="http://www.w3.org/2000/svg" version="1.1" width="512px" height="512px" style="shape-rendering:geometricPrecision; text-rendering:geometricPrecision; image-rendering:optimizeQuality; fill-rule:evenodd; clip-rule:evenodd" xmlns:xlink="http://www.w3.org/1999/xlink">
<g><path style="opacity:1" fill="#daa2a1" d="M 302.5,34.5 C 299.421,32.9805 296.088,32.1471 292.5,32C 255.981,31.5493 219.648,30.3827 183.5,28.5C 194.603,22.0754 206.603,17.9088 219.5,16C 240.938,12.6896 261.938,14.3562 282.5,21C 290.164,24.1889 296.831,28.6889 302.5,34.5 Z"/></g>
<g><path style="opacity:1" fill="#e6e7e7" d="M 462.5,112.5 C 461.515,116.634 461.182,120.968 461.5,125.5C 453.5,125.5 445.5,125.5 437.5,125.5C 437.818,120.968 437.485,116.634 436.5,112.5C 436.5,111.167 436.5,109.833 436.5,108.5C 436.5,80.1667 436.5,51.8333 436.5,23.5C 445.167,23.5 453.833,23.5 462.5,23.5C 462.5,53.1667 462.5,82.8333 462.5,112.5 Z"/></g>
<g><path style="opacity:1" fill="#d9a19b" d="M 183.5,28.5 C 219.648,30.3827 255.981,31.5493 292.5,32C 296.088,32.1471 299.421,32.9805 302.5,34.5C 304.522,36.5313 306.189,38.8646 307.5,41.5C 298.543,41.2568 289.543,41.5901 280.5,42.5C 274.622,41.9694 269.289,43.3027 264.5,46.5C 264.265,45.9033 263.765,45.5699 263,45.5C 259.87,46.9837 256.703,48.3171 253.5,49.5C 227.497,48.2271 201.33,47.2271 175,46.5C 173.319,46.6083 172.152,47.2749 171.5,48.5C 169.362,45.9131 168.529,42.9131 169,39.5C 173.235,34.9744 178.068,31.3078 183.5,28.5 Z"/></g>
<g><path style="opacity:1" fill="#713445" d="M 280.5,42.5 C 289.543,41.5901 298.543,41.2568 307.5,41.5C 312.792,50.3224 315.458,59.989 315.5,70.5C 315.002,78.6593 313.668,86.6593 311.5,94.5C 310.833,90.5 310.167,86.5 309.5,82.5C 309.024,78.5831 308.024,74.9165 306.5,71.5C 302.66,57.4727 293.993,47.806 280.5,42.5 Z"/></g>
<g><path style="opacity:1" fill="#e6ccc6" d="M 280.5,42.5 C 293.993,47.806 302.66,57.4727 306.5,71.5C 286.289,71.0455 266.289,69.7122 246.5,67.5C 250.318,58.6779 256.318,51.6779 264.5,46.5C 269.289,43.3027 274.622,41.9694 280.5,42.5 Z"/></g>
<g><path style="opacity:1" fill="#d3706b" d="M 264.5,46.5 C 256.318,51.6779 250.318,58.6779 246.5,67.5C 242.934,72.5261 240.934,78.1928 240.5,84.5C 239.021,88.9093 238.354,93.576 238.5,98.5C 238.431,103.951 239.097,109.284 240.5,114.5C 241.605,121.449 242.272,128.449 242.5,135.5C 238.605,132.292 234.771,128.959 231,125.5C 230.51,126.793 230.343,128.127 230.5,129.5C 230.167,129.5 229.833,129.5 229.5,129.5C 229.2,116.499 228.867,103.499 228.5,90.5C 229.866,72.491 238.199,58.8243 253.5,49.5C 256.703,48.3171 259.87,46.9837 263,45.5C 263.765,45.5699 264.265,45.9033 264.5,46.5 Z"/></g>
<g><path style="opacity:1" fill="#d39994" d="M 253.5,49.5 C 238.199,58.8243 229.866,72.491 228.5,90.5C 227.596,91.209 227.263,92.209 227.5,93.5C 208.427,93.1836 189.427,92.5169 170.5,91.5C 172.644,81.0909 175.644,70.9242 179.5,61C 176.599,56.9425 173.932,52.7759 171.5,48.5C 172.152,47.2749 173.319,46.6083 175,46.5C 201.33,47.2271 227.497,48.2271 253.5,49.5 Z"/></g>
<g><path style="opacity:1" fill="#e6c7c0" d="M 246.5,67.5 C 266.289,69.7122 286.289,71.0455 306.5,71.5C 308.024,74.9165 309.024,78.5831 309.5,82.5C 309.663,84.8568 309.497,87.1902 309,89.5C 286.063,87.9219 263.23,86.2552 240.5,84.5C 240.934,78.1928 242.934,72.5261 246.5,67.5 Z"/></g>
<g><path style="opacity:1" fill="#e6bdb5" d="M 309.5,82.5 C 310.167,86.5 310.833,90.5 311.5,94.5C 311.5,95.8333 311.5,97.1667 311.5,98.5C 310.509,104.979 310.176,111.646 310.5,118.5C 287.196,116.815 263.863,115.482 240.5,114.5C 239.097,109.284 238.431,103.951 238.5,98.5C 238.354,93.576 239.021,88.9093 240.5,84.5C 263.23,86.2552 286.063,87.9219 309,89.5C 309.497,87.1902 309.663,84.8568 309.5,82.5 Z"/></g>
<g><path style="opacity:1" fill="#d4716b" d="M 269.5,89.5 C 274.08,89.1134 278.414,89.9468 282.5,92C 284.717,96.683 283.384,99.5164 278.5,100.5C 275.5,100 272.5,99.5 269.5,99C 266.888,95.8359 266.888,92.6693 269.5,89.5 Z"/></g>
<g><path style="opacity:1" fill="#d4726c" d="M 297.5,89.5 C 305.993,88.4707 308.327,91.6373 304.5,99C 302.2,99.6583 299.867,100.158 297.5,100.5C 292.849,99.8074 291.349,97.1407 293,92.5C 294.409,91.2189 295.909,90.2189 297.5,89.5 Z"/></g>
<g><path style="opacity:1" fill="#e0e6e6" d="M 436.5,112.5 C 437.485,116.634 437.818,120.968 437.5,125.5C 445.5,125.5 453.5,125.5 461.5,125.5C 461.182,120.968 461.515,116.634 462.5,112.5C 462.5,142.167 462.5,171.833 462.5,201.5C 454.863,201.599 448.697,198.599 444,192.5C 439.256,187.019 436.756,180.685 436.5,173.5C 436.5,153.167 436.5,132.833 436.5,112.5 Z"/></g>
<g><path style="opacity:1" fill="#ca8a84" d="M 228.5,90.5 C 228.867,103.499 229.2,116.499 229.5,129.5C 229.5,131.5 229.5,133.5 229.5,135.5C 206.821,134.996 184.154,134.329 161.5,133.5C 163.459,128.668 164.959,123.668 166,118.5C 167.094,109.412 168.594,100.412 170.5,91.5C 189.427,92.5169 208.427,93.1836 227.5,93.5C 227.263,92.209 227.596,91.209 228.5,90.5 Z"/></g>
<g><path style="opacity:1" fill="#e7b3ab" d="M 311.5,98.5 C 311.5,107.5 311.5,116.5 311.5,125.5C 300.966,122.282 290.299,121.782 279.5,124C 269.578,126.771 262.912,132.938 259.5,142.5C 257.274,143.559 254.941,143.392 252.5,142C 249.351,140.338 246.351,138.505 243.5,136.5C 243.5,135.833 243.167,135.5 242.5,135.5C 242.272,128.449 241.605,121.449 240.5,114.5C 263.863,115.482 287.196,116.815 310.5,118.5C 310.176,111.646 310.509,104.979 311.5,98.5 Z"/></g>
<g><path style="opacity:1" fill="#a83e33" d="M 242.5,135.5 C 243.167,135.5 243.5,135.833 243.5,136.5C 244.054,143.153 244.388,149.82 244.5,156.5C 245.35,163.799 245.683,171.132 245.5,178.5C 245.5,184.167 245.5,189.833 245.5,195.5C 241.562,192.902 237.895,189.902 234.5,186.5C 234.5,184.5 234.5,182.5 234.5,180.5C 234.938,172.372 234.272,164.372 232.5,156.5C 231.635,147.516 230.968,138.516 230.5,129.5C 230.343,128.127 230.51,126.793 231,125.5C 234.771,128.959 238.605,132.292 242.5,135.5 Z"/></g>
<g><path style="opacity:1" fill="#c6827c" d="M 229.5,129.5 C 229.833,129.5 230.167,129.5 230.5,129.5C 230.968,138.516 231.635,147.516 232.5,156.5C 205.168,155.789 177.835,155.122 150.5,154.5C 154.575,147.746 158.241,140.746 161.5,133.5C 184.154,134.329 206.821,134.996 229.5,135.5C 229.5,133.5 229.5,131.5 229.5,129.5 Z"/></g>
<g><path style="opacity:1" fill="#e56459" d="M 311.5,125.5 C 317.709,129.576 321.709,135.242 323.5,142.5C 302.167,142.5 280.833,142.5 259.5,142.5C 262.912,132.938 269.578,126.771 279.5,124C 290.299,121.782 300.966,122.282 311.5,125.5 Z"/></g>
<g><path style="opacity:1" fill="#e05d55" d="M 243.5,136.5 C 246.351,138.505 249.351,140.338 252.5,142C 254.941,143.392 257.274,143.559 259.5,142.5C 280.833,142.5 302.167,142.5 323.5,142.5C 328.109,154.006 324.443,159.34 312.5,158.5C 298.189,149.157 283.856,149.323 269.5,159C 266.036,159.817 262.702,159.483 259.5,158C 258.748,157.329 258.414,156.496 258.5,155.5C 258.217,154.711 257.717,154.044 257,153.5C 256.506,155.134 256.34,156.801 256.5,158.5C 252.173,158.984 248.173,158.318 244.5,156.5C 244.388,149.82 244.054,143.153 243.5,136.5 Z"/></g>
<g><path style="opacity:1" fill="#96afe3" d="M 436.5,108.5 C 436.5,109.833 436.5,111.167 436.5,112.5C 436.5,132.833 436.5,153.167 436.5,173.5C 428.167,173.5 419.833,173.5 411.5,173.5C 411.768,175.099 411.434,176.432 410.5,177.5C 410.048,157.113 410.548,136.779 412,116.5C 413.892,112.942 416.725,110.442 420.5,109C 425.823,108.501 431.156,108.334 436.5,108.5 Z"/></g>
<g><path style="opacity:1" fill="#a93e33" d="M 312.5,158.5 C 312.5,161.167 312.5,163.833 312.5,166.5C 298.025,159.225 284.025,160.058 270.5,169C 262.599,169.778 258.266,166.112 257.5,158C 257.528,156.93 257.861,156.097 258.5,155.5C 258.414,156.496 258.748,157.329 259.5,158C 262.702,159.483 266.036,159.817 269.5,159C 283.856,149.323 298.189,149.157 312.5,158.5 Z"/></g>
<g><path style="opacity:1" fill="#c17c75" d="M 150.5,154.5 C 177.835,155.122 205.168,155.789 232.5,156.5C 234.272,164.372 234.938,172.372 234.5,180.5C 197.983,180.341 161.65,179.341 125.5,177.5C 134.76,170.91 143.093,163.243 150.5,154.5 Z"/></g>
<g><path style="opacity:1" fill="#d6544d" d="M 258.5,155.5 C 257.861,156.097 257.528,156.93 257.5,158C 258.266,166.112 262.599,169.778 270.5,169C 284.025,160.058 298.025,159.225 312.5,166.5C 312.65,173.721 311.983,180.721 310.5,187.5C 289.167,187.5 267.833,187.5 246.5,187.5C 246.81,184.287 246.477,181.287 245.5,178.5C 245.683,171.132 245.35,163.799 244.5,156.5C 248.173,158.318 252.173,158.984 256.5,158.5C 256.34,156.801 256.506,155.134 257,153.5C 257.717,154.044 258.217,154.711 258.5,155.5 Z"/></g>
<g><path style="opacity:1" fill="#bb756e" d="M 125.5,177.5 C 161.65,179.341 197.983,180.341 234.5,180.5C 234.5,182.5 234.5,184.5 234.5,186.5C 234.158,191.548 233.492,196.548 232.5,201.5C 191.165,200.837 149.831,200.004 108.5,199C 105.305,198.819 102.305,198.319 99.5,197.5C 107.306,189.692 115.973,183.025 125.5,177.5 Z"/></g>
<g><path style="opacity:1" fill="#e0e6e6" d="M 412.5,183.5 C 420.836,183.751 427.669,187.085 433,193.5C 437.032,203.272 443.198,211.272 451.5,217.5C 438.344,218.496 425.01,218.829 411.5,218.5C 411.189,206.753 411.522,195.086 412.5,183.5 Z"/></g>
<g><path style="opacity:1" fill="#8a7670" d="M 234.5,186.5 C 237.895,189.902 241.562,192.902 245.5,195.5C 251.087,201.963 258.087,205.13 266.5,205C 268.833,203.833 271.167,202.667 273.5,201.5C 277.285,207.119 281.951,211.952 287.5,216C 291.221,216.678 294.888,216.511 298.5,215.5C 296.025,221.783 293.025,227.783 289.5,233.5C 282.475,228.808 276.809,222.808 272.5,215.5C 269.399,217.098 266.732,219.265 264.5,222C 261.97,223.422 259.303,223.755 256.5,223C 253,220.167 249.5,217.333 246,214.5C 241.856,229.796 234.356,243.129 223.5,254.5C 215.544,262.133 206.544,268.133 196.5,272.5C 175.458,279.252 154.125,280.252 132.5,275.5C 123.806,271.992 115.139,268.158 106.5,264C 100.909,260.414 95.9094,256.08 91.5,251C 88.3924,249.241 85.059,248.408 81.5,248.5C 85.5311,246.561 89.8645,246.061 94.5,247C 121.337,260.358 149.67,265.358 179.5,262C 201.095,256.565 216.429,243.732 225.5,223.5C 226.736,221.351 227.736,219.018 228.5,216.5C 230.235,211.624 231.569,206.624 232.5,201.5C 233.492,196.548 234.158,191.548 234.5,186.5 Z"/></g>
<g><path style="opacity:1" fill="#cc4c46" d="M 245.5,178.5 C 246.477,181.287 246.81,184.287 246.5,187.5C 267.833,187.5 289.167,187.5 310.5,187.5C 310.5,187.833 310.5,188.167 310.5,188.5C 308.817,198.557 304.817,207.557 298.5,215.5C 294.888,216.511 291.221,216.678 287.5,216C 281.951,211.952 277.285,207.119 273.5,201.5C 271.167,202.667 268.833,203.833 266.5,205C 258.087,205.13 251.087,201.963 245.5,195.5C 245.5,189.833 245.5,184.167 245.5,178.5 Z"/></g>
<g><path style="opacity:1" fill="#ba6f69" d="M 99.5,197.5 C 102.305,198.319 105.305,198.819 108.5,199C 149.831,200.004 191.165,200.837 232.5,201.5C 231.569,206.624 230.235,211.624 228.5,216.5C 187.832,215.807 147.165,214.974 106.5,214C 99.425,214.133 92.7584,213.3 86.5,211.5C 90.1266,206.206 94.46,201.539 99.5,197.5 Z"/></g>
<g><path style="opacity:1" fill="#8aa4d6" d="M 436.5,173.5 C 436.756,180.685 439.256,187.019 444,192.5C 448.697,198.599 454.863,201.599 462.5,201.5C 462.5,208.167 462.5,214.833 462.5,221.5C 458.53,221.016 454.864,219.683 451.5,217.5C 443.198,211.272 437.032,203.272 433,193.5C 427.669,187.085 420.836,183.751 412.5,183.5C 411.833,183.5 411.167,183.5 410.5,183.5C 410.5,181.5 410.5,179.5 410.5,177.5C 411.434,176.432 411.768,175.099 411.5,173.5C 419.833,173.5 428.167,173.5 436.5,173.5 Z"/></g>
<g><path style="opacity:1" fill="#b56f63" d="M 86.5,211.5 C 92.7584,213.3 99.425,214.133 106.5,214C 147.165,214.974 187.832,215.807 228.5,216.5C 227.736,219.018 226.736,221.351 225.5,223.5C 182.678,221.636 139.678,220.303 96.5,219.5C 91.088,219.523 85.7547,219.856 80.5,220.5C 81.7589,216.975 83.7589,213.975 86.5,211.5 Z"/></g>
<g><path style="opacity:1" fill="#d9e0e6" d="M 410.5,183.5 C 411.167,183.5 411.833,183.5 412.5,183.5C 411.522,195.086 411.189,206.753 411.5,218.5C 425.01,218.829 438.344,218.496 451.5,217.5C 454.864,219.683 458.53,221.016 462.5,221.5C 462.5,231.167 462.5,240.833 462.5,250.5C 459.209,251.257 455.876,251.924 452.5,252.5C 444.13,253.17 437.463,256.837 432.5,263.5C 428.827,268.185 426.827,273.518 426.5,279.5C 425.51,285.645 425.177,291.978 425.5,298.5C 420.833,298.5 416.167,298.5 411.5,298.5C 411.5,302.167 411.5,305.833 411.5,309.5C 411.167,309.5 410.833,309.5 410.5,309.5C 410.5,267.5 410.5,225.5 410.5,183.5 Z"/></g>
<g><path style="opacity:1" fill="#b46a64" d="M 225.5,223.5 C 216.429,243.732 201.095,256.565 179.5,262C 149.67,265.358 121.337,260.358 94.5,247C 89.8645,246.061 85.5311,246.561 81.5,248.5C 78.2622,249.738 75.2622,251.404 72.5,253.5C 71.245,241.521 73.9116,230.521 80.5,220.5C 85.7547,219.856 91.088,219.523 96.5,219.5C 139.678,220.303 182.678,221.636 225.5,223.5 Z"/></g>
<g><path style="opacity:1" fill="#4c4c5e" d="M 310.5,188.5 C 324.135,195.166 329.968,206.166 328,221.5C 326.466,227.935 324.632,234.268 322.5,240.5C 316.847,253.908 310.68,267.242 304,280.5C 302.609,283.336 300.776,285.669 298.5,287.5C 294.167,283.5 289.833,279.5 285.5,275.5C 281.361,271.012 276.694,267.345 271.5,264.5C 274.083,261.003 276.416,257.336 278.5,253.5C 282.167,246.833 285.833,240.167 289.5,233.5C 293.025,227.783 296.025,221.783 298.5,215.5C 304.817,207.557 308.817,198.557 310.5,188.5 Z"/></g>
<g><path style="opacity:1" fill="#d4c0b9" d="M 289.5,233.5 C 285.833,240.167 282.167,246.833 278.5,253.5C 260.169,253.944 241.836,254.278 223.5,254.5C 234.356,243.129 241.856,229.796 246,214.5C 249.5,217.333 253,220.167 256.5,223C 259.303,223.755 261.97,223.422 264.5,222C 266.732,219.265 269.399,217.098 272.5,215.5C 276.809,222.808 282.475,228.808 289.5,233.5 Z"/></g>
<g><path style="opacity:1" fill="#8a7670" d="M 322.5,240.5 C 322.653,246.845 322.986,253.178 323.5,259.5C 319.006,268.652 314.34,277.819 309.5,287C 314.282,294.798 314.782,302.965 311,311.5C 304.783,322.541 297.616,332.874 289.5,342.5C 283.73,348.771 277.73,354.938 271.5,361C 266.76,363.072 261.76,364.072 256.5,364C 253.629,366.703 250.962,369.536 248.5,372.5C 242.474,378.195 236.474,383.861 230.5,389.5C 225.5,389.5 220.5,389.5 215.5,389.5C 229.473,377.527 242.473,364.527 254.5,350.5C 260.06,353.352 265.394,352.852 270.5,349C 283.983,335.52 295.149,320.354 304,303.5C 305.284,297.074 303.451,291.741 298.5,287.5C 300.776,285.669 302.609,283.336 304,280.5C 310.68,267.242 316.847,253.908 322.5,240.5 Z"/></g>
<g><path style="opacity:1" fill="#d3bab4" d="M 278.5,253.5 C 276.416,257.336 274.083,261.003 271.5,264.5C 266.118,263.699 261.785,265.366 258.5,269.5C 257.5,270.167 256.5,270.833 255.5,271.5C 238.507,272.185 221.507,272.852 204.5,273.5C 201.645,273.497 198.978,273.164 196.5,272.5C 206.544,268.133 215.544,262.133 223.5,254.5C 241.836,254.278 260.169,253.944 278.5,253.5 Z"/></g>
<g><path style="opacity:1" fill="#90a8da" d="M 452.5,252.5 C 445.46,255.712 440.626,261.046 438,268.5C 437.5,276.827 437.334,285.16 437.5,293.5C 437.334,299.842 437.5,306.175 438,312.5C 439.958,321.793 445.458,327.96 454.5,331C 458.356,331.177 462.023,331.677 465.5,332.5C 465.5,335.5 465.5,338.5 465.5,341.5C 454.322,343.357 444.322,340.857 435.5,334C 434.117,332.729 433.117,331.229 432.5,329.5C 433.833,307.5 433.833,285.5 432.5,263.5C 437.463,256.837 444.13,253.17 452.5,252.5 Z"/></g>
<g><path style="opacity:1" fill="#d3bbb4" d="M 81.5,248.5 C 85.059,248.408 88.3924,249.241 91.5,251C 95.9094,256.08 100.909,260.414 106.5,264C 115.139,268.158 123.806,271.992 132.5,275.5C 110.497,275.811 88.4972,276.311 66.5,277C 63.5738,277.218 60.7405,277.718 58,278.5C 57.6012,278.272 57.4346,277.938 57.5,277.5C 61.9885,269.192 66.9885,261.192 72.5,253.5C 75.2622,251.404 78.2622,249.738 81.5,248.5 Z"/></g>
<g><path style="opacity:1" fill="#97b0e7" d="M 432.5,263.5 C 433.833,285.5 433.833,307.5 432.5,329.5C 430.021,326.28 428.188,322.613 427,318.5C 426.5,305.504 426.333,292.504 426.5,279.5C 426.827,273.518 428.827,268.185 432.5,263.5 Z"/></g>
<g><path style="opacity:1" fill="#e6bd73" d="M 271.5,264.5 C 276.694,267.345 281.361,271.012 285.5,275.5C 286.88,280.919 286.713,286.253 285,291.5C 276.293,283.955 267.46,276.622 258.5,269.5C 261.785,265.366 266.118,263.699 271.5,264.5 Z"/></g>
<g><path style="opacity:1" fill="#4c4c5e" d="M 462.5,250.5 C 476.526,251.929 484.693,259.596 487,273.5C 487.499,278.823 487.666,284.156 487.5,289.5C 486.566,290.568 486.232,291.901 486.5,293.5C 470.167,293.5 453.833,293.5 437.5,293.5C 437.334,285.16 437.5,276.827 438,268.5C 440.626,261.046 445.46,255.712 452.5,252.5C 455.876,251.924 459.209,251.257 462.5,250.5 Z"/></g>
<g><path style="opacity:1" fill="#e0762c" d="M 258.5,269.5 C 267.46,276.622 276.293,283.955 285,291.5C 286.713,286.253 286.88,280.919 285.5,275.5C 289.833,279.5 294.167,283.5 298.5,287.5C 303.451,291.741 305.284,297.074 304,303.5C 295.149,320.354 283.983,335.52 270.5,349C 265.394,352.852 260.06,353.352 254.5,350.5C 250.264,348.555 246.597,345.888 243.5,342.5C 246.586,339.777 249.92,337.277 253.5,335C 244.262,327.25 235.262,319.417 226.5,311.5C 227.475,309.205 228.808,307.205 230.5,305.5C 241.012,312.164 250.845,319.831 260,328.5C 262.432,325.312 265.099,322.312 268,319.5C 268.688,318.668 268.521,318.002 267.5,317.5C 257.621,310.066 247.954,302.399 238.5,294.5C 239.921,291.991 241.588,289.657 243.5,287.5C 253.291,294.785 262.958,302.285 272.5,310C 273.996,310.507 275.163,310.007 276,308.5C 278.221,305.739 279.554,302.739 280,299.5C 270.96,291.622 261.794,283.955 252.5,276.5C 253.752,274.999 254.752,273.332 255.5,271.5C 256.5,270.833 257.5,270.167 258.5,269.5 Z"/></g>
<g><path style="opacity:1" fill="#cebaae" d="M 255.5,271.5 C 254.752,273.332 253.752,274.999 252.5,276.5C 250.5,278.833 248.5,281.167 246.5,283.5C 181.672,284.495 116.672,286.162 51.5,288.5C 52.7417,284.345 54.7417,280.678 57.5,277.5C 57.4346,277.938 57.6012,278.272 58,278.5C 60.7405,277.718 63.5738,277.218 66.5,277C 88.4972,276.311 110.497,275.811 132.5,275.5C 154.125,280.252 175.458,279.252 196.5,272.5C 198.978,273.164 201.645,273.497 204.5,273.5C 221.507,272.852 238.507,272.185 255.5,271.5 Z"/></g>
<g><path style="opacity:1" fill="#887570" d="M 325.5,276.5 C 334.073,291.076 346.073,301.743 361.5,308.5C 362.745,317.217 364.078,325.884 365.5,334.5C 368.407,352.092 370.741,369.759 372.5,387.5C 356.801,392.251 341.134,392.584 325.5,388.5C 329.466,383.605 331.466,377.939 331.5,371.5C 332.277,362.188 332.61,352.854 332.5,343.5C 332.239,320.939 329.906,298.606 325.5,276.5 Z"/></g>
<g><path style="opacity:1" fill="#cdb3ac" d="M 246.5,283.5 C 245.5,284.833 244.5,286.167 243.5,287.5C 241.588,289.657 239.921,291.991 238.5,294.5C 236.512,297.128 234.512,299.795 232.5,302.5C 198.09,303.366 163.756,304.7 129.5,306.5C 130.167,304.181 130.334,301.847 130,299.5C 128.759,297.579 127.259,297.246 125.5,298.5C 120.125,309.002 116.125,320.002 113.5,331.5C 87.5494,332.536 61.5494,333.536 35.5,334.5C 37.869,318.056 43.2024,302.723 51.5,288.5C 116.672,286.162 181.672,284.495 246.5,283.5 Z"/></g>
<g><path style="opacity:1" fill="#e6b361" d="M 252.5,276.5 C 261.794,283.955 270.96,291.622 280,299.5C 279.554,302.739 278.221,305.739 276,308.5C 275.163,310.007 273.996,310.507 272.5,310C 262.958,302.285 253.291,294.785 243.5,287.5C 244.5,286.167 245.5,284.833 246.5,283.5C 248.5,281.167 250.5,278.833 252.5,276.5 Z"/></g>
<g><path style="opacity:1" fill="#424255" d="M 487.5,289.5 C 487.666,296.175 487.5,302.842 487,309.5C 484.828,321.838 477.662,329.505 465.5,332.5C 462.023,331.677 458.356,331.177 454.5,331C 445.458,327.96 439.958,321.793 438,312.5C 437.5,306.175 437.334,299.842 437.5,293.5C 453.833,293.5 470.167,293.5 486.5,293.5C 486.232,291.901 486.566,290.568 487.5,289.5 Z"/></g>
<g><path style="opacity:1" fill="#8a7771" d="M 129.5,306.5 C 129.5,308.167 129.5,309.833 129.5,311.5C 128.521,314.625 128.187,317.958 128.5,321.5C 128.56,330.513 128.893,339.513 129.5,348.5C 129.5,350.5 129.5,352.5 129.5,354.5C 124.506,351.918 119.173,350.585 113.5,350.5C 113.5,344.167 113.5,337.833 113.5,331.5C 116.125,320.002 120.125,309.002 125.5,298.5C 127.259,297.246 128.759,297.579 130,299.5C 130.334,301.847 130.167,304.181 129.5,306.5 Z"/></g>
<g><path style="opacity:1" fill="#d3e0e6" d="M 426.5,279.5 C 426.333,292.504 426.5,305.504 427,318.5C 428.188,322.613 430.021,326.28 432.5,329.5C 433.117,331.229 434.117,332.729 435.5,334C 444.322,340.857 454.322,343.357 465.5,341.5C 466.073,351.31 465.24,360.977 463,370.5C 459.409,378.018 455.576,385.351 451.5,392.5C 441.945,380.113 430.612,369.613 417.5,361C 415.564,360.187 413.564,359.687 411.5,359.5C 411.5,342.833 411.5,326.167 411.5,309.5C 411.5,305.833 411.5,302.167 411.5,298.5C 416.167,298.5 420.833,298.5 425.5,298.5C 425.177,291.978 425.51,285.645 426.5,279.5 Z"/></g>
<g><path style="opacity:1" fill="#ceb4a7" d="M 232.5,302.5 C 231.833,303.5 231.167,304.5 230.5,305.5C 228.808,307.205 227.475,309.205 226.5,311.5C 225.833,312.167 225.167,312.833 224.5,313.5C 218.843,312.834 213.01,312.501 207,312.5C 181.168,313.287 155.335,313.954 129.5,314.5C 129.5,313.5 129.5,312.5 129.5,311.5C 129.5,309.833 129.5,308.167 129.5,306.5C 163.756,304.7 198.09,303.366 232.5,302.5 Z"/></g>
<g><path style="opacity:1" fill="#e6a74f" d="M 238.5,294.5 C 247.954,302.399 257.621,310.066 267.5,317.5C 268.521,318.002 268.688,318.668 268,319.5C 265.099,322.312 262.432,325.312 260,328.5C 250.845,319.831 241.012,312.164 230.5,305.5C 231.167,304.5 231.833,303.5 232.5,302.5C 234.512,299.795 236.512,297.128 238.5,294.5 Z"/></g>
<g><path style="opacity:1" fill="#3f3f51" d="M 361.5,308.5 C 377.799,310.645 394.133,310.978 410.5,309.5C 410.833,309.5 411.167,309.5 411.5,309.5C 411.5,326.167 411.5,342.833 411.5,359.5C 411.167,359.5 410.833,359.5 410.5,359.5C 410.5,351.5 410.5,343.5 410.5,335.5C 395.502,335.083 380.502,334.75 365.5,334.5C 364.078,325.884 362.745,317.217 361.5,308.5 Z"/></g>
<g><path style="opacity:1" fill="#c9afa6" d="M 323.5,259.5 C 324.457,265.116 325.124,270.783 325.5,276.5C 329.906,298.606 332.239,320.939 332.5,343.5C 318.071,343.316 303.738,342.982 289.5,342.5C 297.616,332.874 304.783,322.541 311,311.5C 314.782,302.965 314.282,294.798 309.5,287C 314.34,277.819 319.006,268.652 323.5,259.5 Z"/></g>
<g><path style="opacity:1" fill="#e69f42" d="M 226.5,311.5 C 235.262,319.417 244.262,327.25 253.5,335C 249.92,337.277 246.586,339.777 243.5,342.5C 236.891,338.224 230.891,333.224 225.5,327.5C 223.262,323.009 222.928,318.342 224.5,313.5C 225.167,312.833 225.833,312.167 226.5,311.5 Z"/></g>
<g><path style="opacity:1" fill="#c9aea7" d="M 129.5,311.5 C 129.5,312.5 129.5,313.5 129.5,314.5C 155.335,313.954 181.168,313.287 207,312.5C 213.01,312.501 218.843,312.834 224.5,313.5C 222.928,318.342 223.262,323.009 225.5,327.5C 224.167,328.5 222.833,329.5 221.5,330.5C 215.509,329.834 209.343,329.5 203,329.5C 178.498,330.176 153.998,330.843 129.5,331.5C 129.813,327.958 129.479,324.625 128.5,321.5C 128.187,317.958 128.521,314.625 129.5,311.5 Z"/></g>
<g><path style="opacity:1" fill="#c7aea1" d="M 128.5,321.5 C 129.479,324.625 129.813,327.958 129.5,331.5C 153.998,330.843 178.498,330.176 203,329.5C 209.343,329.5 215.509,329.834 221.5,330.5C 217.539,336.129 212.873,341.129 207.5,345.5C 181.487,346.464 155.487,347.464 129.5,348.5C 128.893,339.513 128.56,330.513 128.5,321.5 Z"/></g>
<g><path style="opacity:1" fill="#39394b" d="M 225.5,327.5 C 230.891,333.224 236.891,338.224 243.5,342.5C 246.597,345.888 250.264,348.555 254.5,350.5C 242.473,364.527 229.473,377.527 215.5,389.5C 196.833,389.5 178.167,389.5 159.5,389.5C 169.936,380.906 180.269,372.073 190.5,363C 196.37,357.298 202.036,351.465 207.5,345.5C 212.873,341.129 217.539,336.129 221.5,330.5C 222.833,329.5 224.167,328.5 225.5,327.5 Z"/></g>
<g><path style="opacity:1" fill="#c7aea1" d="M 113.5,331.5 C 113.5,337.833 113.5,344.167 113.5,350.5C 87.7782,348.453 62.4449,350.786 37.5,357.5C 34.7819,349.988 34.1152,342.322 35.5,334.5C 61.5494,333.536 87.5494,332.536 113.5,331.5 Z"/></g>
<g><path style="opacity:1" fill="#38384b" d="M 365.5,334.5 C 380.502,334.75 395.502,335.083 410.5,335.5C 410.5,343.5 410.5,351.5 410.5,359.5C 409.909,364.442 408.409,369.108 406,373.5C 400.281,381.045 394.781,388.712 389.5,396.5C 384.515,397.248 379.515,397.915 374.5,398.5C 373.94,394.807 373.273,391.14 372.5,387.5C 370.741,369.759 368.407,352.092 365.5,334.5 Z"/></g>
<g><path style="opacity:1" fill="#4c4b5d" d="M 113.5,350.5 C 119.173,350.585 124.506,351.918 129.5,354.5C 136.552,361.218 142.885,368.551 148.5,376.5C 111.901,378.03 75.234,379.03 38.5,379.5C 32.9905,374.153 27.9905,368.32 23.5,362C 28.0199,359.993 32.6866,358.493 37.5,357.5C 62.4449,350.786 87.7782,348.453 113.5,350.5 Z"/></g>
<g><path style="opacity:1" fill="#c6a79c" d="M 289.5,342.5 C 303.738,342.982 318.071,343.316 332.5,343.5C 332.61,352.854 332.277,362.188 331.5,371.5C 306.321,371.713 281.155,372.38 256,373.5C 253.31,373.497 250.81,373.164 248.5,372.5C 250.962,369.536 253.629,366.703 256.5,364C 261.76,364.072 266.76,363.072 271.5,361C 277.73,354.938 283.73,348.771 289.5,342.5 Z"/></g>
<g><path style="opacity:1" fill="#c5a69c" d="M 207.5,345.5 C 202.036,351.465 196.37,357.298 190.5,363C 180.269,372.073 169.936,380.906 159.5,389.5C 158.167,389.5 156.833,389.5 155.5,389.5C 153.421,385.007 151.088,380.674 148.5,376.5C 142.885,368.551 136.552,361.218 129.5,354.5C 129.5,352.5 129.5,350.5 129.5,348.5C 155.487,347.464 181.487,346.464 207.5,345.5 Z"/></g>
<g><path style="opacity:1" fill="#444456" d="M 148.5,376.5 C 151.088,380.674 153.421,385.007 155.5,389.5C 156.971,393.718 157.971,398.051 158.5,402.5C 153.915,401.224 149.082,400.557 144,400.5C 119.667,401.015 95.5003,401.682 71.5,402.5C 59.2398,396.545 48.2398,388.879 38.5,379.5C 75.234,379.03 111.901,378.03 148.5,376.5 Z"/></g>
<g><path style="opacity:1" fill="#c0a197" d="M 331.5,371.5 C 331.466,377.939 329.466,383.605 325.5,388.5C 324.833,388.833 324.167,389.167 323.5,389.5C 304.167,389.5 284.833,389.5 265.5,389.5C 257.167,389.5 248.833,389.5 240.5,389.5C 237.167,389.5 233.833,389.5 230.5,389.5C 236.474,383.861 242.474,378.195 248.5,372.5C 250.81,373.164 253.31,373.497 256,373.5C 281.155,372.38 306.321,371.713 331.5,371.5 Z"/></g>
<g><path style="opacity:1" fill="#38384b" d="M 240.5,389.5 C 248.833,389.5 257.167,389.5 265.5,389.5C 265.5,392.833 265.5,396.167 265.5,399.5C 265.5,409.167 265.5,418.833 265.5,428.5C 265.5,439.167 265.5,449.833 265.5,460.5C 265.5,465.167 265.5,469.833 265.5,474.5C 263.672,484.404 267.005,491.737 275.5,496.5C 242.167,496.5 208.833,496.5 175.5,496.5C 182.871,494.647 189.204,490.98 194.5,485.5C 198.992,481.862 201.992,477.195 203.5,471.5C 206.63,461.442 209.964,451.442 213.5,441.5C 217.622,431.827 221.955,422.16 226.5,412.5C 231.132,404.856 235.799,397.189 240.5,389.5 Z"/></g>
<g><path style="opacity:1" fill="#da5851" d="M 410.5,359.5 C 410.833,359.5 411.167,359.5 411.5,359.5C 413.564,359.687 415.564,360.187 417.5,361C 430.612,369.613 441.945,380.113 451.5,392.5C 447.95,399.601 444.95,406.935 442.5,414.5C 422.426,413.831 402.426,412.831 382.5,411.5C 384.56,406.38 386.893,401.38 389.5,396.5C 394.781,388.712 400.281,381.045 406,373.5C 408.409,369.108 409.909,364.442 410.5,359.5 Z"/></g>
<g><path style="opacity:1" fill="#cf968f" d="M 265.5,389.5 C 284.833,389.5 304.167,389.5 323.5,389.5C 328.711,392.24 331.711,396.573 332.5,402.5C 310.161,401.611 287.828,400.611 265.5,399.5C 265.5,396.167 265.5,392.833 265.5,389.5 Z"/></g>
<g><path style="opacity:1" fill="#cd908a" d="M 155.5,389.5 C 156.833,389.5 158.167,389.5 159.5,389.5C 178.167,389.5 196.833,389.5 215.5,389.5C 220.5,389.5 225.5,389.5 230.5,389.5C 233.833,389.5 237.167,389.5 240.5,389.5C 235.799,397.189 231.132,404.856 226.5,412.5C 204.02,410.323 181.353,408.656 158.5,407.5C 158.5,405.833 158.5,404.167 158.5,402.5C 157.971,398.051 156.971,393.718 155.5,389.5 Z"/></g>
<g><path style="opacity:1" fill="#3c3c4f" d="M 158.5,402.5 C 158.5,404.167 158.5,405.833 158.5,407.5C 158.5,417.833 158.5,428.167 158.5,438.5C 157.502,446.331 153.168,451.165 145.5,453C 136.34,454.045 127.34,453.545 118.5,451.5C 115.777,448.938 113.611,445.938 112,442.5C 111.294,431.116 106.794,421.616 98.5,414C 97.9056,413.536 97.2389,413.369 96.5,413.5C 88.118,410.036 79.7846,406.369 71.5,402.5C 95.5003,401.682 119.667,401.015 144,400.5C 149.082,400.557 153.915,401.224 158.5,402.5 Z"/></g>
<g><path style="opacity:1" fill="#c78680" d="M 158.5,407.5 C 181.353,408.656 204.02,410.323 226.5,412.5C 221.955,422.16 217.622,431.827 213.5,441.5C 213.082,440.778 212.416,440.278 211.5,440C 193.778,438.494 176.111,437.994 158.5,438.5C 158.5,428.167 158.5,417.833 158.5,407.5 Z"/></g>
<g><path style="opacity:1" fill="#ca8a84" d="M 265.5,399.5 C 287.828,400.611 310.161,401.611 332.5,402.5C 332.5,412.5 332.5,422.5 332.5,432.5C 310.181,431.011 287.848,429.677 265.5,428.5C 265.5,418.833 265.5,409.167 265.5,399.5 Z"/></g>
<g><path style="opacity:1" fill="#d05049" d="M 382.5,411.5 C 402.426,412.831 422.426,413.831 442.5,414.5C 436.72,434.665 436.053,454.998 440.5,475.5C 438.628,474.489 436.628,473.655 434.5,473C 429.511,472.501 424.511,472.334 419.5,472.5C 411.167,472.5 402.833,472.5 394.5,472.5C 387.683,472.064 381.016,472.731 374.5,474.5C 372.375,452.861 375.042,431.861 382.5,411.5 Z"/></g>
<g><path style="opacity:1" fill="#c17e76" d="M 96.5,413.5 C 97.2389,413.369 97.9056,413.536 98.5,414C 106.794,421.616 111.294,431.116 112,442.5C 113.611,445.938 115.777,448.938 118.5,451.5C 103.831,450.872 89.1647,450.206 74.5,449.5C 80.3274,436.499 87.6608,424.499 96.5,413.5 Z"/></g>
<g><path style="opacity:1" fill="#c27e77" d="M 265.5,428.5 C 287.848,429.677 310.181,431.011 332.5,432.5C 332.5,443.167 332.5,453.833 332.5,464.5C 310.251,462.69 287.917,461.356 265.5,460.5C 265.5,449.833 265.5,439.167 265.5,428.5 Z"/></g>
<g><path style="opacity:1" fill="#bc7770" d="M 213.5,441.5 C 209.964,451.442 206.63,461.442 203.5,471.5C 158.509,468.755 113.509,466.089 68.5,463.5C 70.3052,458.751 72.3052,454.085 74.5,449.5C 89.1647,450.206 103.831,450.872 118.5,451.5C 127.34,453.545 136.34,454.045 145.5,453C 153.168,451.165 157.502,446.331 158.5,438.5C 176.111,437.994 193.778,438.494 211.5,440C 212.416,440.278 213.082,440.778 213.5,441.5 Z"/></g>
<g><path style="opacity:1" fill="#bb766e" d="M 265.5,460.5 C 287.917,461.356 310.251,462.69 332.5,464.5C 332.5,469.167 332.5,473.833 332.5,478.5C 310.117,477.556 287.784,476.223 265.5,474.5C 265.5,469.833 265.5,465.167 265.5,460.5 Z"/></g>
<g><path style="opacity:1" fill="#b96f68" d="M 68.5,463.5 C 113.509,466.089 158.509,468.755 203.5,471.5C 201.992,477.195 198.992,481.862 194.5,485.5C 154.174,483.13 113.841,480.797 73.5,478.5C 70.0866,478.483 67.0866,477.816 64.5,476.5C 65.4345,472.031 66.7679,467.697 68.5,463.5 Z"/></g>
<g><path style="opacity:1" fill="#96afe3" d="M 394.5,472.5 C 391.493,480.511 388.493,488.511 385.5,496.5C 373.564,498.396 368.397,493.396 370,481.5C 370.904,478.767 372.404,476.433 374.5,474.5C 381.016,472.731 387.683,472.064 394.5,472.5 Z"/></g>
<g><path style="opacity:1" fill="#89a3d6" d="M 394.5,472.5 C 402.833,472.5 411.167,472.5 419.5,472.5C 416.169,480.496 412.836,488.496 409.5,496.5C 401.5,496.5 393.5,496.5 385.5,496.5C 388.493,488.511 391.493,480.511 394.5,472.5 Z"/></g>
<g><path style="opacity:1" fill="#839bd3" d="M 419.5,472.5 C 424.511,472.334 429.511,472.501 434.5,473C 436.628,473.655 438.628,474.489 440.5,475.5C 448.91,480.294 450.577,486.794 445.5,495C 433.601,496.459 421.601,496.959 409.5,496.5C 412.836,488.496 416.169,480.496 419.5,472.5 Z"/></g>
<g><path style="opacity:1" fill="#b86e67" d="M 265.5,474.5 C 287.784,476.223 310.117,477.556 332.5,478.5C 333.91,487.193 330.576,493.027 322.5,496C 306.837,496.5 291.17,496.667 275.5,496.5C 267.005,491.737 263.672,484.404 265.5,474.5 Z"/></g>
<g><path style="opacity:1" fill="#b46963" d="M 64.5,476.5 C 67.0866,477.816 70.0866,478.483 73.5,478.5C 113.841,480.797 154.174,483.13 194.5,485.5C 189.204,490.98 182.871,494.647 175.5,496.5C 139.832,496.667 104.165,496.5 68.5,496C 61.0743,490.704 59.741,484.204 64.5,476.5 Z"/></g>
</svg>
