<?xml version="1.0" encoding="UTF-8"?>
<svg version="1.1" xmlns="http://www.w3.org/2000/svg" width="512" height="512">
<path d="M0 0 C11.09827675 11.7442082 15.56998388 26.61801077 15.484375 42.60546875 C15.22910448 46.03034822 14.52509202 49.15467361 13.75 52.5 C12.0796456 60.20721172 11.85356815 67.96182724 11.77319336 75.8182373 C11.75780285 77.22452524 11.73395578 78.6307475 11.70141602 80.03674316 C11.65946474 82.03843541 11.6572414 84.04083719 11.65625 86.04296875 C11.64561523 87.79903442 11.64561523 87.79903442 11.63476562 89.59057617 C12.42734059 93.66070024 14.15643504 95.09064553 17.25 97.75 C22.44056195 104.25879991 25.79719227 112.64539541 25.25 121.0625 C23.8600428 126.18796718 21.67333992 129.18195652 17.125 132.125 C15.25 132.75 15.25 132.75 12.25 132.75 C12.26160156 133.67941406 12.27320313 134.60882813 12.28515625 135.56640625 C12.37478032 147.84490334 12.37478032 147.84490334 11.25 153.75 C12.0853125 154.0903125 12.0853125 154.0903125 12.9375 154.4375 C19.54791971 158.18935984 23.59244738 164.85475135 26.5 171.6875 C28.96709072 181.76145376 28.04466327 190.75946529 24.625 200.5625 C22.54326139 207.20926947 22.87102616 213.86662993 23.25 220.75 C23.30583252 221.87462646 23.30583252 221.87462646 23.36279297 223.02197266 C23.92398759 232.87885255 24.83791619 240.83843112 31.25 248.75 C32.13365234 249.91402344 32.13365234 249.91402344 33.03515625 251.1015625 C41.53003574 261.53264655 53.19317817 267.68915695 66.4465332 269.3762207 C72.70611102 269.97251584 78.984363 269.83587094 85.265625 269.80078125 C87.14145264 269.79528259 87.14145264 269.79528259 89.05517578 269.78967285 C92.12015047 269.78015884 95.18505823 269.76683355 98.25 269.75 C98.24631283 268.81424133 98.24262566 267.87848267 98.23882675 266.91436768 C98.14999941 244.13754518 98.08428316 221.36074518 98.04275131 198.58378601 C98.0221326 187.56897828 97.99402509 176.55428503 97.94824219 165.53955078 C97.90835342 155.93827932 97.88256217 146.33709077 97.87364602 136.73573875 C97.86843476 131.65261953 97.85620059 126.56973749 97.82707977 121.48669434 C97.79987854 116.69981663 97.79156456 111.91327326 97.79756927 107.12632561 C97.79647115 105.37197997 97.78854534 103.61762286 97.7731781 101.86334419 C97.63571796 85.35815999 97.63571796 85.35815999 102.25 78.75 C106.03966114 75.05750966 109.81734898 72.91414649 115.14453125 72.5546875 C116.10746094 72.57789062 117.07039063 72.60109375 118.0625 72.625 C119.03832031 72.64304687 120.01414062 72.66109375 121.01953125 72.6796875 C121.75558594 72.70289062 122.49164063 72.72609375 123.25 72.75 C123.24000725 71.23450058 123.24000725 71.23450058 123.22981262 69.68838501 C123.16908533 60.18241307 123.1240678 50.67648032 123.09456348 41.17035866 C123.07888525 36.28276125 123.05760781 31.39532001 123.02368164 26.5078125 C122.99116487 21.794025 122.97316325 17.08038801 122.96536827 12.36649704 C122.9598109 10.56508386 122.94895918 8.76367923 122.93280983 6.96232986 C122.91113732 4.44556916 122.90802875 1.92943615 122.90942383 -0.58740234 C122.898638 -1.33762161 122.88785217 -2.08784088 122.8767395 -2.86079407 C122.88923645 -4.93441772 122.88923645 -4.93441772 123.25 -8.25 C128.03731408 -11.44154272 133.53003423 -10.62190874 139.12890625 -10.62060547 C141.24300289 -10.6249855 143.35502179 -10.66133303 145.46875 -10.69921875 C146.81249287 -10.70508601 148.15624564 -10.70905601 149.5 -10.7109375 C150.72203125 -10.71915527 151.9440625 -10.72737305 153.203125 -10.73583984 C156.25 -10.25 156.25 -10.25 157.91788197 -8.76932907 C159.86522347 -5.0864767 159.65303167 -1.5202188 159.61076355 2.54510498 C159.61332682 3.44282065 159.6158901 4.34053631 159.61853105 5.26545548 C159.6234805 8.27969092 159.60695673 11.29342774 159.59057617 14.30761719 C159.58973015 16.46581511 159.59020455 18.62401389 159.59190369 20.7822113 C159.59276604 26.64756517 159.57510133 32.51273579 159.55418181 38.37804699 C159.53545506 44.50529748 159.53366773 50.63255196 159.53010559 56.75982666 C159.52077336 68.36554655 159.4961436 79.97118187 159.46605712 91.57686448 C159.43254979 104.78830222 159.41603632 117.99974395 159.40097082 131.21121359 C159.36959511 158.39085598 159.31681169 185.57042326 159.25 212.75 C160.19617188 212.89550293 161.14234375 213.04100586 162.1171875 213.19091797 C168.5462396 214.33824725 173.91863961 218.4787211 177.83789062 223.63525391 C184.16431921 233.10958385 183.87304481 243.53781988 183.77148438 254.49267578 C183.75004121 257.24471144 183.77136212 259.99413736 183.796875 262.74609375 C183.8153348 274.28288003 183.44249407 285.416564 175.0078125 294.25390625 C167.94955859 300.26126457 159.67265549 303.13356876 150.4375 302.75 C141.05613311 301.46408055 133.35444611 296.97110482 127.65234375 289.484375 C122.68379851 279.79640378 122.75248583 270.16802941 122.80395508 259.51000977 C122.81247101 256.82165019 122.78362465 254.13541669 122.75195312 251.44726562 C122.7015485 239.30488223 123.43881516 228.70551903 132.25 219.4765625 C136.82414544 215.5277885 141.14490069 212.75 147.25 212.75 C147.25 206.15 147.25 199.55 147.25 192.75 C145.27 192.09 143.29 191.43 141.25 190.75 C133.33478176 185.86874486 128.8521079 179.65028522 124.25 171.75 C123.13132763 169.92061147 121.98604667 168.10718061 120.8125 166.3125 C120.31878906 165.53003906 119.82507813 164.74757812 119.31640625 163.94140625 C116.67630013 160.889932 116.67630013 160.889932 109.25 157.75 C109.25 190.09 109.25 222.43 109.25 255.75 C111.56 255.75 113.87 255.75 116.25 255.75 C118.25 258.75 118.25 258.75 118.8125 261.0625 C117.92918757 265.28277052 114.76230907 267.43759742 111.25 269.75 C110.59 269.75 109.93 269.75 109.25 269.75 C109.58 285.92 109.91 302.09 110.25 318.75 C112.89 320.07 115.53 321.39 118.25 322.75 C124.35001724 326.86657605 129.65286533 331.96787116 134.875 337.125 C135.67502441 337.91100586 135.67502441 337.91100586 136.49121094 338.71289062 C140.25 342.50380609 140.25 342.50380609 140.25 344.75 C140.91 344.75 141.57 344.75 142.25 344.75 C142.4975 344.110625 142.745 343.47125 143 342.8125 C144.36165418 339.47644725 145.84398156 336.20763261 147.34765625 332.93359375 C149.51278697 327.69416486 149.52600844 322.56065052 149.7734375 316.94140625 C150.29025701 313.48041003 151.10980617 311.5038513 153.25 308.75 C156.38070269 308.22821622 158.25824578 308.05856572 160.9140625 309.91015625 C164.28786556 314.55653415 162.57673464 322.32191314 161.8515625 327.7109375 C160.10408626 335.99442876 156.2701473 343.10977404 152.39111328 350.54785156 C140.66399559 373.17913131 134.49084746 394.07629812 135.25 419.75 C135.26401855 420.43819824 135.27803711 421.12639648 135.29248047 421.83544922 C135.33788321 423.78683078 135.41815975 425.73730678 135.5 427.6875 C135.54640625 428.81027344 135.5928125 429.93304688 135.640625 431.08984375 C135.84171875 431.96769531 136.0428125 432.84554688 136.25 433.75 C138.10604565 434.98015007 138.10604565 434.98015007 140.25 435.75 C144.01282768 439.70096906 145.63174044 443.89831847 145.9375 449.3125 C145.6963418 454.13566407 144.45144419 456.85734235 141.24609375 460.41015625 C134.63620082 464.84693369 126.55993904 464.0407146 118.94140625 464.015625 C117.66071762 464.01753845 116.38002899 464.0194519 115.06053162 464.02142334 C112.35825742 464.02436004 109.65611608 464.02012482 106.95385742 464.01074219 C103.50989709 463.99935988 100.066249 464.00590844 96.62230015 464.01788712 C93.31197797 464.02690121 90.00173727 464.02056721 86.69140625 464.015625 C85.46410294 464.01967346 84.23679962 464.02372192 82.9723053 464.02789307 C68.0744427 463.94678876 68.0744427 463.94678876 62.4375 459.5625 C58.18853551 454.09954565 56.81415438 449.81872521 57.6328125 443.05859375 C58.25 440.75 58.25 440.75 59.76318359 438.00146484 C61.36419635 434.50026815 61.63105171 432.23980546 61.65625 428.41796875 C61.6857373 426.61428833 61.6857373 426.61428833 61.71582031 424.77416992 C61.72709961 423.50806885 61.73837891 422.24196777 61.75 420.9375 C62.17123021 402.22400063 65.05935214 385.11359207 72.25 367.75 C71.156875 367.6675 70.06375 367.585 68.9375 367.5 C65.25 366.75 65.25 366.75 63.3125 365 C62.08143955 362.39304845 62.16984657 360.5978043 62.25 357.75 C61.69054687 357.894375 61.13109375 358.03875 60.5546875 358.1875 C53.19269716 359.89188362 45.79041814 360.439178 38.25 359.75 C36.25 357.75 36.25 357.75 35.9375 354.8125 C36.25 351.75 36.25 351.75 37.4777832 350.11791992 C39.66535604 348.42939938 41.18900207 348.16580227 43.91796875 347.80078125 C44.81064453 347.67509766 45.70332031 347.54941406 46.62304688 347.41992188 C47.55181641 347.30197266 48.48058594 347.18402344 49.4375 347.0625 C50.37787109 346.93294922 51.31824219 346.80339844 52.28710938 346.66992188 C54.60679109 346.35199595 56.92741471 346.04583237 59.25 345.75 C58.45093307 340.27710877 57.65134235 334.80429438 56.85131836 329.33154297 C56.58067543 327.47967469 56.31016228 325.62778744 56.03979492 323.77587891 C55.77714988 321.97698046 55.5143013 320.17811172 55.25125122 318.37927246 C54.98659908 316.56888772 54.72250325 314.75842158 54.45895386 312.94787598 C53.78783358 308.35297921 53.10007776 303.76153564 52.38134766 299.17382812 C52.1723156 297.82626434 52.1723156 297.82626434 51.95906067 296.45147705 C51.69535283 294.75705289 51.42748845 293.06326802 51.15458679 291.37030029 C50.44146196 286.76709898 50.12085798 282.40842017 50.25 277.75 C48.94095703 277.36134766 48.94095703 277.36134766 47.60546875 276.96484375 C44.23116937 275.74318239 41.56697265 274.26100737 38.5625 272.3125 C37.63050781 271.71566406 36.69851563 271.11882812 35.73828125 270.50390625 C33.64595912 269.02909835 32.0161152 267.57640749 30.25 265.75 C30.31058594 266.35956543 30.37117188 266.96913086 30.43359375 267.59716797 C31.77354148 281.55581576 32.46576597 295.42216724 32.5 309.4375 C32.50749268 310.49212433 32.50749268 310.49212433 32.51513672 311.5680542 C32.67549518 339.01901774 32.67549518 339.01901774 26.2734375 347.234375 C24.97019021 348.85957326 24.97019021 348.85957326 25.25 351.75 C26.45655732 353.21056939 27.66749291 354.67047487 28.9609375 356.0546875 C32.45278596 360.6469973 32.54713143 365.42472873 32.54052734 370.9934082 C32.54724457 371.81034149 32.55396179 372.62727478 32.56088257 373.46896362 C32.57984117 376.16296515 32.5837858 378.85671721 32.5859375 381.55078125 C32.59236737 383.43019207 32.59909587 385.30960189 32.60610962 387.18901062 C32.61807736 391.12725138 32.621791 395.06540445 32.62060547 399.00366211 C32.62040241 404.0373873 32.64769289 409.07054706 32.68214989 414.10413837 C32.70444511 417.98618628 32.70844219 421.86809873 32.70738602 425.75020409 C32.70973847 427.60526666 32.71854188 429.46033317 32.73405075 431.31533241 C32.75376224 433.91675415 32.74785273 436.51696477 32.73583984 439.1184082 C32.74707886 439.87660355 32.75831787 440.63479889 32.76989746 441.41596985 C32.69547242 447.79454473 30.62765028 452.81756465 26.609375 457.7734375 C26.07828125 458.21945312 25.5471875 458.66546875 25 459.125 C24.47921875 459.58648437 23.9584375 460.04796875 23.421875 460.5234375 C17.51676119 463.8583399 10.89910022 464.05850077 4.2890625 464.05078125 C3.45845306 464.05506638 2.62784363 464.0593515 1.77206421 464.06376648 C0.02578639 464.06947448 -1.72051518 464.0700363 -3.46679688 464.06567383 C-6.11109771 464.0625166 -8.7542747 464.08600749 -11.3984375 464.11132812 C-31.25981327 464.18959817 -31.25981327 464.18959817 -38.1875 458.8828125 C-38.703125 458.22023438 -39.21875 457.55765625 -39.75 456.875 C-40.554375 455.88886719 -40.554375 455.88886719 -41.375 454.8828125 C-44.71566039 449.70099269 -45.03051142 445.06619488 -44.97705078 439.01245117 C-44.97734283 438.14365326 -44.97763489 437.27485535 -44.97793579 436.37973022 C-44.97654608 433.51737366 -44.9610017 430.65527966 -44.9453125 427.79296875 C-44.9415811 425.80471438 -44.93873473 423.81645816 -44.93673706 421.82820129 C-44.92911063 416.60196838 -44.90947059 411.3758471 -44.8873291 406.1496582 C-44.86684938 400.8139802 -44.85773079 395.47828412 -44.84765625 390.14257812 C-44.82622381 379.67833644 -44.79209976 369.21417751 -44.75 358.75 C-50.03 358.75 -55.31 358.75 -60.75 358.75 C-61.41 360.4 -62.07 362.05 -62.75 363.75 C-63.39967503 364.98229202 -64.07645143 366.20072807 -64.78125 367.40234375 C-75.9580235 386.77434834 -84.10112441 406.7239419 -91.10864258 427.91918945 C-95.7280436 441.71461065 -101.28245333 452.29708573 -114.5 459.5625 C-123.54146789 463.68928116 -133.34558822 464.04931238 -143.14648438 464.00878906 C-144.21470428 464.0122937 -145.28292419 464.01579834 -146.3835144 464.01940918 C-149.87032812 464.02812331 -153.35693469 464.02241749 -156.84375 464.015625 C-159.28324421 464.01697382 -161.72273815 464.01891616 -164.16223145 464.02142334 C-169.25238629 464.02435991 -174.34247058 464.0201213 -179.43261719 464.01074219 C-185.96065576 463.99929988 -192.48853072 464.00594656 -199.01656342 464.01788712 C-204.04363241 464.02510397 -209.07066239 464.02281941 -214.09773254 464.01763153 C-216.50592569 464.01629707 -218.91412238 464.01793564 -221.3223114 464.02259064 C-224.67786103 464.02765821 -228.03314229 464.01994435 -231.38867188 464.00878906 C-232.38401947 464.01283752 -233.37936707 464.01688599 -234.40487671 464.02105713 C-235.31859039 464.01541748 -236.23230408 464.00977783 -237.17370605 464.00396729 C-237.96561089 464.00321323 -238.75751572 464.00245918 -239.57341766 464.00168228 C-242.05877437 463.71429584 -243.65258977 463.10765146 -245.75 461.75 C-247.5369279 456.51628674 -246.14037342 452.06092785 -244.6875 446.9375 C-244.45490479 446.09783691 -244.22230957 445.25817383 -243.98266602 444.39306641 C-243.26059766 441.83827739 -242.51217101 439.29309044 -241.75 436.75 C-241.53988281 436.04407715 -241.32976562 435.3381543 -241.11328125 434.61083984 C-238.15410589 424.93461915 -234.07658791 415.82428645 -229.75 406.6875 C-229.25169678 405.62837402 -228.75339355 404.56924805 -228.23999023 403.47802734 C-225.28874857 397.38598369 -222.07155228 391.9690023 -217.75 386.75 C-210.875 387.625 -210.875 387.625 -209.75 388.75 C-208.62653636 396.04248271 -212.26804348 401.11345387 -215.75 407.3125 C-221.9748891 418.7967852 -226.68070956 430.36142381 -230.75 442.75 C-231.26754872 444.30527693 -231.78569331 445.86035565 -232.30429077 447.4152832 C-232.57489004 448.22673294 -232.84548931 449.03818268 -233.12428856 449.8742218 C-233.33077333 450.49322861 -233.53725811 451.11223541 -233.75 451.75 C-219.95420915 451.71275018 -206.15868079 451.65250719 -192.36310673 451.56609726 C-185.9568233 451.52663619 -179.55067705 451.49444074 -173.14428711 451.47900391 C-166.95846628 451.46382867 -160.77302263 451.42936672 -154.58736992 451.38169098 C-152.23079143 451.36688631 -149.87415909 451.35895951 -147.51753426 451.35811615 C-144.20928142 451.35574211 -140.9020672 451.32862528 -137.59399414 451.29589844 C-136.6258226 451.3009288 -135.65765106 451.30595917 -134.66014099 451.31114197 C-125.5733696 451.17262503 -118.25395848 448.18071853 -111.66748047 441.86889648 C-105.57667901 435.13830496 -103.26593022 425.66192423 -100.625 417.1875 C-85.55918378 370.55918378 -85.55918378 370.55918378 -74.75 359.75 C-106.43 359.255 -106.43 359.255 -138.75 358.75 C-138.42 361.06 -138.09 363.37 -137.75 365.75 C-137.6633354 367.10302795 -137.60385494 368.45849119 -137.58886719 369.81420898 C-137.57925964 370.52862656 -137.5696521 371.24304413 -137.55975342 371.97911072 C-137.5533786 373.10126732 -137.5533786 373.10126732 -137.546875 374.24609375 C-137.54117493 375.03846939 -137.53547485 375.83084503 -137.52960205 376.64723206 C-137.52020884 378.31371752 -137.51364085 379.98022108 -137.50976562 381.64672852 C-137.50004064 384.17692711 -137.46895616 386.70631886 -137.4375 389.23632812 C-137.43097005 390.86457857 -137.42571955 392.49283475 -137.421875 394.12109375 C-137.4095282 394.86717392 -137.3971814 395.61325409 -137.38446045 396.38194275 C-137.41710431 404.18716746 -139.81896965 410.50469796 -145.14453125 416.27734375 C-152.74715115 423.25103646 -164.07454457 422.23411318 -173.7265625 421.890625 C-180.12096762 421.44622619 -186.39609202 419.60149746 -190.75 414.75 C-194.87937858 408.26279723 -196.78715014 401.32483952 -198.79296875 393.96484375 C-200.84437261 387.07380139 -203.49767464 383.49996937 -209.75 379.75 C-212.68567577 378.38827088 -215.68118227 377.19596719 -218.6875 376 C-242.46211833 366.21731792 -267.2292947 351.4879807 -280.75 328.75 C-281.14453125 326.0078125 -281.14453125 326.0078125 -280.75 323.75 C-277.44815574 320.35104268 -274.19742484 319.14829008 -269.75 317.75 C-269.77618408 317.1830542 -269.80236816 316.6161084 -269.8293457 316.03198242 C-271.11670561 283.6393999 -257.78978844 251.69538719 -238.375 225.9375 C-234.55068764 220.36068722 -233.89764241 215.73185136 -233.39379883 209.18188477 C-231.71569339 188.26524834 -217.09859935 170.12695998 -201.75 156.75 C-194.25030922 150.57378407 -186.46608186 144.78141689 -178.3125 139.5 C-160.70572065 127.98694866 -148.0172611 110.87886581 -142.9140625 90.39453125 C-141.74844249 84.74816768 -140.80002774 79.07849824 -139.890625 73.38671875 C-138.02240535 61.8806721 -135.59136844 50.90684724 -132.01953125 39.8046875 C-130.5242692 35.35329505 -130.5242692 35.35329505 -129.75 30.75 C-130.78214484 28.78261632 -130.78214484 28.78261632 -132.4375 27.0625 C-135.88714251 22.78882111 -138.72290774 18.21070717 -139.75 12.75 C-138.05409066 4.63685347 -131.48810849 0.38111499 -125.01953125 -4.171875 C-90.8492721 -25.47526415 -30.82498216 -29.22969928 0 0 Z M-126.75 11.75 C-126.36731407 17.87297484 -121.9216037 22.5783963 -117.75 26.75 C-117.077568 32.93797546 -118.9069263 37.74304594 -121 43.4375 C-125.13515442 55.2538596 -127.59581236 67.11959302 -129.48046875 79.4765625 C-132.52585279 99.39467898 -139.0178889 117.63230652 -152.75 132.75 C-153.53761719 133.63042969 -154.32523437 134.51085937 -155.13671875 135.41796875 C-161.40473178 142.06075087 -168.173755 147.02384248 -175.74609375 152.0546875 C-189.07758118 160.92954858 -201.01879785 170.96515029 -210.75 183.75 C-211.31847656 184.49121094 -211.88695312 185.23242188 -212.47265625 185.99609375 C-216.61953709 191.77627292 -222.51420223 200.83497305 -221.37890625 208.13671875 C-221.06759766 208.93529297 -221.06759766 208.93529297 -220.75 209.75 C-219.76 209.42 -218.77 209.09 -217.75 208.75 C-209.35818316 207.96780669 -202.86210538 208.63350068 -195.24609375 212.18359375 C-172.02214503 222.58896072 -142.61114232 228.920738 -117.75 220.75 C-108.33701839 217.00308499 -100.8352299 212.02637819 -93.75 204.75 C-93.11578125 204.14800781 -92.4815625 203.54601562 -91.828125 202.92578125 C-77.79939002 188.61771306 -74.51902837 165.51764273 -74.42431641 146.40161133 C-74.52746639 137.17892498 -75.57292201 128.08907789 -76.625 118.9375 C-78.02372749 106.7603704 -79.26710047 94.60772804 -80.0625 82.375 C-80.15063965 81.11840576 -80.2387793 79.86181152 -80.32958984 78.56713867 C-81.39672564 60.94290801 -80.17564244 44.58750121 -69.75 29.75 C-69.31042969 29.11449219 -68.87085938 28.47898438 -68.41796875 27.82421875 C-58.87719385 15.42396089 -41.603812 9.95799908 -26.75 7.75 C-21.42728074 7.21725134 -16.09420288 6.95127517 -10.75 6.75 C-13.92665771 3.13655185 -17.42995388 1.14906409 -21.75 -0.8125 C-22.41064453 -1.11623535 -23.07128906 -1.4199707 -23.75195312 -1.73291016 C-55.20763133 -15.74264556 -100.03639013 -10.21558944 -126.75 11.75 Z M134.25 0.75 C134.11099466 22.10780793 134.00397554 43.46550657 133.93912697 64.82367611 C133.90821374 74.74108739 133.86608171 84.65821212 133.79736328 94.57543945 C133.73748363 103.22121694 133.69883244 111.86678685 133.68546903 120.51276594 C133.67765971 125.0891395 133.65935938 129.66491932 133.61561966 134.24110222 C133.57474294 138.55288574 133.56236107 142.8638338 133.57135391 147.17579269 C133.56970996 148.75397731 133.55786418 150.3321913 133.53476715 151.91020775 C133.40811784 161.01337019 133.86274504 167.77902811 140.25 174.75 C140.72188562 175.29126998 141.19377125 175.83253996 141.67995644 176.39021206 C143.09157705 177.96418989 143.09157705 177.96418989 145.25 179.75 C145.91 179.75 146.57 179.75 147.25 179.75 C147.25 120.68 147.25 61.61 147.25 0.75 C142.96 0.75 138.67 0.75 134.25 0.75 Z M-59.77734375 34.2578125 C-68.16231762 44.85110623 -70.08668265 54.96552008 -69.9375 68.125 C-69.93685547 69.1975 -69.93621094 70.27 -69.93554688 71.375 C-69.91842346 74.50287691 -69.84783959 77.6236839 -69.75 80.75 C-69.73235596 81.68312012 -69.71471191 82.61624023 -69.6965332 83.57763672 C-69.47055142 88.00424532 -69.19480263 90.16349704 -66.45703125 93.7734375 C-65.50183594 94.54945313 -64.54664063 95.32546875 -63.5625 96.125 C-62.62019531 96.91648437 -61.67789063 97.70796875 -60.70703125 98.5234375 C-54.85965624 103.31469753 -54.85965624 103.31469753 -47.75 104.75 C-46.80272352 103.36291658 -45.86538419 101.96764484 -44.98828125 100.53515625 C-39.42824657 92.51958574 -31.2476768 89.16213715 -22 87.15234375 C-17.77460347 86.62924779 -13.62731345 86.64341701 -9.375 86.6875 C-8.54355469 86.69201172 -7.71210938 86.69652344 -6.85546875 86.70117188 C-4.82028103 86.71286836 -2.78513077 86.73080065 -0.75 86.75 C-0.75 81.47 -0.75 76.19 -0.75 70.75 C-3.39 70.42 -6.03 70.09 -8.75 69.75 C-8.75 66.78 -8.75 63.81 -8.75 60.75 C-6.11 60.09 -3.47 59.43 -0.75 58.75 C-0.97967051 49.5005421 -3.40938773 39.82321947 -9.125 32.375 C-10.75 29.75 -10.75 29.75 -10.5 25.875 C-10.2525 24.84375 -10.005 23.8125 -9.75 22.75 C-3.35 22.25769231 -3.35 22.25769231 -0.3125 24.75 C0.4609375 25.74 0.4609375 25.74 1.25 26.75 C0.7520163 23.01512223 0.37508244 20.93762365 -1.75 17.75 C-3.90272013 17.26817941 -3.90272013 17.26817941 -6.4140625 17.31640625 C-7.36369873 17.30496582 -8.31333496 17.29352539 -9.29174805 17.28173828 C-10.30922119 17.29188965 -11.32669434 17.30204102 -12.375 17.3125 C-13.93311401 17.32385986 -13.93311401 17.32385986 -15.52270508 17.33544922 C-31.93449009 17.68277517 -48.26513779 21.84719482 -59.77734375 34.2578125 Z M1.25 26.75 C2.25 28.75 2.25 28.75 2.25 28.75 Z M112.3125 85.625 C109.15198292 88.88129033 109.12653183 90.68319799 109.13647461 95.11767578 C109.13655014 96.23868683 109.13662567 97.35969788 109.13670349 98.51467896 C109.14186478 99.72928802 109.14702606 100.94389709 109.15234375 102.1953125 C109.1537587 103.43546112 109.15517365 104.67560974 109.15663147 105.95333862 C109.16128904 109.25118133 109.17027561 112.54897546 109.18133545 115.84680176 C109.19156269 119.21166387 109.19613191 122.57653308 109.20117188 125.94140625 C109.21221731 132.54428993 109.22896753 139.14714099 109.25 145.75 C111.02065111 146.39633275 112.79152753 147.0420483 114.5625 147.6875 C115.54863281 148.04714844 116.53476562 148.40679687 117.55078125 148.77734375 C119.4420563 149.45885965 121.34284329 150.1142811 123.25 150.75 C123.25 128.64 123.25 106.53 123.25 83.75 C115.79307954 83.0326194 115.79307954 83.0326194 112.3125 85.625 Z M-35.6875 105.4375 C-38.78061124 109.3588614 -41.22919888 113.71243281 -41.75 118.75 C-40.89168157 120.97932746 -40.89168157 120.97932746 -39.75 122.75 C-37.23477674 121.7466104 -34.72188896 120.73852169 -32.21484375 119.71484375 C-31.38082031 119.37582031 -30.54679688 119.03679687 -29.6875 118.6875 C-28.43259766 118.17509766 -28.43259766 118.17509766 -27.15234375 117.65234375 C-16.12943922 113.51203327 -4.26288826 115.04166372 6.25 119.75 C8.24659018 120.42681023 10.24464622 121.09961499 12.25 121.75 C13.45326413 120.77511036 13.45326413 120.77511036 13.3046875 118.96484375 C12.71745265 111.52228028 10.15937399 106.51390529 4.75 101.375 C-6.75667264 93.89566278 -26.14988214 95.58523908 -35.6875 105.4375 Z M-66.75 107.75 C-66.97467987 114.04103646 -66.39936607 119.99251301 -65.52734375 126.22583008 C-65.01891599 130.02623929 -64.67009706 133.77614123 -64.53515625 137.609375 C-64.49152954 138.81702515 -64.49152954 138.81702515 -64.44702148 140.04907227 C-64.40006002 141.60644163 -64.36886427 143.16439036 -64.35571289 144.72241211 C-64.20120586 149.73964585 -63.34503697 152.25115131 -59.75 155.75 C-57.79721883 157.37112676 -55.79380349 158.93274968 -53.75 160.4375 C-52.203125 161.58798828 -52.203125 161.58798828 -50.625 162.76171875 C-45.85238712 166.15162806 -45.85238712 166.15162806 -40.1875 166.5 C-36.65079631 165.94717567 -36.65079631 165.94717567 -33.75 163.75 C-30.8515625 163.26171875 -30.8515625 163.26171875 -27.75 163.75 C-25.3359375 166.26953125 -25.3359375 166.26953125 -23.125 169.5625 C-19.68561807 174.93724259 -19.68561807 174.93724259 -14.75 178.75 C-11.61829327 178.67828153 -10.2742876 178.29402548 -8.08984375 176.02734375 C0.15582021 162.2692582 2.90514287 144.49844285 0.25 128.75 C-9.55463269 124.85596149 -16.40211976 124.82055569 -26.25390625 128.66015625 C-28.90100108 129.7670633 -28.90100108 129.7670633 -31.875 131.5 C-35.89853401 133.24936261 -39.42931118 133.45336795 -43.75 132.75 C-47.83339548 130.67118049 -50.07002516 128.9925171 -51.75 124.75 C-51.83966287 123.25210258 -51.88013894 121.75056979 -51.875 120.25 C-52.00383655 117.87699532 -52.00383655 117.87699532 -52.75 115.75 C-54.61307374 114.22647927 -56.36882112 113.46435282 -58.60546875 112.58984375 C-61.6536361 111.39611701 -64.07652795 109.62143043 -66.75 107.75 Z M8.25 165.75 C7.95867187 166.51183594 7.66734375 167.27367187 7.3671875 168.05859375 C5.41018582 172.98802251 3.51432689 177.65872371 0.4375 182 C-2.7502778 186.52143994 -5.14428815 191.35554293 -7.57080078 196.30786133 C-12.95814847 207.29565169 -18.74153528 218.08982067 -24.75 228.75 C-23.25681161 230.29826501 -21.75502701 231.83824049 -20.25 233.375 C-19.4146875 234.23351562 -18.579375 235.09203125 -17.71875 235.9765625 C-14.3502224 239.27071377 -10.56361215 241.99745246 -6.75 244.75 C1.15344744 229.81112666 7.68473368 214.70545171 13.25 198.75 C13.54583984 197.92894775 13.84167969 197.10789551 14.14648438 196.26196289 C17.08185602 187.90818105 17.85878899 180.33482861 13.9375 172.125 C12.21431543 168.92701782 11.35246403 167.81830936 8.25 165.75 Z M-64.75 166.75 C-65.17732422 168.24853516 -65.17732422 168.24853516 -65.61328125 169.77734375 C-65.79713379 170.41913574 -65.98098633 171.06092773 -66.17041016 171.72216797 C-66.71499269 173.62751867 -67.25416739 175.53441267 -67.79296875 177.44140625 C-73.89538075 198.39239324 -83.97199408 215.01940904 -103.31689453 225.96557617 C-124.12064167 237.23079133 -151.24151622 236.28797309 -173.75 230.75 C-174.45479492 230.57839355 -175.15958984 230.40678711 -175.88574219 230.22998047 C-184.72919389 228.00219514 -193.05253677 225.05708301 -201.22314453 220.98535156 C-206.06396554 218.67458084 -209.5045161 218.36591645 -214.75 218.75 C-222.26300104 221.54896117 -226.40716395 227.28236366 -230.4375 233.875 C-230.86393799 234.56875732 -231.29037598 235.26251465 -231.72973633 235.97729492 C-246.6497414 260.58888049 -256.9588804 285.71591065 -257.75 314.75 C-256.73015015 314.57609741 -256.73015015 314.57609741 -255.68969727 314.39868164 C-252.56440781 313.86731073 -249.43846509 313.33988115 -246.3125 312.8125 C-244.70858398 312.53889648 -244.70858398 312.53889648 -243.07226562 312.25976562 C-242.01845703 312.08251953 -240.96464844 311.90527344 -239.87890625 311.72265625 C-238.92056885 311.56031494 -237.96223145 311.39797363 -236.97485352 311.23071289 C-229.90660806 310.17708466 -222.92031068 309.59007585 -215.77734375 309.43359375 C-214.96882462 309.41281265 -214.16030548 309.39203156 -213.32728577 309.37062073 C-210.78076486 309.30598384 -208.23415373 309.24664591 -205.6875 309.1875 C-203.94595475 309.1442328 -202.20441814 309.10061612 -200.46289062 309.05664062 C-196.22534948 308.95039252 -191.98771894 308.84889177 -187.75 308.75 C-187.63100342 307.82928711 -187.51200684 306.90857422 -187.3894043 305.95996094 C-185.55810398 292.38752635 -182.8414224 278.8414224 -172.75 268.75 C-170.41055264 269.03730055 -168.0760857 269.36936779 -165.75 269.75 C-165.13079146 274.60046688 -165.5864153 276.91457456 -168.5 280.875 C-174.66501548 289.35736172 -176.95278673 300.40787662 -176.75 310.75 C-176.13253906 310.99492187 -175.51507813 311.23984375 -174.87890625 311.4921875 C-162.21365192 317.08263462 -150.35934547 331.99274574 -144.75 344.75 C-140.24152615 343.29162121 -137.07058059 340.76408301 -133.5625 337.6875 C-132.99442627 337.19797852 -132.42635254 336.70845703 -131.84106445 336.20410156 C-127.59669942 332.53220457 -123.40837019 328.79749023 -119.26171875 325.015625 C-117.85949938 323.7507926 -116.45077445 322.49276139 -115.01879883 321.26171875 C-109.46691712 316.4837609 -104.24285613 311.42626745 -99.0625 306.25 C-97.82016602 305.02603516 -97.82016602 305.02603516 -96.55273438 303.77734375 C-88.63308815 296.55246213 -88.63308815 296.55246213 -84.40234375 287.16015625 C-84.49644531 286.38542969 -84.59054688 285.61070312 -84.6875 284.8125 C-85.67373347 276.49202329 -79.35644941 269.45292832 -74.6875 263.125 C-73.83357666 261.95529663 -73.83357666 261.95529663 -72.96240234 260.76196289 C-68.49574399 254.67823754 -63.89666724 248.70762582 -59.1796875 242.81640625 C-57.67167773 240.91321064 -56.19170003 238.98699004 -54.7578125 237.02734375 C-50.41538172 231.09268836 -46.77543469 227.55691046 -39.30078125 226.05859375 C-34.89217193 224.43385874 -33.53075036 222.22055469 -31.4375 218.25 C-31.07285645 217.59870117 -30.70821289 216.94740234 -30.33251953 216.27636719 C-29.54545569 214.86569895 -28.76779035 213.44975483 -27.99853516 212.02929688 C-26.67648274 209.6157886 -25.30290324 207.23730798 -23.91796875 204.859375 C-22.98595846 203.24017042 -22.05494953 201.620389 -21.125 200 C-20.67471436 199.22591797 -20.22442871 198.45183594 -19.76049805 197.65429688 C-19.35226807 196.92791016 -18.94403809 196.20152344 -18.5234375 195.453125 C-18.15653809 194.81020508 -17.78963867 194.16728516 -17.41162109 193.50488281 C-16.4652243 191.55337554 -16.4652243 191.55337554 -17.75 188.75 C-19.41309154 187.54539031 -19.41309154 187.54539031 -21.4375 186.5 C-24.69419835 184.63083862 -26.39410119 183.00239696 -28.4375 179.875 C-29.79366872 177.96592908 -29.79366872 177.96592908 -31.75 176.75 C-35.00394946 176.73657242 -38.07136934 177.21465508 -41.29296875 177.66015625 C-49.69228912 177.87844367 -56.74727185 172.12086203 -62.75 166.75 C-63.41 166.75 -64.07 166.75 -64.75 166.75 Z M138.25 229.75 C133.61333354 237.53297584 134.03345604 245.46159953 134.00976562 254.24975586 C134.00010648 256.41364681 133.96906837 258.57656769 133.9375 260.74023438 C133.58085878 273.54627073 133.58085878 273.54627073 138.96582031 284.6784668 C144.2129522 289.46799997 148.62956357 291.22930439 155.71875 291.0625 C161.09127109 290.39922579 164.25725079 287.74274921 168.0625 283.9375 C171.92276379 278.3125442 172.55970856 272.59513308 172.55078125 265.91015625 C172.55720894 264.82147499 172.55720894 264.82147499 172.56376648 263.71080017 C172.56947382 262.18554725 172.57003678 260.66026713 172.56567383 259.13500977 C172.56251291 256.82194912 172.58601961 254.51016878 172.61132812 252.19726562 C172.65311795 242.46437601 172.44671444 234.15838251 165.25 226.75 C156.73225133 219.73538345 145.62429732 222.58054427 138.25 229.75 Z M11.25 232.75 C9.50877079 235.94150752 7.81326504 239.1552054 6.125 242.375 C5.63128906 243.27863281 5.13757813 244.18226563 4.62890625 245.11328125 C1.7696503 250.3169946 1.7696503 250.3169946 1.91796875 256.0390625 C2.35753906 256.93367188 2.79710937 257.82828125 3.25 258.75 C5.37541597 275.12688934 -5.74882454 287.46991844 -15.078125 299.8359375 C-30.06541227 318.65091324 -30.06541227 318.65091324 -37.75 320.75 C-39.4384021 320.72065968 -41.12646645 320.65659237 -42.8125 320.5625 C-47.90862711 320.89994625 -50.15382218 322.64306814 -53.51147461 326.22143555 C-55.01259001 327.94276809 -56.47451403 329.68967095 -57.92578125 331.453125 C-60.60972477 334.68823549 -63.33698919 337.2801194 -66.75 339.75 C-70.125 339.5625 -70.125 339.5625 -72.75 338.75 C-73.5 336.625 -73.5 336.625 -73.75 333.75 C-71.0793275 329.12768221 -67.80211636 325.54738536 -64 321.875 C-63.49339844 321.37742187 -62.98679688 320.87984375 -62.46484375 320.3671875 C-61.23114693 319.15676798 -59.99122216 317.95270147 -58.75 316.75 C-62.58228898 312.74185072 -66.67522322 309.32171247 -71.0625 305.9375 C-71.70767578 305.43541016 -72.35285156 304.93332031 -73.01757812 304.41601562 C-74.59267125 303.19094319 -76.17100316 301.9700368 -77.75 300.75 C-82.37687343 304.60950922 -86.74030741 308.62031104 -90.953125 312.92578125 C-92.11053451 314.09584417 -93.26809132 315.26576141 -94.42578125 316.43554688 C-96.20893365 318.24335003 -97.99041567 320.05273446 -99.76904297 321.86499023 C-106.41163304 328.62471567 -113.02008273 335.07192647 -120.53417969 340.87182617 C-122.67300231 342.68473521 -124.11609905 344.49074209 -125.75 346.75 C-108.39950315 346.84350945 -91.04908513 346.9140115 -73.69839382 346.95724869 C-65.64186102 346.97785955 -57.58548494 347.00595177 -49.52905273 347.05175781 C-42.50571256 347.09167096 -35.4824859 347.11744355 -28.45903546 347.12635398 C-24.74133534 347.13156121 -21.02395994 347.14376883 -17.30636406 347.17292023 C-13.15258352 347.20522669 -8.9993648 347.20595655 -4.84545898 347.20410156 C-3.61762695 347.21848267 -2.38979492 347.23286377 -1.12475586 347.24768066 C5.55276378 347.21539083 9.87741698 346.85641296 15.25 342.75 C27.57948886 326.85144857 21.41896397 291.37606937 19.25 272.75 C18.35536834 265.69295996 17.31558415 258.65793554 16.25 251.625 C16.11857605 250.74268707 15.9871521 249.86037415 15.85174561 248.95132446 C15.47458965 246.44226856 15.08382723 243.93577871 14.6875 241.4296875 C14.57290436 240.66745377 14.45830872 239.90522003 14.34024048 239.11988831 C14.04550738 237.31734331 13.65686978 235.53058784 13.25 233.75 C12.26 233.255 12.26 233.255 11.25 232.75 Z M-40.5 237.25 C-40.9125 237.745 -41.325 238.24 -41.75 238.75 C-40.19109983 242.90383958 -37.15288727 245.21926166 -33.8125 247.9375 C-33.23491943 248.41654785 -32.65733887 248.8955957 -32.06225586 249.38916016 C-30.2973043 250.84999326 -28.52459917 252.30091017 -26.75 253.75 C-25.71854283 254.59740415 -24.68728102 255.44504616 -23.65625 256.29296875 C-21.81786717 257.80054368 -19.97566672 259.30348055 -18.12890625 260.80078125 C-16.13329142 262.4359402 -14.1890948 264.11162323 -12.25 265.8125 C-9.88194168 268.05628583 -9.88194168 268.05628583 -6.75 267.75 C-6.42773411 264.28564163 -6.4020833 262.31536464 -8.25 259.3125 C-10.82385614 256.67429746 -13.52138541 254.30654849 -16.328125 251.921875 C-19.894625 248.72352984 -23.21884202 245.29136408 -26.53710938 241.83764648 C-30.17297208 238.08858174 -30.17297208 238.08858174 -34.75 235.75 C-38.62797662 235.31613908 -38.62797662 235.31613908 -40.5 237.25 Z M-50.75 249.75 C-52.21090788 251.2854878 -52.21090788 251.2854878 -53.4375 253.25 C-54.09298828 254.22453125 -54.09298828 254.22453125 -54.76171875 255.21875 C-55.08785156 255.7240625 -55.41398438 256.229375 -55.75 256.75 C-54.76386719 257.48089844 -54.76386719 257.48089844 -53.7578125 258.2265625 C-46.48088028 263.64975047 -39.29939003 269.18611969 -32.15869141 274.78759766 C-27.76383905 278.22480925 -23.31500494 281.54183272 -18.75 284.75 C-16.60432087 283.02144074 -16.60432087 283.02144074 -14.75 280.75 C-15.24284923 276.02227649 -18.66067423 273.89320154 -22.125 271.0625 C-22.7547876 270.53575684 -23.3845752 270.00901367 -24.03344727 269.46630859 C-25.93073063 267.88392007 -27.83844436 266.31510196 -29.75 264.75 C-30.28641113 264.30865723 -30.82282227 263.86731445 -31.37548828 263.41259766 C-33.68937938 261.50902957 -36.00987998 259.61434225 -38.33984375 257.73046875 C-40.52768542 255.93267989 -42.64102947 254.07632747 -44.75 252.1875 C-47.49382175 249.43470369 -47.49382175 249.43470369 -50.75 249.75 Z M-62.75 265.75 C-64.11176581 267.73075027 -65.44593116 269.73079663 -66.75 271.75 C-54.86572152 281.56870727 -42.94799629 291.32159707 -30.75 300.75 C-27.32421051 297.57460444 -27.32421051 297.57460444 -24.75 293.75 C-25.40742188 293.26273437 -26.06484375 292.77546875 -26.7421875 292.2734375 C-34.01911972 286.85024953 -41.20060997 281.31388031 -48.34130859 275.71240234 C-55.10263894 269.45546302 -55.10263894 269.45546302 -62.75 265.75 Z M-73.75 280.75 C-74.83941254 285.00753542 -74.83941254 285.00753542 -73.671875 289.125 C-71.30053537 292.36390291 -68.48428853 294.66167102 -65.3125 297.0625 C-64.69431396 297.53526367 -64.07612793 298.00802734 -63.43920898 298.49511719 C-61.55178535 299.92583985 -59.65210198 301.3388756 -57.75 302.75 C-56.90115234 303.39364502 -56.90115234 303.39364502 -56.03515625 304.05029297 C-54.47804681 305.2232594 -52.89573783 306.36254757 -51.3125 307.5 C-50.40628906 308.15484375 -49.50007813 308.8096875 -48.56640625 309.484375 C-44.92354536 311.12138877 -42.58460623 310.60530251 -38.75 309.75 C-41.71021816 305.7264025 -45.04277005 302.73954743 -49 299.75 C-50.2393812 298.7970017 -51.47761325 297.84250753 -52.71484375 296.88671875 C-53.36565918 296.38446777 -54.01647461 295.8822168 -54.68701172 295.36474609 C-59.08088681 291.92556386 -63.37766538 288.36390671 -67.68261719 284.81445312 C-70.41875683 282.0524437 -70.41875683 282.0524437 -73.75 280.75 Z M62.25 280.75 C62.93185329 291.33112848 62.93185329 291.33112848 64.18969727 301.75537109 C64.3698085 302.93553802 64.54991974 304.11570496 64.73548889 305.33163452 C64.92719162 306.5499295 65.11889435 307.76822449 65.31640625 309.0234375 C65.51475571 310.31319489 65.71310516 311.60295227 65.91746521 312.93179321 C66.43692402 316.30913257 66.96304603 319.68539861 67.49072266 323.0614624 C68.03116942 326.52731305 68.5650872 329.99416911 69.09960938 333.4609375 C70.14347097 340.22493748 71.19439859 346.98782246 72.25 353.75 C75.53696233 354.54953138 76.96023192 354.84658936 80.25 353.75 C81.7734072 351.81916994 83.14638472 349.91918211 84.5 347.875 C84.8926001 347.29290771 85.2852002 346.71081543 85.68969727 346.11108398 C86.88548285 344.32988442 88.06838085 342.54061898 89.25 340.75 C89.93449219 339.72777344 90.61898438 338.70554687 91.32421875 337.65234375 C96.63006681 329.56565288 98.55728174 323.60580754 98.4453125 313.9765625 C98.44106766 312.5909462 98.44106766 312.5909462 98.43673706 311.17733765 C98.42559179 308.24309024 98.40049765 305.3091543 98.375 302.375 C98.36496289 300.37891068 98.35583832 298.38281654 98.34765625 296.38671875 C98.32737728 291.50759757 98.28821785 286.62914517 98.25 281.75 C86.37 281.42 74.49 281.09 62.25 280.75 Z M-265.75 329.75 C-249.28783715 347.11282829 -231.11320795 359.60877303 -208.5 367.9375 C-199.91884799 371.24227627 -194.03027214 375.50509662 -189.9375 383.875 C-187.72501149 389.30014306 -186.23212051 394.90134208 -184.83984375 400.5859375 C-183.45935378 404.59381161 -181.63063293 407.80968353 -177.75 409.75 C-174.34007313 410.04305322 -170.9210547 410.02796715 -167.5 410.0625 C-166.55769531 410.09150391 -165.61539063 410.12050781 -164.64453125 410.15039062 C-158.68420816 410.20472737 -155.27770674 409.73763714 -150.75 405.75 C-149.05245299 402.35490599 -149.54330615 398.4906721 -149.51171875 394.75390625 C-149.49961113 393.39893288 -149.49961113 393.39893288 -149.48725891 392.0165863 C-149.47340679 390.09742149 -149.4626897 388.17823193 -149.45483398 386.2590332 C-149.43775083 383.35513687 -149.39389178 380.45241817 -149.34960938 377.54882812 C-149.22800709 363.70855022 -149.22800709 363.70855022 -153.75 350.75 C-154.19569336 349.89374023 -154.64138672 349.03748047 -155.10058594 348.15527344 C-160.55496483 338.1284114 -169.88321721 324.92953184 -180.75 320.75 C-200.60126825 317.82711388 -250.44219486 314.44219486 -265.75 329.75 Z M107.25 330.75 C106.94449219 331.44222656 106.63898438 332.13445312 106.32421875 332.84765625 C103.37772415 339.1473447 100.09611178 344.50213219 95.875 350 C84.47624774 365.04666147 77.51580543 382.66931127 74.375 401.25 C74.25471436 401.93553955 74.13442871 402.6210791 74.01049805 403.32739258 C72.75444796 411.86094431 73.25 419.95504933 73.25 428.75 C90.08 428.75 106.91 428.75 124.25 428.75 C124.1675 424.0475 124.085 419.345 124 414.5 C123.88892859 396.65017035 125.48806895 376.57124497 134.4609375 360.59375 C135.40690523 358.78157315 135.40690523 358.78157315 135.0859375 356.7890625 C130.71075882 346.11689769 118.80990345 336.61447859 109.25 330.75 C108.59 330.75 107.93 330.75 107.25 330.75 Z M-33.75 358.75 C-33.84273443 369.85931122 -33.91378263 380.96853015 -33.95724869 392.0781498 C-33.97811166 397.23697214 -34.00640597 402.39552942 -34.05175781 407.55419922 C-34.09526124 412.53385392 -34.11914681 417.51325386 -34.12950897 422.49308395 C-34.13689224 424.39168686 -34.15131014 426.29027602 -34.17292023 428.18877029 C-34.20201408 430.85092403 -34.20595352 433.51202893 -34.20410156 436.17431641 C-34.21848267 436.95690826 -34.23286377 437.73950012 -34.24768066 438.54580688 C-34.20884548 443.7147269 -33.15802003 446.64318258 -29.75 450.75 C-27.48260589 451.88369705 -26.17463483 451.89933999 -23.6550293 451.94287109 C-22.38812508 451.96696548 -22.38812508 451.96696548 -21.09562683 451.99154663 C-17.23115848 452.03601545 -13.36686166 452.0770622 -9.50219727 452.10009766 C-7.46432067 452.11665652 -5.42650214 452.14394558 -3.38891602 452.18212891 C-0.4503772 452.2369124 2.48680045 452.25877376 5.42578125 452.2734375 C6.78851921 452.30744156 6.78851921 452.30744156 8.17878723 452.34213257 C12.73060484 452.32694294 14.61934482 452.24760152 18.30151367 449.34228516 C21.3858999 445.23878773 21.40844345 442.35000223 21.42700195 437.36621094 C21.43357315 436.60502457 21.44014435 435.8438382 21.44691467 435.05958557 C21.466663 432.53451442 21.47831456 430.00950282 21.48828125 427.484375 C21.49235678 426.62212563 21.4964323 425.75987625 21.50063133 424.87149811 C21.52150012 420.30642434 21.53579747 415.7413807 21.54516602 411.17626953 C21.55622314 406.46400852 21.59061246 401.75222068 21.63033772 397.0401268 C21.65650417 393.41466402 21.66485794 389.78931386 21.66844749 386.16376495 C21.67331458 384.42705342 21.68493208 382.69034697 21.70348549 380.95372772 C21.72787482 378.51922846 21.72691257 376.08595162 21.7199707 373.65136719 C21.73918579 372.58037529 21.73918579 372.58037529 21.75878906 371.48774719 C21.70677924 366.46881861 20.40251667 363.61412203 17.25 359.75 C14.81032503 358.53016252 13.25095476 358.62948473 10.52490234 358.63647461 C9.54403656 358.63655014 8.56317078 358.63662567 7.55258179 358.63670349 C6.49108917 358.64186478 5.42959656 358.64702606 4.3359375 358.65234375 C2.70877304 358.65446617 2.70877304 358.65446617 1.04873657 358.65663147 C-2.42587 358.66224198 -5.90041281 358.67479628 -9.375 358.6875 C-11.72656157 358.69251365 -14.07812415 358.69707679 -16.4296875 358.70117188 C-22.20314686 358.71221482 -27.97656888 358.72896321 -33.75 358.75 Z M69.25 443.75 C68.6661804 446.8350745 68.6661804 446.8350745 69.25 449.75 C71.08765688 452.01353228 71.08765688 452.01353228 73.8442688 451.99050903 C74.94125092 451.98606781 76.03823303 451.98162659 77.16845703 451.97705078 C78.40959259 451.97689972 79.65072815 451.97674866 80.92947388 451.97659302 C82.2889217 451.966379 83.6483679 451.955947 85.0078125 451.9453125 C86.39500729 451.94158284 87.78220471 451.93873565 89.16940308 451.93673706 C92.82240051 451.92909684 96.47523917 451.90944516 100.12817383 451.8873291 C103.85495862 451.86687896 107.58176904 451.85773713 111.30859375 451.84765625 C118.62246825 451.82619951 125.93621189 451.79205903 133.25 451.75 C133.58 450.1 133.91 448.45 134.25 446.75 C133.15081184 445.76524786 132.0454398 444.78739527 130.9375 443.8125 C130.32261719 443.26722656 129.70773437 442.72195313 129.07421875 442.16015625 C125.96629025 439.75766762 123.18845032 439.61605032 119.39892578 439.57299805 C117.92191696 439.55374519 117.92191696 439.55374519 116.41506958 439.53410339 C115.35254974 439.52671646 114.29002991 439.51932953 113.1953125 439.51171875 C112.10161346 439.503647 111.00791443 439.49557526 109.881073 439.48725891 C107.56607649 439.47342452 105.25105964 439.46269948 102.93603516 439.45483398 C99.39576689 439.43760109 95.85642759 439.39370567 92.31640625 439.34960938 C90.0677152 439.33948411 87.81901622 439.33096749 85.5703125 439.32421875 C84.51184113 439.30671066 83.45336975 439.28920258 82.36282349 439.27116394 C74.94266322 439.25526348 74.94266322 439.25526348 69.25 443.75 Z " fill="#000000" transform="translate(304.75,34.25)"/>
<path d="M0 0 C3.125 1.6875 3.125 1.6875 5 4 C5.5 6.5625 5.5 6.5625 5 9 C3.80859375 10.65625 3.80859375 10.65625 2 12 C-2.8945252 12.41099067 -7.54837834 11.89076784 -11.75 9.3125 C-13 7 -13 7 -12.875 3.8125 C-12.58625 2.884375 -12.2975 1.95625 -12 1 C-8.29444469 -0.85277765 -4.0444991 -0.45714903 0 0 Z " fill="#000000" transform="translate(278,93)"/>
</svg>
