<?xml version="1.0" encoding="UTF-8"?>
<!DOCTYPE svg PUBLIC "-//W3C//DTD SVG 1.1//EN" "http://www.w3.org/Graphics/SVG/1.1/DTD/svg11.dtd">
<svg xmlns="http://www.w3.org/2000/svg" version="1.1" width="512px" height="512px" style="shape-rendering:geometricPrecision; text-rendering:geometricPrecision; image-rendering:optimizeQuality; fill-rule:evenodd; clip-rule:evenodd" xmlns:xlink="http://www.w3.org/1999/xlink">
<g><path style="opacity:1" fill="#000000" d="M 226.5,17.5 C 247.92,16.9606 265.42,24.9606 279,41.5C 289.403,53.9781 295.736,68.3115 298,84.5C 298.261,99.5062 298.261,114.506 298,129.5C 298.942,132.993 300.275,136.326 302,139.5C 309.24,147.64 315.24,156.64 320,166.5C 322.389,172.612 323.556,178.945 323.5,185.5C 337.949,187.778 347.782,195.778 353,209.5C 357.812,225.119 357.145,240.452 351,255.5C 348.072,259.381 344.239,261.881 339.5,263C 332.761,263.845 326.095,265.012 319.5,266.5C 318.509,282.489 318.342,298.489 319,314.5C 319.813,326.375 321.813,338.042 325,349.5C 333.364,362.762 344.531,372.929 358.5,380C 363.075,385.057 362.242,388.891 356,391.5C 341.341,384.247 328.841,374.247 318.5,361.5C 308.634,371.557 302.134,383.557 299,397.5C 297.672,402.792 297.005,408.126 297,413.5C 298.944,416.734 301.778,418.9 305.5,420C 330.995,430.833 357.495,436 385,435.5C 386.718,426.526 388.218,417.526 389.5,408.5C 384.16,407.777 378.827,406.943 373.5,406C 371.671,405.727 370.171,404.893 369,403.5C 368.949,393.754 370.949,384.421 375,375.5C 376.731,373.383 378.898,371.883 381.5,371C 388.747,370.061 395.913,368.895 403,367.5C 410.038,283.564 423.038,200.564 442,118.5C 447.484,94.2055 456.817,71.5388 470,50.5C 473.754,44.7419 478.254,39.5752 483.5,35C 486.466,34.1048 489.133,34.6048 491.5,36.5C 495.376,53.7607 497.376,71.2607 497.5,89C 496.825,105.533 495.658,122.033 494,138.5C 482.135,218.825 466.302,298.325 446.5,377C 452.002,380.585 457.669,383.919 463.5,387C 467.614,390.335 469.614,394.669 469.5,400C 468.917,406.249 467.917,412.416 466.5,418.5C 464.636,419.993 462.47,420.66 460,420.5C 454.089,419.876 448.255,418.876 442.5,417.5C 439.866,426.369 437.7,435.369 436,444.5C 434.062,450.103 430.396,454.103 425,456.5C 423.667,463.167 422.333,469.833 421,476.5C 418.543,481.817 414.377,484.817 408.5,485.5C 403.451,484.524 398.451,483.357 393.5,482C 389.099,479.253 386.766,475.253 386.5,470C 387.338,464.137 388.338,458.304 389.5,452.5C 389.278,450.945 388.611,449.611 387.5,448.5C 354.654,447.765 323.321,440.599 293.5,427C 286.221,421.164 283.721,413.664 286,404.5C 286.624,399.505 287.791,394.672 289.5,390C 285.388,385.609 281.888,380.776 279,375.5C 279.191,385.603 275.858,394.27 269,401.5C 268.676,411.503 268.843,421.503 269.5,431.5C 278.681,431.836 284.514,436.503 287,445.5C 289.295,451.809 288.628,457.809 285,463.5C 281.133,467.702 276.967,471.535 272.5,475C 261.713,480.92 250.713,486.254 239.5,491C 227.225,493.73 214.892,494.063 202.5,492C 199.554,491.194 196.888,489.861 194.5,488C 179.048,485.405 164.548,480.239 151,472.5C 142.155,478.506 132.655,483.339 122.5,487C 109.711,489.91 97.711,487.91 86.5,481C 50.1766,459.571 27.6766,428.071 19,386.5C 14.1457,364.277 13.1457,341.944 16,319.5C 24.6637,305.497 35.4971,293.33 48.5,283C 64.4951,270.327 81.8285,259.66 100.5,251C 108.935,248.817 117.268,249.15 125.5,252C 131.573,254.785 137.406,257.952 143,261.5C 152.089,251.145 155.589,239.145 153.5,225.5C 140.808,225.069 129.974,220.402 121,211.5C 118.329,207.338 115.495,203.338 112.5,199.5C 88.6138,209.267 78.7805,226.934 83,252.5C 78.0234,256.838 74.3567,255.838 72,249.5C 68.5719,219.597 80.9052,199.264 109,188.5C 107.031,173.042 110.698,159.042 120,146.5C 126.792,140.714 132.459,134.048 137,126.5C 138.462,111.502 140.129,96.5017 142,81.5C 144.987,64.0223 152.82,49.189 165.5,37C 176.223,29.3175 188.223,25.9841 201.5,27C 209.294,22.1286 217.627,18.9619 226.5,17.5 Z M 224.5,29.5 C 235.618,28.0304 245.952,30.197 255.5,36C 283.125,57.8632 293.125,86.1965 285.5,121C 286.148,136.793 292.314,149.96 304,160.5C 306,164.5 308,168.5 310,172.5C 311.266,176.395 311.766,180.395 311.5,184.5C 298.522,184.988 287.355,189.655 278,198.5C 274.644,195.124 272.31,191.124 271,186.5C 269.282,179.606 268.282,172.606 268,165.5C 266.066,155.299 261.732,146.299 255,138.5C 242.163,129.418 230.83,118.751 221,106.5C 213.833,96.0066 209.333,84.5066 207.5,72C 208.842,67.6064 209.342,63.1064 209,58.5C 206.206,54.9769 203.04,54.6436 199.5,57.5C 198.166,61.8392 196.833,66.1725 195.5,70.5C 182.788,79.7322 174.621,92.0655 171,107.5C 169.013,115.403 168.346,123.403 169,131.5C 172.876,146.172 176.043,161.006 178.5,176C 177.442,189.115 172.109,200.115 162.5,209C 147.367,216.294 135.201,212.794 126,198.5C 117.27,183.783 117.937,169.45 128,155.5C 132,150.167 136.667,145.5 142,141.5C 144.254,137.993 146.254,134.327 148,130.5C 149.603,113.796 151.603,97.1296 154,80.5C 156.735,68.1957 162.235,57.3624 170.5,48C 179.299,40.0929 189.466,37.2596 201,39.5C 208.588,35.4522 216.421,32.1189 224.5,29.5 Z M 482.5,52.5 C 484.017,57.5856 484.85,62.919 485,68.5C 486.55,98.0162 484.883,127.349 480,156.5C 468.534,228.831 453.867,300.498 436,371.5C 429.839,366.683 423.005,365.35 415.5,367.5C 421.493,283.204 434.326,199.87 454,117.5C 459.939,94.1496 469.439,72.483 482.5,52.5 Z M 197.5,83.5 C 202.538,100.712 211.538,115.545 224.5,128C 220.027,129.774 218.194,132.94 219,137.5C 220.255,139.594 222.088,140.594 224.5,140.5C 228.085,139.024 231.752,138.191 235.5,138C 240.669,140.671 244.669,144.504 247.5,149.5C 242.953,166.21 233.286,179.044 218.5,188C 216.167,188.667 213.833,188.667 211.5,188C 203.844,183.58 197.011,178.08 191,171.5C 187.674,159.535 184.341,147.535 181,135.5C 177.9,115.174 183.4,97.8406 197.5,83.5 Z M 254.5,163.5 C 255.117,163.611 255.617,163.944 256,164.5C 256.975,173.223 258.308,181.89 260,190.5C 261.514,195.029 263.681,199.195 266.5,203C 259.479,202.274 252.479,201.108 245.5,199.5C 244.336,193.193 244.169,186.859 245,180.5C 249.205,175.425 252.371,169.758 254.5,163.5 Z M 188.5,185.5 C 189.458,185.953 190.292,186.619 191,187.5C 191.499,192.155 191.666,196.821 191.5,201.5C 188.475,201.877 185.475,202.044 182.5,202C 185.391,196.826 187.391,191.326 188.5,185.5 Z M 231.5,192.5 C 232.825,196.276 233.491,200.443 233.5,205C 235.769,215.904 232.103,223.904 222.5,229C 212.166,230.753 205.666,226.586 203,216.5C 202.169,209.808 202.336,203.142 203.5,196.5C 213.879,202.29 223.213,200.956 231.5,192.5 Z M 308.5,195.5 C 319.919,194.472 329.752,197.805 338,205.5C 341.368,209.935 343.368,214.935 344,220.5C 344.798,229.213 344.464,237.88 343,246.5C 341.749,249.381 339.583,251.214 336.5,252C 323.812,252.897 311.812,256.23 300.5,262C 298.167,262.667 295.833,262.667 293.5,262C 281.453,250.871 276.286,237.038 278,220.5C 280.583,210.915 286.416,204.082 295.5,200C 299.846,198.164 304.179,196.664 308.5,195.5 Z M 244.5,211.5 C 252.481,212.028 260.148,213.695 267.5,216.5C 265.363,228.704 266.696,240.538 271.5,252C 261.512,264.654 250.179,275.988 237.5,286C 227.577,291.735 217.577,291.735 207.5,286C 190.984,277.486 176.151,266.653 163,253.5C 164.364,246.296 165.197,238.962 165.5,231.5C 165.461,228.113 165.128,224.78 164.5,221.5C 166.167,220.333 167.833,219.167 169.5,218C 176.641,215.923 183.807,214.09 191,212.5C 191.707,229.874 200.707,239.541 218,241.5C 235.897,239.44 244.73,229.44 244.5,211.5 Z M 107.5,260.5 C 111.582,260.344 115.582,260.844 119.5,262C 145.408,274.24 168.241,290.74 188,311.5C 190.955,315.244 193.789,319.078 196.5,323C 189.261,329.454 180.928,333.454 171.5,335C 157.57,316.74 139.904,303.406 118.5,295C 112.763,294.211 107.097,294.544 101.5,296C 81.4919,305.331 64.4919,318.498 50.5,335.5C 41.7313,332.953 34.0646,328.62 27.5,322.5C 41.4742,303.693 58.4742,288.193 78.5,276C 87.9422,270.281 97.6089,265.114 107.5,260.5 Z M 241.5,370.5 C 243.382,354.888 243.882,339.221 243,323.5C 242.594,319.728 241.761,316.061 240.5,312.5C 236.96,309.644 233.794,309.977 231,313.5C 232.291,326.444 232.624,339.444 232,352.5C 231.469,360.401 229.969,368.068 227.5,375.5C 220.498,373.001 213.832,369.835 207.5,366C 209.408,352.274 209.908,338.441 209,324.5C 208.058,321.007 206.725,317.674 205,314.5C 190.676,295.842 173.509,280.342 153.5,268C 154.787,266.59 155.954,265.09 157,263.5C 172.604,280.053 191.104,292.22 212.5,300C 224.811,303.363 236.145,301.363 246.5,294C 258.333,284.833 268.833,274.333 278,262.5C 280.89,267.569 285.056,270.902 290.5,272.5C 292.964,292.646 288.797,311.312 278,328.5C 268.149,344.517 255.983,358.517 241.5,370.5 Z M 306.5,271.5 C 306.096,287.35 306.596,303.35 308,319.5C 308.723,329.905 310.556,340.072 313.5,350C 305.102,357.404 298.602,366.237 294,376.5C 288.62,369.58 284.12,362.08 280.5,354C 281.597,349.926 282.43,345.76 283,341.5C 297.723,321.319 304.39,298.652 303,273.5C 304.302,272.915 305.469,272.249 306.5,271.5 Z M 108.5,305.5 C 111.91,305.457 115.243,305.957 118.5,307C 136.34,315.507 151.173,327.673 163,343.5C 165.599,369.44 159.599,393.106 145,414.5C 137.259,423.695 127.926,430.695 117,435.5C 109.91,436.922 103.41,435.422 97.5,431C 91.2102,426.611 85.0435,422.111 79,417.5C 73.9766,418.584 72.31,421.584 74,426.5C 82.6602,436.16 93.1602,442.993 105.5,447C 114.498,448.667 122.831,447 130.5,442C 156.403,425.364 170.903,401.531 174,370.5C 174.73,362.51 175.23,354.51 175.5,346.5C 183.662,344.669 191.162,341.336 198,336.5C 199.239,370.544 191.239,402.211 174,431.5C 160.456,452.537 141.956,467.537 118.5,476.5C 117.67,470.528 117.17,464.528 117,458.5C 116.626,457.584 116.126,456.75 115.5,456C 112.331,455.022 109.497,455.522 107,457.5C 106.831,463.859 106.331,470.193 105.5,476.5C 68.1927,460.949 44.026,433.615 33,394.5C 27.5455,375.531 25.2121,356.198 26,336.5C 32.8384,341.336 40.3384,344.669 48.5,346.5C 48.2269,357.585 49.0602,368.585 51,379.5C 52.215,385.191 55.3816,386.691 60.5,384C 61.9797,382.701 62.6464,381.034 62.5,379C 60.9726,370.06 59.9726,361.06 59.5,352C 59.4276,348.71 59.9276,345.544 61,342.5C 73.7964,326.196 89.6298,313.863 108.5,305.5 Z M 267.5,361.5 C 268.139,362.097 268.472,362.93 268.5,364C 267.568,371.152 266.735,378.319 266,385.5C 265,387.5 264,389.5 263,391.5C 253.824,401.351 243.49,409.684 232,416.5C 231.509,410.433 232.009,404.433 233.5,398.5C 232.655,393.156 229.655,391.323 224.5,393C 223.299,393.903 222.465,395.069 222,396.5C 220.98,403.799 220.313,411.132 220,418.5C 212.153,415.828 204.986,411.995 198.5,407C 201.579,397.507 204.412,388.007 207,378.5C 215.648,384.419 225.148,387.253 235.5,387C 239.538,386.101 243.205,384.434 246.5,382C 254.431,376.051 261.431,369.218 267.5,361.5 Z M 419.5,377.5 C 423.781,378.136 427.781,379.636 431.5,382C 439.833,386.833 448.167,391.667 456.5,396.5C 457.553,397.438 458.22,398.605 458.5,400C 457.839,402.464 457.339,404.964 457,407.5C 452.874,408.128 448.707,407.795 444.5,406.5C 441.735,403.167 439.068,399.667 436.5,396C 432.308,393.115 427.642,391.448 422.5,391C 415.5,390.333 408.5,390.333 401.5,391C 397.961,393.226 394.461,395.393 391,397.5C 387.392,397.039 383.892,396.205 380.5,395C 381.709,391.963 382.543,388.796 383,385.5C 383.465,384.069 384.299,382.903 385.5,382C 396.983,380.556 408.316,379.056 419.5,377.5 Z M 404.5,401.5 C 412.324,401.032 419.991,401.865 427.5,404C 429.049,405.214 430.215,406.714 431,408.5C 429.703,420.317 427.37,431.984 424,443.5C 420.405,445.456 416.572,445.956 412.5,445C 407.129,444.475 401.962,443.309 397,441.5C 397.573,429.389 399.24,417.389 402,405.5C 402.662,404.016 403.496,402.683 404.5,401.5 Z M 256.5,412.5 C 257.395,420.384 258.395,428.384 259.5,436.5C 254.35,442.48 248.184,447.146 241,450.5C 238.243,448.973 235.243,448.307 232,448.5C 222.175,449.145 212.341,449.645 202.5,450C 200.863,450.601 199.197,451.101 197.5,451.5C 191.131,449.813 185.131,447.313 179.5,444C 185.219,436.069 190.052,427.569 194,418.5C 203.126,424.315 212.959,428.315 223.5,430.5C 236.416,427.897 247.416,421.897 256.5,412.5 Z M 269.5,443.5 C 273.144,443.708 275.311,445.708 276,449.5C 276.667,451.833 276.667,454.167 276,456.5C 268.724,463.932 260.224,469.598 250.5,473.5C 248.994,469.31 247.994,464.976 247.5,460.5C 255.625,455.781 262.958,450.114 269.5,443.5 Z M 171.5,453.5 C 177.935,456.756 184.601,459.422 191.5,461.5C 191.5,466.167 191.5,470.833 191.5,475.5C 180.876,473.52 170.876,469.854 161.5,464.5C 164.855,460.813 168.189,457.147 171.5,453.5 Z M 400.5,454.5 C 404.842,455.193 409.175,456.026 413.5,457C 412.421,462.391 411.088,467.724 409.5,473C 405.106,473.568 401.106,472.568 397.5,470C 398.765,464.912 399.765,459.746 400.5,454.5 Z M 229.5,459.5 C 232.93,458.79 235.263,459.957 236.5,463C 237.101,467.684 237.768,472.35 238.5,477C 238.241,478.261 237.574,479.261 236.5,480C 226.552,481.531 216.552,481.865 206.5,481C 205.376,480.751 204.376,480.251 203.5,479.5C 202.167,473.833 202.167,468.167 203.5,462.5C 212.226,460.997 220.893,459.997 229.5,459.5 Z"/></g>
<g><path style="opacity:1" fill="#000000" d="M 190.5,127.5 C 195.991,127.488 200.824,129.155 205,132.5C 206.832,137.82 204.999,140.487 199.5,140.5C 196.002,140.292 192.669,139.459 189.5,138C 186.615,134.056 186.948,130.556 190.5,127.5 Z"/></g>
<g><path style="opacity:1" fill="#000000" d="M 60.5,395.5 C 66.8295,393.995 70.1628,396.495 70.5,403C 70.262,406.738 68.262,408.571 64.5,408.5C 60.2728,407.914 58.2728,405.414 58.5,401C 58.3948,398.822 59.0615,396.988 60.5,395.5 Z"/></g>
</svg>
