<?xml version="1.0" encoding="UTF-8"?>
<!DOCTYPE svg PUBLIC "-//W3C//DTD SVG 1.1//EN" "http://www.w3.org/Graphics/SVG/1.1/DTD/svg11.dtd">
<svg xmlns="http://www.w3.org/2000/svg" version="1.1" width="512px" height="512px" style="shape-rendering:geometricPrecision; text-rendering:geometricPrecision; image-rendering:optimizeQuality; fill-rule:evenodd; clip-rule:evenodd" xmlns:xlink="http://www.w3.org/1999/xlink">
<g><path style="opacity:1" fill="#33333f" d="M 361.5,388.5 C 360.089,389.908 358.423,390.908 356.5,391.5C 352.483,389.492 348.483,387.492 344.5,385.5C 342.909,383.367 340.909,381.701 338.5,380.5C 332.86,375.195 327.193,369.861 321.5,364.5C 321.315,362.804 320.481,361.471 319,360.5C 311.275,367.731 305.775,376.398 302.5,386.5C 299.832,392.816 298.165,399.482 297.5,406.5C 295.623,411.242 296.623,415.409 300.5,419C 313.203,425.401 326.536,429.901 340.5,432.5C 355.442,436.392 370.775,438.058 386.5,437.5C 387.511,428.789 388.844,420.122 390.5,411.5C 390.182,410.353 389.516,409.519 388.5,409C 385.198,407.974 381.865,407.14 378.5,406.5C 375.03,407.125 372.196,406.125 370,403.5C 369.55,399.812 369.717,396.146 370.5,392.5C 370.742,384.646 373.742,378.146 379.5,373C 387.267,370.488 395.267,369.321 403.5,369.5C 410.71,284.574 423.876,200.574 443,117.5C 448.287,95.2643 456.62,74.2643 468,54.5C 472.741,47.0885 478.241,40.2551 484.5,34C 487.669,33.0218 490.503,33.5218 493,35.5C 496.741,52.9583 498.574,70.625 498.5,88.5C 498.203,108.259 496.703,127.926 494,147.5C 482.082,225.092 466.582,301.926 447.5,378C 455.104,381.382 461.938,385.882 468,391.5C 470.401,396.232 471.068,401.232 470,406.5C 469.333,410.5 468.667,414.5 468,418.5C 467.5,419.667 466.667,420.5 465.5,421C 457.757,421.044 450.09,420.211 442.5,418.5C 440.759,429.797 437.926,440.797 434,451.5C 431.87,454.23 429.203,456.23 426,457.5C 424.547,464.888 422.88,472.221 421,479.5C 418.406,484.134 414.406,486.467 409,486.5C 404.82,485.747 400.653,484.913 396.5,484C 390.088,481.758 387.088,477.258 387.5,470.5C 388.07,464.415 389.07,458.415 390.5,452.5C 389.687,451.186 388.687,450.019 387.5,449C 354.073,448.917 322.406,441.584 292.5,427C 287.862,422.89 285.529,417.724 285.5,411.5C 285.975,404.649 287.308,397.982 289.5,391.5C 286,386.5 282.5,381.5 279,376.5C 279.191,386.603 275.858,395.27 269,402.5C 268.75,412.5 268.916,422.5 269.5,432.5C 275.023,432.178 279.523,434.178 283,438.5C 292.223,452.852 289.723,464.686 275.5,474C 266.781,480.526 257.114,485.192 246.5,488C 243.465,491.017 239.799,492.683 235.5,493C 224.162,494.969 212.829,494.969 201.5,493C 191.383,489.216 181.049,485.883 170.5,483C 163.712,480.106 157.045,476.94 150.5,473.5C 141.003,480.248 130.67,485.415 119.5,489C 105.749,490.753 93.082,487.753 81.5,480C 44.7679,456.095 22.9346,422.261 16,378.5C 13.2637,361.596 12.2637,344.596 13,327.5C 13.6317,321.935 15.6317,316.935 19,312.5C 36.4739,291.029 57.3073,273.696 81.5,260.5C 87.9928,257.088 94.6595,253.921 101.5,251C 109.744,248.731 117.744,249.397 125.5,253C 131.167,256.167 136.833,259.333 142.5,262.5C 145.748,260.34 147.748,257.34 148.5,253.5C 151.527,249.086 153.194,244.086 153.5,238.5C 154.487,233.695 154.821,228.695 154.5,223.5C 149.821,223.666 145.155,223.499 140.5,223C 135.661,221.079 130.994,218.912 126.5,216.5C 120.946,211.048 116.113,205.048 112,198.5C 95.4822,203.685 85.1489,214.685 81,231.5C 80.5026,234.146 80.3359,236.813 80.5,239.5C 81.0359,242.846 81.7026,246.18 82.5,249.5C 81.5684,251.765 80.2351,253.765 78.5,255.5C 75.9009,255.451 73.7342,254.451 72,252.5C 66.3309,221.508 78.1643,200.175 107.5,188.5C 106.129,173.107 109.963,159.107 119,146.5C 125.792,140.714 131.459,134.048 136,126.5C 136.822,124.212 137.489,121.878 138,119.5C 137.579,99.62 140.579,80.2867 147,61.5C 156.114,37.3533 173.447,25.6866 199,26.5C 230.074,9.38131 257.074,14.3813 280,41.5C 297.488,65.0901 303.321,91.4235 297.5,120.5C 297.376,125.339 298.21,130.005 300,134.5C 306,143.167 312,151.833 318,160.5C 321.881,168.023 323.881,176.023 324,184.5C 340.554,188.054 350.888,198.054 355,214.5C 357.424,227.681 356.758,240.681 353,253.5C 350.778,257.388 347.612,260.221 343.5,262C 336.525,263.425 329.525,264.759 322.5,266C 321.572,266.388 320.905,267.055 320.5,268C 316.722,296.221 318.556,324.054 326,351.5C 335.624,364.145 347.291,374.478 361,382.5C 362.612,384.456 362.778,386.456 361.5,388.5 Z"/></g>
<g><path style="opacity:1" fill="#f8cd82" d="M 273.5,51.5 C 237.169,52.0132 200.835,52.3465 164.5,52.5C 174.372,39.5959 187.372,34.4292 203.5,37C 231.185,20.7266 254.518,25.56 273.5,51.5 Z"/></g>
<g><path style="opacity:1" fill="#f9cd7c" d="M 273.5,51.5 C 276.014,54.5296 278.014,57.863 279.5,61.5C 255.851,63.5337 232.185,63.867 208.5,62.5C 209.258,58.2674 207.591,55.6007 203.5,54.5C 199.33,55.9596 197.33,58.9596 197.5,63.5C 184.311,63.6842 171.311,63.6842 158.5,63.5C 159.726,59.38 161.726,55.7133 164.5,52.5C 200.835,52.3465 237.169,52.0132 273.5,51.5 Z"/></g>
<g><path style="opacity:1" fill="#f8c677" d="M 279.5,61.5 C 287.682,76.2591 290.349,91.9257 287.5,108.5C 287.5,103.833 287.5,99.1667 287.5,94.5C 287.5,92.5 287.5,90.5 287.5,88.5C 262.32,88.4209 237.32,89.0876 212.5,90.5C 207.698,81.6209 206.365,72.2875 208.5,62.5C 232.185,63.867 255.851,63.5337 279.5,61.5 Z"/></g>
<g><path style="opacity:1" fill="#f7c576" d="M 158.5,63.5 C 171.311,63.6842 184.311,63.6842 197.5,63.5C 197.799,65.604 197.466,67.604 196.5,69.5C 186.181,76.144 178.848,85.144 174.5,96.5C 166.097,97.1335 158.097,96.4668 150.5,94.5C 151.156,83.541 153.822,73.2076 158.5,63.5 Z"/></g>
<g><path style="opacity:1" fill="#ecf7f7" d="M 486.5,102.5 C 480.454,101.715 474.454,100.715 468.5,99.5C 467.635,93.9956 466.968,88.329 466.5,82.5C 470.942,70.9485 476.942,60.2818 484.5,50.5C 486.132,57.71 486.965,65.0433 487,72.5C 487.825,82.6753 487.658,92.6753 486.5,102.5 Z"/></g>
<g><path style="opacity:1" fill="#f9c76f" d="M 287.5,94.5 C 263.182,95.4177 238.849,95.751 214.5,95.5C 213.559,93.9505 212.893,92.2838 212.5,90.5C 237.32,89.0876 262.32,88.4209 287.5,88.5C 287.5,90.5 287.5,92.5 287.5,94.5 Z"/></g>
<g><path style="opacity:1" fill="#f7d8d2" d="M 204.5,99.5 C 205.2,103.237 206.2,106.904 207.5,110.5C 199.231,112.47 190.565,113.136 181.5,112.5C 181.5,111.167 181.5,109.833 181.5,108.5C 184.009,97.8132 189.343,88.8132 197.5,81.5C 200.22,87.3215 202.553,93.3215 204.5,99.5 Z"/></g>
<g><path style="opacity:1" fill="#eaf2f9" d="M 468.5,99.5 C 474.454,100.715 480.454,101.715 486.5,102.5C 486.44,112.881 485.774,123.214 484.5,133.5C 478.82,132.942 473.153,132.275 467.5,131.5C 468.345,120.857 468.679,110.19 468.5,99.5 Z"/></g>
<g><path style="opacity:1" fill="#f9c06b" d="M 287.5,94.5 C 287.5,99.1667 287.5,103.833 287.5,108.5C 287.037,111.482 286.704,114.482 286.5,117.5C 285.549,118.919 285.216,120.585 285.5,122.5C 272.496,122.333 259.496,122.5 246.5,123C 243.305,123.181 240.305,123.681 237.5,124.5C 227.678,116.511 220.011,106.844 214.5,95.5C 238.849,95.751 263.182,95.4177 287.5,94.5 Z"/></g>
<g><path style="opacity:1" fill="#de837d" d="M 204.5,99.5 C 209.02,107.535 214.187,115.202 220,122.5C 228.744,131.249 238.078,139.249 248,146.5C 247.735,150.791 246.569,154.791 244.5,158.5C 243.737,156.632 242.737,154.965 241.5,153.5C 237.03,148.198 232.03,143.364 226.5,139C 223.123,139.619 219.79,139.453 216.5,138.5C 214.955,135.348 215.621,132.681 218.5,130.5C 214.283,124.061 210.616,117.394 207.5,110.5C 206.2,106.904 205.2,103.237 204.5,99.5 Z"/></g>
<g><path style="opacity:1" fill="#f6be6b" d="M 150.5,94.5 C 158.097,96.4668 166.097,97.1335 174.5,96.5C 170.861,105.095 168.861,114.095 168.5,123.5C 161.82,123.612 155.153,123.946 148.5,124.5C 148.428,114.301 149.095,104.301 150.5,94.5 Z"/></g>
<g><path style="opacity:1" fill="#f8b962" d="M 286.5,117.5 C 286.083,129.658 289.416,140.658 296.5,150.5C 295.391,151.29 294.058,151.79 292.5,152C 282.839,152.5 273.172,152.666 263.5,152.5C 261.56,148.72 259.393,145.054 257,141.5C 250.896,135.226 244.396,129.559 237.5,124.5C 240.305,123.681 243.305,123.181 246.5,123C 259.496,122.5 272.496,122.333 285.5,122.5C 285.216,120.585 285.549,118.919 286.5,117.5 Z"/></g>
<g><path style="opacity:1" fill="#f7b961" d="M 168.5,123.5 C 168.506,128.215 169.006,132.882 170,137.5C 171.638,141.722 172.805,146.055 173.5,150.5C 173.5,151.5 173.5,152.5 173.5,153.5C 158.5,153.5 143.5,153.5 128.5,153.5C 132.457,148.041 136.957,143.041 142,138.5C 144.649,134.051 146.816,129.384 148.5,124.5C 155.153,123.946 161.82,123.612 168.5,123.5 Z"/></g>
<g><path style="opacity:1" fill="#f8cec7" d="M 181.5,108.5 C 181.5,109.833 181.5,111.167 181.5,112.5C 190.565,113.136 199.231,112.47 207.5,110.5C 210.616,117.394 214.283,124.061 218.5,130.5C 215.621,132.681 214.955,135.348 216.5,138.5C 205.012,139.495 193.345,139.828 181.5,139.5C 179.957,134.676 179.291,129.676 179.5,124.5C 179.318,118.914 179.985,113.58 181.5,108.5 Z"/></g>
<g><path style="opacity:1" fill="#e28580" d="M 191.5,129.5 C 194.85,129.335 198.183,129.502 201.5,130C 204.167,132.667 204.167,135.333 201.5,138C 198.5,138.667 195.5,138.667 192.5,138C 188.986,135.468 188.653,132.635 191.5,129.5 Z"/></g>
<g><path style="opacity:1" fill="#f9c7be" d="M 216.5,138.5 C 219.79,139.453 223.123,139.619 226.5,139C 232.03,143.364 237.03,148.198 241.5,153.5C 223.197,155.487 204.53,156.154 185.5,155.5C 184.293,150.131 182.96,144.798 181.5,139.5C 193.345,139.828 205.012,139.495 216.5,138.5 Z"/></g>
<g><path style="opacity:1" fill="#7c96b0" d="M 466.5,82.5 C 466.968,88.329 467.635,93.9956 468.5,99.5C 468.679,110.19 468.345,120.857 467.5,131.5C 462.366,162.31 457.032,192.977 451.5,223.5C 451.5,222.167 451.5,220.833 451.5,219.5C 445.52,218.909 439.853,217.575 434.5,215.5C 440.192,180.208 447.358,145.208 456,110.5C 458.841,100.796 462.341,91.4631 466.5,82.5 Z"/></g>
<g><path style="opacity:1" fill="#f8b357" d="M 296.5,150.5 C 306.676,159.521 312.01,170.854 312.5,184.5C 307.384,184.593 302.384,185.426 297.5,187C 290.363,190.226 283.697,193.893 277.5,198C 273.855,194.547 271.355,190.38 270,185.5C 269.73,174.064 267.563,163.064 263.5,152.5C 273.172,152.666 282.839,152.5 292.5,152C 294.058,151.79 295.391,151.29 296.5,150.5 Z"/></g>
<g><path style="opacity:1" fill="#dfecf1" d="M 467.5,131.5 C 473.153,132.275 478.82,132.942 484.5,133.5C 480.566,166.104 475.233,198.437 468.5,230.5C 462.578,230.236 456.911,229.236 451.5,227.5C 451.5,226.167 451.5,224.833 451.5,223.5C 457.032,192.977 462.366,162.31 467.5,131.5 Z"/></g>
<g><path style="opacity:1" fill="#f8b358" d="M 173.5,150.5 C 178.064,161.357 179.397,172.69 177.5,184.5C 158.907,185.32 140.24,185.82 121.5,186C 120.944,186.383 120.611,186.883 120.5,187.5C 116.541,174.666 119.208,163.333 128.5,153.5C 143.5,153.5 158.5,153.5 173.5,153.5C 173.5,152.5 173.5,151.5 173.5,150.5 Z"/></g>
<g><path style="opacity:1" fill="#f8bbb1" d="M 241.5,153.5 C 242.737,154.965 243.737,156.632 244.5,158.5C 240.004,169.841 232.67,179.007 222.5,186C 218.782,188.298 214.782,188.965 210.5,188C 203.424,183.594 196.924,178.428 191,172.5C 188.324,167.142 186.491,161.475 185.5,155.5C 204.53,156.154 223.197,155.487 241.5,153.5 Z"/></g>
<g><path style="opacity:1" fill="#f8ad50" d="M 177.5,184.5 C 175.424,192.238 171.924,199.238 167,205.5C 154.43,216.24 141.93,216.074 129.5,205C 124.779,200.058 121.779,194.224 120.5,187.5C 120.611,186.883 120.944,186.383 121.5,186C 140.24,185.82 158.907,185.32 177.5,184.5 Z"/></g>
<g><path style="opacity:1" fill="#db807b" d="M 233.5,201.5 C 223.962,207.346 213.629,211.013 202.5,212.5C 202.5,214.167 202.5,215.833 202.5,217.5C 201.181,210.323 201.181,202.99 202.5,195.5C 213.92,201.755 224.086,200.088 233,190.5C 233.499,194.152 233.665,197.818 233.5,201.5 Z"/></g>
<g><path style="opacity:1" fill="#e6f1f3" d="M 330.5,198.5 C 330.162,214.812 321.829,223.812 305.5,225.5C 294.949,224.736 287.283,219.736 282.5,210.5C 283.543,207.944 285.21,205.777 287.5,204C 300.806,193.754 315.139,191.921 330.5,198.5 Z"/></g>
<g><path style="opacity:1" fill="#deecf2" d="M 330.5,198.5 C 335.5,200.833 339.167,204.5 341.5,209.5C 338.25,223.588 329.584,232.755 315.5,237C 300.981,240.038 288.314,236.538 277.5,226.5C 276.44,220.197 278.107,214.863 282.5,210.5C 287.283,219.736 294.949,224.736 305.5,225.5C 321.829,223.812 330.162,214.812 330.5,198.5 Z"/></g>
<g><path style="opacity:1" fill="#e5f0f3" d="M 126.5,216.5 C 127.167,217.5 127.833,218.5 128.5,219.5C 119.746,238.378 105.079,245.878 84.5,242C 82.867,241.52 81.5336,240.687 80.5,239.5C 80.3359,236.813 80.5026,234.146 81,231.5C 85.1489,214.685 95.4822,203.685 112,198.5C 116.113,205.048 120.946,211.048 126.5,216.5 Z"/></g>
<g><path style="opacity:1" fill="#f8cec6" d="M 233.5,201.5 C 233.666,207.176 233.499,212.843 233,218.5C 229.052,228.223 221.886,231.723 211.5,229C 206.796,226.467 203.796,222.633 202.5,217.5C 202.5,215.833 202.5,214.167 202.5,212.5C 213.629,211.013 223.962,207.346 233.5,201.5 Z"/></g>
<g><path style="opacity:1" fill="#d4e6ec" d="M 341.5,209.5 C 345.048,216.631 346.381,224.298 345.5,232.5C 327.462,251.293 306.129,255.959 281.5,246.5C 278.908,240.126 277.575,233.459 277.5,226.5C 288.314,236.538 300.981,240.038 315.5,237C 329.584,232.755 338.25,223.588 341.5,209.5 Z"/></g>
<g><path style="opacity:1" fill="#d2e5ec" d="M 128.5,219.5 C 135.282,226.725 143.616,231.058 153.5,232.5C 153.5,234.5 153.5,236.5 153.5,238.5C 153.194,244.086 151.527,249.086 148.5,253.5C 135.764,245.204 121.764,241.704 106.5,243C 97.9247,246.287 89.9247,250.621 82.5,256C 81.6634,257.011 81.33,258.178 81.5,259.5C 80.5,258.167 79.5,256.833 78.5,255.5C 80.2351,253.765 81.5684,251.765 82.5,249.5C 81.7026,246.18 81.0359,242.846 80.5,239.5C 81.5336,240.687 82.867,241.52 84.5,242C 105.079,245.878 119.746,238.378 128.5,219.5 Z"/></g>
<g><path style="opacity:1" fill="#8098b0" d="M 126.5,216.5 C 130.994,218.912 135.661,221.079 140.5,223C 145.155,223.499 149.821,223.666 154.5,223.5C 154.821,228.695 154.487,233.695 153.5,238.5C 153.5,236.5 153.5,234.5 153.5,232.5C 143.616,231.058 135.282,226.725 128.5,219.5C 127.833,218.5 127.167,217.5 126.5,216.5 Z"/></g>
<g><path style="opacity:1" fill="#748ea7" d="M 434.5,215.5 C 439.853,217.575 445.52,218.909 451.5,219.5C 451.5,220.833 451.5,222.167 451.5,223.5C 451.5,224.833 451.5,226.167 451.5,227.5C 448.039,244.804 444.706,262.137 441.5,279.5C 441.64,277.876 440.973,276.71 439.5,276C 434.535,275.513 429.868,274.346 425.5,272.5C 427.853,253.273 430.853,234.273 434.5,215.5 Z"/></g>
<g><path style="opacity:1" fill="#cadee8" d="M 345.5,232.5 C 345.329,237.196 344.829,241.863 344,246.5C 343.215,248.286 342.049,249.786 340.5,251C 326.238,252.964 312.572,256.964 299.5,263C 297.029,263.706 294.695,263.373 292.5,262C 287.215,257.911 283.548,252.744 281.5,246.5C 306.129,255.959 327.462,251.293 345.5,232.5 Z"/></g>
<g><path style="opacity:1" fill="#7f9bb4" d="M 268.5,241.5 C 259.358,242.832 249.858,243.498 240,243.5C 222.666,243.225 205.332,242.892 188,242.5C 179.804,242.498 171.97,241.831 164.5,240.5C 164.17,233.468 164.503,226.468 165.5,219.5C 173.53,214.992 182.197,212.658 191.5,212.5C 192.315,229.48 201.148,238.814 218,240.5C 235.09,237.905 243.923,227.905 244.5,210.5C 252.167,211.833 259.833,213.167 267.5,214.5C 266.145,223.554 266.478,232.554 268.5,241.5 Z"/></g>
<g><path style="opacity:1" fill="#7c95ae" d="M 148.5,253.5 C 147.748,257.34 145.748,260.34 142.5,262.5C 136.833,259.333 131.167,256.167 125.5,253C 117.744,249.397 109.744,248.731 101.5,251C 94.6595,253.921 87.9928,257.088 81.5,260.5C 81.5,260.167 81.5,259.833 81.5,259.5C 81.33,258.178 81.6634,257.011 82.5,256C 89.9247,250.621 97.9247,246.287 106.5,243C 121.764,241.704 135.764,245.204 148.5,253.5 Z"/></g>
<g><path style="opacity:1" fill="#7a94ae" d="M 164.5,240.5 C 171.97,241.831 179.804,242.498 188,242.5C 205.332,242.892 222.666,243.225 240,243.5C 249.858,243.498 259.358,242.832 268.5,241.5C 269.896,244.864 271.229,248.364 272.5,252C 261.054,267.114 247.388,279.781 231.5,290C 219.149,291.746 207.816,289.079 197.5,282C 184.8,273.639 172.967,264.139 162,253.5C 161.742,248.88 162.576,244.546 164.5,240.5 Z"/></g>
<g><path style="opacity:1" fill="#d3e4eb" d="M 451.5,227.5 C 456.911,229.236 462.578,230.236 468.5,230.5C 464.568,251.949 460.235,273.282 455.5,294.5C 451.536,293.743 447.536,293.076 443.5,292.5C 441.97,292.36 440.97,291.693 440.5,290.5C 440.724,286.821 441.058,283.154 441.5,279.5C 444.706,262.137 448.039,244.804 451.5,227.5 Z"/></g>
<g><path style="opacity:1" fill="#eff8f8" d="M 143.5,275.5 C 145.169,283.639 144.669,291.639 142,299.5C 141.208,302.106 139.708,304.106 137.5,305.5C 132.326,302.523 126.992,299.689 121.5,297C 114.486,295.046 107.486,295.046 100.5,297C 95.0075,299.689 89.6742,302.523 84.5,305.5C 77.9659,295.29 76.9659,284.623 81.5,273.5C 87.9407,269.441 94.6074,265.608 101.5,262C 108.609,259.842 115.609,260.175 122.5,263C 129.894,266.689 136.894,270.856 143.5,275.5 Z"/></g>
<g><path style="opacity:1" fill="#7894ad" d="M 291.5,287.5 C 288.62,287.06 285.954,286.06 283.5,284.5C 278.106,280.767 273.44,276.434 269.5,271.5C 272.146,268.188 275.146,265.188 278.5,262.5C 281.599,266.934 285.599,270.267 290.5,272.5C 291.494,277.456 291.827,282.456 291.5,287.5 Z"/></g>
<g><path style="opacity:1" fill="#e6f2f2" d="M 269.5,271.5 C 273.44,276.434 278.106,280.767 283.5,284.5C 287.888,305.227 280.221,319.06 260.5,326C 240.358,328.94 227.358,320.774 221.5,301.5C 224.902,301.658 228.236,301.324 231.5,300.5C 230.963,302.808 231.463,305.141 233,307.5C 245.564,321.67 258.564,322.003 272,308.5C 278,299.5 278,290.5 272,281.5C 270.223,279.21 268.056,277.543 265.5,276.5C 266.833,274.833 268.167,273.167 269.5,271.5 Z"/></g>
<g><path style="opacity:1" fill="#dd817c" d="M 309.5,327.5 C 297.258,335.071 288.258,345.404 282.5,358.5C 281.06,357.054 280.393,355.221 280.5,353C 281,349.5 281.5,346 282,342.5C 297.479,321.837 304.646,298.503 303.5,272.5C 305.059,271.926 306.559,271.26 308,270.5C 307.065,289.529 307.565,308.529 309.5,327.5 Z"/></g>
<g><path style="opacity:1" fill="#e9f1f8" d="M 81.5,273.5 C 76.9659,284.623 77.9659,295.29 84.5,305.5C 80.1352,309.189 75.4685,312.522 70.5,315.5C 64.7063,306.961 61.373,297.628 60.5,287.5C 66.9756,282.092 73.9756,277.425 81.5,273.5 Z"/></g>
<g><path style="opacity:1" fill="#e9f1f8" d="M 143.5,275.5 C 150.875,279.185 157.541,283.851 163.5,289.5C 162.883,289.611 162.383,289.944 162,290.5C 160.898,299.978 157.731,308.645 152.5,316.5C 147.284,313.066 142.284,309.399 137.5,305.5C 139.708,304.106 141.208,302.106 142,299.5C 144.669,291.639 145.169,283.639 143.5,275.5 Z"/></g>
<g><path style="opacity:1" fill="#6c869e" d="M 425.5,272.5 C 429.868,274.346 434.535,275.513 439.5,276C 440.973,276.71 441.64,277.876 441.5,279.5C 441.058,283.154 440.724,286.821 440.5,290.5C 436.552,308.922 433.218,327.589 430.5,346.5C 430.637,353.636 433.97,358.636 440.5,361.5C 440.11,365.509 438.776,369.176 436.5,372.5C 433.671,371.253 431.005,369.753 428.5,368C 423.806,367.436 419.14,367.603 414.5,368.5C 417.036,336.226 420.702,304.226 425.5,272.5 Z"/></g>
<g><path style="opacity:1" fill="#eaf2f9" d="M 265.5,276.5 C 268.056,277.543 270.223,279.21 272,281.5C 278,290.5 278,299.5 272,308.5C 258.564,322.003 245.564,321.67 233,307.5C 231.463,305.141 230.963,302.808 231.5,300.5C 233.701,299.434 236.035,298.767 238.5,298.5C 240.41,305.902 245.244,309.902 253,310.5C 262.167,309.333 267.333,304.167 268.5,295C 267.928,291.616 266.761,288.449 265,285.5C 263.736,283.393 261.903,282.393 259.5,282.5C 261.167,280.167 263.167,278.167 265.5,276.5 Z"/></g>
<g><path style="opacity:1" fill="#6f8aa2" d="M 205.5,297.5 C 205.062,297.435 204.728,297.601 204.5,298C 210.587,304.002 214.754,311.168 217,319.5C 218.353,328.775 218.853,338.109 218.5,347.5C 217.467,355.655 216.8,363.988 216.5,372.5C 213.447,371.223 210.614,369.556 208,367.5C 208.494,352.851 208.494,338.184 208,323.5C 204.878,316.045 200.545,309.379 195,303.5C 182.129,289.781 167.962,277.781 152.5,267.5C 153.833,265.833 155.167,264.167 156.5,262.5C 170.924,276.937 187.258,288.604 205.5,297.5 Z"/></g>
<g><path style="opacity:1" fill="#eff8f8" d="M 259.5,282.5 C 261.903,282.393 263.736,283.393 265,285.5C 266.761,288.449 267.928,291.616 268.5,295C 267.333,304.167 262.167,309.333 253,310.5C 245.244,309.902 240.41,305.902 238.5,298.5C 246.001,293.906 253.001,288.573 259.5,282.5 Z"/></g>
<g><path style="opacity:1" fill="#dceaf0" d="M 283.5,284.5 C 285.954,286.06 288.62,287.06 291.5,287.5C 291.122,301.011 287.622,313.678 281,325.5C 273.261,338.325 264.094,349.992 253.5,360.5C 241.299,360.427 229.965,357.26 219.5,351C 218.663,349.989 218.33,348.822 218.5,347.5C 218.853,338.109 218.353,328.775 217,319.5C 214.754,311.168 210.587,304.002 204.5,298C 204.728,297.601 205.062,297.435 205.5,297.5C 210.673,299.416 216.006,300.75 221.5,301.5C 227.358,320.774 240.358,328.94 260.5,326C 280.221,319.06 287.888,305.227 283.5,284.5 Z"/></g>
<g><path style="opacity:1" fill="#e5f1f1" d="M 60.5,287.5 C 61.373,297.628 64.7063,306.961 70.5,315.5C 66.1927,319.472 61.8593,323.472 57.5,327.5C 50.571,320.309 46.2376,311.642 44.5,301.5C 49.4181,296.372 54.7515,291.705 60.5,287.5 Z"/></g>
<g><path style="opacity:1" fill="#e5f1f1" d="M 163.5,289.5 C 169.391,292.719 174.391,297.052 178.5,302.5C 176.788,312.591 172.455,321.257 165.5,328.5C 161.141,324.472 156.807,320.472 152.5,316.5C 157.731,308.645 160.898,299.978 162,290.5C 162.383,289.944 162.883,289.611 163.5,289.5 Z"/></g>
<g><path style="opacity:1" fill="#343441" d="M 137.5,305.5 C 142.284,309.399 147.284,313.066 152.5,316.5C 156.807,320.472 161.141,324.472 165.5,328.5C 167.122,331.455 169.122,334.122 171.5,336.5C 171.461,337.756 171.961,338.756 173,339.5C 173.5,347.493 173.666,355.493 173.5,363.5C 172.421,383.84 166.421,402.506 155.5,419.5C 150.731,424.771 145.731,429.938 140.5,435C 134.436,439.362 128.102,443.195 121.5,446.5C 119.784,446.629 118.117,446.962 116.5,447.5C 112.866,448.758 109.2,448.758 105.5,447.5C 103.784,447.371 102.117,447.038 100.5,446.5C 89.9306,441.946 80.7639,435.279 73,426.5C 72.3603,424.735 72.5269,423.068 73.5,421.5C 75.4957,419.667 77.829,419.167 80.5,420C 87.759,427.261 96.0923,432.928 105.5,437C 109.167,437.667 112.833,437.667 116.5,437C 138.231,427.099 152.231,410.599 158.5,387.5C 163.145,373.054 164.479,358.387 162.5,343.5C 156.564,334.562 149.231,326.896 140.5,320.5C 133.58,315.432 126.247,310.932 118.5,307C 110.975,304.354 103.975,305.354 97.5,310C 93.2576,312.61 89.2576,315.443 85.5,318.5C 75.6086,324.388 67.2753,332.055 60.5,341.5C 59.7784,341.918 59.2784,342.584 59,343.5C 58.3029,354.891 58.8029,366.224 60.5,377.5C 61.1715,380.986 60.1715,383.653 57.5,385.5C 54.1922,386.026 52.0255,384.693 51,381.5C 49.6808,375.894 48.8475,370.227 48.5,364.5C 48.3336,356.16 48.5003,347.827 49,339.5C 49.7172,338.956 50.2172,338.289 50.5,337.5C 52.8333,334.167 55.1667,330.833 57.5,327.5C 61.8593,323.472 66.1927,319.472 70.5,315.5C 75.4685,312.522 80.1352,309.189 84.5,305.5C 89.6742,302.523 95.0075,299.689 100.5,297C 107.486,295.046 114.486,295.046 121.5,297C 126.992,299.689 132.326,302.523 137.5,305.5 Z"/></g>
<g><path style="opacity:1" fill="#deeaf1" d="M 44.5,301.5 C 46.2376,311.642 50.571,320.309 57.5,327.5C 55.1667,330.833 52.8333,334.167 50.5,337.5C 41.709,333.606 33.3757,328.939 25.5,323.5C 30.3673,314.961 36.7006,307.628 44.5,301.5 Z"/></g>
<g><path style="opacity:1" fill="#deeaf1" d="M 178.5,302.5 C 185.25,307.914 190.917,314.247 195.5,321.5C 188.209,327.487 180.209,332.487 171.5,336.5C 169.122,334.122 167.122,331.455 165.5,328.5C 172.455,321.257 176.788,312.591 178.5,302.5 Z"/></g>
<g><path style="opacity:1" fill="#819bb5" d="M 140.5,320.5 C 136.242,341.598 123.576,350.098 102.5,346C 90.8834,340.543 85.2167,331.376 85.5,318.5C 89.2576,315.443 93.2576,312.61 97.5,310C 103.975,305.354 110.975,304.354 118.5,307C 126.247,310.932 133.58,315.432 140.5,320.5 Z"/></g>
<g><path style="opacity:1" fill="#7b95af" d="M 85.5,318.5 C 85.2167,331.376 90.8834,340.543 102.5,346C 123.576,350.098 136.242,341.598 140.5,320.5C 149.231,326.896 156.564,334.562 162.5,343.5C 155.756,359.748 143.756,370.248 126.5,375C 95.8098,380.49 73.8098,369.323 60.5,341.5C 67.2753,332.055 75.6086,324.388 85.5,318.5 Z"/></g>
<g><path style="opacity:1" fill="#728da5" d="M 25.5,323.5 C 33.3757,328.939 41.709,333.606 50.5,337.5C 50.2172,338.289 49.7172,338.956 49,339.5C 48.5003,347.827 48.3336,356.16 48.5,364.5C 47.8335,358.986 47.1668,353.319 46.5,347.5C 38.3193,343.914 30.6527,339.581 23.5,334.5C 23.1113,330.586 23.7779,326.92 25.5,323.5 Z"/></g>
<g><path style="opacity:1" fill="#748ca4" d="M 195.5,321.5 C 197.874,324.686 198.874,328.353 198.5,332.5C 191.315,337.595 183.649,341.928 175.5,345.5C 174.833,351.654 174.167,357.654 173.5,363.5C 173.666,355.493 173.5,347.493 173,339.5C 171.961,338.756 171.461,337.756 171.5,336.5C 180.209,332.487 188.209,327.487 195.5,321.5 Z"/></g>
<g><path style="opacity:1" fill="#c8dee6" d="M 440.5,290.5 C 440.97,291.693 441.97,292.36 443.5,292.5C 447.536,293.076 451.536,293.743 455.5,294.5C 450.629,316.856 445.629,339.189 440.5,361.5C 433.97,358.636 430.637,353.636 430.5,346.5C 433.218,327.589 436.552,308.922 440.5,290.5 Z"/></g>
<g><path style="opacity:1" fill="#f7c4bb" d="M 309.5,327.5 C 311.386,335.422 312.553,343.422 313,351.5C 305.081,359.413 298.748,368.413 294,378.5C 289.112,372.444 285.279,365.777 282.5,358.5C 288.258,345.404 297.258,335.071 309.5,327.5 Z"/></g>
<g><path style="opacity:1" fill="#748ea8" d="M 60.5,341.5 C 73.8098,369.323 95.8098,380.49 126.5,375C 143.756,370.248 155.756,359.748 162.5,343.5C 164.479,358.387 163.145,373.054 158.5,387.5C 129.688,405.13 100.354,405.963 70.5,390C 67.5767,387.955 64.7433,385.788 62,383.5C 61.8091,381.292 61.3091,379.292 60.5,377.5C 58.8029,366.224 58.3029,354.891 59,343.5C 59.2784,342.584 59.7784,341.918 60.5,341.5 Z"/></g>
<g><path style="opacity:1" fill="#c7dde5" d="M 218.5,347.5 C 218.33,348.822 218.663,349.989 219.5,351C 229.965,357.26 241.299,360.427 253.5,360.5C 253.631,361.239 253.464,361.906 253,362.5C 247.324,368.518 240.824,373.351 233.5,377C 231.5,377.667 229.5,377.667 227.5,377C 223.812,375.487 220.145,373.987 216.5,372.5C 216.8,363.988 217.467,355.655 218.5,347.5 Z"/></g>
<g><path style="opacity:1" fill="#647d95" d="M 267.5,375.5 C 267.631,374.761 267.464,374.094 267,373.5C 256.664,386.248 243.497,394.248 227.5,397.5C 222.091,396.362 216.758,395.028 211.5,393.5C 210.018,400.437 208.684,407.437 207.5,414.5C 203.593,413.057 200.259,410.89 197.5,408C 200.916,398.339 203.75,388.506 206,378.5C 214.975,384.606 224.808,387.439 235.5,387C 248.996,380.852 260.163,371.686 269,359.5C 269.121,365.003 268.621,370.337 267.5,375.5 Z"/></g>
<g><path style="opacity:1" fill="#d4e5ec" d="M 23.5,334.5 C 30.6527,339.581 38.3193,343.914 46.5,347.5C 47.1668,353.319 47.8335,358.986 48.5,364.5C 48.8475,370.227 49.6808,375.894 51,381.5C 52.0255,384.693 54.1922,386.026 57.5,385.5C 58.2952,389.476 58.9619,393.476 59.5,397.5C 56.9534,400.771 57.1201,404.105 60,407.5C 60.6708,408.252 61.5041,408.586 62.5,408.5C 67.7497,411.234 71.4164,415.568 73.5,421.5C 67.9307,420.885 62.5974,419.385 57.5,417C 49.7802,413.14 42.1136,409.307 34.5,405.5C 26.8307,382.484 23.164,358.817 23.5,334.5 Z"/></g>
<g><path style="opacity:1" fill="#eff8f8" d="M 321.5,364.5 C 327.193,369.861 332.86,375.195 338.5,380.5C 334.174,392.778 326.174,395.944 314.5,390C 307.634,382.048 307.967,374.381 315.5,367C 317.488,366.062 319.488,365.228 321.5,364.5 Z"/></g>
<g><path style="opacity:1" fill="#d3e5eb" d="M 198.5,332.5 C 199.022,353.873 196.522,374.873 191,395.5C 189.572,399.307 188.072,402.974 186.5,406.5C 176.99,412.119 166.99,416.786 156.5,420.5C 155.893,420.376 155.56,420.043 155.5,419.5C 166.421,402.506 172.421,383.84 173.5,363.5C 174.167,357.654 174.833,351.654 175.5,345.5C 183.649,341.928 191.315,337.595 198.5,332.5 Z"/></g>
<g><path style="opacity:1" fill="#e9f0f7" d="M 321.5,364.5 C 319.488,365.228 317.488,366.062 315.5,367C 307.967,374.381 307.634,382.048 314.5,390C 326.174,395.944 334.174,392.778 338.5,380.5C 340.909,381.701 342.909,383.367 344.5,385.5C 339.858,397.325 331.191,402.159 318.5,400C 311.457,397.451 306.123,392.951 302.5,386.5C 305.775,376.398 311.275,367.731 319,360.5C 320.481,361.471 321.315,362.804 321.5,364.5 Z"/></g>
<g><path style="opacity:1" fill="#f9b055" d="M 419.5,378.5 C 420.748,382.829 422.414,386.996 424.5,391C 423.906,391.464 423.239,391.631 422.5,391.5C 419.833,391.5 417.167,391.5 414.5,391.5C 411.311,390.834 407.977,390.167 404.5,389.5C 403.26,386.607 401.926,383.773 400.5,381C 403.036,380.814 405.369,380.314 407.5,379.5C 411.481,378.979 415.481,378.646 419.5,378.5 Z"/></g>
<g><path style="opacity:1" fill="#f39f4d" d="M 407.5,379.5 C 405.369,380.314 403.036,380.814 400.5,381C 401.926,383.773 403.26,386.607 404.5,389.5C 407.977,390.167 411.311,390.834 414.5,391.5C 406.5,389.87 399.834,392.037 394.5,398C 389.826,398.814 385.326,398.314 381,396.5C 381.479,392.892 382.146,389.225 383,385.5C 383.465,384.069 384.299,382.903 385.5,382C 392.804,380.838 400.138,380.004 407.5,379.5 Z"/></g>
<g><path style="opacity:1" fill="#f6bc60" d="M 419.5,378.5 C 421.857,378.337 424.19,378.503 426.5,379C 437.167,385 447.833,391 458.5,397C 459.424,401.099 459.424,405.265 458.5,409.5C 453.077,409.482 447.744,408.815 442.5,407.5C 441.934,403.203 439.934,399.703 436.5,397C 431.967,394.608 427.3,392.774 422.5,391.5C 423.239,391.631 423.906,391.464 424.5,391C 422.414,386.996 420.748,382.829 419.5,378.5 Z"/></g>
<g><path style="opacity:1" fill="#e1edf2" d="M 344.5,385.5 C 348.483,387.492 352.483,389.492 356.5,391.5C 358.423,390.908 360.089,389.908 361.5,388.5C 362.492,388.328 363.158,388.662 363.5,389.5C 357.328,408.484 344.161,418.817 324,420.5C 314.119,420.222 305.452,416.889 298,410.5C 297.51,409.207 297.343,407.873 297.5,406.5C 298.165,399.482 299.832,392.816 302.5,386.5C 306.123,392.951 311.457,397.451 318.5,400C 331.191,402.159 339.858,397.325 344.5,385.5 Z"/></g>
<g><path style="opacity:1" fill="#343441" d="M 62.5,408.5 C 61.5041,408.586 60.6708,408.252 60,407.5C 57.1201,404.105 56.9534,400.771 59.5,397.5C 66.7225,395.892 69.5558,398.892 68,406.5C 66.5557,408.155 64.7224,408.822 62.5,408.5 Z"/></g>
<g><path style="opacity:1" fill="#cde0e9" d="M 267.5,375.5 C 268.548,382.719 266.715,389.052 262,394.5C 253.991,402.745 245.158,409.912 235.5,416C 231.681,418.494 227.515,419.994 223,420.5C 217.484,419.384 212.317,417.384 207.5,414.5C 208.684,407.437 210.018,400.437 211.5,393.5C 216.758,395.028 222.091,396.362 227.5,397.5C 243.497,394.248 256.664,386.248 267,373.5C 267.464,374.094 267.631,374.761 267.5,375.5 Z"/></g>
<g><path style="opacity:1" fill="#f7cdc6" d="M 405.5,402.5 C 407.167,402.5 408.833,402.5 410.5,402.5C 410.5,416.833 410.5,431.167 410.5,445.5C 409.5,445.5 408.5,445.5 407.5,445.5C 404.393,445.649 401.393,445.149 398.5,444C 396.972,442.352 396.305,440.352 396.5,438C 398.387,427.181 400.22,416.347 402,405.5C 403.039,404.29 404.206,403.29 405.5,402.5 Z"/></g>
<g><path style="opacity:1" fill="#f6bfb5" d="M 405.5,402.5 C 413.138,401.02 420.805,401.52 428.5,404C 431.839,405.886 433.173,408.719 432.5,412.5C 430.514,423.622 428.014,434.622 425,445.5C 423.093,446.93 420.926,447.596 418.5,447.5C 414.63,447.191 410.963,446.524 407.5,445.5C 408.5,445.5 409.5,445.5 410.5,445.5C 410.5,431.167 410.5,416.833 410.5,402.5C 408.833,402.5 407.167,402.5 405.5,402.5 Z"/></g>
<g><path style="opacity:1" fill="#d4e6ec" d="M 363.5,389.5 C 365.954,390.227 368.287,391.227 370.5,392.5C 369.717,396.146 369.55,399.812 370,403.5C 372.196,406.125 375.03,407.125 378.5,406.5C 379.501,407.789 379.334,409.122 378,410.5C 368.325,422.589 355.825,429.923 340.5,432.5C 326.536,429.901 313.203,425.401 300.5,419C 296.623,415.409 295.623,411.242 297.5,406.5C 297.343,407.873 297.51,409.207 298,410.5C 305.452,416.889 314.119,420.222 324,420.5C 344.161,418.817 357.328,408.484 363.5,389.5 Z"/></g>
<g><path style="opacity:1" fill="#ccdfeb" d="M 34.5,405.5 C 42.1136,409.307 49.7802,413.14 57.5,417C 62.5974,419.385 67.9307,420.885 73.5,421.5C 72.5269,423.068 72.3603,424.735 73,426.5C 80.7639,435.279 89.9306,441.946 100.5,446.5C 83.3281,445.04 66.6614,441.373 50.5,435.5C 43.6262,426.424 38.2929,416.424 34.5,405.5 Z"/></g>
<g><path style="opacity:1" fill="#6c87a0" d="M 60.5,377.5 C 61.3091,379.292 61.8091,381.292 62,383.5C 64.7433,385.788 67.5767,387.955 70.5,390C 100.354,405.963 129.688,405.13 158.5,387.5C 152.231,410.599 138.231,427.099 116.5,437C 112.833,437.667 109.167,437.667 105.5,437C 96.0923,432.928 87.759,427.261 80.5,420C 77.829,419.167 75.4957,419.667 73.5,421.5C 71.4164,415.568 67.7497,411.234 62.5,408.5C 64.7224,408.822 66.5557,408.155 68,406.5C 69.5558,398.892 66.7225,395.892 59.5,397.5C 58.9619,393.476 58.2952,389.476 57.5,385.5C 60.1715,383.653 61.1715,380.986 60.5,377.5 Z"/></g>
<g><path style="opacity:1" fill="#ccdeea" d="M 186.5,406.5 C 183.318,417.2 178.318,426.867 171.5,435.5C 155.407,441.689 138.74,445.356 121.5,446.5C 128.102,443.195 134.436,439.362 140.5,435C 145.731,429.938 150.731,424.771 155.5,419.5C 155.56,420.043 155.893,420.376 156.5,420.5C 166.99,416.786 176.99,412.119 186.5,406.5 Z"/></g>
<g><path style="opacity:1" fill="#738da6" d="M 378.5,406.5 C 381.865,407.14 385.198,407.974 388.5,409C 389.516,409.519 390.182,410.353 390.5,411.5C 388.844,420.122 387.511,428.789 386.5,437.5C 370.775,438.058 355.442,436.392 340.5,432.5C 355.825,429.923 368.325,422.589 378,410.5C 379.334,409.122 379.501,407.789 378.5,406.5 Z"/></g>
<g><path style="opacity:1" fill="#5b5b6e" d="M 256.5,412.5 C 257.821,415.598 258.488,419.098 258.5,423C 258.859,428.522 259.025,434.022 259,439.5C 254.286,444.442 248.786,448.275 242.5,451C 228.55,450.724 214.55,451.057 200.5,452C 199.391,452.638 198.225,453.138 197,453.5C 190.141,452 183.974,449.166 178.5,445C 183.783,437.693 188.283,429.859 192,421.5C 192.689,420.643 193.522,419.977 194.5,419.5C 201.928,423.548 209.595,427.048 217.5,430C 225.813,431.338 233.48,429.672 240.5,425C 246.446,421.538 251.78,417.371 256.5,412.5 Z"/></g>
<g><path style="opacity:1" fill="#c7dfe5" d="M 50.5,435.5 C 66.6614,441.373 83.3281,445.04 100.5,446.5C 102.117,447.038 103.784,447.371 105.5,447.5C 105.5,457.5 105.5,467.5 105.5,477.5C 104.5,477.5 103.5,477.5 102.5,477.5C 80.6753,469.003 63.3419,455.003 50.5,435.5 Z"/></g>
<g><path style="opacity:1" fill="#c7dfe5" d="M 171.5,435.5 C 158.579,455.414 140.912,469.414 118.5,477.5C 116.526,467.889 115.859,457.889 116.5,447.5C 118.117,446.962 119.784,446.629 121.5,446.5C 138.74,445.356 155.407,441.689 171.5,435.5 Z"/></g>
<g><path style="opacity:1" fill="#69829a" d="M 105.5,447.5 C 109.2,448.758 112.866,448.758 116.5,447.5C 115.859,457.889 116.526,467.889 118.5,477.5C 113.167,478.833 107.833,478.833 102.5,477.5C 103.5,477.5 104.5,477.5 105.5,477.5C 105.5,467.5 105.5,457.5 105.5,447.5 Z"/></g>
<g><path style="opacity:1" fill="#c06263" d="M 269.5,443.5 C 273.344,444.17 275.844,446.504 277,450.5C 277.755,453.303 277.422,455.97 276,458.5C 268.492,466.838 259.325,472.505 248.5,475.5C 248.418,470.456 248.251,465.456 248,460.5C 256.217,456.112 263.383,450.445 269.5,443.5 Z"/></g>
<g><path style="opacity:1" fill="#b15656" d="M 169.5,454.5 C 176.563,456.859 183.563,459.526 190.5,462.5C 191.494,467.456 191.827,472.456 191.5,477.5C 180.011,475.671 169.344,471.671 159.5,465.5C 163.559,462.443 166.893,458.776 169.5,454.5 Z"/></g>
<g><path style="opacity:1" fill="#636375" d="M 400.5,455.5 C 405.202,455.95 409.868,456.617 414.5,457.5C 413.866,463.534 412.532,469.367 410.5,475C 406.744,475.35 403.077,474.85 399.5,473.5C 399.167,472.167 398.833,470.833 398.5,469.5C 399.299,464.843 399.965,460.176 400.5,455.5 Z"/></g>
<g><path style="opacity:1" fill="#f2a651" d="M 237.5,469.5 C 237.649,470.552 237.483,471.552 237,472.5C 225.588,471.264 214.088,470.597 202.5,470.5C 202.5,473.833 202.5,477.167 202.5,480.5C 201.348,475.015 201.182,469.349 202,463.5C 202.5,463 203,462.5 203.5,462C 214.156,461 224.823,460.667 235.5,461C 237.314,463.481 237.98,466.315 237.5,469.5 Z"/></g>
<g><path style="opacity:1" fill="#f69c4b" d="M 237.5,469.5 C 238.643,472.976 238.81,476.642 238,480.5C 237.5,481 237,481.5 236.5,482C 226.199,483.392 215.866,483.726 205.5,483C 204.058,482.623 203.058,481.79 202.5,480.5C 202.5,477.167 202.5,473.833 202.5,470.5C 214.088,470.597 225.588,471.264 237,472.5C 237.483,471.552 237.649,470.552 237.5,469.5 Z"/></g>
</svg>
