<?xml version="1.0" encoding="UTF-8"?>
<!DOCTYPE svg PUBLIC "-//W3C//DTD SVG 1.1//EN" "http://www.w3.org/Graphics/SVG/1.1/DTD/svg11.dtd">
<svg xmlns="http://www.w3.org/2000/svg" version="1.1" width="512px" height="512px" style="shape-rendering:geometricPrecision; text-rendering:geometricPrecision; image-rendering:optimizeQuality; fill-rule:evenodd; clip-rule:evenodd" xmlns:xlink="http://www.w3.org/1999/xlink">
<g><path style="opacity:1" fill="#e79675" d="M 272.5,71.5 C 215.238,70.5043 157.905,70.171 100.5,70.5C 107.686,48.1623 123.02,35.3289 146.5,32C 152.76,31.2963 158.926,31.7963 165,33.5C 183.137,15.5973 204.637,10.0973 229.5,17C 250.229,24.7302 263.729,39.2302 270,60.5C 271.15,64.1117 271.983,67.7783 272.5,71.5 Z"/></g>
<g><path style="opacity:1" fill="#cce2e7" d="M 455.5,41.5 C 455.119,42.9311 454.119,43.7645 452.5,44C 447.837,44.5366 443.171,45.0366 438.5,45.5C 436.36,45.5561 434.694,46.2227 433.5,47.5C 431.5,44.8333 429.5,44.8333 427.5,47.5C 423.723,47.2281 419.723,47.2281 415.5,47.5C 420.657,39.862 425.823,32.1954 431,24.5C 434.755,19.9271 438.755,19.5937 443,23.5C 446.997,29.6559 451.164,35.6559 455.5,41.5 Z"/></g>
<g><path style="opacity:1" fill="#e5e6e7" d="M 433.5,47.5 C 433.324,52.8797 433.658,58.213 434.5,63.5C 434.966,69.491 435.299,75.491 435.5,81.5C 434.292,82.2341 432.959,82.5674 431.5,82.5C 425.18,79.866 418.513,78.0327 411.5,77C 410.643,76.3109 409.977,75.4776 409.5,74.5C 411.445,71.6067 413.111,68.6067 414.5,65.5C 419.311,59.8913 423.644,53.8913 427.5,47.5C 429.5,44.8333 431.5,44.8333 433.5,47.5 Z"/></g>
<g><path style="opacity:1" fill="#b9d5e7" d="M 455.5,41.5 C 460.311,47.1087 464.644,53.1087 468.5,59.5C 457.167,60.8333 445.833,62.1667 434.5,63.5C 433.658,58.213 433.324,52.8797 433.5,47.5C 434.694,46.2227 436.36,45.5561 438.5,45.5C 443.171,45.0366 447.837,44.5366 452.5,44C 454.119,43.7645 455.119,42.9311 455.5,41.5 Z"/></g>
<g><path style="opacity:1" fill="#b9d6e7" d="M 427.5,47.5 C 423.644,53.8913 419.311,59.8913 414.5,65.5C 410.5,65.8333 406.5,66.1667 402.5,66.5C 406.599,59.9559 410.932,53.6226 415.5,47.5C 419.723,47.2281 423.723,47.2281 427.5,47.5 Z"/></g>
<g><path style="opacity:1" fill="#a6c9e7" d="M 468.5,59.5 C 473.235,64.6321 477.235,70.2987 480.5,76.5C 465.729,78.9561 450.729,80.6227 435.5,81.5C 435.299,75.491 434.966,69.491 434.5,63.5C 445.833,62.1667 457.167,60.8333 468.5,59.5 Z"/></g>
<g><path style="opacity:1" fill="#e7966f" d="M 100.5,70.5 C 157.905,70.171 215.238,70.5043 272.5,71.5C 273.607,75.8111 274.607,80.1445 275.5,84.5C 244.907,85.4919 214.24,85.8252 183.5,85.5C 183.762,84.0222 183.429,82.6888 182.5,81.5C 181.893,81.6236 181.56,81.9569 181.5,82.5C 179.833,83.8333 178.167,85.1667 176.5,86.5C 150.264,85.1727 123.931,85.1727 97.5,86.5C 98.0704,81.0762 99.0704,75.7429 100.5,70.5 Z"/></g>
<g><path style="opacity:1" fill="#9ac0e7" d="M 480.5,76.5 C 482.818,79.2988 482.485,81.9655 479.5,84.5C 479.516,82.5159 478.516,81.5159 476.5,81.5C 469.359,84.4517 462.025,86.785 454.5,88.5C 437.1,90.285 419.766,92.285 402.5,94.5C 402.167,94.5 401.833,94.5 401.5,94.5C 400.087,91.3388 398.42,88.3388 396.5,85.5C 408.186,84.7201 419.853,83.7201 431.5,82.5C 432.959,82.5674 434.292,82.2341 435.5,81.5C 450.729,80.6227 465.729,78.9561 480.5,76.5 Z"/></g>
<g><path style="opacity:1" fill="#a5c9e7" d="M 414.5,65.5 C 413.111,68.6067 411.445,71.6067 409.5,74.5C 409.977,75.4776 410.643,76.3109 411.5,77C 418.513,78.0327 425.18,79.866 431.5,82.5C 419.853,83.7201 408.186,84.7201 396.5,85.5C 394.782,83.0738 394.282,80.4071 395,77.5C 397.363,73.6553 399.863,69.9887 402.5,66.5C 406.5,66.1667 410.5,65.8333 414.5,65.5 Z"/></g>
<g><path style="opacity:1" fill="#4776c6" d="M 479.5,84.5 C 477.833,87.1667 476.167,89.8333 474.5,92.5C 462.495,105.514 451.162,119.181 440.5,133.5C 439.508,133.672 438.842,133.338 438.5,132.5C 439.04,124.103 440.04,115.77 441.5,107.5C 440.192,97.0731 444.525,90.7397 454.5,88.5C 462.025,86.785 469.359,84.4517 476.5,81.5C 478.516,81.5159 479.516,82.5159 479.5,84.5 Z"/></g>
<g><path style="opacity:1" fill="#e78d67" d="M 176.5,86.5 C 165.278,96.3782 155.945,107.712 148.5,120.5C 131.341,119.503 114.008,119.17 96.5,119.5C 96.4677,108.512 96.801,97.5124 97.5,86.5C 123.931,85.1727 150.264,85.1727 176.5,86.5 Z"/></g>
<g><path style="opacity:1" fill="#e78e69" d="M 275.5,84.5 C 275.623,90.2378 276.29,95.9045 277.5,101.5C 247.662,101.169 217.995,101.502 188.5,102.5C 185.145,97.4312 183.479,91.7645 183.5,85.5C 214.24,85.8252 244.907,85.4919 275.5,84.5 Z"/></g>
<g><path style="opacity:1" fill="#d4706a" d="M 181.5,82.5 C 181.56,81.9569 181.893,81.6236 182.5,81.5C 183.429,82.6888 183.762,84.0222 183.5,85.5C 183.479,91.7645 185.145,97.4312 188.5,102.5C 189.669,105.511 191.336,108.178 193.5,110.5C 196.167,113.833 199.167,116.833 202.5,119.5C 209.459,126.319 217.459,131.652 226.5,135.5C 227.965,136.737 229.632,137.737 231.5,138.5C 231.199,145.212 230.532,151.878 229.5,158.5C 226.622,156.895 223.622,155.561 220.5,154.5C 218.307,152.479 215.807,150.812 213,149.5C 208.228,151.286 203.395,151.619 198.5,150.5C 196.167,145.381 197.833,142.548 203.5,142C 197.519,136.194 192.519,129.694 188.5,122.5C 182.68,109.568 180.346,96.2351 181.5,82.5 Z"/></g>
<g><path style="opacity:1" fill="#b42b2b" d="M 474.5,92.5 C 482.834,103.527 484.334,115.527 479,128.5C 474.428,140.639 469.595,152.639 464.5,164.5C 463.797,162.371 462.797,160.371 461.5,158.5C 456.575,152.07 451.075,146.07 445,140.5C 443.25,138.266 441.75,135.932 440.5,133.5C 451.162,119.181 462.495,105.514 474.5,92.5 Z"/></g>
<g><path style="opacity:1" fill="#e5625a" d="M 401.5,94.5 C 401.833,94.5 402.167,94.5 402.5,94.5C 407.861,100.193 413.195,105.86 418.5,111.5C 423.833,117.5 429.167,123.5 434.5,129.5C 434.141,131.371 433.141,132.871 431.5,134C 424.606,139.738 417.606,145.238 410.5,150.5C 403.116,143.951 396.283,136.951 390,129.5C 384.468,114.593 388.301,102.927 401.5,94.5 Z"/></g>
<g><path style="opacity:1" fill="#8bb6e5" d="M 454.5,88.5 C 444.525,90.7397 440.192,97.0731 441.5,107.5C 440.287,108.575 438.787,109.241 437,109.5C 430.837,110.266 424.67,110.933 418.5,111.5C 413.195,105.86 407.861,100.193 402.5,94.5C 419.766,92.285 437.1,90.285 454.5,88.5 Z"/></g>
<g><path style="opacity:1" fill="#e78e64" d="M 277.5,101.5 C 278.5,103.5 279.5,105.5 280.5,107.5C 279.226,108.189 279.226,109.023 280.5,110C 251.502,110.5 222.502,110.667 193.5,110.5C 191.336,108.178 189.669,105.511 188.5,102.5C 217.995,101.502 247.662,101.169 277.5,101.5 Z"/></g>
<g><path style="opacity:1" fill="#e78963" d="M 280.5,107.5 C 282.774,111.772 285.441,115.772 288.5,119.5C 259.833,119.5 231.167,119.5 202.5,119.5C 199.167,116.833 196.167,113.833 193.5,110.5C 222.502,110.667 251.502,110.5 280.5,110C 279.226,109.023 279.226,108.189 280.5,107.5 Z"/></g>
<g><path style="opacity:1" fill="#e6b2aa" d="M 181.5,82.5 C 180.346,96.2351 182.68,109.568 188.5,122.5C 174.754,122.185 161.088,122.519 147.5,123.5C 147.557,122.391 147.89,121.391 148.5,120.5C 155.945,107.712 165.278,96.3782 176.5,86.5C 178.167,85.1667 179.833,83.8333 181.5,82.5 Z"/></g>
<g><path style="opacity:1" fill="#7eace4" d="M 441.5,107.5 C 440.04,115.77 439.04,124.103 438.5,132.5C 437.167,131.5 435.833,130.5 434.5,129.5C 429.167,123.5 423.833,117.5 418.5,111.5C 424.67,110.933 430.837,110.266 437,109.5C 438.787,109.241 440.287,108.575 441.5,107.5 Z"/></g>
<g><path style="opacity:1" fill="#e6885d" d="M 96.5,119.5 C 114.008,119.17 131.341,119.503 148.5,120.5C 147.89,121.391 147.557,122.391 147.5,123.5C 147.5,130.833 147.5,138.167 147.5,145.5C 146.672,139.013 146.172,132.346 146,125.5C 144.211,128.741 142.711,132.074 141.5,135.5C 124.325,135.83 107.325,135.497 90.5,134.5C 92.8837,129.688 94.8837,124.688 96.5,119.5 Z"/></g>
<g><path style="opacity:1" fill="#e7885c" d="M 202.5,119.5 C 231.167,119.5 259.833,119.5 288.5,119.5C 295.049,123.934 301.383,128.601 307.5,133.5C 280.854,135.491 253.854,136.158 226.5,135.5C 217.459,131.652 209.459,126.319 202.5,119.5 Z"/></g>
<g><path style="opacity:1" fill="#d33938" d="M 147.5,145.5 C 147.43,149.425 148.097,153.091 149.5,156.5C 150.278,163.177 152.611,169.177 156.5,174.5C 160.411,180.749 165.078,186.415 170.5,191.5C 170.5,197.167 170.5,202.833 170.5,208.5C 157.26,208.669 144.26,207.669 131.5,205.5C 132.5,205.5 133.5,205.5 134.5,205.5C 134.058,201.846 133.724,198.179 133.5,194.5C 133.5,185.5 133.5,176.5 133.5,167.5C 134.604,156.419 137.27,145.752 141.5,135.5C 142.711,132.074 144.211,128.741 146,125.5C 146.172,132.346 146.672,139.013 147.5,145.5 Z"/></g>
<g><path style="opacity:1" fill="#d5554e" d="M 434.5,129.5 C 435.833,130.5 437.167,131.5 438.5,132.5C 438.842,133.338 439.508,133.672 440.5,133.5C 441.75,135.932 443.25,138.266 445,140.5C 451.075,146.07 456.575,152.07 461.5,158.5C 461.607,160.903 460.607,162.736 458.5,164C 453.981,167.429 449.648,171.096 445.5,175C 443.922,176.094 442.255,176.928 440.5,177.5C 432.521,169.855 424.521,162.188 416.5,154.5C 415.824,155.602 415.158,156.602 414.5,157.5C 414.039,154.697 412.705,152.363 410.5,150.5C 417.606,145.238 424.606,139.738 431.5,134C 433.141,132.871 434.141,131.371 434.5,129.5 Z"/></g>
<g><path style="opacity:1" fill="#e78154" d="M 90.5,134.5 C 107.325,135.497 124.325,135.83 141.5,135.5C 137.27,145.752 134.604,156.419 133.5,167.5C 111.167,167.5 88.8333,167.5 66.5,167.5C 68.2623,161.309 71.0956,155.642 75,150.5C 80.3972,145.271 85.5639,139.938 90.5,134.5 Z"/></g>
<g><path style="opacity:1" fill="#e78154" d="M 307.5,133.5 C 318.474,142.114 324.14,153.448 324.5,167.5C 306.326,167.17 288.326,167.503 270.5,168.5C 260.361,154.914 247.361,144.914 231.5,138.5C 229.632,137.737 227.965,136.737 226.5,135.5C 253.854,136.158 280.854,135.491 307.5,133.5 Z"/></g>
<g><path style="opacity:1" fill="#d33838" d="M 231.5,138.5 C 247.361,144.914 260.361,154.914 270.5,168.5C 275.258,176.685 278.925,185.352 281.5,194.5C 282.91,198.705 283.577,203.038 283.5,207.5C 280.306,206.048 277.306,206.381 274.5,208.5C 254.171,209.278 233.837,209.944 213.5,210.5C 213.5,203.5 213.5,196.5 213.5,189.5C 217.644,185.026 220.977,180.026 223.5,174.5C 226.464,169.619 228.464,164.286 229.5,158.5C 230.532,151.878 231.199,145.212 231.5,138.5 Z"/></g>
<g><path style="opacity:1" fill="#e6beb6" d="M 188.5,122.5 C 192.519,129.694 197.519,136.194 203.5,142C 197.833,142.548 196.167,145.381 198.5,150.5C 203.395,151.619 208.228,151.286 213,149.5C 215.807,150.812 218.307,152.479 220.5,154.5C 196.476,153.843 172.81,154.51 149.5,156.5C 148.097,153.091 147.43,149.425 147.5,145.5C 147.5,138.167 147.5,130.833 147.5,123.5C 161.088,122.519 174.754,122.185 188.5,122.5 Z"/></g>
<g><path style="opacity:1" fill="#d5746e" d="M 168.5,141.5 C 173.66,140.911 178.16,142.245 182,145.5C 182.675,150.321 180.509,152.321 175.5,151.5C 167.374,151.75 165.04,148.417 168.5,141.5 Z"/></g>
<g><path style="opacity:1" fill="#b52c2c" d="M 440.5,177.5 C 443.796,181.298 447.296,184.964 451,188.5C 451.827,201.673 451.66,214.673 450.5,227.5C 447.944,226.457 445.777,224.79 444,222.5C 439.5,213.173 433.334,205.173 425.5,198.5C 413.85,186.895 410.183,173.228 414.5,157.5C 415.158,156.602 415.824,155.602 416.5,154.5C 424.521,162.188 432.521,169.855 440.5,177.5 Z"/></g>
<g><path style="opacity:1" fill="#e6c7c0" d="M 220.5,154.5 C 223.622,155.561 226.622,156.895 229.5,158.5C 228.464,164.286 226.464,169.619 223.5,174.5C 201.167,173.167 178.833,173.167 156.5,174.5C 152.611,169.177 150.278,163.177 149.5,156.5C 172.81,154.51 196.476,153.843 220.5,154.5 Z"/></g>
<g><path style="opacity:1" fill="#e67c49" d="M 66.5,167.5 C 88.8333,167.5 111.167,167.5 133.5,167.5C 133.5,176.5 133.5,185.5 133.5,194.5C 110.167,194.5 86.8333,194.5 63.5,194.5C 61.9787,185.161 62.9787,176.161 66.5,167.5 Z"/></g>
<g><path style="opacity:1" fill="#e77c49" d="M 324.5,167.5 C 323.599,177.118 325.933,185.784 331.5,193.5C 315.008,194.497 298.342,194.83 281.5,194.5C 278.925,185.352 275.258,176.685 270.5,168.5C 288.326,167.503 306.326,167.17 324.5,167.5 Z"/></g>
<g><path style="opacity:1" fill="#c94942" d="M 461.5,158.5 C 462.797,160.371 463.797,162.371 464.5,164.5C 465.514,175.135 461.68,183.469 453,189.5C 452.5,202.496 452.333,215.496 452.5,228.5C 451.508,228.672 450.842,228.338 450.5,227.5C 451.66,214.673 451.827,201.673 451,188.5C 447.296,184.964 443.796,181.298 440.5,177.5C 442.255,176.928 443.922,176.094 445.5,175C 449.648,171.096 453.981,167.429 458.5,164C 460.607,162.736 461.607,160.903 461.5,158.5 Z"/></g>
<g><path style="opacity:1" fill="#e6cdc7" d="M 223.5,174.5 C 220.977,180.026 217.644,185.026 213.5,189.5C 209.325,192.835 204.992,196.002 200.5,199C 195.768,201.401 190.768,202.068 185.5,201C 180.349,198.004 175.349,194.838 170.5,191.5C 165.078,186.415 160.411,180.749 156.5,174.5C 178.833,173.167 201.167,173.167 223.5,174.5 Z"/></g>
<g><path style="opacity:1" fill="#d3716b" d="M 213.5,189.5 C 213.5,196.5 213.5,203.5 213.5,210.5C 213.5,214.167 213.5,217.833 213.5,221.5C 197.656,222.655 183.823,217.989 172,207.5C 171.5,214.826 171.334,222.159 171.5,229.5C 171.167,229.5 170.833,229.5 170.5,229.5C 170.5,222.5 170.5,215.5 170.5,208.5C 170.5,202.833 170.5,197.167 170.5,191.5C 175.349,194.838 180.349,198.004 185.5,201C 190.768,202.068 195.768,201.401 200.5,199C 204.992,196.002 209.325,192.835 213.5,189.5 Z"/></g>
<g><path style="opacity:1" fill="#e67542" d="M 63.5,194.5 C 86.8333,194.5 110.167,194.5 133.5,194.5C 133.724,198.179 134.058,201.846 134.5,205.5C 133.5,205.5 132.5,205.5 131.5,205.5C 126.093,205.299 120.76,204.632 115.5,203.5C 110.049,201.696 105.049,202.362 100.5,205.5C 96.5446,210.36 94.5446,216.027 94.5,222.5C 87.1967,220.835 79.8633,220.501 72.5,221.5C 66.9522,213.392 63.9522,204.392 63.5,194.5 Z"/></g>
<g><path style="opacity:1" fill="#e6635c" d="M 425.5,198.5 C 433.334,205.173 439.5,213.173 444,222.5C 445.777,224.79 447.944,226.457 450.5,227.5C 450.842,228.338 451.508,228.672 452.5,228.5C 452.5,262.833 452.5,297.167 452.5,331.5C 444.876,330.602 437.209,330.269 429.5,330.5C 429.667,290.499 429.5,250.499 429,210.5C 428.331,206.329 427.164,202.329 425.5,198.5 Z"/></g>
<g><path style="opacity:1" fill="#771f44" d="M 115.5,203.5 C 120.76,204.632 126.093,205.299 131.5,205.5C 144.26,207.669 157.26,208.669 170.5,208.5C 170.5,215.5 170.5,222.5 170.5,229.5C 167.994,228.25 165.327,227.584 162.5,227.5C 147.939,222.389 133.939,215.889 120.5,208C 118.382,206.951 116.716,205.451 115.5,203.5 Z"/></g>
<g><path style="opacity:1" fill="#782045" d="M 100.5,205.5 C 114.477,218.579 129.977,229.579 147,238.5C 148,242.337 146.5,244.337 142.5,244.5C 136.676,242.892 131.01,240.892 125.5,238.5C 114.728,233.948 104.394,228.614 94.5,222.5C 94.5446,216.027 96.5446,210.36 100.5,205.5 Z"/></g>
<g><path style="opacity:1" fill="#e7753f" d="M 331.5,193.5 C 339.588,202.147 342.921,212.481 341.5,224.5C 324.911,223.515 308.244,223.182 291.5,223.5C 290.446,219.836 289.279,216.169 288,212.5C 287.004,210.34 285.504,208.673 283.5,207.5C 283.577,203.038 282.91,198.705 281.5,194.5C 298.342,194.83 315.008,194.497 331.5,193.5 Z"/></g>
<g><path style="opacity:1" fill="#782144" d="M 274.5,208.5 C 267.045,216.628 258.712,223.628 249.5,229.5C 242.117,227.488 235.117,228.322 228.5,232C 226.63,234.04 224.63,235.873 222.5,237.5C 219.391,237.736 216.391,237.403 213.5,236.5C 213.5,231.5 213.5,226.5 213.5,221.5C 213.5,217.833 213.5,214.167 213.5,210.5C 233.837,209.944 254.171,209.278 274.5,208.5 Z"/></g>
<g><path style="opacity:1" fill="#c9497c" d="M 283.5,207.5 C 285.504,208.673 287.004,210.34 288,212.5C 289.279,216.169 290.446,219.836 291.5,223.5C 292.073,228.847 292.74,234.18 293.5,239.5C 297.348,260.242 289.015,271.242 268.5,272.5C 266.265,272.795 264.265,272.461 262.5,271.5C 265.818,259.227 264.318,247.561 258,236.5C 255.559,233.546 252.725,231.213 249.5,229.5C 258.712,223.628 267.045,216.628 274.5,208.5C 277.306,206.381 280.306,206.048 283.5,207.5 Z"/></g>
<g><path style="opacity:1" fill="#dc578d" d="M 94.5,222.5 C 104.394,228.614 114.728,233.948 125.5,238.5C 126.54,245.984 127.54,253.484 128.5,261C 128.486,262.385 128.152,263.551 127.5,264.5C 104.335,260.248 83.0017,251.581 63.5,238.5C 63.6392,231.217 66.6392,225.55 72.5,221.5C 79.8633,220.501 87.1967,220.835 94.5,222.5 Z"/></g>
<g><path style="opacity:1" fill="#cc4c7f" d="M 115.5,203.5 C 116.716,205.451 118.382,206.951 120.5,208C 133.939,215.889 147.939,222.389 162.5,227.5C 161.848,228.449 161.514,229.615 161.5,231C 163.308,243.824 164.975,256.657 166.5,269.5C 165.833,269.5 165.167,269.5 164.5,269.5C 151.829,269.324 139.496,267.657 127.5,264.5C 128.152,263.551 128.486,262.385 128.5,261C 127.54,253.484 126.54,245.984 125.5,238.5C 131.01,240.892 136.676,242.892 142.5,244.5C 146.5,244.337 148,242.337 147,238.5C 129.977,229.579 114.477,218.579 100.5,205.5C 105.049,202.362 110.049,201.696 115.5,203.5 Z"/></g>
<g><path style="opacity:1" fill="#e6b5ae" d="M 213.5,221.5 C 213.5,226.5 213.5,231.5 213.5,236.5C 205.471,236.163 197.471,235.496 189.5,234.5C 183.604,232.856 177.604,231.19 171.5,229.5C 171.334,222.159 171.5,214.826 172,207.5C 183.823,217.989 197.656,222.655 213.5,221.5 Z"/></g>
<g><path style="opacity:1" fill="#e66f39" d="M 291.5,223.5 C 308.244,223.182 324.911,223.515 341.5,224.5C 336.158,241.49 324.492,250.157 306.5,250.5C 301.873,247.209 297.54,243.542 293.5,239.5C 292.74,234.18 292.073,228.847 291.5,223.5 Z"/></g>
<g><path style="opacity:1" fill="#e6ae51" d="M 249.5,229.5 C 252.725,231.213 255.559,233.546 258,236.5C 264.318,247.561 265.818,259.227 262.5,271.5C 260.547,275.12 257.881,278.12 254.5,280.5C 247.398,283.509 240.065,284.176 232.5,282.5C 228.307,280.062 224.973,276.728 222.5,272.5C 221.833,270.833 221.167,269.167 220.5,267.5C 218.84,260.584 218.34,253.584 219,246.5C 219.889,243.324 221.055,240.324 222.5,237.5C 224.63,235.873 226.63,234.04 228.5,232C 235.117,228.322 242.117,227.488 249.5,229.5 Z"/></g>
<g><path style="opacity:1" fill="#c34377" d="M 162.5,227.5 C 165.327,227.584 167.994,228.25 170.5,229.5C 170.833,229.5 171.167,229.5 171.5,229.5C 177.604,231.19 183.604,232.856 189.5,234.5C 190.884,246.078 192.551,257.578 194.5,269C 185.173,269.5 175.839,269.666 166.5,269.5C 164.975,256.657 163.308,243.824 161.5,231C 161.514,229.615 161.848,228.449 162.5,227.5 Z"/></g>
<g><path style="opacity:1" fill="#b83c6e" d="M 189.5,234.5 C 197.471,235.496 205.471,236.163 213.5,236.5C 216.391,237.403 219.391,237.736 222.5,237.5C 221.055,240.324 219.889,243.324 219,246.5C 218.34,253.584 218.84,260.584 220.5,267.5C 201.779,270.403 183.112,271.069 164.5,269.5C 165.167,269.5 165.833,269.5 166.5,269.5C 175.839,269.666 185.173,269.5 194.5,269C 192.551,257.578 190.884,246.078 189.5,234.5 Z"/></g>
<g><path style="opacity:1" fill="#782045" d="M 63.5,238.5 C 83.0017,251.581 104.335,260.248 127.5,264.5C 139.496,267.657 151.829,269.324 164.5,269.5C 183.112,271.069 201.779,270.403 220.5,267.5C 221.167,269.167 221.833,270.833 222.5,272.5C 207.199,277.16 191.532,280.16 175.5,281.5C 161.124,281.637 146.791,280.97 132.5,279.5C 117.769,276.484 103.102,272.817 88.5,268.5C 79.7459,265.292 71.0792,261.792 62.5,258C 61.7476,257.329 61.4142,256.496 61.5,255.5C 61.216,249.583 61.8827,243.916 63.5,238.5 Z"/></g>
<g><path style="opacity:1" fill="#771f45" d="M 293.5,239.5 C 297.54,243.542 301.873,247.209 306.5,250.5C 309.833,254.167 313.167,257.833 316.5,261.5C 308.967,276.774 296.633,284.774 279.5,285.5C 276.071,280.981 272.404,276.648 268.5,272.5C 289.015,271.242 297.348,260.242 293.5,239.5 Z"/></g>
<g><path style="opacity:1" fill="#e05c95" d="M 61.5,255.5 C 61.4142,256.496 61.7476,257.329 62.5,258C 71.0792,261.792 79.7459,265.292 88.5,268.5C 91.2476,287.479 93.9142,306.479 96.5,325.5C 95.1667,325.5 93.8333,325.5 92.5,325.5C 78.6467,325.629 64.98,324.129 51.5,321C 48.9406,319.223 46.2739,317.723 43.5,316.5C 41.7545,313.337 40.2545,310.004 39,306.5C 37.9364,292.399 38.6031,278.399 41,264.5C 42.1049,261.063 44.2716,258.563 47.5,257C 52.2103,255.538 56.877,255.038 61.5,255.5 Z"/></g>
<g><path style="opacity:1" fill="#da558c" d="M 88.5,268.5 C 103.102,272.817 117.769,276.484 132.5,279.5C 131.844,280.622 131.511,281.955 131.5,283.5C 133.168,296.177 134.835,308.843 136.5,321.5C 130.273,323.071 123.939,324.071 117.5,324.5C 110.529,325.29 103.529,325.623 96.5,325.5C 93.9142,306.479 91.2476,287.479 88.5,268.5 Z"/></g>
<g><path style="opacity:1" fill="#d3716b" d="M 262.5,271.5 C 264.265,272.461 266.265,272.795 268.5,272.5C 272.404,276.648 276.071,280.981 279.5,285.5C 279.5,285.833 279.5,286.167 279.5,286.5C 275.486,286.334 271.486,286.501 267.5,287C 263.678,289.33 260.012,291.83 256.5,294.5C 256.478,289.728 255.811,285.061 254.5,280.5C 257.881,278.12 260.547,275.12 262.5,271.5 Z"/></g>
<g><path style="opacity:1" fill="#be4173" d="M 222.5,272.5 C 224.973,276.728 228.307,280.062 232.5,282.5C 216.118,293.858 198.451,302.858 179.5,309.5C 177.892,300.246 176.559,290.912 175.5,281.5C 191.532,280.16 207.199,277.16 222.5,272.5 Z"/></g>
<g><path style="opacity:1" fill="#cb4b7f" d="M 132.5,279.5 C 146.791,280.97 161.124,281.637 175.5,281.5C 176.559,290.912 177.892,300.246 179.5,309.5C 165.714,315.198 151.381,319.198 136.5,321.5C 134.835,308.843 133.168,296.177 131.5,283.5C 131.511,281.955 131.844,280.622 132.5,279.5 Z"/></g>
<g><path style="opacity:1" fill="#a2bac7" d="M 254.5,280.5 C 255.811,285.061 256.478,289.728 256.5,294.5C 256.5,294.833 256.5,295.167 256.5,295.5C 230.765,314.868 202.432,329.201 171.5,338.5C 160.837,342.081 149.837,344.581 138.5,346C 137.944,346.383 137.611,346.883 137.5,347.5C 130.116,340.45 123.449,332.783 117.5,324.5C 123.939,324.071 130.273,323.071 136.5,321.5C 151.381,319.198 165.714,315.198 179.5,309.5C 198.451,302.858 216.118,293.858 232.5,282.5C 240.065,284.176 247.398,283.509 254.5,280.5 Z"/></g>
<g><path style="opacity:1" fill="#e6a69b" d="M 279.5,286.5 C 284.137,292.142 288.803,297.809 293.5,303.5C 283.845,316.795 274.179,330.129 264.5,343.5C 260.017,338.771 255.017,334.771 249.5,331.5C 255.572,320.268 257.905,308.268 256.5,295.5C 256.5,295.167 256.5,294.833 256.5,294.5C 260.012,291.83 263.678,289.33 267.5,287C 271.486,286.501 275.486,286.334 279.5,286.5 Z"/></g>
<g><path style="opacity:1" fill="#b93c6e" d="M 316.5,261.5 C 332.161,278.834 345.494,297.834 356.5,318.5C 340.325,318.17 324.325,318.504 308.5,319.5C 303.5,314.167 298.5,308.833 293.5,303.5C 288.803,297.809 284.137,292.142 279.5,286.5C 279.5,286.167 279.5,285.833 279.5,285.5C 296.633,284.774 308.967,276.774 316.5,261.5 Z"/></g>
<g><path style="opacity:1" fill="#e6aea5" d="M 293.5,303.5 C 298.5,308.833 303.5,314.167 308.5,319.5C 308.833,320.167 309.167,320.833 309.5,321.5C 300.025,333.104 291.025,345.104 282.5,357.5C 276.214,353.215 270.214,348.549 264.5,343.5C 274.179,330.129 283.845,316.795 293.5,303.5 Z"/></g>
<g><path style="opacity:1" fill="#d4706b" d="M 43.5,316.5 C 46.2739,317.723 48.9406,319.223 51.5,321C 64.98,324.129 78.6467,325.629 92.5,325.5C 91.0744,333.093 89.0744,340.426 86.5,347.5C 71.3114,347.051 56.4781,344.718 42,340.5C 41.5065,338.866 41.3398,337.199 41.5,335.5C 42.0576,329.154 42.7243,322.821 43.5,316.5 Z"/></g>
<g><path style="opacity:1" fill="#d2dfe0" d="M 256.5,295.5 C 257.905,308.268 255.572,320.268 249.5,331.5C 247.833,334.167 246.167,336.833 244.5,339.5C 219.994,339.831 195.661,339.498 171.5,338.5C 202.432,329.201 230.765,314.868 256.5,295.5 Z"/></g>
<g><path style="opacity:1" fill="#c14376" d="M 356.5,318.5 C 361.261,325.686 365.261,333.353 368.5,341.5C 368.158,342.338 367.492,342.672 366.5,342.5C 358.534,341.635 350.534,341.302 342.5,341.5C 335.374,341.902 329.041,339.902 323.5,335.5C 319.167,330.5 314.5,325.833 309.5,321.5C 309.167,320.833 308.833,320.167 308.5,319.5C 324.325,318.504 340.325,318.17 356.5,318.5 Z"/></g>
<g><path style="opacity:1" fill="#761f44" d="M 117.5,324.5 C 123.449,332.783 130.116,340.45 137.5,347.5C 138.698,350.426 139.698,353.426 140.5,356.5C 140.5,357.167 140.5,357.833 140.5,358.5C 140.667,373.17 140.5,387.837 140,402.5C 136.236,407.056 132.736,411.723 129.5,416.5C 122.5,408.833 115.167,401.5 107.5,394.5C 101.589,388.314 95.9226,381.981 90.5,375.5C 88.2167,372.044 85.7167,368.71 83,365.5C 82.7424,361.096 83.2424,356.762 84.5,352.5C 85.9313,351.22 86.5979,349.553 86.5,347.5C 89.0744,340.426 91.0744,333.093 92.5,325.5C 93.8333,325.5 95.1667,325.5 96.5,325.5C 103.529,325.623 110.529,325.29 117.5,324.5 Z"/></g>
<g><path style="opacity:1" fill="#e6b4ac" d="M 309.5,321.5 C 314.5,325.833 319.167,330.5 323.5,335.5C 314.69,346.44 306.357,357.773 298.5,369.5C 292.86,365.853 287.527,361.853 282.5,357.5C 291.025,345.104 300.025,333.104 309.5,321.5 Z"/></g>
<g><path style="opacity:1" fill="#761f44" d="M 249.5,331.5 C 255.017,334.771 260.017,338.771 264.5,343.5C 270.214,348.549 276.214,353.215 282.5,357.5C 287.527,361.853 292.86,365.853 298.5,369.5C 304.58,374.706 311.58,378.039 319.5,379.5C 324.64,380.488 329.974,380.821 335.5,380.5C 340.683,392.533 345.016,404.866 348.5,417.5C 351.273,429.031 353.273,440.698 354.5,452.5C 355.578,467.15 355.578,481.816 354.5,496.5C 338.167,496.5 321.833,496.5 305.5,496.5C 302.654,481.954 297.654,468.288 290.5,455.5C 288.003,449.835 285.003,444.502 281.5,439.5C 277.994,431.998 273.327,425.332 267.5,419.5C 260.5,409.167 251.833,400.5 241.5,393.5C 241.158,392.662 240.492,392.328 239.5,392.5C 239.5,380.5 239.5,368.5 239.5,356.5C 239.362,350.254 241.028,344.587 244.5,339.5C 246.167,336.833 247.833,334.167 249.5,331.5 Z"/></g>
<g><path style="opacity:1" fill="#e6bab2" d="M 323.5,335.5 C 329.041,339.902 335.374,341.902 342.5,341.5C 334.245,353.761 325.579,365.761 316.5,377.5C 317.602,378.176 318.602,378.842 319.5,379.5C 311.58,378.039 304.58,374.706 298.5,369.5C 306.357,357.773 314.69,346.44 323.5,335.5 Z"/></g>
<g><path style="opacity:1" fill="#d9e0e6" d="M 171.5,338.5 C 195.661,339.498 219.994,339.831 244.5,339.5C 241.028,344.587 239.362,350.254 239.5,356.5C 206.5,356.5 173.5,356.5 140.5,356.5C 139.698,353.426 138.698,350.426 137.5,347.5C 137.611,346.883 137.944,346.383 138.5,346C 149.837,344.581 160.837,342.081 171.5,338.5 Z"/></g>
<g><path style="opacity:1" fill="#e6bfb9" d="M 342.5,341.5 C 350.534,341.302 358.534,341.635 366.5,342.5C 357.387,354.548 348.387,366.715 339.5,379C 347.827,379.5 356.16,379.666 364.5,379.5C 370.69,379.177 376.69,379.51 382.5,380.5C 366.833,380.5 351.167,380.5 335.5,380.5C 329.974,380.821 324.64,380.488 319.5,379.5C 318.602,378.842 317.602,378.176 316.5,377.5C 325.579,365.761 334.245,353.761 342.5,341.5 Z"/></g>
<g><path style="opacity:1" fill="#e7c7c0" d="M 368.5,341.5 C 375.471,342.29 382.471,342.623 389.5,342.5C 390.501,343.789 390.334,345.122 389,346.5C 380.616,357.377 372.449,368.377 364.5,379.5C 356.16,379.666 347.827,379.5 339.5,379C 348.387,366.715 357.387,354.548 366.5,342.5C 367.492,342.672 368.158,342.338 368.5,341.5 Z"/></g>
<g><path style="opacity:1" fill="#e6ccc7" d="M 389.5,342.5 C 392.167,342.5 394.833,342.5 397.5,342.5C 398.721,355.148 399.721,367.815 400.5,380.5C 394.833,380.5 389.167,380.5 383.5,380.5C 383.167,380.5 382.833,380.5 382.5,380.5C 376.69,379.51 370.69,379.177 364.5,379.5C 372.449,368.377 380.616,357.377 389,346.5C 390.334,345.122 390.501,343.789 389.5,342.5 Z"/></g>
<g><path style="opacity:1" fill="#d4716b" d="M 397.5,342.5 C 399.565,342.517 401.565,342.85 403.5,343.5C 407.298,344.483 411.298,344.817 415.5,344.5C 415.5,356.5 415.5,368.5 415.5,380.5C 410.5,380.5 405.5,380.5 400.5,380.5C 399.721,367.815 398.721,355.148 397.5,342.5 Z"/></g>
<g><path style="opacity:1" fill="#e7c3bc" d="M 429.5,330.5 C 437.209,330.269 444.876,330.602 452.5,331.5C 462.48,335.786 466.48,343.452 464.5,354.5C 448.5,354.5 432.5,354.5 416.5,354.5C 416.5,350.833 416.5,347.167 416.5,343.5C 418.464,336.869 422.798,332.536 429.5,330.5 Z"/></g>
<g><path style="opacity:1" fill="#e6b3ac" d="M 41.5,335.5 C 41.3398,337.199 41.5065,338.866 42,340.5C 56.4781,344.718 71.3114,347.051 86.5,347.5C 86.5979,349.553 85.9313,351.22 84.5,352.5C 70.0848,357.695 55.7515,363.195 41.5,369C 40.6634,370.011 40.33,371.178 40.5,372.5C 39.5084,365.352 39.175,358.019 39.5,350.5C 39.7407,345.306 40.4074,340.306 41.5,335.5 Z"/></g>
<g><path style="opacity:1" fill="#e6bab2" d="M 84.5,352.5 C 83.2424,356.762 82.7424,361.096 83,365.5C 85.7167,368.71 88.2167,372.044 90.5,375.5C 79.2352,380.09 67.9018,384.59 56.5,389C 55.244,389.417 54.5774,390.25 54.5,391.5C 47.4952,386.837 42.8285,380.504 40.5,372.5C 40.33,371.178 40.6634,370.011 41.5,369C 55.7515,363.195 70.0848,357.695 84.5,352.5 Z"/></g>
<g><path style="opacity:1" fill="#e0e6e6" d="M 140.5,356.5 C 173.5,356.5 206.5,356.5 239.5,356.5C 239.5,368.5 239.5,380.5 239.5,392.5C 230.11,406.059 218.777,417.893 205.5,428C 199.859,431.098 193.859,432.098 187.5,431C 170.662,423.757 155.329,414.257 141.5,402.5C 141.829,387.657 141.496,372.99 140.5,358.5C 140.5,357.833 140.5,357.167 140.5,356.5 Z"/></g>
<g><path style="opacity:1" fill="#e7b6af" d="M 416.5,354.5 C 432.5,354.5 448.5,354.5 464.5,354.5C 464.5,361.167 464.5,367.833 464.5,374.5C 448.489,374.415 432.489,374.748 416.5,375.5C 416.5,368.5 416.5,361.5 416.5,354.5 Z"/></g>
<g><path style="opacity:1" fill="#e6aca1" d="M 403.5,343.5 C 407.833,343.5 412.167,343.5 416.5,343.5C 416.5,347.167 416.5,350.833 416.5,354.5C 416.5,361.5 416.5,368.5 416.5,375.5C 432.489,374.748 448.489,374.415 464.5,374.5C 465.591,384.331 461.591,390.998 452.5,394.5C 444.833,394.5 437.167,394.5 429.5,394.5C 421.87,392.87 417.203,388.203 415.5,380.5C 415.5,368.5 415.5,356.5 415.5,344.5C 411.298,344.817 407.298,344.483 403.5,343.5 Z"/></g>
<g><path style="opacity:1" fill="#e6c0b9" d="M 90.5,375.5 C 95.9226,381.981 101.589,388.314 107.5,394.5C 97.2355,398.757 86.9022,402.923 76.5,407C 75.0577,407.377 74.0577,408.21 73.5,409.5C 70.1667,406.833 66.8333,404.167 63.5,401.5C 60.5,398.167 57.5,394.833 54.5,391.5C 54.5774,390.25 55.244,389.417 56.5,389C 67.9018,384.59 79.2352,380.09 90.5,375.5 Z"/></g>
<g><path style="opacity:1" fill="#e5c5bf" d="M 107.5,394.5 C 115.167,401.5 122.5,408.833 129.5,416.5C 117.932,421.118 106.265,425.451 94.5,429.5C 95.6256,428.142 95.6256,426.808 94.5,425.5C 86.8888,420.878 79.8888,415.545 73.5,409.5C 74.0577,408.21 75.0577,407.377 76.5,407C 86.9022,402.923 97.2355,398.757 107.5,394.5 Z"/></g>
<g><path style="opacity:1" fill="#a3bbc9" d="M 239.5,392.5 C 240.492,392.328 241.158,392.662 241.5,393.5C 240.503,393.47 239.836,393.97 239.5,395C 236.845,403.472 233.511,411.639 229.5,419.5C 224.881,426.121 219.881,432.454 214.5,438.5C 208.292,447.271 199.958,450.438 189.5,448C 183.974,445.074 178.641,441.907 173.5,438.5C 159.613,429.284 148.946,417.284 141.5,402.5C 155.329,414.257 170.662,423.757 187.5,431C 193.859,432.098 199.859,431.098 205.5,428C 218.777,417.893 230.11,406.059 239.5,392.5 Z"/></g>
<g><path style="opacity:1" fill="#d35086" d="M 335.5,380.5 C 351.167,380.5 366.833,380.5 382.5,380.5C 382.833,380.5 383.167,380.5 383.5,380.5C 387.284,392.635 390.284,404.969 392.5,417.5C 377.833,417.5 363.167,417.5 348.5,417.5C 345.016,404.866 340.683,392.533 335.5,380.5 Z"/></g>
<g><path style="opacity:1" fill="#ccd8df" d="M 241.5,393.5 C 251.833,400.5 260.5,409.167 267.5,419.5C 254.833,419.5 242.167,419.5 229.5,419.5C 233.511,411.639 236.845,403.472 239.5,395C 239.836,393.97 240.503,393.47 241.5,393.5 Z"/></g>
<g><path style="opacity:1" fill="#762044" d="M 63.5,401.5 C 66.8333,404.167 70.1667,406.833 73.5,409.5C 79.8888,415.545 86.8888,420.878 94.5,425.5C 95.6256,426.808 95.6256,428.142 94.5,429.5C 91.4807,437.69 90.9807,446.023 93,454.5C 95.1465,459.816 98.9799,463.149 104.5,464.5C 100.568,474.895 97.5676,485.562 95.5,496.5C 86.8333,496.5 78.1667,496.5 69.5,496.5C 67.8314,485.161 66.1648,473.828 64.5,462.5C 64.1667,456.5 63.8333,450.5 63.5,444.5C 63.5,430.167 63.5,415.833 63.5,401.5 Z"/></g>
<g><path style="opacity:1" fill="#bd4072" d="M 39.5,350.5 C 39.175,358.019 39.5084,365.352 40.5,372.5C 42.8285,380.504 47.4952,386.837 54.5,391.5C 57.5,394.833 60.5,398.167 63.5,401.5C 63.5,415.833 63.5,430.167 63.5,444.5C 62.5386,442.735 62.2053,440.735 62.5,438.5C 62.5,431.167 62.5,423.833 62.5,416.5C 51.7517,416.191 41.085,416.524 30.5,417.5C 31.7443,394.798 34.7443,372.465 39.5,350.5 Z"/></g>
<g><path style="opacity:1" fill="#e6ccc7" d="M 129.5,416.5 C 124.913,424.004 120.58,431.671 116.5,439.5C 113.912,444.344 111.579,449.344 109.5,454.5C 107.833,457.833 106.167,461.167 104.5,464.5C 98.9799,463.149 95.1465,459.816 93,454.5C 90.9807,446.023 91.4807,437.69 94.5,429.5C 106.265,425.451 117.932,421.118 129.5,416.5 Z"/></g>
<g><path style="opacity:1" fill="#ca497e" d="M 62.5,438.5 C 51.5,438.5 40.5,438.5 29.5,438.5C 29.24,431.443 29.5733,424.443 30.5,417.5C 41.085,416.524 51.7517,416.191 62.5,416.5C 62.5,423.833 62.5,431.167 62.5,438.5 Z"/></g>
<g><path style="opacity:1" fill="#d2dee0" d="M 140.5,358.5 C 141.496,372.99 141.829,387.657 141.5,402.5C 148.946,417.284 159.613,429.284 173.5,438.5C 154.674,439.497 135.674,439.83 116.5,439.5C 120.58,431.671 124.913,424.004 129.5,416.5C 132.736,411.723 136.236,407.056 140,402.5C 140.5,387.837 140.667,373.17 140.5,358.5 Z"/></g>
<g><path style="opacity:1" fill="#d3e0e0" d="M 229.5,419.5 C 242.167,419.5 254.833,419.5 267.5,419.5C 273.327,425.332 277.994,431.998 281.5,439.5C 258.994,439.831 236.66,439.497 214.5,438.5C 219.881,432.454 224.881,426.121 229.5,419.5 Z"/></g>
<g><path style="opacity:1" fill="#db578d" d="M 348.5,417.5 C 363.167,417.5 377.833,417.5 392.5,417.5C 394.576,429.111 396.243,440.777 397.5,452.5C 383.167,452.5 368.833,452.5 354.5,452.5C 353.273,440.698 351.273,429.031 348.5,417.5 Z"/></g>
<g><path style="opacity:1" fill="#da5951" d="M 429.5,394.5 C 437.167,394.5 444.833,394.5 452.5,394.5C 452.5,419.167 452.5,443.833 452.5,468.5C 444.833,468.5 437.167,468.5 429.5,468.5C 429.5,443.833 429.5,419.167 429.5,394.5 Z"/></g>
<g><path style="opacity:1" fill="#d9e0e6" d="M 173.5,438.5 C 178.641,441.907 183.974,445.074 189.5,448C 199.958,450.438 208.292,447.271 214.5,438.5C 236.66,439.497 258.994,439.831 281.5,439.5C 285.003,444.502 288.003,449.835 290.5,455.5C 230.238,454.504 169.905,454.171 109.5,454.5C 111.579,449.344 113.912,444.344 116.5,439.5C 135.674,439.83 154.674,439.497 173.5,438.5 Z"/></g>
<g><path style="opacity:1" fill="#d65388" d="M 29.5,438.5 C 40.5,438.5 51.5,438.5 62.5,438.5C 62.2053,440.735 62.5386,442.735 63.5,444.5C 63.8333,450.5 64.1667,456.5 64.5,462.5C 52.8333,462.5 41.1667,462.5 29.5,462.5C 28.2667,454.55 28.2667,446.55 29.5,438.5 Z"/></g>
<g><path style="opacity:1" fill="#e05c95" d="M 354.5,452.5 C 368.833,452.5 383.167,452.5 397.5,452.5C 398.612,467.172 398.612,481.839 397.5,496.5C 383.167,496.5 368.833,496.5 354.5,496.5C 355.578,481.816 355.578,467.15 354.5,452.5 Z"/></g>
<g><path style="opacity:1" fill="#e0e6e6" d="M 109.5,454.5 C 169.905,454.171 230.238,454.504 290.5,455.5C 297.654,468.288 302.654,481.954 305.5,496.5C 235.5,496.5 165.5,496.5 95.5,496.5C 97.5676,485.562 100.568,474.895 104.5,464.5C 106.167,461.167 107.833,457.833 109.5,454.5 Z"/></g>
<g><path style="opacity:1" fill="#e05b94" d="M 29.5,462.5 C 41.1667,462.5 52.8333,462.5 64.5,462.5C 66.1648,473.828 67.8314,485.161 69.5,496.5C 56.8333,496.5 44.1667,496.5 31.5,496.5C 30.0291,485.221 29.3625,473.888 29.5,462.5 Z"/></g>
<g><path style="opacity:1" fill="#cc4c45" d="M 429.5,468.5 C 437.167,468.5 444.833,468.5 452.5,468.5C 452.5,477.833 452.5,487.167 452.5,496.5C 444.833,496.5 437.167,496.5 429.5,496.5C 429.5,487.167 429.5,477.833 429.5,468.5 Z"/></g>
</svg>
