<?xml version="1.0" encoding="UTF-8"?>
<!DOCTYPE svg PUBLIC "-//W3C//DTD SVG 1.1//EN" "http://www.w3.org/Graphics/SVG/1.1/DTD/svg11.dtd">
<svg xmlns="http://www.w3.org/2000/svg" version="1.1" width="512px" height="512px" style="shape-rendering:geometricPrecision; text-rendering:geometricPrecision; image-rendering:optimizeQuality; fill-rule:evenodd; clip-rule:evenodd" xmlns:xlink="http://www.w3.org/1999/xlink">
<g><path style="opacity:1" fill="#3e3e50" d="M 77.5,185.5 C 74.1667,185.5 70.8333,185.5 67.5,185.5C 67.5,132.167 67.5,78.8333 67.5,25.5C 61.31,25.1771 55.31,25.5104 49.5,26.5C 49.5,56.1667 49.5,85.8333 49.5,115.5C 49.5,146.5 49.5,177.5 49.5,208.5C 48.508,201.018 48.1746,193.352 48.5,185.5C 45.5,185.5 42.5,185.5 39.5,185.5C 39.8254,177.648 39.492,169.982 38.5,162.5C 38.3333,114.499 38.5,66.4988 39,18.5C 39.5,17.3333 40.3333,16.5 41.5,16C 52.8798,15.1888 64.2131,15.3554 75.5,16.5C 76.1924,17.0253 76.6924,17.6919 77,18.5C 77.5,74.1657 77.6667,129.832 77.5,185.5 Z"/></g>
<g><path style="opacity:1" fill="#534350" d="M 49.5,26.5 C 55.31,25.5104 61.31,25.1771 67.5,25.5C 67.5,78.8333 67.5,132.167 67.5,185.5C 67.5,205.5 67.5,225.5 67.5,245.5C 67.8293,260.01 67.4959,274.343 66.5,288.5C 66.5,264.5 66.5,240.5 66.5,216.5C 66.5,182.833 66.5,149.167 66.5,115.5C 66.5,85.8333 66.5,56.1667 66.5,26.5C 60.8333,26.5 55.1667,26.5 49.5,26.5 Z"/></g>
<g><path style="opacity:1" fill="#3f3f51" d="M 410.5,191.5 C 406.976,189.997 403.31,188.997 399.5,188.5C 402.088,184.326 404.421,179.993 406.5,175.5C 408.703,169.558 410.703,163.558 412.5,157.5C 414.082,150.939 415.082,144.273 415.5,137.5C 415.5,132.5 415.5,127.5 415.5,122.5C 415.5,120.833 415.5,119.167 415.5,117.5C 415.667,105.829 415.5,94.1619 415,82.5C 405.591,47.144 382.758,32.9773 346.5,40C 331.405,42.6897 320.072,50.5231 312.5,63.5C 308.622,69.1522 306.955,75.4856 307.5,82.5C 306.618,90.0073 308.451,96.674 313,102.5C 323.699,98.444 332.199,101.111 338.5,110.5C 339.75,113.006 340.416,115.673 340.5,118.5C 340.496,123.989 337.829,125.822 332.5,124C 331.077,120.491 329.577,116.991 328,113.5C 320.481,108.907 315.147,110.907 312,119.5C 311.057,129.114 315.224,135.28 324.5,138C 327.919,138.248 331.253,138.748 334.5,139.5C 335.122,140.627 335.955,141.627 337,142.5C 337.333,147.833 337.667,153.167 338,158.5C 341.317,166.156 346.484,172.323 353.5,177C 359.704,181.603 366.371,185.437 373.5,188.5C 367.355,189.49 361.022,189.823 354.5,189.5C 345.963,184.468 338.463,178.135 332,170.5C 328.072,163.697 326.239,156.363 326.5,148.5C 324.5,148.5 322.5,148.5 320.5,148.5C 319.363,156.952 315.363,163.619 308.5,168.5C 304.808,170.344 301.475,172.677 298.5,175.5C 301.294,179.412 302.627,183.745 302.5,188.5C 299.5,188.5 296.5,188.5 293.5,188.5C 293.737,189.791 293.404,190.791 292.5,191.5C 292.334,181 287.001,175.333 276.5,174.5C 267.74,175.261 262.406,179.928 260.5,188.5C 257.049,188.016 253.716,188.016 250.5,188.5C 251.135,185.127 251.635,181.794 252,178.5C 241.51,172.402 230.344,170.902 218.5,174C 209.911,176.058 201.578,178.558 193.5,181.5C 186.774,183.297 180.108,185.297 173.5,187.5C 165.167,186.833 156.833,186.167 148.5,185.5C 175.215,174.262 202.882,166.262 231.5,161.5C 238.256,161.772 244.756,163.106 251,165.5C 252.321,149.512 260.988,140.845 277,139.5C 289.755,140.584 298.088,147.25 302,159.5C 306.764,155.806 309.598,150.972 310.5,145C 308.058,141.206 305.558,137.373 303,133.5C 299.649,125.94 299.816,118.44 303.5,111C 289.442,80.5532 296.109,55.8866 323.5,37C 348.563,24.4683 373.563,24.4683 398.5,37C 414.842,49.029 424.008,65.1957 426,85.5C 426.667,105.167 426.667,124.833 426,144.5C 423.903,161.29 418.736,176.957 410.5,191.5 Z"/></g>
<g><path style="opacity:1" fill="#f8dfd8" d="M 415.5,117.5 C 414.18,116.058 412.514,115.392 410.5,115.5C 378.385,98.6077 346.051,81.941 313.5,65.5C 312.702,65.0431 312.369,64.3764 312.5,63.5C 320.072,50.5231 331.405,42.6897 346.5,40C 382.758,32.9773 405.591,47.144 415,82.5C 415.5,94.1619 415.667,105.829 415.5,117.5 Z"/></g>
<g><path style="opacity:1" fill="#e28681" d="M 391.5,63.5 C 399.558,63.1454 401.558,66.4787 397.5,73.5C 392.385,75.7271 389.385,74.0604 388.5,68.5C 389.092,66.5775 390.092,64.9108 391.5,63.5 Z"/></g>
<g><path style="opacity:1" fill="#f9d9d2" d="M 312.5,63.5 C 312.369,64.3764 312.702,65.0431 313.5,65.5C 346.051,81.941 378.385,98.6077 410.5,115.5C 404.937,116.221 402.104,119.221 402,124.5C 402.956,125.894 404.289,126.561 406,126.5C 409.353,125.572 412.52,124.239 415.5,122.5C 415.5,127.5 415.5,132.5 415.5,137.5C 405.443,133.638 395.776,128.971 386.5,123.5C 386.703,121.61 386.037,120.11 384.5,119C 380.68,116.549 376.68,115.716 372.5,116.5C 359.14,109.82 345.807,103.153 332.5,96.5C 326.801,94.4888 321.134,92.3221 315.5,90C 312.308,87.9718 309.641,85.4718 307.5,82.5C 306.955,75.4856 308.622,69.1522 312.5,63.5 Z"/></g>
<g><path style="opacity:1" fill="#de5c56" d="M 49.5,26.5 C 55.1667,26.5 60.8333,26.5 66.5,26.5C 66.5,56.1667 66.5,85.8333 66.5,115.5C 60.8333,115.5 55.1667,115.5 49.5,115.5C 49.5,85.8333 49.5,56.1667 49.5,26.5 Z"/></g>
<g><path style="opacity:1" fill="#e28680" d="M 396.5,81.5 C 403.57,82.4067 405.237,85.9067 401.5,92C 395.411,93.7297 392.578,91.5631 393,85.5C 393.69,83.6498 394.856,82.3164 396.5,81.5 Z"/></g>
<g><path style="opacity:1" fill="#de837e" d="M 307.5,82.5 C 309.641,85.4718 312.308,87.9718 315.5,90C 321.134,92.3221 326.801,94.4888 332.5,96.5C 336.627,100.204 338.627,104.871 338.5,110.5C 332.199,101.111 323.699,98.444 313,102.5C 308.451,96.674 306.618,90.0073 307.5,82.5 Z"/></g>
<g><path style="opacity:1" fill="#f9d3cc" d="M 332.5,96.5 C 345.807,103.153 359.14,109.82 372.5,116.5C 370.952,119.258 371.285,121.758 373.5,124C 376.932,126.072 380.598,126.738 384.5,126C 385.381,125.292 386.047,124.458 386.5,123.5C 395.776,128.971 405.443,133.638 415.5,137.5C 415.082,144.273 414.082,150.939 412.5,157.5C 389.064,145.949 365.731,134.115 342.5,122C 341.915,120.698 341.249,119.531 340.5,118.5C 340.416,115.673 339.75,113.006 338.5,110.5C 338.627,104.871 336.627,100.204 332.5,96.5 Z"/></g>
<g><path style="opacity:1" fill="#f8ccc5" d="M 340.5,118.5 C 341.249,119.531 341.915,120.698 342.5,122C 365.731,134.115 389.064,145.949 412.5,157.5C 410.703,163.558 408.703,169.558 406.5,175.5C 382.783,162.975 358.783,150.975 334.5,139.5C 331.253,138.748 327.919,138.248 324.5,138C 315.224,135.28 311.057,129.114 312,119.5C 315.147,110.907 320.481,108.907 328,113.5C 329.577,116.991 331.077,120.491 332.5,124C 337.829,125.822 340.496,123.989 340.5,118.5 Z"/></g>
<g><path style="opacity:1" fill="#e28580" d="M 410.5,115.5 C 412.514,115.392 414.18,116.058 415.5,117.5C 415.5,119.167 415.5,120.833 415.5,122.5C 412.52,124.239 409.353,125.572 406,126.5C 404.289,126.561 402.956,125.894 402,124.5C 402.104,119.221 404.937,116.221 410.5,115.5 Z"/></g>
<g><path style="opacity:1" fill="#e28680" d="M 386.5,123.5 C 386.047,124.458 385.381,125.292 384.5,126C 380.598,126.738 376.932,126.072 373.5,124C 371.285,121.758 370.952,119.258 372.5,116.5C 376.68,115.716 380.68,116.549 384.5,119C 386.037,120.11 386.703,121.61 386.5,123.5 Z"/></g>
<g><path style="opacity:1" fill="#df827d" d="M 354.5,189.5 C 354.611,190.117 354.944,190.617 355.5,191C 352.577,193.416 350.243,196.25 348.5,199.5C 332.595,193.762 320.095,183.762 311,169.5C 310.329,168.748 309.496,168.414 308.5,168.5C 315.363,163.619 319.363,156.952 320.5,148.5C 322.5,148.5 324.5,148.5 326.5,148.5C 326.239,156.363 328.072,163.697 332,170.5C 338.463,178.135 345.963,184.468 354.5,189.5 Z"/></g>
<g><path style="opacity:1" fill="#656578" d="M 272.5,150.5 C 283.935,149.943 289.935,155.276 290.5,166.5C 283.282,164.652 275.949,164.152 268.5,165C 263.046,168.327 261.213,166.494 263,159.5C 265.406,155.592 268.572,152.592 272.5,150.5 Z"/></g>
<g><path style="opacity:1" fill="#f8c6bc" d="M 334.5,139.5 C 358.783,150.975 382.783,162.975 406.5,175.5C 404.421,179.993 402.088,184.326 399.5,188.5C 390.859,191.134 382.192,191.134 373.5,188.5C 366.371,185.437 359.704,181.603 353.5,177C 346.484,172.323 341.317,166.156 338,158.5C 337.667,153.167 337.333,147.833 337,142.5C 335.955,141.627 335.122,140.627 334.5,139.5 Z"/></g>
<g><path style="opacity:1" fill="#e5645c" d="M 49.5,115.5 C 55.1667,115.5 60.8333,115.5 66.5,115.5C 66.5,149.167 66.5,182.833 66.5,216.5C 60.8333,216.5 55.1667,216.5 49.5,216.5C 49.5,213.833 49.5,211.167 49.5,208.5C 49.5,177.5 49.5,146.5 49.5,115.5 Z"/></g>
<g><path style="opacity:1" fill="#3f3e4b" d="M 38.5,162.5 C 39.492,169.982 39.8254,177.648 39.5,185.5C 42.5,185.5 45.5,185.5 48.5,185.5C 48.1746,193.352 48.508,201.018 49.5,208.5C 49.5,211.167 49.5,213.833 49.5,216.5C 49.5,242.5 49.5,268.5 49.5,294.5C 52.1667,294.5 54.8333,294.5 57.5,294.5C 54.7131,295.477 51.7131,295.81 48.5,295.5C 48.5,278.5 48.5,261.5 48.5,244.5C 45.5,244.5 42.5,244.5 39.5,244.5C 39.8274,234.319 39.494,224.319 38.5,214.5C 38.5,197.167 38.5,179.833 38.5,162.5 Z"/></g>
<g><path style="opacity:1" fill="#f7ded7" d="M 308.5,168.5 C 309.496,168.414 310.329,168.748 311,169.5C 320.095,183.762 332.595,193.762 348.5,199.5C 346.221,204.606 344.555,209.939 343.5,215.5C 336.917,213.886 330.584,214.553 324.5,217.5C 322.777,216.395 321.777,214.728 321.5,212.5C 325.53,208.428 325.363,204.428 321,200.5C 315.811,195.489 309.644,192.489 302.5,191.5C 302.5,190.5 302.5,189.5 302.5,188.5C 302.627,183.745 301.294,179.412 298.5,175.5C 301.475,172.677 304.808,170.344 308.5,168.5 Z"/></g>
<g><path style="opacity:1" fill="#f8d8d1" d="M 250.5,188.5 C 250.5,189.167 250.5,189.833 250.5,190.5C 246.322,203.82 250.655,213.487 263.5,219.5C 263.626,225.093 263.792,230.759 264,236.5C 264.744,238.9 265.577,241.233 266.5,243.5C 266.027,244.906 265.027,245.573 263.5,245.5C 255.107,237.768 246.441,230.435 237.5,223.5C 236.694,222.272 235.694,221.272 234.5,220.5C 220.531,207.865 206.864,194.865 193.5,181.5C 201.578,178.558 209.911,176.058 218.5,174C 230.344,170.902 241.51,172.402 252,178.5C 251.635,181.794 251.135,185.127 250.5,188.5 Z"/></g>
<g><path style="opacity:1" fill="#636374" d="M 292.5,191.5 C 285.405,194.066 279.738,198.566 275.5,205C 273.029,205.706 270.695,205.373 268.5,204C 263.044,200.254 260.377,195.088 260.5,188.5C 262.406,179.928 267.74,175.261 276.5,174.5C 287.001,175.333 292.334,181 292.5,191.5 Z"/></g>
<g><path style="opacity:1" fill="#9393b1" d="M 272.5,178.5 C 278.502,178.005 281.335,180.672 281,186.5C 278.947,190.292 275.781,191.458 271.5,190C 268.681,185.899 269.014,182.065 272.5,178.5 Z"/></g>
<g><path style="opacity:1" fill="#f9d3cc" d="M 193.5,181.5 C 206.864,194.865 220.531,207.865 234.5,220.5C 228.019,224.098 221.352,227.598 214.5,231C 206.423,234.269 198.09,236.436 189.5,237.5C 188.448,237.649 187.448,237.483 186.5,237C 172.378,224.614 158.711,211.78 145.5,198.5C 154.675,194.441 164.009,190.775 173.5,187.5C 180.108,185.297 186.774,183.297 193.5,181.5 Z"/></g>
<g><path style="opacity:1" fill="#3d3e4a" d="M 67.5,185.5 C 70.8333,185.5 74.1667,185.5 77.5,185.5C 77.5,195.5 77.5,205.5 77.5,215.5C 76.506,225.319 76.1726,235.319 76.5,245.5C 73.5,245.5 70.5,245.5 67.5,245.5C 67.5,225.5 67.5,205.5 67.5,185.5 Z"/></g>
<g><path style="opacity:1" fill="#3f3e4c" d="M 148.5,185.5 C 156.833,186.167 165.167,186.833 173.5,187.5C 164.009,190.775 154.675,194.441 145.5,198.5C 129.624,203.425 118.291,213.425 111.5,228.5C 107.584,233.996 103.918,239.663 100.5,245.5C 96.1903,245.617 92.1903,245.617 88.5,245.5C 95.4036,233.362 102.57,221.362 110,209.5C 120.651,198.019 133.484,190.019 148.5,185.5 Z"/></g>
<g><path style="opacity:1" fill="#3f3f4c" d="M 260.5,188.5 C 260.377,195.088 263.044,200.254 268.5,204C 270.695,205.373 273.029,205.706 275.5,205C 279.738,198.566 285.405,194.066 292.5,191.5C 293.404,190.791 293.737,189.791 293.5,188.5C 296.5,188.5 299.5,188.5 302.5,188.5C 302.5,189.5 302.5,190.5 302.5,191.5C 309.644,192.489 315.811,195.489 321,200.5C 325.363,204.428 325.53,208.428 321.5,212.5C 319.345,212.628 317.345,212.128 315.5,211C 308.644,201.159 299.978,199.159 289.5,205C 282.404,211.489 280.571,219.322 284,228.5C 290.15,237.105 298.15,239.438 308,235.5C 311.324,227.349 316.824,221.349 324.5,217.5C 330.584,214.553 336.917,213.886 343.5,215.5C 344.555,209.939 346.221,204.606 348.5,199.5C 350.243,196.25 352.577,193.416 355.5,191C 354.944,190.617 354.611,190.117 354.5,189.5C 361.022,189.823 367.355,189.49 373.5,188.5C 382.192,191.134 390.859,191.134 399.5,188.5C 403.31,188.997 406.976,189.997 410.5,191.5C 408.038,197.079 403.705,200.245 397.5,201C 386.997,202.415 376.83,201.248 367,197.5C 364.102,198.365 361.602,199.865 359.5,202C 377.891,206.278 385.725,217.778 383,236.5C 381.647,241.892 378.813,246.226 374.5,249.5C 369.195,248.806 363.862,248.472 358.5,248.5C 357.274,229.37 347.274,222.204 328.5,227C 320.217,231.729 316.217,238.895 316.5,248.5C 313.5,248.5 310.5,248.5 307.5,248.5C 307.5,249.5 307.5,250.5 307.5,251.5C 306.839,250.282 306.172,248.949 305.5,247.5C 297.101,249.371 289.435,247.704 282.5,242.5C 280.147,244.523 277.814,246.523 275.5,248.5C 271.366,247.515 267.032,247.182 262.5,247.5C 262.833,246.833 263.167,246.167 263.5,245.5C 265.027,245.573 266.027,244.906 266.5,243.5C 269.268,240.229 272.268,237.062 275.5,234C 272.355,228.252 271.022,222.085 271.5,215.5C 258.408,212.4 251.408,204.066 250.5,190.5C 250.5,189.833 250.5,189.167 250.5,188.5C 253.716,188.016 257.049,188.016 260.5,188.5 Z"/></g>
<g><path style="opacity:1" fill="#de837d" d="M 250.5,190.5 C 251.408,204.066 258.408,212.4 271.5,215.5C 271.022,222.085 272.355,228.252 275.5,234C 272.268,237.062 269.268,240.229 266.5,243.5C 265.577,241.233 264.744,238.9 264,236.5C 263.792,230.759 263.626,225.093 263.5,219.5C 250.655,213.487 246.322,203.82 250.5,190.5 Z"/></g>
<g><path style="opacity:1" fill="#f8cdc6" d="M 145.5,198.5 C 158.711,211.78 172.378,224.614 186.5,237C 187.448,237.483 188.448,237.649 189.5,237.5C 175.146,240.798 160.479,242.964 145.5,244C 144.619,244.708 143.953,245.542 143.5,246.5C 141.139,248.194 139.139,250.194 137.5,252.5C 128.507,244.84 119.84,236.84 111.5,228.5C 118.291,213.425 129.624,203.425 145.5,198.5 Z"/></g>
<g><path style="opacity:1" fill="#5c5c6f" d="M 321.5,212.5 C 321.777,214.728 322.777,216.395 324.5,217.5C 316.824,221.349 311.324,227.349 308,235.5C 298.15,239.438 290.15,237.105 284,228.5C 280.571,219.322 282.404,211.489 289.5,205C 299.978,199.159 308.644,201.159 315.5,211C 317.345,212.128 319.345,212.628 321.5,212.5 Z"/></g>
<g><path style="opacity:1" fill="#9494b2" d="M 293.5,207.5 C 302.872,207.414 305.539,211.581 301.5,220C 293.398,222.895 289.565,220.062 290,211.5C 291.376,210.295 292.542,208.962 293.5,207.5 Z"/></g>
<g><path style="opacity:1" fill="#39394b" d="M 38.5,214.5 C 39.494,224.319 39.8274,234.319 39.5,244.5C 42.5,244.5 45.5,244.5 48.5,244.5C 48.5,261.5 48.5,278.5 48.5,295.5C 51.7131,295.81 54.7131,295.477 57.5,294.5C 62.6495,295.68 65.6495,293.68 66.5,288.5C 67.4959,274.343 67.8293,260.01 67.5,245.5C 70.5,245.5 73.5,245.5 76.5,245.5C 76.1726,235.319 76.506,225.319 77.5,215.5C 77.3334,231.503 77.5001,247.503 78,263.5C 81.2743,257.273 84.7743,251.273 88.5,245.5C 92.1903,245.617 96.1903,245.617 100.5,245.5C 95.2319,255.036 90.2319,264.703 85.5,274.5C 80.3367,284.32 75.0034,294.153 69.5,304C 63.888,305.131 58.2213,305.631 52.5,305.5C 45.1174,304.772 39.9507,307.772 37,314.5C 36.3333,322.167 36.3333,329.833 37,337.5C 39.7633,342.713 44.0966,344.713 50,343.5C 60.0584,343.345 69.8917,341.845 79.5,339C 81.5844,338.303 83.2511,337.136 84.5,335.5C 87.7845,334.05 90.2845,331.717 92,328.5C 97.8573,318.112 103.691,307.779 109.5,297.5C 118.569,282.368 127.902,267.368 137.5,252.5C 139.139,250.194 141.139,248.194 143.5,246.5C 164.167,246.5 184.833,246.5 205.5,246.5C 202.245,252.008 199.245,257.675 196.5,263.5C 189.271,275.456 182.938,287.956 177.5,301C 196.34,295.08 213.674,286.247 229.5,274.5C 241.372,266.635 252.372,257.635 262.5,247.5C 267.032,247.182 271.366,247.515 275.5,248.5C 274.5,249.833 273.5,251.167 272.5,252.5C 255.575,268.773 237.242,283.106 217.5,295.5C 198.833,305.447 179.167,312.947 158.5,318C 153.675,321.157 151.675,325.657 152.5,331.5C 151.187,335.944 150.354,340.611 150,345.5C 149.167,346.333 148.333,347.167 147.5,348C 143.514,348.499 139.514,348.666 135.5,348.5C 131.167,348.5 126.833,348.5 122.5,348.5C 125.624,340.266 131.624,336.599 140.5,337.5C 140.844,329.917 142.344,322.584 145,315.5C 150.238,309.63 156.738,305.964 164.5,304.5C 171.564,285.707 180.23,267.707 190.5,250.5C 189.667,250.167 188.833,249.833 188,249.5C 175.176,251.624 162.343,253.624 149.5,255.5C 131.675,282.172 114.842,309.505 99,337.5C 95.122,342.56 90.2887,346.226 84.5,348.5C 67.0079,347.503 49.3412,347.17 31.5,347.5C 28.3932,344.96 26.5599,341.627 26,337.5C 25.3333,330.5 25.3333,323.5 26,316.5C 26.7109,308.076 30.7109,301.743 38,297.5C 38.5,269.835 38.6666,242.169 38.5,214.5 Z"/></g>
<g><path style="opacity:1" fill="#575769" d="M 354.5,213.5 C 368.663,214.145 374.496,221.479 372,235.5C 371.385,237.116 370.385,238.449 369,239.5C 366.666,231.171 361.999,224.505 355,219.5C 354.505,217.527 354.338,215.527 354.5,213.5 Z"/></g>
<g><path style="opacity:1" fill="#42414e" d="M 234.5,220.5 C 235.694,221.272 236.694,222.272 237.5,223.5C 238.789,226.937 237.789,229.603 234.5,231.5C 225.21,237.311 215.543,242.311 205.5,246.5C 184.833,246.5 164.167,246.5 143.5,246.5C 143.953,245.542 144.619,244.708 145.5,244C 160.479,242.964 175.146,240.798 189.5,237.5C 198.09,236.436 206.423,234.269 214.5,231C 221.352,227.598 228.019,224.098 234.5,220.5 Z"/></g>
<g><path style="opacity:1" fill="#f9d3cc" d="M 237.5,223.5 C 246.441,230.435 255.107,237.768 263.5,245.5C 263.167,246.167 262.833,246.833 262.5,247.5C 252.372,257.635 241.372,266.635 229.5,274.5C 221.887,269.553 215.22,263.553 209.5,256.5C 219.521,249.812 227.855,241.479 234.5,231.5C 237.789,229.603 238.789,226.937 237.5,223.5 Z"/></g>
<g><path style="opacity:1" fill="#565669" d="M 358.5,248.5 C 355.237,262.296 346.57,268.462 332.5,267C 323.558,263.945 318.224,257.779 316.5,248.5C 316.217,238.895 320.217,231.729 328.5,227C 347.274,222.204 357.274,229.37 358.5,248.5 Z"/></g>
<g><path style="opacity:1" fill="#f8c7be" d="M 111.5,228.5 C 119.84,236.84 128.507,244.84 137.5,252.5C 127.902,267.368 118.569,282.368 109.5,297.5C 100.793,290.458 92.7934,282.791 85.5,274.5C 90.2319,264.703 95.2319,255.036 100.5,245.5C 103.918,239.663 107.584,233.996 111.5,228.5 Z"/></g>
<g><path style="opacity:1" fill="#eb6a63" d="M 49.5,216.5 C 55.1667,216.5 60.8333,216.5 66.5,216.5C 66.5,240.5 66.5,264.5 66.5,288.5C 65.6495,293.68 62.6495,295.68 57.5,294.5C 54.8333,294.5 52.1667,294.5 49.5,294.5C 49.5,268.5 49.5,242.5 49.5,216.5 Z"/></g>
<g><path style="opacity:1" fill="#9393b2" d="M 331.5,232.5 C 339.989,232.154 343.822,236.154 343,244.5C 340.367,249.732 336.201,251.565 330.5,250C 323.542,243.592 323.875,237.758 331.5,232.5 Z"/></g>
<g><path style="opacity:1" fill="#de827d" d="M 234.5,231.5 C 227.855,241.479 219.521,249.812 209.5,256.5C 205.402,259.264 201.068,261.597 196.5,263.5C 199.245,257.675 202.245,252.008 205.5,246.5C 215.543,242.311 225.21,237.311 234.5,231.5 Z"/></g>
<g><path style="opacity:1" fill="#f2893e" d="M 307.5,251.5 C 310.021,264.526 317.688,273.026 330.5,277C 335.884,277.505 341.218,277.505 346.5,277C 344.933,279.979 343.266,282.812 341.5,285.5C 325.039,289.464 312.705,284.131 304.5,269.5C 291.952,283.722 277.619,295.722 261.5,305.5C 251.751,311.373 241.751,316.707 231.5,321.5C 221.016,325.744 210.35,329.411 199.5,332.5C 193.269,334.308 186.936,335.641 180.5,336.5C 180.297,334.61 180.963,333.11 182.5,332C 197.976,326.58 212.643,319.747 226.5,311.5C 250.775,297.997 272.109,280.664 290.5,259.5C 283.67,259.115 277.67,256.782 272.5,252.5C 273.5,251.167 274.5,249.833 275.5,248.5C 277.814,246.523 280.147,244.523 282.5,242.5C 289.435,247.704 297.101,249.371 305.5,247.5C 306.172,248.949 306.839,250.282 307.5,251.5 Z"/></g>
<g><path style="opacity:1" fill="#3a394b" d="M 468.5,352.5 C 464.167,352.5 459.833,352.5 455.5,352.5C 458.142,348.852 460.809,345.185 463.5,341.5C 469.049,336.412 472.549,330.078 474,322.5C 474.667,301.5 474.667,280.5 474,259.5C 473.5,259 473,258.5 472.5,258C 469.183,257.502 465.85,257.335 462.5,257.5C 462.666,264.841 462.5,272.174 462,279.5C 458.619,283.485 455.286,283.485 452,279.5C 452.247,272.196 452.414,264.863 452.5,257.5C 449.675,257.081 447.509,258.081 446,260.5C 444.933,269.804 444.433,279.138 444.5,288.5C 452.68,286.684 459.18,289.018 464,295.5C 464.667,298.833 464.667,302.167 464,305.5C 463.535,306.931 462.701,308.097 461.5,309C 465.632,313.963 466.466,319.463 464,325.5C 461.339,328.966 458.339,329.299 455,326.5C 454.667,323.167 454.333,319.833 454,316.5C 448.234,316.076 445.901,313.076 447,307.5C 449.333,305.833 451.667,304.167 454,302.5C 454.483,301.552 454.649,300.552 454.5,299.5C 448.833,299.5 443.167,299.5 437.5,299.5C 437.182,304.032 437.515,308.366 438.5,312.5C 439.038,318.402 438.205,324.068 436,329.5C 432.233,333.776 428.066,337.443 423.5,340.5C 413.25,345.792 402.917,350.792 392.5,355.5C 390.095,355.866 387.762,356.533 385.5,357.5C 384.446,357.32 383.446,356.987 382.5,356.5C 374.47,340.772 363.803,327.105 350.5,315.5C 349.418,314.406 348.752,313.073 348.5,311.5C 351.356,303.724 352.856,295.724 353,287.5C 343.782,307.377 331.449,325.044 316,340.5C 315.502,343.817 315.335,347.15 315.5,350.5C 312.5,350.5 309.5,350.5 306.5,350.5C 306.5,345.5 306.5,340.5 306.5,335.5C 321.306,321.028 332.973,304.361 341.5,285.5C 343.266,282.812 344.933,279.979 346.5,277C 341.218,277.505 335.884,277.505 330.5,277C 317.688,273.026 310.021,264.526 307.5,251.5C 307.5,250.5 307.5,249.5 307.5,248.5C 310.5,248.5 313.5,248.5 316.5,248.5C 318.224,257.779 323.558,263.945 332.5,267C 346.57,268.462 355.237,262.296 358.5,248.5C 363.862,248.472 369.195,248.806 374.5,249.5C 373,251.179 371.167,252.512 369,253.5C 367.698,258.1 365.864,262.433 363.5,266.5C 365.408,281.047 364.408,295.38 360.5,309.5C 371.349,320.171 380.849,331.838 389,344.5C 402.531,339.904 414.864,333.237 426,324.5C 427.022,322.298 427.522,319.965 427.5,317.5C 426.53,310.181 426.363,302.848 427,295.5C 428.309,293.024 430.142,291.024 432.5,289.5C 433.692,278.504 434.859,267.504 436,256.5C 437.927,251.572 441.427,248.406 446.5,247C 455.5,246.333 464.5,246.333 473.5,247C 479.588,248.09 483.421,251.59 485,257.5C 485.667,279.5 485.667,301.5 485,323.5C 482.575,335.028 477.075,344.695 468.5,352.5 Z"/></g>
<g><path style="opacity:1" fill="#f7ccc5" d="M 209.5,256.5 C 215.22,263.553 221.887,269.553 229.5,274.5C 213.674,286.247 196.34,295.08 177.5,301C 182.938,287.956 189.271,275.456 196.5,263.5C 201.068,261.597 205.402,259.264 209.5,256.5 Z"/></g>
<g><path style="opacity:1" fill="#f5c2b9" d="M 463.5,341.5 C 456.371,330.516 448.204,320.182 439,310.5C 438.536,311.094 438.369,311.761 438.5,312.5C 437.515,308.366 437.182,304.032 437.5,299.5C 443.167,299.5 448.833,299.5 454.5,299.5C 454.649,300.552 454.483,301.552 454,302.5C 451.667,304.167 449.333,305.833 447,307.5C 445.901,313.076 448.234,316.076 454,316.5C 454.333,319.833 454.667,323.167 455,326.5C 458.339,329.299 461.339,328.966 464,325.5C 466.466,319.463 465.632,313.963 461.5,309C 462.701,308.097 463.535,306.931 464,305.5C 464.667,302.167 464.667,298.833 464,295.5C 459.18,289.018 452.68,286.684 444.5,288.5C 444.433,279.138 444.933,269.804 446,260.5C 447.509,258.081 449.675,257.081 452.5,257.5C 452.414,264.863 452.247,272.196 452,279.5C 455.286,283.485 458.619,283.485 462,279.5C 462.5,272.174 462.666,264.841 462.5,257.5C 465.85,257.335 469.183,257.502 472.5,258C 473,258.5 473.5,259 474,259.5C 474.667,280.5 474.667,301.5 474,322.5C 472.549,330.078 469.049,336.412 463.5,341.5 Z"/></g>
<g><path style="opacity:1" fill="#f9c062" d="M 341.5,285.5 C 332.973,304.361 321.306,321.028 306.5,335.5C 305.833,335.5 305.5,335.833 305.5,336.5C 298.862,340.823 292.195,345.156 285.5,349.5C 277.008,335.188 269.008,320.522 261.5,305.5C 277.619,295.722 291.952,283.722 304.5,269.5C 312.705,284.131 325.039,289.464 341.5,285.5 Z"/></g>
<g><path style="opacity:1" fill="#f8bb5a" d="M 272.5,252.5 C 277.67,256.782 283.67,259.115 290.5,259.5C 272.109,280.664 250.775,297.997 226.5,311.5C 222.997,306.498 219.997,301.165 217.5,295.5C 237.242,283.106 255.575,268.773 272.5,252.5 Z"/></g>
<g><path style="opacity:1" fill="#de827c" d="M 350.5,315.5 C 345.123,322.92 340.79,330.92 337.5,339.5C 333.349,350.078 331.682,361.078 332.5,372.5C 331.183,372.179 329.849,371.846 328.5,371.5C 326.823,372.187 325.156,372.854 323.5,373.5C 321.249,370.705 318.582,368.372 315.5,366.5C 315.5,361.167 315.5,355.833 315.5,350.5C 315.335,347.15 315.502,343.817 316,340.5C 331.449,325.044 343.782,307.377 353,287.5C 352.856,295.724 351.356,303.724 348.5,311.5C 348.752,313.073 349.418,314.406 350.5,315.5 Z"/></g>
<g><path style="opacity:1" fill="#f8bfb5" d="M 85.5,274.5 C 92.7934,282.791 100.793,290.458 109.5,297.5C 103.691,307.779 97.8573,318.112 92,328.5C 90.2845,331.717 87.7845,334.05 84.5,335.5C 73.5055,325.839 62.8389,315.839 52.5,305.5C 58.2213,305.631 63.888,305.131 69.5,304C 75.0034,294.153 80.3367,284.32 85.5,274.5 Z"/></g>
<g><path style="opacity:1" fill="#f7b9af" d="M 52.5,305.5 C 62.8389,315.839 73.5055,325.839 84.5,335.5C 83.2511,337.136 81.5844,338.303 79.5,339C 69.8917,341.845 60.0584,343.345 50,343.5C 44.0966,344.713 39.7633,342.713 37,337.5C 36.3333,329.833 36.3333,322.167 37,314.5C 39.9507,307.772 45.1174,304.772 52.5,305.5 Z"/></g>
<g><path style="opacity:1" fill="#faba58" d="M 261.5,305.5 C 269.008,320.522 277.008,335.188 285.5,349.5C 276.351,355.579 266.684,360.912 256.5,365.5C 255.325,365.719 254.325,365.386 253.5,364.5C 245.885,350.27 238.552,335.936 231.5,321.5C 241.751,316.707 251.751,311.373 261.5,305.5 Z"/></g>
<g><path style="opacity:1" fill="#f9af4c" d="M 217.5,295.5 C 219.997,301.165 222.997,306.498 226.5,311.5C 212.643,319.747 197.976,326.58 182.5,332C 180.963,333.11 180.297,334.61 180.5,336.5C 186.936,335.641 193.269,334.308 199.5,332.5C 199.025,335.639 199.859,338.639 202,341.5C 208,352.833 214,364.167 220,375.5C 220.759,377.063 221.926,378.063 223.5,378.5C 211.332,383.101 198.666,386.101 185.5,387.5C 183.712,387.785 182.045,387.452 180.5,386.5C 170.353,368.539 161.02,350.206 152.5,331.5C 151.675,325.657 153.675,321.157 158.5,318C 179.167,312.947 198.833,305.447 217.5,295.5 Z"/></g>
<g><path style="opacity:1" fill="#f8d8d2" d="M 350.5,315.5 C 363.803,327.105 374.47,340.772 382.5,356.5C 383.446,356.987 384.446,357.32 385.5,357.5C 387.762,356.533 390.095,355.866 392.5,355.5C 400.673,363.463 408.173,372.129 415,381.5C 416.129,383.141 417.629,384.141 419.5,384.5C 410.725,392.063 401.059,398.397 390.5,403.5C 390.291,402.078 389.791,400.745 389,399.5C 373.623,381.792 358.623,363.792 344,345.5C 341.917,343.244 339.75,341.244 337.5,339.5C 340.79,330.92 345.123,322.92 350.5,315.5 Z"/></g>
<g><path style="opacity:1" fill="#f8ccc5" d="M 463.5,341.5 C 460.809,345.185 458.142,348.852 455.5,352.5C 451.167,356.5 446.833,360.5 442.5,364.5C 436.167,356.5 429.833,348.5 423.5,340.5C 428.066,337.443 432.233,333.776 436,329.5C 438.205,324.068 439.038,318.402 438.5,312.5C 438.369,311.761 438.536,311.094 439,310.5C 448.204,320.182 456.371,330.516 463.5,341.5 Z"/></g>
<g><path style="opacity:1" fill="#f9b452" d="M 231.5,321.5 C 238.552,335.936 245.885,350.27 253.5,364.5C 254.325,365.386 255.325,365.719 256.5,365.5C 245.96,370.795 234.96,375.129 223.5,378.5C 221.926,378.063 220.759,377.063 220,375.5C 214,364.167 208,352.833 202,341.5C 199.859,338.639 199.025,335.639 199.5,332.5C 210.35,329.411 221.016,325.744 231.5,321.5 Z"/></g>
<g><path style="opacity:1" fill="#f3893e" d="M 305.5,336.5 C 305.804,345.584 305.471,354.584 304.5,363.5C 291.185,370.325 277.518,376.325 263.5,381.5C 251.982,385.677 240.315,389.01 228.5,391.5C 214.286,393.902 199.953,395.235 185.5,395.5C 178.786,395.637 172.12,395.137 165.5,394C 163.059,393.964 161.059,393.131 159.5,391.5C 159.709,390.914 160.043,390.414 160.5,390C 169.044,389.784 177.377,388.951 185.5,387.5C 198.666,386.101 211.332,383.101 223.5,378.5C 234.96,375.129 245.96,370.795 256.5,365.5C 266.684,360.912 276.351,355.579 285.5,349.5C 292.195,345.156 298.862,340.823 305.5,336.5 Z"/></g>
<g><path style="opacity:1" fill="#f8dfd8" d="M 337.5,339.5 C 339.75,341.244 341.917,343.244 344,345.5C 358.623,363.792 373.623,381.792 389,399.5C 389.791,400.745 390.291,402.078 390.5,403.5C 385.911,405.824 381.244,405.99 376.5,404C 360.885,394.705 346.219,384.205 332.5,372.5C 331.682,361.078 333.349,350.078 337.5,339.5 Z"/></g>
<g><path style="opacity:1" fill="#f8d2cb" d="M 423.5,340.5 C 429.833,348.5 436.167,356.5 442.5,364.5C 436.021,372.653 428.354,379.32 419.5,384.5C 417.629,384.141 416.129,383.141 415,381.5C 408.173,372.129 400.673,363.463 392.5,355.5C 402.917,350.792 413.25,345.792 423.5,340.5 Z"/></g>
<g><path style="opacity:1" fill="#383743" d="M 31.5,347.5 C 49.3412,347.17 67.0079,347.503 84.5,348.5C 82.4606,349.578 80.294,350.578 78,351.5C 77.5001,365.496 77.3334,379.496 77.5,393.5C 76.506,403.319 76.1726,413.319 76.5,423.5C 73.5,423.5 70.5,423.5 67.5,423.5C 67.8309,399.661 67.4976,375.994 66.5,352.5C 60.8698,353.292 55.2031,353.625 49.5,353.5C 49.5,363.833 49.5,374.167 49.5,384.5C 49.5,421.5 49.5,458.5 49.5,495.5C 45.8333,495.5 42.1667,495.5 38.5,495.5C 38.5,484.5 38.5,473.5 38.5,462.5C 39.4924,470.316 39.8257,478.316 39.5,486.5C 42.5,486.5 45.5,486.5 48.5,486.5C 48.5,465.5 48.5,444.5 48.5,423.5C 45.5,423.5 42.5,423.5 39.5,423.5C 39.8274,413.319 39.494,403.319 38.5,393.5C 38.8325,379.817 38.4992,366.15 37.5,352.5C 34.8708,351.533 32.8708,349.867 31.5,347.5 Z"/></g>
<g><path style="opacity:1" fill="#3a3944" d="M 306.5,335.5 C 306.5,340.5 306.5,345.5 306.5,350.5C 309.5,350.5 312.5,350.5 315.5,350.5C 315.5,355.833 315.5,361.167 315.5,366.5C 314.738,379.066 312.904,391.399 310,403.5C 323.158,410.651 335.658,418.651 347.5,427.5C 341.642,427.178 335.975,427.511 330.5,428.5C 323.5,424.5 316.5,420.5 309.5,416.5C 307.235,414.358 304.568,412.691 301.5,411.5C 286.36,419.435 270.36,424.769 253.5,427.5C 241.185,426.168 228.518,425.501 215.5,425.5C 192.662,424.899 169.995,424.899 147.5,425.5C 146.778,425.082 146.278,424.416 146,423.5C 145.292,424.381 144.458,425.047 143.5,425.5C 139.702,424.517 135.702,424.183 131.5,424.5C 133.616,421.211 135.949,418.044 138.5,415C 134.071,407.116 131.904,398.616 132,389.5C 124.056,376.948 120.889,363.281 122.5,348.5C 126.833,348.5 131.167,348.5 135.5,348.5C 134.878,349.627 134.045,350.627 133,351.5C 132.139,364.393 135.472,376.059 143,386.5C 142.488,396.287 144.821,405.287 150,413.5C 151.887,415.886 154.387,417.053 157.5,417C 171.078,419.104 184.744,420.27 198.5,420.5C 213.217,420.745 227.884,420.078 242.5,418.5C 254.558,417.356 266.224,414.69 277.5,410.5C 284.737,408.466 291.571,405.466 298,401.5C 302.003,389.148 304.17,376.481 304.5,363.5C 305.471,354.584 305.804,345.584 305.5,336.5C 305.5,335.833 305.833,335.5 306.5,335.5 Z"/></g>
<g><path style="opacity:1" fill="#f3a644" d="M 152.5,331.5 C 161.02,350.206 170.353,368.539 180.5,386.5C 182.045,387.452 183.712,387.785 185.5,387.5C 177.377,388.951 169.044,389.784 160.5,390C 160.043,390.414 159.709,390.914 159.5,391.5C 161.059,393.131 163.059,393.964 165.5,394C 172.12,395.137 178.786,395.637 185.5,395.5C 189.565,403.964 193.899,412.297 198.5,420.5C 184.744,420.27 171.078,419.104 157.5,417C 154.387,417.053 151.887,415.886 150,413.5C 144.821,405.287 142.488,396.287 143,386.5C 135.472,376.059 132.139,364.393 133,351.5C 134.045,350.627 134.878,349.627 135.5,348.5C 139.514,348.666 143.514,348.499 147.5,348C 148.333,347.167 149.167,346.333 150,345.5C 150.354,340.611 151.187,335.944 152.5,331.5 Z"/></g>
<g><path style="opacity:1" fill="#393945" d="M 455.5,352.5 C 459.833,352.5 464.167,352.5 468.5,352.5C 446.968,380.206 420.301,401.373 388.5,416C 383.761,416.726 379.095,416.393 374.5,415C 357.141,404.656 340.474,393.323 324.5,381C 322.698,378.613 322.364,376.113 323.5,373.5C 325.156,372.854 326.823,372.187 328.5,371.5C 329.849,371.846 331.183,372.179 332.5,372.5C 346.219,384.205 360.885,394.705 376.5,404C 381.244,405.99 385.911,405.824 390.5,403.5C 401.059,398.397 410.725,392.063 419.5,384.5C 428.354,379.32 436.021,372.653 442.5,364.5C 446.833,360.5 451.167,356.5 455.5,352.5 Z"/></g>
<g><path style="opacity:1" fill="#c73e3e" d="M 66.5,352.5 C 66.5,360.5 66.5,368.5 66.5,376.5C 60.9586,379.437 55.2919,382.104 49.5,384.5C 49.5,374.167 49.5,363.833 49.5,353.5C 55.2031,353.625 60.8698,353.292 66.5,352.5 Z"/></g>
<g><path style="opacity:1" fill="#f9ba58" d="M 304.5,363.5 C 304.17,376.481 302.003,389.148 298,401.5C 291.571,405.466 284.737,408.466 277.5,410.5C 272.555,400.944 267.889,391.278 263.5,381.5C 277.518,376.325 291.185,370.325 304.5,363.5 Z"/></g>
<g><path style="opacity:1" fill="#4b3c48" d="M 66.5,352.5 C 67.4976,375.994 67.8309,399.661 67.5,423.5C 67.5,447.167 67.5,470.833 67.5,494.5C 69.099,494.232 70.4324,494.566 71.5,495.5C 69.8333,495.5 68.1667,495.5 66.5,495.5C 66.5,455.833 66.5,416.167 66.5,376.5C 66.5,368.5 66.5,360.5 66.5,352.5 Z"/></g>
<g><path style="opacity:1" fill="#f8b452" d="M 263.5,381.5 C 267.889,391.278 272.555,400.944 277.5,410.5C 266.224,414.69 254.558,417.356 242.5,418.5C 238.101,409.37 233.435,400.37 228.5,391.5C 240.315,389.01 251.982,385.677 263.5,381.5 Z"/></g>
<g><path style="opacity:1" fill="#f9ae4b" d="M 228.5,391.5 C 233.435,400.37 238.101,409.37 242.5,418.5C 227.884,420.078 213.217,420.745 198.5,420.5C 193.899,412.297 189.565,403.964 185.5,395.5C 199.953,395.235 214.286,393.902 228.5,391.5 Z"/></g>
<g><path style="opacity:1" fill="#313243" d="M 38.5,393.5 C 39.494,403.319 39.8274,413.319 39.5,423.5C 42.5,423.5 45.5,423.5 48.5,423.5C 48.5,444.5 48.5,465.5 48.5,486.5C 45.5,486.5 42.5,486.5 39.5,486.5C 39.8257,478.316 39.4924,470.316 38.5,462.5C 38.5,439.5 38.5,416.5 38.5,393.5 Z"/></g>
<g><path style="opacity:1" fill="#323243" d="M 77.5,393.5 C 77.5,427.5 77.5,461.5 77.5,495.5C 75.5,495.5 73.5,495.5 71.5,495.5C 70.4324,494.566 69.099,494.232 67.5,494.5C 67.5,470.833 67.5,447.167 67.5,423.5C 70.5,423.5 73.5,423.5 76.5,423.5C 76.1726,413.319 76.506,403.319 77.5,393.5 Z"/></g>
<g><path style="opacity:1" fill="#f9756f" d="M 66.5,376.5 C 66.5,416.167 66.5,455.833 66.5,495.5C 60.8333,495.5 55.1667,495.5 49.5,495.5C 49.5,458.5 49.5,421.5 49.5,384.5C 55.2919,382.104 60.9586,379.437 66.5,376.5 Z"/></g>
<g><path style="opacity:1" fill="#f2893e" d="M 309.5,416.5 C 300.881,422.149 291.881,427.315 282.5,432C 285.081,435.088 288.081,437.588 291.5,439.5C 309.374,452.126 329.374,458.959 351.5,460C 358.492,460.5 365.492,460.666 372.5,460.5C 378.24,464.365 383.573,468.698 388.5,473.5C 374.184,474.347 359.851,474.68 345.5,474.5C 325.034,473.133 305.368,468.467 286.5,460.5C 274.936,455.048 263.936,448.548 253.5,441C 243.536,441.863 233.536,442.863 223.5,444C 232.503,453.514 242.503,461.681 253.5,468.5C 267.509,477.67 282.509,485.004 298.5,490.5C 303.24,492.178 307.907,493.844 312.5,495.5C 297.167,495.5 281.833,495.5 266.5,495.5C 253.514,488.675 240.847,481.342 228.5,473.5C 216.717,464.218 205.717,454.052 195.5,443C 185.094,441.599 174.761,439.766 164.5,437.5C 162.608,434.724 160.941,431.724 159.5,428.5C 160.167,428.167 160.833,427.833 161.5,427.5C 192.17,432.785 222.837,432.785 253.5,427.5C 270.36,424.769 286.36,419.435 301.5,411.5C 304.568,412.691 307.235,414.358 309.5,416.5 Z"/></g>
<g><path style="opacity:1" fill="#f8ad4c" d="M 309.5,416.5 C 316.5,420.5 323.5,424.5 330.5,428.5C 330.833,429.167 331.167,429.833 331.5,430.5C 317.807,432.502 304.474,435.502 291.5,439.5C 288.081,437.588 285.081,435.088 282.5,432C 291.881,427.315 300.881,422.149 309.5,416.5 Z"/></g>
<g><path style="opacity:1" fill="#343243" d="M 131.5,424.5 C 135.702,424.183 139.702,424.517 143.5,425.5C 128.488,449.528 112.488,472.861 95.5,495.5C 91.4862,495.666 87.4862,495.499 83.5,495C 84.5218,492.455 85.6884,489.955 87,487.5C 95.2813,475.551 103.948,463.885 113,452.5C 118.445,442.587 124.612,433.253 131.5,424.5 Z"/></g>
<g><path style="opacity:1" fill="#383443" d="M 253.5,427.5 C 222.837,432.785 192.17,432.785 161.5,427.5C 160.833,427.833 160.167,428.167 159.5,428.5C 160.941,431.724 162.608,434.724 164.5,437.5C 173.219,453.892 184.885,467.892 199.5,479.5C 207.901,485.362 216.568,490.695 225.5,495.5C 218.167,495.5 210.833,495.5 203.5,495.5C 183.587,482.376 167.754,465.376 156,444.5C 152.6,438.371 149.766,432.037 147.5,425.5C 169.995,424.899 192.662,424.899 215.5,425.5C 228.518,425.501 241.185,426.168 253.5,427.5 Z"/></g>
<g><path style="opacity:1" fill="#f1883e" d="M 147.5,425.5 C 149.766,432.037 152.6,438.371 156,444.5C 167.754,465.376 183.587,482.376 203.5,495.5C 167.5,495.5 131.5,495.5 95.5,495.5C 112.488,472.861 128.488,449.528 143.5,425.5C 144.458,425.047 145.292,424.381 146,423.5C 146.278,424.416 146.778,425.082 147.5,425.5 Z"/></g>
<g><path style="opacity:1" fill="#343343" d="M 347.5,427.5 C 376.115,447.169 402.449,469.669 426.5,495C 421.511,495.499 416.511,495.666 411.5,495.5C 404.466,487.465 396.799,480.132 388.5,473.5C 383.573,468.698 378.24,464.365 372.5,460.5C 359.729,449.281 346.063,439.281 331.5,430.5C 331.167,429.833 330.833,429.167 330.5,428.5C 335.975,427.511 341.642,427.178 347.5,427.5 Z"/></g>
<g><path style="opacity:1" fill="#f8b553" d="M 331.5,430.5 C 346.063,439.281 359.729,449.281 372.5,460.5C 365.492,460.666 358.492,460.5 351.5,460C 329.374,458.959 309.374,452.126 291.5,439.5C 304.474,435.502 317.807,432.502 331.5,430.5 Z"/></g>
<g><path style="opacity:1" fill="#f9b351" d="M 286.5,460.5 C 275.266,462.676 264.266,465.342 253.5,468.5C 242.503,461.681 232.503,453.514 223.5,444C 233.536,442.863 243.536,441.863 253.5,441C 263.936,448.548 274.936,455.048 286.5,460.5 Z"/></g>
<g><path style="opacity:1" fill="#f8b150" d="M 164.5,437.5 C 174.761,439.766 185.094,441.599 195.5,443C 205.717,454.052 216.717,464.218 228.5,473.5C 218.565,474.753 208.898,476.753 199.5,479.5C 184.885,467.892 173.219,453.892 164.5,437.5 Z"/></g>
<g><path style="opacity:1" fill="#fabe5b" d="M 286.5,460.5 C 305.368,468.467 325.034,473.133 345.5,474.5C 351.987,475.328 358.654,475.828 365.5,476C 342.996,480.665 320.663,485.499 298.5,490.5C 282.509,485.004 267.509,477.67 253.5,468.5C 264.266,465.342 275.266,462.676 286.5,460.5 Z"/></g>
<g><path style="opacity:1" fill="#f9c063" d="M 388.5,473.5 C 396.799,480.132 404.466,487.465 411.5,495.5C 378.5,495.5 345.5,495.5 312.5,495.5C 307.907,493.844 303.24,492.178 298.5,490.5C 320.663,485.499 342.996,480.665 365.5,476C 358.654,475.828 351.987,475.328 345.5,474.5C 359.851,474.68 374.184,474.347 388.5,473.5 Z"/></g>
<g><path style="opacity:1" fill="#f9ba5a" d="M 228.5,473.5 C 240.847,481.342 253.514,488.675 266.5,495.5C 252.833,495.5 239.167,495.5 225.5,495.5C 216.568,490.695 207.901,485.362 199.5,479.5C 208.898,476.753 218.565,474.753 228.5,473.5 Z"/></g>
</svg>
