<?xml version="1.0" encoding="UTF-8"?>
<!DOCTYPE svg PUBLIC "-//W3C//DTD SVG 1.1//EN" "http://www.w3.org/Graphics/SVG/1.1/DTD/svg11.dtd">
<svg xmlns="http://www.w3.org/2000/svg" version="1.1" width="512px" height="512px" style="shape-rendering:geometricPrecision; text-rendering:geometricPrecision; image-rendering:optimizeQuality; fill-rule:evenodd; clip-rule:evenodd" xmlns:xlink="http://www.w3.org/1999/xlink">
<g><path style="opacity:1" fill="#c84a43" d="M 69.5,84.5 C 68.5166,80.7016 68.1832,76.7016 68.5,72.5C 59.1667,72.5 49.8333,72.5 40.5,72.5C 40.5,53.1667 40.5,33.8333 40.5,14.5C 50.1667,14.5 59.8333,14.5 69.5,14.5C 69.5,37.8333 69.5,61.1667 69.5,84.5 Z"/></g>
<g><path style="opacity:1" fill="#e7cdc7" d="M 423.5,88.5 C 422.833,97.0093 422.167,105.676 421.5,114.5C 420.583,113.873 419.583,113.539 418.5,113.5C 417.089,111.461 415.089,110.461 412.5,110.5C 378.384,92.6077 344.051,74.941 309.5,57.5C 308.614,56.675 308.281,55.675 308.5,54.5C 315.042,42.8852 324.709,35.0519 337.5,31C 352.667,26.2028 368,25.5361 383.5,29C 402.401,35.568 414.901,48.4014 421,67.5C 422.988,74.3609 423.822,81.3609 423.5,88.5 Z"/></g>
<g><path style="opacity:1" fill="#d5746f" d="M 393.5,57.5 C 398.658,56.3312 401.658,58.3312 402.5,63.5C 401.132,68.0777 398.132,69.5777 393.5,68C 389.713,64.589 389.713,61.089 393.5,57.5 Z"/></g>
<g><path style="opacity:1" fill="#e6c7c0" d="M 308.5,54.5 C 308.281,55.675 308.614,56.675 309.5,57.5C 344.051,74.941 378.384,92.6077 412.5,110.5C 409.447,111.777 406.614,113.444 404,115.5C 403.5,120.333 405.667,122.5 410.5,122C 412.336,120.581 414.336,119.414 416.5,118.5C 417.95,117.15 418.617,115.484 418.5,113.5C 419.583,113.539 420.583,113.873 421.5,114.5C 422.167,105.676 422.833,97.0093 423.5,88.5C 423.5,106.5 423.5,124.5 423.5,142.5C 422.619,140.696 421.286,139.196 419.5,138C 409.167,132.833 398.833,127.667 388.5,122.5C 387.702,122.043 387.369,121.376 387.5,120.5C 389.017,118.064 388.684,115.898 386.5,114C 383.495,112.83 380.495,111.664 377.5,110.5C 375.583,110.754 374.249,111.754 373.5,113.5C 361.725,108.446 350.058,103.113 338.5,97.5C 336.706,95.2034 334.706,93.0367 332.5,91C 325.946,88.7827 319.612,86.116 313.5,83C 308.444,77.7244 305.444,71.5577 304.5,64.5C 304.872,60.7029 306.206,57.3695 308.5,54.5 Z"/></g>
<g><path style="opacity:1" fill="#d4736d" d="M 304.5,64.5 C 305.444,71.5577 308.444,77.7244 313.5,83C 319.612,86.116 325.946,88.7827 332.5,91C 334.706,93.0367 336.706,95.2034 338.5,97.5C 341.735,110.487 339.068,112.321 330.5,103C 324.341,99.3673 318.674,99.8673 313.5,104.5C 312.609,105.11 311.609,105.443 310.5,105.5C 302.375,92.6184 300.375,78.9517 304.5,64.5 Z"/></g>
<g><path style="opacity:1" fill="#cd4b43" d="M 40.5,72.5 C 49.8333,72.5 59.1667,72.5 68.5,72.5C 68.1832,76.7016 68.5166,80.7016 69.5,84.5C 69.5,92.1667 69.5,99.8333 69.5,107.5C 60.1667,107.5 50.8333,107.5 41.5,107.5C 41.8205,102.305 41.4872,97.3054 40.5,92.5C 40.5,85.8333 40.5,79.1667 40.5,72.5 Z"/></g>
<g><path style="opacity:1" fill="#d4746f" d="M 397.5,76.5 C 403.83,75.6662 406.663,78.3329 406,84.5C 400.943,89.075 397.109,88.2417 394.5,82C 395.124,79.9149 396.124,78.0816 397.5,76.5 Z"/></g>
<g><path style="opacity:1" fill="#e7c0b9" d="M 338.5,97.5 C 350.058,103.113 361.725,108.446 373.5,113.5C 373.261,115.467 373.594,117.301 374.5,119C 377.505,120.17 380.505,121.336 383.5,122.5C 385.073,122.248 386.406,121.582 387.5,120.5C 387.369,121.376 387.702,122.043 388.5,122.5C 398.833,127.667 409.167,132.833 419.5,138C 421.286,139.196 422.619,140.696 423.5,142.5C 422.773,147.417 421.44,152.083 419.5,156.5C 418.849,157.091 418.182,157.757 417.5,158.5C 382.458,140.981 347.791,122.981 313.5,104.5C 318.674,99.8673 324.341,99.3673 330.5,103C 339.068,112.321 341.735,110.487 338.5,97.5 Z"/></g>
<g><path style="opacity:1" fill="#e7bab4" d="M 313.5,104.5 C 347.791,122.981 382.458,140.981 417.5,158.5C 418.182,157.757 418.849,157.091 419.5,156.5C 418.771,161.351 417.438,166.018 415.5,170.5C 379.785,151.643 343.785,133.309 307.5,115.5C 307.92,111.993 308.92,108.659 310.5,105.5C 311.609,105.443 312.609,105.11 313.5,104.5 Z"/></g>
<g><path style="opacity:1" fill="#ce504b" d="M 40.5,92.5 C 41.4872,97.3054 41.8205,102.305 41.5,107.5C 50.8333,107.5 60.1667,107.5 69.5,107.5C 69.5,120.167 69.5,132.833 69.5,145.5C 59.8333,145.5 50.1667,145.5 40.5,145.5C 40.5,127.833 40.5,110.167 40.5,92.5 Z"/></g>
<g><path style="opacity:1" fill="#d5746e" d="M 387.5,120.5 C 386.406,121.582 385.073,122.248 383.5,122.5C 380.505,121.336 377.505,120.17 374.5,119C 373.594,117.301 373.261,115.467 373.5,113.5C 374.249,111.754 375.583,110.754 377.5,110.5C 380.495,111.664 383.495,112.83 386.5,114C 388.684,115.898 389.017,118.064 387.5,120.5 Z"/></g>
<g><path style="opacity:1" fill="#d5746f" d="M 412.5,110.5 C 415.089,110.461 417.089,111.461 418.5,113.5C 418.617,115.484 417.95,117.15 416.5,118.5C 414.336,119.414 412.336,120.581 410.5,122C 405.667,122.5 403.5,120.333 404,115.5C 406.614,113.444 409.447,111.777 412.5,110.5 Z"/></g>
<g><path style="opacity:1" fill="#e7bbaf" d="M 307.5,115.5 C 343.785,133.309 379.785,151.643 415.5,170.5C 414.87,172.75 413.87,174.75 412.5,176.5C 378.064,159.449 343.731,142.115 309.5,124.5C 308.893,124.624 308.56,124.957 308.5,125.5C 306.84,122.23 306.506,118.897 307.5,115.5 Z"/></g>
<g><path style="opacity:1" fill="#e7b4ae" d="M 412.5,176.5 C 411.615,180.866 409.615,184.532 406.5,187.5C 382.296,174.898 357.962,162.565 333.5,150.5C 333.5,146.833 333.5,143.167 333.5,139.5C 327.919,139.749 322.586,138.749 317.5,136.5C 312.85,134.208 309.85,130.542 308.5,125.5C 308.56,124.957 308.893,124.624 309.5,124.5C 343.731,142.115 378.064,159.449 412.5,176.5 Z"/></g>
<g><path style="opacity:1" fill="#d4716c" d="M 317.5,136.5 C 322.586,138.749 327.919,139.749 333.5,139.5C 333.5,143.167 333.5,146.833 333.5,150.5C 333.756,153.598 334.422,156.598 335.5,159.5C 338.197,164.706 341.863,169.206 346.5,173C 353.921,178.697 361.587,183.864 369.5,188.5C 363.472,189.506 358.806,192.506 355.5,197.5C 339.312,193.485 326.145,184.818 316,171.5C 312.944,167.284 310.111,162.951 307.5,158.5C 313.7,152.607 317.033,145.274 317.5,136.5 Z"/></g>
<g><path style="opacity:1" fill="#4b4b5c" d="M 297.5,164.5 C 295.3,166.64 292.633,168.14 289.5,169C 290.381,169.708 291.047,170.542 291.5,171.5C 288.146,173.258 284.479,174.258 280.5,174.5C 279.967,171.475 278.133,170.142 275,170.5C 271.515,170.488 269.348,172.155 268.5,175.5C 267.733,176.172 267.066,177.005 266.5,178C 263.148,178.838 259.815,179.671 256.5,180.5C 257.11,179.609 257.443,178.609 257.5,177.5C 258.441,175.95 259.107,174.284 259.5,172.5C 253.149,157.039 257.816,146.539 273.5,141C 289.863,140.196 297.863,148.029 297.5,164.5 Z"/></g>
<g><path style="opacity:1" fill="#d4524b" d="M 40.5,145.5 C 50.1667,145.5 59.8333,145.5 69.5,145.5C 69.5,173.167 69.5,200.833 69.5,228.5C 68.5128,223.695 68.1795,218.695 68.5,213.5C 59.1667,213.5 49.8333,213.5 40.5,213.5C 40.5,190.833 40.5,168.167 40.5,145.5 Z"/></g>
<g><path style="opacity:1" fill="#62617f" d="M 273.5,146.5 C 279.643,147.026 280.976,149.86 277.5,155C 270.344,154.856 269.011,152.023 273.5,146.5 Z"/></g>
<g><path style="opacity:1" fill="#e7b4a8" d="M 333.5,150.5 C 357.962,162.565 382.296,174.898 406.5,187.5C 404.516,190.164 401.849,191.831 398.5,192.5C 398.631,191.624 398.298,190.957 397.5,190.5C 376.8,180.108 356.133,169.775 335.5,159.5C 334.422,156.598 333.756,153.598 333.5,150.5 Z"/></g>
<g><path style="opacity:1" fill="#e5ccc6" d="M 307.5,158.5 C 310.111,162.951 312.944,167.284 316,171.5C 326.145,184.818 339.312,193.485 355.5,197.5C 354.545,199.746 353.878,202.079 353.5,204.5C 352.833,204.5 352.5,204.833 352.5,205.5C 351.9,209.129 351.233,212.796 350.5,216.5C 341.942,212.568 333.442,212.568 325,216.5C 324.124,212.708 322.958,209.041 321.5,205.5C 315.997,196.748 307.997,192.748 297.5,193.5C 300.141,184.773 298.141,177.439 291.5,171.5C 291.047,170.542 290.381,169.708 289.5,169C 292.633,168.14 295.3,166.64 297.5,164.5C 301.095,162.898 304.429,160.898 307.5,158.5 Z"/></g>
<g><path style="opacity:1" fill="#e6aea7" d="M 335.5,159.5 C 356.133,169.775 376.8,180.108 397.5,190.5C 398.298,190.957 398.631,191.624 398.5,192.5C 388.43,193.468 378.764,192.135 369.5,188.5C 361.587,183.864 353.921,178.697 346.5,173C 341.863,169.206 338.197,164.706 335.5,159.5 Z"/></g>
<g><path style="opacity:1" fill="#e7c7c0" d="M 259.5,172.5 C 259.107,174.284 258.441,175.95 257.5,177.5C 247.77,185.951 245.937,195.951 252,207.5C 255.602,211.776 259.768,215.276 264.5,218C 262.638,227.656 263.971,236.823 268.5,245.5C 266.833,247.833 264.833,249.833 262.5,251.5C 234.52,227.15 206.853,202.317 179.5,177C 180.056,176.617 180.389,176.117 180.5,175.5C 196.558,169.265 213.225,165.265 230.5,163.5C 241.414,162.695 251.081,165.695 259.5,172.5 Z"/></g>
<g><path style="opacity:1" fill="#626280" d="M 280.5,174.5 C 279.729,182.963 275.896,184.629 269,179.5C 268.51,178.207 268.343,176.873 268.5,175.5C 269.348,172.155 271.515,170.488 275,170.5C 278.133,170.142 279.967,171.475 280.5,174.5 Z"/></g>
<g><path style="opacity:1" fill="#454457" d="M 291.5,171.5 C 298.141,177.439 300.141,184.773 297.5,193.5C 307.997,192.748 315.997,196.748 321.5,205.5C 315.324,207.628 308.99,209.295 302.5,210.5C 303.112,205.045 300.778,201.712 295.5,200.5C 288.789,202.133 286.789,206.133 289.5,212.5C 285.784,214.435 281.784,215.769 277.5,216.5C 277.274,213.751 277.607,211.084 278.5,208.5C 261.713,206.398 254.38,197.064 256.5,180.5C 259.815,179.671 263.148,178.838 266.5,178C 267.066,177.005 267.733,176.172 268.5,175.5C 268.343,176.873 268.51,178.207 269,179.5C 275.896,184.629 279.729,182.963 280.5,174.5C 284.479,174.258 288.146,173.258 291.5,171.5 Z"/></g>
<g><path style="opacity:1" fill="#e7c0ba" d="M 180.5,175.5 C 180.389,176.117 180.056,176.617 179.5,177C 206.853,202.317 234.52,227.15 262.5,251.5C 255.118,259.216 247.118,266.216 238.5,272.5C 234.341,275.747 230.008,278.747 225.5,281.5C 218.289,273.886 210.622,266.719 202.5,260C 200.21,258.223 198.543,256.056 197.5,253.5C 209.077,249.111 218.91,242.111 227,232.5C 228.559,230.783 229.392,228.783 229.5,226.5C 220.256,230.693 210.922,234.693 201.5,238.5C 200.041,238.433 198.708,238.766 197.5,239.5C 182.361,224.568 166.694,210.068 150.5,196C 147.882,193.894 145.882,191.394 144.5,188.5C 156.202,183.377 168.202,179.044 180.5,175.5 Z"/></g>
<g><path style="opacity:1" fill="#d2706b" d="M 257.5,177.5 C 257.443,178.609 257.11,179.609 256.5,180.5C 254.38,197.064 261.713,206.398 278.5,208.5C 277.607,211.084 277.274,213.751 277.5,216.5C 277.626,221.87 278.959,226.87 281.5,231.5C 277.897,236.442 273.897,241.108 269.5,245.5C 269.167,245.5 268.833,245.5 268.5,245.5C 263.971,236.823 262.638,227.656 264.5,218C 259.768,215.276 255.602,211.776 252,207.5C 245.937,195.951 247.77,185.951 257.5,177.5 Z"/></g>
<g><path style="opacity:1" fill="#e7c1b4" d="M 144.5,188.5 C 145.882,191.394 147.882,193.894 150.5,196C 166.694,210.068 182.361,224.568 197.5,239.5C 192.752,240.249 188.085,241.249 183.5,242.5C 165.866,226.868 148.533,210.868 131.5,194.5C 135.586,192.13 139.919,190.13 144.5,188.5 Z"/></g>
<g><path style="opacity:1" fill="#e7bbb4" d="M 131.5,194.5 C 148.533,210.868 165.866,226.868 183.5,242.5C 171.232,244.408 158.899,245.742 146.5,246.5C 134.2,234.833 121.867,223.833 109.5,213.5C 115.007,204.989 122.341,198.655 131.5,194.5 Z"/></g>
<g><path style="opacity:1" fill="#626280" d="M 302.5,210.5 C 298.82,216.106 294.487,216.772 289.5,212.5C 286.789,206.133 288.789,202.133 295.5,200.5C 300.778,201.712 303.112,205.045 302.5,210.5 Z"/></g>
<g><path style="opacity:1" fill="#3f3e51" d="M 353.5,204.5 C 366.671,202.829 375.505,208.163 380,220.5C 380.762,224.587 380.596,228.587 379.5,232.5C 366.22,236.903 352.553,240.236 338.5,242.5C 344.389,235.775 343.389,230.275 335.5,226C 326.97,225.868 323.47,230.034 325,238.5C 326.945,242.39 330.112,244.057 334.5,243.5C 326.683,245.788 318.683,247.788 310.5,249.5C 309.979,245.828 309.313,242.162 308.5,238.5C 297.981,242.106 288.981,239.773 281.5,231.5C 278.959,226.87 277.626,221.87 277.5,216.5C 281.784,215.769 285.784,214.435 289.5,212.5C 294.487,216.772 298.82,216.106 302.5,210.5C 308.99,209.295 315.324,207.628 321.5,205.5C 322.958,209.041 324.124,212.708 325,216.5C 333.442,212.568 341.942,212.568 350.5,216.5C 351.233,212.796 351.9,209.129 352.5,205.5C 353.167,205.5 353.5,205.167 353.5,204.5 Z"/></g>
<g><path style="opacity:1" fill="#da5851" d="M 40.5,213.5 C 49.8333,213.5 59.1667,213.5 68.5,213.5C 68.1795,218.695 68.5128,223.695 69.5,228.5C 69.5,246.833 69.5,265.167 69.5,283.5C 68.8333,286.167 68.1667,288.833 67.5,291.5C 66.2745,292.937 65.2745,294.604 64.5,296.5C 56.6033,298.22 48.6033,298.886 40.5,298.5C 40.5,270.167 40.5,241.833 40.5,213.5 Z"/></g>
<g><path style="opacity:1" fill="#e7bbaf" d="M 109.5,213.5 C 121.867,223.833 134.2,234.833 146.5,246.5C 142.925,250.653 139.591,254.986 136.5,259.5C 124.835,250.446 113.335,240.446 102,229.5C 101.517,228.552 101.351,227.552 101.5,226.5C 103.93,221.963 106.597,217.63 109.5,213.5 Z"/></g>
<g><path style="opacity:1" fill="#626281" d="M 338.5,242.5 C 337.167,242.833 335.833,243.167 334.5,243.5C 330.112,244.057 326.945,242.39 325,238.5C 323.47,230.034 326.97,225.868 335.5,226C 343.389,230.275 344.389,235.775 338.5,242.5 Z"/></g>
<g><path style="opacity:1" fill="#d4736e" d="M 197.5,253.5 C 195.5,254.167 193.5,254.833 191.5,255.5C 194.581,249.669 197.915,244.002 201.5,238.5C 210.922,234.693 220.256,230.693 229.5,226.5C 229.392,228.783 228.559,230.783 227,232.5C 218.91,242.111 209.077,249.111 197.5,253.5 Z"/></g>
<g><path style="opacity:1" fill="#e7b5af" d="M 101.5,226.5 C 101.351,227.552 101.517,228.552 102,229.5C 113.335,240.446 124.835,250.446 136.5,259.5C 130.77,267.902 125.437,276.569 120.5,285.5C 109.13,274.795 97.4638,264.462 85.5,254.5C 90.3309,244.833 95.6643,235.5 101.5,226.5 Z"/></g>
<g><path style="opacity:1" fill="#e0762b" d="M 281.5,231.5 C 288.981,239.773 297.981,242.106 308.5,238.5C 309.313,242.162 309.979,245.828 310.5,249.5C 313.279,259.446 319.612,265.946 329.5,269C 339.947,271.196 349.28,269.029 357.5,262.5C 355.538,268.733 353.204,274.733 350.5,280.5C 331.484,289.213 316.317,284.88 305,267.5C 295.87,277.472 286.036,286.472 275.5,294.5C 269.463,298.513 263.463,302.513 257.5,306.5C 247.25,311.792 236.917,316.792 226.5,321.5C 214.86,325.935 203.193,329.935 191.5,333.5C 187.5,334.167 183.5,334.833 179.5,335.5C 179.238,334.022 179.571,332.689 180.5,331.5C 183.148,329.962 185.815,328.628 188.5,327.5C 199.984,324.017 210.651,319.017 220.5,312.5C 231.522,307.663 241.522,301.329 250.5,293.5C 265.492,283.35 278.825,271.184 290.5,257C 281.706,256.273 274.706,252.44 269.5,245.5C 273.897,241.108 277.897,236.442 281.5,231.5 Z"/></g>
<g><path style="opacity:1" fill="#38384b" d="M 379.5,232.5 C 377.688,239.817 373.188,244.817 366,247.5C 364.874,252.418 362.708,256.752 359.5,260.5C 358.5,260.833 357.833,261.5 357.5,262.5C 349.28,269.029 339.947,271.196 329.5,269C 319.612,265.946 313.279,259.446 310.5,249.5C 318.683,247.788 326.683,245.788 334.5,243.5C 335.833,243.167 337.167,242.833 338.5,242.5C 352.553,240.236 366.22,236.903 379.5,232.5 Z"/></g>
<g><path style="opacity:1" fill="#e7bab3" d="M 197.5,253.5 C 198.543,256.056 200.21,258.223 202.5,260C 210.622,266.719 218.289,273.886 225.5,281.5C 219.998,285.085 214.331,288.419 208.5,291.5C 198.247,297.139 187.581,301.805 176.5,305.5C 173.156,306.508 169.823,307.508 166.5,308.5C 173.518,290.133 181.852,272.467 191.5,255.5C 193.5,254.833 195.5,254.167 197.5,253.5 Z"/></g>
<g><path style="opacity:1" fill="#e7b5a8" d="M 85.5,254.5 C 97.4638,264.462 109.13,274.795 120.5,285.5C 117.486,290.203 114.486,294.87 111.5,299.5C 100.464,289.128 89.1302,279.128 77.5,269.5C 79.4068,264.016 82.0734,259.016 85.5,254.5 Z"/></g>
<g><path style="opacity:1" fill="#e7ae4d" d="M 268.5,245.5 C 268.833,245.5 269.167,245.5 269.5,245.5C 274.706,252.44 281.706,256.273 290.5,257C 278.825,271.184 265.492,283.35 250.5,293.5C 246.262,286.698 242.262,279.698 238.5,272.5C 247.118,266.216 255.118,259.216 262.5,251.5C 264.833,249.833 266.833,247.833 268.5,245.5 Z"/></g>
<g><path style="opacity:1" fill="#d4716b" d="M 359.5,260.5 C 362.28,277.039 361.28,293.372 356.5,309.5C 348.925,316.298 343.591,324.631 340.5,334.5C 339.463,335.93 338.796,337.597 338.5,339.5C 333.815,352.702 332.481,366.369 334.5,380.5C 326.482,373.812 318.815,366.812 311.5,359.5C 311.5,352.167 311.5,344.833 311.5,337.5C 328.042,320.952 341.042,301.952 350.5,280.5C 353.204,274.733 355.538,268.733 357.5,262.5C 357.833,261.5 358.5,260.833 359.5,260.5 Z"/></g>
<g><path style="opacity:1" fill="#e6ae50" d="M 350.5,280.5 C 341.042,301.952 328.042,320.952 311.5,337.5C 308.833,339.167 306.167,340.833 303.5,342.5C 294.1,327.378 285.433,311.712 277.5,295.5C 277.043,294.702 276.376,294.369 275.5,294.5C 286.036,286.472 295.87,277.472 305,267.5C 316.317,284.88 331.484,289.213 350.5,280.5 Z"/></g>
<g><path style="opacity:1" fill="#e7afa7" d="M 77.5,269.5 C 89.1302,279.128 100.464,289.128 111.5,299.5C 107.667,307.171 103.334,314.504 98.5,321.5C 96.1074,317.598 93.1074,314.098 89.5,311C 82.2955,304.292 74.9621,297.792 67.5,291.5C 68.1667,288.833 68.8333,286.167 69.5,283.5C 72.1667,278.833 74.8333,274.167 77.5,269.5 Z"/></g>
<g><path style="opacity:1" fill="#e6b1a7" d="M 451.5,249.5 C 451.334,259.172 451.5,268.839 452,278.5C 454.333,279.833 456.667,279.833 459,278.5C 460.147,268.866 460.647,259.2 460.5,249.5C 462.833,249.5 465.167,249.5 467.5,249.5C 467.334,259.172 467.5,268.839 468,278.5C 470.333,279.833 472.667,279.833 475,278.5C 476.286,268.879 476.786,259.212 476.5,249.5C 479.044,249.104 481.211,249.771 483,251.5C 483.5,270.83 483.667,290.164 483.5,309.5C 482.691,311.292 482.191,313.292 482,315.5C 479,311.833 476,308.167 473,304.5C 471.871,302.859 470.371,301.859 468.5,301.5C 471.922,295.444 470.922,290.278 465.5,286C 457.594,284.417 449.594,283.584 441.5,283.5C 442.167,273.159 443.001,262.825 444,252.5C 444.374,251.584 444.874,250.75 445.5,250C 447.473,249.505 449.473,249.338 451.5,249.5 Z"/></g>
<g><path style="opacity:1" fill="#d4716b" d="M 467.5,249.5 C 470.5,249.5 473.5,249.5 476.5,249.5C 476.786,259.212 476.286,268.879 475,278.5C 472.667,279.833 470.333,279.833 468,278.5C 467.5,268.839 467.334,259.172 467.5,249.5 Z"/></g>
<g><path style="opacity:1" fill="#d4716b" d="M 451.5,249.5 C 454.5,249.5 457.5,249.5 460.5,249.5C 460.647,259.2 460.147,268.866 459,278.5C 456.667,279.833 454.333,279.833 452,278.5C 451.5,268.839 451.334,259.172 451.5,249.5 Z"/></g>
<g><path style="opacity:1" fill="#e7a746" d="M 238.5,272.5 C 242.262,279.698 246.262,286.698 250.5,293.5C 241.522,301.329 231.522,307.663 220.5,312.5C 216.262,305.698 212.262,298.698 208.5,291.5C 214.331,288.419 219.998,285.085 225.5,281.5C 230.008,278.747 234.341,275.747 238.5,272.5 Z"/></g>
<g><path style="opacity:1" fill="#d4726c" d="M 441.5,283.5 C 449.594,283.584 457.594,284.417 465.5,286C 470.922,290.278 471.922,295.444 468.5,301.5C 467.19,303.148 465.857,304.814 464.5,306.5C 467.163,310.511 467.163,314.511 464.5,318.5C 462.931,317.286 462.098,315.619 462,313.5C 459.552,311.369 457.052,309.369 454.5,307.5C 456.149,305.35 457.982,303.35 460,301.5C 462.572,297.338 461.738,294.172 457.5,292C 452.177,291.501 446.844,291.334 441.5,291.5C 441.5,290.5 441.5,289.5 441.5,288.5C 441.5,286.833 441.5,285.167 441.5,283.5 Z"/></g>
<g><path style="opacity:1" fill="#e7aea1" d="M 67.5,291.5 C 74.9621,297.792 82.2955,304.292 89.5,311C 93.1074,314.098 96.1074,317.598 98.5,321.5C 95.628,330.598 89.9614,337.265 81.5,341.5C 79.6916,341.509 78.0249,341.009 76.5,340C 63.2046,326.528 49.2046,314.028 34.5,302.5C 36.1184,300.684 38.1184,299.351 40.5,298.5C 48.6033,298.886 56.6033,298.22 64.5,296.5C 65.2745,294.604 66.2745,292.937 67.5,291.5 Z"/></g>
<g><path style="opacity:1" fill="#e6b4ad" d="M 441.5,288.5 C 441.5,289.5 441.5,290.5 441.5,291.5C 446.844,291.334 452.177,291.501 457.5,292C 461.738,294.172 462.572,297.338 460,301.5C 457.982,303.35 456.149,305.35 454.5,307.5C 457.052,309.369 459.552,311.369 462,313.5C 462.098,315.619 462.931,317.286 464.5,318.5C 467.163,314.511 467.163,310.511 464.5,306.5C 465.857,304.814 467.19,303.148 468.5,301.5C 470.371,301.859 471.871,302.859 473,304.5C 476,308.167 479,311.833 482,315.5C 482.191,313.292 482.691,311.292 483.5,309.5C 485.014,320.455 482.348,330.122 475.5,338.5C 474.504,338.586 473.671,338.252 473,337.5C 460.969,322.643 448.802,307.977 436.5,293.5C 438.838,292.49 440.504,290.823 441.5,288.5 Z"/></g>
<g><path style="opacity:1" fill="#e7ae4a" d="M 275.5,294.5 C 276.376,294.369 277.043,294.702 277.5,295.5C 285.433,311.712 294.1,327.378 303.5,342.5C 296.46,347.02 289.126,351.02 281.5,354.5C 272.967,338.768 264.967,322.768 257.5,306.5C 263.463,302.513 269.463,298.513 275.5,294.5 Z"/></g>
<g><path style="opacity:1" fill="#e6a13f" d="M 208.5,291.5 C 212.262,298.698 216.262,305.698 220.5,312.5C 210.651,319.017 199.984,324.017 188.5,327.5C 184.008,320.522 180.008,313.188 176.5,305.5C 187.581,301.805 198.247,297.139 208.5,291.5 Z"/></g>
<g><path style="opacity:1" fill="#e69b38" d="M 176.5,305.5 C 180.008,313.188 184.008,320.522 188.5,327.5C 185.815,328.628 183.148,329.962 180.5,331.5C 179.571,332.689 179.238,334.022 179.5,335.5C 183.5,334.833 187.5,334.167 191.5,333.5C 199.474,348.78 207.474,364.113 215.5,379.5C 215.957,380.298 216.624,380.631 217.5,380.5C 205.125,383.84 192.459,386.173 179.5,387.5C 169.692,368.553 159.859,349.553 150,330.5C 148.933,328.308 147.433,326.642 145.5,325.5C 145.58,319.84 147.913,315.34 152.5,312C 157.023,310.203 161.69,309.036 166.5,308.5C 169.823,307.508 173.156,306.508 176.5,305.5 Z"/></g>
<g><path style="opacity:1" fill="#e6a79d" d="M 34.5,302.5 C 49.2046,314.028 63.2046,326.528 76.5,340C 78.0249,341.009 79.6916,341.509 81.5,341.5C 77.9155,343.806 73.9155,345.139 69.5,345.5C 59.6955,346.548 50.0288,347.548 40.5,348.5C 34.6445,346.815 30.4779,343.148 28,337.5C 27.3333,329.167 27.3333,320.833 28,312.5C 28.9346,308.28 31.1013,304.947 34.5,302.5 Z"/></g>
<g><path style="opacity:1" fill="#e7c7c0" d="M 356.5,309.5 C 369.465,321.295 379.965,334.962 388,350.5C 391.12,349.023 394.286,347.689 397.5,346.5C 407.763,360.103 418.43,373.436 429.5,386.5C 419.844,393.663 409.844,400.33 399.5,406.5C 399.414,405.504 399.748,404.671 400.5,404C 381.333,380.833 362.167,357.667 343,334.5C 342.23,333.402 341.397,333.402 340.5,334.5C 343.591,324.631 348.925,316.298 356.5,309.5 Z"/></g>
<g><path style="opacity:1" fill="#e7bbb3" d="M 436.5,293.5 C 448.802,307.977 460.969,322.643 473,337.5C 473.671,338.252 474.504,338.586 475.5,338.5C 469.106,347.949 461.773,356.616 453.5,364.5C 444.834,354.331 436.334,343.998 428,333.5C 427.329,332.748 426.496,332.414 425.5,332.5C 430.874,328.96 434.54,324.127 436.5,318C 434.654,310.298 434.154,302.464 435,294.5C 435.383,293.944 435.883,293.611 436.5,293.5 Z"/></g>
<g><path style="opacity:1" fill="#e7a745" d="M 257.5,306.5 C 264.967,322.768 272.967,338.768 281.5,354.5C 278.227,357.144 274.56,359.311 270.5,361C 263.705,364.399 256.705,367.233 249.5,369.5C 242.036,353.905 234.036,338.572 225.5,323.5C 225.863,322.817 226.196,322.15 226.5,321.5C 236.917,316.792 247.25,311.792 257.5,306.5 Z"/></g>
<g><path style="opacity:1" fill="#e6a13f" d="M 226.5,321.5 C 226.196,322.15 225.863,322.817 225.5,323.5C 234.036,338.572 242.036,353.905 249.5,369.5C 239.224,373.927 228.557,377.593 217.5,380.5C 216.624,380.631 215.957,380.298 215.5,379.5C 207.474,364.113 199.474,348.78 191.5,333.5C 203.193,329.935 214.86,325.935 226.5,321.5 Z"/></g>
<g><path style="opacity:1" fill="#e7c7c7" d="M 399.5,406.5 C 399.167,406.5 398.833,406.5 398.5,406.5C 379.197,385.683 360.697,364.016 343,341.5C 341.808,339.35 340.308,338.683 338.5,339.5C 338.796,337.597 339.463,335.93 340.5,334.5C 341.397,333.402 342.23,333.402 343,334.5C 362.167,357.667 381.333,380.833 400.5,404C 399.748,404.671 399.414,405.504 399.5,406.5 Z"/></g>
<g><path style="opacity:1" fill="#e7c1b9" d="M 425.5,332.5 C 426.496,332.414 427.329,332.748 428,333.5C 436.334,343.998 444.834,354.331 453.5,364.5C 445.826,372.174 437.826,379.507 429.5,386.5C 418.43,373.436 407.763,360.103 397.5,346.5C 407.139,342.347 416.472,337.681 425.5,332.5 Z"/></g>
<g><path style="opacity:1" fill="#e1762b" d="M 311.5,337.5 C 311.5,344.833 311.5,352.167 311.5,359.5C 304.246,362.772 297.246,366.439 290.5,370.5C 279.331,374.591 268.331,378.924 257.5,383.5C 246.255,386.478 234.922,389.144 223.5,391.5C 202.24,394.808 180.907,395.308 159.5,393C 158.167,391.667 158.167,390.333 159.5,389C 166.215,388.757 172.881,388.257 179.5,387.5C 192.459,386.173 205.125,383.84 217.5,380.5C 228.557,377.593 239.224,373.927 249.5,369.5C 256.705,367.233 263.705,364.399 270.5,361C 274.56,359.311 278.227,357.144 281.5,354.5C 289.126,351.02 296.46,347.02 303.5,342.5C 306.167,340.833 308.833,339.167 311.5,337.5 Z"/></g>
<g><path style="opacity:1" fill="#e7cdc7" d="M 398.5,406.5 C 392.465,410.939 385.799,412.106 378.5,410C 362.943,401.396 348.276,391.563 334.5,380.5C 332.481,366.369 333.815,352.702 338.5,339.5C 340.308,338.683 341.808,339.35 343,341.5C 360.697,364.016 379.197,385.683 398.5,406.5 Z"/></g>
<g><path style="opacity:1" fill="#e39633" d="M 145.5,325.5 C 147.433,326.642 148.933,328.308 150,330.5C 159.859,349.553 169.692,368.553 179.5,387.5C 172.881,388.257 166.215,388.757 159.5,389C 158.167,390.333 158.167,391.667 159.5,393C 180.907,395.308 202.24,394.808 223.5,391.5C 223.389,392.117 223.056,392.617 222.5,393C 227.716,401.93 232.549,411.096 237,420.5C 237.759,422.063 238.926,423.063 240.5,423.5C 210.55,426.673 180.55,425.84 150.5,421C 147.424,419.757 144.757,417.923 142.5,415.5C 137.558,406.879 135.058,397.546 135,387.5C 127.031,375.326 124.031,361.993 126,347.5C 126.785,345.714 127.951,344.214 129.5,343C 134.066,341.691 138.733,341.191 143.5,341.5C 143.701,336.093 144.368,330.76 145.5,325.5 Z"/></g>
<g><path style="opacity:1" fill="#b62d2c" d="M 69.5,345.5 C 69.5,354.833 69.5,364.167 69.5,373.5C 59.7258,377.553 50.0592,381.886 40.5,386.5C 40.5,373.833 40.5,361.167 40.5,348.5C 50.0288,347.548 59.6955,346.548 69.5,345.5 Z"/></g>
<g><path style="opacity:1" fill="#e7ae4b" d="M 311.5,359.5 C 311.532,372.941 309.532,385.941 305.5,398.5C 300.516,389.201 295.516,379.868 290.5,370.5C 297.246,366.439 304.246,362.772 311.5,359.5 Z"/></g>
<g><path style="opacity:1" fill="#e7a745" d="M 290.5,370.5 C 295.516,379.868 300.516,389.201 305.5,398.5C 305.122,400.921 304.455,403.254 303.5,405.5C 294.39,409.721 285.057,413.388 275.5,416.5C 269.262,405.695 263.262,394.695 257.5,383.5C 268.331,378.924 279.331,374.591 290.5,370.5 Z"/></g>
<g><path style="opacity:1" fill="#e6635c" d="M 69.5,373.5 C 69.5,414.5 69.5,455.5 69.5,496.5C 59.8333,496.5 50.1667,496.5 40.5,496.5C 40.5,459.833 40.5,423.167 40.5,386.5C 50.0592,381.886 59.7258,377.553 69.5,373.5 Z"/></g>
<g><path style="opacity:1" fill="#e6a13f" d="M 257.5,383.5 C 263.262,394.695 269.262,405.695 275.5,416.5C 264.357,420.766 252.691,423.099 240.5,423.5C 238.926,423.063 237.759,422.063 237,420.5C 232.549,411.096 227.716,401.93 222.5,393C 223.056,392.617 223.389,392.117 223.5,391.5C 234.922,389.144 246.255,386.478 257.5,383.5 Z"/></g>
<g><path style="opacity:1" fill="#e1762b" d="M 303.5,405.5 C 307.173,407 310.506,409 313.5,411.5C 311,414.832 308,417.666 304.5,420C 297.831,424.67 290.831,428.837 283.5,432.5C 292.873,441.2 303.54,447.867 315.5,452.5C 337.513,460.381 360.179,463.048 383.5,460.5C 388.132,463.798 392.466,467.464 396.5,471.5C 391.181,473.714 385.514,474.881 379.5,475C 369.506,475.5 359.506,475.666 349.5,475.5C 340.424,475.156 331.424,474.156 322.5,472.5C 308.465,469.044 294.799,464.377 281.5,458.5C 272.263,453.541 263.263,448.041 254.5,442C 243.867,442.662 233.2,443.329 222.5,444C 230.265,452.689 238.931,460.189 248.5,466.5C 257.712,472.607 267.378,477.94 277.5,482.5C 285.266,486.383 293.266,489.716 301.5,492.5C 305.037,493.54 308.37,494.873 311.5,496.5C 296.5,496.5 281.5,496.5 266.5,496.5C 251.875,489.189 237.875,480.855 224.5,471.5C 217.525,465.529 210.525,459.529 203.5,453.5C 200.336,450.167 197.336,446.667 194.5,443C 182.416,442.07 170.583,439.903 159,436.5C 158.167,436.833 157.333,437.167 156.5,437.5C 160.865,446.254 166.198,454.254 172.5,461.5C 175.453,465.625 178.619,469.625 182,473.5C 184.086,476.094 186.586,478.094 189.5,479.5C 199.986,488.41 211.986,494.077 225.5,496.5C 179.165,496.667 132.832,496.5 86.5,496C 94.5026,482.331 103.669,469.498 114,457.5C 122.548,442.798 132.048,428.798 142.5,415.5C 144.757,417.923 147.424,419.757 150.5,421C 180.55,425.84 210.55,426.673 240.5,423.5C 252.691,423.099 264.357,420.766 275.5,416.5C 285.057,413.388 294.39,409.721 303.5,405.5 Z"/></g>
<g><path style="opacity:1" fill="#e6a03d" d="M 313.5,411.5 C 329.648,420.327 344.982,430.327 359.5,441.5C 344.762,445.184 330.096,448.851 315.5,452.5C 303.54,447.867 292.873,441.2 283.5,432.5C 290.831,428.837 297.831,424.67 304.5,420C 308,417.666 311,414.832 313.5,411.5 Z"/></g>
<g><path style="opacity:1" fill="#e69b38" d="M 203.5,453.5 C 193.554,455.723 183.554,457.89 173.5,460C 172.944,460.383 172.611,460.883 172.5,461.5C 166.198,454.254 160.865,446.254 156.5,437.5C 157.333,437.167 158.167,436.833 159,436.5C 170.583,439.903 182.416,442.07 194.5,443C 197.336,446.667 200.336,450.167 203.5,453.5 Z"/></g>
<g><path style="opacity:1" fill="#e7a744" d="M 359.5,441.5 C 368.1,447.102 376.1,453.436 383.5,460.5C 360.179,463.048 337.513,460.381 315.5,452.5C 330.096,448.851 344.762,445.184 359.5,441.5 Z"/></g>
<g><path style="opacity:1" fill="#e6a03e" d="M 281.5,458.5 C 270.352,460.926 259.352,463.593 248.5,466.5C 238.931,460.189 230.265,452.689 222.5,444C 233.2,443.329 243.867,442.662 254.5,442C 263.263,448.041 272.263,453.541 281.5,458.5 Z"/></g>
<g><path style="opacity:1" fill="#e6a13f" d="M 203.5,453.5 C 210.525,459.529 217.525,465.529 224.5,471.5C 213.098,473.214 201.765,475.38 190.5,478C 189.944,478.383 189.611,478.883 189.5,479.5C 186.586,478.094 184.086,476.094 182,473.5C 178.619,469.625 175.453,465.625 172.5,461.5C 172.611,460.883 172.944,460.383 173.5,460C 183.554,457.89 193.554,455.723 203.5,453.5 Z"/></g>
<g><path style="opacity:1" fill="#e7a745" d="M 281.5,458.5 C 294.799,464.377 308.465,469.044 322.5,472.5C 307.765,474.88 293.098,477.714 278.5,481C 277.944,481.383 277.611,481.883 277.5,482.5C 267.378,477.94 257.712,472.607 248.5,466.5C 259.352,463.593 270.352,460.926 281.5,458.5 Z"/></g>
<g><path style="opacity:1" fill="#e7a846" d="M 224.5,471.5 C 237.875,480.855 251.875,489.189 266.5,496.5C 252.833,496.5 239.167,496.5 225.5,496.5C 211.986,494.077 199.986,488.41 189.5,479.5C 189.611,478.883 189.944,478.383 190.5,478C 201.765,475.38 213.098,473.214 224.5,471.5 Z"/></g>
<g><path style="opacity:1" fill="#e7ae4a" d="M 322.5,472.5 C 331.424,474.156 340.424,475.156 349.5,475.5C 354.985,476.327 360.652,476.827 366.5,477C 344.5,481.667 322.5,486.333 300.5,491C 301.056,491.383 301.389,491.883 301.5,492.5C 293.266,489.716 285.266,486.383 277.5,482.5C 277.611,481.883 277.944,481.383 278.5,481C 293.098,477.714 307.765,474.88 322.5,472.5 Z"/></g>
<g><path style="opacity:1" fill="#e7ae50" d="M 396.5,471.5 C 405.628,478.794 413.962,486.961 421.5,496C 384.835,496.5 348.168,496.667 311.5,496.5C 308.37,494.873 305.037,493.54 301.5,492.5C 301.389,491.883 301.056,491.383 300.5,491C 322.5,486.333 344.5,481.667 366.5,477C 360.652,476.827 354.985,476.327 349.5,475.5C 359.506,475.666 369.506,475.5 379.5,475C 385.514,474.881 391.181,473.714 396.5,471.5 Z"/></g>
</svg>
