<?xml version="1.0" encoding="UTF-8"?>
<!DOCTYPE svg PUBLIC "-//W3C//DTD SVG 1.1//EN" "http://www.w3.org/Graphics/SVG/1.1/DTD/svg11.dtd">
<svg xmlns="http://www.w3.org/2000/svg" version="1.1" width="512px" height="512px" style="shape-rendering:geometricPrecision; text-rendering:geometricPrecision; image-rendering:optimizeQuality; fill-rule:evenodd; clip-rule:evenodd" xmlns:xlink="http://www.w3.org/1999/xlink">
<g><path style="opacity:1" fill="#56636f" d="M 363.5,57.5 C 363.631,58.2389 363.464,58.9056 363,59.5C 318.656,45.997 274.156,32.997 229.5,20.5C 229.261,18.5328 229.594,16.6995 230.5,15C 276.633,10.6128 318.299,21.9461 355.5,49C 358.371,51.7028 361.038,54.5361 363.5,57.5 Z"/></g>
<g><path style="opacity:1" fill="#565c6f" d="M 229.5,20.5 C 274.156,32.997 318.656,45.997 363,59.5C 363.464,58.9056 363.631,58.2389 363.5,57.5C 366.201,60.2353 367.868,63.5686 368.5,67.5C 323.618,54.7371 278.785,41.7371 234,28.5C 233.035,28.9296 232.535,29.5963 232.5,30.5C 230.32,27.619 229.32,24.2856 229.5,20.5 Z"/></g>
<g><path style="opacity:1" fill="#505c69" d="M 368.5,67.5 C 370.457,76.6807 371.457,86.0141 371.5,95.5C 370.85,95.8039 370.183,96.1373 369.5,96.5C 327.488,84.1621 285.488,71.8288 243.5,59.5C 242.445,54.1791 241.278,48.8458 240,43.5C 237.477,39.1118 234.977,34.7785 232.5,30.5C 232.535,29.5963 233.035,28.9296 234,28.5C 278.785,41.7371 323.618,54.7371 368.5,67.5 Z"/></g>
<g><path style="opacity:1" fill="#5b6375" d="M 82.5,85.5 C 74.9858,106.386 68.6525,127.719 63.5,149.5C 57.253,145.922 51.9197,141.256 47.5,135.5C 56.4292,107.537 65.0958,79.3705 73.5,51C 73.4301,50.2352 73.0967,49.7352 72.5,49.5C 74.978,47.1975 77.6447,45.0308 80.5,43C 81.5,42.3333 82.5,42.3333 83.5,43C 79.9824,57.1032 79.649,71.2699 82.5,85.5 Z"/></g>
<g><path style="opacity:1" fill="#5d6976" d="M 72.5,49.5 C 73.0967,49.7352 73.4301,50.2352 73.5,51C 65.0958,79.3705 56.4292,107.537 47.5,135.5C 39.5991,125.039 37.4325,113.372 41,100.5C 47.4766,80.8532 57.9766,63.8532 72.5,49.5 Z"/></g>
<g><path style="opacity:1" fill="#4d5764" d="M 243.5,59.5 C 285.488,71.8288 327.488,84.1621 369.5,96.5C 370.183,96.1373 370.85,95.8039 371.5,95.5C 371.646,104.058 370.479,112.391 368,120.5C 365.776,122.195 363.276,123.195 360.5,123.5C 357.024,122.896 353.691,121.896 350.5,120.5C 344.546,115.85 337.88,112.183 330.5,109.5C 318.909,102.701 306.909,96.3677 294.5,90.5C 293.506,95.456 293.173,100.456 293.5,105.5C 293.5,108.833 293.5,112.167 293.5,115.5C 293.5,117.5 293.5,119.5 293.5,121.5C 292.67,111.008 292.17,100.341 292,89.5C 279.791,83.1446 267.291,77.4779 254.5,72.5C 249.713,69.0519 246.046,64.7186 243.5,59.5 Z"/></g>
<g><path style="opacity:1" fill="#2b3844" d="M 254.5,72.5 C 267.291,77.4779 279.791,83.1446 292,89.5C 292.17,100.341 292.67,111.008 293.5,121.5C 293.5,124.5 293.5,127.5 293.5,130.5C 279.998,123.252 266.998,115.252 254.5,106.5C 254.5,95.1667 254.5,83.8333 254.5,72.5 Z"/></g>
<g><path style="opacity:1" fill="#56636f" d="M 82.5,85.5 C 85.2652,96.371 90.5985,105.704 98.5,113.5C 93.5235,128.764 88.5235,144.098 83.5,159.5C 76.5545,156.694 69.8878,153.361 63.5,149.5C 68.6525,127.719 74.9858,106.386 82.5,85.5 Z"/></g>
<g><path style="opacity:1" fill="#e5a59a" d="M 330.5,109.5 C 318.194,107.92 305.86,106.587 293.5,105.5C 293.173,100.456 293.506,95.456 294.5,90.5C 306.909,96.3677 318.909,102.701 330.5,109.5 Z"/></g>
<g><path style="opacity:1" fill="#586475" d="M 254.5,106.5 C 266.998,115.252 279.998,123.252 293.5,130.5C 294.5,131.167 295.5,131.833 296.5,132.5C 311.404,140.797 326.737,148.131 342.5,154.5C 345.822,155.658 347.988,157.992 349,161.5C 349.805,164.696 349.638,167.696 348.5,170.5C 348.047,169.542 347.381,168.708 346.5,168C 313.105,148.644 280.105,128.81 247.5,108.5C 249.438,106.837 251.772,106.171 254.5,106.5 Z"/></g>
<g><path style="opacity:1" fill="#56636f" d="M 247.5,108.5 C 280.105,128.81 313.105,148.644 346.5,168C 347.381,168.708 348.047,169.542 348.5,170.5C 348.238,175.888 346.905,180.888 344.5,185.5C 343.577,186.303 342.577,186.47 341.5,186C 317.732,171.481 294.066,157.648 270.5,144.5C 261.53,138.192 252.863,131.526 244.5,124.5C 243.888,120.837 243.721,117.17 244,113.5C 244.223,111.119 245.39,109.453 247.5,108.5 Z"/></g>
<g><path style="opacity:1" fill="#e6b2aa" d="M 293.5,105.5 C 305.86,106.587 318.194,107.92 330.5,109.5C 337.88,112.183 344.546,115.85 350.5,120.5C 350.737,121.791 350.404,122.791 349.5,123.5C 342.04,121.769 334.373,120.436 326.5,119.5C 325.584,119.543 324.917,119.876 324.5,120.5C 321.368,119.433 318.368,118.1 315.5,116.5C 313.927,116.752 312.594,117.418 311.5,118.5C 305.68,117.184 299.68,116.184 293.5,115.5C 293.5,112.167 293.5,108.833 293.5,105.5 Z"/></g>
<g><path style="opacity:1" fill="#d5746e" d="M 324.5,120.5 C 326.353,124.669 325.02,127.335 320.5,128.5C 316.975,127.488 313.808,125.821 311,123.5C 310.36,121.735 310.527,120.068 311.5,118.5C 312.594,117.418 313.927,116.752 315.5,116.5C 318.368,118.1 321.368,119.433 324.5,120.5 Z"/></g>
<g><path style="opacity:1" fill="#515c6a" d="M 98.5,113.5 C 107.841,121.003 118.174,126.67 129.5,130.5C 126.779,141.998 123.446,153.331 119.5,164.5C 119.863,165.183 120.196,165.85 120.5,166.5C 107.838,165.834 95.5044,163.501 83.5,159.5C 88.5235,144.098 93.5235,128.764 98.5,113.5 Z"/></g>
<g><path style="opacity:1" fill="#2b3844" d="M 244.5,124.5 C 252.863,131.526 261.53,138.192 270.5,144.5C 280.04,152.191 290.04,159.358 300.5,166C 302.229,167.789 302.896,169.956 302.5,172.5C 280.602,168.218 260.602,159.551 242.5,146.5C 240.936,142.326 240.269,137.993 240.5,133.5C 240.692,129.898 242.026,126.898 244.5,124.5 Z"/></g>
<g><path style="opacity:1" fill="#e6c3bb" d="M 293.5,115.5 C 299.68,116.184 305.68,117.184 311.5,118.5C 310.527,120.068 310.36,121.735 311,123.5C 313.808,125.821 316.975,127.488 320.5,128.5C 325.02,127.335 326.353,124.669 324.5,120.5C 324.917,119.876 325.584,119.543 326.5,119.5C 334.373,120.436 342.04,121.769 349.5,123.5C 349.348,127.924 348.681,132.257 347.5,136.5C 332.139,135.163 316.806,133.497 301.5,131.5C 299.631,131.507 297.964,131.84 296.5,132.5C 295.5,131.833 294.5,131.167 293.5,130.5C 293.5,127.5 293.5,124.5 293.5,121.5C 293.5,119.5 293.5,117.5 293.5,115.5 Z"/></g>
<g><path style="opacity:1" fill="#4b5563" d="M 129.5,130.5 C 151.257,135.505 173.257,136.838 195.5,134.5C 189.69,135.49 183.69,135.823 177.5,135.5C 174.989,145.21 172.322,154.877 169.5,164.5C 166.287,164.19 163.287,164.523 160.5,165.5C 151.103,165.608 141.77,166.274 132.5,167.5C 128.466,167.495 124.466,167.162 120.5,166.5C 120.196,165.85 119.863,165.183 119.5,164.5C 123.446,153.331 126.779,141.998 129.5,130.5 Z"/></g>
<g><path style="opacity:1" fill="#e5ccc6" d="M 296.5,132.5 C 297.964,131.84 299.631,131.507 301.5,131.5C 316.806,133.497 332.139,135.163 347.5,136.5C 346.452,142.693 344.786,148.693 342.5,154.5C 326.737,148.131 311.404,140.797 296.5,132.5 Z"/></g>
<g><path style="opacity:1" fill="#434f5b" d="M 195.5,134.5 C 204.311,135.081 212.977,135.748 221.5,136.5C 211.911,148.797 199.911,157.964 185.5,164C 180.177,164.499 174.844,164.666 169.5,164.5C 172.322,154.877 174.989,145.21 177.5,135.5C 183.69,135.823 189.69,135.49 195.5,134.5 Z"/></g>
<g><path style="opacity:1" fill="#323e4b" d="M 240.5,133.5 C 240.269,137.993 240.936,142.326 242.5,146.5C 244.427,149.767 246.761,152.767 249.5,155.5C 246.928,160.989 244.595,166.656 242.5,172.5C 239.391,172.264 236.391,172.597 233.5,173.5C 229.761,171.898 225.761,170.898 221.5,170.5C 211.459,167.95 201.126,166.45 190.5,166C 180.506,165.5 170.506,165.334 160.5,165.5C 163.287,164.523 166.287,164.19 169.5,164.5C 174.844,164.666 180.177,164.499 185.5,164C 199.911,157.964 211.911,148.797 221.5,136.5C 227.509,136.701 233.509,137.034 239.5,137.5C 239.232,135.901 239.566,134.568 240.5,133.5 Z"/></g>
<g><path style="opacity:1" fill="#515c6a" d="M 344.5,185.5 C 341.617,194.942 336.951,203.275 330.5,210.5C 308.135,196.651 285.468,183.318 262.5,170.5C 257.822,165.821 253.489,160.821 249.5,155.5C 246.761,152.767 244.427,149.767 242.5,146.5C 260.602,159.551 280.602,168.218 302.5,172.5C 302.896,169.956 302.229,167.789 300.5,166C 290.04,159.358 280.04,152.191 270.5,144.5C 294.066,157.648 317.732,171.481 341.5,186C 342.577,186.47 343.577,186.303 344.5,185.5 Z"/></g>
<g><path style="opacity:1" fill="#2b3844" d="M 249.5,155.5 C 253.489,160.821 257.822,165.821 262.5,170.5C 276.743,188.622 291.243,206.622 306,224.5C 307.559,226.217 308.392,228.217 308.5,230.5C 307.703,234.223 306.703,237.89 305.5,241.5C 298.879,236.881 292.546,231.881 286.5,226.5C 282.526,222.862 278.526,219.195 274.5,215.5C 262.292,202.295 251.626,187.962 242.5,172.5C 244.595,166.656 246.928,160.989 249.5,155.5 Z"/></g>
<g><path style="opacity:1" fill="#2b3744" d="M 160.5,165.5 C 170.506,165.334 180.506,165.5 190.5,166C 201.126,166.45 211.459,167.95 221.5,170.5C 183.421,176.043 150.088,191.543 121.5,217C 102.916,228.32 82.9162,231.653 61.5,227C 44.5515,223.448 30.7182,214.948 20,201.5C 19.2506,200.365 19.4173,199.365 20.5,198.5C 27.0675,200.214 33.7341,200.714 40.5,200C 73.453,195.406 104.12,184.573 132.5,167.5C 141.77,166.274 151.103,165.608 160.5,165.5 Z"/></g>
<g><path style="opacity:1" fill="#5c697c" d="M 242.5,172.5 C 251.626,187.962 262.292,202.295 274.5,215.5C 262.497,216.132 250.497,216.798 238.5,217.5C 237.833,217.5 237.5,217.167 237.5,216.5C 234.913,208.823 230.913,201.99 225.5,196C 218.44,192.287 211.774,192.787 205.5,197.5C 207.066,180.608 216.4,172.608 233.5,173.5C 236.391,172.597 239.391,172.264 242.5,172.5 Z"/></g>
<g><path style="opacity:1" fill="#e7c6c0" d="M 456.5,178.5 C 456.5,190.167 456.5,201.833 456.5,213.5C 451.167,213.5 445.833,213.5 440.5,213.5C 440.334,203.828 440.5,194.161 441,184.5C 442.167,182 444,180.167 446.5,179C 449.817,178.502 453.15,178.335 456.5,178.5 Z"/></g>
<g><path style="opacity:1" fill="#d4716b" d="M 456.5,178.5 C 459.167,178.5 461.833,178.5 464.5,178.5C 464.5,190.167 464.5,201.833 464.5,213.5C 470.368,214.052 473.035,217.385 472.5,223.5C 471.533,230.112 468.533,235.445 463.5,239.5C 460.069,241.388 456.402,241.888 452.5,241C 451.244,240.583 450.577,239.75 450.5,238.5C 457.73,236.314 460.73,231.648 459.5,224.5C 458.975,223.808 458.308,223.308 457.5,223C 451.652,222.827 445.985,222.327 440.5,221.5C 440.5,218.833 440.5,216.167 440.5,213.5C 445.833,213.5 451.167,213.5 456.5,213.5C 456.5,201.833 456.5,190.167 456.5,178.5 Z"/></g>
<g><path style="opacity:1" fill="#4c5664" d="M 262.5,170.5 C 285.468,183.318 308.135,196.651 330.5,210.5C 328.107,214.402 325.107,217.902 321.5,221C 316.985,224.03 312.651,227.197 308.5,230.5C 308.392,228.217 307.559,226.217 306,224.5C 291.243,206.622 276.743,188.622 262.5,170.5 Z"/></g>
<g><path style="opacity:1" fill="#e7c9c3" d="M 465.5,178.5 C 470.081,177.923 474.248,178.923 478,181.5C 479.438,189.723 479.938,198.057 479.5,206.5C 474.886,205.555 470.219,204.888 465.5,204.5C 465.5,195.833 465.5,187.167 465.5,178.5 Z"/></g>
<g><path style="opacity:1" fill="#4a4a5c" d="M 237.5,216.5 C 236.903,216.735 236.57,217.235 236.5,218C 239.147,226.193 239.147,234.36 236.5,242.5C 227.334,226.335 215.334,212.668 200.5,201.5C 201.945,199.937 203.611,198.604 205.5,197.5C 211.774,192.787 218.44,192.287 225.5,196C 230.913,201.99 234.913,208.823 237.5,216.5 Z"/></g>
<g><path style="opacity:1" fill="#2b2b3e" d="M 200.5,201.5 C 215.334,212.668 227.334,226.335 236.5,242.5C 235.979,247.087 234.312,251.087 231.5,254.5C 224.087,237.916 213.421,223.749 199.5,212C 197.182,210.007 194.516,208.841 191.5,208.5C 194.19,205.815 197.19,203.482 200.5,201.5 Z"/></g>
<g><path style="opacity:1" fill="#49495a" d="M 191.5,208.5 C 194.516,208.841 197.182,210.007 199.5,212C 213.421,223.749 224.087,237.916 231.5,254.5C 228.159,261.168 223.826,267.168 218.5,272.5C 215.554,267.941 213.054,262.941 211,257.5C 203.579,242.258 193.413,229.258 180.5,218.5C 183.558,214.475 187.225,211.142 191.5,208.5 Z"/></g>
<g><path style="opacity:1" fill="#5c6975" d="M 274.5,215.5 C 278.526,219.195 282.526,222.862 286.5,226.5C 273.506,227.758 260.339,228.758 247,229.5C 245.076,229.419 243.243,229.086 241.5,228.5C 240.703,224.777 239.703,221.11 238.5,217.5C 250.497,216.798 262.497,216.132 274.5,215.5 Z"/></g>
<g><path style="opacity:1" fill="#2b2b3e" d="M 180.5,218.5 C 193.413,229.258 203.579,242.258 211,257.5C 213.054,262.941 215.554,267.941 218.5,272.5C 215.792,275.209 212.792,277.542 209.5,279.5C 206.038,268.24 201.205,257.574 195,247.5C 188.25,239.264 181.416,231.264 174.5,223.5C 176.091,221.367 178.091,219.701 180.5,218.5 Z"/></g>
<g><path style="opacity:1" fill="#2b3844" d="M 237.5,216.5 C 237.5,217.167 237.833,217.5 238.5,217.5C 239.703,221.11 240.703,224.777 241.5,228.5C 243.529,234.313 244.529,240.313 244.5,246.5C 244.5,252.5 244.5,258.5 244.5,264.5C 243.475,267.974 242.808,271.64 242.5,275.5C 239.144,284.234 236.811,293.234 235.5,302.5C 234.915,314.578 237.249,325.911 242.5,336.5C 244.033,340.704 246.7,344.037 250.5,346.5C 253.256,349.389 256.589,351.556 260.5,353C 284.344,359.856 308.677,363.022 333.5,362.5C 333.389,363.117 333.056,363.617 332.5,364C 323.094,364.985 313.76,366.152 304.5,367.5C 288.784,367.787 273.118,367.121 257.5,365.5C 246.99,363.621 236.656,361.287 226.5,358.5C 216.355,344.233 206.189,329.9 196,315.5C 192.639,309.25 190.805,302.583 190.5,295.5C 191.803,293.858 193.136,292.191 194.5,290.5C 196.395,289.297 198.395,288.131 200.5,287C 201.252,286.329 201.586,285.496 201.5,284.5C 204.511,283.331 207.178,281.664 209.5,279.5C 212.792,277.542 215.792,275.209 218.5,272.5C 223.826,267.168 228.159,261.168 231.5,254.5C 234.312,251.087 235.979,247.087 236.5,242.5C 239.147,234.36 239.147,226.193 236.5,218C 236.57,217.235 236.903,216.735 237.5,216.5 Z"/></g>
<g><path style="opacity:1" fill="#e7b5ad" d="M 440.5,221.5 C 445.985,222.327 451.652,222.827 457.5,223C 458.308,223.308 458.975,223.808 459.5,224.5C 460.73,231.648 457.73,236.314 450.5,238.5C 442.547,237.173 434.547,236.173 426.5,235.5C 427.517,227.15 432.183,222.483 440.5,221.5 Z"/></g>
<g><path style="opacity:1" fill="#5b6375" d="M 286.5,226.5 C 292.546,231.881 298.879,236.881 305.5,241.5C 302.572,242.82 299.239,243.486 295.5,243.5C 278.467,244.256 261.467,245.256 244.5,246.5C 244.529,240.313 243.529,234.313 241.5,228.5C 243.243,229.086 245.076,229.419 247,229.5C 260.339,228.758 273.506,227.758 286.5,226.5 Z"/></g>
<g><path style="opacity:1" fill="#444456" d="M 174.5,223.5 C 181.416,231.264 188.25,239.264 195,247.5C 201.205,257.574 206.038,268.24 209.5,279.5C 207.178,281.664 204.511,283.331 201.5,284.5C 188.843,267.178 172.843,253.845 153.5,244.5C 160.167,237.167 167.167,230.167 174.5,223.5 Z"/></g>
<g><path style="opacity:1" fill="#e6b7ae" d="M 464.5,178.5 C 464.833,178.5 465.167,178.5 465.5,178.5C 465.5,187.167 465.5,195.833 465.5,204.5C 470.219,204.888 474.886,205.555 479.5,206.5C 479.5,211.167 479.5,215.833 479.5,220.5C 485.181,220.585 489.014,223.251 491,228.5C 491.841,234.091 491.341,239.424 489.5,244.5C 480.836,242.833 472.169,241.167 463.5,239.5C 468.533,235.445 471.533,230.112 472.5,223.5C 473.035,217.385 470.368,214.052 464.5,213.5C 464.5,201.833 464.5,190.167 464.5,178.5 Z"/></g>
<g><path style="opacity:1" fill="#e7afa3" d="M 426.5,235.5 C 434.547,236.173 442.547,237.173 450.5,238.5C 450.577,239.75 451.244,240.583 452.5,241C 456.402,241.888 460.069,241.388 463.5,239.5C 472.169,241.167 480.836,242.833 489.5,244.5C 488.607,248.852 486.94,252.852 484.5,256.5C 466.415,254.726 448.415,252.392 430.5,249.5C 427.944,245.288 426.61,240.622 426.5,235.5 Z"/></g>
<g><path style="opacity:1" fill="#56636f" d="M 305.5,241.5 C 306.82,243.463 308.154,245.463 309.5,247.5C 312.755,253.008 315.755,258.675 318.5,264.5C 293.831,265.798 269.164,267.132 244.5,268.5C 244.5,267.167 244.5,265.833 244.5,264.5C 244.5,258.5 244.5,252.5 244.5,246.5C 261.467,245.256 278.467,244.256 295.5,243.5C 299.239,243.486 302.572,242.82 305.5,241.5 Z"/></g>
<g><path style="opacity:1" fill="#2b2b3e" d="M 153.5,244.5 C 172.843,253.845 188.843,267.178 201.5,284.5C 201.586,285.496 201.252,286.329 200.5,287C 198.395,288.131 196.395,289.297 194.5,290.5C 189.119,282.611 182.785,275.444 175.5,269C 166.781,262.316 157.781,256.15 148.5,250.5C 149.701,248.091 151.367,246.091 153.5,244.5 Z"/></g>
<g><path style="opacity:1" fill="#424254" d="M 148.5,250.5 C 157.781,256.15 166.781,262.316 175.5,269C 182.785,275.444 189.119,282.611 194.5,290.5C 193.136,292.191 191.803,293.858 190.5,295.5C 185.167,299.833 179.833,304.167 174.5,308.5C 171.811,301.456 168.311,294.79 164,288.5C 156.637,278.638 148.137,269.971 138.5,262.5C 141.359,258.122 144.692,254.122 148.5,250.5 Z"/></g>
<g><path style="opacity:1" fill="#2a2a3d" d="M 309.5,247.5 C 328.315,267.158 349.315,283.992 372.5,298C 379.067,301.451 385.734,304.618 392.5,307.5C 391.701,310.43 391.368,313.43 391.5,316.5C 390.345,323.321 390.179,330.321 391,337.5C 391.911,346.29 393.411,354.957 395.5,363.5C 374.554,355.861 354.888,345.861 336.5,333.5C 336.826,324.651 336.493,315.984 335.5,307.5C 335.57,303.575 334.903,299.909 333.5,296.5C 331.757,286.912 328.09,278.246 322.5,270.5C 321.66,268.147 320.326,266.147 318.5,264.5C 315.755,258.675 312.755,253.008 309.5,247.5 Z"/></g>
<g><path style="opacity:1" fill="#2c3945" d="M 430.5,250.5 C 439.437,261.464 451.103,266.797 465.5,266.5C 464.31,277.122 461.976,287.456 458.5,297.5C 442.397,291.394 430.397,280.727 422.5,265.5C 424.9,260.368 427.566,255.368 430.5,250.5 Z"/></g>
<g><path style="opacity:1" fill="#e4a69c" d="M 430.5,250.5 C 430.5,250.167 430.5,249.833 430.5,249.5C 448.415,252.392 466.415,254.726 484.5,256.5C 480.007,263.247 473.674,266.581 465.5,266.5C 451.103,266.797 439.437,261.464 430.5,250.5 Z"/></g>
<g><path style="opacity:1" fill="#2b2b3e" d="M 138.5,262.5 C 148.137,269.971 156.637,278.638 164,288.5C 168.311,294.79 171.811,301.456 174.5,308.5C 172.833,310.833 170.833,312.833 168.5,314.5C 164.954,307.729 161.121,301.062 157,294.5C 149.62,285.294 141.787,276.627 133.5,268.5C 134.443,265.891 136.11,263.891 138.5,262.5 Z"/></g>
<g><path style="opacity:1" fill="#555c6f" d="M 244.5,264.5 C 244.5,265.833 244.5,267.167 244.5,268.5C 269.164,267.132 293.831,265.798 318.5,264.5C 320.326,266.147 321.66,268.147 322.5,270.5C 296.005,272.51 269.339,274.177 242.5,275.5C 242.808,271.64 243.475,267.974 244.5,264.5 Z"/></g>
<g><path style="opacity:1" fill="#3e3e51" d="M 133.5,268.5 C 141.787,276.627 149.62,285.294 157,294.5C 161.121,301.062 164.954,307.729 168.5,314.5C 166.833,316.5 165.167,318.5 163.5,320.5C 160.833,318.167 158.167,315.833 155.5,313.5C 144.304,303.923 131.304,298.09 116.5,296C 115.944,295.617 115.611,295.117 115.5,294.5C 121.007,285.485 127.007,276.818 133.5,268.5 Z"/></g>
<g><path style="opacity:1" fill="#505c69" d="M 322.5,270.5 C 328.09,278.246 331.757,286.912 333.5,296.5C 301.008,298.878 268.341,300.878 235.5,302.5C 236.811,293.234 239.144,284.234 242.5,275.5C 269.339,274.177 296.005,272.51 322.5,270.5 Z"/></g>
<g><path style="opacity:1" fill="#5b6475" d="M 422.5,265.5 C 430.397,280.727 442.397,291.394 458.5,297.5C 458.095,300.715 457.095,303.715 455.5,306.5C 439.45,299.706 423.116,293.706 406.5,288.5C 412.092,280.971 417.426,273.304 422.5,265.5 Z"/></g>
<g><path style="opacity:1" fill="#5c697c" d="M 115.5,294.5 C 115.611,295.117 115.944,295.617 116.5,296C 131.304,298.09 144.304,303.923 155.5,313.5C 136.845,314.444 118.178,315.111 99.5,315.5C 99.5,308.167 99.5,300.833 99.5,293.5C 104.833,293.833 110.167,294.167 115.5,294.5 Z"/></g>
<g><path style="opacity:1" fill="#4b5664" d="M 333.5,296.5 C 334.903,299.909 335.57,303.575 335.5,307.5C 335.5,315.167 335.5,322.833 335.5,330.5C 304.307,331.877 273.307,333.877 242.5,336.5C 237.249,325.911 234.915,314.578 235.5,302.5C 268.341,300.878 301.008,298.878 333.5,296.5 Z"/></g>
<g><path style="opacity:1" fill="#535e6c" d="M 406.5,288.5 C 423.116,293.706 439.45,299.706 455.5,306.5C 451.81,317.545 446.81,327.878 440.5,337.5C 424.818,331.772 409.152,325.939 393.5,320C 392.027,319.29 391.36,318.124 391.5,316.5C 391.368,313.43 391.701,310.43 392.5,307.5C 393.128,304.91 394.295,302.577 396,300.5C 400.082,296.924 403.582,292.924 406.5,288.5 Z"/></g>
<g><path style="opacity:1" fill="#5c6975" d="M 155.5,313.5 C 158.167,315.833 160.833,318.167 163.5,320.5C 164.167,320.5 164.5,320.833 164.5,321.5C 143.174,322.389 121.841,323.055 100.5,323.5C 99.9084,320.873 99.5751,318.206 99.5,315.5C 118.178,315.111 136.845,314.444 155.5,313.5 Z"/></g>
<g><path style="opacity:1" fill="#5b6475" d="M 164.5,321.5 C 166.97,324.774 168.636,328.441 169.5,332.5C 147.132,333.125 124.799,334.125 102.5,335.5C 101.407,331.606 100.74,327.606 100.5,323.5C 121.841,323.055 143.174,322.389 164.5,321.5 Z"/></g>
<g><path style="opacity:1" fill="#495461" d="M 391.5,316.5 C 391.36,318.124 392.027,319.29 393.5,320C 409.152,325.939 424.818,331.772 440.5,337.5C 430.871,353.966 418.538,368.133 403.5,380C 402.668,380.688 402.002,380.521 401.5,379.5C 398.903,374.376 396.903,369.042 395.5,363.5C 393.411,354.957 391.911,346.29 391,337.5C 390.179,330.321 390.345,323.321 391.5,316.5 Z"/></g>
<g><path style="opacity:1" fill="#56636f" d="M 169.5,332.5 C 171.039,337.343 171.706,342.343 171.5,347.5C 149.496,348.056 127.496,348.722 105.5,349.5C 103.994,344.97 102.994,340.303 102.5,335.5C 124.799,334.125 147.132,333.125 169.5,332.5 Z"/></g>
<g><path style="opacity:1" fill="#4a505e" d="M 335.5,307.5 C 336.493,315.984 336.826,324.651 336.5,333.5C 336.5,336.167 336.5,338.833 336.5,341.5C 307.826,343.1 279.159,344.767 250.5,346.5C 246.7,344.037 244.033,340.704 242.5,336.5C 273.307,333.877 304.307,331.877 335.5,330.5C 335.5,322.833 335.5,315.167 335.5,307.5 Z"/></g>
<g><path style="opacity:1" fill="#43505c" d="M 336.5,341.5 C 336.5,348.5 336.5,355.5 336.5,362.5C 335.5,362.5 334.5,362.5 333.5,362.5C 308.677,363.022 284.344,359.856 260.5,353C 256.589,351.556 253.256,349.389 250.5,346.5C 279.159,344.767 307.826,343.1 336.5,341.5 Z"/></g>
<g><path style="opacity:1" fill="#515c6a" d="M 171.5,347.5 C 171.5,349.5 171.5,351.5 171.5,353.5C 156.802,370.169 138.135,378.169 115.5,377.5C 110.957,368.701 107.624,359.367 105.5,349.5C 127.496,348.722 149.496,348.056 171.5,347.5 Z"/></g>
<g><path style="opacity:1" fill="#2c3844" d="M 171.5,353.5 C 172.483,368.755 172.817,384.089 172.5,399.5C 162.99,394.573 152.99,393.406 142.5,396C 137.77,397.742 133.103,399.575 128.5,401.5C 123.139,394.115 118.806,386.115 115.5,377.5C 138.135,378.169 156.802,370.169 171.5,353.5 Z"/></g>
<g><path style="opacity:1" fill="#2b2b3e" d="M 226.5,358.5 C 236.656,361.287 246.99,363.621 257.5,365.5C 256.74,371.804 256.407,378.137 256.5,384.5C 268.157,385.106 279.824,385.439 291.5,385.5C 307.431,384.789 323.098,382.455 338.5,378.5C 338.5,381.167 338.5,383.833 338.5,386.5C 329.453,390.073 320.119,392.407 310.5,393.5C 292.179,394.736 273.846,394.736 255.5,393.5C 255.116,401.831 254.782,410.164 254.5,418.5C 266.462,419.438 278.462,419.772 290.5,419.5C 307.395,418.658 324.061,416.325 340.5,412.5C 341.461,414.265 341.795,416.265 341.5,418.5C 341.5,419.5 341.5,420.5 341.5,421.5C 312.525,428.354 283.192,430.354 253.5,427.5C 252.724,434.137 252.391,440.804 252.5,447.5C 241.028,445.177 230.195,441.177 220,435.5C 214.977,442.225 210.477,449.225 206.5,456.5C 203.325,456.497 200.492,455.497 198,453.5C 196.612,448.628 196.112,443.628 196.5,438.5C 188.5,438.5 180.5,438.5 172.5,438.5C 172.5,437.833 172.5,437.167 172.5,436.5C 173.488,431.36 173.821,426.026 173.5,420.5C 173.5,416.5 173.5,412.5 173.5,408.5C 181.167,408.5 188.833,408.5 196.5,408.5C 196.334,404.154 196.501,399.821 197,395.5C 197.465,394.069 198.299,392.903 199.5,392C 206.057,390.414 212.724,390.08 219.5,391C 220.931,391.465 222.097,392.299 223,393.5C 224.695,381.883 225.862,370.216 226.5,358.5 Z"/></g>
<g><path style="opacity:1" fill="#434355" d="M 333.5,362.5 C 334.5,362.5 335.5,362.5 336.5,362.5C 337.036,367.864 337.703,373.197 338.5,378.5C 323.098,382.455 307.431,384.789 291.5,385.5C 295.833,379.5 300.167,373.5 304.5,367.5C 313.76,366.152 323.094,364.985 332.5,364C 333.056,363.617 333.389,363.117 333.5,362.5 Z"/></g>
<g><path style="opacity:1" fill="#4b4b5c" d="M 257.5,365.5 C 273.118,367.121 288.784,367.787 304.5,367.5C 300.167,373.5 295.833,379.5 291.5,385.5C 279.824,385.439 268.157,385.106 256.5,384.5C 256.407,378.137 256.74,371.804 257.5,365.5 Z"/></g>
<g><path style="opacity:1" fill="#3d3d50" d="M 338.5,386.5 C 339.294,390.358 339.96,394.358 340.5,398.5C 340.192,402.958 340.192,407.625 340.5,412.5C 324.061,416.325 307.395,418.658 290.5,419.5C 292.631,418.686 294.964,418.186 297.5,418C 303.453,409.712 309.786,401.712 316.5,394C 314.527,393.505 312.527,393.338 310.5,393.5C 320.119,392.407 329.453,390.073 338.5,386.5 Z"/></g>
<g><path style="opacity:1" fill="#d9e1e7" d="M 423.5,424.5 C 423.217,423.711 422.717,423.044 422,422.5C 421.333,414.5 420.667,406.5 420,398.5C 419.52,396.867 418.687,395.534 417.5,394.5C 440.87,393.753 464.203,392.419 487.5,390.5C 486.14,401.683 481.14,410.85 472.5,418C 468.479,420.34 464.146,421.674 459.5,422C 447.508,423.012 435.508,423.846 423.5,424.5 Z"/></g>
<g><path style="opacity:1" fill="#454557" d="M 310.5,393.5 C 312.527,393.338 314.527,393.505 316.5,394C 309.786,401.712 303.453,409.712 297.5,418C 294.964,418.186 292.631,418.686 290.5,419.5C 278.462,419.772 266.462,419.438 254.5,418.5C 254.782,410.164 255.116,401.831 255.5,393.5C 273.846,394.736 292.179,394.736 310.5,393.5 Z"/></g>
<g><path style="opacity:1" fill="#e1e6e6" d="M 417.5,394.5 C 418.687,395.534 419.52,396.867 420,398.5C 420.667,406.5 421.333,414.5 422,422.5C 422.717,423.044 423.217,423.711 423.5,424.5C 396.884,426.747 370.217,428.414 343.5,429.5C 342.833,425.833 342.167,422.167 341.5,418.5C 341.795,416.265 341.461,414.265 340.5,412.5C 340.192,407.625 340.192,402.958 340.5,398.5C 366.193,397.326 391.859,395.993 417.5,394.5 Z"/></g>
<g><path style="opacity:1" fill="#e6ada2" d="M 172.5,399.5 C 173.299,402.43 173.632,405.43 173.5,408.5C 173.5,412.5 173.5,416.5 173.5,420.5C 159.167,417.833 144.833,415.167 130.5,412.5C 130.768,410.901 130.434,409.568 129.5,408.5C 129.007,406.194 128.674,403.861 128.5,401.5C 133.103,399.575 137.77,397.742 142.5,396C 152.99,393.406 162.99,394.573 172.5,399.5 Z"/></g>
<g><path style="opacity:1" fill="#2b2a3e" d="M 129.5,408.5 C 130.434,409.568 130.768,410.901 130.5,412.5C 130.647,417.214 130.314,421.881 129.5,426.5C 127.325,431.353 123.992,435.353 119.5,438.5C 107.167,438.5 94.8333,438.5 82.5,438.5C 79.3689,427.832 81.7023,418.665 89.5,411C 91.087,410.138 92.7536,409.471 94.5,409C 106.162,408.5 117.829,408.333 129.5,408.5 Z"/></g>
<g><path style="opacity:1" fill="#e5b8b1" d="M 130.5,412.5 C 144.833,415.167 159.167,417.833 173.5,420.5C 173.821,426.026 173.488,431.36 172.5,436.5C 172.5,435.5 172.5,434.5 172.5,433.5C 158.151,431.275 143.817,428.942 129.5,426.5C 130.314,421.881 130.647,417.214 130.5,412.5 Z"/></g>
<g><path style="opacity:1" fill="#3d3e50" d="M 341.5,418.5 C 342.167,422.167 342.833,425.833 343.5,429.5C 343.5,431.833 343.5,434.167 343.5,436.5C 342.609,437.11 341.609,437.443 340.5,437.5C 311.876,448.616 282.542,451.95 252.5,447.5C 252.391,440.804 252.724,434.137 253.5,427.5C 283.192,430.354 312.525,428.354 341.5,421.5C 341.5,420.5 341.5,419.5 341.5,418.5 Z"/></g>
<g><path style="opacity:1" fill="#e6c5be" d="M 129.5,426.5 C 143.817,428.942 158.151,431.275 172.5,433.5C 172.5,434.5 172.5,435.5 172.5,436.5C 172.5,437.167 172.5,437.833 172.5,438.5C 171.843,443.824 169.843,448.49 166.5,452.5C 166.389,451.883 166.056,451.383 165.5,451C 149.635,448.127 133.968,444.961 118.5,441.5C 118.557,440.391 118.89,439.391 119.5,438.5C 123.992,435.353 127.325,431.353 129.5,426.5 Z"/></g>
<g><path style="opacity:1" fill="#2b3844" d="M 252.5,447.5 C 282.542,451.95 311.876,448.616 340.5,437.5C 328.848,449.005 315.181,457.505 299.5,463C 291.802,465.274 284.136,467.107 276.5,468.5C 264.507,469.077 252.507,469.577 240.5,470C 233.59,472.742 228.923,477.576 226.5,484.5C 224.194,488.085 222.861,492.085 222.5,496.5C 210.829,496.667 199.162,496.5 187.5,496C 193.43,482.64 199.764,469.473 206.5,456.5C 210.477,449.225 214.977,442.225 220,435.5C 230.195,441.177 241.028,445.177 252.5,447.5 Z"/></g>
<g><path style="opacity:1" fill="#e7cdc7" d="M 118.5,441.5 C 133.968,444.961 149.635,448.127 165.5,451C 166.056,451.383 166.389,451.883 166.5,452.5C 156.717,470.053 143.384,473.219 126.5,462C 121.098,458.285 117.765,453.285 116.5,447C 116.393,444.779 117.06,442.946 118.5,441.5 Z"/></g>
<g><path style="opacity:1" fill="#525d6b" d="M 343.5,436.5 C 346.785,448.528 349.119,460.861 350.5,473.5C 325.934,471.129 301.267,469.462 276.5,468.5C 284.136,467.107 291.802,465.274 299.5,463C 315.181,457.505 328.848,449.005 340.5,437.5C 341.609,437.443 342.609,437.11 343.5,436.5 Z"/></g>
<g><path style="opacity:1" fill="#4b5664" d="M 276.5,468.5 C 301.267,469.462 325.934,471.129 350.5,473.5C 351.659,480.109 352.326,486.776 352.5,493.5C 310.477,490.587 268.477,487.587 226.5,484.5C 228.923,477.576 233.59,472.742 240.5,470C 252.507,469.577 264.507,469.077 276.5,468.5 Z"/></g>
<g><path style="opacity:1" fill="#49505e" d="M 226.5,484.5 C 268.477,487.587 310.477,490.587 352.5,493.5C 352.804,494.15 353.137,494.817 353.5,495.5C 309.838,496.5 266.172,496.833 222.5,496.5C 222.861,492.085 224.194,488.085 226.5,484.5 Z"/></g>
</svg>
