<?xml version="1.0" encoding="UTF-8"?>
<!DOCTYPE svg PUBLIC "-//W3C//DTD SVG 1.1//EN" "http://www.w3.org/Graphics/SVG/1.1/DTD/svg11.dtd">
<svg xmlns="http://www.w3.org/2000/svg" version="1.1" width="512px" height="512px" style="shape-rendering:geometricPrecision; text-rendering:geometricPrecision; image-rendering:optimizeQuality; fill-rule:evenodd; clip-rule:evenodd" xmlns:xlink="http://www.w3.org/1999/xlink">
<g><path style="opacity:1" fill="#000000" d="M 377.5,13.5 C 423.298,16.1365 451.131,39.8032 461,84.5C 464.831,127.695 446.998,157.861 407.5,175C 403.93,176.31 400.263,177.143 396.5,177.5C 396.333,204.502 396.5,231.502 397,258.5C 400.33,261.168 402.663,264.502 404,268.5C 406,281.833 406,295.167 404,308.5C 402.382,311.943 400.215,314.943 397.5,317.5C 396.667,375.83 396.167,434.164 396,492.5C 392.651,498.528 388.985,498.861 385,493.5C 384.5,436.501 384.333,379.501 384.5,322.5C 380.833,322.5 377.167,322.5 373.5,322.5C 373.667,379.501 373.5,436.501 373,493.5C 370.743,497.584 367.576,498.417 363.5,496C 362.809,494.933 362.309,493.766 362,492.5C 361.5,478.504 361.333,464.504 361.5,450.5C 341.365,448.514 325.532,439.181 314,422.5C 314.006,427.543 314.672,432.543 316,437.5C 320.012,455.214 324.179,472.88 328.5,490.5C 328.674,492.693 328.007,494.527 326.5,496C 323.901,496.769 321.401,496.602 319,495.5C 309.938,464.252 302.605,432.586 297,400.5C 282.508,380.85 268.508,360.85 255,340.5C 252.436,342.727 249.603,344.561 246.5,346C 242.943,362.275 241.776,378.775 243,395.5C 259.156,406.992 270.823,421.992 278,440.5C 282.536,456.773 287.869,472.773 294,488.5C 295.757,493.485 294.09,496.151 289,496.5C 286.966,496.646 285.299,495.98 284,494.5C 277.869,478.773 272.536,462.773 268,446.5C 261.76,429.664 251.427,415.998 237,405.5C 229.167,412 221.333,418.5 213.5,425C 207.104,428.723 200.437,429.723 193.5,428C 185.255,423.961 177.089,419.794 169,415.5C 166.967,440.171 167.467,464.838 170.5,489.5C 170.871,493.777 169.037,496.444 165,497.5C 163.108,496.87 161.441,495.87 160,494.5C 153.16,442.986 155.827,391.986 168,341.5C 175.447,312.948 187.947,286.948 205.5,263.5C 202.482,257.115 200.482,250.449 199.5,243.5C 179.187,240.428 162.02,231.428 148,216.5C 118.812,241.852 97.8123,272.852 85,309.5C 65.32,368.106 57.4866,428.273 61.5,490C 60.7502,496.634 57.4169,498.468 51.5,495.5C 45.2414,426.906 54.0747,360.24 78,295.5C 93.5066,255.35 118.673,222.85 153.5,198C 160.321,191.602 160.155,185.435 153,179.5C 147.101,168.068 144.935,155.902 146.5,143C 143.232,116.88 152.565,96.8804 174.5,83C 178.152,81.227 181.985,80.0603 186,79.5C 188.034,79.3536 189.701,80.0203 191,81.5C 195.155,105.991 208.655,123.158 231.5,133C 232.191,134.067 232.691,135.234 233,136.5C 232.533,155.835 233.199,175.168 235,194.5C 232.602,198.187 229.435,199.021 225.5,197C 223.934,194.07 223.1,190.903 223,187.5C 219.985,190.683 216.818,193.683 213.5,196.5C 214.301,199.133 215.967,200.967 218.5,202C 234.099,205.22 248.599,211.054 262,219.5C 265.789,217.277 268.123,213.943 269,209.5C 270.093,202.515 269.093,195.849 266,189.5C 263.066,183.967 259.4,178.967 255,174.5C 248.878,164.013 245.878,152.68 246,140.5C 245.203,127.14 245.369,113.807 246.5,100.5C 244.767,61.7403 225.101,46.4069 187.5,54.5C 172.286,45.6223 157.953,46.7889 144.5,58C 133.258,69.6487 126.091,83.4821 123,99.5C 120.942,110.408 119.609,121.408 119,132.5C 117.426,144.311 113.093,154.977 106,164.5C 92.6448,177.534 83.9781,193.201 80,211.5C 77.9746,223.778 81.9746,233.444 92,240.5C 94.1959,247.309 91.6959,250.143 84.5,249C 75.6779,243.198 70.5112,235.031 69,224.5C 67.3692,208.721 70.7025,194.055 79,180.5C 84.5658,171.599 90.8991,163.265 98,155.5C 103.297,147.613 106.63,138.946 108,129.5C 108.303,112.014 111.303,95.0136 117,78.5C 123.308,62.0329 134.141,49.5329 149.5,41C 162.857,35.9907 176.024,36.4907 189,42.5C 225.793,34.7118 248.126,49.0452 256,85.5C 257.669,97.634 257.836,109.801 256.5,122C 256.824,132.873 257.657,143.707 259,154.5C 260.449,159.399 262.449,164.065 265,168.5C 280.733,184.09 284.399,202.09 276,222.5C 274.954,224.09 273.787,225.59 272.5,227C 285.622,238.706 290.122,253.206 286,270.5C 291.549,280.552 299.049,288.885 308.5,295.5C 320.048,282.06 334.715,275.06 352.5,274.5C 352.975,267.903 355.809,262.57 361,258.5C 361.5,231.502 361.667,204.502 361.5,177.5C 328.04,169.542 306.874,148.875 298,115.5C 291.995,82.8469 301.162,55.3469 325.5,33C 340.881,21.043 358.214,14.543 377.5,13.5 Z M 369.5,25.5 C 413.363,24.2091 440.196,44.8758 450,87.5C 452.416,122.51 437.916,147.677 406.5,163C 370.019,174.95 340.519,165.45 318,134.5C 300.643,101.299 304.81,71.132 330.5,44C 341.954,34.4655 354.954,28.2988 369.5,25.5 Z M 373.5,47.5 C 398.071,46.2684 415.404,56.7684 425.5,79C 415.839,79.4998 406.172,79.6665 396.5,79.5C 396.896,71.747 396.396,64.0804 395,56.5C 390.906,53.5244 387.573,54.191 385,58.5C 384.05,68.9325 384.383,79.2659 386,89.5C 386.75,90.1258 387.584,90.6258 388.5,91C 401.829,91.4999 415.163,91.6666 428.5,91.5C 428.5,95.1667 428.5,98.8333 428.5,102.5C 414.402,102.035 400.402,102.535 386.5,104C 385.874,104.75 385.374,105.584 385,106.5C 384.5,119.829 384.333,133.163 384.5,146.5C 380.833,146.5 377.167,146.5 373.5,146.5C 373.965,132.402 373.465,118.402 372,104.5C 371.25,103.874 370.416,103.374 369.5,103C 356.171,102.5 342.837,102.333 329.5,102.5C 329.5,98.8333 329.5,95.1667 329.5,91.5C 343.598,91.9649 357.598,91.4649 371.5,90C 372.126,89.2496 372.626,88.4162 373,87.5C 373.5,74.1708 373.667,60.8375 373.5,47.5 Z M 359.5,50.5 C 361.473,59.7755 362.14,69.4422 361.5,79.5C 351.828,79.6665 342.161,79.4998 332.5,79C 337.937,66.0641 346.937,56.5641 359.5,50.5 Z M 180.5,92.5 C 187.563,113.576 200.896,129.576 220.5,140.5C 226.283,165.933 217.449,183.933 194,194.5C 181.283,190.978 170.949,183.978 163,173.5C 160.34,169.186 158.673,164.519 158,159.5C 157.333,148.5 157.333,137.5 158,126.5C 160.289,111.555 167.789,100.221 180.5,92.5 Z M 332.5,113.5 C 342.167,113.5 351.833,113.5 361.5,113.5C 361.666,123.506 361.5,133.506 361,143.5C 346.831,137.834 337.331,127.834 332.5,113.5 Z M 396.5,113.5 C 406.19,113.168 415.856,113.502 425.5,114.5C 420.224,128.276 410.724,137.943 397,143.5C 396.5,133.506 396.334,123.506 396.5,113.5 Z M 373.5,179.5 C 377.167,179.5 380.833,179.5 384.5,179.5C 384.5,204.5 384.5,229.5 384.5,254.5C 380.833,254.5 377.167,254.5 373.5,254.5C 373.5,229.5 373.5,204.5 373.5,179.5 Z M 168.5,196.5 C 175.221,199.855 182.221,202.689 189.5,205C 194.119,205.694 198.619,205.194 203,203.5C 206.066,207.232 209.732,210.232 214,212.5C 214.667,216.167 214.667,219.833 214,223.5C 208.772,225.771 204.106,228.771 200,232.5C 183.258,229.215 169.091,221.381 157.5,209C 163.144,206.526 166.811,202.359 168.5,196.5 Z M 225.5,215.5 C 243.706,220.58 259.206,229.914 272,243.5C 277.193,259.557 274.86,274.557 265,288.5C 256.833,277.667 247.333,268.167 236.5,260C 238.035,256.994 238.535,253.827 238,250.5C 236.392,243.047 233.726,236.047 230,229.5C 228.488,228.743 227.154,227.743 226,226.5C 225.501,222.848 225.335,219.182 225.5,215.5 Z M 215.5,235.5 C 219.09,235.544 221.59,237.211 223,240.5C 224.635,244.709 225.802,249.042 226.5,253.5C 225.696,258.79 222.696,260.623 217.5,259C 212.936,253.309 210.77,246.809 211,239.5C 212.397,237.93 213.897,236.596 215.5,235.5 Z M 371.5,265.5 C 376.511,265.334 381.511,265.501 386.5,266C 389.171,267.25 391.337,269.083 393,271.5C 394.562,281.439 394.895,291.439 394,301.5C 393.3,305.066 391.467,307.9 388.5,310C 383.254,311.506 377.921,311.839 372.5,311C 369.461,309.969 366.961,308.135 365,305.5C 363.408,295.241 363.074,284.907 364,274.5C 365.113,270.234 367.613,267.234 371.5,265.5 Z M 226.5,269.5 C 228.308,269.491 229.975,269.991 231.5,271C 241.333,278.167 249.833,286.667 257,296.5C 261.904,317.2 254.404,331.033 234.5,338C 216.836,338.5 199.17,338.667 181.5,338.5C 187.988,313.858 198.988,291.525 214.5,271.5C 218.668,272.001 222.668,271.334 226.5,269.5 Z M 280.5,284.5 C 287.487,292.486 295.154,299.819 303.5,306.5C 299.893,315.86 298.727,325.527 300,335.5C 303.333,338.167 306.667,338.167 310,335.5C 308.796,305.552 322.963,289.218 352.5,286.5C 351.947,291.236 349.281,294.403 344.5,296C 339.915,301.337 337.082,307.504 336,314.5C 335.333,336.833 335.333,359.167 336,381.5C 337.509,398.227 345.676,410.227 360.5,417.5C 361.497,424.468 361.83,431.468 361.5,438.5C 355.891,438.598 350.558,437.431 345.5,435C 340.224,432.112 335.391,428.612 331,424.5C 306.372,395.039 283.872,364.039 263.5,331.5C 268.567,321.107 271.067,310.107 271,298.5C 275.201,294.478 278.367,289.812 280.5,284.5 Z M 351.5,305.5 C 354.132,310.043 357.299,314.376 361,318.5C 361.833,347.172 361.667,375.839 360.5,404.5C 353.702,399.524 349.536,392.857 348,384.5C 347.333,360.833 347.333,337.167 348,313.5C 348.906,310.69 350.073,308.024 351.5,305.5 Z M 227.5,349.5 C 229.5,349.5 231.5,349.5 233.5,349.5C 232.041,364.802 230.874,380.135 230,395.5C 222.593,402.118 215.093,408.618 207.5,415C 203.361,417.856 199.028,418.19 194.5,416C 186.253,411.627 178.086,407.127 170,402.5C 170.651,384.922 173.151,367.588 177.5,350.5C 194.342,350.83 211.008,350.497 227.5,349.5 Z"/></g>
<g><path style="opacity:1" fill="#000000" d="M 373.5,35.5 C 405.894,35.0834 427.394,50.0834 438,80.5C 443.82,106.04 436.986,127.54 417.5,145C 391.833,163 366.167,163 340.5,145C 319.087,125.514 312.92,102.014 322,74.5C 332.172,52.15 349.338,39.15 373.5,35.5 Z M 373.5,47.5 C 373.667,60.8375 373.5,74.1708 373,87.5C 372.626,88.4162 372.126,89.2496 371.5,90C 357.598,91.4649 343.598,91.9649 329.5,91.5C 329.5,95.1667 329.5,98.8333 329.5,102.5C 342.837,102.333 356.171,102.5 369.5,103C 370.416,103.374 371.25,103.874 372,104.5C 373.465,118.402 373.965,132.402 373.5,146.5C 377.167,146.5 380.833,146.5 384.5,146.5C 384.333,133.163 384.5,119.829 385,106.5C 385.374,105.584 385.874,104.75 386.5,104C 400.402,102.535 414.402,102.035 428.5,102.5C 428.5,98.8333 428.5,95.1667 428.5,91.5C 415.163,91.6666 401.829,91.4999 388.5,91C 387.584,90.6258 386.75,90.1258 386,89.5C 384.383,79.2659 384.05,68.9325 385,58.5C 387.573,54.191 390.906,53.5244 395,56.5C 396.396,64.0804 396.896,71.747 396.5,79.5C 406.172,79.6665 415.839,79.4998 425.5,79C 415.404,56.7684 398.071,46.2684 373.5,47.5 Z M 359.5,50.5 C 346.937,56.5641 337.937,66.0641 332.5,79C 342.161,79.4998 351.828,79.6665 361.5,79.5C 362.14,69.4422 361.473,59.7755 359.5,50.5 Z M 332.5,113.5 C 337.331,127.834 346.831,137.834 361,143.5C 361.5,133.506 361.666,123.506 361.5,113.5C 351.833,113.5 342.167,113.5 332.5,113.5 Z M 396.5,113.5 C 396.334,123.506 396.5,133.506 397,143.5C 410.724,137.943 420.224,128.276 425.5,114.5C 415.856,113.502 406.19,113.168 396.5,113.5 Z"/></g>
<g><path style="opacity:1" fill="#000000" d="M 169.5,140.5 C 174.248,140.275 178.915,140.775 183.5,142C 186.791,144.332 187.291,147.165 185,150.5C 183.701,151.98 182.034,152.646 180,152.5C 176.5,152 173,151.5 169.5,151C 166.978,147.573 166.978,144.073 169.5,140.5 Z"/></g>
<g><path style="opacity:1" fill="#000000" d="M 202.5,140.5 C 205.85,140.335 209.183,140.502 212.5,141C 216.596,148.009 214.596,151.676 206.5,152C 199.841,154.306 196.341,152.14 196,145.5C 197.272,142.508 199.438,140.841 202.5,140.5 Z"/></g>
</svg>
