<?xml version="1.0" encoding="UTF-8"?>
<!DOCTYPE svg PUBLIC "-//W3C//DTD SVG 1.1//EN" "http://www.w3.org/Graphics/SVG/1.1/DTD/svg11.dtd">
<svg xmlns="http://www.w3.org/2000/svg" version="1.1" width="512px" height="512px" style="shape-rendering:geometricPrecision; text-rendering:geometricPrecision; image-rendering:optimizeQuality; fill-rule:evenodd; clip-rule:evenodd" xmlns:xlink="http://www.w3.org/1999/xlink">
<g><path style="opacity:1" fill="#020202" d="M 511.5,150.5 C 511.5,154.833 511.5,159.167 511.5,163.5C 501.42,210.391 491.253,257.391 481,304.5C 473.667,315.833 466.333,327.167 459,338.5C 455.921,341.485 452.421,342.152 448.5,340.5C 445.647,338.132 444.481,335.132 445,331.5C 453.182,319.133 460.849,306.467 468,293.5C 474.695,261.858 481.195,230.191 487.5,198.5C 481.036,198.431 474.703,197.597 468.5,196C 464.125,190.879 464.791,186.545 470.5,183C 477.487,182.998 484.487,183.165 491.5,183.5C 493.331,174.179 494.831,164.846 496,155.5C 485.721,149.281 475.555,142.948 465.5,136.5C 448.195,125.844 430.861,115.178 413.5,104.5C 410.905,110.45 408.405,116.45 406,122.5C 401.659,125.448 397.659,125.115 394,121.5C 393.237,114.511 394.737,108.011 398.5,102C 397.667,101.833 396.833,101.667 396,101.5C 384.775,102.848 373.609,104.348 362.5,106C 350,120.5 337.5,135 325,149.5C 310.576,208.694 296.076,267.861 281.5,327C 289.075,333.217 297.241,338.717 306,343.5C 309.927,339.192 313.76,334.692 317.5,330C 325.17,328.673 328.67,331.839 328,339.5C 325.29,343.753 322.457,347.92 319.5,352C 330.693,359.427 342.026,366.594 353.5,373.5C 356.598,375.892 359.931,378.058 363.5,380C 380.525,380.234 397.525,379.567 414.5,378C 419.34,369.984 424.674,362.318 430.5,355C 433.555,354.366 436.555,354.532 439.5,355.5C 441.818,357.625 442.652,360.291 442,363.5C 436.653,374.164 429.819,383.664 421.5,392C 418.576,392.988 415.576,393.654 412.5,394C 395.178,395.294 377.844,395.96 360.5,396C 330.921,378.094 301.588,359.76 272.5,341C 268.455,337.035 266.455,332.202 266.5,326.5C 267.687,319.77 268.854,313.103 270,306.5C 259.509,313.709 248.175,315.376 236,311.5C 235.167,311.833 234.333,312.167 233.5,312.5C 236.243,315.654 238.743,318.988 241,322.5C 250.812,355.75 260.312,389.083 269.5,422.5C 269.104,426.419 267.937,430.086 266,433.5C 255.197,448.296 243.697,462.462 231.5,476C 199.56,485.869 167.56,495.536 135.5,505C 125.818,506.907 118.318,503.74 113,495.5C 78.5791,446.324 43.9125,397.324 9,348.5C 7.39531,345.352 6.39531,342.019 6,338.5C 4.14538,322.978 1.97871,307.644 -0.5,292.5C -0.5,287.5 -0.5,282.5 -0.5,277.5C 9.28708,262.116 19.9538,247.283 31.5,233C 63.4638,222.734 95.4638,212.568 127.5,202.5C 127.833,201.667 128.167,200.833 128.5,200C 126.376,186.559 125.21,173.059 125,159.5C 126.432,157.561 128.265,156.228 130.5,155.5C 132.74,156.264 135.073,157.098 137.5,158C 138.126,158.75 138.626,159.584 139,160.5C 140.65,174.185 142.484,187.852 144.5,201.5C 148.37,202.868 151.536,205.202 154,208.5C 162,219.167 170,229.833 178,240.5C 178.927,243.863 178.427,246.863 176.5,249.5C 173.358,251.961 170.025,252.128 166.5,250C 157.833,238.667 149.167,227.333 140.5,216C 130.417,218.022 120.417,220.689 110.5,224C 110.043,224.414 109.709,224.914 109.5,225.5C 110.691,228.568 112.358,231.235 114.5,233.5C 115.823,236.817 117.157,240.15 118.5,243.5C 116.469,250.497 112.136,252.33 105.5,249C 101.873,242.915 98.3735,236.748 95,230.5C 94.4387,229.978 93.772,229.645 93,229.5C 75.4766,234.923 57.9766,240.423 40.5,246C 32,257.833 23.5,269.667 15,281.5C 16.8285,298.8 18.6618,316.133 20.5,333.5C 27.3053,332.091 34.1386,330.758 41,329.5C 48.4788,331.63 50.3121,336.13 46.5,343C 40.1129,344.674 33.7796,346.341 27.5,348C 61.4122,395.157 95.0789,442.491 128.5,490C 156.25,482.364 183.917,474.197 211.5,465.5C 217.566,465.034 222.733,462.701 227,458.5C 234.618,447.881 242.618,437.548 251,427.5C 252.308,425.866 253.142,424.032 253.5,422C 244.87,391.11 236.037,360.277 227,329.5C 212.758,311.347 198.758,293.013 185,274.5C 183.518,269.774 184.685,266.107 188.5,263.5C 190.857,263.337 193.19,263.503 195.5,264C 202.5,273 209.5,282 216.5,291C 225.304,293.794 234.304,295.628 243.5,296.5C 242.776,283.638 243.942,270.971 247,258.5C 249.435,253.776 253.269,252.276 258.5,254C 259.333,254.833 260.167,255.667 261,256.5C 260.28,266.166 259.447,275.833 258.5,285.5C 258.183,288.572 258.516,291.572 259.5,294.5C 265.199,292.234 270.699,289.567 276,286.5C 288.209,239.165 299.709,191.665 310.5,144C 305.604,110.126 300.438,76.2926 295,42.5C 283.614,39.4195 272.114,36.7529 260.5,34.5C 252.368,32.7735 244.201,31.1068 236,29.5C 228.62,36.0452 221.787,43.2118 215.5,51C 206.961,54.4511 202.794,51.6177 203,42.5C 207.833,37 212.667,31.5 217.5,26C 209.24,24.5482 201.073,22.7148 193,20.5C 179.772,26.8641 166.605,33.3641 153.5,40C 145.565,57.1272 138.398,74.6272 132,92.5C 132.922,104.642 134.089,116.809 135.5,129C 135.944,134.298 133.611,137.465 128.5,138.5C 125.215,138.731 122.715,137.397 121,134.5C 118.343,119.26 117.01,103.927 117,88.5C 124.189,68.4627 132.189,48.796 141,29.5C 155.265,21.6172 169.765,14.1172 184.5,7C 187.075,6.04202 189.741,5.54202 192.5,5.5C 225.889,11.6777 259.222,18.1777 292.5,25C 301.286,25.7971 307.119,30.2971 310,38.5C 314.299,67.927 318.965,97.2604 324,126.5C 332.333,116.833 340.667,107.167 349,97.5C 351.264,94.5665 354.098,92.3999 357.5,91C 375.721,87.9444 394.055,86.2777 412.5,86C 443.146,104.635 473.813,123.302 504.5,142C 507.454,144.441 509.787,147.275 511.5,150.5 Z"/></g>
<g><path style="opacity:1" fill="#c6b9b3" d="M 260.5,34.5 C 262.3,36.8283 263.467,39.495 264,42.5C 265.236,49.1204 266.069,55.7871 266.5,62.5C 266.394,65.0786 267.061,67.412 268.5,69.5C 270.029,82.4405 272.029,95.2739 274.5,108C 274.272,108.399 273.938,108.565 273.5,108.5C 269.513,106.832 265.846,107.332 262.5,110C 252.333,120.167 242.167,130.333 232,140.5C 231.667,124.833 231.333,109.167 231,93.5C 226.283,86.8483 221.617,86.8483 217,93.5C 216.667,109.5 216.333,125.5 216,141.5C 205.167,130.667 194.333,119.833 183.5,109C 174.017,106.483 170.517,109.983 173,119.5C 186.347,132.681 199.514,146.014 212.5,159.5C 199.847,172.653 187.014,185.653 174,198.5C 169.729,207.453 172.562,211.62 182.5,211C 193.971,200.53 205.137,189.697 216,178.5C 216.333,194.167 216.667,209.833 217,225.5C 219.64,230.453 223.473,231.62 228.5,229C 229.893,227.829 230.727,226.329 231,224.5C 231.333,209.167 231.667,193.833 232,178.5C 242.5,189 253,199.5 263.5,210C 272.758,213.295 276.591,210.128 275,200.5C 261.319,186.986 247.819,173.319 234.5,159.5C 248.188,146.479 261.521,133.146 274.5,119.5C 275.117,119.611 275.617,119.944 276,120.5C 279.026,141.513 282.192,162.513 285.5,183.5C 278.437,216.739 270.937,249.739 263,282.5C 261.871,284.141 260.371,285.141 258.5,285.5C 259.447,275.833 260.28,266.166 261,256.5C 260.167,255.667 259.333,254.833 258.5,254C 253.269,252.276 249.435,253.776 247,258.5C 243.942,270.971 242.776,283.638 243.5,296.5C 234.304,295.628 225.304,293.794 216.5,291C 209.5,282 202.5,273 195.5,264C 193.19,263.503 190.857,263.337 188.5,263.5C 187.325,263.719 186.325,263.386 185.5,262.5C 182.059,258.406 179.059,254.073 176.5,249.5C 178.427,246.863 178.927,243.863 178,240.5C 170,229.833 162,219.167 154,208.5C 151.536,205.202 148.37,202.868 144.5,201.5C 142.484,187.852 140.65,174.185 139,160.5C 138.626,159.584 138.126,158.75 137.5,158C 135.073,157.098 132.74,156.264 130.5,155.5C 130.124,149.783 129.457,144.116 128.5,138.5C 133.611,137.465 135.944,134.298 135.5,129C 134.089,116.809 132.922,104.642 132,92.5C 138.398,74.6272 145.565,57.1272 153.5,40C 166.605,33.3641 179.772,26.8641 193,20.5C 201.073,22.7148 209.24,24.5482 217.5,26C 212.667,31.5 207.833,37 203,42.5C 202.794,51.6177 206.961,54.4511 215.5,51C 221.787,43.2118 228.62,36.0452 236,29.5C 244.201,31.1068 252.368,32.7735 260.5,34.5 Z"/></g>
<g><path style="opacity:1" fill="#b3a6a6" d="M 260.5,34.5 C 272.114,36.7529 283.614,39.4195 295,42.5C 300.438,76.2926 305.604,110.126 310.5,144C 299.709,191.665 288.209,239.165 276,286.5C 270.699,289.567 265.199,292.234 259.5,294.5C 258.516,291.572 258.183,288.572 258.5,285.5C 260.371,285.141 261.871,284.141 263,282.5C 270.937,249.739 278.437,216.739 285.5,183.5C 282.192,162.513 279.026,141.513 276,120.5C 275.617,119.944 275.117,119.611 274.5,119.5C 275.955,115.681 275.622,112.015 273.5,108.5C 273.938,108.565 274.272,108.399 274.5,108C 272.029,95.2739 270.029,82.4405 268.5,69.5C 277.936,73.7035 282.103,70.7035 281,60.5C 275.26,54.7487 270.427,55.4154 266.5,62.5C 266.069,55.7871 265.236,49.1204 264,42.5C 263.467,39.495 262.3,36.8283 260.5,34.5 Z"/></g>
<g><path style="opacity:1" fill="#090808" d="M 268.5,69.5 C 267.061,67.412 266.394,65.0786 266.5,62.5C 270.427,55.4154 275.26,54.7487 281,60.5C 282.103,70.7035 277.936,73.7035 268.5,69.5 Z"/></g>
<g><path style="opacity:1" fill="#060605" d="M 252.5,66.5 C 259.657,66.155 262.824,69.4884 262,76.5C 257.333,83.1667 252.667,83.1667 248,76.5C 246.571,71.7833 248.071,68.45 252.5,66.5 Z"/></g>
<g><path style="opacity:1" fill="#050404" d="M 273.5,108.5 C 275.622,112.015 275.955,115.681 274.5,119.5C 261.521,133.146 248.188,146.479 234.5,159.5C 247.819,173.319 261.319,186.986 275,200.5C 276.591,210.128 272.758,213.295 263.5,210C 253,199.5 242.5,189 232,178.5C 231.667,193.833 231.333,209.167 231,224.5C 230.727,226.329 229.893,227.829 228.5,229C 223.473,231.62 219.64,230.453 217,225.5C 216.667,209.833 216.333,194.167 216,178.5C 205.137,189.697 193.971,200.53 182.5,211C 172.562,211.62 169.729,207.453 174,198.5C 187.014,185.653 199.847,172.653 212.5,159.5C 199.514,146.014 186.347,132.681 173,119.5C 170.517,109.983 174.017,106.483 183.5,109C 194.333,119.833 205.167,130.667 216,141.5C 216.333,125.5 216.667,109.5 217,93.5C 221.617,86.8483 226.283,86.8483 231,93.5C 231.333,109.167 231.667,124.833 232,140.5C 242.167,130.333 252.333,120.167 262.5,110C 265.846,107.332 269.513,106.832 273.5,108.5 Z"/></g>
<g><path style="opacity:1" fill="#c6b9b3" d="M 465.5,136.5 C 466.723,138.872 467.723,141.372 468.5,144C 458.252,190.74 448.418,237.24 439,283.5C 431.806,296.535 423.973,309.201 415.5,321.5C 415.702,319.011 415.202,316.677 414,314.5C 405.833,302.833 397.667,291.167 389.5,279.5C 403.427,275.48 417.427,271.646 431.5,268C 436.418,266.089 438.251,262.589 437,257.5C 430.878,230.095 424.545,202.762 418,175.5C 414.888,172.277 411.388,171.777 407.5,174C 384.577,191.379 361.743,208.879 339,226.5C 338.245,229.303 338.578,231.97 340,234.5C 348.167,246.167 356.333,257.833 364.5,269.5C 350.232,273.484 335.899,277.317 321.5,281C 316.566,283.665 315.399,287.498 318,292.5C 319.594,294.297 321.594,295.297 324,295.5C 337.162,292.749 350.162,289.416 363,285.5C 363.5,285.833 364,286.167 364.5,286.5C 362.353,291.958 360.353,297.458 358.5,303C 360.584,310.662 365.084,312.495 372,308.5C 374.333,302.5 376.667,296.5 379,290.5C 386.333,301.167 393.667,311.833 401,322.5C 403.697,325.87 407.197,327.204 411.5,326.5C 402.327,342.093 392.327,357.26 381.5,372C 372.191,372.998 362.858,373.498 353.5,373.5C 342.026,366.594 330.693,359.427 319.5,352C 322.457,347.92 325.29,343.753 328,339.5C 328.67,331.839 325.17,328.673 317.5,330C 313.76,334.692 309.927,339.192 306,343.5C 297.241,338.717 289.075,333.217 281.5,327C 296.076,267.861 310.576,208.694 325,149.5C 337.5,135 350,120.5 362.5,106C 373.609,104.348 384.775,102.848 396,101.5C 396.833,101.667 397.667,101.833 398.5,102C 394.737,108.011 393.237,114.511 394,121.5C 397.659,125.115 401.659,125.448 406,122.5C 408.405,116.45 410.905,110.45 413.5,104.5C 430.861,115.178 448.195,125.844 465.5,136.5 Z"/></g>
<g><path style="opacity:1" fill="#b4a7a7" d="M 465.5,136.5 C 475.555,142.948 485.721,149.281 496,155.5C 494.831,164.846 493.331,174.179 491.5,183.5C 484.487,183.165 477.487,182.998 470.5,183C 464.791,186.545 464.125,190.879 468.5,196C 474.703,197.597 481.036,198.431 487.5,198.5C 481.195,230.191 474.695,261.858 468,293.5C 460.849,306.467 453.182,319.133 445,331.5C 444.481,335.132 445.647,338.132 448.5,340.5C 445.237,345.362 442.237,350.362 439.5,355.5C 436.555,354.532 433.555,354.366 430.5,355C 424.674,362.318 419.34,369.984 414.5,378C 397.525,379.567 380.525,380.234 363.5,380C 359.931,378.058 356.598,375.892 353.5,373.5C 362.858,373.498 372.191,372.998 381.5,372C 392.327,357.26 402.327,342.093 411.5,326.5C 412.864,324.809 414.197,323.142 415.5,321.5C 423.973,309.201 431.806,296.535 439,283.5C 448.418,237.24 458.252,190.74 468.5,144C 467.723,141.372 466.723,138.872 465.5,136.5 Z"/></g>
<g><path style="opacity:1" fill="#060505" d="M 386.5,144.5 C 393.669,143.513 397.169,146.513 397,153.5C 393.797,158.916 389.464,159.916 384,156.5C 381.523,151.669 382.356,147.669 386.5,144.5 Z"/></g>
<g><path style="opacity:1" fill="#0b0a0a" d="M 359.5,148.5 C 369.11,148.936 371.776,153.436 367.5,162C 359.048,165.202 354.881,162.368 355,153.5C 356.366,151.638 357.866,149.972 359.5,148.5 Z"/></g>
<g><path style="opacity:1" fill="#030303" d="M 415.5,321.5 C 414.197,323.142 412.864,324.809 411.5,326.5C 407.197,327.204 403.697,325.87 401,322.5C 393.667,311.833 386.333,301.167 379,290.5C 376.667,296.5 374.333,302.5 372,308.5C 365.084,312.495 360.584,310.662 358.5,303C 360.353,297.458 362.353,291.958 364.5,286.5C 364,286.167 363.5,285.833 363,285.5C 350.162,289.416 337.162,292.749 324,295.5C 321.594,295.297 319.594,294.297 318,292.5C 315.399,287.498 316.566,283.665 321.5,281C 335.899,277.317 350.232,273.484 364.5,269.5C 356.333,257.833 348.167,246.167 340,234.5C 338.578,231.97 338.245,229.303 339,226.5C 361.743,208.879 384.577,191.379 407.5,174C 411.388,171.777 414.888,172.277 418,175.5C 424.545,202.762 430.878,230.095 437,257.5C 438.251,262.589 436.418,266.089 431.5,268C 417.427,271.646 403.427,275.48 389.5,279.5C 397.667,291.167 405.833,302.833 414,314.5C 415.202,316.677 415.702,319.011 415.5,321.5 Z"/></g>
<g><path style="opacity:1" fill="#c4b7b1" d="M 394.5,202.5 C 395.043,202.56 395.376,202.893 395.5,203.5C 388.883,221.691 381.883,239.691 374.5,257.5C 368.11,249.109 362.11,240.442 356.5,231.5C 369.185,221.809 381.852,212.143 394.5,202.5 Z"/></g>
<g><path style="opacity:1" fill="#c2b5b0" d="M 409.5,207.5 C 413.257,219.863 416.424,232.529 419,245.5C 419.997,248.801 420.33,252.134 420,255.5C 410.128,257.927 400.295,260.593 390.5,263.5C 389.628,261.534 389.795,259.534 391,257.5C 397.458,240.921 403.625,224.255 409.5,207.5 Z"/></g>
<g><path style="opacity:1" fill="#b3a6a6" d="M 176.5,249.5 C 179.059,254.073 182.059,258.406 185.5,262.5C 186.325,263.386 187.325,263.719 188.5,263.5C 184.685,266.107 183.518,269.774 185,274.5C 198.758,293.013 212.758,311.347 227,329.5C 236.037,360.277 244.87,391.11 253.5,422C 253.142,424.032 252.308,425.866 251,427.5C 242.618,437.548 234.618,447.881 227,458.5C 222.733,462.701 217.566,465.034 211.5,465.5C 216.843,458.653 222.01,451.653 227,444.5C 226.396,434.753 224.229,425.419 220.5,416.5C 220.606,413.921 219.939,411.588 218.5,409.5C 212.783,387.62 206.616,365.953 200,344.5C 190.388,331.584 180.555,318.917 170.5,306.5C 170.93,303.138 169.93,300.305 167.5,298C 163.759,296.986 160.093,296.153 156.5,295.5C 158.527,295.662 160.527,295.495 162.5,295C 146.636,274.769 131.136,254.269 116,233.5C 115.31,232.262 114.81,232.262 114.5,233.5C 112.358,231.235 110.691,228.568 109.5,225.5C 109.709,224.914 110.043,224.414 110.5,224C 120.417,220.689 130.417,218.022 140.5,216C 149.167,227.333 157.833,238.667 166.5,250C 170.025,252.128 173.358,251.961 176.5,249.5 Z"/></g>
<g><path style="opacity:1" fill="#c6b9b4" d="M 114.5,233.5 C 114.81,232.262 115.31,232.262 116,233.5C 131.136,254.269 146.636,274.769 162.5,295C 160.527,295.495 158.527,295.662 156.5,295.5C 137.9,292.933 119.234,291.433 100.5,291C 96.9933,292.861 95.8266,295.695 97,299.5C 101.5,307.833 106,316.167 110.5,324.5C 102.333,340.833 94.1667,357.167 86,373.5C 84.6215,377.898 85.7882,381.398 89.5,384C 108.452,386.658 127.452,388.992 146.5,391C 150.793,398.419 154.96,405.919 159,413.5C 167.706,417.782 172.04,415.115 172,405.5C 167.384,398.603 163.551,391.269 160.5,383.5C 167.785,366.928 175.619,350.595 184,334.5C 185.764,327.264 182.931,323.431 175.5,323C 158.174,321.002 140.841,319.002 123.5,317C 121.752,313.501 119.752,310.168 117.5,307C 132.036,307.837 146.536,309.337 161,311.5C 165.294,311.772 168.46,310.105 170.5,306.5C 180.555,318.917 190.388,331.584 200,344.5C 206.616,365.953 212.783,387.62 218.5,409.5C 210.257,406.352 206.09,409.019 206,417.5C 208.913,422.689 213.08,423.856 218.5,421C 219.582,419.67 220.249,418.17 220.5,416.5C 224.229,425.419 226.396,434.753 227,444.5C 222.01,451.653 216.843,458.653 211.5,465.5C 183.917,474.197 156.25,482.364 128.5,490C 95.0789,442.491 61.4122,395.157 27.5,348C 33.7796,346.341 40.1129,344.674 46.5,343C 50.3121,336.13 48.4788,331.63 41,329.5C 34.1386,330.758 27.3053,332.091 20.5,333.5C 18.6618,316.133 16.8285,298.8 15,281.5C 23.5,269.667 32,257.833 40.5,246C 57.9766,240.423 75.4766,234.923 93,229.5C 93.772,229.645 94.4387,229.978 95,230.5C 98.3735,236.748 101.873,242.915 105.5,249C 112.136,252.33 116.469,250.497 118.5,243.5C 117.157,240.15 115.823,236.817 114.5,233.5 Z"/></g>
<g><path style="opacity:1" fill="#060505" d="M 209.5,249.5 C 215.766,248.117 219.433,250.45 220.5,256.5C 219.647,263.103 215.98,265.27 209.5,263C 204.248,258.506 204.248,254.006 209.5,249.5 Z"/></g>
<g><path style="opacity:1" fill="#040303" d="M 156.5,295.5 C 160.093,296.153 163.759,296.986 167.5,298C 169.93,300.305 170.93,303.138 170.5,306.5C 168.46,310.105 165.294,311.772 161,311.5C 146.536,309.337 132.036,307.837 117.5,307C 119.752,310.168 121.752,313.501 123.5,317C 140.841,319.002 158.174,321.002 175.5,323C 182.931,323.431 185.764,327.264 184,334.5C 175.619,350.595 167.785,366.928 160.5,383.5C 163.551,391.269 167.384,398.603 172,405.5C 172.04,415.115 167.706,417.782 159,413.5C 154.96,405.919 150.793,398.419 146.5,391C 127.452,388.992 108.452,386.658 89.5,384C 85.7882,381.398 84.6215,377.898 86,373.5C 94.1667,357.167 102.333,340.833 110.5,324.5C 106,316.167 101.5,307.833 97,299.5C 95.8266,295.695 96.9933,292.861 100.5,291C 119.234,291.433 137.9,292.933 156.5,295.5 Z"/></g>
<g><path style="opacity:1" fill="#c2b5af" d="M 132.5,334.5 C 133.449,333.848 134.615,333.514 136,333.5C 145.777,335.079 155.61,336.079 165.5,336.5C 161.231,347.042 156.397,357.375 151,367.5C 144.806,356.438 138.639,345.438 132.5,334.5 Z"/></g>
<g><path style="opacity:1" fill="#070606" d="M 355.5,335.5 C 363.201,335.362 366.367,339.029 365,346.5C 359.837,352.062 355.171,351.729 351,345.5C 350.077,341.017 351.577,337.683 355.5,335.5 Z"/></g>
<g><path style="opacity:1" fill="#c3b6b0" d="M 118.5,340.5 C 125.186,351.361 131.519,362.527 137.5,374C 126.466,373.459 115.466,372.293 104.5,370.5C 109.178,360.478 113.845,350.478 118.5,340.5 Z"/></g>
<g><path style="opacity:1" fill="#070706" d="M 218.5,409.5 C 219.939,411.588 220.606,413.921 220.5,416.5C 220.249,418.17 219.582,419.67 218.5,421C 213.08,423.856 208.913,422.689 206,417.5C 206.09,409.019 210.257,406.352 218.5,409.5 Z"/></g>
<g><path style="opacity:1" fill="#080707" d="M 197.5,431.5 C 203.629,430.555 207.296,433.055 208.5,439C 206.127,446.875 201.627,448.375 195,443.5C 192.511,438.757 193.345,434.757 197.5,431.5 Z"/></g>
</svg>
