<?xml version="1.0" encoding="UTF-8"?>
<!DOCTYPE svg PUBLIC "-//W3C//DTD SVG 1.1//EN" "http://www.w3.org/Graphics/SVG/1.1/DTD/svg11.dtd">
<svg xmlns="http://www.w3.org/2000/svg" version="1.1" width="512px" height="512px" style="shape-rendering:geometricPrecision; text-rendering:geometricPrecision; image-rendering:optimizeQuality; fill-rule:evenodd; clip-rule:evenodd" xmlns:xlink="http://www.w3.org/1999/xlink">
<g><path style="opacity:1" fill="#000000" d="M 511.5,150.5 C 511.5,154.833 511.5,159.167 511.5,163.5C 501.42,210.391 491.253,257.391 481,304.5C 473.667,315.833 466.333,327.167 459,338.5C 454.046,342.677 449.38,342.343 445,337.5C 444.333,334.833 444.333,332.167 445,329.5C 452.333,318.167 459.667,306.833 467,295.5C 473.585,263.242 480.418,231.075 487.5,199C 480.656,198.963 473.989,197.963 467.5,196C 463.431,188.572 465.431,183.739 473.5,181.5C 479.143,182.789 484.81,182.789 490.5,181.5C 493.104,172.986 494.604,164.32 495,155.5C 468.083,138.959 441.249,122.292 414.5,105.5C 411.503,110.837 409.003,116.504 407,122.5C 403.547,125.769 399.714,126.269 395.5,124C 393.556,122.278 392.556,120.111 392.5,117.5C 393.474,112.411 395.141,107.577 397.5,103C 386.151,103.468 374.818,104.468 363.5,106C 350.882,120.073 338.382,134.239 326,148.5C 311.5,207.833 297,267.167 282.5,326.5C 289.669,332.679 297.503,338.012 306,342.5C 309.427,338.394 312.927,334.228 316.5,330C 325.661,327.491 329.495,330.991 328,340.5C 325.5,344.333 323,348.167 320.5,352C 335.167,361.333 349.833,370.667 364.5,380C 381.245,380.054 397.912,379.054 414.5,377C 419.34,368.984 424.674,361.318 430.5,354C 438.654,352.164 442.488,355.331 442,363.5C 436.653,374.164 429.819,383.664 421.5,392C 418.576,392.988 415.576,393.654 412.5,394C 395.178,395.294 377.844,395.96 360.5,396C 330.921,378.094 301.588,359.76 272.5,341C 268.455,337.035 266.455,332.202 266.5,326.5C 267.687,319.77 268.854,313.103 270,306.5C 259.509,313.709 248.175,315.376 236,311.5C 235.167,311.833 234.333,312.167 233.5,312.5C 236.243,315.654 238.743,318.988 241,322.5C 250.812,355.75 260.312,389.083 269.5,422.5C 269.104,426.419 267.937,430.086 266,433.5C 255.197,448.296 243.697,462.462 231.5,476C 199.56,485.869 167.56,495.536 135.5,505C 127.903,506.892 121.403,505.059 116,499.5C 80.3333,449.167 44.6667,398.833 9,348.5C 7.39531,345.352 6.39531,342.019 6,338.5C 4.14538,322.978 1.97871,307.644 -0.5,292.5C -0.5,287.5 -0.5,282.5 -0.5,277.5C 9.28708,262.116 19.9538,247.283 31.5,233C 63.4638,222.734 95.4638,212.568 127.5,202.5C 127.833,201.667 128.167,200.833 128.5,200C 126.376,186.559 125.21,173.059 125,159.5C 130.862,153.806 135.862,154.473 140,161.5C 141.375,174.541 143.042,187.541 145,200.5C 148.91,202.407 152.244,205.073 155,208.5C 163.245,219.323 171.245,230.323 179,241.5C 178.82,251.33 174.32,254.163 165.5,250C 157.167,239 148.833,228 140.5,217C 130.431,218.962 120.431,221.462 110.5,224.5C 113.418,230.676 116.085,237.01 118.5,243.5C 116.909,250.963 112.575,253.129 105.5,250C 101.873,243.915 98.3735,237.748 95,231.5C 94.2753,230.941 93.4419,230.608 92.5,230.5C 75.8637,235.768 59.197,240.934 42.5,246C 41.0692,246.465 39.9025,247.299 39,248.5C 31.3333,259.5 23.6667,270.5 16,281.5C 16.9388,298.577 18.7722,315.577 21.5,332.5C 29.0914,330.789 36.758,329.956 44.5,330C 50.0582,333.741 50.7249,338.241 46.5,343.5C 40.6575,345.531 34.6575,347.031 28.5,348C 62.2218,394.722 95.5551,441.722 128.5,489C 159.922,480.641 191.255,471.641 222.5,462C 232.833,449 243.167,436 253.5,423C 244.595,392.551 235.762,362.051 227,331.5C 214.051,313.55 200.718,295.883 187,278.5C 182.669,273.73 182.503,268.897 186.5,264C 191.324,261.554 195.491,262.387 199,266.5C 205.045,274.756 211.212,282.923 217.5,291C 225.554,292.644 233.554,294.477 241.5,296.5C 241.526,283.234 243.36,270.234 247,257.5C 250.013,252.465 254.18,251.298 259.5,254C 261.444,255.722 262.444,257.889 262.5,260.5C 261.492,266.199 260.325,271.866 259,277.5C 258.171,282.864 258.337,288.198 259.5,293.5C 265.269,291.304 270.769,288.638 276,285.5C 287.642,238.598 298.809,191.598 309.5,144.5C 304.951,110.153 299.618,75.9861 293.5,42C 273.967,37.8271 254.467,33.6605 235,29.5C 228.483,38.3489 220.983,46.1822 212.5,53C 204.292,53.4524 201.125,49.6191 203,41.5C 207.355,36.6461 211.522,31.6461 215.5,26.5C 208.082,24.5162 200.582,22.8495 193,21.5C 179.663,27.418 166.496,33.7514 153.5,40.5C 146.187,57.2666 139.353,74.2666 133,91.5C 133.781,105.523 134.781,119.523 136,133.5C 133.459,138.069 129.625,139.569 124.5,138C 121.196,135.727 119.696,132.561 120,128.5C 117.895,115.229 116.895,101.896 117,88.5C 124.189,68.4627 132.189,48.796 141,29.5C 155.265,21.6172 169.765,14.1172 184.5,7C 188.741,5.54268 193.074,5.20935 197.5,6C 229.167,12.3333 260.833,18.6667 292.5,25C 301.286,25.7971 307.119,30.2971 310,38.5C 314.299,67.927 318.965,97.2604 324,126.5C 332.333,116.833 340.667,107.167 349,97.5C 351.264,94.5665 354.098,92.3999 357.5,91C 375.721,87.9444 394.055,86.2777 412.5,86C 443.146,104.635 473.813,123.302 504.5,142C 507.454,144.441 509.787,147.275 511.5,150.5 Z M 393.5,203.5 C 394.043,203.56 394.376,203.893 394.5,204.5C 387.902,221.795 381.402,239.128 375,256.5C 368.674,248.516 362.841,240.183 357.5,231.5C 369.829,222.494 381.829,213.161 393.5,203.5 Z M 409.5,208.5 C 413.148,223.715 416.814,239.049 420.5,254.5C 410.515,257.833 400.515,260.167 390.5,261.5C 397.133,243.909 403.466,226.243 409.5,208.5 Z M 133.5,335.5 C 134.793,334.842 136.293,334.508 138,334.5C 146.976,335.144 155.81,336.477 164.5,338.5C 160.272,347.955 155.772,357.289 151,366.5C 145.646,355.78 139.812,345.447 133.5,335.5 Z M 118.5,342.5 C 120.223,344.253 121.723,346.253 123,348.5C 127.933,357.033 132.267,365.7 136,374.5C 125.782,373.202 115.616,371.535 105.5,369.5C 110.117,360.6 114.451,351.6 118.5,342.5 Z"/></g>
<g><path style="opacity:1" fill="#000000" d="M 270.5,56.5 C 280.996,55.8201 284.33,60.3201 280.5,70C 270.544,74.5714 266.044,71.4047 267,60.5C 268.376,59.2949 269.542,57.9616 270.5,56.5 Z"/></g>
<g><path style="opacity:1" fill="#000000" d="M 250.5,66.5 C 257.621,64.555 261.954,67.055 263.5,74C 261.944,81.1048 257.611,83.4381 250.5,81C 245.402,76.2261 245.402,71.3928 250.5,66.5 Z"/></g>
<g><path style="opacity:1" fill="#000000" d="M 220.5,88.5 C 224.909,87.6185 228.409,88.9518 231,92.5C 231.333,108.167 231.667,123.833 232,139.5C 242.167,129.333 252.333,119.167 262.5,109C 266.84,105.545 271.007,105.712 275,109.5C 277.202,113.742 276.869,117.742 274,121.5C 261.167,134.333 248.333,147.167 235.5,160C 249,173.5 262.5,187 276,200.5C 277.285,210.55 273.119,214.05 263.5,211C 253,200.5 242.5,190 232,179.5C 231.667,195.167 231.333,210.833 231,226.5C 229.607,229.366 227.274,230.699 224,230.5C 219.652,230.666 216.985,228.666 216,224.5C 215.667,209.833 215.333,195.167 215,180.5C 204.437,191.732 193.27,202.232 181.5,212C 171.209,211.506 168.709,206.673 174,197.5C 186.681,184.986 199.181,172.319 211.5,159.5C 198.847,146.347 186.014,133.347 173,120.5C 169.458,110.054 172.958,105.887 183.5,108C 194,118.5 204.5,129 215,139.5C 215.333,124.5 215.667,109.5 216,94.5C 216.599,91.7458 218.099,89.7458 220.5,88.5 Z"/></g>
<g><path style="opacity:1" fill="#000000" d="M 386.5,143.5 C 395.152,142.986 398.652,146.986 397,155.5C 391.042,161.339 386.042,160.672 382,153.5C 381.296,149.092 382.796,145.759 386.5,143.5 Z"/></g>
<g><path style="opacity:1" fill="#000000" d="M 358.5,148.5 C 368.996,147.82 372.33,152.32 368.5,162C 358.544,166.571 354.044,163.405 355,152.5C 356.376,151.295 357.542,149.962 358.5,148.5 Z"/></g>
<g><path style="opacity:1" fill="#000000" d="M 408.5,172.5 C 414.156,171.243 417.989,173.243 420,178.5C 426.151,205.77 431.984,233.103 437.5,260.5C 437.849,263.971 436.516,266.471 433.5,268C 419.066,271.857 404.732,275.857 390.5,280C 400.177,292.362 408.844,305.362 416.5,319C 415.667,323.833 412.833,326.667 408,327.5C 405.113,327.097 402.779,325.764 401,323.5C 394.055,312.889 386.722,302.556 379,292.5C 377.057,298.328 374.724,303.995 372,309.5C 362.222,313.396 357.889,310.063 359,299.5C 360.598,295.539 362.098,291.539 363.5,287.5C 363,287.167 362.5,286.833 362,286.5C 349.813,290.13 337.48,293.13 325,295.5C 316.728,294.633 314.395,290.3 318,282.5C 318.75,281.874 319.584,281.374 320.5,281C 334.889,277.153 349.222,273.153 363.5,269C 354.331,256.327 345.665,243.327 337.5,230C 338,228.5 338.5,227 339,225.5C 362.067,207.586 385.234,189.92 408.5,172.5 Z M 393.5,203.5 C 381.829,213.161 369.829,222.494 357.5,231.5C 362.841,240.183 368.674,248.516 375,256.5C 381.402,239.128 387.902,221.795 394.5,204.5C 394.376,203.893 394.043,203.56 393.5,203.5 Z M 409.5,208.5 C 403.466,226.243 397.133,243.909 390.5,261.5C 400.515,260.167 410.515,257.833 420.5,254.5C 416.814,239.049 413.148,223.715 409.5,208.5 Z"/></g>
<g><path style="opacity:1" fill="#000000" d="M 210.5,248.5 C 220.01,248.198 223.177,252.531 220,261.5C 214.967,265.779 210.3,265.446 206,260.5C 204.309,255.131 205.809,251.131 210.5,248.5 Z"/></g>
<g><path style="opacity:1" fill="#000000" d="M 100.5,289.5 C 121.541,291.19 142.541,293.356 163.5,296C 169.653,297.465 171.82,301.298 170,307.5C 169.5,309.333 168.333,310.5 166.5,311C 152.103,310.901 137.77,309.734 123.5,307.5C 122.167,307.833 120.833,308.167 119.5,308.5C 120.611,312.435 122.944,315.269 126.5,317C 145.298,318.81 163.965,321.31 182.5,324.5C 185.04,327.039 185.874,330.039 185,333.5C 177.105,350.289 168.939,366.956 160.5,383.5C 164.333,390.5 168.167,397.5 172,404.5C 173.225,414.784 169.059,418.117 159.5,414.5C 155.04,407.082 150.707,399.582 146.5,392C 127.889,389.302 109.222,386.969 90.5,385C 85.8788,382.923 84.0454,379.423 85,374.5C 93.4387,357.956 101.605,341.289 109.5,324.5C 105.333,316.833 101.167,309.167 97,301.5C 95.5927,296.556 96.7593,292.556 100.5,289.5 Z M 133.5,335.5 C 139.812,345.447 145.646,355.78 151,366.5C 155.772,357.289 160.272,347.955 164.5,338.5C 155.81,336.477 146.976,335.144 138,334.5C 136.293,334.508 134.793,334.842 133.5,335.5 Z M 118.5,342.5 C 114.451,351.6 110.117,360.6 105.5,369.5C 115.616,371.535 125.782,373.202 136,374.5C 132.267,365.7 127.933,357.033 123,348.5C 121.723,346.253 120.223,344.253 118.5,342.5 Z"/></g>
<g><path style="opacity:1" fill="#000000" d="M 354.5,335.5 C 361.242,333.757 365.242,336.257 366.5,343C 363.359,351.827 358.192,353.327 351,347.5C 349.593,342.556 350.759,338.556 354.5,335.5 Z"/></g>
<g><path style="opacity:1" fill="#000000" d="M 209.5,407.5 C 220.598,407.186 223.598,411.853 218.5,421.5C 208.888,425.058 204.721,421.724 206,411.5C 207.376,410.295 208.542,408.962 209.5,407.5 Z"/></g>
<g><path style="opacity:1" fill="#000000" d="M 199.5,430.5 C 207.197,431.033 210.03,435.033 208,442.5C 207.5,444.333 206.333,445.5 204.5,446C 195.019,447.522 191.519,443.688 194,434.5C 195.5,432.531 197.333,431.198 199.5,430.5 Z"/></g>
</svg>
