<?xml version="1.0" encoding="UTF-8"?>
<!DOCTYPE svg PUBLIC "-//W3C//DTD SVG 1.1//EN" "http://www.w3.org/Graphics/SVG/1.1/DTD/svg11.dtd">
<svg xmlns="http://www.w3.org/2000/svg" version="1.1" width="512px" height="512px" style="shape-rendering:geometricPrecision; text-rendering:geometricPrecision; image-rendering:optimizeQuality; fill-rule:evenodd; clip-rule:evenodd" xmlns:xlink="http://www.w3.org/1999/xlink">
<g><path style="opacity:1" fill="#b6a9a9" d="M 224.5,12.5 C 223.448,12.3505 222.448,12.5172 221.5,13C 220.002,15.6637 218.002,17.8304 215.5,19.5C 202.774,16.0876 189.774,13.4209 176.5,11.5C 180.758,8.2929 185.592,6.2929 191,5.5C 202.388,7.40982 213.555,9.74316 224.5,12.5 Z"/></g>
<g><path style="opacity:1" fill="#c7bab4" d="M 176.5,11.5 C 189.774,13.4209 202.774,16.0876 215.5,19.5C 211.211,24.9605 206.711,30.2939 202,35.5C 200.5,44 204,47.5 212.5,46C 219.7,37.9694 227.033,30.1361 234.5,22.5C 242.557,24.0177 250.557,25.851 258.5,28C 261,29.1667 262.833,31 264,33.5C 267.827,57.1196 271.327,80.7862 274.5,104.5C 270.757,103.011 267.09,103.178 263.5,105C 252.667,115.833 241.833,126.667 231,137.5C 230.667,121.167 230.333,104.833 230,88.5C 225.735,82.4328 221.068,82.0994 216,87.5C 215.833,104.177 215.333,120.843 214.5,137.5C 204.014,126.514 193.348,115.681 182.5,105C 172.821,101.017 168.654,104.184 170,114.5C 184.014,128.347 197.847,142.347 211.5,156.5C 198.181,170.319 184.681,183.986 171,197.5C 168.413,202.413 169.247,206.58 173.5,210C 176.303,210.755 178.97,210.422 181.5,209C 192.667,197.833 203.833,186.667 215,175.5C 215.333,192.167 215.667,208.833 216,225.5C 221.081,230.986 225.748,230.653 230,224.5C 230.333,208.167 230.667,191.833 231,175.5C 242.167,186.667 253.333,197.833 264.5,209C 271.203,211.815 275.203,209.649 276.5,202.5C 276.378,200.209 275.545,198.209 274,196.5C 260.653,183.319 247.486,169.986 234.5,156.5C 248.188,142.479 261.855,128.479 275.5,114.5C 279.086,136.708 282.753,159.041 286.5,181.5C 278.691,214.762 271.191,248.095 264,281.5C 262.924,284.079 261.091,285.746 258.5,286.5C 258.837,277.002 260.004,267.669 262,258.5C 259.565,253.776 255.731,252.276 250.5,254C 249.333,255.167 248.167,256.333 247,257.5C 245.666,263.508 244.332,269.508 243,275.5C 242.5,281.825 242.334,288.158 242.5,294.5C 236.018,296.211 230.018,298.878 224.5,302.5C 220.779,302.089 217.112,301.422 213.5,300.5C 212.504,300.586 211.671,300.252 211,299.5C 188.667,269.833 166.333,240.167 144,210.5C 141.303,207.13 137.803,205.796 133.5,206.5C 128.341,166.559 123.841,126.559 120,86.5C 127.137,67.4215 134.47,48.4215 142,29.5C 153.003,22.5818 164.503,16.5818 176.5,11.5 Z"/></g>
<g><path style="opacity:1" fill="#9d9696" d="M 224.5,12.5 C 229.744,12.8821 234.744,13.8821 239.5,15.5C 238.221,18.1117 236.555,20.4451 234.5,22.5C 227.033,30.1361 219.7,37.9694 212.5,46C 204,47.5 200.5,44 202,35.5C 206.711,30.2939 211.211,24.9605 215.5,19.5C 218.002,17.8304 220.002,15.6637 221.5,13C 222.448,12.5172 223.448,12.3505 224.5,12.5 Z"/></g>
<g><path style="opacity:1" fill="#b5a8a8" d="M 239.5,15.5 C 257.525,18.8048 275.525,22.3048 293.5,26C 301.092,26.6736 304.926,30.8403 305,38.5C 310.068,71.81 314.901,105.143 319.5,138.5C 319.821,139.817 320.154,141.151 320.5,142.5C 308.452,193.358 295.786,244.024 282.5,294.5C 274.734,298.383 266.734,301.716 258.5,304.5C 258.5,298.5 258.5,292.5 258.5,286.5C 261.091,285.746 262.924,284.079 264,281.5C 271.191,248.095 278.691,214.762 286.5,181.5C 282.753,159.041 279.086,136.708 275.5,114.5C 276.92,111.012 276.586,107.678 274.5,104.5C 271.327,80.7862 267.827,57.1196 264,33.5C 262.833,31 261,29.1667 258.5,28C 250.557,25.851 242.557,24.0177 234.5,22.5C 236.555,20.4451 238.221,18.1117 239.5,15.5 Z"/></g>
<g><path style="opacity:1" fill="#9d9797" d="M 252.5,60.5 C 260.168,60.3321 263.335,63.9988 262,71.5C 257.333,78.1667 252.667,78.1667 248,71.5C 246.776,66.626 248.276,62.9593 252.5,60.5 Z"/></g>
<g><path style="opacity:1" fill="#9c9696" d="M 274.5,104.5 C 276.586,107.678 276.92,111.012 275.5,114.5C 261.855,128.479 248.188,142.479 234.5,156.5C 247.486,169.986 260.653,183.319 274,196.5C 275.545,198.209 276.378,200.209 276.5,202.5C 275.203,209.649 271.203,211.815 264.5,209C 253.333,197.833 242.167,186.667 231,175.5C 230.667,191.833 230.333,208.167 230,224.5C 225.748,230.653 221.081,230.986 216,225.5C 215.667,208.833 215.333,192.167 215,175.5C 203.833,186.667 192.667,197.833 181.5,209C 178.97,210.422 176.303,210.755 173.5,210C 169.247,206.58 168.413,202.413 171,197.5C 184.681,183.986 198.181,170.319 211.5,156.5C 197.847,142.347 184.014,128.347 170,114.5C 168.654,104.184 172.821,101.017 182.5,105C 193.348,115.681 204.014,126.514 214.5,137.5C 215.333,120.843 215.833,104.177 216,87.5C 221.068,82.0994 225.735,82.4328 230,88.5C 230.333,104.833 230.667,121.167 231,137.5C 241.833,126.667 252.667,115.833 263.5,105C 267.09,103.178 270.757,103.011 274.5,104.5 Z"/></g>
<g><path style="opacity:1" fill="#9c9696" d="M 420.5,91.5 C 419.784,94.5982 418.784,97.5982 417.5,100.5C 415.702,107.594 412.702,114.094 408.5,120C 399.667,121.833 396.167,118.333 398,109.5C 400.602,102.525 403.102,95.5255 405.5,88.5C 411.09,86.8163 416.09,87.8163 420.5,91.5 Z"/></g>
<g><path style="opacity:1" fill="#c7bab4" d="M 405.5,88.5 C 403.102,95.5255 400.602,102.525 398,109.5C 396.167,118.333 399.667,121.833 408.5,120C 412.702,114.094 415.702,107.594 417.5,100.5C 418.552,100.351 419.552,100.517 420.5,101C 437.034,111.515 453.701,121.849 470.5,132C 472.795,134.545 474.129,137.545 474.5,141C 463.958,189.416 453.792,237.916 444,286.5C 435.882,298.428 428.048,310.428 420.5,322.5C 420.628,320.345 420.128,318.345 419,316.5C 410.623,304.246 402.123,292.079 393.5,280C 408.445,275.847 423.445,271.847 438.5,268C 442.277,265.045 443.443,261.212 442,256.5C 435.985,228.738 429.652,201.071 423,173.5C 419.627,170.114 415.794,169.614 411.5,172C 388.423,189.621 365.256,207.121 342,224.5C 341.183,227.964 341.517,231.298 343,234.5C 351.167,246.167 359.333,257.833 367.5,269.5C 352.77,274.352 337.77,278.518 322.5,282C 317.395,286.549 317.395,291.216 322.5,296C 324.833,296.667 327.167,296.667 329.5,296C 342.208,292.929 354.874,289.763 367.5,286.5C 365.51,292.804 363.51,299.137 361.5,305.5C 363.674,312.25 368.007,314.084 374.5,311C 377.462,304.908 380.295,298.742 383,292.5C 390.913,303.325 398.58,314.325 406,325.5C 408.984,328.1 412.484,329.1 416.5,328.5C 407.055,344.545 396.722,360.045 385.5,375C 371.54,376.572 357.54,377.739 343.5,378.5C 334.228,373.221 325.228,367.554 316.5,361.5C 321.137,355.347 325.637,349.014 330,342.5C 331.005,333.506 327.172,330.339 318.5,333C 313.443,339.631 308.776,346.464 304.5,353.5C 295.723,348.608 287.057,343.441 278.5,338C 274.953,334.51 273.786,330.343 275,325.5C 277.347,315.112 279.847,304.778 282.5,294.5C 295.786,244.024 308.452,193.358 320.5,142.5C 320.154,141.151 319.821,139.817 319.5,138.5C 320.117,138.611 320.617,138.944 321,139.5C 334.049,124.573 347.216,109.739 360.5,95C 361.833,94.3333 363.167,93.6667 364.5,93C 378.154,91.3163 391.82,89.8163 405.5,88.5 Z"/></g>
<g><path style="opacity:1" fill="#b5a8a8" d="M 420.5,91.5 C 448.615,108.441 476.615,125.608 504.5,143C 507.358,144.694 509.691,146.861 511.5,149.5C 511.5,153.167 511.5,156.833 511.5,160.5C 509.373,168.47 507.373,176.47 505.5,184.5C 505.5,183.5 505.5,182.5 505.5,181.5C 495.832,180.955 486.166,180.788 476.5,181C 471.188,185.572 471.188,190.239 476.5,195C 485.55,196.396 494.55,196.562 503.5,195.5C 496.193,230.866 488.693,266.199 481,301.5C 463,329.5 445,357.5 427,385.5C 425.363,387.81 423.196,389.31 420.5,390C 403.482,391.07 386.482,392.236 369.5,393.5C 359.902,390.037 351.236,385.037 343.5,378.5C 357.54,377.739 371.54,376.572 385.5,375C 396.722,360.045 407.055,344.545 416.5,328.5C 418.29,326.728 419.623,324.728 420.5,322.5C 428.048,310.428 435.882,298.428 444,286.5C 453.792,237.916 463.958,189.416 474.5,141C 474.129,137.545 472.795,134.545 470.5,132C 453.701,121.849 437.034,111.515 420.5,101C 419.552,100.517 418.552,100.351 417.5,100.5C 418.784,97.5982 419.784,94.5982 420.5,91.5 Z"/></g>
<g><path style="opacity:1" fill="#9d9696" d="M 391.5,140.5 C 400.721,141.109 403.388,145.609 399.5,154C 389.961,157.66 385.794,154.493 387,144.5C 388.397,142.93 389.897,141.596 391.5,140.5 Z"/></g>
<g><path style="opacity:1" fill="#9d9797" d="M 362.5,145.5 C 371.543,145.031 374.71,149.031 372,157.5C 369.441,160.349 366.274,161.183 362.5,160C 355.899,155.171 355.899,150.338 362.5,145.5 Z"/></g>
<g><path style="opacity:1" fill="#9c9696" d="M 420.5,322.5 C 419.623,324.728 418.29,326.728 416.5,328.5C 412.484,329.1 408.984,328.1 406,325.5C 398.58,314.325 390.913,303.325 383,292.5C 380.295,298.742 377.462,304.908 374.5,311C 368.007,314.084 363.674,312.25 361.5,305.5C 363.51,299.137 365.51,292.804 367.5,286.5C 354.874,289.763 342.208,292.929 329.5,296C 327.167,296.667 324.833,296.667 322.5,296C 317.395,291.216 317.395,286.549 322.5,282C 337.77,278.518 352.77,274.352 367.5,269.5C 359.333,257.833 351.167,246.167 343,234.5C 341.517,231.298 341.183,227.964 342,224.5C 365.256,207.121 388.423,189.621 411.5,172C 415.794,169.614 419.627,170.114 423,173.5C 429.652,201.071 435.985,228.738 442,256.5C 443.443,261.212 442.277,265.045 438.5,268C 423.445,271.847 408.445,275.847 393.5,280C 402.123,292.079 410.623,304.246 419,316.5C 420.128,318.345 420.628,320.345 420.5,322.5 Z"/></g>
<g><path style="opacity:1" fill="#9c9696" d="M 505.5,184.5 C 505.089,188.221 504.422,191.888 503.5,195.5C 494.55,196.562 485.55,196.396 476.5,195C 471.188,190.239 471.188,185.572 476.5,181C 486.166,180.788 495.832,180.955 505.5,181.5C 505.5,182.5 505.5,183.5 505.5,184.5 Z"/></g>
<g><path style="opacity:1" fill="#c7bab4" d="M 398.5,200.5 C 399.573,201.251 399.74,202.251 399,203.5C 392.445,221.609 385.612,239.609 378.5,257.5C 372.005,248.829 365.672,239.996 359.5,231C 372.569,220.814 385.569,210.647 398.5,200.5 Z"/></g>
<g><path style="opacity:1" fill="#b5a8a8" d="M 133.5,206.5 C 137.803,205.796 141.303,207.13 144,210.5C 166.333,240.167 188.667,269.833 211,299.5C 211.671,300.252 212.504,300.586 213.5,300.5C 220.314,310.108 227.147,319.775 234,329.5C 243.795,362.015 252.961,394.682 261.5,427.5C 261.522,429.965 261.022,432.298 260,434.5C 249.451,447.381 239.284,460.548 229.5,474C 220.437,477.855 211.103,481.021 201.5,483.5C 209.425,472.396 217.592,461.396 226,450.5C 225.67,441.187 223.67,432.187 220,423.5C 219.617,424.056 219.117,424.389 218.5,424.5C 219.994,420.975 219.661,417.642 217.5,414.5C 211.079,392.633 204.912,370.633 199,348.5C 188.964,334.404 178.464,320.737 167.5,307.5C 168.104,302.024 165.771,298.691 160.5,297.5C 142.766,273.79 124.766,250.457 106.5,227.5C 105.099,224.366 103.432,221.366 101.5,218.5C 100.675,217.614 99.675,217.281 98.5,217.5C 109.888,213.261 121.555,209.594 133.5,206.5 Z"/></g>
<g><path style="opacity:1" fill="#c7bab4" d="M 414.5,205.5 C 418.153,221.375 421.82,237.375 425.5,253.5C 425.182,254.647 424.516,255.481 423.5,256C 413.983,258.371 404.483,260.871 395,263.5C 394.5,263.167 394,262.833 393.5,262.5C 400.312,243.395 407.312,224.395 414.5,205.5 Z"/></g>
<g><path style="opacity:1" fill="#9c9696" d="M 98.5,217.5 C 99.675,217.281 100.675,217.614 101.5,218.5C 103.432,221.366 105.099,224.366 106.5,227.5C 109.778,232.224 112.112,237.391 113.5,243C 112.729,249.565 109.062,251.898 102.5,250C 101.667,249.167 100.833,248.333 100,247.5C 96.7257,241.273 93.2257,235.273 89.5,229.5C 88.6916,226.55 87.3582,223.883 85.5,221.5C 89.5948,219.721 93.9281,218.388 98.5,217.5 Z"/></g>
<g><path style="opacity:1" fill="#b6a9a9" d="M 85.5,221.5 C 87.3582,223.883 88.6916,226.55 89.5,229.5C 66.6601,235.558 43.9934,242.224 21.5,249.5C 23.4188,244.834 26.4188,241 30.5,238C 48.762,232.19 67.0954,226.69 85.5,221.5 Z"/></g>
<g><path style="opacity:1" fill="#c7bab4" d="M 106.5,227.5 C 124.766,250.457 142.766,273.79 160.5,297.5C 140.253,295.861 120.086,293.528 100,290.5C 94.2527,291.563 91.586,294.896 92,300.5C 96.7727,309.046 101.273,317.713 105.5,326.5C 97.5922,343.315 89.4255,359.982 81,376.5C 79.5568,381.212 80.7235,385.045 84.5,388C 104.162,390.61 123.828,393.11 143.5,395.5C 147.905,404.063 152.905,412.229 158.5,420C 166.667,421.167 170.167,417.667 169,409.5C 164.894,402.288 161.061,394.954 157.5,387.5C 165.664,370.505 173.831,353.505 182,336.5C 183.321,329.143 180.155,325.309 172.5,325C 154.806,323.219 137.139,321.219 119.5,319C 117.706,315.912 116.039,312.746 114.5,309.5C 115.5,309.167 116.5,308.833 117.5,308.5C 131.345,310.131 145.178,311.797 159,313.5C 162.998,313.089 165.832,311.089 167.5,307.5C 178.464,320.737 188.964,334.404 199,348.5C 204.912,370.633 211.079,392.633 217.5,414.5C 210.757,410.875 206.424,412.708 204.5,420C 205.006,427.053 208.672,429.386 215.5,427C 216.373,425.955 217.373,425.122 218.5,424.5C 219.117,424.389 219.617,424.056 220,423.5C 223.67,432.187 225.67,441.187 226,450.5C 217.592,461.396 209.425,472.396 201.5,483.5C 177.563,490.756 153.563,497.922 129.5,505C 126.366,505.79 123.366,505.457 120.5,504C 83.5597,453.566 47.2264,402.733 11.5,351.5C 21.0205,350.635 30.3539,348.802 39.5,346C 44.6785,338.842 43.0118,334.342 34.5,332.5C 26.4842,333.558 18.4842,334.725 10.5,336C 8.563,336.122 7.22967,336.955 6.5,338.5C 4.16667,323.167 1.83333,307.833 -0.5,292.5C -0.5,288.167 -0.5,283.833 -0.5,279.5C 6.44707,269.219 13.7804,259.219 21.5,249.5C 43.9934,242.224 66.6601,235.558 89.5,229.5C 93.2257,235.273 96.7257,241.273 100,247.5C 100.833,248.333 101.667,249.167 102.5,250C 109.062,251.898 112.729,249.565 113.5,243C 112.112,237.391 109.778,232.224 106.5,227.5 Z"/></g>
<g><path style="opacity:1" fill="#9c9696" d="M 207.5,249.5 C 211.257,249.071 214.757,249.737 218,251.5C 221.139,258.555 218.973,262.888 211.5,264.5C 207.036,263.703 204.703,261.036 204.5,256.5C 204.695,253.782 205.695,251.449 207.5,249.5 Z"/></g>
<g><path style="opacity:1" fill="#9d9696" d="M 258.5,286.5 C 258.5,292.5 258.5,298.5 258.5,304.5C 253.575,307.618 248.242,308.284 242.5,306.5C 242.5,302.5 242.5,298.5 242.5,294.5C 242.334,288.158 242.5,281.825 243,275.5C 244.332,269.508 245.666,263.508 247,257.5C 248.167,256.333 249.333,255.167 250.5,254C 255.731,252.276 259.565,253.776 262,258.5C 260.004,267.669 258.837,277.002 258.5,286.5 Z"/></g>
<g><path style="opacity:1" fill="#9c9696" d="M 160.5,297.5 C 165.771,298.691 168.104,302.024 167.5,307.5C 165.832,311.089 162.998,313.089 159,313.5C 145.178,311.797 131.345,310.131 117.5,308.5C 116.5,308.833 115.5,309.167 114.5,309.5C 116.039,312.746 117.706,315.912 119.5,319C 137.139,321.219 154.806,323.219 172.5,325C 180.155,325.309 183.321,329.143 182,336.5C 173.831,353.505 165.664,370.505 157.5,387.5C 161.061,394.954 164.894,402.288 169,409.5C 170.167,417.667 166.667,421.167 158.5,420C 152.905,412.229 147.905,404.063 143.5,395.5C 123.828,393.11 104.162,390.61 84.5,388C 80.7235,385.045 79.5568,381.212 81,376.5C 89.4255,359.982 97.5922,343.315 105.5,326.5C 101.273,317.713 96.7727,309.046 92,300.5C 91.586,294.896 94.2527,291.563 100,290.5C 120.086,293.528 140.253,295.861 160.5,297.5 Z"/></g>
<g><path style="opacity:1" fill="#b6a9a9" d="M 242.5,294.5 C 242.5,298.5 242.5,302.5 242.5,306.5C 236.302,305.53 230.302,304.196 224.5,302.5C 230.018,298.878 236.018,296.211 242.5,294.5 Z"/></g>
<g><path style="opacity:1" fill="#9d9696" d="M 316.5,361.5 C 312.119,359.316 308.119,356.65 304.5,353.5C 308.776,346.464 313.443,339.631 318.5,333C 327.172,330.339 331.005,333.506 330,342.5C 325.637,349.014 321.137,355.347 316.5,361.5 Z"/></g>
<g><path style="opacity:1" fill="#9d9696" d="M 11.5,351.5 C 7.89221,347.945 6.22554,343.612 6.5,338.5C 7.22967,336.955 8.563,336.122 10.5,336C 18.4842,334.725 26.4842,333.558 34.5,332.5C 43.0118,334.342 44.6785,338.842 39.5,346C 30.3539,348.802 21.0205,350.635 11.5,351.5 Z"/></g>
<g><path style="opacity:1" fill="#c7bab4" d="M 129.5,336.5 C 140.523,337.253 151.523,338.253 162.5,339.5C 158.231,350.042 153.397,360.375 148,370.5C 141.554,359.272 135.388,347.939 129.5,336.5 Z"/></g>
<g><path style="opacity:1" fill="#9d9696" d="M 357.5,338.5 C 368.818,337.99 371.485,342.49 365.5,352C 356.895,354.734 353.062,351.567 354,342.5C 355.032,340.973 356.199,339.64 357.5,338.5 Z"/></g>
<g><path style="opacity:1" fill="#c6b9b4" d="M 114.5,343.5 C 121.266,354.855 127.933,366.355 134.5,378C 122.748,377.573 111.081,376.239 99.5,374C 104.911,364.011 109.911,353.845 114.5,343.5 Z"/></g>
<g><path style="opacity:1" fill="#9c9696" d="M 217.5,414.5 C 219.661,417.642 219.994,420.975 218.5,424.5C 217.373,425.122 216.373,425.955 215.5,427C 208.672,429.386 205.006,427.053 204.5,420C 206.424,412.708 210.757,410.875 217.5,414.5 Z"/></g>
<g><path style="opacity:1" fill="#9d9797" d="M 197.5,436.5 C 205.179,437.018 208.012,441.018 206,448.5C 202.336,453.124 198.169,453.624 193.5,450C 190.025,443.963 191.359,439.463 197.5,436.5 Z"/></g>
</svg>
