<?xml version="1.0" encoding="UTF-8"?>
<!DOCTYPE svg PUBLIC "-//W3C//DTD SVG 1.1//EN" "http://www.w3.org/Graphics/SVG/1.1/DTD/svg11.dtd">
<svg xmlns="http://www.w3.org/2000/svg" version="1.1" width="512px" height="512px" style="shape-rendering:geometricPrecision; text-rendering:geometricPrecision; image-rendering:optimizeQuality; fill-rule:evenodd; clip-rule:evenodd" xmlns:xlink="http://www.w3.org/1999/xlink">
<g><path style="opacity:1" fill="#c18975" d="M 232.5,-0.5 C 247.5,-0.5 262.5,-0.5 277.5,-0.5C 307.689,2.46612 336.689,10.2995 364.5,23C 373.261,27.2976 381.594,32.131 389.5,37.5C 403.145,60.1472 412.978,84.4805 419,110.5C 420.42,116.765 421.254,123.098 421.5,129.5C 408.61,136.528 396.11,144.195 384,152.5C 382.885,160.718 386.385,164.218 394.5,163C 404.055,157.272 413.722,151.772 423.5,146.5C 423.833,146.5 424.167,146.5 424.5,146.5C 424.864,154.007 425.53,161.341 426.5,168.5C 425.833,169.167 425.167,169.833 424.5,170.5C 418.194,173.988 411.86,177.488 405.5,181C 399.32,187.937 400.653,192.771 409.5,195.5C 415.086,193.373 420.42,190.707 425.5,187.5C 424.157,202.934 422.157,218.267 419.5,233.5C 418.659,235.379 418.325,237.379 418.5,239.5C 411.314,263.873 401.481,287.207 389,309.5C 385.39,315.077 381.557,320.41 377.5,325.5C 407.645,265.08 400.811,209.413 357,158.5C 309.286,113.685 255.119,103.852 194.5,129C 139.395,159.028 113.229,205.528 116,268.5C 122.976,323.34 151.476,362.174 201.5,385C 242.292,400.384 282.292,398.551 321.5,379.5C 319.599,381.796 317.266,383.629 314.5,385C 298.583,393.123 282.25,400.456 265.5,407C 249.595,411.513 233.595,415.513 217.5,419C 209.286,420.876 200.953,421.709 192.5,421.5C 194.639,418.034 196.305,414.367 197.5,410.5C 196.04,403.951 192.04,401.784 185.5,404C 181.181,409.809 177.515,415.976 174.5,422.5C 172.108,425.598 169.942,428.931 168,432.5C 166.434,429.248 164.601,426.248 162.5,423.5C 160.265,417.191 157.598,411.024 154.5,405C 156.533,401.102 158.7,397.268 161,393.5C 162.218,385.385 158.718,381.885 150.5,383C 149.333,384.167 148.167,385.333 147,386.5C 140.476,398.221 133.976,409.888 127.5,421.5C 127.167,421.5 126.833,421.5 126.5,421.5C 106.211,419.43 86.8774,414.263 68.5,406C 57.8636,400.183 47.1969,394.683 36.5,389.5C 15.9522,355.19 3.6189,318.19 -0.5,278.5C -0.5,263.167 -0.5,247.833 -0.5,232.5C 12.4486,132.729 64.4486,61.5622 155.5,19C 180.379,8.86392 206.046,2.36392 232.5,-0.5 Z"/></g>
<g><path style="opacity:1" fill="#f9df76" d="M 232.5,18.5 C 234.989,18.2978 237.323,18.7978 239.5,20C 245,24.1667 250.5,28.3333 256,32.5C 261.833,28 267.667,23.5 273.5,19C 281.667,17.8333 285.167,21.3333 284,29.5C 279.123,34.046 273.956,38.2127 268.5,42C 273.941,45.8068 279.108,49.9735 284,54.5C 284.79,57.634 284.457,60.634 283,63.5C 278.255,67.1224 273.422,70.6224 268.5,74C 273.424,77.713 278.258,81.5463 283,85.5C 285.734,94.1046 282.567,97.938 273.5,97C 267.635,92.5734 261.635,88.4067 255.5,84.5C 249.055,88.4346 242.722,92.6013 236.5,97C 228.839,97.6699 225.673,94.1699 227,86.5C 231.877,81.954 237.044,77.7873 242.5,74C 237.379,70.5473 232.546,66.7139 228,62.5C 226,59.5 226,56.5 228,53.5C 233.106,50.0277 237.94,46.1944 242.5,42C 237.533,37.9416 232.7,33.7749 228,29.5C 226.393,24.4383 227.893,20.7716 232.5,18.5 Z"/></g>
<g><path style="opacity:1" fill="#bb765d" d="M 389.5,37.5 C 449.165,74.4197 487.665,127.086 505,195.5C 507.62,207.897 509.787,220.23 511.5,232.5C 511.5,247.833 511.5,263.167 511.5,278.5C 498.551,378.271 446.551,449.438 355.5,492C 330.622,502.136 304.955,508.636 278.5,511.5C 263.5,511.5 248.5,511.5 233.5,511.5C 148.334,501.943 82.6677,461.277 36.5,389.5C 47.1969,394.683 57.8636,400.183 68.5,406C 86.8774,414.263 106.211,419.43 126.5,421.5C 122.151,428.697 118.484,436.197 115.5,444C 115.956,448.456 118.456,450.956 123,451.5C 125.923,451.205 128.257,449.871 130,447.5C 135.033,439.432 139.533,431.098 143.5,422.5C 144.117,422.389 144.617,422.056 145,421.5C 145.278,422.416 145.778,423.082 146.5,423.5C 150.157,432.15 153.824,440.817 157.5,449.5C 154.91,454.349 152.576,459.349 150.5,464.5C 153.18,472.594 158.013,474.261 165,469.5C 174.089,453.927 182.923,438.261 191.5,422.5C 192.167,422.5 192.5,422.167 192.5,421.5C 200.953,421.709 209.286,420.876 217.5,419C 233.595,415.513 249.595,411.513 265.5,407C 282.25,400.456 298.583,393.123 314.5,385C 317.266,383.629 319.599,381.796 321.5,379.5C 345.067,366.6 363.734,348.6 377.5,325.5C 381.557,320.41 385.39,315.077 389,309.5C 401.481,287.207 411.314,263.873 418.5,239.5C 420.604,244.811 424.604,246.977 430.5,246C 437.458,256.749 444.292,267.582 451,278.5C 455.264,281.345 459.264,281.012 463,277.5C 469.333,267.167 475.667,256.833 482,246.5C 484.74,245.718 487.574,245.218 490.5,245C 494.212,242.487 495.378,238.987 494,234.5C 493.5,232.667 492.333,231.5 490.5,231C 467.833,230.333 445.167,230.333 422.5,231C 421.627,232.045 420.627,232.878 419.5,233.5C 422.157,218.267 424.157,202.934 425.5,187.5C 435.139,182.012 444.806,176.512 454.5,171C 456.917,168.521 457.917,165.521 457.5,162C 455.76,149.489 453.927,136.989 452,124.5C 450.46,119.147 446.96,116.981 441.5,118C 434.77,121.357 428.437,125.19 422.5,129.5C 422.167,129.5 421.833,129.5 421.5,129.5C 421.254,123.098 420.42,116.765 419,110.5C 412.978,84.4805 403.145,60.1472 389.5,37.5 Z"/></g>
<g><path style="opacity:1" fill="#f9df76" d="M 154.5,42.5 C 159.814,41.7397 163.647,43.7397 166,48.5C 175.667,65.5 185.333,82.5 195,99.5C 194.972,106.529 191.472,109.696 184.5,109C 182.291,107.127 180.458,104.96 179,102.5C 172.586,90.6705 165.92,79.0038 159,67.5C 157.46,71.4192 155.293,74.9192 152.5,78C 148.833,78.3333 145.167,78.6667 141.5,79C 148.793,91.0844 155.959,103.251 163,115.5C 164.167,123.667 160.667,127.167 152.5,126C 150.291,124.127 148.458,121.96 147,119.5C 138.586,104.337 129.919,89.3365 121,74.5C 117.211,69.4216 117.711,64.9216 122.5,61C 129.869,60.7998 137.203,61.2998 144.5,62.5C 146.509,55.1216 149.842,48.4549 154.5,42.5 Z"/></g>
<g><path style="opacity:1" fill="#f9df76" d="M 353.5,43.5 C 361.532,43.5351 364.866,47.5351 363.5,55.5C 371.174,55.3336 378.841,55.5003 386.5,56C 393.167,60.6667 393.167,65.3333 386.5,70C 375.485,70.1676 364.485,70.6676 353.5,71.5C 351.707,74.2511 350.041,77.0844 348.5,80C 356.936,80.0605 365.269,80.7271 373.5,82C 376.886,85.3731 377.386,89.2064 375,93.5C 374.25,94.1258 373.416,94.6258 372.5,95C 361.5,95.3333 350.5,95.6667 339.5,96C 336.749,100.837 333.749,105.503 330.5,110C 323.797,112.815 319.797,110.649 318.5,103.5C 319.099,100.298 320.266,97.2978 322,94.5C 331.333,78.5 340.667,62.5 350,46.5C 351.145,45.3636 352.312,44.3636 353.5,43.5 Z"/></g>
<g><path style="opacity:1" fill="#c38c76" d="M 254.5,52.5 C 257.833,53.6409 260.833,55.4742 263.5,58C 261.017,60.4062 258.35,62.5729 255.5,64.5C 252.65,62.5729 249.983,60.4062 247.5,58C 250.02,56.3029 252.353,54.4695 254.5,52.5 Z"/></g>
<g><path style="opacity:1" fill="#897c88" d="M 377.5,325.5 C 363.734,348.6 345.067,366.6 321.5,379.5C 282.292,398.551 242.292,400.384 201.5,385C 151.476,362.174 122.976,323.34 116,268.5C 113.229,205.528 139.395,159.028 194.5,129C 255.119,103.852 309.286,113.685 357,158.5C 400.811,209.413 407.645,265.08 377.5,325.5 Z"/></g>
<g><path style="opacity:1" fill="#f9cc57" d="M 425.5,187.5 C 425.822,181.642 425.489,175.975 424.5,170.5C 425.167,169.833 425.833,169.167 426.5,168.5C 431.611,165.895 436.611,163.061 441.5,160C 440.217,152.861 438.883,145.695 437.5,138.5C 432.935,140.941 428.602,143.608 424.5,146.5C 424.167,146.5 423.833,146.5 423.5,146.5C 423.24,140.828 422.907,135.161 422.5,129.5C 428.437,125.19 434.77,121.357 441.5,118C 446.96,116.981 450.46,119.147 452,124.5C 453.927,136.989 455.76,149.489 457.5,162C 457.917,165.521 456.917,168.521 454.5,171C 444.806,176.512 435.139,182.012 425.5,187.5 Z"/></g>
<g><path style="opacity:1" fill="#f9df76" d="M 79.5,127.5 C 83.9503,127.142 87.4503,128.808 90,132.5C 90.6321,146.217 91.7987,159.884 93.5,173.5C 99.2495,176.456 104.75,179.79 110,183.5C 112.601,188.502 111.434,192.335 106.5,195C 102.88,195.841 99.5464,195.174 96.5,193C 77.9199,182.796 59.7533,171.963 42,160.5C 40.5568,155.788 41.7235,151.955 45.5,149C 57.274,142.365 68.6073,135.199 79.5,127.5 Z"/></g>
<g><path style="opacity:1" fill="#f9df75" d="M 421.5,129.5 C 421.833,129.5 422.167,129.5 422.5,129.5C 422.907,135.161 423.24,140.828 423.5,146.5C 413.722,151.772 404.055,157.272 394.5,163C 386.385,164.218 382.885,160.718 384,152.5C 396.11,144.195 408.61,136.528 421.5,129.5 Z"/></g>
<g><path style="opacity:1" fill="#bb775d" d="M 426.5,168.5 C 425.53,161.341 424.864,154.007 424.5,146.5C 428.602,143.608 432.935,140.941 437.5,138.5C 438.883,145.695 440.217,152.861 441.5,160C 436.611,163.061 431.611,165.895 426.5,168.5 Z"/></g>
<g><path style="opacity:1" fill="#c58f76" d="M 74.5,148.5 C 76.4364,152.715 77.1031,157.381 76.5,162.5C 72.1184,161.141 68.1184,158.974 64.5,156C 68.0804,153.723 71.4137,151.223 74.5,148.5 Z"/></g>
<g><path style="opacity:1" fill="#645d64" d="M 256.5,204.5 C 255.833,204.5 255.167,204.5 254.5,204.5C 245.326,195.16 236.326,185.66 227.5,176C 236.033,165.966 245.367,156.799 255.5,148.5C 265.633,156.799 274.967,165.966 283.5,176C 274.674,185.66 265.674,195.16 256.5,204.5 Z"/></g>
<g><path style="opacity:1" fill="#f8de76" d="M 424.5,170.5 C 425.489,175.975 425.822,181.642 425.5,187.5C 420.42,190.707 415.086,193.373 409.5,195.5C 400.653,192.771 399.32,187.937 405.5,181C 411.86,177.488 418.194,173.988 424.5,170.5 Z"/></g>
<g><path style="opacity:1" fill="#766a76" d="M 254.5,204.5 C 255.167,204.5 255.833,204.5 256.5,204.5C 271.912,221.415 287.912,237.915 304.5,254C 305.094,254.464 305.761,254.631 306.5,254.5C 306.5,255.167 306.5,255.833 306.5,256.5C 289.585,271.912 273.085,287.912 257,304.5C 256.536,305.094 256.369,305.761 256.5,306.5C 255.833,306.5 255.167,306.5 254.5,306.5C 254.649,305.448 254.483,304.448 254,303.5C 238.5,288 223,272.5 207.5,257C 206.552,256.517 205.552,256.351 204.5,256.5C 204.5,255.833 204.5,255.167 204.5,254.5C 221.415,239.088 237.915,223.088 254,206.5C 254.464,205.906 254.631,205.239 254.5,204.5 Z"/></g>
<g><path style="opacity:1" fill="#f9de76" d="M 35.5,221.5 C 39.2194,221.002 42.5527,221.836 45.5,224C 53.1667,231.667 60.8333,239.333 68.5,247C 76.6033,247.063 84.6033,247.73 92.5,249C 95.886,252.373 96.386,256.206 94,260.5C 93.0975,261.701 91.9308,262.535 90.5,263C 83.1667,263.333 75.8333,263.667 68.5,264C 60.1368,272.697 51.4701,281.031 42.5,289C 34.3846,290.218 30.8846,286.718 32,278.5C 36.8333,273.667 41.6667,268.833 46.5,264C 39.5,263.667 32.5,263.333 25.5,263C 20.9315,260.459 19.4315,256.625 21,251.5C 22.214,249.951 23.714,248.785 25.5,248C 32.5,247.667 39.5,247.333 46.5,247C 41.6667,242.167 36.8333,237.333 32,232.5C 30.8824,228.077 32.0491,224.41 35.5,221.5 Z"/></g>
<g><path style="opacity:1" fill="#645d64" d="M 204.5,254.5 C 204.5,255.167 204.5,255.833 204.5,256.5C 195.16,265.674 185.66,274.674 176,283.5C 165.966,274.967 156.799,265.633 148.5,255.5C 156.799,245.367 165.966,236.033 176,227.5C 185.66,236.326 195.16,245.326 204.5,254.5 Z"/></g>
<g><path style="opacity:1" fill="#645d64" d="M 306.5,256.5 C 306.5,255.833 306.5,255.167 306.5,254.5C 315.84,245.326 325.34,236.326 335,227.5C 345.034,236.033 354.201,245.367 362.5,255.5C 354.201,265.633 345.034,274.967 335,283.5C 325.34,274.674 315.84,265.674 306.5,256.5 Z"/></g>
<g><path style="opacity:1" fill="#f9cd57" d="M 418.5,239.5 C 418.325,237.379 418.659,235.379 419.5,233.5C 420.627,232.878 421.627,232.045 422.5,231C 445.167,230.333 467.833,230.333 490.5,231C 492.333,231.5 493.5,232.667 494,234.5C 495.378,238.987 494.212,242.487 490.5,245C 487.574,245.218 484.74,245.718 482,246.5C 475.667,256.833 469.333,267.167 463,277.5C 459.264,281.012 455.264,281.345 451,278.5C 444.292,267.582 437.458,256.749 430.5,246C 424.604,246.977 420.604,244.811 418.5,239.5 Z"/></g>
<g><path style="opacity:1" fill="#be7c5d" d="M 449.5,245.5 C 454.214,245.173 458.88,245.507 463.5,246.5C 461.416,250.336 459.083,254.003 456.5,257.5C 453.639,253.773 451.305,249.773 449.5,245.5 Z"/></g>
<g><path style="opacity:1" fill="#645d64" d="M 254.5,306.5 C 255.167,306.5 255.833,306.5 256.5,306.5C 265.674,315.84 274.674,325.34 283.5,335C 274.967,345.034 265.633,354.201 255.5,362.5C 245.367,354.201 236.033,345.034 227.5,335C 236.326,325.34 245.326,315.84 254.5,306.5 Z"/></g>
<g><path style="opacity:1" fill="#f9cc57" d="M 404.5,315.5 C 408.131,315.16 411.464,315.994 414.5,318C 432.749,328.707 450.916,339.541 469,350.5C 469.667,353.167 469.667,355.833 469,358.5C 458.438,366.059 447.605,373.226 436.5,380C 431.368,384.734 426.535,384.567 422,379.5C 420.9,369.834 419.733,360.167 418.5,350.5C 410.388,353.39 402.388,356.556 394.5,360C 391.036,360.817 387.702,360.483 384.5,359C 381.655,354.736 381.988,350.736 385.5,347C 394.657,343.451 403.657,339.617 412.5,335.5C 409.834,333.165 406.834,331.331 403.5,330C 398.003,324.683 398.336,319.85 404.5,315.5 Z"/></g>
<g><path style="opacity:1" fill="#f8de76" d="M 54.5,332.5 C 58.6034,331.769 62.1034,332.769 65,335.5C 66.2793,342.122 66.7793,348.789 66.5,355.5C 79.6292,348.2 92.6292,340.7 105.5,333C 112.523,331.525 116.19,334.358 116.5,341.5C 116.048,352.583 115.215,363.583 114,374.5C 108.885,380.075 104.219,379.742 100,373.5C 99.6667,367.167 99.3333,360.833 99,354.5C 86.2487,362.126 73.4154,369.626 60.5,377C 52.2487,378.082 48.582,374.416 49.5,366C 50.136,356.508 50.636,347.008 51,337.5C 51.9973,335.677 53.1639,334.01 54.5,332.5 Z"/></g>
<g><path style="opacity:1" fill="#bc795d" d="M 434.5,347.5 C 438.64,349.739 442.64,352.239 446.5,355C 443.337,357.416 440.004,359.582 436.5,361.5C 435.18,356.926 434.513,352.26 434.5,347.5 Z"/></g>
<g><path style="opacity:1" fill="#f9df75" d="M 162.5,423.5 C 157.167,423.5 151.833,423.5 146.5,423.5C 145.778,423.082 145.278,422.416 145,421.5C 144.617,422.056 144.117,422.389 143.5,422.5C 137.974,422.821 132.64,422.488 127.5,421.5C 133.976,409.888 140.476,398.221 147,386.5C 148.167,385.333 149.333,384.167 150.5,383C 158.718,381.885 162.218,385.385 161,393.5C 158.7,397.268 156.533,401.102 154.5,405C 157.598,411.024 160.265,417.191 162.5,423.5 Z"/></g>
<g><path style="opacity:1" fill="#f8cc57" d="M 324.5,399.5 C 326.527,399.338 328.527,399.505 330.5,400C 343.911,404.803 357.244,409.803 370.5,415C 371.667,416.167 372.833,417.333 374,418.5C 372.476,430.469 370.809,442.469 369,454.5C 368.126,458.535 367.126,462.535 366,466.5C 362.627,469.886 358.794,470.386 354.5,468C 352.556,466.278 351.556,464.111 351.5,461.5C 354.211,449.907 356.044,438.24 357,426.5C 345.363,422.122 333.863,417.456 322.5,412.5C 320.564,409.792 320.064,406.792 321,403.5C 321.69,401.65 322.856,400.316 324.5,399.5 Z"/></g>
<g><path style="opacity:1" fill="#f9de75" d="M 192.5,421.5 C 192.5,422.167 192.167,422.5 191.5,422.5C 185.833,422.5 180.167,422.5 174.5,422.5C 177.515,415.976 181.181,409.809 185.5,404C 192.04,401.784 196.04,403.951 197.5,410.5C 196.305,414.367 194.639,418.034 192.5,421.5 Z"/></g>
<g><path style="opacity:1" fill="#f9cc57" d="M 236.5,421.5 C 238.857,421.337 241.19,421.503 243.5,422C 247.867,427.234 251.867,432.734 255.5,438.5C 259.133,432.734 263.133,427.234 267.5,422C 275.22,420.725 278.72,423.891 278,431.5C 273.5,439.167 269,446.833 264.5,454.5C 269.251,461.666 273.751,469 278,476.5C 279.361,481.274 277.861,484.774 273.5,487C 271.029,487.706 268.695,487.373 266.5,486C 262.461,480.758 258.795,475.258 255.5,469.5C 252.205,475.258 248.539,480.758 244.5,486C 235.895,488.734 232.062,485.567 233,476.5C 237.249,469 241.749,461.666 246.5,454.5C 242,446.833 237.5,439.167 233,431.5C 232.333,429.5 232.333,427.5 233,425.5C 234.376,424.295 235.542,422.962 236.5,421.5 Z"/></g>
<g><path style="opacity:1" fill="#f9cd57" d="M 126.5,421.5 C 126.833,421.5 127.167,421.5 127.5,421.5C 132.64,422.488 137.974,422.821 143.5,422.5C 139.533,431.098 135.033,439.432 130,447.5C 128.257,449.871 125.923,451.205 123,451.5C 118.456,450.956 115.956,448.456 115.5,444C 118.484,436.197 122.151,428.697 126.5,421.5 Z"/></g>
<g><path style="opacity:1" fill="#f9cd57" d="M 174.5,422.5 C 180.167,422.5 185.833,422.5 191.5,422.5C 182.923,438.261 174.089,453.927 165,469.5C 158.013,474.261 153.18,472.594 150.5,464.5C 152.576,459.349 154.91,454.349 157.5,449.5C 153.824,440.817 150.157,432.15 146.5,423.5C 151.833,423.5 157.167,423.5 162.5,423.5C 164.601,426.248 166.434,429.248 168,432.5C 169.942,428.931 172.108,425.598 174.5,422.5 Z"/></g>
</svg>
