<?xml version="1.0" encoding="UTF-8"?>
<!DOCTYPE svg PUBLIC "-//W3C//DTD SVG 1.1//EN" "http://www.w3.org/Graphics/SVG/1.1/DTD/svg11.dtd">
<svg xmlns="http://www.w3.org/2000/svg" version="1.1" width="512px" height="512px" style="shape-rendering:geometricPrecision; text-rendering:geometricPrecision; image-rendering:optimizeQuality; fill-rule:evenodd; clip-rule:evenodd" xmlns:xlink="http://www.w3.org/1999/xlink">
<g><path style="opacity:1" fill="#3e3e51" d="M 300.5,125.5 C 296.766,125.323 293.099,125.656 289.5,126.5C 289.5,125.167 289.5,123.833 289.5,122.5C 289.5,122.167 289.5,121.833 289.5,121.5C 290.238,117.538 290.905,113.538 291.5,109.5C 292.165,102.52 292.498,95.5197 292.5,88.5C 280.903,86.6418 269.237,86.1418 257.5,87C 249.282,90.93 244.616,97.43 243.5,106.5C 242.109,108.96 240.942,111.626 240,114.5C 237,118.5 234,118.5 231,114.5C 229.432,107.577 225.265,104.077 218.5,104C 216.333,104.833 214.833,106.333 214,108.5C 213.502,111.482 213.335,114.482 213.5,117.5C 213.642,120.617 214.976,123.117 217.5,125C 222.142,126.05 226.809,126.55 231.5,126.5C 223.167,127.167 214.833,127.833 206.5,128.5C 204.689,126.615 203.522,124.281 203,121.5C 196.624,115.421 192.291,108.088 190,99.5C 181.588,92.0465 172.421,85.7131 162.5,80.5C 161.564,79.0256 160.23,78.0256 158.5,77.5C 141.979,70.0908 137.146,58.0908 144,41.5C 144.804,40.1955 145.971,39.5288 147.5,39.5C 152.455,41.6446 157.122,44.3113 161.5,47.5C 161.678,44.1449 160.845,40.8116 159,37.5C 148.425,24.0799 135.592,21.2465 120.5,29C 109.534,39.4363 103.868,52.2697 103.5,67.5C 101.533,81.6883 97.5334,95.355 91.5,108.5C 86.3286,116.172 81.662,124.172 77.5,132.5C 74.0381,131.518 70.3714,131.185 66.5,131.5C 73.3201,117.86 80.1534,104.193 87,90.5C 90.6322,77.7095 93.2988,64.7095 95,51.5C 98.2039,37.3224 105.704,26.1557 117.5,18C 141.081,8.87874 158.915,15.3787 171,37.5C 172.642,42.708 173.642,48.0414 174,53.5C 179.927,57.2147 186.094,60.5481 192.5,63.5C 203.536,39.9638 222.202,27.9638 248.5,27.5C 277.641,28.4779 295.474,43.1445 302,71.5C 304.117,89.5585 303.617,107.559 300.5,125.5 Z"/></g>
<g><path style="opacity:1" fill="#67677a" d="M 234.5,39.5 C 239.844,39.334 245.177,39.5006 250.5,40C 264.375,48.238 272.375,60.4047 274.5,76.5C 271.428,76.8174 268.428,76.4841 265.5,75.5C 263.612,66.5535 259.279,59.0535 252.5,53C 246,51.5 243.5,54 245,60.5C 251.123,64.7451 253.957,70.4117 253.5,77.5C 249.933,78.9073 246.766,80.9073 244,83.5C 237.721,68.8864 227.221,58.7197 212.5,53C 218.805,46.6876 226.138,42.1876 234.5,39.5 Z"/></g>
<g><path style="opacity:1" fill="#656577" d="M 158.5,77.5 C 140.366,75.6754 122.032,73.342 103.5,70.5C 103.5,69.5 103.5,68.5 103.5,67.5C 103.868,52.2697 109.534,39.4363 120.5,29C 135.592,21.2465 148.425,24.0799 159,37.5C 160.845,40.8116 161.678,44.1449 161.5,47.5C 157.122,44.3113 152.455,41.6446 147.5,39.5C 145.971,39.5288 144.804,40.1955 144,41.5C 137.146,58.0908 141.979,70.0908 158.5,77.5 Z"/></g>
<g><path style="opacity:1" fill="#656578" d="M 275.5,48.5 C 275.897,47.475 276.563,47.3083 277.5,48C 285.512,55.8553 290.512,65.3553 292.5,76.5C 292.167,77.1667 291.833,77.8333 291.5,78.5C 289.253,77.6258 286.92,77.2924 284.5,77.5C 284.889,66.6734 281.889,57.0067 275.5,48.5 Z"/></g>
<g><path style="opacity:1" fill="#606072" d="M 205.5,62.5 C 222.973,67.4636 233.139,78.7969 236,96.5C 235.581,97.6721 234.915,98.6721 234,99.5C 231.344,97.0039 228.344,95.0039 225,93.5C 222.713,84.8819 217.38,79.2152 209,76.5C 204.794,77.5282 203.461,80.1948 205,84.5C 208.833,87 212,90.1667 214.5,94C 210.333,96.8333 206.833,100.333 204,104.5C 197.798,90.3024 198.298,76.3024 205.5,62.5 Z"/></g>
<g><path style="opacity:1" fill="#5a5a6d" d="M 103.5,67.5 C 103.5,68.5 103.5,69.5 103.5,70.5C 122.032,73.342 140.366,75.6754 158.5,77.5C 160.23,78.0256 161.564,79.0256 162.5,80.5C 161.026,81.4363 160.026,82.7697 159.5,84.5C 156.348,83.9586 153.848,84.9586 152,87.5C 147.934,97.2999 143.101,106.633 137.5,115.5C 121.951,113.709 106.618,111.375 91.5,108.5C 97.5334,95.355 101.533,81.6883 103.5,67.5 Z"/></g>
<g><path style="opacity:1" fill="#d05688" d="M 150.5,53.5 C 163.131,60.8176 176.131,67.6509 189.5,74C 189.957,74.414 190.291,74.914 190.5,75.5C 189.756,78.443 189.256,81.443 189,84.5C 178.418,76.7883 167.251,69.955 155.5,64C 152.347,61.1954 150.681,57.6954 150.5,53.5 Z"/></g>
<g><path style="opacity:1" fill="#3e3e50" d="M 159.5,84.5 C 162.144,86.516 162.977,89.1827 162,92.5C 156.072,106.041 148.905,118.707 140.5,130.5C 136.833,129.833 133.167,129.167 129.5,128.5C 131.916,123.999 134.583,119.666 137.5,115.5C 143.101,106.633 147.934,97.2999 152,87.5C 153.848,84.9586 156.348,83.9586 159.5,84.5 Z"/></g>
<g><path style="opacity:1" fill="#f8dad4" d="M 291.5,109.5 C 276.496,109.2 261.496,108.7 246.5,108C 245.263,107.768 244.263,107.268 243.5,106.5C 244.616,97.43 249.282,90.93 257.5,87C 269.237,86.1418 280.903,86.6418 292.5,88.5C 292.498,95.5197 292.165,102.52 291.5,109.5 Z"/></g>
<g><path style="opacity:1" fill="#505063" d="M 91.5,108.5 C 106.618,111.375 121.951,113.709 137.5,115.5C 134.583,119.666 131.916,123.999 129.5,128.5C 117.702,145.147 104.535,160.814 90,175.5C 86.1303,179.905 83.297,184.905 81.5,190.5C 78.4753,195.726 76.3086,201.393 75,207.5C 72.6193,202.408 71.1193,197.075 70.5,191.5C 67.4479,171.153 69.7812,151.486 77.5,132.5C 81.662,124.172 86.3286,116.172 91.5,108.5 Z"/></g>
<g><path style="opacity:1" fill="#f8d2ca" d="M 243.5,106.5 C 244.263,107.268 245.263,107.768 246.5,108C 261.496,108.7 276.496,109.2 291.5,109.5C 290.905,113.538 290.238,117.538 289.5,121.5C 264.168,120.14 238.835,118.807 213.5,117.5C 213.335,114.482 213.502,111.482 214,108.5C 214.833,106.333 216.333,104.833 218.5,104C 225.265,104.077 229.432,107.577 231,114.5C 234,118.5 237,118.5 240,114.5C 240.942,111.626 242.109,108.96 243.5,106.5 Z"/></g>
<g><path style="opacity:1" fill="#f8cac3" d="M 213.5,117.5 C 238.835,118.807 264.168,120.14 289.5,121.5C 289.5,121.833 289.5,122.167 289.5,122.5C 287.143,122.337 284.81,122.503 282.5,123C 278.98,125.237 278.647,127.904 281.5,131C 283.473,131.495 285.473,131.662 287.5,131.5C 286.79,135.025 285.79,138.358 284.5,141.5C 282.777,140.2 280.61,139.533 278,139.5C 263.504,138.687 249.004,138.02 234.5,137.5C 234.568,133.43 233.568,129.763 231.5,126.5C 226.809,126.55 222.142,126.05 217.5,125C 214.976,123.117 213.642,120.617 213.5,117.5 Z"/></g>
<g><path style="opacity:1" fill="#e28680" d="M 258.5,120.5 C 261.947,120.814 265.28,121.648 268.5,123C 270.69,127.73 269.19,130.23 264,130.5C 256.364,130.323 254.53,126.99 258.5,120.5 Z"/></g>
<g><path style="opacity:1" fill="#dd847f" d="M 289.5,122.5 C 289.5,123.833 289.5,125.167 289.5,126.5C 288.691,128.028 288.024,129.694 287.5,131.5C 285.473,131.662 283.473,131.495 281.5,131C 278.647,127.904 278.98,125.237 282.5,123C 284.81,122.503 287.143,122.337 289.5,122.5 Z"/></g>
<g><path style="opacity:1" fill="#3f3f4c" d="M 300.5,125.5 C 297.4,142.138 291.733,157.804 283.5,172.5C 281.641,174.192 279.641,175.692 277.5,177C 279.745,179.731 281.745,182.564 283.5,185.5C 276.205,187.652 267.872,188.985 258.5,189.5C 255.57,189.846 253.237,188.846 251.5,186.5C 247.697,187.104 244.031,187.77 240.5,188.5C 229.961,177.563 217.961,168.563 204.5,161.5C 202.661,163.527 202.161,165.86 203,168.5C 211.688,174.249 219.854,180.582 227.5,187.5C 222.5,187.5 217.5,187.5 212.5,187.5C 206.799,184.226 201.299,180.559 196,176.5C 189.026,180.73 182.192,185.063 175.5,189.5C 169.008,188.798 162.341,188.798 155.5,189.5C 153.469,186.471 150.803,184.138 147.5,182.5C 143.887,184.445 140.887,187.111 138.5,190.5C 134.833,189.833 131.167,189.167 127.5,188.5C 131.098,179.236 137.765,173.569 147.5,171.5C 155.714,172.538 161.548,176.871 165,184.5C 172.951,177.886 181.451,172.052 190.5,167C 192.382,161.975 193.882,156.808 195,151.5C 195.833,150.667 196.667,149.833 197.5,149C 200.468,148.83 203.301,148.664 206,148.5C 207.5,144 209,139.5 210.5,135C 208.93,132.941 207.597,130.774 206.5,128.5C 214.833,127.833 223.167,127.167 231.5,126.5C 233.568,129.763 234.568,133.43 234.5,137.5C 234.462,142.686 235.962,147.353 239,151.5C 243.856,157.02 249.356,161.853 255.5,166C 261.833,166.667 268.167,166.667 274.5,166C 279.346,158.472 282.679,150.305 284.5,141.5C 285.79,138.358 286.79,135.025 287.5,131.5C 288.024,129.694 288.691,128.028 289.5,126.5C 293.099,125.656 296.766,125.323 300.5,125.5 Z"/></g>
<g><path style="opacity:1" fill="#3e3e4b" d="M 129.5,128.5 C 133.167,129.167 136.833,129.833 140.5,130.5C 129.108,148.741 115.608,165.407 100,180.5C 97.4772,184.233 94.9772,187.899 92.5,191.5C 89.0381,190.518 85.3714,190.185 81.5,190.5C 83.297,184.905 86.1303,179.905 90,175.5C 104.535,160.814 117.702,145.147 129.5,128.5 Z"/></g>
<g><path style="opacity:1" fill="#3e3e4b" d="M 66.5,131.5 C 70.3714,131.185 74.0381,131.518 77.5,132.5C 69.7812,151.486 67.4479,171.153 70.5,191.5C 66.4975,191.036 62.8309,191.702 59.5,193.5C 56.3809,172.158 58.7142,151.492 66.5,131.5 Z"/></g>
<g><path style="opacity:1" fill="#d87e7a" d="M 221.5,136.5 C 222.5,136.5 223.5,136.5 224.5,136.5C 223.769,145.25 226.269,152.917 232,159.5C 235.682,163.349 239.515,167.016 243.5,170.5C 242.917,172.002 242.084,173.335 241,174.5C 233.235,167.399 224.901,161.066 216,155.5C 217.215,149.047 219.048,142.714 221.5,136.5 Z"/></g>
<g><path style="opacity:1" fill="#f9c0b5" d="M 234.5,137.5 C 249.004,138.02 263.504,138.687 278,139.5C 280.61,139.533 282.777,140.2 284.5,141.5C 282.679,150.305 279.346,158.472 274.5,166C 268.167,166.667 261.833,166.667 255.5,166C 249.356,161.853 243.856,157.02 239,151.5C 235.962,147.353 234.462,142.686 234.5,137.5 Z"/></g>
<g><path style="opacity:1" fill="#ceb5a4" d="M 240.5,188.5 C 242.279,190.546 243.946,192.713 245.5,195C 244,196.5 242.5,198 241,199.5C 236.331,195.663 231.831,191.663 227.5,187.5C 219.854,180.582 211.688,174.249 203,168.5C 202.161,165.86 202.661,163.527 204.5,161.5C 217.961,168.563 229.961,177.563 240.5,188.5 Z"/></g>
<g><path style="opacity:1" fill="#f7eee7" d="M 212.5,187.5 C 221.073,194.567 229.239,202.234 237,210.5C 238.996,218.814 240.829,227.147 242.5,235.5C 234.231,237.47 225.565,238.136 216.5,237.5C 216.806,234.615 216.473,231.948 215.5,229.5C 215.002,226.674 213.669,224.34 211.5,222.5C 210.552,218.112 208.219,214.612 204.5,212C 192.568,207.722 181.902,201.388 172.5,193C 173.71,191.961 174.71,190.794 175.5,189.5C 182.192,185.063 189.026,180.73 196,176.5C 201.299,180.559 206.799,184.226 212.5,187.5 Z"/></g>
<g><path style="opacity:1" fill="#ef6da0" d="M 155.5,189.5 C 160.292,196.126 165.959,201.96 172.5,207C 181.504,213.085 191.004,218.252 201,222.5C 201.667,224.167 201.667,225.833 201,227.5C 197.97,232.674 194.804,237.674 191.5,242.5C 166.312,236.267 145.979,222.934 130.5,202.5C 133.167,198.5 135.833,194.5 138.5,190.5C 140.887,187.111 143.887,184.445 147.5,182.5C 150.803,184.138 153.469,186.471 155.5,189.5 Z"/></g>
<g><path style="opacity:1" fill="#38384b" d="M 283.5,185.5 C 290.946,191.778 294.446,199.778 294,209.5C 293,211.5 292,213.5 291,215.5C 278.799,226.034 267.632,237.534 257.5,250C 261.576,263.134 265.576,276.301 269.5,289.5C 266.236,290.324 262.902,290.658 259.5,290.5C 258.167,287.5 256.833,284.5 255.5,281.5C 251.142,266.052 246.808,250.719 242.5,235.5C 240.829,227.147 238.996,218.814 237,210.5C 229.239,202.234 221.073,194.567 212.5,187.5C 217.5,187.5 222.5,187.5 227.5,187.5C 231.831,191.663 236.331,195.663 241,199.5C 242.5,198 244,196.5 245.5,195C 243.946,192.713 242.279,190.546 240.5,188.5C 244.031,187.77 247.697,187.104 251.5,186.5C 253.237,188.846 255.57,189.846 258.5,189.5C 267.872,188.985 276.205,187.652 283.5,185.5 Z"/></g>
<g><path style="opacity:1" fill="#39384b" d="M 127.5,188.5 C 131.167,189.167 134.833,189.833 138.5,190.5C 135.833,194.5 133.167,198.5 130.5,202.5C 128.533,205.477 126.533,208.477 124.5,211.5C 119.329,219.172 114.662,227.172 110.5,235.5C 109.662,235.842 109.328,236.508 109.5,237.5C 107.595,240.304 105.929,243.304 104.5,246.5C 102.013,251.473 99.5133,256.473 97,261.5C 96.3333,264.167 96.3333,266.833 97,269.5C 103.834,279.84 112.667,287.84 123.5,293.5C 115.167,293.5 106.833,293.5 98.5,293.5C 99.4124,292.262 99.5791,290.928 99,289.5C 94.6201,284.789 90.6201,279.789 87,274.5C 85.5076,269.589 85.1743,264.589 86,259.5C 97.3235,234.16 111.157,210.494 127.5,188.5 Z"/></g>
<g><path style="opacity:1" fill="#3b394c" d="M 175.5,189.5 C 174.71,190.794 173.71,191.961 172.5,193C 181.902,201.388 192.568,207.722 204.5,212C 208.219,214.612 210.552,218.112 211.5,222.5C 211.38,228.693 209.547,234.36 206,239.5C 195.606,257.055 185.439,274.721 175.5,292.5C 171.5,292.5 167.5,292.5 163.5,292.5C 165.196,289.15 166.863,285.817 168.5,282.5C 170.735,279.709 172.735,276.709 174.5,273.5C 175.847,270.807 177.18,268.14 178.5,265.5C 181.737,260.701 184.737,255.701 187.5,250.5C 189.267,248.062 190.601,245.395 191.5,242.5C 194.804,237.674 197.97,232.674 201,227.5C 201.667,225.833 201.667,224.167 201,222.5C 191.004,218.252 181.504,213.085 172.5,207C 165.959,201.96 160.292,196.126 155.5,189.5C 162.341,188.798 169.008,188.798 175.5,189.5 Z"/></g>
<g><path style="opacity:1" fill="#38384a" d="M 81.5,190.5 C 85.3714,190.185 89.0381,190.518 92.5,191.5C 86.2839,204.547 83.4506,218.213 84,232.5C 81.3154,236.019 78.3154,236.352 75,233.5C 67.3238,221.146 62.1572,207.813 59.5,193.5C 62.8309,191.702 66.4975,191.036 70.5,191.5C 71.1193,197.075 72.6193,202.408 75,207.5C 76.3086,201.393 78.4753,195.726 81.5,190.5 Z"/></g>
<g><path style="opacity:1" fill="#a43465" d="M 145.5,197.5 C 151.337,196.518 154.17,198.851 154,204.5C 150.952,208.01 147.619,208.343 144,205.5C 143.109,202.502 143.609,199.836 145.5,197.5 Z"/></g>
<g><path style="opacity:1" fill="#a33365" d="M 130.5,202.5 C 145.979,222.934 166.312,236.267 191.5,242.5C 190.601,245.395 189.267,248.062 187.5,250.5C 169.43,246.298 153.43,238.132 139.5,226C 134.631,220.963 129.631,216.13 124.5,211.5C 126.533,208.477 128.533,205.477 130.5,202.5 Z"/></g>
<g><path style="opacity:1" fill="#e36297" d="M 124.5,211.5 C 129.631,216.13 134.631,220.963 139.5,226C 153.43,238.132 169.43,246.298 187.5,250.5C 184.737,255.701 181.737,260.701 178.5,265.5C 175.271,263.853 171.937,262.186 168.5,260.5C 167.828,259.051 167.161,257.718 166.5,256.5C 164.153,250.746 160.82,250.079 156.5,254.5C 145.542,250.351 134.875,245.684 124.5,240.5C 119.823,238.826 115.156,237.16 110.5,235.5C 114.662,227.172 119.329,219.172 124.5,211.5 Z"/></g>
<g><path style="opacity:1" fill="#a53566" d="M 177.5,220.5 C 183.665,219.829 186.165,222.496 185,228.5C 181.667,232.5 178.333,232.5 175,228.5C 174.018,225.225 174.851,222.559 177.5,220.5 Z"/></g>
<g><path style="opacity:1" fill="#a53566" d="M 124.5,240.5 C 119.473,233.023 121.473,229.523 130.5,230C 134.302,236.713 132.302,240.213 124.5,240.5 Z"/></g>
<g><path style="opacity:1" fill="#a23364" d="M 109.5,237.5 C 126.874,257.025 148.541,269.025 174.5,273.5C 172.735,276.709 170.735,279.709 168.5,282.5C 143.982,276.239 122.648,264.239 104.5,246.5C 105.929,243.304 107.595,240.304 109.5,237.5 Z"/></g>
<g><path style="opacity:1" fill="#d9588d" d="M 110.5,235.5 C 115.156,237.16 119.823,238.826 124.5,240.5C 134.875,245.684 145.542,250.351 156.5,254.5C 155.277,260.773 157.943,263.273 164.5,262C 166.155,260.556 166.822,258.722 166.5,256.5C 167.161,257.718 167.828,259.051 168.5,260.5C 171.937,262.186 175.271,263.853 178.5,265.5C 177.18,268.14 175.847,270.807 174.5,273.5C 148.541,269.025 126.874,257.025 109.5,237.5C 109.328,236.508 109.662,235.842 110.5,235.5 Z"/></g>
<g><path style="opacity:1" fill="#a43465" d="M 166.5,256.5 C 166.822,258.722 166.155,260.556 164.5,262C 157.943,263.273 155.277,260.773 156.5,254.5C 160.82,250.079 164.153,250.746 166.5,256.5 Z"/></g>
<g><path style="opacity:1" fill="#f2e1d9" d="M 215.5,229.5 C 216.473,231.948 216.806,234.615 216.5,237.5C 225.565,238.136 234.231,237.47 242.5,235.5C 246.808,250.719 251.142,266.052 255.5,281.5C 255.5,282.5 255.5,283.5 255.5,284.5C 234.424,284.821 213.424,284.488 192.5,283.5C 199.654,269.86 206.821,256.193 214,242.5C 215.29,238.27 215.79,233.936 215.5,229.5 Z"/></g>
<g><path style="opacity:1" fill="#c84c7e" d="M 104.5,246.5 C 122.648,264.239 143.982,276.239 168.5,282.5C 166.863,285.817 165.196,289.15 163.5,292.5C 162.052,294.555 160.719,296.722 159.5,299C 152.883,300.854 146.216,300.854 139.5,299C 134.05,297.438 128.717,295.605 123.5,293.5C 112.667,287.84 103.834,279.84 97,269.5C 96.3333,266.833 96.3333,264.167 97,261.5C 99.5133,256.473 102.013,251.473 104.5,246.5 Z"/></g>
<g><path style="opacity:1" fill="#a43365" d="M 107.5,262.5 C 114.145,263.624 115.812,267.124 112.5,273C 105.562,275.06 102.729,272.56 104,265.5C 105.145,264.364 106.312,263.364 107.5,262.5 Z"/></g>
<g><path style="opacity:1" fill="#a33364" d="M 143.5,283.5 C 151.818,283.987 153.485,287.487 148.5,294C 140.088,293.812 138.421,290.312 143.5,283.5 Z"/></g>
<g><path style="opacity:1" fill="#393945" d="M 468.5,361.5 C 462.894,362.407 457.227,362.74 451.5,362.5C 458.825,355.675 465.992,348.675 473,341.5C 476.625,329.752 478.292,317.752 478,305.5C 473.622,310.373 469.455,315.373 465.5,320.5C 455.704,329.127 446.037,337.96 436.5,347C 429.127,353.009 421.461,358.509 413.5,363.5C 407.642,363.822 401.975,363.489 396.5,362.5C 429.01,341.501 457.343,315.668 481.5,285C 484.68,283.964 487.18,284.797 489,287.5C 490.119,303.966 489.119,320.3 486,336.5C 485.066,340.637 483.732,344.637 482,348.5C 477.631,353.037 473.131,357.37 468.5,361.5 Z"/></g>
<g><path style="opacity:1" fill="#383744" d="M 269.5,289.5 C 274.17,298.203 277.17,307.536 278.5,317.5C 292.901,309.466 307.901,302.799 323.5,297.5C 325.481,297.437 327.148,298.104 328.5,299.5C 331.485,307.767 334.318,316.101 337,324.5C 337.769,327.099 337.602,329.599 336.5,332C 322.254,339.373 308.088,346.873 294,354.5C 296.371,367.394 298.538,380.394 300.5,393.5C 301.099,396.886 299.766,398.886 296.5,399.5C 293.675,399.919 291.509,398.919 290,396.5C 288.242,380.803 284.909,365.47 280,350.5C 277.36,348.476 274.527,348.143 271.5,349.5C 276.117,355.023 277.617,361.356 276,368.5C 273.388,376.391 269.721,383.724 265,390.5C 264.094,392.744 263.594,395.077 263.5,397.5C 265.773,402.503 264.773,406.503 260.5,409.5C 257.192,410.026 255.026,408.693 254,405.5C 253.333,400.5 253.333,395.5 254,390.5C 257.667,383.167 261.333,375.833 265,368.5C 266.124,365.558 266.458,362.558 266,359.5C 264,356.833 262,354.167 260,351.5C 255.706,354.654 250.873,356.32 245.5,356.5C 241.272,374.573 239.439,392.906 240,411.5C 238.871,413.141 237.371,414.141 235.5,414.5C 232.762,415.035 230.928,414.035 230,411.5C 229.501,405.509 229.334,399.509 229.5,393.5C 229.963,390.518 230.296,387.518 230.5,384.5C 231.295,380.524 231.962,376.524 232.5,372.5C 233.489,367.189 234.489,361.855 235.5,356.5C 235.244,353.729 233.91,351.562 231.5,350C 207.833,349.333 184.167,349.333 160.5,350C 156.077,355.014 153.41,360.847 152.5,367.5C 151.662,367.842 151.328,368.508 151.5,369.5C 144.833,369.5 138.167,369.5 131.5,369.5C 131.199,357.471 126.533,347.304 117.5,339C 116.906,338.536 116.239,338.369 115.5,338.5C 110.612,333.378 104.946,329.211 98.5,326C 93.6855,323.59 88.6855,321.756 83.5,320.5C 84.5345,337.34 87.8679,353.673 93.5,369.5C 93.5,369.833 93.5,370.167 93.5,370.5C 89.7657,370.323 86.0991,370.656 82.5,371.5C 75.2009,351.581 72.0342,330.914 73,309.5C 74.2991,308.02 75.9658,307.354 78,307.5C 82.8674,308.426 87.7008,309.426 92.5,310.5C 93.7093,304.538 95.7093,298.871 98.5,293.5C 106.833,293.5 115.167,293.5 123.5,293.5C 128.717,295.605 134.05,297.438 139.5,299C 146.216,300.854 152.883,300.854 159.5,299C 160.719,296.722 162.052,294.555 163.5,292.5C 167.5,292.5 171.5,292.5 175.5,292.5C 172.83,298.343 169.163,303.51 164.5,308C 160.716,309.947 156.716,311.28 152.5,312C 150.963,313.11 150.297,314.61 150.5,316.5C 144.381,324.556 139.381,333.39 135.5,343C 138.522,349.596 140.689,356.43 142,363.5C 143.857,356.791 146.524,350.457 150,344.5C 152.853,342.308 155.686,340.142 158.5,338C 157.389,334.945 155.889,332.112 154,329.5C 153.297,327.071 153.463,324.738 154.5,322.5C 157.694,321.048 160.694,321.381 163.5,323.5C 164.075,325.411 165.075,327.078 166.5,328.5C 168.88,331.762 169.88,335.429 169.5,339.5C 190.836,339.333 212.169,339.5 233.5,340C 237.66,342.022 241.66,344.188 245.5,346.5C 254.452,343.548 260.452,337.548 263.5,328.5C 266.255,322.475 267.088,316.141 266,309.5C 263.526,303.243 261.359,296.91 259.5,290.5C 262.902,290.658 266.236,290.324 269.5,289.5 Z M 150.5,316.5 C 152.326,318.147 153.66,320.147 154.5,322.5C 153.463,324.738 153.297,327.071 154,329.5C 155.889,332.112 157.389,334.945 158.5,338C 155.686,340.142 152.853,342.308 150,344.5C 146.524,350.457 143.857,356.791 142,363.5C 140.689,356.43 138.522,349.596 135.5,343C 139.381,333.39 144.381,324.556 150.5,316.5 Z"/></g>
<g><path style="opacity:1" fill="#de817c" d="M 119.5,327.5 C 118.749,316.676 114.749,307.343 107.5,299.5C 107.866,298.305 108.699,297.639 110,297.5C 119.58,303.301 129.747,307.635 140.5,310.5C 135.967,317.871 131.634,325.371 127.5,333C 126.833,333.667 126.167,333.667 125.5,333C 123.63,330.96 121.63,329.127 119.5,327.5 Z"/></g>
<g><path style="opacity:1" fill="#c3a996" d="M 211.5,222.5 C 213.669,224.34 215.002,226.674 215.5,229.5C 215.79,233.936 215.29,238.27 214,242.5C 206.821,256.193 199.654,269.86 192.5,283.5C 187.268,294.297 181.768,304.963 176,315.5C 172.329,319.077 168.162,321.744 163.5,323.5C 160.694,321.381 157.694,321.048 154.5,322.5C 153.66,320.147 152.326,318.147 150.5,316.5C 150.297,314.61 150.963,313.11 152.5,312C 156.716,311.28 160.716,309.947 164.5,308C 169.163,303.51 172.83,298.343 175.5,292.5C 185.439,274.721 195.606,257.055 206,239.5C 209.547,234.36 211.38,228.693 211.5,222.5 Z"/></g>
<g><path style="opacity:1" fill="#edd5ce" d="M 255.5,281.5 C 256.833,284.5 258.167,287.5 259.5,290.5C 261.359,296.91 263.526,303.243 266,309.5C 267.088,316.141 266.255,322.475 263.5,328.5C 231.167,328.5 198.833,328.5 166.5,328.5C 165.075,327.078 164.075,325.411 163.5,323.5C 168.162,321.744 172.329,319.077 176,315.5C 181.768,304.963 187.268,294.297 192.5,283.5C 213.424,284.488 234.424,284.821 255.5,284.5C 255.5,283.5 255.5,282.5 255.5,281.5 Z"/></g>
<g><path style="opacity:1" fill="#f5c2b9" d="M 107.5,299.5 C 114.749,307.343 118.749,316.676 119.5,327.5C 114.154,323.663 108.654,319.996 103,316.5C 103.294,310.56 104.794,304.893 107.5,299.5 Z"/></g>
<g><path style="opacity:1" fill="#eccdc7" d="M 166.5,328.5 C 198.833,328.5 231.167,328.5 263.5,328.5C 260.452,337.548 254.452,343.548 245.5,346.5C 241.66,344.188 237.66,342.022 233.5,340C 212.169,339.5 190.836,339.333 169.5,339.5C 169.88,335.429 168.88,331.762 166.5,328.5 Z"/></g>
<g><path style="opacity:1" fill="#6a6a9a" d="M 115.5,338.5 C 117.259,344.382 118.593,350.382 119.5,356.5C 119.785,358.288 119.452,359.955 118.5,361.5C 110.277,364.575 101.944,367.241 93.5,369.5C 87.8679,353.673 84.5345,337.34 83.5,320.5C 88.6855,321.756 93.6855,323.59 98.5,326C 104.946,329.211 110.612,333.378 115.5,338.5 Z"/></g>
<g><path style="opacity:1" fill="#4a4a5c" d="M 115.5,338.5 C 116.239,338.369 116.906,338.536 117.5,339C 126.533,347.304 131.199,357.471 131.5,369.5C 132.894,383.539 135.894,397.206 140.5,410.5C 131.227,410.46 121.894,410.626 112.5,411C 111.242,409.259 110.242,407.426 109.5,405.5C 111.74,404.432 113.574,402.766 115,400.5C 121.554,386.218 123.054,371.551 119.5,356.5C 118.593,350.382 117.259,344.382 115.5,338.5 Z"/></g>
<g><path style="opacity:1" fill="#98b3e6" d="M 465.5,320.5 C 464.597,326.777 462.764,332.777 460,338.5C 441.946,356.553 422.113,372.387 400.5,386C 388.434,393.365 376.101,400.198 363.5,406.5C 364.08,402.351 363.414,398.684 361.5,395.5C 371.598,390.282 381.598,384.782 391.5,379C 399.29,374.359 406.624,369.192 413.5,363.5C 421.461,358.509 429.127,353.009 436.5,347C 446.037,337.96 455.704,329.127 465.5,320.5 Z"/></g>
<g><path style="opacity:1" fill="#e06094" d="M 232.5,372.5 C 231.596,373.209 231.263,374.209 231.5,375.5C 211.303,374.407 191.303,372.741 171.5,370.5C 175.576,363.362 173.576,360.195 165.5,361C 162.554,362.953 161.887,365.453 163.5,368.5C 159.901,367.656 156.234,367.323 152.5,367.5C 153.41,360.847 156.077,355.014 160.5,350C 184.167,349.333 207.833,349.333 231.5,350C 233.91,351.562 235.244,353.729 235.5,356.5C 234.489,361.855 233.489,367.189 232.5,372.5 Z"/></g>
<g><path style="opacity:1" fill="#f0f6f7" d="M 451.5,362.5 C 417.449,389.845 380.115,411.845 339.5,428.5C 336.833,429.167 334.167,429.833 331.5,430.5C 331.264,427.391 331.597,424.391 332.5,421.5C 343.2,417.317 353.533,412.317 363.5,406.5C 376.101,400.198 388.434,393.365 400.5,386C 422.113,372.387 441.946,356.553 460,338.5C 462.764,332.777 464.597,326.777 465.5,320.5C 469.455,315.373 473.622,310.373 478,305.5C 478.292,317.752 476.625,329.752 473,341.5C 465.992,348.675 458.825,355.675 451.5,362.5 Z"/></g>
<g><path style="opacity:1" fill="#a43465" d="M 171.5,370.5 C 168.272,372.026 165.606,371.36 163.5,368.5C 161.887,365.453 162.554,362.953 165.5,361C 173.576,360.195 175.576,363.362 171.5,370.5 Z"/></g>
<g><path style="opacity:1" fill="#a43465" d="M 210.5,361.5 C 219.889,361.676 221.556,365.176 215.5,372C 209.687,372.171 207.52,369.338 209,363.5C 209.717,362.956 210.217,362.289 210.5,361.5 Z"/></g>
<g><path style="opacity:1" fill="#b69985" d="M 260.5,409.5 C 260.963,412.482 261.296,415.482 261.5,418.5C 253.093,420.897 244.427,422.564 235.5,423.5C 235.5,420.5 235.5,417.5 235.5,414.5C 237.371,414.141 238.871,413.141 240,411.5C 239.439,392.906 241.272,374.573 245.5,356.5C 250.873,356.32 255.706,354.654 260,351.5C 262,354.167 264,356.833 266,359.5C 266.458,362.558 266.124,365.558 265,368.5C 261.333,375.833 257.667,383.167 254,390.5C 253.333,395.5 253.333,400.5 254,405.5C 255.026,408.693 257.192,410.026 260.5,409.5 Z"/></g>
<g><path style="opacity:1" fill="#333345" d="M 468.5,361.5 C 437.757,389.058 403.424,411.391 365.5,428.5C 357.012,427.987 348.346,427.987 339.5,428.5C 380.115,411.845 417.449,389.845 451.5,362.5C 457.227,362.74 462.894,362.407 468.5,361.5 Z"/></g>
<g><path style="opacity:1" fill="#333244" d="M 396.5,362.5 C 401.975,363.489 407.642,363.822 413.5,363.5C 406.624,369.192 399.29,374.359 391.5,379C 381.598,384.782 371.598,390.282 361.5,395.5C 326.915,411.695 290.915,423.695 253.5,431.5C 249.347,430.834 245.013,430.501 240.5,430.5C 219.158,431.089 197.825,431.756 176.5,432.5C 176.821,427.305 176.487,422.305 175.5,417.5C 174.5,413.677 172,412.01 168,412.5C 164.429,411.919 161.929,413.252 160.5,416.5C 159.512,421.64 159.179,426.974 159.5,432.5C 155.833,432.5 152.167,432.5 148.5,432.5C 147.072,429.386 145.739,426.219 144.5,423C 134.965,420.242 125.465,420.075 116,422.5C 115.064,426.114 114.564,429.78 114.5,433.5C 111.167,433.5 107.833,433.5 104.5,433.5C 82.1475,431.997 59.9808,428.997 38,424.5C 35.9658,424.354 34.2991,425.02 33,426.5C 32.502,429.482 32.3354,432.482 32.5,435.5C 28.7307,435.756 25.0641,435.423 21.5,434.5C 20.0435,419.458 26.7101,412.625 41.5,414C 62.4285,418.491 83.4285,421.324 104.5,422.5C 104.709,421.914 105.043,421.414 105.5,421C 95.5324,405.565 87.8658,389.065 82.5,371.5C 86.0991,370.656 89.7657,370.323 93.5,370.5C 97.5156,382.858 102.849,394.525 109.5,405.5C 110.242,407.426 111.242,409.259 112.5,411C 121.894,410.626 131.227,410.46 140.5,410.5C 135.894,397.206 132.894,383.539 131.5,369.5C 138.167,369.5 144.833,369.5 151.5,369.5C 150.709,372.115 150.043,374.782 149.5,377.5C 148.216,381.985 147.216,386.651 146.5,391.5C 147.382,398.026 149.048,404.36 151.5,410.5C 157.334,402.863 165,400.363 174.5,403C 179.573,404.406 183.073,407.572 185,412.5C 185.499,417.823 185.666,423.156 185.5,428.5C 202.452,428.256 219.118,426.59 235.5,423.5C 244.427,422.564 253.093,420.897 261.5,418.5C 273.472,416.258 285.139,413.258 296.5,409.5C 332.09,398.425 365.424,382.759 396.5,362.5 Z"/></g>
<g><path style="opacity:1" fill="#515164" d="M 296.5,399.5 C 296.5,402.833 296.5,406.167 296.5,409.5C 285.139,413.258 273.472,416.258 261.5,418.5C 261.296,415.482 260.963,412.482 260.5,409.5C 264.773,406.503 265.773,402.503 263.5,397.5C 263.594,395.077 264.094,392.744 265,390.5C 269.721,383.724 273.388,376.391 276,368.5C 277.617,361.356 276.117,355.023 271.5,349.5C 274.527,348.143 277.36,348.476 280,350.5C 284.909,365.47 288.242,380.803 290,396.5C 291.509,398.919 293.675,399.919 296.5,399.5 Z"/></g>
<g><path style="opacity:1" fill="#5c5c89" d="M 119.5,356.5 C 123.054,371.551 121.554,386.218 115,400.5C 113.574,402.766 111.74,404.432 109.5,405.5C 102.849,394.525 97.5156,382.858 93.5,370.5C 93.5,370.167 93.5,369.833 93.5,369.5C 101.944,367.241 110.277,364.575 118.5,361.5C 119.452,359.955 119.785,358.288 119.5,356.5 Z"/></g>
<g><path style="opacity:1" fill="#d8588c" d="M 152.5,367.5 C 156.234,367.323 159.901,367.656 163.5,368.5C 165.606,371.36 168.272,372.026 171.5,370.5C 191.303,372.741 211.303,374.407 231.5,375.5C 231.263,374.209 231.596,373.209 232.5,372.5C 231.962,376.524 231.295,380.524 230.5,384.5C 203.897,386.929 177.564,385.263 151.5,379.5C 150.287,379.253 149.62,378.586 149.5,377.5C 150.043,374.782 150.709,372.115 151.5,369.5C 151.328,368.508 151.662,367.842 152.5,367.5 Z"/></g>
<g><path style="opacity:1" fill="#a23264" d="M 149.5,377.5 C 149.62,378.586 150.287,379.253 151.5,379.5C 177.564,385.263 203.897,386.929 230.5,384.5C 230.296,387.518 229.963,390.518 229.5,393.5C 201.956,394.737 174.623,393.07 147.5,388.5C 147.737,389.791 147.404,390.791 146.5,391.5C 147.216,386.651 148.216,381.985 149.5,377.5 Z"/></g>
<g><path style="opacity:1" fill="#ca4e80" d="M 229.5,393.5 C 229.334,399.509 229.501,405.509 230,411.5C 230.928,414.035 232.762,415.035 235.5,414.5C 235.5,417.5 235.5,420.5 235.5,423.5C 219.118,426.59 202.452,428.256 185.5,428.5C 185.666,423.156 185.499,417.823 185,412.5C 183.073,407.572 179.573,404.406 174.5,403C 165,400.363 157.334,402.863 151.5,410.5C 149.048,404.36 147.382,398.026 146.5,391.5C 147.404,390.791 147.737,389.791 147.5,388.5C 174.623,393.07 201.956,394.737 229.5,393.5 Z"/></g>
<g><path style="opacity:1" fill="#a1baed" d="M 361.5,395.5 C 363.414,398.684 364.08,402.351 363.5,406.5C 353.533,412.317 343.2,417.317 332.5,421.5C 300.905,434.21 268.238,442.877 234.5,447.5C 234.5,443.5 234.5,439.5 234.5,435.5C 232.833,435.5 231.167,435.5 229.5,435.5C 237.301,433.755 245.301,432.422 253.5,431.5C 290.915,423.695 326.915,411.695 361.5,395.5 Z"/></g>
<g><path style="opacity:1" fill="#a33364" d="M 209.5,405.5 C 216.575,406.327 218.242,409.827 214.5,416C 208.662,417.48 205.829,415.313 206,409.5C 206.69,407.65 207.856,406.316 209.5,405.5 Z"/></g>
<g><path style="opacity:1" fill="#f9c26e" d="M 175.5,417.5 C 175.5,422.5 175.5,427.5 175.5,432.5C 170.5,432.5 165.5,432.5 160.5,432.5C 160.5,427.167 160.5,421.833 160.5,416.5C 161.929,413.252 164.429,411.919 168,412.5C 172,412.01 174.5,413.677 175.5,417.5 Z"/></g>
<g><path style="opacity:1" fill="#34333f" d="M 160.5,416.5 C 160.5,421.833 160.5,427.167 160.5,432.5C 160.5,439.833 160.5,447.167 160.5,454.5C 160.5,460.833 160.5,467.167 160.5,473.5C 157.99,484.155 161.99,488.322 172.5,486C 173.333,485.167 174.167,484.333 175,483.5C 175.498,480.183 175.665,476.85 175.5,473.5C 175.5,467.167 175.5,460.833 175.5,454.5C 175.5,447.167 175.5,439.833 175.5,432.5C 175.5,427.5 175.5,422.5 175.5,417.5C 176.487,422.305 176.821,427.305 176.5,432.5C 197.825,431.756 219.158,431.089 240.5,430.5C 245.013,430.501 249.347,430.834 253.5,431.5C 245.301,432.422 237.301,433.755 229.5,435.5C 217.56,437.161 205.56,438.161 193.5,438.5C 190.833,438.5 188.167,438.5 185.5,438.5C 185.5,445.5 185.5,452.5 185.5,459.5C 190.695,459.821 195.695,459.487 200.5,458.5C 245.783,456.045 289.45,446.712 331.5,430.5C 334.167,429.833 336.833,429.167 339.5,428.5C 348.346,427.987 357.012,427.987 365.5,428.5C 308.911,455.021 249.244,468.688 186.5,469.5C 189.165,493.005 179.165,501.505 156.5,495C 153.02,492.703 151.02,489.536 150.5,485.5C 135.293,485.486 121.626,480.986 109.5,472C 106.932,468.333 104.265,464.833 101.5,461.5C 77.4539,458.937 53.7872,454.437 30.5,448C 24.3781,445.592 21.3781,441.092 21.5,434.5C 25.0641,435.423 28.7307,435.756 32.5,435.5C 33.4525,437.61 35.1192,438.777 37.5,439C 59.262,444.303 81.262,448.136 103.5,450.5C 103.635,444.819 103.968,439.152 104.5,433.5C 107.833,433.5 111.167,433.5 114.5,433.5C 114.5,436.167 114.5,438.833 114.5,441.5C 113.421,447.449 113.254,453.449 114,459.5C 119.557,466.373 126.724,470.873 135.5,473C 140.085,474.225 144.752,474.725 149.5,474.5C 149.5,464.833 149.5,455.167 149.5,445.5C 149.628,441.119 149.295,436.785 148.5,432.5C 152.167,432.5 155.833,432.5 159.5,432.5C 159.179,426.974 159.512,421.64 160.5,416.5 Z"/></g>
<g><path style="opacity:1" fill="#616173" d="M 104.5,433.5 C 103.968,439.152 103.635,444.819 103.5,450.5C 81.262,448.136 59.262,444.303 37.5,439C 35.1192,438.777 33.4525,437.61 32.5,435.5C 32.3354,432.482 32.502,429.482 33,426.5C 34.2991,425.02 35.9658,424.354 38,424.5C 59.9808,428.997 82.1475,431.997 104.5,433.5 Z"/></g>
<g><path style="opacity:1" fill="#f6c3bb" d="M 148.5,432.5 C 149.295,436.785 149.628,441.119 149.5,445.5C 137.81,444.312 126.144,442.979 114.5,441.5C 114.5,438.833 114.5,436.167 114.5,433.5C 114.564,429.78 115.064,426.114 116,422.5C 125.465,420.075 134.965,420.242 144.5,423C 145.739,426.219 147.072,429.386 148.5,432.5 Z"/></g>
<g><path style="opacity:1" fill="#a8c1f8" d="M 229.5,435.5 C 231.167,435.5 232.833,435.5 234.5,435.5C 234.5,439.5 234.5,443.5 234.5,447.5C 218.554,449.316 202.554,450.316 186.5,450.5C 186.5,446.833 186.5,443.167 186.5,439.5C 189.059,439.802 191.393,439.468 193.5,438.5C 205.56,438.161 217.56,437.161 229.5,435.5 Z"/></g>
<g><path style="opacity:1" fill="#e6f0f7" d="M 332.5,421.5 C 331.597,424.391 331.264,427.391 331.5,430.5C 289.45,446.712 245.783,456.045 200.5,458.5C 195.833,458.5 191.167,458.5 186.5,458.5C 186.5,455.833 186.5,453.167 186.5,450.5C 202.554,450.316 218.554,449.316 234.5,447.5C 268.238,442.877 300.905,434.21 332.5,421.5 Z"/></g>
<g><path style="opacity:1" fill="#fab75b" d="M 160.5,432.5 C 165.5,432.5 170.5,432.5 175.5,432.5C 175.5,439.833 175.5,447.167 175.5,454.5C 170.5,454.5 165.5,454.5 160.5,454.5C 160.5,447.167 160.5,439.833 160.5,432.5 Z"/></g>
<g><path style="opacity:1" fill="#7c8396" d="M 193.5,438.5 C 191.393,439.468 189.059,439.802 186.5,439.5C 186.5,443.167 186.5,446.833 186.5,450.5C 186.5,453.167 186.5,455.833 186.5,458.5C 191.167,458.5 195.833,458.5 200.5,458.5C 195.695,459.487 190.695,459.821 185.5,459.5C 185.5,452.5 185.5,445.5 185.5,438.5C 188.167,438.5 190.833,438.5 193.5,438.5 Z"/></g>
<g><path style="opacity:1" fill="#f8d1ca" d="M 114.5,441.5 C 126.144,442.979 137.81,444.312 149.5,445.5C 149.5,455.167 149.5,464.833 149.5,474.5C 144.752,474.725 140.085,474.225 135.5,473C 126.724,470.873 119.557,466.373 114,459.5C 113.254,453.449 113.421,447.449 114.5,441.5 Z"/></g>
<g><path style="opacity:1" fill="#faad4c" d="M 160.5,454.5 C 165.5,454.5 170.5,454.5 175.5,454.5C 175.5,460.833 175.5,467.167 175.5,473.5C 170.469,474.783 165.469,474.783 160.5,473.5C 160.5,467.167 160.5,460.833 160.5,454.5 Z"/></g>
<g><path style="opacity:1" fill="#f0873e" d="M 160.5,473.5 C 165.469,474.783 170.469,474.783 175.5,473.5C 175.665,476.85 175.498,480.183 175,483.5C 174.167,484.333 173.333,485.167 172.5,486C 161.99,488.322 157.99,484.155 160.5,473.5 Z"/></g>
</svg>
