<?xml version="1.0" encoding="UTF-8"?>
<!DOCTYPE svg PUBLIC "-//W3C//DTD SVG 1.1//EN" "http://www.w3.org/Graphics/SVG/1.1/DTD/svg11.dtd">
<svg xmlns="http://www.w3.org/2000/svg" version="1.1" width="512px" height="512px" style="shape-rendering:geometricPrecision; text-rendering:geometricPrecision; image-rendering:optimizeQuality; fill-rule:evenodd; clip-rule:evenodd" xmlns:xlink="http://www.w3.org/1999/xlink">
<g><path style="opacity:1" fill="#000000" d="M 127.5,15.5 C 147.263,12.6844 161.763,20.0177 171,37.5C 172.851,43.0083 173.851,48.675 174,54.5C 180.333,57.8333 186.667,61.1667 193,64.5C 204.013,41.0714 222.513,29.4047 248.5,29.5C 280.284,30.4419 298.451,46.7752 303,78.5C 304.586,108.65 299.586,137.65 288,165.5C 286.09,170.909 282.59,174.909 277.5,177.5C 284.405,184.905 289.905,193.239 294,202.5C 294.665,207.181 293.665,211.514 291,215.5C 278.799,226.034 267.632,237.534 257.5,250C 262.86,268.746 269.026,287.246 276,305.5C 276.993,309.442 277.66,313.442 278,317.5C 291.396,310.052 305.229,303.552 319.5,298C 321.833,297.333 324.167,297.333 326.5,298C 327.667,298.5 328.5,299.333 329,300.5C 331.988,309.453 334.821,318.453 337.5,327.5C 337.24,329.187 336.573,330.687 335.5,332C 325.01,337.078 314.677,342.411 304.5,348C 299.608,349.69 296.608,348.023 295.5,343C 295.99,341.018 296.99,339.351 298.5,338C 307,333.5 315.5,329 324,324.5C 323.231,319.691 321.731,315.024 319.5,310.5C 302.602,316.919 286.769,325.252 272,335.5C 271.333,336.167 271.333,336.833 272,337.5C 281.577,336.372 288.244,340.372 292,349.5C 296.096,364.971 298.762,380.638 300,396.5C 296.535,400.386 293.202,400.386 290,396.5C 287.514,382.068 284.514,367.735 281,353.5C 279.481,349.113 276.648,347.78 272.5,349.5C 275.407,353.151 277.074,357.318 277.5,362C 275.66,372.844 271.493,382.677 265,391.5C 264.667,396.833 264.333,402.167 264,407.5C 260.393,410.269 257.06,409.936 254,406.5C 252.129,400.489 252.129,394.489 254,388.5C 256.221,382.39 259.221,376.723 263,371.5C 267.336,363.981 266.169,357.647 259.5,352.5C 255.494,354.918 251.161,356.251 246.5,356.5C 242.49,374.598 240.323,392.932 240,411.5C 237.074,415.08 233.74,415.413 230,412.5C 229.5,405.508 229.334,398.508 229.5,391.5C 202.294,394.802 175.294,393.969 148.5,389C 147.409,391.064 147.242,393.231 148,395.5C 149.131,399.894 150.465,404.227 152,408.5C 156.155,403.006 161.655,400.673 168.5,401.5C 176.813,400.571 182.646,403.904 186,411.5C 186.499,416.823 186.666,422.156 186.5,427.5C 274.171,423.561 352.837,395.394 422.5,343C 443.538,326.296 462.204,307.296 478.5,286C 481.665,283.87 484.665,284.037 487.5,286.5C 488.86,300.86 488.36,315.193 486,329.5C 484.927,336.46 482.927,343.126 480,349.5C 397.541,425.957 299.708,465.624 186.5,468.5C 189.471,491.362 179.804,499.862 157.5,494C 154.374,491.55 152.041,488.55 150.5,485C 137.536,484.344 125.536,480.678 114.5,474C 109.572,470.627 106.238,466.127 104.5,460.5C 79.7733,458.157 55.44,453.657 31.5,447C 25.2131,444.032 22.2131,439.032 22.5,432C 22.4282,418.402 29.0948,412.069 42.5,413C 63.3449,417.252 84.3449,420.419 105.5,422.5C 105.657,421.127 105.49,419.793 105,418.5C 84.1115,385.168 73.7782,348.835 74,309.5C 75.3513,307.99 77.018,306.99 79,306.5C 83.7863,308.071 88.6196,309.404 93.5,310.5C 95.0278,303.585 97.3612,296.918 100.5,290.5C 96.1425,285.31 91.9758,279.977 88,274.5C 85.5144,269.592 85.1811,264.592 87,259.5C 99.8438,231.033 115.51,204.366 134,179.5C 140.644,172.044 148.478,170.544 157.5,175C 160.4,177.397 162.733,180.23 164.5,183.5C 165.002,184.521 165.668,184.688 166.5,184C 174.121,177.717 182.287,172.217 191,167.5C 192.822,161.879 194.489,156.212 196,150.5C 199,147.833 202,147.833 205,150.5C 207.162,145.35 209.329,140.184 211.5,135C 206.766,131.699 203.933,127.199 203,121.5C 196.624,115.421 192.291,108.088 190,99.5C 177.099,89.2939 163.265,80.4606 148.5,73C 139.21,63.0605 138.21,52.3938 145.5,41C 151.595,40.7181 156.762,42.8848 161,47.5C 159.068,36.5622 152.568,29.7289 141.5,27C 127.126,25.4385 116.959,31.2719 111,44.5C 109.47,48.0901 108.136,51.7568 107,55.5C 105.3,68.702 102.633,81.702 99,94.5C 92.5428,108.748 85.5428,122.748 78,136.5C 68.8871,159.295 68.2204,182.295 76,205.5C 78.2412,197.021 81.5745,189.021 86,181.5C 95.3333,170.833 104.667,160.167 114,149.5C 129.377,130.09 142.377,109.09 153,86.5C 160.678,83.8436 163.678,86.5103 162,94.5C 151.672,115.839 139.339,135.839 125,154.5C 115.333,165.5 105.667,176.5 96,187.5C 87.6343,201.685 83.9676,217.018 85,233.5C 81.9537,235.971 78.9537,235.971 76,233.5C 57.0688,200.491 54.4021,166.158 68,130.5C 74,119.167 80,107.833 86,96.5C 90.8514,77.8604 95.518,59.1937 100,40.5C 105.273,27.7203 114.44,19.3869 127.5,15.5 Z M 237.5,41.5 C 247.655,39.3803 256.155,42.047 263,49.5C 269.152,57.4538 272.652,66.4538 273.5,76.5C 270.833,76.5 268.167,76.5 265.5,76.5C 264.022,66.702 259.355,58.8687 251.5,53C 247.037,51.7972 244.37,53.4639 243.5,58C 247.936,63.7975 251.603,70.1309 254.5,77C 250.916,79.0414 247.416,81.208 244,83.5C 238.078,69.2446 227.912,59.4113 213.5,54C 220.329,47.4202 228.329,43.2535 237.5,41.5 Z M 279.5,53.5 C 286.48,60.4599 290.146,68.7932 290.5,78.5C 288.591,77.6518 286.591,77.3184 284.5,77.5C 284.622,69.1068 282.955,61.1068 279.5,53.5 Z M 151.5,56.5 C 151.56,55.9569 151.893,55.6236 152.5,55.5C 164.845,63.0075 177.512,70.0075 190.5,76.5C 189.77,79.1092 189.27,81.7759 189,84.5C 179.582,77.2029 169.416,71.0362 158.5,66C 155.115,63.471 152.782,60.3044 151.5,56.5 Z M 206.5,64.5 C 220.755,68.9207 230.255,78.254 235,92.5C 235.851,95.053 235.518,97.3863 234,99.5C 231.93,97.2132 229.43,95.5466 226.5,94.5C 223.541,85.876 217.874,79.876 209.5,76.5C 204.234,77.6981 202.734,80.6981 205,85.5C 208.692,87.6921 211.526,90.6921 213.5,94.5C 210.194,97.1395 207.194,100.14 204.5,103.5C 198.926,90.2709 199.592,77.2709 206.5,64.5 Z M 261.5,87.5 C 271.81,87.539 281.977,88.539 292,90.5C 291.938,100.236 290.938,109.902 289,119.5C 286.539,120.218 284.039,120.885 281.5,121.5C 278.878,124.703 278.878,127.87 281.5,131C 283.134,131.494 284.801,131.66 286.5,131.5C 284.806,144.044 280.473,155.544 273.5,166C 267.5,166.667 261.5,166.667 255.5,166C 247.285,160.786 240.785,153.952 236,145.5C 235.179,139.435 234.179,133.435 233,127.5C 231.562,126.282 229.895,125.615 228,125.5C 218.992,128.22 214.158,124.886 213.5,115.5C 214.975,105.008 219.808,103.008 228,109.5C 228.977,112.102 230.144,114.602 231.5,117C 235.155,119.335 238.321,118.835 241,115.5C 243.09,106.202 247.256,98.0351 253.5,91C 256.158,89.522 258.825,88.3554 261.5,87.5 Z M 222.5,137.5 C 224.328,151.142 230.828,162.142 242,170.5C 242.5,172.667 241.667,173.5 239.5,173C 232.101,166.594 224.434,160.594 216.5,155C 218.41,149.101 220.41,143.268 222.5,137.5 Z M 204.5,162.5 C 220.038,170.529 233.371,181.363 244.5,195C 243.696,196.771 242.529,198.271 241,199.5C 230.142,187.8 217.976,177.8 204.5,169.5C 203.425,167.189 203.425,164.856 204.5,162.5 Z M 252.5,177.5 C 255.839,177.89 259.173,178.39 262.5,179C 270.929,186.584 277.596,195.417 282.5,205.5C 273.535,215.8 264.202,225.8 254.5,235.5C 251.928,227.044 249.595,218.544 247.5,210C 251.849,205.624 255.182,200.624 257.5,195C 255.676,190.496 253.009,186.496 249.5,183C 250.639,181.22 251.639,179.386 252.5,177.5 Z M 194.5,178.5 C 200.893,181.201 206.893,184.701 212.5,189C 220.933,195.429 228.766,202.596 236,210.5C 243.952,246.018 254.118,280.851 266.5,315C 265.252,326.097 260.586,335.431 252.5,343C 249.333,345.124 246,345.624 242.5,344.5C 240.163,341.678 237.163,339.845 233.5,339C 212.503,338.5 191.503,338.333 170.5,338.5C 170.272,332.378 168.105,327.044 164,322.5C 158.871,319.598 155.371,320.932 153.5,326.5C 155.899,330.252 157.899,334.252 159.5,338.5C 155.921,339.872 152.754,341.872 150,344.5C 146.55,350.848 143.884,357.515 142,364.5C 141.37,356.843 139.536,349.51 136.5,342.5C 140.7,331.766 146.2,321.766 153,312.5C 160.085,312.125 165.752,309.125 170,303.5C 183.667,279.833 197.333,256.167 211,232.5C 214.057,224.339 212.223,217.505 205.5,212C 193.544,207.695 182.878,201.361 173.5,193C 180.403,187.913 187.403,183.08 194.5,178.5 Z M 146.5,183.5 C 148.308,183.491 149.975,183.991 151.5,185C 163.62,202.654 179.787,215.154 200,222.5C 200.374,223.416 200.874,224.25 201.5,225C 199.1,229.797 196.433,234.464 193.5,239C 165.053,239.396 145.053,226.562 133.5,200.5C 137.505,194.506 141.839,188.839 146.5,183.5 Z M 125.5,211.5 C 138.911,235.06 159.244,248.393 186.5,251.5C 183.293,257.415 179.96,263.248 176.5,269C 146.013,271.606 125.347,258.773 114.5,230.5C 118.443,224.275 122.109,217.942 125.5,211.5 Z M 106.5,244.5 C 110.202,248.852 113.702,253.518 117,258.5C 131.382,273.294 148.882,281.128 169.5,282C 166.541,286.751 163.707,291.584 161,296.5C 159.257,298.871 156.923,300.205 154,300.5C 133.269,298.468 115.936,289.801 102,274.5C 99.9464,271.726 98.4464,268.726 97.5,265.5C 100.225,258.383 103.225,251.383 106.5,244.5 Z M 109.5,297.5 C 119.227,303.19 129.56,307.523 140.5,310.5C 135.989,317.529 131.489,324.529 127,331.5C 119.699,325.679 112.033,320.346 104,315.5C 105.303,309.419 107.136,303.419 109.5,297.5 Z M 475.5,307.5 C 476.645,318.995 475.145,330.328 471,341.5C 406.499,402.495 329.999,439.661 241.5,453C 223.256,455.636 204.923,457.136 186.5,457.5C 186.5,451.167 186.5,444.833 186.5,438.5C 268.951,435.235 344.284,410.735 412.5,365C 435.55,348.131 456.55,328.964 475.5,307.5 Z M 139.5,409.5 C 130.563,409.684 121.73,409.684 113,409.5C 96.4143,381.923 87.2476,352.256 85.5,320.5C 100.741,326.036 113.907,334.702 125,346.5C 126.608,349.382 127.941,352.382 129,355.5C 131.535,373.712 135.035,391.712 139.5,409.5 Z M 162.5,349.5 C 185.169,349.333 207.836,349.5 230.5,350C 233.033,351.033 234.699,352.867 235.5,355.5C 233.356,363.029 231.856,370.695 231,378.5C 204.468,384.167 177.968,383.667 151.5,377C 152.317,368.533 154.817,360.367 159,352.5C 160.145,351.364 161.312,350.364 162.5,349.5 Z M 163.5,412.5 C 166.518,412.335 169.518,412.502 172.5,413C 173.667,413.5 174.5,414.333 175,415.5C 175.667,437.5 175.667,459.5 175,481.5C 173.36,483.923 171.027,484.923 168,484.5C 165.648,484.695 163.648,484.028 162,482.5C 161.333,459.833 161.333,437.167 162,414.5C 162.717,413.956 163.217,413.289 163.5,412.5 Z M 121.5,420.5 C 129.592,419.892 137.425,420.892 145,423.5C 146.732,427.363 148.066,431.363 149,435.5C 149.5,447.829 149.667,460.162 149.5,472.5C 136.494,472.741 125.328,468.408 116,459.5C 115.065,457.091 114.565,454.591 114.5,452C 115.471,442.179 116.305,432.345 117,422.5C 118.622,421.901 120.122,421.234 121.5,420.5 Z M 37.5,423.5 C 59.5736,428.32 81.9069,431.654 104.5,433.5C 104.387,438.518 104.053,443.518 103.5,448.5C 80.4147,446.597 57.748,442.43 35.5,436C 34.1955,435.196 33.5288,434.029 33.5,432.5C 34.0639,430.181 34.5639,427.847 35,425.5C 35.9947,424.934 36.828,424.267 37.5,423.5 Z"/></g>
<g><path style="opacity:1" fill="#000000" d="M 257.5,119.5 C 262.08,119.077 266.247,120.077 270,122.5C 271.989,128.118 270.155,131.118 264.5,131.5C 255.296,131.075 252.963,127.075 257.5,119.5 Z"/></g>
<g><path style="opacity:1" fill="#000000" d="M 147.5,196.5 C 155.605,197.543 157.272,201.377 152.5,208C 145.017,209.689 142.183,206.856 144,199.5C 145.145,198.364 146.312,197.364 147.5,196.5 Z"/></g>
<g><path style="opacity:1" fill="#000000" d="M 179.5,219.5 C 186.454,220.914 188.12,224.747 184.5,231C 177.421,233.071 174.254,230.571 175,223.5C 175.907,221.391 177.407,220.058 179.5,219.5 Z"/></g>
<g><path style="opacity:1" fill="#000000" d="M 126.5,228.5 C 133.68,229.857 135.346,233.69 131.5,240C 124,241.833 121.167,239 123,231.5C 124.145,230.364 125.312,229.364 126.5,228.5 Z"/></g>
<g><path style="opacity:1" fill="#000000" d="M 158.5,251.5 C 167.023,251.061 169.356,254.561 165.5,262C 160.316,264.574 156.983,263.074 155.5,257.5C 155.984,255.199 156.984,253.199 158.5,251.5 Z"/></g>
<g><path style="opacity:1" fill="#000000" d="M 106.5,262.5 C 113.665,261.497 116.498,264.497 115,271.5C 112.029,275.092 108.696,275.425 105,272.5C 102.925,268.794 103.425,265.461 106.5,262.5 Z"/></g>
<g><path style="opacity:1" fill="#000000" d="M 144.5,282.5 C 150.873,282.368 153.373,285.368 152,291.5C 148.38,295.487 144.713,295.487 141,291.5C 139.98,287.553 141.147,284.553 144.5,282.5 Z"/></g>
<g><path style="opacity:1" fill="#000000" d="M 165.5,359.5 C 174.487,358.665 176.82,362.165 172.5,370C 167.436,372.259 164.102,370.759 162.5,365.5C 162.984,363.199 163.984,361.199 165.5,359.5 Z"/></g>
<g><path style="opacity:1" fill="#000000" d="M 210.5,360.5 C 219.487,359.665 221.82,363.165 217.5,371C 212.536,372.996 209.203,371.329 207.5,366C 208.124,363.915 209.124,362.082 210.5,360.5 Z"/></g>
<g><path style="opacity:1" fill="#000000" d="M 208.5,404.5 C 217.818,404.655 219.818,408.488 214.5,416C 205.096,416.141 203.096,412.308 208.5,404.5 Z"/></g>
</svg>
