<?xml version="1.0" encoding="UTF-8"?>
<!DOCTYPE svg PUBLIC "-//W3C//DTD SVG 1.1//EN" "http://www.w3.org/Graphics/SVG/1.1/DTD/svg11.dtd">
<svg xmlns="http://www.w3.org/2000/svg" version="1.1" width="512px" height="512px" style="shape-rendering:geometricPrecision; text-rendering:geometricPrecision; image-rendering:optimizeQuality; fill-rule:evenodd; clip-rule:evenodd" xmlns:xlink="http://www.w3.org/1999/xlink">
<g><path style="opacity:1" fill="#505063" d="M 166.5,42.5 C 145.515,40.1716 124.848,36.8383 104.5,32.5C 115.67,15.6124 130.67,11.1124 149.5,19C 158.437,24.4415 164.104,32.2748 166.5,42.5 Z"/></g>
<g><path style="opacity:1" fill="#505063" d="M 294.5,60.5 C 265.099,56.9215 235.433,52.9215 205.5,48.5C 214.318,37.9205 225.652,31.7539 239.5,30C 258.971,27.1531 275.138,32.9865 288,47.5C 290.721,51.6078 292.887,55.9411 294.5,60.5 Z"/></g>
<g><path style="opacity:1" fill="#4b4b5c" d="M 104.5,32.5 C 124.848,36.8383 145.515,40.1716 166.5,42.5C 166.5,46.1667 166.5,49.8333 166.5,53.5C 159.638,50.1491 153.138,46.1491 147,41.5C 142.73,47.1749 142.397,53.1749 146,59.5C 147.176,61.1957 148.343,62.8624 149.5,64.5C 131.858,61.7265 114.191,59.0598 96.5,56.5C 97.7716,48.0184 100.438,40.0184 104.5,32.5 Z"/></g>
<g><path style="opacity:1" fill="#4b4b5c" d="M 205.5,48.5 C 235.433,52.9215 265.099,56.9215 294.5,60.5C 297.635,67.3828 299.302,74.7161 299.5,82.5C 284.261,78.3773 268.928,77.7106 253.5,80.5C 253.389,79.8826 253.056,79.3826 252.5,79C 233.418,76.3933 214.418,73.56 195.5,70.5C 195.5,69.5 195.5,68.5 195.5,67.5C 197.548,60.3998 200.882,54.0665 205.5,48.5 Z"/></g>
<g><path style="opacity:1" fill="#ce4d82" d="M 166.5,53.5 C 169.696,54.9287 172.696,56.5954 175.5,58.5C 174.833,65.1667 174.167,71.8333 173.5,78.5C 169.728,76.0661 165.728,74.0661 161.5,72.5C 161.631,71.6236 161.298,70.9569 160.5,70.5C 156.646,68.7417 152.979,66.7417 149.5,64.5C 148.343,62.8624 147.176,61.1957 146,59.5C 142.397,53.1749 142.73,47.1749 147,41.5C 153.138,46.1491 159.638,50.1491 166.5,53.5 Z"/></g>
<g><path style="opacity:1" fill="#444456" d="M 96.5,56.5 C 114.191,59.0598 131.858,61.7265 149.5,64.5C 152.979,66.7417 156.646,68.7417 160.5,70.5C 161.298,70.9569 161.631,71.6236 161.5,72.5C 160.028,76.9166 158.362,81.2499 156.5,85.5C 135.447,82.7782 114.447,79.7782 93.5,76.5C 94.1321,69.7399 95.1321,63.0732 96.5,56.5 Z"/></g>
<g><path style="opacity:1" fill="#bb3e70" d="M 175.5,58.5 C 182.167,61.5 188.833,64.5 195.5,67.5C 195.5,68.5 195.5,69.5 195.5,70.5C 194.698,71.9516 194.198,73.6183 194,75.5C 193.668,81.7159 193.502,87.7159 193.5,93.5C 187.153,88.0017 180.486,83.0017 173.5,78.5C 174.167,71.8333 174.833,65.1667 175.5,58.5 Z"/></g>
<g><path style="opacity:1" fill="#444356" d="M 195.5,70.5 C 214.418,73.56 233.418,76.3933 252.5,79C 253.056,79.3826 253.389,79.8826 253.5,80.5C 248.422,83.2435 244.755,87.2435 242.5,92.5C 239.704,97.1046 237.704,102.105 236.5,107.5C 235.883,107.611 235.383,107.944 235,108.5C 229.391,95.5278 221.057,93.1945 210,101.5C 207.826,105.546 206.993,109.879 207.5,114.5C 207.672,115.492 207.338,116.158 206.5,116.5C 200.056,110.049 195.723,102.382 193.5,93.5C 193.502,87.7159 193.668,81.7159 194,75.5C 194.198,73.6183 194.698,71.9516 195.5,70.5 Z"/></g>
<g><path style="opacity:1" fill="#3d3d50" d="M 93.5,76.5 C 114.447,79.7782 135.447,82.7782 156.5,85.5C 153.677,92.4798 150.343,99.1464 146.5,105.5C 126.742,101.772 106.742,98.7717 86.5,96.5C 89.2568,89.8922 91.5902,83.2255 93.5,76.5 Z"/></g>
<g><path style="opacity:1" fill="#e5ccc6" d="M 299.5,82.5 C 299.647,87.2142 299.314,91.8809 298.5,96.5C 283.844,95.7226 269.177,95.056 254.5,94.5C 250.107,94.4907 246.107,93.824 242.5,92.5C 244.755,87.2435 248.422,83.2435 253.5,80.5C 268.928,77.7106 284.261,78.3773 299.5,82.5 Z"/></g>
<g><path style="opacity:1" fill="#e6c7c0" d="M 242.5,92.5 C 246.107,93.824 250.107,94.4907 254.5,94.5C 269.177,95.056 283.844,95.7226 298.5,96.5C 298.46,101.193 298.127,105.859 297.5,110.5C 277.263,108.73 256.929,107.73 236.5,107.5C 237.704,102.105 239.704,97.1046 242.5,92.5 Z"/></g>
<g><path style="opacity:1" fill="#37374a" d="M 86.5,96.5 C 106.742,98.7717 126.742,101.772 146.5,105.5C 139.687,118.453 131.854,130.787 123,142.5C 111.333,156.167 99.6667,169.833 88,183.5C 81.0785,194.841 77.0785,207.174 76,220.5C 73.2242,222.14 71.2242,221.473 70,218.5C 57.7215,188.975 57.3881,159.308 69,129.5C 74.846,118.473 80.6793,107.473 86.5,96.5 Z"/></g>
<g><path style="opacity:1" fill="#e6c1bb" d="M 236.5,107.5 C 256.929,107.73 277.263,108.73 297.5,110.5C 297.007,112.806 296.674,115.139 296.5,117.5C 266.825,116.74 237.158,115.74 207.5,114.5C 206.993,109.879 207.826,105.546 210,101.5C 221.057,93.1945 229.391,95.5278 235,108.5C 235.383,107.944 235.883,107.611 236.5,107.5 Z"/></g>
<g><path style="opacity:1" fill="#e7bbb1" d="M 207.5,114.5 C 237.158,115.74 266.825,116.74 296.5,117.5C 295.627,122.531 294.627,127.531 293.5,132.5C 267.791,131.645 242.124,130.312 216.5,128.5C 210.839,126.546 207.505,122.546 206.5,116.5C 207.338,116.158 207.672,115.492 207.5,114.5 Z"/></g>
<g><path style="opacity:1" fill="#d4736d" d="M 282.5,120.5 C 285.518,120.335 288.518,120.502 291.5,121C 293.275,124.394 292.608,127.06 289.5,129C 281.261,130.611 278.927,127.777 282.5,120.5 Z"/></g>
<g><path style="opacity:1" fill="#d4726d" d="M 258.5,118.5 C 261.988,118.705 265.321,119.539 268.5,121C 270.69,125.73 269.19,128.23 264,128.5C 256.364,128.323 254.53,124.99 258.5,118.5 Z"/></g>
<g><path style="opacity:1" fill="#d3706a" d="M 216.5,129.5 C 220.167,129.5 223.833,129.5 227.5,129.5C 228.38,135.728 229.713,141.728 231.5,147.5C 232.539,150.921 234.539,153.588 237.5,155.5C 240.167,160.167 243.833,163.833 248.5,166.5C 245.947,171.61 243.947,176.943 242.5,182.5C 233.059,173.059 222.726,164.726 211.5,157.5C 212.909,148.12 214.576,138.787 216.5,129.5 Z"/></g>
<g><path style="opacity:1" fill="#e6b3ab" d="M 216.5,129.5 C 216.5,129.167 216.5,128.833 216.5,128.5C 242.124,130.312 267.791,131.645 293.5,132.5C 292.296,138.319 290.629,143.986 288.5,149.5C 269.501,148.806 250.501,148.139 231.5,147.5C 229.713,141.728 228.38,135.728 227.5,129.5C 223.833,129.5 220.167,129.5 216.5,129.5 Z"/></g>
<g><path style="opacity:1" fill="#e7aea1" d="M 231.5,147.5 C 250.501,148.139 269.501,148.806 288.5,149.5C 287.736,152.018 286.736,154.351 285.5,156.5C 269.5,156.167 253.5,155.833 237.5,155.5C 234.539,153.588 232.539,150.921 231.5,147.5 Z"/></g>
<g><path style="opacity:1" fill="#c0a795" d="M 211.5,157.5 C 222.726,164.726 233.059,173.059 242.5,182.5C 246.063,185.896 249.063,189.729 251.5,194C 248.951,197.602 246.284,201.102 243.5,204.5C 242.833,205.5 242.167,206.5 241.5,207.5C 227.926,192.217 212.26,179.551 194.5,169.5C 195.995,163.518 197.495,157.518 199,151.5C 203.238,153.369 207.405,155.369 211.5,157.5 Z"/></g>
<g><path style="opacity:1" fill="#e6a69c" d="M 237.5,155.5 C 253.5,155.833 269.5,156.167 285.5,156.5C 283.529,167.146 277.196,172.146 266.5,171.5C 259.943,171.525 253.943,169.858 248.5,166.5C 243.833,163.833 240.167,160.167 237.5,155.5 Z"/></g>
<g><path style="opacity:1" fill="#525164" d="M 248.5,166.5 C 253.943,169.858 259.943,171.525 266.5,171.5C 272.537,177.37 278.037,183.704 283,190.5C 286.238,194.309 288.404,198.642 289.5,203.5C 274.245,204.483 258.911,204.817 243.5,204.5C 246.284,201.102 248.951,197.602 251.5,194C 249.063,189.729 246.063,185.896 242.5,182.5C 243.947,176.943 245.947,171.61 248.5,166.5 Z"/></g>
<g><path style="opacity:1" fill="#e6e0d8" d="M 194.5,169.5 C 212.26,179.551 227.926,192.217 241.5,207.5C 242.642,211.071 243.309,214.738 243.5,218.5C 231.833,218.5 220.167,218.5 208.5,218.5C 206.02,217.758 203.687,216.758 201.5,215.5C 186.096,211.055 173.429,202.722 163.5,190.5C 172.997,182.252 183.331,175.252 194.5,169.5 Z"/></g>
<g><path style="opacity:1" fill="#e05c94" d="M 163.5,190.5 C 173.429,202.722 186.096,211.055 201.5,215.5C 205.165,219.081 206.332,223.415 205,228.5C 202.392,233.397 199.559,238.063 196.5,242.5C 183.25,241.216 170.916,237.05 159.5,230C 146.076,221.122 134.076,210.622 123.5,198.5C 127.99,192.196 132.49,185.863 137,179.5C 141.31,175.571 146.143,174.738 151.5,177C 155.365,181.694 159.365,186.194 163.5,190.5 Z"/></g>
<g><path style="opacity:1" fill="#922753" d="M 143.5,196.5 C 151.933,195.417 154.266,198.584 150.5,206C 143.735,208.243 140.902,205.743 142,198.5C 142.717,197.956 143.217,197.289 143.5,196.5 Z"/></g>
<g><path style="opacity:1" fill="#912652" d="M 123.5,198.5 C 134.076,210.622 146.076,221.122 159.5,230C 170.916,237.05 183.25,241.216 196.5,242.5C 195.59,245.992 193.924,248.992 191.5,251.5C 169.775,247.304 150.775,237.804 134.5,223C 128.936,217.605 123.603,212.105 118.5,206.5C 120.167,203.833 121.833,201.167 123.5,198.5 Z"/></g>
<g><path style="opacity:1" fill="#4b4b5d" d="M 289.5,203.5 C 289.702,205.989 289.202,208.323 288,210.5C 275.228,222.434 263.395,235.1 252.5,248.5C 249.209,238.686 246.209,228.686 243.5,218.5C 243.309,214.738 242.642,211.071 241.5,207.5C 242.167,206.5 242.833,205.5 243.5,204.5C 258.911,204.817 274.245,204.483 289.5,203.5 Z"/></g>
<g><path style="opacity:1" fill="#d35086" d="M 118.5,206.5 C 123.603,212.105 128.936,217.605 134.5,223C 150.775,237.804 169.775,247.304 191.5,251.5C 189.668,255.836 187.335,259.836 184.5,263.5C 178.386,259.229 171.719,255.895 164.5,253.5C 162.95,252.559 161.284,251.893 159.5,251.5C 149.711,247.106 140.045,242.439 130.5,237.5C 131.11,230.26 128.11,227.76 121.5,230C 118.675,233.524 119.008,236.69 122.5,239.5C 122.44,240.043 122.107,240.376 121.5,240.5C 115.559,237.634 109.559,234.967 103.5,232.5C 107.709,223.312 112.709,214.645 118.5,206.5 Z"/></g>
<g><path style="opacity:1" fill="#e4d6ce" d="M 208.5,218.5 C 220.167,218.5 231.833,218.5 243.5,218.5C 246.209,228.686 249.209,238.686 252.5,248.5C 253.519,253.911 254.853,259.244 256.5,264.5C 255.234,263.91 253.901,263.41 252.5,263C 235.995,262.831 219.662,262.331 203.5,261.5C 207.053,254.063 210.886,246.729 215,239.5C 216.847,231.208 214.68,224.208 208.5,218.5 Z"/></g>
<g><path style="opacity:1" fill="#922753" d="M 176.5,219.5 C 184.241,219.738 186.241,223.238 182.5,230C 177.308,231.872 174.308,230.205 173.5,225C 173.863,222.808 174.863,220.974 176.5,219.5 Z"/></g>
<g><path style="opacity:1" fill="#912652" d="M 130.5,237.5 C 128.18,239.226 125.513,239.893 122.5,239.5C 119.008,236.69 118.675,233.524 121.5,230C 128.11,227.76 131.11,230.26 130.5,237.5 Z"/></g>
<g><path style="opacity:1" fill="#902551" d="M 102.5,233.5 C 113.517,245.021 125.85,254.854 139.5,263C 151.727,269.473 164.727,273.307 178.5,274.5C 177.833,276.167 177.167,277.833 176.5,279.5C 175.599,280.29 174.932,281.29 174.5,282.5C 143.74,278.788 118.406,265.121 98.5,241.5C 99.3257,238.515 100.659,235.849 102.5,233.5 Z"/></g>
<g><path style="opacity:1" fill="#c9497d" d="M 102.5,233.5 C 102.5,232.833 102.833,232.5 103.5,232.5C 109.559,234.967 115.559,237.634 121.5,240.5C 122.107,240.376 122.44,240.043 122.5,239.5C 125.513,239.893 128.18,239.226 130.5,237.5C 140.045,242.439 149.711,247.106 159.5,251.5C 154.211,253.711 153.211,257.211 156.5,262C 163.539,263.13 166.206,260.296 164.5,253.5C 171.719,255.895 178.386,259.229 184.5,263.5C 182.75,267.335 180.75,271.001 178.5,274.5C 164.727,273.307 151.727,269.473 139.5,263C 125.85,254.854 113.517,245.021 102.5,233.5 Z"/></g>
<g><path style="opacity:1" fill="#912652" d="M 159.5,251.5 C 161.284,251.893 162.95,252.559 164.5,253.5C 166.206,260.296 163.539,263.13 156.5,262C 153.211,257.211 154.211,253.711 159.5,251.5 Z"/></g>
<g><path style="opacity:1" fill="#bb3e71" d="M 98.5,241.5 C 118.406,265.121 143.74,278.788 174.5,282.5C 171.153,287.869 167.819,293.203 164.5,298.5C 161.41,295.592 157.743,293.758 153.5,293C 151.532,291.539 150.198,289.705 149.5,287.5C 146.799,284.346 143.466,283.679 139.5,285.5C 129.468,282.238 119.802,278.238 110.5,273.5C 113.835,266.324 111.502,263.157 103.5,264C 102.619,264.708 101.953,265.542 101.5,266.5C 100.844,267.278 100.011,267.944 99,268.5C 96,266.833 93,265.167 90,263.5C 88.9889,264.056 88.1556,264.722 87.5,265.5C 90.1029,256.964 93.7695,248.964 98.5,241.5 Z"/></g>
<g><path style="opacity:1" fill="#b79c89" d="M 201.5,215.5 C 203.687,216.758 206.02,217.758 208.5,218.5C 214.68,224.208 216.847,231.208 215,239.5C 210.886,246.729 207.053,254.063 203.5,261.5C 199.928,267.641 196.595,273.974 193.5,280.5C 187.642,280.822 181.975,280.489 176.5,279.5C 177.167,277.833 177.833,276.167 178.5,274.5C 180.75,271.001 182.75,267.335 184.5,263.5C 187.335,259.836 189.668,255.836 191.5,251.5C 193.924,248.992 195.59,245.992 196.5,242.5C 199.559,238.063 202.392,233.397 205,228.5C 206.332,223.415 205.165,219.081 201.5,215.5 Z"/></g>
<g><path style="opacity:1" fill="#e0cdc6" d="M 203.5,261.5 C 219.662,262.331 235.995,262.831 252.5,263C 253.901,263.41 255.234,263.91 256.5,264.5C 258.656,271.456 260.656,278.456 262.5,285.5C 238.833,285.5 215.167,285.5 191.5,285.5C 191.893,283.716 192.559,282.05 193.5,280.5C 196.595,273.974 199.928,267.641 203.5,261.5 Z"/></g>
<g><path style="opacity:1" fill="#902551" d="M 110.5,273.5 C 104.04,275.711 101.04,273.378 101.5,266.5C 101.953,265.542 102.619,264.708 103.5,264C 111.502,263.157 113.835,266.324 110.5,273.5 Z"/></g>
<g><path style="opacity:1" fill="#b23768" d="M 101.5,266.5 C 101.04,273.378 104.04,275.711 110.5,273.5C 119.802,278.238 129.468,282.238 139.5,285.5C 137.432,290.696 139.098,294.03 144.5,295.5C 148.591,294.399 150.258,291.733 149.5,287.5C 150.198,289.705 151.532,291.539 153.5,293C 157.743,293.758 161.41,295.592 164.5,298.5C 163.073,301.764 160.739,304.264 157.5,306C 153.179,306.499 148.846,306.666 144.5,306.5C 129.514,303.835 115.847,298.168 103.5,289.5C 99.1702,285.002 95.0035,280.335 91,275.5C 88.9653,272.439 87.7986,269.105 87.5,265.5C 88.1556,264.722 88.9889,264.056 90,263.5C 93,265.167 96,266.833 99,268.5C 100.011,267.944 100.844,267.278 101.5,266.5 Z"/></g>
<g><path style="opacity:1" fill="#902552" d="M 149.5,287.5 C 150.258,291.733 148.591,294.399 144.5,295.5C 139.098,294.03 137.432,290.696 139.5,285.5C 143.466,283.679 146.799,284.346 149.5,287.5 Z"/></g>
<g><path style="opacity:1" fill="#e0c7c0" d="M 191.5,285.5 C 215.167,285.5 238.833,285.5 262.5,285.5C 265.149,291.762 267.815,298.095 270.5,304.5C 240.5,305.167 210.5,305.833 180.5,306.5C 183.772,299.246 187.439,292.246 191.5,285.5 Z"/></g>
<g><path style="opacity:1" fill="#d4716b" d="M 103.5,289.5 C 115.847,298.168 129.514,303.835 144.5,306.5C 145.301,308.042 145.634,309.708 145.5,311.5C 138.723,322.052 132.723,333.052 127.5,344.5C 124.167,341.833 121.167,338.833 118.5,335.5C 117.873,319.933 112.207,306.6 101.5,295.5C 102.167,293.5 102.833,291.5 103.5,289.5 Z"/></g>
<g><path style="opacity:1" fill="#e6e6e7" d="M 446.5,377.5 C 446.5,370.5 446.5,363.5 446.5,356.5C 452.105,351.397 457.605,346.064 463,340.5C 467.15,331.295 469.316,321.628 469.5,311.5C 475.477,304.52 481.477,297.52 487.5,290.5C 488.882,309.145 487.049,327.478 482,345.5C 471.243,357.427 459.41,368.094 446.5,377.5 Z"/></g>
<g><path style="opacity:1" fill="#b19582" d="M 176.5,279.5 C 181.975,280.489 187.642,280.822 193.5,280.5C 192.559,282.05 191.893,283.716 191.5,285.5C 187.439,292.246 183.772,299.246 180.5,306.5C 179.662,306.842 179.328,307.508 179.5,308.5C 174.853,319.463 166.52,324.797 154.5,324.5C 151.253,320.341 148.253,316.008 145.5,311.5C 145.634,309.708 145.301,308.042 144.5,306.5C 148.846,306.666 153.179,306.499 157.5,306C 160.739,304.264 163.073,301.764 164.5,298.5C 167.819,293.203 171.153,287.869 174.5,282.5C 174.932,281.29 175.599,280.29 176.5,279.5 Z"/></g>
<g><path style="opacity:1" fill="#3e3e50" d="M 295.5,349.5 C 285.167,348.167 274.833,348.167 264.5,349.5C 263.167,348.167 261.833,346.833 260.5,345.5C 263.35,341.801 265.683,337.801 267.5,333.5C 268.5,333.167 269.167,332.5 269.5,331.5C 285.849,321.657 302.849,312.824 320.5,305C 322.167,304.333 323.833,304.333 325.5,305C 329.231,312.854 331.731,321.021 333,329.5C 320.552,336.307 308.052,342.973 295.5,349.5 Z"/></g>
<g><path style="opacity:1" fill="#dac8bb" d="M 270.5,304.5 C 270.971,306.579 271.637,308.579 272.5,310.5C 246.572,311.657 220.572,311.823 194.5,311C 189.067,311.118 184.067,310.285 179.5,308.5C 179.328,307.508 179.662,306.842 180.5,306.5C 210.5,305.833 240.5,305.167 270.5,304.5 Z"/></g>
<g><path style="opacity:1" fill="#d9c0b9" d="M 179.5,308.5 C 184.067,310.285 189.067,311.118 194.5,311C 220.572,311.823 246.572,311.657 272.5,310.5C 272.982,317.737 271.982,324.737 269.5,331.5C 269.167,332.5 268.5,333.167 267.5,333.5C 231.833,333.5 196.167,333.5 160.5,333.5C 158.5,330.5 156.5,327.5 154.5,324.5C 166.52,324.797 174.853,319.463 179.5,308.5 Z"/></g>
<g><path style="opacity:1" fill="#e5b0a8" d="M 101.5,295.5 C 112.207,306.6 117.873,319.933 118.5,335.5C 115.816,333.807 113.149,332.14 110.5,330.5C 110.027,329.094 109.027,328.427 107.5,328.5C 102.294,325.403 97.2945,322.069 92.5,318.5C 94.9088,310.608 97.9088,302.941 101.5,295.5 Z"/></g>
<g><path style="opacity:1" fill="#656595" d="M 92.5,318.5 C 97.2945,322.069 102.294,325.403 107.5,328.5C 97.7045,331.932 87.8712,335.265 78,338.5C 77.6174,337.944 77.1174,337.611 76.5,337.5C 75.3056,329.555 74.639,321.555 74.5,313.5C 80.6201,314.763 86.6201,316.429 92.5,318.5 Z"/></g>
<g><path style="opacity:1" fill="#5a5a8a" d="M 107.5,328.5 C 109.027,328.427 110.027,329.094 110.5,330.5C 113.455,338.986 115.788,347.652 117.5,356.5C 106.027,359.769 94.6937,363.436 83.5,367.5C 80.1661,357.849 77.8328,347.849 76.5,337.5C 77.1174,337.611 77.6174,337.944 78,338.5C 87.8712,335.265 97.7045,331.932 107.5,328.5 Z"/></g>
<g><path style="opacity:1" fill="#38384c" d="M 110.5,330.5 C 113.149,332.14 115.816,333.807 118.5,335.5C 121.167,338.833 124.167,341.833 127.5,344.5C 129.467,347.216 130.967,350.216 132,353.5C 133.873,366.758 136.373,379.758 139.5,392.5C 140.804,402.414 143.138,412.08 146.5,421.5C 133.833,421.5 121.167,421.5 108.5,421.5C 106,418.506 104,415.173 102.5,411.5C 110.946,406.634 115.946,399.3 117.5,389.5C 119.97,378.557 119.97,367.557 117.5,356.5C 115.788,347.652 113.455,338.986 110.5,330.5 Z"/></g>
<g><path style="opacity:1" fill="#d9b9b4" d="M 160.5,333.5 C 196.167,333.5 231.833,333.5 267.5,333.5C 265.683,337.801 263.35,341.801 260.5,345.5C 254.865,351.601 247.865,353.934 239.5,352.5C 237.996,350.164 235.996,348.331 233.5,347C 209.761,346.823 186.094,346.323 162.5,345.5C 162.809,341.295 162.143,337.295 160.5,333.5 Z"/></g>
<g><path style="opacity:1" fill="#87a2d4" d="M 469.5,311.5 C 469.316,321.628 467.15,331.295 463,340.5C 457.605,346.064 452.105,351.397 446.5,356.5C 435.396,364.425 424.396,372.592 413.5,381C 408.972,384.096 404.305,386.929 399.5,389.5C 399.5,383.167 399.5,376.833 399.5,370.5C 425.203,353.81 448.536,334.144 469.5,311.5 Z"/></g>
<g><path style="opacity:1" fill="#38384b" d="M 295.5,349.5 C 293.727,350.892 291.727,352.059 289.5,353C 288.919,353.893 288.585,354.893 288.5,356C 293.616,375.864 296.616,396.031 297.5,416.5C 296.833,417.167 296.167,417.833 295.5,418.5C 284.554,421.32 273.554,423.986 262.5,426.5C 260.508,415.898 259.341,405.231 259,394.5C 261.221,388.39 264.221,382.723 268,377.5C 270.923,371.811 271.923,365.811 271,359.5C 269.004,356.014 266.837,352.681 264.5,349.5C 274.833,348.167 285.167,348.167 295.5,349.5 Z"/></g>
<g><path style="opacity:1" fill="#d65289" d="M 162.5,345.5 C 186.094,346.323 209.761,346.823 233.5,347C 235.996,348.331 237.996,350.164 239.5,352.5C 240.833,355.833 240.833,359.167 239.5,362.5C 209.562,360.307 179.562,358.307 149.5,356.5C 150.817,349.333 155.151,345.666 162.5,345.5 Z"/></g>
<g><path style="opacity:1" fill="#d04d81" d="M 149.5,356.5 C 179.562,358.307 209.562,360.307 239.5,362.5C 238.535,366.773 237.869,371.106 237.5,375.5C 236.121,376.609 234.455,377.276 232.5,377.5C 211.305,376.335 190.305,374.668 169.5,372.5C 172.902,369.658 173.235,366.492 170.5,363C 168.167,362.333 165.833,362.333 163.5,363C 161.963,364.11 161.297,365.61 161.5,367.5C 156.081,369.82 150.414,370.153 144.5,368.5C 145.795,364.266 147.461,360.266 149.5,356.5 Z"/></g>
<g><path style="opacity:1" fill="#e0e6e7" d="M 446.5,356.5 C 446.5,363.5 446.5,370.5 446.5,377.5C 411.884,404.152 373.884,425.152 332.5,440.5C 332.5,435.167 332.5,429.833 332.5,424.5C 348.877,418.144 364.543,410.478 379.5,401.5C 386.534,397.988 393.201,393.988 399.5,389.5C 404.305,386.929 408.972,384.096 413.5,381C 424.396,372.592 435.396,364.425 446.5,356.5 Z"/></g>
<g><path style="opacity:1" fill="#922652" d="M 169.5,372.5 C 164.846,374.198 162.18,372.531 161.5,367.5C 161.297,365.61 161.963,364.11 163.5,363C 165.833,362.333 168.167,362.333 170.5,363C 173.235,366.492 172.902,369.658 169.5,372.5 Z"/></g>
<g><path style="opacity:1" fill="#4e4e7c" d="M 117.5,356.5 C 119.97,367.557 119.97,378.557 117.5,389.5C 109.773,392.014 102.106,394.681 94.5,397.5C 90.0442,387.8 86.3775,377.8 83.5,367.5C 94.6937,363.436 106.027,359.769 117.5,356.5 Z"/></g>
<g><path style="opacity:1" fill="#932753" d="M 210.5,362.5 C 217.797,362.617 219.964,365.95 217,372.5C 210.035,375.505 207.035,373.172 208,365.5C 209.045,364.627 209.878,363.627 210.5,362.5 Z"/></g>
<g><path style="opacity:1" fill="#a68874" d="M 260.5,345.5 C 261.833,346.833 263.167,348.167 264.5,349.5C 266.837,352.681 269.004,356.014 271,359.5C 271.923,365.811 270.923,371.811 268,377.5C 264.221,382.723 261.221,388.39 259,394.5C 259.341,405.231 260.508,415.898 262.5,426.5C 253.594,428.643 244.594,430.31 235.5,431.5C 234.835,425.523 234.502,419.523 234.5,413.5C 234.5,407.5 234.5,401.5 234.5,395.5C 235.414,392.272 235.747,388.939 235.5,385.5C 236.167,382.167 236.833,378.833 237.5,375.5C 237.869,371.106 238.535,366.773 239.5,362.5C 240.833,359.167 240.833,355.833 239.5,352.5C 247.865,353.934 254.865,351.601 260.5,345.5 Z"/></g>
<g><path style="opacity:1" fill="#89a2da" d="M 399.5,370.5 C 399.5,376.833 399.5,383.167 399.5,389.5C 393.201,393.988 386.534,397.988 379.5,401.5C 378.833,395.5 378.167,389.5 377.5,383.5C 384.798,379.181 392.131,374.848 399.5,370.5 Z"/></g>
<g><path style="opacity:1" fill="#c7497c" d="M 161.5,367.5 C 162.18,372.531 164.846,374.198 169.5,372.5C 190.305,374.668 211.305,376.335 232.5,377.5C 234.455,377.276 236.121,376.609 237.5,375.5C 236.833,378.833 236.167,382.167 235.5,385.5C 219.214,387.243 202.88,387.743 186.5,387C 171.413,385.25 156.413,383.083 141.5,380.5C 142.5,376.5 143.5,372.5 144.5,368.5C 150.414,370.153 156.081,369.82 161.5,367.5 Z"/></g>
<g><path style="opacity:1" fill="#902551" d="M 141.5,380.5 C 156.413,383.083 171.413,385.25 186.5,387C 202.88,387.743 219.214,387.243 235.5,385.5C 235.747,388.939 235.414,392.272 234.5,395.5C 205.63,397.564 176.964,396.064 148.5,391C 145.325,390.507 142.659,389.34 140.5,387.5C 140.448,385.097 140.781,382.764 141.5,380.5 Z"/></g>
<g><path style="opacity:1" fill="#434375" d="M 117.5,389.5 C 115.946,399.3 110.946,406.634 102.5,411.5C 99.3429,407.194 96.6762,402.528 94.5,397.5C 102.106,394.681 109.773,392.014 117.5,389.5 Z"/></g>
<g><path style="opacity:1" fill="#8ea8da" d="M 377.5,383.5 C 378.167,389.5 378.833,395.5 379.5,401.5C 364.543,410.478 348.877,418.144 332.5,424.5C 329.579,425.696 326.579,426.696 323.5,427.5C 324.12,421.074 323.453,415.074 321.5,409.5C 340.518,401.816 359.185,393.149 377.5,383.5 Z"/></g>
<g><path style="opacity:1" fill="#ba3d70" d="M 140.5,387.5 C 142.659,389.34 145.325,390.507 148.5,391C 176.964,396.064 205.63,397.564 234.5,395.5C 234.5,401.5 234.5,407.5 234.5,413.5C 228.464,413.64 222.464,413.307 216.5,412.5C 212.5,407.167 208.5,407.167 204.5,412.5C 194.251,411.367 183.918,410.701 173.5,410.5C 168.041,410.103 162.708,410.603 157.5,412C 153.904,415.735 152.571,420.235 153.5,425.5C 153.5,427.5 153.5,429.5 153.5,431.5C 151.167,428.167 148.833,424.833 146.5,421.5C 143.138,412.08 140.804,402.414 139.5,392.5C 139.216,390.585 139.549,388.919 140.5,387.5 Z"/></g>
<g><path style="opacity:1" fill="#912552" d="M 216.5,412.5 C 215.376,419.145 211.876,420.812 206,417.5C 204.991,415.975 204.491,414.308 204.5,412.5C 208.5,407.167 212.5,407.167 216.5,412.5 Z"/></g>
<g><path style="opacity:1" fill="#8fa8e0" d="M 321.5,409.5 C 323.453,415.074 324.12,421.074 323.5,427.5C 314.852,431.253 305.852,434.253 296.5,436.5C 295.51,430.69 295.177,424.69 295.5,418.5C 296.167,417.833 296.833,417.167 297.5,416.5C 305.5,414.167 313.5,411.833 321.5,409.5 Z"/></g>
<g><path style="opacity:1" fill="#e6b565" d="M 173.5,410.5 C 178.919,413.962 180.919,418.962 179.5,425.5C 170.833,425.5 162.167,425.5 153.5,425.5C 152.571,420.235 153.904,415.735 157.5,412C 162.708,410.603 168.041,410.103 173.5,410.5 Z"/></g>
<g><path style="opacity:1" fill="#95aedf" d="M 295.5,418.5 C 295.177,424.69 295.51,430.69 296.5,436.5C 276.175,443.617 255.175,448.283 233.5,450.5C 233.5,444.5 233.5,438.5 233.5,432.5C 234.492,432.672 235.158,432.338 235.5,431.5C 244.594,430.31 253.594,428.643 262.5,426.5C 273.554,423.986 284.554,421.32 295.5,418.5 Z"/></g>
<g><path style="opacity:1" fill="#4c4c5e" d="M 64.5,426.5 C 64.9234,427.265 65.2568,428.098 65.5,429C 63.4346,436.76 61.7679,444.593 60.5,452.5C 59.1667,452.5 57.8333,452.5 56.5,452.5C 46.19,451.256 36.19,448.756 26.5,445C 23.9251,442.786 22.5918,439.953 22.5,436.5C 22.4398,431.275 24.1065,426.775 27.5,423C 29.5336,421.994 31.7002,421.494 34,421.5C 44.1862,423.104 54.3529,424.771 64.5,426.5 Z"/></g>
<g><path style="opacity:1" fill="#e6b0a6" d="M 108.5,421.5 C 121.167,421.5 133.833,421.5 146.5,421.5C 148.833,424.833 151.167,428.167 153.5,431.5C 153.5,433.5 153.5,435.5 153.5,437.5C 153.5,440.167 153.5,442.833 153.5,445.5C 152.539,443.735 152.205,441.735 152.5,439.5C 137.513,438.02 122.513,436.687 107.5,435.5C 107.5,434.167 107.5,432.833 107.5,431.5C 107.253,428.061 107.586,424.728 108.5,421.5 Z"/></g>
<g><path style="opacity:1" fill="#b03667" d="M 173.5,410.5 C 183.918,410.701 194.251,411.367 204.5,412.5C 204.491,414.308 204.991,415.975 206,417.5C 211.876,420.812 215.376,419.145 216.5,412.5C 222.464,413.307 228.464,413.64 234.5,413.5C 234.502,419.523 234.835,425.523 235.5,431.5C 235.158,432.338 234.492,432.672 233.5,432.5C 215.607,435.159 197.607,436.492 179.5,436.5C 179.5,432.833 179.5,429.167 179.5,425.5C 180.919,418.962 178.919,413.962 173.5,410.5 Z"/></g>
<g><path style="opacity:1" fill="#d7e0e7" d="M 332.5,424.5 C 332.5,429.833 332.5,435.167 332.5,440.5C 283.456,458.442 232.789,467.775 180.5,468.5C 179.523,465.713 179.19,462.713 179.5,459.5C 179.5,457.5 179.5,455.5 179.5,453.5C 197.574,453.662 215.574,452.662 233.5,450.5C 255.175,448.283 276.175,443.617 296.5,436.5C 305.852,434.253 314.852,431.253 323.5,427.5C 326.579,426.696 329.579,425.696 332.5,424.5 Z"/></g>
<g><path style="opacity:1" fill="#444456" d="M 64.5,426.5 C 70.2077,427.41 75.8744,428.41 81.5,429.5C 81.9234,430.265 82.2568,431.098 82.5,432C 80.8373,440.503 78.504,448.67 75.5,456.5C 69.0537,455.263 62.7204,453.93 56.5,452.5C 57.8333,452.5 59.1667,452.5 60.5,452.5C 61.7679,444.593 63.4346,436.76 65.5,429C 65.2568,428.098 64.9234,427.265 64.5,426.5 Z"/></g>
<g><path style="opacity:1" fill="#3c3c4f" d="M 81.5,429.5 C 90.1557,430.299 98.8223,430.966 107.5,431.5C 107.5,432.833 107.5,434.167 107.5,435.5C 106.378,443.411 105.712,451.411 105.5,459.5C 95.4832,458.665 85.4832,457.665 75.5,456.5C 78.504,448.67 80.8373,440.503 82.5,432C 82.2568,431.098 81.9234,430.265 81.5,429.5 Z"/></g>
<g><path style="opacity:1" fill="#e7ae58" d="M 153.5,425.5 C 162.167,425.5 170.833,425.5 179.5,425.5C 179.5,429.167 179.5,432.833 179.5,436.5C 179.5,436.833 179.5,437.167 179.5,437.5C 170.833,437.5 162.167,437.5 153.5,437.5C 153.5,435.5 153.5,433.5 153.5,431.5C 153.5,429.5 153.5,427.5 153.5,425.5 Z"/></g>
<g><path style="opacity:1" fill="#98afe5" d="M 233.5,432.5 C 233.5,438.5 233.5,444.5 233.5,450.5C 215.574,452.662 197.574,453.662 179.5,453.5C 179.5,448.167 179.5,442.833 179.5,437.5C 179.5,437.167 179.5,436.833 179.5,436.5C 197.607,436.492 215.607,435.159 233.5,432.5 Z"/></g>
<g><path style="opacity:1" fill="#e7bcb0" d="M 153.5,448.5 C 153.5,452.167 153.5,455.833 153.5,459.5C 153.5,462.833 153.5,466.167 153.5,469.5C 153.5,471.833 153.5,474.167 153.5,476.5C 152.539,474.735 152.205,472.735 152.5,470.5C 152.5,467.5 152.5,464.5 152.5,461.5C 137.102,460.271 121.768,458.604 106.5,456.5C 106.5,455.5 106.5,454.5 106.5,453.5C 121.794,455.459 137.127,457.125 152.5,458.5C 152.5,456.167 152.5,453.833 152.5,451.5C 138.155,450.184 123.821,448.684 109.5,447C 107.893,445.951 107.227,444.451 107.5,442.5C 123.039,443.558 138.372,445.558 153.5,448.5 Z"/></g>
<g><path style="opacity:1" fill="#e4b7b1" d="M 107.5,435.5 C 122.513,436.687 137.513,438.02 152.5,439.5C 152.205,441.735 152.539,443.735 153.5,445.5C 153.5,446.5 153.5,447.5 153.5,448.5C 138.372,445.558 123.039,443.558 107.5,442.5C 107.227,444.451 107.893,445.951 109.5,447C 123.821,448.684 138.155,450.184 152.5,451.5C 152.5,453.833 152.5,456.167 152.5,458.5C 137.127,457.125 121.794,455.459 106.5,453.5C 106.5,454.5 106.5,455.5 106.5,456.5C 106.737,457.791 106.404,458.791 105.5,459.5C 105.712,451.411 106.378,443.411 107.5,435.5 Z"/></g>
<g><path style="opacity:1" fill="#e7a347" d="M 153.5,437.5 C 162.167,437.5 170.833,437.5 179.5,437.5C 179.5,442.833 179.5,448.167 179.5,453.5C 179.5,455.5 179.5,457.5 179.5,459.5C 170.833,459.5 162.167,459.5 153.5,459.5C 153.5,455.833 153.5,452.167 153.5,448.5C 153.5,447.5 153.5,446.5 153.5,445.5C 153.5,442.833 153.5,440.167 153.5,437.5 Z"/></g>
<g><path style="opacity:1" fill="#e7c0ba" d="M 106.5,456.5 C 121.768,458.604 137.102,460.271 152.5,461.5C 152.5,464.5 152.5,467.5 152.5,470.5C 137.406,468.115 122.406,466.782 107.5,466.5C 106.076,464.485 105.41,462.152 105.5,459.5C 106.404,458.791 106.737,457.791 106.5,456.5 Z"/></g>
<g><path style="opacity:1" fill="#e79939" d="M 153.5,459.5 C 162.167,459.5 170.833,459.5 179.5,459.5C 179.19,462.713 179.523,465.713 180.5,468.5C 180.5,470.5 180.5,472.5 180.5,474.5C 179.732,473.737 179.232,472.737 179,471.5C 174.983,478.138 169.15,480.304 161.5,478C 157.182,476.521 154.515,473.688 153.5,469.5C 153.5,466.167 153.5,462.833 153.5,459.5 Z"/></g>
<g><path style="opacity:1" fill="#e7c8c1" d="M 152.5,470.5 C 152.205,472.735 152.539,474.735 153.5,476.5C 153.802,479.059 153.468,481.393 152.5,483.5C 137.93,484.586 124.597,481.086 112.5,473C 110.235,471.242 108.568,469.075 107.5,466.5C 122.406,466.782 137.406,468.115 152.5,470.5 Z"/></g>
<g><path style="opacity:1" fill="#e1762b" d="M 153.5,469.5 C 154.515,473.688 157.182,476.521 161.5,478C 169.15,480.304 174.983,478.138 179,471.5C 179.232,472.737 179.732,473.737 180.5,474.5C 182.695,492.812 175.028,499.312 157.5,494C 154.419,491.186 152.753,487.686 152.5,483.5C 153.468,481.393 153.802,479.059 153.5,476.5C 153.5,474.167 153.5,471.833 153.5,469.5 Z"/></g>
</svg>
