<?xml version="1.0" encoding="UTF-8"?>
<!DOCTYPE svg PUBLIC "-//W3C//DTD SVG 1.1//EN" "http://www.w3.org/Graphics/SVG/1.1/DTD/svg11.dtd">
<svg xmlns="http://www.w3.org/2000/svg" version="1.1" width="512px" height="512px" style="shape-rendering:geometricPrecision; text-rendering:geometricPrecision; image-rendering:optimizeQuality; fill-rule:evenodd; clip-rule:evenodd" xmlns:xlink="http://www.w3.org/1999/xlink">
<g><path style="opacity:1" fill="#000000" d="M 275.5,16.5 C 283.174,16.3336 290.841,16.5003 298.5,17C 309.332,20.1672 320.332,22.1672 331.5,23C 333.187,24.913 333.687,27.0797 333,29.5C 331.077,33.2576 328.577,36.5909 325.5,39.5C 340.178,48.0079 352.511,59.1746 362.5,73C 367.39,76.0743 372.557,78.5743 378,80.5C 380.477,84.7796 379.644,88.2796 375.5,91C 368.073,96.4784 359.74,99.8117 350.5,101C 353.052,105.153 354.718,109.653 355.5,114.5C 355.152,116.697 354.152,118.53 352.5,120C 345.174,120.5 337.841,120.666 330.5,120.5C 329.936,136.844 329.103,153.177 328,169.5C 327.875,177.341 326.709,185.008 324.5,192.5C 338.178,197.003 352.011,201.003 366,204.5C 366.833,204.167 367.667,203.833 368.5,203.5C 371.988,194.514 376.321,186.014 381.5,178C 391.033,171.791 400.2,172.291 409,179.5C 407.98,189.814 406.813,200.147 405.5,210.5C 423.27,212.637 439.104,219.304 453,230.5C 455.644,234.122 457.477,238.122 458.5,242.5C 467.618,245.706 476.618,249.206 485.5,253C 492.997,260.698 494.497,269.531 490,279.5C 484.072,288.147 475.905,291.314 465.5,289C 461.539,287.402 457.539,285.902 453.5,284.5C 453.167,285.167 452.833,285.833 452.5,286.5C 457.33,334.317 456.164,381.984 449,429.5C 447.649,431.01 445.982,432.01 444,432.5C 435.303,429.818 427.303,425.818 420,420.5C 423.827,440.285 426.827,460.285 429,480.5C 429.667,484.5 429.667,488.5 429,492.5C 428.5,493 428,493.5 427.5,494C 416.167,494.667 404.833,494.667 393.5,494C 387.333,491.833 383.167,487.667 381,481.5C 378.496,443.313 371.496,405.98 360,369.5C 359.654,367.152 358.487,365.319 356.5,364C 350.724,360.556 345.224,356.723 340,352.5C 338.24,365.155 336.573,377.822 335,390.5C 334.667,423.833 334.333,457.167 334,490.5C 333.535,491.931 332.701,493.097 331.5,494C 279.121,494.982 226.788,494.649 174.5,493C 162.48,488.315 154.646,479.815 151,467.5C 150.065,461.152 149.065,454.818 148,448.5C 144.729,442.236 140.395,436.903 135,432.5C 133.233,433.34 131.899,434.673 131,436.5C 121.994,451.516 115.327,467.516 111,484.5C 108.044,489.231 103.877,492.398 98.5,494C 77.5937,494.826 56.7603,494.66 36,493.5C 35.1251,492.127 34.6251,490.627 34.5,489C 38.5478,463.406 49.3811,441.24 67,422.5C 75.6507,415.016 83.8173,407.016 91.5,398.5C 76.9853,382.155 65.4853,363.822 57,343.5C 56.0218,340.331 56.5218,337.497 58.5,335C 65.1538,333.927 71.8204,332.927 78.5,332C 101.5,311.667 124.5,291.333 147.5,271C 144.637,269.601 141.637,268.601 138.5,268C 136.406,266.745 135.406,264.912 135.5,262.5C 143.499,237.671 159.166,219.505 182.5,208C 133.744,194.644 85.0777,180.978 36.5,167C 26.1973,156.897 20.364,144.731 19,130.5C 30.3046,123.897 42.4712,119.564 55.5,117.5C 103.872,130.843 152.205,144.343 200.5,158C 204.213,159.691 205.379,162.525 204,166.5C 202.883,168.124 201.383,169.124 199.5,169.5C 151.41,155.858 103.243,142.525 55,129.5C 46.4644,130.79 38.2978,133.29 30.5,137C 33.2876,142.745 36.4543,148.245 40,153.5C 41.3199,155.654 43.1532,157.154 45.5,158C 99.4275,173.148 153.427,187.982 207.5,202.5C 217.542,201.2 227.209,202.534 236.5,206.5C 237.833,194.833 237.833,183.167 236.5,171.5C 221.624,175.131 212.457,169.464 209,154.5C 208.83,148.804 208.33,143.138 207.5,137.5C 194.475,124.416 189.975,108.749 194,90.5C 198.757,68.7438 211.923,55.2438 233.5,50C 242.122,31.857 256.122,20.6903 275.5,16.5 Z M 277.5,27.5 C 283.842,27.3338 290.175,27.5005 296.5,28C 302.795,29.8237 309.128,31.4904 315.5,33C 312.088,34.4545 308.921,36.2879 306,38.5C 305.333,40.5 305.333,42.5 306,44.5C 313.885,47.0252 321.385,50.5252 328.5,55C 338.5,63.6667 347.833,73 356.5,83C 358.167,84 359.833,85 361.5,86C 354.359,89.6924 347.026,90.1924 339.5,87.5C 334.934,88.3015 333.1,90.9682 334,95.5C 337.309,99.7866 339.809,104.453 341.5,109.5C 322.271,109.926 305.438,103.926 291,91.5C 288.955,88.5767 286.788,85.7433 284.5,83C 281.044,81.877 278.21,82.7104 276,85.5C 276.406,91.472 276.406,97.472 276,103.5C 275.164,109.507 272.497,114.507 268,118.5C 265.179,114.337 261.345,112.837 256.5,114C 254.413,118.807 252.246,123.64 250,128.5C 249.311,129.357 248.478,130.023 247.5,130.5C 237.469,117.637 226.135,116.304 213.5,126.5C 207.162,119.675 203.829,111.509 203.5,102C 204.837,85.2987 212.503,72.632 226.5,64C 231.126,62.4534 235.793,61.1201 240.5,60C 244.197,54.1144 248.03,48.2811 252,42.5C 258.977,34.7668 267.477,29.7668 277.5,27.5 Z M 287.5,104.5 C 296.567,110.863 306.567,115.363 317.5,118C 318.428,118.388 319.095,119.055 319.5,120C 318.896,125.826 318.229,131.66 317.5,137.5C 315.205,138.432 312.871,139.265 310.5,140C 307.575,143.696 307.908,147.029 311.5,150C 313.441,150.743 315.274,150.576 317,149.5C 317.305,161.209 316.638,172.876 315,184.5C 313.632,193.271 309.298,199.938 302,204.5C 284.791,200.215 268.958,193.048 254.5,183C 249.264,176.081 247.097,168.248 248,159.5C 246.309,155.787 243.475,154.621 239.5,156C 229.921,164.714 223.421,162.881 220,150.5C 218.607,144.076 219.773,138.243 223.5,133C 228.038,130.697 232.205,131.197 236,134.5C 236.904,138.111 238.071,141.611 239.5,145C 245.723,146.224 251.056,144.557 255.5,140C 258.388,136.778 260.888,133.278 263,129.5C 264.808,131.396 266.975,131.896 269.5,131C 279.82,125.22 285.82,116.386 287.5,104.5 Z M 390.5,185.5 C 392.924,185.192 395.257,185.526 397.5,186.5C 395.769,195.445 394.269,204.445 393,213.5C 392.139,216.368 390.472,218.702 388,220.5C 384.585,229.307 383.085,238.473 383.5,248C 383.301,253.467 383.968,258.801 385.5,264C 384.148,270.796 382.981,277.629 382,284.5C 377.338,285.837 374.005,284.17 372,279.5C 370.446,262.858 369.779,246.192 370,229.5C 376.06,214.385 382.893,199.718 390.5,185.5 Z M 248.5,193.5 C 260.112,201.638 272.778,207.638 286.5,211.5C 286.204,221.451 289.704,229.784 297,236.5C 296.216,246.288 290.883,251.955 281,253.5C 263.917,248.75 253.251,237.75 249,220.5C 248.5,211.506 248.334,202.506 248.5,193.5 Z M 319.5,203.5 C 334.178,207.559 348.845,211.725 363.5,216C 357.77,225.069 355.77,234.902 357.5,245.5C 347.884,242.513 338.218,239.679 328.5,237C 326.167,235.333 323.833,233.667 321.5,232C 315.252,230.288 309.085,228.454 303,226.5C 300.769,223.205 298.936,219.705 297.5,216C 307.677,216.747 315.01,212.58 319.5,203.5 Z M 202.5,213.5 C 209.841,213.334 217.174,213.5 224.5,214C 234.103,216.347 239.103,222.513 239.5,232.5C 235.296,253.079 225.296,270.245 209.5,284C 205.763,287.919 201.43,288.919 196.5,287C 182.668,274.08 166.668,264.746 148.5,259C 159.15,234.83 177.15,219.664 202.5,213.5 Z M 402.5,222.5 C 418.63,223.317 432.797,228.984 445,239.5C 446.065,242.375 446.565,245.375 446.5,248.5C 446.025,255.169 445.525,261.835 445,268.5C 443.579,272.92 440.579,275.587 436,276.5C 421.601,274.464 408.601,269.131 397,260.5C 395.087,256.741 394.253,252.741 394.5,248.5C 394.613,240.967 395.78,233.634 398,226.5C 399.397,224.93 400.897,223.596 402.5,222.5 Z M 308.5,240.5 C 312.229,240.576 315.562,241.743 318.5,244C 321.817,249.615 325.317,255.115 329,260.5C 333.034,263.022 336.701,266.022 340,269.5C 333.359,292.159 319.859,309.659 299.5,322C 297.5,322.5 295.5,323 293.5,323.5C 286.384,321.108 279.384,318.441 272.5,315.5C 266.136,317.427 265.136,320.927 269.5,326C 275.264,329.216 281.264,331.883 287.5,334C 296.689,335.43 305.023,333.43 312.5,328C 326.22,317.612 337.054,304.779 345,289.5C 341.318,315.206 329.151,336.039 308.5,352C 304.759,354.732 300.759,357.066 296.5,359C 293.167,359.667 289.833,359.667 286.5,359C 258.486,347.156 236.152,328.489 219.5,303C 211.345,300.488 208.512,303.321 211,311.5C 230.893,340.903 257.726,360.903 291.5,371.5C 301.253,370.124 309.919,366.29 317.5,360C 321.095,356.95 324.595,353.784 328,350.5C 325.779,368.066 324.112,385.732 323,403.5C 322.5,419.497 322.333,435.497 322.5,451.5C 282.5,451.5 242.5,451.5 202.5,451.5C 204.048,425.198 204.548,398.865 204,372.5C 199.668,357.172 195.334,341.838 191,326.5C 189.6,321.169 188.6,315.836 188,310.5C 191.799,307.703 195.299,304.536 198.5,301C 204.15,299.784 209.483,297.784 214.5,295C 223.747,286.92 231.747,277.753 238.5,267.5C 248.873,280.379 261.206,290.879 275.5,299C 290.371,303.991 302.871,300.491 313,288.5C 316.354,283.793 319.187,278.793 321.5,273.5C 319.714,268.82 316.381,267.32 311.5,269C 307.549,277.613 301.549,284.279 293.5,289C 288.014,290.713 282.681,290.046 277.5,287C 264.399,278.733 253.399,268.233 244.5,255.5C 245.564,252.373 246.897,249.373 248.5,246.5C 255.606,254.56 264.273,260.393 274.5,264C 292.764,266.24 304.098,258.407 308.5,240.5 Z M 337.5,252.5 C 344.404,253.306 351.404,254.972 358.5,257.5C 359.248,266.904 360.415,276.237 362,285.5C 364.468,290.989 368.635,294.489 374.5,296C 379.47,297.081 384.47,297.414 389.5,297C 390.701,296.097 391.535,294.931 392,293.5C 393.093,287.516 394.093,281.516 395,275.5C 395.414,275.043 395.914,274.709 396.5,274.5C 410.292,282.94 425.126,286.94 441,286.5C 445.877,330.584 445.21,374.584 439,418.5C 406.658,403.116 395.324,377.782 405,342.5C 406.476,323.839 407.476,305.172 408,286.5C 404.337,283.667 401.004,284 398,287.5C 396.76,298.478 395.76,309.478 395,320.5C 381.444,312.387 368.777,303.054 357,292.5C 358.768,275.037 352.268,261.704 337.5,252.5 Z M 457.5,254.5 C 465.035,256.844 472.368,259.678 479.5,263C 483.092,270.985 480.592,276.152 472,278.5C 466.366,277.066 460.866,275.233 455.5,273C 456.553,266.92 457.22,260.754 457.5,254.5 Z M 159.5,275.5 C 169.898,280.697 179.232,287.364 187.5,295.5C 169.792,312.042 151.626,328.042 133,343.5C 120.838,337.584 108.004,334.084 94.5,333C 116.36,313.968 138.027,294.801 159.5,275.5 Z M 353.5,306.5 C 366.828,315.644 380.328,324.644 394,333.5C 393.711,346.465 393.045,359.465 392,372.5C 374.52,362.678 357.854,351.678 342,339.5C 341.333,337.167 341.333,334.833 342,332.5C 347.208,324.42 351.041,315.753 353.5,306.5 Z M 176.5,320.5 C 177.117,320.611 177.617,320.944 178,321.5C 179.815,327.078 180.815,332.745 181,338.5C 177.62,353.589 171.287,367.256 162,379.5C 155.088,370.681 148.921,361.348 143.5,351.5C 154.822,341.511 165.822,331.178 176.5,320.5 Z M 79.5,343.5 C 97.9526,343.156 115.286,347.323 131.5,356C 141.375,372.076 152.709,387.076 165.5,401C 159.875,403.479 154.542,406.479 149.5,410C 145.954,413.882 142.121,417.382 138,420.5C 108.012,402.34 85.5122,377.34 70.5,345.5C 73.6417,344.833 76.6417,344.166 79.5,343.5 Z M 187.5,357.5 C 189.931,363.201 191.765,369.201 193,375.5C 193.808,387.535 193.475,399.535 192,411.5C 184.339,404.338 177.173,396.671 170.5,388.5C 177.463,378.91 183.13,368.576 187.5,357.5 Z M 373.5,376.5 C 373.56,375.957 373.893,375.624 374.5,375.5C 380.336,379.252 386.336,382.752 392.5,386C 395.418,393.335 399.252,400.169 404,406.5C 410.876,431.755 415.376,457.421 417.5,483.5C 410.825,483.666 404.158,483.5 397.5,483C 395,481.833 393.167,480 392,477.5C 389.91,442.946 383.743,409.28 373.5,376.5 Z M 99.5,406.5 C 107.099,413.931 115.432,420.431 124.5,426C 113.285,441.935 105.451,459.435 101,478.5C 99.4571,480.378 97.6238,481.878 95.5,483C 79.5035,483.5 63.5035,483.667 47.5,483.5C 51.4245,464.984 59.5911,448.651 72,434.5C 81.3689,425.298 90.5356,415.965 99.5,406.5 Z M 173.5,409.5 C 182.684,415.512 188.517,423.846 191,434.5C 191.5,450.83 191.667,467.163 191.5,483.5C 176.964,484.323 167.131,477.99 162,464.5C 162.44,450.14 157.607,437.973 147.5,428C 155.037,420.081 163.704,413.914 173.5,409.5 Z M 202.5,462.5 C 230.167,462.5 257.833,462.5 285.5,462.5C 285.5,469.5 285.5,476.5 285.5,483.5C 257.833,483.5 230.167,483.5 202.5,483.5C 202.5,476.5 202.5,469.5 202.5,462.5 Z M 296.5,462.5 C 305.167,462.5 313.833,462.5 322.5,462.5C 322.5,469.5 322.5,476.5 322.5,483.5C 313.833,483.5 305.167,483.5 296.5,483.5C 296.5,476.5 296.5,469.5 296.5,462.5 Z"/></g>
<g><path style="opacity:1" fill="#000000" d="M 280.5,137.5 C 285.675,137.272 290.675,138.105 295.5,140C 297.729,142.553 298.062,145.386 296.5,148.5C 295.312,149.84 293.812,150.507 292,150.5C 287.713,149.72 283.547,148.554 279.5,147C 278.01,143.603 278.344,140.436 280.5,137.5 Z"/></g>
<g><path style="opacity:1" fill="#000000" d="M 245.5,294.5 C 251.125,294.624 254.459,297.458 255.5,303C 253.041,309.294 249.208,310.127 244,305.5C 241.697,301.332 242.197,297.665 245.5,294.5 Z"/></g>
</svg>
