<?xml version="1.0" encoding="UTF-8"?>
<!DOCTYPE svg PUBLIC "-//W3C//DTD SVG 1.1//EN" "http://www.w3.org/Graphics/SVG/1.1/DTD/svg11.dtd">
<svg xmlns="http://www.w3.org/2000/svg" version="1.1" width="512px" height="512px" style="shape-rendering:geometricPrecision; text-rendering:geometricPrecision; image-rendering:optimizeQuality; fill-rule:evenodd; clip-rule:evenodd" xmlns:xlink="http://www.w3.org/1999/xlink">
<g><path style="opacity:1" fill="#34333f" d="M 204.5,162.5 C 204.255,166.079 202.255,168.079 198.5,168.5C 183.676,163.737 168.676,159.737 153.5,156.5C 120.246,145.911 86.5798,136.578 52.5,128.5C 44.835,129.468 37.5017,131.635 30.5,135C 29.9781,135.561 29.6448,136.228 29.5,137C 32.024,143.217 35.1907,149.05 39,154.5C 40.129,156.141 41.629,157.141 43.5,157.5C 61.9779,163.123 80.6445,168.456 99.5,173.5C 132.18,182.603 164.847,191.77 197.5,201C 206.116,202.173 214.783,202.839 223.5,203C 228.415,203.305 232.915,204.805 237,207.5C 237.499,203.179 237.666,198.846 237.5,194.5C 237.5,186.833 237.5,179.167 237.5,171.5C 232.489,171.666 227.489,171.499 222.5,171C 219.014,169.004 215.681,166.837 212.5,164.5C 209.074,155.894 207.574,146.894 208,137.5C 195.033,125.266 190.033,110.266 193,92.5C 197.313,69.3549 210.813,54.6882 233.5,48.5C 244.462,26.2394 262.462,14.906 287.5,14.5C 302.116,17.2638 316.782,19.5971 331.5,21.5C 333.395,23.8671 333.895,26.5337 333,29.5C 330.64,32.3603 328.473,35.3603 326.5,38.5C 331.303,41.4711 335.97,44.6377 340.5,48C 348.864,56.03 356.864,64.3633 364.5,73C 369.443,75.3875 374.276,77.8875 379,80.5C 380.724,82.7693 380.724,85.1026 379,87.5C 371.208,94.6044 362.041,98.9377 351.5,100.5C 353.641,104.59 354.975,108.923 355.5,113.5C 355.674,115.693 355.007,117.527 353.5,119C 345.841,119.5 338.174,119.666 330.5,119.5C 330.492,143.47 328.826,167.303 325.5,191C 325.645,191.772 325.978,192.439 326.5,193C 339.978,196.911 353.478,200.744 367,204.5C 367.772,204.355 368.439,204.022 369,203.5C 372.333,196.167 375.667,188.833 379,181.5C 387.835,172.39 397.835,171.056 409,177.5C 409.402,178.872 409.902,180.205 410.5,181.5C 408.833,190.833 407.167,200.167 405.5,209.5C 424.105,212.304 440.605,219.638 455,231.5C 457.059,234.949 458.559,238.616 459.5,242.5C 468.275,245.388 476.942,248.555 485.5,252C 497.398,263.298 497.398,274.632 485.5,286C 475.005,290.849 464.672,290.349 454.5,284.5C 454.167,285.167 453.833,285.833 453.5,286.5C 457.283,325.14 457.45,363.806 454,402.5C 453.158,411.905 451.824,421.238 450,430.5C 448.559,431.87 446.892,432.87 445,433.5C 436.416,430.64 428.416,426.64 421,421.5C 424.747,441.654 427.747,461.987 430,482.5C 430.667,486.167 430.667,489.833 430,493.5C 429.167,494.333 428.333,495.167 427.5,496C 417.5,496.667 407.5,496.667 397.5,496C 394.126,495.479 391.126,494.146 388.5,492C 370.491,491.167 352.491,491.334 334.5,492.5C 333.636,494.197 332.303,495.363 330.5,496C 281.167,496.667 231.833,496.667 182.5,496C 177.854,495.674 173.521,494.34 169.5,492C 147.833,491.333 126.167,491.333 104.5,492C 101.382,493.893 98.0487,495.226 94.5,496C 75.5,496.667 56.5,496.667 37.5,496C 36.0692,495.535 34.9025,494.701 34,493.5C 35.1096,475.837 40.4429,459.504 50,444.5C 54.6153,437.55 59.6153,430.884 65,424.5C 73.9841,416.683 82.4841,408.349 90.5,399.5C 76.0023,383.144 64.5023,364.81 56,344.5C 55.2716,341.77 55.4383,339.103 56.5,336.5C 57.0253,335.808 57.6919,335.308 58.5,335C 65.2511,334.298 71.9177,333.298 78.5,332C 100.869,311.296 123.535,290.963 146.5,271C 143.637,269.601 140.637,268.601 137.5,268C 135.848,266.53 134.848,264.697 134.5,262.5C 142.48,237.688 158.147,219.521 181.5,208C 133.211,194.178 84.878,180.511 36.5,167C 26.5349,157.755 19.8683,146.422 16.5,133C 16.8623,131.775 17.3623,130.609 18,129.5C 29.3114,122.895 41.4781,118.562 54.5,116.5C 103.524,130.23 152.524,144.063 201.5,158C 203.141,159.129 204.141,160.629 204.5,162.5 Z M 404.5,278.5 C 404.5,280.5 404.5,282.5 404.5,284.5C 402.007,284.329 400.174,285.329 399,287.5C 397.731,298.532 396.397,309.532 395,320.5C 382.106,312.273 369.773,303.273 358,293.5C 359.524,275.382 352.69,261.548 337.5,252C 344.604,253.084 351.604,254.917 358.5,257.5C 359.961,266.442 361.128,275.442 362,284.5C 365.475,292.64 371.641,296.807 380.5,297C 383.833,297.667 387.167,297.667 390.5,297C 391.701,296.097 392.535,294.931 393,293.5C 394,286.833 395,280.167 396,273.5C 398.614,275.556 401.447,277.223 404.5,278.5 Z"/></g>
<g><path style="opacity:1" fill="#646476" d="M 339.5,62.5 C 301.833,63.8333 264.167,63.8333 226.5,62.5C 230.581,60.5622 234.915,59.3955 239.5,59C 243.125,53.5846 246.625,48.0846 250,42.5C 259.31,31.1786 271.31,25.512 286,25.5C 296.639,26.4503 307.139,28.2836 317.5,31C 314.219,33.5555 310.719,35.7222 307,37.5C 306.333,39.5 306.333,41.5 307,43.5C 319.744,46.62 330.577,52.9533 339.5,62.5 Z"/></g>
<g><path style="opacity:1" fill="#5c5c6f" d="M 226.5,62.5 C 264.167,63.8333 301.833,63.8333 339.5,62.5C 343.468,66.6395 347.301,70.9728 351,75.5C 353.747,78.7537 356.914,81.4203 360.5,83.5C 336.006,84.4977 311.339,84.831 286.5,84.5C 283.167,80.5 279.833,80.5 276.5,84.5C 253.327,84.8308 230.327,84.4975 207.5,83.5C 210.683,73.6501 217.017,66.6501 226.5,62.5 Z"/></g>
<g><path style="opacity:1" fill="#565669" d="M 207.5,83.5 C 230.327,84.4975 253.327,84.8308 276.5,84.5C 278.14,91.7322 277.807,98.7322 275.5,105.5C 251.5,105.5 227.5,105.5 203.5,105.5C 203.334,101.154 203.501,96.8206 204,92.5C 204.505,89.135 205.672,86.135 207.5,83.5 Z"/></g>
<g><path style="opacity:1" fill="#555568" d="M 360.5,83.5 C 361.473,83.9867 362.473,84.4867 363.5,85C 355.832,88.5906 347.832,89.4239 339.5,87.5C 335.717,88.4372 334.217,90.7705 335,94.5C 338.429,98.7718 341.262,103.438 343.5,108.5C 323.948,109.927 306.615,104.427 291.5,92C 289.611,89.6182 287.945,87.1182 286.5,84.5C 311.339,84.831 336.006,84.4977 360.5,83.5 Z"/></g>
<g><path style="opacity:1" fill="#de827d" d="M 319.5,127.5 C 308.496,124.998 298.496,120.332 289.5,113.5C 284.705,122.132 277.872,128.465 269,132.5C 267.301,132.613 266.134,131.947 265.5,130.5C 274.218,128.293 280.384,122.96 284,114.5C 285.168,110.494 286.335,106.494 287.5,102.5C 296.971,109.902 307.637,114.569 319.5,116.5C 319.5,120.167 319.5,123.833 319.5,127.5 Z"/></g>
<g><path style="opacity:1" fill="#505063" d="M 203.5,105.5 C 227.5,105.5 251.5,105.5 275.5,105.5C 274.968,110.893 272.468,115.227 268,118.5C 265.066,114.538 261.233,113.038 256.5,114C 254.593,118.456 252.759,122.956 251,127.5C 249.667,128.833 248.333,130.167 247,131.5C 241.431,120.975 232.931,117.475 221.5,121C 218.098,122.4 215.264,124.567 213,127.5C 207.375,121.248 204.208,113.915 203.5,105.5 Z"/></g>
<g><path style="opacity:1" fill="#f9cec7" d="M 319.5,127.5 C 319.817,131.702 319.483,135.702 318.5,139.5C 315.595,138.299 312.595,138.466 309.5,140C 307.393,141.264 306.393,143.097 306.5,145.5C 302.5,145.5 298.5,145.5 294.5,145.5C 294.703,143.61 294.037,142.11 292.5,141C 288.572,138.525 284.739,138.358 281,140.5C 280.506,142.134 280.34,143.801 280.5,145.5C 268.655,145.828 256.988,145.495 245.5,144.5C 253.088,141.246 258.755,135.913 262.5,128.5C 263.518,129.193 264.518,129.859 265.5,130.5C 266.134,131.947 267.301,132.613 269,132.5C 277.872,128.465 284.705,122.132 289.5,113.5C 298.496,120.332 308.496,124.998 319.5,127.5 Z"/></g>
<g><path style="opacity:1" fill="#e8f0f8" d="M 153.5,156.5 C 152.503,156.47 151.836,156.97 151.5,158C 149.604,161.781 148.938,165.614 149.5,169.5C 134.529,165.008 119.529,160.674 104.5,156.5C 93.1022,153.646 81.7688,150.48 70.5,147C 59.0776,144.526 50.0776,148.026 43.5,157.5C 41.629,157.141 40.129,156.141 39,154.5C 35.1907,149.05 32.024,143.217 29.5,137C 29.6448,136.228 29.9781,135.561 30.5,135C 37.5017,131.635 44.835,129.468 52.5,128.5C 86.5798,136.578 120.246,145.911 153.5,156.5 Z"/></g>
<g><path style="opacity:1" fill="#e2857f" d="M 318.5,139.5 C 318.5,141.833 318.5,144.167 318.5,146.5C 316.044,147.262 313.544,147.929 311,148.5C 308.817,148.478 307.317,147.478 306.5,145.5C 306.393,143.097 307.393,141.264 309.5,140C 312.595,138.466 315.595,138.299 318.5,139.5 Z"/></g>
<g><path style="opacity:1" fill="#e28680" d="M 294.5,145.5 C 290.093,149.281 285.427,149.281 280.5,145.5C 280.34,143.801 280.506,142.134 281,140.5C 284.739,138.358 288.572,138.525 292.5,141C 294.037,142.11 294.703,143.61 294.5,145.5 Z"/></g>
<g><path style="opacity:1" fill="#f7c7be" d="M 245.5,144.5 C 256.988,145.495 268.655,145.828 280.5,145.5C 285.427,149.281 290.093,149.281 294.5,145.5C 298.5,145.5 302.5,145.5 306.5,145.5C 307.317,147.478 308.817,148.478 311,148.5C 313.544,147.929 316.044,147.262 318.5,146.5C 318.717,151.23 318.383,155.897 317.5,160.5C 293.833,160.5 270.167,160.5 246.5,160.5C 241.809,157.831 237.142,157.997 232.5,161C 227.421,162.568 223.587,161.068 221,156.5C 218.175,149.609 217.842,142.609 220,135.5C 225.351,128.021 231.017,127.688 237,134.5C 237.8,137.867 238.966,141.034 240.5,144C 242.134,144.494 243.801,144.66 245.5,144.5 Z"/></g>
<g><path style="opacity:1" fill="#9bb3e9" d="M 104.5,156.5 C 104.611,157.117 104.944,157.617 105.5,158C 104.019,163.474 102.019,168.641 99.5,173.5C 80.6445,168.456 61.9779,163.123 43.5,157.5C 50.0776,148.026 59.0776,144.526 70.5,147C 81.7688,150.48 93.1022,153.646 104.5,156.5 Z"/></g>
<g><path style="opacity:1" fill="#f0f7f8" d="M 153.5,156.5 C 168.676,159.737 183.676,163.737 198.5,168.5C 202.255,168.079 204.255,166.079 204.5,162.5C 207.167,163.167 209.833,163.833 212.5,164.5C 215.681,166.837 219.014,169.004 222.5,171C 227.489,171.499 232.489,171.666 237.5,171.5C 237.5,179.167 237.5,186.833 237.5,194.5C 208.183,186.169 178.85,177.835 149.5,169.5C 148.938,165.614 149.604,161.781 151.5,158C 151.836,156.97 152.503,156.47 153.5,156.5 Z"/></g>
<g><path style="opacity:1" fill="#f9c0b6" d="M 246.5,160.5 C 270.167,160.5 293.833,160.5 317.5,160.5C 317.5,163.833 317.5,167.167 317.5,170.5C 316.596,171.209 316.263,172.209 316.5,173.5C 294.167,173.5 271.833,173.5 249.5,173.5C 248.778,173.082 248.278,172.416 248,171.5C 247.76,167.748 247.26,164.081 246.5,160.5 Z"/></g>
<g><path style="opacity:1" fill="#f8b7ad" d="M 317.5,170.5 C 317.7,182.735 314.033,193.568 306.5,203C 304.966,203.923 303.299,204.423 301.5,204.5C 287.666,201.39 274.666,196.223 262.5,189C 258.542,186.766 255.042,183.933 252,180.5C 250.097,178.559 249.264,176.226 249.5,173.5C 271.833,173.5 294.167,173.5 316.5,173.5C 316.263,172.209 316.596,171.209 317.5,170.5 Z"/></g>
<g><path style="opacity:1" fill="#a1baee" d="M 104.5,156.5 C 119.529,160.674 134.529,165.008 149.5,169.5C 178.85,177.835 208.183,186.169 237.5,194.5C 237.666,198.846 237.499,203.179 237,207.5C 232.915,204.805 228.415,203.305 223.5,203C 214.783,202.839 206.116,202.173 197.5,201C 164.847,191.77 132.18,182.603 99.5,173.5C 102.019,168.641 104.019,163.474 105.5,158C 104.944,157.617 104.611,157.117 104.5,156.5 Z"/></g>
<g><path style="opacity:1" fill="#f6bd61" d="M 385.5,231.5 C 380.288,230.953 375.288,229.953 370.5,228.5C 375.84,214.653 381.674,200.986 388,187.5C 390.984,184.9 394.484,183.9 398.5,184.5C 396.785,194.79 395.285,205.124 394,215.5C 389.324,219.852 386.491,225.185 385.5,231.5 Z"/></g>
<g><path style="opacity:1" fill="#a77474" d="M 249.5,192.5 C 248.51,198.31 248.177,204.31 248.5,210.5C 248.5,213.833 248.5,217.167 248.5,220.5C 247.177,210.992 247.177,201.325 248.5,191.5C 249.107,191.624 249.44,191.957 249.5,192.5 Z"/></g>
<g><path style="opacity:1" fill="#df827c" d="M 249.5,192.5 C 260.691,200.762 273.024,206.929 286.5,211C 287.216,215.544 288.216,220.044 289.5,224.5C 284.919,223.51 280.253,222.843 275.5,222.5C 266.19,219.348 257.19,215.348 248.5,210.5C 248.177,204.31 248.51,198.31 249.5,192.5 Z"/></g>
<g><path style="opacity:1" fill="#f6f6f8" d="M 341.5,208.5 C 338.532,213.302 334.698,217.302 330,220.5C 322.536,218.684 315.369,216.351 308.5,213.5C 313.188,210.859 317.021,207.192 320,202.5C 327.047,204.887 334.213,206.887 341.5,208.5 Z"/></g>
<g><path style="opacity:1" fill="#acc4f7" d="M 341.5,208.5 C 349.104,210.957 356.77,213.29 364.5,215.5C 362.941,219.619 361.107,223.619 359,227.5C 358.832,233.495 358.998,239.495 359.5,245.5C 349.381,243.637 339.381,241.137 329.5,238C 322.657,232.051 314.657,229.051 305.5,229C 301.165,225.497 298.498,220.997 297.5,215.5C 301.204,214.767 304.871,214.1 308.5,213.5C 315.369,216.351 322.536,218.684 330,220.5C 334.698,217.302 338.532,213.302 341.5,208.5 Z"/></g>
<g><path style="opacity:1" fill="#edf2f9" d="M 202.5,213.5 C 210.068,212.188 217.735,212.188 225.5,213.5C 232.276,234.443 225.61,249.277 205.5,258C 184.5,261.496 171.166,252.996 165.5,232.5C 170.431,226.7 176.431,222.366 183.5,219.5C 179.328,229.486 181.995,236.986 191.5,242C 207.351,243.15 213.518,235.983 210,220.5C 208.285,217.283 205.785,214.95 202.5,213.5 Z"/></g>
<g><path style="opacity:1" fill="#e5ebf9" d="M 225.5,213.5 C 228.987,214.408 231.987,216.074 234.5,218.5C 235.772,240.699 226.439,256.533 206.5,266C 192.479,270.166 179.146,268.5 166.5,261C 160.582,256.93 156.915,251.43 155.5,244.5C 158.367,240.091 161.701,236.091 165.5,232.5C 171.166,252.996 184.5,261.496 205.5,258C 225.61,249.277 232.276,234.443 225.5,213.5 Z"/></g>
<g><path style="opacity:1" fill="#f6f9f9" d="M 202.5,213.5 C 205.785,214.95 208.285,217.283 210,220.5C 213.518,235.983 207.351,243.15 191.5,242C 181.995,236.986 179.328,229.486 183.5,219.5C 189.24,215.921 195.573,213.921 202.5,213.5 Z"/></g>
<g><path style="opacity:1" fill="#f8cdc5" d="M 248.5,210.5 C 257.19,215.348 266.19,219.348 275.5,222.5C 274.506,232.319 274.173,242.319 274.5,252.5C 260.29,246.295 251.624,235.628 248.5,220.5C 248.5,217.167 248.5,213.833 248.5,210.5 Z"/></g>
<g><path style="opacity:1" fill="#adc5f6" d="M 234.5,218.5 C 238.116,222.143 240.116,226.643 240.5,232C 235.714,255.425 223.714,274.091 204.5,288C 201.833,288.667 199.167,288.667 196.5,288C 182.515,275.378 166.515,266.045 148.5,260C 148.043,259.586 147.709,259.086 147.5,258.5C 149.688,253.445 152.355,248.778 155.5,244.5C 156.915,251.43 160.582,256.93 166.5,261C 179.146,268.5 192.479,270.166 206.5,266C 226.439,256.533 235.772,240.699 234.5,218.5 Z"/></g>
<g><path style="opacity:1" fill="#f7d3cc" d="M 407.5,221.5 C 407.829,236.676 407.496,251.676 406.5,266.5C 396.324,263.157 392.658,256.157 395.5,245.5C 395.463,239.446 395.963,233.446 397,227.5C 399.436,223.55 402.936,221.55 407.5,221.5 Z"/></g>
<g><path style="opacity:1" fill="#f8c8c0" d="M 407.5,221.5 C 413.987,222.551 420.32,224.217 426.5,226.5C 426.5,242.5 426.5,258.5 426.5,274.5C 419.115,273.469 412.448,270.802 406.5,266.5C 407.496,251.676 407.829,236.676 407.5,221.5 Z"/></g>
<g><path style="opacity:1" fill="#f8bcb2" d="M 275.5,222.5 C 280.253,222.843 284.919,223.51 289.5,224.5C 291.876,229.418 294.876,233.918 298.5,238C 295.206,250.808 287.206,255.641 274.5,252.5C 274.173,242.319 274.506,232.319 275.5,222.5 Z"/></g>
<g><path style="opacity:1" fill="#f9c0b6" d="M 426.5,226.5 C 429.696,227.929 432.696,229.595 435.5,231.5C 435.5,246.167 435.5,260.833 435.5,275.5C 433.833,275.5 432.167,275.5 430.5,275.5C 429.041,275.567 427.708,275.234 426.5,274.5C 426.5,258.5 426.5,242.5 426.5,226.5 Z"/></g>
<g><path style="opacity:1" fill="#f6b7ad" d="M 435.5,231.5 C 440.975,233.136 445.142,236.47 448,241.5C 448.087,251.201 447.42,260.868 446,270.5C 443.929,274.953 440.429,276.953 435.5,276.5C 433.631,276.493 431.964,276.16 430.5,275.5C 432.167,275.5 433.833,275.5 435.5,275.5C 435.5,260.833 435.5,246.167 435.5,231.5 Z"/></g>
<g><path style="opacity:1" fill="#f7af56" d="M 370.5,228.5 C 375.288,229.953 380.288,230.953 385.5,231.5C 385.02,236.822 384.687,242.155 384.5,247.5C 379.817,246.926 375.15,246.26 370.5,245.5C 369.196,239.734 369.196,234.067 370.5,228.5 Z"/></g>
<g><path style="opacity:1" fill="#8f3864" d="M 254.5,251.5 C 252.623,252.659 252.123,254.326 253,256.5C 263.718,270.551 276.885,281.718 292.5,290C 298.308,290.734 303.641,289.401 308.5,286C 313.134,282.368 317.467,278.368 321.5,274C 322.448,273.517 323.448,273.351 324.5,273.5C 324.5,274.5 324.5,275.5 324.5,276.5C 321.382,283.235 317.382,289.401 312.5,295C 300.683,303.137 288.683,303.47 276.5,296C 266.193,289.927 256.693,282.76 248,274.5C 243.008,287.828 235.508,299.494 225.5,309.5C 224.833,309.5 224.167,309.5 223.5,309.5C 221.734,307.229 219.734,305.063 217.5,303C 215.866,302.506 214.199,302.34 212.5,302.5C 211.263,301.035 210.263,299.368 209.5,297.5C 227.401,284.572 240.068,267.572 247.5,246.5C 248.002,245.479 248.668,245.312 249.5,246C 250.762,248.276 252.429,250.109 254.5,251.5 Z"/></g>
<g><path style="opacity:1" fill="#f7a24d" d="M 370.5,245.5 C 375.15,246.26 379.817,246.926 384.5,247.5C 384.096,253.162 384.762,258.662 386.5,264C 386.472,265.07 386.139,265.903 385.5,266.5C 385.5,265.167 385.5,263.833 385.5,262.5C 380.781,262.112 376.114,261.445 371.5,260.5C 370.513,255.695 370.179,250.695 370.5,245.5 Z"/></g>
<g><path style="opacity:1" fill="#515163" d="M 457.5,253.5 C 465.146,256.32 472.812,259.153 480.5,262C 485.003,268.309 484.003,273.643 477.5,278C 470.368,279.107 463.701,277.773 457.5,274C 457.242,267.27 457.242,260.437 457.5,253.5 Z"/></g>
<g><path style="opacity:1" fill="#dc5c8f" d="M 345.5,278.5 C 338.615,277.116 331.615,276.45 324.5,276.5C 324.5,275.5 324.5,274.5 324.5,273.5C 323.448,273.351 322.448,273.517 321.5,274C 317.467,278.368 313.134,282.368 308.5,286C 303.641,289.401 298.308,290.734 292.5,290C 276.885,281.718 263.718,270.551 253,256.5C 252.123,254.326 252.623,252.659 254.5,251.5C 263.342,260.424 274.009,264.591 286.5,264C 298.941,260.393 306.275,252.227 308.5,239.5C 318.262,241.089 324.428,246.756 327,256.5C 332.042,261.176 337.042,265.843 342,270.5C 343.845,272.867 345.011,275.533 345.5,278.5 Z"/></g>
<g><path style="opacity:1" fill="#f19546" d="M 371.5,260.5 C 376.114,261.445 380.781,262.112 385.5,262.5C 385.5,263.833 385.5,265.167 385.5,266.5C 384.669,273.149 384.002,279.815 383.5,286.5C 377.948,286.814 374.115,284.481 372,279.5C 371.5,273.175 371.334,266.842 371.5,260.5 Z"/></g>
<g><path style="opacity:1" fill="#df827c" d="M 173.5,308.5 C 171.747,306.777 169.747,305.277 167.5,304C 161.115,301.138 154.781,298.304 148.5,295.5C 145.715,293.905 142.715,292.905 139.5,292.5C 145.304,286.866 151.304,281.366 157.5,276C 163.219,277.187 168.553,279.52 173.5,283C 178.909,286.701 183.909,290.867 188.5,295.5C 183.776,300.229 178.776,304.563 173.5,308.5 Z"/></g>
<g><path style="opacity:1" fill="#adc5f6" d="M 404.5,278.5 C 412.044,281.292 419.711,283.792 427.5,286C 432.823,286.499 438.156,286.666 443.5,286.5C 444.257,296.482 444.59,306.482 444.5,316.5C 431.67,311.259 420.003,304.259 409.5,295.5C 410.621,290.291 408.955,286.624 404.5,284.5C 404.5,282.5 404.5,280.5 404.5,278.5 Z"/></g>
<g><path style="opacity:1" fill="#903864" d="M 345.5,278.5 C 347.574,292.708 344.908,306.042 337.5,318.5C 337.565,318.062 337.399,317.728 337,317.5C 328.172,325.833 318.005,331.999 306.5,336C 296.441,338.451 288.441,335.618 282.5,327.5C 298.983,331.228 312.65,326.561 323.5,313.5C 333.594,303.663 340.927,291.996 345.5,278.5 Z"/></g>
<g><path style="opacity:1" fill="#f8bfb7" d="M 139.5,292.5 C 142.715,292.905 145.715,293.905 148.5,295.5C 148.5,307.5 148.5,319.5 148.5,331.5C 144.153,335.845 139.486,339.845 134.5,343.5C 134.83,327.991 134.496,312.658 133.5,297.5C 135.475,295.863 137.475,294.196 139.5,292.5 Z"/></g>
<g><path style="opacity:1" fill="#cf5284" d="M 324.5,276.5 C 331.615,276.45 338.615,277.116 345.5,278.5C 340.927,291.996 333.594,303.663 323.5,313.5C 290.847,311.864 258.18,310.531 225.5,309.5C 235.508,299.494 243.008,287.828 248,274.5C 256.693,282.76 266.193,289.927 276.5,296C 288.683,303.47 300.683,303.137 312.5,295C 317.382,289.401 321.382,283.235 324.5,276.5 Z"/></g>
<g><path style="opacity:1" fill="#f7b8ae" d="M 148.5,295.5 C 154.781,298.304 161.115,301.138 167.5,304C 169.747,305.277 171.747,306.777 173.5,308.5C 165.493,316.507 157.159,324.173 148.5,331.5C 148.5,319.5 148.5,307.5 148.5,295.5 Z"/></g>
<g><path style="opacity:1" fill="#d2b9a7" d="M 209.5,297.5 C 210.263,299.368 211.263,301.035 212.5,302.5C 210.609,304.836 210.109,307.502 211,310.5C 229.902,338.394 255.069,358.561 286.5,371C 294.415,372.031 301.748,370.365 308.5,366C 315.912,361.259 322.745,355.759 329,349.5C 329.269,354.891 328.769,360.224 327.5,365.5C 320.896,370.478 313.896,374.978 306.5,379C 294.424,384.034 282.09,384.7 269.5,381C 262.479,378.486 255.479,375.986 248.5,373.5C 229.256,364.43 211.423,353.097 195,339.5C 194.601,339.728 194.435,340.062 194.5,340.5C 191.073,330.791 188.573,320.791 187,310.5C 190.799,307.703 194.299,304.536 197.5,301C 201.486,299.77 205.486,298.603 209.5,297.5 Z"/></g>
<g><path style="opacity:1" fill="#f6c7be" d="M 133.5,297.5 C 134.496,312.658 134.83,327.991 134.5,343.5C 134.217,344.289 133.717,344.956 133,345.5C 120.304,338.95 106.804,335.117 92.5,334C 106.038,321.625 119.704,309.459 133.5,297.5 Z"/></g>
<g><path style="opacity:1" fill="#de827d" d="M 359.5,309.5 C 356.245,321.02 351.578,332.02 345.5,342.5C 343.983,342.489 342.816,341.823 342,340.5C 341.333,337.833 341.333,335.167 342,332.5C 347.104,323.845 351.437,314.845 355,305.5C 356.667,306.733 358.167,308.067 359.5,309.5 Z"/></g>
<g><path style="opacity:1" fill="#c74a7d" d="M 223.5,309.5 C 224.167,309.5 224.833,309.5 225.5,309.5C 258.18,310.531 290.847,311.864 323.5,313.5C 312.65,326.561 298.983,331.228 282.5,327.5C 280.924,328.075 279.258,328.408 277.5,328.5C 264.182,327.531 250.849,326.864 237.5,326.5C 233.555,323.291 230.055,319.624 227,315.5C 225.579,313.595 224.412,311.595 223.5,309.5 Z"/></g>
<g><path style="opacity:1" fill="#dbe3f7" d="M 409.5,295.5 C 420.003,304.259 431.67,311.259 444.5,316.5C 445.479,319.625 445.813,322.958 445.5,326.5C 444.539,324.735 444.205,322.735 444.5,320.5C 422.709,330.694 411.375,348.027 410.5,372.5C 411.08,386.244 415.413,398.578 423.5,409.5C 414.427,403.368 408.26,395.035 405,384.5C 403.586,354.532 405.086,324.865 409.5,295.5 Z"/></g>
<g><path style="opacity:1" fill="#f8c9c0" d="M 359.5,309.5 C 364.167,312.833 368.833,316.167 373.5,319.5C 373.5,333.5 373.5,347.5 373.5,361.5C 363.466,356.153 354.133,349.82 345.5,342.5C 351.578,332.02 356.245,321.02 359.5,309.5 Z"/></g>
<g><path style="opacity:1" fill="#f7bdb3" d="M 373.5,319.5 C 380.724,324.032 387.89,328.698 395,333.5C 395.278,340.835 395.111,348.168 394.5,355.5C 393.833,361.5 393.167,367.5 392.5,373.5C 385.624,370.236 379.29,366.236 373.5,361.5C 373.5,347.5 373.5,333.5 373.5,319.5 Z"/></g>
<g><path style="opacity:1" fill="#e5ecf9" d="M 445.5,326.5 C 445.5,331.833 445.5,337.167 445.5,342.5C 431.96,352.968 427.46,366.635 432,383.5C 433.819,389.81 437.152,395.143 442,399.5C 442.278,398.584 442.778,397.918 443.5,397.5C 442.187,404.76 441.521,412.093 441.5,419.5C 434.567,417.704 428.567,414.37 423.5,409.5C 415.413,398.578 411.08,386.244 410.5,372.5C 411.375,348.027 422.709,330.694 444.5,320.5C 444.205,322.735 444.539,324.735 445.5,326.5 Z"/></g>
<g><path style="opacity:1" fill="#be4576" d="M 337.5,318.5 C 328.792,336.709 315.459,350.542 297.5,360C 293.5,360.667 289.5,360.667 285.5,360C 267.386,351.696 251.386,340.53 237.5,326.5C 250.849,326.864 264.182,327.531 277.5,328.5C 279.258,328.408 280.924,328.075 282.5,327.5C 288.441,335.618 296.441,338.451 306.5,336C 318.005,331.999 328.172,325.833 337,317.5C 337.399,317.728 337.565,318.062 337.5,318.5 Z"/></g>
<g><path style="opacity:1" fill="#ebf0f8" d="M 445.5,342.5 C 445.754,360.873 445.087,379.206 443.5,397.5C 442.778,397.918 442.278,398.584 442,399.5C 437.152,395.143 433.819,389.81 432,383.5C 427.46,366.635 431.96,352.968 445.5,342.5 Z"/></g>
<g><path style="opacity:1" fill="#f5f8f8" d="M 81.5,344.5 C 91.1538,343.881 100.487,344.881 109.5,347.5C 108.912,361.247 101.912,366.414 88.5,363C 81.9295,358.457 79.5962,352.291 81.5,344.5 Z"/></g>
<g><path style="opacity:1" fill="#edf1f8" d="M 81.5,344.5 C 79.5962,352.291 81.9295,358.457 88.5,363C 101.912,366.414 108.912,361.247 109.5,347.5C 115.285,348.536 120.618,350.536 125.5,353.5C 121.55,372.325 109.884,381.325 90.5,380.5C 81.6459,369.94 74.3126,358.273 68.5,345.5C 72.7828,344.508 77.1161,344.174 81.5,344.5 Z"/></g>
<g><path style="opacity:1" fill="#c24879" d="M 176.5,319.5 C 180.823,327.305 181.99,335.638 180,344.5C 175.858,357.784 169.858,370.117 162,381.5C 154.55,372.103 147.717,362.27 141.5,352C 153.621,341.615 165.288,330.782 176.5,319.5 Z"/></g>
<g><path style="opacity:1" fill="#3d3d4b" d="M 364.5,382.5 C 354.985,382.827 345.652,382.494 336.5,381.5C 337.41,371.809 338.577,362.143 340,352.5C 346.333,356.833 352.667,361.167 359,365.5C 361.34,371.019 363.173,376.686 364.5,382.5 Z"/></g>
<g><path style="opacity:1" fill="#e3eaf8" d="M 125.5,353.5 C 128.689,354.514 131.522,356.18 134,358.5C 138.688,367.225 143.854,375.558 149.5,383.5C 131.927,391.231 113.927,392.231 95.5,386.5C 93.086,385.089 91.4194,383.089 90.5,380.5C 109.884,381.325 121.55,372.325 125.5,353.5 Z"/></g>
<g><path style="opacity:1" fill="#ecd8cb" d="M 248.5,373.5 C 233.5,373.5 218.5,373.5 203.5,373.5C 200.302,362.571 197.302,351.571 194.5,340.5C 194.435,340.062 194.601,339.728 195,339.5C 211.423,353.097 229.256,364.43 248.5,373.5 Z"/></g>
<g><path style="opacity:1" fill="#a88281" d="M 394.5,355.5 C 394.83,361.868 394.496,368.202 393.5,374.5C 392.893,374.376 392.56,374.043 392.5,373.5C 393.167,367.5 393.833,361.5 394.5,355.5 Z"/></g>
<g><path style="opacity:1" fill="#f2e0cd" d="M 327.5,365.5 C 326.435,372.627 325.435,379.627 324.5,386.5C 284.5,386.5 244.5,386.5 204.5,386.5C 204.815,382.629 204.482,378.962 203.5,375.5C 203.5,374.833 203.5,374.167 203.5,373.5C 218.5,373.5 233.5,373.5 248.5,373.5C 255.479,375.986 262.479,378.486 269.5,381C 282.09,384.7 294.424,384.034 306.5,379C 313.896,374.978 320.896,370.478 327.5,365.5 Z"/></g>
<g><path style="opacity:1" fill="#37374a" d="M 336.5,381.5 C 345.652,382.494 354.985,382.827 364.5,382.5C 364.953,383.458 365.619,384.292 366.5,385C 366.5,386.667 366.5,388.333 366.5,390C 368.335,390.928 368.668,392.094 367.5,393.5C 368.694,395.891 369.694,398.224 370.5,400.5C 369.529,401.962 369.862,403.295 371.5,404.5C 370.653,406.061 370.986,407.561 372.5,409C 371.397,410.68 371.73,412.18 373.5,413.5C 372.39,415.496 372.724,417.329 374.5,419C 374.659,421.492 374.659,423.992 374.5,426.5C 376.373,428.149 376.706,429.983 375.5,432C 376.414,433.406 377.08,434.906 377.5,436.5C 376.566,437.568 376.232,438.901 376.5,440.5C 362.5,440.5 348.5,440.5 334.5,440.5C 334.828,429.986 334.494,419.653 333.5,409.5C 333.326,403.078 333.993,396.745 335.5,390.5C 334.667,387.342 335.001,384.342 336.5,381.5 Z"/></g>
<g><path style="opacity:1" fill="#39394a" d="M 186.5,356.5 C 191.349,365.836 194.015,376.002 194.5,387C 193.821,395.591 192.821,404.425 191.5,413.5C 190.304,413.154 190.304,412.654 191.5,412C 183.321,404.932 175.654,397.432 168.5,389.5C 176.831,379.843 182.831,368.843 186.5,356.5 Z"/></g>
<g><path style="opacity:1" fill="#adc6f8" d="M 149.5,383.5 C 155.154,389.157 160.487,395.157 165.5,401.5C 155.035,406.961 145.702,413.961 137.5,422.5C 121.324,412.987 107.324,400.987 95.5,386.5C 113.927,392.231 131.927,391.231 149.5,383.5 Z"/></g>
<g><path style="opacity:1" fill="#f2e0d3" d="M 203.5,375.5 C 204.482,378.962 204.815,382.629 204.5,386.5C 244.5,386.5 284.5,386.5 324.5,386.5C 324.106,393.496 323.773,400.496 323.5,407.5C 283.5,407.5 243.5,407.5 203.5,407.5C 203.5,396.833 203.5,386.167 203.5,375.5 Z"/></g>
<g><path style="opacity:1" fill="#c94e80" d="M 405.5,407.5 C 397.878,407.991 390.545,409.324 383.5,411.5C 380.183,399.234 377.017,386.901 374,374.5C 381,378.833 388,383.167 395,387.5C 397.209,394.92 400.709,401.587 405.5,407.5 Z"/></g>
<g><path style="opacity:1" fill="#373843" d="M 333.5,409.5 C 334.494,419.653 334.828,429.986 334.5,440.5C 348.5,440.5 362.5,440.5 376.5,440.5C 376.232,438.901 376.566,437.568 377.5,436.5C 379.337,452.683 380.67,468.35 381.5,483.5C 365.833,483.5 350.167,483.5 334.5,483.5C 334.037,458.835 333.703,434.169 333.5,409.5 Z"/></g>
<g><path style="opacity:1" fill="#d4568a" d="M 405.5,407.5 C 409.033,418.474 411.367,429.807 412.5,441.5C 405.57,442.801 398.57,443.967 391.5,445C 390.244,445.417 389.577,446.25 389.5,447.5C 387.304,435.658 385.304,423.658 383.5,411.5C 390.545,409.324 397.878,407.991 405.5,407.5 Z"/></g>
<g><path style="opacity:1" fill="#f7c8bf" d="M 170.5,411.5 C 171.832,422.647 172.499,434.147 172.5,446C 172.5,457.672 172.167,469.172 171.5,480.5C 166.325,477.15 162.825,472.483 161,466.5C 161.714,451.937 156.88,439.603 146.5,429.5C 152.733,421.06 160.733,415.06 170.5,411.5 Z"/></g>
<g><path style="opacity:1" fill="#f9e6d9" d="M 203.5,407.5 C 243.5,407.5 283.5,407.5 323.5,407.5C 323.5,422.5 323.5,437.5 323.5,452.5C 283.167,452.5 242.833,452.5 202.5,452.5C 202.215,437.464 202.549,422.464 203.5,407.5 Z"/></g>
<g><path style="opacity:1" fill="#f8bbb0" d="M 170.5,411.5 C 171.946,410.387 173.613,410.22 175.5,411C 182.789,417.09 187.955,424.59 191,433.5C 191.5,450.83 191.667,468.163 191.5,485.5C 184.034,486.565 177.367,484.898 171.5,480.5C 172.167,469.172 172.5,457.672 172.5,446C 172.499,434.147 171.832,422.647 170.5,411.5 Z"/></g>
<g><path style="opacity:1" fill="#df5e93" d="M 107.5,457.5 C 107.586,456.504 107.252,455.671 106.5,455C 93.0236,450.453 79.6903,445.62 66.5,440.5C 76.7648,428.733 87.5981,417.399 99,406.5C 106.86,414.174 115.36,421.007 124.5,427C 117.904,436.696 112.237,446.863 107.5,457.5 Z"/></g>
<g><path style="opacity:1" fill="#eb689e" d="M 66.5,440.5 C 79.6903,445.62 93.0236,450.453 106.5,455C 107.252,455.671 107.586,456.504 107.5,457.5C 105.034,464.731 102.868,472.065 101,479.5C 99.7494,482.381 97.5827,484.214 94.5,485C 78.1701,485.5 61.8367,485.667 45.5,485.5C 49.0301,468.778 56.0301,453.778 66.5,440.5 Z"/></g>
<g><path style="opacity:1" fill="#e26195" d="M 412.5,441.5 C 416.279,455.781 418.613,470.447 419.5,485.5C 412.159,485.666 404.826,485.5 397.5,485C 394.619,483.749 392.786,481.583 392,478.5C 390.977,468.177 390.144,457.843 389.5,447.5C 389.577,446.25 390.244,445.417 391.5,445C 398.57,443.967 405.57,442.801 412.5,441.5 Z"/></g>
<g><path style="opacity:1" fill="#59596c" d="M 285.5,463.5 C 275.167,463.5 264.833,463.5 254.5,463.5C 254.5,470.5 254.5,477.5 254.5,484.5C 258.371,484.185 262.038,484.518 265.5,485.5C 244.167,485.5 222.833,485.5 201.5,485.5C 201.186,477.913 201.519,470.413 202.5,463C 230.336,462.17 258.003,462.336 285.5,463.5 Z"/></g>
<g><path style="opacity:1" fill="#646476" d="M 285.5,463.5 C 285.5,470.833 285.5,478.167 285.5,485.5C 278.833,485.5 272.167,485.5 265.5,485.5C 262.038,484.518 258.371,484.185 254.5,484.5C 254.5,477.5 254.5,470.5 254.5,463.5C 264.833,463.5 275.167,463.5 285.5,463.5 Z"/></g>
<g><path style="opacity:1" fill="#f2ab55" d="M 323.5,475.5 C 314.5,475.5 305.5,475.5 296.5,475.5C 296.5,471.167 296.5,466.833 296.5,462.5C 305.5,462.5 314.5,462.5 323.5,462.5C 323.5,466.833 323.5,471.167 323.5,475.5 Z"/></g>
<g><path style="opacity:1" fill="#f8a54f" d="M 296.5,475.5 C 305.5,475.5 314.5,475.5 323.5,475.5C 323.5,478.833 323.5,482.167 323.5,485.5C 314.5,485.5 305.5,485.5 296.5,485.5C 296.5,482.167 296.5,478.833 296.5,475.5 Z"/></g>
</svg>
