<?xml version="1.0" encoding="UTF-8"?>
<!DOCTYPE svg PUBLIC "-//W3C//DTD SVG 1.1//EN" "http://www.w3.org/Graphics/SVG/1.1/DTD/svg11.dtd">
<svg xmlns="http://www.w3.org/2000/svg" version="1.1" width="512px" height="512px" style="shape-rendering:geometricPrecision; text-rendering:geometricPrecision; image-rendering:optimizeQuality; fill-rule:evenodd; clip-rule:evenodd" xmlns:xlink="http://www.w3.org/1999/xlink">
<g><path style="opacity:1" fill="#3e3e51" d="M 324.5,185.5 C 320.936,184.577 317.269,184.244 313.5,184.5C 316.78,176.715 319.447,168.715 321.5,160.5C 322.814,158.105 322.814,155.605 321.5,153C 303.52,148.062 286.52,150.395 270.5,160C 267.833,160.667 265.167,160.667 262.5,160C 258.156,157.829 254.156,155.163 250.5,152C 246.105,149.479 241.438,147.646 236.5,146.5C 231.147,151.214 228.48,157.214 228.5,164.5C 228.335,167.518 228.502,170.518 229,173.5C 233.769,178.268 237.769,183.601 241,189.5C 241.933,195.565 239.433,197.732 233.5,196C 229.885,190.117 225.552,184.783 220.5,180C 214.598,178.624 209.598,180.124 205.5,184.5C 201.702,183.517 197.702,183.183 193.5,183.5C 193.953,182.542 194.619,181.708 195.5,181C 184.322,174.355 173.989,175.522 164.5,184.5C 161.256,182.888 157.589,181.888 153.5,181.5C 158.459,174.804 164.792,169.97 172.5,167C 168.758,166.173 164.758,165.339 160.5,164.5C 156.005,164.72 152.005,166.22 148.5,169C 144.132,173.033 140.132,177.366 136.5,182C 132.179,182.499 127.846,182.666 123.5,182.5C 125.112,179.462 127.112,176.629 129.5,174C 113.84,179.13 97.6729,181.963 81,182.5C 67.6925,182.639 55.0259,179.972 43,174.5C 41.6986,172.635 41.3653,170.635 42,168.5C 53.4757,156.692 65.3091,145.192 77.5,134C 82.2754,130.279 87.6088,127.612 93.5,126C 118.097,127.912 142.764,129.245 167.5,130C 183.989,131.714 198.655,137.714 211.5,148C 213.603,150.665 213.936,153.499 212.5,156.5C 209.5,159.167 206.5,159.167 203.5,156.5C 193.425,148.137 181.759,142.971 168.5,141C 152.864,139.804 137.198,139.137 121.5,139C 113.606,136.905 105.606,135.905 97.5,136C 93.462,136.899 89.7954,138.566 86.5,141C 76.8333,150 67.1667,159 57.5,168C 57.8333,168.333 58.1667,168.667 58.5,169C 76.9633,172.56 95.2967,171.894 113.5,167C 125.108,162.797 136.774,158.797 148.5,155C 162.191,153.175 175.191,155.341 187.5,161.5C 193.375,164.682 199.041,168.349 204.5,172.5C 208.407,169.915 212.741,168.581 217.5,168.5C 217.5,166.167 217.5,163.833 217.5,161.5C 218.456,155.797 220.123,150.297 222.5,145C 215.973,136.429 211.973,126.763 210.5,116C 211.026,111.846 212.359,108.012 214.5,104.5C 202.314,84.4037 200.314,63.4037 208.5,41.5C 213.431,39.9837 218.431,38.6504 223.5,37.5C 228.779,26.3833 236.446,17.2167 246.5,10C 269.149,10.547 290.482,16.2137 310.5,27C 332.468,38.9296 351.302,54.7629 367,74.5C 369.157,77.8649 368.991,81.0316 366.5,84C 359.562,84.4292 352.896,84.5959 346.5,84.5C 349.662,95.418 351.329,106.585 351.5,118C 352.437,124.323 349.77,127.49 343.5,127.5C 339.524,126.836 335.524,126.503 331.5,126.5C 331.244,132.212 330.578,137.879 329.5,143.5C 333.198,148.945 334.364,154.945 333,161.5C 331.227,169.993 328.394,177.993 324.5,185.5 Z"/></g>
<g><path style="opacity:1" fill="#69697c" d="M 291.5,30.5 C 266.167,45.5 240.833,60.5 215.5,75.5C 214.21,67.6281 214.376,59.6281 216,51.5C 220.618,49.5269 225.451,48.0269 230.5,47C 235.03,37.6074 241.03,29.2741 248.5,22C 249.873,21.1251 251.373,20.6251 253,20.5C 266.372,21.8844 279.205,25.2177 291.5,30.5 Z"/></g>
<g><path style="opacity:1" fill="#636375" d="M 291.5,30.5 C 302.656,35.2391 312.989,41.2391 322.5,48.5C 303.781,60.5275 284.448,71.5275 264.5,81.5C 263.038,80.5423 261.705,79.3756 260.5,78C 258.833,77.3333 257.167,77.3333 255.5,78C 247.619,84.2599 243.286,92.4266 242.5,102.5C 236.416,100.123 230.082,99.1231 223.5,99.5C 221.28,93.4257 218.78,87.4257 216,81.5C 215.505,79.5273 215.338,77.5273 215.5,75.5C 240.833,60.5 266.167,45.5 291.5,30.5 Z"/></g>
<g><path style="opacity:1" fill="#5c5c6f" d="M 322.5,48.5 C 326.202,50.0236 329.536,52.1903 332.5,55C 339.136,60.6345 345.469,66.6345 351.5,73C 345.739,73.1167 340.072,73.2833 334.5,73.5C 320.562,80.804 306.895,88.6374 293.5,97C 291.091,98.7068 288.425,99.5402 285.5,99.5C 277.246,94.9094 270.246,88.9094 264.5,81.5C 284.448,71.5275 303.781,60.5275 322.5,48.5 Z"/></g>
<g><path style="opacity:1" fill="#555568" d="M 334.5,73.5 C 333.185,74.667 332.519,76.167 332.5,78C 337.787,89.8685 340.453,102.369 340.5,115.5C 320.9,114.185 302.567,108.852 285.5,99.5C 288.425,99.5402 291.091,98.7068 293.5,97C 306.895,88.6374 320.562,80.804 334.5,73.5 Z"/></g>
<g><path style="opacity:1" fill="#f6bdb4" d="M 320.5,128.5 C 316.651,127.051 312.984,127.384 309.5,129.5C 306.196,128.506 302.863,127.506 299.5,126.5C 298.893,126.624 298.56,126.957 298.5,127.5C 295.239,124.568 291.572,123.901 287.5,125.5C 287.38,124.414 286.713,123.747 285.5,123.5C 273.855,120.672 262.188,118.005 250.5,115.5C 250.768,117.099 250.434,118.432 249.5,119.5C 249.7,109.027 252.534,99.3599 258,90.5C 274.606,107.723 294.773,118.557 318.5,123C 320.192,124.401 320.859,126.234 320.5,128.5 Z"/></g>
<g><path style="opacity:1" fill="#403e50" d="M 462.5,183.5 C 458.936,182.577 455.269,182.244 451.5,182.5C 449.445,173.622 443.778,168.788 434.5,168C 425.732,167.051 419.065,170.384 414.5,178C 425.071,176.801 435.405,177.968 445.5,181.5C 435.008,182.659 424.341,182.825 413.5,182C 409.689,182.083 406.355,181.25 403.5,179.5C 404.725,171.884 408.392,165.717 414.5,161C 407.398,153.622 404.064,144.789 404.5,134.5C 404.272,126.805 405.772,119.471 409,112.5C 411.497,110.522 414.331,110.022 417.5,111C 426.769,115.26 434.602,121.427 441,129.5C 448.329,121.916 457.163,117.75 467.5,117C 468.333,117.833 469.167,118.667 470,119.5C 474.399,134.765 472.399,149.098 464,162.5C 461.939,164.806 459.772,166.973 457.5,169C 460.619,173.295 462.285,178.129 462.5,183.5 Z"/></g>
<g><path style="opacity:1" fill="#f7c7bf" d="M 249.5,119.5 C 250.434,118.432 250.768,117.099 250.5,115.5C 262.188,118.005 273.855,120.672 285.5,123.5C 286.713,123.747 287.38,124.414 287.5,125.5C 286.226,130.927 288.559,133.927 294.5,134.5C 297.987,133.531 299.32,131.198 298.5,127.5C 298.56,126.957 298.893,126.624 299.5,126.5C 302.863,127.506 306.196,128.506 309.5,129.5C 309.66,136.33 312.993,138.33 319.5,135.5C 319.5,137.5 319.5,139.5 319.5,141.5C 301.924,138.245 285.257,140.745 269.5,149C 267.5,149.667 265.5,149.667 263.5,149C 254.184,140.513 243.184,136.18 230.5,136C 224.477,129.261 221.644,121.428 222,112.5C 225.719,109.098 229.886,108.598 234.5,111C 237.667,114.347 240.334,118.014 242.5,122C 245.481,122.838 247.814,122.005 249.5,119.5 Z"/></g>
<g><path style="opacity:1" fill="#e28680" d="M 298.5,127.5 C 299.32,131.198 297.987,133.531 294.5,134.5C 288.559,133.927 286.226,130.927 287.5,125.5C 291.572,123.901 295.239,124.568 298.5,127.5 Z"/></g>
<g><path style="opacity:1" fill="#f6746e" d="M 416.5,123.5 C 430.641,130.328 437.974,141.662 438.5,157.5C 434.154,157.666 429.821,157.499 425.5,157C 421.425,152.341 418.258,147.175 416,141.5C 415.254,135.449 415.421,129.449 416.5,123.5 Z"/></g>
<g><path style="opacity:1" fill="#e1847f" d="M 320.5,128.5 C 320.326,130.861 319.993,133.194 319.5,135.5C 312.993,138.33 309.66,136.33 309.5,129.5C 312.984,127.384 316.651,127.051 320.5,128.5 Z"/></g>
<g><path style="opacity:1" fill="#c33e3e" d="M 450.5,160.5 C 449.833,157.5 449.167,154.5 448.5,151.5C 447.955,147.335 447.121,143.335 446,139.5C 450.224,135.303 455.058,131.97 460.5,129.5C 462.745,141.762 459.412,152.095 450.5,160.5 Z"/></g>
<g><path style="opacity:1" fill="#7373a4" d="M 203.5,156.5 C 200.527,158.592 197.193,160.092 193.5,161C 191.527,161.495 189.527,161.662 187.5,161.5C 175.191,155.341 162.191,153.175 148.5,155C 136.774,158.797 125.108,162.797 113.5,167C 95.2967,171.894 76.9633,172.56 58.5,169C 58.1667,168.667 57.8333,168.333 57.5,168C 67.1667,159 76.8333,150 86.5,141C 89.7954,138.566 93.462,136.899 97.5,136C 105.606,135.905 113.606,136.905 121.5,139C 137.198,139.137 152.864,139.804 168.5,141C 181.759,142.971 193.425,148.137 203.5,156.5 Z"/></g>
<g><path style="opacity:1" fill="#7575a2" d="M 321.5,160.5 C 290.507,162 259.507,163.333 228.5,164.5C 228.48,157.214 231.147,151.214 236.5,146.5C 241.438,147.646 246.105,149.479 250.5,152C 254.156,155.163 258.156,157.829 262.5,160C 265.167,160.667 267.833,160.667 270.5,160C 286.52,150.395 303.52,148.062 321.5,153C 322.814,155.605 322.814,158.105 321.5,160.5 Z"/></g>
<g><path style="opacity:1" fill="#4b4b64" d="M 203.5,156.5 C 206.5,159.167 209.5,159.167 212.5,156.5C 213.833,158.5 215.5,160.167 217.5,161.5C 217.5,163.833 217.5,166.167 217.5,168.5C 212.741,168.581 208.407,169.915 204.5,172.5C 199.041,168.349 193.375,164.682 187.5,161.5C 189.527,161.662 191.527,161.495 193.5,161C 197.193,160.092 200.527,158.592 203.5,156.5 Z"/></g>
<g><path style="opacity:1" fill="#7e3e48" d="M 448.5,151.5 C 449.167,154.5 449.833,157.5 450.5,160.5C 450.44,161.043 450.107,161.376 449.5,161.5C 448.513,158.232 448.18,154.898 448.5,151.5 Z"/></g>
<g><path style="opacity:1" fill="#6e6e9f" d="M 321.5,160.5 C 319.447,168.715 316.78,176.715 313.5,184.5C 309.379,191.075 304.546,197.075 299,202.5C 287.117,198.975 276.284,193.475 266.5,186C 263.022,182.701 260.022,179.034 257.5,175C 251.165,173.5 248.499,176 249.5,182.5C 253.393,200.613 263.393,214.28 279.5,223.5C 267.025,224.891 254.358,225.558 241.5,225.5C 232.356,210.205 219.189,199.872 202,194.5C 202.247,190.972 203.414,187.639 205.5,184.5C 209.598,180.124 214.598,178.624 220.5,180C 225.552,184.783 229.885,190.117 233.5,196C 239.433,197.732 241.933,195.565 241,189.5C 237.769,183.601 233.769,178.268 229,173.5C 228.502,170.518 228.335,167.518 228.5,164.5C 259.507,163.333 290.507,162 321.5,160.5 Z"/></g>
<g><path style="opacity:1" fill="#3d3d4b" d="M 164.5,184.5 C 157.456,193.917 151.956,204.251 148,215.5C 134.674,233.22 117.174,239.053 95.5,233C 90.5584,232.134 86.0584,230.3 82,227.5C 80.3352,224.437 80.8352,221.604 83.5,219C 98.2529,208.415 111.586,196.248 123.5,182.5C 127.846,182.666 132.179,182.499 136.5,182C 140.132,177.366 144.132,173.033 148.5,169C 152.005,166.22 156.005,164.72 160.5,164.5C 164.758,165.339 168.758,166.173 172.5,167C 164.792,169.97 158.459,174.804 153.5,181.5C 157.589,181.888 161.256,182.888 164.5,184.5 Z"/></g>
<g><path style="opacity:1" fill="#c33e3e" d="M 451.5,182.5 C 449.435,182.483 447.435,182.15 445.5,181.5C 435.405,177.968 425.071,176.801 414.5,178C 419.065,170.384 425.732,167.051 434.5,168C 443.778,168.788 449.445,173.622 451.5,182.5 Z"/></g>
<g><path style="opacity:1" fill="#3f3e4b" d="M 403.5,179.5 C 406.355,181.25 409.689,182.083 413.5,182C 424.341,182.825 435.008,182.659 445.5,181.5C 447.435,182.15 449.435,182.483 451.5,182.5C 455.269,182.244 458.936,182.577 462.5,183.5C 462.238,184.978 462.571,186.311 463.5,187.5C 485.779,201.06 494.779,220.727 490.5,246.5C 490.5,245.5 490.5,244.5 490.5,243.5C 487.167,243.5 483.833,243.5 480.5,243.5C 480.925,235.704 480.258,228.037 478.5,220.5C 478.008,218.181 477.008,216.181 475.5,214.5C 472.239,208.237 467.572,203.237 461.5,199.5C 444.715,189.203 426.715,186.369 407.5,191C 398.053,194.284 391.386,200.451 387.5,209.5C 384.127,214.6 382.127,220.267 381.5,226.5C 380.699,228.042 380.366,229.708 380.5,231.5C 380.5,236.5 380.5,241.5 380.5,246.5C 379.549,245.081 379.216,243.415 379.5,241.5C 376.167,241.5 372.833,241.5 369.5,241.5C 367.865,213.418 379.198,192.751 403.5,179.5 Z"/></g>
<g><path style="opacity:1" fill="#3e3e4c" d="M 193.5,183.5 C 197.702,183.183 201.702,183.517 205.5,184.5C 203.414,187.639 202.247,190.972 202,194.5C 219.189,199.872 232.356,210.205 241.5,225.5C 245.078,231.747 249.744,237.08 255.5,241.5C 256.167,242.833 257.167,243.833 258.5,244.5C 253.645,245.691 248.645,245.691 243.5,244.5C 242.272,243.694 241.272,242.694 240.5,241.5C 235.518,235.547 231.018,229.214 227,222.5C 215.181,208.663 200.348,202.83 182.5,205C 173.782,207.893 167.448,213.393 163.5,221.5C 161.421,224.034 160.087,227.034 159.5,230.5C 159.529,232.029 160.196,233.196 161.5,234C 170.187,233.061 178.853,233.394 187.5,235C 193.786,236.81 199.453,239.643 204.5,243.5C 196.833,244.167 189.167,244.833 181.5,245.5C 177.265,244.564 172.931,244.231 168.5,244.5C 163.5,243.833 158.5,243.167 153.5,242.5C 148.675,236.854 147.508,230.521 150,223.5C 157.402,205.278 170.902,194.612 190.5,191.5C 191.508,188.805 192.508,186.138 193.5,183.5 Z"/></g>
<g><path style="opacity:1" fill="#4b4b64" d="M 249.5,182.5 C 258.844,194.161 270.51,202.828 284.5,208.5C 285.547,209.922 285.547,211.422 284.5,213C 286.48,217.65 289.48,221.483 293.5,224.5C 292.481,226.604 291.481,228.604 290.5,230.5C 290.631,229.624 290.298,228.957 289.5,228.5C 285.926,227.205 282.593,225.538 279.5,223.5C 263.393,214.28 253.393,200.613 249.5,182.5 Z"/></g>
<g><path style="opacity:1" fill="#3e3e4c" d="M 313.5,184.5 C 317.269,184.244 320.936,184.577 324.5,185.5C 319.266,197.569 311.266,207.402 300.5,215C 305.554,218.194 310.888,220.861 316.5,223C 323.436,229.306 326.103,237.14 324.5,246.5C 320.936,245.577 317.269,245.244 313.5,245.5C 313.768,247.099 313.434,248.432 312.5,249.5C 313.976,244.022 313.642,238.688 311.5,233.5C 309.307,231.279 306.64,229.946 303.5,229.5C 302.295,230.577 301.628,231.91 301.5,233.5C 299.967,235.355 298.3,237.188 296.5,239C 295.207,239.49 293.873,239.657 292.5,239.5C 289.536,237.013 288.869,234.013 290.5,230.5C 291.481,228.604 292.481,226.604 293.5,224.5C 289.48,221.483 286.48,217.65 284.5,213C 285.547,211.422 285.547,209.922 284.5,208.5C 270.51,202.828 258.844,194.161 249.5,182.5C 248.499,176 251.165,173.5 257.5,175C 260.022,179.034 263.022,182.701 266.5,186C 276.284,193.475 287.117,198.975 299,202.5C 304.546,197.075 309.379,191.075 313.5,184.5 Z"/></g>
<g><path style="opacity:1" fill="#f7756a" d="M 461.5,199.5 C 436.949,202.986 412.283,206.32 387.5,209.5C 391.386,200.451 398.053,194.284 407.5,191C 426.715,186.369 444.715,189.203 461.5,199.5 Z"/></g>
<g><path style="opacity:1" fill="#f26f69" d="M 461.5,199.5 C 467.572,203.237 472.239,208.237 475.5,214.5C 474.092,213.939 472.592,213.605 471,213.5C 442.849,217.123 414.682,220.623 386.5,224C 384.497,224.335 382.83,225.168 381.5,226.5C 382.127,220.267 384.127,214.6 387.5,209.5C 412.283,206.32 436.949,202.986 461.5,199.5 Z"/></g>
<g><path style="opacity:1" fill="#696999" d="M 240.5,241.5 C 233.529,242.29 226.529,242.623 219.5,242.5C 209.741,231.537 197.574,225.537 183,224.5C 177.16,225.039 171.326,225.206 165.5,225C 164.177,224.184 163.511,223.017 163.5,221.5C 167.448,213.393 173.782,207.893 182.5,205C 200.348,202.83 215.181,208.663 227,222.5C 231.018,229.214 235.518,235.547 240.5,241.5 Z"/></g>
<g><path style="opacity:1" fill="#37384a" d="M 108.5,212.5 C 117.839,212.334 127.173,212.5 136.5,213C 129.276,220.528 120.443,224.362 110,224.5C 106.207,223.669 102.373,222.836 98.5,222C 101.214,219.285 104.214,216.951 107.5,215C 108.252,214.329 108.586,213.496 108.5,212.5 Z"/></g>
<g><path style="opacity:1" fill="#f06f63" d="M 475.5,214.5 C 477.008,216.181 478.008,218.181 478.5,220.5C 446.366,225.038 414.199,229.371 382,233.5C 381.722,232.584 381.222,231.918 380.5,231.5C 380.366,229.708 380.699,228.042 381.5,226.5C 382.83,225.168 384.497,224.335 386.5,224C 414.682,220.623 442.849,217.123 471,213.5C 472.592,213.605 474.092,213.939 475.5,214.5 Z"/></g>
<g><path style="opacity:1" fill="#4b4b64" d="M 163.5,221.5 C 163.511,223.017 164.177,224.184 165.5,225C 171.326,225.206 177.16,225.039 183,224.5C 197.574,225.537 209.741,231.537 219.5,242.5C 227.914,250.584 236.914,257.917 246.5,264.5C 256.957,272.904 268.291,280.071 280.5,286C 287.369,287.948 292.869,286.115 297,280.5C 300.417,274.154 302.917,267.487 304.5,260.5C 307.093,253.398 307.926,246.065 307,238.5C 305.924,235.921 304.091,234.254 301.5,233.5C 301.628,231.91 302.295,230.577 303.5,229.5C 306.64,229.946 309.307,231.279 311.5,233.5C 313.642,238.688 313.976,244.022 312.5,249.5C 310.906,266.282 305.906,281.949 297.5,296.5C 295.763,298.846 293.43,299.846 290.5,299.5C 286.21,298.858 282.21,297.358 278.5,295C 251.884,280.534 227.217,263.368 204.5,243.5C 199.453,239.643 193.786,236.81 187.5,235C 178.853,233.394 170.187,233.061 161.5,234C 160.196,233.196 159.529,232.029 159.5,230.5C 160.087,227.034 161.421,224.034 163.5,221.5 Z"/></g>
<g><path style="opacity:1" fill="#eb6963" d="M 478.5,220.5 C 480.258,228.037 480.925,235.704 480.5,243.5C 480.768,245.099 480.434,246.432 479.5,247.5C 479.719,246.325 479.386,245.325 478.5,244.5C 446.553,248.827 414.553,252.827 382.5,256.5C 381.207,253.321 380.54,249.988 380.5,246.5C 380.5,241.5 380.5,236.5 380.5,231.5C 381.222,231.918 381.722,232.584 382,233.5C 414.199,229.371 446.366,225.038 478.5,220.5 Z"/></g>
<g><path style="opacity:1" fill="#696995" d="M 279.5,223.5 C 282.593,225.538 285.926,227.205 289.5,228.5C 290.298,228.957 290.631,229.624 290.5,230.5C 288.869,234.013 289.536,237.013 292.5,239.5C 279.983,239.609 267.649,240.275 255.5,241.5C 249.744,237.08 245.078,231.747 241.5,225.5C 254.358,225.558 267.025,224.891 279.5,223.5 Z"/></g>
<g><path style="opacity:1" fill="#636395" d="M 301.5,233.5 C 304.091,234.254 305.924,235.921 307,238.5C 307.926,246.065 307.093,253.398 304.5,260.5C 301.431,261.743 298.098,262.409 294.5,262.5C 278.511,263.499 262.511,264.166 246.5,264.5C 236.914,257.917 227.914,250.584 219.5,242.5C 226.529,242.623 233.529,242.29 240.5,241.5C 241.272,242.694 242.272,243.694 243.5,244.5C 250.167,252.75 258.667,258.084 269,260.5C 274.748,260.253 279.748,258.253 284,254.5C 284.244,246.742 281.078,244.909 274.5,249C 268.246,250.554 262.912,249.054 258.5,244.5C 257.167,243.833 256.167,242.833 255.5,241.5C 267.649,240.275 279.983,239.609 292.5,239.5C 293.873,239.657 295.207,239.49 296.5,239C 298.3,237.188 299.967,235.355 301.5,233.5 Z"/></g>
<g><path style="opacity:1" fill="#39384b" d="M 369.5,241.5 C 372.833,241.5 376.167,241.5 379.5,241.5C 379.216,243.415 379.549,245.081 380.5,246.5C 380.54,249.988 381.207,253.321 382.5,256.5C 384.132,262.43 386.798,267.764 390.5,272.5C 409.898,294.73 432.565,298.564 458.5,284C 466.629,278.712 472.296,271.546 475.5,262.5C 478.024,257.911 479.358,252.911 479.5,247.5C 480.434,246.432 480.768,245.099 480.5,243.5C 483.833,243.5 487.167,243.5 490.5,243.5C 490.5,244.5 490.5,245.5 490.5,246.5C 486.229,281.602 466.395,300.602 431,303.5C 397.456,301.62 377.123,284.287 370,251.5C 369.502,248.183 369.335,244.85 369.5,241.5 Z"/></g>
<g><path style="opacity:1" fill="#39394b" d="M 153.5,242.5 C 158.5,243.167 163.5,243.833 168.5,244.5C 162.845,248.823 157.512,253.49 152.5,258.5C 148.528,262.807 144.528,267.141 140.5,271.5C 137.8,273.234 135.8,275.568 134.5,278.5C 128.032,285.426 122.032,292.76 116.5,300.5C 108.835,309.152 102.668,318.818 98,329.5C 97.1837,334.684 97.3503,339.684 98.5,344.5C 98.5,345.833 98.5,347.167 98.5,348.5C 94.4975,348.964 90.8309,348.298 87.5,346.5C 85.6869,335.692 87.1869,325.359 92,315.5C 109.358,288.632 129.858,264.299 153.5,242.5 Z"/></g>
<g><path style="opacity:1" fill="#39384b" d="M 204.5,243.5 C 227.217,263.368 251.884,280.534 278.5,295C 282.21,297.358 286.21,298.858 290.5,299.5C 293.43,299.846 295.763,298.846 297.5,296.5C 305.906,281.949 310.906,266.282 312.5,249.5C 313.434,248.432 313.768,247.099 313.5,245.5C 317.269,245.244 320.936,245.577 324.5,246.5C 333.464,273.799 339.964,301.799 344,330.5C 350.44,338.778 357.94,345.778 366.5,351.5C 360.5,351.5 354.5,351.5 348.5,351.5C 347.833,351.5 347.5,351.167 347.5,350.5C 347.44,349.957 347.107,349.624 346.5,349.5C 343.444,351.289 340.111,351.956 336.5,351.5C 335.833,351.5 335.5,351.167 335.5,350.5C 335.736,347.391 335.403,344.391 334.5,341.5C 334.376,336.951 333.709,332.618 332.5,328.5C 332.795,326.265 332.461,324.265 331.5,322.5C 328.935,304.238 325.101,286.238 320,268.5C 317.523,277.766 314.356,286.766 310.5,295.5C 305.071,306.881 296.071,311.381 283.5,309C 254.519,294.269 227.685,276.436 203,255.5C 202.862,258.621 203.529,261.621 205,264.5C 206.507,274.584 205.173,284.251 201,293.5C 197.473,297.934 193.973,302.267 190.5,306.5C 171.722,317.727 153.055,329.227 134.5,341C 133.565,343.381 133.232,345.881 133.5,348.5C 130.167,348.5 126.833,348.5 123.5,348.5C 123.5,344.5 123.5,340.5 123.5,336.5C 123.937,334.926 124.937,333.759 126.5,333C 132.734,329.392 138.734,325.559 144.5,321.5C 153.705,316.069 162.705,310.403 171.5,304.5C 173.833,303.167 176.167,301.833 178.5,300.5C 184.833,297.5 189.5,292.833 192.5,286.5C 198.363,270.287 194.696,256.62 181.5,245.5C 189.167,244.833 196.833,244.167 204.5,243.5 Z"/></g>
<g><path style="opacity:1" fill="#3a3a4d" d="M 243.5,244.5 C 248.645,245.691 253.645,245.691 258.5,244.5C 262.912,249.054 268.246,250.554 274.5,249C 281.078,244.909 284.244,246.742 284,254.5C 279.748,258.253 274.748,260.253 269,260.5C 258.667,258.084 250.167,252.75 243.5,244.5 Z"/></g>
<g><path style="opacity:1" fill="#e6645c" d="M 479.5,247.5 C 479.358,252.911 478.024,257.911 475.5,262.5C 447.197,266.08 418.863,269.413 390.5,272.5C 386.798,267.764 384.132,262.43 382.5,256.5C 414.553,252.827 446.553,248.827 478.5,244.5C 479.386,245.325 479.719,246.325 479.5,247.5 Z"/></g>
<g><path style="opacity:1" fill="#f8b8ae" d="M 168.5,244.5 C 172.931,244.231 177.265,244.564 181.5,245.5C 194.696,256.62 198.363,270.287 192.5,286.5C 178.908,277.581 165.575,268.248 152.5,258.5C 157.512,253.49 162.845,248.823 168.5,244.5 Z"/></g>
<g><path style="opacity:1" fill="#9a8882" d="M 310.5,295.5 C 308.122,304.256 304.122,312.256 298.5,319.5C 296.971,320.763 295.305,321.763 293.5,322.5C 289.5,323.833 285.5,323.833 281.5,322.5C 258.655,313.414 237.321,301.748 217.5,287.5C 215.19,293.721 213.023,300.054 211,306.5C 209.067,310.917 206.567,314.917 203.5,318.5C 201.551,313.862 198.217,312.529 193.5,314.5C 193.06,311.62 192.06,308.954 190.5,306.5C 193.973,302.267 197.473,297.934 201,293.5C 205.173,284.251 206.507,274.584 205,264.5C 203.529,261.621 202.862,258.621 203,255.5C 227.685,276.436 254.519,294.269 283.5,309C 296.071,311.381 305.071,306.881 310.5,295.5 Z"/></g>
<g><path style="opacity:1" fill="#f8c0b5" d="M 152.5,258.5 C 165.575,268.248 178.908,277.581 192.5,286.5C 189.5,292.833 184.833,297.5 178.5,300.5C 178.489,298.983 177.823,297.816 176.5,297C 164.621,288.281 152.621,279.781 140.5,271.5C 144.528,267.141 148.528,262.807 152.5,258.5 Z"/></g>
<g><path style="opacity:1" fill="#63638e" d="M 304.5,260.5 C 302.917,267.487 300.417,274.154 297,280.5C 292.869,286.115 287.369,287.948 280.5,286C 268.291,280.071 256.957,272.904 246.5,264.5C 262.511,264.166 278.511,263.499 294.5,262.5C 298.098,262.409 301.431,261.743 304.5,260.5 Z"/></g>
<g><path style="opacity:1" fill="#df625a" d="M 475.5,262.5 C 472.296,271.546 466.629,278.712 458.5,284C 432.565,298.564 409.898,294.73 390.5,272.5C 418.863,269.413 447.197,266.08 475.5,262.5 Z"/></g>
<g><path style="opacity:1" fill="#f8c7ba" d="M 140.5,271.5 C 152.621,279.781 164.621,288.281 176.5,297C 177.823,297.816 178.489,298.983 178.5,300.5C 176.167,301.833 173.833,303.167 171.5,304.5C 159.167,295.833 146.833,287.167 134.5,278.5C 135.8,275.568 137.8,273.234 140.5,271.5 Z"/></g>
<g><path style="opacity:1" fill="#39394b" d="M 71.5,345.5 C 68.3157,347.414 64.649,348.08 60.5,347.5C 60.1667,347.5 59.8333,347.5 59.5,347.5C 49.248,331.337 38.248,315.671 26.5,300.5C 26.2172,299.711 25.7172,299.044 25,298.5C 24.1993,301.367 24.3659,304.034 25.5,306.5C 26.2067,320.365 28.2067,334.031 31.5,347.5C 27.7307,347.244 24.0641,347.577 20.5,348.5C 15.5857,326.437 13.419,304.104 14,281.5C 16.573,277.191 19.9063,276.524 24,279.5C 41.0682,300.647 56.9016,322.647 71.5,345.5 Z"/></g>
<g><path style="opacity:1" fill="#f8cbc4" d="M 134.5,278.5 C 146.833,287.167 159.167,295.833 171.5,304.5C 162.705,310.403 153.705,316.069 144.5,321.5C 135.205,314.512 125.872,307.512 116.5,300.5C 122.032,292.76 128.032,285.426 134.5,278.5 Z"/></g>
<g><path style="opacity:1" fill="#848996" d="M 26.5,300.5 C 25.5386,302.265 25.2053,304.265 25.5,306.5C 24.3659,304.034 24.1993,301.367 25,298.5C 25.7172,299.044 26.2172,299.711 26.5,300.5 Z"/></g>
<g><path style="opacity:1" fill="#c4aea8" d="M 331.5,322.5 C 318.67,323.538 306.004,323.538 293.5,322.5C 295.305,321.763 296.971,320.763 298.5,319.5C 304.122,312.256 308.122,304.256 310.5,295.5C 314.356,286.766 317.523,277.766 320,268.5C 325.101,286.238 328.935,304.238 331.5,322.5 Z"/></g>
<g><path style="opacity:1" fill="#c6afa8" d="M 281.5,322.5 C 277.688,323.324 273.688,323.824 269.5,324C 248.825,324.327 228.158,324.827 207.5,325.5C 205.929,323.365 204.596,321.032 203.5,318.5C 206.567,314.917 209.067,310.917 211,306.5C 213.023,300.054 215.19,293.721 217.5,287.5C 237.321,301.748 258.655,313.414 281.5,322.5 Z"/></g>
<g><path style="opacity:1" fill="#39394b" d="M 203.5,318.5 C 204.596,321.032 205.929,323.365 207.5,325.5C 208.079,328.331 209.412,330.664 211.5,332.5C 213.332,336.836 215.665,340.836 218.5,344.5C 219.529,346.517 220.529,348.517 221.5,350.5C 217.399,349.209 213.399,349.209 209.5,350.5C 202.936,341.055 197.103,331.055 192,320.5C 191.262,318.119 191.762,316.119 193.5,314.5C 198.217,312.529 201.551,313.862 203.5,318.5 Z"/></g>
<g><path style="opacity:1" fill="#f7d5ce" d="M 116.5,300.5 C 125.872,307.512 135.205,314.512 144.5,321.5C 138.734,325.559 132.734,329.392 126.5,333C 124.937,333.759 123.937,334.926 123.5,336.5C 122.518,339.962 122.185,343.629 122.5,347.5C 114.545,342.052 106.712,336.385 99,330.5C 98.5008,335.155 98.3342,339.821 98.5,344.5C 97.3503,339.684 97.1837,334.684 98,329.5C 102.668,318.818 108.835,309.152 116.5,300.5 Z"/></g>
<g><path style="opacity:1" fill="#e8eff7" d="M 26.5,300.5 C 38.248,315.671 49.248,331.337 59.5,347.5C 58.8501,347.196 58.1835,346.863 57.5,346.5C 49.8041,349.84 42.1375,353.174 34.5,356.5C 33.1251,353.627 32.1251,350.627 31.5,347.5C 28.2067,334.031 26.2067,320.365 25.5,306.5C 25.2053,304.265 25.5386,302.265 26.5,300.5 Z"/></g>
<g><path style="opacity:1" fill="#c0aea1" d="M 281.5,322.5 C 285.5,323.833 289.5,323.833 293.5,322.5C 306.004,323.538 318.67,323.538 331.5,322.5C 332.461,324.265 332.795,326.265 332.5,328.5C 330.031,329.317 327.365,329.817 324.5,330C 286.826,330.673 249.159,331.507 211.5,332.5C 209.412,330.664 208.079,328.331 207.5,325.5C 228.158,324.827 248.825,324.327 269.5,324C 273.688,323.824 277.688,323.324 281.5,322.5 Z"/></g>
<g><path style="opacity:1" fill="#c0a7a1" d="M 332.5,328.5 C 333.709,332.618 334.376,336.951 334.5,341.5C 295.656,341.863 256.99,342.863 218.5,344.5C 215.665,340.836 213.332,336.836 211.5,332.5C 249.159,331.507 286.826,330.673 324.5,330C 327.365,329.817 330.031,329.317 332.5,328.5 Z"/></g>
<g><path style="opacity:1" fill="#f8dfd8" d="M 122.5,347.5 C 122.666,355.84 122.5,364.173 122,372.5C 114.786,368.893 107.452,365.559 100,362.5C 99.4625,357.829 98.9625,353.162 98.5,348.5C 98.5,347.167 98.5,345.833 98.5,344.5C 98.3342,339.821 98.5008,335.155 99,330.5C 106.712,336.385 114.545,342.052 122.5,347.5 Z"/></g>
<g><path style="opacity:1" fill="#c0a79b" d="M 334.5,341.5 C 335.403,344.391 335.736,347.391 335.5,350.5C 298.166,351.113 260.832,351.78 223.5,352.5C 223.167,351.5 222.5,350.833 221.5,350.5C 220.529,348.517 219.529,346.517 218.5,344.5C 256.99,342.863 295.656,341.863 334.5,341.5 Z"/></g>
<g><path style="opacity:1" fill="#3a3945" d="M 123.5,336.5 C 123.5,340.5 123.5,344.5 123.5,348.5C 126.833,348.5 130.167,348.5 133.5,348.5C 133.334,358.506 133.5,368.506 134,378.5C 139.521,382.931 144.854,387.598 150,392.5C 150.875,393.873 151.375,395.373 151.5,397C 149.751,407.353 147.751,417.52 145.5,427.5C 142.375,426.521 139.042,426.187 135.5,426.5C 135.845,421.122 136.512,415.789 137.5,410.5C 139.078,406.288 139.578,401.955 139,397.5C 128.189,387.173 115.689,379.507 101.5,374.5C 100.427,385.162 100.427,395.829 101.5,406.5C 102.409,412.478 102.575,418.478 102,424.5C 101.722,425.416 101.222,426.082 100.5,426.5C 96.7852,426.577 93.1185,426.244 89.5,425.5C 93.8406,411.409 91.8406,398.409 83.5,386.5C 76.2593,373.257 68.5926,360.257 60.5,347.5C 64.649,348.08 68.3157,347.414 71.5,345.5C 77.2252,353.933 82.7252,362.6 88,371.5C 88.5189,363.154 88.3522,354.821 87.5,346.5C 90.8309,348.298 94.4975,348.964 98.5,348.5C 98.9625,353.162 99.4625,357.829 100,362.5C 107.452,365.559 114.786,368.893 122,372.5C 122.5,364.173 122.666,355.84 122.5,347.5C 122.185,343.629 122.518,339.962 123.5,336.5 Z"/></g>
<g><path style="opacity:1" fill="#393945" d="M 31.5,347.5 C 32.1251,350.627 33.1251,353.627 34.5,356.5C 38.2279,371.365 43.8946,385.365 51.5,398.5C 56.0776,407.995 61.411,416.995 67.5,425.5C 63.5,425.5 59.5,425.5 55.5,425.5C 38.7459,402.313 27.0792,376.646 20.5,348.5C 24.0641,347.577 27.7307,347.244 31.5,347.5 Z"/></g>
<g><path style="opacity:1" fill="#393845" d="M 351.5,429.5 C 348.167,429.5 344.833,429.5 341.5,429.5C 341.5,451.5 341.5,473.5 341.5,495.5C 343.415,495.216 345.081,495.549 346.5,496.5C 344.5,496.5 342.5,496.5 340.5,496.5C 340.5,486.833 340.5,477.167 340.5,467.5C 340.5,461.5 340.5,455.5 340.5,449.5C 340.5,441.833 340.5,434.167 340.5,426.5C 321.47,425.846 302.803,426.513 284.5,428.5C 281.167,428.5 277.833,428.5 274.5,428.5C 270.724,427.175 266.557,426.509 262,426.5C 257.443,426.509 253.276,427.175 249.5,428.5C 246.193,427.949 242.86,427.616 239.5,427.5C 237.996,425.164 235.996,423.331 233.5,422C 222.5,421.333 211.5,421.333 200.5,422C 196.626,423.431 193.293,425.597 190.5,428.5C 187.038,427.518 183.371,427.185 179.5,427.5C 183.634,418.551 190.634,413.051 200.5,411C 205.418,410.805 210.251,410.305 215,409.5C 217.359,398.873 219.525,388.206 221.5,377.5C 220.985,373.758 220.152,370.091 219,366.5C 215.58,361.263 212.413,355.929 209.5,350.5C 213.399,349.209 217.399,349.209 221.5,350.5C 222.5,350.833 223.167,351.5 223.5,352.5C 225.515,355.869 227.515,359.202 229.5,362.5C 230.578,365.402 231.244,368.402 231.5,371.5C 231.5,375.5 231.5,379.5 231.5,383.5C 231.007,385.806 230.674,388.139 230.5,390.5C 229.34,394.681 228.34,399.015 227.5,403.5C 226.525,406.067 225.858,408.733 225.5,411.5C 232.147,410.592 238.147,412.092 243.5,416C 275.832,416.5 308.165,416.667 340.5,416.5C 340.782,411.073 340.449,405.74 339.5,400.5C 339.5,397.5 339.5,394.5 339.5,391.5C 339.5,390.5 339.5,389.5 339.5,388.5C 339.301,382.441 338.634,376.441 337.5,370.5C 337.815,366.629 337.482,362.962 336.5,359.5C 336.5,356.833 336.5,354.167 336.5,351.5C 340.111,351.956 343.444,351.289 346.5,349.5C 347.107,349.624 347.44,349.957 347.5,350.5C 346.853,351.274 346.52,352.274 346.5,353.5C 347.942,364.469 349.109,375.469 350,386.5C 363.121,394.488 377.288,398.155 392.5,397.5C 394.502,388.825 396.502,380.158 398.5,371.5C 379.299,370.884 362.632,364.217 348.5,351.5C 354.5,351.5 360.5,351.5 366.5,351.5C 392.297,364.628 418.297,364.794 444.5,352C 449.833,349.333 455.167,346.667 460.5,344C 469.538,341.112 477.871,342.446 485.5,348C 490.088,352.081 494.088,356.581 497.5,361.5C 479.049,410.747 443.382,434.581 390.5,433C 387.317,431.982 385.984,429.815 386.5,426.5C 387.115,421.424 388.115,416.424 389.5,411.5C 389.167,410.833 388.833,410.167 388.5,409.5C 375.622,408.197 363.289,404.864 351.5,399.5C 351.44,409.32 351.44,419.32 351.5,429.5 Z"/></g>
<g><path style="opacity:1" fill="#f0f8f8" d="M 59.5,347.5 C 59.8333,347.5 60.1667,347.5 60.5,347.5C 68.5926,360.257 76.2593,373.257 83.5,386.5C 82.8501,386.196 82.1835,385.863 81.5,385.5C 71.4741,389.848 61.4741,394.181 51.5,398.5C 43.8946,385.365 38.2279,371.365 34.5,356.5C 42.1375,353.174 49.8041,349.84 57.5,346.5C 58.1835,346.863 58.8501,347.196 59.5,347.5 Z"/></g>
<g><path style="opacity:1" fill="#bba19b" d="M 335.5,350.5 C 335.5,351.167 335.833,351.5 336.5,351.5C 336.5,354.167 336.5,356.833 336.5,359.5C 300.857,360.54 265.19,361.54 229.5,362.5C 227.515,359.202 225.515,355.869 223.5,352.5C 260.832,351.78 298.166,351.113 335.5,350.5 Z"/></g>
<g><path style="opacity:1" fill="#de817c" d="M 347.5,350.5 C 347.5,351.167 347.833,351.5 348.5,351.5C 362.632,364.217 379.299,370.884 398.5,371.5C 396.502,380.158 394.502,388.825 392.5,397.5C 377.288,398.155 363.121,394.488 350,386.5C 349.109,375.469 347.942,364.469 346.5,353.5C 346.52,352.274 346.853,351.274 347.5,350.5 Z"/></g>
<g><path style="opacity:1" fill="#a48980" d="M 445.5,410.5 C 445.579,407.729 445.079,405.063 444,402.5C 439.391,392.282 435.057,381.948 431,371.5C 430.583,370.244 429.75,369.577 428.5,369.5C 441.012,365.75 453.012,360.583 464.5,354C 469.111,352.993 473.445,353.66 477.5,356C 480.016,358.683 482.683,361.183 485.5,363.5C 477.53,383.799 464.197,399.465 445.5,410.5 Z"/></g>
<g><path style="opacity:1" fill="#baa195" d="M 336.5,359.5 C 337.482,362.962 337.815,366.629 337.5,370.5C 302.115,372.062 266.781,372.395 231.5,371.5C 231.244,368.402 230.578,365.402 229.5,362.5C 265.19,361.54 300.857,360.54 336.5,359.5 Z"/></g>
<g><path style="opacity:1" fill="#b99b95" d="M 337.5,370.5 C 338.634,376.441 339.301,382.441 339.5,388.5C 338.532,386.393 338.198,384.059 338.5,381.5C 302.841,382.5 267.175,383.167 231.5,383.5C 231.5,379.5 231.5,375.5 231.5,371.5C 266.781,372.395 302.115,372.062 337.5,370.5 Z"/></g>
<g><path style="opacity:1" fill="#ae978f" d="M 428.5,369.5 C 429.75,369.577 430.583,370.244 431,371.5C 435.057,381.948 439.391,392.282 444,402.5C 445.079,405.063 445.579,407.729 445.5,410.5C 430.751,418.05 415.084,422.05 398.5,422.5C 401.677,405.776 405.177,389.109 409,372.5C 415.429,371.272 421.929,370.272 428.5,369.5 Z"/></g>
<g><path style="opacity:1" fill="#b59b8e" d="M 339.5,388.5 C 339.5,389.5 339.5,390.5 339.5,391.5C 303.166,392.127 266.832,392.793 230.5,393.5C 230.5,392.5 230.5,391.5 230.5,390.5C 230.674,388.139 231.007,385.806 231.5,383.5C 267.175,383.167 302.841,382.5 338.5,381.5C 338.198,384.059 338.532,386.393 339.5,388.5 Z"/></g>
<g><path style="opacity:1" fill="#f7f7f8" d="M 83.5,386.5 C 91.8406,398.409 93.8406,411.409 89.5,425.5C 86.229,429.715 82.729,433.715 79,437.5C 74.9576,433.626 71.1243,429.626 67.5,425.5C 61.411,416.995 56.0776,407.995 51.5,398.5C 61.4741,394.181 71.4741,389.848 81.5,385.5C 82.1835,385.863 82.8501,386.196 83.5,386.5 Z"/></g>
<g><path style="opacity:1" fill="#b4958e" d="M 230.5,390.5 C 230.5,391.5 230.5,392.5 230.5,393.5C 266.832,392.793 303.166,392.127 339.5,391.5C 339.5,394.5 339.5,397.5 339.5,400.5C 302.083,400.728 264.749,401.728 227.5,403.5C 228.34,399.015 229.34,394.681 230.5,390.5 Z"/></g>
<g><path style="opacity:1" fill="#c4afa7" d="M 137.5,410.5 C 128.179,409.889 118.845,409.389 109.5,409C 106.496,408.883 103.829,408.049 101.5,406.5C 100.427,395.829 100.427,385.162 101.5,374.5C 115.689,379.507 128.189,387.173 139,397.5C 139.578,401.955 139.078,406.288 137.5,410.5 Z"/></g>
<g><path style="opacity:1" fill="#b09386" d="M 339.5,400.5 C 340.449,405.74 340.782,411.073 340.5,416.5C 308.165,416.667 275.832,416.5 243.5,416C 238.147,412.092 232.147,410.592 225.5,411.5C 225.858,408.733 226.525,406.067 227.5,403.5C 264.749,401.728 302.083,400.728 339.5,400.5 Z"/></g>
<g><path style="opacity:1" fill="#bda39b" d="M 101.5,406.5 C 103.829,408.049 106.496,408.883 109.5,409C 118.845,409.389 128.179,409.889 137.5,410.5C 136.512,415.789 135.845,421.122 135.5,426.5C 134.136,430.325 133.136,434.325 132.5,438.5C 119.501,438.133 106.501,437.8 93.5,437.5C 95.5729,433.692 97.9062,430.026 100.5,426.5C 101.222,426.082 101.722,425.416 102,424.5C 102.575,418.478 102.409,412.478 101.5,406.5 Z"/></g>
<g><path style="opacity:1" fill="#cc756f" d="M 239.5,427.5 C 236.165,443.011 233.665,458.677 232,474.5C 229.038,483.634 222.871,488.967 213.5,490.5C 204.5,490.5 195.5,490.5 186.5,490.5C 178.857,488.514 174.857,483.514 174.5,475.5C 176.731,458.72 182.064,443.054 190.5,428.5C 193.293,425.597 196.626,423.431 200.5,422C 211.5,421.333 222.5,421.333 233.5,422C 235.996,423.331 237.996,425.164 239.5,427.5 Z"/></g>
<g><path style="opacity:1" fill="#333344" d="M 55.5,425.5 C 59.5,425.5 63.5,425.5 67.5,425.5C 71.1243,429.626 74.9576,433.626 79,437.5C 82.729,433.715 86.229,429.715 89.5,425.5C 93.1185,426.244 96.7852,426.577 100.5,426.5C 97.9062,430.026 95.5729,433.692 93.5,437.5C 81.9367,447.958 81.6034,458.791 92.5,470C 96.3286,470.758 99.6619,469.758 102.5,467C 110.167,461.333 117.833,455.667 125.5,450C 129.528,447.097 131.861,443.264 132.5,438.5C 133.136,434.325 134.136,430.325 135.5,426.5C 139.042,426.187 142.375,426.521 145.5,427.5C 145.326,436.888 142.826,445.555 138,453.5C 136.316,455.351 134.483,457.018 132.5,458.5C 135.276,464.385 137.776,470.385 140,476.5C 140.346,488.993 134.179,495.66 121.5,496.5C 117.762,496.421 114.428,495.254 111.5,493C 108.167,489 104.833,485 101.5,481C 87.2885,482.817 78.4551,476.651 75,462.5C 73.4649,457.861 73.1316,453.194 74,448.5C 66.8373,441.518 60.6707,433.851 55.5,425.5 Z"/></g>
<g><path style="opacity:1" fill="#9a5656" d="M 274.5,428.5 C 274.667,439.505 274.5,450.505 274,461.5C 273.111,465.112 270.945,467.612 267.5,469C 259.507,469.5 251.507,469.666 243.5,469.5C 245.018,455.762 247.018,442.095 249.5,428.5C 253.276,427.175 257.443,426.509 262,426.5C 266.557,426.509 270.724,427.175 274.5,428.5 Z"/></g>
<g><path style="opacity:1" fill="#323243" d="M 179.5,427.5 C 183.371,427.185 187.038,427.518 190.5,428.5C 182.064,443.054 176.731,458.72 174.5,475.5C 174.857,483.514 178.857,488.514 186.5,490.5C 181.025,491.489 175.358,491.822 169.5,491.5C 165.755,487.495 163.755,482.662 163.5,477C 165.231,459.213 170.564,442.713 179.5,427.5 Z"/></g>
<g><path style="opacity:1" fill="#343344" d="M 239.5,427.5 C 242.86,427.616 246.193,427.949 249.5,428.5C 247.018,442.095 245.018,455.762 243.5,469.5C 251.507,469.666 259.507,469.5 267.5,469C 270.945,467.612 273.111,465.112 274,461.5C 274.5,450.505 274.667,439.505 274.5,428.5C 277.833,428.5 281.167,428.5 284.5,428.5C 284.5,439.5 284.5,450.5 284.5,461.5C 283.808,464.936 282.808,468.27 281.5,471.5C 277.438,475.867 272.438,478.701 266.5,480C 257.833,480.333 249.167,480.667 240.5,481C 238.47,486.198 235.137,490.364 230.5,493.5C 225.684,492.674 220.684,492.174 215.5,492C 214.584,491.722 213.918,491.222 213.5,490.5C 222.871,488.967 229.038,483.634 232,474.5C 233.665,458.677 236.165,443.011 239.5,427.5 Z"/></g>
<g><path style="opacity:1" fill="#323143" d="M 351.5,429.5 C 351.5,451.833 351.5,474.167 351.5,496.5C 349.833,496.5 348.167,496.5 346.5,496.5C 345.081,495.549 343.415,495.216 341.5,495.5C 341.5,473.5 341.5,451.5 341.5,429.5C 344.833,429.5 348.167,429.5 351.5,429.5 Z"/></g>
<g><path style="opacity:1" fill="#5b5b6e" d="M 340.5,449.5 C 322.15,450.629 303.817,451.963 285.5,453.5C 285.806,456.385 285.473,459.052 284.5,461.5C 284.5,450.5 284.5,439.5 284.5,428.5C 302.803,426.513 321.47,425.846 340.5,426.5C 340.5,434.167 340.5,441.833 340.5,449.5 Z"/></g>
<g><path style="opacity:1" fill="#b19489" d="M 93.5,437.5 C 106.501,437.8 119.501,438.133 132.5,438.5C 131.861,443.264 129.528,447.097 125.5,450C 117.833,455.667 110.167,461.333 102.5,467C 99.6619,469.758 96.3286,470.758 92.5,470C 81.6034,458.791 81.9367,447.958 93.5,437.5 Z"/></g>
<g><path style="opacity:1" fill="#636375" d="M 340.5,449.5 C 340.5,455.5 340.5,461.5 340.5,467.5C 320.641,469.353 300.974,470.686 281.5,471.5C 282.808,468.27 283.808,464.936 284.5,461.5C 285.473,459.052 285.806,456.385 285.5,453.5C 303.817,451.963 322.15,450.629 340.5,449.5 Z"/></g>
<g><path style="opacity:1" fill="#5d5d6f" d="M 122.5,464.5 C 125.061,469.294 127.394,474.294 129.5,479.5C 127.503,483.667 124.17,485.5 119.5,485C 116.618,481.407 113.618,477.907 110.5,474.5C 114.227,470.767 118.227,467.434 122.5,464.5 Z"/></g>
<g><path style="opacity:1" fill="#69697c" d="M 340.5,467.5 C 340.5,477.167 340.5,486.833 340.5,496.5C 303.167,496.5 265.833,496.5 228.5,496.5C 229.167,495.5 229.833,494.5 230.5,493.5C 235.137,490.364 238.47,486.198 240.5,481C 249.167,480.667 257.833,480.333 266.5,480C 272.438,478.701 277.438,475.867 281.5,471.5C 300.974,470.686 320.641,469.353 340.5,467.5 Z"/></g>
<g><path style="opacity:1" fill="#34323e" d="M 186.5,490.5 C 195.5,490.5 204.5,490.5 213.5,490.5C 213.918,491.222 214.584,491.722 215.5,492C 220.684,492.174 225.684,492.674 230.5,493.5C 229.833,494.5 229.167,495.5 228.5,496.5C 224.789,498.683 220.789,500.183 216.5,501C 205.5,501.667 194.5,501.667 183.5,501C 177.267,499.901 172.6,496.735 169.5,491.5C 175.358,491.822 181.025,491.489 186.5,490.5 Z"/></g>
</svg>
