<?xml version="1.0" encoding="UTF-8"?>
<!DOCTYPE svg PUBLIC "-//W3C//DTD SVG 1.1//EN" "http://www.w3.org/Graphics/SVG/1.1/DTD/svg11.dtd">
<svg xmlns="http://www.w3.org/2000/svg" version="1.1" width="512px" height="512px" style="shape-rendering:geometricPrecision; text-rendering:geometricPrecision; image-rendering:optimizeQuality; fill-rule:evenodd; clip-rule:evenodd" xmlns:xlink="http://www.w3.org/1999/xlink">
<g><path style="opacity:1" fill="#3f3f51" d="M 254.5,185.5 C 251.167,185.5 247.833,185.5 244.5,185.5C 244.101,181.989 243.434,178.656 242.5,175.5C 242.634,173.708 242.301,172.042 241.5,170.5C 241.552,168.097 241.219,165.764 240.5,163.5C 240.244,161.224 238.91,160.057 236.5,160C 221.017,156.418 205.35,154.752 189.5,155C 188.418,156.33 187.751,157.83 187.5,159.5C 186.176,165.152 184.009,170.486 181,175.5C 179.568,177.439 177.735,178.772 175.5,179.5C 170.353,181.313 165.686,180.479 161.5,177C 158.681,172.519 156.014,168.019 153.5,163.5C 152.52,160.884 151.02,158.551 149,156.5C 146.595,157.274 144.095,157.774 141.5,158C 139.467,160.896 138.134,164.063 137.5,167.5C 136.513,172.305 136.179,177.305 136.5,182.5C 136.209,183.649 135.376,184.316 134,184.5C 131.538,183.841 129.038,183.507 126.5,183.5C 126.768,181.901 126.434,180.568 125.5,179.5C 119.454,180.627 113.454,181.96 107.5,183.5C 99.8333,183.5 92.1667,183.5 84.5,183.5C 97.2624,175.355 111.262,170.355 126.5,168.5C 126.261,166.533 126.594,164.699 127.5,163C 123.17,163.263 118.837,163.93 114.5,165C 77.577,171.585 47.077,160.752 23,132.5C 22.3333,130.167 22.3333,127.833 23,125.5C 24.2991,124.02 25.9658,123.354 28,123.5C 43.1385,125.957 58.3052,126.124 73.5,124C 95.5464,120.357 117.546,116.524 139.5,112.5C 140.143,104.17 140.31,95.8363 140,87.5C 131.775,93.5295 122.608,97.1961 112.5,98.5C 89.1562,95.989 77.6562,82.989 78,59.5C 79.1824,57.6431 80.849,56.6431 83,56.5C 87.1483,58.4059 91.4816,59.7393 96,60.5C 105.396,59.2179 113.563,55.3846 120.5,49C 128.207,41.5619 135.207,33.5619 141.5,25C 149.359,18.4515 158.359,16.1181 168.5,18C 194.571,23.281 216.738,35.4477 235,54.5C 246.067,67.8608 252.567,83.1941 254.5,100.5C 296.936,98.3294 339.269,99.4961 381.5,104C 383.594,105.255 384.594,107.088 384.5,109.5C 376.924,125.916 365.257,138.75 349.5,148C 319.759,163.583 288.259,168.75 255,163.5C 253.833,163.833 252.667,164.167 251.5,164.5C 253.259,171.385 254.259,178.385 254.5,185.5 Z"/></g>
<g><path style="opacity:1" fill="#403e51" d="M 471.5,188.5 C 468.167,188.5 464.833,188.5 461.5,188.5C 461.5,196.5 461.5,204.5 461.5,212.5C 460.338,195.005 460.171,177.338 461,159.5C 462.396,152.672 464.229,146.005 466.5,139.5C 474.305,117.241 479.972,94.4078 483.5,71C 483.333,69.8333 483.167,68.6667 483,67.5C 477.663,60.9962 471.829,54.9962 465.5,49.5C 459.778,43.4445 453.444,38.1112 446.5,33.5C 444.897,32.4036 443.397,31.0703 442,29.5C 425.011,48.8122 413.844,71.1455 408.5,96.5C 415.159,106.492 423.492,114.826 433.5,121.5C 435.21,123.2 437.21,124.533 439.5,125.5C 450.573,109.872 454.74,92.5382 452,73.5C 450.374,70.8723 448.374,68.539 446,66.5C 443.91,69.0217 442.076,71.6884 440.5,74.5C 437.447,80.4913 435.28,86.8246 434,93.5C 431,97.5 428,97.5 425,93.5C 425.54,79.9184 430.374,68.085 439.5,58C 441.405,56.5787 443.405,55.412 445.5,54.5C 454.209,58.0471 460.042,64.3804 463,73.5C 464.451,89.5175 461.951,104.851 455.5,119.5C 452.155,125.527 448.821,131.527 445.5,137.5C 441.744,143.59 439.244,150.257 438,157.5C 437.676,167.503 437.843,177.503 438.5,187.5C 434.731,187.244 431.064,187.577 427.5,188.5C 424.78,170.431 426.78,152.931 433.5,136C 420.708,126.542 409.208,115.708 399,103.5C 401.014,70.8289 413.514,42.6623 436.5,19C 440.414,16.8202 444.081,17.1536 447.5,20C 462.978,31.3329 477.144,44.1662 490,58.5C 492.104,61.7099 493.937,65.0432 495.5,68.5C 490.661,98.1895 483.161,127.189 473,155.5C 471.65,166.451 471.15,177.451 471.5,188.5 Z"/></g>
<g><path style="opacity:1" fill="#e3a9a3" d="M 218.5,54.5 C 196.159,54.4505 173.826,54.7839 151.5,55.5C 145.801,53.12 142.801,48.7867 142.5,42.5C 147.163,32.003 155.163,27.503 166.5,29C 182.83,32.3356 197.83,38.669 211.5,48C 214.288,49.7186 216.621,51.8852 218.5,54.5 Z"/></g>
<g><path style="opacity:1" fill="#dd5c56" d="M 465.5,49.5 C 471.829,54.9962 477.663,60.9962 483,67.5C 483.167,68.6667 483.333,69.8333 483.5,71C 479.972,94.4078 474.305,117.241 466.5,139.5C 465.502,109.671 465.169,79.6713 465.5,49.5 Z"/></g>
<g><path style="opacity:1" fill="#ed6d66" d="M 446.5,33.5 C 445.509,40.3134 445.175,47.3134 445.5,54.5C 443.405,55.412 441.405,56.5787 439.5,58C 430.374,68.085 425.54,79.9184 425,93.5C 428,97.5 431,97.5 434,93.5C 435.28,86.8246 437.447,80.4913 440.5,74.5C 443.044,74.1043 445.211,74.771 447,76.5C 448.828,93.5075 444.328,108.508 433.5,121.5C 423.492,114.826 415.159,106.492 408.5,96.5C 413.844,71.1455 425.011,48.8122 442,29.5C 443.397,31.0703 444.897,32.4036 446.5,33.5 Z"/></g>
<g><path style="opacity:1" fill="#ad6a6a" d="M 142.5,42.5 C 142.801,48.7867 145.801,53.12 151.5,55.5C 152.058,56.7899 153.058,57.6232 154.5,58C 159.572,57.9082 163.739,59.7416 167,63.5C 168.543,68.6326 170.377,73.6326 172.5,78.5C 173.5,79.8333 174.5,81.1667 175.5,82.5C 167.836,82.8886 160.17,83.222 152.5,83.5C 152.5,81.5 152.5,79.5 152.5,77.5C 152.666,72.8215 152.499,68.1548 152,63.5C 149.127,58.5923 145.794,58.259 142,62.5C 142.499,66.5138 142.333,70.5138 141.5,74.5C 133.605,78.9022 125.605,83.0688 117.5,87C 105.091,88.4628 96.0909,83.6294 90.5,72.5C 106.423,71.2028 120.09,65.0361 131.5,54C 134.837,49.8045 138.503,45.9711 142.5,42.5 Z"/></g>
<g><path style="opacity:1" fill="#c53f3f" d="M 433.5,121.5 C 444.328,108.508 448.828,93.5075 447,76.5C 445.211,74.771 443.044,74.1043 440.5,74.5C 442.076,71.6884 443.91,69.0217 446,66.5C 448.374,68.539 450.374,70.8723 452,73.5C 454.74,92.5382 450.573,109.872 439.5,125.5C 437.21,124.533 435.21,123.2 433.5,121.5 Z"/></g>
<g><path style="opacity:1" fill="#dc9d97" d="M 218.5,54.5 C 226.444,61.0604 232.444,69.0604 236.5,78.5C 215.167,78.5 193.833,78.5 172.5,78.5C 170.377,73.6326 168.543,68.6326 167,63.5C 163.739,59.7416 159.572,57.9082 154.5,58C 153.058,57.6232 152.058,56.7899 151.5,55.5C 173.826,54.7839 196.159,54.4505 218.5,54.5 Z"/></g>
<g><path style="opacity:1" fill="#d8958e" d="M 172.5,78.5 C 193.833,78.5 215.167,78.5 236.5,78.5C 238.008,80.1815 239.008,82.1815 239.5,84.5C 226.178,86.8087 212.678,88.8087 199,90.5C 190.115,90.7055 182.282,88.0388 175.5,82.5C 174.5,81.1667 173.5,79.8333 172.5,78.5 Z"/></g>
<g><path style="opacity:1" fill="#a76363" d="M 152.5,77.5 C 152.5,79.5 152.5,81.5 152.5,83.5C 160.17,83.222 167.836,82.8886 175.5,82.5C 182.282,88.0388 190.115,90.7055 199,90.5C 212.678,88.8087 226.178,86.8087 239.5,84.5C 242.03,89.785 243.364,95.4517 243.5,101.5C 236.85,102.11 230.184,102.61 223.5,103C 221.393,104.264 220.393,106.097 220.5,108.5C 217.287,108.19 214.287,108.523 211.5,109.5C 203.488,110.072 195.488,110.739 187.5,111.5C 182.814,112.037 178.147,112.704 173.5,113.5C 172.652,110.155 170.485,108.488 167,108.5C 161.566,109.754 156.066,110.421 150.5,110.5C 150.621,99.3145 151.287,88.3145 152.5,77.5 Z"/></g>
<g><path style="opacity:1" fill="#df635c" d="M 446.5,33.5 C 453.444,38.1112 459.778,43.4445 465.5,49.5C 465.169,79.6713 465.502,109.671 466.5,139.5C 464.229,146.005 462.396,152.672 461,159.5C 460.171,177.338 460.338,195.005 461.5,212.5C 461.5,224.167 461.5,235.833 461.5,247.5C 461.5,273.5 461.5,299.5 461.5,325.5C 459.833,325.5 458.167,325.5 456.5,325.5C 456.833,256.665 456.499,187.998 455.5,119.5C 461.951,104.851 464.451,89.5175 463,73.5C 460.042,64.3804 454.209,58.0471 445.5,54.5C 445.175,47.3134 445.509,40.3134 446.5,33.5 Z"/></g>
<g><path style="opacity:1" fill="#d7958e" d="M 211.5,109.5 C 212.25,121.495 212.916,133.495 213.5,145.5C 204.921,143.994 196.254,143.328 187.5,143.5C 186.531,142.691 185.698,141.691 185,140.5C 184.256,131.176 183.756,121.843 183.5,112.5C 185.099,112.768 186.432,112.434 187.5,111.5C 195.488,110.739 203.488,110.072 211.5,109.5 Z"/></g>
<g><path style="opacity:1" fill="#e9b1ac" d="M 284.5,110.5 C 313.271,109.64 341.938,110.806 370.5,114C 349.812,139.854 322.812,153.021 289.5,153.5C 288.833,153.5 288.167,153.5 287.5,153.5C 286.459,139.169 285.459,124.836 284.5,110.5 Z"/></g>
<g><path style="opacity:1" fill="#dd9e98" d="M 220.5,108.5 C 220.885,111.717 222.719,113.384 226,113.5C 237.447,111.986 248.947,111.319 260.5,111.5C 261.333,125.491 261.999,139.491 262.5,153.5C 246.029,151.605 229.696,148.939 213.5,145.5C 212.916,133.495 212.25,121.495 211.5,109.5C 214.287,108.523 217.287,108.19 220.5,108.5 Z"/></g>
<g><path style="opacity:1" fill="#dda5a0" d="M 282.5,110.5 C 279.713,111.477 276.713,111.81 273.5,111.5C 274.252,125.53 275.252,139.53 276.5,153.5C 280.167,153.5 283.833,153.5 287.5,153.5C 288.167,153.5 288.833,153.5 289.5,153.5C 280.641,154.762 271.641,154.762 262.5,153.5C 261.999,139.491 261.333,125.491 260.5,111.5C 267.791,110.608 275.124,110.274 282.5,110.5 Z"/></g>
<g><path style="opacity:1" fill="#e6a7a2" d="M 282.5,110.5 C 283.167,110.5 283.833,110.5 284.5,110.5C 285.459,124.836 286.459,139.169 287.5,153.5C 283.833,153.5 280.167,153.5 276.5,153.5C 275.252,139.53 274.252,125.53 273.5,111.5C 276.713,111.81 279.713,111.477 282.5,110.5 Z"/></g>
<g><path style="opacity:1" fill="#e6645c" d="M 455.5,119.5 C 456.499,187.998 456.833,256.665 456.5,325.5C 452.833,325.5 449.167,325.5 445.5,325.5C 445.5,262.833 445.5,200.167 445.5,137.5C 448.821,131.527 452.155,125.527 455.5,119.5 Z"/></g>
<g><path style="opacity:1" fill="#ce8a83" d="M 187.5,111.5 C 186.432,112.434 185.099,112.768 183.5,112.5C 183.756,121.843 184.256,131.176 185,140.5C 185.698,141.691 186.531,142.691 187.5,143.5C 170.316,143.518 153.316,145.185 136.5,148.5C 136.167,140.5 135.833,132.5 135.5,124.5C 136.791,124.737 137.791,124.404 138.5,123.5C 148.773,121.871 159.107,120.371 169.5,119C 171.928,117.982 173.262,116.148 173.5,113.5C 178.147,112.704 182.814,112.037 187.5,111.5 Z"/></g>
<g><path style="opacity:1" fill="#c67e77" d="M 138.5,123.5 C 137.791,124.404 136.791,124.737 135.5,124.5C 135.833,132.5 136.167,140.5 136.5,148.5C 122.217,153.214 107.55,155.547 92.5,155.5C 91.7516,148.191 91.4183,140.858 91.5,133.5C 90.1667,133.5 88.8333,133.5 87.5,133.5C 104.222,129.423 121.222,126.089 138.5,123.5 Z"/></g>
<g><path style="opacity:1" fill="#c57b6f" d="M 87.5,133.5 C 88.8333,133.5 90.1667,133.5 91.5,133.5C 91.4183,140.858 91.7516,148.191 92.5,155.5C 73.4386,155.758 56.7719,149.591 42.5,137C 57.551,136.368 72.551,135.201 87.5,133.5 Z"/></g>
<g><path style="opacity:1" fill="#e36863" d="M 445.5,137.5 C 445.5,200.167 445.5,262.833 445.5,325.5C 444.167,325.5 442.833,325.5 441.5,325.5C 441.5,307.5 441.5,289.5 441.5,271.5C 441.182,243.317 440.182,215.317 438.5,187.5C 437.843,177.503 437.676,167.503 438,157.5C 439.244,150.257 441.744,143.59 445.5,137.5 Z"/></g>
<g><path style="opacity:1" fill="#8d9fb8" d="M 176.5,160.5 C 176.083,159.876 175.416,159.543 174.5,159.5C 171.855,160.108 169.188,160.608 166.5,161C 165.944,161.383 165.611,161.883 165.5,162.5C 163.941,160.392 162.608,158.059 161.5,155.5C 166.792,154.505 172.125,154.172 177.5,154.5C 177.795,156.735 177.461,158.735 176.5,160.5 Z"/></g>
<g><path style="opacity:1" fill="#de837e" d="M 240.5,163.5 C 232.493,163.666 224.493,163.5 216.5,163C 206.921,161.036 197.254,159.869 187.5,159.5C 187.751,157.83 188.418,156.33 189.5,155C 205.35,154.752 221.017,156.418 236.5,160C 238.91,160.057 240.244,161.224 240.5,163.5 Z"/></g>
<g><path style="opacity:1" fill="#db807c" d="M 153.5,163.5 C 148.087,164.52 142.754,165.853 137.5,167.5C 138.134,164.063 139.467,160.896 141.5,158C 144.095,157.774 146.595,157.274 149,156.5C 151.02,158.551 152.52,160.884 153.5,163.5 Z"/></g>
<g><path style="opacity:1" fill="#d8e5ec" d="M 176.5,160.5 C 175.705,164.457 173.705,167.457 170.5,169.5C 167.641,168.147 165.974,165.814 165.5,162.5C 165.611,161.883 165.944,161.383 166.5,161C 169.188,160.608 171.855,160.108 174.5,159.5C 175.416,159.543 176.083,159.876 176.5,160.5 Z"/></g>
<g><path style="opacity:1" fill="#f8cdc5" d="M 187.5,159.5 C 197.254,159.869 206.921,161.036 216.5,163C 224.493,163.5 232.493,163.666 240.5,163.5C 241.219,165.764 241.552,168.097 241.5,170.5C 238.397,169.569 235.397,170.069 232.5,172C 230.285,174.242 229.952,176.742 231.5,179.5C 227.167,180.833 222.833,180.833 218.5,179.5C 219.502,173.356 216.835,170.689 210.5,171.5C 205.99,171.173 204.157,173.173 205,177.5C 205.708,178.381 206.542,179.047 207.5,179.5C 196.833,180.833 186.167,180.833 175.5,179.5C 177.735,178.772 179.568,177.439 181,175.5C 184.009,170.486 186.176,165.152 187.5,159.5 Z"/></g>
<g><path style="opacity:1" fill="#e18580" d="M 241.5,170.5 C 242.301,172.042 242.634,173.708 242.5,175.5C 242.586,176.496 242.252,177.329 241.5,178C 238.303,180.132 234.969,180.632 231.5,179.5C 229.952,176.742 230.285,174.242 232.5,172C 235.397,170.069 238.397,169.569 241.5,170.5 Z"/></g>
<g><path style="opacity:1" fill="#e28680" d="M 218.5,179.5 C 214.833,180.833 211.167,180.833 207.5,179.5C 206.542,179.047 205.708,178.381 205,177.5C 204.157,173.173 205.99,171.173 210.5,171.5C 216.835,170.689 219.502,173.356 218.5,179.5 Z"/></g>
<g><path style="opacity:1" fill="#b37575" d="M 125.5,179.5 C 125.657,180.873 125.49,182.207 125,183.5C 107.029,197.776 97.8624,216.443 97.5,239.5C 83.1181,239.2 68.7848,239.534 54.5,240.5C 55.9223,229.655 60.0889,219.988 67,211.5C 78.2496,198.801 91.7496,189.468 107.5,183.5C 113.454,181.96 119.454,180.627 125.5,179.5 Z"/></g>
<g><path style="opacity:1" fill="#f8c7bf" d="M 153.5,163.5 C 156.014,168.019 158.681,172.519 161.5,177C 165.686,180.479 170.353,181.313 175.5,179.5C 186.167,180.833 196.833,180.833 207.5,179.5C 211.167,180.833 214.833,180.833 218.5,179.5C 222.833,180.833 227.167,180.833 231.5,179.5C 234.969,180.632 238.303,180.132 241.5,178C 242.252,177.329 242.586,176.496 242.5,175.5C 243.434,178.656 244.101,181.989 244.5,185.5C 244.5,188.167 244.5,190.833 244.5,193.5C 236.844,192.764 229.51,193.764 222.5,196.5C 201.5,196.5 180.5,196.5 159.5,196.5C 158.217,194.132 156.55,191.965 154.5,190C 150.167,189.667 145.833,189.333 141.5,189C 139.174,187.195 137.508,185.028 136.5,182.5C 136.179,177.305 136.513,172.305 137.5,167.5C 142.754,165.853 148.087,164.52 153.5,163.5 Z"/></g>
<g><path style="opacity:1" fill="#3f3e4b" d="M 84.5,183.5 C 92.1667,183.5 99.8333,183.5 107.5,183.5C 91.7496,189.468 78.2496,198.801 67,211.5C 60.0889,219.988 55.9223,229.655 54.5,240.5C 54.5,243.5 54.5,246.5 54.5,249.5C 53.5318,247.393 53.1984,245.059 53.5,242.5C 50.0613,242.747 46.728,242.414 43.5,241.5C 47.3291,215.163 60.9957,195.83 84.5,183.5 Z"/></g>
<g><path style="opacity:1" fill="#403f4c" d="M 125.5,179.5 C 126.434,180.568 126.768,181.901 126.5,183.5C 129.038,183.507 131.538,183.841 134,184.5C 135.376,184.316 136.209,183.649 136.5,182.5C 137.508,185.028 139.174,187.195 141.5,189C 145.833,189.333 150.167,189.667 154.5,190C 156.55,191.965 158.217,194.132 159.5,196.5C 169.017,216.581 184.017,222.081 204.5,213C 210.696,207.634 216.696,202.134 222.5,196.5C 229.51,193.764 236.844,192.764 244.5,193.5C 244.5,190.833 244.5,188.167 244.5,185.5C 247.833,185.5 251.167,185.5 254.5,185.5C 255.228,188.079 255.728,190.746 256,193.5C 261.379,196.887 265.379,201.554 268,207.5C 270.281,213.29 271.614,219.29 272,225.5C 277.511,230.83 282.011,236.83 285.5,243.5C 282.316,245.414 278.649,246.08 274.5,245.5C 273.883,245.389 273.383,245.056 273,244.5C 272.51,245.793 272.343,247.127 272.5,248.5C 271.596,247.791 271.263,246.791 271.5,245.5C 268.167,245.5 264.833,245.5 261.5,245.5C 261.826,237.316 261.492,229.316 260.5,221.5C 258.482,203.834 248.815,198 231.5,204C 229.275,204.561 227.275,205.561 225.5,207C 213.957,223.186 198.291,229.852 178.5,227C 166.284,222.619 156.951,214.786 150.5,203.5C 144.559,212.718 142.892,222.718 145.5,233.5C 146.638,236.913 147.971,240.246 149.5,243.5C 145.818,243.665 142.152,243.499 138.5,243C 131.999,229.764 131.999,216.264 138.5,202.5C 132.272,201.673 126.105,202.006 120,203.5C 113.36,211.853 109.194,221.353 107.5,232C 107.285,235.555 107.618,239.222 108.5,243C 105.183,243.498 101.85,243.665 98.5,243.5C 97.7659,242.292 97.4326,240.959 97.5,239.5C 97.8624,216.443 107.029,197.776 125,183.5C 125.49,182.207 125.657,180.873 125.5,179.5 Z"/></g>
<g><path style="opacity:1" fill="#443f4b" d="M 438.5,187.5 C 440.182,215.317 441.182,243.317 441.5,271.5C 440.508,263.684 440.174,255.684 440.5,247.5C 436.731,247.756 433.064,247.423 429.5,246.5C 429.498,227.113 428.831,207.779 427.5,188.5C 431.064,187.577 434.731,187.244 438.5,187.5 Z"/></g>
<g><path style="opacity:1" fill="#3d3d4a" d="M 471.5,188.5 C 471.453,208.508 471.786,228.508 472.5,248.5C 468.846,248.058 465.179,247.724 461.5,247.5C 461.5,235.833 461.5,224.167 461.5,212.5C 461.5,204.5 461.5,196.5 461.5,188.5C 464.833,188.5 468.167,188.5 471.5,188.5 Z"/></g>
<g><path style="opacity:1" fill="#f7beb4" d="M 159.5,196.5 C 180.5,196.5 201.5,196.5 222.5,196.5C 216.696,202.134 210.696,207.634 204.5,213C 184.017,222.081 169.017,216.581 159.5,196.5 Z"/></g>
<g><path style="opacity:1" fill="#38384b" d="M 149.5,243.5 C 153.284,248.786 157.617,253.62 162.5,258C 163.5,258.667 164.5,258.667 165.5,258C 167.5,255.667 169.5,253.333 171.5,251C 174.971,249.837 177.638,250.67 179.5,253.5C 182.605,261.594 187.272,268.594 193.5,274.5C 204.924,288.903 219.257,299.57 236.5,306.5C 246.772,297.632 253.772,286.632 257.5,273.5C 259.338,266.637 260.338,259.637 260.5,252.5C 261.468,250.393 261.802,248.059 261.5,245.5C 264.833,245.5 268.167,245.5 271.5,245.5C 271.263,246.791 271.596,247.791 272.5,248.5C 278.148,281.912 277.815,315.245 271.5,348.5C 268.167,348.5 264.833,348.5 261.5,348.5C 263.079,340.798 264.412,333.298 265.5,326C 265.113,320.934 265.113,315.768 265.5,310.5C 259.491,310.334 253.491,310.501 247.5,311C 244.645,313.926 241.311,316.093 237.5,317.5C 231.658,316.335 226.158,314.335 221,311.5C 215.191,312.221 209.357,312.721 203.5,313C 216.162,322.663 227.162,333.996 236.5,347C 232.514,347.499 228.514,347.666 224.5,347.5C 214.656,335.083 202.989,324.75 189.5,316.5C 185.063,313.441 180.397,310.608 175.5,308C 161.645,302.271 147.645,296.937 133.5,292C 125.778,287.773 118.778,282.607 112.5,276.5C 104.283,267.06 99.6167,256.06 98.5,243.5C 101.85,243.665 105.183,243.498 108.5,243C 107.618,239.222 107.285,235.555 107.5,232C 109.194,221.353 113.36,211.853 120,203.5C 126.105,202.006 132.272,201.673 138.5,202.5C 131.999,216.264 131.999,229.764 138.5,243C 142.152,243.499 145.818,243.665 149.5,243.5 Z"/></g>
<g><path style="opacity:1" fill="#e4f2f7" d="M 260.5,221.5 C 260.5,224.833 260.5,228.167 260.5,231.5C 222.156,231.882 183.823,232.549 145.5,233.5C 142.892,222.718 144.559,212.718 150.5,203.5C 156.951,214.786 166.284,222.619 178.5,227C 198.291,229.852 213.957,223.186 225.5,207C 227.275,205.561 229.275,204.561 231.5,204C 248.815,198 258.482,203.834 260.5,221.5 Z"/></g>
<g><path style="opacity:1" fill="#e0ecf2" d="M 260.5,221.5 C 261.492,229.316 261.826,237.316 261.5,245.5C 261.802,248.059 261.468,250.393 260.5,252.5C 233.507,253.251 206.507,253.585 179.5,253.5C 177.638,250.67 174.971,249.837 171.5,251C 169.5,253.333 167.5,255.667 165.5,258C 164.5,258.667 163.5,258.667 162.5,258C 157.617,253.62 153.284,248.786 149.5,243.5C 147.971,240.246 146.638,236.913 145.5,233.5C 183.823,232.549 222.156,231.882 260.5,231.5C 260.5,228.167 260.5,224.833 260.5,221.5 Z"/></g>
<g><path style="opacity:1" fill="#b26f6f" d="M 97.5,239.5 C 97.4326,240.959 97.7659,242.292 98.5,243.5C 99.6167,256.06 104.283,267.06 112.5,276.5C 96.965,276.129 81.6317,276.796 66.5,278.5C 59.5122,270.176 55.5122,260.51 54.5,249.5C 54.5,246.5 54.5,243.5 54.5,240.5C 68.7848,239.534 83.1181,239.2 97.5,239.5 Z"/></g>
<g><path style="opacity:1" fill="#3a394b" d="M 43.5,241.5 C 46.728,242.414 50.0613,242.747 53.5,242.5C 53.1984,245.059 53.5318,247.393 54.5,249.5C 55.5122,260.51 59.5122,270.176 66.5,278.5C 76.2595,289.396 88.2595,296.896 102.5,301C 122.486,304.329 141.819,309.829 160.5,317.5C 176.427,324.754 190.427,334.754 202.5,347.5C 197.833,347.5 193.167,347.5 188.5,347.5C 180.282,340.621 171.282,334.954 161.5,330.5C 156.48,327.323 151.146,324.657 145.5,322.5C 129.406,317.381 113.073,313.215 96.5,310C 84.2463,306.212 73.5796,299.878 64.5,291C 63.552,290.517 62.552,290.351 61.5,290.5C 60.0903,301.304 58.0903,311.97 55.5,322.5C 54.0075,324.902 53.0075,327.569 52.5,330.5C 51.0346,335.563 49.3679,340.563 47.5,345.5C 43.8333,345.5 40.1667,345.5 36.5,345.5C 43.4168,323.833 49.0835,301.833 53.5,279.5C 46.1079,267.933 42.7746,255.267 43.5,241.5 Z"/></g>
<g><path style="opacity:1" fill="#39384b" d="M 285.5,243.5 C 289.714,249.934 292.88,256.934 295,264.5C 298.079,275.639 300.079,286.973 301,298.5C 314.309,314.072 331.142,323.239 351.5,326C 362.796,311.674 376.463,309.008 392.5,318C 398.249,322.829 402.249,328.829 404.5,336C 410.167,336.667 415.833,336.667 421.5,336C 424,332.167 427.167,329 431,326.5C 430.967,299.826 430.467,273.159 429.5,246.5C 433.064,247.423 436.731,247.756 440.5,247.5C 440.174,255.684 440.508,263.684 441.5,271.5C 441.5,289.5 441.5,307.5 441.5,325.5C 442.833,325.5 444.167,325.5 445.5,325.5C 449.167,325.5 452.833,325.5 456.5,325.5C 458.167,325.5 459.833,325.5 461.5,325.5C 461.5,299.5 461.5,273.5 461.5,247.5C 465.179,247.724 468.846,248.058 472.5,248.5C 472.333,275.169 472.5,301.835 473,328.5C 480.776,333.716 484.609,341.05 484.5,350.5C 480.731,350.756 477.064,350.423 473.5,349.5C 473.5,349.167 473.5,348.833 473.5,348.5C 472.914,342.75 469.914,338.917 464.5,337C 454.833,336.333 445.167,336.333 435.5,337C 433.249,337.748 431.916,339.248 431.5,341.5C 430.523,344.287 430.19,347.287 430.5,350.5C 427.167,350.5 423.833,350.5 420.5,350.5C 420.5,349.167 420.5,347.833 420.5,346.5C 414.31,346.177 408.31,346.51 402.5,347.5C 401.833,348.167 401.167,348.833 400.5,349.5C 397.167,349.5 393.833,349.5 390.5,349.5C 391.059,346.157 392.392,343.157 394.5,340.5C 390.137,325.819 380.804,320.986 366.5,326C 359.769,332.354 356.435,340.187 356.5,349.5C 355.677,352.977 355.177,356.644 355,360.5C 354.292,361.381 353.458,362.047 352.5,362.5C 349.956,362.896 347.789,362.229 346,360.5C 345.436,352.747 345.769,345.081 347,337.5C 340.347,336.005 333.847,334.005 327.5,331.5C 317.754,327.121 308.754,321.455 300.5,314.5C 299.298,325.857 297.964,337.19 296.5,348.5C 292.958,348.813 289.625,348.479 286.5,347.5C 289.322,327.936 290.156,308.27 289,288.5C 287.443,272.995 282.61,258.661 274.5,245.5C 278.649,246.08 282.316,245.414 285.5,243.5 Z"/></g>
<g><path style="opacity:1" fill="#d9e6ed" d="M 260.5,252.5 C 260.338,259.637 259.338,266.637 257.5,273.5C 236.2,274.467 214.867,274.8 193.5,274.5C 187.272,268.594 182.605,261.594 179.5,253.5C 206.507,253.585 233.507,253.251 260.5,252.5 Z"/></g>
<g><path style="opacity:1" fill="#ad6969" d="M 112.5,276.5 C 118.778,282.607 125.778,287.773 133.5,292C 147.645,296.937 161.645,302.271 175.5,308C 180.397,310.608 185.063,313.441 189.5,316.5C 180.014,317.494 170.348,317.827 160.5,317.5C 141.819,309.829 122.486,304.329 102.5,301C 88.2595,296.896 76.2595,289.396 66.5,278.5C 81.6317,276.796 96.965,276.129 112.5,276.5 Z"/></g>
<g><path style="opacity:1" fill="#d1dee6" d="M 257.5,273.5 C 253.772,286.632 246.772,297.632 236.5,306.5C 219.257,299.57 204.924,288.903 193.5,274.5C 214.867,274.8 236.2,274.467 257.5,273.5 Z"/></g>
<g><path style="opacity:1" fill="#ebb3ad" d="M 145.5,322.5 C 115.5,323.833 85.5,323.833 55.5,322.5C 58.0903,311.97 60.0903,301.304 61.5,290.5C 62.552,290.351 63.552,290.517 64.5,291C 73.5796,299.878 84.2463,306.212 96.5,310C 113.073,313.215 129.406,317.381 145.5,322.5 Z"/></g>
<g><path style="opacity:1" fill="#383844" d="M 271.5,348.5 C 270.833,351.167 270.167,353.833 269.5,356.5C 265.751,370.658 262.751,384.991 260.5,399.5C 262.941,408.705 264.608,418.038 265.5,427.5C 264.596,426.791 264.263,425.791 264.5,424.5C 261.167,424.5 257.833,424.5 254.5,424.5C 251.885,399.311 243.551,376.311 229.5,355.5C 227.833,352.833 226.167,350.167 224.5,347.5C 228.514,347.666 232.514,347.499 236.5,347C 227.162,333.996 216.162,322.663 203.5,313C 209.357,312.721 215.191,312.221 221,311.5C 226.158,314.335 231.658,316.335 237.5,317.5C 241.311,316.093 244.645,313.926 247.5,311C 253.491,310.501 259.491,310.334 265.5,310.5C 265.113,315.768 265.113,320.934 265.5,326C 264.412,333.298 263.079,340.798 261.5,348.5C 264.833,348.5 268.167,348.5 271.5,348.5 Z"/></g>
<g><path style="opacity:1" fill="#a86565" d="M 274.5,245.5 C 282.61,258.661 287.443,272.995 289,288.5C 290.156,308.27 289.322,327.936 286.5,347.5C 285.5,350.833 284.5,354.167 283.5,357.5C 281.777,356.2 279.61,355.533 277,355.5C 274.413,355.555 271.913,355.889 269.5,356.5C 270.167,353.833 270.833,351.167 271.5,348.5C 277.815,315.245 278.148,281.912 272.5,248.5C 272.343,247.127 272.51,245.793 273,244.5C 273.383,245.056 273.883,245.389 274.5,245.5 Z"/></g>
<g><path style="opacity:1" fill="#a66363" d="M 189.5,316.5 C 202.989,324.75 214.656,335.083 224.5,347.5C 226.167,350.167 227.833,352.833 229.5,355.5C 223.596,355.321 217.929,355.988 212.5,357.5C 209.527,353.86 206.194,350.527 202.5,347.5C 190.427,334.754 176.427,324.754 160.5,317.5C 170.348,317.827 180.014,317.494 189.5,316.5 Z"/></g>
<g><path style="opacity:1" fill="#e8aeae" d="M 55.5,322.5 C 85.5,323.833 115.5,323.833 145.5,322.5C 151.146,324.657 156.48,327.323 161.5,330.5C 125.167,330.5 88.8333,330.5 52.5,330.5C 53.0075,327.569 54.0075,324.902 55.5,322.5 Z"/></g>
<g><path style="opacity:1" fill="#e5ada8" d="M 327.5,331.5 C 326.669,338.131 326.336,344.798 326.5,351.5C 316.111,352.141 306.111,351.474 296.5,349.5C 296.5,349.167 296.5,348.833 296.5,348.5C 297.964,337.19 299.298,325.857 300.5,314.5C 308.754,321.455 317.754,327.121 327.5,331.5 Z"/></g>
<g><path style="opacity:1" fill="#e4ada7" d="M 390.5,349.5 C 389.662,349.842 389.328,350.508 389.5,351.5C 378.116,352.144 367.116,351.477 356.5,349.5C 356.435,340.187 359.769,332.354 366.5,326C 380.804,320.986 390.137,325.819 394.5,340.5C 392.392,343.157 391.059,346.157 390.5,349.5 Z"/></g>
<g><path style="opacity:1" fill="#e6aea7" d="M 52.5,330.5 C 88.8333,330.5 125.167,330.5 161.5,330.5C 171.282,334.954 180.282,340.621 188.5,347.5C 189.306,348.728 190.306,349.728 191.5,350.5C 158.173,351.694 124.673,352.36 91,352.5C 75.818,352.499 60.9846,351.833 46.5,350.5C 46.6287,348.784 46.962,347.117 47.5,345.5C 49.3679,340.563 51.0346,335.563 52.5,330.5 Z"/></g>
<g><path style="opacity:1" fill="#f8d3cb" d="M 473.5,348.5 C 459.455,348.427 445.455,347.761 431.5,346.5C 431.5,344.833 431.5,343.167 431.5,341.5C 431.916,339.248 433.249,337.748 435.5,337C 445.167,336.333 454.833,336.333 464.5,337C 469.914,338.917 472.914,342.75 473.5,348.5 Z"/></g>
<g><path style="opacity:1" fill="#f9ccc4" d="M 431.5,341.5 C 431.5,343.167 431.5,344.833 431.5,346.5C 445.455,347.761 459.455,348.427 473.5,348.5C 473.5,348.833 473.5,349.167 473.5,349.5C 473.5,355.5 473.5,361.5 473.5,367.5C 459.494,366.938 445.494,366.272 431.5,365.5C 431.81,368.713 431.477,371.713 430.5,374.5C 430.5,366.5 430.5,358.5 430.5,350.5C 430.19,347.287 430.523,344.287 431.5,341.5 Z"/></g>
<g><path style="opacity:1" fill="#383844" d="M 36.5,345.5 C 40.1667,345.5 43.8333,345.5 47.5,345.5C 46.962,347.117 46.6287,348.784 46.5,350.5C 44.5947,354.216 43.2613,358.216 42.5,362.5C 40.5946,366.897 39.2612,371.563 38.5,376.5C 35.8853,384.293 34.2187,392.293 33.5,400.5C 32.5386,402.265 32.2053,404.265 32.5,406.5C 31.3835,411.973 30.7168,417.64 30.5,423.5C 30.1667,423.5 29.8333,423.5 29.5,423.5C 26.6627,421.598 23.3293,420.931 19.5,421.5C 22.0176,395.432 27.6843,370.099 36.5,345.5 Z"/></g>
<g><path style="opacity:1" fill="#3a3945" d="M 188.5,347.5 C 193.167,347.5 197.833,347.5 202.5,347.5C 206.194,350.527 209.527,353.86 212.5,357.5C 225.43,373.362 234.096,391.362 238.5,411.5C 238.648,414.549 237.314,416.549 234.5,417.5C 232.516,417.617 230.85,416.95 229.5,415.5C 228.161,411.727 226.828,408.061 225.5,404.5C 225.768,402.901 225.434,401.568 224.5,400.5C 221.811,391.457 217.811,383.124 212.5,375.5C 209.901,370.572 206.568,366.239 202.5,362.5C 199.564,357.895 195.898,353.895 191.5,350.5C 190.306,349.728 189.306,348.728 188.5,347.5 Z"/></g>
<g><path style="opacity:1" fill="#f8c8c0" d="M 402.5,347.5 C 408.167,347.5 413.833,347.5 419.5,347.5C 419.5,358.833 419.5,370.167 419.5,381.5C 410.435,382.136 401.769,381.47 393.5,379.5C 394.816,369.251 397.149,359.251 400.5,349.5C 401.167,348.833 401.833,348.167 402.5,347.5 Z"/></g>
<g><path style="opacity:1" fill="#af9697" d="M 402.5,347.5 C 408.31,346.51 414.31,346.177 420.5,346.5C 420.5,347.833 420.5,349.167 420.5,350.5C 420.5,360.833 420.5,371.167 420.5,381.5C 420.167,381.5 419.833,381.5 419.5,381.5C 419.5,370.167 419.5,358.833 419.5,347.5C 413.833,347.5 408.167,347.5 402.5,347.5 Z"/></g>
<g><path style="opacity:1" fill="#3a3844" d="M 286.5,347.5 C 289.625,348.479 292.958,348.813 296.5,348.5C 296.5,348.833 296.5,349.167 296.5,349.5C 294.756,358.102 292.756,366.768 290.5,375.5C 287.892,383.942 286.559,392.609 286.5,401.5C 285.508,408.982 285.175,416.648 285.5,424.5C 282.5,424.5 279.5,424.5 276.5,424.5C 276.5,414.833 276.5,405.167 276.5,395.5C 278.185,382.723 280.518,370.057 283.5,357.5C 284.5,354.167 285.5,350.833 286.5,347.5 Z"/></g>
<g><path style="opacity:1" fill="#393844" d="M 390.5,349.5 C 393.833,349.5 397.167,349.5 400.5,349.5C 397.149,359.251 394.816,369.251 393.5,379.5C 392.596,380.209 392.263,381.209 392.5,382.5C 402.015,382.827 411.348,382.494 420.5,381.5C 420.5,371.167 420.5,360.833 420.5,350.5C 423.833,350.5 427.167,350.5 430.5,350.5C 430.5,358.5 430.5,366.5 430.5,374.5C 430.335,377.85 430.502,381.183 431,384.5C 431.685,387.057 433.185,388.891 435.5,390C 445.167,390.667 454.833,390.667 464.5,390C 467.937,388.895 470.437,386.728 472,383.5C 473.339,378.264 473.839,372.93 473.5,367.5C 473.5,361.5 473.5,355.5 473.5,349.5C 477.064,350.423 480.731,350.756 484.5,350.5C 484.667,361.172 484.5,371.839 484,382.5C 482.279,389.213 478.612,394.546 473,398.5C 472.5,407.827 472.334,417.161 472.5,426.5C 469.167,426.5 465.833,426.5 462.5,426.5C 462.5,417.833 462.5,409.167 462.5,400.5C 455.646,400.176 448.979,400.509 442.5,401.5C 442.5,409.833 442.5,418.167 442.5,426.5C 438.498,426.036 434.831,426.702 431.5,428.5C 431.832,418.81 431.498,409.144 430.5,399.5C 427.399,397.902 424.732,395.735 422.5,393C 420.866,392.506 419.199,392.34 417.5,392.5C 418.072,403.839 418.739,415.173 419.5,426.5C 415.833,426.5 412.167,426.5 408.5,426.5C 407.227,421.466 407.227,416.633 408.5,412C 406.871,408.394 406.538,405.061 407.5,402C 404.861,400.882 402.027,400.382 399,400.5C 396.245,400.525 393.578,400.859 391,401.5C 390.943,409.282 390.776,417.282 390.5,425.5C 387.167,425.5 383.833,425.5 380.5,425.5C 380.5,420.5 380.5,415.5 380.5,410.5C 380.401,398.73 381.401,387.063 383.5,375.5C 384.87,367.309 386.87,359.309 389.5,351.5C 389.328,350.508 389.662,349.842 390.5,349.5 Z"/></g>
<g><path style="opacity:1" fill="#e6a7a2" d="M 46.5,350.5 C 60.9846,351.833 75.818,352.499 91,352.5C 124.673,352.36 158.173,351.694 191.5,350.5C 195.898,353.895 199.564,357.895 202.5,362.5C 149.039,363.827 95.706,363.827 42.5,362.5C 43.2613,358.216 44.5947,354.216 46.5,350.5 Z"/></g>
<g><path style="opacity:1" fill="#aa6767" d="M 327.5,331.5 C 333.847,334.005 340.347,336.005 347,337.5C 345.769,345.081 345.436,352.747 346,360.5C 347.789,362.229 349.956,362.896 352.5,362.5C 351.432,363.434 350.099,363.768 348.5,363.5C 348.737,364.791 348.404,365.791 347.5,366.5C 341.167,365.167 334.833,365.167 328.5,366.5C 327.6,361.668 326.934,356.668 326.5,351.5C 326.336,344.798 326.669,338.131 327.5,331.5 Z"/></g>
<g><path style="opacity:1" fill="#e0a7a1" d="M 42.5,362.5 C 95.706,363.827 149.039,363.827 202.5,362.5C 206.568,366.239 209.901,370.572 212.5,375.5C 154.669,376.499 96.6691,376.832 38.5,376.5C 39.2612,371.563 40.5946,366.897 42.5,362.5 Z"/></g>
<g><path style="opacity:1" fill="#e1a7a1" d="M 296.5,349.5 C 306.111,351.474 316.111,352.141 326.5,351.5C 326.934,356.668 327.6,361.668 328.5,366.5C 328.5,368.167 328.5,369.833 328.5,371.5C 328.5,372.833 328.5,374.167 328.5,375.5C 315.833,375.5 303.167,375.5 290.5,375.5C 292.756,366.768 294.756,358.102 296.5,349.5 Z"/></g>
<g><path style="opacity:1" fill="#e1a7a1" d="M 356.5,349.5 C 367.116,351.477 378.116,352.144 389.5,351.5C 386.87,359.309 384.87,367.309 383.5,375.5C 371.12,376.146 359.12,375.479 347.5,373.5C 347.5,371.167 347.5,368.833 347.5,366.5C 348.404,365.791 348.737,364.791 348.5,363.5C 350.099,363.768 351.432,363.434 352.5,362.5C 353.458,362.047 354.292,361.381 355,360.5C 355.177,356.644 355.677,352.977 356.5,349.5 Z"/></g>
<g><path style="opacity:1" fill="#a05959" d="M 347.5,366.5 C 347.5,368.833 347.5,371.167 347.5,373.5C 346.021,383.963 345.188,394.63 345,405.5C 342.633,408.932 339.966,409.265 337,406.5C 333.401,394.899 330.567,383.232 328.5,371.5C 328.5,369.833 328.5,368.167 328.5,366.5C 334.833,365.167 341.167,365.167 347.5,366.5 Z"/></g>
<g><path style="opacity:1" fill="#f9c0b5" d="M 473.5,367.5 C 473.839,372.93 473.339,378.264 472,383.5C 470.437,386.728 467.937,388.895 464.5,390C 454.833,390.667 445.167,390.667 435.5,390C 433.185,388.891 431.685,387.057 431,384.5C 430.502,381.183 430.335,377.85 430.5,374.5C 431.477,371.713 431.81,368.713 431.5,365.5C 445.494,366.272 459.494,366.938 473.5,367.5 Z"/></g>
<g><path style="opacity:1" fill="#e0a19b" d="M 212.5,375.5 C 217.811,383.124 221.811,391.457 224.5,400.5C 160.667,401.442 97.0003,401.442 33.5,400.5C 34.2187,392.293 35.8853,384.293 38.5,376.5C 96.6691,376.832 154.669,376.499 212.5,375.5 Z"/></g>
<g><path style="opacity:1" fill="#806e75" d="M 393.5,379.5 C 401.769,381.47 410.435,382.136 419.5,381.5C 419.833,381.5 420.167,381.5 420.5,381.5C 411.348,382.494 402.015,382.827 392.5,382.5C 392.263,381.209 392.596,380.209 393.5,379.5 Z"/></g>
<g><path style="opacity:1" fill="#e09b95" d="M 33.5,400.5 C 97.0003,401.442 160.667,401.442 224.5,400.5C 225.434,401.568 225.768,402.901 225.5,404.5C 211.339,405.331 197.006,405.831 182.5,406C 132.501,406.5 82.5011,406.667 32.5,406.5C 32.2053,404.265 32.5386,402.265 33.5,400.5 Z"/></g>
<g><path style="opacity:1" fill="#323244" d="M 419.5,426.5 C 420.705,447.562 420.705,468.562 419.5,489.5C 415.625,489.915 411.958,489.415 408.5,488C 409.076,482.412 409.409,476.579 409.5,470.5C 403.833,470.5 398.167,470.5 392.5,470.5C 392.714,472.144 392.38,473.644 391.5,475C 392.714,479.67 393.38,484.17 393.5,488.5C 390.167,488.5 386.833,488.5 383.5,488.5C 382.932,483.363 382.266,478.363 381.5,473.5C 381.046,466.841 380.713,460.174 380.5,453.5C 380.5,444.167 380.5,434.833 380.5,425.5C 383.833,425.5 387.167,425.5 390.5,425.5C 390.776,417.282 390.943,409.282 391,401.5C 393.578,400.859 396.245,400.525 399,400.5C 402.027,400.382 404.861,400.882 407.5,402C 406.538,405.061 406.871,408.394 408.5,412C 407.227,416.633 407.227,421.466 408.5,426.5C 412.167,426.5 415.833,426.5 419.5,426.5 Z"/></g>
<g><path style="opacity:1" fill="#e06762" d="M 442.5,401.5 C 443.5,401.5 444.5,401.5 445.5,401.5C 445.5,432.167 445.5,462.833 445.5,493.5C 444.5,493.5 443.5,493.5 442.5,493.5C 442.5,471.167 442.5,448.833 442.5,426.5C 442.5,418.167 442.5,409.833 442.5,401.5 Z"/></g>
<g><path style="opacity:1" fill="#e5645c" d="M 445.5,401.5 C 450.833,401.5 456.167,401.5 461.5,401.5C 461.5,414.5 461.5,427.5 461.5,440.5C 461.5,451.5 461.5,462.5 461.5,473.5C 460.509,479.979 460.176,486.646 460.5,493.5C 455.5,493.5 450.5,493.5 445.5,493.5C 445.5,462.833 445.5,432.167 445.5,401.5 Z"/></g>
<g><path style="opacity:1" fill="#dc9d98" d="M 328.5,371.5 C 330.567,383.232 333.401,394.899 337,406.5C 339.966,409.265 342.633,408.932 345,405.5C 345.188,394.63 346.021,383.963 347.5,373.5C 359.12,375.479 371.12,376.146 383.5,375.5C 381.401,387.063 380.401,398.73 380.5,410.5C 379.514,414.97 379.181,419.637 379.5,424.5C 348.486,424.23 317.486,424.563 286.5,425.5C 286.5,417.5 286.5,409.5 286.5,401.5C 286.559,392.609 287.892,383.942 290.5,375.5C 303.167,375.5 315.833,375.5 328.5,375.5C 328.5,374.167 328.5,372.833 328.5,371.5 Z"/></g>
<g><path style="opacity:1" fill="#d99b95" d="M 225.5,404.5 C 226.828,408.061 228.161,411.727 229.5,415.5C 230.85,416.95 232.516,417.617 234.5,417.5C 235.265,420.096 235.599,422.763 235.5,425.5C 166.825,426.163 98.4919,425.497 30.5,423.5C 30.7168,417.64 31.3835,411.973 32.5,406.5C 82.5011,406.667 132.501,406.5 182.5,406C 197.006,405.831 211.339,405.331 225.5,404.5 Z"/></g>
<g><path style="opacity:1" fill="#9f5858" d="M 283.5,357.5 C 280.518,370.057 278.185,382.723 276.5,395.5C 275.505,406.654 275.172,417.988 275.5,429.5C 272.5,429.5 269.5,429.5 266.5,429.5C 266.5,430.833 266.5,432.167 266.5,433.5C 266.167,433.5 265.833,433.5 265.5,433.5C 265.5,431.5 265.5,429.5 265.5,427.5C 264.608,418.038 262.941,408.705 260.5,399.5C 262.751,384.991 265.751,370.658 269.5,356.5C 271.913,355.889 274.413,355.555 277,355.5C 279.61,355.533 281.777,356.2 283.5,357.5 Z"/></g>
<g><path style="opacity:1" fill="#9d5858" d="M 229.5,355.5 C 243.551,376.311 251.885,399.311 254.5,424.5C 255.229,429.13 255.563,433.797 255.5,438.5C 254.527,436.052 254.194,433.385 254.5,430.5C 250.298,430.183 246.298,430.517 242.5,431.5C 240.986,428.905 238.652,427.571 235.5,427.5C 235.5,426.833 235.5,426.167 235.5,425.5C 235.599,422.763 235.265,420.096 234.5,417.5C 237.314,416.549 238.648,414.549 238.5,411.5C 234.096,391.362 225.43,373.362 212.5,357.5C 217.929,355.988 223.596,355.321 229.5,355.5 Z"/></g>
<g><path style="opacity:1" fill="#7c484d" d="M 442.5,401.5 C 448.979,400.509 455.646,400.176 462.5,400.5C 462.5,409.167 462.5,417.833 462.5,426.5C 462.819,431.363 462.486,436.03 461.5,440.5C 461.5,427.5 461.5,414.5 461.5,401.5C 456.167,401.5 450.833,401.5 445.5,401.5C 444.5,401.5 443.5,401.5 442.5,401.5 Z"/></g>
<g><path style="opacity:1" fill="#323243" d="M 19.5,421.5 C 23.3293,420.931 26.6627,421.598 29.5,423.5C 29.5,424.5 29.5,425.5 29.5,426.5C 28.7051,430.785 28.3718,435.119 28.5,439.5C 27.5166,443.298 27.1832,447.298 27.5,451.5C 27.5,452.5 27.5,453.5 27.5,454.5C 26.5045,467.323 26.1712,480.323 26.5,493.5C 22.8333,493.5 19.1667,493.5 15.5,493.5C 15.3845,469.362 16.7178,445.362 19.5,421.5 Z"/></g>
<g><path style="opacity:1" fill="#323243" d="M 254.5,424.5 C 257.833,424.5 261.167,424.5 264.5,424.5C 264.263,425.791 264.596,426.791 265.5,427.5C 265.5,429.5 265.5,431.5 265.5,433.5C 265.5,453.167 265.5,472.833 265.5,492.5C 262.167,492.5 258.833,492.5 255.5,492.5C 255.5,474.5 255.5,456.5 255.5,438.5C 255.563,433.797 255.229,429.13 254.5,424.5 Z"/></g>
<g><path style="opacity:1" fill="#d99595" d="M 29.5,423.5 C 29.8333,423.5 30.1667,423.5 30.5,423.5C 98.4919,425.497 166.825,426.163 235.5,425.5C 235.5,426.167 235.5,426.833 235.5,427.5C 235.167,427.5 234.833,427.5 234.5,427.5C 168.156,427.184 101.823,427.517 35.5,428.5C 33.2147,428.324 31.2147,427.657 29.5,426.5C 29.5,425.5 29.5,424.5 29.5,423.5 Z"/></g>
<g><path style="opacity:1" fill="#da958f" d="M 379.5,424.5 C 379.5,430.5 379.5,436.5 379.5,442.5C 348.5,442.5 317.5,442.5 286.5,442.5C 286.5,436.833 286.5,431.167 286.5,425.5C 317.486,424.563 348.486,424.23 379.5,424.5 Z"/></g>
<g><path style="opacity:1" fill="#323243" d="M 442.5,426.5 C 442.5,448.833 442.5,471.167 442.5,493.5C 438.833,493.5 435.167,493.5 431.5,493.5C 431.5,471.833 431.5,450.167 431.5,428.5C 434.831,426.702 438.498,426.036 442.5,426.5 Z"/></g>
<g><path style="opacity:1" fill="#333243" d="M 462.5,426.5 C 465.833,426.5 469.167,426.5 472.5,426.5C 472.688,448.845 472.354,471.178 471.5,493.5C 469.5,493.5 467.5,493.5 465.5,493.5C 464.432,492.566 463.099,492.232 461.5,492.5C 461.5,486.167 461.5,479.833 461.5,473.5C 461.5,462.5 461.5,451.5 461.5,440.5C 462.486,436.03 462.819,431.363 462.5,426.5 Z"/></g>
<g><path style="opacity:1" fill="#d9958e" d="M 29.5,426.5 C 31.2147,427.657 33.2147,428.324 35.5,428.5C 101.823,427.517 168.156,427.184 234.5,427.5C 230.23,432.256 230.563,436.59 235.5,440.5C 236.968,441.779 237.635,443.446 237.5,445.5C 236.596,444.791 236.263,443.791 236.5,442.5C 167.166,442.796 97.8331,443.129 28.5,443.5C 28.5,442.167 28.5,440.833 28.5,439.5C 28.3718,435.119 28.7051,430.785 29.5,426.5 Z"/></g>
<g><path style="opacity:1" fill="#383445" d="M 234.5,427.5 C 234.833,427.5 235.167,427.5 235.5,427.5C 238.652,427.571 240.986,428.905 242.5,431.5C 243.469,437.188 241.136,440.188 235.5,440.5C 230.563,436.59 230.23,432.256 234.5,427.5 Z"/></g>
<g><path style="opacity:1" fill="#d3958e" d="M 28.5,439.5 C 28.5,440.833 28.5,442.167 28.5,443.5C 97.8331,443.129 167.166,442.796 236.5,442.5C 236.263,443.791 236.596,444.791 237.5,445.5C 237.5,447.167 237.5,448.833 237.5,450.5C 167.5,450.894 97.5004,451.227 27.5,451.5C 27.1832,447.298 27.5166,443.298 28.5,439.5 Z"/></g>
<g><path style="opacity:1" fill="#d2948c" d="M 380.5,410.5 C 380.5,415.5 380.5,420.5 380.5,425.5C 380.5,434.833 380.5,444.167 380.5,453.5C 349.167,453.5 317.833,453.5 286.5,453.5C 286.5,449.833 286.5,446.167 286.5,442.5C 317.5,442.5 348.5,442.5 379.5,442.5C 379.5,436.5 379.5,430.5 379.5,424.5C 379.181,419.637 379.514,414.97 380.5,410.5 Z"/></g>
<g><path style="opacity:1" fill="#5c4751" d="M 276.5,395.5 C 276.5,405.167 276.5,414.833 276.5,424.5C 276.5,447.167 276.5,469.833 276.5,492.5C 279.5,492.5 282.5,492.5 285.5,492.5C 285.5,469.833 285.5,447.167 285.5,424.5C 285.175,416.648 285.508,408.982 286.5,401.5C 286.5,409.5 286.5,417.5 286.5,425.5C 286.5,431.167 286.5,436.833 286.5,442.5C 286.5,446.167 286.5,449.833 286.5,453.5C 286.5,460.167 286.5,466.833 286.5,473.5C 286.5,475.167 286.5,476.833 286.5,478.5C 286.5,483.5 286.5,488.5 286.5,493.5C 282.833,493.5 279.167,493.5 275.5,493.5C 275.5,472.167 275.5,450.833 275.5,429.5C 275.172,417.988 275.505,406.654 276.5,395.5 Z"/></g>
<g><path style="opacity:1" fill="#323143" d="M 276.5,424.5 C 279.5,424.5 282.5,424.5 285.5,424.5C 285.5,447.167 285.5,469.833 285.5,492.5C 282.5,492.5 279.5,492.5 276.5,492.5C 276.5,469.833 276.5,447.167 276.5,424.5 Z"/></g>
<g><path style="opacity:1" fill="#6b424a" d="M 265.5,433.5 C 265.833,433.5 266.167,433.5 266.5,433.5C 266.5,453.5 266.5,473.5 266.5,493.5C 262.833,493.5 259.167,493.5 255.5,493.5C 255.5,493.167 255.5,492.833 255.5,492.5C 258.833,492.5 262.167,492.5 265.5,492.5C 265.5,472.833 265.5,453.167 265.5,433.5 Z"/></g>
<g><path style="opacity:1" fill="#d39589" d="M 237.5,450.5 C 237.5,451.5 237.5,452.5 237.5,453.5C 167.503,454.323 97.5033,454.657 27.5,454.5C 27.5,453.5 27.5,452.5 27.5,451.5C 97.5004,451.227 167.5,450.894 237.5,450.5 Z"/></g>
<g><path style="opacity:1" fill="#d38f88" d="M 237.5,453.5 C 237.5,460.167 237.5,466.833 237.5,473.5C 167.541,474.493 97.5413,474.827 27.5,474.5C 27.5,467.833 27.5,461.167 27.5,454.5C 97.5033,454.657 167.503,454.323 237.5,453.5 Z"/></g>
<g><path style="opacity:1" fill="#d38e88" d="M 286.5,453.5 C 317.833,453.5 349.167,453.5 380.5,453.5C 380.713,460.174 381.046,466.841 381.5,473.5C 349.833,473.5 318.167,473.5 286.5,473.5C 286.5,466.833 286.5,460.167 286.5,453.5 Z"/></g>
<g><path style="opacity:1" fill="#974d4d" d="M 255.5,438.5 C 255.5,456.5 255.5,474.5 255.5,492.5C 255.5,492.833 255.5,493.167 255.5,493.5C 249.5,493.5 243.5,493.5 237.5,493.5C 237.5,488.5 237.5,483.5 237.5,478.5C 237.5,476.833 237.5,475.167 237.5,473.5C 237.5,466.833 237.5,460.167 237.5,453.5C 237.5,452.5 237.5,451.5 237.5,450.5C 237.5,448.833 237.5,447.167 237.5,445.5C 237.635,443.446 236.968,441.779 235.5,440.5C 241.136,440.188 243.469,437.188 242.5,431.5C 246.298,430.517 250.298,430.183 254.5,430.5C 254.194,433.385 254.527,436.052 255.5,438.5 Z"/></g>
<g><path style="opacity:1" fill="#984d4d" d="M 275.5,429.5 C 275.5,450.833 275.5,472.167 275.5,493.5C 272.5,493.5 269.5,493.5 266.5,493.5C 266.5,473.5 266.5,453.5 266.5,433.5C 266.5,432.167 266.5,430.833 266.5,429.5C 269.5,429.5 272.5,429.5 275.5,429.5 Z"/></g>
<g><path style="opacity:1" fill="#32323e" d="M 419.5,489.5 C 419.5,490.833 419.5,492.167 419.5,493.5C 407.5,493.5 395.5,493.5 383.5,493.5C 383.5,491.833 383.5,490.167 383.5,488.5C 386.833,488.5 390.167,488.5 393.5,488.5C 393.38,484.17 392.714,479.67 391.5,475C 392.38,473.644 392.714,472.144 392.5,470.5C 398.167,470.5 403.833,470.5 409.5,470.5C 409.409,476.579 409.076,482.412 408.5,488C 411.958,489.415 415.625,489.915 419.5,489.5 Z"/></g>
<g><path style="opacity:1" fill="#d38f82" d="M 237.5,473.5 C 237.5,475.167 237.5,476.833 237.5,478.5C 167.497,478.333 97.4966,478.667 27.5,479.5C 27.5,477.833 27.5,476.167 27.5,474.5C 97.5413,474.827 167.541,474.493 237.5,473.5 Z"/></g>
<g><path style="opacity:1" fill="#d38f82" d="M 286.5,473.5 C 318.167,473.5 349.833,473.5 381.5,473.5C 381.5,474.833 381.5,476.167 381.5,477.5C 349.834,477.9 318.168,478.233 286.5,478.5C 286.5,476.833 286.5,475.167 286.5,473.5 Z"/></g>
<g><path style="opacity:1" fill="#cd8882" d="M 381.5,473.5 C 382.266,478.363 382.932,483.363 383.5,488.5C 383.5,490.167 383.5,491.833 383.5,493.5C 351.167,493.5 318.833,493.5 286.5,493.5C 286.5,488.5 286.5,483.5 286.5,478.5C 318.168,478.233 349.834,477.9 381.5,477.5C 381.5,476.167 381.5,474.833 381.5,473.5 Z"/></g>
<g><path style="opacity:1" fill="#cd8882" d="M 27.5,454.5 C 27.5,461.167 27.5,467.833 27.5,474.5C 27.5,476.167 27.5,477.833 27.5,479.5C 97.4966,478.667 167.497,478.333 237.5,478.5C 237.5,483.5 237.5,488.5 237.5,493.5C 167.167,493.5 96.8333,493.5 26.5,493.5C 26.1712,480.323 26.5045,467.323 27.5,454.5 Z"/></g>
<g><path style="opacity:1" fill="#86494d" d="M 461.5,473.5 C 461.5,479.833 461.5,486.167 461.5,492.5C 463.099,492.232 464.432,492.566 465.5,493.5C 463.833,493.5 462.167,493.5 460.5,493.5C 460.176,486.646 460.509,479.979 461.5,473.5 Z"/></g>
</svg>
