<?xml version="1.0" encoding="UTF-8"?>
<!DOCTYPE svg PUBLIC "-//W3C//DTD SVG 1.1//EN" "http://www.w3.org/Graphics/SVG/1.1/DTD/svg11.dtd">
<svg xmlns="http://www.w3.org/2000/svg" version="1.1" width="512px" height="512px" style="shape-rendering:geometricPrecision; text-rendering:geometricPrecision; image-rendering:optimizeQuality; fill-rule:evenodd; clip-rule:evenodd" xmlns:xlink="http://www.w3.org/1999/xlink">
<g><path style="opacity:1" fill="#d69d97" d="M 212.5,36.5 C 188.51,37.3244 164.51,37.6577 140.5,37.5C 140.813,33.9581 140.479,30.6248 139.5,27.5C 146.078,18.0257 155.078,14.5257 166.5,17C 183.22,20.5351 198.554,27.0351 212.5,36.5 Z"/></g>
<g><path style="opacity:1" fill="#cd504a" d="M 462.5,30.5 C 465.431,32.0908 468.098,34.0908 470.5,36.5C 469.171,76.2643 469.171,115.931 470.5,155.5C 470.169,213.803 470.169,272.137 470.5,330.5C 467.873,329.908 465.206,329.575 462.5,329.5C 462.833,247.332 462.499,165.332 461.5,83.5C 461.5,79.5 461.5,75.5 461.5,71.5C 462.496,58.0102 462.829,44.3435 462.5,30.5 Z"/></g>
<g><path style="opacity:1" fill="#dd5b53" d="M 462.5,30.5 C 462.829,44.3435 462.496,58.0102 461.5,71.5C 459.884,64.0379 455.717,58.3713 449,54.5C 440.227,61.0369 434.727,69.7036 432.5,80.5C 433.002,81.521 433.668,81.6877 434.5,81C 436.678,75.4475 440.344,71.2808 445.5,68.5C 447.601,68.6316 449.101,69.6316 450,71.5C 451.735,90.9886 445.902,107.655 432.5,121.5C 422.208,114.375 413.375,105.709 406,95.5C 409.393,65.2168 421.559,39.0502 442.5,17C 445.522,16.8363 448.189,17.8363 450.5,20C 454.693,23.3651 458.693,26.8651 462.5,30.5 Z"/></g>
<g><path style="opacity:1" fill="#ca4a43" d="M 470.5,36.5 C 477.496,42.6625 483.996,49.3291 490,56.5C 491.986,58.8056 493.153,61.4723 493.5,64.5C 491.243,78.2871 488.409,91.9538 485,105.5C 480.057,122.16 475.223,138.827 470.5,155.5C 469.171,115.931 469.171,76.2643 470.5,36.5 Z"/></g>
<g><path style="opacity:1" fill="#d0958f" d="M 212.5,36.5 C 218.747,40.0776 224.08,44.7442 228.5,50.5C 203.166,50.7992 177.833,51.1325 152.5,51.5C 146.028,49.0229 142.028,44.3562 140.5,37.5C 164.51,37.6577 188.51,37.3244 212.5,36.5 Z"/></g>
<g><path style="opacity:1" fill="#cd8e88" d="M 228.5,50.5 C 232.238,53.9103 235.238,57.9103 237.5,62.5C 214.157,62.3644 190.824,62.6977 167.5,63.5C 167.167,62.1667 166.833,60.8333 166.5,59.5C 165.883,57.7708 164.883,56.2708 163.5,55C 159.66,54.0414 155.993,52.8747 152.5,51.5C 177.833,51.1325 203.166,50.7992 228.5,50.5 Z"/></g>
<g><path style="opacity:1" fill="#9f5e5e" d="M 139.5,27.5 C 140.479,30.6248 140.813,33.9581 140.5,37.5C 142.028,44.3562 146.028,49.0229 152.5,51.5C 155.993,52.8747 159.66,54.0414 163.5,55C 164.883,56.2708 165.883,57.7708 166.5,59.5C 138.53,61.2446 110.53,62.5779 82.5,63.5C 82.5,64.8333 82.5,66.1667 82.5,67.5C 81.2395,64.1615 80.2395,60.6615 79.5,57C 83.9855,58.3143 88.6522,59.1477 93.5,59.5C 98.7607,59.4348 103.761,58.2681 108.5,56C 120.582,48.4189 130.915,38.9189 139.5,27.5 Z"/></g>
<g><path style="opacity:1" fill="#b52c2c" d="M 461.5,71.5 C 461.5,75.5 461.5,79.5 461.5,83.5C 460.337,95.4889 457.003,106.822 451.5,117.5C 449.917,119.663 448.584,121.996 447.5,124.5C 446.167,125.833 444.833,127.167 443.5,128.5C 439.664,126.416 435.997,124.083 432.5,121.5C 445.902,107.655 451.735,90.9886 450,71.5C 449.101,69.6316 447.601,68.6316 445.5,68.5C 440.344,71.2808 436.678,75.4475 434.5,81C 433.668,81.6877 433.002,81.521 432.5,80.5C 434.727,69.7036 440.227,61.0369 449,54.5C 455.717,58.3713 459.884,64.0379 461.5,71.5 Z"/></g>
<g><path style="opacity:1" fill="#9c5757" d="M 166.5,59.5 C 166.833,60.8333 167.167,62.1667 167.5,63.5C 168.926,70.7008 172.592,76.3675 178.5,80.5C 167.178,81.1358 155.844,81.4692 144.5,81.5C 144.813,78.7531 144.48,76.0865 143.5,73.5C 135.707,77.4658 128.04,81.6324 120.5,86C 104.831,90.5539 92.664,86.0539 84,72.5C 82.9914,70.9751 82.4914,69.3084 82.5,67.5C 82.5,66.1667 82.5,64.8333 82.5,63.5C 110.53,62.5779 138.53,61.2446 166.5,59.5 Z"/></g>
<g><path style="opacity:1" fill="#c78780" d="M 237.5,62.5 C 240.949,67.735 243.616,73.4017 245.5,79.5C 229.664,81.1337 213.83,82.8003 198,84.5C 191.086,84.9782 184.586,83.6448 178.5,80.5C 172.592,76.3675 168.926,70.7008 167.5,63.5C 190.824,62.6977 214.157,62.3644 237.5,62.5 Z"/></g>
<g><path style="opacity:1" fill="#965050" d="M 245.5,79.5 C 247.927,86.6323 249.594,93.9656 250.5,101.5C 235.834,102.574 221.168,103.574 206.5,104.5C 189.466,106.336 172.466,108.336 155.5,110.5C 151.797,110.907 148.13,111.574 144.5,112.5C 143.584,112.457 142.917,112.124 142.5,111.5C 143.093,101.492 143.76,91.4919 144.5,81.5C 155.844,81.4692 167.178,81.1358 178.5,80.5C 184.586,83.6448 191.086,84.9782 198,84.5C 213.83,82.8003 229.664,81.1337 245.5,79.5 Z"/></g>
<g><path style="opacity:1" fill="#d3504a" d="M 461.5,83.5 C 462.499,165.332 462.833,247.332 462.5,329.5C 459.167,329.5 455.833,329.5 452.5,329.5C 452.833,258.665 452.499,187.998 451.5,117.5C 457.003,106.822 460.337,95.4889 461.5,83.5 Z"/></g>
<g><path style="opacity:1" fill="#d69c98" d="M 279.5,99.5 C 296.547,99.1949 313.547,99.5282 330.5,100.5C 331.125,114.842 331.959,129.175 333,143.5C 334.011,144.337 335.178,144.67 336.5,144.5C 319.507,152.448 301.507,156.115 282.5,155.5C 281.323,136.843 280.323,118.176 279.5,99.5 Z"/></g>
<g><path style="opacity:1" fill="#d2968f" d="M 279.5,99.5 C 280.323,118.176 281.323,136.843 282.5,155.5C 274.458,155.736 266.458,155.403 258.5,154.5C 258.982,153.584 259.315,152.584 259.5,151.5C 258.085,135.528 256.918,119.528 256,103.5C 255.487,102.473 254.987,101.473 254.5,100.5C 262.918,100.802 271.252,100.469 279.5,99.5 Z"/></g>
<g><path style="opacity:1" fill="#daa2a1" d="M 330.5,100.5 C 347.631,100.366 364.631,101.7 381.5,104.5C 371.212,123.142 356.212,136.476 336.5,144.5C 335.178,144.67 334.011,144.337 333,143.5C 331.959,129.175 331.125,114.842 330.5,100.5 Z"/></g>
<g><path style="opacity:1" fill="#ca8a84" d="M 254.5,100.5 C 254.987,101.473 255.487,102.473 256,103.5C 256.918,119.528 258.085,135.528 259.5,151.5C 259.315,152.584 258.982,153.584 258.5,154.5C 253.781,154.112 249.114,153.445 244.5,152.5C 232.898,149.89 221.231,147.556 209.5,145.5C 208.368,131.855 207.368,118.188 206.5,104.5C 221.168,103.574 235.834,102.574 250.5,101.5C 251.833,101.167 253.167,100.833 254.5,100.5 Z"/></g>
<g><path style="opacity:1" fill="#c27e77" d="M 206.5,104.5 C 207.368,118.188 208.368,131.855 209.5,145.5C 200.851,144.797 192.185,144.464 183.5,144.5C 183.737,145.791 183.404,146.791 182.5,147.5C 182.5,146.5 182.5,145.5 182.5,144.5C 173.485,144.501 164.485,144.834 155.5,145.5C 155.011,135.825 154.344,126.159 153.5,116.5C 153.676,114.215 154.343,112.215 155.5,110.5C 172.466,108.336 189.466,106.336 206.5,104.5 Z"/></g>
<g><path style="opacity:1" fill="#b9716a" d="M 155.5,110.5 C 154.343,112.215 153.676,114.215 153.5,116.5C 154.344,126.159 155.011,135.825 155.5,145.5C 153.694,146.024 152.028,146.691 150.5,147.5C 149.85,147.196 149.183,146.863 148.5,146.5C 143.619,147.414 138.952,148.748 134.5,150.5C 125.604,152.974 116.604,154.974 107.5,156.5C 106.252,144.061 104.919,131.728 103.5,119.5C 116.31,116.338 129.31,113.671 142.5,111.5C 142.917,112.124 143.584,112.457 144.5,112.5C 148.13,111.574 151.797,110.907 155.5,110.5 Z"/></g>
<g><path style="opacity:1" fill="#d3564a" d="M 451.5,117.5 C 452.499,187.998 452.833,258.665 452.5,329.5C 451.167,329.5 449.833,329.5 448.5,329.5C 448.833,260.998 448.499,192.665 447.5,124.5C 448.584,121.996 449.917,119.663 451.5,117.5 Z"/></g>
<g><path style="opacity:1" fill="#b56963" d="M 103.5,119.5 C 104.919,131.728 106.252,144.061 107.5,156.5C 73.4148,161.367 45.4148,150.7 23.5,124.5C 23.8333,124.167 24.1667,123.833 24.5,123.5C 41.4182,126.982 58.4182,127.149 75.5,124C 84.8561,122.562 94.1895,121.062 103.5,119.5 Z"/></g>
<g><path style="opacity:1" fill="#d95750" d="M 447.5,124.5 C 448.499,192.665 448.833,260.998 448.5,329.5C 445.5,329.5 442.5,329.5 439.5,329.5C 439.091,273.458 437.425,217.458 434.5,161.5C 435.169,149.819 438.169,138.819 443.5,128.5C 444.833,127.167 446.167,125.833 447.5,124.5 Z"/></g>
<g><path style="opacity:1" fill="#7f8fa7" d="M 182.5,147.5 C 182.326,149.861 181.993,152.194 181.5,154.5C 181.5,155.167 181.167,155.5 180.5,155.5C 172.985,155.583 165.651,156.583 158.5,158.5C 158.167,158.5 157.833,158.5 157.5,158.5C 155.588,154.583 153.255,150.917 150.5,147.5C 152.028,146.691 153.694,146.024 155.5,145.5C 164.485,144.834 173.485,144.501 182.5,144.5C 182.5,145.5 182.5,146.5 182.5,147.5 Z"/></g>
<g><path style="opacity:1" fill="#d3716b" d="M 209.5,145.5 C 221.231,147.556 232.898,149.89 244.5,152.5C 245.015,154.894 245.681,157.228 246.5,159.5C 237.161,159.666 227.827,159.5 218.5,159C 206.26,156.651 193.927,155.151 181.5,154.5C 181.993,152.194 182.326,149.861 182.5,147.5C 183.404,146.791 183.737,145.791 183.5,144.5C 192.185,144.464 200.851,144.797 209.5,145.5 Z"/></g>
<g><path style="opacity:1" fill="#d3716c" d="M 150.5,147.5 C 153.255,150.917 155.588,154.583 157.5,158.5C 148.162,160.501 138.828,162.501 129.5,164.5C 130.038,159.425 131.705,154.759 134.5,150.5C 138.952,148.748 143.619,147.414 148.5,146.5C 149.183,146.863 149.85,147.196 150.5,147.5 Z"/></g>
<g><path style="opacity:1" fill="#c9d4db" d="M 180.5,155.5 C 179.626,161.081 177.292,165.914 173.5,170C 168.972,172.41 165.139,171.577 162,167.5C 160.729,164.516 159.562,161.516 158.5,158.5C 165.651,156.583 172.985,155.583 180.5,155.5 Z"/></g>
<g><path style="opacity:1" fill="#e6bcb3" d="M 181.5,154.5 C 193.927,155.151 206.26,156.651 218.5,159C 227.827,159.5 237.161,159.666 246.5,159.5C 247.5,166.169 248.5,172.836 249.5,179.5C 209.5,179.5 169.5,179.5 129.5,179.5C 128.656,175.901 128.323,172.234 128.5,168.5C 128.433,167.041 128.766,165.708 129.5,164.5C 138.828,162.501 148.162,160.501 157.5,158.5C 157.833,158.5 158.167,158.5 158.5,158.5C 159.562,161.516 160.729,164.516 162,167.5C 165.139,171.577 168.972,172.41 173.5,170C 177.292,165.914 179.626,161.081 180.5,155.5C 181.167,155.5 181.5,155.167 181.5,154.5 Z"/></g>
<g><path style="opacity:1" fill="#d5746e" d="M 236.5,165.5 C 241.989,165.504 243.822,168.171 242,173.5C 239.061,175.397 235.895,176.23 232.5,176C 228.98,173.763 228.647,171.096 231.5,168C 233.491,167.626 235.158,166.793 236.5,165.5 Z"/></g>
<g><path style="opacity:1" fill="#d4726c" d="M 205.5,167.5 C 210.118,166.924 214.285,167.924 218,170.5C 218.76,175.074 216.76,177.074 212,176.5C 204.937,176.945 202.771,173.945 205.5,167.5 Z"/></g>
<g><path style="opacity:1" fill="#a16363" d="M 128.5,168.5 C 128.323,172.234 128.656,175.901 129.5,179.5C 129.833,180.167 130.167,180.833 130.5,181.5C 114.724,191.142 104.891,205.142 101,223.5C 100.317,230.861 100.483,238.195 101.5,245.5C 100.596,244.791 100.263,243.791 100.5,242.5C 82.178,243.293 63.8447,243.627 45.5,243.5C 45.4223,230.234 49.2556,218.234 57,207.5C 67.6196,193.552 81.1196,183.385 97.5,177C 107.542,173.073 117.876,170.24 128.5,168.5 Z"/></g>
<g><path style="opacity:1" fill="#e6b3ab" d="M 129.5,179.5 C 169.5,179.5 209.5,179.5 249.5,179.5C 250.053,184.482 250.387,189.482 250.5,194.5C 244.158,194.334 237.825,194.5 231.5,195C 227.259,195.787 223.592,197.621 220.5,200.5C 199.006,199.503 177.34,199.169 155.5,199.5C 153.354,197.225 151.688,194.558 150.5,191.5C 149.817,191.863 149.15,192.196 148.5,192.5C 144.097,192.013 139.764,190.846 135.5,189C 132.8,187.143 131.134,184.643 130.5,181.5C 130.167,180.833 129.833,180.167 129.5,179.5 Z"/></g>
<g><path style="opacity:1" fill="#39384b" d="M 130.5,181.5 C 131.134,184.643 132.8,187.143 135.5,189C 139.764,190.846 144.097,192.013 148.5,192.5C 138.021,203.274 134.687,215.94 138.5,230.5C 138.557,231.609 138.89,232.609 139.5,233.5C 143.117,243.886 149.117,252.719 157.5,260C 159.695,261.373 162.029,261.706 164.5,261C 167.645,259.022 170.312,256.522 172.5,253.5C 173.107,253.624 173.44,253.957 173.5,254.5C 177.751,262.405 182.751,269.738 188.5,276.5C 201.137,291.802 216.804,302.802 235.5,309.5C 240.585,307.936 244.751,304.936 248,300.5C 253.559,292.714 258.059,284.381 261.5,275.5C 263.595,267.596 265.262,259.596 266.5,251.5C 266.205,249.265 266.539,247.265 267.5,245.5C 269.564,256.404 270.897,267.404 271.5,278.5C 272.859,304.237 270.526,329.57 264.5,354.5C 260.987,369.066 257.987,383.732 255.5,398.5C 255.167,398.5 254.833,398.5 254.5,398.5C 246.068,365.263 228.401,338.263 201.5,317.5C 183.906,304.112 164.239,294.612 142.5,289C 136.519,286.629 130.852,283.795 125.5,280.5C 120.859,276.195 116.193,271.861 111.5,267.5C 106.553,260.936 103.219,253.602 101.5,245.5C 100.483,238.195 100.317,230.861 101,223.5C 104.891,205.142 114.724,191.142 130.5,181.5 Z"/></g>
<g><path style="opacity:1" fill="#d5e1e6" d="M 155.5,199.5 C 167.93,219.805 184.93,224.638 206.5,214C 212.33,210.669 216.997,206.169 220.5,200.5C 223.592,197.621 227.259,195.787 231.5,195C 237.825,194.5 244.158,194.334 250.5,194.5C 255.208,194.943 258.708,197.276 261,201.5C 265.04,208.991 267.206,216.991 267.5,225.5C 266.833,225.5 266.5,225.833 266.5,226.5C 227.166,226.843 187.832,227.343 148.5,228C 144.689,227.917 141.355,228.75 138.5,230.5C 134.687,215.94 138.021,203.274 148.5,192.5C 149.15,192.196 149.817,191.863 150.5,191.5C 151.688,194.558 153.354,197.225 155.5,199.5 Z"/></g>
<g><path style="opacity:1" fill="#e6aba0" d="M 155.5,199.5 C 177.34,199.169 199.006,199.503 220.5,200.5C 216.997,206.169 212.33,210.669 206.5,214C 184.93,224.638 167.93,219.805 155.5,199.5 Z"/></g>
<g><path style="opacity:1" fill="#cfe0e0" d="M 266.5,226.5 C 266.5,228.167 266.5,229.833 266.5,231.5C 224.187,232.647 181.854,233.313 139.5,233.5C 138.89,232.609 138.557,231.609 138.5,230.5C 141.355,228.75 144.689,227.917 148.5,228C 187.832,227.343 227.166,226.843 266.5,226.5 Z"/></g>
<g><path style="opacity:1" fill="#ccd9e0" d="M 267.5,225.5 C 267.5,232.167 267.5,238.833 267.5,245.5C 266.539,247.265 266.205,249.265 266.5,251.5C 260.909,252.787 255.075,253.454 249,253.5C 223.84,254.313 198.673,254.647 173.5,254.5C 173.44,253.957 173.107,253.624 172.5,253.5C 170.312,256.522 167.645,259.022 164.5,261C 162.029,261.706 159.695,261.373 157.5,260C 149.117,252.719 143.117,243.886 139.5,233.5C 181.854,233.313 224.187,232.647 266.5,231.5C 266.5,229.833 266.5,228.167 266.5,226.5C 266.5,225.833 266.833,225.5 267.5,225.5 Z"/></g>
<g><path style="opacity:1" fill="#a05d5d" d="M 267.5,225.5 C 282.023,240.211 291.023,257.877 294.5,278.5C 286.833,278.5 279.167,278.5 271.5,278.5C 270.897,267.404 269.564,256.404 267.5,245.5C 267.5,238.833 267.5,232.167 267.5,225.5 Z"/></g>
<g><path style="opacity:1" fill="#a15c5c" d="M 101.5,245.5 C 103.219,253.602 106.553,260.936 111.5,267.5C 110.048,268.302 108.382,268.802 106.5,269C 88.5031,269.5 70.5031,269.667 52.5,269.5C 47.397,261.685 45.0637,253.018 45.5,243.5C 63.8447,243.627 82.178,243.293 100.5,242.5C 100.263,243.791 100.596,244.791 101.5,245.5 Z"/></g>
<g><path style="opacity:1" fill="#c7d3da" d="M 266.5,251.5 C 265.262,259.596 263.595,267.596 261.5,275.5C 237.157,275.339 212.824,275.673 188.5,276.5C 182.751,269.738 177.751,262.405 173.5,254.5C 198.673,254.647 223.84,254.313 249,253.5C 255.075,253.454 260.909,252.787 266.5,251.5 Z"/></g>
<g><path style="opacity:1" fill="#9b5c5c" d="M 111.5,267.5 C 116.193,271.861 120.859,276.195 125.5,280.5C 104.158,280.428 82.8251,280.761 61.5,281.5C 59.1394,279.806 57.1394,277.806 55.5,275.5C 53.9752,273.784 52.9752,271.784 52.5,269.5C 70.5031,269.667 88.5031,269.5 106.5,269C 108.382,268.802 110.048,268.302 111.5,267.5 Z"/></g>
<g><path style="opacity:1" fill="#9b5757" d="M 125.5,280.5 C 130.852,283.795 136.519,286.629 142.5,289C 164.239,294.612 183.906,304.112 201.5,317.5C 184.658,317.17 167.992,317.503 151.5,318.5C 134.342,311.965 116.675,307.132 98.5,304C 83.867,300.029 71.5337,292.529 61.5,281.5C 82.8251,280.761 104.158,280.428 125.5,280.5 Z"/></g>
<g><path style="opacity:1" fill="#becbd4" d="M 261.5,275.5 C 258.059,284.381 253.559,292.714 248,300.5C 244.751,304.936 240.585,307.936 235.5,309.5C 216.804,302.802 201.137,291.802 188.5,276.5C 212.824,275.673 237.157,275.339 261.5,275.5 Z"/></g>
<g><path style="opacity:1" fill="#d9a19c" d="M 55.5,275.5 C 57.1394,277.806 59.1394,279.806 61.5,281.5C 71.5337,292.529 83.867,300.029 98.5,304C 116.675,307.132 134.342,311.965 151.5,318.5C 156.216,320.281 160.549,322.614 164.5,325.5C 124.504,326.225 84.5042,326.559 44.5,326.5C 48.8043,309.646 52.471,292.646 55.5,275.5 Z"/></g>
<g><path style="opacity:1" fill="#975253" d="M 271.5,278.5 C 279.167,278.5 286.833,278.5 294.5,278.5C 294.948,285.208 295.614,291.874 296.5,298.5C 295.899,317.502 293.899,336.502 290.5,355.5C 290.167,355.5 289.833,355.5 289.5,355.5C 281.35,354.507 273.017,354.174 264.5,354.5C 270.526,329.57 272.859,304.237 271.5,278.5 Z"/></g>
<g><path style="opacity:1" fill="#944f4f" d="M 151.5,318.5 C 167.992,317.503 184.658,317.17 201.5,317.5C 228.401,338.263 246.068,365.263 254.5,398.5C 247.492,398.334 240.492,398.5 233.5,399C 232.263,399.232 231.263,399.732 230.5,400.5C 227.412,392.575 223.745,384.909 219.5,377.5C 218.231,373.946 216.231,370.946 213.5,368.5C 210.926,363.591 207.592,359.258 203.5,355.5C 201.833,353.167 199.833,351.167 197.5,349.5C 188.186,339.186 177.186,331.186 164.5,325.5C 160.549,322.614 156.216,320.281 151.5,318.5 Z"/></g>
<g><path style="opacity:1" fill="#a15e5e" d="M 330.5,324.5 C 338.86,327.756 347.526,329.756 356.5,330.5C 355.697,334.239 354.697,337.905 353.5,341.5C 345.167,341.5 336.833,341.5 328.5,341.5C 328.5,338.833 328.5,336.167 328.5,333.5C 328.068,330.123 328.735,327.123 330.5,324.5 Z"/></g>
<g><path style="opacity:1" fill="#d49b96" d="M 164.5,325.5 C 177.186,331.186 188.186,339.186 197.5,349.5C 144.004,350.718 90.3372,351.385 36.5,351.5C 38.7962,342.948 41.4628,334.615 44.5,326.5C 84.5042,326.559 124.504,326.225 164.5,325.5 Z"/></g>
<g><path style="opacity:1" fill="#d59c97" d="M 296.5,298.5 C 305.815,309.816 317.148,318.483 330.5,324.5C 328.735,327.123 328.068,330.123 328.5,333.5C 327.508,340.648 327.175,347.981 327.5,355.5C 315.167,355.5 302.833,355.5 290.5,355.5C 293.899,336.502 295.899,317.502 296.5,298.5 Z"/></g>
<g><path style="opacity:1" fill="#d59c96" d="M 402.5,340.5 C 399.984,343.534 397.984,346.868 396.5,350.5C 382.006,349.93 367.339,349.93 352.5,350.5C 352.508,347.455 352.841,344.455 353.5,341.5C 354.697,337.905 355.697,334.239 356.5,330.5C 361.944,319.111 370.944,314.611 383.5,317C 394.378,321.055 400.711,328.888 402.5,340.5 Z"/></g>
<g><path style="opacity:1" fill="#e7bfb8" d="M 439.5,329.5 C 442.5,329.5 445.5,329.5 448.5,329.5C 449.833,329.5 451.167,329.5 452.5,329.5C 455.833,329.5 459.167,329.5 462.5,329.5C 465.206,329.575 467.873,329.908 470.5,330.5C 475.041,332.202 478.541,335.202 481,339.5C 482.391,346.746 482.891,354.079 482.5,361.5C 464.489,360.64 446.489,359.64 428.5,358.5C 428.5,364.5 428.5,370.5 428.5,376.5C 428.5,380.167 428.5,383.833 428.5,387.5C 423.5,387.5 418.5,387.5 413.5,387.5C 412.791,386.596 411.791,386.263 410.5,386.5C 410.5,371.167 410.5,355.833 410.5,340.5C 416.176,340.666 421.843,340.499 427.5,340C 429.312,333.937 433.312,330.437 439.5,329.5 Z"/></g>
<g><path style="opacity:1" fill="#e6b3ab" d="M 402.5,340.5 C 405.167,340.5 407.833,340.5 410.5,340.5C 410.5,355.833 410.5,371.167 410.5,386.5C 403.5,386.5 396.5,386.5 389.5,386.5C 389.5,384.5 389.5,382.5 389.5,380.5C 391.805,370.606 394.138,360.606 396.5,350.5C 397.984,346.868 399.984,343.534 402.5,340.5 Z"/></g>
<g><path style="opacity:1" fill="#d39695" d="M 197.5,349.5 C 199.833,351.167 201.833,353.167 203.5,355.5C 147.336,356.499 91.0025,356.832 34.5,356.5C 34.7959,354.597 35.4625,352.93 36.5,351.5C 90.3372,351.385 144.004,350.718 197.5,349.5 Z"/></g>
<g><path style="opacity:1" fill="#965151" d="M 328.5,341.5 C 336.833,341.5 345.167,341.5 353.5,341.5C 352.841,344.455 352.508,347.455 352.5,350.5C 349.789,359.841 348.456,369.508 348.5,379.5C 348.5,380.167 348.167,380.5 347.5,380.5C 342.944,378.558 337.944,377.892 332.5,378.5C 332.5,379.833 332.5,381.167 332.5,382.5C 331.833,379.833 331.167,377.167 330.5,374.5C 328.994,363.558 328.328,352.558 328.5,341.5 Z"/></g>
<g><path style="opacity:1" fill="#d29590" d="M 396.5,350.5 C 394.138,360.606 391.805,370.606 389.5,380.5C 376.01,379.504 362.344,379.171 348.5,379.5C 348.456,369.508 349.789,359.841 352.5,350.5C 367.339,349.93 382.006,349.93 396.5,350.5 Z"/></g>
<g><path style="opacity:1" fill="#d3958e" d="M 203.5,355.5 C 207.592,359.258 210.926,363.591 213.5,368.5C 152.429,368.171 91.4287,368.504 30.5,369.5C 31.4348,365.03 32.7681,360.697 34.5,356.5C 91.0025,356.832 147.336,356.499 203.5,355.5 Z"/></g>
<g><path style="opacity:1" fill="#e7b3ab" d="M 482.5,361.5 C 482.5,367.167 482.5,372.833 482.5,378.5C 464.503,377.767 446.503,377.1 428.5,376.5C 428.5,370.5 428.5,364.5 428.5,358.5C 446.489,359.64 464.489,360.64 482.5,361.5 Z"/></g>
<g><path style="opacity:1" fill="#cf958e" d="M 328.5,333.5 C 328.5,336.167 328.5,338.833 328.5,341.5C 328.328,352.558 328.994,363.558 330.5,374.5C 330.5,376.167 330.5,377.833 330.5,379.5C 315.167,379.5 299.833,379.5 284.5,379.5C 286.586,371.578 288.253,363.578 289.5,355.5C 289.833,355.5 290.167,355.5 290.5,355.5C 302.833,355.5 315.167,355.5 327.5,355.5C 327.175,347.981 327.508,340.648 328.5,333.5 Z"/></g>
<g><path style="opacity:1" fill="#cd958e" d="M 213.5,368.5 C 216.231,370.946 218.231,373.946 219.5,377.5C 189.85,379.327 159.85,380.161 129.5,380C 95.6642,380.831 61.9975,380.664 28.5,379.5C 28.8511,376.097 29.5178,372.763 30.5,369.5C 91.4287,368.504 152.429,368.171 213.5,368.5 Z"/></g>
<g><path style="opacity:1" fill="#904b4b" d="M 264.5,354.5 C 273.017,354.174 281.35,354.507 289.5,355.5C 288.253,363.578 286.586,371.578 284.5,379.5C 283.042,385.727 282.042,392.06 281.5,398.5C 272.833,398.5 264.167,398.5 255.5,398.5C 257.987,383.732 260.987,369.066 264.5,354.5 Z"/></g>
<g><path style="opacity:1" fill="#cd8e88" d="M 219.5,377.5 C 223.745,384.909 227.412,392.575 230.5,400.5C 230.5,401.5 230.5,402.5 230.5,403.5C 161.669,404.639 92.669,405.306 23.5,405.5C 24.1636,396.519 25.8303,387.853 28.5,379.5C 61.9975,380.664 95.6642,380.831 129.5,380C 159.85,380.161 189.85,379.327 219.5,377.5 Z"/></g>
<g><path style="opacity:1" fill="#e7a99e" d="M 428.5,376.5 C 446.503,377.1 464.503,377.767 482.5,378.5C 482,386.002 478.333,391.335 471.5,394.5C 460.872,395.43 450.205,395.763 439.5,395.5C 434.515,394.52 430.848,391.853 428.5,387.5C 428.5,383.833 428.5,380.167 428.5,376.5 Z"/></g>
<g><path style="opacity:1" fill="#38384b" d="M 389.5,386.5 C 396.5,386.5 403.5,386.5 410.5,386.5C 411.791,386.263 412.791,386.596 413.5,387.5C 417.068,423.019 418.402,458.685 417.5,494.5C 408.5,494.5 399.5,494.5 390.5,494.5C 389.831,480.802 388.831,467.136 387.5,453.5C 387.5,448.167 387.5,442.833 387.5,437.5C 387.115,420.301 387.781,403.301 389.5,386.5 Z"/></g>
<g><path style="opacity:1" fill="#89403f" d="M 347.5,380.5 C 346.926,388.823 346.426,397.156 346,405.5C 343.333,409.5 340.667,409.5 338,405.5C 335.718,397.921 333.885,390.254 332.5,382.5C 332.5,381.167 332.5,379.833 332.5,378.5C 337.944,377.892 342.944,378.558 347.5,380.5 Z"/></g>
<g><path style="opacity:1" fill="#d3534c" d="M 471.5,394.5 C 471.042,427.847 470.375,461.18 469.5,494.5C 459.5,494.5 449.5,494.5 439.5,494.5C 439.5,461.5 439.5,428.5 439.5,395.5C 450.205,395.763 460.872,395.43 471.5,394.5 Z"/></g>
<g><path style="opacity:1" fill="#8e4444" d="M 254.5,398.5 C 254.833,398.5 255.167,398.5 255.5,398.5C 264.167,398.5 272.833,398.5 281.5,398.5C 281.5,400.833 281.5,403.167 281.5,405.5C 280.517,409.298 280.183,413.298 280.5,417.5C 265.157,417.49 249.824,417.823 234.5,418.5C 233.479,413.322 232.146,408.322 230.5,403.5C 230.5,402.5 230.5,401.5 230.5,400.5C 231.263,399.732 232.263,399.232 233.5,399C 240.492,398.5 247.492,398.334 254.5,398.5 Z"/></g>
<g><path style="opacity:1" fill="#ca8a84" d="M 330.5,374.5 C 331.167,377.167 331.833,379.833 332.5,382.5C 333.885,390.254 335.718,397.921 338,405.5C 340.667,409.5 343.333,409.5 346,405.5C 346.426,397.156 346.926,388.823 347.5,380.5C 348.167,380.5 348.5,380.167 348.5,379.5C 362.344,379.171 376.01,379.504 389.5,380.5C 389.5,382.5 389.5,384.5 389.5,386.5C 387.781,403.301 387.115,420.301 387.5,437.5C 386.523,434.713 386.19,431.713 386.5,428.5C 351.505,429.233 316.505,429.567 281.5,429.5C 281.5,427.5 281.5,425.5 281.5,423.5C 281.5,417.5 281.5,411.5 281.5,405.5C 281.5,403.167 281.5,400.833 281.5,398.5C 282.042,392.06 283.042,385.727 284.5,379.5C 299.833,379.5 315.167,379.5 330.5,379.5C 330.5,377.833 330.5,376.167 330.5,374.5 Z"/></g>
<g><path style="opacity:1" fill="#c88882" d="M 230.5,403.5 C 232.146,408.322 233.479,413.322 234.5,418.5C 235.092,421.127 235.425,423.794 235.5,426.5C 235.5,427.5 235.5,428.5 235.5,429.5C 163.424,429.153 91.4238,429.82 19.5,431.5C 20.3549,422.632 21.6882,413.965 23.5,405.5C 92.669,405.306 161.669,404.639 230.5,403.5 Z"/></g>
<g><path style="opacity:1" fill="#894444" d="M 281.5,405.5 C 281.5,411.5 281.5,417.5 281.5,423.5C 280.515,427.634 280.182,431.968 280.5,436.5C 266.167,436.5 251.833,436.5 237.5,436.5C 237.5,435.833 237.167,435.5 236.5,435.5C 236.81,432.287 236.477,429.287 235.5,426.5C 235.425,423.794 235.092,421.127 234.5,418.5C 249.824,417.823 265.157,417.49 280.5,417.5C 280.183,413.298 280.517,409.298 281.5,405.5 Z"/></g>
<g><path style="opacity:1" fill="#c6827c" d="M 387.5,437.5 C 387.5,442.833 387.5,448.167 387.5,453.5C 352.167,453.858 316.834,454.191 281.5,454.5C 281.5,446.167 281.5,437.833 281.5,429.5C 316.505,429.567 351.505,429.233 386.5,428.5C 386.19,431.713 386.523,434.713 387.5,437.5 Z"/></g>
<g><path style="opacity:1" fill="#c7827c" d="M 235.5,426.5 C 236.477,429.287 236.81,432.287 236.5,435.5C 236.5,440.167 236.5,444.833 236.5,449.5C 163.762,449.83 91.0957,449.497 18.5,448.5C 18.7599,442.828 19.0932,437.161 19.5,431.5C 91.4238,429.82 163.424,429.153 235.5,429.5C 235.5,428.5 235.5,427.5 235.5,426.5 Z"/></g>
<g><path style="opacity:1" fill="#863c3c" d="M 281.5,423.5 C 281.5,425.5 281.5,427.5 281.5,429.5C 281.5,437.833 281.5,446.167 281.5,454.5C 281.5,467.833 281.5,481.167 281.5,494.5C 266.833,494.5 252.167,494.5 237.5,494.5C 237.5,475.167 237.5,455.833 237.5,436.5C 251.833,436.5 266.167,436.5 280.5,436.5C 280.182,431.968 280.515,427.634 281.5,423.5 Z"/></g>
<g><path style="opacity:1" fill="#c1837c" d="M 18.5,448.5 C 91.0957,449.497 163.762,449.83 236.5,449.5C 236.5,451.167 236.5,452.833 236.5,454.5C 163.497,454.369 90.4971,454.702 17.5,455.5C 18.2186,453.236 18.552,450.903 18.5,448.5 Z"/></g>
<g><path style="opacity:1" fill="#bf7b74" d="M 387.5,453.5 C 388.831,467.136 389.831,480.802 390.5,494.5C 354.167,494.5 317.833,494.5 281.5,494.5C 281.5,481.167 281.5,467.833 281.5,454.5C 316.834,454.191 352.167,453.858 387.5,453.5 Z"/></g>
<g><path style="opacity:1" fill="#c17d76" d="M 236.5,454.5 C 236.5,462.5 236.5,470.5 236.5,478.5C 163.503,479.287 90.5028,479.62 17.5,479.5C 17.5,471.5 17.5,463.5 17.5,455.5C 90.4971,454.702 163.497,454.369 236.5,454.5 Z"/></g>
<g><path style="opacity:1" fill="#c07d6f" d="M 236.5,478.5 C 236.5,480.167 236.5,481.833 236.5,483.5C 163.498,483.493 90.4981,483.827 17.5,484.5C 17.5,482.833 17.5,481.167 17.5,479.5C 90.5028,479.62 163.503,479.287 236.5,478.5 Z"/></g>
<g><path style="opacity:1" fill="#bc756f" d="M 236.5,435.5 C 237.167,435.5 237.5,435.833 237.5,436.5C 237.5,455.833 237.5,475.167 237.5,494.5C 164.167,494.5 90.8333,494.5 17.5,494.5C 17.5,491.167 17.5,487.833 17.5,484.5C 90.4981,483.827 163.498,483.493 236.5,483.5C 236.5,481.833 236.5,480.167 236.5,478.5C 236.5,470.5 236.5,462.5 236.5,454.5C 236.5,452.833 236.5,451.167 236.5,449.5C 236.5,444.833 236.5,440.167 236.5,435.5 Z"/></g>
</svg>
