<?xml version="1.0" encoding="UTF-8"?>
<!DOCTYPE svg PUBLIC "-//W3C//DTD SVG 1.1//EN" "http://www.w3.org/Graphics/SVG/1.1/DTD/svg11.dtd">
<svg xmlns="http://www.w3.org/2000/svg" version="1.1" width="512px" height="512px" style="shape-rendering:geometricPrecision; text-rendering:geometricPrecision; image-rendering:optimizeQuality; fill-rule:evenodd; clip-rule:evenodd" xmlns:xlink="http://www.w3.org/1999/xlink">
<g><path style="opacity:1" fill="#000000" d="M 154.5,16.5 C 185.137,17.5696 211.303,28.9029 233,50.5C 245.085,64.2397 252.252,80.2397 254.5,98.5C 296.593,96.4613 338.593,97.628 380.5,102C 383.29,104.21 384.123,107.044 383,110.5C 368.833,134.988 347.999,150.822 320.5,158C 299.003,162.935 277.336,164.102 255.5,161.5C 254.167,161.833 252.833,162.167 251.5,162.5C 253.411,172.116 255.077,181.782 256.5,191.5C 262.322,195.447 266.489,200.78 269,207.5C 270.637,212.714 271.637,218.047 272,223.5C 284.774,236.711 293.108,252.378 297,270.5C 298.625,279.122 299.958,287.788 301,296.5C 313.984,311.078 330.15,320.078 349.5,323.5C 353.655,319.192 358.321,315.358 363.5,312C 383.183,306.397 396.516,313.23 403.5,332.5C 409.137,333.663 414.804,333.83 420.5,333C 423,329.167 426.167,326 430,323.5C 430.003,269.945 428.503,216.445 425.5,163C 426.26,152.959 428.594,143.292 432.5,134C 425.52,128.358 418.52,122.691 411.5,117C 405.331,111.171 400.331,104.504 396.5,97C 401.627,66.0796 414.96,39.413 436.5,17C 439.634,16.2099 442.634,16.5432 445.5,18C 463.214,30.0449 478.714,44.5449 492,61.5C 493.022,63.7017 493.522,66.0351 493.5,68.5C 492.55,75.5325 491.383,82.5325 490,89.5C 484.479,112.73 478.145,135.73 471,158.5C 470.643,214.169 470.976,269.836 472,325.5C 476.532,328.889 479.865,333.223 482,338.5C 483.567,351.452 483.9,364.452 483,377.5C 482.035,384.769 478.535,390.436 472.5,394.5C 471.818,427.173 470.985,459.839 470,492.5C 466.667,495.167 463.333,495.167 460,492.5C 460.027,461.17 460.194,429.837 460.5,398.5C 454.5,398.5 448.5,398.5 442.5,398.5C 442.667,429.168 442.5,459.835 442,490.5C 439.947,494.292 436.781,495.458 432.5,494C 431.874,493.25 431.374,492.416 431,491.5C 430.833,459.828 430.333,428.161 429.5,396.5C 426.568,395.2 424.234,393.2 422.5,390.5C 420.604,389.534 418.604,389.201 416.5,389.5C 419.559,423.819 420.059,458.153 418,492.5C 415.503,494.478 412.669,494.978 409.5,494C 408.874,493.25 408.374,492.416 408,491.5C 409.034,458.12 408.034,424.787 405,391.5C 400.822,389.601 396.322,388.935 391.5,389.5C 389.793,422.212 390.46,454.878 393.5,487.5C 393.813,494.006 390.813,496.172 384.5,494C 382.926,492.174 382.093,490.007 382,487.5C 377.68,449.817 377.68,412.15 382,374.5C 383.488,361.544 386.988,349.21 392.5,337.5C 388.89,324.365 380.557,319.532 367.5,323C 363.961,324.907 361.461,327.74 360,331.5C 357.435,340.356 355.602,349.356 354.5,358.5C 347.216,362.179 343.883,359.845 344.5,351.5C 344.786,346.615 345.453,341.782 346.5,337C 346.167,336.167 345.833,335.333 345.5,334.5C 328.557,331.278 313.724,323.945 301,312.5C 299.787,323.179 298.453,333.845 297,344.5C 293.189,360.743 289.856,377.076 287,393.5C 286.667,426.5 286.333,459.5 286,492.5C 282.596,496.224 279.263,496.224 276,492.5C 275.333,458.167 275.333,423.833 276,389.5C 279.824,371.204 283.49,352.871 287,334.5C 290.874,311.279 289.874,288.279 284,265.5C 281.476,257.248 277.809,249.581 273,242.5C 275.337,259.714 276.837,277.047 277.5,294.5C 277.062,308.231 275.896,321.898 274,335.5C 269.197,355.377 265.03,375.377 261.5,395.5C 263.513,406.09 265.013,416.757 266,427.5C 266.667,448.833 266.667,470.167 266,491.5C 263.056,495.977 259.723,496.311 256,492.5C 255.667,473.5 255.333,454.5 255,435.5C 253.655,389.653 235.822,351.82 201.5,322C 191.154,313.821 179.821,307.154 167.5,302C 154.933,297.923 142.6,293.256 130.5,288C 102.541,270.898 92.7074,246.398 101,214.5C 105.465,200.203 113.798,188.869 126,180.5C 126.563,179.275 126.23,178.275 125,177.5C 101.764,182.442 82.4304,193.775 67,211.5C 49.4798,238.891 52.9798,263.391 77.5,285C 86.0513,290.941 95.3847,295.275 105.5,298C 138.109,302.314 167.442,314.314 193.5,334C 218.047,353.928 233.214,379.428 239,410.5C 236.533,414.994 233.2,415.66 229,412.5C 216.988,367.483 189.154,336.65 145.5,320C 127.167,315 108.833,310 90.5,305C 80.6247,301.115 71.7914,295.615 64,288.5C 57.9572,315.962 50.2905,342.962 41,369.5C 31.5463,409.939 27.213,450.939 28,492.5C 24.6667,495.167 21.3333,495.167 18,492.5C 15.6674,448.491 20.0008,405.157 31,362.5C 40.9369,334.586 48.7702,306.086 54.5,277C 37.3406,243.635 43.0072,214.635 71.5,190C 87.8331,177.503 106.166,169.337 126.5,165.5C 127.309,163.929 127.643,162.262 127.5,160.5C 87.2391,171.566 53.0725,161.899 25,131.5C 22.0489,125.994 23.5489,122.661 29.5,121.5C 44.7998,123.998 60.1331,124.165 75.5,122C 97.1871,118.229 118.854,114.396 140.5,110.5C 140.649,102.145 140.816,93.8121 141,85.5C 131.217,93.4277 120.05,96.9277 107.5,96C 87.6832,90.8855 78.1832,78.0522 79,57.5C 83.1532,54.892 87.3199,55.0586 91.5,58C 99.4646,59.1758 106.798,57.5091 113.5,53C 115.833,51.3333 118.167,49.6667 120.5,48C 129.298,39.3803 137.632,30.3803 145.5,21C 148.592,19.4541 151.592,17.9541 154.5,16.5 Z M 157.5,27.5 C 184.953,30.1435 208.12,41.4768 227,61.5C 235.691,72.7264 241.191,85.3931 243.5,99.5C 236.062,99.7503 228.728,100.584 221.5,102C 219.14,107.263 220.64,110.763 226,112.5C 250.717,110.121 275.551,109.121 300.5,109.5C 322.879,109.225 345.212,110.059 367.5,112C 367.833,112.333 368.167,112.667 368.5,113C 349.669,135.918 325.336,148.585 295.5,151C 284.833,151.667 274.167,151.667 263.5,151C 247.397,148.974 231.397,146.308 215.5,143C 195.168,139.667 174.835,139.667 154.5,143C 137.524,146.494 120.524,149.828 103.5,153C 81.3613,154.841 61.6946,148.841 44.5,135C 56.1953,134.768 67.862,134.102 79.5,133C 110.442,127.065 141.442,121.565 172.5,116.5C 175.368,113.005 175.035,109.838 171.5,107C 164.804,106.884 158.138,107.384 151.5,108.5C 152.764,93.1863 153.264,77.853 153,62.5C 151.923,57.8848 149.09,56.3848 144.5,58C 143.692,58.3076 143.025,58.8076 142.5,59.5C 142.255,63.8197 141.922,68.153 141.5,72.5C 134.845,75.4925 128.512,78.9925 122.5,83C 108.401,87.6338 98.0672,83.3005 91.5,70C 101.506,70.7839 110.839,68.4506 119.5,63C 131,55.5 140.5,46 148,34.5C 150.79,31.535 153.957,29.2016 157.5,27.5 Z M 440.5,29.5 C 449.244,35.4033 457.577,41.9033 465.5,49C 471.353,55.3521 477.02,61.8521 482.5,68.5C 477.477,96.0686 470.311,123.069 461,149.5C 460.042,154.123 459.375,158.79 459,163.5C 459.282,216.495 459.782,269.495 460.5,322.5C 454.167,322.5 447.833,322.5 441.5,322.5C 440.811,266.481 439.644,210.481 438,154.5C 440.118,144.603 444.118,135.603 450,127.5C 459.509,111.798 463.842,94.7977 463,76.5C 462.743,72.6233 461.743,68.9567 460,65.5C 456.535,61.0332 452.702,56.8666 448.5,53C 445.697,52.245 443.03,52.5783 440.5,54C 430.669,63.8272 424.669,75.6606 422.5,89.5C 424.564,94.4007 428.064,95.7341 433,93.5C 435.064,83.3001 439.064,73.9667 445,65.5C 447.756,68.0177 449.756,71.0177 451,74.5C 452.591,91.6353 448.758,107.469 439.5,122C 426.845,116.034 416.511,107.034 408.5,95C 413.474,70.2217 424.141,48.3884 440.5,29.5 Z M 167.5,152.5 C 171.182,152.335 174.848,152.501 178.5,153C 176.936,157.19 175.269,161.356 173.5,165.5C 171.833,168.167 170.167,168.167 168.5,165.5C 167.153,161.304 165.153,157.471 162.5,154C 164.382,153.802 166.048,153.302 167.5,152.5 Z M 189.5,152.5 C 206.068,152.843 222.402,155.01 238.5,159C 239.26,160.441 239.926,161.941 240.5,163.5C 237.695,165.263 234.862,166.93 232,168.5C 230.978,176.758 234.478,179.425 242.5,176.5C 243.021,180.861 243.688,185.194 244.5,189.5C 236.038,189.503 228.038,191.336 220.5,195C 216.167,199.333 211.833,203.667 207.5,208C 192.339,217.935 178.506,216.435 166,203.5C 162.5,198 159,192.5 155.5,187C 140.224,189.365 134.391,182.865 138,167.5C 138.774,163.951 140.107,160.618 142,157.5C 145.792,154.646 149.125,154.979 152,158.5C 154.861,162.888 157.194,167.554 159,172.5C 167,180.5 175,180.5 183,172.5C 186.474,166.245 188.641,159.578 189.5,152.5 Z M 129.5,191.5 C 132.781,194.148 136.448,196.314 140.5,198C 130.789,216.418 131.956,234.251 144,251.5C 148.875,258.042 154.708,263.542 161.5,268C 165.88,268.066 169.713,266.566 173,263.5C 187.197,285.691 206.363,302.191 230.5,313C 233.738,314.368 237.072,314.701 240.5,314C 251.669,305.526 259.835,294.693 265,281.5C 267.141,312.709 263.141,343.042 253,372.5C 236.918,335.418 210.418,308.585 173.5,292C 161.822,287.663 150.156,283.33 138.5,279C 109.942,262.324 102.442,238.824 116,208.5C 119.572,202.095 124.072,196.428 129.5,191.5 Z M 233.5,201.5 C 239.509,201.334 245.509,201.501 251.5,202C 256.043,206.585 258.876,212.085 260,218.5C 262.884,238.996 260.884,258.996 254,278.5C 250.23,288.257 244.23,296.257 236,302.5C 210.021,291.521 190.854,273.354 178.5,248C 176.167,247.333 173.833,247.333 171.5,248C 169.506,250.827 167.172,253.327 164.5,255.5C 148.931,244.295 143.098,229.295 147,210.5C 147.806,207.554 149.139,204.888 151,202.5C 165.604,225.779 185.438,231.612 210.5,220C 216.79,216.044 222.124,211.044 226.5,205C 228.925,203.787 231.259,202.621 233.5,201.5 Z M 436.5,333.5 C 445.173,333.334 453.84,333.5 462.5,334C 465.562,335.061 468.062,336.894 470,339.5C 471.628,352.405 471.961,365.405 471,378.5C 469.833,382.333 467.333,384.833 463.5,386C 453.833,386.667 444.167,386.667 434.5,386C 433.333,384.833 432.167,383.667 431,382.5C 430.333,367.833 430.333,353.167 431,338.5C 432.107,335.887 433.94,334.22 436.5,333.5 Z M 401.5,344.5 C 407.167,344.5 412.833,344.5 418.5,344.5C 418.5,355.833 418.5,367.167 418.5,378.5C 409.827,378.666 401.16,378.5 392.5,378C 394.326,366.53 397.326,355.363 401.5,344.5 Z"/></g>
<g><path style="opacity:1" fill="#000000" d="M 205.5,166.5 C 209.915,166.305 214.249,166.805 218.5,168C 220.478,170.497 220.978,173.331 220,176.5C 218.701,177.98 217.034,178.646 215,178.5C 211.364,178.173 207.864,177.34 204.5,176C 203.01,172.603 203.344,169.436 205.5,166.5 Z"/></g>
<g><path style="opacity:1" fill="#000000" d="M 234.5,423.5 C 242.121,423.946 244.621,427.946 242,435.5C 239.503,437.478 236.669,437.978 233.5,437C 230.592,432.134 230.925,427.634 234.5,423.5 Z"/></g>
</svg>
