<?xml version="1.0" standalone="no"?>
<!DOCTYPE svg PUBLIC "-//W3C//DTD SVG 20010904//EN"
 "http://www.w3.org/TR/2001/REC-SVG-20010904/DTD/svg10.dtd">
<svg version="1.0" xmlns="http://www.w3.org/2000/svg"
 width="1080.000000pt" height="790.000000pt" viewBox="0 0 1080.000000 790.000000"
 preserveAspectRatio="xMidYMid meet">

<g transform="translate(0.000000,790.000000) scale(0.100000,-0.100000)"
fill="#000000" stroke="none">
<path d="M5442 6999 c-81 -40 -174 -126 -206 -190 -14 -28 -31 -84 -37 -124
-14 -82 -8 -77 -154 -133 -136 -53 -201 -63 -395 -62 -96 1 -182 1 -191 1 -12
-1 -18 -14 -22 -46 -12 -87 -73 -167 -213 -280 -140 -113 -349 -189 -511 -187
-40 1 -73 -3 -73 -8 0 -5 21 -21 48 -34 26 -13 73 -49 105 -80 38 -37 69 -57
92 -62 19 -3 35 -9 35 -12 0 -4 -14 -34 -32 -67 -35 -68 -33 -95 6 -95 27 0
123 -35 144 -52 30 -25 -9 -28 -119 -10 -79 13 -133 29 -175 50 -68 34 -179
140 -221 210 -15 25 -32 42 -40 40 -24 -5 -63 -143 -63 -224 0 -78 15 -138 66
-261 63 -154 119 -227 262 -345 39 -32 72 -62 72 -66 0 -7 -86 -22 -211 -39
l-35 -5 -14 -111 c-7 -62 -14 -137 -14 -167 -1 -53 0 -56 31 -70 39 -18 41
-35 7 -81 -14 -19 -29 -41 -34 -49 -13 -22 -18 -11 -30 64 -8 50 -20 81 -43
113 -46 65 -72 75 -201 78 -119 3 -237 29 -312 68 -104 55 -122 68 -133 94
-15 39 -61 221 -61 246 0 19 -4 20 -75 14 -84 -7 -107 -16 -141 -56 l-23 -26
-1 -477 c0 -293 -4 -487 -10 -503 -6 -14 -14 -196 -20 -403 -5 -207 -15 -445
-21 -529 l-11 -152 26 -57 c48 -106 151 -203 215 -205 15 0 51 -8 81 -18 l55
-18 9 -54 8 -54 -76 -70 c-78 -73 -110 -125 -95 -160 4 -11 8 -148 8 -305 1
-207 5 -297 15 -330 l13 -45 62 -3 c70 -3 248 28 337 59 32 11 119 51 193 89
75 37 153 75 173 83 20 9 42 26 49 39 25 46 31 496 9 618 -7 36 -13 79 -14 95
-1 29 0 30 49 33 110 7 125 0 192 -91 34 -45 95 -115 137 -156 42 -40 76 -75
76 -78 0 -2 12 -21 28 -40 35 -47 37 -99 23 -493 -11 -308 -18 -387 -52 -559
-22 -110 -17 -151 16 -151 9 0 31 -11 48 -24 18 -13 66 -41 107 -61 92 -46
178 -56 323 -38 118 15 167 35 231 98 l48 47 -5 86 c-3 48 -10 137 -16 197
-32 359 -42 503 -37 531 4 17 9 74 12 125 3 52 6 95 7 96 2 2 217 -39 297 -57
25 -5 87 -12 138 -16 l92 -7 0 -46 c1 -230 -2 -461 -7 -532 -3 -48 -3 -99 1
-113 15 -62 160 -116 311 -116 95 0 198 21 225 45 9 8 24 15 32 15 9 0 30 17
48 37 32 36 33 38 26 112 -3 41 -11 78 -17 82 -15 9 -2 501 13 510 6 4 45 10
87 14 115 10 311 41 406 64 22 6 42 8 45 5 7 -8 5 -181 -4 -354 -4 -80 -8
-272 -9 -426 -2 -259 -1 -283 16 -302 10 -11 61 -34 114 -52 81 -26 117 -32
222 -37 124 -5 127 -5 209 27 94 36 139 69 159 117 12 29 11 46 -1 121 -8 48
-20 147 -26 221 -6 74 -13 138 -16 142 -2 4 -6 36 -9 71 -2 34 -9 95 -14 133
-6 39 -11 151 -11 251 l0 180 71 70 c81 78 179 196 236 283 36 55 40 59 88 65
28 3 71 6 98 6 44 0 47 -2 43 -22 -11 -53 -16 -189 -17 -439 -1 -234 1 -270
16 -293 20 -30 207 -131 345 -186 126 -50 293 -82 396 -76 123 7 115 -20 112
407 -3 410 6 370 -109 445 -37 24 -69 51 -73 60 -7 19 13 96 29 106 5 4 19 8
29 8 10 0 51 9 89 21 62 18 80 30 140 88 68 65 123 154 112 183 -3 7 -7 110
-9 228 -11 497 -25 846 -36 878 -7 18 -9 43 -6 56 3 14 9 217 12 453 l6 428
-33 44 c-36 48 -51 54 -146 65 l-61 7 -16 -32 c-9 -18 -16 -38 -16 -46 0 -24
-91 -227 -113 -251 -55 -59 -214 -104 -390 -108 -107 -2 -122 -5 -157 -28 -43
-28 -76 -89 -85 -156 -11 -75 -13 -76 -50 -29 -19 24 -35 50 -35 56 0 7 13 19
29 28 37 19 45 44 31 93 -11 35 -10 205 1 242 4 15 -18 21 -156 39 -38 6 -85
15 -104 22 l-34 12 29 21 c55 39 202 175 234 216 54 68 126 259 140 371 18
142 -9 279 -56 279 -7 0 -31 -26 -53 -57 -92 -136 -206 -210 -366 -239 -80
-15 -155 -18 -155 -6 0 12 87 52 115 52 13 0 27 5 30 10 4 6 15 8 25 5 10 -3
21 -1 25 5 8 13 -14 100 -24 100 -4 0 -14 13 -24 29 -17 29 -17 30 5 36 50 16
243 152 240 170 -1 6 -46 13 -99 16 -100 7 -205 29 -258 57 -78 39 -212 142
-279 213 -79 84 -116 146 -116 196 0 17 -6 35 -12 41 -8 6 -107 12 -238 14
l-225 5 -126 40 c-69 22 -135 45 -146 51 -16 9 -22 29 -33 114 -14 116 -30
148 -95 205 -69 61 -158 100 -245 108 -71 6 -79 4 -138 -26z m78 -66 c0 -10
-30 -37 -98 -89 -113 -87 -126 -109 -128 -215 -2 -66 1 -91 12 -100 9 -7 12
-20 9 -33 -5 -17 -4 -18 4 -6 9 13 12 13 28 -2 9 -10 14 -20 11 -24 -11 -10
-63 12 -60 25 1 7 -2 10 -7 6 -6 -3 -21 11 -34 32 -29 47 -39 73 -28 73 5 0
12 -10 15 -22 3 -13 15 -34 26 -48 18 -24 19 -24 14 -3 -4 12 -12 27 -20 33
-7 7 -18 36 -25 65 -13 59 -2 126 29 173 23 36 142 131 156 126 6 -2 20 2 30
9 16 12 66 12 66 0z m-180 -191 c0 -5 -7 -17 -15 -28 -14 -18 -14 -17 -4 9 12
27 19 34 19 19z m-127 -162 c6 -23 -2 -29 -99 -65 -176 -66 -256 -81 -475 -88
-58 -2 -111 -7 -117 -11 -7 -4 -12 -17 -12 -29 -1 -22 -20 -66 -55 -123 -18
-29 -86 -81 -252 -191 -35 -24 -67 -43 -72 -43 -5 0 -14 -7 -21 -15 -16 -20
-137 -55 -186 -54 -44 0 -51 -4 79 45 37 14 91 42 120 62 29 19 45 27 37 17
-14 -17 -14 -18 10 -5 74 39 186 134 237 202 42 55 66 114 65 158 l-1 25 197
0 c175 0 205 3 272 22 99 30 244 89 248 103 6 17 19 11 25 -10z m102 -170 c-2
-4 -33 -13 -67 -20 -154 -32 -656 -258 -849 -383 -30 -19 -84 -54 -121 -77
-38 -24 -68 -47 -68 -51 0 -5 -6 -9 -14 -9 -8 0 -21 -6 -28 -13 -7 -7 -40 -35
-72 -62 -33 -28 -79 -70 -104 -95 l-44 -45 22 40 c13 22 39 57 59 78 19 20 31
37 26 37 -14 0 63 77 127 126 58 45 75 54 62 32 -5 -9 -3 -9 9 1 9 7 15 17 12
21 -7 11 22 33 34 26 5 -4 13 -1 17 5 5 8 3 9 -6 4 -9 -5 -11 -4 -6 4 4 6 12
9 17 5 14 -8 40 16 32 30 -3 6 -3 8 2 4 4 -4 15 -2 23 5 13 10 14 9 8 -3 -4
-8 2 -4 14 10 12 14 19 18 15 10 -4 -8 3 -5 14 8 12 14 26 21 33 16 7 -4 10
-4 6 1 -12 13 51 47 75 40 16 -5 18 -4 9 3 -10 7 6 19 60 45 261 127 355 171
368 172 8 1 33 10 55 19 22 10 47 19 55 21 8 2 31 9 50 16 19 6 58 15 85 18
41 6 54 4 72 -13 12 -10 20 -22 18 -26z m-385 -225 c0 -2 -9 -3 -19 -2 -11 0
-18 5 -15 9 4 6 34 0 34 -7z m1270 -3 c-8 -2 -21 -9 -28 -15 -7 -6 -27 -11
-45 -12 -18 -1 -52 -7 -77 -13 -25 -6 -70 -13 -100 -16 -30 -3 -89 -10 -130
-16 -101 -13 -391 -13 -526 1 -118 12 -341 52 -352 64 -6 7 142 1 245 -10 211
-21 577 -21 746 -1 61 8 115 12 119 10 4 -3 16 -1 25 5 10 6 45 10 78 9 33 0
53 -3 45 -6z m-1540 -144 c0 -9 -20 -47 -45 -84 -25 -37 -44 -68 -43 -69 2 -2
46 -6 98 -9 l95 -7 17 40 c16 41 38 55 38 26 0 -8 5 -15 11 -15 6 0 9 -19 7
-47 -3 -45 -5 -48 -33 -50 -16 -2 -39 1 -50 7 -27 12 -265 41 -278 33 -13 -8
20 50 57 102 16 22 47 56 70 77 41 36 55 35 56 -4z m155 20 c22 -6 56 -12 75
-15 19 -2 60 -9 90 -14 30 -6 134 -13 230 -16 192 -5 207 -7 192 -26 -8 -9
-20 -106 -22 -173 0 -7 -28 -13 -66 -17 -37 -3 -70 -10 -74 -17 -4 -7 -12 -10
-16 -7 -5 2 -45 8 -89 11 -146 12 -165 16 -165 37 0 23 26 89 35 89 4 0 4 -10
1 -22 -4 -16 -2 -15 7 5 12 24 15 26 26 13 7 -8 10 -24 6 -35 -9 -28 6 -33
109 -39 174 -9 176 -8 176 76 0 52 0 52 -32 53 -18 0 -71 2 -118 3 -100 3
-195 15 -230 29 -14 5 -34 11 -45 13 -41 6 -191 50 -210 62 -17 11 -12 12 30
6 28 -3 68 -10 90 -16z m1645 12 c-8 -5 -24 -10 -36 -10 -11 0 -24 -3 -28 -7
-4 -5 -11 -8 -14 -9 -18 -1 -129 -36 -145 -45 -11 -6 -21 -8 -24 -5 -3 2 -17
0 -32 -5 -35 -14 -129 -23 -216 -23 -41 1 -73 -4 -77 -10 -5 -6 -8 -7 -8 -1 0
6 -13 11 -29 12 l-30 2 4 -56 c2 -31 8 -60 12 -64 20 -18 85 -26 164 -18 46 4
91 8 100 8 13 1 16 10 14 44 -1 23 0 31 2 17 7 -40 26 -51 21 -12 -5 34 9 45
18 15 3 -10 12 -32 19 -49 25 -57 10 -64 -152 -68 -85 -3 -143 -1 -143 5 0 5
-3 8 -7 8 -5 -1 -27 -1 -49 0 -47 1 -48 4 -60 103 -6 50 -4 57 12 61 17 4 17
6 -3 12 -27 9 -30 22 -5 29 9 3 89 8 177 11 88 3 171 7 185 9 14 3 48 7 75 11
28 4 86 15 130 25 92 21 149 25 125 10z m61 -9 c6 11 14 8 34 -11 28 -26 125
-166 125 -180 0 -4 -30 -8 -67 -9 -38 0 -83 -5 -101 -10 -39 -12 -35 -11 -73
-11 -19 0 -28 -4 -23 -11 4 -8 -1 -9 -16 -4 -15 5 -26 2 -31 -6 -7 -11 -11
-12 -17 -1 -5 7 -16 10 -25 6 -14 -5 -17 1 -17 39 0 25 4 48 9 51 4 3 7 -6 5
-19 -1 -14 2 -25 7 -25 5 0 9 16 9 36 0 43 22 42 30 -2 l5 -29 105 3 c58 2
107 5 109 8 2 2 -9 20 -25 41 -41 54 -64 99 -63 125 0 13 3 17 6 9 5 -11 7
-11 14 0z m354 -211 c-3 -5 -12 -10 -18 -10 -7 0 -6 4 3 10 19 12 23 12 15 0z
m-2541 -28 c3 -5 -1 -9 -9 -9 -8 0 -15 4 -15 9 0 4 4 8 9 8 6 0 12 -4 15 -8z
m152 -43 c18 -6 36 -9 40 -7 5 1 42 -6 82 -15 41 -10 95 -20 120 -23 45 -4
146 -18 222 -31 19 -3 51 -7 70 -10 70 -8 1035 -10 1047 -1 7 5 14 5 18 -2 9
-15 -6 -18 -140 -27 -153 -10 -176 -10 -197 0 -12 5 -18 3 -18 -4 0 -16 -484
-5 -650 15 -30 3 -82 8 -115 11 -78 6 -193 22 -253 36 -26 6 -60 13 -77 16
-69 11 -209 44 -224 54 -18 10 20 4 75 -12z m2214 12 c-8 -5 -18 -10 -23 -10
-4 0 -22 -7 -40 -14 -17 -7 -50 -14 -72 -15 -37 -1 -38 0 -15 9 14 6 36 12 50
13 14 2 32 6 40 9 37 14 81 20 60 8z m-3163 -38 c50 -66 125 -143 134 -137 5
3 9 0 9 -6 0 -6 5 -8 12 -4 7 4 8 3 4 -5 -5 -7 16 -22 61 -42 77 -35 107 -41
213 -43 l75 -1 -3 -75 c-2 -41 -6 -78 -8 -81 -5 -9 -103 9 -139 26 -16 7 -43
17 -60 21 -16 4 -47 15 -68 26 -21 10 -41 16 -46 14 -5 -3 -7 -32 -4 -63 3
-48 8 -62 31 -80 15 -12 35 -29 45 -38 9 -8 22 -15 27 -15 6 0 10 -9 10 -21 0
-12 8 -23 18 -26 10 -2 22 -14 28 -26 5 -12 15 -21 22 -20 6 2 15 -9 18 -25 4
-15 15 -35 25 -45 11 -10 19 -23 19 -29 0 -9 -3 -9 -12 0 -15 15 -32 16 -23 2
15 -25 -20 -6 -69 38 -29 26 -76 66 -105 90 -28 24 -48 48 -45 54 4 6 2 8 -3
5 -13 -8 -72 56 -95 103 -51 106 -57 128 -56 200 1 50 6 74 15 77 17 7 43 -15
43 -36 0 -16 133 -130 154 -132 27 -2 49 -9 91 -29 24 -12 61 -23 81 -26 20
-2 44 -9 54 -14 32 -17 40 -11 40 29 l0 39 -82 4 c-102 4 -161 30 -270 117
-43 34 -78 59 -78 56 0 -3 -22 20 -50 50 -57 63 -52 72 -51 -85 0 -102 -16
-89 -25 19 -5 71 11 171 27 171 5 0 21 -17 36 -37z m2978 -3 c4 -6 -6 -10 -22
-9 -25 0 -26 1 -8 9 11 5 21 9 22 9 1 1 5 -3 8 -9z m-70 -20 c-4 -6 -14 -10
-23 -9 -10 2 -26 0 -37 -4 -11 -4 -36 -7 -55 -9 -19 -1 -40 -5 -46 -10 -7 -5
-25 -8 -40 -8 -16 1 -55 -1 -87 -4 -39 -4 -56 -2 -51 5 3 6 20 9 38 8 17 -1
38 1 46 4 17 6 64 14 135 23 28 3 66 9 85 13 39 9 45 7 35 -9z m1141 -172 c-7
-24 -19 -65 -25 -93 -12 -48 -66 -165 -82 -175 -4 -3 -21 -23 -38 -44 -17 -21
-31 -35 -31 -31 0 5 -32 -24 -71 -63 -39 -40 -75 -70 -79 -67 -4 2 -20 -6 -36
-20 -36 -31 -45 -23 -13 12 l24 27 -34 -27 c-38 -31 -46 -30 -32 4 5 13 10 20
10 16 1 -5 8 -1 18 8 12 13 13 19 4 24 -8 5 25 35 93 86 l106 79 0 73 c0 75
-5 81 -45 53 -5 -4 -26 -10 -46 -13 -20 -3 -56 -14 -80 -25 -24 -11 -54 -23
-66 -26 -13 -4 -23 -14 -23 -23 0 -11 -5 -9 -19 8 -14 17 -16 26 -8 31 7 4 8
8 3 8 -25 0 14 21 45 24 73 7 208 51 256 82 17 11 49 35 70 52 30 24 43 28 51
20 9 -9 12 -7 12 9 0 12 -5 25 -10 28 -14 9 -3 25 24 34 30 12 39 -17 22 -71z
m-3452 -51 c12 -18 -3 -72 -19 -72 -6 0 -11 22 -13 49 -3 50 9 59 32 23z
m-627 -29 c-3 -7 -5 -2 -5 12 0 14 2 19 5 13 2 -7 2 -19 0 -25z m643 -98 c0
-10 6 -25 13 -32 22 -22 31 -179 13 -223 -19 -44 -34 -38 -42 16 -4 22 -10 42
-15 45 -5 2 -6 19 -3 37 4 25 3 29 -5 17 -10 -13 -12 -13 -21 0 -13 20 -13 43
2 58 6 6 13 25 15 42 6 59 43 93 43 40z m150 -92 c0 -26 -4 -38 -14 -38 -14 0
-25 57 -17 95 3 19 4 19 17 0 8 -10 14 -36 14 -57z m2489 -19 c5 -16 6 -29 2
-29 -11 0 -71 86 -71 101 0 20 58 -41 69 -72z m-2359 63 c0 -14 -61 -105 -66
-99 -10 9 7 67 18 64 6 -1 13 4 16 12 3 9 0 11 -8 6 -9 -5 -11 -4 -6 4 4 6 12
9 17 6 5 -4 9 -1 9 4 0 6 5 11 10 11 6 0 10 -4 10 -8z m2447 -84 c-1 -4 -11 0
-21 8 -17 12 -17 14 -3 14 14 0 15 4 7 26 -6 14 -7 31 -3 37 7 11 26 -69 20
-85z m-637 17 c0 -10 7 -15 18 -13 11 2 17 -4 18 -17 2 -36 4 -40 14 -25 5 8
10 10 10 4 0 -6 -8 -18 -17 -25 -11 -10 -14 -10 -9 -1 4 6 2 12 -4 12 -6 0
-15 -11 -20 -24 -15 -41 -76 -95 -100 -89 -15 4 -19 11 -15 27 4 12 3 16 -2
10 -5 -8 -14 -3 -27 15 -11 14 -13 20 -6 14 19 -18 30 -16 30 3 0 21 81 123
98 124 6 0 12 -7 12 -15z m-1390 -4 c0 -5 8 -7 19 -4 13 3 20 -2 24 -17 3 -14
10 -19 17 -15 15 9 30 -12 30 -45 0 -18 3 -21 9 -12 7 11 10 10 15 -3 12 -33
7 -55 -11 -49 -14 5 -15 4 -4 -4 19 -14 5 -31 -19 -25 -57 15 -140 183 -90
183 5 0 10 -4 10 -9z m-813 -18 c2 -6 -2 -13 -10 -16 -8 -3 -13 3 -14 15 -2
20 18 21 24 1z m1094 -12 c19 12 32 11 24 -1 -3 -5 -8 -18 -10 -28 -4 -23 -81
-134 -100 -145 -19 -10 -51 7 -58 32 -6 23 38 98 80 137 24 22 29 23 38 10 8
-10 16 -12 26 -5z m844 8 c6 -9 50 -31 67 -33 3 -1 10 -5 15 -10 5 -5 3 -6 -4
-2 -23 13 -14 -10 12 -32 14 -12 25 -29 25 -37 0 -8 5 -15 10 -15 6 0 10 -13
10 -30 0 -25 -4 -30 -23 -30 -38 0 -137 127 -137 176 0 25 14 32 25 13z
m-1880 -107 c6 -31 8 -86 5 -122 -4 -55 -8 -65 -22 -62 -10 2 -18 -2 -18 -8 0
-5 5 -10 10 -10 6 0 10 -4 10 -10 0 -5 -7 -10 -15 -10 -10 0 -14 10 -13 35 1
19 -3 40 -9 47 -6 7 -9 39 -8 70 2 40 -1 55 -9 51 -6 -4 -5 1 3 10 7 9 11 26
8 37 -4 17 -2 20 15 14 17 -5 19 -3 13 18 -6 19 -5 21 6 10 8 -7 19 -39 24
-70z m1055 18 c-6 -11 -13 -20 -16 -20 -2 0 0 9 6 20 6 11 13 20 16 20 2 0 0
-9 -6 -20z m1111 -13 c-10 -9 -11 -8 -5 6 3 10 9 15 12 12 3 -3 0 -11 -7 -18z
m-1847 5 c3 -5 -13 -26 -34 -46 -34 -32 -40 -34 -40 -18 0 40 58 90 74 64z
m-114 -31 c7 -14 8 -21 1 -17 -5 4 -22 -11 -37 -34 -15 -22 -28 -40 -29 -40
-2 0 -3 16 -3 36 0 21 3 32 7 25 6 -9 13 -4 24 13 10 14 17 31 17 37 0 15 4
11 20 -20z m2600 -11 c16 -32 18 -40 6 -40 -13 0 -46 51 -46 72 0 21 22 4 40
-32z m-2653 8 c-3 -8 -6 -5 -6 6 -1 11 2 17 5 13 3 -3 4 -12 1 -19z m2593 2
c0 -5 -2 -10 -4 -10 -3 0 -8 5 -11 10 -3 6 -1 10 4 10 6 0 11 -4 11 -10z
m-4160 -59 c0 -9 -71 -41 -91 -41 -16 0 11 30 36 40 27 12 55 12 55 1z m1477
-63 c-3 -8 -6 -5 -6 6 -1 11 2 17 5 13 3 -3 4 -12 1 -19z m736 5 c-5 -15 -3
-16 8 -5 7 6 19 12 27 12 32 0 -16 -130 -54 -144 -25 -10 -30 -7 -41 17 -12
27 4 86 33 118 21 24 35 25 27 2z m1307 7 c0 -5 6 -7 13 -4 7 2 26 -10 42 -28
l30 -33 -34 30 c-23 21 -30 24 -22 10 22 -41 40 -57 53 -49 11 6 11 5 0 -8 -8
-9 -12 -27 -10 -40 2 -19 -1 -23 -21 -20 -42 4 -70 40 -96 121 -6 20 -4 22 15
16 15 -5 20 -4 16 4 -4 6 -2 11 3 11 6 0 11 -4 11 -10z m-167 -27 c-3 -10 -10
-24 -16 -30 -6 -9 -6 -13 2 -13 6 0 17 11 23 25 6 14 14 25 17 25 15 -1 28
-17 35 -42 5 -21 3 -26 -7 -22 -9 3 -19 -6 -26 -23 -7 -15 -23 -41 -35 -57
-19 -23 -29 -27 -50 -22 -44 11 -35 61 26 139 33 41 41 46 31 20z m-974 -11
c6 2 27 -19 47 -47 25 -35 34 -43 30 -25 -5 17 -4 20 2 10 5 -8 7 -32 5 -52
-4 -32 -9 -38 -28 -38 -26 0 -54 33 -85 102 -26 57 -26 72 0 58 10 -6 24 -9
29 -8z m-2475 -109 c0 -35 2 -63 5 -63 12 0 9 -105 -2 -112 -9 -6 -9 -10 -1
-15 8 -6 13 -84 17 -244 2 -130 7 -242 11 -248 4 -6 5 -26 1 -44 -4 -23 -3
-28 4 -17 23 34 20 -3 -6 -71 l-28 -74 0 -515 c0 -563 -3 -533 59 -605 27 -31
30 -38 20 -47 -6 -7 -43 29 -74 72 -18 25 -25 29 -32 18 -6 -9 -7 -5 -3 11 5
16 4 21 -4 17 -6 -4 -11 -5 -11 -2 0 2 -3 12 -7 22 -4 10 -2 15 4 11 6 -4 11
41 12 131 1 75 4 227 6 337 3 110 6 288 6 395 2 155 5 200 17 220 8 13 16 34
18 46 1 12 5 36 9 53 5 24 2 32 -17 45 -19 13 -23 23 -21 63 4 133 3 462 -2
582 -5 109 -4 132 6 117 7 -11 12 -48 13 -83z m1400 70 c3 -10 8 -23 11 -29 4
-8 -9 -14 -37 -17 -24 -2 -70 -10 -102 -16 -33 -7 -75 -10 -95 -6 -34 6 -35 8
-16 21 10 8 30 14 44 14 14 0 58 11 96 25 85 29 91 30 99 8z m-272 -67 c80
-27 296 -79 398 -97 92 -15 93 -16 110 -22 14 -5 106 -22 270 -48 117 -19 191
-28 262 -32 21 -1 38 -6 38 -11 0 -12 -210 0 -340 19 -217 33 -518 101 -685
154 l-60 19 -3 -114 c-1 -63 -6 -114 -11 -114 -5 0 -16 12 -26 26 -13 21 -19
24 -26 13 -5 -9 -9 35 -9 109 0 67 2 122 5 122 3 0 37 -11 77 -24z m4748 4 c0
-11 -2 -20 -4 -20 -2 0 -6 9 -9 20 -3 11 -1 20 4 20 5 0 9 -9 9 -20z m-5780
-42 c-2 -70 -1 -76 9 -59 6 9 9 -10 8 -55 -2 -74 6 -91 65 -127 26 -16 117
-45 163 -52 73 -10 135 -40 135 -64 0 -6 5 -11 10 -11 6 0 9 -3 8 -7 -1 -5 2
-20 6 -35 5 -16 5 -36 0 -45 -12 -28 -14 -63 -3 -63 5 0 9 -11 9 -24 0 -24
-20 -30 -37 -11 -4 4 -3 5 4 1 8 -4 11 3 8 26 -2 18 -6 58 -9 89 -4 56 -38
115 -58 103 -4 -3 -34 4 -66 15 -31 10 -75 22 -98 26 -56 9 -135 62 -156 105
-21 41 -26 240 -7 240 6 0 10 -21 9 -52z m5777 -88 c-1 -52 -6 -90 -12 -90 -5
0 -10 14 -10 30 -1 17 2 30 6 30 3 0 4 11 1 25 -4 24 5 95 13 95 2 0 3 -41 2
-90z m-19 -118 c2 -6 -6 -10 -16 -9 -12 1 -18 6 -15 14 6 16 25 13 31 -5z
m-43 -32 c-9 -14 -84 -46 -146 -60 -29 -7 -71 -17 -91 -22 -21 -5 -38 -14 -38
-19 0 -6 -7 -9 -15 -6 -10 5 -16 -4 -20 -31 -11 -63 -13 -66 -32 -51 -14 12
-16 12 -8 0 5 -9 4 -12 -3 -8 -12 8 -5 43 16 75 19 30 58 49 124 63 55 11 162
45 188 60 20 11 32 11 25 -1z m-4755 -34 c0 -3 -4 -8 -10 -11 -5 -3 -10 -1
-10 4 0 6 5 11 10 11 6 0 10 -2 10 -4z m60 -31 c0 -2 -16 -33 -35 -67 -51 -94
-94 -222 -76 -230 4 -2 16 -32 28 -68 14 -46 17 -67 9 -72 -7 -5 -6 -8 3 -8 8
0 27 -11 41 -25 23 -22 29 -24 65 -14 39 11 125 84 125 107 0 6 4 12 10 12 5
0 12 15 15 33 4 20 13 34 21 34 8 0 14 -2 14 -4 0 -12 -33 -78 -41 -84 -6 -3
-12 -15 -13 -25 -2 -10 -9 -19 -17 -19 -8 0 -14 -5 -14 -12 0 -13 -13 -28 -25
-28 -4 0 -16 -11 -27 -24 -16 -19 -28 -23 -66 -23 -26 1 -55 6 -65 11 -30 16
-62 93 -62 151 0 29 -3 51 -6 48 -15 -16 -58 -227 -67 -336 -8 -85 -3 -92 73
-108 53 -12 185 -73 188 -87 3 -13 -4 -17 -27 -17 -16 0 -33 -4 -36 -10 -3 -6
1 -7 9 -4 10 4 16 1 17 -7 0 -8 2 -23 3 -34 2 -11 6 -54 11 -95 4 -41 14 -87
21 -102 23 -45 19 -58 -18 -51 -18 3 -44 11 -58 18 -14 7 -37 18 -52 25 -15 7
-25 17 -22 21 3 5 -1 6 -8 4 -8 -3 -29 6 -48 20 -19 14 -36 21 -38 16 -3 -10
36 -183 60 -268 7 -24 16 -43 21 -43 5 0 7 -7 3 -15 -3 -8 -1 -15 4 -15 6 0
10 -5 10 -11 0 -5 -5 -7 -12 -3 -6 4 -9 3 -6 -2 3 -5 13 -26 21 -47 l16 -37
43 17 c57 24 170 23 220 -1 21 -10 70 -52 110 -93 40 -41 89 -86 108 -100 19
-13 58 -39 85 -59 28 -19 73 -43 100 -53 28 -11 58 -22 68 -26 15 -6 14 -1 -7
29 -37 54 -40 73 -21 122 12 32 23 44 38 46 12 1 29 2 37 3 8 0 21 4 28 9 7 4
19 5 27 2 8 -3 15 0 15 7 0 8 3 9 8 1 10 -14 42 -26 42 -14 0 5 -8 11 -17 13
-10 3 16 5 57 5 78 -1 139 -18 251 -72 61 -30 111 -75 244 -224 50 -55 98
-101 107 -101 9 -1 20 -6 23 -11 4 -6 9 -9 13 -6 4 2 46 -2 94 -9 92 -14 131
-10 188 20 19 11 43 20 53 22 16 3 16 2 1 -23 -21 -31 -103 -74 -151 -78 -41
-4 -177 25 -213 44 -14 8 -29 14 -35 15 -25 1 -109 72 -168 142 -74 89 -142
150 -189 171 -104 43 -144 52 -243 52 -90 -1 -103 -3 -129 -24 -28 -23 -29
-26 -15 -58 20 -48 76 -106 128 -132 36 -18 60 -22 109 -20 35 1 70 8 78 15
20 17 28 5 12 -20 -19 -31 -71 -45 -137 -36 -31 3 -85 9 -121 11 -95 8 -172
30 -237 69 -62 37 -203 164 -203 183 0 6 -5 14 -12 18 -7 5 -8 3 -3 -7 5 -8
-1 -6 -13 5 -12 10 -19 23 -16 27 3 5 0 9 -7 9 -7 0 -22 8 -33 18 -73 65 -241
84 -274 31 -10 -16 -9 -26 8 -59 12 -23 18 -45 15 -51 -4 -5 -1 -8 5 -7 16 4
47 -53 48 -85 0 -5 13 -22 28 -38 15 -16 23 -29 16 -29 -6 0 -14 5 -17 10 -4
6 -10 8 -15 5 -21 -13 -98 127 -163 297 -66 170 -84 224 -111 328 -34 135 -37
158 -37 283 -1 62 -4 116 -7 122 -15 24 10 262 44 410 32 142 82 260 142 333
30 36 52 52 52 37z m3664 -76 c61 -29 96 -66 96 -100 0 -6 7 -17 15 -25 8 -9
15 -20 15 -26 0 -6 -20 16 -45 48 -25 33 -65 70 -88 83 -47 26 -116 35 -124
14 -3 -7 -9 -10 -14 -7 -5 3 -9 -6 -9 -20 0 -27 -15 -43 -25 -26 -11 18 28 70
60 80 36 10 63 6 119 -21z m-3549 7 c-19 -14 -45 -11 -45 5 0 5 14 9 32 9 30
0 30 -1 13 -14z m82 8 c12 -3 27 -19 34 -35 14 -35 6 -50 -11 -19 -6 11 -26
30 -43 40 -31 20 -23 25 20 14z m-152 -36 c-8 -13 -21 -23 -27 -23 -7 0 -18
-11 -25 -25 -7 -13 -18 -29 -26 -35 -8 -5 -21 -25 -31 -42 -20 -39 -29 -43
-16 -7 19 48 32 69 73 112 45 46 80 60 52 20z m4328 -68 c3 -11 -1 -26 -8 -34
-8 -7 -13 -15 -12 -18 1 -2 -5 3 -13 10 -11 11 -12 16 -2 19 6 3 12 11 12 19
0 10 -5 12 -12 8 -9 -5 -9 -3 1 9 16 20 26 15 34 -13z m-4125 2 c6 -18 -15
-14 -22 4 -4 10 -1 14 6 12 6 -2 14 -10 16 -16z m3262 -2 c0 -5 -5 -10 -11
-10 -5 0 -7 5 -4 10 3 6 8 10 11 10 2 0 4 -4 4 -10z m-4110 -14 c0 -23 -16
-27 -17 -5 -1 10 2 19 8 19 5 0 9 -6 9 -14z m4100 -41 c-6 -7 -4 -20 4 -36 7
-13 11 -30 8 -37 -2 -6 1 -12 8 -12 6 0 9 -4 6 -9 -7 -11 19 -65 39 -81 13
-11 14 -10 9 4 -3 9 -9 16 -13 16 -4 0 -8 7 -8 15 0 21 1 20 31 -25 17 -25 21
-37 11 -34 -8 4 -15 1 -15 -5 0 -10 14 -15 33 -12 5 1 6 -3 3 -8 -3 -5 2 -15
11 -22 11 -10 14 -10 9 -2 -5 9 -2 11 8 7 9 -3 14 -10 11 -14 -3 -5 3 -9 12
-10 69 -4 78 -1 110 34 32 34 37 51 34 106 -2 20 0 22 8 10 30 -43 -2 -122
-66 -164 -35 -23 -43 -25 -78 -15 -39 10 -105 63 -105 83 0 5 -8 19 -18 30
-23 25 -67 137 -75 188 -5 35 -5 36 13 20 13 -10 16 -20 10 -27z m-3263 16 c0
-11 -5 -18 -9 -15 -4 3 -5 11 -1 19 7 21 12 19 10 -4z m523 -23 c64 -36 100
-91 105 -158 2 -30 -2 -64 -8 -75 -6 -11 -10 -28 -8 -37 1 -10 -3 -18 -9 -18
-6 0 -8 -5 -5 -10 3 -6 -1 -13 -9 -16 -9 -3 -14 -10 -11 -14 3 -4 -1 -13 -9
-19 -27 -23 -25 15 5 74 48 95 38 167 -31 229 -60 53 -188 68 -259 32 -26 -14
-31 -14 -31 -2 0 12 36 29 67 31 6 0 15 3 19 7 4 4 37 6 73 4 47 -2 79 -11
111 -28z m2396 16 c70 -20 168 -107 184 -162 32 -118 -20 -229 -138 -291 -44
-23 -135 -22 -189 3 -101 47 -155 116 -171 218 -16 102 22 178 109 222 62 31
124 34 205 10z m-2926 -51 c-1 -24 -2 -26 -11 -10 -5 9 -7 22 -4 27 10 17 15
11 15 -17z m245 4 c-4 -8 -15 -17 -26 -20 -13 -4 -19 -14 -19 -34 0 -16 -4
-33 -9 -38 -12 -13 -20 -115 -9 -115 4 0 7 -3 7 -7 -8 -50 68 -136 130 -148
107 -20 134 -17 187 26 20 16 38 28 40 27 1 -2 0 -15 -3 -30 -3 -18 -12 -28
-23 -28 -10 0 -23 -6 -29 -14 -7 -8 -40 -22 -74 -31 -78 -21 -125 -11 -184 40
-49 42 -87 100 -77 116 4 7 3 9 -4 5 -6 -3 -13 6 -17 22 -8 36 -3 102 7 108 5
3 6 10 3 15 -4 5 -1 9 4 9 6 0 11 6 11 14 0 14 80 110 86 103 3 -2 2 -11 -1
-20z m3892 -13 c-6 -7 -37 7 -37 16 0 15 35 16 38 2 2 -7 2 -16 -1 -18z
m-2680 -40 c20 -13 39 -21 44 -18 5 3 9 1 9 -5 0 -6 12 -14 28 -17 15 -4 32
-10 37 -14 19 -14 65 -21 65 -10 0 7 8 9 20 5 12 -4 28 -1 37 6 13 11 15 11
12 -5 -2 -11 -22 -28 -43 -39 l-39 -21 -56 30 c-31 16 -59 28 -63 27 -5 -2 -8
1 -8 6 0 5 -14 14 -31 20 -17 6 -28 15 -24 21 3 5 0 10 -8 10 -8 0 -25 9 -38
21 l-24 20 24 -6 c12 -4 39 -18 58 -31z m403 18 c-8 -3 -17 -8 -20 -11 -11
-13 -112 -62 -118 -57 -7 7 -8 7 60 39 31 15 60 32 63 37 4 6 11 7 18 3 8 -5
7 -8 -3 -11z m95 9 c3 -5 2 -12 -3 -15 -5 -3 -9 1 -9 9 0 17 3 19 12 6z m-624
-45 c12 -13 11 -49 -1 -41 -5 3 -10 -1 -10 -10 0 -9 4 -14 9 -11 4 3 11 -45
15 -106 7 -116 28 -187 64 -214 66 -52 171 -108 204 -111 22 -2 38 1 38 8 0 6
8 9 18 7 21 -5 86 26 132 63 19 16 41 29 48 29 7 0 10 5 6 12 -5 7 -3 8 6 3
10 -6 12 -3 8 13 -4 12 -2 19 3 16 5 -3 12 8 15 25 4 17 11 31 16 31 6 0 6 6
-1 14 -8 10 -9 15 -1 18 12 4 17 45 19 156 0 46 5 71 11 67 6 -3 10 3 10 14 0
12 -4 21 -9 21 -5 0 -11 9 -14 20 -7 27 -2 25 33 -12 l30 -33 -4 -120 c-5
-124 -27 -218 -50 -213 -13 3 -61 -34 -86 -67 -13 -16 -10 -16 17 3 18 13 39
33 48 45 8 12 15 16 15 9 0 -19 -31 -63 -40 -57 -4 3 -15 -6 -23 -19 -15 -22
-91 -69 -99 -61 -2 2 -14 -5 -28 -15 -25 -19 -25 -19 80 -15 58 3 143 7 190
11 47 4 102 7 122 8 21 0 38 3 38 6 0 6 60 12 137 14 29 0 53 4 53 8 0 4 15 7
33 6 28 -1 79 6 142 18 11 3 94 18 185 34 91 16 188 34 215 40 28 6 64 14 80
17 17 3 38 9 49 15 12 7 16 7 12 0 -3 -6 7 -4 24 5 17 8 40 13 51 10 12 -3 22
0 25 8 3 8 12 11 20 8 8 -3 14 1 14 8 0 11 2 11 10 -1 8 -13 11 -12 23 4 8 10
20 17 28 14 15 -6 76 14 124 40 17 9 30 15 30 13 0 -3 29 7 89 30 27 11 51 17
54 14 6 -5 -77 -44 -95 -45 -21 0 -15 -21 7 -27 30 -8 24 -23 -8 -23 -16 0
-32 -3 -36 -7 -3 -4 -14 -8 -24 -9 -39 -7 -69 -14 -112 -27 -44 -14 -216 -56
-400 -98 -98 -22 -109 -24 -174 -33 -21 -4 -42 -8 -46 -11 -4 -2 -26 -7 -50
-10 -23 -3 -47 -8 -54 -12 -6 -5 -20 -8 -31 -9 -35 -2 -139 -14 -165 -19 -14
-3 -51 -7 -82 -9 -31 -2 -61 -7 -68 -11 -6 -4 -17 -4 -25 -1 -8 3 -15 2 -15
-2 0 -4 -9 -8 -20 -8 -11 0 -20 4 -20 9 0 4 -5 5 -10 2 -6 -4 -8 -11 -5 -16 4
-5 2 -9 -4 -9 -5 0 -12 4 -15 8 -6 10 -48 8 -65 -3 -8 -4 -37 -9 -65 -11 -28
-2 -51 -4 -51 -5 0 -1 -31 -3 -70 -4 -38 -2 -70 -4 -70 -5 0 -1 -66 -3 -148
-4 -146 -2 -184 -11 -117 -29 19 -5 40 -17 48 -28 7 -10 21 -19 31 -19 10 0
24 -7 31 -15 17 -21 24 -19 78 19 64 47 96 57 144 50 72 -12 111 -79 74 -130
-18 -24 -29 -14 -30 27 -1 22 -9 38 -29 52 -27 21 -28 21 -85 2 -35 -11 -72
-33 -98 -57 l-41 -40 -21 26 c-11 14 -24 26 -30 26 -5 0 -12 6 -15 13 -2 6
-26 20 -53 30 -61 21 -103 12 -122 -27 -13 -26 -12 -29 45 -85 32 -31 68 -77
81 -102 23 -43 17 -37 -30 28 -13 18 -37 39 -54 48 -42 20 -56 39 -64 83 -4
25 -11 36 -21 34 -8 -2 -1 10 15 27 16 16 42 33 57 36 16 4 34 16 41 28 10 19
9 20 -3 10 -12 -10 -37 -11 -59 -3 -3 1 -13 1 -23 0 -10 -1 -26 4 -35 12 -11
9 -14 10 -8 1 4 -8 1 -13 -8 -13 -9 0 -16 8 -17 18 0 10 -3 12 -6 5 -2 -7 -11
-13 -19 -13 -9 0 -12 5 -8 13 6 10 4 10 -7 0 -20 -20 -49 -16 -43 5 5 16 5 16
-6 -1 -6 -9 -16 -14 -23 -10 -6 3 -27 7 -46 8 -20 1 -45 6 -56 12 -11 5 -40
11 -64 12 -25 1 -48 4 -53 7 -4 3 -8 0 -8 -7 0 -8 -4 -8 -15 1 -8 7 -24 10
-35 7 -11 -3 -20 -1 -20 4 0 5 -15 8 -32 7 -47 -2 -252 32 -256 42 -2 5 -9 7
-15 4 -11 -4 -40 1 -182 31 -16 4 -37 9 -45 12 -8 4 -18 6 -21 5 -4 -1 -69 15
-145 34 -77 20 -164 41 -194 48 -99 23 -240 69 -240 78 0 5 -6 6 -12 2 -9 -5
-9 -2 1 9 12 15 11 17 -7 17 -12 0 -23 4 -26 9 -3 5 -15 7 -27 4 -19 -5 -20
-4 -8 16 16 25 27 27 43 7 16 -20 156 -67 156 -52 0 6 7 3 14 -6 7 -10 21 -18
30 -18 10 0 14 -4 11 -10 -3 -5 1 -10 10 -10 9 0 13 5 10 10 -3 6 -1 10 4 10
6 0 11 -5 11 -10 0 -16 44 -30 52 -16 5 8 8 7 8 -2 0 -7 5 -10 11 -6 6 3 15 0
20 -7 6 -10 9 -11 9 -1 0 6 5 12 11 12 5 0 8 -4 5 -9 -7 -11 22 -23 35 -15 5
3 9 1 9 -5 0 -6 7 -8 15 -5 8 4 15 1 15 -5 0 -6 7 -8 15 -5 8 4 23 3 33 -1 9
-4 28 -9 42 -11 45 -7 55 -9 65 -15 6 -4 18 -5 28 -4 9 2 17 -1 17 -6 0 -4 7
-6 15 -3 8 4 15 2 15 -2 0 -5 19 -10 42 -11 23 -2 46 -7 51 -12 6 -6 19 -6 34
0 17 6 22 6 17 -2 -5 -8 1 -10 17 -6 14 4 37 0 53 -8 20 -11 33 -12 41 -5 6 5
15 7 19 3 7 -8 31 -14 63 -16 12 -1 24 -5 28 -9 4 -4 13 -4 21 -1 8 3 14 0 14
-6 0 -6 5 -11 11 -11 5 0 7 5 3 11 -3 6 5 3 20 -6 15 -10 30 -15 34 -11 3 4 0
11 -8 16 -9 6 -10 10 -3 10 6 0 18 -6 26 -14 8 -9 19 -11 27 -6 9 6 18 3 25
-7 9 -11 14 -13 19 -5 4 7 12 12 17 12 6 0 7 -4 4 -10 -4 -7 2 -7 19 0 16 6
27 6 31 0 4 -6 17 -7 31 -4 13 3 24 2 24 -2 0 -10 6 -10 125 -16 44 -2 87 -8
94 -13 10 -5 12 -4 7 3 -8 13 6 16 18 5 4 -4 48 -6 98 -4 59 2 93 -1 98 -8 3
-7 14 -9 24 -5 13 5 -1 15 -53 41 -73 35 -160 112 -188 167 -17 32 -43 179
-43 242 0 22 6 46 13 53 10 11 9 12 -1 6 -8 -4 -4 11 9 36 18 35 24 40 27 24
2 -11 8 -24 13 -29z m70 -53 c13 -16 12 -17 -3 -4 -10 7 -18 15 -18 17 0 8 8
3 21 -13z m478 -6 c-2 -2 -32 -23 -67 -46 -75 -50 -94 -77 -100 -142 -7 -74
-22 -59 -22 24 l0 72 86 45 c47 25 88 49 91 53 3 5 8 6 11 3 3 -3 3 -8 1 -9z
m-411 -25 c15 -10 48 -28 74 -41 l46 -23 -1 -84 c-1 -95 -13 -100 -22 -9 -7
68 -29 97 -105 146 -25 16 -39 29 -32 29 8 0 26 -8 40 -18z m33 -131 c8 -19 6
-22 -7 -17 -14 6 -16 0 -12 -39 6 -49 30 -85 59 -85 10 0 20 -8 22 -17 4 -14
5 -12 6 5 2 36 21 25 21 -13 0 -40 -9 -44 -36 -14 -10 12 -36 30 -56 40 -33
17 -38 24 -39 57 0 20 -3 54 -5 75 -4 35 -3 38 17 35 12 -2 26 -14 30 -27z
m325 -2 c-3 -17 -6 -51 -6 -75 0 -34 -5 -46 -21 -55 -20 -10 -21 -9 -14 12 12
39 18 112 8 106 -5 -3 -15 -2 -23 4 -13 7 -12 9 1 9 9 0 19 7 23 15 3 8 13 15
22 15 13 0 15 -6 10 -31z m-2638 -5 c-9 -8 -78 -12 -78 -4 0 5 15 10 33 12 31
3 52 0 45 -8z m92 1 c11 -13 10 -14 -4 -9 -9 3 -16 10 -16 15 0 13 6 11 20 -6z
m117 1 c-5 -16 -97 -18 -97 -2 0 9 16 13 50 13 33 0 49 -4 47 -11z m73 -10 c0
-16 -3 -17 -12 -8 -7 7 -20 12 -30 12 -10 0 -18 4 -18 8 0 4 14 8 30 7 23 0
30 -5 30 -19z m4580 11 c0 -5 -18 -7 -40 -5 -22 2 -40 1 -40 -2 0 -4 -46 -5
-127 -1 -13 1 -23 4 -23 9 0 4 52 7 115 7 63 1 115 -3 115 -8z m66 1 c3 -4 -8
-6 -25 -6 -17 1 -31 4 -31 8 0 9 47 7 56 -2z m135 -3 c19 -4 43 -8 54 -9 43
-6 135 -74 135 -102 0 -6 7 -17 15 -24 8 -7 15 -22 14 -34 0 -20 0 -20 -8 -1
-18 44 -137 130 -202 146 -27 7 -49 18 -49 23 0 7 -3 6 -8 -1 -5 -8 -18 -9
-42 -3 l-35 9 33 -3 c18 -1 35 1 38 6 3 5 9 6 13 4 4 -3 23 -8 42 -11z m-5151
-7 c0 -4 -16 -8 -35 -8 -19 0 -35 4 -35 9 0 5 16 9 35 8 19 -1 35 -5 35 -9z
m134 0 c-3 -4 -12 -8 -20 -8 -8 0 -13 4 -10 8 3 5 12 9 20 9 8 0 13 -4 10 -9z
m-214 -8 c0 -5 -9 -10 -19 -10 -21 0 -84 -30 -89 -42 -2 -5 -9 -8 -17 -8 -7 0
-31 -20 -54 -45 -45 -49 -47 -49 -27 -2 17 40 71 91 111 105 39 14 95 15 95 2z
m2705 -134 c8 -3 17 0 21 6 5 7 2 8 -7 3 -11 -6 -12 -5 -1 6 14 15 36 0 24
-17 -9 -13 -54 -44 -64 -44 -10 0 -10 47 0 80 l7 25 3 -27 c2 -14 10 -29 17
-32z m1983 -45 c10 -6 1 -15 -31 -35 -25 -14 -54 -26 -64 -26 -10 0 -29 -9
-43 -20 -14 -11 -34 -20 -45 -20 -35 -1 -43 -14 -44 -75 0 -33 -3 -88 -7 -122
-3 -35 -2 -63 2 -63 5 0 36 15 69 33 49 28 61 39 66 67 4 18 11 35 16 39 4 3
9 12 11 19 2 10 -2 10 -19 2 -15 -9 -24 -9 -32 -1 -7 7 -1 15 24 24 42 18 98
30 84 20 -5 -4 -11 -25 -11 -45 -5 -114 1 -102 -83 -151 -91 -52 -164 -75
-168 -53 -1 5 -7 12 -14 16 -10 6 -9 30 4 110 8 57 20 106 25 109 11 7 26 51
17 51 -3 0 -10 -10 -15 -22 -8 -21 -8 -20 -8 7 1 17 -2 37 -6 46 -6 13 1 20
31 29 21 6 54 19 73 28 82 37 143 49 168 33z m-4911 -23 c-3 -8 -6 -5 -6 6 -1
11 2 17 5 13 3 -3 4 -12 1 -19z m5679 -11 c8 -88 7 -102 -6 -99 -10 2 -11 0
-3 -10 6 -7 14 -67 18 -133 3 -66 9 -131 12 -144 4 -15 2 -22 -4 -18 -6 4 -13
0 -17 -8 -3 -8 0 -17 6 -21 7 -5 8 -2 3 6 -5 9 -4 11 4 6 11 -7 6 -180 -6
-200 -4 -5 0 -6 7 -1 10 6 12 4 6 -11 -4 -10 -10 -31 -13 -46 -8 -41 -136
-132 -156 -111 -4 3 -12 1 -20 -5 -29 -25 -177 -31 -554 -23 -87 2 -120 6
-117 14 5 15 420 20 446 6 11 -6 18 -6 18 0 0 5 25 9 55 9 34 -1 52 -5 48 -11
-4 -6 -1 -7 8 -1 8 5 28 9 44 10 41 1 138 49 166 82 24 27 24 30 26 272 2 329
3 399 10 438 6 36 15 35 19 -1z m-5042 -109 c5 -105 25 -229 50 -328 l7 -25
-178 9 c-101 4 -191 14 -209 21 l-31 13 -7 120 c-11 188 16 301 69 288 11 -2
47 2 80 9 33 7 94 14 136 14 l76 1 7 -122z m4655 96 c41 -8 78 -17 83 -22 17
-17 29 -128 26 -250 l-3 -127 -38 -18 c-31 -15 -71 -20 -216 -24 -119 -4 -180
-2 -185 5 -3 5 3 39 14 74 14 41 25 118 32 220 9 128 14 158 27 162 25 7 178
-5 260 -20z m-5290 -204 c1 -58 4 -123 7 -145 9 -65 10 -295 1 -298 -17 -5 65
-85 103 -101 22 -9 40 -20 40 -25 0 -5 18 -7 40 -4 27 4 40 2 40 -6 0 -7 5 -9
13 -4 6 4 142 8 301 9 l288 1 19 -31 c20 -33 25 -61 9 -51 -5 3 -10 15 -10 25
0 22 -37 32 -112 30 -29 -1 -57 -1 -63 0 -32 6 -84 4 -109 -4 -21 -6 -30 -5
-37 5 -7 11 -9 11 -9 1 0 -10 -23 -13 -95 -11 -226 4 -363 35 -417 95 -22 26
-37 113 -29 182 8 78 7 257 -1 374 -4 54 -4 112 -1 130 7 32 8 31 14 -17 3
-27 7 -97 8 -155z m1256 175 c11 -1 26 -3 33 -4 7 0 10 -5 7 -11 -4 -6 9 -10
33 -10 34 0 74 -9 122 -28 8 -3 28 -7 44 -9 16 -2 34 -7 41 -13 6 -5 15 -7 18
-3 4 3 12 1 19 -4 7 -6 33 -13 58 -17 25 -4 65 -11 90 -15 25 -4 50 -10 56
-13 5 -4 32 -9 60 -13 27 -3 56 -7 64 -10 15 -4 94 -16 118 -18 6 0 12 -3 12
-7 0 -4 11 -12 24 -18 32 -14 45 -60 53 -187 5 -83 3 -106 -11 -133 -17 -33
-35 -35 -37 -4 -1 9 -4 4 -8 -13 -7 -33 -11 -34 -101 -17 -83 16 -107 21 -137
33 -16 6 -44 13 -63 15 -19 2 -36 8 -38 13 -2 5 -11 7 -20 5 -32 -8 -43 11
-45 78 -1 36 -5 64 -8 62 -7 -4 -19 30 -19 54 0 6 10 12 23 12 13 0 27 4 33
10 12 12 154 -17 224 -47 44 -20 56 -48 16 -41 -17 4 -23 1 -19 -9 4 -10 -3
-11 -28 -7 -19 4 -42 11 -51 15 -9 5 -26 9 -37 9 -12 0 -21 4 -21 8 0 4 -9 8
-20 8 -16 0 -20 -7 -19 -36 2 -56 13 -85 34 -87 70 -8 239 -49 267 -64 18 -10
20 -9 14 6 -4 10 -9 74 -13 142 -6 112 -5 123 10 117 12 -4 17 -1 17 14 0 20
-22 25 -173 37 -15 1 -30 5 -34 9 -3 3 -17 6 -31 6 -14 0 -41 4 -61 10 -20 5
-72 16 -116 25 -99 20 -312 75 -342 88 -13 6 -23 14 -23 19 0 4 -4 7 -8 6 -6
-3 -37 11 -91 39 -1 1 0 6 3 12 5 7 15 7 34 -1 15 -5 36 -11 47 -13z m3265 5
c0 -5 -8 -10 -18 -10 -20 0 -48 -40 -34 -49 5 -3 12 -13 15 -21 3 -8 6 0 6 18
1 34 15 43 25 16 11 -29 6 -102 -14 -205 -10 -55 -18 -106 -17 -112 3 -16
-184 -95 -245 -103 -29 -4 -49 -3 -45 2 4 4 -3 14 -15 21 -13 7 -18 12 -11 13
7 0 9 13 6 40 -4 26 -1 46 8 57 9 11 10 14 2 9 -8 -4 -13 -1 -13 9 0 9 5 13
10 10 17 -11 11 3 -10 23 -20 18 -20 19 22 42 32 18 58 24 110 24 37 1 68 -1
68 -4 -1 -7 -89 -60 -99 -60 -9 0 -31 -76 -31 -103 0 -12 14 -9 70 11 46 18
69 31 65 39 -8 21 6 73 18 66 7 -4 8 0 3 12 -3 10 4 58 16 106 12 48 20 91 16
94 -3 4 -17 1 -30 -6 -12 -7 -27 -14 -33 -16 -5 -1 -62 -18 -125 -37 -98 -29
-174 -46 -370 -82 -14 -2 -47 -9 -73 -14 -26 -6 -66 -10 -89 -10 -29 0 -39 -4
-35 -13 7 -17 -8 -256 -18 -282 -4 -11 -3 -15 2 -9 4 6 51 21 103 34 52 12
100 27 107 32 7 6 13 4 15 -4 4 -11 8 -11 20 0 12 9 18 10 23 2 5 -8 11 -8 19
-1 7 6 16 8 19 4 4 -3 7 23 7 59 0 56 -2 65 -17 64 -20 -2 -99 -23 -123 -33
-29 -12 -41 -11 -67 2 l-25 13 49 26 c39 19 53 22 63 13 9 -8 11 -8 6 0 -7 13
63 31 134 35 l45 3 0 -88 c0 -48 3 -87 8 -87 4 0 7 -6 7 -13 0 -13 -75 -40
-120 -43 -14 0 -32 -4 -40 -7 -37 -15 -150 -38 -207 -43 -60 -4 -63 -3 -63 18
-1 22 -1 22 -15 5 -13 -18 -14 -17 -29 12 -18 34 -21 55 -6 46 6 -3 10 -1 10
4 0 6 -5 11 -11 11 -8 0 -7 6 2 17 10 11 10 14 2 9 -7 -4 -13 -2 -13 3 0 6 4
11 10 11 5 0 7 7 4 15 -10 25 17 118 44 154 14 19 21 32 15 28 -6 -4 -10 6
-11 25 -1 30 0 30 41 25 27 -4 36 -2 26 4 -9 6 2 8 34 6 26 -1 47 0 47 4 0 4
11 6 25 4 14 -1 25 1 25 5 0 4 27 11 61 14 33 4 71 11 83 16 27 10 91 22 126
24 14 0 28 5 32 10 3 5 17 10 30 12 12 1 24 3 26 3 1 1 5 1 8 0 4 0 10 4 13
10 4 5 36 13 71 16 93 10 99 11 106 18 4 4 16 7 26 7 10 0 18 4 18 9 0 6 17
12 38 14 20 2 43 4 50 5 6 1 12 -2 12 -8z m-3335 -39 c3 -5 1 -12 -5 -16 -5
-3 -10 1 -10 9 0 18 6 21 15 7z m80 -204 c16 -105 21 -121 36 -112 5 4 16 -1
25 -10 9 -9 26 -15 38 -14 11 1 28 -1 36 -4 37 -13 61 -15 56 -4 -3 7 -11 31
-17 54 -11 36 -19 44 -56 58 -24 9 -48 26 -54 37 -10 19 -8 19 55 17 36 -1 69
0 72 4 10 10 84 -34 84 -50 0 -10 -6 -12 -21 -8 -20 7 -21 4 -15 -26 15 -78
18 -139 7 -139 -6 0 -11 -7 -11 -15 0 -8 -5 -15 -10 -15 -28 0 -165 43 -217
67 -57 28 -57 28 -69 88 -20 96 -29 229 -15 221 7 -5 11 3 11 22 0 97 42 -13
65 -171z m1305 13 c0 -5 -2 -10 -4 -10 -3 0 -8 5 -11 10 -3 6 -1 10 4 10 6 0
11 -4 11 -10z m526 -52 c4 -6 -3 -19 -17 -30 -50 -40 -85 -74 -102 -98 -21
-31 -22 -19 -1 22 18 34 92 118 105 118 4 0 11 -5 15 -12z m-471 -118 c14 -16
19 -36 20 -80 0 -55 -3 -62 -34 -92 -18 -18 -30 -26 -26 -18 6 12 5 13 -6 3
-16 -16 -138 -17 -194 -2 -84 22 -93 22 -105 0 -6 -12 -8 -32 -5 -44 6 -21 6
-21 -9 -3 -9 11 -16 29 -16 40 0 17 -2 18 -10 6 -7 -11 -10 -12 -10 -2 0 8 12
26 28 41 21 22 36 28 67 27 28 -1 39 -5 37 -15 -2 -8 3 -11 13 -8 8 4 15 3 15
-1 0 -4 32 -8 70 -8 39 0 70 3 70 7 0 4 8 10 18 13 10 3 19 16 20 28 4 51 1
93 -9 105 -8 8 -7 16 3 26 15 17 33 10 63 -23z m525 28 c0 -7 -6 -24 -13 -38
-18 -37 -6 -104 24 -129 18 -16 33 -20 59 -16 19 3 50 6 67 7 18 1 35 8 37 15
6 16 69 17 97 2 24 -12 42 -55 34 -80 -9 -28 -28 -23 -21 5 3 14 2 28 -4 31
-5 3 -11 -4 -11 -17 l-2 -23 -4 23 c-5 27 -36 29 -91 6 -26 -11 -64 -14 -130
-13 -89 3 -94 4 -118 32 -18 22 -24 40 -24 78 0 42 5 54 36 89 36 40 64 52 64
28z m-199 -212 c22 -43 38 -83 37 -88 -7 -19 -59 40 -87 98 -31 61 -36 85 -32
144 2 35 3 34 22 -20 11 -30 38 -90 60 -134z m-110 144 c5 0 3 -17 -5 -37 -8
-21 -17 -51 -21 -68 -6 -28 -58 -113 -78 -126 -11 -8 19 -61 58 -104 38 -41
43 -61 34 -148 -15 -130 -43 -163 -142 -166 -63 -2 -92 10 -137 59 -36 39 -52
69 -44 82 4 6 3 8 -4 4 -9 -5 -21 16 -27 44 -9 45 -81 159 -116 183 -26 19
-14 26 33 20 51 -7 121 -84 171 -187 51 -107 84 -146 122 -146 45 0 74 20 103
69 15 25 21 41 14 37 -9 -5 -12 7 -11 46 2 49 2 50 9 18 l7 -35 2 37 c1 24 -6
46 -21 65 -29 36 -45 62 -59 93 -6 14 -14 31 -18 38 -7 15 68 177 77 167 3 -3
-1 -20 -10 -38 -36 -71 -48 -97 -44 -97 13 0 78 139 83 178 4 26 9 39 11 30 2
-10 8 -18 13 -18z m-44 -32 c-3 -8 -6 -5 -6 6 -1 11 2 17 5 13 3 -3 4 -12 1
-19z m1956 -189 c30 -13 35 -33 10 -47 -9 -6 -14 -16 -10 -25 3 -9 1 -19 -5
-23 -7 -4 -8 -3 -4 4 14 23 -54 45 -124 40 -98 -7 -143 -35 -286 -174 -137
-133 -227 -190 -314 -199 -25 -3 -67 -7 -95 -9 -27 -3 -67 -8 -87 -12 -54 -10
-148 4 -148 22 0 8 -6 14 -12 14 -7 0 -5 5 5 11 13 8 27 7 47 -1 39 -16 125
-4 170 25 68 43 125 129 113 173 -3 11 -11 18 -18 16 -7 -3 -19 1 -26 9 -10 9
-34 12 -79 10 -156 -7 -176 -11 -257 -48 -77 -35 -86 -43 -180 -153 -55 -65
-113 -124 -129 -132 -16 -8 -31 -17 -34 -20 -18 -18 -214 -80 -253 -80 -30 0
-121 32 -133 46 -6 8 -13 11 -16 9 -3 -3 -11 2 -19 12 -12 15 -12 16 4 10 20
-7 21 -3 6 25 -12 23 -8 21 44 -15 16 -10 31 -16 34 -13 3 3 12 1 19 -5 21
-17 143 -14 206 4 62 19 115 60 194 148 65 74 122 130 164 161 34 26 159 84
204 95 39 10 180 12 165 2 -20 -13 7 -12 31 1 17 9 18 8 13 -7 -6 -16 -5 -16
10 -4 11 8 17 9 17 2 0 -6 11 -8 30 -4 24 4 36 0 56 -20 29 -30 27 -51 -17
-139 -30 -61 -28 -67 18 -44 15 8 50 24 78 36 80 35 148 85 242 178 48 48 96
93 106 101 46 37 191 47 260 20z m-1403 -39 c0 -5 -11 -17 -25 -26 -30 -20
-72 -80 -104 -149 -52 -114 -68 -140 -100 -172 -38 -37 -79 -48 -152 -41 -66
7 -93 31 -86 80 3 20 1 40 -4 45 -4 4 -10 28 -13 53 -4 36 -4 39 3 15 l9 -30
1 38 c1 28 -2 36 -11 31 -10 -5 -10 -4 -1 6 6 7 9 18 7 24 -2 6 16 34 40 61
25 28 45 45 46 38 0 -6 -5 -15 -10 -18 -6 -4 -8 -10 -5 -15 3 -5 -3 -22 -14
-37 -18 -26 -27 -86 -22 -159 1 -28 69 -74 108 -74 36 0 96 51 87 74 -3 8 -1
17 4 20 5 3 22 32 37 63 34 69 63 107 117 151 39 30 88 43 88 22z m-2226 -387
c11 -21 27 -47 35 -59 9 -11 -2 -1 -24 22 -22 24 -48 57 -59 74 l-18 32 23
-16 c13 -8 33 -32 43 -53z m83 37 c17 0 27 -7 30 -21 4 -14 8 -17 13 -9 5 8
13 9 21 4 8 -5 19 -9 24 -10 6 0 16 -2 23 -2 6 -1 12 -10 13 -19 0 -10 3 -13
5 -6 3 7 12 10 20 7 52 -16 50 -15 32 -25 -18 -10 -74 3 -143 32 -16 7 -33 12
-37 11 -12 -3 -92 44 -96 57 -3 9 6 8 33 -3 21 -9 49 -16 62 -16z m3346 2 c-5
-22 -23 -31 -23 -13 0 6 -21 -1 -47 -14 -61 -29 -136 -61 -143 -58 -3 1 -10
-3 -16 -8 -11 -9 -24 -2 -24 13 0 8 37 25 69 32 9 2 34 11 56 21 22 11 42 19
45 20 3 1 16 6 30 12 34 14 55 21 57 19 1 -1 0 -12 -4 -24z m-3993 -33 c0 -11
-4 -17 -10 -14 -5 3 -10 13 -10 21 0 8 5 14 10 14 6 0 10 -9 10 -21z m4724
-169 c41 -33 59 -57 70 -90 19 -55 28 -137 17 -144 -4 -3 -9 15 -10 41 -2 75
-37 136 -111 197 -41 33 -140 143 -140 156 0 4 27 -19 59 -53 33 -34 84 -82
115 -107z m-5094 87 c-21 -35 -48 -62 -84 -84 -85 -52 -85 -53 -57 -556 11
-189 7 -227 -22 -227 -9 0 -13 38 -14 138 -5 272 -3 544 4 570 8 36 78 138 99
146 14 6 15 4 4 -11 -7 -10 12 8 41 39 30 32 56 53 57 47 2 -5 -10 -33 -28
-62z m317 12 c-13 -13 -31 -25 -38 -27 -8 -1 -2 7 14 19 15 11 27 28 27 37 0
11 3 13 11 5 7 -7 4 -17 -14 -34z m-62 -49 c-3 -5 -1 -10 5 -10 6 0 8 -5 5
-10 -4 -6 -11 -7 -17 -4 -6 4 -8 2 -4 -4 9 -14 -7 -23 -23 -13 -11 7 -9 13 8
30 22 22 37 28 26 11z m1085 -51 c0 -24 5 -39 13 -40 9 0 9 -2 0 -6 -9 -3 -11
-18 -6 -49 4 -34 3 -44 -9 -44 -11 0 -14 20 -16 95 0 59 3 93 8 90 6 -4 10
-24 10 -46z m235 31 c3 -5 21 -10 39 -10 18 0 36 -3 40 -7 4 -4 17 -7 29 -8
33 0 36 -20 4 -23 -16 -2 -39 4 -52 12 -13 9 -30 16 -38 16 -17 0 -56 29 -40
30 6 0 15 -4 18 -10z m2155 -8 c-61 -30 -122 -52 -132 -46 -5 3 -33 -2 -64
-12 -30 -9 -57 -14 -61 -11 -3 4 -13 2 -22 -2 -15 -8 -68 -15 -206 -26 -71 -5
-178 -16 -220 -21 -47 -6 -125 -14 -185 -20 -100 -9 -451 0 -471 12 -6 3 -41
8 -77 11 -37 2 -85 6 -107 9 -22 2 -59 4 -82 4 -24 -1 -43 3 -43 8 0 14 12 22
24 15 6 -4 38 -8 71 -10 33 -2 71 -4 85 -5 14 0 40 2 59 6 22 5 31 5 27 -2 -7
-11 -20 -10 244 -20 218 -7 283 -5 274 9 -3 5 0 9 5 9 6 0 11 -5 11 -11 0 -8
14 -9 48 -4 44 7 73 9 229 17 35 2 63 5 63 8 0 3 19 5 43 5 23 0 65 3 92 8 28
4 59 9 70 11 11 2 28 7 38 11 10 4 21 5 24 2 3 -4 15 -1 26 4 22 13 161 41
194 40 12 0 25 4 28 9 3 6 16 10 28 10 18 -1 15 -4 -13 -18z m250 -74 c0 -50
-3 -89 -6 -85 -5 5 -7 54 -5 152 1 14 3 25 6 25 3 0 5 -41 5 -92z m-3787 45
c-7 -3 -13 -11 -13 -18 0 -8 -9 -20 -20 -28 -11 -8 -17 -17 -12 -22 4 -5 2 -5
-4 -2 -12 7 -29 -62 -25 -93 2 -10 -1 -12 -8 -5 -17 17 8 96 47 143 19 24 37
40 41 36 3 -4 0 -9 -6 -11z m1647 -18 c14 -1 25 -3 25 -5 0 -1 20 -4 45 -6 25
-3 46 -9 48 -14 2 -5 10 -6 18 -3 8 3 14 0 14 -7 0 -15 -105 -4 -164 16 -21 8
-54 14 -72 14 -31 0 -42 9 -29 22 4 3 25 1 48 -5 23 -5 53 -11 67 -12z m-550
-22 c1 -21 3 -93 7 -160 4 -91 2 -123 -7 -123 -33 0 -38 -25 -33 -171 3 -79 9
-148 14 -153 4 -5 24 -10 45 -12 20 -1 41 -7 47 -13 16 -16 -22 -14 -70 3
l-40 14 -2 -88 c-1 -51 2 -91 8 -95 6 -3 33 -9 61 -12 28 -3 53 -10 57 -16 4
-6 -4 -7 -21 -3 -21 5 -26 4 -20 -6 6 -9 1 -9 -16 2 -14 8 -34 15 -45 15 -18
0 -21 -9 -28 -100 -22 -290 -38 -388 -62 -379 -8 4 -15 17 -15 29 0 13 -5 27
-11 31 -12 7 -12 16 14 279 16 156 33 670 28 836 -2 90 -1 97 18 102 12 3 21
2 22 -1 0 -4 2 -26 3 -49 1 -23 5 -46 9 -49 4 -4 4 -24 1 -45 -4 -21 -3 -51 1
-66 l8 -28 6 24 c8 31 -7 218 -19 241 -10 18 -3 23 33 29 4 0 7 -16 7 -36z
m2589 -25 c-8 -5 -32 -17 -54 -27 -22 -10 -53 -32 -69 -49 -28 -30 -28 -34
-30 -145 0 -64 2 -119 6 -123 4 -3 32 6 62 22 l54 28 4 82 c3 79 10 105 25 90
9 -9 13 -167 6 -223 -5 -43 -23 -61 -23 -23 0 18 -2 18 -42 4 -76 -26 -97 -38
-102 -57 -3 -13 0 -17 10 -13 8 3 14 1 14 -4 0 -21 -38 -9 -44 13 -3 12 -6 97
-6 189 l0 168 38 20 c20 12 59 37 85 55 44 32 50 33 65 19 13 -13 13 -17 1
-26z m191 8 c-1 -21 -1 -21 -15 -2 -19 25 -19 37 0 30 8 -4 15 -16 15 -28z
m-2610 4 c0 -5 8 -10 19 -10 10 0 24 -7 32 -16 7 -9 32 -25 55 -36 l43 -20 0
-167 1 -168 -30 -1 c-17 0 -28 3 -25 8 3 4 -23 19 -57 32 l-63 24 -3 92 c-2
63 1 92 8 92 7 0 11 -16 10 -37 -4 -75 0 -114 10 -108 5 3 29 -5 53 -19 24
-15 49 -26 55 -26 9 0 12 34 12 115 l0 116 -48 48 c-28 28 -62 52 -80 56 -35
7 -44 35 -12 35 11 0 20 -4 20 -10z m590 -5 c0 -5 -11 -10 -25 -10 -14 0 -25
6 -25 12 0 7 11 12 25 11 14 -1 25 -7 25 -13z m-1679 -57 c1 -7 1 -16 0 -20 0
-5 4 -8 9 -8 6 0 10 -5 10 -11 0 -5 -6 -7 -12 -3 -9 5 -8 2 1 -9 33 -41 32
-166 -2 -225 -13 -23 -26 -39 -29 -36 -4 3 -15 -2 -26 -11 -20 -18 -114 -59
-170 -76 -47 -14 -62 -6 -61 33 1 24 3 27 6 11 6 -29 31 -30 103 -2 30 11 64
24 75 27 71 24 94 67 89 167 -6 134 -14 150 -69 140 -39 -7 -21 10 25 23 48
14 50 14 51 0z m4613 -4 c28 -11 17 -26 -13 -19 -26 5 -30 3 -35 -22 -13 -59
-11 -220 3 -237 19 -23 169 -96 197 -96 13 0 30 10 38 23 16 25 24 106 12 126
-5 7 -3 18 3 24 12 12 14 2 11 -103 -3 -111 -40 -124 -170 -61 -104 50 -131
72 -125 101 4 17 3 21 -4 11 -17 -27 -23 29 -12 113 23 158 19 146 51 146 15
0 35 -3 44 -6z m-3633 -45 c8 -15 8 -19 0 -15 -16 10 -14 -47 2 -63 10 -11 10
-14 0 -18 -14 -5 -18 -49 -5 -57 7 -4 7 -69 1 -161 -1 -16 -5 -1 -9 35 -9 74
-12 300 -5 300 2 0 9 -10 16 -21z m296 -1 c-3 -8 -6 -5 -6 6 -1 11 2 17 5 13
3 -3 4 -12 1 -19z m1673 18 c0 -3 -4 -8 -10 -11 -5 -3 -10 -1 -10 4 0 6 5 11
10 11 6 0 10 -2 10 -4z m37 -2 c-3 -3 -12 -4 -19 -1 -8 3 -5 6 6 6 11 1 17 -2
13 -5z m-1357 -14 c0 -5 -2 -10 -4 -10 -3 0 -8 5 -11 10 -3 6 -1 10 4 10 6 0
11 -4 11 -10z m1290 6 c0 -2 -7 -6 -15 -10 -8 -3 -15 -1 -15 4 0 6 7 10 15 10
8 0 15 -2 15 -4z m-85 -16 c4 -6 -14 -10 -47 -11 -29 0 -63 -2 -75 -3 -13 -2
-23 1 -23 5 0 5 28 10 63 12 34 2 65 4 69 5 4 1 10 -2 13 -8z m-3091 -19 c3
-5 -2 -15 -12 -22 -15 -12 -16 -12 -5 2 7 9 10 19 6 22 -3 4 -4 7 0 7 3 0 8
-4 11 -9z m2153 3 c-3 -3 -12 -4 -19 -1 -8 3 -5 6 6 6 11 1 17 -2 13 -5z m33
-4 c0 -5 -2 -10 -4 -10 -3 0 -8 5 -11 10 -3 6 -1 10 4 10 6 0 11 -4 11 -10z
m385 -3 c88 0 197 3 243 7 54 3 82 2 82 -5 0 -6 -3 -8 -8 -5 -4 2 -30 0 -57
-5 -60 -12 -488 -15 -562 -4 -88 12 -60 22 45 17 53 -3 169 -5 257 -5z m362 7
c-3 -3 -12 -4 -19 -1 -8 3 -5 6 6 6 11 1 17 -2 13 -5z m929 -61 c-1 -47 -5
-68 -15 -71 -8 -3 -11 0 -7 6 3 5 6 37 7 71 1 34 5 61 9 61 4 0 7 -30 6 -67z
m-384 -301 l2 -283 62 -19 c34 -10 70 -17 80 -14 11 2 33 0 49 -6 23 -8 12 -9
-53 -5 -45 2 -92 9 -103 16 -11 6 -23 8 -27 4 -6 -6 -10 -106 -13 -370 l-2
-140 -21 45 c-19 41 -21 63 -21 265 0 121 4 279 9 350 5 72 10 142 11 158 1
15 3 98 4 185 4 262 21 131 23 -186z m-3486 300 c-17 -16 -18 -16 -5 5 7 12
15 20 18 17 3 -2 -3 -12 -13 -22z m5080 -1 c-4 -5 -1 -11 6 -13 8 -3 8 -9 1
-23 -10 -17 -11 -17 -17 3 -7 20 -1 42 10 42 3 0 3 -4 0 -9z m-5079 -40 c0
-11 -5 -18 -9 -15 -4 3 -5 11 -1 19 7 21 12 19 10 -4z m3 -46 c0 -8 -4 -15
-10 -15 -5 0 -7 7 -4 15 4 8 8 15 10 15 2 0 4 -7 4 -15z m3863 -69 c-3 -28 -7
-63 -7 -78 -1 -16 -4 -28 -8 -28 -4 0 -7 35 -7 78 1 61 4 79 15 79 11 0 13
-11 7 -51z m-3874 18 c-6 -7 -9 -21 -5 -29 3 -9 2 -13 -4 -10 -13 8 -13 45 1
45 5 0 7 5 3 12 -4 7 -3 8 5 4 9 -6 9 -11 0 -22z m2457 -15 c-7 10 -3 11 15 5
31 -10 199 -11 206 -1 6 10 33 9 33 -3 0 -5 -7 -7 -15 -4 -8 4 -15 2 -15 -4 0
-8 -77 -23 -120 -22 -8 0 -35 0 -59 0 -25 0 -61 5 -80 12 -35 11 -35 12 -11
18 14 4 31 2 39 -4 12 -9 13 -8 7 3z m-107 -105 c1 -39 3 -42 34 -48 151 -31
208 -28 355 19 19 6 22 4 22 -20 0 -25 -2 -26 -17 -14 -12 10 -14 10 -9 1 14
-23 -47 -34 -199 -37 -77 -1 -131 2 -151 10 l-31 13 -5 -227 c-5 -224 -11
-268 -36 -252 -18 11 -24 76 -13 138 6 29 16 153 22 274 7 123 16 214 20 203
4 -10 8 -38 8 -60z m1362 51 c-18 -8 -36 -15 -40 -15 -13 1 45 29 59 29 8 0 0
-6 -19 -14z m-2451 -70 c0 -8 -2 -15 -4 -15 -2 0 -6 7 -10 15 -3 8 -1 15 4 15
6 0 10 -7 10 -15z m2270 -115 c0 -5 -2 -10 -4 -10 -3 0 -8 5 -11 10 -3 6 -1
10 4 10 6 0 11 -4 11 -10z m113 -16 c23 -3 69 -7 102 -9 33 -2 65 -4 70 -5 6
0 4 -4 -4 -9 -24 -16 -223 0 -229 18 -2 6 -8 9 -13 5 -12 -7 -31 5 -24 16 3 5
16 5 31 0 14 -6 44 -12 67 -16z m-2093 9 c-8 -3 -18 -10 -21 -15 -3 -4 -23 -9
-45 -11 -21 -1 -44 -6 -51 -10 -13 -8 -27 8 -19 21 3 5 24 9 47 10 23 1 45 4
47 7 3 3 17 5 31 4 16 0 20 -3 11 -6z m2390 -14 c0 -6 -4 -7 -10 -4 -5 3 -20
-1 -33 -10 -18 -11 -30 -13 -48 -6 -24 10 -24 10 -1 10 12 1 22 4 22 9 0 4 16
8 35 9 19 1 35 -3 35 -8z m-2540 -11 c0 -8 -29 -12 -65 -9 -11 1 -28 2 -37 2
-10 0 -18 4 -18 8 0 4 27 8 60 7 33 0 60 -4 60 -8z m155 -49 c-10 -15 -25 -10
-19 6 4 8 10 12 15 9 5 -3 7 -10 4 -15z m2013 7 c16 -3 30 -26 15 -26 -4 1
-24 10 -43 21 -23 13 -27 18 -11 13 13 -3 31 -7 39 -8z m-2378 -15 c0 -5 8
-12 18 -14 9 -3 4 -4 -12 -3 -31 3 -50 26 -22 26 9 0 16 -4 16 -9z m324 0 c3
-5 -2 -12 -12 -16 -23 -10 -230 -16 -236 -7 -2 4 32 9 77 10 112 4 135 7 143
15 10 10 22 9 28 -2z m2140 -8 c7 3 19 1 27 -4 10 -6 5 -9 -18 -9 -37 0 -63 9
-63 21 0 6 9 5 21 -1 11 -7 26 -9 33 -7z m-2409 -3 c3 -5 1 -10 -4 -10 -6 0
-11 5 -11 10 0 6 2 10 4 10 3 0 8 -4 11 -10z m2557 -15 c5 -6 8 -5 8 3 0 6 10
12 23 12 l22 -1 -22 -12 c-24 -13 -126 -10 -118 4 8 11 78 7 87 -6z m158 -79
c0 -3 -4 -8 -10 -11 -5 -3 -10 -1 -10 4 0 6 5 11 10 11 6 0 10 -2 10 -4z
m-2360 -14 c0 -12 -69 -28 -136 -31 -102 -5 -60 10 69 23 15 2 30 6 34 10 9 9
33 8 33 -2z m2322 -4 c-8 -8 -102 -28 -135 -28 -35 0 -13 9 54 23 75 16 93 17
81 5z m-2565 -24 c-3 -3 -12 -4 -19 -1 -8 3 -5 6 6 6 11 1 17 -2 13 -5z m40 0
c-3 -3 -12 -4 -19 -1 -8 3 -5 6 6 6 11 1 17 -2 13 -5z m2356 -1 c-7 -2 -19 -2
-25 0 -7 3 -2 5 12 5 14 0 19 -2 13 -5z"/>
<path d="M5251 6658 c-1 -21 3 -26 15 -21 9 3 11 9 6 12 -5 3 -12 13 -15 21
-3 9 -6 4 -6 -12z"/>
<path d="M4125 5874 c-31 -27 -33 -31 -9 -15 28 18 62 51 53 51 -2 0 -22 -16
-44 -36z"/>
<path d="M4795 5919 c-4 -6 -5 -12 -2 -15 2 -3 7 2 10 11 7 17 1 20 -8 4z"/>
<path d="M5781 5909 c0 -24 4 -53 9 -64 5 -12 6 4 3 40 -7 72 -13 85 -12 24z"/>
<path d="M3567 5545 c-4 -25 4 -40 17 -28 9 9 7 41 -3 47 -5 3 -11 -6 -14 -19z"/>
<path d="M3620 5516 c0 -31 32 -109 55 -134 l24 -26 -4 40 c-2 21 0 43 5 49 5
6 -10 25 -36 48 -30 26 -44 33 -44 23z"/>
<path d="M3571 5494 c18 -43 45 -94 51 -94 11 0 -29 94 -42 98 -7 3 -11 0 -9
-4z"/>
<path d="M3727 5243 c-9 -8 12 -33 27 -33 6 0 3 5 -7 11 -9 6 -15 14 -12 20 7
10 2 12 -8 2z"/>
<path d="M7493 5496 c-15 -12 -37 -28 -49 -34 -17 -9 -20 -19 -18 -74 1 -35 2
-67 3 -73 2 -16 47 38 70 83 20 39 39 122 28 122 -3 0 -18 -11 -34 -24z"/>
<path d="M4111 5303 c-12 -26 -6 -47 10 -37 5 3 7 10 4 15 -4 5 -1 9 5 9 7 0
11 -16 10 -42 -3 -60 -1 -70 8 -64 5 3 9 28 11 57 2 40 -2 55 -17 69 -19 18
-20 18 -31 -7z"/>
<path d="M4861 4944 c0 -11 3 -14 6 -6 3 7 2 16 -1 19 -3 4 -6 -2 -5 -13z"/>
<path d="M2671 4724 c0 -11 3 -14 6 -6 3 7 2 16 -1 19 -3 4 -6 -2 -5 -13z"/>
<path d="M3519 3713 c-1 -10 0 -43 1 -73 2 -30 3 -74 3 -97 0 -28 5 -43 13
-43 8 0 11 12 7 39 -5 38 -4 39 18 35 23 -5 23 -5 4 7 -11 6 -21 12 -21 13 -1
1 -5 12 -9 25 l-7 24 33 -24 c19 -13 41 -22 50 -21 21 4 34 -28 18 -42 -9 -8
-10 -8 -5 2 5 7 1 12 -9 12 -12 0 -15 -5 -11 -16 3 -9 6 -28 6 -42 0 -22 9
-32 48 -53 l47 -25 -2 100 c-1 56 -2 107 -2 114 -1 6 -6 12 -11 12 -6 0 -44
16 -84 35 -86 41 -86 41 -87 18z"/>
<path d="M3562 3530 c0 -14 2 -19 5 -12 2 6 2 18 0 25 -3 6 -5 1 -5 -13z"/>
<path d="M3675 2989 c-4 -6 -5 -12 -2 -15 2 -3 7 2 10 11 7 17 1 20 -8 4z"/>
<path d="M4920 2756 c0 -2 8 -10 18 -17 15 -13 16 -12 3 4 -13 16 -21 21 -21
13z"/>
<path d="M4970 2706 c0 -2 8 -10 18 -17 15 -13 16 -12 3 4 -13 16 -21 21 -21
13z"/>
<path d="M6698 4292 c-16 -2 -28 -6 -28 -10 0 -4 -14 -13 -31 -21 -17 -7 -35
-24 -41 -37 -6 -13 -14 -24 -18 -24 -3 0 -7 -17 -8 -37 -2 -21 -8 -41 -15 -46
-9 -7 -9 -10 1 -14 6 -2 12 -10 12 -16 0 -21 44 -107 54 -107 6 0 18 -15 27
-32 18 -37 71 -70 96 -61 10 4 14 2 10 -4 -4 -6 3 -10 18 -10 14 0 25 3 25 8
0 5 15 9 34 9 56 0 99 33 134 101 18 34 29 65 26 70 -3 5 -1 9 5 9 6 0 6 12 0
36 -6 19 -7 48 -4 64 3 16 2 31 -4 35 -7 4 -8 -1 -4 -12 6 -16 5 -16 -10 -4
-9 7 -17 20 -17 27 0 8 -11 20 -25 26 -14 6 -25 14 -25 18 0 19 -141 40 -212
32z"/>
<path d="M6560 4043 c0 -5 5 -15 10 -23 8 -12 10 -11 10 8 0 12 -4 22 -10 22
-5 0 -10 -3 -10 -7z"/>
<path d="M3720 3922 c0 -4 9 -8 20 -9 11 -1 18 2 15 8 -7 11 -35 12 -35 1z"/>
<path d="M3778 3903 c7 -3 16 -2 19 1 4 3 -2 6 -13 5 -11 0 -14 -3 -6 -6z"/>
<path d="M7307 3904 c-12 -13 3 -21 28 -17 13 3 22 9 19 14 -6 10 -38 12 -47
3z"/>
<path d="M5278 3823 c7 -3 16 -2 19 1 4 3 -2 6 -13 5 -11 0 -14 -3 -6 -6z"/>
<path d="M7381 3554 c0 -11 3 -14 6 -6 3 7 2 16 -1 19 -3 4 -6 -2 -5 -13z"/>
<path d="M7361 3474 c0 -11 3 -14 6 -6 3 7 2 16 -1 19 -3 4 -6 -2 -5 -13z"/>
<path d="M4391 3244 c0 -11 3 -14 6 -6 3 7 2 16 -1 19 -3 4 -6 -2 -5 -13z"/>
<path d="M7201 3584 c0 -11 3 -14 6 -6 3 7 2 16 -1 19 -3 4 -6 -2 -5 -13z"/>
<path d="M7151 3544 c0 -11 3 -14 6 -6 3 7 2 16 -1 19 -3 4 -6 -2 -5 -13z"/>
<path d="M7185 3510 c-4 -28 -5 -53 -2 -56 2 -3 7 19 11 47 4 28 5 53 3 56 -3
2 -8 -19 -12 -47z"/>
<path d="M7175 3428 c-11 -37 -16 -92 -7 -83 6 6 12 29 14 53 3 42 1 54 -7 30z"/>
<path d="M7117 3403 c-4 -3 -7 -11 -7 -17 0 -6 5 -5 12 2 6 6 9 14 7 17 -3 3
-9 2 -12 -2z"/>
<path d="M6722 3330 c0 -19 2 -27 5 -17 2 9 2 25 0 35 -3 9 -5 1 -5 -18z"/>
<path d="M6311 3314 c0 -11 3 -14 6 -6 3 7 2 16 -1 19 -3 4 -6 -2 -5 -13z"/>
<path d="M6721 3254 c0 -11 3 -14 6 -6 3 7 2 16 -1 19 -3 4 -6 -2 -5 -13z"/>
<path d="M3931 3480 c0 -8 4 -24 9 -35 5 -13 9 -14 9 -5 0 8 -4 24 -9 35 -5
13 -9 14 -9 5z"/>
<path d="M3950 3372 c0 -17 4 -34 10 -37 6 -4 7 6 3 27 -8 44 -13 48 -13 10z"/>
<path d="M4215 3280 c3 -5 8 -10 11 -10 2 0 4 5 4 10 0 6 -5 10 -11 10 -5 0
-7 -4 -4 -10z"/>
<path d="M5300 3310 c0 -5 5 -10 11 -10 5 0 7 5 4 10 -3 6 -8 10 -11 10 -2 0
-4 -4 -4 -10z"/>
<path d="M5315 3280 c-3 -5 -1 -10 4 -10 6 0 11 5 11 10 0 6 -2 10 -4 10 -3 0
-8 -4 -11 -10z"/>
<path d="M5320 3239 c0 -5 5 -7 10 -4 6 3 10 8 10 11 0 2 -4 4 -10 4 -5 0 -10
-5 -10 -11z"/>
<path d="M5796 3233 c-6 -14 -5 -15 5 -6 7 7 10 15 7 18 -3 3 -9 -2 -12 -12z"/>
<path d="M5810 3161 c0 -6 4 -13 10 -16 6 -3 7 1 4 9 -7 18 -14 21 -14 7z"/>
<path d="M5160 2936 c0 -2 8 -10 18 -17 15 -13 16 -12 3 4 -13 16 -21 21 -21
13z"/>
<path d="M6560 2916 c0 -2 7 -7 16 -10 8 -3 12 -2 9 4 -6 10 -25 14 -25 6z"/>
<path d="M5620 2703 c0 -6 8 -17 18 -24 16 -13 16 -13 2 6 -8 11 -16 22 -17
24 -2 2 -3 0 -3 -6z"/>
</g>
</svg>
