<?xml version="1.0" standalone="no"?>
<!DOCTYPE svg PUBLIC "-//W3C//DTD SVG 20010904//EN"
 "http://www.w3.org/TR/2001/REC-SVG-20010904/DTD/svg10.dtd">
<svg version="1.0" xmlns="http://www.w3.org/2000/svg"
 width="1080.000000pt" height="575.000000pt" viewBox="0 0 1080.000000 575.000000"
 preserveAspectRatio="xMidYMid meet">

<g transform="translate(0.000000,575.000000) scale(0.100000,-0.100000)"
fill="#000000" stroke="none">
<path d="M6301 5298 c-17 -21 -21 -32 -12 -37 8 -5 6 -13 -9 -26 -11 -10 -23
-15 -26 -12 -4 3 -16 1 -28 -5 -19 -10 -20 -10 -8 5 12 14 11 15 -19 7 -17 -5
-39 -16 -49 -25 -9 -8 -21 -15 -26 -15 -9 0 -100 -98 -117 -126 -10 -17 -96
-64 -117 -64 -17 0 -70 -100 -70 -133 0 -8 -22 -38 -49 -66 -46 -48 -70 -98
-57 -120 3 -5 -8 -26 -25 -47 -17 -22 -35 -46 -40 -55 -16 -30 -41 -164 -44
-239 -2 -41 -9 -110 -16 -153 -7 -45 -8 -82 -3 -87 14 -13 43 -14 125 -6 76 7
77 8 83 39 4 19 10 27 14 21 5 -9 11 -8 20 2 7 8 9 14 5 14 -4 0 0 5 10 11 19
11 24 31 5 24 -9 -4 -14 9 -16 42 -2 26 0 44 5 40 4 -5 8 -17 8 -27 0 -35 20
-26 33 14 10 30 10 47 2 67 -9 21 -8 34 5 60 33 70 75 134 86 131 6 -2 9 4 6
12 -3 7 5 24 19 37 13 12 24 30 24 38 1 20 24 51 38 51 6 0 35 28 64 62 29 34
84 92 121 129 61 60 67 70 61 95 -4 16 -11 34 -15 40 -11 13 24 44 71 64 44
18 83 56 98 98 35 95 34 93 48 81 8 -6 14 -17 14 -23 0 -6 16 -22 35 -36 47
-34 103 -119 115 -177 6 -26 12 -57 15 -69 2 -11 14 -31 26 -45 l22 -24 -6 75
c-6 82 -44 188 -80 229 -12 13 -57 50 -101 83 -64 48 -89 61 -135 69 -78 13
-83 12 -110 -23z m-101 -102 c0 -3 -15 -14 -32 -26 l-33 -22 30 26 c31 27 35
29 35 22z m-235 -228 c-70 -76 -70 -77 -45 -33 25 44 79 100 87 91 4 -3 -16
-29 -42 -58z m-68 -15 c-3 -10 -5 -4 -5 12 0 17 2 24 5 18 2 -7 2 -21 0 -30z
m248 -43 c3 -5 -1 -10 -9 -10 -9 0 -16 5 -16 10 0 6 4 10 9 10 6 0 13 -4 16
-10z m80 -30 c-9 -16 -20 -30 -26 -30 -6 0 -7 5 -3 12 5 8 2 9 -9 5 -30 -12
-18 9 16 26 17 8 33 16 35 16 1 1 -4 -12 -13 -29z m-359 -38 c-18 -16 -18 -16
-6 6 6 13 14 21 18 18 3 -4 -2 -14 -12 -24z m-56 -61 c0 -5 -8 -15 -17 -22
-10 -7 -15 -9 -11 -5 4 5 3 15 -3 23 -9 10 -7 13 10 13 11 0 21 -4 21 -9z
m164 -178 c-9 -21 -18 -33 -21 -26 -2 6 3 28 13 50 9 21 18 33 21 26 2 -6 -3
-28 -13 -50z m-274 -117 c0 -3 -4 -8 -10 -11 -5 -3 -10 -1 -10 4 0 6 5 11 10
11 6 0 10 -2 10 -4z m122 -78 c-7 -7 -12 -8 -12 -2 0 14 12 26 19 19 2 -3 -1
-11 -7 -17z m45 -100 c-3 -8 -6 -5 -6 6 -1 11 2 17 5 13 3 -3 4 -12 1 -19z"/>
<path d="M6490 5120 c0 -5 -6 -7 -13 -5 -7 3 -23 -13 -37 -36 -14 -22 -35 -45
-47 -50 -13 -5 -23 -16 -23 -25 0 -12 6 -15 23 -11 21 6 22 4 25 -86 5 -155 8
-181 20 -203 14 -26 51 -38 58 -19 3 7 16 16 28 19 36 9 73 48 81 86 4 19 12
41 17 48 8 9 5 12 -8 13 -11 0 -14 3 -6 6 6 2 12 14 12 24 0 11 -4 17 -10 14
-5 -3 -12 7 -16 22 -24 109 -37 148 -60 179 -26 33 -44 44 -44 24z"/>
<path d="M6616 5057 c3 -10 9 -15 12 -12 3 3 0 11 -7 18 -10 9 -11 8 -5 -6z"/>
<path d="M6711 4784 c0 -11 3 -14 6 -6 3 7 2 16 -1 19 -3 4 -6 -2 -5 -13z"/>
<path d="M3842 4586 c-2 -26 4 -28 121 -42 31 -3 57 -10 57 -14 0 -10 58 -25
83 -21 9 1 20 -4 23 -12 5 -15 27 -17 41 -3 11 10 -18 26 -49 26 -34 0 -58 9
-58 22 0 7 22 8 63 4 61 -7 62 -7 32 9 -49 27 -175 55 -245 55 -62 0 -66 -1
-68 -24z"/>
<path d="M6266 4590 c-19 -6 -19 -7 2 -12 12 -4 24 -2 27 2 8 13 -8 18 -29 10z"/>
<path d="M3699 4586 c-2 -2 -31 -7 -64 -10 -72 -8 -134 -21 -143 -32 -4 -4 16
-3 43 2 28 5 100 9 162 9 111 1 141 8 113 25 -14 9 -102 14 -111 6z"/>
<path d="M6348 4583 c7 -3 16 -2 19 1 4 3 -2 6 -13 5 -11 0 -14 -3 -6 -6z"/>
<path d="M6390 4575 c-10 -13 -9 -15 12 -15 13 0 33 7 44 15 18 14 17 14 -12
15 -17 0 -37 -7 -44 -15z"/>
<path d="M3365 4507 c-120 -65 -265 -187 -298 -252 l-15 -30 72 -68 c39 -37
81 -70 92 -73 12 -3 42 -29 66 -57 42 -48 49 -52 91 -53 62 -2 182 -57 173
-80 -3 -9 -6 -16 -6 -17 0 -1 -22 0 -50 1 -32 3 -50 0 -50 -7 0 -6 -6 -11 -14
-11 -17 0 -30 -48 -17 -64 6 -7 13 -32 17 -56 4 -27 20 -61 38 -85 18 -22 38
-53 46 -68 8 -15 30 -47 49 -69 27 -32 31 -40 16 -35 -17 6 -16 4 4 -14 18
-14 32 -18 50 -14 33 9 33 8 23 36 -13 32 -32 115 -32 136 0 9 -7 25 -17 35
-15 17 -15 18 7 18 32 0 49 28 50 81 0 36 -8 57 -39 106 -43 66 -90 111 -124
117 -12 3 -43 8 -69 11 -27 3 -48 10 -48 15 0 16 98 96 156 127 130 69 324 94
459 59 107 -28 254 -108 333 -181 40 -37 72 -73 72 -80 0 -7 6 -15 14 -18 15
-6 116 -175 116 -195 0 -7 5 -10 10 -7 6 3 13 -1 16 -9 3 -9 10 -13 15 -10 5
3 6 -2 3 -10 -3 -9 -11 -13 -16 -10 -6 4 -8 -1 -4 -12 55 -184 8 -442 -108
-589 -17 -22 -39 -52 -48 -67 -11 -16 -35 -32 -66 -42 -27 -9 -62 -30 -78 -47
-26 -27 -30 -28 -41 -13 -11 14 -16 15 -42 4 -34 -14 -50 -47 -30 -62 11 -8
10 -9 -3 -5 -9 3 -19 3 -22 0 -3 -3 -23 -7 -44 -8 -75 -6 -82 -15 -82 -108 0
-111 5 -127 41 -127 23 0 29 -4 29 -22 0 -25 -20 -63 -20 -39 0 7 -6 11 -15 7
-9 -3 -15 0 -15 10 0 8 -4 13 -9 9 -5 -3 -13 0 -16 6 -4 5 -13 8 -20 5 -25 -9
-42 28 -49 108 -8 91 -10 96 -37 96 -10 0 -19 7 -19 15 0 8 -4 15 -10 15 -5 0
-10 4 -10 9 0 5 17 8 38 6 20 -1 29 -1 20 2 -24 6 -42 30 -28 38 5 3 10 1 10
-5 0 -6 5 -8 11 -5 7 5 5 13 -5 24 -9 10 -16 24 -16 32 0 8 3 10 8 4 10 -14
42 -18 42 -5 0 5 -5 10 -11 10 -5 0 -7 5 -4 10 3 6 -1 13 -9 16 -9 3 -16 13
-16 21 0 8 -4 12 -9 8 -6 -3 -15 3 -20 14 -16 28 12 22 40 -10 l21 -24 -7 25
c-4 14 -13 28 -19 32 -6 4 -7 10 -3 14 4 4 2 13 -4 20 -13 16 -4 48 10 39 5
-3 13 0 17 6 4 6 -1 16 -10 21 -9 5 -16 14 -16 21 0 8 3 8 9 -1 7 -11 9 -11
14 1 3 7 1 20 -4 28 -7 12 -9 12 -9 0 0 -8 -3 -12 -6 -9 -3 4 2 17 10 30 9 14
13 28 9 31 -3 4 -4 7 -2 7 2 0 22 7 44 15 l40 14 -32 1 c-20 0 -43 -9 -61 -25
l-30 -25 -24 42 c-16 31 -37 50 -71 67 -57 28 -56 37 1 17 51 -18 55 -5 6 19
-47 22 -144 28 -144 9 0 -8 7 -14 15 -14 8 0 14 -4 12 -9 -2 -10 11 -11 31 -3
7 2 16 2 19 -2 4 -3 -1 -6 -10 -6 -20 0 -22 -15 -4 -29 65 -54 76 -61 83 -50
3 6 0 15 -7 20 -7 4 -11 10 -8 14 9 8 52 -29 71 -61 16 -28 15 -30 -10 -59
-14 -17 -23 -23 -20 -14 3 8 -2 33 -13 55 -10 21 -18 35 -19 30 0 -4 -16 4
-36 19 -19 15 -38 24 -42 20 -4 -4 2 -12 12 -19 10 -6 31 -21 45 -34 l26 -23
-30 20 c-16 11 -47 27 -67 36 -33 13 -37 13 -32 0 4 -10 0 -15 -15 -15 -37 0
-60 69 -44 129 5 21 10 23 49 18 42 -4 42 -4 24 16 -11 11 -17 23 -15 27 10
16 -27 19 -41 5 -19 -18 -25 -19 -21 -2 1 7 -9 12 -25 13 -18 1 -51 21 -95 59
-105 90 -154 165 -161 249 -5 62 -21 87 -83 126 -27 18 -47 36 -44 40 3 5 0
12 -6 16 -8 4 -9 3 -5 -4 11 -18 -5 -13 -54 17 -39 24 -45 32 -42 57 2 16 9
32 15 36 8 5 6 8 -6 8 -10 0 -30 9 -45 20 -15 11 -45 27 -67 36 -35 14 -38 15
-26 0 22 -26 2 -18 -40 15 -22 17 -65 39 -97 49 -31 10 -48 19 -37 20 11 1 -2
8 -30 15 l-50 13 80 -4 80 -3 -63 13 c-34 7 -65 16 -68 18 -3 3 3 14 13 23 17
17 17 18 -10 13 -15 -3 -27 -1 -27 4 0 5 -4 7 -8 4 -9 -5 -140 38 -151 50 -5
6 23 -1 58 -14 9 -3 12 -1 7 6 -4 7 -6 12 -4 12 3 0 205 -43 278 -59 19 -4 57
-17 83 -29 26 -12 45 -17 43 -13 -3 5 -19 14 -36 21 -22 9 -28 15 -18 21 22
14 -90 57 -192 74 -144 23 -213 36 -234 42 -12 3 -16 1 -12 -6 11 -18 -24 -1
-83 41 -30 21 -62 38 -72 38 -29 0 -48 -11 -43 -24 3 -7 -2 -34 -11 -59 -11
-34 -13 -52 -6 -65 6 -9 11 -11 11 -5 0 7 10 12 22 10 16 -1 23 5 30 30 10 38
49 68 75 58 10 -3 36 -22 58 -42 l40 -36 -58 32 c-55 29 -60 30 -80 15 l-22
-16 23 5 c12 3 22 1 22 -5 0 -5 4 -7 9 -4 5 3 2 -13 -6 -36 -8 -23 -12 -50
-10 -60 3 -11 1 -15 -5 -12 -10 6 -6 52 6 84 5 11 -1 15 -19 15 -22 0 -25 -4
-25 -33 0 -20 -4 -31 -10 -27 -26 16 -28 -9 -3 -42 l28 -37 -25 8 c-44 13
-140 23 -140 14 0 -8 -140 -1 -149 8 -2 2 18 4 45 4 33 1 44 3 34 9 -14 9 -72
14 -115 12 -20 -2 -20 -2 -1 -16 19 -14 19 -15 1 -15 -10 0 -15 -3 -11 -7 3
-4 30 -6 59 -6 63 2 52 -1 -83 -22 -130 -20 -330 -81 -349 -106 -9 -13 -26
-19 -52 -19 -25 0 -65 -13 -111 -37 -44 -22 -89 -38 -113 -39 -22 -1 -59 -6
-83 -12 -35 -8 -41 -8 -32 3 11 13 30 18 129 35 29 5 92 28 140 51 l86 42 -35
8 c-43 10 -132 -9 -214 -46 -32 -14 -63 -24 -68 -23 -11 4 101 61 155 79 20 7
37 16 37 20 0 13 85 49 114 49 26 0 240 45 276 58 37 13 -27 12 -147 -2 -161
-18 -389 -92 -522 -168 -135 -77 -259 -170 -314 -235 -75 -89 -166 -183 -178
-183 -12 0 -89 -118 -89 -137 0 -7 -4 -13 -9 -13 -13 0 -61 -117 -61 -148 l1
-27 15 28 c8 16 24 37 35 48 10 10 19 24 19 30 0 6 6 9 14 6 15 -6 31 18 27
41 -2 14 22 42 36 42 13 0 53 56 53 74 0 7 13 27 29 42 90 89 107 104 117 104
13 0 74 63 74 77 0 13 65 57 100 68 14 4 38 17 54 28 23 16 30 17 36 6 9 -13
-3 -37 -27 -52 -18 -11 -4 -37 21 -37 11 0 32 9 46 20 14 11 32 20 40 19 9 0
5 -7 -12 -20 -15 -11 -70 -64 -122 -117 -83 -85 -103 -100 -160 -120 -80 -29
-160 -87 -151 -110 3 -9 2 -13 -2 -8 -11 11 -10 49 2 59 6 5 4 7 -5 4 -8 -2
-15 -8 -16 -13 -2 -21 -17 -44 -25 -38 -5 3 -9 0 -9 -6 0 -6 -4 -9 -9 -6 -8 5
-21 -25 -26 -59 0 -5 -6 -23 -13 -38 -24 -56 -9 -62 45 -19 68 55 83 71 77 86
-3 9 -1 16 6 16 6 0 8 -4 5 -10 -13 -21 43 -9 59 13 10 12 7 4 -6 -18 -12 -22
-37 -67 -55 -100 -35 -65 -42 -69 -18 -11 8 20 12 36 7 36 -41 0 -171 -132
-145 -148 20 -14 11 -42 -15 -42 -15 0 -26 -7 -29 -19 -3 -11 -18 -24 -33 -30
-29 -10 -55 -43 -42 -55 3 -4 -1 -4 -10 -1 -11 4 -20 -3 -29 -25 -10 -22 -19
-30 -31 -26 -16 4 -18 -3 -17 -52 0 -39 3 -51 8 -37 5 11 7 23 5 26 -2 4 3 12
11 19 8 7 15 19 15 26 0 8 5 14 11 14 5 0 8 3 6 8 -3 4 1 12 7 18 9 9 18 5 37
-15 l24 -26 30 45 c27 40 145 165 145 153 0 -15 -29 -53 -81 -106 -32 -33 -65
-74 -74 -91 -25 -50 -51 -95 -65 -111 -14 -17 -3 -20 19 -6 9 6 19 4 29 -6 12
-12 17 -12 24 -1 8 10 9 10 5 -2 -2 -9 -16 -15 -33 -16 -46 -1 -58 -4 -51 -11
4 -3 2 -12 -3 -19 -6 -6 -9 -16 -8 -20 3 -9 -5 -14 -23 -14 -8 0 -7 5 2 16 11
13 10 17 -4 25 -10 6 -18 24 -19 42 -2 34 -10 -82 -23 -318 l-8 -141 27 -12
c18 -8 26 -19 26 -36 0 -46 -37 -102 -41 -63 -3 28 -17 -93 -18 -154 -1 -63 1
-68 44 -124 79 -101 201 -309 249 -424 40 -94 63 -124 121 -153 22 -11 77 -56
123 -100 90 -86 129 -108 191 -108 33 0 49 -8 95 -49 76 -66 152 -104 298
-150 144 -46 152 -48 283 -61 55 -5 136 -19 180 -32 69 -19 104 -22 255 -22
187 1 274 12 391 49 l73 23 -129 4 c-101 3 -138 8 -167 23 -59 29 -44 34 30 9
106 -37 295 -30 404 13 21 8 35 19 32 24 -3 5 -13 5 -24 -1 -10 -5 -26 -7 -35
-4 -11 5 1 14 42 32 32 13 71 30 88 38 35 15 40 13 26 -15 -10 -18 -9 -20 6
-14 37 13 131 85 127 97 -3 7 12 21 33 33 30 16 59 21 133 22 71 2 99 6 112
18 32 28 15 56 -37 61 -49 4 -64 13 -40 22 12 4 23 3 27 -4 5 -7 8 -4 8 7 0 9
5 17 11 17 7 0 10 12 7 29 -3 18 0 28 5 24 6 -4 8 2 5 13 -14 47 -13 49 15 52
l27 3 -17 30 c-10 16 -23 29 -30 29 -7 0 -13 9 -13 20 0 11 -4 20 -10 20 -5 0
-10 6 -10 14 0 8 -14 28 -31 45 -23 24 -40 31 -72 32 -33 2 -36 3 -12 6 17 2
37 6 45 10 24 9 -38 32 -87 33 -24 0 -43 4 -43 10 0 18 33 27 83 22 47 -5 51
-4 38 11 -12 15 -11 17 8 17 24 0 27 10 9 28 -9 9 -7 12 10 12 12 0 22 -6 22
-12 0 -10 2 -10 9 0 6 10 15 9 44 -8 39 -23 49 -49 20 -46 -12 1 -17 -5 -16
-19 1 -11 -4 -23 -10 -27 -8 -5 -7 -12 5 -25 8 -10 23 -32 32 -50 8 -17 22
-37 29 -45 11 -11 12 -27 6 -73 -5 -33 -6 -68 -3 -79 4 -11 2 -16 -4 -12 -5 3
-16 -9 -23 -27 -7 -17 -19 -38 -26 -45 -7 -7 -13 -18 -13 -23 0 -15 17 -10 24
7 3 8 10 13 14 10 18 -11 45 21 51 59 5 34 13 43 59 69 48 28 54 36 69 85 12
42 30 70 77 120 50 54 136 181 136 203 0 2 -26 3 -57 2 -32 -1 -42 0 -23 2 61
7 78 13 109 40 30 25 31 28 31 114 0 101 14 178 42 233 23 46 40 54 76 36 15
-7 30 -15 35 -17 4 -2 7 27 7 65 0 37 4 74 8 81 5 7 44 19 88 26 136 25 178
36 224 63 71 42 277 240 311 300 30 52 44 69 32 37 -5 -14 -3 -15 16 -4 24 12
52 66 45 85 -3 6 11 19 31 28 20 9 38 24 41 32 4 8 13 15 20 15 32 0 38 86 8
110 -7 6 -12 17 -10 23 1 7 1 9 -1 5 -3 -5 -16 -8 -31 -8 -23 0 -22 3 20 29
25 16 53 39 62 52 23 33 21 108 -4 139 -11 14 -20 31 -20 38 0 6 -9 21 -19 31
-17 17 -18 25 -9 58 5 21 11 59 12 85 2 42 1 46 -15 38 -15 -9 -18 -5 -19 33
-3 118 -5 126 -45 188 -47 75 -89 130 -124 163 -41 37 -47 56 -23 64 7 2 12
-5 12 -17 0 -11 11 -33 25 -48 l24 -28 -5 40 c-8 70 -12 75 -54 75 -21 0 -42
4 -45 10 -3 6 -19 1 -39 -12 -23 -15 -37 -35 -48 -72 l-16 -51 1 45 c1 34 7
50 26 66 l25 22 -18 40 c-25 55 -65 92 -97 89 -20 -1 -34 8 -60 42 -19 23 -46
50 -61 59 -26 15 -28 15 -42 -3 -14 -19 -16 -18 -64 28 -32 32 -58 48 -77 50
-17 1 -30 -3 -30 -10 0 -25 -16 -25 -43 0 -46 44 -132 65 -132 32 0 -20 -20
-19 -49 2 -37 25 -201 30 -275 9 -32 -10 -70 -25 -85 -35 -14 -10 -38 -26 -53
-35 -16 -9 -28 -25 -28 -36 0 -27 -20 -36 -27 -11 -7 26 -17 26 -54 0 -24 -17
-29 -18 -29 -5 0 18 -15 21 -25 6 -9 -15 -42 -12 -48 4 -4 10 20 32 76 69 45
30 91 59 102 65 11 6 16 11 10 11 -5 1 -37 -14 -70 -32z m-107 -187 c16 -35 9
-50 -24 -50 -13 0 -24 -4 -24 -10 0 -16 -30 -12 -36 5 -6 16 42 85 60 85 6 0
17 -13 24 -30z m-777 -100 c6 0 7 -5 3 -11 -5 -8 -10 -6 -16 5 -5 9 -13 14
-17 12 -4 -3 -16 9 -26 27 l-19 32 33 -32 c18 -18 37 -33 42 -33z m77 -25 c12
-4 20 -11 17 -16 -4 -5 -2 -9 4 -9 5 0 17 -3 27 -7 12 -4 15 -3 10 5 -5 8 2
12 23 12 16 0 33 -5 36 -10 4 -6 10 -8 15 -5 14 9 60 -14 60 -30 0 -12 4 -14
19 -6 14 8 22 7 32 -5 9 -11 22 -14 44 -10 25 5 36 1 53 -17 12 -13 19 -26 16
-30 -4 -3 -7 -17 -8 -29 -2 -34 -42 -37 -57 -4 -12 25 -78 76 -99 76 -6 0 -32
9 -58 19 -26 10 -73 24 -105 31 -37 7 -55 15 -50 22 4 8 0 9 -11 5 -11 -5 -15
-3 -10 5 5 8 2 9 -10 5 -10 -4 -15 -3 -11 4 4 5 14 8 23 5 10 -2 27 -7 40 -11z
m-140 -51 c13 -2 20 -9 17 -14 -3 -5 5 -11 17 -13 13 -2 10 -3 -7 -1 -45 6
-126 29 -120 35 5 6 50 2 93 -7z m-173 -19 c30 -13 30 -13 5 -15 -14 -1 -70
-3 -125 -5 -75 -2 -92 0 -70 7 25 8 111 23 150 26 6 1 24 -5 40 -13z m-995
-90 c0 -2 -13 -11 -30 -20 -38 -19 -40 -11 -2 9 31 17 32 18 32 11z m1155
-191 c182 -12 386 -65 540 -141 171 -84 329 -243 460 -463 44 -74 82 -139 84
-145 16 -43 86 -145 100 -145 14 0 14 -2 1 -10 -9 -6 -17 -5 -21 2 -4 6 -10 2
-14 -11 -3 -11 -10 -21 -14 -21 -19 0 -33 -63 -31 -137 4 -107 4 -106 -25
-101 -21 4 -27 -2 -51 -50 -34 -69 -45 -117 -37 -164 7 -46 14 -48 31 -8 8 17
18 30 24 30 7 0 5 -7 -3 -17 -22 -28 -39 -61 -39 -78 0 -23 15 -18 30 10 7 14
17 25 22 25 14 0 9 -16 -10 -33 -10 -9 -37 -54 -60 -99 -24 -46 -56 -99 -73
-118 -17 -19 -28 -30 -25 -23 4 6 -3 19 -15 27 -27 18 -105 11 -131 -12 -20
-17 -41 -75 -36 -99 3 -14 7 -11 18 12 9 16 23 31 34 33 27 6 12 -31 -40 -99
-28 -37 -40 -59 -33 -66 14 -14 -68 -80 -141 -114 -14 -6 -33 -15 -43 -21 -54
-28 -277 -92 -377 -109 -140 -23 -213 -24 -234 -4 -11 11 -39 15 -110 15 -93
0 -184 16 -197 33 -4 5 -31 11 -60 12 -63 4 -102 17 -219 73 -47 22 -95 43
-108 47 -55 16 -278 244 -327 335 -91 171 -109 211 -141 308 -50 151 -58 252
-33 398 11 66 26 123 35 131 9 9 12 23 8 35 -4 15 -3 18 6 13 8 -5 11 -4 6 3
-3 6 3 25 15 44 11 18 43 71 71 118 54 92 170 240 240 306 79 76 323 204 387
204 12 0 21 4 21 8 0 14 95 32 240 47 74 8 143 15 153 15 11 0 15 4 11 12 -5
8 0 9 17 4 13 -4 56 -10 94 -12z m1113 -16 c19 -19 14 -30 -8 -18 -14 7 -20 7
-20 0 0 -6 -7 -6 -20 2 -11 7 -20 16 -20 20 0 13 55 9 68 -4z m-228 -54 c0 -8
-5 -14 -10 -14 -6 0 -3 -11 6 -25 24 -37 10 -42 -15 -6 -18 25 -20 33 -9 50
13 21 28 19 28 -5z m280 6 c0 -5 -7 -7 -15 -4 -8 4 -12 10 -9 15 6 11 24 2 24
-11z m-365 -10 c3 -5 1 -10 -5 -10 -6 0 -22 -8 -36 -17 -25 -16 -25 -18 -8
-30 10 -7 15 -16 11 -19 -12 -12 -38 19 -35 40 2 11 14 26 28 33 30 15 37 16
45 3z m340 -76 c36 -32 37 -34 10 -21 -31 16 -75 57 -59 57 5 -1 27 -17 49
-36z m-244 -42 c-7 -2 -18 1 -23 6 -8 8 -4 9 13 5 13 -4 18 -8 10 -11z m9 -42
c0 -5 -4 -10 -9 -10 -6 0 -13 5 -16 10 -3 6 1 10 9 10 9 0 16 -4 16 -10z m46
-48 c-4 -3 -14 2 -24 12 -16 18 -16 18 6 6 13 -6 21 -14 18 -18z m1331 -134
c-3 -7 -5 -2 -5 12 0 14 2 19 5 13 2 -7 2 -19 0 -25z m-3916 -155 c-12 -20
-14 -14 -5 12 4 9 9 14 11 11 3 -2 0 -13 -6 -23z m3096 -113 c1 -14 -4 -20
-18 -20 -23 0 -24 4 -3 24 19 20 19 20 21 -4z m-90 -15 c0 -8 -4 -15 -9 -15
-4 0 -8 7 -8 15 0 8 4 15 8 15 5 0 9 -7 9 -15z m-35 -2 c-10 -4 -10 -8 0 -21
10 -14 10 -15 -2 -5 -11 10 -17 10 -28 0 -13 -11 -14 -9 -1 11 8 12 21 22 29
21 11 0 11 -2 2 -6z m-3025 -45 c-9 -32 -13 -37 -15 -21 -3 19 13 63 22 63 2
0 -1 -19 -7 -42z m3139 -55 c-5 -5 -36 50 -36 64 0 4 9 -7 21 -26 11 -18 18
-35 15 -38z m-203 15 c-6 -54 21 -104 69 -129 20 -10 39 -28 43 -39 3 -11 11
-20 16 -20 15 0 10 13 -18 43 -25 26 -25 28 -6 18 43 -22 94 -121 63 -121 -5
0 -10 5 -10 10 0 6 -7 10 -15 10 -8 0 -15 6 -15 12 0 14 -87 98 -101 98 -27 0
-54 118 -34 150 11 17 12 11 8 -32z m161 14 c3 -5 -1 -9 -9 -9 -8 0 -12 4 -9
9 3 4 7 8 9 8 2 0 6 -4 9 -8z m906 -21 c0 -6 -4 -13 -10 -16 -5 -3 -10 1 -10
9 0 9 5 16 10 16 6 0 10 -4 10 -9z m-4029 -69 c-6 -26 -12 -112 -13 -191 l-3
-145 -27 -15 c-18 -11 -37 -37 -53 -76 -18 -42 -24 -50 -19 -26 7 36 43 121
62 143 6 7 13 47 16 88 4 41 9 87 12 103 10 48 -21 32 -65 -34 -23 -34 -41
-55 -41 -48 0 8 7 23 15 33 8 11 15 28 15 38 0 10 14 30 31 45 22 20 29 34 26
51 -3 16 0 22 8 18 8 -3 17 12 26 42 16 58 25 37 10 -26z m3007 43 c-3 -3 -9
2 -12 12 -6 14 -5 15 5 6 7 -7 10 -15 7 -18z m109 -84 c-1 -3 5 -17 12 -31
l13 -25 -23 22 c-13 13 -37 34 -54 49 l-30 26 33 -22 c17 -12 32 -17 32 -11 0
6 -9 16 -20 23 -11 7 -20 17 -20 22 0 5 13 -3 30 -19 16 -15 28 -31 27 -34z
m-3197 39 c0 -5 -5 -10 -11 -10 -5 0 -7 5 -4 10 3 6 8 10 11 10 2 0 4 -4 4
-10z m3719 -108 c-8 -2 -27 -8 -44 -13 -28 -8 -29 -8 -10 6 11 8 25 18 30 23
6 6 15 5 24 -1 11 -10 11 -12 0 -15z m285 -10 c3 -5 -16 -26 -42 -47 -26 -22
-40 -30 -32 -20 24 33 49 55 60 55 6 0 8 5 5 10 -3 6 -4 10 -1 10 3 0 7 -4 10
-8z m-887 -34 c-3 -8 -6 -5 -6 6 -1 11 2 17 5 13 3 -3 4 -12 1 -19z m-60 -5
c3 -7 -5 -20 -16 -30 -12 -9 -21 -28 -21 -41 0 -13 -3 -21 -7 -19 -5 3 -9 -11
-10 -31 -3 -54 -12 -84 -24 -76 -12 7 -5 83 13 127 8 21 8 31 -1 40 -6 6 -11
19 -11 30 0 15 6 18 37 15 20 -2 38 -8 40 -15z m129 -40 c-2 -16 -5 -32 -6
-38 -1 -5 -5 -1 -9 10 -5 11 -3 28 3 38 15 24 17 22 12 -10z m-118 -44 c-3 -8
-7 -3 -11 10 -4 17 -3 21 5 13 5 -5 8 -16 6 -23z m-3118 6 c0 -8 -4 -15 -10
-15 -5 0 -7 7 -4 15 4 8 8 15 10 15 2 0 4 -7 4 -15z m3780 -95 c0 -5 -4 -10
-10 -10 -5 0 -10 5 -10 10 0 6 5 10 10 10 6 0 10 -4 10 -10z m-3777 -54 c3 -8
0 -17 -8 -19 -11 -5 -13 6 -6 31 2 6 9 0 14 -12z m3607 -31 c0 -10 -11 -15
-35 -15 -24 0 -35 5 -35 15 0 10 11 15 35 15 24 0 35 -5 35 -15z m-3480 -26
c0 -5 -4 -9 -10 -9 -5 0 -10 7 -10 16 0 8 5 12 10 9 6 -3 10 -10 10 -16z m10
-68 c5 -17 6 -31 2 -31 -11 0 -53 -125 -63 -183 -8 -49 -8 -48 -4 16 2 37 13
88 25 114 11 25 20 64 20 86 0 45 6 45 20 -2z m3220 9 c0 -5 -11 -21 -25 -36
-13 -14 -22 -30 -19 -35 2 -4 -13 -27 -35 -49 -37 -38 -71 -96 -85 -146 -8
-25 19 -58 37 -47 7 4 5 -4 -4 -17 -10 -15 -27 -26 -44 -27 -15 -1 -25 1 -21
4 3 3 15 6 27 7 29 1 36 23 10 31 -41 13 -20 83 57 198 29 42 55 85 59 95 9
26 24 42 34 36 5 -3 9 -9 9 -14z m-56 -201 c-27 -52 -54 -95 -54 -84 0 12 58
115 65 115 3 0 -2 -14 -11 -31z m-30 -168 c-17 -43 -41 -57 -85 -48 -19 3 -16
5 9 6 27 1 37 8 60 45 15 24 28 43 30 41 2 -1 -5 -21 -14 -44z m-3077 -93 c-2
-13 -4 -5 -4 17 -1 22 1 32 4 23 2 -10 2 -28 0 -40z m2873 13 c0 -9 -24 -21
-41 -21 -16 0 -10 18 9 23 28 8 32 7 32 -2z m55 -30 c-21 -43 -29 -39 -8 4 9
19 18 33 21 31 2 -2 -4 -18 -13 -35z m-251 -9 c-3 -15 -13 -35 -23 -46 -18
-18 -19 -18 -26 3 -3 12 -11 19 -16 16 -5 -4 -9 -1 -9 4 0 6 4 11 8 11 5 0 14
11 20 24 16 35 52 25 46 -12z m166 8 c14 -4 20 -8 13 -9 -6 -1 -14 -14 -18
-30 -4 -20 -24 -43 -59 -70 -49 -38 -96 -56 -81 -30 4 6 -1 16 -10 23 -16 11
-12 18 38 69 55 57 69 62 117 47z m-2833 -42 c-3 -8 -6 -5 -6 6 -1 11 2 17 5
13 3 -3 4 -12 1 -19z m2961 -39 c-2 -6 -8 -11 -13 -11 -6 0 -17 -5 -25 -11 -8
-6 -6 -2 4 11 20 23 40 30 34 11z m-2963 -39 c3 -5 -1 -10 -10 -10 -9 0 -13 5
-10 10 3 6 8 10 10 10 2 0 7 -4 10 -10z m2885 -10 c-14 -11 -29 -20 -35 -20
-5 0 4 9 20 20 38 25 48 25 15 0z m-78 -60 c-4 -31 -16 -38 -27 -19 -4 5 1 19
11 30 22 24 21 25 16 -11z m-2411 -242 c15 -32 26 -58 24 -58 -9 0 -54 87 -59
115 -4 17 -3 23 0 15 4 -8 19 -41 35 -72z m2259 17 c7 -8 8 -15 2 -15 -5 0
-15 7 -22 15 -7 8 -8 15 -2 15 5 0 15 -7 22 -15z m-925 -32 c-22 -3 -45 -9
-52 -15 -20 -16 -15 -87 8 -136 18 -37 32 -49 83 -73 34 -16 72 -29 86 -29 14
0 39 -4 55 -9 17 -4 60 -4 100 1 39 6 99 11 135 13 81 4 161 23 353 85 16 5
38 5 50 1 17 -6 13 -9 -22 -14 -23 -3 -59 -16 -79 -30 -22 -14 -60 -27 -95
-31 -32 -4 -75 -15 -95 -23 -20 -9 -66 -26 -102 -40 l-65 -24 30 26 30 26 -50
-7 c-27 -4 -98 -7 -156 -7 -102 -1 -107 0 -170 34 -51 28 -71 46 -96 88 l-31
52 -16 -23 c-20 -28 -39 -95 -31 -108 3 -5 1 -11 -5 -15 -5 -3 -10 -11 -10
-16 0 -6 5 -7 12 -3 7 4 8 3 4 -4 -10 -16 18 -65 56 -97 54 -46 111 -66 209
-72 56 -4 86 -10 81 -15 -6 -6 -44 -6 -101 1 -51 7 -97 8 -104 5 -7 -4 -9 -4
-5 1 4 4 -16 22 -44 39 -126 75 -155 220 -66 322 23 26 29 41 26 64 -5 35 1
39 67 38 46 -1 46 -2 10 -5z m-1452 -36 c-3 -4 -11 -3 -19 4 -7 6 -11 15 -8
20 3 5 11 3 18 -4 8 -6 12 -16 9 -20z m882 -26 c-3 -6 17 -12 47 -14 35 -2 21
-4 -39 -5 -122 -3 -136 16 -20 26 10 1 16 -2 12 -7z m-531 -17 c3 -8 2 -12 -4
-9 -6 3 -10 10 -10 16 0 14 7 11 14 -7z m1866 -29 c0 -2 -9 -9 -20 -15 -16 -9
-18 -8 -14 5 5 13 34 22 34 10z m-2051 -31 c35 -45 23 -61 -17 -24 -22 21 -30
50 -13 50 5 0 19 -12 30 -26z m536 -94 c3 -5 2 -10 -4 -10 -5 0 -13 5 -16 10
-3 6 -2 10 4 10 5 0 13 -4 16 -10z m362 -26 c5 -15 -27 -54 -45 -54 -21 0 -30
23 -20 46 13 28 55 33 65 8z m-337 -49 c14 -16 10 -18 -14 -9 -9 3 -16 10 -16
15 0 14 16 11 30 -6z m160 -26 c9 -17 8 -23 -7 -35 -28 -21 -47 -17 -60 13
-19 39 -17 43 22 43 25 0 37 -6 45 -21z m905 1 c-7 -11 -86 -28 -122 -26 -43
1 -43 20 -1 26 52 8 128 8 123 0z m-735 -36 l35 -14 -39 5 c-22 2 -44 9 -50
15 -14 14 11 12 54 -6z m585 -4 c3 -5 -1 -10 -9 -10 -8 0 -18 5 -21 10 -3 6 1
10 9 10 8 0 18 -4 21 -10z m-205 -10 c0 -5 -2 -10 -4 -10 -3 0 -8 5 -11 10 -3
6 -1 10 4 10 6 0 11 -4 11 -10z m35 -18 c-3 -3 -11 0 -18 7 -9 10 -8 11 6 5
10 -3 15 -9 12 -12z m-225 -22 c0 -5 -4 -10 -10 -10 -5 0 -10 5 -10 10 0 6 5
10 10 10 6 0 10 -4 10 -10z m520 -20 c-14 -4 -38 -8 -55 -8 -29 1 -29 1 5 8
50 11 83 11 50 0z"/>
<path d="M2886 3658 c-8 -70 2 -236 15 -244 5 -3 9 -18 9 -34 0 -43 49 -242
66 -268 19 -29 30 -22 14 8 -12 23 -4 64 11 55 14 -9 29 41 23 75 -9 45 11 36
26 -11 12 -37 12 -43 -2 -53 -24 -18 -24 -47 1 -88 28 -46 46 -50 38 -8 -4 17
-2 30 3 30 15 0 70 -81 70 -103 0 -19 54 -80 78 -88 9 -3 11 -13 7 -31 -5 -17
-12 -25 -21 -21 -8 3 -14 0 -14 -7 0 -6 -4 -8 -10 -5 -5 3 -10 13 -10 22 0 16
-127 149 -135 142 -7 -8 125 -194 137 -194 7 0 20 -16 30 -36 9 -20 51 -68 93
-107 71 -66 105 -87 105 -63 0 5 3 16 6 24 3 10 -4 17 -22 21 -32 8 -131 77
-151 106 -8 11 -11 24 -8 30 3 5 1 18 -5 29 -21 40 41 -5 77 -56 32 -45 120
-116 134 -107 4 2 10 25 14 51 3 27 13 78 22 115 14 57 14 74 3 114 -9 30 -20
48 -32 52 -10 2 -15 8 -12 13 3 5 10 6 16 3 37 -23 -72 229 -128 295 -15 19
-29 40 -30 47 -3 20 -167 199 -181 198 -7 -1 -11 2 -8 6 7 11 -72 67 -156 113
l-67 36 -6 -61z m84 -84 c0 -8 -5 -12 -10 -9 -6 4 -8 11 -5 16 9 14 15 11 15
-7z m160 -44 c0 -5 -5 -10 -11 -10 -5 0 -7 5 -4 10 3 6 8 10 11 10 2 0 4 -4 4
-10z m-180 -64 c0 -2 -7 -7 -16 -10 -8 -3 -12 -2 -9 4 6 10 25 14 25 6z m51
-66 c5 -20 3 -43 -4 -55 -6 -11 -10 -24 -9 -29 3 -10 -49 2 -63 15 -6 7 -6 12
0 17 6 4 16 18 24 31 11 21 11 25 -3 33 -23 13 -9 30 22 26 21 -2 28 -10 33
-38z m105 -247 c-4 -4 -11 -1 -16 7 -16 25 -11 35 7 17 9 -9 13 -20 9 -24z"/>
<path d="M3796 2857 c3 -10 9 -15 12 -12 3 3 0 11 -7 18 -10 9 -11 8 -5 -6z"/>
<path d="M6280 4519 c-34 -14 -33 -10 -10 -71 12 -33 36 -69 61 -93 l42 -40
-27 46 c-31 55 -35 79 -4 29 12 -19 40 -57 63 -85 22 -27 53 -69 69 -92 16
-23 49 -62 75 -85 123 -113 160 -137 162 -105 0 6 7 -12 15 -42 8 -29 17 -57
20 -62 3 -5 38 -26 77 -45 40 -20 79 -42 87 -49 8 -7 62 -37 120 -67 58 -30
117 -62 132 -72 15 -10 32 -15 38 -11 5 3 10 0 10 -8 0 -8 7 -20 15 -27 9 -7
14 -18 12 -24 -3 -6 5 -21 16 -33 11 -12 25 -32 31 -45 6 -12 26 -32 44 -45
31 -20 34 -21 51 -5 15 15 16 20 4 37 -7 11 -13 23 -13 28 0 10 71 -32 179
-105 47 -32 88 -58 92 -58 4 0 5 19 3 43 l-5 42 15 -40 c19 -51 98 -123 140
-127 25 -2 31 -8 32 -28 1 -14 2 -30 3 -37 1 -16 148 -87 223 -108 31 -9 62
-22 68 -30 7 -8 18 -15 26 -15 7 0 68 -33 136 -73 147 -86 173 -98 193 -90 12
4 9 -6 -9 -40 -15 -25 -26 -48 -26 -51 0 -2 24 -18 53 -34 43 -25 67 -31 142
-36 107 -7 163 -23 253 -72 37 -20 96 -52 132 -72 36 -19 83 -46 105 -60 24
-16 56 -26 82 -27 24 0 49 -7 56 -14 10 -11 6 -12 -20 -6 -35 7 -45 -9 -21
-33 17 -17 3 -25 -22 -12 -11 6 -29 10 -38 7 -9 -2 3 -9 28 -15 139 -36 484
-160 497 -179 10 -12 30 -18 76 -19 59 -3 61 -2 40 13 -13 8 -23 23 -23 32 0
13 2 13 9 2 10 -16 48 -11 105 13 35 15 36 17 36 68 0 30 -5 59 -10 64 -6 6
-8 18 -5 26 6 14 9 14 37 1 25 -13 29 -19 23 -42 -3 -14 -10 -45 -14 -69 -9
-49 -6 -44 -51 -67 -33 -17 -49 -32 -50 -46 0 -11 86 -39 136 -45 107 -13 156
41 116 128 -20 44 -105 150 -126 157 -21 7 -78 66 -97 101 -49 88 -68 114 -88
121 -31 12 -26 -2 15 -42 41 -39 68 -85 58 -100 -4 -7 -21 3 -43 24 -40 39
-305 240 -362 275 -45 27 -59 28 -59 2 0 -21 -28 -28 -45 -11 -6 5 -37 23 -70
41 -33 18 -83 48 -112 66 -28 19 -57 34 -65 34 -7 0 -26 7 -41 15 l-28 15 7
-33 c14 -63 14 -62 -46 -59 -30 2 -83 1 -118 -3 -58 -6 -62 -8 -57 -28 6 -21
6 -22 -9 -3 -20 25 -20 40 -1 56 8 7 15 19 15 26 0 12 5 12 30 -1 39 -20 79
-19 87 2 4 9 1 19 -5 21 -7 2 -12 10 -12 18 0 8 -4 14 -10 14 -5 0 -10 7 -10
15 0 8 6 15 14 15 8 0 18 5 21 10 4 6 -5 10 -19 10 -20 0 -26 -5 -26 -21 0
-11 -4 -18 -9 -15 -4 3 -6 16 -4 28 6 31 -24 57 -124 108 -50 25 -104 62 -135
94 -29 28 -73 65 -98 81 -48 32 -166 119 -190 142 -32 31 -164 125 -201 143
-37 19 -40 19 -75 3 -34 -17 -36 -17 -49 1 -7 10 -27 25 -43 34 -16 10 -62 36
-103 59 -71 40 -109 69 -126 95 -13 21 -82 71 -161 118 -63 37 -83 44 -130 44
-43 1 -61 6 -81 24 -14 13 -69 55 -121 92 -52 38 -106 77 -120 88 -58 43 -149
92 -173 92 -13 0 -43 -7 -66 -15 -34 -12 -41 -12 -41 0 0 7 6 15 13 18 7 3 2
9 -13 15 -14 5 -58 26 -99 46 -41 20 -75 36 -76 36 0 0 0 -31 1 -70 1 -48 -2
-70 -10 -70 -7 0 -10 14 -8 40 4 35 1 41 -22 50 -30 11 -35 25 -6 17 25 -7 26
13 2 43 -14 17 -30 23 -72 25 -30 1 -68 7 -84 14 -16 6 -59 12 -95 13 -61 1
-66 0 -72 -23 -6 -22 -7 -21 -8 8 -1 28 3 34 27 39 54 12 58 14 42 24 -19 12
-68 12 -100 -1z m300 -135 l35 -14 -35 5 c-19 2 -59 8 -88 11 -35 5 -49 10
-40 16 15 10 78 1 128 -18z m-150 12 c0 -3 -4 -8 -10 -11 -5 -3 -10 -1 -10 4
0 6 5 11 10 11 6 0 10 -2 10 -4z m20 -86 c6 -11 8 -20 6 -20 -3 0 -10 9 -16
20 -6 11 -8 20 -6 20 3 0 10 -9 16 -20z m310 -50 c20 -6 21 -8 5 -8 -11 0 -31
4 -45 8 -20 6 -21 8 -5 8 11 0 31 -4 45 -8z m-160 -106 c0 -19 -60 30 -105 86
-11 13 8 0 43 -29 34 -30 62 -56 62 -57z m281 71 c19 -8 29 -14 23 -15 -7 0
-27 7 -45 15 -19 8 -29 14 -23 15 7 0 27 -7 45 -15z m-128 -153 c21 -18 34
-32 30 -32 -5 0 -29 19 -54 43 -50 46 -37 40 24 -11z m264 32 c-3 -3 -12 -4
-19 -1 -8 3 -5 6 6 6 11 1 17 -2 13 -5z m458 -234 c3 -6 -1 -7 -9 -4 -18 7
-21 14 -7 14 6 0 13 -4 16 -10z m-105 -350 c0 -5 -5 -10 -11 -10 -5 0 -7 5 -4
10 3 6 8 10 11 10 2 0 4 -4 4 -10z m860 -270 c0 -5 -5 -10 -11 -10 -5 0 -7 5
-4 10 3 6 8 10 11 10 2 0 4 -4 4 -10z m184 -96 c3 -8 2 -12 -4 -9 -6 3 -10 10
-10 16 0 14 7 11 14 -7z m647 -249 c-1 -15 -24 -12 -29 3 -3 9 2 13 12 10 10
-1 17 -7 17 -13z m-148 -105 c16 -22 24 -40 19 -40 -12 0 -62 57 -62 71 0 19
16 7 43 -31z m563 -41 c13 -10 12 -15 -8 -36 -20 -21 -21 -27 -11 -65 6 -24 8
-49 3 -58 -12 -23 -154 -64 -178 -51 -24 13 -52 55 -52 78 0 10 -7 31 -15 47
-9 16 -12 33 -7 38 8 8 20 -10 42 -69 14 -37 31 -43 123 -43 78 0 81 5 38 72
-35 55 -77 73 -148 62 -40 -5 -46 -4 -35 7 14 15 146 36 200 33 18 -2 40 -8
48 -15z m-158 -46 c5 -18 -23 -16 -39 3 -11 14 -10 15 11 12 13 -1 25 -9 28
-15z m416 -125 c16 -23 22 -102 10 -133 -8 -21 -96 -65 -129 -65 -44 0 -65 17
-65 53 0 18 -7 44 -14 60 -15 28 -9 36 12 15 7 -7 12 -27 12 -44 0 -18 4 -35
9 -38 15 -9 108 14 121 29 9 11 9 25 -2 57 -14 46 -12 45 -89 32 -22 -4 -39
-2 -43 5 -5 7 3 11 21 11 15 1 44 9 63 20 46 25 76 25 94 -2z m70 -207 c4 -5
-3 -7 -14 -4 -23 6 -26 13 -6 13 8 0 17 -4 20 -9z"/>
<path d="M5956 4505 c-9 -26 -7 -32 5 -12 6 10 9 21 6 23 -2 3 -7 -2 -11 -11z"/>
<path d="M2742 4245 c-7 -8 -9 -15 -4 -15 5 0 15 7 22 15 16 19 -1 19 -18 0z"/>
<path d="M1705 4201 c-25 -6 -27 -9 -12 -15 9 -5 17 -14 17 -22 0 -18 6 -18
103 7 91 24 103 29 61 27 -16 0 -54 2 -84 5 -30 3 -68 2 -85 -2z"/>
<path d="M2861 4196 c2 -2 18 -6 34 -10 22 -5 26 -4 15 4 -14 9 -59 15 -49 6z"/>
<path d="M6250 4180 c-12 -8 -12 -10 3 -16 21 -8 35 2 21 16 -5 5 -15 6 -24 0z"/>
<path d="M2985 4148 c11 -7 37 -30 58 -51 20 -21 37 -33 37 -27 0 17 -43 56
-81 74 -19 9 -25 11 -14 4z"/>
<path d="M6252 4135 c-16 -14 -35 -38 -42 -54 -6 -16 -22 -32 -34 -35 -11 -3
-37 -22 -56 -42 l-35 -38 30 18 c17 10 44 29 62 42 17 13 39 24 48 24 16 0
-62 -70 -134 -120 -18 -12 -39 -37 -46 -54 -7 -17 -23 -40 -34 -50 -12 -11
-21 -24 -21 -29 0 -6 -7 -18 -15 -27 -13 -14 -12 -20 5 -47 12 -20 29 -33 47
-36 27 -4 27 -4 5 -12 -18 -6 -20 -10 -11 -21 10 -12 15 -12 31 3 10 9 16 23
13 30 -3 8 0 11 6 8 5 -4 15 -2 22 3 7 5 23 12 38 15 18 5 37 26 67 79 62 108
58 103 75 90 14 -12 32 19 82 145 l16 41 -45 46 -46 45 -28 -24z"/>
<path d="M5567 4035 c-3 -22 -2 -41 4 -43 12 -5 12 -112 -1 -112 -13 0 -13
-77 -1 -85 12 -7 11 -46 -2 -62 -6 -9 -4 -15 5 -18 14 -6 21 -35 8 -35 -3 0
-6 -16 -7 -35 -1 -31 2 -35 18 -30 23 8 24 -3 3 -26 -14 -15 -13 -19 13 -39
15 -12 28 -26 28 -31 0 -10 24 -29 38 -29 4 0 7 9 7 20 0 17 5 19 33 13 17 -3
38 -10 45 -16 6 -5 12 -6 12 -1 0 5 4 3 9 -4 9 -15 81 -7 81 9 0 5 6 9 14 9 8
0 24 12 35 28 12 15 26 34 33 42 7 8 13 19 13 24 0 6 10 15 22 22 l23 11 -29
45 c-16 25 -34 48 -39 52 -16 9 -62 -15 -62 -33 0 -11 -3 -12 -11 -4 -11 11
-53 3 -92 -18 -16 -9 -17 -7 -7 11 9 16 8 20 -5 20 -15 0 -15 2 -1 15 11 12
14 28 9 66 -4 31 -2 54 4 57 6 4 8 22 6 40 -4 26 -9 31 -24 27 -24 -8 -24 -6
1 80 11 38 20 71 20 71 0 1 -45 1 -99 0 l-99 -1 -5 -40z m271 -365 c4 -21 2
-22 -12 -7 -19 19 -21 40 -3 35 6 -3 14 -15 15 -28z m-48 -18 c0 -5 -7 -9 -15
-9 -8 0 -15 4 -15 9 0 4 7 8 15 8 8 0 15 -4 15 -8z"/>
<path d="M7590 4021 c0 -10 91 -67 150 -94 l35 -17 -40 36 c-73 66 -145 103
-145 75z"/>
<path d="M3230 3940 c0 -5 -8 -7 -17 -4 -11 3 -4 -7 15 -25 39 -37 62 -41 55
-8 -8 32 -53 64 -53 37z"/>
<path d="M1062 3801 c-28 -10 -60 -25 -70 -34 -10 -10 -23 -17 -28 -17 -17 -1
-54 -38 -54 -54 0 -9 -4 -16 -10 -16 -20 0 -97 -73 -82 -78 5 -1 45 15 88 36
43 22 88 42 99 46 11 3 50 35 85 71 71 72 67 79 -28 46z"/>
<path d="M6849 3800 c13 -11 27 -20 32 -20 18 0 8 10 -23 25 l-33 16 24 -21z"/>
<path d="M5830 3772 c-17 -6 -11 -32 8 -31 32 1 88 26 72 32 -15 6 -61 5 -80
-1z"/>
<path d="M5538 3650 c-23 -76 -23 -83 1 -71 14 8 18 22 19 71 0 33 -1 60 -1
60 -1 0 -10 -27 -19 -60z"/>
<path d="M3657 3606 c-8 -20 3 -57 15 -50 5 3 5 11 -2 19 -6 7 -8 20 -4 29 3
9 4 16 1 16 -3 0 -7 -6 -10 -14z"/>
<path d="M3812 3604 c-10 -19 -9 -22 13 -26 18 -4 23 -1 22 13 -1 10 -4 16 -8
13 -4 -2 -9 2 -11 8 -3 8 -9 5 -16 -8z"/>
<path d="M8495 3555 c39 -35 76 -64 83 -65 6 0 12 -4 12 -8 0 -5 11 -14 25
-20 24 -11 36 0 15 13 -6 4 -8 10 -5 15 6 9 -12 23 -34 27 -7 1 -25 13 -40 26
-34 31 -103 77 -116 77 -5 0 22 -29 60 -65z"/>
<path d="M8400 3603 c0 -9 66 -63 76 -63 5 0 -7 16 -26 35 -33 34 -50 43 -50
28z"/>
<path d="M3874 3552 c1 -19 7 -29 19 -29 22 -2 22 20 -2 41 -17 16 -18 15 -17
-12z"/>
<path d="M3650 3524 c0 -8 5 -12 10 -9 6 3 10 10 10 16 0 5 -4 9 -10 9 -5 0
-10 -7 -10 -16z"/>
<path d="M3670 3506 c0 -8 7 -16 15 -20 17 -6 18 -4 9 18 -8 20 -24 21 -24 2z"/>
<path d="M3895 3481 c-5 -16 -2 -28 9 -39 15 -15 16 -15 15 3 0 11 -4 29 -8
40 -8 19 -8 19 -16 -4z"/>
<path d="M3670 3470 c0 -5 5 -10 10 -10 6 0 10 5 10 10 0 6 -4 10 -10 10 -5 0
-10 -4 -10 -10z"/>
<path d="M3700 3470 c0 -5 5 -10 11 -10 5 0 7 5 4 10 -3 6 -8 10 -11 10 -2 0
-4 -4 -4 -10z"/>
<path d="M3653 3431 c0 -11 6 -17 14 -14 18 7 17 33 -1 33 -8 0 -14 -8 -13
-19z"/>
<path d="M8696 3409 c23 -23 38 -30 60 -27 28 3 27 4 -23 31 -67 35 -75 34
-37 -4z"/>
<path d="M3920 3398 c0 -14 7 -31 15 -38 13 -11 13 -8 3 21 -15 44 -18 48 -18
17z"/>
<path d="M3895 3360 c3 -5 8 -10 11 -10 2 0 4 5 4 10 0 6 -5 10 -11 10 -5 0
-7 -4 -4 -10z"/>
<path d="M522 3333 c-14 -25 -54 -175 -48 -180 2 -2 14 26 26 64 13 37 26 70
29 73 25 21 31 38 17 49 -12 10 -17 9 -24 -6z"/>
<path d="M8740 3342 c0 -10 33 -42 44 -42 4 0 6 10 4 23 -2 14 -11 23 -25 25
-13 2 -23 -1 -23 -6z"/>
<path d="M3904 3305 c8 -8 18 -15 22 -15 3 0 1 7 -6 15 -7 8 -17 15 -22 15 -5
0 -3 -7 6 -15z"/>
<path d="M3830 3297 c0 -8 7 -20 15 -27 12 -10 15 -10 15 3 0 8 -7 20 -15 27
-12 10 -15 10 -15 -3z"/>
<path d="M3860 3295 c7 -8 16 -12 21 -9 13 8 1 24 -18 24 -13 0 -13 -3 -3 -15z"/>
<path d="M8950 3287 c0 -3 16 -15 36 -27 19 -13 65 -47 102 -77 96 -79 140
-106 168 -100 17 3 40 -7 77 -35 46 -35 58 -39 102 -37 28 1 61 -2 75 -8 108
-46 154 -71 215 -117 79 -60 111 -79 127 -74 20 7 -126 129 -196 163 -77 38
-179 69 -184 55 -2 -4 -14 3 -27 16 -13 13 -32 24 -42 25 -12 1 -10 3 7 8 17
5 29 2 37 -8 6 -9 15 -13 19 -8 4 4 2 7 -4 7 -7 0 -12 6 -12 14 0 12 -208 116
-233 116 -7 0 -6 -4 3 -10 24 -15 -5 -12 -47 5 -43 18 -48 19 -35 2 22 -26
-33 -10 -81 24 -68 48 -107 72 -107 66z m315 -117 c3 -5 1 -10 -4 -10 -6 0
-11 5 -11 10 0 6 2 10 4 10 3 0 8 -4 11 -10z m80 -48 c-3 -3 -11 0 -18 7 -9
10 -8 11 6 5 10 -3 15 -9 12 -12z"/>
<path d="M3790 3224 c0 -11 29 -34 34 -26 2 4 -4 13 -15 20 -10 7 -19 10 -19
6z"/>
<path d="M4023 3112 c-13 -2 -23 -6 -23 -10 -1 -4 -5 -26 -9 -50 -8 -39 -7
-43 15 -48 12 -3 25 -13 27 -22 2 -10 7 9 11 40 6 38 13 58 23 60 25 5 -18 35
-44 30z"/>
<path d="M3887 3064 c6 -16 19 -18 27 -5 3 5 -3 11 -13 14 -14 3 -18 1 -14 -9z"/>
<path d="M8975 3060 c-3 -5 -2 -10 4 -10 5 0 13 5 16 10 3 6 2 10 -4 10 -5 0
-13 -4 -16 -10z"/>
<path d="M4133 3045 c3 -11 9 -33 13 -48 4 -18 10 -25 16 -19 12 12 0 58 -19
74 -14 11 -15 10 -10 -7z"/>
<path d="M9720 2964 c0 -9 23 -30 94 -83 83 -63 117 -69 61 -10 -59 62 -155
119 -155 93z"/>
<path d="M4702 2865 c-11 -14 -25 -25 -31 -25 -17 0 -33 -38 -18 -43 6 -2 -6
-12 -28 -22 l-40 -18 40 -7 c43 -8 68 2 84 35 10 22 24 105 17 105 -3 0 -13
-11 -24 -25z"/>
<path d="M4027 2873 c-17 -16 -4 -24 35 -21 55 4 64 28 11 28 -22 0 -43 -3
-46 -7z"/>
<path d="M9710 2846 c0 -2 7 -7 16 -10 8 -3 12 -2 9 4 -6 10 -25 14 -25 6z"/>
<path d="M8720 2626 c0 -9 4 -16 8 -16 4 0 29 -20 55 -45 53 -50 59 -51 109
-31 19 8 43 13 54 11 10 -2 32 -6 47 -10 16 -3 39 -17 51 -30 27 -29 69 -37
73 -14 3 11 -9 19 -39 28 -24 7 -104 34 -178 61 -182 65 -180 64 -180 46z"/>
<path d="M10233 2563 c-7 -3 12 -28 45 -60 l57 -55 -52 42 c-53 42 -70 45 -34
6 10 -12 27 -34 37 -51 19 -29 19 -29 -1 -22 -12 5 -6 -4 15 -22 19 -17 43
-30 53 -31 21 0 21 4 1 38 l-16 27 21 -25 c11 -14 21 -28 21 -31 0 -4 24 -14
53 -23 50 -16 87 -14 87 4 0 14 -82 80 -99 80 -9 0 -39 19 -66 43 -69 60 -108
85 -122 80z"/>
<path d="M5970 2449 c-9 -15 -18 -19 -35 -15 -13 3 -36 1 -52 -5 l-28 -11 24
-19 c16 -13 18 -19 8 -19 -8 0 -20 -6 -26 -14 -6 -7 -31 -19 -54 -26 -31 -8
-55 -25 -85 -60 -23 -27 -42 -51 -42 -54 0 -3 -11 -17 -25 -32 -20 -21 -24
-34 -19 -59 4 -25 0 -36 -22 -58 -21 -21 -25 -33 -21 -57 7 -32 -6 -42 -17
-13 -6 15 -8 15 -16 3 -6 -8 -10 -25 -10 -36 0 -12 -13 -38 -30 -59 -28 -35
-36 -58 -44 -130 -2 -16 -7 -38 -11 -48 -9 -22 -1 -285 10 -312 6 -14 5 -17
-3 -10 -6 6 -12 21 -14 35 -1 14 -7 24 -13 22 -5 -2 -9 -10 -7 -19 2 -8 -1
-12 -6 -9 -6 4 -8 -3 -5 -15 9 -32 48 -46 69 -24 21 20 19 25 55 -120 11 -44
23 -87 28 -95 4 -8 20 -37 34 -63 27 -48 35 -83 17 -72 -5 3 -10 2 -10 -4 0
-5 8 -12 18 -15 9 -3 25 -27 35 -53 17 -44 58 -129 99 -205 9 -17 28 -42 41
-57 13 -14 37 -57 52 -94 27 -64 45 -91 45 -68 0 6 7 11 16 11 8 0 13 -4 9
-10 -3 -5 6 -17 21 -26 24 -16 25 -19 9 -30 -16 -12 -15 -14 8 -19 15 -4 31
-13 38 -21 9 -11 15 -12 26 -3 7 7 16 9 20 5 3 -3 1 -6 -5 -6 -24 0 -11 -31
21 -51 28 -17 42 -19 107 -14 41 4 77 9 79 11 2 2 -2 10 -9 19 -10 12 -10 15
4 15 9 0 16 -7 16 -15 0 -18 5 -18 32 -4 11 6 50 15 86 20 68 10 148 47 207
97 l30 25 -28 -7 c-15 -3 -48 -9 -73 -13 -42 -6 -45 -7 -29 -20 11 -7 16 -14
12 -14 -4 -1 -11 -2 -16 -3 -5 0 -13 -4 -17 -9 -13 -13 -27 -7 -15 7 13 16 -1
30 -58 58 -20 10 -27 16 -16 12 42 -13 95 -16 107 -7 7 6 30 16 52 23 49 16
110 70 153 137 18 29 33 55 33 58 0 3 -11 5 -25 5 -37 0 -31 25 6 26 29 1 31
-1 26 -30 -2 -17 -8 -40 -12 -50 -6 -15 -5 -17 5 -11 9 5 11 4 6 -4 -4 -6 -11
-9 -16 -6 -5 3 -19 -9 -31 -27 -13 -18 -36 -45 -53 -59 -30 -26 -30 -26 -5
-23 13 1 29 3 35 3 23 2 63 54 102 135 23 46 53 92 68 103 l27 20 -19 38 c-25
50 -44 57 -44 15 0 -41 -21 -35 -33 9 -7 27 -10 31 -22 21 -23 -19 -19 18 5
55 22 33 26 95 8 113 -9 9 -7 20 5 49 27 65 31 102 12 123 -14 16 -15 24 -6
51 15 45 14 112 -4 135 -9 11 -15 42 -15 79 0 37 -9 86 -25 130 -13 39 -25 80
-25 92 0 35 -11 54 -38 64 -21 8 -24 14 -19 45 9 52 -21 110 -50 100 -6 -3
-19 12 -29 32 -9 19 -25 45 -35 56 -12 12 -17 27 -13 39 4 14 2 18 -7 15 -15
-5 -59 52 -59 76 0 9 -4 16 -10 16 -5 0 -7 6 -4 13 3 8 -2 19 -9 26 -12 9 -16
8 -21 -4 -3 -8 -12 -15 -21 -15 -8 0 -15 -4 -15 -10 0 -17 -26 -11 -45 10 -10
11 -15 20 -11 20 4 0 1 10 -6 23 -7 12 -11 26 -10 30 1 5 -8 21 -20 37 -13 16
-31 41 -42 55 -15 23 -23 26 -51 21 -23 -5 -39 -1 -58 14 -29 23 -40 24 -65 9
-14 -9 -25 -8 -50 5 -30 15 -32 15 -42 -5z m54 -51 c-3 -5 2 -18 12 -29 20
-22 8 -25 -20 -4 -10 8 -22 12 -26 10 -4 -3 -16 5 -26 16 -10 11 -14 20 -9 19
23 -5 35 1 35 17 0 14 2 14 20 -2 11 -10 17 -22 14 -27z m-89 -8 c3 -5 -1 -10
-9 -10 -9 0 -16 5 -16 10 0 6 4 10 9 10 6 0 13 -4 16 -10z m185 -10 c0 -5 -5
-10 -11 -10 -5 0 -7 5 -4 10 3 6 8 10 11 10 2 0 4 -4 4 -10z m125 -151 c20
-22 20 -22 0 -11 -11 5 -29 20 -40 33 -20 22 -20 22 0 11 11 -5 29 -20 40 -33z
m152 -44 c9 -20 8 -25 -3 -25 -8 0 -14 4 -14 9 0 5 -3 16 -6 25 -10 26 10 18
23 -9z m-218 -48 c101 -60 152 -116 213 -234 31 -59 70 -154 87 -211 99 -333
35 -780 -125 -868 -45 -25 -130 -36 -196 -24 -86 16 -119 39 -148 102 -17 38
-54 83 -128 157 -109 108 -142 162 -142 234 0 18 -11 53 -25 79 -31 58 -49
173 -41 258 10 93 14 103 46 122 24 14 29 24 35 75 4 32 18 91 32 132 14 41
27 84 29 94 7 40 85 102 148 118 61 16 157 1 215 -34z m249 -27 c-2 -7 -10 1
-17 16 -12 27 -11 28 4 12 10 -9 16 -21 13 -28z m-37 -45 c8 -16 6 -15 -10 4
-12 13 -21 28 -21 35 0 12 14 -5 31 -39z m58 -86 c13 -23 19 -39 13 -35 -6 3
-22 27 -36 52 -14 26 -20 42 -13 36 7 -6 23 -30 36 -53z m177 -44 c3 -8 2 -26
-3 -39 -8 -25 -8 -24 -25 14 -16 39 -16 40 3 40 11 0 22 -7 25 -15z m46 -837
c-9 -9 -12 -7 -12 12 0 19 3 21 12 12 9 -9 9 -15 0 -24z m-915 -4 c-3 -3 -12
-4 -19 -1 -8 3 -5 6 6 6 11 1 17 -2 13 -5z m858 -165 c10 -14 1 -21 -19 -13
-9 3 -13 10 -10 15 7 12 21 11 29 -2z m-369 -216 c-7 -7 -26 7 -26 19 0 6 6 6
15 -2 9 -7 13 -15 11 -17z m54 -53 c0 -5 -4 -10 -9 -10 -6 0 -13 5 -16 10 -3
6 1 10 9 10 9 0 16 -4 16 -10z m-166 -26 c20 -19 20 -25 1 -18 -8 4 -15 1 -15
-6 0 -9 -7 -7 -20 5 -11 10 -17 22 -14 26 8 14 31 11 48 -7z m-149 -4 c3 -5 2
-10 -4 -10 -5 0 -13 5 -16 10 -3 6 -2 10 4 10 5 0 13 -4 16 -10z m375 -48 c0
-8 -49 32 -54 44 -3 9 7 3 24 -13 16 -15 30 -29 30 -31z"/>
<path d="M5793 2381 c-8 -7 -12 -16 -9 -19 9 -8 86 20 80 29 -8 13 -55 6 -71
-10z"/>
<path d="M10217 2373 c-3 -15 0 -37 6 -48 6 -11 10 -33 9 -50 -1 -16 2 -37 8
-45 6 -10 8 -3 3 23 -5 32 -3 36 11 31 9 -3 16 -11 16 -17 0 -6 3 -7 7 -4 3 4
-1 15 -10 25 -9 10 -18 32 -19 48 -1 16 -7 37 -14 47 -10 16 -12 15 -17 -10z"/>
<path d="M10302 2303 c2 -64 0 -79 -9 -71 -10 8 -13 2 -13 -24 0 -36 19 -88
33 -88 5 0 7 6 4 13 -2 6 5 20 17 30 l21 18 -21 39 c-20 35 -20 39 -5 45 14 6
14 8 1 18 -9 7 -17 30 -19 52 -6 74 -13 51 -9 -32z"/>
<path d="M6290 2362 c0 -10 33 -42 43 -42 4 0 1 11 -5 25 -10 23 -38 35 -38
17z"/>
<path d="M10135 2338 c25 -82 18 -112 -30 -129 -29 -11 -33 -15 -22 -26 17
-17 109 0 128 23 27 33 -28 154 -69 154 -10 0 -12 -6 -7 -22z"/>
<path d="M9451 2305 c0 -11 4 -29 8 -40 8 -19 8 -19 16 4 5 16 2 28 -9 39 -15
15 -16 15 -15 -3z"/>
<path d="M10341 2250 c-1 -11 28 -84 29 -75 1 6 5 1 10 -10 8 -18 9 -18 9 5 1
14 -10 39 -24 55 -13 17 -24 28 -24 25z"/>
<path d="M10132 2121 l-13 -29 -92 5 c-69 4 -97 9 -115 24 -14 10 -32 19 -41
19 -44 0 126 -85 189 -94 83 -13 100 -18 94 -27 -3 -5 -10 -7 -15 -4 -5 4 -9
2 -9 -3 0 -11 118 -34 131 -26 5 3 9 18 9 34 0 16 5 41 10 56 15 39 -10 60
-80 68 -54 5 -56 5 -68 -23z"/>
<path d="M3190 1279 c0 -5 5 -7 10 -4 6 3 10 8 10 11 0 2 -4 4 -10 4 -5 0 -10
-5 -10 -11z"/>
<path d="M5521 1230 c0 -18 27 -79 28 -64 1 7 -6 27 -14 45 -8 19 -14 27 -14
19z"/>
<path d="M5550 1145 c0 -5 5 -17 10 -25 5 -8 10 -10 10 -5 0 6 -5 17 -10 25
-5 8 -10 11 -10 5z"/>
<path d="M5608 1005 c10 -22 21 -47 24 -55 3 -10 6 -6 9 10 3 18 -4 34 -24 55
l-29 30 20 -40z"/>
</g>
</svg>
