<?xml version="1.0" encoding="UTF-8"?>
<!DOCTYPE svg PUBLIC "-//W3C//DTD SVG 1.1//EN" "http://www.w3.org/Graphics/SVG/1.1/DTD/svg11.dtd">
<svg xmlns="http://www.w3.org/2000/svg" version="1.1" width="512px" height="512px" style="shape-rendering:geometricPrecision; text-rendering:geometricPrecision; image-rendering:optimizeQuality; fill-rule:evenodd; clip-rule:evenodd" xmlns:xlink="http://www.w3.org/1999/xlink">
<g><path style="opacity:1" fill="#393e51" d="M 414.5,357.5 C 412.097,357.607 410.264,356.607 409,354.5C 408.5,344.839 408.334,335.172 408.5,325.5C 403.278,323.705 397.945,322.205 392.5,321C 391.069,320.535 389.903,319.701 389,318.5C 387.584,308.585 384.751,299.085 380.5,290C 369.433,289.385 358.433,289.718 347.5,291C 346.667,290.167 345.833,289.333 345,288.5C 343.182,277.042 339.015,266.542 332.5,257C 320.47,257.276 308.47,257.943 296.5,259C 291.302,252.29 285.636,245.956 279.5,240C 276.5,239.333 273.5,239.333 270.5,240C 261.312,242.753 251.979,244.42 242.5,245C 237.698,237.898 232.531,231.064 227,224.5C 224.95,222.112 222.616,220.112 220,218.5C 208.41,221.53 196.91,224.863 185.5,228.5C 177.518,226.281 169.518,224.281 161.5,222.5C 159.022,220.298 156.355,220.131 153.5,222C 142.875,232.285 133.375,243.452 125,255.5C 123.205,269.818 123.038,284.152 124.5,298.5C 133.068,300.975 141.735,303.142 150.5,305C 154.364,310.552 157.864,316.386 161,322.5C 164.303,327.969 167.803,333.302 171.5,338.5C 184.843,339.524 198.176,339.691 211.5,339C 215.48,346.609 219.647,354.109 224,361.5C 227.453,366.621 231.286,371.454 235.5,376C 250.838,376.197 266.171,376.197 281.5,376C 287.981,386.458 295.314,396.292 303.5,405.5C 309.807,406.664 316.141,406.831 322.5,406C 328.45,404.721 334.45,403.721 340.5,403C 343.167,401.667 345.833,400.333 348.5,399C 356.169,391.584 365.003,386.084 375,382.5C 377.399,382.613 379.232,383.613 380.5,385.5C 380.657,386.873 380.49,388.207 380,389.5C 363.235,396.602 354.902,409.268 355,427.5C 351.706,430.311 348.706,429.978 346,426.5C 345.692,421.378 345.525,416.378 345.5,411.5C 341.25,412.883 336.917,413.883 332.5,414.5C 333.099,423.024 335.932,430.691 341,437.5C 346.36,441.693 351.86,445.693 357.5,449.5C 358.678,437.132 362.178,425.466 368,414.5C 372.08,409.142 375.58,409.475 378.5,415.5C 372.742,425.772 369.409,436.772 368.5,448.5C 367.517,452.298 367.183,456.298 367.5,460.5C 373.026,460.821 378.36,460.488 383.5,459.5C 391.262,458.129 399.095,457.462 407,457.5C 418.689,458.618 430.356,459.951 442,461.5C 447.943,461.607 453.776,460.941 459.5,459.5C 459.762,458.022 459.429,456.689 458.5,455.5C 456.167,454 453.833,452.5 451.5,451C 441.163,449.667 431.663,446.167 423,440.5C 410.843,446.133 398.343,446.967 385.5,443C 384.667,442.167 383.833,441.333 383,440.5C 384.773,428.953 389.773,418.953 398,410.5C 398.67,406.989 399.837,403.656 401.5,400.5C 398.201,394.899 395.201,389.232 392.5,383.5C 391.735,380.367 391.068,377.2 390.5,374C 390.354,371.966 391.02,370.299 392.5,369C 399.826,368.5 407.159,368.334 414.5,368.5C 446.317,364.536 469.817,376.536 485,404.5C 489.219,416.837 490.552,429.504 489,442.5C 488.204,444.967 486.537,446.3 484,446.5C 475.88,443.609 467.546,441.609 459,440.5C 458.5,440.833 458,441.167 457.5,441.5C 461.118,443.944 464.618,446.61 468,449.5C 473.159,460.358 469.992,467.525 458.5,471C 445.028,473.326 431.694,472.66 418.5,469C 414.167,468.333 409.833,468.333 405.5,469C 410.876,477.684 410.709,486.184 405,494.5C 403.167,495.667 401.333,496.833 399.5,498C 387.546,499.113 375.546,499.613 363.5,499.5C 351.779,499.624 340.112,499.124 328.5,498C 319.102,494.224 314.102,487.224 313.5,477C 304.496,472.835 296.162,467.669 288.5,461.5C 257.003,463.947 228.169,456.28 202,438.5C 199.73,442.93 199.063,447.597 200,452.5C 203.581,457.328 206.915,462.328 210,467.5C 212.203,472.812 213.703,478.312 214.5,484C 214.264,490.477 211.264,495.144 205.5,498C 192.847,499.953 180.181,499.953 167.5,498C 159.026,494.859 153.192,489.026 150,480.5C 147.84,470.548 146.007,460.548 144.5,450.5C 140.104,453.025 136.104,456.025 132.5,459.5C 138.438,465.803 141.771,473.303 142.5,482C 142.089,491.743 137.089,497.41 127.5,499C 115.833,499.667 104.167,499.667 92.5,499C 80.4221,496.921 73.9221,489.754 73,477.5C 70.3759,455.996 74.7093,435.996 86,417.5C 90.794,409.41 95.9606,401.576 101.5,394C 95.2101,385.475 91.0435,375.975 89,365.5C 86.5724,351.9 85.9057,338.234 87,324.5C 81.0824,305.922 71.0824,289.922 57,276.5C 26.0471,234.345 15.0471,187.345 24,135.5C 28.4121,107.667 40.9121,84.3335 61.5,65.5C 60.9028,40.5829 72.5695,24.4162 96.5,17C 101.833,16.3333 107.167,16.3333 112.5,17C 114.519,17.4497 116.352,18.283 118,19.5C 129.142,10.9464 140.975,9.77976 153.5,16C 163.631,26.6092 164.131,37.7758 155,49.5C 152.297,52.538 149.297,55.2046 146,57.5C 146.202,74.2834 138.702,86.1167 123.5,93C 117.069,95.5536 110.402,97.2202 103.5,98C 100.975,104.882 96.4748,110.049 90,113.5C 90.2905,122.528 87.4572,130.362 81.5,137C 83.0602,139.289 84.2269,141.789 85,144.5C 85.3333,149.833 85.6667,155.167 86,160.5C 97.9186,168.256 102.419,179.09 99.5,193C 111.066,197.578 117.899,206.078 120,218.5C 126.05,217.682 131.716,219.016 137,222.5C 141.877,217.954 147.044,213.787 152.5,210C 154.833,209.333 157.167,209.333 159.5,210C 168.311,212.578 177.144,215.078 186,217.5C 196.44,214.131 206.94,210.964 217.5,208C 220.5,207.333 223.5,207.333 226.5,208C 234.191,216.557 241.524,225.39 248.5,234.5C 259.045,231.657 269.712,229.324 280.5,227.5C 281.938,227.719 283.271,228.219 284.5,229C 290.167,235.333 295.833,241.667 301.5,248C 311.96,247.241 322.46,246.407 333,245.5C 335.3,245.494 337.466,245.994 339.5,247C 346.233,256.964 350.9,267.797 353.5,279.5C 360.34,279.361 367.173,279.027 374,278.5C 377.692,278.599 381.359,278.933 385,279.5C 386.711,279.439 388.044,280.106 389,281.5C 393.206,290.785 396.206,300.452 398,310.5C 402.074,312.192 406.24,313.692 410.5,315C 413.586,316.093 416.086,317.926 418,320.5C 419.425,331.801 419.759,343.135 419,354.5C 418.411,356.863 416.911,357.863 414.5,357.5 Z"/></g>
<g><path style="opacity:1" fill="#8787a0" d="M 105.5,69.5 C 96.4455,58.452 85.1121,55.452 71.5,60.5C 73.1618,44.6566 81.4951,33.8232 96.5,28C 109.215,23.8493 116.882,28.1827 119.5,41C 118.081,50.6642 113.248,58.1642 105,63.5C 104.51,65.5454 104.677,67.5454 105.5,69.5 Z"/></g>
<g><path style="opacity:1" fill="#50567c" d="M 105.5,69.5 C 107.738,70.5366 110.071,70.7033 112.5,70C 116.314,67.3535 119.647,64.1868 122.5,60.5C 126.783,59.5078 131.116,59.1744 135.5,59.5C 133.009,75.9542 123.342,84.9542 106.5,86.5C 105.167,86.1667 103.833,85.8333 102.5,85.5C 100.895,77.7924 96.895,71.6257 90.5,67C 83.9775,64.6404 77.6441,62.4737 71.5,60.5C 85.1121,55.452 96.4455,58.452 105.5,69.5 Z"/></g>
<g><path style="opacity:1" fill="#f4eed6" d="M 61.5,227.5 C 52.8314,225.333 45.1647,221.333 38.5,215.5C 29.074,183.186 29.2407,150.852 39,118.5C 44.6042,102.248 53.4375,88.0814 65.5,76C 72.7035,72.4738 79.7035,72.8071 86.5,77C 64.311,90.1563 51.1444,109.656 47,135.5C 42.264,161.055 44.264,186.055 53,210.5C 55.3194,216.472 58.1527,222.139 61.5,227.5 Z"/></g>
<g><path style="opacity:1" fill="#85859d" d="M 89.5,86.5 C 91.1238,86.3601 92.2904,87.0267 93,88.5C 93.7271,95.0459 91.2271,100.046 85.5,103.5C 82.8333,101.167 80.1667,98.8333 77.5,96.5C 80.7926,92.205 84.7926,88.8717 89.5,86.5 Z"/></g>
<g><path style="opacity:1" fill="#8787a0" d="M 69.5,105.5 C 73.5616,105.724 76.395,107.724 78,111.5C 79.4829,125.851 72.9829,132.518 58.5,131.5C 60.5383,122.096 64.205,113.43 69.5,105.5 Z"/></g>
<g><path style="opacity:1" fill="#86869f" d="M 56.5,141.5 C 61.5111,141.334 66.5111,141.501 71.5,142C 75.865,147.587 76.5317,153.587 73.5,160C 67.8333,162.833 62.1667,165.667 56.5,168.5C 55.3185,159.497 55.3185,150.497 56.5,141.5 Z"/></g>
<g><path style="opacity:1" fill="#8787a0" d="M 75.5,169.5 C 81.1426,169.744 85.3093,172.411 88,177.5C 89.5174,183.08 89.8508,188.747 89,194.5C 81.8329,201.332 73.8329,206.999 65,211.5C 59.6264,201.458 57.1264,190.791 57.5,179.5C 63.8847,176.646 69.8847,173.313 75.5,169.5 Z"/></g>
<g><path style="opacity:1" fill="#8887a0" d="M 103.5,228.5 C 94.5819,230.103 85.5819,230.77 76.5,230.5C 74.2979,227.274 71.9646,224.107 69.5,221C 78.6004,215.719 87.267,209.886 95.5,203.5C 104.977,206.777 109.143,213.444 108,223.5C 106.483,225.24 104.983,226.906 103.5,228.5 Z"/></g>
<g><path style="opacity:1" fill="#f0ad8e" d="M 38.5,215.5 C 45.1647,221.333 52.8314,225.333 61.5,227.5C 65.4521,233.203 69.7855,238.703 74.5,244C 76.4727,244.495 78.4727,244.662 80.5,244.5C 86.9903,249.477 93.6569,254.311 100.5,259C 104.577,261.705 108.91,263.872 113.5,265.5C 113.828,270.875 113.495,276.208 112.5,281.5C 103.95,288.717 97.2832,297.384 92.5,307.5C 84.8065,292.305 74.9732,278.638 63,266.5C 51.6258,251.084 43.4591,234.084 38.5,215.5 Z"/></g>
<g><path style="opacity:1" fill="#8888a1" d="M 414.5,357.5 C 414.5,358.167 414.5,358.833 414.5,359.5C 391.014,357.257 370.681,364.09 353.5,380C 341.302,389.067 327.635,393.067 312.5,392C 306.953,383.076 301.787,373.91 297,364.5C 295.833,363.333 294.667,362.167 293.5,361C 276.513,361.461 259.513,361.461 242.5,361C 235.445,350.396 229.279,339.23 224,327.5C 222.833,326.333 221.667,325.167 220.5,324C 213.853,323.986 207.186,324.153 200.5,324.5C 194.768,324.562 189.102,324.062 183.5,323C 182.667,322.167 181.833,321.333 181,320.5C 177.739,311.039 173.906,301.872 169.5,293C 162.628,291.132 155.628,289.799 148.5,289C 146.579,288.64 144.912,287.806 143.5,286.5C 140.882,276.338 139.715,266.004 140,255.5C 144.18,242.452 151.347,231.452 161.5,222.5C 169.518,224.281 177.518,226.281 185.5,228.5C 196.91,224.863 208.41,221.53 220,218.5C 222.616,220.112 224.95,222.112 227,224.5C 232.531,231.064 237.698,237.898 242.5,245C 251.979,244.42 261.312,242.753 270.5,240C 273.5,239.333 276.5,239.333 279.5,240C 285.636,245.956 291.302,252.29 296.5,259C 308.47,257.943 320.47,257.276 332.5,257C 339.015,266.542 343.182,277.042 345,288.5C 345.833,289.333 346.667,290.167 347.5,291C 358.433,289.718 369.433,289.385 380.5,290C 384.751,299.085 387.584,308.585 389,318.5C 389.903,319.701 391.069,320.535 392.5,321C 397.945,322.205 403.278,323.705 408.5,325.5C 408.334,335.172 408.5,344.839 409,354.5C 410.264,356.607 412.097,357.607 414.5,357.5 Z"/></g>
<g><path style="opacity:1" fill="#51577c" d="M 161.5,222.5 C 151.347,231.452 144.18,242.452 140,255.5C 139.715,266.004 140.882,276.338 143.5,286.5C 144.912,287.806 146.579,288.64 148.5,289C 155.628,289.799 162.628,291.132 169.5,293C 173.906,301.872 177.739,311.039 181,320.5C 181.833,321.333 182.667,322.167 183.5,323C 189.102,324.062 194.768,324.562 200.5,324.5C 207.186,324.153 213.853,323.986 220.5,324C 221.667,325.167 222.833,326.333 224,327.5C 229.279,339.23 235.445,350.396 242.5,361C 259.513,361.461 276.513,361.461 293.5,361C 294.667,362.167 295.833,363.333 297,364.5C 301.787,373.91 306.953,383.076 312.5,392C 327.635,393.067 341.302,389.067 353.5,380C 370.681,364.09 391.014,357.257 414.5,359.5C 414.5,362.5 414.5,365.5 414.5,368.5C 407.159,368.334 399.826,368.5 392.5,369C 391.02,370.299 390.354,371.966 390.5,374C 391.068,377.2 391.735,380.367 392.5,383.5C 388.426,383.782 384.426,384.448 380.5,385.5C 379.232,383.613 377.399,382.613 375,382.5C 365.003,386.084 356.169,391.584 348.5,399C 345.833,400.333 343.167,401.667 340.5,403C 334.45,403.721 328.45,404.721 322.5,406C 316.141,406.831 309.807,406.664 303.5,405.5C 295.314,396.292 287.981,386.458 281.5,376C 266.171,376.197 250.838,376.197 235.5,376C 231.286,371.454 227.453,366.621 224,361.5C 219.647,354.109 215.48,346.609 211.5,339C 198.176,339.691 184.843,339.524 171.5,338.5C 167.803,333.302 164.303,327.969 161,322.5C 157.864,316.386 154.364,310.552 150.5,305C 141.735,303.142 133.068,300.975 124.5,298.5C 123.038,284.152 123.205,269.818 125,255.5C 133.375,243.452 142.875,232.285 153.5,222C 156.355,220.131 159.022,220.298 161.5,222.5 Z"/></g>
<g><path style="opacity:1" fill="#51577c" d="M 103.5,228.5 C 100.051,231.613 97.3839,235.28 95.5,239.5C 96.6023,243.767 99.269,245.267 103.5,244C 107.833,239 112.167,234 116.5,229C 119.5,228.333 122.5,228.333 125.5,229C 127.286,229.196 128.619,230.029 129.5,231.5C 124.667,238.5 119.833,245.5 115,252.5C 114.631,256.863 114.131,261.196 113.5,265.5C 108.91,263.872 104.577,261.705 100.5,259C 93.6569,254.311 86.9903,249.477 80.5,244.5C 82.3907,242.164 82.8907,239.498 82,236.5C 79.9604,234.63 78.1271,232.63 76.5,230.5C 85.5819,230.77 94.5819,230.103 103.5,228.5 Z"/></g>
<g><path style="opacity:1" fill="#52587d" d="M 189.5,245.5 C 191.989,245.298 194.323,245.798 196.5,247C 200.288,251.406 203.455,256.239 206,261.5C 207.214,263.049 208.714,264.215 210.5,265C 218.316,265.006 226.149,264.84 234,264.5C 239.939,264.377 245.772,264.877 251.5,266C 257.802,274.094 262.968,282.927 267,292.5C 267.903,293.701 269.069,294.535 270.5,295C 281.331,294.865 292.165,294.365 303,293.5C 311.134,291.57 317.134,294.237 321,301.5C 325.253,308.337 329.253,315.337 333,322.5C 333.903,323.701 335.069,324.535 336.5,325C 343.839,325.452 351.172,325.286 358.5,324.5C 368.727,322.898 373.893,327.231 374,337.5C 376.688,357.888 373.688,359.222 365,341.5C 363.829,340.107 362.329,339.273 360.5,339C 351.231,338.514 342.064,339.347 333,341.5C 331.033,341.458 329.199,340.958 327.5,340C 320.962,331.092 314.795,321.926 309,312.5C 307.457,310.622 305.624,309.122 303.5,308C 289.768,308.416 276.101,309.416 262.5,311C 261.421,310.044 260.255,309.211 259,308.5C 254.667,299.833 250.333,291.167 246,282.5C 244.442,280.641 242.609,279.141 240.5,278C 227.833,277.667 215.167,277.333 202.5,277C 197.407,270.151 192.074,263.484 186.5,257C 179.144,256.831 171.811,256.331 164.5,255.5C 164.709,254.914 165.043,254.414 165.5,254C 173.609,251.15 181.609,248.317 189.5,245.5 Z"/></g>
<g><path style="opacity:1" fill="#834b75" d="M 324.5,426.5 C 315.494,426.666 306.494,426.5 297.5,426C 289.105,418.349 281.772,409.849 275.5,400.5C 275.24,398.405 274.074,397.072 272,396.5C 259.4,398.732 246.734,399.065 234,397.5C 231.268,397.385 228.768,396.552 226.5,395C 215.598,383.862 206.931,371.195 200.5,357C 187.405,356.963 174.405,356.296 161.5,355C 159,351.833 156.5,348.667 154,345.5C 150.198,338.055 146.032,330.889 141.5,324C 132.286,321.707 122.952,320.041 113.5,319C 108.637,316.083 105.637,311.917 104.5,306.5C 107.004,302.172 110.004,298.172 113.5,294.5C 114.318,297.107 114.818,299.774 115,302.5C 115.273,304.329 116.107,305.829 117.5,307C 127.298,308.989 136.798,311.822 146,315.5C 151.708,327.093 158.542,337.926 166.5,348C 172.613,349.042 178.779,349.542 185,349.5C 191.853,349.159 198.687,348.993 205.5,349C 212.267,362.426 220.601,374.76 230.5,386C 235.099,387.031 239.765,387.531 244.5,387.5C 254.862,386.873 265.196,386.373 275.5,386C 282.74,396.577 290.74,406.577 299.5,416C 307.159,416.5 314.826,416.666 322.5,416.5C 322.956,419.906 323.622,423.239 324.5,426.5 Z"/></g>
<g><path style="opacity:1" fill="#c67c7c" d="M 104.5,306.5 C 105.637,311.917 108.637,316.083 113.5,319C 122.952,320.041 132.286,321.707 141.5,324C 146.032,330.889 150.198,338.055 154,345.5C 156.5,348.667 159,351.833 161.5,355C 174.405,356.296 187.405,356.963 200.5,357C 206.931,371.195 215.598,383.862 226.5,395C 228.768,396.552 231.268,397.385 234,397.5C 246.734,399.065 259.4,398.732 272,396.5C 274.074,397.072 275.24,398.405 275.5,400.5C 272.331,397.888 269.164,397.888 266,400.5C 265.075,408.282 265.575,415.949 267.5,423.5C 266.833,423.833 266.167,424.167 265.5,424.5C 257.833,422.5 250.167,420.5 242.5,418.5C 239.923,418.747 238.257,420.081 237.5,422.5C 229.245,419.372 221.245,415.706 213.5,411.5C 214.819,409.532 214.819,407.532 213.5,405.5C 201.645,397.819 190.812,388.819 181,378.5C 179.975,373.732 178.642,369.066 177,364.5C 172.172,360 169.005,361 167.5,367.5C 176.405,393.715 170.405,415.881 149.5,434C 142.672,438.915 135.672,443.581 128.5,448C 122.888,452.176 121.055,457.676 123,464.5C 124.944,468.11 127.277,471.443 130,474.5C 131.405,478.072 131.738,481.739 131,485.5C 130.097,486.701 128.931,487.535 127.5,488C 114.738,488.96 102.071,488.627 89.5,487C 86.2616,484.695 84.4283,481.528 84,477.5C 83.5003,469.507 83.3336,461.507 83.5,453.5C 89.0114,456.165 94.8448,457.832 101,458.5C 105.749,458.414 107.415,456.08 106,451.5C 105.692,450.692 105.192,450.025 104.5,449.5C 97.9871,448.332 91.9871,445.999 86.5,442.5C 87.8333,439.167 89.1667,435.833 90.5,432.5C 93.3948,433.779 96.3948,434.779 99.5,435.5C 103.989,435.167 105.489,432.833 104,428.5C 101.066,426.482 98.5659,424.148 96.5,421.5C 102.913,410.345 110.08,399.678 118,389.5C 120.829,384.698 119.662,381.698 114.5,380.5C 111.716,381.201 109.382,382.368 107.5,384C 101.941,374.605 98.7747,364.438 98,353.5C 97.2911,342.471 97.6244,331.471 99,320.5C 100.348,315.618 102.182,310.951 104.5,306.5 Z"/></g>
<g><path style="opacity:1" fill="#844b76" d="M 112.5,322.5 C 119.197,324.995 125.03,328.995 130,334.5C 130.491,339.179 128.325,341.512 123.5,341.5C 122.737,344.141 122.57,346.808 123,349.5C 125.409,351.62 127.909,353.62 130.5,355.5C 132.287,359.585 131.121,362.252 127,363.5C 119.564,360.406 112.897,356.073 107,350.5C 105.334,344.669 107.501,342.002 113.5,342.5C 115.669,337.501 114.502,333.501 110,330.5C 109.018,327.225 109.851,324.559 112.5,322.5 Z"/></g>
<g><path style="opacity:1" fill="#854c76" d="M 142.5,364.5 C 149.12,364.184 151.954,367.184 151,373.5C 146.751,376.513 143.084,375.847 140,371.5C 139.162,368.519 139.995,366.186 142.5,364.5 Z"/></g>
<g><path style="opacity:1" fill="#804a74" d="M 402.5,378.5 C 408.5,378.833 414.5,379.167 420.5,379.5C 420.5,384.833 420.5,390.167 420.5,395.5C 416.774,395.823 413.107,395.489 409.5,394.5C 406.605,389.379 404.271,384.046 402.5,378.5 Z"/></g>
<g><path style="opacity:1" fill="#c67c7c" d="M 430.5,379.5 C 436.369,379.048 442.035,379.881 447.5,382C 456.512,386.84 464.179,393.34 470.5,401.5C 459.826,411.498 452.16,423.498 447.5,437.5C 441.172,438.784 435.505,437.284 430.5,433C 428.221,428.943 426.054,424.777 424,420.5C 419.534,415.717 414.7,411.551 409.5,408C 409.645,407.228 409.978,406.561 410.5,406C 415.833,405.667 421.167,405.333 426.5,405C 427.667,403.833 428.833,402.667 430,401.5C 430.5,394.174 430.666,386.841 430.5,379.5 Z"/></g>
<g><path style="opacity:1" fill="#efad8e" d="M 392.5,383.5 C 395.201,389.232 398.201,394.899 401.5,400.5C 399.837,403.656 398.67,406.989 398,410.5C 389.773,418.953 384.773,428.953 383,440.5C 383.833,441.333 384.667,442.167 385.5,443C 398.343,446.967 410.843,446.133 423,440.5C 431.663,446.167 441.163,449.667 451.5,451C 453.833,452.5 456.167,454 458.5,455.5C 459.429,456.689 459.762,458.022 459.5,459.5C 453.776,460.941 447.943,461.607 442,461.5C 430.356,459.951 418.689,458.618 407,457.5C 399.095,457.462 391.262,458.129 383.5,459.5C 378.5,459.5 373.5,459.5 368.5,459.5C 368.5,455.833 368.5,452.167 368.5,448.5C 369.409,436.772 372.742,425.772 378.5,415.5C 375.58,409.475 372.08,409.142 368,414.5C 362.178,425.466 358.678,437.132 357.5,449.5C 351.86,445.693 346.36,441.693 341,437.5C 335.932,430.691 333.099,423.024 332.5,414.5C 336.917,413.883 341.25,412.883 345.5,411.5C 345.525,416.378 345.692,421.378 346,426.5C 348.706,429.978 351.706,430.311 355,427.5C 354.902,409.268 363.235,396.602 380,389.5C 380.49,388.207 380.657,386.873 380.5,385.5C 384.426,384.448 388.426,383.782 392.5,383.5 Z"/></g>
<g><path style="opacity:1" fill="#884d76" d="M 442.5,391.5 C 446.35,391.178 449.517,392.511 452,395.5C 451.287,404.486 447.454,405.819 440.5,399.5C 438.971,396.282 439.638,393.615 442.5,391.5 Z"/></g>
<g><path style="opacity:1" fill="#efad8e" d="M 213.5,411.5 C 221.245,415.706 229.245,419.372 237.5,422.5C 237.448,425.952 239.115,428.119 242.5,429C 252.188,431.437 261.855,433.937 271.5,436.5C 273.623,441.921 276.623,446.754 280.5,451C 263.435,452.121 247.102,449.121 231.5,442C 212.351,433.351 195.185,421.851 180,407.5C 180.263,403.17 180.93,398.837 182,394.5C 189.6,401.435 197.766,407.602 206.5,413C 209.171,413.833 211.504,413.333 213.5,411.5 Z"/></g>
<g><path style="opacity:1" fill="#c67c7c" d="M 275.5,400.5 C 281.772,409.849 289.105,418.349 297.5,426C 306.494,426.5 315.494,426.666 324.5,426.5C 325.038,428.117 325.371,429.784 325.5,431.5C 322.813,431.336 320.146,431.503 317.5,432C 314.131,437.112 315.464,440.445 321.5,442C 328.724,440.814 334.39,443.147 338.5,449C 352.556,455.599 361.556,466.433 365.5,481.5C 365.189,484.651 363.523,486.818 360.5,488C 350.067,488.95 339.734,488.617 329.5,487C 323.324,481.173 324.658,478.839 333.5,480C 336.167,477 336.167,474 333.5,471C 311.603,467.431 294.77,456.265 283,437.5C 277.491,425.786 274.991,413.453 275.5,400.5 Z"/></g>
<g><path style="opacity:1" fill="#7e4a73" d="M 474.5,412.5 C 476.825,413.655 477.992,415.655 478,418.5C 479.16,423.434 479.66,428.434 479.5,433.5C 473.813,432.496 468.147,431.329 462.5,430C 466.33,424.011 470.33,418.178 474.5,412.5 Z"/></g>
<g><path style="opacity:1" fill="#804a74" d="M 403.5,418.5 C 410.459,420.29 415.459,424.457 418.5,431C 410.981,435.324 402.981,436.491 394.5,434.5C 397.017,428.788 400.017,423.455 403.5,418.5 Z"/></g>
<g><path style="opacity:1" fill="#834b75" d="M 96.5,421.5 C 98.5659,424.148 101.066,426.482 104,428.5C 105.489,432.833 103.989,435.167 99.5,435.5C 96.3948,434.779 93.3948,433.779 90.5,432.5C 92.2619,428.638 94.2619,424.972 96.5,421.5 Z"/></g>
<g><path style="opacity:1" fill="#844b75" d="M 86.5,442.5 C 91.9871,445.999 97.9871,448.332 104.5,449.5C 105.192,450.025 105.692,450.692 106,451.5C 107.415,456.08 105.749,458.414 101,458.5C 94.8448,457.832 89.0114,456.165 83.5,453.5C 84.1809,449.75 85.1809,446.084 86.5,442.5 Z"/></g>
<g><path style="opacity:1" fill="#957671" d="M 368.5,448.5 C 368.5,452.167 368.5,455.833 368.5,459.5C 373.5,459.5 378.5,459.5 383.5,459.5C 378.36,460.488 373.026,460.821 367.5,460.5C 367.183,456.298 367.517,452.298 368.5,448.5 Z"/></g>
</svg>
