<?xml version="1.0" encoding="UTF-8"?>
<!DOCTYPE svg PUBLIC "-//W3C//DTD SVG 1.1//EN" "http://www.w3.org/Graphics/SVG/1.1/DTD/svg11.dtd">
<svg xmlns="http://www.w3.org/2000/svg" version="1.1" width="512px" height="512px" style="shape-rendering:geometricPrecision; text-rendering:geometricPrecision; image-rendering:optimizeQuality; fill-rule:evenodd; clip-rule:evenodd" xmlns:xlink="http://www.w3.org/1999/xlink">
<g><path style="opacity:1" fill="#393f52" d="M 294.5,353.5 C 292.489,349.97 290.655,346.303 289,342.5C 288.503,340.19 288.337,337.857 288.5,335.5C 281.465,334.483 275.798,331.149 271.5,325.5C 263.926,330.569 257.092,336.569 251,343.5C 241.726,357.707 230.392,370.04 217,380.5C 215.872,382.345 215.372,384.345 215.5,386.5C 219.514,386.666 223.514,386.499 227.5,386C 235.896,372.968 247.896,365.635 263.5,364C 269.287,361.606 274.954,358.94 280.5,356C 283.498,355.109 286.164,355.609 288.5,357.5C 288.945,360.365 288.278,362.865 286.5,365C 281.446,368.194 276.112,370.861 270.5,373C 262.381,375.362 254.381,378.029 246.5,381C 242.3,383.567 239.133,387.067 237,391.5C 236.045,407.9 236.378,424.234 238,440.5C 242.833,446 247.667,451.5 252.5,457C 258.701,458.869 265.034,460.202 271.5,461C 282.854,467.467 285.854,476.467 280.5,488C 273.333,488.167 266.167,488.333 259,488.5C 240.665,492.859 227.332,486.859 219,470.5C 214.308,464.469 208.475,459.969 201.5,457C 196.991,453.117 195.491,448.284 197,442.5C 198.7,439.48 200.366,436.48 202,433.5C 203.915,416.223 204.915,398.89 205,381.5C 205.725,379.051 206.725,376.717 208,374.5C 215.97,367.531 223.636,360.198 231,352.5C 240.131,337.57 251.964,325.237 266.5,315.5C 267.386,314.675 267.719,313.675 267.5,312.5C 268.265,306.454 270.599,300.954 274.5,296C 265.526,278.64 269.859,265.974 287.5,258C 284.861,246.438 288.694,237.604 299,231.5C 299.499,227.514 299.666,223.514 299.5,219.5C 290.343,219.87 281.343,222.036 272.5,226C 252.995,238.589 232.995,250.423 212.5,261.5C 212.167,261.833 211.833,262.167 211.5,262.5C 215.948,266.042 220.948,268.542 226.5,270C 227.423,272.041 227.756,274.208 227.5,276.5C 224.383,277.793 222.217,279.793 221,282.5C 227.207,288.375 233.707,293.875 240.5,299C 245.844,302.115 251.511,304.448 257.5,306C 259.229,307.789 259.896,309.956 259.5,312.5C 258.608,314.714 256.942,315.714 254.5,315.5C 244.98,313.573 236.313,309.739 228.5,304C 221.648,297.647 214.648,291.481 207.5,285.5C 206.133,281.542 207.133,278.209 210.5,275.5C 207.025,273.192 203.692,270.692 200.5,268C 199.423,267.53 198.423,267.697 197.5,268.5C 197.062,267.494 196.396,267.494 195.5,268.5C 190.49,270.421 185.657,272.755 181,275.5C 178.591,279.892 177.091,284.558 176.5,289.5C 175.022,293.285 173.855,297.285 173,301.5C 172.167,314.18 172.334,326.846 173.5,339.5C 178.958,335.593 182.124,330.26 183,323.5C 183.885,309.459 185.052,295.459 186.5,281.5C 187.267,280.828 187.934,279.995 188.5,279C 190.382,278.802 192.048,278.302 193.5,277.5C 193.833,277.5 194.167,277.5 194.5,277.5C 196.533,278.898 197.533,280.898 197.5,283.5C 196.245,298.194 194.745,312.86 193,327.5C 190.888,339.097 184.388,346.764 173.5,350.5C 174.244,358.944 172.744,366.944 169,374.5C 164.972,379.43 159.805,382.097 153.5,382.5C 154.883,390.207 154.717,397.874 153,405.5C 150.234,411.49 145.734,414.157 139.5,413.5C 138.565,410.887 138.398,408.221 139,405.5C 141,404.833 142.333,403.5 143,401.5C 143.167,398.333 143.333,395.167 143.5,392C 141.621,372.803 139.621,353.636 137.5,334.5C 137.666,327.492 137.5,320.492 137,313.5C 128.986,320.232 125.82,328.898 127.5,339.5C 126.389,348.452 126.223,357.452 127,366.5C 128.913,382.137 130.413,397.804 131.5,413.5C 132.302,426.613 131.136,439.613 128,452.5C 122.103,462.532 113.77,465.198 103,460.5C 101.342,467.5 98.1749,473.666 93.5,479C 85.7077,482.96 78.541,482.126 72,476.5C 67.698,484.138 61.5313,489.638 53.5,493C 46.6199,494.909 42.9532,492.409 42.5,485.5C 46.1631,483.267 50.1631,481.767 54.5,481C 62.7323,472.373 68.2323,462.206 71,450.5C 73.2247,437.046 75.058,423.546 76.5,410C 76.1667,408.833 75.8333,407.667 75.5,406.5C 71.6386,410.58 67.3053,413.914 62.5,416.5C 56.1181,420.24 49.2847,422.907 42,424.5C 37.0991,430.302 33.7658,436.968 32,444.5C 30.2626,455.966 26.7626,466.8 21.5,477C 21.9541,478.622 22.9541,479.788 24.5,480.5C 36.0326,473.117 44.5326,463.117 50,450.5C 51.8461,444.784 53.8461,439.117 56,433.5C 57.6995,432.594 59.5328,432.261 61.5,432.5C 63.7142,433.392 64.7142,435.058 64.5,437.5C 61.9128,449.004 57.4128,459.67 51,469.5C 47.5956,473.394 44.4289,477.394 41.5,481.5C 36.7806,486.359 31.114,489.359 24.5,490.5C 16.0287,490.365 11.362,486.031 10.5,477.5C 12.9939,471.177 15.4939,464.843 18,458.5C 19.9359,444.692 24.2692,431.692 31,419.5C 45.7971,408.042 56.7971,393.708 64,376.5C 86.1999,290.634 140.7,238.468 227.5,220C 243.801,201.185 264.468,191.518 289.5,191C 301.439,187.53 312.439,182.197 322.5,175C 345.736,164.295 370.069,160.628 395.5,164C 407.585,160.38 414.418,152.213 416,139.5C 417.031,129.629 416.031,119.963 413,110.5C 409.953,107.117 406.62,104.117 403,101.5C 394.897,103.663 386.73,103.997 378.5,102.5C 369.843,104.334 361.176,105.834 352.5,107C 348.47,104.713 347.636,101.546 350,97.5C 355.167,91 361,85.1667 367.5,80C 357.479,79.2416 347.479,79.4083 337.5,80.5C 333.349,80.5944 331.016,78.5944 330.5,74.5C 334.899,67.5955 340.232,61.4288 346.5,56C 352.401,51.1332 358.567,46.6332 365,42.5C 369.662,30.2545 378.496,23.4212 391.5,22C 407.5,21.6667 423.5,21.3333 439.5,21C 444.116,20.2211 448.616,19.0544 453,17.5C 456.641,17.8078 458.641,19.8078 459,23.5C 459.796,27.7548 459.629,31.9215 458.5,36C 467.118,39.6186 474.284,45.1186 480,52.5C 480.667,54.1667 480.667,55.8333 480,57.5C 476.054,61.4446 471.554,64.6113 466.5,67C 476.459,86.9581 481.126,108.125 480.5,130.5C 479.964,156.978 475.13,182.645 466,207.5C 462.343,216.156 457.676,224.156 452,231.5C 450.887,235.508 449.387,239.341 447.5,243C 469.608,246.697 478.108,259.531 473,281.5C 492.981,290.867 502.148,306.7 500.5,329C 500.158,346.043 496.991,362.543 491,378.5C 479.641,400.837 466.308,421.837 451,441.5C 427.323,466.096 398.823,482.596 365.5,491C 354.313,494.022 346.98,490.188 343.5,479.5C 340.763,480.031 338.096,480.864 335.5,482C 323.706,484.032 316.706,479.199 314.5,467.5C 301.018,467.518 295.185,460.852 297,447.5C 304.086,437.078 312.586,427.912 322.5,420C 313.411,422.77 304.078,424.937 294.5,426.5C 284.374,424.865 279.54,418.865 280,408.5C 270.311,410.332 264.478,406.332 262.5,396.5C 262.766,392.309 264.433,388.809 267.5,386C 278.769,381.122 288.936,374.622 298,366.5C 299.586,363.659 301.42,360.993 303.5,358.5C 300.607,356.555 297.607,354.889 294.5,353.5 Z"/></g>
<g><path style="opacity:1" fill="#ddefa0" d="M 445.5,30.5 C 446.5,30.5 447.5,30.5 448.5,30.5C 448.357,33.0974 447.523,35.4308 446,37.5C 445.333,39.5 445.333,41.5 446,43.5C 450.756,45.311 455.589,47.1443 460.5,49C 462.792,50.2899 464.792,51.9565 466.5,54C 463.036,56.0465 459.37,57.7132 455.5,59C 454.056,60.126 453.39,61.626 453.5,63.5C 461.348,78.2126 466.515,93.8793 469,110.5C 469.667,114.5 469.667,118.5 469,122.5C 462.602,107.105 453.435,93.6049 441.5,82C 434.511,76.6688 426.844,75.3355 418.5,78C 412.601,81.2306 407.268,85.2306 402.5,90C 400.913,90.8624 399.246,91.5291 397.5,92C 388.5,92.6667 379.5,92.6667 370.5,92C 375.543,87.2879 380.877,82.9546 386.5,79C 400.931,77.0381 412.765,70.5381 422,59.5C 424.86,55.1423 426.527,50.4757 427,45.5C 425.136,42.7928 422.636,41.9595 419.5,43C 415.588,53.2465 408.588,60.5798 398.5,65C 382.355,69.2483 366.021,70.2483 349.5,68C 355.3,62.6011 361.633,57.9344 368.5,54C 373.102,49.9626 376.602,45.1293 379,39.5C 380.873,37.2911 383.04,35.4578 385.5,34C 405.638,33.0851 425.638,31.9184 445.5,30.5 Z"/></g>
<g><path style="opacity:1" fill="#86995f" d="M 390.5,43.5 C 397.632,43.7891 399.298,46.9558 395.5,53C 388.548,55.8594 385.548,53.6927 386.5,46.5C 387.901,45.4793 389.235,44.4793 390.5,43.5 Z"/></g>
<g><path style="opacity:1" fill="#f1ae8e" d="M 458.5,125.5 C 460.703,141.874 456.703,156.374 446.5,169C 443.806,171.347 440.806,173.18 437.5,174.5C 443.305,153.011 440.471,132.677 429,113.5C 424.023,107.022 418.856,100.688 413.5,94.5C 420.108,86.6377 427.775,85.4711 436.5,91C 446.494,100.822 453.827,112.322 458.5,125.5 Z"/></g>
<g><path style="opacity:1" fill="#f7f6e9" d="M 458.5,125.5 C 463.107,135.373 465.107,145.873 464.5,157C 464.825,176.201 460.658,194.368 452,211.5C 449.322,199.323 441.822,191.989 429.5,189.5C 432.958,184.918 435.624,179.918 437.5,174.5C 440.806,173.18 443.806,171.347 446.5,169C 456.703,156.374 460.703,141.874 458.5,125.5 Z"/></g>
<g><path style="opacity:1" fill="#80925d" d="M 424.5,178.5 C 422.052,177.527 419.385,177.194 416.5,177.5C 416.409,173.408 414.409,170.741 410.5,169.5C 420.464,161.58 426.297,151.247 428,138.5C 432.152,152.424 430.985,165.757 424.5,178.5 Z"/></g>
<g><path style="opacity:1" fill="#deefa0" d="M 416.5,177.5 C 419.385,177.194 422.052,177.527 424.5,178.5C 421.749,182.757 418.416,186.59 414.5,190C 396.854,197.328 378.521,201.995 359.5,204C 341.538,205.663 323.538,206.663 305.5,207C 290.06,208.702 275.393,213.035 261.5,220C 250.333,227.167 239.167,234.333 228,241.5C 235.777,223.303 249.277,211.137 268.5,205C 279.255,203.392 289.921,201.392 300.5,199C 312.292,193.271 323.959,187.271 335.5,181C 351.618,174.831 368.285,172.831 385.5,175C 394.04,176.673 402.54,178.506 411,180.5C 413.192,180.137 415.026,179.137 416.5,177.5 Z"/></g>
<g><path style="opacity:1" fill="#def0a1" d="M 416.5,200.5 C 421.179,200.334 425.845,200.501 430.5,201C 439.048,203.568 443.048,209.401 442.5,218.5C 441.919,226.156 440.086,233.489 437,240.5C 430.418,249.753 423.084,258.42 415,266.5C 412.833,270 410.667,273.5 408.5,277C 405.576,277.988 402.576,278.654 399.5,279C 391.167,279.333 382.833,279.667 374.5,280C 371.803,283.271 372.136,286.271 375.5,289C 388.9,289.785 402.234,289.118 415.5,287C 433.069,285.496 450.402,286.829 467.5,291C 483.82,298.29 491.153,310.957 489.5,329C 489.487,344.396 486.654,359.23 481,373.5C 481.7,356.967 477.366,341.967 468,328.5C 457.352,317.096 444.185,311.596 428.5,312C 421.156,306.112 412.823,304.112 403.5,306C 389.776,311.32 376.442,310.653 363.5,304C 352.598,293.896 349.432,281.729 354,267.5C 361.555,256.055 367.222,243.721 371,230.5C 372.255,224.552 373.088,218.552 373.5,212.5C 388.154,209.277 402.487,205.277 416.5,200.5 Z"/></g>
<g><path style="opacity:1" fill="#9eb6e7" d="M 359.5,214.5 C 360.833,214.5 362.167,214.5 363.5,214.5C 362.381,221.217 361.047,227.883 359.5,234.5C 354.5,233.833 349.5,233.167 344.5,232.5C 343.87,228.099 345.203,224.432 348.5,221.5C 352.062,218.892 355.729,216.559 359.5,214.5 Z"/></g>
<g><path style="opacity:1" fill="#6f93d1" d="M 333.5,215.5 C 335.604,215.201 337.604,215.534 339.5,216.5C 335.482,221.049 333.315,226.382 333,232.5C 321.927,239.228 317.76,248.894 320.5,261.5C 310.761,271.178 308.927,282.178 315,294.5C 315.333,300.833 315.667,307.167 316,313.5C 319.442,325.096 327.275,331.429 339.5,332.5C 341.19,339.725 345.19,345.225 351.5,349C 347.2,352.298 343.2,355.965 339.5,360C 333.365,360.052 329.699,356.885 328.5,350.5C 330.713,347.457 332.713,344.29 334.5,341C 333.016,336.089 330.016,334.756 325.5,337C 321.215,345.143 314.548,348.476 305.5,347C 299.962,344.592 297.962,340.592 299.5,335C 303.23,333.604 306.73,331.77 310,329.5C 312.244,324.984 310.911,321.984 306,320.5C 302.563,322.468 299.063,324.302 295.5,326C 282.953,326.12 277.453,319.953 279,307.5C 280.5,306 282,304.5 283.5,303C 288.833,302.667 294.167,302.333 299.5,302C 302.511,301.232 305.011,299.732 307,297.5C 307.92,294.692 307.087,292.525 304.5,291C 298.265,292.171 291.931,292.504 285.5,292C 280.85,287.426 279.35,281.926 281,275.5C 287.169,267.834 295.003,265.501 304.5,268.5C 309.151,267.807 310.651,265.141 309,260.5C 305.595,258.147 301.762,256.98 297.5,257C 295.805,244.028 301.472,238.362 314.5,240C 317.087,238.475 317.92,236.308 317,233.5C 314.817,231.553 312.484,229.886 310,228.5C 308.431,223.375 309.931,219.541 314.5,217C 321.013,216.828 327.347,216.328 333.5,215.5 Z"/></g>
<g><path style="opacity:1" fill="#f8f7ea" d="M 299.5,219.5 C 298.542,219.953 297.708,220.619 297,221.5C 295.205,225.052 293.705,228.718 292.5,232.5C 282.163,238.341 277.83,247.174 279.5,259C 272.167,263.667 264.833,268.333 257.5,273C 247.858,277.344 237.858,278.51 227.5,276.5C 227.756,274.208 227.423,272.041 226.5,270C 220.948,268.542 215.948,266.042 211.5,262.5C 211.833,262.167 212.167,261.833 212.5,261.5C 232.995,250.423 252.995,238.589 272.5,226C 281.343,222.036 290.343,219.87 299.5,219.5 Z"/></g>
<g><path style="opacity:1" fill="#efad8e" d="M 299.5,219.5 C 299.666,223.514 299.499,227.514 299,231.5C 288.694,237.604 284.861,246.438 287.5,258C 269.859,265.974 265.526,278.64 274.5,296C 270.599,300.954 268.265,306.454 267.5,312.5C 264.833,312.5 262.167,312.5 259.5,312.5C 259.896,309.956 259.229,307.789 257.5,306C 251.511,304.448 245.844,302.115 240.5,299C 233.707,293.875 227.207,288.375 221,282.5C 222.217,279.793 224.383,277.793 227.5,276.5C 237.858,278.51 247.858,277.344 257.5,273C 264.833,268.333 272.167,263.667 279.5,259C 277.83,247.174 282.163,238.341 292.5,232.5C 293.705,228.718 295.205,225.052 297,221.5C 297.708,220.619 298.542,219.953 299.5,219.5 Z"/></g>
<g><path style="opacity:1" fill="#ddefa0" d="M 101.5,344.5 C 95.6138,348.611 89.2805,351.944 82.5,354.5C 101.757,299.409 138.757,261.576 193.5,241C 201.159,237.96 208.992,235.46 217,233.5C 217.833,233.833 218.667,234.167 219.5,234.5C 216.921,239.992 214.088,245.325 211,250.5C 177.833,261.576 150.166,280.576 128,307.5C 118.667,319.51 109.833,331.843 101.5,344.5 Z"/></g>
<g><path style="opacity:1" fill="#9eb6e8" d="M 337.5,241.5 C 343.464,241.659 349.131,242.993 354.5,245.5C 351.7,250.796 348.7,255.963 345.5,261C 340.843,261.04 336.176,260.706 331.5,260C 328.155,252.173 330.155,246.007 337.5,241.5 Z"/></g>
<g><path style="opacity:1" fill="#82955f" d="M 195.5,268.5 C 194.486,271.689 192.82,274.522 190.5,277C 191.448,277.483 192.448,277.649 193.5,277.5C 192.048,278.302 190.382,278.802 188.5,279C 187.934,279.995 187.267,280.828 186.5,281.5C 183.167,284.167 179.833,286.833 176.5,289.5C 177.091,284.558 178.591,279.892 181,275.5C 185.657,272.755 190.49,270.421 195.5,268.5 Z"/></g>
<g><path style="opacity:1" fill="#9fb8e9" d="M 327.5,269.5 C 332.172,270.107 336.839,270.773 341.5,271.5C 341.833,272 342.167,272.5 342.5,273C 341.916,277.501 341.249,282.001 340.5,286.5C 334.724,288.564 328.891,289.23 323,288.5C 320.05,281.065 321.55,274.731 327.5,269.5 Z"/></g>
<g><path style="opacity:1" fill="#d8eb9f" d="M 197.5,268.5 C 196.698,271.574 195.698,274.574 194.5,277.5C 194.167,277.5 193.833,277.5 193.5,277.5C 192.448,277.649 191.448,277.483 190.5,277C 192.82,274.522 194.486,271.689 195.5,268.5C 196.396,267.494 197.062,267.494 197.5,268.5 Z"/></g>
<g><path style="opacity:1" fill="#ddefa0" d="M 186.5,281.5 C 185.052,295.459 183.885,309.459 183,323.5C 182.124,330.26 178.958,335.593 173.5,339.5C 172.334,326.846 172.167,314.18 173,301.5C 173.855,297.285 175.022,293.285 176.5,289.5C 179.833,286.833 183.167,284.167 186.5,281.5 Z"/></g>
<g><path style="opacity:1" fill="#686f8d" d="M 162.5,304.5 C 162.649,303.448 162.483,302.448 162,301.5C 157.331,305.337 152.831,309.337 148.5,313.5C 148.45,308.448 148.95,303.448 150,298.5C 154.833,294.333 159.667,290.167 164.5,286C 165.483,285.409 166.15,285.743 166.5,287C 164.48,292.82 163.147,298.654 162.5,304.5 Z"/></g>
<g><path style="opacity:1" fill="#9fb8ea" d="M 341.5,296.5 C 342.978,296.238 344.311,296.571 345.5,297.5C 347.919,302.085 350.919,306.252 354.5,310C 351.023,313.567 347.356,316.9 343.5,320C 335.306,322.595 329.473,320.095 326,312.5C 325.501,308.179 325.334,303.846 325.5,299.5C 331.095,299.246 336.428,298.246 341.5,296.5 Z"/></g>
<g><path style="opacity:1" fill="#a0b8ea" d="M 162.5,304.5 C 162.139,324.136 161.973,343.802 162,363.5C 160.947,369.387 157.447,372.054 151.5,371.5C 150.755,362.451 149.588,353.451 148,344.5C 147.192,334.09 147.359,323.757 148.5,313.5C 152.831,309.337 157.331,305.337 162,301.5C 162.483,302.448 162.649,303.448 162.5,304.5 Z"/></g>
<g><path style="opacity:1" fill="#82955f" d="M 137.5,334.5 C 136.691,332.708 136.191,330.708 136,328.5C 133.147,332.235 130.313,335.902 127.5,339.5C 125.82,328.898 128.986,320.232 137,313.5C 137.5,320.492 137.666,327.492 137.5,334.5 Z"/></g>
<g><path style="opacity:1" fill="#a0b8ea" d="M 362.5,315.5 C 368.861,317.972 375.528,319.306 382.5,319.5C 393.218,318.313 403.884,317.147 414.5,316C 418.295,316.793 421.295,318.793 423.5,322C 433.752,321.324 443.418,323.324 452.5,328C 459.133,332.063 461.3,337.896 459,345.5C 457.638,348.236 455.804,350.569 453.5,352.5C 451.975,357.809 453.975,360.309 459.5,360C 463,357.833 465.833,355 468,351.5C 473.931,375.436 469.931,397.436 456,417.5C 448.542,428.625 439.376,438.125 428.5,446C 424.193,447.308 421.86,445.808 421.5,441.5C 422.825,435.847 424.991,430.514 428,425.5C 438.411,415.093 448.078,404.093 457,392.5C 460.157,385.653 457.99,382.82 450.5,384C 441.775,395.75 432.108,406.75 421.5,417C 418.774,419.03 415.774,420.53 412.5,421.5C 410.053,421.099 409.053,419.599 409.5,417C 410.624,412.246 412.458,407.746 415,403.5C 424.613,393.887 434.279,384.221 444,374.5C 446.627,370.003 445.461,367.003 440.5,365.5C 439.062,365.719 437.729,366.219 436.5,367C 428.167,375.333 419.833,383.667 411.5,392C 401.72,397.3 398.553,394.8 402,384.5C 404.079,380.007 406.412,375.674 409,371.5C 415.833,364.667 422.667,357.833 429.5,351C 433.697,347.902 438.363,345.902 443.5,345C 446.809,340.224 445.642,337.058 440,335.5C 434.325,336.501 429.158,338.668 424.5,342C 417.531,347.968 410.864,354.301 404.5,361C 396.754,364.749 393.588,362.582 395,354.5C 395.557,352.385 396.391,350.385 397.5,348.5C 404.744,345.632 411.244,341.632 417,336.5C 418.328,330.833 416.161,328.333 410.5,329C 396.314,339.881 380.314,344.214 362.5,342C 355.381,340.952 351.048,336.952 349.5,330C 353.657,325.009 357.991,320.176 362.5,315.5 Z"/></g>
<g><path style="opacity:1" fill="#f0ad8e" d="M 294.5,353.5 C 292.772,355.226 290.772,356.559 288.5,357.5C 286.164,355.609 283.498,355.109 280.5,356C 274.954,358.94 269.287,361.606 263.5,364C 247.896,365.635 235.896,372.968 227.5,386C 223.514,386.499 219.514,386.666 215.5,386.5C 215.372,384.345 215.872,382.345 217,380.5C 230.392,370.04 241.726,357.707 251,343.5C 257.092,336.569 263.926,330.569 271.5,325.5C 275.798,331.149 281.465,334.483 288.5,335.5C 288.337,337.857 288.503,340.19 289,342.5C 290.655,346.303 292.489,349.97 294.5,353.5 Z"/></g>
<g><path style="opacity:1" fill="#dbed9f" d="M 137.5,334.5 C 139.621,353.636 141.621,372.803 143.5,392C 143.333,395.167 143.167,398.333 143,401.5C 142.333,403.5 141,404.833 139,405.5C 138.398,408.221 138.565,410.887 139.5,413.5C 136.833,413.5 134.167,413.5 131.5,413.5C 130.413,397.804 128.913,382.137 127,366.5C 126.223,357.452 126.389,348.452 127.5,339.5C 130.313,335.902 133.147,332.235 136,328.5C 136.191,330.708 136.691,332.708 137.5,334.5 Z"/></g>
<g><path style="opacity:1" fill="#6f93d0" d="M 101.5,383.5 C 101.527,376.814 101.861,370.148 102.5,363.5C 106.236,355.693 110.736,348.36 116,341.5C 116.24,361.952 117.907,382.285 121,402.5C 122.453,418.44 121.119,434.107 117,449.5C 113.333,453.5 109.667,453.5 106,449.5C 107.826,433.242 108.493,416.908 108,400.5C 107.667,395.833 107.333,391.167 107,386.5C 105.736,384.393 103.903,383.393 101.5,383.5 Z"/></g>
<g><path style="opacity:1" fill="#80935d" d="M 101.5,344.5 C 93.3243,357.513 86.1576,371.18 80,385.5C 75.041,392.793 69.041,399.126 62,404.5C 65.5035,398.503 68.8369,392.17 72,385.5C 75.4333,375.032 78.9333,364.699 82.5,354.5C 89.2805,351.944 95.6138,348.611 101.5,344.5 Z"/></g>
<g><path style="opacity:1" fill="#6f94d1" d="M 380.5,351.5 C 382.288,351.215 383.955,351.548 385.5,352.5C 381.916,362.666 385.25,369.333 395.5,372.5C 394.021,376.802 392.521,381.135 391,385.5C 388.89,395.616 392.723,402.283 402.5,405.5C 395.065,419.215 398.731,428.215 413.5,432.5C 410.678,438.938 410.844,445.271 414,451.5C 415.214,453.049 416.714,454.215 418.5,455C 399.745,468.359 379.078,477.025 356.5,481C 352.157,476.05 352.823,471.716 358.5,468C 368.331,463.369 378.331,459.036 388.5,455C 392.092,452.287 395.592,449.453 399,446.5C 399.993,440.498 397.493,438.332 391.5,440C 388.01,442.911 384.344,445.578 380.5,448C 372.294,450.403 364.294,453.403 356.5,457C 349.505,462.166 342.172,466.833 334.5,471C 326.008,472.522 323.675,469.522 327.5,462C 344.762,453.459 360.929,443.292 376,431.5C 377.65,426.932 376.15,424.266 371.5,423.5C 359.324,431.495 346.991,439.328 334.5,447C 328.07,450.549 321.404,453.549 314.5,456C 308.333,457.833 306.167,455.667 308,449.5C 318.601,437.893 330.101,427.393 342.5,418C 356.576,414.873 369.076,408.706 380,399.5C 381.539,395.195 380.206,392.528 376,391.5C 369.308,395.433 362.475,399.266 355.5,403C 347.619,405.071 339.952,407.738 332.5,411C 327.917,411.934 326.417,410.1 328,405.5C 338.544,393.268 351.71,385.768 367.5,383C 371.644,381.734 375.477,379.901 379,377.5C 380.267,373.269 378.767,370.602 374.5,369.5C 363.195,372.832 351.862,376.165 340.5,379.5C 338.734,379.566 337.734,378.732 337.5,377C 344.569,367.93 352.902,360.263 362.5,354C 368.573,352.92 374.573,352.087 380.5,351.5 Z"/></g>
<g><path style="opacity:1" fill="#81935d" d="M 102.5,363.5 C 101.861,370.148 101.527,376.814 101.5,383.5C 100.178,383.33 99.0113,383.663 98,384.5C 97.6667,399.833 97.3333,415.167 97,430.5C 96.3715,443.679 93.5382,456.345 88.5,468.5C 82.0036,472.412 78.337,470.579 77.5,463C 83.736,439.948 86.9027,416.448 87,392.5C 92.1807,382.803 97.3474,373.137 102.5,363.5 Z"/></g>
<g><path style="opacity:1" fill="#ef7b44" d="M 215.5,396.5 C 218.833,396.5 222.167,396.5 225.5,396.5C 225.333,410.504 225.5,424.504 226,438.5C 226.803,441.244 227.803,443.911 229,446.5C 234.211,452.042 239.044,457.875 243.5,464C 250.002,468.818 257.335,470.818 265.5,470C 268.311,471.644 270.644,473.81 272.5,476.5C 266.833,476.833 261.167,477.167 255.5,477.5C 242.985,480.952 234.152,476.952 229,465.5C 222.883,458.377 215.883,452.377 208,447.5C 207.333,446.5 207.333,445.5 208,444.5C 210.613,441.676 212.279,438.342 213,434.5C 213.892,421.831 214.726,409.165 215.5,396.5 Z"/></g>
<g><path style="opacity:1" fill="#6e92cf" d="M 42.5,485.5 C 41.7659,484.292 41.4326,482.959 41.5,481.5C 44.4289,477.394 47.5956,473.394 51,469.5C 57.4128,459.67 61.9128,449.004 64.5,437.5C 64.7142,435.058 63.7142,433.392 61.5,432.5C 62.1245,428.006 62.7912,423.506 63.5,419C 63.472,417.93 63.1386,417.097 62.5,416.5C 67.3053,413.914 71.6386,410.58 75.5,406.5C 75.8333,407.667 76.1667,408.833 76.5,410C 75.058,423.546 73.2247,437.046 71,450.5C 68.2323,462.206 62.7323,472.373 54.5,481C 50.1631,481.767 46.1631,483.267 42.5,485.5 Z"/></g>
<g><path style="opacity:1" fill="#3b4157" d="M 384.5,411.5 C 393.235,412.287 394.568,415.787 388.5,422C 382.498,422.993 380.332,420.493 382,414.5C 383.045,413.627 383.878,412.627 384.5,411.5 Z"/></g>
<g><path style="opacity:1" fill="#81945d" d="M 62.5,416.5 C 63.1386,417.097 63.472,417.93 63.5,419C 62.7912,423.506 62.1245,428.006 61.5,432.5C 59.5328,432.261 57.6995,432.594 56,433.5C 53.8461,439.117 51.8461,444.784 50,450.5C 44.5326,463.117 36.0326,473.117 24.5,480.5C 22.9541,479.788 21.9541,478.622 21.5,477C 26.7626,466.8 30.2626,455.966 32,444.5C 33.7658,436.968 37.0991,430.302 42,424.5C 49.2847,422.907 56.1181,420.24 62.5,416.5 Z"/></g>
</svg>
