<?xml version="1.0" encoding="UTF-8"?>
<!DOCTYPE svg PUBLIC "-//W3C//DTD SVG 1.1//EN" "http://www.w3.org/Graphics/SVG/1.1/DTD/svg11.dtd">
<svg xmlns="http://www.w3.org/2000/svg" version="1.1" width="512px" height="512px" style="shape-rendering:geometricPrecision; text-rendering:geometricPrecision; image-rendering:optimizeQuality; fill-rule:evenodd; clip-rule:evenodd" xmlns:xlink="http://www.w3.org/1999/xlink">
<g><path style="opacity:1" fill="#393e51" d="M 382.5,13.5 C 406.568,10.9368 420.068,21.6035 423,45.5C 435.374,54.8731 446.04,65.8731 455,78.5C 482.402,116.708 495.735,159.375 495,206.5C 492.414,247.612 478.081,283.945 452,315.5C 454.059,340.987 447.059,363.653 431,383.5C 427.219,399.688 426.553,416.022 429,432.5C 432.041,446.587 438.707,458.587 449,468.5C 452.405,477.628 449.905,484.461 441.5,489C 432.149,489.168 422.816,489.668 413.5,490.5C 410.907,495.261 406.907,497.761 401.5,498C 393.167,498.667 384.833,498.667 376.5,498C 368.112,497.608 362.612,493.442 360,485.5C 361.396,467.329 357.729,450.329 349,434.5C 347.898,432.619 346.565,430.952 345,429.5C 339.922,431.061 334.755,432.228 329.5,433C 318.257,433.82 307.09,433.653 296,432.5C 295.463,442.355 297.463,451.688 302,460.5C 311.295,466.073 313.961,473.74 310,483.5C 308.039,486.135 305.539,487.969 302.5,489C 294.167,489.667 285.833,489.667 277.5,489C 271.635,487.489 267.468,483.989 265,478.5C 263.431,468.367 259.431,459.367 253,451.5C 251.547,454.858 250.713,458.358 250.5,462C 252.762,468.541 254.762,475.208 256.5,482C 255.151,491.349 249.818,496.682 240.5,498C 232.119,498.787 223.786,498.454 215.5,497C 209.333,494.833 205.167,490.667 203,484.5C 201.552,466.875 203.885,449.875 210,433.5C 166.997,450.043 122.497,459.21 76.5,461C 50.7275,459.88 31.8941,448.047 20,425.5C 8.9088,387.181 22.0755,361.348 59.5,348C 68.7873,346.517 78.1206,346.184 87.5,347C 106.167,351.655 116.001,363.488 117,382.5C 115.649,384.01 113.982,385.01 112,385.5C 106.601,381.881 101.101,378.381 95.5,375C 83.0994,370.958 72.5994,373.792 64,383.5C 56.8492,396.685 60.3492,405.518 74.5,410C 97.1855,411.412 118.186,406.079 137.5,394C 155.303,382.868 171.97,370.202 187.5,356C 239.217,295.147 305.217,263.813 385.5,262C 412.8,243.938 428.3,218.438 432,185.5C 435.458,151.557 426.624,121.391 405.5,95C 400.775,95.851 395.942,96.351 391,96.5C 381.417,94.8498 371.917,95.1831 362.5,97.5C 349.376,95.2626 344.209,87.596 347,74.5C 349.28,70.5533 351.947,66.8866 355,63.5C 356.757,53.7765 358.757,44.1098 361,34.5C 364.776,23.8887 371.943,16.8887 382.5,13.5 Z"/></g>
<g><path style="opacity:1" fill="#adada0" d="M 483.5,177.5 C 481.878,194.744 474.878,209.411 462.5,221.5C 463.328,217.138 461.661,214.471 457.5,213.5C 457.94,209.821 457.273,206.488 455.5,203.5C 459.824,203.842 461.824,201.842 461.5,197.5C 459.194,162.073 447.694,130.073 427,101.5C 422.63,97.2978 418.463,92.9645 414.5,88.5C 416.023,85.3652 416.69,82.0318 416.5,78.5C 417.183,72.9288 415.849,67.9288 412.5,63.5C 409.709,61.9602 407.209,62.2936 405,64.5C 405.359,69.8073 405.359,75.1406 405,80.5C 403.269,82.6166 401.102,84.1166 398.5,85C 390.656,85.578 382.823,85.4113 375,84.5C 370.876,84.4578 366.876,85.1244 363,86.5C 358.083,85.9941 356.083,83.3275 357,78.5C 364.667,72.1667 372.333,65.8333 380,59.5C 382.458,54.7471 385.292,50.2471 388.5,46C 391.546,43.826 394.88,43.1593 398.5,44C 414.962,51.4606 428.796,62.2939 440,76.5C 459.51,101.522 473.177,129.522 481,160.5C 482.161,166.126 482.994,171.793 483.5,177.5 Z"/></g>
<g><path style="opacity:1" fill="#78736d" d="M 392.5,52.5 C 399.968,53.6744 401.301,57.1744 396.5,63C 392.003,65.6272 389.003,64.4606 387.5,59.5C 387.719,58.062 388.219,56.7287 389,55.5C 390.518,54.8366 391.685,53.8366 392.5,52.5 Z"/></g>
<g><path style="opacity:1" fill="#6f6c6a" d="M 416.5,78.5 C 416.69,82.0318 416.023,85.3652 414.5,88.5C 413.876,88.0831 413.543,87.4164 413.5,86.5C 414.515,83.7237 415.515,81.0571 416.5,78.5 Z"/></g>
<g><path style="opacity:1" fill="#f3ecd5" d="M 444.5,159.5 C 448.292,172.917 450.792,186.583 452,200.5C 452.422,202.426 453.589,203.426 455.5,203.5C 457.273,206.488 457.94,209.821 457.5,213.5C 452.632,215.218 451.298,218.551 453.5,223.5C 454.577,224.705 455.91,225.372 457.5,225.5C 457.5,226.167 457.5,226.833 457.5,227.5C 450.037,233.969 442.037,239.636 433.5,244.5C 438.268,224.459 441.268,204.126 442.5,183.5C 443.167,175.5 443.833,167.5 444.5,159.5 Z"/></g>
<g><path style="opacity:1" fill="#6b6b75" d="M 444.5,159.5 C 443.833,167.5 443.167,175.5 442.5,183.5C 442.334,174.161 442.5,164.827 443,155.5C 443.791,156.745 444.291,158.078 444.5,159.5 Z"/></g>
<g><path style="opacity:1" fill="#756f6a" d="M 483.5,177.5 C 487.442,218.07 478.609,255.737 457,290.5C 459.06,274.238 460.893,257.904 462.5,241.5C 462.276,238.278 460.61,236.278 457.5,235.5C 457.5,232.833 457.5,230.167 457.5,227.5C 457.5,226.833 457.5,226.167 457.5,225.5C 460.063,225.269 461.73,223.935 462.5,221.5C 474.878,209.411 481.878,194.744 483.5,177.5 Z"/></g>
<g><path style="opacity:1" fill="#3c4153" d="M 457.5,213.5 C 461.661,214.471 463.328,217.138 462.5,221.5C 461.73,223.935 460.063,225.269 457.5,225.5C 455.91,225.372 454.577,224.705 453.5,223.5C 451.298,218.551 452.632,215.218 457.5,213.5 Z"/></g>
<g><path style="opacity:1" fill="#f0ad8e" d="M 457.5,227.5 C 457.5,230.167 457.5,232.833 457.5,235.5C 455.097,235.393 453.264,236.393 452,238.5C 450.948,257.745 448.282,276.745 444,295.5C 442.077,291.742 439.577,288.409 436.5,285.5C 434.468,284.181 432.468,284.181 430.5,285.5C 424.73,282.312 421.73,277.312 421.5,270.5C 423.903,270.607 425.736,269.607 427,267.5C 429.329,259.847 431.496,252.181 433.5,244.5C 442.037,239.636 450.037,233.969 457.5,227.5 Z"/></g>
<g><path style="opacity:1" fill="#aeaea1" d="M 421.5,270.5 C 421.73,277.312 424.73,282.312 430.5,285.5C 428.752,287.16 428.252,289.16 429,291.5C 441.513,306.575 445.013,323.575 439.5,342.5C 437.639,345.022 435.639,347.522 433.5,350C 432.167,350.667 430.833,350.667 429.5,350C 429.236,344.959 427.57,340.459 424.5,336.5C 422.677,335.253 420.677,334.586 418.5,334.5C 418.5,336.833 418.5,339.167 418.5,341.5C 416.418,341.624 414.918,342.624 414,344.5C 411.892,361.265 406.559,376.932 398,391.5C 392.525,405.352 390.191,419.685 391,434.5C 392.672,440.182 394.339,445.849 396,451.5C 396.469,457.19 397.136,462.857 398,468.5C 398.946,473.058 400.946,477.058 404,480.5C 404.896,483.025 404.396,485.192 402.5,487C 393.167,487.667 383.833,487.667 374.5,487C 372.274,485.773 370.774,483.939 370,481.5C 369.839,471.124 369.172,460.791 368,450.5C 363.473,439.113 358.14,428.113 352,417.5C 351.333,414.833 351.333,412.167 352,409.5C 352.689,408.643 353.522,407.977 354.5,407.5C 363.965,409.776 371.632,406.943 377.5,399C 381.881,396.494 386.547,394.828 391.5,394C 394.579,387.063 392.246,384.063 384.5,385C 377.202,386.978 370.868,390.478 365.5,395.5C 362.306,396.952 359.306,396.619 356.5,394.5C 357.669,385.821 360.169,377.487 364,369.5C 367.576,354.59 365.576,340.59 358,327.5C 353.501,323.1 350.001,323.767 347.5,329.5C 358.226,347.17 358.059,364.836 347,382.5C 342.654,387.174 337.487,390.674 331.5,393C 328.679,394.621 328.013,396.788 329.5,399.5C 324.42,399.878 319.42,400.545 314.5,401.5C 314.607,399.097 313.607,397.264 311.5,396C 300.559,396.246 291.392,392.413 284,384.5C 281.281,379.678 279.781,374.511 279.5,369C 280.35,362.772 281.183,356.605 282,350.5C 279.048,346.518 276.048,346.518 273,350.5C 270.677,356.447 269.511,362.614 269.5,369C 270.922,376.604 271.922,384.27 272.5,392C 272.902,400.894 270.736,409.06 266,416.5C 261.333,421.167 256.667,425.833 252,430.5C 245.062,439.711 240.895,450.044 239.5,461.5C 239.642,467.743 241.476,473.41 245,478.5C 246.123,481.956 245.29,484.79 242.5,487C 234.833,487.667 227.167,487.667 219.5,487C 216.667,485.5 214.5,483.333 213,480.5C 212.364,469.28 213.698,458.28 217,447.5C 227.236,426.891 230.569,405.224 227,382.5C 224.294,379.022 221.294,378.689 218,381.5C 217.501,387.491 217.334,393.491 217.5,399.5C 213.231,399.445 210.898,401.445 210.5,405.5C 210.653,401.157 208.653,398.99 204.5,399C 198.669,402.081 193.002,405.415 187.5,409C 168.438,425.704 146.771,438.037 122.5,446C 105.732,450.153 88.7316,451.487 71.5,450C 36.0898,442.94 21.9231,421.773 29,386.5C 30.8287,382.172 33.162,378.172 36,374.5C 35.7538,400.914 48.5871,416.414 74.5,421C 95.659,422.029 115.659,417.696 134.5,408C 154.837,396.995 173.504,383.661 190.5,368C 203.167,354 216.5,340.667 230.5,328C 277.079,290.693 330.412,272.026 390.5,272C 403.955,263.545 415.122,252.712 424,239.5C 421.973,247.77 419.806,256.103 417.5,264.5C 417.352,267.549 418.686,269.549 421.5,270.5 Z"/></g>
<g><path style="opacity:1" fill="#3b4053" d="M 396.5,295.5 C 398.527,295.338 400.527,295.505 402.5,296C 411.251,302.991 417.417,311.825 421,322.5C 421.944,328.553 419.444,330.72 413.5,329C 409.697,318.575 403.53,309.742 395,302.5C 394.167,299.829 394.667,297.496 396.5,295.5 Z"/></g>
<g><path style="opacity:1" fill="#746e6a" d="M 439.5,342.5 C 434.93,360.306 425.764,375.306 412,387.5C 415.161,379.701 418.161,371.701 421,363.5C 422.589,357.235 423.256,350.901 423,344.5C 422.082,342.624 420.582,341.624 418.5,341.5C 418.5,339.167 418.5,336.833 418.5,334.5C 420.677,334.586 422.677,335.253 424.5,336.5C 427.57,340.459 429.236,344.959 429.5,350C 430.833,350.667 432.167,350.667 433.5,350C 435.639,347.522 437.639,345.022 439.5,342.5 Z"/></g>
<g><path style="opacity:1" fill="#716e6b" d="M 356.5,394.5 C 359.306,396.619 362.306,396.952 365.5,395.5C 361.839,399.827 358.839,399.493 356.5,394.5 Z"/></g>
<g><path style="opacity:1" fill="#edac8e" d="M 293.5,403.5 C 294.581,409.083 297.915,412.583 303.5,414C 310.833,414.667 318.167,414.667 325.5,414C 329.685,413.242 333.685,411.909 337.5,410C 338.953,405.588 341.286,401.755 344.5,398.5C 345.523,396.094 346.19,396.094 346.5,398.5C 345.018,401.464 343.518,404.464 342,407.5C 341.501,411.486 341.334,415.486 341.5,419.5C 319.748,424.989 298.081,424.656 276.5,418.5C 280.049,411.981 282.216,404.981 283,397.5C 286.351,399.921 289.851,401.921 293.5,403.5 Z"/></g>
<g><path style="opacity:1" fill="#eeac8d" d="M 217.5,399.5 C 217.666,405.176 217.499,410.843 217,416.5C 216.691,417.766 216.191,418.933 215.5,420C 201.136,425.9 186.469,430.567 171.5,434C 183.125,423.851 195.792,415.184 209.5,408C 210.252,407.329 210.586,406.496 210.5,405.5C 210.898,401.445 213.231,399.445 217.5,399.5 Z"/></g>
<g><path style="opacity:1" fill="#f8efd6" d="M 344.5,398.5 C 341.286,401.755 338.953,405.588 337.5,410C 333.685,411.909 329.685,413.242 325.5,414C 318.167,414.667 310.833,414.667 303.5,414C 297.915,412.583 294.581,409.083 293.5,403.5C 299.723,405.269 306.057,405.769 312.5,405C 313.305,403.887 313.972,402.721 314.5,401.5C 319.42,400.545 324.42,399.878 329.5,399.5C 330.249,401.246 331.583,402.246 333.5,402.5C 337.291,401.435 340.958,400.101 344.5,398.5 Z"/></g>
</svg>
