<?xml version="1.0" encoding="UTF-8"?>
<!DOCTYPE svg PUBLIC "-//W3C//DTD SVG 1.1//EN" "http://www.w3.org/Graphics/SVG/1.1/DTD/svg11.dtd">
<svg xmlns="http://www.w3.org/2000/svg" version="1.1" width="512px" height="512px" style="shape-rendering:geometricPrecision; text-rendering:geometricPrecision; image-rendering:optimizeQuality; fill-rule:evenodd; clip-rule:evenodd" xmlns:xlink="http://www.w3.org/1999/xlink">
<g><path style="opacity:1" fill="#3a3e51" d="M 365.5,142.5 C 363.143,142.663 360.81,142.497 358.5,142C 356.267,139.004 353.934,136.171 351.5,133.5C 338.498,110.001 329.331,85.0011 324,58.5C 310.971,71.5999 295.471,80.4333 277.5,85C 288.216,99.3888 300.049,112.889 313,125.5C 313.944,131.553 311.444,133.72 305.5,132C 293.214,120.872 282.214,108.706 272.5,95.5C 270.002,113.188 264.002,129.521 254.5,144.5C 252.253,145.374 249.92,145.708 247.5,145.5C 246.569,143.967 245.902,142.3 245.5,140.5C 256.776,121.068 262.609,100.068 263,77.5C 264.171,76.1068 265.671,75.2735 267.5,75C 282.443,73.5771 295.776,68.2437 307.5,59C 313.167,53.3333 318.833,47.6667 324.5,42C 328.475,40.6206 331.309,41.7873 333,45.5C 337.623,79.0526 349.123,109.886 367.5,138C 366.733,139.47 366.067,140.97 365.5,142.5 Z"/></g>
<g><path style="opacity:1" fill="#393d51" d="M 496.5,163.5 C 487.598,163.874 478.764,164.874 470,166.5C 464.91,166.151 463.243,163.485 465,158.5C 465.903,157.299 467.069,156.465 468.5,156C 474.872,155.43 481.205,154.596 487.5,153.5C 478.215,139.807 472.382,124.807 470,108.5C 464.469,114.366 458.635,119.866 452.5,125C 446.556,126.72 444.056,124.553 445,118.5C 451.531,111.635 458.364,105.135 465.5,99C 449.167,92.9779 435.334,83.4779 424,70.5C 423.536,85.5872 422.203,100.587 420,115.5C 418.575,117.916 416.408,119.249 413.5,119.5C 411.2,118.256 409.866,116.256 409.5,113.5C 410.661,106.878 411.494,100.212 412,93.5C 412.333,78.8333 412.667,64.1667 413,49.5C 415.243,47.718 417.743,47.218 420.5,48C 433.757,69.9203 452.757,84.2536 477.5,91C 478.333,91.8333 479.167,92.6667 480,93.5C 479.6,117.008 487.267,137.341 503,154.5C 504.47,160.19 502.303,163.19 496.5,163.5 Z"/></g>
<g><path style="opacity:1" fill="#f87595" d="M 351.5,133.5 C 347.499,139.832 342.166,144.832 335.5,148.5C 344.973,158.248 347.64,169.581 343.5,182.5C 342.685,183.837 341.518,184.837 340,185.5C 339.505,187.473 339.338,189.473 339.5,191.5C 339.092,192.643 338.425,193.643 337.5,194.5C 332.946,196.608 328.612,198.941 324.5,201.5C 322.164,199.609 319.498,199.109 316.5,200C 297.144,211.178 277.144,221.011 256.5,229.5C 258.279,207.342 254.613,186.175 245.5,166C 263.487,166.476 281.487,166.476 299.5,166C 303.085,163.472 303.418,160.472 300.5,157C 287.833,156.667 275.167,156.333 262.5,156C 255.256,155.952 248.256,155.118 241.5,153.5C 243.853,151.14 245.853,148.473 247.5,145.5C 249.92,145.708 252.253,145.374 254.5,144.5C 264.002,129.521 270.002,113.188 272.5,95.5C 282.214,108.706 293.214,120.872 305.5,132C 311.444,133.72 313.944,131.553 313,125.5C 300.049,112.889 288.216,99.3888 277.5,85C 295.471,80.4333 310.971,71.5999 324,58.5C 329.331,85.0011 338.498,110.001 351.5,133.5 Z"/></g>
<g><path style="opacity:1" fill="#d2435c" d="M 496.5,163.5 C 494.892,166.382 493.559,169.382 492.5,172.5C 489.675,172.081 487.509,173.081 486,175.5C 482.623,189.021 482.79,202.521 486.5,216C 486.167,216.833 485.833,217.667 485.5,218.5C 474.505,213.34 464.172,207.173 454.5,200C 446.783,198.879 444.783,201.712 448.5,208.5C 459.542,216.356 471.208,223.189 483.5,229C 466.877,239.455 453.877,253.288 444.5,270.5C 438.938,256.208 431.938,242.708 423.5,230C 421.19,229.503 418.857,229.337 416.5,229.5C 414.833,226.833 413.167,224.167 411.5,221.5C 419.907,215.759 426.574,208.425 431.5,199.5C 430.833,196.833 429.167,195.167 426.5,194.5C 423.629,195.626 420.962,196.793 418.5,198C 416.773,196.611 415.439,194.944 414.5,193C 415.957,186.292 413.29,183.792 406.5,185.5C 402.83,183.526 401.663,180.526 403,176.5C 403.71,175.027 404.876,174.36 406.5,174.5C 407.659,180.566 410.826,181.9 416,178.5C 416.49,177.207 416.657,175.873 416.5,174.5C 419.167,174.5 421.833,174.5 424.5,174.5C 425.17,180.715 428.17,182.048 433.5,178.5C 434.246,177.264 434.579,175.93 434.5,174.5C 436.167,174.5 437.833,174.5 439.5,174.5C 439.504,179.989 442.171,181.822 447.5,180C 448.701,179.097 449.535,177.931 450,176.5C 451.711,169.704 453.211,162.87 454.5,156C 452.642,144.82 445.975,139.486 434.5,140C 431.382,138.941 428.382,137.608 425.5,136C 421.463,132.001 417.129,128.501 412.5,125.5C 413.341,123.621 413.675,121.621 413.5,119.5C 416.408,119.249 418.575,117.916 420,115.5C 422.203,100.587 423.536,85.5872 424,70.5C 435.334,83.4779 449.167,92.9779 465.5,99C 458.364,105.135 451.531,111.635 445,118.5C 444.056,124.553 446.556,126.72 452.5,125C 458.635,119.866 464.469,114.366 470,108.5C 472.382,124.807 478.215,139.807 487.5,153.5C 481.205,154.596 474.872,155.43 468.5,156C 467.069,156.465 465.903,157.299 465,158.5C 463.243,163.485 464.91,166.151 470,166.5C 478.764,164.874 487.598,163.874 496.5,163.5 Z"/></g>
<g><path style="opacity:1" fill="#3a3e51" d="M 412.5,125.5 C 417.129,128.501 421.463,132.001 425.5,136C 428.382,137.608 431.382,138.941 434.5,140C 445.975,139.486 452.642,144.82 454.5,156C 453.211,162.87 451.711,169.704 450,176.5C 449.535,177.931 448.701,179.097 447.5,180C 442.171,181.822 439.504,179.989 439.5,174.5C 437.833,174.5 436.167,174.5 434.5,174.5C 434.579,175.93 434.246,177.264 433.5,178.5C 428.17,182.048 425.17,180.715 424.5,174.5C 421.833,174.5 419.167,174.5 416.5,174.5C 416.657,175.873 416.49,177.207 416,178.5C 410.826,181.9 407.659,180.566 406.5,174.5C 404.876,174.36 403.71,175.027 403,176.5C 401.663,180.526 402.83,183.526 406.5,185.5C 413.29,183.792 415.957,186.292 414.5,193C 415.439,194.944 416.773,196.611 418.5,198C 420.962,196.793 423.629,195.626 426.5,194.5C 429.167,195.167 430.833,196.833 431.5,199.5C 426.574,208.425 419.907,215.759 411.5,221.5C 403.709,223.835 396.876,222.169 391,216.5C 383.551,232.015 379.051,248.349 377.5,265.5C 385.328,267.957 393.328,269.79 401.5,271C 410.682,275.187 415.515,282.354 416,292.5C 419.318,312.874 411.484,326.874 392.5,334.5C 382.663,352.169 368.33,357.002 349.5,349C 346.455,346.552 345.955,343.719 348,340.5C 355.654,336.531 359.154,330.198 358.5,321.5C 350.069,321.786 341.736,321.119 333.5,319.5C 327.811,324.357 321.978,329.023 316,333.5C 319.488,353.273 315.488,371.273 304,387.5C 301.119,405.524 306.286,421.024 319.5,434C 327.831,436.403 334.665,440.903 340,447.5C 343.406,453.922 344.406,460.589 343,467.5C 342.25,468.126 341.416,468.626 340.5,469C 329.167,469.667 317.833,469.667 306.5,469C 298.268,468.138 292.434,463.972 289,456.5C 284.298,435.424 274.631,417.091 260,401.5C 257.558,396.067 255.892,390.4 255,384.5C 244.351,399.844 242.684,416.177 250,433.5C 253.472,437.107 257.639,439.607 262.5,441C 269.606,445.705 272.439,452.205 271,460.5C 269.5,464.667 266.667,467.5 262.5,469C 251.167,469.667 239.833,469.667 228.5,469C 221.464,466.631 217.297,461.798 216,454.5C 215.756,445.743 214.756,437.077 213,428.5C 209.858,418.56 207.025,408.56 204.5,398.5C 204.608,394.673 205.442,391.007 207,387.5C 212.608,379.286 217.441,370.619 221.5,361.5C 209.545,359.766 198.712,355.433 189,348.5C 167.631,356.955 145.465,360.122 122.5,358C 58.0678,354.569 20.2344,321.069 9,257.5C 2.7664,214.843 15.9331,179.677 48.5,152C 72.8407,135.36 98.5074,133.026 125.5,145C 129.5,148.333 129.5,151.667 125.5,155C 79.7593,155.74 54.9259,178.907 51,224.5C 48.0283,263.433 65.5283,286.933 103.5,295C 124.308,296.048 143.308,290.715 160.5,279C 172.127,269.708 183.461,260.041 194.5,250C 204.984,242.868 215.984,236.534 227.5,231C 230.775,230.018 233.441,230.851 235.5,233.5C 234.833,235.833 234.167,238.167 233.5,240.5C 230.515,241.326 227.849,242.659 225.5,244.5C 219.308,247.044 213.641,250.377 208.5,254.5C 204.975,255.759 201.975,257.759 199.5,260.5C 196.214,262.451 193.214,264.785 190.5,267.5C 187.527,269.806 184.86,272.473 182.5,275.5C 178.183,278.486 174.183,281.82 170.5,285.5C 167.865,286.811 165.531,288.478 163.5,290.5C 149.774,298.132 135.108,303.299 119.5,306C 87.7057,307.94 63.7057,295.44 47.5,268.5C 46.6948,266.085 45.6948,263.751 44.5,261.5C 43.2985,256.354 41.9652,251.354 40.5,246.5C 40.5,237.5 40.5,228.5 40.5,219.5C 40.8085,200.32 44.8085,181.987 52.5,164.5C 52.3333,164.167 52.1667,163.833 52,163.5C 29.7388,183.03 18.5721,207.697 18.5,237.5C 22.4782,310.813 61.1449,347.479 134.5,347.5C 150.654,348.02 166.32,345.52 181.5,340C 182.022,339.439 182.355,338.772 182.5,338C 178.194,329.426 178.527,321.092 183.5,313C 185.473,312.505 187.473,312.338 189.5,312.5C 190.897,313.819 191.563,315.486 191.5,317.5C 188.668,326.692 190.668,334.525 197.5,341C 204.082,345.792 211.415,348.625 219.5,349.5C 222.428,351.081 224.761,350.415 226.5,347.5C 228.234,341.368 231.401,340.368 236,344.5C 233.982,361.881 227.649,377.548 217,391.5C 215.994,393.534 215.494,395.7 215.5,398C 218.526,408.083 221.359,418.249 224,428.5C 225.438,436.777 226.438,445.11 227,453.5C 228.167,456 230,457.833 232.5,459C 241.5,459.667 250.5,459.667 259.5,459C 260.576,457.274 260.743,455.441 260,453.5C 256.703,450.433 252.869,448.267 248.5,447C 241.116,441.408 236.949,433.908 236,424.5C 231.966,400.902 238.966,381.235 257,365.5C 265.509,348.574 263.843,332.574 252,317.5C 248.167,313.667 244.333,309.833 240.5,306C 237.205,303.566 233.538,301.899 229.5,301C 225.084,296.499 225.917,293.332 232,291.5C 244.773,295.644 254.94,303.311 262.5,314.5C 267.446,321.395 270.446,329.061 271.5,337.5C 274.939,337.212 278.272,336.546 281.5,335.5C 296.636,332.099 309.969,325.266 321.5,315C 317.632,312.838 316.132,309.672 317,305.5C 318.126,304.056 319.626,303.39 321.5,303.5C 326.668,306.742 332.334,308.908 338.5,310C 347.469,311.051 356.469,311.718 365.5,312C 368.431,315.196 369.764,319.03 369.5,323.5C 369.292,330.123 367.292,336.123 363.5,341.5C 371.733,342.296 377.899,338.963 382,331.5C 384.903,323.284 385.236,314.951 383,306.5C 381.305,303.305 378.805,300.972 375.5,299.5C 374.408,301.596 372.741,302.929 370.5,303.5C 349.383,292.32 327.05,288.82 303.5,293C 293.567,276.802 280.9,263.135 265.5,252C 259.023,248.063 252.19,244.897 245,242.5C 244.779,238.288 244.612,234.288 244.5,230.5C 246.732,213.883 245.232,197.549 240,181.5C 237.154,173.813 234.32,166.146 231.5,158.5C 231.57,157.228 231.903,156.062 232.5,155C 235.351,153.711 238.351,153.211 241.5,153.5C 248.256,155.118 255.256,155.952 262.5,156C 275.167,156.333 287.833,156.667 300.5,157C 303.418,160.472 303.085,163.472 299.5,166C 281.487,166.476 263.487,166.476 245.5,166C 254.613,186.175 258.279,207.342 256.5,229.5C 277.144,221.011 297.144,211.178 316.5,200C 319.498,199.109 322.164,199.609 324.5,201.5C 325.041,204.652 324.041,207.152 321.5,209C 302.449,219.526 283.116,229.526 263.5,239C 280.531,249.029 294.698,262.196 306,278.5C 310.041,271.583 314.208,264.75 318.5,258C 324.493,256.332 326.993,258.498 326,264.5C 323.085,269.998 319.919,275.332 316.5,280.5C 332.676,280.478 348.343,283.145 363.5,288.5C 363.56,289.043 363.893,289.376 364.5,289.5C 365.491,285.555 365.824,281.555 365.5,277.5C 366.634,253.824 371.968,231.157 381.5,209.5C 377.176,204.343 372.342,199.676 367,195.5C 366.36,193.735 366.527,192.068 367.5,190.5C 369.496,188.667 371.829,188.167 374.5,189C 383.21,196.712 392.21,204.045 401.5,211C 406.428,212.394 410.428,211.061 413.5,207C 401.199,197.534 391.366,186.034 384,172.5C 382.877,169.044 383.71,166.21 386.5,164C 405.167,163.667 423.833,163.333 442.5,163C 444.579,159.548 444.746,156.048 443,152.5C 437.622,150.738 432.122,149.238 426.5,148C 420.307,144.738 414.64,140.738 409.5,136C 401.002,132.894 393.502,134.394 387,140.5C 381.63,149.228 375.297,157.228 368,164.5C 365.003,169.334 363.67,174.667 364,180.5C 362.955,181.373 362.122,182.373 361.5,183.5C 356.556,186.645 351.556,189.812 346.5,193C 343.829,193.833 341.496,193.333 339.5,191.5C 339.338,189.473 339.505,187.473 340,185.5C 341.518,184.837 342.685,183.837 343.5,182.5C 346.723,180.636 349.89,178.636 353,176.5C 353.799,166.027 358.465,157.693 367,151.5C 368.094,149.922 368.928,148.255 369.5,146.5C 372.503,142.657 375.336,138.657 378,134.5C 387.631,124.384 399.131,121.384 412.5,125.5 Z"/></g>
<g><path style="opacity:1" fill="#d2445d" d="M 351.5,133.5 C 353.934,136.171 356.267,139.004 358.5,142C 360.81,142.497 363.143,142.663 365.5,142.5C 366.473,144.139 367.806,145.473 369.5,146.5C 368.928,148.255 368.094,149.922 367,151.5C 358.465,157.693 353.799,166.027 353,176.5C 349.89,178.636 346.723,180.636 343.5,182.5C 347.64,169.581 344.973,158.248 335.5,148.5C 342.166,144.832 347.499,139.832 351.5,133.5 Z"/></g>
<g><path style="opacity:1" fill="#f7c688" d="M 367.5,190.5 C 364.757,188.761 362.757,186.427 361.5,183.5C 362.122,182.373 362.955,181.373 364,180.5C 363.67,174.667 365.003,169.334 368,164.5C 375.297,157.228 381.63,149.228 387,140.5C 393.502,134.394 401.002,132.894 409.5,136C 414.64,140.738 420.307,144.738 426.5,148C 432.122,149.238 437.622,150.738 443,152.5C 444.746,156.048 444.579,159.548 442.5,163C 423.833,163.333 405.167,163.667 386.5,164C 383.71,166.21 382.877,169.044 384,172.5C 391.366,186.034 401.199,197.534 413.5,207C 410.428,211.061 406.428,212.394 401.5,211C 392.21,204.045 383.21,196.712 374.5,189C 371.829,188.167 369.496,188.667 367.5,190.5 Z"/></g>
<g><path style="opacity:1" fill="#3e3f53" d="M 323.5,137.5 C 330.514,138.005 333.68,141.672 333,148.5C 331.192,150.396 329.025,150.896 326.5,150C 319.924,146.936 318.924,142.77 323.5,137.5 Z"/></g>
<g><path style="opacity:1" fill="#a5744e" d="M 396.5,145.5 C 403.865,145.653 405.865,148.82 402.5,155C 394.42,155.72 392.42,152.553 396.5,145.5 Z"/></g>
<g><path style="opacity:1" fill="#f7c688" d="M 40.5,219.5 C 36.1311,219.467 31.7978,219.8 27.5,220.5C 27.33,221.822 27.6634,222.989 28.5,224C 32.2519,224.462 35.7519,225.628 39,227.5C 39.4988,231.486 39.6655,235.486 39.5,239.5C 35.0733,239.551 30.9066,240.551 27,242.5C 26.5172,243.448 26.3505,244.448 26.5,245.5C 31.1522,245.998 35.8189,246.331 40.5,246.5C 41.9652,251.354 43.2985,256.354 44.5,261.5C 39.7956,263.687 36.129,267.02 33.5,271.5C 34.1667,271.833 34.8333,272.167 35.5,272.5C 39.3178,270.59 43.3178,269.256 47.5,268.5C 63.7057,295.44 87.7057,307.94 119.5,306C 135.108,303.299 149.774,298.132 163.5,290.5C 167.147,295.159 171.814,298.159 177.5,299.5C 175.213,294.86 172.88,290.193 170.5,285.5C 174.183,281.82 178.183,278.486 182.5,275.5C 187.416,283.431 194.083,289.097 202.5,292.5C 198.243,284.319 194.243,275.986 190.5,267.5C 193.214,264.785 196.214,262.451 199.5,260.5C 205.516,268.025 212.183,275.192 219.5,282C 221.025,283.009 222.692,283.509 224.5,283.5C 219.436,273.708 214.103,264.041 208.5,254.5C 213.641,250.377 219.308,247.044 225.5,244.5C 226.973,252.444 230.306,259.444 235.5,265.5C 235.833,264.333 236.167,263.167 236.5,262C 235.294,254.852 234.294,247.686 233.5,240.5C 234.167,238.167 234.833,235.833 235.5,233.5C 238.579,232.696 241.579,231.696 244.5,230.5C 244.612,234.288 244.779,238.288 245,242.5C 252.19,244.897 259.023,248.063 265.5,252C 280.9,263.135 293.567,276.802 303.5,293C 327.05,288.82 349.383,292.32 370.5,303.5C 372.741,302.929 374.408,301.596 375.5,299.5C 378.805,300.972 381.305,303.305 383,306.5C 385.236,314.951 384.903,323.284 382,331.5C 377.899,338.963 371.733,342.296 363.5,341.5C 367.292,336.123 369.292,330.123 369.5,323.5C 369.764,319.03 368.431,315.196 365.5,312C 356.469,311.718 347.469,311.051 338.5,310C 332.334,308.908 326.668,306.742 321.5,303.5C 319.626,303.39 318.126,304.056 317,305.5C 316.132,309.672 317.632,312.838 321.5,315C 309.969,325.266 296.636,332.099 281.5,335.5C 276.908,326.908 270.574,319.908 262.5,314.5C 254.94,303.311 244.773,295.644 232,291.5C 225.917,293.332 225.084,296.499 229.5,301C 233.538,301.899 237.205,303.566 240.5,306C 244.333,309.833 248.167,313.667 252,317.5C 263.843,332.574 265.509,348.574 257,365.5C 238.966,381.235 231.966,400.902 236,424.5C 236.949,433.908 241.116,441.408 248.5,447C 252.869,448.267 256.703,450.433 260,453.5C 260.743,455.441 260.576,457.274 259.5,459C 250.5,459.667 241.5,459.667 232.5,459C 230,457.833 228.167,456 227,453.5C 226.438,445.11 225.438,436.777 224,428.5C 221.359,418.249 218.526,408.083 215.5,398C 215.494,395.7 215.994,393.534 217,391.5C 227.649,377.548 233.982,361.881 236,344.5C 231.401,340.368 228.234,341.368 226.5,347.5C 224.442,348.933 222.108,349.6 219.5,349.5C 211.415,348.625 204.082,345.792 197.5,341C 190.668,334.525 188.668,326.692 191.5,317.5C 191.563,315.486 190.897,313.819 189.5,312.5C 195.142,307.003 201.809,303.003 209.5,300.5C 209,299.119 208,298.453 206.5,298.5C 195.531,299.737 186.031,304.07 178,311.5C 173.153,318.717 170.319,326.55 169.5,335C 158.389,341.09 146.722,345.257 134.5,347.5C 61.1449,347.479 22.4782,310.813 18.5,237.5C 18.5721,207.697 29.7388,183.03 52,163.5C 52.1667,163.833 52.3333,164.167 52.5,164.5C 44.8085,181.987 40.8085,200.32 40.5,219.5 Z"/></g>
<g><path style="opacity:1" fill="#3a3d51" d="M 492.5,172.5 C 494.672,173.661 496.006,175.495 496.5,178C 493.216,193.506 494.383,208.672 500,223.5C 500.667,225.833 500.667,228.167 500,230.5C 482.801,240.697 468.468,254.03 457,270.5C 453.185,276.958 450.352,283.791 448.5,291C 444.845,293.335 441.679,292.835 439,289.5C 433.462,271.217 425.795,253.884 416,237.5C 415.278,234.739 415.445,232.073 416.5,229.5C 418.857,229.337 421.19,229.503 423.5,230C 431.938,242.708 438.938,256.208 444.5,270.5C 453.877,253.288 466.877,239.455 483.5,229C 471.208,223.189 459.542,216.356 448.5,208.5C 444.783,201.712 446.783,198.879 454.5,200C 464.172,207.173 474.505,213.34 485.5,218.5C 485.833,217.667 486.167,216.833 486.5,216C 482.79,202.521 482.623,189.021 486,175.5C 487.509,173.081 489.675,172.081 492.5,172.5 Z"/></g>
<g><path style="opacity:1" fill="#d2445d" d="M 361.5,183.5 C 362.757,186.427 364.757,188.761 367.5,190.5C 366.527,192.068 366.36,193.735 367,195.5C 372.342,199.676 377.176,204.343 381.5,209.5C 371.968,231.157 366.634,253.824 365.5,277.5C 364.833,281.167 364.167,284.833 363.5,288.5C 348.343,283.145 332.676,280.478 316.5,280.5C 319.919,275.332 323.085,269.998 326,264.5C 326.993,258.498 324.493,256.332 318.5,258C 314.208,264.75 310.041,271.583 306,278.5C 294.698,262.196 280.531,249.029 263.5,239C 283.116,229.526 302.449,219.526 321.5,209C 324.041,207.152 325.041,204.652 324.5,201.5C 328.612,198.941 332.946,196.608 337.5,194.5C 338.425,193.643 339.092,192.643 339.5,191.5C 341.496,193.333 343.829,193.833 346.5,193C 351.556,189.812 356.556,186.645 361.5,183.5 Z"/></g>
<g><path style="opacity:1" fill="#3d3e51" d="M 335.5,231.5 C 344.631,232.124 345.964,235.958 339.5,243C 333.507,244.668 331.007,242.502 332,236.5C 332.997,234.677 334.164,233.01 335.5,231.5 Z"/></g>
<g><path style="opacity:1" fill="#a3744f" d="M 40.5,219.5 C 40.5,228.5 40.5,237.5 40.5,246.5C 35.8189,246.331 31.1522,245.998 26.5,245.5C 26.3505,244.448 26.5172,243.448 27,242.5C 30.9066,240.551 35.0733,239.551 39.5,239.5C 39.6655,235.486 39.4988,231.486 39,227.5C 35.7519,225.628 32.2519,224.462 28.5,224C 27.6634,222.989 27.33,221.822 27.5,220.5C 31.7978,219.8 36.1311,219.467 40.5,219.5 Z"/></g>
<g><path style="opacity:1" fill="#a4734d" d="M 233.5,240.5 C 234.294,247.686 235.294,254.852 236.5,262C 236.167,263.167 235.833,264.333 235.5,265.5C 230.306,259.444 226.973,252.444 225.5,244.5C 227.849,242.659 230.515,241.326 233.5,240.5 Z"/></g>
<g><path style="opacity:1" fill="#a4734d" d="M 208.5,254.5 C 214.103,264.041 219.436,273.708 224.5,283.5C 222.692,283.509 221.025,283.009 219.5,282C 212.183,275.192 205.516,268.025 199.5,260.5C 201.975,257.759 204.975,255.759 208.5,254.5 Z"/></g>
<g><path style="opacity:1" fill="#a4734d" d="M 44.5,261.5 C 45.6948,263.751 46.6948,266.085 47.5,268.5C 43.3178,269.256 39.3178,270.59 35.5,272.5C 34.8333,272.167 34.1667,271.833 33.5,271.5C 36.129,267.02 39.7956,263.687 44.5,261.5 Z"/></g>
<g><path style="opacity:1" fill="#a3724d" d="M 190.5,267.5 C 194.243,275.986 198.243,284.319 202.5,292.5C 194.083,289.097 187.416,283.431 182.5,275.5C 184.86,272.473 187.527,269.806 190.5,267.5 Z"/></g>
<g><path style="opacity:1" fill="#a5744d" d="M 238.5,270.5 C 243.346,270.783 246.013,273.45 246.5,278.5C 244.705,282.343 242.538,282.343 240,278.5C 237.884,276.004 237.384,273.337 238.5,270.5 Z"/></g>
<g><path style="opacity:1" fill="#863e58" d="M 365.5,277.5 C 365.824,281.555 365.491,285.555 364.5,289.5C 363.893,289.376 363.56,289.043 363.5,288.5C 364.167,284.833 364.833,281.167 365.5,277.5 Z"/></g>
<g><path style="opacity:1" fill="#a4734d" d="M 170.5,285.5 C 172.88,290.193 175.213,294.86 177.5,299.5C 171.814,298.159 167.147,295.159 163.5,290.5C 165.531,288.478 167.865,286.811 170.5,285.5 Z"/></g>
<g><path style="opacity:1" fill="#a3724c" d="M 189.5,312.5 C 187.473,312.338 185.473,312.505 183.5,313C 178.527,321.092 178.194,329.426 182.5,338C 182.355,338.772 182.022,339.439 181.5,340C 166.32,345.52 150.654,348.02 134.5,347.5C 146.722,345.257 158.389,341.09 169.5,335C 170.319,326.55 173.153,318.717 178,311.5C 186.031,304.07 195.531,299.737 206.5,298.5C 208,298.453 209,299.119 209.5,300.5C 201.809,303.003 195.142,307.003 189.5,312.5 Z"/></g>
<g><path style="opacity:1" fill="#a1704c" d="M 262.5,314.5 C 270.574,319.908 276.908,326.908 281.5,335.5C 278.272,336.546 274.939,337.212 271.5,337.5C 270.446,329.061 267.446,321.395 262.5,314.5 Z"/></g>
<g><path style="opacity:1" fill="#9a7659" d="M 226.5,347.5 C 224.761,350.415 222.428,351.081 219.5,349.5C 222.108,349.6 224.442,348.933 226.5,347.5 Z"/></g>
</svg>
