<?xml version="1.0" encoding="UTF-8"?>
<!DOCTYPE svg PUBLIC "-//W3C//DTD SVG 1.1//EN" "http://www.w3.org/Graphics/SVG/1.1/DTD/svg11.dtd">
<svg xmlns="http://www.w3.org/2000/svg" version="1.1" width="512px" height="512px" style="shape-rendering:geometricPrecision; text-rendering:geometricPrecision; image-rendering:optimizeQuality; fill-rule:evenodd; clip-rule:evenodd" xmlns:xlink="http://www.w3.org/1999/xlink">
<g><path style="opacity:1" fill="#393e51" d="M 402.5,148.5 C 404.936,148.317 407.103,148.984 409,150.5C 410.08,152.996 411.414,155.33 413,157.5C 428.693,170.552 439.693,186.886 446,206.5C 447.731,211.588 449.231,216.754 450.5,222C 449.993,224.545 448.659,226.379 446.5,227.5C 444.418,227.528 442.584,226.861 441,225.5C 439.819,221.109 438.486,216.776 437,212.5C 432.809,236.055 421.976,255.888 404.5,272C 408.127,278.085 411.627,284.252 415,290.5C 434.136,277.533 449.636,261.199 461.5,241.5C 482.259,203.351 478.426,168.018 450,135.5C 449.322,133.402 449.489,131.402 450.5,129.5C 452.738,128.463 455.071,128.297 457.5,129C 465.953,137.128 472.453,146.628 477,157.5C 476.8,149.685 475.467,142.018 473,134.5C 469.364,124.565 465.197,114.899 460.5,105.5C 460.876,103.617 461.876,102.117 463.5,101C 467.211,100.825 470.878,100.325 474.5,99.5C 469.293,93.6132 463.959,87.7798 458.5,82C 452.176,81.6894 449.676,78.5228 451,72.5C 453.583,71.1258 456.083,69.6258 458.5,68C 452.226,66.5158 445.892,65.1825 439.5,64C 434.485,63.7812 429.485,63.7812 424.5,64C 422.556,61.8471 422.056,59.3471 423,56.5C 427.335,54.5953 427.335,53.2619 423,52.5C 413.768,54.1987 405.268,57.6987 397.5,63C 385.223,68.3517 372.39,70.5184 359,69.5C 349.82,69.1423 340.653,68.9756 331.5,69C 321.707,71.7915 315.707,78.1248 313.5,88C 313.703,90.4059 314.703,92.4059 316.5,94C 333.904,94.1574 351.237,95.1574 368.5,97C 372.363,98.1811 375.863,100.014 379,102.5C 379.523,110.327 376.356,112.16 369.5,108C 354.243,105.78 338.909,104.613 323.5,104.5C 323.872,108.043 325.872,110.21 329.5,111C 340.117,113.547 350.784,115.881 361.5,118C 368.404,120.451 375.07,123.451 381.5,127C 397.492,133.252 411.159,129.919 422.5,117C 427.798,113.243 433.465,112.577 439.5,115C 441.715,117.242 442.048,119.742 440.5,122.5C 436.678,123.991 432.678,125.157 428.5,126C 420.423,134.751 410.423,139.585 398.5,140.5C 392.681,140.724 387.015,139.89 381.5,138C 372.614,134.057 363.614,130.39 354.5,127C 343.892,125.844 333.559,123.51 323.5,120C 316.396,117.305 312.563,112.138 312,104.5C 305.878,100.763 302.712,95.2629 302.5,88C 306.395,69.6078 317.728,59.4412 336.5,57.5C 349.788,58.648 363.121,58.8146 376.5,58C 380.653,57.6156 384.653,56.6156 388.5,55C 397.146,50.1762 406.146,46.1762 415.5,43C 423.111,41.5217 430.778,41.1883 438.5,42C 440.757,45.2377 441.09,48.7377 439.5,52.5C 450.613,56.2074 461.947,57.7074 473.5,57C 475.625,58.7373 476.458,60.904 476,63.5C 474.021,67.9565 471.187,71.7898 467.5,75C 474.027,84.1939 481.861,92.0272 491,98.5C 492.041,101.636 491.207,104.136 488.5,106C 484.365,108.322 480.032,110.155 475.5,111.5C 494.458,155.028 493.958,198.361 474,241.5C 461.035,266.466 442.535,286.299 418.5,301C 420.537,308.839 422.703,316.672 425,324.5C 432.23,340.611 444.564,349.945 462,352.5C 462.667,354.833 462.667,357.167 462,359.5C 449.226,371.822 434.393,375.322 417.5,370C 410.964,393.306 400.797,414.806 387,434.5C 382.458,440.71 376.958,445.876 370.5,450C 358.919,453.21 352.252,448.877 350.5,437C 350.58,435.106 350.913,433.273 351.5,431.5C 342.938,429.603 338.272,424.27 337.5,415.5C 338.478,410.08 340.145,404.913 342.5,400C 327.712,394.915 323.378,385.082 329.5,370.5C 322.807,368.91 317.641,365.244 314,359.5C 303.957,373.877 291.624,385.877 277,395.5C 277.291,405.61 279.624,415.277 284,424.5C 296.703,416.16 309.703,415.493 323,422.5C 323.711,424.899 323.544,427.232 322.5,429.5C 319.5,431.333 316.5,433.167 313.5,435C 334.2,438.882 344.033,451.382 343,472.5C 341.649,474.01 339.982,475.01 338,475.5C 334.27,473.776 331.103,471.276 328.5,468C 322.548,464.752 316.215,463.752 309.5,465C 297.523,470.896 285.19,471.896 272.5,468C 268.698,465.913 266.198,462.746 265,458.5C 257.797,433.093 246.131,410.093 230,389.5C 222.948,391.43 215.781,391.93 208.5,391C 199.167,387 189.833,383 180.5,379C 175.167,378.333 169.833,378.333 164.5,379C 151.828,386.127 144.161,396.627 141.5,410.5C 151.146,406.997 160.146,408.163 168.5,414C 173.841,418.169 177.841,423.335 180.5,429.5C 180.363,431.107 179.696,432.441 178.5,433.5C 173.219,434.286 167.885,434.786 162.5,435C 159.126,435.521 156.126,436.854 153.5,439C 169.061,436.191 178.894,442.357 183,457.5C 183.667,462.5 183.667,467.5 183,472.5C 181.456,475.689 178.956,476.855 175.5,476C 160.373,463.484 143.707,461.151 125.5,469C 114.798,471.066 105.965,467.9 99,459.5C 94.5488,453.429 93.8821,447.096 97,440.5C 108.673,425.814 114.173,408.98 113.5,390C 113.31,382.127 112.644,374.293 111.5,366.5C 112.307,358.055 116.307,351.555 123.5,347C 131.176,342.886 139.176,339.553 147.5,337C 151.828,335.171 155.828,332.838 159.5,330C 154.864,327.682 150.198,325.349 145.5,323C 141.5,319.667 141.5,316.333 145.5,313C 147.878,312.489 150.212,311.822 152.5,311C 136.812,311.616 121.479,309.616 106.5,305C 102.768,303.539 99.268,301.706 96,299.5C 94.5796,296.816 94.0796,294.149 94.5,291.5C 83.075,288.571 73.2417,282.904 65,274.5C 64.3333,272.5 64.3333,270.5 65,268.5C 67.7578,266.357 70.9245,265.19 74.5,265C 29.3185,240.123 12.1518,202.289 23,151.5C 31.1017,123.101 48.6017,102.934 75.5,91C 93.1992,86.106 110.866,81.106 128.5,76C 132.833,73.5 137.167,71 141.5,68.5C 154.026,57.0692 168.693,49.5692 185.5,46C 197.167,45 208.833,44 220.5,43C 230.466,40.5985 240.3,37.7652 250,34.5C 264.097,37.6928 268.43,46.0262 263,59.5C 254.167,73.6833 241.667,83.1833 225.5,88C 213.395,105.056 196.728,113.722 175.5,114C 170.362,120.457 163.695,124.457 155.5,126C 139.17,125.834 122.837,125.834 106.5,126C 83.479,135.876 74.6456,153.042 80,177.5C 87.0438,193.532 99.2104,203.366 116.5,207C 124.779,208.497 133.112,208.831 141.5,208C 157.872,202.765 174.539,198.765 191.5,196C 188.935,191.969 188.935,187.969 191.5,184C 199.232,181.872 206.899,181.539 214.5,183C 221.934,185.55 229.268,188.383 236.5,191.5C 237.227,187.489 237.893,183.489 238.5,179.5C 240.707,177.971 243.207,177.305 246,177.5C 251.986,177.897 257.82,179.064 263.5,181C 268.998,183.915 274.332,187.081 279.5,190.5C 279.551,187.335 279.718,184.002 280,180.5C 281.296,178.185 283.296,177.185 286,177.5C 298.307,180.737 309.474,186.237 319.5,194C 342.694,204.31 365.694,203.976 388.5,193C 396.881,187.076 401.214,178.909 401.5,168.5C 400.227,162.54 399.727,156.54 400,150.5C 400.708,149.619 401.542,148.953 402.5,148.5 Z"/></g>
<g><path style="opacity:1" fill="#f7c688" d="M 450.5,129.5 C 447.167,127.167 443.833,124.833 440.5,122.5C 442.048,119.742 441.715,117.242 439.5,115C 433.465,112.577 427.798,113.243 422.5,117C 411.159,129.919 397.492,133.252 381.5,127C 375.07,123.451 368.404,120.451 361.5,118C 350.784,115.881 340.117,113.547 329.5,111C 325.872,110.21 323.872,108.043 323.5,104.5C 338.909,104.613 354.243,105.78 369.5,108C 376.356,112.16 379.523,110.327 379,102.5C 375.863,100.014 372.363,98.1811 368.5,97C 351.237,95.1574 333.904,94.1574 316.5,94C 314.703,92.4059 313.703,90.4059 313.5,88C 315.707,78.1248 321.707,71.7915 331.5,69C 340.653,68.9756 349.82,69.1423 359,69.5C 372.39,70.5184 385.223,68.3517 397.5,63C 405.268,57.6987 413.768,54.1987 423,52.5C 427.335,53.2619 427.335,54.5953 423,56.5C 422.056,59.3471 422.556,61.8471 424.5,64C 429.485,63.7812 434.485,63.7812 439.5,64C 445.892,65.1825 452.226,66.5158 458.5,68C 456.083,69.6258 453.583,71.1258 451,72.5C 449.676,78.5228 452.176,81.6894 458.5,82C 463.959,87.7798 469.293,93.6132 474.5,99.5C 470.878,100.325 467.211,100.825 463.5,101C 461.876,102.117 460.876,103.617 460.5,105.5C 465.197,114.899 469.364,124.565 473,134.5C 475.467,142.018 476.8,149.685 477,157.5C 472.453,146.628 465.953,137.128 457.5,129C 455.071,128.297 452.738,128.463 450.5,129.5 Z"/></g>
<g><path style="opacity:1" fill="#a4734d" d="M 396.5,75.5 C 403.493,73.9959 406.327,76.6625 405,83.5C 401.069,86.6356 397.069,86.9689 393,84.5C 391.665,80.3919 392.832,77.3919 396.5,75.5 Z"/></g>
<g><path style="opacity:1" fill="#a5744d" d="M 331.5,77.5 C 336.331,77.4936 338.497,79.827 338,84.5C 335.294,87.9779 332.294,88.3112 329,85.5C 327.837,82.0289 328.67,79.3623 331.5,77.5 Z"/></g>
<g><path style="opacity:1" fill="#a06f4b" d="M 78.5,131.5 C 82.5263,118.947 88.5263,107.447 96.5,97C 95.9056,96.5357 95.2389,96.369 94.5,96.5C 101.233,94.3718 108.233,92.8718 115.5,92C 123.745,89.7924 131.578,86.6257 139,82.5C 138.062,88.0487 135.728,93.0487 132,97.5C 129.167,100.333 126.333,103.167 123.5,106C 113.875,111.432 103.875,116.099 93.5,120C 88.1097,123.358 83.1097,127.191 78.5,131.5 Z"/></g>
<g><path style="opacity:1" fill="#f8c788" d="M 94.5,96.5 C 95.2389,96.369 95.9056,96.5357 96.5,97C 88.5263,107.447 82.5263,118.947 78.5,131.5C 63.7498,153.545 63.9165,175.545 79,197.5C 95.8731,214.792 116.373,221.959 140.5,219C 154.826,215.336 169.16,211.67 183.5,208C 190.167,207.667 196.833,207.333 203.5,207C 205.124,205.883 206.124,204.383 206.5,202.5C 204.292,199.418 202.625,196.084 201.5,192.5C 204.85,192.335 208.183,192.502 211.5,193C 221.479,198.104 231.979,201.604 243,203.5C 246.668,204 249.334,202.666 251,199.5C 250.304,195.886 249.47,192.219 248.5,188.5C 252.961,189.056 257.294,190.223 261.5,192C 271.458,199.985 282.791,203.985 295.5,204C 298.429,200.067 297.929,196.567 294,193.5C 293.312,192.668 293.479,192.002 294.5,191.5C 301.166,194.831 307.499,198.664 313.5,203C 320.679,207.06 328.345,209.726 336.5,211C 347.167,211.667 357.833,211.667 368.5,211C 393.614,208.184 408.614,194.851 413.5,171C 422.445,180.658 426.779,192.158 426.5,205.5C 424.461,230.91 413.461,251.577 393.5,267.5C 393.013,268.446 392.68,269.446 392.5,270.5C 396.317,277.463 400.15,284.463 404,291.5C 405.136,294.096 405.969,296.763 406.5,299.5C 406.557,315.053 404.723,330.386 401,345.5C 400.722,346.416 400.222,347.082 399.5,347.5C 395.734,323.304 385.567,302.304 369,284.5C 363.816,274.717 364.482,265.383 371,256.5C 374.145,253.266 377.478,250.266 381,247.5C 381.34,242.178 378.84,240.011 373.5,241C 364.759,246.027 356.425,251.527 348.5,257.5C 340.202,261.292 332.535,266.125 325.5,272C 317.483,276.06 309.149,279.227 300.5,281.5C 297.172,266.005 287.839,256.172 272.5,252C 267.27,250.454 261.937,249.62 256.5,249.5C 236.021,242.599 218.521,247.265 204,263.5C 198.397,275.097 191.23,285.597 182.5,295C 180.595,296.421 178.595,297.588 176.5,298.5C 175.223,297.102 173.557,296.436 171.5,296.5C 152.088,300.606 132.755,300.44 113.5,296C 113.167,295.667 112.833,295.333 112.5,295C 114.754,293.623 116.92,292.123 119,290.5C 119.758,288.231 119.591,286.064 118.5,284C 112.944,282.761 107.278,282.094 101.5,282C 95.0689,280.913 89.0689,278.746 83.5,275.5C 85.9919,273.613 88.8253,272.613 92,272.5C 96.8128,273.453 101.646,273.62 106.5,273C 109.539,269.195 108.872,266.195 104.5,264C 73.9178,257.417 51.4178,240.25 37,212.5C 22.9266,173.638 30.76,140.138 60.5,112C 70.7176,104.391 82.0509,99.2246 94.5,96.5 Z"/></g>
<g><path style="opacity:1" fill="#f7f1d8" d="M 440.5,122.5 C 443.833,124.833 447.167,127.167 450.5,129.5C 449.489,131.402 449.322,133.402 450,135.5C 478.426,168.018 482.259,203.351 461.5,241.5C 452.649,240.983 447.649,236.316 446.5,227.5C 448.659,226.379 449.993,224.545 450.5,222C 449.231,216.754 447.731,211.588 446,206.5C 439.693,186.886 428.693,170.552 413,157.5C 411.414,155.33 410.08,152.996 409,150.5C 407.103,148.984 404.936,148.317 402.5,148.5C 401.167,145.833 399.833,143.167 398.5,140.5C 410.423,139.585 420.423,134.751 428.5,126C 432.678,125.157 436.678,123.991 440.5,122.5 Z"/></g>
<g><path style="opacity:1" fill="#3c4254" d="M 455.5,203.5 C 458.365,203.055 460.865,203.722 463,205.5C 464.281,209.404 465.114,213.404 465.5,217.5C 465.487,222.999 462.82,224.832 457.5,223C 455.745,218.165 454.412,213.165 453.5,208C 453.519,206.167 454.185,204.667 455.5,203.5 Z"/></g>
<g><path style="opacity:1" fill="#f0ad8e" d="M 446.5,227.5 C 447.649,236.316 452.649,240.983 461.5,241.5C 449.636,261.199 434.136,277.533 415,290.5C 411.627,284.252 408.127,278.085 404.5,272C 421.976,255.888 432.809,236.055 437,212.5C 438.486,216.776 439.819,221.109 441,225.5C 442.584,226.861 444.418,227.528 446.5,227.5 Z"/></g>
<g><path style="opacity:1" fill="#a1714c" d="M 256.5,249.5 C 243.781,247.718 231.948,250.051 221,256.5C 220.167,259.171 220.667,261.504 222.5,263.5C 219.606,264.882 217.106,266.882 215,269.5C 207.884,284.741 199.051,298.741 188.5,311.5C 186.545,310.677 184.545,310.51 182.5,311C 179.167,314.333 175.833,317.667 172.5,321C 168.403,321.635 164.736,320.635 161.5,318C 166.075,312.754 171.242,308.254 177,304.5C 177.678,302.402 177.511,300.402 176.5,298.5C 178.595,297.588 180.595,296.421 182.5,295C 191.23,285.597 198.397,275.097 204,263.5C 218.521,247.265 236.021,242.599 256.5,249.5 Z"/></g>
<g><path style="opacity:1" fill="#f9c788" d="M 143.5,360.5 C 143.02,357.995 142.02,355.662 140.5,353.5C 139.675,352.614 138.675,352.281 137.5,352.5C 157.713,345.808 174.879,334.475 189,318.5C 189.703,316.071 189.537,313.738 188.5,311.5C 199.051,298.741 207.884,284.741 215,269.5C 217.106,266.882 219.606,264.882 222.5,263.5C 223.416,263.982 224.416,264.315 225.5,264.5C 238.742,259.208 252.409,258.041 266.5,261C 284.988,265.166 292.822,276.666 290,295.5C 281.885,334.925 259.718,363.092 223.5,380C 218.5,380.667 213.5,380.667 208.5,380C 201.721,376.226 194.721,372.892 187.5,370C 179.597,367.619 171.597,367.119 163.5,368.5C 158.771,365.947 154.438,362.78 150.5,359C 147.829,358.167 145.496,358.667 143.5,360.5 Z"/></g>
<g><path style="opacity:1" fill="#a1704b" d="M 348.5,257.5 C 335.784,268.386 325.451,281.219 317.5,296C 311.843,296.499 306.176,296.666 300.5,296.5C 300.5,291.5 300.5,286.5 300.5,281.5C 309.149,279.227 317.483,276.06 325.5,272C 332.535,266.125 340.202,261.292 348.5,257.5 Z"/></g>
<g><path style="opacity:1" fill="#414353" d="M 122.5,263.5 C 126.007,262.994 129.174,263.66 132,265.5C 132.277,273.025 128.777,275.358 121.5,272.5C 118.745,269.18 119.078,266.18 122.5,263.5 Z"/></g>
<g><path style="opacity:1" fill="#a0b9ea" d="M 394.5,364.5 C 393.291,368.589 391.791,372.589 390,376.5C 389.186,379.177 387.686,381.177 385.5,382.5C 382.998,381.221 380.498,381.221 378,382.5C 377.214,387.971 375.381,392.971 372.5,397.5C 367.726,396.994 364.893,394.327 364,389.5C 363.506,387.866 363.34,386.199 363.5,384.5C 368.744,376.355 372.577,367.689 375,358.5C 373.136,355.793 370.636,354.959 367.5,356C 363.552,362.675 359.885,369.508 356.5,376.5C 354.067,372.808 353.067,368.641 353.5,364C 353.44,359.37 354.107,354.87 355.5,350.5C 358.976,344.221 362.476,337.888 366,331.5C 367.72,325.556 365.553,323.056 359.5,324C 355.601,330.317 351.601,336.483 347.5,342.5C 344.635,341.809 342.468,340.142 341,337.5C 339.025,333.037 338.192,328.371 338.5,323.5C 341.787,319.041 345.287,314.708 349,310.5C 351.569,304.744 349.736,301.911 343.5,302C 339.935,305.396 336.602,308.896 333.5,312.5C 329.487,308.801 327.82,304.135 328.5,298.5C 334.914,285.735 343.748,274.735 355,265.5C 355.068,271.994 356.068,278.327 358,284.5C 365.742,294.314 372.742,304.648 379,315.5C 385.336,329.175 389.336,343.508 391,358.5C 391.926,360.692 393.093,362.692 394.5,364.5 Z"/></g>
<g><path style="opacity:1" fill="#6f92cf" d="M 328.5,298.5 C 327.82,304.135 329.487,308.801 333.5,312.5C 330.72,316.782 327.387,320.616 323.5,324C 321.888,324.72 320.388,324.554 319,323.5C 320.291,314.461 323.458,306.128 328.5,298.5 Z"/></g>
<g><path style="opacity:1" fill="#a0704c" d="M 406.5,299.5 C 409.202,305.116 411.036,311.116 412,317.5C 413.036,329.605 412.369,341.605 410,353.5C 408.625,358.717 405.792,359.717 401.5,356.5C 400.725,353.516 400.059,350.516 399.5,347.5C 400.222,347.082 400.722,346.416 401,345.5C 404.723,330.386 406.557,315.053 406.5,299.5 Z"/></g>
<g><path style="opacity:1" fill="#edab8d" d="M 297.5,306.5 C 302.544,306.173 307.544,306.506 312.5,307.5C 308.621,314.193 307.788,321.193 310,328.5C 312.397,331.4 315.23,333.733 318.5,335.5C 307.102,339.509 295.436,341.176 283.5,340.5C 289.825,329.849 294.492,318.516 297.5,306.5 Z"/></g>
<g><path style="opacity:1" fill="#6f94d1" d="M 338.5,323.5 C 338.192,328.371 339.025,333.037 341,337.5C 342.468,340.142 344.635,341.809 347.5,342.5C 343.739,350.094 337.906,355.427 330,358.5C 327.695,358.516 326.028,357.516 325,355.5C 325.376,343.083 329.876,332.416 338.5,323.5 Z"/></g>
<g><path style="opacity:1" fill="#f6be69" d="M 137.5,352.5 C 138.675,352.281 139.675,352.614 140.5,353.5C 142.02,355.662 143.02,357.995 143.5,360.5C 143.338,362.527 143.505,364.527 144,366.5C 146.349,369.017 148.849,371.35 151.5,373.5C 132.96,390.568 125.127,411.568 128,436.5C 131.89,446.451 139.223,451.118 150,450.5C 155.915,449.409 161.748,449.576 167.5,451C 170.522,453.541 172.022,456.707 172,460.5C 161.603,454.443 150.437,452.277 138.5,454C 131.817,455.228 125.317,457.062 119,459.5C 112.356,458.106 107.856,454.273 105.5,448C 116.563,433.825 122.73,417.658 124,399.5C 124.489,387.12 124.156,374.787 123,362.5C 126.859,357.815 131.692,354.482 137.5,352.5 Z"/></g>
<g><path style="opacity:1" fill="#6f94d1" d="M 355.5,350.5 C 354.107,354.87 353.44,359.37 353.5,364C 353.067,368.641 354.067,372.808 356.5,376.5C 354.09,380.834 351.09,384.668 347.5,388C 341.742,389.253 338.408,386.919 337.5,381C 340.828,369.165 346.828,358.999 355.5,350.5 Z"/></g>
<g><path style="opacity:1" fill="#6f93d1" d="M 394.5,364.5 C 397.634,367.231 401.301,368.564 405.5,368.5C 399.399,396.209 386.399,420.043 366.5,440C 364.888,440.72 363.388,440.554 362,439.5C 361.333,437.5 361.333,435.5 362,433.5C 365.888,426.28 370.555,419.614 376,413.5C 381.583,405.499 385.083,396.666 386.5,387C 386.395,385.408 386.061,383.908 385.5,382.5C 387.686,381.177 389.186,379.177 390,376.5C 391.791,372.589 393.291,368.589 394.5,364.5 Z"/></g>
<g><path style="opacity:1" fill="#6f93d0" d="M 363.5,384.5 C 363.34,386.199 363.506,387.866 364,389.5C 364.893,394.327 367.726,396.994 372.5,397.5C 369.335,406.672 363.668,413.839 355.5,419C 350,420.167 347.833,418 349,412.5C 352.032,402.099 356.865,392.766 363.5,384.5 Z"/></g>
</svg>
