<?xml version="1.0" encoding="UTF-8"?>
<!DOCTYPE svg PUBLIC "-//W3C//DTD SVG 1.1//EN" "http://www.w3.org/Graphics/SVG/1.1/DTD/svg11.dtd">
<svg xmlns="http://www.w3.org/2000/svg" version="1.1" width="512px" height="512px" style="shape-rendering:geometricPrecision; text-rendering:geometricPrecision; image-rendering:optimizeQuality; fill-rule:evenodd; clip-rule:evenodd" xmlns:xlink="http://www.w3.org/1999/xlink">
<g><path style="opacity:1" fill="#393f52" d="M 197.5,276.5 C 190.803,276.548 184.136,277.048 177.5,278C 164.479,280.897 151.645,284.397 139,288.5C 134.251,288.414 132.585,286.08 134,281.5C 134.833,280.667 135.667,279.833 136.5,279C 146.321,275.393 156.321,272.393 166.5,270C 187.512,268.168 207.846,263.501 227.5,256C 233.822,253.174 239.822,249.841 245.5,246C 260.943,219.775 283.943,206.775 314.5,207C 316.037,208.11 316.703,209.61 316.5,211.5C 316.703,213.39 316.037,214.89 314.5,216C 295.607,216.625 279.274,223.292 265.5,236C 279.382,232.826 293.382,229.826 307.5,227C 324.128,224.671 340.795,222.671 357.5,221C 390.241,208.416 422.241,194.082 453.5,178C 462.007,172.581 470.34,166.914 478.5,161C 481.372,158.463 483.872,155.63 486,152.5C 487.592,146.617 486.259,141.617 482,137.5C 479.173,146.309 474.006,153.476 466.5,159C 455.145,166.681 443.145,173.348 430.5,179C 405.177,190.495 379.51,201.162 353.5,211C 348.89,212.29 344.223,212.624 339.5,212C 338.934,211.005 338.267,210.172 337.5,209.5C 337.081,206.675 338.081,204.509 340.5,203C 377.48,191.669 413.147,177.003 447.5,159C 455.876,154.621 463.043,148.787 469,141.5C 471.455,137.814 472.455,133.814 472,129.5C 462.758,118.014 453.758,106.347 445,94.5C 436.477,82.9963 425.643,74.4963 412.5,69C 405.567,67.4942 398.567,67.1609 391.5,68C 376.716,73.928 361.716,79.2613 346.5,84C 331.315,87.5308 315.982,90.1974 300.5,92C 290.844,94.9961 281.178,97.9961 271.5,101C 257.418,103.616 243.418,106.616 229.5,110C 221.258,114.989 218.425,122.155 221,131.5C 218,134.167 215,134.167 212,131.5C 209.443,123.902 210.276,116.735 214.5,110C 208.868,108.789 203.534,106.789 198.5,104C 193.109,103.308 187.775,103.641 182.5,105C 185.207,106.864 186.041,109.364 185,112.5C 182.847,114.444 180.347,114.944 177.5,114C 170.784,108.283 163.784,102.95 156.5,98C 146.623,98.0052 136.789,98.8386 127,100.5C 121.281,99.8206 115.614,98.8206 110,97.5C 108.033,97.5419 106.199,98.0419 104.5,99C 99.8142,102.688 95.4809,106.688 91.5,111C 87.6366,112.732 83.6366,114.066 79.5,115C 77.714,115.785 76.214,116.951 75,118.5C 69.7766,129.948 63.7766,140.948 57,151.5C 48,162.5 39,173.5 30,184.5C 22.6537,197.348 21.6537,210.681 27,224.5C 30.9666,232.271 35.7999,239.438 41.5,246C 42.8333,246.667 44.1667,246.667 45.5,246C 48.2003,242.563 50.5337,238.897 52.5,235C 54.1667,234.333 55.8333,234.333 57.5,235C 65.8091,241.137 72.4758,248.637 77.5,257.5C 82.304,252.931 87.6373,249.098 93.5,246C 102.402,236.214 104.568,225.047 100,212.5C 96.2922,206.15 90.7922,203.65 83.5,205C 75.9899,208.176 69.9899,213.176 65.5,220C 56.2974,224.99 49.464,222.823 45,213.5C 42.2504,189.826 51.4171,172.659 72.5,162C 77.5541,156.946 82.5541,151.946 87.5,147C 90.4816,146.502 93.4816,146.335 96.5,146.5C 96.1115,141.372 96.6115,136.372 98,131.5C 101,127.5 104,127.5 107,131.5C 106.171,162.012 115.171,189.346 134,213.5C 136.33,221.826 139.997,229.493 145,236.5C 154.318,244.491 165.152,247.658 177.5,246C 180.405,249.374 180.072,252.374 176.5,255C 170.5,255.667 164.5,255.667 158.5,255C 151.127,252.308 143.794,249.641 136.5,247C 132.833,246.333 129.167,246.333 125.5,247C 115.161,253.78 103.828,257.78 91.5,259C 86.6667,262.5 82.5,266.667 79,271.5C 77.5229,282.454 72.8562,291.788 65,299.5C 64.3333,302.167 64.3333,304.833 65,307.5C 66.7635,309.719 68.7635,311.719 71,313.5C 71.9278,323.617 75.5945,332.617 82,340.5C 108.274,371.728 141.44,391.895 181.5,401C 206.924,406.024 232.258,411.357 257.5,417C 311.704,412.776 363.704,421.443 413.5,443C 428.38,444.824 441.546,440.991 453,431.5C 458.307,424.413 461.141,416.413 461.5,407.5C 435.192,408.925 408.858,409.758 382.5,410C 390.855,413.063 399.522,415.063 408.5,416C 420.519,416.475 432.519,416.475 444.5,416C 447.539,419.805 446.872,422.805 442.5,425C 422.967,427.622 403.634,426.622 384.5,422C 369.1,415.803 354.767,407.803 341.5,398C 315.477,388.164 291.811,374.497 270.5,357C 264.239,353.085 258.739,353.918 254,359.5C 242.761,391.536 220.928,402.369 188.5,392C 183.833,389.667 179.167,387.333 174.5,385C 163.833,375.667 153.167,366.333 142.5,357C 138.759,354.268 134.759,351.934 130.5,350C 123.121,348.318 116.121,345.652 109.5,342C 105.821,339.654 102.821,336.654 100.5,333C 103.737,326.029 107.737,325.695 112.5,332C 122.98,336.214 133.313,340.714 143.5,345.5C 147.582,317.255 163.915,301.755 192.5,299C 199.224,298.226 205.89,298.559 212.5,300C 225.694,304.595 237.694,311.262 248.5,320C 258.887,330.387 269.221,340.721 279.5,351C 286.833,356.333 294.167,361.667 301.5,367C 304.377,368.946 307.377,370.279 310.5,371C 299,354.833 287.5,338.667 276,322.5C 260.95,306.103 243.784,292.77 224.5,282.5C 224.93,278.569 227.096,276.569 231,276.5C 250.005,283.848 266.338,295.181 280,310.5C 285,316.833 290,323.167 295,329.5C 297.72,325.356 301.22,324.523 305.5,327C 307.228,332.042 306.228,336.542 302.5,340.5C 303.769,344.054 305.769,347.054 308.5,349.5C 311.321,344.393 315.154,343.06 320,345.5C 320.781,346.729 321.281,348.062 321.5,349.5C 320.229,353.208 318.562,356.708 316.5,360C 318.898,364.404 322.065,368.238 326,371.5C 329.591,364.208 331.924,356.542 333,348.5C 339.625,345.062 342.792,347.062 342.5,354.5C 342.236,363.625 339.569,371.958 334.5,379.5C 337.214,382.215 340.214,384.549 343.5,386.5C 347.653,381.191 350.487,375.191 352,368.5C 357.26,365.213 360.76,366.547 362.5,372.5C 360.907,379.449 358.24,385.949 354.5,392C 357.857,394.231 361.524,395.231 365.5,395C 368.653,390.528 371.153,385.694 373,380.5C 375.497,378.522 378.331,378.022 381.5,379C 382.944,380.126 383.61,381.626 383.5,383.5C 382.679,388.145 381.012,392.479 378.5,396.5C 378.709,397.086 379.043,397.586 379.5,398C 382.554,398.821 385.554,398.655 388.5,397.5C 391.209,393.212 393.042,388.545 394,383.5C 396.497,381.522 399.331,381.022 402.5,382C 405.133,387.87 404.466,393.537 400.5,399C 403.833,399.667 407.167,399.667 410.5,399C 414.115,390.927 415.949,382.427 416,373.5C 419.381,369.515 422.714,369.515 426,373.5C 426.922,381.688 426.088,389.688 423.5,397.5C 426.784,398.657 430.118,398.824 433.5,398C 434.945,393.964 435.945,389.797 436.5,385.5C 439.703,382.878 442.87,382.878 446,385.5C 446.499,389.486 446.666,393.486 446.5,397.5C 451.13,396.771 455.797,396.437 460.5,396.5C 459.817,392.435 458.817,388.435 457.5,384.5C 458.818,379.922 461.818,378.422 466.5,380C 469.169,383.336 470.669,387.169 471,391.5C 476.488,429.539 460.155,450.539 422,454.5C 416.754,454.153 411.588,453.32 406.5,452C 361.583,432.236 314.583,424.236 265.5,428C 259.137,427.609 252.803,426.942 246.5,426C 223.677,420.211 200.677,415.211 177.5,411C 135.472,400.937 100.639,379.437 73,346.5C 66.8472,338.859 62.8472,330.192 61,320.5C 56.4567,315.914 53.9567,310.414 53.5,304C 53.5229,301.075 54.0229,298.241 55,295.5C 57.6153,291.217 60.6153,287.217 64,283.5C 70.35,270.444 68.1834,259.111 57.5,249.5C 50.8711,257.988 42.8711,259.488 33.5,254C 21.3664,241.063 14.3664,225.729 12.5,208C 12.925,197.466 15.7584,187.632 21,178.5C 33.3011,164.556 44.6345,149.889 55,134.5C 58.852,127.289 62.5186,119.956 66,112.5C 71.1381,106.514 77.6381,103.014 85.5,102C 90.2937,96.2001 95.9603,91.5334 102.5,88C 111.202,86.1246 119.702,86.9579 128,90.5C 138.73,87.4868 149.563,86.6535 160.5,88C 164.5,90 168.5,92 172.5,94C 179.874,94.3481 187.207,93.8481 194.5,92.5C 201.899,94.3613 209.232,96.528 216.5,99C 243.928,97.2038 270.595,91.5371 296.5,82C 327.178,79.4401 356.511,71.7734 384.5,59C 403.721,53.8692 421.055,57.5358 436.5,70C 441.333,74.8333 446.167,79.6667 451,84.5C 460.09,97.0127 469.424,109.346 479,121.5C 483.333,124.833 487.667,128.167 492,131.5C 497.892,140.179 499.059,149.513 495.5,159.5C 497.914,167.78 498.414,176.114 497,184.5C 493.304,187.425 489.971,187.092 487,183.5C 486.828,178.798 486.328,174.132 485.5,169.5C 482.167,171.833 478.833,174.167 475.5,176.5C 474.982,182.145 473.982,187.645 472.5,193C 464.649,195.485 461.483,192.651 463,184.5C 460.414,186.545 457.58,188.211 454.5,189.5C 454.677,197.1 454.177,204.766 453,212.5C 450.743,216.584 447.576,217.417 443.5,215C 442.74,213.559 442.074,212.059 441.5,210.5C 442.443,205.9 442.777,201.233 442.5,196.5C 438.303,197.596 434.303,199.262 430.5,201.5C 430.01,211.969 427.343,221.802 422.5,231C 419.16,233.322 416.327,232.822 414,229.5C 415.587,222.293 416.587,214.959 417,207.5C 413.697,209.568 410.197,211.234 406.5,212.5C 405.63,217.159 404.797,221.825 404,226.5C 401.904,233.108 398.237,234.108 393,229.5C 392.892,225.823 392.892,222.157 393,218.5C 389.501,220.248 386.168,222.248 383,224.5C 382.139,230.278 380.806,235.944 379,241.5C 377.915,247.606 374.415,250.106 368.5,249C 366.632,248.101 365.632,246.601 365.5,244.5C 368.141,239.42 369.641,234.086 370,228.5C 365.251,230.063 360.417,231.396 355.5,232.5C 354.585,236.815 353.752,241.148 353,245.5C 349.619,249.485 346.286,249.485 343,245.5C 342.503,241.476 342.669,237.476 343.5,233.5C 341.139,233.674 338.806,234.007 336.5,234.5C 336.605,238.687 335.772,242.687 334,246.5C 329.906,249.476 326.573,248.809 324,244.5C 323.54,241.696 324.04,239.029 325.5,236.5C 322.627,236.124 319.627,236.124 316.5,236.5C 317.229,241.509 315.563,245.342 311.5,248C 308.904,248.458 306.737,247.625 305,245.5C 304.719,242.903 304.552,240.57 304.5,238.5C 288.825,241.419 273.492,245.585 258.5,251C 247.737,258.049 236.404,264.049 224.5,269C 215.506,271.995 206.506,274.495 197.5,276.5 Z"/></g>
<g><path style="opacity:1" fill="#dff0f8" d="M 337.5,209.5 C 330.474,209.92 323.474,210.587 316.5,211.5C 316.703,209.61 316.037,208.11 314.5,207C 283.943,206.775 260.943,219.775 245.5,246C 239.822,249.841 233.822,253.174 227.5,256C 207.846,263.501 187.512,268.168 166.5,270C 156.321,272.393 146.321,275.393 136.5,279C 135.667,279.833 134.833,280.667 134,281.5C 132.585,286.08 134.251,288.414 139,288.5C 151.645,284.397 164.479,280.897 177.5,278C 184.136,277.048 190.803,276.548 197.5,276.5C 206.638,277.994 215.638,279.994 224.5,282.5C 243.784,292.77 260.95,306.103 276,322.5C 287.5,338.667 299,354.833 310.5,371C 307.377,370.279 304.377,368.946 301.5,367C 294.167,361.667 286.833,356.333 279.5,351C 269.221,340.721 258.887,330.387 248.5,320C 237.694,311.262 225.694,304.595 212.5,300C 205.89,298.559 199.224,298.226 192.5,299C 163.915,301.755 147.582,317.255 143.5,345.5C 133.313,340.714 122.98,336.214 112.5,332C 107.737,325.695 103.737,326.029 100.5,333C 102.821,336.654 105.821,339.654 109.5,342C 116.121,345.652 123.121,348.318 130.5,350C 134.759,351.934 138.759,354.268 142.5,357C 153.167,366.333 163.833,375.667 174.5,385C 179.167,387.333 183.833,389.667 188.5,392C 220.928,402.369 242.761,391.536 254,359.5C 258.739,353.918 264.239,353.085 270.5,357C 291.811,374.497 315.477,388.164 341.5,398C 354.767,407.803 369.1,415.803 384.5,422C 403.634,426.622 422.967,427.622 442.5,425C 446.872,422.805 447.539,419.805 444.5,416C 432.519,416.475 420.519,416.475 408.5,416C 399.522,415.063 390.855,413.063 382.5,410C 408.858,409.758 435.192,408.925 461.5,407.5C 461.141,416.413 458.307,424.413 453,431.5C 441.546,440.991 428.38,444.824 413.5,443C 363.704,421.443 311.704,412.776 257.5,417C 232.258,411.357 206.924,406.024 181.5,401C 141.44,391.895 108.274,371.728 82,340.5C 75.5945,332.617 71.9278,323.617 71,313.5C 68.7635,311.719 66.7635,309.719 65,307.5C 64.3333,304.833 64.3333,302.167 65,299.5C 72.8562,291.788 77.5229,282.454 79,271.5C 82.5,266.667 86.6667,262.5 91.5,259C 103.828,257.78 115.161,253.78 125.5,247C 129.167,246.333 132.833,246.333 136.5,247C 143.794,249.641 151.127,252.308 158.5,255C 164.5,255.667 170.5,255.667 176.5,255C 180.072,252.374 180.405,249.374 177.5,246C 165.152,247.658 154.318,244.491 145,236.5C 139.997,229.493 136.33,221.826 134,213.5C 115.171,189.346 106.171,162.012 107,131.5C 104,127.5 101,127.5 98,131.5C 96.6115,136.372 96.1115,141.372 96.5,146.5C 93.4816,146.335 90.4816,146.502 87.5,147C 82.5541,151.946 77.5541,156.946 72.5,162C 51.4171,172.659 42.2504,189.826 45,213.5C 49.464,222.823 56.2974,224.99 65.5,220C 69.9899,213.176 75.9899,208.176 83.5,205C 90.7922,203.65 96.2922,206.15 100,212.5C 104.568,225.047 102.402,236.214 93.5,246C 87.6373,249.098 82.304,252.931 77.5,257.5C 72.4758,248.637 65.8091,241.137 57.5,235C 55.8333,234.333 54.1667,234.333 52.5,235C 50.5337,238.897 48.2003,242.563 45.5,246C 44.1667,246.667 42.8333,246.667 41.5,246C 35.7999,239.438 30.9666,232.271 27,224.5C 21.6537,210.681 22.6537,197.348 30,184.5C 39,173.5 48,162.5 57,151.5C 63.7766,140.948 69.7766,129.948 75,118.5C 76.214,116.951 77.714,115.785 79.5,115C 83.6366,114.066 87.6366,112.732 91.5,111C 95.4809,106.688 99.8142,102.688 104.5,99C 106.199,98.0419 108.033,97.5419 110,97.5C 115.614,98.8206 121.281,99.8206 127,100.5C 136.789,98.8386 146.623,98.0052 156.5,98C 163.784,102.95 170.784,108.283 177.5,114C 180.347,114.944 182.847,114.444 185,112.5C 186.041,109.364 185.207,106.864 182.5,105C 187.775,103.641 193.109,103.308 198.5,104C 203.534,106.789 208.868,108.789 214.5,110C 210.276,116.735 209.443,123.902 212,131.5C 215,134.167 218,134.167 221,131.5C 218.425,122.155 221.258,114.989 229.5,110C 243.418,106.616 257.418,103.616 271.5,101C 281.178,97.9961 290.844,94.9961 300.5,92C 315.982,90.1974 331.315,87.5308 346.5,84C 361.716,79.2613 376.716,73.928 391.5,68C 398.567,67.1609 405.567,67.4942 412.5,69C 425.643,74.4963 436.477,82.9963 445,94.5C 453.758,106.347 462.758,118.014 472,129.5C 472.455,133.814 471.455,137.814 469,141.5C 463.043,148.787 455.876,154.621 447.5,159C 413.147,177.003 377.48,191.669 340.5,203C 338.081,204.509 337.081,206.675 337.5,209.5 Z"/></g>
<g><path style="opacity:1" fill="#3a4053" d="M 410.5,84.5 C 417.116,83.4784 422.783,85.3117 427.5,90C 439.538,100.36 449.705,112.194 458,125.5C 460.004,134.649 457.17,141.816 449.5,147C 444.178,147.34 442.011,144.84 443,139.5C 444.667,137.833 446.333,136.167 448,134.5C 448.781,133.056 448.614,131.723 447.5,130.5C 437.134,123.575 425.801,119.075 413.5,117C 401.945,111.333 398.445,102.5 403,90.5C 405.114,87.8792 407.614,85.8792 410.5,84.5 Z"/></g>
<g><path style="opacity:1" fill="#393f52" d="M 332.5,103.5 C 345.504,103.333 358.504,103.5 371.5,104C 380.92,105.294 388.42,109.794 394,117.5C 397.394,121.898 400.394,126.565 403,131.5C 404.295,142.092 399.795,148.592 389.5,151C 373.932,153.119 363.765,146.619 359,131.5C 358.333,126.833 358.333,122.167 359,117.5C 359.465,116.069 360.299,114.903 361.5,114C 351.833,113.667 342.167,113.333 332.5,113C 329.888,109.836 329.888,106.669 332.5,103.5 Z"/></g>
<g><path style="opacity:1" fill="#393f52" d="M 278.5,118.5 C 288.506,118.334 298.506,118.5 308.5,119C 317.36,120.264 325.027,123.931 331.5,130C 341.137,138.466 348.971,148.3 355,159.5C 358.934,176.168 352.434,184.668 335.5,185C 333.004,183.92 330.67,182.586 328.5,181C 326.107,177.712 324.107,174.212 322.5,170.5C 318.607,167.598 315.44,168.264 313,172.5C 311.892,176.086 311.392,179.753 311.5,183.5C 314.425,182.361 317.425,181.861 320.5,182C 323.978,184.706 324.311,187.706 321.5,191C 305.248,197.839 289.581,196.839 274.5,188C 273.333,186.833 272.167,185.667 271,184.5C 266.481,172.671 259.647,162.504 250.5,154C 248.299,153.175 246.466,153.675 245,155.5C 244.341,161.202 245.175,166.702 247.5,172C 246.63,176.536 243.963,178.203 239.5,177C 229.765,165.471 225.932,152.305 228,137.5C 231.29,130.879 236.457,126.379 243.5,124C 255.391,122.716 267.058,120.883 278.5,118.5 Z"/></g>
<g><path style="opacity:1" fill="#393f52" d="M 158.5,128.5 C 181.383,128.025 199.55,137.025 213,155.5C 216.755,160.003 219.755,165.003 222,170.5C 223.238,177.93 224.905,185.263 227,192.5C 230.163,196.156 232.829,200.156 235,204.5C 236.39,217.737 230.557,225.403 217.5,227.5C 214.344,227.257 211.344,226.424 208.5,225C 199.026,216.195 189.526,207.361 180,198.5C 178.181,193.317 180.014,190.484 185.5,190C 186.455,184.544 184.789,179.877 180.5,176C 172.873,176.522 165.206,176.522 157.5,176C 141.761,170.022 135.928,158.855 140,142.5C 144.154,135.023 150.321,130.356 158.5,128.5 Z"/></g>
<g><path style="opacity:1" fill="#8093dd" d="M 316.5,211.5 C 323.474,210.587 330.474,209.92 337.5,209.5C 338.267,210.172 338.934,211.005 339.5,212C 344.223,212.624 348.89,212.29 353.5,211C 379.51,201.162 405.177,190.495 430.5,179C 443.145,173.348 455.145,166.681 466.5,159C 474.006,153.476 479.173,146.309 482,137.5C 486.259,141.617 487.592,146.617 486,152.5C 483.872,155.63 481.372,158.463 478.5,161C 470.34,166.914 462.007,172.581 453.5,178C 422.241,194.082 390.241,208.416 357.5,221C 340.795,222.671 324.128,224.671 307.5,227C 293.382,229.826 279.382,232.826 265.5,236C 279.274,223.292 295.607,216.625 314.5,216C 316.037,214.89 316.703,213.39 316.5,211.5 Z"/></g>
<g><path style="opacity:1" fill="#3e4457" d="M 426.5,145.5 C 432.986,143.835 435.819,146.168 435,152.5C 430.048,157.053 426.548,156.22 424.5,150C 424.519,148.167 425.185,146.667 426.5,145.5 Z"/></g>
<g><path style="opacity:1" fill="#41475a" d="M 108.5,289.5 C 115.586,289.539 117.586,292.539 114.5,298.5C 107.563,303.573 104.063,301.906 104,293.5C 105.397,291.93 106.897,290.596 108.5,289.5 Z"/></g>
</svg>
