<?xml version="1.0" encoding="UTF-8"?>
<!DOCTYPE svg PUBLIC "-//W3C//DTD SVG 1.1//EN" "http://www.w3.org/Graphics/SVG/1.1/DTD/svg11.dtd">
<svg xmlns="http://www.w3.org/2000/svg" version="1.1" width="512px" height="512px" style="shape-rendering:geometricPrecision; text-rendering:geometricPrecision; image-rendering:optimizeQuality; fill-rule:evenodd; clip-rule:evenodd" xmlns:xlink="http://www.w3.org/1999/xlink">
<g><path style="opacity:1" fill="#c8515c" d="M 48.5,28.5 C 54.2744,29.774 57.941,33.274 59.5,39C 58.63,43.5361 55.9633,45.2028 51.5,44C 47.5496,41.8854 44.8829,38.7187 43.5,34.5C 44.497,31.845 46.1637,29.845 48.5,28.5 Z"/></g>
<g><path style="opacity:1" fill="#c8515d" d="M 118.5,31.5 C 127.617,32.2433 131.284,37.0766 129.5,46C 125.334,48.2508 121.834,47.4174 119,43.5C 117.445,41.5566 116.278,39.3899 115.5,37C 116.124,34.9149 117.124,33.0816 118.5,31.5 Z"/></g>
<g><path style="opacity:1" fill="#393d50" d="M 164.5,42.5 C 179.915,42.6128 190.748,49.6128 197,63.5C 197.993,83.1472 188.826,90.3139 169.5,85C 154.11,78.8795 148.61,67.7128 153,51.5C 155.683,46.922 159.517,43.922 164.5,42.5 Z"/></g>
<g><path style="opacity:1" fill="#c5505c" d="M 165.5,53.5 C 175.4,54.0298 182.567,58.6965 187,67.5C 187.758,73.409 185.092,76.0756 179,75.5C 166.277,74.775 160.944,68.1083 163,55.5C 163.995,54.9341 164.828,54.2674 165.5,53.5 Z"/></g>
<g><path style="opacity:1" fill="#3a3e51" d="M 318.5,189.5 C 316.772,190.379 314.939,191.046 313,191.5C 304.539,188.79 296.039,186.29 287.5,184C 261.153,183.22 237.82,174.554 217.5,158C 203.687,150.943 190.853,152.443 179,162.5C 176.702,166.218 176.035,170.218 177,174.5C 180.724,182.338 184.057,190.338 187,198.5C 187.848,205.899 187.515,213.233 186,220.5C 182.714,229.405 179.714,238.405 177,247.5C 174.836,263.533 176.503,279.2 182,294.5C 187.476,305.313 195.142,314.313 205,321.5C 205.556,323.885 205.39,326.218 204.5,328.5C 200.276,330.239 196.609,329.406 193.5,326C 173.299,308.799 154.799,289.966 138,269.5C 125.467,252.083 117.3,232.75 113.5,211.5C 113.747,208.923 115.081,207.257 117.5,206.5C 120.325,206.081 122.491,207.081 124,209.5C 130.222,239.954 144.722,265.621 167.5,286.5C 167.833,285.833 168.167,285.167 168.5,284.5C 165.968,273.624 165.135,262.624 166,251.5C 168.322,240.201 171.655,229.201 176,218.5C 177.471,212.569 177.804,206.569 177,200.5C 173.667,192.5 170.333,184.5 167,176.5C 164.836,165.991 168.002,157.491 176.5,151C 190.73,142.429 205.397,141.429 220.5,148C 230.539,155.354 241.205,161.687 252.5,167C 262.185,170.749 272.185,172.416 282.5,172C 265.709,156.202 248.042,141.536 229.5,128C 214.51,121.666 198.843,118.999 182.5,120C 162.641,115.802 145.975,106.135 132.5,91C 117.839,83.7616 106.673,87.2616 99,101.5C 96.8147,107.645 97.1481,113.645 100,119.5C 108.468,131.771 114.801,145.104 119,159.5C 119.667,162.5 119.667,165.5 119,168.5C 117.855,169.636 116.688,170.636 115.5,171.5C 113.097,171.607 111.264,170.607 110,168.5C 105.699,151.583 98.6985,135.917 89,121.5C 83.705,103.715 88.8717,89.8812 104.5,80C 116.181,74.8803 127.514,75.547 138.5,82C 144.167,87 149.833,92 155.5,97C 164.248,103.14 173.914,107.14 184.5,109C 207.32,107.223 227.986,112.89 246.5,126C 266.5,143.333 286.5,160.667 306.5,178C 310.805,178.903 314.639,180.737 318,183.5C 318.495,185.473 318.662,187.473 318.5,189.5 Z"/></g>
<g><path style="opacity:1" fill="#c6505c" d="M 117.5,206.5 C 117.5,202.167 117.5,197.833 117.5,193.5C 122.453,191.421 123.786,187.754 121.5,182.5C 119.855,181.304 118.189,180.304 116.5,179.5C 116.167,176.833 115.833,174.167 115.5,171.5C 116.688,170.636 117.855,169.636 119,168.5C 119.667,165.5 119.667,162.5 119,159.5C 114.801,145.104 108.468,131.771 100,119.5C 97.1481,113.645 96.8147,107.645 99,101.5C 106.673,87.2616 117.839,83.7616 132.5,91C 145.975,106.135 162.641,115.802 182.5,120C 198.843,118.999 214.51,121.666 229.5,128C 248.042,141.536 265.709,156.202 282.5,172C 272.185,172.416 262.185,170.749 252.5,167C 241.205,161.687 230.539,155.354 220.5,148C 205.397,141.429 190.73,142.429 176.5,151C 168.002,157.491 164.836,165.991 167,176.5C 170.333,184.5 173.667,192.5 177,200.5C 177.804,206.569 177.471,212.569 176,218.5C 171.655,229.201 168.322,240.201 166,251.5C 165.135,262.624 165.968,273.624 168.5,284.5C 168.167,285.167 167.833,285.833 167.5,286.5C 144.722,265.621 130.222,239.954 124,209.5C 122.491,207.081 120.325,206.081 117.5,206.5 Z"/></g>
<g><path style="opacity:1" fill="#393d51" d="M 31.5,94.5 C 38.5823,93.6428 45.249,94.8095 51.5,98C 65.1697,107.84 75.6697,120.34 83,135.5C 86.0782,143.929 87.0782,152.596 86,161.5C 83.4519,167.367 78.9519,170.701 72.5,171.5C 47.0259,164.526 29.1926,148.859 19,124.5C 14.3382,110.62 18.5048,100.62 31.5,94.5 Z"/></g>
<g><path style="opacity:1" fill="#c6505c" d="M 35.5,104.5 C 40.4156,104.29 44.7489,105.79 48.5,109C 60.8796,118.593 69.713,130.76 75,145.5C 75.8015,150.419 75.6349,155.252 74.5,160C 59.2402,156.273 46.7402,148.106 37,135.5C 32.1028,129.537 29.2695,122.704 28.5,115C 28.2919,109.723 30.6253,106.223 35.5,104.5 Z"/></g>
<g><path style="opacity:1" fill="#383d51" d="M 314.5,117.5 C 327.178,115.923 336.678,120.59 343,131.5C 346,143.494 342.167,152.661 331.5,159C 324.592,161.7 318.426,160.533 313,155.5C 305.845,147.378 303.179,138.045 305,127.5C 307.022,122.98 310.189,119.647 314.5,117.5 Z"/></g>
<g><path style="opacity:1" fill="#f38093" d="M 318.5,127.5 C 324.697,127.832 329.53,130.499 333,135.5C 334.11,143.839 330.61,148.339 322.5,149C 317.365,144.237 314.865,138.404 315,131.5C 315.69,129.65 316.856,128.316 318.5,127.5 Z"/></g>
<g><path style="opacity:1" fill="#fadb85" d="M 398.5,128.5 C 402.808,127.735 405.642,129.402 407,133.5C 409.508,140.974 407.008,144.141 399.5,143C 394.981,138.308 394.647,133.475 398.5,128.5 Z"/></g>
<g><path style="opacity:1" fill="#f88295" d="M 318.5,189.5 C 320.98,190.242 323.313,191.242 325.5,192.5C 324.397,195.551 323.731,198.718 323.5,202C 324.721,212.988 325.721,223.988 326.5,235C 328.669,244.209 325.669,250.875 317.5,255C 312.351,254.737 307.184,254.237 302,253.5C 286.042,255.465 279.042,264.465 281,280.5C 283.973,292.033 279.473,298.033 267.5,298.5C 259.739,297.681 252.072,296.348 244.5,294.5C 234.514,295.239 227.68,300.239 224,309.5C 223.1,315.596 221.767,321.596 220,327.5C 217.793,330.564 214.959,332.564 211.5,333.5C 209.343,331.588 207.009,329.921 204.5,328.5C 205.39,326.218 205.556,323.885 205,321.5C 195.142,314.313 187.476,305.313 182,294.5C 176.503,279.2 174.836,263.533 177,247.5C 179.714,238.405 182.714,229.405 186,220.5C 187.515,213.233 187.848,205.899 187,198.5C 184.057,190.338 180.724,182.338 177,174.5C 176.035,170.218 176.702,166.218 179,162.5C 190.853,152.443 203.687,150.943 217.5,158C 237.82,174.554 261.153,183.22 287.5,184C 296.039,186.29 304.539,188.79 313,191.5C 314.939,191.046 316.772,190.379 318.5,189.5 Z"/></g>
<g><path style="opacity:1" fill="#393e51" d="M 116.5,179.5 C 118.189,180.304 119.855,181.304 121.5,182.5C 123.786,187.754 122.453,191.421 117.5,193.5C 113.432,193.069 111.432,190.736 111.5,186.5C 111.469,182.878 113.136,180.545 116.5,179.5 Z"/></g>
<g><path style="opacity:1" fill="#3c3e51" d="M 141.5,181.5 C 144.978,181.184 148.312,181.684 151.5,183C 165.344,194.95 168.178,209.117 160,225.5C 154.066,231.943 147.232,233.11 139.5,229C 136.156,225.479 133.989,221.312 133,216.5C 130.557,206.597 131.223,196.93 135,187.5C 137.063,185.266 139.229,183.266 141.5,181.5 Z"/></g>
<g><path style="opacity:1" fill="#393f53" d="M 385.5,220.5 C 384.448,225.213 381.448,227.88 376.5,228.5C 372.841,229.413 369.341,230.746 366,232.5C 355.666,278.704 332.5,316.871 296.5,347C 277.329,361.584 255.996,371.917 232.5,378C 231.756,379.815 231.089,381.648 230.5,383.5C 227.431,393.581 225.764,403.915 225.5,414.5C 248.83,410 270.83,401.834 291.5,390C 296.068,388.35 298.734,389.85 299.5,394.5C 299.124,396.383 298.124,397.883 296.5,399C 276.573,410.086 255.573,418.419 233.5,424C 225.611,427.606 222.278,433.773 223.5,442.5C 223.89,449.175 224.39,455.842 225,462.5C 226.442,466.275 228.942,469.108 232.5,471C 257.833,471.667 283.167,471.667 308.5,471C 319.833,461.667 331.167,452.333 342.5,443C 346.172,440.162 350.172,437.829 354.5,436C 365.93,435.823 377.263,436.489 388.5,438C 398.39,434.646 408.39,431.813 418.5,429.5C 437.204,432.037 445.704,442.704 444,461.5C 443.261,465.062 441.761,468.228 439.5,471C 453.829,471.5 468.163,471.667 482.5,471.5C 482.667,423.166 482.5,374.832 482,326.5C 477.093,320.922 471.593,316.089 465.5,312C 454.868,307.459 444.202,303.126 433.5,299C 423.503,287.881 423.003,276.381 432,264.5C 446.198,252.437 453.698,237.104 454.5,218.5C 444.828,218.334 435.161,218.5 425.5,219C 420.479,221.018 416.313,224.185 413,228.5C 405.811,266.2 391.477,300.867 370,332.5C 366.425,336.653 363.091,340.986 360,345.5C 357.577,348.432 354.743,350.765 351.5,352.5C 346.85,351.734 345.35,349.068 347,344.5C 378.964,307.808 397.464,265.141 402.5,216.5C 402.283,210.768 402.783,205.101 404,199.5C 407.619,196.657 410.952,196.99 414,200.5C 414.333,203.5 414.667,206.5 415,209.5C 434.469,206.742 453.969,206.909 473.5,210C 478.352,210.713 483.019,212.046 487.5,214C 490.106,215.938 491.939,218.438 493,221.5C 493.667,307.5 493.667,393.5 493,479.5C 491.829,480.893 490.329,481.727 488.5,482C 401.5,482.667 314.5,482.667 227.5,482C 221.9,481.459 218.066,478.626 216,473.5C 213.804,458.59 212.97,443.59 213.5,428.5C 209.815,428.895 206.148,429.062 202.5,429C 197.671,426.163 197.337,422.829 201.5,419C 205.504,418.119 209.504,417.286 213.5,416.5C 215.321,403.729 217.654,391.062 220.5,378.5C 208.89,377.446 198.39,373.446 189,366.5C 181.58,354.343 184.08,344.843 196.5,338C 201.907,337.43 206.907,335.93 211.5,333.5C 214.959,332.564 217.793,330.564 220,327.5C 221.767,321.596 223.1,315.596 224,309.5C 227.68,300.239 234.514,295.239 244.5,294.5C 252.072,296.348 259.739,297.681 267.5,298.5C 279.473,298.033 283.973,292.033 281,280.5C 279.042,264.465 286.042,255.465 302,253.5C 307.184,254.237 312.351,254.737 317.5,255C 325.669,250.875 328.669,244.209 326.5,235C 325.721,223.988 324.721,212.988 323.5,202C 323.731,198.718 324.397,195.551 325.5,192.5C 336.272,181.807 346.772,182.14 357,193.5C 362.842,201.526 366.175,210.526 367,220.5C 372.206,217.477 377.706,216.477 383.5,217.5C 384.425,218.357 385.092,219.357 385.5,220.5 Z"/></g>
<g><path style="opacity:1" fill="#3b3e52" d="M 213.5,190.5 C 226.413,189.237 234.58,194.904 238,207.5C 242.802,225.669 235.969,234.836 217.5,235C 204.453,228.059 199.62,217.225 203,202.5C 204.936,197.068 208.436,193.068 213.5,190.5 Z"/></g>
<g><path style="opacity:1" fill="#f38093" d="M 144.5,191.5 C 154.975,199.13 157.142,208.797 151,220.5C 149,221.833 147,221.833 145,220.5C 141.987,210.818 141.82,201.152 144.5,191.5 Z"/></g>
<g><path style="opacity:1" fill="#f8df95" d="M 338.5,195.5 C 340.989,195.298 343.323,195.798 345.5,197C 355.261,207.796 358.427,220.296 355,234.5C 342.929,284.524 315.429,323.357 272.5,351C 257.573,359.919 241.573,365.752 224.5,368.5C 215.162,367.776 206.495,364.943 198.5,360C 194.325,355.694 194.658,351.694 199.5,348C 221.948,346.218 233.448,334.051 234,311.5C 236.399,307.551 239.899,305.551 244.5,305.5C 252.548,306.619 260.548,307.952 268.5,309.5C 288.22,305.741 295.554,294.074 290.5,274.5C 291.28,267.552 295.113,263.885 302,263.5C 312.722,267.466 322.389,265.8 331,258.5C 333.613,255.676 335.279,252.342 336,248.5C 336.963,233.399 336.129,218.399 333.5,203.5C 333.672,199.807 335.339,197.141 338.5,195.5 Z"/></g>
<g><path style="opacity:1" fill="#c4505c" d="M 216.5,200.5 C 223.291,201.452 227.458,205.452 229,212.5C 231.17,221.053 228.004,225.22 219.5,225C 213.134,219.567 210.968,212.734 213,204.5C 213.69,202.65 214.856,201.316 216.5,200.5 Z"/></g>
<g><path style="opacity:1" fill="#3d3f52" d="M 275.5,201.5 C 290.341,201.172 299.007,208.339 301.5,223C 297.928,238.948 288.261,244.948 272.5,241C 265.59,236.011 262.256,229.178 262.5,220.5C 263.301,211.707 267.634,205.374 275.5,201.5 Z"/></g>
<g><path style="opacity:1" fill="#c3505c" d="M 278.5,211.5 C 284.631,211.658 288.798,214.658 291,220.5C 290.859,229.302 286.359,233.135 277.5,232C 275.513,230.681 274.346,228.848 274,226.5C 273.333,222.833 273.333,219.167 274,215.5C 275.397,213.93 276.897,212.596 278.5,211.5 Z"/></g>
<g><path style="opacity:1" fill="#9bb4f8" d="M 402.5,216.5 C 397.464,265.141 378.964,307.808 347,344.5C 345.35,349.068 346.85,351.734 351.5,352.5C 354.743,350.765 357.577,348.432 360,345.5C 363.091,340.986 366.425,336.653 370,332.5C 391.477,300.867 405.811,266.2 413,228.5C 416.313,224.185 420.479,221.018 425.5,219C 435.161,218.5 444.828,218.334 454.5,218.5C 453.698,237.104 446.198,252.437 432,264.5C 423.003,276.381 423.503,287.881 433.5,299C 444.202,303.126 454.868,307.459 465.5,312C 471.593,316.089 477.093,320.922 482,326.5C 482.5,374.832 482.667,423.166 482.5,471.5C 468.163,471.667 453.829,471.5 439.5,471C 441.761,468.228 443.261,465.062 444,461.5C 445.704,442.704 437.204,432.037 418.5,429.5C 408.39,431.813 398.39,434.646 388.5,438C 377.263,436.489 365.93,435.823 354.5,436C 350.172,437.829 346.172,440.162 342.5,443C 331.167,452.333 319.833,461.667 308.5,471C 283.167,471.667 257.833,471.667 232.5,471C 228.942,469.108 226.442,466.275 225,462.5C 224.39,455.842 223.89,449.175 223.5,442.5C 222.278,433.773 225.611,427.606 233.5,424C 255.573,418.419 276.573,410.086 296.5,399C 298.124,397.883 299.124,396.383 299.5,394.5C 298.734,389.85 296.068,388.35 291.5,390C 270.83,401.834 248.83,410 225.5,414.5C 225.764,403.915 227.431,393.581 230.5,383.5C 306.778,379.377 354.278,340.377 373,266.5C 375.231,253.926 376.397,241.259 376.5,228.5C 381.448,227.88 384.448,225.213 385.5,220.5C 391.13,219.009 396.797,217.676 402.5,216.5 Z"/></g>
<g><path style="opacity:1" fill="#6f6fa7" d="M 482.5,228.5 C 482.831,256.338 482.498,284.005 481.5,311.5C 469.721,302.112 456.388,295.612 441.5,292C 435.959,288.178 434.126,283.011 436,276.5C 445.713,266.74 453.713,255.74 460,243.5C 463.214,235.84 464.714,227.84 464.5,219.5C 470.883,218.476 476.383,220.143 481,224.5C 481.791,225.745 482.291,227.078 482.5,228.5 Z"/></g>
<g><path style="opacity:1" fill="#6f70a7" d="M 376.5,228.5 C 376.397,241.259 375.231,253.926 373,266.5C 354.278,340.377 306.778,379.377 230.5,383.5C 231.089,381.648 231.756,379.815 232.5,378C 255.996,371.917 277.329,361.584 296.5,347C 332.5,316.871 355.666,278.704 366,232.5C 369.341,230.746 372.841,229.413 376.5,228.5 Z"/></g>
<g><path style="opacity:1" fill="#4a506f" d="M 482.5,228.5 C 483.829,256.336 483.829,284.336 482.5,312.5C 481.893,312.376 481.56,312.043 481.5,311.5C 482.498,284.005 482.831,256.338 482.5,228.5 Z"/></g>
<g><path style="opacity:1" fill="#3d3e52" d="M 210.5,273.5 C 214.664,273.143 217.831,274.81 220,278.5C 220.993,284.502 218.493,286.668 212.5,285C 206.897,281.796 206.23,277.962 210.5,273.5 Z"/></g>
<g><path style="opacity:1" fill="#393f54" d="M 416.5,330.5 C 438.262,328.627 452.762,337.96 460,358.5C 463.403,373.196 458.236,383.363 444.5,389C 439.833,389.667 435.167,389.667 430.5,389C 422.989,384.58 414.989,381.247 406.5,379C 389.173,365.739 388.173,351.406 403.5,336C 407.741,333.651 412.075,331.818 416.5,330.5 Z"/></g>
<g><path style="opacity:1" fill="#fa8497" d="M 134.5,339.5 C 138.059,339.408 141.392,340.241 144.5,342C 147.951,347.097 146.784,350.597 141,352.5C 138.38,351.794 135.88,350.794 133.5,349.5C 130.696,345.852 131.03,342.518 134.5,339.5 Z"/></g>
<g><path style="opacity:1" fill="#6f6fa6" d="M 420.5,340.5 C 442.072,341.231 451.572,352.231 449,373.5C 447.749,376.381 445.583,378.214 442.5,379C 439.167,379.667 435.833,379.667 432.5,379C 425.174,374.836 417.507,371.502 409.5,369C 403.882,364.071 402.049,357.905 404,350.5C 407.932,344.478 413.432,341.145 420.5,340.5 Z"/></g>
<g><path style="opacity:1" fill="#3a4055" d="M 320.5,369.5 C 324.562,369.012 326.895,370.678 327.5,374.5C 325.666,381.004 321.832,382.671 316,379.5C 315.333,377.5 315.333,375.5 316,373.5C 317.667,372.267 319.167,370.933 320.5,369.5 Z"/></g>
<g><path style="opacity:1" fill="#fada83" d="M 156.5,410.5 C 161.532,410.214 166.032,411.548 170,414.5C 171.754,420.072 169.754,422.739 164,422.5C 154.328,422.396 151.828,418.396 156.5,410.5 Z"/></g>
<g><path style="opacity:1" fill="#6f6fa6" d="M 412.5,440.5 C 427.344,438.469 434.51,444.802 434,459.5C 432.227,463.545 430.06,467.378 427.5,471C 393.167,471.667 358.833,471.667 324.5,471C 334.5,463 344.5,455 354.5,447C 362.405,444.719 370.072,445.385 377.5,449C 389.936,449.128 401.603,446.295 412.5,440.5 Z"/></g>
</svg>
