<?xml version="1.0" encoding="UTF-8"?>
<!DOCTYPE svg PUBLIC "-//W3C//DTD SVG 1.1//EN" "http://www.w3.org/Graphics/SVG/1.1/DTD/svg11.dtd">
<svg xmlns="http://www.w3.org/2000/svg" version="1.1" width="512px" height="512px" style="shape-rendering:geometricPrecision; text-rendering:geometricPrecision; image-rendering:optimizeQuality; fill-rule:evenodd; clip-rule:evenodd" xmlns:xlink="http://www.w3.org/1999/xlink">
<g><path style="opacity:1" fill="#393e51" d="M 201.5,332.5 C 199.899,330.147 197.899,327.98 195.5,326C 187.702,320.768 179.369,316.601 170.5,313.5C 164.883,310.47 158.883,309.804 152.5,311.5C 150.577,310.908 148.911,309.908 147.5,308.5C 146.959,305.348 147.959,302.848 150.5,301C 155.833,300.333 161.167,300.333 166.5,301C 176.214,304.358 185.547,308.524 194.5,313.5C 197.477,315.467 200.477,317.467 203.5,319.5C 207.167,322.5 210.5,325.833 213.5,329.5C 216.445,333.735 219.111,338.068 221.5,342.5C 227.369,360.09 226.535,377.424 219,394.5C 215.508,402.153 211.508,409.487 207,416.5C 206.333,424.167 206.333,431.833 207,439.5C 209.156,444.666 212.489,448.999 217,452.5C 219.888,457.776 223.388,462.609 227.5,467C 234.392,468.591 241.392,468.924 248.5,468C 252.32,464.725 252.487,461.225 249,457.5C 243.667,452.833 238.333,448.167 233,443.5C 228.689,435.008 227.356,426.008 229,416.5C 229.438,413.624 230.438,410.957 232,408.5C 241.856,393.639 252.856,379.639 265,366.5C 275.073,349.09 277.073,330.756 271,311.5C 261.708,288.292 253.208,264.792 245.5,241C 245.354,238.812 246.354,237.479 248.5,237C 250.545,236.51 252.545,236.677 254.5,237.5C 257.441,246.659 260.775,255.659 264.5,264.5C 269.38,279.242 275.046,293.575 281.5,307.5C 291.167,301 300.833,294.5 310.5,288C 321.428,283.692 332.761,281.026 344.5,280C 360.598,275.547 374.431,267.381 386,255.5C 387.98,247.915 389.48,240.249 390.5,232.5C 391.468,229.555 391.634,226.555 391,223.5C 387.517,228.991 382.85,232.991 377,235.5C 375.744,235.352 374.577,235.018 373.5,234.5C 372.463,232.262 372.297,229.929 373,227.5C 381.065,221.763 386.398,214.096 389,204.5C 394.155,199.932 397.822,200.932 400,207.5C 402.824,224.167 401.491,240.501 396,256.5C 395.333,264.833 395.333,273.167 396,281.5C 398.584,289.915 400.751,298.415 402.5,307C 401.012,315.629 399.012,324.129 396.5,332.5C 396.538,336.835 397.871,340.668 400.5,344C 403.956,345.123 406.79,344.29 409,341.5C 415.519,331.299 417.186,320.299 414,308.5C 411.795,301.554 409.795,294.554 408,287.5C 406.74,278.231 407.74,269.231 411,260.5C 414.667,253.833 418.333,247.167 422,240.5C 429.526,221.712 429.193,203.046 421,184.5C 420.333,182.5 420.333,180.5 421,178.5C 424.028,172.466 428.195,167.299 433.5,163C 435.929,162.297 438.262,162.463 440.5,163.5C 441.511,165.402 441.678,167.402 441,169.5C 436.963,173.105 433.797,177.272 431.5,182C 433.005,187.18 434.505,192.347 436,197.5C 442.982,186.189 446.482,173.855 446.5,160.5C 449.266,146.475 449.099,132.475 446,118.5C 444.551,113.601 442.551,108.935 440,104.5C 431.699,93.8961 425.533,82.2294 421.5,69.5C 410.952,73.8091 399.952,75.8091 388.5,75.5C 386.392,74.2247 384.058,73.7247 381.5,74C 372.547,84.7415 363.714,95.5749 355,106.5C 353.068,111.194 353.068,115.861 355,120.5C 358.53,123.5 362.364,124.167 366.5,122.5C 368.382,120.761 369.715,118.594 370.5,116C 367.208,112.532 366.875,108.866 369.5,105C 371.971,104.294 374.305,104.627 376.5,106C 377.836,108.2 379.502,110.033 381.5,111.5C 390.153,110.643 398.819,110.477 407.5,111C 409.667,110.167 411.167,108.667 412,106.5C 412.287,102.397 411.953,98.3972 411,94.5C 413.496,90.9981 416.329,90.6647 419.5,93.5C 425.067,105.735 422.067,115.235 410.5,122C 417.755,133.619 418.255,145.453 412,157.5C 406.818,163.758 400.151,167.091 392,167.5C 374.143,166.547 357.643,161.38 342.5,152C 313.329,142.265 284.663,143.599 256.5,156C 231.743,167.794 207.743,180.794 184.5,195C 164.907,207.25 147.741,222.416 133,240.5C 120.719,257.782 108.052,274.782 95,291.5C 81.2995,305.532 67.9661,319.866 55,334.5C 38.7317,354.376 28.3983,377.043 24,402.5C 22.4829,419.687 24.6496,436.353 30.5,452.5C 30.9867,453.473 31.4867,454.473 32,455.5C 32.4996,448.842 32.6663,442.175 32.5,435.5C 35.4935,396.014 51.4935,362.848 80.5,336C 88.6979,329.736 97.3646,324.236 106.5,319.5C 108.692,319.757 110.359,320.757 111.5,322.5C 111.896,325.044 111.229,327.211 109.5,329C 100.956,333.549 92.956,338.882 85.5,345C 81.23,348.761 77.5633,352.928 74.5,357.5C 64.5501,367.832 58.7168,380.165 57,394.5C 66.8951,370.938 83.7285,354.438 107.5,345C 131.757,335.794 156.757,330.127 182.5,328C 183.971,329.583 184.971,331.417 185.5,333.5C 185.084,335.752 183.751,337.252 181.5,338C 156.787,341.209 132.787,347.209 109.5,356C 76.6593,371.844 60.826,398.011 62,434.5C 66.6189,455.452 79.4522,467.952 100.5,472C 107.167,472.333 113.833,472.667 120.5,473C 122.444,475.153 122.944,477.653 122,480.5C 110.132,490.673 96.2989,495.673 80.5,495.5C 43.8594,492.924 22.026,473.591 15,437.5C 9.83974,406.13 15.5064,376.796 32,349.5C 36.4186,342.328 41.0852,335.328 46,328.5C 61,312.167 76,295.833 91,279.5C 103.333,262.833 115.667,246.167 128,229.5C 147.904,207.59 170.737,189.424 196.5,175C 214.853,164.823 233.519,155.156 252.5,146C 280.404,134.009 309.07,131.676 338.5,139C 346.469,142.65 354.469,146.317 362.5,150C 371.699,153.508 381.199,155.675 391,156.5C 400.481,156.353 405.314,151.519 405.5,142C 404.773,134.548 402.106,127.881 397.5,122C 391.763,121.211 386.097,121.544 380.5,123C 373.084,135.018 363.084,137.685 350.5,131C 342.096,122.872 340.263,113.372 345,102.5C 346.667,99.8333 348.333,97.1667 350,94.5C 363.667,78.1667 377.333,61.8333 391,45.5C 401.509,34.3158 413.676,25.4825 427.5,19C 452.558,12.7923 475.058,17.9589 495,34.5C 501.175,50.7971 495.509,60.1304 478,62.5C 473.901,62.1838 470.067,61.0172 466.5,59C 456.32,45.476 445.82,45.3093 435,58.5C 433.888,60.3904 433.054,62.3904 432.5,64.5C 433.537,69.649 435.037,74.649 437,79.5C 441.499,87.8364 446.499,95.8364 452,103.5C 454.269,108.64 455.935,113.973 457,119.5C 458.515,132.129 458.848,144.795 458,157.5C 456.164,171.343 454.331,185.177 452.5,199C 452.34,213.195 455.84,226.362 463,238.5C 468.861,246.207 475.194,253.54 482,260.5C 492.673,276.544 495.34,293.878 490,312.5C 480.37,323.646 470.37,323.979 460,313.5C 455.649,305.046 453.315,296.046 453,286.5C 451.941,283.382 450.608,280.382 449,277.5C 442.667,271.5 436.333,265.5 430,259.5C 429,257.833 428,256.167 427,254.5C 419.477,264.262 416.81,275.262 419,287.5C 423.08,298.485 425.58,309.819 426.5,321.5C 426.308,334.046 421.641,344.546 412.5,353C 399.86,358.221 391.36,354.388 387,341.5C 386.333,335.833 386.333,330.167 387,324.5C 389.221,319.006 390.721,313.339 391.5,307.5C 390.185,300.385 388.352,293.385 386,286.5C 385.114,281.53 384.448,276.53 384,271.5C 366.296,285.35 346.13,293.017 323.5,294.5C 324.701,314.79 322.868,334.79 318,354.5C 316.551,359.399 314.551,364.065 312,368.5C 306.506,375.487 301.506,382.82 297,390.5C 293.208,401.631 292.541,412.964 295,424.5C 297.777,430.943 302.277,435.777 308.5,439C 317.217,441.434 323.717,446.601 328,454.5C 331.885,465.225 328.719,473.058 318.5,478C 299.815,483.35 286.315,477.516 278,460.5C 274.034,455.533 269.701,450.866 265,446.5C 263.725,444.283 262.725,441.949 262,439.5C 260.926,428.845 259.926,418.178 259,407.5C 258.383,402.747 257.383,398.08 256,393.5C 251,400.5 246,407.5 241,414.5C 237.267,422.895 237.933,430.895 243,438.5C 250.333,443.167 256.333,449.167 261,456.5C 264.196,466.6 261.029,473.767 251.5,478C 243.167,478.667 234.833,478.667 226.5,478C 222.49,476.657 218.99,474.491 216,471.5C 211.817,463.647 206.484,456.647 200,450.5C 197.66,446.479 196.326,442.146 196,437.5C 195.225,429.452 195.558,421.452 197,413.5C 202.178,404.477 206.845,395.143 211,385.5C 218.82,365.746 215.653,348.079 201.5,332.5 Z"/></g>
<g><path style="opacity:1" fill="#9f6f4b" d="M 438.5,26.5 C 455.846,26.0038 471.679,30.6705 486,40.5C 488.506,45.6593 487.006,49.1593 481.5,51C 479.167,51.6667 476.833,51.6667 474.5,51C 470.12,46.952 465.454,43.2853 460.5,40C 443.528,36.2356 431.028,42.0689 423,57.5C 412.603,63.5567 401.437,65.7234 389.5,64C 399.617,51.5459 411.283,40.8793 424.5,32C 429.159,29.8421 433.825,28.0088 438.5,26.5 Z"/></g>
<g><path style="opacity:1" fill="#f8c688" d="M 446.5,160.5 C 444.483,161.529 442.483,162.529 440.5,163.5C 438.262,162.463 435.929,162.297 433.5,163C 428.195,167.299 424.028,172.466 421,178.5C 420.333,180.5 420.333,182.5 421,184.5C 429.193,203.046 429.526,221.712 422,240.5C 418.333,247.167 414.667,253.833 411,260.5C 407.74,269.231 406.74,278.231 408,287.5C 409.795,294.554 411.795,301.554 414,308.5C 417.186,320.299 415.519,331.299 409,341.5C 406.79,344.29 403.956,345.123 400.5,344C 397.871,340.668 396.538,336.835 396.5,332.5C 399.012,324.129 401.012,315.629 402.5,307C 400.751,298.415 398.584,289.915 396,281.5C 395.333,273.167 395.333,264.833 396,256.5C 401.491,240.501 402.824,224.167 400,207.5C 397.822,200.932 394.155,199.932 389,204.5C 386.398,214.096 381.065,221.763 373,227.5C 372.297,229.929 372.463,232.262 373.5,234.5C 369.474,236.217 365.474,237.883 361.5,239.5C 357.823,235.684 353.989,235.684 350,239.5C 349.506,241.134 349.34,242.801 349.5,244.5C 345.865,245.114 342.198,245.448 338.5,245.5C 338.141,243.629 337.141,242.129 335.5,241C 328.714,240.777 322.047,239.777 315.5,238C 304.374,233.603 293.374,228.936 282.5,224C 277.079,223.161 271.746,223.494 266.5,225C 264.081,226.509 263.081,228.675 263.5,231.5C 260.365,233.239 257.365,235.239 254.5,237.5C 252.545,236.677 250.545,236.51 248.5,237C 246.354,237.479 245.354,238.812 245.5,241C 253.208,264.792 261.708,288.292 271,311.5C 277.073,330.756 275.073,349.09 265,366.5C 252.856,379.639 241.856,393.639 232,408.5C 230.438,410.957 229.438,413.624 229,416.5C 227.356,426.008 228.689,435.008 233,443.5C 238.333,448.167 243.667,452.833 249,457.5C 252.487,461.225 252.32,464.725 248.5,468C 241.392,468.924 234.392,468.591 227.5,467C 223.388,462.609 219.888,457.776 217,452.5C 212.489,448.999 209.156,444.666 207,439.5C 206.333,431.833 206.333,424.167 207,416.5C 211.508,409.487 215.508,402.153 219,394.5C 226.535,377.424 227.369,360.09 221.5,342.5C 223.487,334.892 224.987,327.225 226,319.5C 224.867,317.789 223.367,317.289 221.5,318C 218.688,321.812 216.021,325.646 213.5,329.5C 210.5,325.833 207.167,322.5 203.5,319.5C 206.623,311.253 210.79,303.586 216,296.5C 216.711,294.633 216.211,293.133 214.5,292C 211.901,291.231 209.401,291.398 207,292.5C 202.807,299.563 198.641,306.563 194.5,313.5C 185.547,308.524 176.214,304.358 166.5,301C 161.167,300.333 155.833,300.333 150.5,301C 147.959,302.848 146.959,305.348 147.5,308.5C 142.118,309.627 136.784,310.961 131.5,312.5C 128.078,308.552 124.578,308.552 121,312.5C 120.505,314.473 120.338,316.473 120.5,318.5C 117.378,319.561 114.378,320.895 111.5,322.5C 110.359,320.757 108.692,319.757 106.5,319.5C 97.3646,324.236 88.6979,329.736 80.5,336C 51.4935,362.848 35.4935,396.014 32.5,435.5C 31.8333,441.167 31.1667,446.833 30.5,452.5C 24.6496,436.353 22.4829,419.687 24,402.5C 28.3983,377.043 38.7317,354.376 55,334.5C 67.9661,319.866 81.2995,305.532 95,291.5C 108.052,274.782 120.719,257.782 133,240.5C 147.741,222.416 164.907,207.25 184.5,195C 207.743,180.794 231.743,167.794 256.5,156C 284.663,143.599 313.329,142.265 342.5,152C 357.643,161.38 374.143,166.547 392,167.5C 400.151,167.091 406.818,163.758 412,157.5C 418.255,145.453 417.755,133.619 410.5,122C 422.067,115.235 425.067,105.735 419.5,93.5C 416.329,90.6647 413.496,90.9981 411,94.5C 411.953,98.3972 412.287,102.397 412,106.5C 411.167,108.667 409.667,110.167 407.5,111C 398.819,110.477 390.153,110.643 381.5,111.5C 379.502,110.033 377.836,108.2 376.5,106C 374.305,104.627 371.971,104.294 369.5,105C 366.875,108.866 367.208,112.532 370.5,116C 369.715,118.594 368.382,120.761 366.5,122.5C 360.554,118.098 359.054,112.432 362,105.5C 371.442,95.9001 380.276,85.9001 388.5,75.5C 399.952,75.8091 410.952,73.8091 421.5,69.5C 425.533,82.2294 431.699,93.8961 440,104.5C 442.551,108.935 444.551,113.601 446,118.5C 449.099,132.475 449.266,146.475 446.5,160.5 Z"/></g>
<g><path style="opacity:1" fill="#f5ddc4" d="M 388.5,75.5 C 380.276,85.9001 371.442,95.9001 362,105.5C 359.054,112.432 360.554,118.098 366.5,122.5C 362.364,124.167 358.53,123.5 355,120.5C 353.068,115.861 353.068,111.194 355,106.5C 363.714,95.5749 372.547,84.7415 381.5,74C 384.058,73.7247 386.392,74.2247 388.5,75.5 Z"/></g>
<g><path style="opacity:1" fill="#a5734d" d="M 388.5,84.5 C 396.877,84.2743 398.544,87.441 393.5,94C 389.003,96.6272 386.003,95.4606 384.5,90.5C 384.866,87.7441 386.2,85.7441 388.5,84.5 Z"/></g>
<g><path style="opacity:1" fill="#a4724c" d="M 317.5,160.5 C 324.92,160.536 332.253,161.369 339.5,163C 350.368,167.067 361.368,170.734 372.5,174C 382.211,175.207 391.711,174.374 401,171.5C 402.662,171.388 403.829,172.054 404.5,173.5C 400.794,178.033 396.127,181.199 390.5,183C 379.658,185.322 368.992,184.656 358.5,181C 344.12,173.317 328.786,169.317 312.5,169C 310.789,167.867 310.289,166.367 311,164.5C 313.314,163.267 315.481,161.933 317.5,160.5 Z"/></g>
<g><path style="opacity:1" fill="#edab8d" d="M 446.5,160.5 C 446.482,173.855 442.982,186.189 436,197.5C 434.505,192.347 433.005,187.18 431.5,182C 433.797,177.272 436.963,173.105 441,169.5C 441.678,167.402 441.511,165.402 440.5,163.5C 442.483,162.529 444.483,161.529 446.5,160.5 Z"/></g>
<g><path style="opacity:1" fill="#a5734d" d="M 288.5,163.5 C 291.187,163.336 293.854,163.503 296.5,164C 299.532,168.18 298.532,171.18 293.5,173C 287.021,175.168 284.188,173.001 285,166.5C 286.145,165.364 287.312,164.364 288.5,163.5 Z"/></g>
<g><path style="opacity:1" fill="#a5734d" d="M 264.5,169.5 C 266.665,169.116 268.332,169.783 269.5,171.5C 268.359,173.808 266.692,175.641 264.5,177C 241.321,181.92 221.321,192.586 204.5,209C 197.144,213.253 195.31,211.753 199,204.5C 217.668,186.916 239.501,175.249 264.5,169.5 Z"/></g>
<g><path style="opacity:1" fill="#a3724c" d="M 180.5,220.5 C 181.833,220.5 183.167,220.5 184.5,220.5C 184.251,224.614 182.751,228.28 180,231.5C 163.547,246.147 149.213,262.48 137,280.5C 128.59,290.121 119.423,298.954 109.5,307C 92.409,318.923 75.7424,331.423 59.5,344.5C 58.3373,342.45 58.5039,340.45 60,338.5C 62.6667,335.167 65.3333,331.833 68,328.5C 80.3784,317.731 93.2117,307.565 106.5,298C 119.541,285.708 131.041,272.208 141,257.5C 152.752,243.579 165.918,231.246 180.5,220.5 Z"/></g>
<g><path style="opacity:1" fill="#3e4254" d="M 338.5,245.5 C 338.249,247.17 337.582,248.67 336.5,250C 318.381,250.628 301.714,245.962 286.5,236C 279.897,234.837 273.23,234.17 266.5,234C 265.627,232.955 264.627,232.122 263.5,231.5C 263.081,228.675 264.081,226.509 266.5,225C 271.746,223.494 277.079,223.161 282.5,224C 293.374,228.936 304.374,233.603 315.5,238C 322.047,239.777 328.714,240.777 335.5,241C 337.141,242.129 338.141,243.629 338.5,245.5 Z"/></g>
<g><path style="opacity:1" fill="#f9f1d8" d="M 390.5,232.5 C 375.7,247.428 358.033,257.595 337.5,263C 320.48,264.562 304.813,269.895 290.5,279C 286.5,279.667 282.5,279.667 278.5,279C 273.03,274.848 268.363,270.015 264.5,264.5C 260.775,255.659 257.441,246.659 254.5,237.5C 257.365,235.239 260.365,233.239 263.5,231.5C 264.627,232.122 265.627,232.955 266.5,234C 273.23,234.17 279.897,234.837 286.5,236C 301.714,245.962 318.381,250.628 336.5,250C 337.582,248.67 338.249,247.17 338.5,245.5C 342.198,245.448 345.865,245.114 349.5,244.5C 352.147,247.99 355.481,248.49 359.5,246C 361.016,244.103 361.683,241.936 361.5,239.5C 365.474,237.883 369.474,236.217 373.5,234.5C 374.577,235.018 375.744,235.352 377,235.5C 382.85,232.991 387.517,228.991 391,223.5C 391.634,226.555 391.468,229.555 390.5,232.5 Z"/></g>
<g><path style="opacity:1" fill="#f1ae8f" d="M 390.5,232.5 C 389.48,240.249 387.98,247.915 386,255.5C 374.431,267.381 360.598,275.547 344.5,280C 332.761,281.026 321.428,283.692 310.5,288C 300.833,294.5 291.167,301 281.5,307.5C 275.046,293.575 269.38,279.242 264.5,264.5C 268.363,270.015 273.03,274.848 278.5,279C 282.5,279.667 286.5,279.667 290.5,279C 304.813,269.895 320.48,264.562 337.5,263C 358.033,257.595 375.7,247.428 390.5,232.5 Z"/></g>
<g><path style="opacity:1" fill="#414455" d="M 361.5,239.5 C 361.683,241.936 361.016,244.103 359.5,246C 355.481,248.49 352.147,247.99 349.5,244.5C 349.34,242.801 349.506,241.134 350,239.5C 353.989,235.684 357.823,235.684 361.5,239.5 Z"/></g>
<g><path style="opacity:1" fill="#a5734d" d="M 224.5,271.5 C 228.323,271.818 230.157,273.818 230,277.5C 228.226,281.973 225.06,283.806 220.5,283C 219.409,280.936 219.242,278.769 220,276.5C 221.707,274.963 223.207,273.296 224.5,271.5 Z"/></g>
<g><path style="opacity:1" fill="#a3724c" d="M 203.5,319.5 C 200.477,317.467 197.477,315.467 194.5,313.5C 198.641,306.563 202.807,299.563 207,292.5C 209.401,291.398 211.901,291.231 214.5,292C 216.211,293.133 216.711,294.633 216,296.5C 210.79,303.586 206.623,311.253 203.5,319.5 Z"/></g>
<g><path style="opacity:1" fill="#f7f0d7" d="M 147.5,308.5 C 148.911,309.908 150.577,310.908 152.5,311.5C 158.883,309.804 164.883,310.47 170.5,313.5C 170.334,317.241 168.334,319.407 164.5,320C 137.075,325.918 111.075,335.585 86.5,349C 82.3431,351.664 78.3431,354.497 74.5,357.5C 77.5633,352.928 81.23,348.761 85.5,345C 92.956,338.882 100.956,333.549 109.5,329C 111.229,327.211 111.896,325.044 111.5,322.5C 114.378,320.895 117.378,319.561 120.5,318.5C 127.103,322.031 130.769,320.031 131.5,312.5C 136.784,310.961 142.118,309.627 147.5,308.5 Z"/></g>
<g><path style="opacity:1" fill="#414556" d="M 131.5,312.5 C 130.769,320.031 127.103,322.031 120.5,318.5C 120.338,316.473 120.505,314.473 121,312.5C 124.578,308.552 128.078,308.552 131.5,312.5 Z"/></g>
<g><path style="opacity:1" fill="#efad8f" d="M 170.5,313.5 C 179.369,316.601 187.702,320.768 195.5,326C 197.899,327.98 199.899,330.147 201.5,332.5C 196.073,332.218 190.74,332.551 185.5,333.5C 184.971,331.417 183.971,329.583 182.5,328C 156.757,330.127 131.757,335.794 107.5,345C 83.7285,354.438 66.8951,370.938 57,394.5C 58.7168,380.165 64.5501,367.832 74.5,357.5C 78.3431,354.497 82.3431,351.664 86.5,349C 111.075,335.585 137.075,325.918 164.5,320C 168.334,319.407 170.334,317.241 170.5,313.5 Z"/></g>
<g><path style="opacity:1" fill="#a2714c" d="M 221.5,342.5 C 219.111,338.068 216.445,333.735 213.5,329.5C 216.021,325.646 218.688,321.812 221.5,318C 223.367,317.289 224.867,317.789 226,319.5C 224.987,327.225 223.487,334.892 221.5,342.5 Z"/></g>
<g><path style="opacity:1" fill="#b79675" d="M 32.5,435.5 C 32.6663,442.175 32.4996,448.842 32,455.5C 31.4867,454.473 30.9867,453.473 30.5,452.5C 31.1667,446.833 31.8333,441.167 32.5,435.5 Z"/></g>
</svg>
