<?xml version="1.0" encoding="UTF-8"?>
<!DOCTYPE svg PUBLIC "-//W3C//DTD SVG 1.1//EN" "http://www.w3.org/Graphics/SVG/1.1/DTD/svg11.dtd">
<svg xmlns="http://www.w3.org/2000/svg" version="1.1" width="512px" height="512px" style="shape-rendering:geometricPrecision; text-rendering:geometricPrecision; image-rendering:optimizeQuality; fill-rule:evenodd; clip-rule:evenodd" xmlns:xlink="http://www.w3.org/1999/xlink">
<g><path style="opacity:1" fill="#3a3f51" d="M 343.5,22.5 C 348.445,34.0094 352.779,45.6761 356.5,57.5C 356.599,60.2372 356.265,62.9039 355.5,65.5C 353.883,66.038 352.216,66.3713 350.5,66.5C 348.887,66.0557 347.72,65.0557 347,63.5C 344.213,51.4705 340.046,39.9705 334.5,29C 321.09,30.0178 308.423,33.5178 296.5,39.5C 291.938,40.7809 287.604,42.6142 283.5,45C 291.438,70.3681 302.438,94.2014 316.5,116.5C 320.237,123.627 324.737,130.294 330,136.5C 330.667,137.833 330.667,139.167 330,140.5C 328.955,141.373 328.122,142.373 327.5,143.5C 326.167,143.5 324.833,143.5 323.5,143.5C 313.542,132.277 305.042,119.944 298,106.5C 289.491,89.153 281.824,71.4863 275,53.5C 264.116,66.1702 251.949,77.3369 238.5,87C 255.86,113.529 278.193,134.696 305.5,150.5C 310.74,153.612 316.407,155.945 322.5,157.5C 328.47,156.752 334.47,156.252 340.5,156C 342.136,152.257 343.47,148.423 344.5,144.5C 346.866,135.31 348.699,125.976 350,116.5C 351.174,114.329 353.007,113.329 355.5,113.5C 358.897,114.258 360.23,116.425 359.5,120C 357.607,133.573 354.607,146.906 350.5,160C 350.667,160.833 350.833,161.667 351,162.5C 357.193,167.567 361.36,173.9 363.5,181.5C 412.58,177.234 449.247,153.734 473.5,111C 471.518,106.853 469.184,103.02 466.5,99.5C 440.505,59.7283 403.839,36.2283 356.5,29C 354.393,27.7365 353.393,25.9032 353.5,23.5C 353.651,20.1504 355.485,18.4837 359,18.5C 413.75,27.2972 454.75,55.6305 482,103.5C 495.027,128.442 501.86,154.942 502.5,183C 501.9,186.436 499.9,188.269 496.5,188.5C 494.629,188.141 493.129,187.141 492,185.5C 491.713,173.535 490.213,161.869 487.5,150.5C 486.042,140.669 483.042,131.336 478.5,122.5C 456.086,157.88 424.419,180.214 383.5,189.5C 377.929,190.897 372.262,191.564 366.5,191.5C 367.08,195.81 367.414,200.143 367.5,204.5C 373.167,205.167 378.833,205.833 384.5,206.5C 385.167,206.5 385.833,206.5 386.5,206.5C 421.745,212.861 453.911,226.528 483,247.5C 483.587,234.815 485.42,222.315 488.5,210C 485.62,207.645 482.286,206.145 478.5,205.5C 471.725,203.078 464.725,201.578 457.5,201C 443.857,199.912 430.19,199.245 416.5,199C 413.595,195.626 413.928,192.626 417.5,190C 423.491,189.501 429.491,189.334 435.5,189.5C 456.795,189.061 477.128,193.061 496.5,201.5C 499.286,201.956 500.619,203.623 500.5,206.5C 495.666,224.839 493.499,243.506 494,262.5C 482.057,276.052 474.057,291.718 470,309.5C 458.507,314.317 448.674,321.484 440.5,331C 438.866,331.494 437.199,331.66 435.5,331.5C 433.221,329.277 432.388,326.611 433,323.5C 436.833,319 441,314.833 445.5,311C 449.952,308.458 453.952,305.458 457.5,302C 454.776,296.037 451.442,290.537 447.5,285.5C 437.929,273.122 426.095,263.456 412,256.5C 410.332,250.507 412.498,248.007 418.5,249C 420.86,250.18 423.193,251.347 425.5,252.5C 441.475,262.309 454.308,275.309 464,291.5C 468.424,280.145 474.258,269.645 481.5,260C 476.159,255.336 470.493,251.169 464.5,247.5C 440.011,232.686 413.677,222.686 385.5,217.5C 379.004,216.222 372.337,215.222 365.5,214.5C 365.073,217.376 364.406,220.209 363.5,223C 392.065,243.262 410.898,270.429 420,304.5C 423.301,317.487 425.801,330.487 427.5,343.5C 427.666,347.514 427.499,351.514 427,355.5C 414.833,367.339 400.333,375.172 383.5,379C 359.591,384.99 336.258,383.324 313.5,374C 294.977,371.951 279.811,378.118 268,392.5C 257.873,409.962 243.873,423.295 226,432.5C 222.501,436.827 219.501,441.494 217,446.5C 214.181,454.775 211.514,463.108 209,471.5C 197.649,493.55 180.815,499.05 158.5,488C 155.064,484.94 154.731,481.607 157.5,478C 164.659,476.173 170.826,472.673 176,467.5C 178.392,463.363 178.892,459.03 177.5,454.5C 166.5,461.333 155.5,468.167 144.5,475C 137.335,478.166 129.835,480 122,480.5C 97.9889,476.299 73.8223,474.799 49.5,476C 46.2222,473.712 45.7222,470.879 48,467.5C 60.0427,457.737 73.876,452.237 89.5,451C 100.891,450.91 112.224,450.243 123.5,449C 133.292,444.27 142.959,439.27 152.5,434C 156.203,430.633 159.536,426.966 162.5,423C 158.818,422.778 155.152,423.111 151.5,424C 145.943,425.366 140.443,426.866 135,428.5C 132.966,428.646 131.299,427.98 130,426.5C 129.333,424.167 129.333,421.833 130,419.5C 140.194,405.314 154.027,397.148 171.5,395C 174.023,389.454 176.689,383.954 179.5,378.5C 162.487,379.103 145.821,382.27 129.5,388C 111.166,398.498 93.1663,409.498 75.5,421C 54.0284,432.625 32.1951,433.792 10,424.5C 9.02185,421.331 9.52185,418.497 11.5,416C 31.8001,410.518 49.8001,400.851 65.5,387C 51.6895,388.449 38.6895,385.782 26.5,379C 21.6667,375.5 17.5,371.333 14,366.5C 13.2937,364.029 13.627,361.695 15,359.5C 44.8818,360.095 71.3818,350.928 94.5,332C 97.1863,330.632 99.853,329.299 102.5,328C 100.038,326.784 97.3713,326.118 94.5,326C 78.7055,325.245 63.2055,327.078 48,331.5C 44.6015,330.935 42.7681,328.935 42.5,325.5C 45.4237,319.055 49.757,313.555 55.5,309C 72.868,293.991 92.868,288.657 115.5,293C 127.273,297.719 138.939,302.719 150.5,308C 164.466,311.261 177.466,308.928 189.5,301C 205.5,292 221.5,283 237.5,274C 239.695,273.591 241.695,274.091 243.5,275.5C 243.5,277.833 243.5,280.167 243.5,282.5C 227.69,291.908 211.69,301.074 195.5,310C 178.864,320.568 161.197,322.901 142.5,317C 132.523,311.511 122.189,306.844 111.5,303C 93.7004,299.6 78.0337,303.933 64.5,316C 78.1744,315.021 91.8411,315.354 105.5,317C 118.481,321.55 131.148,326.884 143.5,333C 157.033,336.79 170.366,336.123 183.5,331C 204.167,319.333 224.833,307.667 245.5,296C 251.502,295.007 253.668,297.507 252,303.5C 231.078,316.046 209.911,328.212 188.5,340C 178.698,344.677 168.365,346.677 157.5,346C 142.682,349.621 128.349,354.621 114.5,361C 101.392,369.57 89.3917,379.57 78.5,391C 65.1881,402.631 50.5214,412.298 34.5,420C 48.8554,420.217 62.1887,416.551 74.5,409C 91.3787,397.141 109.045,386.474 127.5,377C 142.052,371.826 157.052,368.826 172.5,368C 181.947,365.609 190.614,361.609 198.5,356C 217.195,340.31 237.862,327.643 260.5,318C 267.372,313.773 274.205,309.607 281,305.5C 285.051,306.208 286.718,308.541 286,312.5C 275.592,321.294 264.092,328.461 251.5,334C 247.738,339.359 244.904,345.192 243,351.5C 242.667,360.5 242.333,369.5 242,378.5C 240.928,383.383 239.261,388.05 237,392.5C 232.833,396.667 228.667,400.833 224.5,405C 216.337,410.623 207.337,412.623 197.5,411C 190.168,408.459 182.668,406.625 175,405.5C 167.291,405.885 160.124,408.052 153.5,412C 160.447,411.45 167.447,411.45 174.5,412C 184.514,416.009 194.514,420.009 204.5,424C 216.968,424.733 227.968,421.066 237.5,413C 248.448,403.598 256.281,392.098 261,378.5C 262.676,369.089 264.676,359.755 267,350.5C 272.944,337.048 283.111,329.048 297.5,326.5C 299.514,326.437 301.181,327.103 302.5,328.5C 304.113,331.547 303.446,334.047 300.5,336C 287.332,338.166 278.832,345.666 275,358.5C 273.71,363.11 273.376,367.777 274,372.5C 287.551,363.544 302.384,360.377 318.5,363C 351.962,348.242 366.295,322.742 361.5,286.5C 359.287,284.226 356.621,282.726 353.5,282C 345.769,280.603 338.436,281.603 331.5,285C 329.536,286.451 328.203,288.284 327.5,290.5C 321.554,300.972 324.387,308.305 336,312.5C 337.324,319.505 334.49,322.005 327.5,320C 324.471,317.824 321.471,315.657 318.5,313.5C 314.164,305.135 313.497,296.468 316.5,287.5C 303.467,287.984 292.467,283.484 283.5,274C 272.566,273.991 261.9,272.491 251.5,269.5C 246.475,268.155 241.808,265.988 237.5,263C 221.615,251.345 211.115,236.178 206,217.5C 206.377,216.058 207.21,215.058 208.5,214.5C 225.648,215.021 242.482,213.021 259,208.5C 264.089,208.927 265.756,211.594 264,216.5C 263.292,217.381 262.458,218.047 261.5,218.5C 247.781,222.286 233.781,224.453 219.5,225C 221.635,229.609 224.302,233.776 227.5,237.5C 229.371,240.061 231.371,242.561 233.5,245C 261.431,245.038 283.098,233.538 298.5,210.5C 300.333,208.168 301.666,205.502 302.5,202.5C 300.149,198.114 298.815,193.448 298.5,188.5C 268.325,193.144 238.325,192.144 208.5,185.5C 209.327,190.477 209.994,195.477 210.5,200.5C 209.889,202.775 208.555,204.441 206.5,205.5C 203.192,206.026 201.026,204.693 200,201.5C 198.839,195.536 198.006,189.536 197.5,183.5C 191.644,183.146 189.477,180.146 191,174.5C 193.383,172.045 196.049,171.045 199,171.5C 202.636,157.744 204.303,143.744 204,129.5C 215.606,115.949 222.606,100.283 225,82.5C 242.885,71.281 258.218,57.281 271,40.5C 290.741,27.6956 312.408,20.0289 336,17.5C 339.978,16.9816 342.478,18.6483 343.5,22.5 Z"/></g>
<g><path style="opacity:1" fill="#e39e85" d="M 343.5,22.5 C 346.096,23.2653 348.763,23.5987 351.5,23.5C 354.742,34.5826 356.409,45.916 356.5,57.5C 352.779,45.6761 348.445,34.0094 343.5,22.5 Z"/></g>
<g><path style="opacity:1" fill="#f9f1d9" d="M 351.5,23.5 C 352.167,23.5 352.833,23.5 353.5,23.5C 353.393,25.9032 354.393,27.7365 356.5,29C 403.839,36.2283 440.505,59.7283 466.5,99.5C 455.654,124.184 438.32,143.018 414.5,156C 402.49,162.088 389.99,166.921 377,170.5C 374.926,169.928 373.76,168.595 373.5,166.5C 376.796,164.179 380.129,161.846 383.5,159.5C 402.727,145.051 414.894,126.051 420,102.5C 419.292,101.619 418.458,100.953 417.5,100.5C 420.295,89.3689 421.129,78.0355 420,66.5C 416.706,63.6888 413.706,64.0221 411,67.5C 411.108,87.9865 406.608,107.32 397.5,125.5C 390.749,131.749 384.083,138.249 377.5,145C 372.906,148.546 368.073,151.712 363,154.5C 360.695,153.772 359.195,152.272 358.5,150C 361.144,138.294 361.977,126.461 361,114.5C 359.322,112.447 357.489,112.113 355.5,113.5C 353.007,113.329 351.174,114.329 350,116.5C 348.699,125.976 346.866,135.31 344.5,144.5C 338.855,143.866 333.189,143.532 327.5,143.5C 328.122,142.373 328.955,141.373 330,140.5C 330.667,139.167 330.667,137.833 330,136.5C 324.737,130.294 320.237,123.627 316.5,116.5C 308.422,91.1858 301.755,65.5192 296.5,39.5C 308.423,33.5178 321.09,30.0178 334.5,29C 340.046,39.9705 344.213,51.4705 347,63.5C 347.72,65.0557 348.887,66.0557 350.5,66.5C 352.756,69.3053 354.423,68.972 355.5,65.5C 356.265,62.9039 356.599,60.2372 356.5,57.5C 356.409,45.916 354.742,34.5826 351.5,23.5 Z"/></g>
<g><path style="opacity:1" fill="#e49c83" d="M 296.5,39.5 C 301.755,65.5192 308.422,91.1858 316.5,116.5C 302.438,94.2014 291.438,70.3681 283.5,45C 287.604,42.6142 291.938,40.7809 296.5,39.5 Z"/></g>
<g><path style="opacity:1" fill="#f8f1d8" d="M 323.5,143.5 C 317.429,145.417 311.429,147.75 305.5,150.5C 278.193,134.696 255.86,113.529 238.5,87C 251.949,77.3369 264.116,66.1702 275,53.5C 281.824,71.4863 289.491,89.153 298,106.5C 305.042,119.944 313.542,132.277 323.5,143.5 Z"/></g>
<g><path style="opacity:1" fill="#3c4053" d="M 417.5,100.5 C 412.595,123.989 401.262,143.656 383.5,159.5C 380.129,161.846 376.796,164.179 373.5,166.5C 368.224,165.707 366.391,162.707 368,157.5C 380.815,149.521 390.648,138.854 397.5,125.5C 406.608,107.32 411.108,87.9865 411,67.5C 413.706,64.0221 416.706,63.6888 420,66.5C 421.129,78.0355 420.295,89.3689 417.5,100.5 Z"/></g>
<g><path style="opacity:1" fill="#e39d83" d="M 355.5,65.5 C 354.423,68.972 352.756,69.3053 350.5,66.5C 352.216,66.3713 353.883,66.038 355.5,65.5 Z"/></g>
<g><path style="opacity:1" fill="#dba48d" d="M 357.5,85.5 C 355.833,85.5 354.167,85.5 352.5,85.5C 354.167,82.8333 355.833,82.8333 357.5,85.5 Z"/></g>
<g><path style="opacity:1" fill="#3c4153" d="M 352.5,85.5 C 354.167,85.5 355.833,85.5 357.5,85.5C 358.458,85.9528 359.292,86.6195 360,87.5C 360.736,90.592 360.569,93.592 359.5,96.5C 357.621,97.3414 355.621,97.6747 353.5,97.5C 349.975,93.8096 349.641,89.8096 352.5,85.5 Z"/></g>
<g><path style="opacity:1" fill="#d59b86" d="M 359.5,96.5 C 359.592,100.071 357.926,101.238 354.5,100C 353.748,99.3292 353.414,98.4959 353.5,97.5C 355.621,97.6747 357.621,97.3414 359.5,96.5 Z"/></g>
<g><path style="opacity:1" fill="#e49b83" d="M 288.5,179.5 C 288.521,173.126 290.521,167.46 294.5,162.5C 267.431,153.081 244.765,137.415 226.5,115.5C 228.639,109.748 230.973,104.081 233.5,98.5C 248.687,119.854 267.021,138.021 288.5,153C 295.342,156.922 302.342,160.588 309.5,164C 305.066,167.708 301.733,172.208 299.5,177.5C 295.972,178.921 292.306,179.588 288.5,179.5 Z"/></g>
<g><path style="opacity:1" fill="#dd9b83" d="M 417.5,100.5 C 418.458,100.953 419.292,101.619 420,102.5C 414.894,126.051 402.727,145.051 383.5,159.5C 401.262,143.656 412.595,123.989 417.5,100.5 Z"/></g>
<g><path style="opacity:1" fill="#e39b82" d="M 466.5,99.5 C 469.184,103.02 471.518,106.853 473.5,111C 449.247,153.734 412.58,177.234 363.5,181.5C 361.36,173.9 357.193,167.567 351,162.5C 350.833,161.667 350.667,160.833 350.5,160C 354.607,146.906 357.607,133.573 359.5,120C 360.23,116.425 358.897,114.258 355.5,113.5C 357.489,112.113 359.322,112.447 361,114.5C 361.977,126.461 361.144,138.294 358.5,150C 359.195,152.272 360.695,153.772 363,154.5C 368.073,151.712 372.906,148.546 377.5,145C 384.083,138.249 390.749,131.749 397.5,125.5C 390.648,138.854 380.815,149.521 368,157.5C 366.391,162.707 368.224,165.707 373.5,166.5C 373.76,168.595 374.926,169.928 377,170.5C 389.99,166.921 402.49,162.088 414.5,156C 438.32,143.018 455.654,124.184 466.5,99.5 Z"/></g>
<g><path style="opacity:1" fill="#f7efd7" d="M 226.5,115.5 C 244.765,137.415 267.431,153.081 294.5,162.5C 290.521,167.46 288.521,173.126 288.5,179.5C 262.096,182.678 235.762,181.345 209.5,175.5C 210.597,169.66 211.931,163.994 213.5,158.5C 226.178,165.919 239.844,169.086 254.5,168C 255.056,167.617 255.389,167.117 255.5,166.5C 262.687,168.408 270.02,168.908 277.5,168C 280.405,164.626 280.072,161.626 276.5,159C 252.717,158.271 232.383,149.605 215.5,133C 219.803,127.56 223.469,121.727 226.5,115.5 Z"/></g>
<g><path style="opacity:1" fill="#f8f1d8" d="M 487.5,150.5 C 487.674,163.928 486.674,177.262 484.5,190.5C 468.108,186.941 451.775,186.608 435.5,189.5C 429.491,189.334 423.491,189.501 417.5,190C 413.928,192.626 413.595,195.626 416.5,199C 430.19,199.245 443.857,199.912 457.5,201C 464.725,201.578 471.725,203.078 478.5,205.5C 474.311,213.732 471.311,222.399 469.5,231.5C 443.902,216.508 416.235,208.175 386.5,206.5C 385.833,206.5 385.167,206.5 384.5,206.5C 384.468,200.811 384.134,195.145 383.5,189.5C 424.419,180.214 456.086,157.88 478.5,122.5C 483.042,131.336 486.042,140.669 487.5,150.5 Z"/></g>
<g><path style="opacity:1" fill="#e29b83" d="M 323.5,143.5 C 324.833,143.5 326.167,143.5 327.5,143.5C 333.189,143.532 338.855,143.866 344.5,144.5C 343.47,148.423 342.136,152.257 340.5,156C 334.47,156.252 328.47,156.752 322.5,157.5C 316.407,155.945 310.74,153.612 305.5,150.5C 311.429,147.75 317.429,145.417 323.5,143.5 Z"/></g>
<g><path style="opacity:1" fill="#e39b83" d="M 255.5,166.5 C 255.389,167.117 255.056,167.617 254.5,168C 239.844,169.086 226.178,165.919 213.5,158.5C 213.176,154.445 213.509,150.445 214.5,146.5C 226.706,156.103 240.373,162.77 255.5,166.5 Z"/></g>
<g><path style="opacity:1" fill="#df9b84" d="M 487.5,150.5 C 490.213,161.869 491.713,173.535 492,185.5C 493.129,187.141 494.629,188.141 496.5,188.5C 496.5,192.833 496.5,197.167 496.5,201.5C 477.128,193.061 456.795,189.061 435.5,189.5C 451.775,186.608 468.108,186.941 484.5,190.5C 486.674,177.262 487.674,163.928 487.5,150.5 Z"/></g>
<g><path style="opacity:1" fill="#f7f0d7" d="M 269.5,262.5 C 290.687,254.976 304.353,240.309 310.5,218.5C 315.131,217.338 319.798,217.172 324.5,218C 328.963,223.114 333.296,228.281 337.5,233.5C 340.093,231.929 341.093,229.596 340.5,226.5C 342.571,225.428 343.905,223.761 344.5,221.5C 342.762,217.026 340.762,212.692 338.5,208.5C 340.063,203.348 339.73,198.348 337.5,193.5C 338.376,190.201 338.543,186.868 338,183.5C 335,180.833 332,180.833 329,183.5C 328.507,193.668 323.341,198.501 313.5,198C 311.652,196.482 310.152,194.649 309,192.5C 308.41,173.762 317.577,165.262 336.5,167C 341.405,168.232 345.572,170.732 349,174.5C 356.061,185.15 358.394,196.817 356,209.5C 352.779,233.725 339.613,249.891 316.5,258C 301.044,263.279 285.378,264.779 269.5,262.5 Z"/></g>
<g><path style="opacity:1" fill="#e59c83" d="M 298.5,210.5 C 295.271,205.721 292.271,200.721 289.5,195.5C 278.467,199.062 267.134,201.228 255.5,202C 240.457,202.721 225.457,202.221 210.5,200.5C 209.994,195.477 209.327,190.477 208.5,185.5C 238.325,192.144 268.325,193.144 298.5,188.5C 298.815,193.448 300.149,198.114 302.5,202.5C 301.666,205.502 300.333,208.168 298.5,210.5 Z"/></g>
<g><path style="opacity:1" fill="#e29b83" d="M 383.5,189.5 C 384.134,195.145 384.468,200.811 384.5,206.5C 378.833,205.833 373.167,205.167 367.5,204.5C 367.414,200.143 367.08,195.81 366.5,191.5C 372.262,191.564 377.929,190.897 383.5,189.5 Z"/></g>
<g><path style="opacity:1" fill="#de9b83" d="M 337.5,193.5 C 339.73,198.348 340.063,203.348 338.5,208.5C 336.552,206.211 334.552,203.878 332.5,201.5C 334.705,199.072 336.372,196.405 337.5,193.5 Z"/></g>
<g><path style="opacity:1" fill="#f8f0d8" d="M 298.5,210.5 C 283.098,233.538 261.431,245.038 233.5,245C 231.371,242.561 229.371,240.061 227.5,237.5C 227.47,236.503 227.97,235.836 229,235.5C 239.87,232.27 250.036,227.603 259.5,221.5C 260.425,220.643 261.092,219.643 261.5,218.5C 262.458,218.047 263.292,217.381 264,216.5C 265.756,211.594 264.089,208.927 259,208.5C 242.482,213.021 225.648,215.021 208.5,214.5C 207.677,211.539 207.01,208.539 206.5,205.5C 208.555,204.441 209.889,202.775 210.5,200.5C 225.457,202.221 240.457,202.721 255.5,202C 267.134,201.228 278.467,199.062 289.5,195.5C 292.271,200.721 295.271,205.721 298.5,210.5 Z"/></g>
<g><path style="opacity:1" fill="#e39b83" d="M 478.5,205.5 C 482.286,206.145 485.62,207.645 488.5,210C 485.42,222.315 483.587,234.815 483,247.5C 453.911,226.528 421.745,212.861 386.5,206.5C 416.235,208.175 443.902,216.508 469.5,231.5C 471.311,222.399 474.311,213.732 478.5,205.5 Z"/></g>
<g><path style="opacity:1" fill="#e39b82" d="M 340.5,226.5 C 341.093,229.596 340.093,231.929 337.5,233.5C 333.296,228.281 328.963,223.114 324.5,218C 319.798,217.172 315.131,217.338 310.5,218.5C 304.353,240.309 290.687,254.976 269.5,262.5C 260.81,262.162 252.81,259.662 245.5,255C 274.896,249.993 296.896,234.659 311.5,209C 315.904,208.538 320.238,208.205 324.5,208C 329.136,212.771 332.636,218.271 335,224.5C 336.444,226.155 338.278,226.822 340.5,226.5 Z"/></g>
<g><path style="opacity:1" fill="#f8f0d7" d="M 385.5,217.5 C 413.677,222.686 440.011,232.686 464.5,247.5C 461.12,254.262 458.287,261.262 456,268.5C 448.997,261.833 441.164,256.333 432.5,252C 430.115,251.444 427.782,251.61 425.5,252.5C 423.193,251.347 420.86,250.18 418.5,249C 412.498,248.007 410.332,250.507 412,256.5C 426.095,263.456 437.929,273.122 447.5,285.5C 439.091,287.288 431.924,291.288 426,297.5C 415.657,272.828 400.324,251.828 380,234.5C 380.974,228.913 381.807,223.247 382.5,217.5C 383.5,217.5 384.5,217.5 385.5,217.5 Z"/></g>
<g><path style="opacity:1" fill="#e29b82" d="M 261.5,218.5 C 261.092,219.643 260.425,220.643 259.5,221.5C 250.036,227.603 239.87,232.27 229,235.5C 227.97,235.836 227.47,236.503 227.5,237.5C 224.302,233.776 221.635,229.609 219.5,225C 233.781,224.453 247.781,222.286 261.5,218.5 Z"/></g>
<g><path style="opacity:1" fill="#e29a82" d="M 373.5,244.5 C 370.489,249.195 367.489,253.862 364.5,258.5C 361.309,253.297 357.976,248.13 354.5,243C 356.2,239.768 358.034,236.601 360,233.5C 364.846,236.827 369.346,240.493 373.5,244.5 Z"/></g>
<g><path style="opacity:1" fill="#f7f0d8" d="M 373.5,244.5 C 388.665,259.465 399.832,277.132 407,297.5C 409.768,304.966 411.602,312.633 412.5,320.5C 408.84,325.157 404.507,329.157 399.5,332.5C 397.801,322.24 394.801,312.407 390.5,303C 389.207,302.51 387.873,302.343 386.5,302.5C 386.5,306.5 386.5,310.5 386.5,314.5C 384.097,314.393 382.264,315.393 381,317.5C 380.804,325.042 379.638,332.375 377.5,339.5C 372.5,339.5 367.5,339.5 362.5,339.5C 369.64,326.811 372.973,313.144 372.5,298.5C 372.624,284.572 369.958,271.239 364.5,258.5C 367.489,253.862 370.489,249.195 373.5,244.5 Z"/></g>
<g><path style="opacity:1" fill="#e49b83" d="M 385.5,217.5 C 384.5,217.5 383.5,217.5 382.5,217.5C 381.807,223.247 380.974,228.913 380,234.5C 400.324,251.828 415.657,272.828 426,297.5C 431.924,291.288 439.091,287.288 447.5,285.5C 451.442,290.537 454.776,296.037 457.5,302C 453.952,305.458 449.952,308.458 445.5,311C 441,314.833 436.833,319 433,323.5C 432.388,326.611 433.221,329.277 435.5,331.5C 432.35,335.119 429.684,339.119 427.5,343.5C 425.801,330.487 423.301,317.487 420,304.5C 410.898,270.429 392.065,243.262 363.5,223C 364.406,220.209 365.073,217.376 365.5,214.5C 372.337,215.222 379.004,216.222 385.5,217.5 Z"/></g>
<g><path style="opacity:1" fill="#e39b82" d="M 464.5,247.5 C 470.493,251.169 476.159,255.336 481.5,260C 474.258,269.645 468.424,280.145 464,291.5C 454.308,275.309 441.475,262.309 425.5,252.5C 427.782,251.61 430.115,251.444 432.5,252C 441.164,256.333 448.997,261.833 456,268.5C 458.287,261.262 461.12,254.262 464.5,247.5 Z"/></g>
<g><path style="opacity:1" fill="#e19981" d="M 346.5,251.5 C 352.009,257.173 356.009,263.84 358.5,271.5C 345.993,268.948 333.993,270.781 322.5,277C 313.937,278.57 305.937,277.236 298.5,273C 316.701,270.393 332.701,263.226 346.5,251.5 Z"/></g>
<g><path style="opacity:1" fill="#d1445d" d="M 251.5,269.5 C 261.9,272.491 272.566,273.991 283.5,274C 292.467,283.484 303.467,287.984 316.5,287.5C 313.497,296.468 314.164,305.135 318.5,313.5C 312.106,309.381 309.106,303.381 309.5,295.5C 296.926,296.023 285.593,292.523 275.5,285C 264.759,284.861 254.092,284.028 243.5,282.5C 243.5,280.167 243.5,277.833 243.5,275.5C 246.533,273.984 249.2,271.984 251.5,269.5 Z"/></g>
<g><path style="opacity:1" fill="#d2445d" d="M 302.5,328.5 C 307.844,328.334 313.177,328.501 318.5,329C 325.202,330.79 331.702,332.956 338,335.5C 343.384,334.462 347.384,331.462 350,326.5C 356.175,316.494 358.175,305.827 356,294.5C 347.735,285.208 338.235,283.875 327.5,290.5C 328.203,288.284 329.536,286.451 331.5,285C 338.436,281.603 345.769,280.603 353.5,282C 356.621,282.726 359.287,284.226 361.5,286.5C 366.295,322.742 351.962,348.242 318.5,363C 302.384,360.377 287.551,363.544 274,372.5C 273.376,367.777 273.71,363.11 275,358.5C 278.832,345.666 287.332,338.166 300.5,336C 303.446,334.047 304.113,331.547 302.5,328.5 Z"/></g>
<g><path style="opacity:1" fill="#f67594" d="M 243.5,282.5 C 254.092,284.028 264.759,284.861 275.5,285C 285.593,292.523 296.926,296.023 309.5,295.5C 309.106,303.381 312.106,309.381 318.5,313.5C 321.471,315.657 324.471,317.824 327.5,320C 334.49,322.005 337.324,319.505 336,312.5C 324.387,308.305 321.554,300.972 327.5,290.5C 338.235,283.875 347.735,285.208 356,294.5C 358.175,305.827 356.175,316.494 350,326.5C 347.384,331.462 343.384,334.462 338,335.5C 331.702,332.956 325.202,330.79 318.5,329C 313.177,328.501 307.844,328.334 302.5,328.5C 301.181,327.103 299.514,326.437 297.5,326.5C 283.111,329.048 272.944,337.048 267,350.5C 264.676,359.755 262.676,369.089 261,378.5C 256.281,392.098 248.448,403.598 237.5,413C 227.968,421.066 216.968,424.733 204.5,424C 194.514,420.009 184.514,416.009 174.5,412C 167.447,411.45 160.447,411.45 153.5,412C 160.124,408.052 167.291,405.885 175,405.5C 182.668,406.625 190.168,408.459 197.5,411C 207.337,412.623 216.337,410.623 224.5,405C 228.667,400.833 232.833,396.667 237,392.5C 239.261,388.05 240.928,383.383 242,378.5C 242.333,369.5 242.667,360.5 243,351.5C 244.904,345.192 247.738,339.359 251.5,334C 264.092,328.461 275.592,321.294 286,312.5C 286.718,308.541 285.051,306.208 281,305.5C 274.205,309.607 267.372,313.773 260.5,318C 237.862,327.643 217.195,340.31 198.5,356C 190.614,361.609 181.947,365.609 172.5,368C 157.052,368.826 142.052,371.826 127.5,377C 109.045,386.474 91.3787,397.141 74.5,409C 62.1887,416.551 48.8554,420.217 34.5,420C 50.5214,412.298 65.1881,402.631 78.5,391C 89.3917,379.57 101.392,369.57 114.5,361C 128.349,354.621 142.682,349.621 157.5,346C 168.365,346.677 178.698,344.677 188.5,340C 209.911,328.212 231.078,316.046 252,303.5C 253.668,297.507 251.502,295.007 245.5,296C 224.833,307.667 204.167,319.333 183.5,331C 170.366,336.123 157.033,336.79 143.5,333C 131.148,326.884 118.481,321.55 105.5,317C 91.8411,315.354 78.1744,315.021 64.5,316C 78.0337,303.933 93.7004,299.6 111.5,303C 122.189,306.844 132.523,311.511 142.5,317C 161.197,322.901 178.864,320.568 195.5,310C 211.69,301.074 227.69,291.908 243.5,282.5 Z"/></g>
<g><path style="opacity:1" fill="#d4455e" d="M 337.5,294.5 C 345.328,293.493 348.494,296.826 347,304.5C 342.864,309.719 338.864,309.719 335,304.5C 333.861,300.579 334.695,297.246 337.5,294.5 Z"/></g>
<g><path style="opacity:1" fill="#e39a82" d="M 412.5,320.5 C 415.603,330.492 416.77,340.825 416,351.5C 403.76,361.373 389.926,367.539 374.5,370C 385.947,354.055 391.114,336.222 390,316.5C 388.887,315.695 387.721,315.028 386.5,314.5C 386.5,310.5 386.5,306.5 386.5,302.5C 387.873,302.343 389.207,302.51 390.5,303C 394.801,312.407 397.801,322.24 399.5,332.5C 404.507,329.157 408.84,325.157 412.5,320.5 Z"/></g>
<g><path style="opacity:1" fill="#e49b82" d="M 362.5,339.5 C 367.5,339.5 372.5,339.5 377.5,339.5C 374.649,351.518 368.982,362.018 360.5,371C 350.571,372.182 340.904,371.182 331.5,368C 344.234,361.099 354.567,351.599 362.5,339.5 Z"/></g>
</svg>
