<?xml version="1.0" encoding="UTF-8"?>
<!DOCTYPE svg PUBLIC "-//W3C//DTD SVG 1.1//EN" "http://www.w3.org/Graphics/SVG/1.1/DTD/svg11.dtd">
<svg xmlns="http://www.w3.org/2000/svg" version="1.1" width="512px" height="512px" style="shape-rendering:geometricPrecision; text-rendering:geometricPrecision; image-rendering:optimizeQuality; fill-rule:evenodd; clip-rule:evenodd" xmlns:xlink="http://www.w3.org/1999/xlink">
<g><path style="opacity:1" fill="#393e51" d="M 301.5,95.5 C 298.695,92.7544 297.861,89.4211 299,85.5C 301.527,80.4469 304.027,75.4469 306.5,70.5C 308.701,67.9786 311.034,65.4786 313.5,63C 310.57,59.9021 308.236,56.4021 306.5,52.5C 303.757,54.2393 301.757,56.5726 300.5,59.5C 296.858,64.0974 293.692,69.0974 291,74.5C 287.594,81.8836 285.094,89.5503 283.5,97.5C 289.219,98.68 294.886,100.013 300.5,101.5C 309.781,107.15 318.781,113.316 327.5,120C 337.293,130.082 344.127,141.915 348,155.5C 348.869,164.324 350.536,172.99 353,181.5C 353.499,185.152 353.665,188.818 353.5,192.5C 353.267,197.894 352.601,203.227 351.5,208.5C 360.383,210.803 369.383,212.636 378.5,214C 388.675,214.825 398.675,214.658 408.5,213.5C 411.91,213.543 415.243,213.043 418.5,212C 415.397,209.194 413.73,205.694 413.5,201.5C 411.5,201.5 409.5,201.5 407.5,201.5C 392.755,204.386 378.089,204.052 363.5,200.5C 362.117,198.68 361.117,196.68 360.5,194.5C 361.587,191.535 363.754,190.201 367,190.5C 382.656,193.553 398.156,193.053 413.5,189C 413.61,176.916 413.777,164.749 414,152.5C 418.65,125.182 434.817,111.682 462.5,112C 467.115,113.077 468.615,115.91 467,120.5C 457.032,129.128 450.365,139.795 447,152.5C 446.333,157.167 446.333,161.833 447,166.5C 450.081,163.707 453.581,161.54 457.5,160C 469.665,158.085 479.998,152.752 488.5,144C 495.52,142.017 498.52,144.683 497.5,152C 495.929,172.812 486.596,189.145 469.5,201C 454.791,209.348 439.458,216.348 423.5,222C 397.891,227.559 372.724,226.059 348,217.5C 342.667,225.5 336,232.167 328,237.5C 323.831,247.076 323.331,256.909 326.5,267C 324.58,272.741 321.08,273.908 316,270.5C 313.988,262.31 312.988,253.977 313,245.5C 307.833,250.832 304.5,257.165 303,264.5C 302.688,273.18 302.688,281.847 303,290.5C 296.909,294.213 293.242,292.546 292,285.5C 291.36,281.517 290.86,277.517 290.5,273.5C 291.244,268.142 291.744,262.809 292,257.5C 288.803,258.309 285.637,259.309 282.5,260.5C 276.482,277.647 274.315,295.314 276,313.5C 276.736,323.987 278.403,334.32 281,344.5C 293.979,361.753 294.812,379.587 283.5,398C 269.017,406.506 258.517,403.006 252,387.5C 250.844,383.877 249.844,380.211 249,376.5C 248.616,367.483 248.616,358.483 249,349.5C 239.632,332.695 235.299,314.695 236,295.5C 237.271,294.117 238.771,293.117 240.5,292.5C 243.229,293.389 245.229,295.223 246.5,298C 253.806,299.785 259.972,297.952 265,292.5C 265.48,284.833 266.647,277.333 268.5,270C 258.802,274.352 249.469,279.519 240.5,285.5C 228.194,291.987 215.86,298.487 203.5,305C 178.257,324.792 170.757,349.958 181,380.5C 182.5,383.5 184,386.5 185.5,389.5C 194.504,394.557 204.171,397.723 214.5,399C 224.557,399.486 234.557,399.153 244.5,398C 257.014,399.516 264.847,406.349 268,418.5C 268.717,426.912 268.217,435.245 266.5,443.5C 276.81,445.096 280.977,451.096 279,461.5C 276.445,467.37 271.945,470.703 265.5,471.5C 261.701,494.474 248.367,503.974 225.5,500C 206.864,492.352 190.198,481.686 175.5,468C 169.998,464.415 164.331,461.081 158.5,458C 139.195,459.51 121.862,454.51 106.5,443C 61.097,407.495 42.2637,360.995 50,303.5C 60.0396,244.715 88.873,197.715 136.5,162.5C 144.933,157.248 153.267,151.748 161.5,146C 153.296,144.073 144.962,143.406 136.5,144C 129.533,147.714 126.2,153.547 126.5,161.5C 121.212,164.842 115.546,165.342 109.5,163C 99.5,162.333 89.5,162.333 79.5,163C 70.6799,179.244 57.0132,186.244 38.5,184C 28.4148,182.553 20.5815,177.72 15,169.5C 11.7245,160.721 13.5579,153.221 20.5,147C 29.3707,141.732 38.3707,136.732 47.5,132C 58.482,127.95 69.6487,127.117 81,129.5C 93.4667,128.362 105.967,128.196 118.5,129C 131.081,131.319 143.748,132.986 156.5,134C 170.789,136.574 184.122,134.24 196.5,127C 188.246,125.124 181.079,121.291 175,115.5C 174.004,108.834 176.837,106.334 183.5,108C 187.459,111.659 192.126,113.992 197.5,115C 203.5,115.667 209.5,115.667 215.5,115C 215.833,114.667 216.167,114.333 216.5,114C 213.059,112.224 209.892,110.057 207,107.5C 205.671,101.166 208.171,98.3325 214.5,99C 225.204,108.006 236.204,108.673 247.5,101C 255.36,97.0941 263.693,95.0941 272.5,95C 276.819,76.5297 284.985,60.0297 297,45.5C 306.273,37.56 316.106,30.3933 326.5,24C 344.848,11.5304 364.848,7.53041 386.5,12C 392.067,13.7834 397.401,16.1167 402.5,19C 406.092,21.9707 406.425,25.304 403.5,29C 391.69,31.5691 381.69,37.2358 373.5,46C 369.668,48.7503 365.668,51.2503 361.5,53.5C 367.747,59.0857 375.081,62.2524 383.5,63C 392.982,63.6368 402.315,62.9701 411.5,61C 413.967,61.7963 415.3,63.463 415.5,66C 405.903,86.9694 389.569,95.6361 366.5,92C 351.85,88.0011 339.184,80.6678 328.5,70C 327.271,69.2189 325.938,68.7189 324.5,68.5C 316.819,74.8157 311.319,82.8157 308,92.5C 306.266,94.4506 304.099,95.4506 301.5,95.5 Z"/></g>
<g><path style="opacity:1" fill="#f5acc5" d="M 384.5,73.5 C 388.167,74.1667 391.833,74.8333 395.5,75.5C 381.242,84.8212 366.908,84.6545 352.5,75C 344.778,68.9448 336.778,63.2781 328.5,58C 322.56,58.7261 318.727,56.2261 317,50.5C 316.009,48.5527 315.675,46.5527 316,44.5C 328.919,35.6188 338.585,38.2855 345,52.5C 355.308,64.9965 368.475,71.9965 384.5,73.5 Z"/></g>
<g><path style="opacity:1" fill="#f5758e" d="M 306.5,70.5 C 302.807,67.7948 300.807,64.1281 300.5,59.5C 301.757,56.5726 303.757,54.2393 306.5,52.5C 308.236,56.4021 310.57,59.9021 313.5,63C 311.034,65.4786 308.701,67.9786 306.5,70.5 Z"/></g>
<g><path style="opacity:1" fill="#f4abc3" d="M 300.5,59.5 C 300.807,64.1281 302.807,67.7948 306.5,70.5C 304.027,75.4469 301.527,80.4469 299,85.5C 297.861,89.4211 298.695,92.7544 301.5,95.5C 301.167,97.5 300.833,99.5 300.5,101.5C 294.886,100.013 289.219,98.68 283.5,97.5C 285.094,89.5503 287.594,81.8836 291,74.5C 293.692,69.0974 296.858,64.0974 300.5,59.5 Z"/></g>
<g><path style="opacity:1" fill="#9c768c" d="M 384.5,73.5 C 388.846,73.3343 393.179,73.501 397.5,74C 396.956,74.7172 396.289,75.2172 395.5,75.5C 391.833,74.8333 388.167,74.1667 384.5,73.5 Z"/></g>
<g><path style="opacity:1" fill="#e08888" d="M 308.5,209.5 C 307.784,211.556 307.117,213.723 306.5,216C 294.739,222.607 282.072,225.774 268.5,225.5C 270.618,204.012 263.951,185.845 248.5,171C 241.167,166.333 233.833,161.667 226.5,157C 221.647,153.145 217.147,148.978 213,144.5C 209.65,134.032 213.15,126.866 223.5,123C 228.866,120.767 234.366,118.934 240,117.5C 243.794,119.942 247.627,122.442 251.5,125C 255.09,126.53 258.757,127.864 262.5,129C 271.167,129.667 279.833,129.667 288.5,129C 296.083,127.708 302.75,124.541 308.5,119.5C 327.863,131.572 337.863,148.906 338.5,171.5C 321.368,178.622 311.368,191.289 308.5,209.5 Z"/></g>
<g><path style="opacity:1" fill="#f4abc4" d="M 445.5,124.5 C 446.552,124.351 447.552,124.517 448.5,125C 433.209,145.224 431.375,166.724 443,189.5C 444.124,195.424 442.291,200.258 437.5,204C 435.067,205.632 432.567,207.132 430,208.5C 425.881,205.771 423.381,201.938 422.5,197C 424.238,193.358 425.238,189.525 425.5,185.5C 422.44,171.351 422.94,157.351 427,143.5C 430.687,134.647 436.854,128.314 445.5,124.5 Z"/></g>
<g><path style="opacity:1" fill="#824b75" d="M 226.5,252.5 C 235.444,250.058 242.611,245.058 248,237.5C 246.928,219.951 240.928,204.284 230,190.5C 220.333,182.833 210.667,175.167 201,167.5C 195.523,159.223 193.023,150.223 193.5,140.5C 195.986,139.338 198.486,138.004 201,136.5C 201.432,142.229 203.098,147.562 206,152.5C 209.534,156.369 213.367,159.869 217.5,163C 226.167,168.667 234.833,174.333 243.5,180C 249.923,186.673 254.423,194.507 257,203.5C 257.902,215.877 259.236,228.211 261,240.5C 262.922,246.525 266.422,251.359 271.5,255C 262.331,260.752 252.998,266.252 243.5,271.5C 236.043,266.713 230.376,260.38 226.5,252.5 Z"/></g>
<g><path style="opacity:1" fill="#f4abc4" d="M 88.5,139.5 C 87.9791,143.481 87.6458,147.481 87.5,151.5C 82.4775,151.782 77.4775,151.949 72.5,152C 68.7822,148.211 68.7822,144.545 72.5,141C 77.7674,139.809 83.1007,139.309 88.5,139.5 Z"/></g>
<g><path style="opacity:1" fill="#f97791" d="M 88.5,139.5 C 89.675,139.281 90.675,139.614 91.5,140.5C 90.5741,144.094 90.2408,147.76 90.5,151.5C 89.5,151.5 88.5,151.5 87.5,151.5C 87.6458,147.481 87.9791,143.481 88.5,139.5 Z"/></g>
<g><path style="opacity:1" fill="#f8adc6" d="M 116.5,139.5 C 114.481,143.539 112.481,147.539 110.5,151.5C 107.5,151.5 104.5,151.5 101.5,151.5C 101.241,147.76 101.574,144.094 102.5,140.5C 107.12,139.507 111.786,139.173 116.5,139.5 Z"/></g>
<g><path style="opacity:1" fill="#f7758e" d="M 57.5,139.5 C 58.675,139.281 59.675,139.614 60.5,140.5C 59.4068,144.108 59.2401,147.775 60,151.5C 61.9229,155.258 64.4229,158.591 67.5,161.5C 56.5947,174.436 43.5947,176.936 28.5,169C 24.0618,165.432 23.3951,161.265 26.5,156.5C 36.1571,149.507 46.4905,143.84 57.5,139.5 Z"/></g>
<g><path style="opacity:1" fill="#f0748d" d="M 116.5,139.5 C 119.673,139.401 122.673,140.068 125.5,141.5C 122.276,144.837 120.609,148.837 120.5,153.5C 116.84,153.841 113.507,153.175 110.5,151.5C 112.481,147.539 114.481,143.539 116.5,139.5 Z"/></g>
<g><path style="opacity:1" fill="#df8788" d="M 193.5,140.5 C 193.023,150.223 195.523,159.223 201,167.5C 210.667,175.167 220.333,182.833 230,190.5C 240.928,204.284 246.928,219.951 248,237.5C 242.611,245.058 235.444,250.058 226.5,252.5C 224.399,248.39 222.566,244.056 221,239.5C 218.263,221.032 210.93,204.698 199,190.5C 192.968,184.802 187.301,178.802 182,172.5C 177.021,165.546 175.354,157.879 177,149.5C 182.319,146.092 187.819,143.092 193.5,140.5 Z"/></g>
<g><path style="opacity:1" fill="#f4abc4" d="M 136.5,162.5 C 133.193,161.949 129.86,161.616 126.5,161.5C 126.2,153.547 129.533,147.714 136.5,144C 144.962,143.406 153.296,144.073 161.5,146C 153.267,151.748 144.933,157.248 136.5,162.5 Z"/></g>
<g><path style="opacity:1" fill="#df8888" d="M 217.5,257.5 C 207.556,262.795 197.89,268.462 188.5,274.5C 184.883,265.718 181.716,256.718 179,247.5C 175.343,238.844 170.676,230.844 165,223.5C 156.97,215.136 148.637,207.136 140,199.5C 135.635,192.748 133.969,185.415 135,177.5C 144.902,169.799 155.068,162.466 165.5,155.5C 167.109,167.383 171.943,177.717 180,186.5C 197.354,200.876 207.688,219.209 211,241.5C 212.881,246.983 215.048,252.316 217.5,257.5 Z"/></g>
<g><path style="opacity:1" fill="#df8888" d="M 180.5,282.5 C 172.04,290.287 164.707,298.953 158.5,308.5C 156.832,306.66 155.332,304.66 154,302.5C 147.566,282.445 136.733,265.278 121.5,251C 115.321,246.743 109.321,242.243 103.5,237.5C 98.4993,232.832 95.6659,227.165 95,220.5C 103.203,207.646 113.203,196.979 125,188.5C 126.377,195.919 129.377,202.585 134,208.5C 141,214.833 148,221.167 155,227.5C 159.057,232.558 162.724,237.892 166,243.5C 170.399,256.671 175.233,269.671 180.5,282.5 Z"/></g>
<g><path style="opacity:1" fill="#f5abc4" d="M 353.5,192.5 C 355.772,193.319 358.106,193.985 360.5,194.5C 361.117,196.68 362.117,198.68 363.5,200.5C 378.089,204.052 392.755,204.386 407.5,201.5C 405.147,205.509 405.48,209.509 408.5,213.5C 398.675,214.658 388.675,214.825 378.5,214C 369.383,212.636 360.383,210.803 351.5,208.5C 352.601,203.227 353.267,197.894 353.5,192.5 Z"/></g>
<g><path style="opacity:1" fill="#f3748d" d="M 407.5,201.5 C 409.5,201.5 411.5,201.5 413.5,201.5C 413.73,205.694 415.397,209.194 418.5,212C 415.243,213.043 411.91,213.543 408.5,213.5C 405.48,209.509 405.147,205.509 407.5,201.5 Z"/></g>
<g><path style="opacity:1" fill="#824a75" d="M 308.5,209.5 C 308.451,217.926 308.951,226.259 310,234.5C 303.423,239.875 296.256,244.375 288.5,248C 281.52,249.563 276.02,247.396 272,241.5C 270.512,236.228 269.346,230.895 268.5,225.5C 282.072,225.774 294.739,222.607 306.5,216C 307.117,213.723 307.784,211.556 308.5,209.5 Z"/></g>
<g><path style="opacity:1" fill="#df8888" d="M 154.5,319.5 C 151.474,328.355 149.808,337.355 149.5,346.5C 144.442,344.803 139.775,342.303 135.5,339C 129.403,331.48 123.07,324.147 116.5,317C 110.507,315.332 108.007,317.498 109,323.5C 115.794,331.963 122.961,340.13 130.5,348C 137.197,352.849 144.53,356.349 152.5,358.5C 153.568,365.437 155.568,372.104 158.5,378.5C 152.013,379.654 145.346,379.821 138.5,379C 120.097,371.273 101.097,369.439 81.5,373.5C 77.4305,373.496 73.4305,372.996 69.5,372C 67.7774,371.477 66.444,370.477 65.5,369C 62.653,361.405 60.8197,353.572 60,345.5C 59.3333,332.833 59.3333,320.167 60,307.5C 60.3012,304.02 61.1345,300.687 62.5,297.5C 66.3318,300.25 70.3318,302.75 74.5,305C 80.5017,305.993 82.6683,303.493 81,297.5C 77.5838,295.208 74.0838,293.041 70.5,291C 68.1232,289.024 66.1232,286.857 64.5,284.5C 69.5492,266.072 77.0492,248.739 87,232.5C 93.217,243.051 101.717,251.217 112.5,257C 120.121,263.614 126.621,271.114 132,279.5C 136.527,288.748 140.86,298.082 145,307.5C 147.619,311.95 150.786,315.95 154.5,319.5 Z"/></g>
<g><path style="opacity:1" fill="#824b75" d="M 217.5,257.5 C 221.487,264.998 226.82,271.498 233.5,277C 221.215,282.809 209.215,289.142 197.5,296C 188.606,303.225 180.773,311.392 174,320.5C 168.087,317.415 162.92,313.415 158.5,308.5C 164.707,298.953 172.04,290.287 180.5,282.5C 182.636,284.812 184.636,287.312 186.5,290C 192.167,291.328 194.667,289.161 194,283.5C 191.653,280.806 189.82,277.806 188.5,274.5C 197.89,268.462 207.556,262.795 217.5,257.5 Z"/></g>
<g><path style="opacity:1" fill="#f5acc4" d="M 240.5,292.5 C 240.5,290.167 240.5,287.833 240.5,285.5C 249.469,279.519 258.802,274.352 268.5,270C 266.647,277.333 265.48,284.833 265,292.5C 259.972,297.952 253.806,299.785 246.5,298C 245.229,295.223 243.229,293.389 240.5,292.5 Z"/></g>
<g><path style="opacity:1" fill="#3f4053" d="M 93.5,303.5 C 100.861,303.013 103.528,306.179 101.5,313C 97.9416,315.154 94.7749,314.654 92,311.5C 91.1093,308.502 91.6093,305.836 93.5,303.5 Z"/></g>
<g><path style="opacity:1" fill="#f6758f" d="M 263.5,306.5 C 264.461,308.265 264.795,310.265 264.5,312.5C 259.24,313.921 253.907,314.921 248.5,315.5C 247.549,314.081 247.216,312.415 247.5,310.5C 250.5,309.833 253.5,309.167 256.5,308.5C 258.894,307.985 261.228,307.319 263.5,306.5 Z"/></g>
<g><path style="opacity:1" fill="#9e5a74" d="M 256.5,308.5 C 253.5,309.167 250.5,309.833 247.5,310.5C 246.957,310.44 246.624,310.107 246.5,309.5C 249.768,308.513 253.102,308.18 256.5,308.5 Z"/></g>
<g><path style="opacity:1" fill="#f3aac2" d="M 263.5,306.5 C 263.56,305.957 263.893,305.624 264.5,305.5C 265.663,311.137 265.83,316.804 265,322.5C 261.124,326.844 256.291,328.511 250.5,327.5C 249.624,323.538 248.958,319.538 248.5,315.5C 253.907,314.921 259.24,313.921 264.5,312.5C 264.795,310.265 264.461,308.265 263.5,306.5 Z"/></g>
<g><path style="opacity:1" fill="#824b75" d="M 154.5,319.5 C 159.397,323.89 164.73,327.723 170.5,331C 168.33,337.007 166.663,343.174 165.5,349.5C 159.703,350.715 154.369,349.715 149.5,346.5C 149.808,337.355 151.474,328.355 154.5,319.5 Z"/></g>
<g><path style="opacity:1" fill="#eb728c" d="M 268.5,337.5 C 264.765,339.434 260.765,340.434 256.5,340.5C 256.196,339.85 255.863,339.183 255.5,338.5C 259.223,337.319 262.889,335.986 266.5,334.5C 267.919,335.005 268.585,336.005 268.5,337.5 Z"/></g>
<g><path style="opacity:1" fill="#f1a9c1" d="M 268.5,337.5 C 269.163,340.481 269.83,343.481 270.5,346.5C 269.783,350.525 267.45,352.025 263.5,351C 260.784,347.729 258.451,344.229 256.5,340.5C 260.765,340.434 264.765,339.434 268.5,337.5 Z"/></g>
<g><path style="opacity:1" fill="#f7758e" d="M 275.5,357.5 C 278.215,359.764 279.715,362.764 280,366.5C 281.946,375.62 280.112,383.787 274.5,391C 268.891,392.778 265.057,390.945 263,385.5C 259.726,377.46 258.726,369.126 260,360.5C 263.073,361.617 266.24,361.784 269.5,361C 272.025,360.576 274.025,359.41 275.5,357.5 Z"/></g>
<g><path style="opacity:1" fill="#814a75" d="M 152.5,358.5 C 156.674,360.064 161.007,360.731 165.5,360.5C 166.296,365.816 166.963,371.149 167.5,376.5C 164.5,377.167 161.5,377.833 158.5,378.5C 155.568,372.104 153.568,365.437 152.5,358.5 Z"/></g>
<g><path style="opacity:1" fill="#df8888" d="M 162.5,388.5 C 163.496,388.414 164.329,388.748 165,389.5C 167.119,393.402 168.952,397.402 170.5,401.5C 167.311,403.26 163.978,404.76 160.5,406C 144.747,407.876 131.414,414.543 120.5,426C 116.278,429.111 111.611,430.111 106.5,429C 91.5115,416.185 79.5115,401.019 70.5,383.5C 71,383.167 71.5,382.833 72,382.5C 75.2935,383.106 78.6268,383.439 82,383.5C 89.3435,382.943 96.6768,382.276 104,381.5C 108.545,381.603 113.045,382.103 117.5,383C 125.178,385.337 132.844,387.671 140.5,390C 147.947,390.848 155.28,390.348 162.5,388.5 Z"/></g>
<g><path style="opacity:1" fill="#824b74" d="M 170.5,401.5 C 168.952,397.402 167.119,393.402 165,389.5C 164.329,388.748 163.496,388.414 162.5,388.5C 165.051,387.516 167.718,386.516 170.5,385.5C 172.988,388.466 174.988,391.799 176.5,395.5C 174.812,397.854 172.812,399.854 170.5,401.5 Z"/></g>
<g><path style="opacity:1" fill="#814a75" d="M 189.5,403.5 C 205.63,410.423 222.297,412.09 239.5,408.5C 253.074,409.576 259.241,416.909 258,430.5C 256.722,433.721 255.889,437.054 255.5,440.5C 231.821,436.441 209.988,427.775 190,414.5C 189.501,410.848 189.335,407.182 189.5,403.5 Z"/></g>
<g><path style="opacity:1" fill="#804a73" d="M 177.5,427.5 C 177.652,422.719 176.986,418.052 175.5,413.5C 175.253,412.287 174.586,411.62 173.5,411.5C 175.355,410.31 177.188,408.977 179,407.5C 179.667,413.167 179.667,418.833 179,424.5C 178.768,425.737 178.268,426.737 177.5,427.5 Z"/></g>
<g><path style="opacity:1" fill="#de8788" d="M 173.5,411.5 C 174.586,411.62 175.253,412.287 175.5,413.5C 176.986,418.052 177.652,422.719 177.5,427.5C 174.218,437.28 167.551,443.447 157.5,446C 143.611,448.686 130.944,446.019 119.5,438C 127.756,432.751 135.756,427.085 143.5,421C 153.564,417.938 163.564,414.771 173.5,411.5 Z"/></g>
<g><path style="opacity:1" fill="#dc8687" d="M 194.5,430.5 C 217.385,441.628 241.385,449.461 266.5,454C 268.283,455.067 268.783,456.567 268,458.5C 241.75,460.192 216.75,455.192 193,443.5C 194.062,439.329 194.562,434.996 194.5,430.5 Z"/></g>
<g><path style="opacity:1" fill="#814a75" d="M 175.5,447.5 C 189.816,453.82 204.483,459.32 219.5,464C 231.008,466.897 242.675,468.73 254.5,469.5C 253.046,485.452 244.379,492.285 228.5,490C 222.221,487.527 216.221,484.527 210.5,481C 197.167,471.333 183.833,461.667 170.5,452C 172.24,450.483 173.906,448.983 175.5,447.5 Z"/></g>
</svg>
