<?xml version="1.0" encoding="UTF-8"?>
<!DOCTYPE svg PUBLIC "-//W3C//DTD SVG 1.1//EN" "http://www.w3.org/Graphics/SVG/1.1/DTD/svg11.dtd">
<svg xmlns="http://www.w3.org/2000/svg" version="1.1" width="512px" height="512px" style="shape-rendering:geometricPrecision; text-rendering:geometricPrecision; image-rendering:optimizeQuality; fill-rule:evenodd; clip-rule:evenodd" xmlns:xlink="http://www.w3.org/1999/xlink">
<g><path style="opacity:1" fill="#393e51" d="M 421.5,275.5 C 412.673,276.553 404.673,274.553 397.5,269.5C 392.467,266.44 390.467,262.107 391.5,256.5C 392.559,255.304 393.893,254.637 395.5,254.5C 399.668,257.826 404.001,260.993 408.5,264C 417.833,264.333 427.167,264.667 436.5,265C 451.393,268.594 458.06,278.094 456.5,293.5C 457.822,293.67 458.989,293.337 460,292.5C 469.499,273.98 465.332,259.147 447.5,248C 442.833,246 438.167,244 433.5,242C 428.602,237.592 423.602,233.426 418.5,229.5C 417.483,225.211 419.15,222.878 423.5,222.5C 428.656,224.484 433.156,227.484 437,231.5C 445.203,215.39 450.703,198.39 453.5,180.5C 457.726,162.353 458.559,144.02 456,125.5C 453.402,117.035 452.068,108.368 452,99.5C 449.316,76.2519 437.483,59.7519 416.5,50C 407.48,48.5494 398.813,45.8827 390.5,42C 380.833,41.6667 371.167,41.3333 361.5,41C 349.924,37.1967 338.257,33.6967 326.5,30.5C 322.55,30.761 318.883,31.9277 315.5,34C 311.631,37.5338 308.131,41.3672 305,45.5C 304.551,50.4274 306.718,53.9274 311.5,56C 323.704,61.8858 336.371,66.5525 349.5,70C 351.67,71.5862 354.004,72.9196 356.5,74C 361.5,79.6667 366.5,85.3333 371.5,91C 376.553,95.5311 382.219,96.5311 388.5,94C 393.254,91.9614 397.254,88.9614 400.5,85C 404.337,84.0003 406.337,85.5003 406.5,89.5C 406.305,92.2181 405.305,94.5514 403.5,96.5C 392.941,106.607 381.275,108.107 368.5,101C 364.939,97.9274 361.272,95.0941 357.5,92.5C 355.612,89.1009 353.112,86.1009 350,83.5C 348.55,88.3079 345.384,90.1412 340.5,89C 336.852,85.8967 336.518,82.3967 339.5,78.5C 337.067,76.9462 334.4,76.2796 331.5,76.5C 331.026,82.0759 328.026,84.2426 322.5,83C 318.92,80.0737 318.587,76.7404 321.5,73C 319.254,71.9605 317.087,70.7938 315,69.5C 313.63,74.5667 310.463,76.7334 305.5,76C 301.922,72.5824 301.588,68.7491 304.5,64.5C 302.424,62.7123 300.257,61.0456 298,59.5C 296.685,66.5253 292.852,68.692 286.5,66C 285.892,64.769 285.559,63.4357 285.5,62C 289.128,50.2408 294.962,39.7408 303,30.5C 311.675,21.4987 322.175,18.332 334.5,21C 344.167,24 353.833,27 363.5,30C 372.833,30.3333 382.167,30.6667 391.5,31C 402.727,34.9739 414.06,38.6405 425.5,42C 446.428,53.641 458.594,71.4744 462,95.5C 463.149,106.58 464.816,117.58 467,128.5C 469.5,156.503 466.333,183.836 457.5,210.5C 459.235,213.743 461.568,216.577 464.5,219C 473.9,223.732 481.4,230.566 487,239.5C 492.888,252.632 491.888,265.299 484,277.5C 481.147,279.692 478.314,281.858 475.5,284C 473.982,291.038 470.649,297.038 465.5,302C 458.411,305.849 452.245,304.682 447,298.5C 445.839,293.584 445.173,288.584 445,283.5C 441.954,277.468 436.954,274.468 430,274.5C 427.208,275.216 424.374,275.549 421.5,275.5 Z"/></g>
<g><path style="opacity:1" fill="#f8ae95" d="M 453.5,180.5 C 448.477,194.377 441.477,207.21 432.5,219C 425.34,219.01 418.34,220.01 411.5,222C 410.5,222.833 409.5,223.667 408.5,224.5C 407.41,225.609 407.41,226.609 408.5,227.5C 411.421,226.593 414.421,226.26 417.5,226.5C 417.263,227.791 417.596,228.791 418.5,229.5C 423.602,233.426 428.602,237.592 433.5,242C 438.167,244 442.833,246 447.5,248C 465.332,259.147 469.499,273.98 460,292.5C 458.989,293.337 457.822,293.67 456.5,293.5C 458.06,278.094 451.393,268.594 436.5,265C 427.167,264.667 417.833,264.333 408.5,264C 404.001,260.993 399.668,257.826 395.5,254.5C 393.893,254.637 392.559,255.304 391.5,256.5C 390.467,262.107 392.467,266.44 397.5,269.5C 389.662,285.619 378.996,299.785 365.5,312C 356.252,306.975 346.252,303.808 335.5,302.5C 323.406,297.236 310.74,294.903 297.5,295.5C 314.514,280.312 333.847,268.645 355.5,260.5C 357.606,261.43 359.606,262.596 361.5,264C 366.822,264.34 368.989,261.84 368,256.5C 364.667,252.5 361.333,248.5 358,244.5C 354.667,240.5 351.333,240.5 348,244.5C 347.313,246.92 347.813,249.087 349.5,251C 330.891,258.965 313.558,268.965 297.5,281C 291.663,285.67 286.33,290.837 281.5,296.5C 266.109,298.447 252.943,304.78 242,315.5C 241.5,320.333 243.667,322.5 248.5,322C 266.822,308.063 287.488,302.729 310.5,306C 340.12,311.95 359.287,329.45 368,358.5C 370.297,369.615 369.964,380.615 367,391.5C 365.248,394.672 363.248,397.672 361,400.5C 347.962,410.642 337.795,422.975 330.5,437.5C 333.154,448.323 339.82,455.489 350.5,459C 357.592,459.771 364.259,461.771 370.5,465C 375.87,468.797 377.87,473.797 376.5,480C 371.072,477.973 365.405,476.307 359.5,475C 351.44,474.689 343.44,475.022 335.5,476C 329.532,469.031 323.199,462.364 316.5,456C 310.048,452.358 303.548,448.858 297,445.5C 295.627,443.305 295.294,440.971 296,438.5C 307.543,429.961 314.543,418.627 317,404.5C 318.374,395.363 316.208,387.196 310.5,380C 304.447,379.056 302.28,381.556 304,387.5C 305.411,389.65 306.245,391.984 306.5,394.5C 306.5,395.5 306.5,396.5 306.5,397.5C 300.833,397.5 295.167,397.5 289.5,397.5C 272.011,396.671 257.177,390.004 245,377.5C 242.293,372.584 239.459,367.751 236.5,363C 232.754,361.778 230.087,362.944 228.5,366.5C 203.394,385.585 175.061,393.418 143.5,390C 136.612,392.942 133.779,398.109 135,405.5C 139.81,408.441 143.144,407.107 145,401.5C 174.312,403.546 201.479,396.546 226.5,380.5C 232.492,390.381 231.159,399.214 222.5,407C 199.009,418.205 174.343,425.038 148.5,427.5C 114.898,422.921 85.2316,409.755 59.5,388C 29.5447,354.879 22.7114,317.379 39,275.5C 50.2539,254.266 67.0872,239.1 89.5,230C 90.5,229.333 91.5,229.333 92.5,230C 82.2707,253.303 79.7707,277.47 85,302.5C 97.2464,344.203 124.746,361.369 167.5,354C 187.959,348.362 202.459,335.862 211,316.5C 224.4,264.111 255.567,226.611 304.5,204C 321.236,198.456 337.902,192.79 354.5,187C 363.456,181.214 370.456,173.714 375.5,164.5C 381.109,165.609 384.609,168.942 386,174.5C 390.81,190.738 390.643,206.905 385.5,223C 385.586,227.749 387.92,229.415 392.5,228C 398.291,219.112 400.957,209.278 400.5,198.5C 399.595,186.547 397.262,174.88 393.5,163.5C 399.339,161.247 405.005,158.414 410.5,155C 418.091,148.254 422.258,139.754 423,129.5C 424.556,127.365 426.389,127.032 428.5,128.5C 432.907,132.849 436.574,132.349 439.5,127C 434.225,115.895 425.558,109.061 413.5,106.5C 411.399,106.632 409.899,107.632 409,109.5C 412.808,134.355 402.308,145.521 377.5,143C 368.004,140.92 358.671,138.253 349.5,135C 336.193,133.242 322.86,131.909 309.5,131C 304.199,128.867 300.866,125.033 299.5,119.5C 299.529,117.971 300.196,116.804 301.5,116C 311.174,115.467 320.84,115.634 330.5,116.5C 340.091,117.284 348.258,114.284 355,107.5C 356.958,104.352 356.792,101.352 354.5,98.5C 354.833,98.5 355.167,98.5 355.5,98.5C 366.162,114.691 379.829,117.857 396.5,108C 399.999,104.827 402.333,100.994 403.5,96.5C 405.305,94.5514 406.305,92.2181 406.5,89.5C 406.337,85.5003 404.337,84.0003 400.5,85C 397.254,88.9614 393.254,91.9614 388.5,94C 382.219,96.5311 376.553,95.5311 371.5,91C 366.5,85.3333 361.5,79.6667 356.5,74C 354.004,72.9196 351.67,71.5862 349.5,70C 336.371,66.5525 323.704,61.8858 311.5,56C 306.718,53.9274 304.551,50.4274 305,45.5C 308.131,41.3672 311.631,37.5338 315.5,34C 318.883,31.9277 322.55,30.761 326.5,30.5C 338.257,33.6967 349.924,37.1967 361.5,41C 371.167,41.3333 380.833,41.6667 390.5,42C 398.813,45.8827 407.48,48.5494 416.5,50C 437.483,59.7519 449.316,76.2519 452,99.5C 452.068,108.368 453.402,117.035 456,125.5C 458.559,144.02 457.726,162.353 453.5,180.5 Z"/></g>
<g><path style="opacity:1" fill="#b36866" d="M 320.5,40.5 C 327.251,40.3802 329.251,43.2136 326.5,49C 321.749,51.7245 318.749,50.3912 317.5,45C 318.315,43.3566 319.315,41.8566 320.5,40.5 Z"/></g>
<g><path style="opacity:1" fill="#b46867" d="M 380.5,54.5 C 384.192,53.9712 387.358,54.9712 390,57.5C 391.271,61.1661 390.104,63.6661 386.5,65C 381.31,66.8049 377.976,65.1382 376.5,60C 377.007,57.4547 378.341,55.6214 380.5,54.5 Z"/></g>
<g><path style="opacity:1" fill="#af6464" d="M 357.5,92.5 C 361.272,95.0941 364.939,97.9274 368.5,101C 381.275,108.107 392.941,106.607 403.5,96.5C 402.333,100.994 399.999,104.827 396.5,108C 379.829,117.857 366.162,114.691 355.5,98.5C 356.167,96.5 356.833,94.5 357.5,92.5 Z"/></g>
<g><path style="opacity:1" fill="#393e51" d="M 354.5,98.5 C 356.792,101.352 356.958,104.352 355,107.5C 348.258,114.284 340.091,117.284 330.5,116.5C 320.84,115.634 311.174,115.467 301.5,116C 300.196,116.804 299.529,117.971 299.5,119.5C 300.866,125.033 304.199,128.867 309.5,131C 322.86,131.909 336.193,133.242 349.5,135C 358.671,138.253 368.004,140.92 377.5,143C 402.308,145.521 412.808,134.355 409,109.5C 409.899,107.632 411.399,106.632 413.5,106.5C 425.558,109.061 434.225,115.895 439.5,127C 436.574,132.349 432.907,132.849 428.5,128.5C 426.57,124.734 423.736,121.734 420,119.5C 417.469,144.525 403.636,155.858 378.5,153.5C 377.699,157.235 376.699,160.901 375.5,164.5C 370.456,173.714 363.456,181.214 354.5,187C 337.902,192.79 321.236,198.456 304.5,204C 255.567,226.611 224.4,264.111 211,316.5C 202.459,335.862 187.959,348.362 167.5,354C 124.746,361.369 97.2464,344.203 85,302.5C 79.7707,277.47 82.2707,253.303 92.5,230C 91.5,229.333 90.5,229.333 89.5,230C 67.0872,239.1 50.2539,254.266 39,275.5C 22.7114,317.379 29.5447,354.879 59.5,388C 85.2316,409.755 114.898,422.921 148.5,427.5C 192.261,434.013 235.095,429.68 277,414.5C 279.954,414.955 281.788,416.622 282.5,419.5C 283.035,422.238 282.035,424.072 279.5,425C 265.759,429.935 251.759,433.935 237.5,437C 226.317,446.04 227.984,452.04 242.5,455C 246.615,457.448 250.448,460.281 254,463.5C 258.44,472.235 256.94,479.735 249.5,486C 246.759,486.977 243.925,487.477 241,487.5C 234.493,486.277 227.993,484.944 221.5,483.5C 215.963,484.362 210.463,485.362 205,486.5C 202.409,486.435 199.909,485.935 197.5,485C 189.303,476.469 180.803,468.302 172,460.5C 169.618,454.044 170.118,447.877 173.5,442C 138.303,439.62 105.303,429.953 74.5,413C 29.7628,383.999 12.5961,343.166 23,290.5C 29.6915,262.478 45.5248,241.311 70.5,227C 97.3078,214.037 125.641,207.704 155.5,208C 180.054,205.436 190.221,191.936 186,167.5C 185.324,163.798 184.491,160.131 183.5,156.5C 186.252,149.864 190.085,149.197 195,154.5C 205.614,168.397 211.78,184.064 213.5,201.5C 212.001,219.489 203.668,233.322 188.5,243C 182.954,245.94 177.287,248.606 171.5,251C 154.495,254.219 138.829,260.552 124.5,270C 107.034,286.252 102.201,305.752 110,328.5C 128.13,345.726 148.963,349.893 172.5,341C 183.18,335.988 191.68,328.488 198,318.5C 202.594,307.719 206.594,296.719 210,285.5C 228.024,244.142 257.524,213.976 298.5,195C 314.976,188.73 331.643,183.064 348.5,178C 358.133,171.69 364.8,163.023 368.5,152C 360.559,149.464 352.559,147.131 344.5,145C 331.473,143.808 318.473,142.475 305.5,141C 297.274,137.107 291.441,130.941 288,122.5C 285.621,116.809 283.787,110.975 282.5,105C 285.086,98.7615 288.92,97.9282 294,102.5C 294.333,104.167 294.667,105.833 295,107.5C 297.587,105.804 300.421,104.804 303.5,104.5C 303.469,96.381 306.969,94.381 314,98.5C 314.662,100.813 315.162,103.146 315.5,105.5C 318.833,105.5 322.167,105.5 325.5,105.5C 324.166,97.9999 327.166,95.1666 334.5,97C 335.867,99.672 336.867,102.505 337.5,105.5C 341.464,103.851 345.131,101.684 348.5,99C 350.473,98.5045 352.473,98.3379 354.5,98.5 Z"/></g>
<g><path style="opacity:1" fill="#af6464" d="M 428.5,128.5 C 426.389,127.032 424.556,127.365 423,129.5C 422.258,139.754 418.091,148.254 410.5,155C 405.005,158.414 399.339,161.247 393.5,163.5C 397.262,174.88 399.595,186.547 400.5,198.5C 400.957,209.278 398.291,219.112 392.5,228C 387.92,229.415 385.586,227.749 385.5,223C 390.643,206.905 390.81,190.738 386,174.5C 384.609,168.942 381.109,165.609 375.5,164.5C 376.699,160.901 377.699,157.235 378.5,153.5C 403.636,155.858 417.469,144.525 420,119.5C 423.736,121.734 426.57,124.734 428.5,128.5 Z"/></g>
<g><path style="opacity:1" fill="#ae6464" d="M 453.5,180.5 C 450.703,198.39 445.203,215.39 437,231.5C 433.156,227.484 428.656,224.484 423.5,222.5C 419.15,222.878 417.483,225.211 418.5,229.5C 417.596,228.791 417.263,227.791 417.5,226.5C 414.421,226.26 411.421,226.593 408.5,227.5C 407.41,226.609 407.41,225.609 408.5,224.5C 409.5,223.667 410.5,222.833 411.5,222C 418.34,220.01 425.34,219.01 432.5,219C 441.477,207.21 448.477,194.377 453.5,180.5 Z"/></g>
<g><path style="opacity:1" fill="#b16665" d="M 372.5,232.5 C 377.029,232.496 380.529,234.496 383,238.5C 384.5,245 382,247.5 375.5,246C 373.093,243.262 371.093,240.262 369.5,237C 370.315,235.357 371.315,233.857 372.5,232.5 Z"/></g>
<g><path style="opacity:1" fill="#b06565" d="M 297.5,295.5 C 292.138,295.472 286.805,295.806 281.5,296.5C 286.33,290.837 291.663,285.67 297.5,281C 313.558,268.965 330.891,258.965 349.5,251C 347.813,249.087 347.313,246.92 348,244.5C 351.333,240.5 354.667,240.5 358,244.5C 361.333,248.5 364.667,252.5 368,256.5C 368.989,261.84 366.822,264.34 361.5,264C 359.606,262.596 357.606,261.43 355.5,260.5C 333.847,268.645 314.514,280.312 297.5,295.5 Z"/></g>
<g><path style="opacity:1" fill="#ae6364" d="M 397.5,269.5 C 404.673,274.553 412.673,276.553 421.5,275.5C 420.758,277.98 419.758,280.313 418.5,282.5C 415.577,280.899 412.91,281.232 410.5,283.5C 401.082,298.668 391.915,314.001 383,329.5C 379.909,334.014 376.575,338.347 373,342.5C 364.785,325.008 352.285,311.675 335.5,302.5C 346.252,303.808 356.252,306.975 365.5,312C 378.996,299.785 389.662,285.619 397.5,269.5 Z"/></g>
<g><path style="opacity:1" fill="#3a3f51" d="M 418.5,282.5 C 419.555,285.073 419.722,287.739 419,290.5C 410.163,304.169 401.83,318.169 394,332.5C 388.622,340.089 383.122,347.589 377.5,355C 381.647,368.528 381.48,382.028 377,395.5C 371.47,405.367 364.137,413.7 355,420.5C 350.379,426.243 345.879,432.076 341.5,438C 343.461,440.963 345.794,443.629 348.5,446C 356.042,448.649 363.709,450.983 371.5,453C 381.504,458.18 387.171,466.347 388.5,477.5C 388.148,485.852 383.815,490.185 375.5,490.5C 370.116,489.316 364.783,487.816 359.5,486C 352.918,485.356 346.418,485.856 340,487.5C 334.982,487.456 330.482,485.956 326.5,483C 322.244,476.74 317.244,471.073 311.5,466C 305.609,461.887 299.276,458.554 292.5,456C 285.3,450.367 283.133,443.201 286,434.5C 291,428.833 296,423.167 301,417.5C 302.454,414.929 303.62,412.262 304.5,409.5C 286.04,409.743 268.04,405.243 250.5,396C 239.514,388.853 232.181,379.02 228.5,366.5C 230.087,362.944 232.754,361.778 236.5,363C 239.459,367.751 242.293,372.584 245,377.5C 257.177,390.004 272.011,396.671 289.5,397.5C 295.31,398.49 301.31,398.823 307.5,398.5C 307.768,396.901 307.434,395.568 306.5,394.5C 306.245,391.984 305.411,389.65 304,387.5C 302.28,381.556 304.447,379.056 310.5,380C 316.208,387.196 318.374,395.363 317,404.5C 314.543,418.627 307.543,429.961 296,438.5C 295.294,440.971 295.627,443.305 297,445.5C 303.548,448.858 310.048,452.358 316.5,456C 323.199,462.364 329.532,469.031 335.5,476C 343.44,475.022 351.44,474.689 359.5,475C 365.405,476.307 371.072,477.973 376.5,480C 377.87,473.797 375.87,468.797 370.5,465C 364.259,461.771 357.592,459.771 350.5,459C 339.82,455.489 333.154,448.323 330.5,437.5C 337.795,422.975 347.962,410.642 361,400.5C 363.248,397.672 365.248,394.672 367,391.5C 369.964,380.615 370.297,369.615 368,358.5C 359.287,329.45 340.12,311.95 310.5,306C 287.488,302.729 266.822,308.063 248.5,322C 243.667,322.5 241.5,320.333 242,315.5C 252.943,304.78 266.109,298.447 281.5,296.5C 286.805,295.806 292.138,295.472 297.5,295.5C 310.74,294.903 323.406,297.236 335.5,302.5C 352.285,311.675 364.785,325.008 373,342.5C 376.575,338.347 379.909,334.014 383,329.5C 391.915,314.001 401.082,298.668 410.5,283.5C 412.91,281.232 415.577,280.899 418.5,282.5 Z"/></g>
<g><path style="opacity:1" fill="#414254" d="M 232.5,328.5 C 241.394,329.558 242.727,333.391 236.5,340C 230.839,340.667 228.672,338.167 230,332.5C 230.662,331.016 231.496,329.683 232.5,328.5 Z"/></g>
<g><path style="opacity:1" fill="#af6464" d="M 228.5,366.5 C 232.181,379.02 239.514,388.853 250.5,396C 268.04,405.243 286.04,409.743 304.5,409.5C 297.405,413.381 290.071,416.715 282.5,419.5C 281.788,416.622 279.954,414.955 277,414.5C 235.095,429.68 192.261,434.013 148.5,427.5C 174.343,425.038 199.009,418.205 222.5,407C 231.159,399.214 232.492,390.381 226.5,380.5C 201.479,396.546 174.312,403.546 145,401.5C 143.144,407.107 139.81,408.441 135,405.5C 133.779,398.109 136.612,392.942 143.5,390C 175.061,393.418 203.394,385.585 228.5,366.5 Z"/></g>
<g><path style="opacity:1" fill="#b36766" d="M 100.5,376.5 C 105.083,375.343 107.75,377.01 108.5,381.5C 106.838,386.664 103.838,387.664 99.5,384.5C 98.0248,381.557 98.3581,378.891 100.5,376.5 Z"/></g>
<g><path style="opacity:1" fill="#b36866" d="M 118.5,383.5 C 126.452,383.572 128.119,386.739 123.5,393C 116.279,393.013 114.612,389.846 118.5,383.5 Z"/></g>
<g><path style="opacity:1" fill="#a07976" d="M 306.5,394.5 C 307.434,395.568 307.768,396.901 307.5,398.5C 301.31,398.823 295.31,398.49 289.5,397.5C 295.167,397.5 300.833,397.5 306.5,397.5C 306.5,396.5 306.5,395.5 306.5,394.5 Z"/></g>
</svg>
