<?xml version="1.0" encoding="UTF-8"?>
<!DOCTYPE svg PUBLIC "-//W3C//DTD SVG 1.1//EN" "http://www.w3.org/Graphics/SVG/1.1/DTD/svg11.dtd">
<svg xmlns="http://www.w3.org/2000/svg" version="1.1" width="512px" height="512px" style="shape-rendering:geometricPrecision; text-rendering:geometricPrecision; image-rendering:optimizeQuality; fill-rule:evenodd; clip-rule:evenodd" xmlns:xlink="http://www.w3.org/1999/xlink">
<g><path style="opacity:1" fill="#393e51" d="M 395.5,35.5 C 393.218,36.3897 390.885,36.5564 388.5,36C 372.22,25.4859 355.553,24.8193 338.5,34C 314.522,50.7392 297.355,72.9058 287,100.5C 275.584,130.825 269.251,162.159 268,194.5C 274.578,151.09 289.244,110.756 312,73.5C 317.427,66.0695 323.593,59.2362 330.5,53C 344.97,41.9893 360.304,40.6559 376.5,49C 386.415,56.9681 393.248,67.1347 397,79.5C 406.729,110.521 409.729,142.187 406,174.5C 400.676,191.153 395.343,207.819 390,224.5C 386.952,239.078 388.619,253.078 395,266.5C 401.023,273.524 407.856,274.357 415.5,269C 417.377,266.749 418.877,264.249 420,261.5C 433.811,205.185 433.811,148.852 420,92.5C 417.393,82.511 413.893,72.8443 409.5,63.5C 409.984,61.1992 410.984,59.1992 412.5,57.5C 415.652,56.9586 418.152,57.9586 420,60.5C 431.9,90.3284 438.566,121.328 440,153.5C 442.48,186.631 440.314,219.464 433.5,252C 432.215,262.548 427.882,271.548 420.5,279C 398.733,287.863 385.233,280.697 380,257.5C 378.026,245.506 378.026,233.506 380,221.5C 383.135,208.095 387.468,195.095 393,182.5C 397.63,165.719 398.63,148.719 396,131.5C 394.996,122.136 393.83,112.803 392.5,103.5C 392.577,99.4678 391.577,95.8011 389.5,92.5C 386.898,81.631 382.398,71.631 376,62.5C 365.917,53.643 354.75,52.143 342.5,58C 332.859,65.4319 324.692,74.2653 318,84.5C 298.264,119.037 285.264,156.037 279,195.5C 273.774,225.644 270.107,255.977 268,286.5C 264.619,290.485 261.286,290.485 258,286.5C 252.495,235.819 254.828,185.485 265,135.5C 271.634,103.243 284.968,74.243 305,48.5C 315.059,37.432 326.559,28.2653 339.5,21C 359.838,13.0322 378.672,15.5322 396,28.5C 396.703,30.9291 396.537,33.2625 395.5,35.5 Z"/></g>
<g><path style="opacity:1" fill="#393e51" d="M 89.5,105.5 C 86.8515,103.441 86.0182,100.775 87,97.5C 93.3231,84.1789 100.656,71.5122 109,59.5C 126.909,40.4655 148.075,35.6321 172.5,45C 185.53,52.3609 196.363,62.1942 205,74.5C 190.045,36.9111 162.879,23.0777 123.5,33C 112.904,37.6005 104.071,44.4338 97,53.5C 74.0865,88.8897 59.4198,127.556 53,169.5C 50.479,188.19 47.8123,206.856 45,225.5C 40.0774,238.927 37.2441,252.76 36.5,267C 36.6204,273.53 37.1204,280.03 38,286.5C 42.1008,293.803 47.9341,295.469 55.5,291.5C 62.9313,282.866 65.7646,272.866 64,261.5C 55.3492,241.611 52.6826,220.944 56,199.5C 58.1913,183.236 62.0246,167.403 67.5,152C 69.4727,151.505 71.4727,151.338 73.5,151.5C 75.7142,152.392 76.7142,154.058 76.5,156.5C 70.5149,176.758 66.8482,197.425 65.5,218.5C 65.378,231.057 67.878,243.057 73,254.5C 77.7518,271.577 74.2518,286.743 62.5,300C 51.1051,306.813 40.6051,305.646 31,296.5C 27.6167,290.634 25.95,284.301 26,277.5C 25.3158,269.13 25.6491,260.797 27,252.5C 29.6667,241.833 32.3333,231.167 35,220.5C 38.3069,187.657 44.3069,155.324 53,123.5C 61.0862,94.5315 73.7529,67.8649 91,43.5C 116.856,16.7963 146.689,11.2963 180.5,27C 194.542,35.7074 205.042,47.5407 212,62.5C 221.76,80.7801 228.094,100.113 231,120.5C 229.309,124.213 226.475,125.379 222.5,124C 217.793,115.419 212.96,106.919 208,98.5C 201.413,91.9094 194.247,86.0761 186.5,81C 167.776,73.1274 152.609,77.6274 141,94.5C 131.73,114.646 125.063,135.646 121,157.5C 118.736,160.52 115.903,161.187 112.5,159.5C 111.063,157.979 110.396,156.145 110.5,154C 114.229,129.912 121.729,107.079 133,85.5C 143.43,69.3676 158.264,61.2009 177.5,61C 158.658,47.0293 139.992,47.3626 121.5,62C 111.119,74.5793 102.619,88.4127 96,103.5C 94.2111,105.229 92.0444,105.896 89.5,105.5 Z"/></g>
<g><path style="opacity:1" fill="#c5505c" d="M 395.5,35.5 C 397.5,37.1667 399.5,38.8333 401.5,40.5C 397.989,48.4526 400.655,52.1193 409.5,51.5C 410.471,53.4832 411.471,55.4832 412.5,57.5C 410.984,59.1992 409.984,61.1992 409.5,63.5C 413.893,72.8443 417.393,82.511 420,92.5C 433.811,148.852 433.811,205.185 420,261.5C 418.877,264.249 417.377,266.749 415.5,269C 407.856,274.357 401.023,273.524 395,266.5C 388.619,253.078 386.952,239.078 390,224.5C 395.343,207.819 400.676,191.153 406,174.5C 409.729,142.187 406.729,110.521 397,79.5C 393.248,67.1347 386.415,56.9681 376.5,49C 360.304,40.6559 344.97,41.9893 330.5,53C 323.593,59.2362 317.427,66.0695 312,73.5C 289.244,110.756 274.578,151.09 268,194.5C 269.251,162.159 275.584,130.825 287,100.5C 297.355,72.9058 314.522,50.7392 338.5,34C 355.553,24.8193 372.22,25.4859 388.5,36C 390.885,36.5564 393.218,36.3897 395.5,35.5 Z"/></g>
<g><path style="opacity:1" fill="#f58194" d="M 89.5,105.5 C 87.5,110.833 85.5,116.167 83.5,121.5C 76.2721,120.943 73.4387,124.276 75,131.5C 76.0391,132.71 77.2058,133.71 78.5,134.5C 76.3707,140.015 74.704,145.681 73.5,151.5C 71.4727,151.338 69.4727,151.505 67.5,152C 62.0246,167.403 58.1913,183.236 56,199.5C 52.6826,220.944 55.3492,241.611 64,261.5C 65.7646,272.866 62.9313,282.866 55.5,291.5C 47.9341,295.469 42.1008,293.803 38,286.5C 37.1204,280.03 36.6204,273.53 36.5,267C 37.2441,252.76 40.0774,238.927 45,225.5C 47.8123,206.856 50.479,188.19 53,169.5C 59.4198,127.556 74.0865,88.8897 97,53.5C 104.071,44.4338 112.904,37.6005 123.5,33C 162.879,23.0777 190.045,36.9111 205,74.5C 196.363,62.1942 185.53,52.3609 172.5,45C 148.075,35.6321 126.909,40.4655 109,59.5C 100.656,71.5122 93.3231,84.1789 87,97.5C 86.0182,100.775 86.8515,103.441 89.5,105.5 Z"/></g>
<g><path style="opacity:1" fill="#3a3d51" d="M 401.5,40.5 C 409.713,39.8911 412.379,43.5578 409.5,51.5C 400.655,52.1193 397.989,48.4526 401.5,40.5 Z"/></g>
<g><path style="opacity:1" fill="#f9e095" d="M 389.5,92.5 C 391.577,95.8011 392.577,99.4678 392.5,103.5C 375.27,103.448 361.603,110.282 351.5,124C 343.471,124.546 341.304,121.046 345,113.5C 352.395,104.211 361.895,98.0448 373.5,95C 378.806,93.9326 384.139,93.0992 389.5,92.5 Z"/></g>
<g><path style="opacity:1" fill="#fae196" d="M 449.5,118.5 C 451.262,118.357 452.929,118.691 454.5,119.5C 466.612,135.973 474.778,154.306 479,174.5C 484.708,198.888 486.208,223.388 483.5,248C 478.145,250.328 474.812,248.661 473.5,243C 475.722,208.891 470.222,176.057 457,144.5C 453.835,138.166 450.169,132.166 446,126.5C 444.78,122.707 445.947,120.04 449.5,118.5 Z"/></g>
<g><path style="opacity:1" fill="#3b3e51" d="M 83.5,121.5 C 87.1086,125.676 86.7753,129.842 82.5,134C 81.2068,134.49 79.8734,134.657 78.5,134.5C 77.2058,133.71 76.0391,132.71 75,131.5C 73.4387,124.276 76.2721,120.943 83.5,121.5 Z"/></g>
<g><path style="opacity:1" fill="#373d4f" d="M 238.5,145.5 C 241.474,145.645 243.641,146.978 245,149.5C 245.446,152.343 245.946,155.176 246.5,158C 245.501,163.004 242.501,164.67 237.5,163C 236.107,161.829 235.273,160.329 235,158.5C 233.741,154.722 233.741,151.055 235,147.5C 236.302,146.915 237.469,146.249 238.5,145.5 Z"/></g>
<g><path style="opacity:1" fill="#373d50" d="M 324.5,168.5 C 342.378,168.544 351.545,177.544 352,195.5C 353.059,202.48 353.393,209.48 353,216.5C 352.242,218.91 350.575,219.91 348,219.5C 345.966,219.646 344.299,218.98 343,217.5C 342,208.833 341,200.167 340,191.5C 337.26,181.214 331.093,178.047 321.5,182C 312.24,192.344 305.406,204.178 301,217.5C 294.243,236.285 289.91,255.618 288,275.5C 284.996,279 281.663,279.333 278,276.5C 278.696,239.353 289.696,205.686 311,175.5C 314.96,171.938 319.46,169.605 324.5,168.5 Z"/></g>
<g><path style="opacity:1" fill="#393e51" d="M 175.5,179.5 C 192.525,177.104 206.025,182.77 216,196.5C 228.773,220.594 235.44,246.261 236,273.5C 232.94,276.936 229.607,277.269 226,274.5C 217.268,253.192 206.101,233.359 192.5,215C 181.282,210.025 174.115,213.525 171,225.5C 162.231,250.878 158.897,276.878 161,303.5C 165.432,310.263 169.432,317.263 173,324.5C 176.226,339.155 172.393,351.655 161.5,362C 141.045,370.19 129.545,363.357 127,341.5C 122.036,300.138 126.369,259.805 140,220.5C 143.119,212.261 146.786,204.261 151,196.5C 157.166,187.816 165.332,182.15 175.5,179.5 Z"/></g>
<g><path style="opacity:1" fill="#373d50" d="M 107.5,187.5 C 115.515,186.8 118.348,190.466 116,198.5C 114.995,202.421 112.495,203.921 108.5,203C 106.667,202.5 105.5,201.333 105,199.5C 104.659,195.203 105.492,191.203 107.5,187.5 Z"/></g>
<g><path style="opacity:1" fill="#f4dc93" d="M 178.5,189.5 C 196.238,189.127 207.738,197.461 213,214.5C 216.571,221.872 218.904,229.539 220,237.5C 214.193,226.046 207.026,215.546 198.5,206C 179.347,197.422 166.513,203.255 160,223.5C 153.037,244.944 149.204,266.944 148.5,289.5C 148.441,296.704 149.607,303.704 152,310.5C 156.095,316.257 159.762,322.257 163,328.5C 164.127,337.784 161.627,345.95 155.5,353C 149.559,356.871 144.393,356.038 140,350.5C 130.442,298.963 137.109,249.63 160,202.5C 164.689,195.964 170.856,191.631 178.5,189.5 Z"/></g>
<g><path style="opacity:1" fill="#373d50" d="M 342.5,244.5 C 346.49,243.616 349.323,244.949 351,248.5C 351.352,252.258 350.519,255.758 348.5,259C 340.492,260.655 337.659,257.488 340,249.5C 340.366,247.548 341.199,245.882 342.5,244.5 Z"/></g>
<g><path style="opacity:1" fill="#fae196" d="M 473.5,278.5 C 478.434,277.937 481.1,280.104 481.5,285C 481.328,292.891 477.828,295.391 471,292.5C 468.977,287.27 469.811,282.603 473.5,278.5 Z"/></g>
<g><path style="opacity:1" fill="#393e52" d="M 238.5,288.5 C 247.964,289.022 257.297,290.522 266.5,293C 271.833,295.667 275.833,299.667 278.5,305C 285.039,306.55 290.206,310.05 294,315.5C 302.04,335.26 312.373,353.593 325,370.5C 341.135,384.967 356.968,399.8 372.5,415C 400.595,431.769 427.595,450.102 453.5,470C 459.635,475.134 465.469,480.634 471,486.5C 472.036,489.68 471.203,492.18 468.5,494C 338.833,494.667 209.167,494.667 79.5,494C 76.4548,491.552 75.9548,488.719 78,485.5C 113.146,458.028 146.146,428.028 177,395.5C 180.916,390.004 184.582,384.337 188,378.5C 201.98,349.203 216.98,320.536 233,292.5C 235.015,291.303 236.849,289.97 238.5,288.5 Z"/></g>
<g><path style="opacity:1" fill="#9bb3f8" d="M 205.5,454.5 C 205.007,456.806 204.674,459.139 204.5,461.5C 204.5,462.167 204.167,462.5 203.5,462.5C 197.386,463.731 191.22,464.731 185,465.5C 183.833,465.167 182.667,464.833 181.5,464.5C 190.586,449.33 199.419,433.997 208,418.5C 211.88,408.028 215.047,397.361 217.5,386.5C 216.178,386.33 215.011,386.663 214,387.5C 208.342,399.492 201.675,410.825 194,421.5C 183.5,432.667 173,443.833 162.5,455C 162,455.167 161.5,455.333 161,455.5C 155.723,450.278 152.556,443.945 151.5,436.5C 163.8,425.033 175.634,413.033 187,400.5C 190.333,395.167 193.667,389.833 197,384.5C 210.766,355.128 225.933,326.628 242.5,299C 244.92,298.313 247.087,298.813 249,300.5C 249.667,324.167 249.667,347.833 249,371.5C 247.002,382.831 242.669,393.164 236,402.5C 226.222,411.272 217.555,420.939 210,431.5C 207.393,436.38 205.06,441.38 203,446.5C 201.834,449.927 202.668,452.593 205.5,454.5 Z"/></g>
<g><path style="opacity:1" fill="#f5697c" d="M 273.5,322.5 C 273.5,326.5 273.5,330.5 273.5,334.5C 271.983,334.511 270.816,335.177 270,336.5C 266.215,365.22 273.215,390.887 291,413.5C 299.624,421.97 308.624,429.97 318,437.5C 324.376,445.919 328.876,455.253 331.5,465.5C 331.38,466.586 330.713,467.253 329.5,467.5C 326.551,468.302 323.551,468.636 320.5,468.5C 317.649,459.798 313.483,451.798 308,444.5C 295.632,433.799 284.299,422.133 274,409.5C 272.275,406.326 270.942,402.993 270,399.5C 267.294,396.022 264.294,395.689 261,398.5C 258.337,405.168 254.671,411.168 250,416.5C 243.667,421.833 237.333,427.167 231,432.5C 224.962,440.243 220.796,448.909 218.5,458.5C 213.761,459.185 209.094,460.185 204.5,461.5C 204.674,459.139 205.007,456.806 205.5,454.5C 207.467,454.739 209.301,454.406 211,453.5C 213.723,445.126 217.723,437.459 223,430.5C 228.86,423.728 235.194,417.395 242,411.5C 251.148,400.07 256.814,387.07 259,372.5C 260.066,349.179 260.733,325.846 261,302.5C 267.765,306.537 270.431,312.537 269,320.5C 270.11,322.037 271.61,322.703 273.5,322.5 Z"/></g>
<g><path style="opacity:1" fill="#9bb3f7" d="M 392.5,440.5 C 390.303,445.703 386.637,449.703 381.5,452.5C 366.5,440 351.5,427.5 336.5,415C 331.61,414.965 330.443,417.132 333,421.5C 341.77,434.703 351.27,447.37 361.5,459.5C 361.291,460.086 360.957,460.586 360.5,461C 354.482,462.505 348.482,464.005 342.5,465.5C 339.497,453.494 334.33,442.494 327,432.5C 318.297,424.129 309.297,416.129 300,408.5C 283.513,387.802 276.513,364.135 279,337.5C 277.736,335.393 275.903,334.393 273.5,334.5C 273.5,330.5 273.5,326.5 273.5,322.5C 277.113,322.22 279.113,320.22 279.5,316.5C 281.483,317.982 283.316,319.649 285,321.5C 292.957,340.758 302.957,358.758 315,375.5C 332.898,393.402 351.398,410.568 370.5,427C 377.719,431.725 385.052,436.225 392.5,440.5 Z"/></g>
<g><path style="opacity:1" fill="#6f6fa6" d="M 203.5,462.5 C 202.752,469.809 202.418,477.142 202.5,484.5C 167.498,484.667 132.498,484.5 97.5,484C 115.965,468.702 133.965,452.869 151.5,436.5C 152.556,443.945 155.723,450.278 161,455.5C 161.5,455.333 162,455.167 162.5,455C 173,443.833 183.5,432.667 194,421.5C 201.675,410.825 208.342,399.492 214,387.5C 215.011,386.663 216.178,386.33 217.5,386.5C 215.047,397.361 211.88,408.028 208,418.5C 199.419,433.997 190.586,449.33 181.5,464.5C 182.667,464.833 183.833,465.167 185,465.5C 191.22,464.731 197.386,463.731 203.5,462.5 Z"/></g>
<g><path style="opacity:1" fill="#9ab3f7" d="M 309.5,468.5 C 298.268,468.641 287.268,467.141 276.5,464C 266.448,460.473 256.781,456.14 247.5,451C 242.023,450.015 236.856,450.848 232,453.5C 231.601,453.272 231.435,452.938 231.5,452.5C 235.148,442.689 241.481,435.189 250.5,430C 255.75,425.256 260.417,420.089 264.5,414.5C 267.989,418.794 271.489,423.127 275,427.5C 283,434.833 291,442.167 299,449.5C 303.539,455.244 307.039,461.578 309.5,468.5 Z"/></g>
<g><path style="opacity:1" fill="#6f6fa6" d="M 392.5,440.5 C 413.709,453.277 433.709,467.777 452.5,484C 417.167,484.667 381.833,484.667 346.5,484C 345.223,477.841 343.889,471.675 342.5,465.5C 348.482,464.005 354.482,462.505 360.5,461C 360.957,460.586 361.291,460.086 361.5,459.5C 351.27,447.37 341.77,434.703 333,421.5C 330.443,417.132 331.61,414.965 336.5,415C 351.5,427.5 366.5,440 381.5,452.5C 386.637,449.703 390.303,445.703 392.5,440.5 Z"/></g>
<g><path style="opacity:1" fill="#6f70a8" d="M 309.5,468.5 C 311.401,473.33 313.068,478.33 314.5,483.5C 285.167,483.5 255.833,483.5 226.5,483.5C 226.5,480.5 226.5,477.5 226.5,474.5C 226.549,466.679 228.216,459.345 231.5,452.5C 231.435,452.938 231.601,453.272 232,453.5C 236.856,450.848 242.023,450.015 247.5,451C 256.781,456.14 266.448,460.473 276.5,464C 287.268,467.141 298.268,468.641 309.5,468.5 Z"/></g>
<g><path style="opacity:1" fill="#d04558" d="M 218.5,458.5 C 216.356,466.99 215.356,475.657 215.5,484.5C 211.167,484.5 206.833,484.5 202.5,484.5C 202.418,477.142 202.752,469.809 203.5,462.5C 204.167,462.5 204.5,462.167 204.5,461.5C 209.094,460.185 213.761,459.185 218.5,458.5 Z"/></g>
<g><path style="opacity:1" fill="#d04357" d="M 331.5,465.5 C 333.963,471.134 335.296,477.134 335.5,483.5C 331.833,483.5 328.167,483.5 324.5,483.5C 324.255,478.184 322.921,473.184 320.5,468.5C 323.551,468.636 326.551,468.302 329.5,467.5C 330.713,467.253 331.38,466.586 331.5,465.5 Z"/></g>
<g><path style="opacity:1" fill="#57577e" d="M 226.5,474.5 C 226.5,477.5 226.5,480.5 226.5,483.5C 255.833,483.5 285.167,483.5 314.5,483.5C 285.005,484.498 255.338,484.831 225.5,484.5C 225.187,480.958 225.521,477.625 226.5,474.5 Z"/></g>
</svg>
