<svg xmlns="http://www.w3.org/2000/svg" xmlns:xlink="http://www.w3.org/1999/xlink" width="1080" zoomAndPan="magnify" viewBox="0 0 810 809.999993" height="1080" preserveAspectRatio="xMidYMid meet" version="1.0"><path fill="#ffffff" d="M 622.578125 797.144531 L 187.753906 797.144531 C 155.539062 797.144531 125.203125 782.976562 104.519531 758.277344 C 83.847656 733.59375 75.226562 701.289062 80.878906 669.628906 L 128.957031 399.648438 C 134.085938 370.539062 151.117188 344.289062 175.671875 327.640625 L 262.8125 268.667969 C 266.089844 266.453125 268.101562 262.769531 268.1875 258.820312 L 268.507812 245.855469 L 541.824219 245.855469 L 542.140625 258.820312 C 542.238281 262.769531 544.242188 266.453125 547.519531 268.667969 L 634.648438 327.640625 C 659.210938 344.289062 676.246094 370.546875 681.382812 399.671875 L 729.453125 669.636719 C 735.101562 701.289062 726.484375 733.601562 705.8125 758.277344 C 685.128906 782.976562 654.792969 797.144531 622.578125 797.144531 Z M 292.183594 272.421875 C 289.375 279.753906 284.351562 286.167969 277.703125 290.675781 L 190.570312 349.636719 C 171.933594 362.273438 159.011719 382.191406 155.113281 404.277344 L 107.027344 674.285156 C 102.765625 698.1875 109.277344 722.585938 124.882812 741.21875 C 140.515625 759.871094 163.429688 770.566406 187.753906 770.566406 L 622.578125 770.566406 C 646.910156 770.566406 669.824219 759.871094 685.457031 741.210938 C 701.0625 722.578125 707.574219 698.1875 703.3125 674.285156 L 655.234375 404.296875 C 651.335938 382.183594 638.414062 362.265625 619.761719 349.628906 L 532.636719 290.664062 C 525.976562 286.167969 520.972656 279.746094 518.15625 272.414062 L 292.183594 272.414062 Z M 292.183594 272.421875 " fill-opacity="1" fill-rule="nonzero"/><path fill="#ffffff" d="M 281.8125 208.449219 C 276.726562 208.449219 271.875 205.507812 269.667969 200.566406 L 221.039062 91.566406 C 218.144531 85.058594 218.71875 77.609375 222.609375 71.640625 C 226.488281 65.664062 233.050781 62.105469 240.164062 62.105469 L 309.578125 62.105469 C 316.914062 62.105469 322.867188 68.046875 322.867188 75.386719 C 322.867188 82.730469 316.914062 88.671875 309.578125 88.671875 L 248.84375 88.671875 L 293.945312 189.742188 C 296.929688 196.449219 293.917969 204.304688 287.222656 207.289062 C 285.453125 208.074219 283.617188 208.449219 281.8125 208.449219 Z M 281.8125 208.449219 " fill-opacity="1" fill-rule="nonzero"/><path fill="#ffffff" d="M 541.027344 272.421875 L 269.3125 272.421875 C 253.964844 272.421875 241.464844 259.9375 241.464844 244.589844 L 241.464844 209.707031 C 241.464844 194.359375 253.953125 181.871094 269.3125 181.871094 L 541.027344 181.871094 C 556.375 181.871094 568.875 194.359375 568.875 209.707031 L 568.875 244.589844 C 568.863281 259.9375 556.375 272.421875 541.027344 272.421875 Z M 269.3125 208.4375 C 268.613281 208.4375 268.039062 209.003906 268.039062 209.707031 L 268.039062 244.589844 C 268.039062 245.289062 268.605469 245.855469 269.3125 245.855469 L 541.027344 245.855469 C 541.726562 245.855469 542.300781 245.289062 542.300781 244.589844 L 542.300781 209.707031 C 542.300781 209.003906 541.734375 208.4375 541.027344 208.4375 Z M 269.3125 208.4375 " fill-opacity="1" fill-rule="nonzero"/><path fill="#ffffff" d="M 309.589844 438.515625 C 308.394531 438.515625 307.1875 438.347656 305.984375 438.011719 C 298.914062 436.027344 294.804688 428.683594 296.789062 421.628906 C 321.707031 333.066406 392.28125 253.613281 395.277344 250.273438 C 400.164062 244.808594 408.570312 244.351562 414.027344 249.246094 C 419.492188 254.136719 419.960938 262.53125 415.0625 268.003906 C 414.371094 268.773438 345.585938 346.300781 322.371094 428.828125 C 320.722656 434.679688 315.390625 438.515625 309.589844 438.515625 Z M 309.589844 438.515625 " fill-opacity="1" fill-rule="nonzero"/><path fill="#ffffff" d="M 343.078125 442.820312 C 343.078125 444.003906 343.019531 445.1875 342.90625 446.367188 C 342.789062 447.546875 342.613281 448.71875 342.382812 449.882812 C 342.152344 451.046875 341.863281 452.195312 341.519531 453.328125 C 341.175781 454.464844 340.777344 455.578125 340.324219 456.671875 C 339.867188 457.769531 339.363281 458.839844 338.804688 459.886719 C 338.242188 460.929688 337.636719 461.945312 336.976562 462.933594 C 336.316406 463.917969 335.613281 464.871094 334.859375 465.785156 C 334.105469 466.703125 333.3125 467.582031 332.472656 468.417969 C 331.632812 469.257812 330.757812 470.050781 329.839844 470.804688 C 328.921875 471.558594 327.972656 472.261719 326.984375 472.921875 C 326 473.578125 324.984375 474.1875 323.9375 474.746094 C 322.890625 475.304688 321.820312 475.8125 320.726562 476.265625 C 319.628906 476.71875 318.515625 477.121094 317.378906 477.464844 C 316.246094 477.808594 315.097656 478.09375 313.933594 478.328125 C 312.769531 478.558594 311.597656 478.730469 310.417969 478.847656 C 309.238281 478.964844 308.054688 479.023438 306.871094 479.023438 C 305.683594 479.023438 304.5 478.964844 303.320312 478.847656 C 302.140625 478.730469 300.96875 478.558594 299.804688 478.328125 C 298.640625 478.09375 297.492188 477.808594 296.359375 477.464844 C 295.222656 477.121094 294.109375 476.71875 293.011719 476.265625 C 291.917969 475.8125 290.847656 475.304688 289.800781 474.746094 C 288.753906 474.1875 287.738281 473.578125 286.753906 472.921875 C 285.765625 472.261719 284.816406 471.558594 283.898438 470.804688 C 282.980469 470.050781 282.105469 469.257812 281.265625 468.417969 C 280.425781 467.582031 279.632812 466.703125 278.878906 465.785156 C 278.125 464.871094 277.421875 463.917969 276.761719 462.933594 C 276.101562 461.945312 275.496094 460.929688 274.933594 459.886719 C 274.375 458.839844 273.871094 457.769531 273.414062 456.671875 C 272.960938 455.578125 272.5625 454.464844 272.21875 453.328125 C 271.875 452.195312 271.585938 451.046875 271.355469 449.882812 C 271.125 448.71875 270.949219 447.546875 270.835938 446.367188 C 270.71875 445.1875 270.660156 444.003906 270.660156 442.820312 C 270.660156 441.632812 270.71875 440.449219 270.835938 439.269531 C 270.949219 438.089844 271.125 436.917969 271.355469 435.757812 C 271.585938 434.59375 271.875 433.445312 272.21875 432.308594 C 272.5625 431.175781 272.960938 430.058594 273.414062 428.964844 C 273.871094 427.871094 274.375 426.800781 274.933594 425.753906 C 275.496094 424.707031 276.101562 423.691406 276.761719 422.707031 C 277.421875 421.71875 278.125 420.769531 278.878906 419.851562 C 279.632812 418.9375 280.425781 418.058594 281.265625 417.21875 C 282.105469 416.382812 282.980469 415.585938 283.898438 414.835938 C 284.816406 414.082031 285.765625 413.375 286.753906 412.71875 C 287.738281 412.058594 288.753906 411.449219 289.800781 410.890625 C 290.847656 410.332031 291.917969 409.824219 293.011719 409.371094 C 294.109375 408.917969 295.222656 408.519531 296.359375 408.175781 C 297.492188 407.832031 298.640625 407.542969 299.804688 407.3125 C 300.96875 407.082031 302.140625 406.90625 303.320312 406.789062 C 304.5 406.675781 305.683594 406.617188 306.871094 406.617188 C 308.054688 406.617188 309.238281 406.675781 310.417969 406.789062 C 311.597656 406.90625 312.769531 407.082031 313.933594 407.3125 C 315.097656 407.542969 316.246094 407.832031 317.378906 408.175781 C 318.515625 408.519531 319.628906 408.917969 320.726562 409.371094 C 321.820312 409.824219 322.890625 410.332031 323.9375 410.890625 C 324.984375 411.449219 326 412.058594 326.984375 412.71875 C 327.972656 413.375 328.921875 414.082031 329.839844 414.835938 C 330.757812 415.585938 331.632812 416.382812 332.472656 417.21875 C 333.3125 418.058594 334.105469 418.9375 334.859375 419.851562 C 335.613281 420.769531 336.316406 421.71875 336.976562 422.707031 C 337.636719 423.691406 338.242188 424.707031 338.804688 425.753906 C 339.363281 426.800781 339.867188 427.871094 340.324219 428.964844 C 340.777344 430.058594 341.175781 431.175781 341.519531 432.308594 C 341.863281 433.445312 342.152344 434.59375 342.382812 435.757812 C 342.613281 436.917969 342.789062 438.089844 342.90625 439.269531 C 343.019531 440.449219 343.078125 441.632812 343.078125 442.820312 Z M 343.078125 442.820312 " fill-opacity="1" fill-rule="nonzero"/><path fill="#ffffff" d="M 536.96875 442.820312 C 536.96875 444.003906 536.910156 445.1875 536.792969 446.367188 C 536.679688 447.546875 536.503906 448.71875 536.273438 449.882812 C 536.042969 451.046875 535.753906 452.195312 535.410156 453.328125 C 535.066406 454.464844 534.667969 455.578125 534.214844 456.671875 C 533.757812 457.769531 533.253906 458.839844 532.695312 459.886719 C 532.132812 460.929688 531.527344 461.945312 530.867188 462.933594 C 530.207031 463.917969 529.503906 464.871094 528.75 465.785156 C 527.996094 466.703125 527.203125 467.582031 526.363281 468.417969 C 525.523438 469.257812 524.648438 470.050781 523.730469 470.804688 C 522.8125 471.558594 521.863281 472.261719 520.875 472.921875 C 519.890625 473.578125 518.875 474.1875 517.828125 474.746094 C 516.78125 475.304688 515.710938 475.8125 514.617188 476.265625 C 513.519531 476.71875 512.40625 477.121094 511.269531 477.464844 C 510.136719 477.808594 508.988281 478.09375 507.824219 478.328125 C 506.660156 478.558594 505.488281 478.730469 504.308594 478.847656 C 503.128906 478.964844 501.945312 479.023438 500.761719 479.023438 C 499.574219 479.023438 498.390625 478.964844 497.210938 478.847656 C 496.03125 478.730469 494.859375 478.558594 493.695312 478.328125 C 492.53125 478.09375 491.382812 477.808594 490.25 477.464844 C 489.113281 477.121094 488 476.71875 486.902344 476.265625 C 485.808594 475.8125 484.738281 475.304688 483.691406 474.746094 C 482.644531 474.1875 481.628906 473.578125 480.644531 472.921875 C 479.65625 472.261719 478.707031 471.558594 477.789062 470.804688 C 476.871094 470.050781 475.996094 469.257812 475.15625 468.417969 C 474.316406 467.582031 473.523438 466.703125 472.769531 465.785156 C 472.015625 464.871094 471.3125 463.917969 470.652344 462.933594 C 469.992188 461.945312 469.386719 460.929688 468.824219 459.886719 C 468.265625 458.839844 467.761719 457.769531 467.304688 456.671875 C 466.851562 455.578125 466.453125 454.464844 466.109375 453.328125 C 465.765625 452.195312 465.476562 451.046875 465.246094 449.882812 C 465.015625 448.71875 464.839844 447.546875 464.726562 446.367188 C 464.609375 445.1875 464.550781 444.003906 464.550781 442.820312 C 464.550781 441.632812 464.609375 440.449219 464.726562 439.269531 C 464.839844 438.089844 465.015625 436.917969 465.246094 435.757812 C 465.476562 434.59375 465.765625 433.445312 466.109375 432.308594 C 466.453125 431.175781 466.851562 430.058594 467.304688 428.964844 C 467.761719 427.871094 468.265625 426.800781 468.824219 425.753906 C 469.386719 424.707031 469.992188 423.691406 470.652344 422.707031 C 471.3125 421.71875 472.015625 420.769531 472.769531 419.851562 C 473.523438 418.9375 474.316406 418.058594 475.15625 417.21875 C 475.996094 416.382812 476.871094 415.585938 477.789062 414.835938 C 478.707031 414.082031 479.65625 413.375 480.644531 412.71875 C 481.628906 412.058594 482.644531 411.449219 483.691406 410.890625 C 484.738281 410.332031 485.808594 409.824219 486.902344 409.371094 C 488 408.917969 489.113281 408.519531 490.25 408.175781 C 491.382812 407.832031 492.53125 407.542969 493.695312 407.3125 C 494.859375 407.082031 496.03125 406.90625 497.210938 406.789062 C 498.390625 406.675781 499.574219 406.617188 500.761719 406.617188 C 501.945312 406.617188 503.128906 406.675781 504.308594 406.789062 C 505.488281 406.90625 506.660156 407.082031 507.824219 407.3125 C 508.988281 407.542969 510.136719 407.832031 511.269531 408.175781 C 512.40625 408.519531 513.519531 408.917969 514.617188 409.371094 C 515.710938 409.824219 516.78125 410.332031 517.828125 410.890625 C 518.875 411.449219 519.890625 412.058594 520.875 412.71875 C 521.863281 413.375 522.8125 414.082031 523.730469 414.835938 C 524.648438 415.585938 525.523438 416.382812 526.363281 417.21875 C 527.203125 418.058594 527.996094 418.9375 528.75 419.851562 C 529.503906 420.769531 530.207031 421.71875 530.867188 422.707031 C 531.527344 423.691406 532.132812 424.707031 532.695312 425.753906 C 533.253906 426.800781 533.757812 427.871094 534.214844 428.964844 C 534.667969 430.058594 535.066406 431.175781 535.410156 432.308594 C 535.753906 433.445312 536.042969 434.59375 536.273438 435.757812 C 536.503906 436.917969 536.679688 438.089844 536.792969 439.269531 C 536.910156 440.449219 536.96875 441.632812 536.96875 442.820312 Z M 536.96875 442.820312 " fill-opacity="1" fill-rule="nonzero"/><path fill="#ffffff" d="M 537.15625 208.4375 L 343.449219 208.4375 L 297.082031 79.886719 L 280.191406 37.335938 C 277.628906 30.871094 278.4375 23.589844 282.34375 17.84375 C 286.238281 12.101562 292.714844 8.675781 299.660156 8.675781 L 510.679688 8.675781 C 517.625 8.675781 524.097656 12.101562 527.996094 17.84375 C 531.902344 23.589844 532.707031 30.871094 530.148438 37.324219 L 520.316406 62.105469 L 570.175781 62.105469 C 577.296875 62.105469 583.859375 65.664062 587.730469 71.640625 C 591.609375 77.609375 592.195312 85.066406 589.300781 91.566406 Z M 362.121094 181.871094 L 519.910156 181.871094 L 561.496094 88.671875 L 512.027344 88.671875 C 505.082031 88.671875 498.609375 85.246094 494.710938 79.503906 C 490.804688 73.765625 489.996094 66.480469 492.558594 60.023438 L 502.390625 35.242188 L 307.941406 35.242188 L 321.925781 70.492188 Z M 577.164062 86.15625 L 577.253906 86.15625 Z M 565.03125 80.753906 C 565.03125 80.753906 565.03125 80.761719 565.019531 80.761719 Z M 565.03125 80.753906 " fill-opacity="1" fill-rule="nonzero"/><path fill="#ffffff" d="M 457.554688 208.449219 C 456.054688 208.449219 454.53125 208.191406 453.042969 207.660156 C 446.144531 205.171875 442.558594 197.554688 445.054688 190.65625 L 488.261719 70.890625 C 490.75 63.992188 498.367188 60.414062 505.269531 62.902344 C 512.167969 65.390625 515.753906 73.003906 513.257812 79.90625 L 470.050781 199.664062 C 468.09375 205.074219 462.992188 208.449219 457.554688 208.449219 Z M 457.554688 208.449219 " fill-opacity="1" fill-rule="nonzero"/><path fill="#ffffff" d="M 500.75 438.515625 C 494.949219 438.515625 489.617188 434.679688 487.96875 428.828125 C 464.710938 346.140625 395.964844 268.78125 395.277344 268.011719 C 390.378906 262.546875 390.839844 254.152344 396.304688 249.253906 C 401.757812 244.359375 410.175781 244.828125 415.0625 250.28125 C 418.058594 253.621094 488.632812 333.066406 513.550781 421.636719 C 515.535156 428.695312 511.425781 436.035156 504.355469 438.019531 C 503.160156 438.347656 501.945312 438.515625 500.75 438.515625 Z M 500.75 438.515625 " fill-opacity="1" fill-rule="nonzero"/></svg>