<?xml version="1.0" encoding="UTF-8"?>
<!DOCTYPE svg PUBLIC "-//W3C//DTD SVG 1.1//EN" "http://www.w3.org/Graphics/SVG/1.1/DTD/svg11.dtd">
<svg xmlns="http://www.w3.org/2000/svg" version="1.1" width="512px" height="512px" style="shape-rendering:geometricPrecision; text-rendering:geometricPrecision; image-rendering:optimizeQuality; fill-rule:evenodd; clip-rule:evenodd" xmlns:xlink="http://www.w3.org/1999/xlink">
<g><path style="opacity:1" fill="#3f3f52" d="M 347.5,300.5 C 347.055,297.635 347.722,295.135 349.5,293C 357.167,289.5 364.833,286 372.5,282.5C 372.833,281.833 373.167,281.167 373.5,280.5C 372.735,276.31 371.735,272.31 370.5,268.5C 368.015,252.406 365.015,236.406 361.5,220.5C 344.415,222.179 327.415,224.512 310.5,227.5C 319.36,240.219 326.36,253.886 331.5,268.5C 335.305,280.057 338.305,291.724 340.5,303.5C 344.418,321.342 341.584,338.009 332,353.5C 328.633,357.203 324.966,360.536 321,363.5C 320.333,379.5 320.333,395.5 321,411.5C 323.507,420.509 326.007,429.509 328.5,438.5C 328.465,446.699 325.132,453.199 318.5,458C 321.865,462.976 323.198,468.476 322.5,474.5C 324.061,486.232 319.394,494.065 308.5,498C 256.788,498.982 205.121,498.649 153.5,497C 142.578,491.836 136.912,483.169 136.5,471C 117.894,461.451 99.7276,451.285 82,440.5C 81.3333,438.5 81.3333,436.5 82,434.5C 86.0156,430.652 89.8489,426.652 93.5,422.5C 87.4783,415.646 81.645,408.646 76,401.5C 71.2625,392.597 71.4291,383.764 76.5,375C 75.23,369.572 74.3967,364.072 74,358.5C 73.3333,344.5 73.3333,330.5 74,316.5C 75.745,308.009 80.5784,302.009 88.5,298.5C 88.8333,297.5 89.1667,296.5 89.5,295.5C 90.9828,277.202 91.6494,258.868 91.5,240.5C 77.9111,240.956 68.4111,234.956 63,222.5C 52.3074,197.922 51.9741,173.255 62,148.5C 66.9614,139.76 74.4614,134.594 84.5,133C 88.4592,132.173 92.4592,131.673 96.5,131.5C 107.429,132.94 118.262,134.94 129,137.5C 129.833,137.333 130.667,137.167 131.5,137C 134.306,132.387 138.472,130.22 144,130.5C 152.476,131.105 160.643,132.939 168.5,136C 170.874,138.039 172.874,140.372 174.5,143C 178.858,143.788 183.191,144.622 187.5,145.5C 188.95,146.85 189.617,148.516 189.5,150.5C 188.751,151.531 188.085,152.698 187.5,154C 184.879,154.939 182.212,155.772 179.5,156.5C 187.345,178.853 189.679,201.853 186.5,225.5C 192.26,224.708 197.427,226.042 202,229.5C 207.774,228.097 213.608,227.097 219.5,226.5C 219.5,208.833 219.5,191.167 219.5,173.5C 213.024,172.845 207.524,170.178 203,165.5C 200.534,160.594 198.368,155.594 196.5,150.5C 196.665,147.482 196.498,144.482 196,141.5C 177.462,121.131 173.462,98.1312 184,72.5C 198.733,46.5407 221.233,34.2074 251.5,35.5C 277.74,40.0297 300.073,32.863 318.5,14C 321.338,11.8799 324.004,12.0466 326.5,14.5C 330.3,23.7983 331.466,33.4649 330,43.5C 329.654,45.2182 329.154,46.8849 328.5,48.5C 331.785,49.3236 335.118,49.8236 338.5,50C 339.126,50.7504 339.626,51.5838 340,52.5C 340.614,59.2505 340.114,65.9172 338.5,72.5C 367.564,77.6145 391.397,91.6145 410,114.5C 410.667,116.5 410.667,118.5 410,120.5C 405.994,123.676 402.16,127.009 398.5,130.5C 422.555,161.089 441.888,194.589 456.5,231C 456.01,232.982 455.01,234.649 453.5,236C 430.5,249.667 407.5,263.333 384.5,277C 384.444,280.694 384.277,284.527 384,288.5C 374.398,293.718 364.564,298.551 354.5,303C 351.386,304.087 349.053,303.254 347.5,300.5 Z M 313.5,117.5 C 317.086,119.58 320.253,122.246 323,125.5C 332.043,135.541 340.71,145.874 349,156.5C 357.469,172.936 364.969,189.769 371.5,207C 357.569,209.585 343.569,211.752 329.5,213.5C 332.626,191.056 327.126,171.056 313,153.5C 312.903,141.504 313.07,129.504 313.5,117.5 Z"/></g>
<g><path style="opacity:1" fill="#69697c" d="M 274.5,92.5 C 272.5,92.5 270.5,92.5 268.5,92.5C 268.567,91.0413 268.234,89.7079 267.5,88.5C 265.928,74.9277 264.928,61.261 264.5,47.5C 285.426,48.3604 303.76,42.027 319.5,28.5C 321.411,38.1895 319.244,46.8562 313,54.5C 312.313,56.9203 312.813,59.087 314.5,61C 319.528,61.5883 324.528,61.4216 329.5,60.5C 329.233,64.5305 328.233,68.3639 326.5,72C 313.5,72.3333 300.5,72.6667 287.5,73C 278.07,76.0102 273.737,82.5102 274.5,92.5 Z"/></g>
<g><path style="opacity:1" fill="#636375" d="M 264.5,47.5 C 264.928,61.261 265.928,74.9277 267.5,88.5C 250.587,86.222 240.421,93.5553 237,110.5C 236.933,116.098 236.099,121.431 234.5,126.5C 233.188,124.257 232.522,121.59 232.5,118.5C 230.812,95.5165 229.479,72.5165 228.5,49.5C 240.302,46.3569 252.302,45.6902 264.5,47.5 Z"/></g>
<g><path style="opacity:1" fill="#5b5b6e" d="M 228.5,49.5 C 229.479,72.5165 230.812,95.5165 232.5,118.5C 232.522,121.59 233.188,124.257 234.5,126.5C 233.952,128.394 232.952,130.06 231.5,131.5C 226.046,124.771 219.046,121.938 210.5,123C 206.493,124.828 202.826,126.828 199.5,129C 181.628,98.4813 187.295,73.148 216.5,53C 220.447,51.5162 224.447,50.3495 228.5,49.5 Z"/></g>
<g><path style="opacity:1" fill="#c4776c" d="M 323.5,82.5 C 324.568,83.4345 325.901,83.7678 327.5,83.5C 327.827,93.6806 327.494,103.681 326.5,113.5C 317.245,106.013 306.578,102.513 294.5,103C 287.001,99.5006 284.167,93.6673 286,85.5C 286.903,84.2986 288.069,83.4652 289.5,83C 300.828,82.5001 312.162,82.3335 323.5,82.5 Z"/></g>
<g><path style="opacity:1" fill="#b3695c" d="M 323.5,82.5 C 339.326,81.6667 353.993,85.3334 367.5,93.5C 367.5,108.167 367.5,122.833 367.5,137.5C 364.69,140.136 361.69,142.636 358.5,145C 357.241,145.982 355.908,146.315 354.5,146C 345.705,134.705 336.372,123.871 326.5,113.5C 327.494,103.681 327.827,93.6806 327.5,83.5C 325.901,83.7678 324.568,83.4345 323.5,82.5 Z"/></g>
<g><path style="opacity:1" fill="#f7d8d2" d="M 268.5,92.5 C 270.5,92.5 272.5,92.5 274.5,92.5C 275.947,98.7305 278.947,104.064 283.5,108.5C 284.986,112.137 286.986,115.47 289.5,118.5C 275.677,119.496 261.677,119.829 247.5,119.5C 245.587,104.982 251.921,97.3156 266.5,96.5C 267.705,95.4231 268.372,94.0898 268.5,92.5 Z"/></g>
<g><path style="opacity:1" fill="#a35e4f" d="M 367.5,93.5 C 378.611,99.2702 388.278,106.937 396.5,116.5C 387.343,124.241 377.676,131.241 367.5,137.5C 367.5,122.833 367.5,108.167 367.5,93.5 Z"/></g>
<g><path style="opacity:1" fill="#e0847e" d="M 283.5,108.5 C 287.033,111.266 291.033,112.933 295.5,113.5C 297.607,114.468 299.941,114.802 302.5,114.5C 302.5,118.5 302.5,122.5 302.5,126.5C 297.665,124.586 293.331,121.919 289.5,118.5C 286.986,115.47 284.986,112.137 283.5,108.5 Z"/></g>
<g><path style="opacity:1" fill="#855c65" d="M 295.5,113.5 C 298.167,113.5 300.833,113.5 303.5,113.5C 303.818,118.032 303.485,122.366 302.5,126.5C 302.5,122.5 302.5,118.5 302.5,114.5C 299.941,114.802 297.607,114.468 295.5,113.5 Z"/></g>
<g><path style="opacity:1" fill="#f9d3cc" d="M 289.5,118.5 C 293.331,121.919 297.665,124.586 302.5,126.5C 302.5,128.167 302.5,129.833 302.5,131.5C 301.566,132.568 301.232,133.901 301.5,135.5C 297.5,135.5 293.5,135.5 289.5,135.5C 287.5,135.5 285.5,135.5 283.5,135.5C 277.833,135.5 272.167,135.5 266.5,135.5C 264.5,135.5 262.5,135.5 260.5,135.5C 254.31,135.823 248.31,135.49 242.5,134.5C 244.762,129.715 246.428,124.715 247.5,119.5C 261.677,119.829 275.677,119.496 289.5,118.5 Z"/></g>
<g><path style="opacity:1" fill="#f8ccc4" d="M 302.5,131.5 C 301.866,137.145 301.532,142.811 301.5,148.5C 300.596,149.209 300.263,150.209 300.5,151.5C 269.822,151.257 239.155,151.591 208.5,152.5C 206.873,146.502 207.206,140.668 209.5,135C 218.01,131.506 222.843,134.339 224,143.5C 226.968,145.991 230.135,146.157 233.5,144C 236.732,140.938 239.732,137.771 242.5,134.5C 248.31,135.49 254.31,135.823 260.5,135.5C 257.149,140.42 258.149,144.087 263.5,146.5C 269.975,144.266 270.975,140.6 266.5,135.5C 272.167,135.5 277.833,135.5 283.5,135.5C 280.149,140.42 281.149,144.087 286.5,146.5C 292.987,144.216 293.987,140.549 289.5,135.5C 293.5,135.5 297.5,135.5 301.5,135.5C 301.232,133.901 301.566,132.568 302.5,131.5 Z"/></g>
<g><path style="opacity:1" fill="#e28580" d="M 260.5,135.5 C 262.5,135.5 264.5,135.5 266.5,135.5C 270.975,140.6 269.975,144.266 263.5,146.5C 258.149,144.087 257.149,140.42 260.5,135.5 Z"/></g>
<g><path style="opacity:1" fill="#e28580" d="M 283.5,135.5 C 285.5,135.5 287.5,135.5 289.5,135.5C 293.987,140.549 292.987,144.216 286.5,146.5C 281.149,144.087 280.149,140.42 283.5,135.5 Z"/></g>
<g><path style="opacity:1" fill="#df827d" d="M 404.5,157.5 C 390.808,158.528 377.142,159.861 363.5,161.5C 362.65,159.506 362.15,157.506 362,155.5C 370.397,148.766 379.064,142.432 388,136.5C 394.402,142.742 399.902,149.742 404.5,157.5 Z"/></g>
<g><path style="opacity:1" fill="#567c88" d="M 176.5,189.5 C 176.5,196.5 176.5,203.5 176.5,210.5C 169.167,210.5 161.833,210.5 154.5,210.5C 154.81,207.287 154.477,204.287 153.5,201.5C 152.125,182.541 147.959,164.207 141,146.5C 140.28,144.888 140.446,143.388 141.5,142C 147.506,142.221 153.506,142.888 159.5,144C 161.081,144.707 162.581,145.54 164,146.5C 171.12,159.98 175.286,174.313 176.5,189.5 Z"/></g>
<g><path style="opacity:1" fill="#82a6b4" d="M 141.5,188.5 C 132.494,188.666 123.494,188.5 114.5,188C 112.867,187.52 111.534,186.687 110.5,185.5C 110.543,169.458 105.543,155.292 95.5,143C 96.5,142.833 97.5,142.667 98.5,142.5C 109.349,144.922 120.182,147.255 131,149.5C 136.083,162.087 139.583,175.087 141.5,188.5 Z"/></g>
<g><path style="opacity:1" fill="#577b87" d="M 72.5,216.5 C 75.878,217.862 79.2113,217.695 82.5,216C 89.1899,209.615 93.0232,201.782 94,192.5C 94.6667,185.833 94.6667,179.167 94,172.5C 91.7149,163.198 85.8816,159.032 76.5,160C 68.4604,169.229 67.4604,179.062 73.5,189.5C 74.1843,184.792 75.0177,180.126 76,175.5C 78.4477,172.455 81.281,171.955 84.5,174C 88.4582,183.841 88.2915,193.674 84,203.5C 80.8324,207.533 76.9991,208.367 72.5,206C 70.6997,204.188 69.0331,202.355 67.5,200.5C 63.4442,183.492 65.2775,167.159 73,151.5C 79.7193,143.49 85.7193,144.157 91,153.5C 102.851,176.518 103.518,199.852 93,223.5C 90.3667,228.067 86.5333,229.567 81.5,228C 77.5216,224.864 74.5216,221.031 72.5,216.5 Z"/></g>
<g><path style="opacity:1" fill="#f9c7be" d="M 301.5,148.5 C 300.884,155.841 300.217,163.174 299.5,170.5C 276.5,170.5 253.5,170.5 230.5,170.5C 230.768,168.901 230.434,167.568 229.5,166.5C 229.047,165.542 228.381,164.708 227.5,164C 217.903,165.214 211.569,161.381 208.5,152.5C 239.155,151.591 269.822,151.257 300.5,151.5C 300.263,150.209 300.596,149.209 301.5,148.5 Z"/></g>
<g><path style="opacity:1" fill="#7fa5b2" d="M 72.5,216.5 C 70.2191,211.382 68.5524,206.048 67.5,200.5C 69.0331,202.355 70.6997,204.188 72.5,206C 76.9991,208.367 80.8324,207.533 84,203.5C 88.2915,193.674 88.4582,183.841 84.5,174C 81.281,171.955 78.4477,172.455 76,175.5C 75.0177,180.126 74.1843,184.792 73.5,189.5C 67.4604,179.062 68.4604,169.229 76.5,160C 85.8816,159.032 91.7149,163.198 94,172.5C 94.6667,179.167 94.6667,185.833 94,192.5C 93.0232,201.782 89.1899,209.615 82.5,216C 79.2113,217.695 75.878,217.862 72.5,216.5 Z"/></g>
<g><path style="opacity:1" fill="#f8d3cb" d="M 404.5,157.5 C 411.653,167.794 418.32,178.461 424.5,189.5C 424.38,190.586 423.713,191.253 422.5,191.5C 405.531,186.953 388.531,182.62 371.5,178.5C 369.106,172.713 366.44,167.046 363.5,161.5C 377.142,159.861 390.808,158.528 404.5,157.5 Z"/></g>
<g><path style="opacity:1" fill="#567986" d="M 309.5,168.5 C 313.639,173.783 316.473,179.783 318,186.5C 319.766,196.48 319.933,206.48 318.5,216.5C 313.644,216.469 308.811,216.802 304,217.5C 299.133,215.904 294.133,214.904 289,214.5C 284.794,214.117 280.961,215.117 277.5,217.5C 276.516,214.572 276.183,211.572 276.5,208.5C 290.903,208.276 300.403,201.276 305,187.5C 307.29,181.34 308.79,175.007 309.5,168.5 Z"/></g>
<g><path style="opacity:1" fill="#f8bfb5" d="M 229.5,166.5 C 230.434,167.568 230.768,168.901 230.5,170.5C 253.5,170.5 276.5,170.5 299.5,170.5C 297.893,176.323 295.893,181.989 293.5,187.5C 276.244,186.515 258.91,186.181 241.5,186.5C 231.343,183.651 227.343,176.985 229.5,166.5 Z"/></g>
<g><path style="opacity:1" fill="#f8cbc4" d="M 371.5,178.5 C 388.531,182.62 405.531,186.953 422.5,191.5C 423.713,191.253 424.38,190.586 424.5,189.5C 431.994,201.656 438.328,214.489 443.5,228C 443.164,229.03 442.497,229.53 441.5,229.5C 423.954,223.614 405.954,219.281 387.5,216.5C 391.335,215.539 395.335,214.705 399.5,214C 402.997,208.507 401.497,205.341 395,204.5C 391.111,204.936 387.277,205.603 383.5,206.5C 379.306,197.254 375.306,187.92 371.5,178.5 Z"/></g>
<g><path style="opacity:1" fill="#f3b6ad" d="M 241.5,186.5 C 258.91,186.181 276.244,186.515 293.5,187.5C 290.395,194.109 285.229,197.776 278,198.5C 264.892,197.023 252.725,193.023 241.5,186.5 Z"/></g>
<g><path style="opacity:1" fill="#df837d" d="M 231.5,193.5 C 242.433,199.799 254.099,204.133 266.5,206.5C 265.978,214.091 266.978,221.425 269.5,228.5C 255.076,225.453 242.076,219.453 230.5,210.5C 230.178,204.642 230.511,198.975 231.5,193.5 Z"/></g>
<g><path style="opacity:1" fill="#7ca0ae" d="M 110.5,185.5 C 111.534,186.687 112.867,187.52 114.5,188C 123.494,188.5 132.494,188.666 141.5,188.5C 142.314,190.631 142.814,192.964 143,195.5C 143.5,205.494 143.666,215.494 143.5,225.5C 129.406,226.1 115.406,227.266 101.5,229C 109.008,215.462 112.008,200.962 110.5,185.5 Z"/></g>
<g><path style="opacity:1" fill="#7ea3b1" d="M 189.5,150.5 C 191.833,150.5 194.167,150.5 196.5,150.5C 198.368,155.594 200.534,160.594 203,165.5C 207.524,170.178 213.024,172.845 219.5,173.5C 219.5,191.167 219.5,208.833 219.5,226.5C 213.608,227.097 207.774,228.097 202,229.5C 197.427,226.042 192.26,224.708 186.5,225.5C 189.679,201.853 187.345,178.853 179.5,156.5C 182.212,155.772 184.879,154.939 187.5,154C 188.085,152.698 188.751,151.531 189.5,150.5 Z"/></g>
<g><path style="opacity:1" fill="#9d8288" d="M 231.5,193.5 C 230.511,198.975 230.178,204.642 230.5,210.5C 230.5,219.5 230.5,228.5 230.5,237.5C 229.174,222.661 229.174,207.661 230.5,192.5C 231.107,192.624 231.44,192.957 231.5,193.5 Z"/></g>
<g><path style="opacity:1" fill="#547481" d="M 176.5,189.5 C 178.003,202.421 177.503,215.421 175,228.5C 172.205,230.293 169.705,232.46 167.5,235C 162.511,235.604 158.011,234.437 154,231.5C 153.5,221.506 153.334,211.506 153.5,201.5C 154.477,204.287 154.81,207.287 154.5,210.5C 161.833,210.5 169.167,210.5 176.5,210.5C 176.5,203.5 176.5,196.5 176.5,189.5 Z"/></g>
<g><path style="opacity:1" fill="#f8c6b9" d="M 387.5,216.5 C 405.954,219.281 423.954,223.614 441.5,229.5C 438.124,232.194 434.457,234.527 430.5,236.5C 411.354,230.878 392.02,225.544 372.5,220.5C 371.047,219.175 371.381,218.342 373.5,218C 378.137,217.171 382.804,216.671 387.5,216.5 Z"/></g>
<g><path style="opacity:1" fill="#f7f0e9" d="M 370.5,268.5 C 357.5,268.5 344.5,268.5 331.5,268.5C 326.36,253.886 319.36,240.219 310.5,227.5C 327.415,224.512 344.415,222.179 361.5,220.5C 365.015,236.406 368.015,252.406 370.5,268.5 Z"/></g>
<g><path style="opacity:1" fill="#f8beb4" d="M 372.5,220.5 C 392.02,225.544 411.354,230.878 430.5,236.5C 414.206,246.438 397.873,256.438 381.5,266.5C 377.733,251.333 374.733,236 372.5,220.5 Z"/></g>
<g><path style="opacity:1" fill="#f9dbd4" d="M 230.5,210.5 C 242.076,219.453 255.076,225.453 269.5,228.5C 270.847,231.193 272.18,233.86 273.5,236.5C 273.5,237.5 273.5,238.5 273.5,239.5C 259.826,240.09 246.159,240.757 232.5,241.5C 231.326,240.486 230.66,239.153 230.5,237.5C 230.5,228.5 230.5,219.5 230.5,210.5 Z"/></g>
<g><path style="opacity:1" fill="#507482" d="M 134.5,236.5 C 138.182,236.335 141.848,236.501 145.5,237C 150.184,243.185 156.518,246.019 164.5,245.5C 164.657,246.873 164.49,248.207 164,249.5C 154.63,259.202 145.63,269.202 137,279.5C 136.685,265.129 135.852,250.796 134.5,236.5 Z"/></g>
<g><path style="opacity:1" fill="#527583" d="M 125.5,252.5 C 124.596,251.791 124.263,250.791 124.5,249.5C 117.167,249.5 109.833,249.5 102.5,249.5C 102.5,246.167 102.5,242.833 102.5,239.5C 109.855,239.052 117.188,238.385 124.5,237.5C 124.413,242.537 124.746,247.537 125.5,252.5 Z"/></g>
<g><path style="opacity:1" fill="#f7cfc8" d="M 273.5,236.5 C 275.027,240.925 274.527,245.258 272,249.5C 268,252.167 264.667,255.5 262,259.5C 259.22,266.286 257.22,273.286 256,280.5C 254.457,273.114 252.79,265.781 251,258.5C 243.385,254.384 237.218,248.717 232.5,241.5C 246.159,240.757 259.826,240.09 273.5,239.5C 273.5,238.5 273.5,237.5 273.5,236.5 Z"/></g>
<g><path style="opacity:1" fill="#646476" d="M 324.5,283.5 C 318.5,283.833 312.5,284.167 306.5,284.5C 300.242,264.559 291.575,245.726 280.5,228C 284.712,224.351 289.379,223.684 294.5,226C 309.906,242.311 319.906,261.478 324.5,283.5 Z"/></g>
<g><path style="opacity:1" fill="#f8f1e7" d="M 242.5,267.5 C 231.012,268.495 219.345,268.828 207.5,268.5C 207.806,265.615 207.473,262.948 206.5,260.5C 206.521,253.146 206.187,245.813 205.5,238.5C 210.188,237.532 214.855,237.532 219.5,238.5C 223.456,249.911 230.789,258.411 241.5,264C 242.337,265.011 242.67,266.178 242.5,267.5 Z"/></g>
<g><path style="opacity:1" fill="#656577" d="M 196.5,293.5 C 190.155,293.653 183.822,293.986 177.5,294.5C 176.714,276.496 176.214,258.496 176,240.5C 180,237.727 184.5,236.394 189.5,236.5C 191.641,236.613 193.475,237.28 195,238.5C 196.313,256.808 196.813,275.141 196.5,293.5 Z"/></g>
<g><path style="opacity:1" fill="#7196a3" d="M 102.5,249.5 C 109.833,249.5 117.167,249.5 124.5,249.5C 124.263,250.791 124.596,251.791 125.5,252.5C 126.545,265.481 126.711,278.481 126,291.5C 124.471,292.729 123.304,294.229 122.5,296C 115.508,296.5 108.508,296.666 101.5,296.5C 101.45,280.823 101.783,265.156 102.5,249.5 Z"/></g>
<g><path style="opacity:1" fill="#f7eae4" d="M 331.5,268.5 C 344.5,268.5 357.5,268.5 370.5,268.5C 371.735,272.31 372.735,276.31 373.5,280.5C 373.167,281.167 372.833,281.833 372.5,282.5C 364.833,286 357.167,289.5 349.5,293C 347.722,295.135 347.055,297.635 347.5,300.5C 345.249,301.695 342.915,302.695 340.5,303.5C 338.305,291.724 335.305,280.057 331.5,268.5 Z"/></g>
<g><path style="opacity:1" fill="#5a5a6d" d="M 324.5,283.5 C 330.774,300.372 332.274,317.706 329,335.5C 327.156,340.827 324.323,345.494 320.5,349.5C 318.416,327.218 313.749,305.551 306.5,284.5C 312.5,284.167 318.5,283.833 324.5,283.5 Z"/></g>
<g><path style="opacity:1" fill="#f7ebe1" d="M 299.5,297.5 C 293.872,298.829 287.872,299.496 281.5,299.5C 275.128,299.496 269.128,298.829 263.5,297.5C 265.347,287.118 267.514,276.785 270,266.5C 274.291,262.036 278.291,257.37 282,252.5C 289.498,266.834 295.332,281.834 299.5,297.5 Z"/></g>
<g><path style="opacity:1" fill="#f8ebe1" d="M 242.5,267.5 C 245.1,277.929 247.1,288.596 248.5,299.5C 244.833,299.5 241.167,299.5 237.5,299.5C 237.19,293.697 234.19,291.53 228.5,293C 227.619,293.708 226.953,294.542 226.5,295.5C 225.566,296.568 225.232,297.901 225.5,299.5C 219.5,299.5 213.5,299.5 207.5,299.5C 207.5,289.167 207.5,278.833 207.5,268.5C 219.345,268.828 231.012,268.495 242.5,267.5 Z"/></g>
<g><path style="opacity:1" fill="#cab2ab" d="M 224.5,272.5 C 231,271.499 233.5,274.165 232,280.5C 228.255,284.566 224.922,284.233 222,279.5C 221.162,276.519 221.995,274.186 224.5,272.5 Z"/></g>
<g><path style="opacity:1" fill="#cab1aa" d="M 237.5,299.5 C 231.246,305.682 227.579,304.349 226.5,295.5C 226.953,294.542 227.619,293.708 228.5,293C 234.19,291.53 237.19,293.697 237.5,299.5 Z"/></g>
<g><path style="opacity:1" fill="#f5e2dd" d="M 206.5,260.5 C 207.473,262.948 207.806,265.615 207.5,268.5C 207.5,278.833 207.5,289.167 207.5,299.5C 213.5,299.5 219.5,299.5 225.5,299.5C 225.232,297.901 225.566,296.568 226.5,295.5C 227.579,304.349 231.246,305.682 237.5,299.5C 241.167,299.5 244.833,299.5 248.5,299.5C 249.601,303.497 250.768,307.497 252,311.5C 254.916,313.013 257.582,312.68 260,310.5C 261.318,306.071 262.484,301.738 263.5,297.5C 269.128,298.829 275.128,299.496 281.5,299.5C 287.872,299.496 293.872,298.829 299.5,297.5C 301.591,302.191 302.924,307.191 303.5,312.5C 271.517,314.493 239.184,315.159 206.5,314.5C 206.5,313.5 206.5,312.5 206.5,311.5C 206.5,294.5 206.5,277.5 206.5,260.5 Z"/></g>
<g><path style="opacity:1" fill="#f4e4dd" d="M 164.5,262.5 C 166.313,272.116 167.146,282.116 167,292.5C 167.882,312.528 167.548,332.528 166,352.5C 164.292,354.543 162.292,356.21 160,357.5C 147.642,341.976 135.476,326.31 123.5,310.5C 135.481,296.685 147.648,283.018 160,269.5C 161.75,267.266 163.25,264.932 164.5,262.5 Z"/></g>
<g><path style="opacity:1" fill="#678c98" d="M 93.5,307.5 C 99.5,307.5 105.5,307.5 111.5,307.5C 111.34,309.199 111.506,310.866 112,312.5C 114.692,315.692 117.192,319.025 119.5,322.5C 108.333,336.833 97.1667,351.167 86,365.5C 83.6584,350.245 82.9917,334.912 84,319.5C 85.8915,314.447 89.0582,310.447 93.5,307.5 Z"/></g>
<g><path style="opacity:1" fill="#58586b" d="M 196.5,293.5 C 196.061,312.954 192.894,331.954 187,350.5C 185.112,355.945 182.445,360.945 179,365.5C 177.318,362.607 176.485,359.441 176.5,356C 177.447,335.515 177.78,315.015 177.5,294.5C 183.822,293.986 190.155,293.653 196.5,293.5 Z"/></g>
<g><path style="opacity:1" fill="#f1e6e0" d="M 206.5,311.5 C 206.5,312.5 206.5,313.5 206.5,314.5C 239.184,315.159 271.517,314.493 303.5,312.5C 304.918,316.287 305.918,320.287 306.5,324.5C 272.5,324.5 238.5,324.5 204.5,324.5C 204.737,325.791 204.404,326.791 203.5,327.5C 204.269,321.996 205.269,316.662 206.5,311.5 Z"/></g>
<g><path style="opacity:1" fill="#f2e6d9" d="M 306.5,324.5 C 306.5,325.5 306.5,326.5 306.5,327.5C 306.5,328.5 306.5,329.5 306.5,330.5C 272.163,330.495 237.829,330.829 203.5,331.5C 203.5,330.167 203.5,328.833 203.5,327.5C 204.404,326.791 204.737,325.791 204.5,324.5C 238.5,324.5 272.5,324.5 306.5,324.5 Z"/></g>
<g><path style="opacity:1" fill="#f2e0d9" d="M 306.5,327.5 C 308.602,334.55 309.602,341.883 309.5,349.5C 309.5,352.167 309.5,354.833 309.5,357.5C 271.5,357.5 233.5,357.5 195.5,357.5C 198.38,348.863 201.047,340.196 203.5,331.5C 237.829,330.829 272.163,330.495 306.5,330.5C 306.5,329.5 306.5,328.5 306.5,327.5 Z"/></g>
<g><path style="opacity:1" fill="#de827d" d="M 142.5,374.5 C 142.167,373.5 141.5,372.833 140.5,372.5C 131.527,364.194 122.86,355.527 114.5,346.5C 118.262,341.309 122.262,336.309 126.5,331.5C 135.167,342.5 143.833,353.5 152.5,364.5C 149.479,368.188 146.146,371.521 142.5,374.5 Z"/></g>
<g><path style="opacity:1" fill="#f2e0d3" d="M 195.5,357.5 C 233.5,357.5 271.5,357.5 309.5,357.5C 309.5,360.833 309.5,364.167 309.5,367.5C 269.996,367.832 230.663,367.499 191.5,366.5C 192.561,363.378 193.895,360.378 195.5,357.5 Z"/></g>
<g><path style="opacity:1" fill="#f8d4cd" d="M 114.5,346.5 C 122.86,355.527 131.527,364.194 140.5,372.5C 125.152,373.5 109.819,373.166 94.5,371.5C 100.937,362.945 107.604,354.612 114.5,346.5 Z"/></g>
<g><path style="opacity:1" fill="#f1d9d3" d="M 191.5,366.5 C 230.663,367.499 269.996,367.832 309.5,367.5C 309.5,375.167 309.5,382.833 309.5,390.5C 268.167,390.5 226.833,390.5 185.5,390.5C 185.5,385.167 185.5,379.833 185.5,374.5C 187.512,371.795 189.512,369.128 191.5,366.5 Z"/></g>
<g><path style="opacity:1" fill="#f8cac2" d="M 94.5,371.5 C 109.819,373.166 125.152,373.5 140.5,372.5C 141.5,372.833 142.167,373.5 142.5,374.5C 135.806,381.526 129.139,388.526 122.5,395.5C 110.136,395.752 97.803,395.418 85.5,394.5C 84.8826,394.389 84.3826,394.056 84,393.5C 83.3333,390.5 83.3333,387.5 84,384.5C 87.0395,379.731 90.5395,375.397 94.5,371.5 Z"/></g>
<g><path style="opacity:1" fill="#4a647c" d="M 166.5,365.5 C 168.371,369.191 170.871,372.525 174,375.5C 174.667,396.833 174.667,418.167 174,439.5C 162.996,423.82 150.496,409.32 136.5,396C 146.757,385.911 156.757,375.745 166.5,365.5 Z"/></g>
<g><path style="opacity:1" fill="#ecdacd" d="M 185.5,390.5 C 226.833,390.5 268.167,390.5 309.5,390.5C 309.5,393.167 309.5,395.833 309.5,398.5C 268.167,398.5 226.833,398.5 185.5,398.5C 185.5,395.833 185.5,393.167 185.5,390.5 Z"/></g>
<g><path style="opacity:1" fill="#f6bdb4" d="M 85.5,394.5 C 97.803,395.418 110.136,395.752 122.5,395.5C 115.562,401.937 108.729,408.603 102,415.5C 96.2618,408.606 90.7618,401.606 85.5,394.5 Z"/></g>
<g><path style="opacity:1" fill="#ebd2cc" d="M 309.5,349.5 C 310.332,372.996 310.832,396.663 311,420.5C 311.791,421.745 312.291,423.078 312.5,424.5C 270.239,423.506 227.906,423.173 185.5,423.5C 185.5,415.167 185.5,406.833 185.5,398.5C 226.833,398.5 268.167,398.5 309.5,398.5C 309.5,395.833 309.5,393.167 309.5,390.5C 309.5,382.833 309.5,375.167 309.5,367.5C 309.5,364.167 309.5,360.833 309.5,357.5C 309.5,354.833 309.5,352.167 309.5,349.5 Z"/></g>
<g><path style="opacity:1" fill="#b56b5e" d="M 143.5,418.5 C 143.829,433.01 143.496,447.343 142.5,461.5C 134.839,458.005 127.505,454.005 120.5,449.5C 120.5,437.167 120.5,424.833 120.5,412.5C 123.129,409.369 125.962,406.369 129,403.5C 134.709,407.708 139.542,412.708 143.5,418.5 Z"/></g>
<g><path style="opacity:1" fill="#c2766b" d="M 120.5,412.5 C 120.5,424.833 120.5,437.167 120.5,449.5C 111.902,445.533 103.568,441.033 95.5,436C 104.005,428.328 112.338,420.495 120.5,412.5 Z"/></g>
<g><path style="opacity:1" fill="#aa6254" d="M 143.5,418.5 C 151.228,426.563 158.228,435.23 164.5,444.5C 163.834,451.325 163.5,458.325 163.5,465.5C 163.535,473.069 164.202,480.402 165.5,487.5C 151.884,486.677 146.051,479.343 148,465.5C 146.188,464.023 144.355,462.69 142.5,461.5C 143.496,447.343 143.829,433.01 143.5,418.5 Z"/></g>
<g><path style="opacity:1" fill="#ecd3c7" d="M 185.5,423.5 C 227.906,423.173 270.239,423.506 312.5,424.5C 313.11,425.391 313.443,426.391 313.5,427.5C 271.18,429.495 228.513,430.161 185.5,429.5C 185.5,427.5 185.5,425.5 185.5,423.5 Z"/></g>
<g><path style="opacity:1" fill="#ebccc7" d="M 185.5,374.5 C 185.5,379.833 185.5,385.167 185.5,390.5C 185.5,393.167 185.5,395.833 185.5,398.5C 185.5,406.833 185.5,415.167 185.5,423.5C 185.5,425.5 185.5,427.5 185.5,429.5C 228.513,430.161 271.18,429.495 313.5,427.5C 318.191,433.392 318.691,439.726 315,446.5C 313.457,448.378 311.624,449.878 309.5,451C 267.835,451.5 226.168,451.667 184.5,451.5C 184.169,425.661 184.502,399.995 185.5,374.5 Z"/></g>
<g><path style="opacity:1" fill="#9f5a4b" d="M 164.5,444.5 C 168.332,448.819 171.165,453.819 173,459.5C 174.353,468.775 174.853,478.109 174.5,487.5C 171.5,487.5 168.5,487.5 165.5,487.5C 164.202,480.402 163.535,473.069 163.5,465.5C 163.5,458.325 163.834,451.325 164.5,444.5 Z"/></g>
<g><path style="opacity:1" fill="#5a5a6d" d="M 246.5,487.5 C 246.5,479.167 246.5,470.833 246.5,462.5C 233.833,462.5 221.167,462.5 208.5,462.5C 207.613,470.476 206.946,478.476 206.5,486.5C 208.735,486.205 210.735,486.539 212.5,487.5C 203.167,487.5 193.833,487.5 184.5,487.5C 184.5,478.833 184.5,470.167 184.5,461.5C 205.5,461.5 226.5,461.5 247.5,461.5C 247.826,470.349 247.493,479.016 246.5,487.5 Z"/></g>
<g><path style="opacity:1" fill="#67677a" d="M 246.5,487.5 C 235.167,487.5 223.833,487.5 212.5,487.5C 210.735,486.539 208.735,486.205 206.5,486.5C 206.946,478.476 207.613,470.476 208.5,462.5C 221.167,462.5 233.833,462.5 246.5,462.5C 246.5,470.833 246.5,479.167 246.5,487.5 Z"/></g>
<g><path style="opacity:1" fill="#faaf55" d="M 284.5,465.5 C 275.657,470.422 266.657,475.088 257.5,479.5C 257.5,473.833 257.5,468.167 257.5,462.5C 266.5,462.5 275.5,462.5 284.5,462.5C 284.5,463.5 284.5,464.5 284.5,465.5 Z"/></g>
<g><path style="opacity:1" fill="#5d5d6f" d="M 295.5,462.5 C 307.251,458.906 312.584,463.073 311.5,475C 312.011,486.304 306.678,490.471 295.5,487.5C 295.5,479.167 295.5,470.833 295.5,462.5 Z"/></g>
<g><path style="opacity:1" fill="#f9a64f" d="M 284.5,465.5 C 284.5,472.833 284.5,480.167 284.5,487.5C 275.5,487.5 266.5,487.5 257.5,487.5C 257.5,484.833 257.5,482.167 257.5,479.5C 266.657,475.088 275.657,470.422 284.5,465.5 Z"/></g>
</svg>
