<?xml version="1.0" encoding="UTF-8"?>
<!DOCTYPE svg PUBLIC "-//W3C//DTD SVG 1.1//EN" "http://www.w3.org/Graphics/SVG/1.1/DTD/svg11.dtd">
<svg xmlns="http://www.w3.org/2000/svg" version="1.1" width="512px" height="512px" style="shape-rendering:geometricPrecision; text-rendering:geometricPrecision; image-rendering:optimizeQuality; fill-rule:evenodd; clip-rule:evenodd" xmlns:xlink="http://www.w3.org/1999/xlink">
<g><path style="opacity:1" fill="#505063" d="M 332.5,74.5 C 330.5,74.5 328.5,74.5 326.5,74.5C 317.833,74.5 309.167,74.5 300.5,74.5C 293.875,73.5378 287.875,74.8711 282.5,78.5C 281.645,66.1741 280.812,53.8407 280,41.5C 279.59,40.0993 279.09,38.766 278.5,37.5C 296.114,34.8602 311.114,27.1936 323.5,14.5C 324.79,16.6565 325.624,18.9899 326,21.5C 327.985,32.5867 326.152,42.92 320.5,52.5C 320.667,52.8333 320.833,53.1667 321,53.5C 326.059,52.305 331.225,51.6383 336.5,51.5C 336.453,59.4015 335.119,67.0682 332.5,74.5 Z"/></g>
<g><path style="opacity:1" fill="#444456" d="M 242.5,37.5 C 244.231,57.4599 245.564,77.4599 246.5,97.5C 242.054,104.458 240.387,112.125 241.5,120.5C 239.7,125.965 237.034,130.965 233.5,135.5C 232.027,136.74 230.36,137.74 228.5,138.5C 226.995,131.796 222.995,127.463 216.5,125.5C 215.289,99.1298 213.623,72.7965 211.5,46.5C 221.163,41.28 231.496,38.28 242.5,37.5 Z"/></g>
<g><path style="opacity:1" fill="#4b4b5c" d="M 242.5,37.5 C 254.541,37.928 266.541,37.928 278.5,37.5C 279.09,38.766 279.59,40.0993 280,41.5C 280.812,53.8407 281.645,66.1741 282.5,78.5C 280.748,82.2273 280.081,86.2273 280.5,90.5C 272.16,90.3336 263.827,90.5003 255.5,91C 252.039,92.6428 249.039,94.8095 246.5,97.5C 245.564,77.4599 244.231,57.4599 242.5,37.5 Z"/></g>
<g><path style="opacity:1" fill="#3e3d50" d="M 211.5,46.5 C 213.623,72.7965 215.289,99.1298 216.5,125.5C 208.682,125.729 203.349,129.396 200.5,136.5C 186.069,123.383 180.236,107.05 183,87.5C 186.504,69.5229 196.004,55.8563 211.5,46.5 Z"/></g>
<g><path style="opacity:1" fill="#b16558" d="M 300.5,74.5 C 309.167,74.5 317.833,74.5 326.5,74.5C 327.209,75.404 328.209,75.7373 329.5,75.5C 329.829,90.676 329.496,105.676 328.5,120.5C 325.369,117.871 322.369,115.038 319.5,112C 316.439,109.965 313.105,108.799 309.5,108.5C 307.012,106.612 304.012,105.945 300.5,106.5C 300.5,95.8333 300.5,85.1667 300.5,74.5 Z"/></g>
<g><path style="opacity:1" fill="#bc6e64" d="M 300.5,74.5 C 300.5,85.1667 300.5,95.8333 300.5,106.5C 297.393,106.649 294.393,106.149 291.5,105C 288.035,102.537 284.869,99.7041 282,96.5C 281.536,97.0944 281.369,97.7611 281.5,98.5C 280.527,96.0521 280.194,93.3854 280.5,90.5C 280.081,86.2273 280.748,82.2273 282.5,78.5C 287.875,74.8711 293.875,73.5378 300.5,74.5 Z"/></g>
<g><path style="opacity:1" fill="#a3584c" d="M 326.5,74.5 C 328.5,74.5 330.5,74.5 332.5,74.5C 342.469,74.0921 351.802,76.0921 360.5,80.5C 359.167,103.167 359.167,125.833 360.5,148.5C 359.421,150.543 357.754,151.876 355.5,152.5C 346.53,141.858 337.53,131.192 328.5,120.5C 329.496,105.676 329.829,90.676 329.5,75.5C 328.209,75.7373 327.209,75.404 326.5,74.5 Z"/></g>
<g><path style="opacity:1" fill="#995042" d="M 360.5,80.5 C 370.247,84.2056 379.247,89.2056 387.5,95.5C 387.172,106.679 387.505,117.679 388.5,128.5C 379.527,135.655 370.194,142.321 360.5,148.5C 359.167,125.833 359.167,103.167 360.5,80.5 Z"/></g>
<g><path style="opacity:1" fill="#d4716c" d="M 300.5,106.5 C 304.012,105.945 307.012,106.612 309.5,108.5C 309.5,114.167 309.5,119.833 309.5,125.5C 303.254,124.543 297.588,122.21 292.5,118.5C 286.286,113.274 282.62,106.607 281.5,98.5C 281.369,97.7611 281.536,97.0944 282,96.5C 284.869,99.7041 288.035,102.537 291.5,105C 294.393,106.149 297.393,106.649 300.5,106.5 Z"/></g>
<g><path style="opacity:1" fill="#e5c7c1" d="M 280.5,90.5 C 280.194,93.3854 280.527,96.0521 281.5,98.5C 282.62,106.607 286.286,113.274 292.5,118.5C 275.669,119.442 258.669,120.108 241.5,120.5C 240.387,112.125 242.054,104.458 246.5,97.5C 249.039,94.8095 252.039,92.6428 255.5,91C 263.827,90.5003 272.16,90.3336 280.5,90.5 Z"/></g>
<g><path style="opacity:1" fill="#8c4637" d="M 387.5,95.5 C 394.973,101.139 401.639,107.639 407.5,115C 402.968,119.356 397.968,123.189 392.5,126.5C 391.167,127.167 389.833,127.833 388.5,128.5C 387.505,117.679 387.172,106.679 387.5,95.5 Z"/></g>
<g><path style="opacity:1" fill="#e6c0b9" d="M 292.5,118.5 C 297.588,122.21 303.254,124.543 309.5,125.5C 308.656,129.099 308.323,132.766 308.5,136.5C 303.167,136.5 297.833,136.5 292.5,136.5C 291.488,134.124 289.655,133.124 287,133.5C 284.297,133.12 282.463,134.12 281.5,136.5C 277.5,136.5 273.5,136.5 269.5,136.5C 265.71,132.577 262.043,132.577 258.5,136.5C 249.983,136.826 241.65,136.493 233.5,135.5C 237.034,130.965 239.7,125.965 241.5,120.5C 258.669,120.108 275.669,119.442 292.5,118.5 Z"/></g>
<g><path style="opacity:1" fill="#d4716b" d="M 392.5,126.5 C 399.667,135.51 406.334,144.844 412.5,154.5C 394.98,156.611 377.314,158.611 359.5,160.5C 357.659,158.151 356.326,155.485 355.5,152.5C 357.754,151.876 359.421,150.543 360.5,148.5C 370.194,142.321 379.527,135.655 388.5,128.5C 389.833,127.833 391.167,127.167 392.5,126.5 Z"/></g>
<g><path style="opacity:1" fill="#d4716b" d="M 269.5,136.5 C 269.103,143.693 265.769,145.693 259.5,142.5C 258.652,140.591 258.318,138.591 258.5,136.5C 262.043,132.577 265.71,132.577 269.5,136.5 Z"/></g>
<g><path style="opacity:1" fill="#d4726d" d="M 292.5,136.5 C 293.762,141.422 291.929,144.089 287,144.5C 282.972,143.468 281.138,140.801 281.5,136.5C 282.463,134.12 284.297,133.12 287,133.5C 289.655,133.124 291.488,134.124 292.5,136.5 Z"/></g>
<g><path style="opacity:1" fill="#6f95a7" d="M 132.5,141.5 C 133.967,145.901 135.634,150.234 137.5,154.5C 138.812,158.416 139.812,162.416 140.5,166.5C 137.232,167.822 133.565,168.489 129.5,168.5C 119.841,167.908 110.174,167.574 100.5,167.5C 98.5667,157.464 93.9,148.964 86.5,142C 83.9289,140.546 81.2622,139.38 78.5,138.5C 83.4535,136.198 88.7869,134.865 94.5,134.5C 107.078,137.349 119.744,139.682 132.5,141.5 Z"/></g>
<g><path style="opacity:1" fill="#4a6f76" d="M 169.5,146.5 C 170.234,147.708 170.567,149.041 170.5,150.5C 161.838,151.379 153.005,152.045 144,152.5C 141.39,152.533 139.223,153.2 137.5,154.5C 135.634,150.234 133.967,145.901 132.5,141.5C 133.658,136.513 136.825,133.846 142,133.5C 149.274,134.518 156.441,136.018 163.5,138C 166.523,140.177 168.523,143.011 169.5,146.5 Z"/></g>
<g><path style="opacity:1" fill="#e6bab2" d="M 216.5,125.5 C 222.995,127.463 226.995,131.796 228.5,138.5C 230.36,137.74 232.027,136.74 233.5,135.5C 241.65,136.493 249.983,136.826 258.5,136.5C 258.318,138.591 258.652,140.591 259.5,142.5C 265.769,145.693 269.103,143.693 269.5,136.5C 273.5,136.5 277.5,136.5 281.5,136.5C 281.138,140.801 282.972,143.468 287,144.5C 291.929,144.089 293.762,141.422 292.5,136.5C 297.833,136.5 303.167,136.5 308.5,136.5C 308.431,141.854 308.098,147.187 307.5,152.5C 272.828,152.437 238.162,152.77 203.5,153.5C 202.655,152.329 201.989,150.995 201.5,149.5C 200.564,145.265 200.231,140.931 200.5,136.5C 203.349,129.396 208.682,125.729 216.5,125.5 Z"/></g>
<g><path style="opacity:1" fill="#7096a7" d="M 169.5,146.5 C 180.14,147.764 190.806,148.764 201.5,149.5C 201.989,150.995 202.655,152.329 203.5,153.5C 203.978,158.801 206.645,162.467 211.5,164.5C 212.93,165.537 214.597,166.204 216.5,166.5C 218.607,167.468 220.941,167.802 223.5,167.5C 223.5,168.833 223.5,170.167 223.5,171.5C 208.127,171.069 192.793,170.402 177.5,169.5C 176.131,162.718 173.798,156.384 170.5,150.5C 170.567,149.041 170.234,147.708 169.5,146.5 Z"/></g>
<g><path style="opacity:1" fill="#e6b4ae" d="M 307.5,152.5 C 307.5,152.833 307.5,153.167 307.5,153.5C 306.833,156.833 306.167,160.167 305.5,163.5C 305.44,162.957 305.107,162.624 304.5,162.5C 273.373,163.159 242.373,163.826 211.5,164.5C 206.645,162.467 203.978,158.801 203.5,153.5C 238.162,152.77 272.828,152.437 307.5,152.5 Z"/></g>
<g><path style="opacity:1" fill="#446a76" d="M 170.5,150.5 C 173.798,156.384 176.131,162.718 177.5,169.5C 179.699,178.029 181.032,186.695 181.5,195.5C 181.825,202.687 181.491,209.687 180.5,216.5C 180.5,214.167 180.5,211.833 180.5,209.5C 169.504,209.944 158.504,210.278 147.5,210.5C 147.813,214.042 147.479,217.375 146.5,220.5C 146.827,210.985 146.494,201.652 145.5,192.5C 144.838,183.529 143.172,174.863 140.5,166.5C 139.812,162.416 138.812,158.416 137.5,154.5C 139.223,153.2 141.39,152.533 144,152.5C 153.005,152.045 161.838,151.379 170.5,150.5 Z"/></g>
<g><path style="opacity:1" fill="#456a76" d="M 307.5,153.5 C 316.725,162.946 322.558,174.28 325,187.5C 326.072,193.455 326.572,199.455 326.5,205.5C 323.587,206.241 320.587,206.741 317.5,207C 302.504,207.5 287.504,207.667 272.5,207.5C 272.5,206.5 272.5,205.5 272.5,204.5C 272.5,203.833 272.5,203.167 272.5,202.5C 284.671,204.085 293.337,199.418 298.5,188.5C 300.642,185.2 301.975,181.533 302.5,177.5C 304.072,174.785 305.072,171.785 305.5,168.5C 305.5,166.833 305.5,165.167 305.5,163.5C 306.167,160.167 306.833,156.833 307.5,153.5 Z"/></g>
<g><path style="opacity:1" fill="#456b76" d="M 78.5,138.5 C 81.2622,139.38 83.9289,140.546 86.5,142C 93.9,148.964 98.5667,157.464 100.5,167.5C 101.681,171.743 102.348,176.076 102.5,180.5C 102.666,188.507 102.5,196.507 102,204.5C 101.594,207.742 100.761,210.742 99.5,213.5C 94.9443,211.558 89.9443,210.892 84.5,211.5C 91.1593,199.368 93.6593,186.368 92,172.5C 89.9604,162.773 84.1271,157.94 74.5,158C 67.9237,164.455 65.4237,172.288 67,181.5C 67.1334,184.414 68.3001,186.747 70.5,188.5C 71.2679,183.818 72.1013,179.151 73,174.5C 76.3333,170.5 79.6667,170.5 83,174.5C 84.8786,182.805 84.8786,191.138 83,199.5C 75.8669,209.153 69.5336,208.486 64,197.5C 64.0231,202.603 64.8565,207.603 66.5,212.5C 65.1667,211.167 63.8333,211.167 62.5,212.5C 54.8002,192.672 54.6336,172.672 62,152.5C 64.9632,144.694 70.4632,140.027 78.5,138.5 Z"/></g>
<g><path style="opacity:1" fill="#e7c2ba" d="M 412.5,154.5 C 422.748,167.777 431.415,182.11 438.5,197.5C 414.893,191.015 391.226,184.681 367.5,178.5C 364.836,172.504 362.169,166.504 359.5,160.5C 377.314,158.611 394.98,156.611 412.5,154.5 Z"/></g>
<g><path style="opacity:1" fill="#e6b4a8" d="M 305.5,163.5 C 305.5,165.167 305.5,166.833 305.5,168.5C 278.516,169.437 251.516,169.77 224.5,169.5C 224.5,168.5 224.5,167.5 224.5,166.5C 221.833,166.5 219.167,166.5 216.5,166.5C 214.597,166.204 212.93,165.537 211.5,164.5C 242.373,163.826 273.373,163.159 304.5,162.5C 305.107,162.624 305.44,162.957 305.5,163.5 Z"/></g>
<g><path style="opacity:1" fill="#6c929f" d="M 84.5,211.5 C 80.8727,216.046 76.206,217.546 70.5,216C 68.4556,215.502 67.1223,214.335 66.5,212.5C 64.8565,207.603 64.0231,202.603 64,197.5C 69.5336,208.486 75.8669,209.153 83,199.5C 84.8786,191.138 84.8786,182.805 83,174.5C 79.6667,170.5 76.3333,170.5 73,174.5C 72.1013,179.151 71.2679,183.818 70.5,188.5C 68.3001,186.747 67.1334,184.414 67,181.5C 65.4237,172.288 67.9237,164.455 74.5,158C 84.1271,157.94 89.9604,162.773 92,172.5C 93.6593,186.368 91.1593,199.368 84.5,211.5 Z"/></g>
<g><path style="opacity:1" fill="#6f95a1" d="M 140.5,166.5 C 143.172,174.863 144.838,183.529 145.5,192.5C 144.666,193.748 143.333,194.415 141.5,194.5C 128.816,193.855 116.149,193.188 103.5,192.5C 103.817,188.298 103.483,184.298 102.5,180.5C 102.348,176.076 101.681,171.743 100.5,167.5C 110.174,167.574 119.841,167.908 129.5,168.5C 133.565,168.489 137.232,167.822 140.5,166.5 Z"/></g>
<g><path style="opacity:1" fill="#e6aea7" d="M 305.5,168.5 C 305.072,171.785 304.072,174.785 302.5,177.5C 276.5,177.5 250.5,177.5 224.5,177.5C 224.5,174.833 224.5,172.167 224.5,169.5C 251.516,169.77 278.516,169.437 305.5,168.5 Z"/></g>
<g><path style="opacity:1" fill="#7195a1" d="M 216.5,166.5 C 219.167,166.5 221.833,166.5 224.5,166.5C 224.5,167.5 224.5,168.5 224.5,169.5C 224.5,172.167 224.5,174.833 224.5,177.5C 224.5,177.833 224.5,178.167 224.5,178.5C 224.5,187.167 224.5,195.833 224.5,204.5C 224.5,213.167 224.5,221.833 224.5,230.5C 224.167,230.5 223.833,230.5 223.5,230.5C 223.5,219.167 223.5,207.833 223.5,196.5C 209.494,196.38 195.494,196.046 181.5,195.5C 181.032,186.695 179.699,178.029 177.5,169.5C 192.793,170.402 208.127,171.069 223.5,171.5C 223.5,170.167 223.5,168.833 223.5,167.5C 220.941,167.802 218.607,167.468 216.5,166.5 Z"/></g>
<g><path style="opacity:1" fill="#e6aea1" d="M 224.5,178.5 C 224.5,178.167 224.5,177.833 224.5,177.5C 250.5,177.5 276.5,177.5 302.5,177.5C 301.975,181.533 300.642,185.2 298.5,188.5C 277.5,188.5 256.5,188.5 235.5,188.5C 230.508,186.503 226.841,183.169 224.5,178.5 Z"/></g>
<g><path style="opacity:1" fill="#e7bbb4" d="M 367.5,178.5 C 391.226,184.681 414.893,191.015 438.5,197.5C 441.072,201.639 443.405,205.973 445.5,210.5C 421.431,204.816 397.431,198.816 373.5,192.5C 371.5,187.833 369.5,183.167 367.5,178.5 Z"/></g>
<g><path style="opacity:1" fill="#d4706a" d="M 224.5,178.5 C 226.841,183.169 230.508,186.503 235.5,188.5C 247.116,195.148 259.449,199.815 272.5,202.5C 272.5,203.167 272.5,203.833 272.5,204.5C 270.889,211.924 271.556,219.258 274.5,226.5C 274.833,227.167 275.167,227.833 275.5,228.5C 255.776,226.136 238.776,218.136 224.5,204.5C 224.5,195.833 224.5,187.167 224.5,178.5 Z"/></g>
<g><path style="opacity:1" fill="#e6a79c" d="M 235.5,188.5 C 256.5,188.5 277.5,188.5 298.5,188.5C 293.337,199.418 284.671,204.085 272.5,202.5C 259.449,199.815 247.116,195.148 235.5,188.5 Z"/></g>
<g><path style="opacity:1" fill="#e7bbaf" d="M 373.5,192.5 C 397.431,198.816 421.431,204.816 445.5,210.5C 446.773,212.713 447.773,215.046 448.5,217.5C 448.53,218.497 448.03,219.164 447,219.5C 424.522,213.422 402.022,207.422 379.5,201.5C 378.584,201.543 377.917,201.876 377.5,202.5C 375.991,199.322 374.658,195.989 373.5,192.5 Z"/></g>
<g><path style="opacity:1" fill="#698e9c" d="M 102.5,180.5 C 103.483,184.298 103.817,188.298 103.5,192.5C 116.149,193.188 128.816,193.855 141.5,194.5C 143.333,194.415 144.666,193.748 145.5,192.5C 146.494,201.652 146.827,210.985 146.5,220.5C 146.5,223.833 146.5,227.167 146.5,230.5C 128.851,230.574 111.517,232.241 94.5,235.5C 90.6002,234.57 86.6002,234.237 82.5,234.5C 92.0586,230.916 97.7252,223.916 99.5,213.5C 100.761,210.742 101.594,207.742 102,204.5C 102.5,196.507 102.666,188.507 102.5,180.5 Z"/></g>
<g><path style="opacity:1" fill="#e7b5ae" d="M 448.5,217.5 C 450.386,221.624 452.386,225.791 454.5,230C 453.154,231.669 451.487,232.836 449.5,233.5C 425.039,226.382 400.372,219.548 375.5,213C 376.056,212.617 376.389,212.117 376.5,211.5C 377.873,211.657 379.207,211.49 380.5,211C 379.202,208.273 378.202,205.44 377.5,202.5C 377.917,201.876 378.584,201.543 379.5,201.5C 402.022,207.422 424.522,213.422 447,219.5C 448.03,219.164 448.53,218.497 448.5,217.5 Z"/></g>
<g><path style="opacity:1" fill="#6a8e9d" d="M 181.5,195.5 C 195.494,196.046 209.494,196.38 223.5,196.5C 223.5,207.833 223.5,219.167 223.5,230.5C 214.919,231.529 206.586,233.195 198.5,235.5C 197.354,233.525 195.687,232.025 193.5,231C 188.311,230.092 183.311,230.592 178.5,232.5C 178.5,231.833 178.5,231.167 178.5,230.5C 179.981,225.988 180.648,221.322 180.5,216.5C 181.491,209.687 181.825,202.687 181.5,195.5 Z"/></g>
<g><path style="opacity:1" fill="#466475" d="M 272.5,204.5 C 272.5,205.5 272.5,206.5 272.5,207.5C 287.504,207.667 302.504,207.5 317.5,207C 320.587,206.741 323.587,206.241 326.5,205.5C 325.996,210.202 325.329,214.869 324.5,219.5C 316.337,220.378 308.337,221.712 300.5,223.5C 293.968,217.478 286.968,216.978 279.5,222C 277.963,223.707 276.296,225.207 274.5,226.5C 271.556,219.258 270.889,211.924 272.5,204.5 Z"/></g>
<g><path style="opacity:1" fill="#446476" d="M 180.5,216.5 C 180.648,221.322 179.981,225.988 178.5,230.5C 167.756,231.097 157.09,231.097 146.5,230.5C 146.5,227.167 146.5,223.833 146.5,220.5C 147.479,217.375 147.813,214.042 147.5,210.5C 158.504,210.278 169.504,209.944 180.5,209.5C 180.5,211.833 180.5,214.167 180.5,216.5 Z"/></g>
<g><path style="opacity:1" fill="#446475" d="M 66.5,212.5 C 67.1223,214.335 68.4556,215.502 70.5,216C 76.206,217.546 80.8727,216.046 84.5,211.5C 89.9443,210.892 94.9443,211.558 99.5,213.5C 97.7252,223.916 92.0586,230.916 82.5,234.5C 76.7303,234.03 72.2303,231.363 69,226.5C 66.0118,222.192 63.8451,217.525 62.5,212.5C 63.8333,211.167 65.1667,211.167 66.5,212.5 Z"/></g>
<g><path style="opacity:1" fill="#e7b5a8" d="M 376.5,211.5 C 376.389,212.117 376.056,212.617 375.5,213C 400.372,219.548 425.039,226.382 449.5,233.5C 446.833,235.167 444.167,236.833 441.5,238.5C 417.397,231.389 393.064,224.722 368.5,218.5C 367.962,216.883 367.629,215.216 367.5,213.5C 370.345,212.656 373.345,211.99 376.5,211.5 Z"/></g>
<g><path style="opacity:1" fill="#e6e0d9" d="M 367.5,213.5 C 367.629,215.216 367.962,216.883 368.5,218.5C 369.167,222.167 369.833,225.833 370.5,229.5C 370.874,234.325 371.874,238.992 373.5,243.5C 374.296,248.147 374.963,252.814 375.5,257.5C 358.341,258.497 341.008,258.83 323.5,258.5C 317.863,245.524 310.196,233.857 300.5,223.5C 308.337,221.712 316.337,220.378 324.5,219.5C 338.718,216.945 353.051,214.945 367.5,213.5 Z"/></g>
<g><path style="opacity:1" fill="#e7afa8" d="M 368.5,218.5 C 393.064,224.722 417.397,231.389 441.5,238.5C 437.5,240.833 433.5,243.167 429.5,245.5C 410.063,239.722 390.396,234.389 370.5,229.5C 369.833,225.833 369.167,222.167 368.5,218.5 Z"/></g>
<g><path style="opacity:1" fill="#e6c9c2" d="M 224.5,204.5 C 238.776,218.136 255.776,226.136 275.5,228.5C 277.153,231.131 278.819,233.797 280.5,236.5C 279.549,237.919 279.216,239.585 279.5,241.5C 261.984,241.507 244.651,242.174 227.5,243.5C 224.839,239.69 223.839,235.356 224.5,230.5C 224.5,221.833 224.5,213.167 224.5,204.5 Z"/></g>
<g><path style="opacity:1" fill="#e6afa2" d="M 370.5,229.5 C 390.396,234.389 410.063,239.722 429.5,245.5C 424.666,248.752 419.666,251.752 414.5,254.5C 401.143,250.076 387.476,246.409 373.5,243.5C 371.874,238.992 370.874,234.325 370.5,229.5 Z"/></g>
<g><path style="opacity:1" fill="#e6e0d9" d="M 223.5,230.5 C 223.833,230.5 224.167,230.5 224.5,230.5C 223.839,235.356 224.839,239.69 227.5,243.5C 230.436,249.101 234.436,253.767 239.5,257.5C 227.011,258.495 214.344,258.829 201.5,258.5C 201.5,259.5 201.5,260.5 201.5,261.5C 200.402,252.94 199.402,244.273 198.5,235.5C 206.586,233.195 214.919,231.529 223.5,230.5 Z"/></g>
<g><path style="opacity:1" fill="#4d4d5e" d="M 300.5,223.5 C 310.196,233.857 317.863,245.524 323.5,258.5C 324.302,261.574 325.302,264.574 326.5,267.5C 316.52,268.422 306.52,269.088 296.5,269.5C 291.472,258.443 286.139,247.443 280.5,236.5C 278.819,233.797 277.153,231.131 275.5,228.5C 275.167,227.833 274.833,227.167 274.5,226.5C 276.296,225.207 277.963,223.707 279.5,222C 286.968,216.978 293.968,217.478 300.5,223.5 Z"/></g>
<g><path style="opacity:1" fill="#406470" d="M 146.5,230.5 C 157.09,231.097 167.756,231.097 178.5,230.5C 178.5,231.167 178.5,231.833 178.5,232.5C 173.713,233.156 170.546,235.822 169,240.5C 168.502,243.482 168.335,246.482 168.5,249.5C 156.059,264.062 143.392,278.395 130.5,292.5C 129.767,277.982 129.101,263.315 128.5,248.5C 117.172,248.973 105.838,249.307 94.5,249.5C 94.5,244.833 94.5,240.167 94.5,235.5C 111.517,232.241 128.851,230.574 146.5,230.5 Z"/></g>
<g><path style="opacity:1" fill="#4d4d5f" d="M 198.5,235.5 C 199.402,244.273 200.402,252.94 201.5,261.5C 201.5,265.833 201.5,270.167 201.5,274.5C 201.5,280.5 201.5,286.5 201.5,292.5C 201.806,295.385 201.473,298.052 200.5,300.5C 200.5,292.833 200.5,285.167 200.5,277.5C 190.488,278.014 180.488,278.68 170.5,279.5C 170.712,269.291 170.046,259.291 168.5,249.5C 168.335,246.482 168.502,243.482 169,240.5C 170.546,235.822 173.713,233.156 178.5,232.5C 183.311,230.592 188.311,230.092 193.5,231C 195.687,232.025 197.354,233.525 198.5,235.5 Z"/></g>
<g><path style="opacity:1" fill="#e7beb7" d="M 279.5,241.5 C 279.662,243.527 279.495,245.527 279,247.5C 275.045,253.123 270.712,258.457 266,263.5C 264.539,266.679 263.705,270.012 263.5,273.5C 262.833,273.5 262.5,273.833 262.5,274.5C 257.929,274.054 253.596,274.72 249.5,276.5C 249.737,275.209 249.404,274.209 248.5,273.5C 249.763,265.523 246.763,260.19 239.5,257.5C 234.436,253.767 230.436,249.101 227.5,243.5C 244.651,242.174 261.984,241.507 279.5,241.5 Z"/></g>
<g><path style="opacity:1" fill="#e6a79c" d="M 373.5,243.5 C 387.476,246.409 401.143,250.076 414.5,254.5C 402.999,261.752 391.332,268.752 379.5,275.5C 379.167,274.833 378.833,274.167 378.5,273.5C 377.866,267.98 376.866,262.647 375.5,257.5C 374.963,252.814 374.296,248.147 373.5,243.5 Z"/></g>
<g><path style="opacity:1" fill="#e6e0d3" d="M 239.5,257.5 C 246.763,260.19 249.763,265.523 248.5,273.5C 243.025,274.489 237.358,274.822 231.5,274.5C 228.5,271.833 225.5,271.833 222.5,274.5C 215.5,274.5 208.5,274.5 201.5,274.5C 201.5,270.167 201.5,265.833 201.5,261.5C 201.5,260.5 201.5,259.5 201.5,258.5C 214.344,258.829 227.011,258.495 239.5,257.5 Z"/></g>
<g><path style="opacity:1" fill="#e6dfd4" d="M 280.5,236.5 C 286.139,247.443 291.472,258.443 296.5,269.5C 296.5,270.167 296.5,270.833 296.5,271.5C 293.913,272.816 290.913,273.483 287.5,273.5C 279.331,274.456 271.331,274.456 263.5,273.5C 263.705,270.012 264.539,266.679 266,263.5C 270.712,258.457 275.045,253.123 279,247.5C 279.495,245.527 279.662,243.527 279.5,241.5C 279.216,239.585 279.549,237.919 280.5,236.5 Z"/></g>
<g><path style="opacity:1" fill="#e6e0d3" d="M 375.5,257.5 C 376.866,262.647 377.866,267.98 378.5,273.5C 361.833,273.5 345.167,273.5 328.5,273.5C 328.029,271.421 327.363,269.421 326.5,267.5C 325.302,264.574 324.302,261.574 323.5,258.5C 341.008,258.83 358.341,258.497 375.5,257.5 Z"/></g>
<g><path style="opacity:1" fill="#454557" d="M 326.5,267.5 C 327.363,269.421 328.029,271.421 328.5,273.5C 331.567,281.887 333.567,290.554 334.5,299.5C 326.826,299.821 319.159,300.321 311.5,301C 309.942,301.21 308.609,301.71 307.5,302.5C 306.632,299.551 305.632,296.551 304.5,293.5C 302.404,285.873 299.738,278.54 296.5,271.5C 296.5,270.833 296.5,270.167 296.5,269.5C 306.52,269.088 316.52,268.422 326.5,267.5 Z"/></g>
<g><path style="opacity:1" fill="#5e8490" d="M 130.5,292.5 C 127.071,297.019 123.404,301.352 119.5,305.5C 118.833,305.833 118.167,306.167 117.5,306.5C 107.249,305.525 96.9154,305.192 86.5,305.5C 87.937,304.275 89.6036,303.275 91.5,302.5C 93.0884,284.87 94.0884,267.203 94.5,249.5C 105.838,249.307 117.172,248.973 128.5,248.5C 129.101,263.315 129.767,277.982 130.5,292.5 Z"/></g>
<g><path style="opacity:1" fill="#bba397" d="M 231.5,274.5 C 233.697,279.353 232.197,282.353 227,283.5C 221.806,282.404 220.306,279.404 222.5,274.5C 225.5,271.833 228.5,271.833 231.5,274.5 Z"/></g>
<g><path style="opacity:1" fill="#e6d9d3" d="M 296.5,271.5 C 299.738,278.54 302.404,285.873 304.5,293.5C 289.578,292.517 274.578,292.184 259.5,292.5C 260.715,286.54 261.715,280.54 262.5,274.5C 262.5,273.833 262.833,273.5 263.5,273.5C 271.331,274.456 279.331,274.456 287.5,273.5C 290.913,273.483 293.913,272.816 296.5,271.5 Z"/></g>
<g><path style="opacity:1" fill="#e6d9d2" d="M 328.5,273.5 C 345.167,273.5 361.833,273.5 378.5,273.5C 378.833,274.167 379.167,274.833 379.5,275.5C 381.096,279.283 381.43,283.117 380.5,287C 365.93,293.787 351.263,300.287 336.5,306.5C 335.833,304.167 335.167,301.833 334.5,299.5C 333.567,290.554 331.567,281.887 328.5,273.5 Z"/></g>
<g><path style="opacity:1" fill="#e6d9d3" d="M 248.5,273.5 C 249.404,274.209 249.737,275.209 249.5,276.5C 250.255,281.523 251.255,286.523 252.5,291.5C 246.399,292.128 240.399,292.795 234.5,293.5C 232.167,292.167 229.833,292.167 227.5,293.5C 219.016,292.507 210.349,292.174 201.5,292.5C 201.5,286.5 201.5,280.5 201.5,274.5C 208.5,274.5 215.5,274.5 222.5,274.5C 220.306,279.404 221.806,282.404 227,283.5C 232.197,282.353 233.697,279.353 231.5,274.5C 237.358,274.822 243.025,274.489 248.5,273.5 Z"/></g>
<g><path style="opacity:1" fill="#e7aea3" d="M 262.5,274.5 C 261.715,280.54 260.715,286.54 259.5,292.5C 257.968,296.681 256.968,301.014 256.5,305.5C 256.214,307.933 255.548,307.933 254.5,305.5C 254.265,300.759 253.598,296.092 252.5,291.5C 251.255,286.523 250.255,281.523 249.5,276.5C 253.596,274.72 257.929,274.054 262.5,274.5 Z"/></g>
<g><path style="opacity:1" fill="#e6d9cd" d="M 252.5,291.5 C 253.598,296.092 254.265,300.759 254.5,305.5C 236.453,305.193 218.453,305.527 200.5,306.5C 200.5,304.5 200.5,302.5 200.5,300.5C 201.473,298.052 201.806,295.385 201.5,292.5C 210.349,292.174 219.016,292.507 227.5,293.5C 224.875,296.596 224.875,299.763 227.5,303C 236.249,304.426 238.582,301.259 234.5,293.5C 240.399,292.795 246.399,292.128 252.5,291.5 Z"/></g>
<g><path style="opacity:1" fill="#e5d9cf" d="M 168.5,249.5 C 170.046,259.291 170.712,269.291 170.5,279.5C 170.5,282.833 170.5,286.167 170.5,289.5C 170.5,295.167 170.5,300.833 170.5,306.5C 153.325,306.83 136.325,306.497 119.5,305.5C 123.404,301.352 127.071,297.019 130.5,292.5C 143.392,278.395 156.059,264.062 168.5,249.5 Z"/></g>
<g><path style="opacity:1" fill="#e6d9cd" d="M 259.5,292.5 C 274.578,292.184 289.578,292.517 304.5,293.5C 305.632,296.551 306.632,299.551 307.5,302.5C 307.5,303.167 307.5,303.833 307.5,304.5C 290.675,305.497 273.675,305.83 256.5,305.5C 256.968,301.014 257.968,296.681 259.5,292.5 Z"/></g>
<g><path style="opacity:1" fill="#bca398" d="M 234.5,293.5 C 238.582,301.259 236.249,304.426 227.5,303C 224.875,299.763 224.875,296.596 227.5,293.5C 229.833,292.167 232.167,292.167 234.5,293.5 Z"/></g>
<g><path style="opacity:1" fill="#3d3d4f" d="M 334.5,299.5 C 335.167,301.833 335.833,304.167 336.5,306.5C 340.69,324.023 337.524,340.023 327,354.5C 323.74,357.54 320.24,360.206 316.5,362.5C 315.732,352.383 314.732,342.383 313.5,332.5C 313.702,330.05 313.369,327.717 312.5,325.5C 312.245,321.2 311.245,317.2 309.5,313.5C 309.58,310.219 308.913,307.219 307.5,304.5C 307.5,303.833 307.5,303.167 307.5,302.5C 308.609,301.71 309.942,301.21 311.5,301C 319.159,300.321 326.826,299.821 334.5,299.5 Z"/></g>
<g><path style="opacity:1" fill="#e6d3cd" d="M 307.5,304.5 C 308.913,307.219 309.58,310.219 309.5,313.5C 273.515,315.494 237.182,316.16 200.5,315.5C 200.5,312.833 200.5,310.167 200.5,307.5C 200.5,307.167 200.5,306.833 200.5,306.5C 218.453,305.527 236.453,305.193 254.5,305.5C 255.548,307.933 256.214,307.933 256.5,305.5C 273.675,305.83 290.675,305.497 307.5,304.5 Z"/></g>
<g><path style="opacity:1" fill="#e0d0c9" d="M 170.5,289.5 C 171.497,307.326 171.83,325.326 171.5,343.5C 170.564,347.735 170.231,352.069 170.5,356.5C 166.167,359.833 161.833,363.167 157.5,366.5C 146.489,352.461 135.489,338.461 124.5,324.5C 120.998,320.159 117.665,315.659 114.5,311C 116.141,309.871 117.141,308.371 117.5,306.5C 118.167,306.167 118.833,305.833 119.5,305.5C 136.325,306.497 153.325,306.83 170.5,306.5C 170.5,300.833 170.5,295.167 170.5,289.5 Z"/></g>
<g><path style="opacity:1" fill="#567c87" d="M 86.5,305.5 C 96.9154,305.192 107.249,305.525 117.5,306.5C 117.141,308.371 116.141,309.871 114.5,311C 117.665,315.659 120.998,320.159 124.5,324.5C 118.817,330.854 113.484,337.52 108.5,344.5C 99.8176,354.52 91.4842,364.853 83.5,375.5C 82.5275,377.139 81.1942,378.473 79.5,379.5C 75.8137,359.708 74.647,339.708 76,319.5C 77.0781,312.934 80.5781,308.267 86.5,305.5 Z"/></g>
<g><path style="opacity:1" fill="#404053" d="M 200.5,300.5 C 200.5,302.5 200.5,304.5 200.5,306.5C 200.5,306.833 200.5,307.167 200.5,307.5C 199.755,314.404 198.755,321.404 197.5,328.5C 196.781,330.764 196.448,333.097 196.5,335.5C 195.749,338.246 194.749,340.913 193.5,343.5C 186.349,343.01 179.016,343.01 171.5,343.5C 171.83,325.326 171.497,307.326 170.5,289.5C 170.5,286.167 170.5,282.833 170.5,279.5C 180.488,278.68 190.488,278.014 200.5,277.5C 200.5,285.167 200.5,292.833 200.5,300.5 Z"/></g>
<g><path style="opacity:1" fill="#e0d3cd" d="M 200.5,307.5 C 200.5,310.167 200.5,312.833 200.5,315.5C 237.182,316.16 273.515,315.494 309.5,313.5C 311.245,317.2 312.245,321.2 312.5,325.5C 276.498,325.333 240.498,325.5 204.5,326C 201.823,326.168 199.49,327.001 197.5,328.5C 198.755,321.404 199.755,314.404 200.5,307.5 Z"/></g>
<g><path style="opacity:1" fill="#d3706b" d="M 124.5,324.5 C 135.489,338.461 146.489,352.461 157.5,366.5C 153.472,370.859 149.472,375.193 145.5,379.5C 143.589,378.925 141.922,377.925 140.5,376.5C 130.113,365.446 119.446,354.779 108.5,344.5C 113.484,337.52 118.817,330.854 124.5,324.5 Z"/></g>
<g><path style="opacity:1" fill="#e0d3c7" d="M 312.5,325.5 C 313.369,327.717 313.702,330.05 313.5,332.5C 313.5,334.167 313.5,335.833 313.5,337.5C 274.152,338.161 235.152,337.494 196.5,335.5C 196.448,333.097 196.781,330.764 197.5,328.5C 199.49,327.001 201.823,326.168 204.5,326C 240.498,325.5 276.498,325.333 312.5,325.5 Z"/></g>
<g><path style="opacity:1" fill="#e0cdc7" d="M 313.5,332.5 C 314.732,342.383 315.732,352.383 316.5,362.5C 316.5,363.167 316.5,363.833 316.5,364.5C 272.752,364.117 229.085,364.783 185.5,366.5C 189.033,359.108 191.699,351.442 193.5,343.5C 194.749,340.913 195.749,338.246 196.5,335.5C 235.152,337.494 274.152,338.161 313.5,337.5C 313.5,335.833 313.5,334.167 313.5,332.5 Z"/></g>
<g><path style="opacity:1" fill="#39394c" d="M 193.5,343.5 C 191.699,351.442 189.033,359.108 185.5,366.5C 184.833,366.5 184.5,366.833 184.5,367.5C 182.737,370.02 180.737,372.353 178.5,374.5C 176.284,373.797 174.451,372.464 173,370.5C 171.208,366 170.375,361.333 170.5,356.5C 170.231,352.069 170.564,347.735 171.5,343.5C 179.016,343.01 186.349,343.01 193.5,343.5 Z"/></g>
<g><path style="opacity:1" fill="#39576a" d="M 170.5,356.5 C 170.375,361.333 171.208,366 173,370.5C 174.451,372.464 176.284,373.797 178.5,374.5C 178.5,382.5 178.5,390.5 178.5,398.5C 178.5,401.167 178.5,403.833 178.5,406.5C 178.5,415.167 178.5,423.833 178.5,432.5C 178.5,434.167 178.5,435.833 178.5,437.5C 178.5,445.167 178.5,452.833 178.5,460.5C 178.5,462.5 178.5,464.5 178.5,466.5C 175.931,456.696 171.265,448.029 164.5,440.5C 158.258,431.255 151.258,422.588 143.5,414.5C 138.406,408.796 132.739,403.796 126.5,399.5C 130.167,395.5 133.833,391.5 137.5,387.5C 140.5,385.167 143.167,382.5 145.5,379.5C 149.472,375.193 153.472,370.859 157.5,366.5C 161.833,363.167 166.167,359.833 170.5,356.5 Z"/></g>
<g><path style="opacity:1" fill="#e0cdc0" d="M 316.5,364.5 C 316.5,365.833 316.5,367.167 316.5,368.5C 285.999,368.696 255.499,369.029 225,369.5C 211.15,369.499 197.65,368.833 184.5,367.5C 184.5,366.833 184.833,366.5 185.5,366.5C 229.085,364.783 272.752,364.117 316.5,364.5 Z"/></g>
<g><path style="opacity:1" fill="#e6c2bb" d="M 108.5,344.5 C 119.446,354.779 130.113,365.446 140.5,376.5C 140.565,376.938 140.399,377.272 140,377.5C 121.069,376.839 102.236,376.173 83.5,375.5C 91.4842,364.853 99.8176,354.52 108.5,344.5 Z"/></g>
<g><path style="opacity:1" fill="#e0c7c0" d="M 184.5,367.5 C 197.65,368.833 211.15,369.499 225,369.5C 255.499,369.029 285.999,368.696 316.5,368.5C 316.5,378.5 316.5,388.5 316.5,398.5C 270.5,398.5 224.5,398.5 178.5,398.5C 178.5,390.5 178.5,382.5 178.5,374.5C 180.737,372.353 182.737,370.02 184.5,367.5 Z"/></g>
<g><path style="opacity:1" fill="#e6bab1" d="M 83.5,375.5 C 102.236,376.173 121.069,376.839 140,377.5C 140.399,377.272 140.565,376.938 140.5,376.5C 141.922,377.925 143.589,378.925 145.5,379.5C 143.167,382.5 140.5,385.167 137.5,387.5C 116.832,387.208 96.1658,386.875 75.5,386.5C 76.0787,383.669 77.412,381.336 79.5,379.5C 81.1942,378.473 82.5275,377.139 83.5,375.5 Z"/></g>
<g><path style="opacity:1" fill="#e6b2aa" d="M 75.5,386.5 C 96.1658,386.875 116.832,387.208 137.5,387.5C 133.833,391.5 130.167,395.5 126.5,399.5C 123.833,401.5 121.5,403.833 119.5,406.5C 118.167,407.5 116.833,408.5 115.5,409.5C 105.5,409.5 95.5,409.5 85.5,409.5C 79.3467,405.015 75.6801,399.015 74.5,391.5C 74.5916,389.742 74.925,388.076 75.5,386.5 Z"/></g>
<g><path style="opacity:1" fill="#dac8ba" d="M 178.5,398.5 C 224.5,398.5 270.5,398.5 316.5,398.5C 316.5,400.833 316.5,403.167 316.5,405.5C 270.5,405.833 224.5,406.167 178.5,406.5C 178.5,403.833 178.5,401.167 178.5,398.5 Z"/></g>
<g><path style="opacity:1" fill="#a3594c" d="M 126.5,399.5 C 132.739,403.796 138.406,408.796 143.5,414.5C 142.833,436.833 142.167,459.167 141.5,481.5C 141.665,478.482 141.498,475.482 141,472.5C 134.022,468.6 127.188,464.6 120.5,460.5C 120.83,442.326 120.497,424.326 119.5,406.5C 121.5,403.833 123.833,401.5 126.5,399.5 Z"/></g>
<g><path style="opacity:1" fill="#dac0ba" d="M 316.5,405.5 C 315.741,414.372 317.408,422.705 321.5,430.5C 273.904,431.51 226.237,432.177 178.5,432.5C 178.5,423.833 178.5,415.167 178.5,406.5C 224.5,406.167 270.5,405.833 316.5,405.5 Z"/></g>
<g><path style="opacity:1" fill="#af6456" d="M 119.5,406.5 C 120.497,424.326 120.83,442.326 120.5,460.5C 116.345,459.258 112.678,457.258 109.5,454.5C 109.829,441.989 109.495,429.655 108.5,417.5C 110.833,414.833 113.167,412.167 115.5,409.5C 116.833,408.5 118.167,407.5 119.5,406.5 Z"/></g>
<g><path style="opacity:1" fill="#e6a69b" d="M 85.5,409.5 C 95.5,409.5 105.5,409.5 115.5,409.5C 113.167,412.167 110.833,414.833 108.5,417.5C 105.436,420.57 102.103,423.237 98.5,425.5C 93.4159,420.752 89.0826,415.419 85.5,409.5 Z"/></g>
<g><path style="opacity:1" fill="#985041" d="M 143.5,414.5 C 151.258,422.588 158.258,431.255 164.5,440.5C 163.503,458.993 163.17,477.659 163.5,496.5C 151.798,497.785 144.465,492.785 141.5,481.5C 142.167,459.167 142.833,436.833 143.5,414.5 Z"/></g>
<g><path style="opacity:1" fill="#b8695e" d="M 108.5,417.5 C 109.495,429.655 109.829,441.989 109.5,454.5C 100.569,450.367 91.9021,445.7 83.5,440.5C 88.2148,435.119 93.2148,430.119 98.5,425.5C 102.103,423.237 105.436,420.57 108.5,417.5 Z"/></g>
<g><path style="opacity:1" fill="#dac1b5" d="M 321.5,430.5 C 322.695,432.751 323.695,435.085 324.5,437.5C 275.833,437.5 227.167,437.5 178.5,437.5C 178.5,435.833 178.5,434.167 178.5,432.5C 226.237,432.177 273.904,431.51 321.5,430.5 Z"/></g>
<g><path style="opacity:1" fill="#d8b9b3" d="M 178.5,437.5 C 227.167,437.5 275.833,437.5 324.5,437.5C 325.087,447.996 320.754,455.663 311.5,460.5C 309.167,460.5 306.833,460.5 304.5,460.5C 299.833,460.5 295.167,460.5 290.5,460.5C 290.167,460.5 289.833,460.5 289.5,460.5C 277.167,460.5 264.833,460.5 252.5,460.5C 240.833,460.5 229.167,460.5 217.5,460.5C 204.5,460.5 191.5,460.5 178.5,460.5C 178.5,452.833 178.5,445.167 178.5,437.5 Z"/></g>
<g><path style="opacity:1" fill="#8a4636" d="M 164.5,440.5 C 171.265,448.029 175.931,456.696 178.5,466.5C 178.5,476.5 178.5,486.5 178.5,496.5C 173.5,496.5 168.5,496.5 163.5,496.5C 163.17,477.659 163.503,458.993 164.5,440.5 Z"/></g>
<g><path style="opacity:1" fill="#414154" d="M 178.5,460.5 C 191.5,460.5 204.5,460.5 217.5,460.5C 216.39,472.49 215.39,484.49 214.5,496.5C 202.5,496.5 190.5,496.5 178.5,496.5C 178.5,486.5 178.5,476.5 178.5,466.5C 178.5,464.5 178.5,462.5 178.5,460.5 Z"/></g>
<g><path style="opacity:1" fill="#4e4d5e" d="M 217.5,460.5 C 229.167,460.5 240.833,460.5 252.5,460.5C 252.5,468.833 252.5,477.167 252.5,485.5C 252.5,488.833 252.5,492.167 252.5,495.5C 252.5,495.833 252.5,496.167 252.5,496.5C 239.833,496.5 227.167,496.5 214.5,496.5C 215.39,484.49 216.39,472.49 217.5,460.5 Z"/></g>
<g><path style="opacity:1" fill="#e79d43" d="M 252.5,460.5 C 264.833,460.5 277.167,460.5 289.5,460.5C 289.5,462.833 289.5,465.167 289.5,467.5C 277.013,473.244 264.68,479.244 252.5,485.5C 252.5,477.167 252.5,468.833 252.5,460.5 Z"/></g>
<g><path style="opacity:1" fill="#464658" d="M 290.5,460.5 C 295.167,460.5 299.833,460.5 304.5,460.5C 304.5,472.5 304.5,484.5 304.5,496.5C 299.833,496.5 295.167,496.5 290.5,496.5C 290.5,484.5 290.5,472.5 290.5,460.5 Z"/></g>
<g><path style="opacity:1" fill="#3a394c" d="M 304.5,460.5 C 306.833,460.5 309.167,460.5 311.5,460.5C 314.655,463.162 316.822,466.495 318,470.5C 319.113,477.715 318.446,484.715 316,491.5C 313.181,495.493 309.347,497.16 304.5,496.5C 304.5,484.5 304.5,472.5 304.5,460.5 Z"/></g>
<g><path style="opacity:1" fill="#e6963d" d="M 289.5,467.5 C 289.793,471.437 289.46,475.27 288.5,479C 278.01,484.078 267.677,489.411 257.5,495C 255.866,495.494 254.199,495.66 252.5,495.5C 252.5,492.167 252.5,488.833 252.5,485.5C 264.68,479.244 277.013,473.244 289.5,467.5 Z"/></g>
<g><path style="opacity:1" fill="#e58d39" d="M 289.5,460.5 C 289.833,460.5 290.167,460.5 290.5,460.5C 290.5,472.5 290.5,484.5 290.5,496.5C 277.833,496.5 265.167,496.5 252.5,496.5C 252.5,496.167 252.5,495.833 252.5,495.5C 254.199,495.66 255.866,495.494 257.5,495C 267.677,489.411 278.01,484.078 288.5,479C 289.46,475.27 289.793,471.437 289.5,467.5C 289.5,465.167 289.5,462.833 289.5,460.5 Z"/></g>
</svg>
