<?xml version="1.0" encoding="UTF-8"?>
<svg version="1.1" xmlns="http://www.w3.org/2000/svg" width="512" height="512">
<path d="M0 0 C2.2479225 -0.00437292 4.49388 -0.04069822 6.74145508 -0.07861328 C8.173089 -0.08448191 9.60473223 -0.08845099 11.03637695 -0.09033203 C12.33696045 -0.0985498 13.63754395 -0.10676758 14.97753906 -0.11523438 C18.3215332 0.37060547 18.3215332 0.37060547 20.68139648 2.1105957 C22.39033436 4.46540933 23.15105796 6.18088999 23.84887695 8.99169922 C24.0811499 9.91152588 24.31342285 10.83135254 24.55273438 11.77905273 C24.90235229 13.27843384 24.90235229 13.27843384 25.2590332 14.80810547 C25.51209229 15.86505615 25.76515137 16.92200684 26.02587891 18.01098633 C35.34206781 58.04289789 40.12771662 100.43400401 34.3215332 141.37060547 C32.18704219 156.9693375 30.117284 172.54583921 28.8840332 188.24560547 C28.77897461 189.4326709 28.67391602 190.61973633 28.56567383 191.84277344 C27.97271004 200.22260516 28.78635868 206.45260848 33.3840332 213.55810547 C35.72839273 216.22607291 38.33035461 217.35454983 41.5090332 218.87060547 C44.97870067 220.82164993 46.10469307 221.71767573 47.3762207 225.54638672 C47.88151029 229.16503753 48.15306405 232.72181023 48.3215332 236.37060547 C48.51741351 237.97634031 48.72368986 239.58089003 48.9465332 241.18310547 C49.25118843 244.20144893 49.46446287 247.21356819 49.5715332 250.24560547 C49.59731445 250.96490234 49.6230957 251.68419922 49.6496582 252.42529297 C49.21116784 255.02491441 48.3949132 255.76701092 46.3215332 257.37060547 C44.69762897 258.18662412 43.04900225 258.95452503 41.3840332 259.68310547 C35.60436906 262.50142787 33.52387754 265.56513535 31.0090332 271.43310547 C29.11526827 282.27921375 32.16788948 293.68475843 34.21795654 304.36322021 C37.99292246 324.14122999 40.93702525 343.89341363 41.62060547 364.05175781 C41.86920077 371.23464327 42.38813997 375.07623224 47.3215332 380.37060547 C49.80841619 384.95156545 49.64410393 389.46595301 49.6574707 394.54638672 C49.6641275 395.43037643 49.6707843 396.31436615 49.67764282 397.22514343 C49.68774629 399.09188768 49.69246056 400.95866789 49.69213867 402.82543945 C49.69650286 405.66337487 49.73282125 408.49974269 49.77075195 411.33740234 C49.77662262 413.15705852 49.78059034 414.97672204 49.7824707 416.79638672 C49.80402725 418.05616081 49.80402725 418.05616081 49.82601929 419.34138489 C49.78165198 425.13930587 48.58770944 429.53166079 45.3215332 434.37060547 C44.79784653 434.86295181 44.27415985 435.35529816 43.73460388 435.86256409 C41.24344189 438.52115395 41.39039612 442.23941838 41.00512695 445.72998047 C40.90313492 446.55258362 40.80114288 447.37518677 40.69606018 448.22271729 C40.3715458 450.8540362 40.06429975 453.48698992 39.7590332 456.12060547 C39.44770288 458.73954223 39.13260824 461.35791594 38.81129456 463.97564697 C38.612311 465.60325611 38.41937355 467.23161985 38.23350525 468.86077881 C36.7846881 480.90745058 36.7846881 480.90745058 34.3215332 483.37060547 C30.8840332 483.55810547 30.8840332 483.55810547 27.3215332 483.37060547 C25.3215332 481.37060547 25.3215332 481.37060547 25.0715332 477.71826172 C25.22909015 470.6971301 26.34350716 463.7519263 27.3215332 456.80810547 C27.51479396 455.40388451 27.70750662 453.99958801 27.8996582 452.59521484 C28.36629862 449.18592386 28.84413313 445.77847472 29.3215332 442.37060547 C23.7115332 442.37060547 18.1015332 442.37060547 12.3215332 442.37060547 C12.2184082 444.59810547 12.1152832 446.82560547 12.0090332 449.12060547 C11.62462822 455.80981859 10.89184109 462.42569349 9.9465332 469.05810547 C9.77577271 470.33089355 9.77577271 470.33089355 9.6015625 471.62939453 C8.93031899 476.10554538 8.26036925 479.75858777 5.3215332 483.37060547 C2.3215332 483.87060547 2.3215332 483.87060547 -0.6784668 483.37060547 C-2.37744141 482.13354492 -2.37744141 482.13354492 -3.6784668 480.37060547 C-3.82519531 478.22290039 -3.82519531 478.22290039 -3.49487305 475.66357422 C-3.37644043 474.68565918 -3.25800781 473.70774414 -3.13598633 472.70019531 C-2.98500488 471.60143066 -2.83402344 470.50266602 -2.6784668 469.37060547 C-2.44619385 467.5348999 -2.44619385 467.5348999 -2.20922852 465.66210938 C-1.69715124 461.66631721 -1.15998349 457.67463093 -0.6159668 453.68310547 C-0.42759923 452.28795239 -0.2394468 450.89277025 -0.05151367 449.49755859 C0.40406323 446.1216169 0.86179189 442.74598212 1.3215332 439.37060547 C-2.21812285 437.71487197 -4.34987454 437.13676257 -8.1706543 437.97998047 C-9.02852539 438.1569043 -9.88639648 438.33382813 -10.77026367 438.51611328 C-11.6887207 438.7155957 -12.60717773 438.91507812 -13.5534668 439.12060547 C-29.17312528 442.21644051 -44.7617893 443.50821467 -60.6784668 443.62060547 C-61.58016602 443.62995117 -62.48186523 443.63929688 -63.41088867 443.64892578 C-75.45943152 443.58964075 -75.45943152 443.58964075 -78.6784668 440.37060547 C-78.83532928 438.81112005 -78.92923318 437.24517879 -78.99487305 435.67919922 C-79.03676758 434.73496094 -79.07866211 433.79072266 -79.12182617 432.81787109 C-79.16114258 431.82464844 -79.20045898 430.83142578 -79.2409668 429.80810547 C-79.28415039 428.81101562 -79.32733398 427.81392578 -79.37182617 426.78662109 C-79.47826978 424.31476397 -79.58028607 421.84280237 -79.6784668 419.37060547 C-80.39945557 419.15662109 -81.12044434 418.94263672 -81.86328125 418.72216797 C-95.84614664 414.42097629 -104.60846181 405.01605289 -112.6784668 393.37060547 C-113.07743164 392.81163574 -113.47639648 392.25266602 -113.88745117 391.67675781 C-120.26817535 382.72987282 -125.59567756 373.30976957 -130.74438477 363.60717773 C-131.22794434 362.69766357 -131.71150391 361.78814941 -132.2097168 360.85107422 C-132.63833008 360.03533936 -133.06694336 359.21960449 -133.50854492 358.37915039 C-134.64179558 356.23720021 -134.64179558 356.23720021 -136.6784668 354.37060547 C-137.3384668 354.37060547 -137.9984668 354.37060547 -138.6784668 354.37060547 C-138.27072538 358.90562601 -137.86174055 363.44053216 -137.45166016 367.9753418 C-137.31265596 369.51437432 -137.17397704 371.05343626 -137.03564453 372.5925293 C-136.32227963 380.5271042 -135.60571449 388.45749168 -134.6784668 396.37060547 C-133.8122168 396.53560547 -132.9459668 396.70060547 -132.0534668 396.87060547 C-124.5661123 400.19831858 -121.59229129 407.97871808 -118.7722168 415.27294922 C-113.11576838 431.29281921 -112.20223293 448.49281608 -112.9284668 465.37060547 C-112.96681641 466.27149902 -113.00516602 467.17239258 -113.04467773 468.10058594 C-113.33550236 473.12728992 -113.93855346 477.62997202 -115.6784668 482.37060547 C-123.78509173 486.42391793 -138.44743777 482.93812508 -147.25234985 481.83053589 C-149.49300902 481.55002536 -151.73518188 481.28560529 -153.97802734 481.02319336 C-166.15393895 479.57143966 -166.15393895 479.57143966 -172.08862305 478.26123047 C-185.70278723 475.26350891 -197.82993575 478.04117498 -211.36499023 480.74121094 C-230.80650556 484.43412477 -250.95605538 484.68659433 -270.6784668 484.37060547 C-271.75918457 484.35803711 -272.83990234 484.34546875 -273.95336914 484.33251953 C-277.42507737 484.28444444 -280.89499916 484.20630233 -284.3659668 484.12060547 C-285.45264648 484.10658691 -286.53932617 484.09256836 -287.65893555 484.078125 C-296.07124553 483.81654172 -303.85963085 481.94343188 -310.2644043 476.09326172 C-315.92001427 469.20341642 -318.3626284 461.89452416 -318.18237305 453.06201172 C-318.87049858 449.32879522 -320.76696944 447.60913988 -323.6784668 445.37060547 C-327.3654599 443.21596411 -331.18846139 441.37231385 -335.03393555 439.51904297 C-336.13191971 438.9783316 -337.22990387 438.43762024 -338.36116028 437.88052368 C-341.85811575 436.15921107 -345.36130272 434.45116216 -348.8659668 432.74560547 C-352.38095551 431.03217153 -355.8943178 429.31576452 -359.40290833 427.58926392 C-361.58371255 426.51630459 -363.76827087 425.45093585 -365.95683289 424.39389038 C-366.94158096 423.90973663 -367.92632904 423.42558289 -368.94091797 422.92675781 C-369.80964035 422.50437836 -370.67836273 422.0819989 -371.57341003 421.64682007 C-373.6784668 420.37060547 -373.6784668 420.37060547 -375.6784668 417.37060547 C-375.51850738 413.61155922 -375.1042504 411.86090174 -372.6159668 408.99560547 C-371.9765918 408.45935547 -371.3372168 407.92310547 -370.6784668 407.37060547 C-371.7922168 406.28779297 -371.7922168 406.28779297 -372.9284668 405.18310547 C-384.67432418 393.17029679 -386.04080324 379.76416749 -385.99414062 363.59643555 C-385.99100606 361.33641078 -386.01441983 359.07773258 -386.03979492 356.81787109 C-386.09698739 343.57812998 -385.37220606 329.11244711 -378.6784668 317.37060547 C-378.17702148 316.48373047 -377.67557617 315.59685547 -377.15893555 314.68310547 C-373.18635929 307.87849796 -373.18635929 307.87849796 -370.6784668 305.37060547 C-370.36640655 302.43416725 -370.36640655 302.43416725 -370.40722656 298.93994141 C-370.40199982 298.27938751 -370.39677307 297.61883362 -370.39138794 296.93826294 C-370.3811319 295.49998098 -370.37536474 294.06166174 -370.37350655 292.62334442 C-370.36983949 290.33402867 -370.35309606 288.04514495 -370.33274841 285.75592041 C-370.27742381 279.24540332 -370.24691728 272.73481826 -370.22216797 266.22412109 C-370.2061135 262.24051385 -370.1756933 258.25720242 -370.13740349 254.27375031 C-370.12588797 252.76700279 -370.11982434 251.26020185 -370.11972237 249.75341034 C-370.11881694 239.91863655 -369.15044971 230.93310735 -366.6784668 221.37060547 C-367.6890918 221.16435547 -368.6997168 220.95810547 -369.7409668 220.74560547 C-377.44818004 218.47694996 -381.54774458 212.69514564 -385.3347168 205.93701172 C-395.67725168 186.18397271 -397.99853148 161.47215952 -392.7800293 139.76904297 C-389.67139974 130.17859009 -385.56691805 120.87795958 -376.6784668 115.37060547 C-372.58408046 113.45143448 -368.5588236 112.76436655 -364.10424805 112.26904297 C-363.36620438 112.18536469 -362.62816071 112.1016864 -361.86775208 112.01547241 C-353.71474674 111.16535866 -345.5723062 110.99839453 -337.38037109 111 C-334.82220357 110.99552898 -332.26563916 110.95874922 -329.70776367 110.92138672 C-328.06649342 110.91553342 -326.42521515 110.9115541 -324.78393555 110.90966797 C-324.026707 110.89529694 -323.26947845 110.8809259 -322.48930359 110.86611938 C-318.99385397 110.89660114 -317.02557917 111.11709833 -314.16796875 113.20410156 C-312.6784668 115.37060547 -312.6784668 115.37060547 -312.7409668 118.49560547 C-313.6784668 121.37060547 -313.6784668 121.37060547 -316.6784668 123.37060547 C-319.22750279 123.47291409 -321.65036458 123.46293616 -324.19018555 123.34716797 C-324.91841019 123.32214203 -325.64663483 123.29711609 -326.39692688 123.27133179 C-328.7204206 123.18922843 -331.04305185 123.09260367 -333.3659668 122.99560547 C-334.94210356 122.93735588 -336.51827561 122.88005281 -338.09448242 122.82373047 C-341.95630566 122.68366448 -345.81741883 122.53057356 -349.6784668 122.37060547 C-348.96074097 123.77342773 -348.96074097 123.77342773 -348.22851562 125.20458984 C-347.59313942 126.4577418 -346.95797836 127.71100286 -346.32299805 128.96435547 C-346.00850708 129.57762695 -345.69401611 130.19089844 -345.36999512 130.82275391 C-334.86370654 151.62945995 -333.56588329 177.81042963 -340.6159668 199.93310547 C-341.91744207 203.73214867 -343.52596385 206.97934014 -345.6784668 210.37060547 C-342.53625852 211.94170961 -339.13603704 211.7570824 -335.6784668 211.93310547 C-334.88843262 211.97556396 -334.09839844 212.01802246 -333.28442383 212.06176758 C-324.74897014 212.48053564 -316.22148551 212.46148865 -307.6784668 212.37060547 C-303.72898735 203.12959044 -300.58257973 194.27533327 -298.6784668 184.37060547 C-299.46608398 183.91943359 -300.25370117 183.46826172 -301.06518555 183.00341797 C-304.21779096 181.03362864 -305.25849978 179.80842036 -306.6784668 176.37060547 C-307.4764881 171.14520572 -306.52784028 166.44202808 -305.2409668 161.37060547 C-300.23306137 140.83819324 -303.76827338 121.36923463 -309.33862305 101.35498047 C-313.77102281 85.22770432 -312.25161856 69.97965374 -304.4050293 55.19482422 C-296.51853323 42.29451504 -285.6290538 36.35825222 -271.2722168 32.76904297 C-267.97748255 32.26292415 -264.76076101 32.33210347 -261.4284668 32.30810547 C-254.82140475 32.03516529 -251.57659735 30.37471823 -247.0300293 25.63232422 C-235.12020151 14.17752307 -217.70371184 10.23363756 -201.6784668 10.37060547 C-186.05737281 11.3925462 -170.8615814 17.18749087 -159.6784668 28.37060547 C-157.86053355 28.86823593 -156.02302581 29.295653 -154.1784668 29.68310547 C-142.06600634 32.5842936 -132.79518066 38.20442269 -126.09643555 48.80029297 C-118.91279868 61.82187164 -116.59294077 75.47826575 -119.3972168 90.12451172 C-122.57296742 100.97072454 -127.63905997 109.41993382 -135.6784668 117.37060547 C-136.3384668 117.70060547 -136.9984668 118.03060547 -137.6784668 118.37060547 C-138.14369743 120.26593888 -138.14369743 120.26593888 -138.3034668 122.43310547 C-138.4272168 123.73248047 -138.5509668 125.03185547 -138.6784668 126.37060547 C-138.03780273 126.71091797 -137.39713867 127.05123047 -136.73706055 127.40185547 C-126.76487039 132.98984876 -120.96129813 139.3343534 -117.6784668 150.37060547 C-112.06496544 171.0603676 -116.54248409 192.82576895 -126.2956543 211.46044922 C-130.03292484 217.94024416 -130.03292484 217.94024416 -133.6784668 220.37060547 C-136.7409668 220.18310547 -136.7409668 220.18310547 -139.6784668 219.37060547 C-141.6784668 216.37060547 -141.6784668 216.37060547 -141.6159668 213.68310547 C-140.78616124 210.75112584 -140.07002012 209.26266785 -138.4284668 206.80810547 C-128.70790496 192.12864831 -126.04556671 173.6751902 -128.9597168 156.57373047 C-130.4002381 150.15401598 -131.97644894 145.27320936 -137.4284668 141.30810547 C-138.5009668 140.66873047 -139.5734668 140.02935547 -140.6784668 139.37060547 C-140.73454102 140.84207031 -140.73454102 140.84207031 -140.79174805 142.34326172 C-141.7038922 162.45566334 -145.34092256 179.1042548 -160.6784668 193.37060547 C-164.55121499 196.31628653 -167.83002171 197.40091645 -172.6784668 198.37060547 C-173.0084668 203.32060547 -173.3384668 208.27060547 -173.6784668 213.37060547 C-171.3684668 213.37060547 -169.0584668 213.37060547 -166.6784668 213.37060547 C-160.30232265 214.48204344 -155.42387323 216.96285252 -150.22143555 220.71044922 C-147.18344019 222.69377952 -144.02877017 224.15116681 -140.7409668 225.68310547 C-130.69492573 230.513578 -124.06065268 237.63531336 -117.2331543 246.27294922 C-114.19417161 250.0401503 -110.87222422 253.53821124 -107.5534668 257.05810547 C-103.39285677 261.47220381 -99.2663245 265.89072955 -95.3112793 270.49169922 C-93.32485215 272.7775161 -91.28147358 275.00796498 -89.2409668 277.24560547 C-75.21114338 292.81558103 -75.21114338 292.81558103 -75.4206543 302.10888672 C-76.13274231 308.35584067 -80.66972306 311.30315526 -85.2409668 315.05810547 C-86.19100586 315.80447266 -87.14104492 316.55083984 -88.11987305 317.31982422 C-90.12676254 318.92839977 -91.8889753 320.53873214 -93.6784668 322.37060547 C-86.18305595 348.00536632 -86.18305595 348.00536632 -68.6784668 367.37060547 C-67.86635742 367.94294922 -67.05424805 368.51529297 -66.2175293 369.10498047 C-53.64792131 376.55090661 -36.9594426 377.14768222 -22.6784668 378.37060547 C-21.96899902 378.4328833 -21.25953125 378.49516113 -20.52856445 378.55932617 C-18.53986837 378.7100569 -16.54629225 378.79136788 -14.5534668 378.87060547 C-13.25151367 378.94279297 -11.94956055 379.01498047 -10.6081543 379.08935547 C-6.03532575 378.25297331 -3.47601854 377.1684441 -0.14624023 373.93554688 C3.13222392 368.20641441 1.41860642 361.09150444 0.6340332 354.80810547 C0.46268141 353.19282456 0.29401312 351.57725688 0.12792969 349.96142578 C-1.47545452 334.99222857 -3.96901812 320.17489713 -6.6784668 305.37060547 C-7.42355543 301.20658172 -8.14835271 297.03943788 -8.8659668 292.87060547 C-9.0978772 291.60265137 -9.0978772 291.60265137 -9.33447266 290.30908203 C-12.63100789 271.27835063 -12.97617462 252.16635056 -12.88427734 232.90014648 C-12.86587982 228.91426124 -12.86376951 224.92879445 -12.86401367 220.94287109 C-12.84680392 208.7014448 -12.67606678 196.57406697 -11.6784668 184.37060547 C-10.82580442 168.47464431 -12.77299315 158.23667597 -21.953125 145.07910156 C-28.1402247 136.05936769 -31.79760522 126.18931968 -31.8659668 115.18310547 C-31.88014648 114.13767578 -31.89432617 113.09224609 -31.90893555 112.01513672 C-31.6784668 109.37060547 -31.6784668 109.37060547 -29.6784668 107.37060547 C-26.1784668 107.05810547 -26.1784668 107.05810547 -22.6784668 107.37060547 C-20.37406372 110.82721008 -20.02606084 113.80875047 -19.4284668 117.80810547 C-17.77638188 127.64810617 -14.10029134 135.67273804 -7.6784668 143.37060547 C-7.35919616 141.91373944 -7.04855846 140.45498196 -6.7409668 138.99560547 C-6.47993164 137.77744141 -6.47993164 137.77744141 -6.21362305 136.53466797 C0.57994922 96.36829177 -6.06933722 49.93502129 -17.22314453 11.08935547 C-17.76338542 7.86355247 -17.54570547 5.51997844 -16.6784668 2.37060547 C-11.7265316 -0.93068466 -5.80063298 -0.00126721 0 0 Z M-4.6784668 12.37060547 C-4.20795898 14.63033203 -3.73745117 16.89005859 -3.25268555 19.21826172 C0.25294782 36.20286637 3.54108526 53.10148113 5.3215332 70.37060547 C5.41217041 71.13687256 5.50280762 71.90313965 5.59619141 72.69262695 C6.66190597 82.56915364 6.69712927 92.50921927 6.7590332 102.43310547 C6.76879181 103.95519119 6.76879181 103.95519119 6.77874756 105.50802612 C6.82649928 121.99374555 5.57222848 138.09276595 3.4465332 154.43310547 C3.3083316 155.49637054 3.17013 156.55963562 3.02774048 157.65512085 C2.48608407 161.79869544 1.9403924 165.94171231 1.38920593 170.08403015 C-4.80371396 216.99113578 -2.57797214 264.09857107 5.89379883 310.50537109 C8.49755623 324.77396163 10.18098468 338.97270951 11.37084961 353.41870117 C11.45664528 354.45270554 11.45664528 354.45270554 11.54417419 355.50759888 C11.69859321 357.38960666 11.84752674 359.27206223 11.99609375 361.15454102 C12.30143559 364.68783817 12.30143559 364.68783817 13.3215332 369.37060547 C18.9315332 369.37060547 24.5415332 369.37060547 30.3215332 369.37060547 C29.78142126 344.90353454 26.02726287 320.89693528 21.37231445 296.90576172 C18.7532082 283.30790508 17.33072302 271.43800247 24.6418457 259.15185547 C28.05599298 254.15190208 31.9977912 251.18110886 37.3215332 248.37060547 C37.26143928 245.61830399 37.17440699 242.87136107 37.0715332 240.12060547 C37.05735352 239.34330078 37.04317383 238.56599609 37.02856445 237.76513672 C36.83036519 233.01242864 36.83036519 233.01242864 34.4855957 228.95654297 C32.69301544 227.64284697 30.82721619 226.4297392 28.9465332 225.24560547 C23.32613298 221.32945563 20.51366467 215.24255855 17.9465332 209.05810547 C16.15767713 198.50385463 17.56662031 187.51641674 18.5715332 176.93310547 C18.63644958 176.22760559 18.70136597 175.52210571 18.76824951 174.79522705 C19.85290929 163.0449106 21.27046951 151.35966686 22.96313477 139.68139648 C28.09450681 103.70823415 29.20682051 46.14118008 12.3215332 12.37060547 C6.7115332 12.37060547 1.1015332 12.37060547 -4.6784668 12.37060547 Z M-249.6784668 44.37060547 C-260.42728354 58.75563903 -262.00509979 75.12740226 -259.9284668 92.49560547 C-258.41772089 101.99323183 -255.70468843 109.83782842 -249.6784668 117.37060547 C-248.9772168 117.08185547 -248.2759668 116.79310547 -247.5534668 116.49560547 C-235.54173354 111.79536202 -235.54173354 111.79536202 -229.5612793 114.23388672 C-228.18479875 114.92716905 -226.8212058 115.6469571 -225.4753418 116.39794922 C-223.53803316 117.5138108 -223.53803316 117.5138108 -220.6784668 118.37060547 C-218.35795704 117.46387672 -216.25396655 116.51288081 -214.0534668 115.37060547 C-213.42537109 115.04882324 -212.79727539 114.72704102 -212.15014648 114.39550781 C-206.82912165 111.59288277 -202.22138221 108.3155503 -197.6784668 104.37060547 C-196.88053711 103.72736328 -196.08260742 103.08412109 -195.26049805 102.42138672 C-181.23694705 90.65899744 -172.04499644 74.04465401 -167.6784668 56.37060547 C-164.80915693 55.36634702 -162.68471395 54.95080844 -159.81518555 56.14794922 C-150.26268098 62.44609351 -143.24508086 75.40931998 -140.6784668 86.37060547 C-139.77341031 91.6771214 -139.18928608 97.01372434 -138.6784668 102.37060547 C-135.39470932 99.45170994 -133.88797308 97.02170984 -132.4909668 92.87060547 C-132.00563477 91.46294922 -132.00563477 91.46294922 -131.51049805 90.02685547 C-128.15571833 79.31676059 -129.12819215 68.81542381 -133.9675293 58.66748047 C-138.87966425 49.89393461 -145.09019955 44.51969324 -154.6784668 41.37060547 C-156.36184447 41.07523019 -158.04972972 40.80452805 -159.7409668 40.55810547 C-164.67878723 39.6983617 -167.08253841 37.64977191 -170.6394043 34.24169922 C-181.30171491 24.45770155 -195.47165435 21.39122909 -209.5690918 21.99169922 C-225.85522557 23.19765945 -239.36249288 32.13462379 -249.6784668 44.37060547 Z M-288.86987305 54.44482422 C-296.62619129 62.62966833 -300.47738119 72.00321007 -300.7487793 83.29638672 C-300.47897411 89.66855049 -299.21393639 95.33672911 -297.3034668 101.37060547 C-290.38787918 123.31333462 -290.34251323 144.99438914 -294.6784668 167.37060547 C-295.01828133 169.36951447 -295.3543229 171.36909558 -295.6784668 173.37060547 C-283.53708534 172.34167484 -270.49873968 166.71259617 -262.29174805 157.52294922 C-255.89893757 148.99404226 -253.08198942 142.74269163 -253.90893555 132.00341797 C-254.96110946 127.03630252 -257.26857336 124.46542058 -260.61206055 120.76904297 C-271.70210038 107.89704966 -271.70225723 87.00266404 -270.89868164 70.93115234 C-270.11015584 61.76257299 -267.09074611 53.40725708 -262.6784668 45.37060547 C-262.6784668 44.71060547 -262.6784668 44.05060547 -262.6784668 43.37060547 C-272.97799107 43.37060547 -281.52538707 47.49309151 -288.86987305 54.44482422 Z M-160.6784668 71.37060547 C-160.93426514 71.88333008 -161.19006348 72.39605469 -161.45361328 72.92431641 C-174.72786245 99.33678991 -191.75658038 118.51209409 -219.6784668 129.37060547 C-222.8972168 130.24169922 -222.8972168 130.24169922 -225.6784668 130.37060547 C-227.5847168 129.15576172 -227.5847168 129.15576172 -229.1784668 127.43310547 C-231.65071499 125.09183731 -232.40628593 124.42397427 -235.8659668 123.74560547 C-239.33988407 124.51758709 -240.55680603 125.54172445 -242.6784668 128.37060547 C-244.56017864 132.91807576 -244.18994154 137.94984229 -242.5534668 142.49560547 C-239.98525603 146.43352865 -236.93621515 149.24173129 -232.6784668 151.37060547 C-230.86692472 151.47266418 -229.0541284 151.55318379 -227.2409668 151.62060547 C-221.94435522 152.0958541 -221.94435522 152.0958541 -219.8034668 154.30810547 C-219.4322168 155.31873047 -219.0609668 156.32935547 -218.6784668 157.37060547 C-212.01277703 172.40656979 -201.99417949 177.81111401 -187.2175293 183.76513672 C-179.60097355 186.55631691 -179.60097355 186.55631691 -171.6784668 186.37060547 C-168.6199833 184.38168987 -166.17213365 182.02171361 -163.6784668 179.37060547 C-163.11772461 178.78021484 -162.55698242 178.18982422 -161.97924805 177.58154297 C-152.19361972 165.99654218 -152.12860236 148.75452052 -150.6784668 134.37060547 C-150.60499023 133.65614258 -150.53151367 132.94167969 -150.45581055 132.20556641 C-150.03707186 127.93131358 -149.80306544 123.66201446 -149.6784668 119.37060547 C-149.65123535 118.45746582 -149.62400391 117.54432617 -149.59594727 116.60351562 C-149.15889482 99.39354497 -149.56704083 85.99328302 -159.6784668 71.37060547 C-160.0084668 71.37060547 -160.3384668 71.37060547 -160.6784668 71.37060547 Z M-371.2409668 125.30810547 C-379.09596525 131.95464262 -381.92947161 141.48144301 -383.4284668 151.43310547 C-384.14604924 162.73502894 -384.46141836 173.69995846 -377.1394043 183.08544922 C-374.49601515 185.41078352 -372.07648412 185.49645796 -368.6784668 185.37060547 C-366.30528461 183.94669616 -365.83420933 182.85199147 -364.9909668 180.24560547 C-364.22216624 173.17264036 -364.13623089 167.69602673 -367.6784668 161.37060547 C-370.08639243 159.11802988 -372.69737317 157.75468465 -375.6784668 156.37060547 C-375.6784668 154.06060547 -375.6784668 151.75060547 -375.6784668 149.37060547 C-372.74545948 147.90410181 -370.95809335 148.00620252 -367.6784668 148.37060547 C-361.98154147 150.71510935 -358.8426192 153.80604508 -356.36987305 159.40576172 C-353.30526116 168.11480002 -353.19704811 180.04228476 -356.69799805 188.67138672 C-359.13418224 192.89345893 -363.09359905 195.12018699 -367.6784668 196.37060547 C-370.68690028 196.52280278 -373.66936336 196.48860953 -376.6784668 196.37060547 C-374.68166595 202.48580805 -371.42116877 207.17320364 -365.6784668 210.37060547 C-362.17922653 210.12329074 -360.88477236 209.53665629 -358.1159668 207.30810547 C-349.73407247 197.20684821 -348.12159017 184.37957916 -348.2409668 171.62060547 C-348.24781494 170.48751953 -348.25466309 169.35443359 -348.26171875 168.18701172 C-348.54514413 153.2917875 -351.5807278 137.1976679 -362.6784668 126.37060547 C-366.09034867 124.59358366 -367.59911907 123.97572215 -371.2409668 125.30810547 Z M-247.6784668 155.37060547 C-248.07678711 155.90169922 -248.47510742 156.43279297 -248.88549805 156.97998047 C-253.6784668 163.37060547 -253.6784668 163.37060547 -255.21899414 165.18212891 C-256.91909985 167.73143429 -257.25274728 169.4995709 -257.63549805 172.52685547 C-257.77568359 173.54062256 -257.91586914 174.55438965 -258.06030273 175.59887695 C-258.20242188 176.67854736 -258.34454102 177.75821777 -258.4909668 178.87060547 C-259.96903599 189.16087523 -262.28956452 198.80550366 -265.5065918 208.67919922 C-266.77932651 212.04282126 -266.77932651 212.04282126 -266.6784668 214.37060547 C-260.91037566 214.88332468 -256.80833179 213.46401639 -251.4440918 211.39013672 C-244.69634642 208.90262042 -237.80411337 208.04923848 -230.6784668 207.37060547 C-229.47485889 197.98815011 -229.56543116 188.68528028 -229.6159668 179.24560547 C-229.62099242 177.60498184 -229.62555345 175.96435671 -229.62963867 174.32373047 C-229.64055874 170.33931805 -229.65776462 166.35497857 -229.6784668 162.37060547 C-230.26942139 162.25668457 -230.86037598 162.14276367 -231.46923828 162.02539062 C-235.95681715 161.10507295 -239.77612841 160.13709529 -243.7409668 157.74560547 C-244.49506836 157.29958984 -245.24916992 156.85357422 -246.02612305 156.39404297 C-246.57139648 156.05630859 -247.11666992 155.71857422 -247.6784668 155.37060547 Z M-275.4284668 178.74560547 C-281.63574137 181.35999944 -281.63574137 181.35999944 -284.44799805 182.05810547 C-287.04731234 183.26228032 -287.04731234 183.26228032 -287.83081055 186.72216797 C-288.11053607 188.14322083 -288.37108248 189.56813593 -288.6159668 190.99560547 C-290.01993381 198.00567513 -292.00244667 204.47067906 -294.66064453 211.10351562 C-296.01527074 214.50046735 -297.22641001 217.72716269 -297.6784668 221.37060547 C-296.11751203 222.93156024 -294.58845785 222.54022475 -292.4284668 222.55810547 C-291.66018555 222.57228516 -290.8919043 222.58646484 -290.1003418 222.60107422 C-287.16017128 222.3212838 -285.2641178 221.83024716 -282.6784668 220.37060547 C-273.98036787 207.82101782 -270.41715389 191.29217383 -268.6784668 176.37060547 C-270.93324166 176.37060547 -273.40913214 177.89354475 -275.4284668 178.74560547 Z M-218.6784668 179.37060547 C-218.70130234 179.98431503 -218.72413788 180.5980246 -218.74766541 181.23033142 C-218.98893675 187.70482566 -219.2327837 194.17921949 -219.47802734 200.65356445 C-219.56883727 203.05946484 -219.65902297 205.46538887 -219.74853516 207.87133789 C-219.83556506 210.20850402 -219.92347855 212.54563742 -220.01229858 214.88273621 C-220.0993914 217.17799601 -220.18438483 219.47333646 -220.26724243 221.76875305 C-220.45515455 226.73872726 -220.67573062 231.69080054 -221.09985352 236.64672852 C-221.19490929 237.81607689 -221.19490929 237.81607689 -221.29188538 239.00904846 C-221.46418341 241.0154878 -221.66249389 243.01964863 -221.86328125 245.0234375 C-221.50557251 251.50188774 -217.25145221 255.19783829 -212.6784668 259.37060547 C-211.81092773 260.23169922 -210.94338867 261.09279297 -210.04956055 261.97998047 C-200.02908638 272.08699828 -200.02908638 272.08699828 -187.6784668 277.37060547 C-180.97962705 262.08684488 -180.70911719 248.18600742 -183.16674805 231.74951172 C-184.69348376 220.11684234 -184.77727113 208.09538659 -184.6784668 196.37060547 C-185.34749023 196.11408203 -186.01651367 195.85755859 -186.70581055 195.59326172 C-197.83586487 191.15617966 -208.43158734 185.57112254 -218.6784668 179.37060547 Z M-244.1159668 220.24560547 C-244.7843457 220.41962891 -245.45272461 220.59365234 -246.14135742 220.77294922 C-252.99415049 222.4983313 -252.99415049 222.4983313 -257.6784668 227.37060547 C-258.11570201 230.26712714 -258.11570201 230.26712714 -258.25415039 233.61230469 C-258.3296109 234.90508331 -258.40507141 236.19786194 -258.4828186 237.52981567 C-258.55619996 238.95328996 -258.6292177 240.37678303 -258.7019043 241.80029297 C-258.78390424 243.28379312 -258.86646486 244.76726238 -258.94955444 246.2507019 C-259.20867464 250.95655579 -259.44653195 255.66334147 -259.6784668 260.37060547 C-259.71571365 261.12447037 -259.75296051 261.87833527 -259.79133606 262.65504456 C-260.27030841 272.41211193 -260.70262936 282.17089953 -261.11108398 291.93115234 C-261.23929382 294.99219302 -261.37123979 298.05303639 -261.5065918 301.11376953 C-262.15059746 315.69024856 -262.78943966 330.27159324 -262.9519043 344.86279297 C-262.97185455 345.80083771 -262.99180481 346.73888245 -263.01235962 347.70535278 C-263.01480682 348.55249847 -263.01725403 349.39964417 -263.01977539 350.27246094 C-263.02673431 350.99835419 -263.03369324 351.72424744 -263.04086304 352.47213745 C-262.57664606 354.90400892 -261.5405475 355.80421025 -259.6784668 357.37060547 C-255.60023129 345.5363932 -251.94991828 333.67291138 -248.8034668 321.55810547 C-248.5932489 320.75333771 -248.38303101 319.94856995 -248.16644287 319.11941528 C-240.98167975 291.52592101 -234.63780972 263.77095673 -231.6784668 235.37060547 C-231.53908691 234.11103027 -231.39970703 232.85145508 -231.25610352 231.55371094 C-231.076521 229.66676514 -231.076521 229.66676514 -230.89331055 227.74169922 C-230.77979248 226.59499756 -230.66627441 225.4482959 -230.54931641 224.2668457 C-230.42265306 221.38637344 -230.42265306 221.38637344 -231.97753906 219.47241211 C-235.71596205 217.05078114 -240.13090458 219.16814857 -244.1159668 220.24560547 Z M-354.6784668 222.37060547 C-355.1528418 223.87623047 -355.6272168 225.38185547 -356.1159668 226.93310547 C-356.38280273 227.78001953 -356.64963867 228.62693359 -356.92456055 229.49951172 C-358.34966805 234.92673461 -358.80343728 240.26003685 -358.79199219 245.85668945 C-358.79191666 247.09744736 -358.79184113 248.33820526 -358.79176331 249.61656189 C-358.78665834 250.94994142 -358.78144237 252.28332053 -358.77612305 253.61669922 C-358.77425527 254.99674935 -358.77283307 256.37680016 -358.77183533 257.7568512 C-358.76803848 261.36862048 -358.75823274 264.98034881 -358.74713135 268.59210205 C-358.73685598 272.28584235 -358.73232464 275.97958934 -358.72729492 279.67333984 C-358.71660762 286.90578245 -358.69903413 294.13818297 -358.6784668 301.37060547 C-352.4084668 301.37060547 -346.1384668 301.37060547 -339.6784668 301.37060547 C-339.58758789 297.20564453 -339.58758789 297.20564453 -339.49487305 292.95654297 C-338.29988274 239.09910111 -338.29988274 239.09910111 -335.6784668 223.37060547 C-341.9484668 223.04060547 -348.2184668 222.71060547 -354.6784668 222.37060547 Z M-323.6784668 224.37060547 C-324.1624323 225.91077241 -324.64039067 227.45282741 -325.1159668 228.99560547 C-325.38280273 229.85412109 -325.64963867 230.71263672 -325.92456055 231.59716797 C-327.34147793 236.80966197 -327.81063583 241.80305228 -327.88037109 247.1953125 C-327.90111508 248.55111792 -327.92192605 249.90692232 -327.9427948 251.26272583 C-327.95216757 251.97354435 -327.96154034 252.68436287 -327.97119713 253.41672134 C-328.0254105 257.22458298 -328.1072713 261.03189986 -328.18432617 264.83935547 C-328.28055953 269.66443718 -328.36881617 274.48922631 -328.42626953 279.31494141 C-328.47364007 283.23243786 -328.54959942 287.14851176 -328.64377785 291.06515121 C-328.67430051 292.545496 -328.69474789 294.02608882 -328.70425987 295.50671768 C-328.77506839 305.50224811 -330.58807496 312.69452568 -335.6784668 321.37060547 C-339.67488999 331.83742811 -338.84196281 343.43374293 -337.6784668 354.37060547 C-336.6884668 354.37060547 -335.6984668 354.37060547 -334.6784668 354.37060547 C-332.84251188 352.24571945 -332.84251188 352.24571945 -331.09643555 349.43701172 C-330.41129883 348.39480469 -329.72616211 347.35259766 -329.02026367 346.27880859 C-328.3093457 345.17472656 -327.59842773 344.07064453 -326.8659668 342.93310547 C-326.16665039 341.86382812 -325.46733398 340.79455078 -324.74682617 339.69287109 C-323.36902912 337.58557626 -321.99508195 335.47575861 -320.62524414 333.36328125 C-318.01002908 329.34305223 -315.35066332 325.35311422 -312.6784668 321.37060547 C-313.6272168 320.62810547 -314.5759668 319.88560547 -315.5534668 319.12060547 C-318.78256881 316.59348215 -320.34282853 314.21016138 -321.0847168 310.14404297 C-321.52549174 298.86755059 -314.08924081 291.3769328 -307.4519043 282.92529297 C-304.46629293 279.11901248 -301.57106994 275.24777684 -298.6784668 271.37060547 C-291.0359374 261.15302125 -283.24834568 251.05465273 -275.34423828 241.03808594 C-274.11919428 239.48471472 -272.89864359 237.9278028 -271.6784668 236.37060547 C-271.08291992 235.65517578 -270.48737305 234.93974609 -269.8737793 234.20263672 C-268.01717788 231.35706134 -268.48820809 228.66842302 -268.6784668 225.37060547 C-271.8376678 225.7216278 -273.33018876 226.02232744 -275.6159668 228.30810547 C-279.5226825 232.21482117 -284.27790879 232.63686742 -289.64916992 232.69287109 C-290.33946289 232.68964844 -291.02975586 232.68642578 -291.7409668 232.68310547 C-292.43512695 232.69921875 -293.12928711 232.71533203 -293.84448242 232.73193359 C-298.34103713 232.73620383 -301.14982263 232.1776205 -304.6784668 229.37060547 C-305.28174805 228.49017578 -305.8850293 227.60974609 -306.5065918 226.70263672 C-308.57273031 223.98883595 -308.57273031 223.98883595 -312.3503418 223.88232422 C-313.71057839 223.91533967 -315.07039018 223.97466976 -316.4284668 224.05810547 C-317.47454102 224.09194336 -317.47454102 224.09194336 -318.54174805 224.12646484 C-320.25491615 224.18513498 -321.96697303 224.27481291 -323.6784668 224.37060547 Z M-172.6784668 225.37060547 C-172.92358024 233.42870996 -171.27742865 237.60586161 -165.99487305 243.59716797 C-154.00633275 257.95106951 -147.17609868 276.45310539 -142.6784668 294.37060547 C-142.38069336 295.55009766 -142.08291992 296.72958984 -141.77612305 297.94482422 C-138.7595756 311.82694555 -138.44807774 326.22192307 -137.6784668 340.37060547 C-128.03576507 330.89175386 -127.49374962 319.08243023 -127.3659668 306.12060547 C-127.49324121 277.39222578 -139.88548774 250.47177606 -158.8190918 229.11279297 C-161.33833262 226.75232782 -163.35290748 225.49155066 -166.8190918 225.17529297 C-167.86323242 225.21009766 -167.86323242 225.21009766 -168.9284668 225.24560547 C-170.1659668 225.28685547 -171.4034668 225.32810547 -172.6784668 225.37060547 Z M-130.6784668 249.37060547 C-129.32722756 253.6559642 -127.6748635 257.6634396 -125.8034668 261.74560547 C-120.61201481 273.45378369 -117.48505456 286.35781738 -117.58081055 299.17529297 C-117.58222549 299.89927277 -117.58364044 300.62325256 -117.58509827 301.36917114 C-117.59065604 303.66135954 -117.60320047 305.95344704 -117.6159668 308.24560547 C-117.62098726 309.80810405 -117.62554921 311.37060417 -117.62963867 312.93310547 C-117.6406116 316.74564382 -117.6578467 320.55810759 -117.6784668 324.37060547 C-111.34296687 320.27133064 -105.30475943 315.89857695 -99.3659668 311.24560547 C-98.58157227 310.63845703 -97.79717773 310.03130859 -96.98901367 309.40576172 C-93.34685039 306.56506003 -89.82953056 303.7666581 -86.6784668 300.37060547 C-87.92525157 295.79906131 -90.44556619 293.41700419 -93.76049805 290.24560547 C-96.26033042 287.80177749 -98.51342867 285.18411379 -100.7956543 282.53857422 C-102.89421999 280.12217596 -105.0328638 277.74531523 -107.1784668 275.37060547 C-109.8683011 272.38997826 -112.54157044 269.39815314 -115.1784668 266.37060547 C-122.70534795 257.6626866 -122.70534795 257.6626866 -130.6784668 249.37060547 Z M-271.6784668 253.37060547 C-273.44427908 255.64049377 -275.16309185 257.92898489 -276.8659668 260.24560547 C-281.42724114 266.3979898 -286.07497437 272.47092542 -290.8034668 278.49560547 C-295.94473566 285.06061033 -300.89888461 291.72619215 -305.69018555 298.55029297 C-307.6784668 301.37060547 -307.6784668 301.37060547 -309.51049805 303.44091797 C-310.90567325 305.3557794 -310.90567325 305.3557794 -310.61987305 307.90185547 C-309.45503441 310.95653604 -308.24252219 311.94124925 -305.6159668 313.87060547 C-304.7187793 314.54994141 -303.8215918 315.22927734 -302.8972168 315.92919922 C-302.13731445 316.49936768 -302.13731445 316.49936768 -301.36206055 317.08105469 C-298.04952906 319.6182924 -294.84371584 322.28951497 -291.6159668 324.93310547 C-283.1727277 333.32457084 -283.1727277 333.32457084 -273.6784668 338.37060547 C-273.2812261 330.38901591 -272.88973509 322.40717144 -272.50501251 314.42496967 C-272.32608217 310.71603696 -272.14538224 307.00721048 -271.96020508 303.29858398 C-271.13024729 286.65066318 -270.42154861 270.04530937 -270.6784668 253.37060547 C-271.0084668 253.37060547 -271.3384668 253.37060547 -271.6784668 253.37060547 Z M-170.6784668 257.37060547 C-171.15026367 259.25392578 -171.15026367 259.25392578 -171.6315918 261.17529297 C-177.16340701 282.97356441 -185.72862116 301.47470617 -205.3034668 314.24560547 C-207.08456286 315.3052449 -208.8755643 316.34850886 -210.6784668 317.37060547 C-211.40163086 317.80501953 -212.12479492 318.23943359 -212.86987305 318.68701172 C-217.66591175 321.38067729 -221.19845876 321.76203461 -226.6784668 321.37060547 C-227.0534668 318.12060547 -227.0534668 318.12060547 -226.6784668 314.37060547 C-224.60810114 312.56567131 -223.08265058 311.57021882 -220.6784668 310.37060547 C-210.37591305 304.99365361 -201.98165326 298.46331444 -194.6784668 289.37060547 C-196.1522311 285.53716238 -198.03163049 284.30381271 -201.5534668 282.30810547 C-207.36346589 278.7762376 -212.06223446 274.58696767 -216.9519043 269.92138672 C-219.44020666 267.59350499 -222.00683606 265.48142334 -224.6784668 263.37060547 C-224.89349854 264.42820068 -225.10853027 265.4857959 -225.33007812 266.57543945 C-229.49530358 286.95726445 -233.94358541 307.22001842 -239.3659668 327.30810547 C-239.5874942 328.13317596 -239.80902161 328.95824646 -240.03726196 329.80831909 C-240.68606943 332.21498169 -241.34192425 334.61954234 -242.00268555 337.02294922 C-242.32172096 338.18451035 -242.32172096 338.18451035 -242.64720154 339.36953735 C-243.76122346 343.34819079 -244.96347404 347.27197485 -246.31420898 351.17700195 C-249.98668565 361.86069346 -251.57991685 371.27847947 -251.5534668 382.55810547 C-251.57168214 384.01321872 -251.59251157 385.46830162 -251.6159668 386.92333984 C-251.66664066 390.40594047 -251.68298308 393.88758417 -251.6784668 397.37060547 C-238.7988583 403.85002082 -225.40285389 408.62657989 -211.77319336 413.29443359 C-209.87352625 413.95503099 -207.9821389 414.64088542 -206.10717773 415.36865234 C-197.6192583 418.57479579 -191.15504084 416.51034632 -182.9284668 413.37060547 C-181.71477417 412.91572754 -181.71477417 412.91572754 -180.4765625 412.45166016 C-168.95874594 408.05276275 -157.66624399 402.96180932 -146.6784668 397.37060547 C-146.82293965 395.1205177 -146.96913369 392.87054045 -147.1159668 390.62060547 C-147.2377832 388.74115234 -147.2377832 388.74115234 -147.36206055 386.82373047 C-147.51424785 384.50161246 -147.69704066 382.19289168 -147.93896484 379.87817383 C-148.83394675 370.9558082 -148.72340934 362.09623138 -148.63827515 353.14245605 C-148.36810645 320.33044916 -150.51750622 286.87582452 -168.6784668 258.37060547 C-169.6684668 257.87560547 -169.6684668 257.87560547 -170.6784668 257.37060547 Z M-367.0534668 317.99560547 C-372.79081023 331.23755052 -374.35190632 342.85828297 -374.25488281 357.13916016 C-374.24095158 359.99872969 -374.27528796 362.8550569 -374.31323242 365.71435547 C-374.35996019 376.54203239 -374.36877944 387.32903896 -366.48339844 395.70117188 C-364.61710377 397.39295196 -362.7360391 398.92060415 -360.6784668 400.37060547 C-357.4213887 398.74206642 -356.75909491 395.22457198 -355.4284668 391.99560547 C-353.29910569 386.90898676 -351.05355834 382.1555105 -348.1784668 377.43310547 C-345.2491674 372.1743898 -345.40660772 369.10712847 -346.6784668 363.37060547 C-349.45848034 345.87884142 -348.99863087 330.44398706 -344.6784668 313.37060547 C-357.3576591 311.46494742 -357.3576591 311.46494742 -367.0534668 317.99560547 Z M-304.6784668 329.37060547 C-305.93177014 330.73556337 -305.93177014 330.73556337 -307.1472168 332.56201172 C-307.63061523 333.25133789 -308.11401367 333.94066406 -308.61206055 334.65087891 C-309.12897461 335.40401367 -309.64588867 336.15714844 -310.1784668 336.93310547 C-310.71600586 337.7081543 -311.25354492 338.48320312 -311.80737305 339.28173828 C-312.91251685 340.88001658 -314.01406166 342.4807892 -315.11206055 344.08398438 C-316.49022461 346.09581177 -317.87975631 348.09913945 -319.2722168 350.10107422 C-328.50215241 363.51631141 -336.53324432 377.74641754 -343.6784668 392.37060547 C-339.45285729 391.46511772 -335.25904908 390.5244188 -331.08081055 389.41748047 C-329.75925938 389.06828204 -328.43764252 388.71933215 -327.1159668 388.37060547 C-326.43453613 388.18651123 -325.75310547 388.00241699 -325.05102539 387.81274414 C-321.48174556 386.8965986 -318.12812989 386.26186056 -314.44018555 386.12451172 C-306.62318958 385.85390707 -306.62318958 385.85390707 -299.9440918 382.02685547 C-297.80067403 379.25302071 -295.91420191 376.4691778 -294.06958008 373.49658203 C-292.46482076 371.04409974 -290.71610057 368.74470144 -288.92456055 366.42529297 C-287.9493042 365.15576782 -287.9493042 365.15576782 -286.9543457 363.8605957 C-285.65967793 362.1774632 -284.36125369 360.49721259 -283.05883789 358.82006836 C-282.47569824 358.04139404 -281.89255859 357.26271973 -281.29174805 356.46044922 C-280.76363525 355.76814209 -280.23552246 355.07583496 -279.69140625 354.36254883 C-278.50312083 352.43739204 -278.50312083 352.43739204 -278.78979492 350.31982422 C-279.90401699 347.8758822 -281.18699875 346.76681988 -283.28393555 345.09326172 C-284.02063477 344.49707031 -284.75733398 343.90087891 -285.51635742 343.28662109 C-286.29172852 342.67496094 -287.06709961 342.06330078 -287.8659668 341.43310547 C-289.38031465 340.21568857 -290.894638 338.99824119 -292.40893555 337.78076172 C-293.50020752 336.91475342 -293.50020752 336.91475342 -294.61352539 336.03125 C-296.47753509 334.53219656 -298.2932931 332.99142987 -300.10424805 331.42919922 C-302.38944152 329.16242196 -302.38944152 329.16242196 -304.6784668 329.37060547 Z M-109.2331543 331.89013672 C-109.93053711 332.41800781 -110.62791992 332.94587891 -111.34643555 333.48974609 C-112.07475586 334.04855469 -112.80307617 334.60736328 -113.5534668 335.18310547 C-114.27405273 335.7303125 -114.99463867 336.27751953 -115.73706055 336.84130859 C-117.08881024 337.86819027 -118.43907157 338.89703623 -119.78735352 339.9284668 C-121.74313177 341.41991815 -123.70904872 342.89722741 -125.6784668 344.37060547 C-125.14914437 350.00474923 -122.99879675 354.21979278 -120.3659668 359.12060547 C-119.92518799 359.94753906 -119.48440918 360.77447266 -119.03027344 361.62646484 C-104.18433415 389.42938719 -104.18433415 389.42938719 -79.6784668 407.37060547 C-78.6884668 407.37060547 -77.6984668 407.37060547 -76.6784668 407.37060547 C-76.36393555 406.30841797 -76.0494043 405.24623047 -75.7253418 404.15185547 C-73.53359416 396.87583802 -71.3023657 390.08152936 -67.6784668 383.37060547 C-67.6784668 382.71060547 -67.6784668 382.05060547 -67.6784668 381.37060547 C-69.50533031 380.03149678 -71.39240007 378.77402748 -73.3034668 377.55810547 C-90.7744223 366.08831053 -97.73148368 348.87375508 -103.6784668 329.37060547 C-106.32091226 329.37060547 -107.14341647 330.29695712 -109.2331543 331.89013672 Z M-272.6784668 362.37060547 C-273.9782328 363.71975953 -273.9782328 363.71975953 -275.25268555 365.51904297 C-275.75251953 366.19064453 -276.25235352 366.86224609 -276.76733398 367.55419922 C-277.29488281 368.27736328 -277.82243164 369.00052734 -278.3659668 369.74560547 C-278.90253906 370.47134766 -279.43911133 371.19708984 -279.99194336 371.94482422 C-283.97864022 377.35654293 -287.8884448 382.81902396 -291.6784668 388.37060547 C-290.00402822 392.06869709 -287.71144763 395.26692061 -285.3659668 398.55810547 C-281.77781202 403.65508834 -278.53298458 408.81935732 -275.6784668 414.37060547 C-273.40792806 412.10006673 -272.99045917 410.57467296 -271.9909668 407.55810547 C-270.55676999 403.74987835 -269.53924821 401.88469143 -265.9909668 399.87060547 C-263.84536464 398.52731181 -262.86382495 397.89111702 -262.0065918 395.48388672 C-261.69210767 392.75989923 -261.6784668 390.11421112 -261.6784668 387.37060547 C-261.59935568 385.8664712 -261.51565515 384.3625744 -261.4284668 382.85888672 C-261.36297448 381.2379111 -261.30049481 379.61681107 -261.2409668 377.99560547 C-261.19399658 377.21032471 -261.14702637 376.42504395 -261.09863281 375.6159668 C-261.05798943 373.38106158 -261.08989635 371.52888701 -261.6784668 369.37060547 C-264.47558599 366.85932349 -264.47558599 366.85932349 -267.6784668 365.37060547 C-268.6784668 364.37060547 -269.6784668 363.37060547 -270.6784668 362.37060547 C-271.3384668 362.37060547 -271.9984668 362.37060547 -272.6784668 362.37060547 Z M2.68652344 385.47045898 C0.93667337 389.18830354 0.87209024 392.53071962 0.88793945 396.55810547 C0.8826976 397.33822998 0.87745575 398.11835449 0.87205505 398.92211914 C0.865652 400.56606866 0.86694959 402.21006409 0.87548828 403.85400391 C0.88400729 406.36297395 0.85520215 408.86967205 0.82348633 411.37841797 C0.82187427 412.97997979 0.82245193 414.58154562 0.82543945 416.18310547 C0.81420547 416.92906982 0.8029715 417.67503418 0.79139709 418.44360352 C0.83916925 422.02987458 1.20485615 424.18149108 3.10253906 427.25732422 C8.24118347 432.15116359 12.97424311 431.70623018 19.7590332 431.68310547 C21.17152344 431.70727539 21.17152344 431.70727539 22.61254883 431.73193359 C29.52646094 431.80483185 29.52646094 431.80483185 35.3215332 428.37060547 C38.15537149 423.70153186 38.70605409 420.16752144 38.7199707 414.74169922 C38.72427597 413.67351707 38.72427597 413.67351707 38.72866821 412.58375549 C38.73069894 411.08699746 38.72523877 409.59021229 38.71264648 408.09350586 C38.69655303 405.81091754 38.71253944 403.53009307 38.73168945 401.24755859 C38.72970731 399.78726826 38.72586422 398.32697901 38.7199707 396.86669922 C38.71658691 395.54855225 38.71320313 394.23040527 38.7097168 392.87231445 C38.1523342 387.8443028 36.47266317 385.3847787 32.7277832 382.08544922 C28.26489304 379.83865016 24.74172263 379.81450059 19.8215332 379.93310547 C18.99266602 379.92601562 18.16379883 379.91892578 17.30981445 379.91162109 C11.43697336 379.97231023 6.52732866 380.53768824 2.68652344 385.47045898 Z M-56.6784668 385.37060547 C-63.68509673 397.91247305 -67.90381656 411.31447661 -67.7409668 425.80810547 C-67.73194336 426.85869141 -67.72291992 427.90927734 -67.71362305 428.99169922 C-67.70202148 429.77673828 -67.69041992 430.56177734 -67.6784668 431.37060547 C-62.68336425 432.84212595 -57.77083514 432.38196147 -52.6159668 432.18310547 C-51.52791748 432.14121094 -50.43986816 432.09931641 -49.31884766 432.05615234 C-28.95320984 431.63049127 -28.95320984 431.63049127 -9.6784668 426.37060547 C-10.0084668 414.49060547 -10.3384668 402.61060547 -10.6784668 390.37060547 C-14.5559668 390.10248047 -18.4334668 389.83435547 -22.4284668 389.55810547 C-33.95296695 388.71532988 -45.28906713 387.2988334 -56.6784668 385.37060547 Z M-358.6784668 413.37060547 C-356.50363486 415.75976418 -354.4710105 417.14109924 -351.56176758 418.52783203 C-350.73726105 418.92544739 -349.91275452 419.32306274 -349.06326294 419.73272705 C-347.73196854 420.36558624 -347.73196854 420.36558624 -346.3737793 421.01123047 C-344.49191997 421.92587753 -342.61042063 422.84126556 -340.72924805 423.75732422 C-337.76834281 425.19141303 -334.80512226 426.61981654 -331.83520508 428.03515625 C-328.96478748 429.40659391 -326.10637975 430.80082314 -323.2487793 432.19873047 C-321.92355759 432.81944427 -321.92355759 432.81944427 -320.57156372 433.45269775 C-314.87117233 436.26734244 -311.89824671 438.85624215 -308.6784668 444.37060547 C-307.52906918 447.81879832 -307.36588941 450.9361828 -307.0534668 454.55810547 C-306.37617104 460.62466757 -304.94295807 464.55978627 -300.62768555 468.95263672 C-295.90796202 472.38602277 -291.55554576 472.63716437 -285.8659668 472.49560547 C-285.1730957 472.48658203 -284.48022461 472.47755859 -283.76635742 472.46826172 C-282.07024284 472.44486703 -280.37430809 472.40900188 -278.6784668 472.37060547 C-278.68370361 471.68135986 -278.68894043 470.99211426 -278.69433594 470.28198242 C-278.71544758 467.08236587 -278.72831902 463.88276637 -278.7409668 460.68310547 C-278.7493457 459.53076416 -278.75772461 458.37842285 -278.76635742 457.19116211 C-278.78264377 451.43190118 -278.59605878 445.98706057 -277.6784668 440.30810547 C-276.93989151 432.67616082 -280.86128838 426.64253238 -284.58520508 420.25146484 C-285.57690688 418.54533026 -286.51935572 416.81080272 -287.45581055 415.07373047 C-291.28258467 408.12250783 -295.61660278 400.58114172 -301.6784668 395.37060547 C-320.49322423 392.55386126 -343.16061845 404.01095712 -358.6784668 413.37060547 Z M-145.13549805 408.24951172 C-145.9944165 408.67377441 -146.85333496 409.09803711 -147.73828125 409.53515625 C-148.64666748 409.99647949 -149.55505371 410.45780273 -150.4909668 410.93310547 C-159.08974397 415.17623202 -167.70897847 418.98121357 -176.6784668 422.37060547 C-173.60509407 424.41952062 -171.64072771 424.98817831 -168.0769043 425.77294922 C-166.95413086 426.02222168 -165.83135742 426.27149414 -164.67456055 426.52832031 C-163.47959961 426.78564941 -162.28463867 427.04297852 -161.0534668 427.30810547 C-159.84045898 427.57316895 -158.62745117 427.83823242 -157.37768555 428.11132812 C-142.16393756 431.80837877 -142.16393756 431.80837877 -126.6784668 433.37060547 C-127.15434429 423.85305562 -130.0081473 414.42887976 -136.6784668 407.37060547 C-140.13063312 405.96270061 -141.88208797 406.6044365 -145.13549805 408.24951172 Z M-257.6784668 407.37060547 C-264.20504511 412.3096377 -264.85311104 419.32267068 -266.1159668 427.04638672 C-266.57068057 430.51926317 -266.79749294 433.01352703 -265.6784668 436.37060547 C-233.6162481 460.85662476 -182.45775134 466.2963092 -143.3659668 470.80810547 C-142.59591309 470.89804779 -141.82585937 470.98799011 -141.0324707 471.08065796 C-138.85676319 471.33096602 -136.68020334 471.57021679 -134.50268555 471.80419922 C-133.25575928 471.93882568 -132.00883301 472.07345215 -130.72412109 472.2121582 C-127.63434376 472.55872467 -127.63434376 472.55872467 -124.6784668 471.37060547 C-124.6784668 462.79060547 -124.6784668 454.21060547 -124.6784668 445.37060547 C-129.91877994 444.20609144 -135.08614379 443.07251128 -140.35424805 442.10888672 C-176.99157421 435.29448858 -212.32150989 425.56182993 -246.8605957 411.50439453 C-250.44446476 410.06240113 -254.05303127 408.70420051 -257.6784668 407.37060547 Z M-264.6784668 450.37060547 C-264.6784668 457.63060547 -264.6784668 464.89060547 -264.6784668 472.37060547 C-245.40510371 472.65520379 -245.40510371 472.65520379 -226.1784668 471.49560547 C-225.35572266 471.41713379 -224.53297852 471.33866211 -223.68530273 471.2578125 C-219.99258123 470.84724743 -217.81937838 470.46454652 -214.6784668 468.37060547 C-215.86698242 468.04189453 -217.05549805 467.71318359 -218.2800293 467.37451172 C-232.65336453 463.28941226 -246.82026793 458.3436167 -260.1862793 451.60107422 C-262.51412203 450.22303528 -262.51412203 450.22303528 -264.6784668 450.37060547 Z " fill="#000000" transform="translate(428.678466796875,13.62939453125)"/>
<path d="M0 0 C2 3 2 3 1.75 6.0625 C1 9 1 9 -1 11 C-4.5 11.25 -4.5 11.25 -8 11 C-10.40820361 8.59179639 -10.68097423 7.34977063 -11 4 C-8.87126176 -1.89496744 -5.65353158 -1.21147105 0 0 Z " fill="#000000" transform="translate(272,132)"/>
<path d="M0 0 C1.875 1.125 1.875 1.125 3 3 C3.39365568 6.14924548 3.52854531 8.11909116 1.875 10.875 C-0.88090884 12.52854531 -2.85075452 12.39365568 -6 12 C-7.875 10.875 -7.875 10.875 -9 9 C-9.39365568 5.85075452 -9.52854531 3.88090884 -7.875 1.125 C-5.11909116 -0.52854531 -3.14924548 -0.39365568 0 0 Z " fill="#000000" transform="translate(251,131)"/>
</svg>
