<?xml version="1.0" encoding="UTF-8"?>
<!DOCTYPE svg PUBLIC "-//W3C//DTD SVG 1.1//EN" "http://www.w3.org/Graphics/SVG/1.1/DTD/svg11.dtd">
<svg xmlns="http://www.w3.org/2000/svg" version="1.1" width="512px" height="512px" style="shape-rendering:geometricPrecision; text-rendering:geometricPrecision; image-rendering:optimizeQuality; fill-rule:evenodd; clip-rule:evenodd" xmlns:xlink="http://www.w3.org/1999/xlink">
<g><path style="opacity:1" fill="#3e3e51" d="M 302.5,107.5 C 299.017,108.01 295.684,108.677 292.5,109.5C 291.215,107.548 289.549,105.882 287.5,104.5C 286.16,105.867 284.827,107.2 283.5,108.5C 280.167,108.5 276.833,108.5 273.5,108.5C 274.24,104.586 276.073,101.253 279,98.5C 279.667,91.1667 279.667,83.8333 279,76.5C 261.027,65.1163 243.693,66.1163 227,79.5C 224.344,83.1438 222.511,87.1438 221.5,91.5C 220.512,96.6405 220.179,101.974 220.5,107.5C 220.209,108.649 219.376,109.316 218,109.5C 215.863,110.077 213.696,110.41 211.5,110.5C 211.719,111.675 211.386,112.675 210.5,113.5C 209.893,113.376 209.56,113.043 209.5,112.5C 207.101,95.0308 212.101,80.0308 224.5,67.5C 241.833,57.2407 259.833,55.9073 278.5,63.5C 278.963,50.252 274.297,39.0853 264.5,30C 263.551,29.3828 262.718,29.5494 262,30.5C 261.832,34.933 259.665,37.5996 255.5,38.5C 249.762,34.9643 243.762,31.9643 237.5,29.5C 229.829,26.9923 221.829,25.9923 213.5,26.5C 204.235,26.981 195.569,29.3144 187.5,33.5C 174.927,38.5787 161.927,42.2454 148.5,44.5C 153.848,52.0046 160.848,57.5046 169.5,61C 171.85,63.3728 172.017,65.8728 170,68.5C 165.018,72.3149 160.518,76.6482 156.5,81.5C 160.262,83.7135 164.262,85.3802 168.5,86.5C 171.899,87.3514 174.233,89.3514 175.5,92.5C 172.453,99.2518 169.453,105.918 166.5,112.5C 163.167,111.833 159.833,111.167 156.5,110.5C 157.589,105.65 159.255,100.983 161.5,96.5C 155.737,93.5207 149.737,91.0207 143.5,89C 140.917,85.4496 141.083,81.9496 144,78.5C 147.314,74.3519 150.814,70.3519 154.5,66.5C 147.803,60.9692 141.97,54.6359 137,47.5C 135.412,44.8256 134.245,41.9922 133.5,39C 133.615,37.1049 134.282,35.4382 135.5,34C 143.945,33.8818 152.278,32.8818 160.5,31C 172.973,27.0645 185.306,22.7312 197.5,18C 216.864,13.2866 235.531,15.1199 253.5,23.5C 253.688,18.243 256.355,16.0763 261.5,17C 277.719,23.2294 286.885,35.0627 289,52.5C 290.342,66.4629 290.842,80.4629 290.5,94.5C 297.206,96.2102 301.206,100.544 302.5,107.5 Z"/></g>
<g><path style="opacity:1" fill="#565669" d="M 213.5,26.5 C 201.898,60.3067 189.898,93.9733 177.5,127.5C 172.856,126.519 168.189,125.519 163.5,124.5C 164.188,120.416 165.188,116.416 166.5,112.5C 169.453,105.918 172.453,99.2518 175.5,92.5C 174.233,89.3514 171.899,87.3514 168.5,86.5C 174.551,68.7319 180.884,51.0653 187.5,33.5C 195.569,29.3144 204.235,26.981 213.5,26.5 Z"/></g>
<g><path style="opacity:1" fill="#5c5c6f" d="M 213.5,26.5 C 221.829,25.9923 229.829,26.9923 237.5,29.5C 232.264,42.2145 227.931,54.8811 224.5,67.5C 212.101,80.0308 207.101,95.0308 209.5,112.5C 195.558,113.112 188.892,120.445 189.5,134.5C 186.833,134.5 184.167,134.5 181.5,134.5C 181.429,131.348 180.095,129.014 177.5,127.5C 189.898,93.9733 201.898,60.3067 213.5,26.5 Z"/></g>
<g><path style="opacity:1" fill="#656576" d="M 237.5,29.5 C 243.762,31.9643 249.762,34.9643 255.5,38.5C 259.665,37.5996 261.832,34.933 262,30.5C 262.718,29.5494 263.551,29.3828 264.5,30C 274.297,39.0853 278.963,50.252 278.5,63.5C 259.833,55.9073 241.833,57.2407 224.5,67.5C 227.931,54.8811 232.264,42.2145 237.5,29.5 Z"/></g>
<g><path style="opacity:1" fill="#505063" d="M 187.5,33.5 C 180.884,51.0653 174.551,68.7319 168.5,86.5C 164.262,85.3802 160.262,83.7135 156.5,81.5C 160.518,76.6482 165.018,72.3149 170,68.5C 172.017,65.8728 171.85,63.3728 169.5,61C 160.848,57.5046 153.848,52.0046 148.5,44.5C 161.927,42.2454 174.927,38.5787 187.5,33.5 Z"/></g>
<g><path style="opacity:1" fill="#f7ded7" d="M 273.5,108.5 C 271.682,111.015 269.682,111.015 267.5,108.5C 263.547,97.8516 255.88,93.3516 244.5,95C 241.351,96.6618 238.351,98.4952 235.5,100.5C 231.098,100.772 226.765,100.439 222.5,99.5C 221.52,96.9135 221.187,94.2469 221.5,91.5C 222.511,87.1438 224.344,83.1438 227,79.5C 243.693,66.1163 261.027,65.1163 279,76.5C 279.667,83.8333 279.667,91.1667 279,98.5C 276.073,101.253 274.24,104.586 273.5,108.5 Z"/></g>
<g><path style="opacity:1" fill="#414053" d="M 267.5,108.5 C 264.061,108.253 260.728,108.586 257.5,109.5C 251.844,102.689 246.51,103.022 241.5,110.5C 238.203,110.11 235.203,109.11 232.5,107.5C 233.242,105.02 234.242,102.687 235.5,100.5C 238.351,98.4952 241.351,96.6618 244.5,95C 255.88,93.3516 263.547,97.8516 267.5,108.5 Z"/></g>
<g><path style="opacity:1" fill="#3d3d50" d="M 459.5,104.5 C 440.498,104.726 421.498,105.059 402.5,105.5C 404.418,101.088 407.751,98.2545 412.5,97C 425.167,96.3333 437.833,96.3333 450.5,97C 454.275,98.6114 457.275,101.111 459.5,104.5 Z"/></g>
<g><path style="opacity:1" fill="#3f3f4d" d="M 459.5,104.5 C 464.995,116.834 461.495,125.834 449,131.5C 448.5,142.495 448.333,153.495 448.5,164.5C 445.167,164.5 441.833,164.5 438.5,164.5C 438.5,151.167 438.5,137.833 438.5,124.5C 440.412,121.145 443.412,119.645 447.5,120C 452.268,116.294 452.601,112.294 448.5,108C 437.932,106.381 427.265,106.048 416.5,107C 409.468,110.479 408.801,114.813 414.5,120C 419.789,119.461 423.122,121.628 424.5,126.5C 424.5,130.833 424.5,135.167 424.5,139.5C 424.827,149.015 424.494,158.348 423.5,167.5C 420.663,165.598 417.329,164.931 413.5,165.5C 413.667,154.162 413.5,142.828 413,131.5C 400.769,126.072 397.269,117.406 402.5,105.5C 421.498,105.059 440.498,104.726 459.5,104.5 Z"/></g>
<g><path style="opacity:1" fill="#3f3f4c" d="M 232.5,107.5 C 235.203,109.11 238.203,110.11 241.5,110.5C 239.242,117.16 240.909,122.66 246.5,127C 254.773,127.898 258.773,124.065 258.5,115.5C 258.328,113.452 257.995,111.452 257.5,109.5C 260.728,108.586 264.061,108.253 267.5,108.5C 269.682,111.015 271.682,111.015 273.5,108.5C 276.833,108.5 280.167,108.5 283.5,108.5C 281.936,114.33 282.436,119.997 285,125.5C 286.396,127.527 288.062,127.86 290,126.5C 292.205,121.068 293.038,115.402 292.5,109.5C 295.684,108.677 299.017,108.01 302.5,107.5C 304.555,116.288 303.388,124.622 299,132.5C 296.87,135.23 294.203,137.23 291,138.5C 290.667,146.833 290.333,155.167 290,163.5C 289.802,165.382 289.302,167.048 288.5,168.5C 284.833,168.5 281.167,168.5 277.5,168.5C 279.054,161.971 279.721,155.304 279.5,148.5C 279.499,143.322 279.166,138.322 278.5,133.5C 275.284,130.193 273.617,126.193 273.5,121.5C 271.801,121.34 270.134,121.506 268.5,122C 262.793,137.009 252.793,141.009 238.5,134C 234.923,130.329 232.256,126.162 230.5,121.5C 230.334,117.486 230.501,113.486 231,109.5C 231.278,108.584 231.778,107.918 232.5,107.5 Z"/></g>
<g><path style="opacity:1" fill="#c8daf3" d="M 438.5,124.5 C 434.146,126.348 429.48,127.015 424.5,126.5C 423.122,121.628 419.789,119.461 414.5,120C 408.801,114.813 409.468,110.479 416.5,107C 427.265,106.048 437.932,106.381 448.5,108C 452.601,112.294 452.268,116.294 447.5,120C 443.412,119.645 440.412,121.145 438.5,124.5 Z"/></g>
<g><path style="opacity:1" fill="#403f4c" d="M 220.5,107.5 C 221.482,110.962 221.815,114.629 221.5,118.5C 222.482,124.337 220.149,127.17 214.5,127C 210.052,121.492 205.552,121.325 201,126.5C 199.47,133.267 201.636,138.434 207.5,142C 212.257,142.291 216.924,141.958 221.5,141C 224.024,142.883 225.358,145.383 225.5,148.5C 226.355,153.44 228.689,157.44 232.5,160.5C 236.827,163.999 241.494,166.999 246.5,169.5C 240.31,169.177 234.31,169.51 228.5,170.5C 221.863,166.191 217.529,160.191 215.5,152.5C 214.501,164.482 214.168,176.482 214.5,188.5C 214.5,190.167 214.5,191.833 214.5,193.5C 213.508,186.018 213.175,178.352 213.5,170.5C 210.167,170.5 206.833,170.5 203.5,170.5C 203.83,164.132 203.496,157.798 202.5,151.5C 195.53,147.913 191.197,142.247 189.5,134.5C 188.892,120.445 195.558,113.112 209.5,112.5C 209.56,113.043 209.893,113.376 210.5,113.5C 211.386,112.675 211.719,111.675 211.5,110.5C 213.696,110.41 215.863,110.077 218,109.5C 219.376,109.316 220.209,108.649 220.5,107.5 Z"/></g>
<g><path style="opacity:1" fill="#3e3e4b" d="M 156.5,110.5 C 159.833,111.167 163.167,111.833 166.5,112.5C 165.188,116.416 164.188,120.416 163.5,124.5C 168.189,125.519 172.856,126.519 177.5,127.5C 180.095,129.014 181.429,131.348 181.5,134.5C 180.549,137.314 178.549,138.648 175.5,138.5C 167.791,137.097 160.457,134.597 153.5,131C 152.056,129.874 151.39,128.374 151.5,126.5C 152.397,120.815 154.064,115.482 156.5,110.5 Z"/></g>
<g><path style="opacity:1" fill="#f5d2cc" d="M 221.5,91.5 C 221.187,94.2469 221.52,96.9135 222.5,99.5C 226.765,100.439 231.098,100.772 235.5,100.5C 234.242,102.687 233.242,105.02 232.5,107.5C 231.778,107.918 231.278,108.584 231,109.5C 230.501,113.486 230.334,117.486 230.5,121.5C 228.365,123.369 225.698,124.036 222.5,123.5C 222.784,121.585 222.451,119.919 221.5,118.5C 221.815,114.629 221.482,110.962 220.5,107.5C 220.179,101.974 220.512,96.6405 221.5,91.5 Z"/></g>
<g><path style="opacity:1" fill="#e2e8f5" d="M 257.5,109.5 C 257.995,111.452 258.328,113.452 258.5,115.5C 258.773,124.065 254.773,127.898 246.5,127C 240.909,122.66 239.242,117.16 241.5,110.5C 246.51,103.022 251.844,102.689 257.5,109.5 Z"/></g>
<g><path style="opacity:1" fill="#dfe6f3" d="M 292.5,109.5 C 293.038,115.402 292.205,121.068 290,126.5C 288.062,127.86 286.396,127.527 285,125.5C 282.436,119.997 281.936,114.33 283.5,108.5C 284.827,107.2 286.16,105.867 287.5,104.5C 289.549,105.882 291.215,107.548 292.5,109.5 Z"/></g>
<g><path style="opacity:1" fill="#8e9eb7" d="M 438.5,124.5 C 438.5,137.833 438.5,151.167 438.5,164.5C 438.5,165.5 438.5,166.5 438.5,167.5C 437.506,158.348 437.173,149.015 437.5,139.5C 433.167,139.5 428.833,139.5 424.5,139.5C 424.5,135.167 424.5,130.833 424.5,126.5C 429.48,127.015 434.146,126.348 438.5,124.5 Z"/></g>
<g><path style="opacity:1" fill="#f7c8bf" d="M 221.5,118.5 C 222.451,119.919 222.784,121.585 222.5,123.5C 225.698,124.036 228.365,123.369 230.5,121.5C 232.256,126.162 234.923,130.329 238.5,134C 252.793,141.009 262.793,137.009 268.5,122C 270.134,121.506 271.801,121.34 273.5,121.5C 273.617,126.193 275.284,130.193 278.5,133.5C 278.5,138.833 278.5,144.167 278.5,149.5C 260.757,149.819 243.09,149.486 225.5,148.5C 225.358,145.383 224.024,142.883 221.5,141C 216.924,141.958 212.257,142.291 207.5,142C 201.636,138.434 199.47,133.267 201,126.5C 205.552,121.325 210.052,121.492 214.5,127C 220.149,127.17 222.482,124.337 221.5,118.5 Z"/></g>
<g><path style="opacity:1" fill="#df827d" d="M 228.5,170.5 C 233.949,174.558 239.949,177.558 246.5,179.5C 246.5,181.167 246.5,182.833 246.5,184.5C 235.857,185.961 225.19,187.295 214.5,188.5C 214.168,176.482 214.501,164.482 215.5,152.5C 217.529,160.191 221.863,166.191 228.5,170.5 Z"/></g>
<g><path style="opacity:1" fill="#f9c0b6" d="M 225.5,148.5 C 243.09,149.486 260.757,149.819 278.5,149.5C 278.5,153.5 278.5,157.5 278.5,161.5C 263.142,161.751 247.809,161.418 232.5,160.5C 228.689,157.44 226.355,153.44 225.5,148.5 Z"/></g>
<g><path style="opacity:1" fill="#f3b6ad" d="M 278.5,133.5 C 279.166,138.322 279.499,143.322 279.5,148.5C 279.721,155.304 279.054,161.971 277.5,168.5C 275.09,173.06 271.257,175.393 266,175.5C 259.33,173.999 252.83,171.999 246.5,169.5C 241.494,166.999 236.827,163.999 232.5,160.5C 247.809,161.418 263.142,161.751 278.5,161.5C 278.5,157.5 278.5,153.5 278.5,149.5C 278.5,144.167 278.5,138.833 278.5,133.5 Z"/></g>
<g><path style="opacity:1" fill="#39394c" d="M 438.5,164.5 C 441.833,164.5 445.167,164.5 448.5,164.5C 449.067,166.03 449.733,167.53 450.5,169C 486.303,183.769 500.803,210.269 494,248.5C 492.467,255.227 489.634,261.227 485.5,266.5C 481.265,267.436 476.931,267.769 472.5,267.5C 477.177,261.146 480.51,254.146 482.5,246.5C 487.271,232.323 485.938,218.656 478.5,205.5C 473.715,196.214 466.715,189.048 457.5,184C 452.642,182.11 447.975,179.943 443.5,177.5C 440.776,174.718 439.109,171.385 438.5,167.5C 438.5,166.5 438.5,165.5 438.5,164.5 Z"/></g>
<g><path style="opacity:1" fill="#39394c" d="M 413.5,165.5 C 417.329,164.931 420.663,165.598 423.5,167.5C 422.401,173.594 419.068,177.927 413.5,180.5C 385.929,191.957 374.096,212.624 378,242.5C 380.4,252.632 384.9,261.632 391.5,269.5C 387.167,269.5 382.833,269.5 378.5,269.5C 368.011,254.919 364.178,238.585 367,220.5C 372.172,194.994 387.006,177.827 411.5,169C 412.305,167.887 412.972,166.721 413.5,165.5 Z"/></g>
<g><path style="opacity:1" fill="#d9e3f7" d="M 424.5,139.5 C 428.833,139.5 433.167,139.5 437.5,139.5C 437.173,149.015 437.506,158.348 438.5,167.5C 439.109,171.385 440.776,174.718 443.5,177.5C 433.333,176.52 423.333,177.52 413.5,180.5C 419.068,177.927 422.401,173.594 423.5,167.5C 424.494,158.348 424.827,149.015 424.5,139.5 Z"/></g>
<g><path style="opacity:1" fill="#3a394b" d="M 277.5,168.5 C 281.167,168.5 284.833,168.5 288.5,168.5C 283.447,183.444 273.28,188.778 258,184.5C 257.502,187.482 257.335,190.482 257.5,193.5C 281.971,194.077 306.137,191.411 330,185.5C 332.034,185.354 333.701,186.02 335,187.5C 334.586,196.584 333.252,205.584 331,214.5C 328.8,229.301 326.967,244.134 325.5,259C 327.14,262.756 328.474,266.589 329.5,270.5C 324.463,270.413 319.463,270.746 314.5,271.5C 314.5,269.833 314.5,268.167 314.5,266.5C 314.5,265.833 314.5,265.167 314.5,264.5C 315.002,256.814 315.668,249.147 316.5,241.5C 316.724,237.821 317.058,234.154 317.5,230.5C 318.836,219.817 320.503,209.15 322.5,198.5C 309.558,200.658 296.558,202.492 283.5,204C 274.84,204.5 266.173,204.666 257.5,204.5C 257.334,211.841 257.5,219.174 258,226.5C 258.852,227.571 259.685,228.571 260.5,229.5C 262.229,233.958 264.229,238.291 266.5,242.5C 269.208,249.234 271.874,255.901 274.5,262.5C 275.167,265.5 275.833,268.5 276.5,271.5C 270.167,272.833 263.833,272.833 257.5,271.5C 258.688,267.623 260.021,263.789 261.5,260C 261.299,257.889 260.633,256.055 259.5,254.5C 257.929,248.77 255.596,243.437 252.5,238.5C 251.739,235.146 250.072,232.313 247.5,230C 231.568,224.723 218.401,215.557 208,202.5C 204.518,205.799 202.351,209.799 201.5,214.5C 200.596,215.209 200.263,216.209 200.5,217.5C 198.171,223.486 197.004,229.82 197,236.5C 196.621,248.837 196.788,261.171 197.5,273.5C 194.14,273.616 190.807,273.949 187.5,274.5C 186.834,263.513 186.501,252.513 186.5,241.5C 186.324,236.12 186.658,230.787 187.5,225.5C 188.763,217.045 191.429,209.045 195.5,201.5C 174.915,200.509 154.582,197.842 134.5,193.5C 135.543,203.224 136.876,212.891 138.5,222.5C 138.8,230.534 139.467,238.534 140.5,246.5C 141.637,254.457 142.303,262.457 142.5,270.5C 142.5,272.167 142.5,273.833 142.5,275.5C 139.5,275.5 136.5,275.5 133.5,275.5C 132.171,264.571 131.005,253.571 130,242.5C 129.667,242.167 129.333,241.833 129,241.5C 126.809,242.833 124.976,244.5 123.5,246.5C 115.508,253.159 107.841,260.159 100.5,267.5C 97.1667,270.5 93.8333,273.5 90.5,276.5C 85.9677,276.818 81.6344,276.485 77.5,275.5C 92.8415,258.66 109.342,242.993 127,228.5C 125.921,214.279 124.088,200.112 121.5,186C 121.894,180.294 124.894,178.294 130.5,180C 154.263,187.345 178.596,190.512 203.5,189.5C 203.5,183.167 203.5,176.833 203.5,170.5C 206.833,170.5 210.167,170.5 213.5,170.5C 213.175,178.352 213.508,186.018 214.5,193.5C 216.788,197.456 219.788,200.789 223.5,203.5C 229.695,210.005 237.029,215.005 245.5,218.5C 246.495,213.208 246.828,207.875 246.5,202.5C 246.5,196.5 246.5,190.5 246.5,184.5C 246.5,182.833 246.5,181.167 246.5,179.5C 239.949,177.558 233.949,174.558 228.5,170.5C 234.31,169.51 240.31,169.177 246.5,169.5C 252.83,171.999 259.33,173.999 266,175.5C 271.257,175.393 275.09,173.06 277.5,168.5 Z"/></g>
<g><path style="opacity:1" fill="#dfeaf7" d="M 443.5,177.5 C 447.975,179.943 452.642,182.11 457.5,184C 466.715,189.048 473.715,196.214 478.5,205.5C 458.641,180.706 434.641,175.873 406.5,191C 387.962,206.282 382.129,225.448 389,248.5C 400.659,273.58 420.159,283.747 447.5,279C 464.85,274.146 476.516,263.313 482.5,246.5C 480.51,254.146 477.177,261.146 472.5,267.5C 459.324,280.784 443.324,286.784 424.5,285.5C 391.193,274.22 377.36,251.22 383,216.5C 387.99,200.018 398.157,188.018 413.5,180.5C 423.333,177.52 433.333,176.52 443.5,177.5 Z"/></g>
<g><path style="opacity:1" fill="#e6ebf8" d="M 478.5,205.5 C 485.938,218.656 487.271,232.323 482.5,246.5C 476.516,263.313 464.85,274.146 447.5,279C 420.159,283.747 400.659,273.58 389,248.5C 382.129,225.448 387.962,206.282 406.5,191C 434.641,175.873 458.641,180.706 478.5,205.5 Z"/></g>
<g><path style="opacity:1" fill="#d8def1" d="M 413.5,180.5 C 398.157,188.018 387.99,200.018 383,216.5C 377.36,251.22 391.193,274.22 424.5,285.5C 411.756,283.627 400.756,278.294 391.5,269.5C 384.9,261.632 380.4,252.632 378,242.5C 374.096,212.624 385.929,191.957 413.5,180.5 Z"/></g>
<g><path style="opacity:1" fill="#f89588" d="M 187.5,225.5 C 171.081,225.005 154.747,224.005 138.5,222.5C 136.876,212.891 135.543,203.224 134.5,193.5C 154.582,197.842 174.915,200.509 195.5,201.5C 191.429,209.045 188.763,217.045 187.5,225.5 Z"/></g>
<g><path style="opacity:1" fill="#f9cfc7" d="M 246.5,184.5 C 246.5,190.5 246.5,196.5 246.5,202.5C 238.862,203.313 231.196,203.646 223.5,203.5C 219.788,200.789 216.788,197.456 214.5,193.5C 214.5,191.833 214.5,190.167 214.5,188.5C 225.19,187.295 235.857,185.961 246.5,184.5 Z"/></g>
<g><path style="opacity:1" fill="#d55989" d="M 419.5,199.5 C 424.838,201.668 425.838,205.168 422.5,210C 416.243,212.197 413.243,210.03 413.5,203.5C 414.763,201.193 416.763,199.859 419.5,199.5 Z"/></g>
<g><path style="opacity:1" fill="#f7c5bd" d="M 246.5,202.5 C 246.828,207.875 246.495,213.208 245.5,218.5C 237.029,215.005 229.695,210.005 223.5,203.5C 231.196,203.646 238.862,203.313 246.5,202.5 Z"/></g>
<g><path style="opacity:1" fill="#f8f1eb" d="M 252.5,238.5 C 235.588,237.096 218.588,236.429 201.5,236.5C 201.5,229.167 201.5,221.833 201.5,214.5C 202.351,209.799 204.518,205.799 208,202.5C 218.401,215.557 231.568,224.723 247.5,230C 250.072,232.313 251.739,235.146 252.5,238.5 Z"/></g>
<g><path style="opacity:1" fill="#f29588" d="M 317.5,230.5 C 299.646,230.273 281.813,229.606 264,228.5C 262.615,228.514 261.449,228.848 260.5,229.5C 259.685,228.571 258.852,227.571 258,226.5C 257.5,219.174 257.334,211.841 257.5,204.5C 266.173,204.666 274.84,204.5 283.5,204C 296.558,202.492 309.558,200.658 322.5,198.5C 320.503,209.15 318.836,219.817 317.5,230.5 Z"/></g>
<g><path style="opacity:1" fill="#f0f1f8" d="M 464.5,211.5 C 459.752,211.275 455.085,211.775 450.5,213C 440.668,218.083 430.335,221.749 419.5,224C 413.668,224.875 408.001,224.375 402.5,222.5C 401.569,219.397 402.069,216.397 404,213.5C 406.668,209.666 409.835,206.333 413.5,203.5C 413.243,210.03 416.243,212.197 422.5,210C 425.838,205.168 424.838,201.668 419.5,199.5C 432.702,193.473 445.369,194.64 457.5,203C 460.423,205.416 462.757,208.25 464.5,211.5 Z"/></g>
<g><path style="opacity:1" fill="#d0b8a6" d="M 200.5,217.5 C 200.402,229.881 201.069,242.215 202.5,254.5C 203.167,261.167 203.833,267.833 204.5,274.5C 205.501,280.509 206.501,286.509 207.5,292.5C 209.074,311.483 210.408,330.483 211.5,349.5C 211.5,349.833 211.5,350.167 211.5,350.5C 208.252,355.316 204.752,359.982 201,364.5C 200.536,363.906 200.369,363.239 200.5,362.5C 200.166,332.803 199.166,303.136 197.5,273.5C 196.788,261.171 196.621,248.837 197,236.5C 197.004,229.82 198.171,223.486 200.5,217.5 Z"/></g>
<g><path style="opacity:1" fill="#f29588" d="M 138.5,222.5 C 154.747,224.005 171.081,225.005 187.5,225.5C 186.658,230.787 186.324,236.12 186.5,241.5C 185.539,243.265 185.205,245.265 185.5,247.5C 172.648,247.244 159.814,246.577 147,245.5C 144.745,245.566 142.578,245.899 140.5,246.5C 139.467,238.534 138.8,230.534 138.5,222.5 Z"/></g>
<g><path style="opacity:1" fill="#ef6da2" d="M 464.5,211.5 C 470.963,215.159 473.629,220.825 472.5,228.5C 445.167,228.5 417.833,228.5 390.5,228.5C 390.5,231.167 390.5,233.833 390.5,236.5C 389.092,231.566 389.259,226.566 391,221.5C 391.804,220.196 392.971,219.529 394.5,219.5C 397.183,220.51 399.849,221.51 402.5,222.5C 408.001,224.375 413.668,224.875 419.5,224C 430.335,221.749 440.668,218.083 450.5,213C 455.085,211.775 459.752,211.275 464.5,211.5 Z"/></g>
<g><path style="opacity:1" fill="#f28e84" d="M 317.5,230.5 C 317.058,234.154 316.724,237.821 316.5,241.5C 315.596,242.209 315.263,243.209 315.5,244.5C 299.155,244.03 282.821,243.364 266.5,242.5C 264.229,238.291 262.229,233.958 260.5,229.5C 261.449,228.848 262.615,228.514 264,228.5C 281.813,229.606 299.646,230.273 317.5,230.5 Z"/></g>
<g><path style="opacity:1" fill="#e36296" d="M 472.5,228.5 C 472.875,234.532 471.875,240.198 469.5,245.5C 455.343,244.504 441.01,244.171 426.5,244.5C 424.158,240.492 420.825,239.492 416.5,241.5C 408.35,240.507 400.017,240.174 391.5,240.5C 390.566,239.432 390.232,238.099 390.5,236.5C 390.5,233.833 390.5,231.167 390.5,228.5C 417.833,228.5 445.167,228.5 472.5,228.5 Z"/></g>
<g><path style="opacity:1" fill="#f9f1f4" d="M 446.5,231.5 C 452.33,231.161 454.83,233.827 454,239.5C 450.952,243.01 447.619,243.343 444,240.5C 442.927,236.9 443.76,233.9 446.5,231.5 Z"/></g>
<g><path style="opacity:1" fill="#f8f1e5" d="M 201.5,214.5 C 201.5,221.833 201.5,229.167 201.5,236.5C 218.588,236.429 235.588,237.096 252.5,238.5C 255.596,243.437 257.929,248.77 259.5,254.5C 257.085,255.814 254.252,256.481 251,256.5C 234.834,255.75 218.667,255.083 202.5,254.5C 201.069,242.215 200.402,229.881 200.5,217.5C 200.263,216.209 200.596,215.209 201.5,214.5 Z"/></g>
<g><path style="opacity:1" fill="#f8f1f4" d="M 426.5,244.5 C 426.312,249.757 423.645,251.924 418.5,251C 415.425,248.398 414.759,245.231 416.5,241.5C 420.825,239.492 424.158,240.492 426.5,244.5 Z"/></g>
<g><path style="opacity:1" fill="#d2b9a7" d="M 133.5,275.5 C 134.334,291.168 134.834,306.834 135,322.5C 123.012,331.992 111.512,341.992 100.5,352.5C 97.5309,354.992 94.5309,357.492 91.5,360C 71.6835,365.404 55.3502,376.07 42.5,392C 37.3844,391.442 33.051,389.276 29.5,385.5C 31.6547,385.628 33.6547,385.128 35.5,384C 50.8284,374.833 64.8284,363.999 77.5,351.5C 84.8839,344.45 91.5506,336.783 97.5,328.5C 102.528,321.78 106.528,314.447 109.5,306.5C 111.731,303.164 113.397,299.497 114.5,295.5C 116.438,291.018 117.771,286.351 118.5,281.5C 122.649,270.109 124.316,258.443 123.5,246.5C 124.976,244.5 126.809,242.833 129,241.5C 129.333,241.833 129.667,242.167 130,242.5C 131.005,253.571 132.171,264.571 133.5,275.5 Z"/></g>
<g><path style="opacity:1" fill="#eb8e82" d="M 316.5,241.5 C 315.668,249.147 315.002,256.814 314.5,264.5C 301.164,263.858 287.831,263.191 274.5,262.5C 271.874,255.901 269.208,249.234 266.5,242.5C 282.821,243.364 299.155,244.03 315.5,244.5C 315.263,243.209 315.596,242.209 316.5,241.5 Z"/></g>
<g><path style="opacity:1" fill="#d6578b" d="M 391.5,240.5 C 400.017,240.174 408.35,240.507 416.5,241.5C 414.759,245.231 415.425,248.398 418.5,251C 423.645,251.924 426.312,249.757 426.5,244.5C 441.01,244.171 455.343,244.504 469.5,245.5C 468.674,248.485 467.341,251.151 465.5,253.5C 442.833,253.5 420.167,253.5 397.5,253.5C 393.978,249.963 391.978,245.63 391.5,240.5 Z"/></g>
<g><path style="opacity:1" fill="#f9ece6" d="M 202.5,254.5 C 218.667,255.083 234.834,255.75 251,256.5C 254.252,256.481 257.085,255.814 259.5,254.5C 260.633,256.055 261.299,257.889 261.5,260C 260.021,263.789 258.688,267.623 257.5,271.5C 256.167,273.5 254.833,275.5 253.5,277.5C 237.055,277.283 220.722,276.283 204.5,274.5C 203.833,267.833 203.167,261.167 202.5,254.5 Z"/></g>
<g><path style="opacity:1" fill="#f7f0e6" d="M 123.5,246.5 C 124.316,258.443 122.649,270.109 118.5,281.5C 112.461,276.822 106.461,272.155 100.5,267.5C 107.841,260.159 115.508,253.159 123.5,246.5 Z"/></g>
<g><path style="opacity:1" fill="#ed8e82" d="M 186.5,241.5 C 186.501,252.513 186.834,263.513 187.5,274.5C 187.5,277.167 187.5,279.833 187.5,282.5C 172.856,281.344 158.189,280.344 143.5,279.5C 143.81,276.287 143.477,273.287 142.5,270.5C 142.303,262.457 141.637,254.457 140.5,246.5C 142.578,245.899 144.745,245.566 147,245.5C 159.814,246.577 172.648,247.244 185.5,247.5C 185.205,245.265 185.539,243.265 186.5,241.5 Z"/></g>
<g><path style="opacity:1" fill="#c84d7f" d="M 397.5,253.5 C 420.167,253.5 442.833,253.5 465.5,253.5C 457.082,265.544 445.415,271.544 430.5,271.5C 416.119,271.48 405.119,265.48 397.5,253.5 Z"/></g>
<g><path style="opacity:1" fill="#393844" d="M 485.5,266.5 C 484.356,269.447 482.689,272.113 480.5,274.5C 486.926,284.077 487.092,293.743 481,303.5C 473.461,311.887 464.294,317.554 453.5,320.5C 452.836,328.827 451.169,336.827 448.5,344.5C 444.833,344.5 441.167,344.5 437.5,344.5C 439.882,334.589 441.882,324.589 443.5,314.5C 445.178,312.148 447.511,310.814 450.5,310.5C 459.439,307.74 466.939,302.74 473,295.5C 474.483,292.298 474.817,288.964 474,285.5C 473.632,284.09 472.799,283.09 471.5,282.5C 455.261,294.547 437.261,298.547 417.5,294.5C 413.833,293.833 410.167,293.167 406.5,292.5C 406.111,295.553 406.777,298.22 408.5,300.5C 411.765,305.769 415.431,310.769 419.5,315.5C 415.881,322.44 411.881,329.106 407.5,335.5C 404.167,339.167 400.833,342.833 397.5,346.5C 393.022,345.953 388.355,345.953 383.5,346.5C 391.909,337.088 399.576,327.088 406.5,316.5C 402.844,312.521 399.678,308.188 397,303.5C 394.853,298.211 395.02,293.044 397.5,288C 390,283 383.667,276.833 378.5,269.5C 382.833,269.5 387.167,269.5 391.5,269.5C 400.756,278.294 411.756,283.627 424.5,285.5C 443.324,286.784 459.324,280.784 472.5,267.5C 476.931,267.769 481.265,267.436 485.5,266.5 Z"/></g>
<g><path style="opacity:1" fill="#f9ece6" d="M 100.5,267.5 C 106.461,272.155 112.461,276.822 118.5,281.5C 117.771,286.351 116.438,291.018 114.5,295.5C 106.34,289.586 98.0065,283.919 89.5,278.5C 89.8333,277.833 90.1667,277.167 90.5,276.5C 93.8333,273.5 97.1667,270.5 100.5,267.5 Z"/></g>
<g><path style="opacity:1" fill="#3c3b47" d="M 314.5,266.5 C 314.5,268.167 314.5,269.833 314.5,271.5C 319.463,270.746 324.463,270.413 329.5,270.5C 340.29,295.765 350.29,321.432 359.5,347.5C 355.732,346.213 352.065,346.213 348.5,347.5C 347.833,346.5 347.167,345.5 346.5,344.5C 339.688,324.562 332.188,304.895 324,285.5C 323.5,308.498 323.333,331.498 323.5,354.5C 323.5,359.5 323.5,364.5 323.5,369.5C 322.508,362.352 322.175,355.019 322.5,347.5C 319.167,347.5 315.833,347.5 312.5,347.5C 312.5,337.5 312.5,327.5 312.5,317.5C 312.5,316.5 312.5,315.5 312.5,314.5C 312.5,308.833 312.5,303.167 312.5,297.5C 312.899,286.997 313.565,276.664 314.5,266.5 Z"/></g>
<g><path style="opacity:1" fill="#3a3946" d="M 257.5,271.5 C 263.833,272.833 270.167,272.833 276.5,271.5C 279.59,279.513 281.923,287.846 283.5,296.5C 284.469,302.374 285.803,308.041 287.5,313.5C 287.921,319.202 288.588,324.869 289.5,330.5C 289.92,336.863 290.587,343.196 291.5,349.5C 288.272,348.586 284.939,348.253 281.5,348.5C 281.5,349.5 281.5,350.5 281.5,351.5C 280.741,346.302 280.075,340.969 279.5,335.5C 279.208,330.661 278.375,325.994 277,321.5C 272.23,331.391 266.73,340.724 260.5,349.5C 256.833,349.5 253.167,349.5 249.5,349.5C 254.087,341.996 258.42,334.329 262.5,326.5C 267.368,318.927 271.034,310.76 273.5,302C 272.351,292.906 270.185,284.073 267,275.5C 259.885,288.73 253.052,302.064 246.5,315.5C 239.226,327.437 231.56,339.104 223.5,350.5C 219.749,350.317 215.749,350.317 211.5,350.5C 211.5,350.167 211.5,349.833 211.5,349.5C 224.811,332.154 236.145,313.488 245.5,293.5C 248.674,288.484 251.341,283.151 253.5,277.5C 254.833,275.5 256.167,273.5 257.5,271.5 Z"/></g>
<g><path style="opacity:1" fill="#3a3945" d="M 197.5,273.5 C 199.166,303.136 200.166,332.803 200.5,362.5C 199.517,358.702 199.183,354.702 199.5,350.5C 196.5,350.5 193.5,350.5 190.5,350.5C 190.806,347.615 190.473,344.948 189.5,342.5C 189.5,339.5 189.5,336.5 189.5,333.5C 189.827,323.319 189.494,313.319 188.5,303.5C 188.5,301.833 188.5,300.167 188.5,298.5C 188.821,292.974 188.488,287.64 187.5,282.5C 187.5,279.833 187.5,277.167 187.5,274.5C 190.807,273.949 194.14,273.616 197.5,273.5 Z"/></g>
<g><path style="opacity:1" fill="#393945" d="M 77.5,275.5 C 81.6344,276.485 85.9677,276.818 90.5,276.5C 90.1667,277.167 89.8333,277.833 89.5,278.5C 86.7573,280.239 84.7573,282.573 83.5,285.5C 78.5032,289.664 74.0032,294.331 70,299.5C 68.5787,301.405 67.412,303.405 66.5,305.5C 59.5384,312.746 53.5384,320.746 48.5,329.5C 42.9148,338.335 37.5814,347.335 32.5,356.5C 29.3157,354.586 25.649,353.92 21.5,354.5C 36.002,325.143 54.6687,298.81 77.5,275.5 Z"/></g>
<g><path style="opacity:1" fill="#3b3945" d="M 142.5,270.5 C 143.477,273.287 143.81,276.287 143.5,279.5C 144.194,284.805 144.528,290.138 144.5,295.5C 145.032,301.152 145.365,306.819 145.5,312.5C 145.653,318.845 145.986,325.178 146.5,331.5C 147.032,337.152 147.365,342.819 147.5,348.5C 147.5,352.5 147.5,356.5 147.5,360.5C 146.523,357.713 146.19,354.713 146.5,351.5C 143.061,351.253 139.728,351.586 136.5,352.5C 136.33,347.141 135.83,341.808 135,336.5C 128.628,342.376 122.128,348.042 115.5,353.5C 110.695,352.513 105.695,352.179 100.5,352.5C 111.512,341.992 123.012,331.992 135,322.5C 134.834,306.834 134.334,291.168 133.5,275.5C 136.5,275.5 139.5,275.5 142.5,275.5C 142.5,273.833 142.5,272.167 142.5,270.5 Z"/></g>
<g><path style="opacity:1" fill="#f9ece0" d="M 204.5,274.5 C 220.722,276.283 237.055,277.283 253.5,277.5C 251.341,283.151 248.674,288.484 245.5,293.5C 232.844,292.847 220.177,292.514 207.5,292.5C 206.501,286.509 205.501,280.509 204.5,274.5 Z"/></g>
<g><path style="opacity:1" fill="#68687b" d="M 262.5,326.5 C 256.612,323.607 251.278,319.94 246.5,315.5C 253.052,302.064 259.885,288.73 267,275.5C 270.185,284.073 272.351,292.906 273.5,302C 271.034,310.76 267.368,318.927 262.5,326.5 Z"/></g>
<g><path style="opacity:1" fill="#f8ebdf" d="M 89.5,278.5 C 98.0065,283.919 106.34,289.586 114.5,295.5C 113.397,299.497 111.731,303.164 109.5,306.5C 100.186,300.174 91.5197,293.174 83.5,285.5C 84.7573,282.573 86.7573,280.239 89.5,278.5 Z"/></g>
<g><path style="opacity:1" fill="#e8887d" d="M 274.5,262.5 C 287.831,263.191 301.164,263.858 314.5,264.5C 314.5,265.167 314.5,265.833 314.5,266.5C 313.565,276.664 312.899,286.997 312.5,297.5C 302.817,297.532 293.151,297.199 283.5,296.5C 281.923,287.846 279.59,279.513 276.5,271.5C 275.833,268.5 275.167,265.5 274.5,262.5 Z"/></g>
<g><path style="opacity:1" fill="#f6e6df" d="M 83.5,285.5 C 91.5197,293.174 100.186,300.174 109.5,306.5C 106.528,314.447 102.528,321.78 97.5,328.5C 86.6233,321.562 76.2899,313.895 66.5,305.5C 67.412,303.405 68.5787,301.405 70,299.5C 74.0032,294.331 78.5032,289.664 83.5,285.5 Z"/></g>
<g><path style="opacity:1" fill="#ec887e" d="M 143.5,279.5 C 158.189,280.344 172.856,281.344 187.5,282.5C 188.488,287.64 188.821,292.974 188.5,298.5C 173.811,297.656 159.144,296.656 144.5,295.5C 144.528,290.138 144.194,284.805 143.5,279.5 Z"/></g>
<g><path style="opacity:1" fill="#b9565c" d="M 417.5,294.5 C 417.577,295.75 418.244,296.583 419.5,297C 429.248,299.789 438.748,303.289 448,307.5C 449.31,308.13 450.144,309.13 450.5,310.5C 447.511,310.814 445.178,312.148 443.5,314.5C 431.833,309.833 420.167,305.167 408.5,300.5C 406.777,298.22 406.111,295.553 406.5,292.5C 410.167,293.167 413.833,293.833 417.5,294.5 Z"/></g>
<g><path style="opacity:1" fill="#b25556" d="M 450.5,310.5 C 450.144,309.13 449.31,308.13 448,307.5C 438.748,303.289 429.248,299.789 419.5,297C 418.244,296.583 417.577,295.75 417.5,294.5C 437.261,298.547 455.261,294.547 471.5,282.5C 472.799,283.09 473.632,284.09 474,285.5C 474.817,288.964 474.483,292.298 473,295.5C 466.939,302.74 459.439,307.74 450.5,310.5 Z"/></g>
<g><path style="opacity:1" fill="#e6887c" d="M 144.5,295.5 C 159.144,296.656 173.811,297.656 188.5,298.5C 188.5,300.167 188.5,301.833 188.5,303.5C 188.5,307.833 188.5,312.167 188.5,316.5C 175.174,315.647 161.841,314.814 148.5,314C 147.473,313.487 146.473,312.987 145.5,312.5C 145.365,306.819 145.032,301.152 144.5,295.5 Z"/></g>
<g><path style="opacity:1" fill="#e6827c" d="M 283.5,296.5 C 293.151,297.199 302.817,297.532 312.5,297.5C 312.5,303.167 312.5,308.833 312.5,314.5C 304.152,314.457 295.819,314.124 287.5,313.5C 285.803,308.041 284.469,302.374 283.5,296.5 Z"/></g>
<g><path style="opacity:1" fill="#bc5d5f" d="M 408.5,300.5 C 420.167,305.167 431.833,309.833 443.5,314.5C 441.882,324.589 439.882,334.589 437.5,344.5C 437.672,345.492 437.338,346.158 436.5,346.5C 426.933,342.549 417.266,338.882 407.5,335.5C 411.881,329.106 415.881,322.44 419.5,315.5C 415.431,310.769 411.765,305.769 408.5,300.5 Z"/></g>
<g><path style="opacity:1" fill="#f2e0d8" d="M 66.5,305.5 C 76.2899,313.895 86.6233,321.562 97.5,328.5C 91.5506,336.783 84.8839,344.45 77.5,351.5C 67.6153,344.398 57.9486,337.065 48.5,329.5C 53.5384,320.746 59.5384,312.746 66.5,305.5 Z"/></g>
<g><path style="opacity:1" fill="#f3e4dd" d="M 207.5,292.5 C 220.177,292.514 232.844,292.847 245.5,293.5C 236.145,313.488 224.811,332.154 211.5,349.5C 210.408,330.483 209.074,311.483 207.5,292.5 Z"/></g>
<g><path style="opacity:1" fill="#e4817c" d="M 188.5,303.5 C 189.494,313.319 189.827,323.319 189.5,333.5C 175.179,332.599 160.845,331.932 146.5,331.5C 145.986,325.178 145.653,318.845 145.5,312.5C 146.473,312.987 147.473,313.487 148.5,314C 161.841,314.814 175.174,315.647 188.5,316.5C 188.5,312.167 188.5,307.833 188.5,303.5 Z"/></g>
<g><path style="opacity:1" fill="#e18275" d="M 287.5,313.5 C 295.819,314.124 304.152,314.457 312.5,314.5C 312.5,315.5 312.5,316.5 312.5,317.5C 311.514,321.97 311.181,326.637 311.5,331.5C 304.187,330.813 296.854,330.479 289.5,330.5C 288.588,324.869 287.921,319.202 287.5,313.5 Z"/></g>
<g><path style="opacity:1" fill="#636374" d="M 246.5,315.5 C 251.278,319.94 256.612,323.607 262.5,326.5C 258.42,334.329 254.087,341.996 249.5,349.5C 245.5,354.833 241.5,360.167 237.5,365.5C 231.855,362.175 226.855,358.175 222.5,353.5C 222.557,352.391 222.89,351.391 223.5,350.5C 231.56,339.104 239.226,327.437 246.5,315.5 Z"/></g>
<g><path style="opacity:1" fill="#d1b8a6" d="M 279.5,335.5 C 278.732,334.737 278.232,333.737 278,332.5C 270.983,346.542 263.483,360.208 255.5,373.5C 248.453,382.55 241.786,391.883 235.5,401.5C 232.139,403.895 229.472,406.895 227.5,410.5C 223.532,414.639 219.699,418.973 216,423.5C 215.297,425.929 215.463,428.262 216.5,430.5C 211.356,428.736 206.023,428.069 200.5,428.5C 200.5,425.5 200.5,422.5 200.5,419.5C 203.5,416.167 206.5,412.833 209.5,409.5C 211.402,410.511 213.402,410.678 215.5,410C 232.668,391.348 247.668,371.181 260.5,349.5C 266.73,340.724 272.23,331.391 277,321.5C 278.375,325.994 279.208,330.661 279.5,335.5 Z"/></g>
<g><path style="opacity:1" fill="#eed7d0" d="M 48.5,329.5 C 57.9486,337.065 67.6153,344.398 77.5,351.5C 64.8284,363.999 50.8284,374.833 35.5,384C 33.6547,385.128 31.6547,385.628 29.5,385.5C 27.1064,382.497 25.7731,378.997 25.5,375C 27.1338,368.566 29.4671,362.4 32.5,356.5C 37.5814,347.335 42.9148,338.335 48.5,329.5 Z"/></g>
<g><path style="opacity:1" fill="#de7c75" d="M 312.5,317.5 C 312.5,327.5 312.5,337.5 312.5,347.5C 312.5,348.833 312.5,350.167 312.5,351.5C 305.416,350.874 298.75,351.541 292.5,353.5C 291.566,352.432 291.232,351.099 291.5,349.5C 290.587,343.196 289.92,336.863 289.5,330.5C 296.854,330.479 304.187,330.813 311.5,331.5C 311.181,326.637 311.514,321.97 312.5,317.5 Z"/></g>
<g><path style="opacity:1" fill="#eed7d1" d="M 346.5,344.5 C 338.955,348.106 331.288,351.439 323.5,354.5C 323.333,331.498 323.5,308.498 324,285.5C 332.188,304.895 339.688,324.562 346.5,344.5 Z"/></g>
<g><path style="opacity:1" fill="#e18275" d="M 146.5,331.5 C 160.845,331.932 175.179,332.599 189.5,333.5C 189.5,336.5 189.5,339.5 189.5,342.5C 189.5,345.167 189.5,347.833 189.5,350.5C 175.51,349.638 161.51,348.971 147.5,348.5C 147.365,342.819 147.032,337.152 146.5,331.5 Z"/></g>
<g><path style="opacity:1" fill="#c86568" d="M 407.5,335.5 C 417.266,338.882 426.933,342.549 436.5,346.5C 434.639,355.748 431.973,364.748 428.5,373.5C 415.051,368.603 402.051,362.936 389.5,356.5C 392.167,353.167 394.833,349.833 397.5,346.5C 400.833,342.833 404.167,339.167 407.5,335.5 Z"/></g>
<g><path style="opacity:1" fill="#333244" d="M 437.5,344.5 C 441.167,344.5 444.833,344.5 448.5,344.5C 443.608,366.842 435.942,388.175 425.5,408.5C 421.069,408.231 416.735,408.564 412.5,409.5C 416.092,402.648 419.426,395.648 422.5,388.5C 424.777,383.613 426.777,378.613 428.5,373.5C 431.973,364.748 434.639,355.748 436.5,346.5C 437.338,346.158 437.672,345.492 437.5,344.5 Z"/></g>
<g><path style="opacity:1" fill="#333244" d="M 397.5,346.5 C 394.833,349.833 392.167,353.167 389.5,356.5C 384.687,361.07 379.687,365.403 374.5,369.5C 372.372,371.403 370.039,373.069 367.5,374.5C 366.248,385.877 366.581,397.21 368.5,408.5C 365.411,409.785 362.078,410.451 358.5,410.5C 358.702,408.05 358.369,405.717 357.5,403.5C 356.847,392.514 356.347,381.514 356,370.5C 353.389,362.835 350.889,355.168 348.5,347.5C 352.065,346.213 355.732,346.213 359.5,347.5C 361.11,352.664 363.11,357.664 365.5,362.5C 371.817,357.516 377.817,352.182 383.5,346.5C 388.355,345.953 393.022,345.953 397.5,346.5 Z"/></g>
<g><path style="opacity:1" fill="#373445" d="M 312.5,347.5 C 315.833,347.5 319.167,347.5 322.5,347.5C 322.175,355.019 322.508,362.352 323.5,369.5C 323.639,383.172 323.972,396.839 324.5,410.5C 321.214,411.207 317.881,411.54 314.5,411.5C 313.781,409.236 313.448,406.903 313.5,404.5C 313.469,393.156 313.136,381.822 312.5,370.5C 312.5,364.167 312.5,357.833 312.5,351.5C 312.5,350.167 312.5,348.833 312.5,347.5 Z"/></g>
<g><path style="opacity:1" fill="#e07d75" d="M 147.5,348.5 C 161.51,348.971 175.51,349.638 189.5,350.5C 189.5,357.5 189.5,364.5 189.5,371.5C 175.854,370.46 162.187,369.793 148.5,369.5C 148.737,368.209 148.404,367.209 147.5,366.5C 147.5,364.5 147.5,362.5 147.5,360.5C 147.5,356.5 147.5,352.5 147.5,348.5 Z"/></g>
<g><path style="opacity:1" fill="#403848" d="M 291.5,349.5 C 291.232,351.099 291.566,352.432 292.5,353.5C 292.179,359.026 292.512,364.36 293.5,369.5C 293.5,380.833 293.5,392.167 293.5,403.5C 293.5,414.5 293.5,425.5 293.5,436.5C 293.5,452.5 293.5,468.5 293.5,484.5C 292.502,460.339 292.169,436.006 292.5,411.5C 289.5,411.5 286.5,411.5 283.5,411.5C 283.829,424.344 283.495,437.011 282.5,449.5C 282.5,437.5 282.5,425.5 282.5,413.5C 282.5,410.167 282.5,406.833 282.5,403.5C 282.829,390.989 282.495,378.655 281.5,366.5C 281.5,361.5 281.5,356.5 281.5,351.5C 281.5,350.5 281.5,349.5 281.5,348.5C 284.939,348.253 288.272,348.586 291.5,349.5 Z"/></g>
<g><path style="opacity:1" fill="#323244" d="M 223.5,350.5 C 222.89,351.391 222.557,352.391 222.5,353.5C 215.58,362.933 208.413,372.266 201,381.5C 200.5,392.161 200.333,402.828 200.5,413.5C 197.119,413.46 193.786,413.793 190.5,414.5C 190.5,393.167 190.5,371.833 190.5,350.5C 193.5,350.5 196.5,350.5 199.5,350.5C 199.183,354.702 199.517,358.702 200.5,362.5C 200.369,363.239 200.536,363.906 201,364.5C 204.752,359.982 208.252,355.316 211.5,350.5C 215.749,350.317 219.749,350.317 223.5,350.5 Z"/></g>
<g><path style="opacity:1" fill="#343345" d="M 249.5,349.5 C 253.167,349.5 256.833,349.5 260.5,349.5C 247.668,371.181 232.668,391.348 215.5,410C 213.402,410.678 211.402,410.511 209.5,409.5C 207.362,407.257 207.196,404.924 209,402.5C 218.993,390.497 228.493,378.164 237.5,365.5C 241.5,360.167 245.5,354.833 249.5,349.5 Z"/></g>
<g><path style="opacity:1" fill="#333244" d="M 147.5,360.5 C 147.5,362.5 147.5,364.5 147.5,366.5C 147.5,382.833 147.5,399.167 147.5,415.5C 143.5,415.5 139.5,415.5 135.5,415.5C 132.565,410.235 128.899,405.568 124.5,401.5C 123.243,398.573 121.243,396.239 118.5,394.5C 114.21,388.842 109.21,383.842 103.5,379.5C 100.083,375.753 96.0829,372.753 91.5,370.5C 70.7214,377.948 54.3881,390.948 42.5,409.5C 42.7093,410.086 43.0426,410.586 43.5,411C 50.4599,412.567 57.1266,414.733 63.5,417.5C 51.8333,417.5 40.1667,417.5 28.5,417.5C 27.5269,415.932 27.3603,414.265 28,412.5C 29.7134,408.905 31.5467,405.405 33.5,402C 31.1992,399.844 28.5325,398.178 25.5,397C 16.1124,389.17 12.9457,379.337 16,367.5C 17.8483,363.141 19.6817,358.808 21.5,354.5C 25.649,353.92 29.3157,354.586 32.5,356.5C 29.4671,362.4 27.1338,368.566 25.5,375C 25.7731,378.997 27.1064,382.497 29.5,385.5C 33.051,389.276 37.3844,391.442 42.5,392C 55.3502,376.07 71.6835,365.404 91.5,360C 94.5309,357.492 97.5309,354.992 100.5,352.5C 105.695,352.179 110.695,352.513 115.5,353.5C 111.693,357.135 107.693,360.635 103.5,364C 115.701,374.534 126.868,386.034 137,398.5C 136.736,383.182 136.569,367.848 136.5,352.5C 139.728,351.586 143.061,351.253 146.5,351.5C 146.19,354.713 146.523,357.713 147.5,360.5 Z"/></g>
<g><path style="opacity:1" fill="#f2e1d9" d="M 346.5,344.5 C 347.167,345.5 347.833,346.5 348.5,347.5C 350.889,355.168 353.389,362.835 356,370.5C 356.347,381.514 356.847,392.514 357.5,403.5C 348.969,406.43 340.635,409.93 332.5,414C 329.823,414.814 327.823,416.314 326.5,418.5C 326.167,418.5 325.833,418.5 325.5,418.5C 324.735,415.904 324.401,413.237 324.5,410.5C 323.972,396.839 323.639,383.172 323.5,369.5C 323.5,364.5 323.5,359.5 323.5,354.5C 331.288,351.439 338.955,348.106 346.5,344.5 Z"/></g>
<g><path style="opacity:1" fill="#5b5b6e" d="M 222.5,353.5 C 226.855,358.175 231.855,362.175 237.5,365.5C 228.493,378.164 218.993,390.497 209,402.5C 207.196,404.924 207.362,407.257 209.5,409.5C 206.5,412.833 203.5,416.167 200.5,419.5C 200.5,417.5 200.5,415.5 200.5,413.5C 200.333,402.828 200.5,392.161 201,381.5C 208.413,372.266 215.58,362.933 222.5,353.5 Z"/></g>
<g><path style="opacity:1" fill="#db7c6f" d="M 312.5,351.5 C 312.5,357.833 312.5,364.167 312.5,370.5C 306.149,370.443 299.815,370.11 293.5,369.5C 292.512,364.36 292.179,359.026 292.5,353.5C 298.75,351.541 305.416,350.874 312.5,351.5 Z"/></g>
<g><path style="opacity:1" fill="#ce696f" d="M 389.5,356.5 C 402.051,362.936 415.051,368.603 428.5,373.5C 426.777,378.613 424.777,383.613 422.5,388.5C 406.136,382.938 390.136,376.604 374.5,369.5C 379.687,365.403 384.687,361.07 389.5,356.5 Z"/></g>
<g><path style="opacity:1" fill="#f1dfd5" d="M 279.5,335.5 C 280.075,340.969 280.741,346.302 281.5,351.5C 281.5,356.5 281.5,361.5 281.5,366.5C 281.5,369.5 281.5,372.5 281.5,375.5C 274.492,375.666 267.492,375.5 260.5,375C 258.618,374.802 256.952,374.302 255.5,373.5C 263.483,360.208 270.983,346.542 278,332.5C 278.232,333.737 278.732,334.737 279.5,335.5 Z"/></g>
<g><path style="opacity:1" fill="#d8756d" d="M 293.5,369.5 C 299.815,370.11 306.149,370.443 312.5,370.5C 313.136,381.822 313.469,393.156 313.5,404.5C 306.922,403.54 300.255,403.207 293.5,403.5C 293.5,392.167 293.5,380.833 293.5,369.5 Z"/></g>
<g><path style="opacity:1" fill="#d57176" d="M 103.5,379.5 C 91.1396,392.527 78.4729,405.194 65.5,417.5C 64.8333,417.5 64.1667,417.5 63.5,417.5C 57.1266,414.733 50.4599,412.567 43.5,411C 43.0426,410.586 42.7093,410.086 42.5,409.5C 54.3881,390.948 70.7214,377.948 91.5,370.5C 96.0829,372.753 100.083,375.753 103.5,379.5 Z"/></g>
<g><path style="opacity:1" fill="#d57076" d="M 374.5,369.5 C 390.136,376.604 406.136,382.938 422.5,388.5C 419.426,395.648 416.092,402.648 412.5,409.5C 409.415,414.672 406.081,419.672 402.5,424.5C 402.5,423.5 402.5,422.5 402.5,421.5C 391.394,417.448 380.394,413.114 369.5,408.5C 369.167,408.5 368.833,408.5 368.5,408.5C 366.581,397.21 366.248,385.877 367.5,374.5C 370.039,373.069 372.372,371.403 374.5,369.5 Z"/></g>
<g><path style="opacity:1" fill="#db7d70" d="M 148.5,369.5 C 162.187,369.793 175.854,370.46 189.5,371.5C 189.5,377.833 189.5,384.167 189.5,390.5C 175.856,389.443 162.189,388.776 148.5,388.5C 148.5,382.167 148.5,375.833 148.5,369.5 Z"/></g>
<g><path style="opacity:1" fill="#f1d9d3" d="M 281.5,366.5 C 282.495,378.655 282.829,390.989 282.5,403.5C 266.65,403.465 250.983,402.798 235.5,401.5C 241.786,391.883 248.453,382.55 255.5,373.5C 256.952,374.302 258.618,374.802 260.5,375C 267.492,375.5 274.492,375.666 281.5,375.5C 281.5,372.5 281.5,369.5 281.5,366.5 Z"/></g>
<g><path style="opacity:1" fill="#cb686d" d="M 103.5,379.5 C 109.21,383.842 114.21,388.842 118.5,394.5C 118.631,395.239 118.464,395.906 118,396.5C 107.971,406.864 97.6373,416.864 87,426.5C 86.5357,427.094 86.369,427.761 86.5,428.5C 79.5917,424.547 72.5917,420.88 65.5,417.5C 78.4729,405.194 91.1396,392.527 103.5,379.5 Z"/></g>
<g><path style="opacity:1" fill="#d9766f" d="M 148.5,388.5 C 162.189,388.776 175.856,389.443 189.5,390.5C 189.5,396.833 189.5,403.167 189.5,409.5C 175.804,408.616 162.138,407.616 148.5,406.5C 148.5,400.5 148.5,394.5 148.5,388.5 Z"/></g>
<g><path style="opacity:1" fill="#c26363" d="M 118.5,394.5 C 121.243,396.239 123.243,398.573 124.5,401.5C 114.395,411.104 104.395,420.937 94.5,431C 93.9056,431.464 93.2389,431.631 92.5,431.5C 90.5168,430.529 88.5168,429.529 86.5,428.5C 86.369,427.761 86.5357,427.094 87,426.5C 97.6373,416.864 107.971,406.864 118,396.5C 118.464,395.906 118.631,395.239 118.5,394.5 Z"/></g>
<g><path style="opacity:1" fill="#ecd9cd" d="M 235.5,401.5 C 250.983,402.798 266.65,403.465 282.5,403.5C 282.5,406.833 282.5,410.167 282.5,413.5C 264.005,412.759 245.672,411.759 227.5,410.5C 229.472,406.895 232.139,403.895 235.5,401.5 Z"/></g>
<g><path style="opacity:1" fill="#d16f68" d="M 293.5,403.5 C 300.255,403.207 306.922,403.54 313.5,404.5C 313.448,406.903 313.781,409.236 314.5,411.5C 315.146,420.152 315.479,428.818 315.5,437.5C 308.132,437.683 300.799,437.35 293.5,436.5C 293.5,425.5 293.5,414.5 293.5,403.5 Z"/></g>
<g><path style="opacity:1" fill="#f6e9df" d="M 357.5,403.5 C 358.369,405.717 358.702,408.05 358.5,410.5C 360.026,417.092 361.36,423.759 362.5,430.5C 353.917,428.376 345.917,424.876 338.5,420C 337.167,419.333 335.833,419.333 334.5,420C 333.627,421.045 332.627,421.878 331.5,422.5C 329.833,421.167 328.167,419.833 326.5,418.5C 327.823,416.314 329.823,414.814 332.5,414C 340.635,409.93 348.969,406.43 357.5,403.5 Z"/></g>
<g><path style="opacity:1" fill="#bc5b5e" d="M 124.5,401.5 C 128.899,405.568 132.565,410.235 135.5,415.5C 135.5,415.833 135.5,416.167 135.5,416.5C 126.473,425.528 117.14,434.194 107.5,442.5C 102.284,439.066 97.2844,435.399 92.5,431.5C 93.2389,431.631 93.9056,431.464 94.5,431C 104.395,420.937 114.395,411.104 124.5,401.5 Z"/></g>
<g><path style="opacity:1" fill="#33323f" d="M 368.5,408.5 C 368.833,408.5 369.167,408.5 369.5,408.5C 371.264,423.04 375.098,437.04 381,450.5C 389.133,442.543 396.3,433.876 402.5,424.5C 406.081,419.672 409.415,414.672 412.5,409.5C 416.735,408.564 421.069,408.231 425.5,408.5C 416.325,425.847 404.992,441.681 391.5,456C 387.606,459.565 383.44,462.731 379,465.5C 377.018,465.01 375.351,464.01 374,462.5C 371.15,456.136 368.316,449.803 365.5,443.5C 354.257,440.379 343.59,435.879 333.5,430C 330.853,427.91 330.186,425.41 331.5,422.5C 332.627,421.878 333.627,421.045 334.5,420C 335.833,419.333 337.167,419.333 338.5,420C 345.917,424.876 353.917,428.376 362.5,430.5C 361.36,423.759 360.026,417.092 358.5,410.5C 362.078,410.451 365.411,409.785 368.5,408.5 Z"/></g>
<g><path style="opacity:1" fill="#de757c" d="M 369.5,408.5 C 380.394,413.114 391.394,417.448 402.5,421.5C 402.5,422.5 402.5,423.5 402.5,424.5C 396.3,433.876 389.133,442.543 381,450.5C 375.098,437.04 371.264,423.04 369.5,408.5 Z"/></g>
<g><path style="opacity:1" fill="#d5766a" d="M 148.5,406.5 C 162.138,407.616 175.804,408.616 189.5,409.5C 189.5,414.5 189.5,419.5 189.5,424.5C 175.842,423.677 162.175,423.01 148.5,422.5C 148.5,417.167 148.5,411.833 148.5,406.5 Z"/></g>
<g><path style="opacity:1" fill="#33323e" d="M 324.5,410.5 C 324.401,413.237 324.735,415.904 325.5,418.5C 326.71,442.198 328.377,465.864 330.5,489.5C 330.594,491.912 329.594,493.745 327.5,495C 252.5,495.667 177.5,495.667 102.5,495C 91.3988,489.39 87.8988,480.556 92,468.5C 94.2911,462.405 98.1244,457.571 103.5,454C 81.2928,435.895 56.2928,423.729 28.5,417.5C 40.1667,417.5 51.8333,417.5 63.5,417.5C 64.1667,417.5 64.8333,417.5 65.5,417.5C 72.5917,420.88 79.5917,424.547 86.5,428.5C 88.5168,429.529 90.5168,430.529 92.5,431.5C 97.2844,435.399 102.284,439.066 107.5,442.5C 110.476,445.302 113.642,447.969 117,450.5C 119.335,454.155 118.835,457.321 115.5,460C 111.385,462.448 107.552,465.281 104,468.5C 101.568,472.675 101.068,477.009 102.5,481.5C 102.953,482.458 103.619,483.292 104.5,484C 115.161,484.5 125.828,484.667 136.5,484.5C 137.055,472.841 137.388,461.174 137.5,449.5C 137.667,438.828 137.5,428.161 137,417.5C 136.617,416.944 136.117,416.611 135.5,416.5C 135.5,416.167 135.5,415.833 135.5,415.5C 139.5,415.5 143.5,415.5 147.5,415.5C 147.5,438.833 147.5,462.167 147.5,485.5C 161.5,485.5 175.5,485.5 189.5,485.5C 189.5,476.5 189.5,467.5 189.5,458.5C 190.394,443.855 190.727,429.188 190.5,414.5C 193.786,413.793 197.119,413.46 200.5,413.5C 200.5,415.5 200.5,417.5 200.5,419.5C 200.5,422.5 200.5,425.5 200.5,428.5C 206.023,428.069 211.356,428.736 216.5,430.5C 217.973,431.74 219.64,432.74 221.5,433.5C 228.106,428.756 235.106,428.256 242.5,432C 248.299,436.432 250.632,442.266 249.5,449.5C 260.5,449.5 271.5,449.5 282.5,449.5C 283.495,437.011 283.829,424.344 283.5,411.5C 286.5,411.5 289.5,411.5 292.5,411.5C 292.169,436.006 292.502,460.339 293.5,484.5C 301.984,485.493 310.651,485.826 319.5,485.5C 319.784,483.585 319.451,481.919 318.5,480.5C 317.79,466.142 316.79,451.809 315.5,437.5C 315.479,428.818 315.146,420.152 314.5,411.5C 317.881,411.54 321.214,411.207 324.5,410.5 Z"/></g>
<g><path style="opacity:1" fill="#ecd3cc" d="M 227.5,410.5 C 245.672,411.759 264.005,412.759 282.5,413.5C 282.5,425.5 282.5,437.5 282.5,449.5C 271.5,449.5 260.5,449.5 249.5,449.5C 250.632,442.266 248.299,436.432 242.5,432C 235.106,428.256 228.106,428.756 221.5,433.5C 219.64,432.74 217.973,431.74 216.5,430.5C 215.463,428.262 215.297,425.929 216,423.5C 219.699,418.973 223.532,414.639 227.5,410.5 Z"/></g>
<g><path style="opacity:1" fill="#d37069" d="M 148.5,422.5 C 162.175,423.01 175.842,423.677 189.5,424.5C 189.5,432.167 189.5,439.833 189.5,447.5C 175.85,446.383 162.184,445.383 148.5,444.5C 148.5,437.167 148.5,429.833 148.5,422.5 Z"/></g>
<g><path style="opacity:1" fill="#af5153" d="M 135.5,416.5 C 136.117,416.611 136.617,416.944 137,417.5C 137.5,428.161 137.667,438.828 137.5,449.5C 125.813,460.189 114.147,470.855 102.5,481.5C 101.068,477.009 101.568,472.675 104,468.5C 107.552,465.281 111.385,462.448 115.5,460C 118.835,457.321 119.335,454.155 117,450.5C 113.642,447.969 110.476,445.302 107.5,442.5C 117.14,434.194 126.473,425.528 135.5,416.5 Z"/></g>
<g><path style="opacity:1" fill="#ca6862" d="M 293.5,436.5 C 300.799,437.35 308.132,437.683 315.5,437.5C 316.79,451.809 317.79,466.142 318.5,480.5C 318.5,481.833 318.5,483.167 318.5,484.5C 310.167,484.5 301.833,484.5 293.5,484.5C 293.5,468.5 293.5,452.5 293.5,436.5 Z"/></g>
<g><path style="opacity:1" fill="#dd5d91" d="M 238.5,443.5 C 238.5,451.833 238.5,460.167 238.5,468.5C 234.833,468.5 231.167,468.5 227.5,468.5C 227.5,460.167 227.5,451.833 227.5,443.5C 227.956,440.714 229.623,439.381 232.5,439.5C 235.622,439.38 237.622,440.713 238.5,443.5 Z"/></g>
<g><path style="opacity:1" fill="#c86d63" d="M 189.5,342.5 C 190.473,344.948 190.806,347.615 190.5,350.5C 190.5,371.833 190.5,393.167 190.5,414.5C 190.727,429.188 190.394,443.855 189.5,458.5C 175.833,457.833 162.167,457.167 148.5,456.5C 148.5,452.5 148.5,448.5 148.5,444.5C 162.184,445.383 175.85,446.383 189.5,447.5C 189.5,439.833 189.5,432.167 189.5,424.5C 189.5,419.5 189.5,414.5 189.5,409.5C 189.5,403.167 189.5,396.833 189.5,390.5C 189.5,384.167 189.5,377.833 189.5,371.5C 189.5,364.5 189.5,357.5 189.5,350.5C 189.5,347.833 189.5,345.167 189.5,342.5 Z"/></g>
<g><path style="opacity:1" fill="#a54a4a" d="M 137.5,449.5 C 137.388,461.174 137.055,472.841 136.5,484.5C 125.828,484.667 115.161,484.5 104.5,484C 103.619,483.292 102.953,482.458 102.5,481.5C 114.147,470.855 125.813,460.189 137.5,449.5 Z"/></g>
<g><path style="opacity:1" fill="#c66762" d="M 147.5,366.5 C 148.404,367.209 148.737,368.209 148.5,369.5C 148.5,375.833 148.5,382.167 148.5,388.5C 148.5,394.5 148.5,400.5 148.5,406.5C 148.5,411.833 148.5,417.167 148.5,422.5C 148.5,429.833 148.5,437.167 148.5,444.5C 148.5,448.5 148.5,452.5 148.5,456.5C 162.167,457.167 175.833,457.833 189.5,458.5C 189.5,467.5 189.5,476.5 189.5,485.5C 175.5,485.5 161.5,485.5 147.5,485.5C 147.5,462.167 147.5,438.833 147.5,415.5C 147.5,399.167 147.5,382.833 147.5,366.5 Z"/></g>
<g><path style="opacity:1" fill="#da5a8e" d="M 216.5,464.5 C 215.566,465.568 215.232,466.901 215.5,468.5C 210.5,468.5 205.5,468.5 200.5,468.5C 200.5,463.5 200.5,458.5 200.5,453.5C 200.5,448.833 200.5,444.167 200.5,439.5C 204.514,439.334 208.514,439.501 212.5,440C 213.667,441.167 214.833,442.333 216,443.5C 216.5,450.492 216.666,457.492 216.5,464.5 Z"/></g>
<g><path style="opacity:1" fill="#914569" d="M 227.5,443.5 C 227.5,451.833 227.5,460.167 227.5,468.5C 227.5,473.833 227.5,479.167 227.5,484.5C 231.167,484.5 234.833,484.5 238.5,484.5C 238.5,479.167 238.5,473.833 238.5,468.5C 238.5,460.167 238.5,451.833 238.5,443.5C 239.496,457.323 239.829,471.323 239.5,485.5C 235.167,485.5 230.833,485.5 226.5,485.5C 226.171,471.323 226.504,457.323 227.5,443.5 Z"/></g>
<g><path style="opacity:1" fill="#c94c7e" d="M 216.5,464.5 C 216.5,471.167 216.5,477.833 216.5,484.5C 211.167,484.5 205.833,484.5 200.5,484.5C 200.5,479.167 200.5,473.833 200.5,468.5C 205.5,468.5 210.5,468.5 215.5,468.5C 215.232,466.901 215.566,465.568 216.5,464.5 Z"/></g>
<g><path style="opacity:1" fill="#c94c7e" d="M 227.5,468.5 C 231.167,468.5 234.833,468.5 238.5,468.5C 238.5,473.833 238.5,479.167 238.5,484.5C 234.833,484.5 231.167,484.5 227.5,484.5C 227.5,479.167 227.5,473.833 227.5,468.5 Z"/></g>
<g><path style="opacity:1" fill="#6b3c58" d="M 200.5,453.5 C 200.5,458.5 200.5,463.5 200.5,468.5C 200.5,473.833 200.5,479.167 200.5,484.5C 205.833,484.5 211.167,484.5 216.5,484.5C 211.025,485.489 205.358,485.822 199.5,485.5C 199.172,474.654 199.506,463.987 200.5,453.5 Z"/></g>
<g><path style="opacity:1" fill="#72494a" d="M 318.5,480.5 C 319.451,481.919 319.784,483.585 319.5,485.5C 310.651,485.826 301.984,485.493 293.5,484.5C 301.833,484.5 310.167,484.5 318.5,484.5C 318.5,483.167 318.5,481.833 318.5,480.5 Z"/></g>
</svg>
