<?xml version="1.0" encoding="UTF-8"?>
<!DOCTYPE svg PUBLIC "-//W3C//DTD SVG 1.1//EN" "http://www.w3.org/Graphics/SVG/1.1/DTD/svg11.dtd">
<svg xmlns="http://www.w3.org/2000/svg" version="1.1" width="512px" height="512px" style="shape-rendering:geometricPrecision; text-rendering:geometricPrecision; image-rendering:optimizeQuality; fill-rule:evenodd; clip-rule:evenodd" xmlns:xlink="http://www.w3.org/1999/xlink">
<g><path style="opacity:1" fill="#3f3e51" d="M 419.5,130.5 C 436.851,129.054 454.184,127.387 471.5,125.5C 471.828,113.322 471.495,101.322 470.5,89.5C 468.328,79.3336 461.994,73.667 451.5,72.5C 431.672,74.6975 412.672,79.8642 394.5,88C 398.194,90.1782 401.861,92.3448 405.5,94.5C 412.416,100.302 417.916,107.302 422,115.5C 424.641,120.149 423.808,123.816 419.5,126.5C 417.533,126.739 415.699,126.406 414,125.5C 409.319,112.151 400.485,102.651 387.5,97C 383.492,95.8874 379.659,94.3874 376,92.5C 373.965,88.6978 374.798,85.5311 378.5,83C 398.41,72.919 419.41,66.2523 441.5,63C 464.029,59.2323 477.529,68.3989 482,90.5C 482.333,115.833 482.667,141.167 483,166.5C 484,176.997 485.833,187.33 488.5,197.5C 484.936,196.577 481.269,196.244 477.5,196.5C 476.732,194.285 476.065,191.952 475.5,189.5C 473.208,178.628 471.875,167.628 471.5,156.5C 457.159,158.101 442.825,159.767 428.5,161.5C 427.733,171.333 426.066,181 423.5,190.5C 422.976,192.306 422.309,193.972 421.5,195.5C 417.833,195.5 414.167,195.5 410.5,195.5C 414.263,185.122 416.429,174.456 417,163.5C 392.735,166.992 368.402,170.325 344,173.5C 340.485,173.516 338.651,171.85 338.5,168.5C 338.383,166.516 339.05,164.85 340.5,163.5C 384.001,156.71 427.668,151.044 471.5,146.5C 471.5,142.833 471.5,139.167 471.5,135.5C 426.185,140.998 380.852,146.498 335.5,152C 334.835,155.827 333.002,158.994 330,161.5C 329.199,164.367 329.366,167.034 330.5,169.5C 330.192,171.924 330.526,174.257 331.5,176.5C 342.889,180.934 353.222,186.934 362.5,194.5C 356.5,194.5 350.5,194.5 344.5,194.5C 340.069,192.785 335.735,190.785 331.5,188.5C 330.05,189.85 329.383,191.516 329.5,193.5C 326.167,193.5 322.833,193.5 319.5,193.5C 320.925,183.119 320.592,172.786 318.5,162.5C 311.404,157.654 303.737,156.488 295.5,159C 291.952,160.941 288.286,162.607 284.5,164C 282.402,164.678 280.402,164.511 278.5,163.5C 276.771,162.883 275.271,161.883 274,160.5C 270.03,154.521 266.03,148.521 262,142.5C 260.623,144.754 259.123,146.92 257.5,149C 255.833,149.667 254.167,149.667 252.5,149C 250.023,145.238 248.523,141.071 248,136.5C 246.067,132.302 243.401,128.635 240,125.5C 239.233,132.718 235.733,138.051 229.5,141.5C 229.729,155.778 236.062,166.611 248.5,174C 249.448,174.483 250.448,174.649 251.5,174.5C 251.421,167.894 254.421,165.561 260.5,167.5C 270.871,180.221 283.871,188.888 299.5,193.5C 290.809,193.632 282.142,193.299 273.5,192.5C 268.573,189.58 263.906,186.246 259.5,182.5C 258.281,185.059 256.281,186.393 253.5,186.5C 243.31,183.495 234.81,177.829 228,169.5C 226.544,172.032 225.377,174.699 224.5,177.5C 221.849,182.131 219.182,186.798 216.5,191.5C 211.833,191.5 207.167,191.5 202.5,191.5C 199.236,192.324 195.902,192.658 192.5,192.5C 173.163,191.586 153.83,190.586 134.5,189.5C 139.791,188.616 145.124,187.949 150.5,187.5C 165.285,185.416 179.952,183.416 194.5,181.5C 200.238,181.18 205.905,180.347 211.5,179C 215.044,173.197 217.711,167.03 219.5,160.5C 219.421,159.07 219.754,157.736 220.5,156.5C 218.856,151.922 217.522,147.256 216.5,142.5C 204.21,134.074 199.877,122.574 203.5,108C 189.665,80.3427 193.665,55.676 215.5,34C 236.495,19.4735 259.495,15.1402 284.5,21C 306.329,28.0992 319.829,42.9326 325,65.5C 326.266,87.4636 326.933,109.464 327,131.5C 329.557,134.392 331.724,137.559 333.5,141C 362.148,137.836 390.814,134.336 419.5,130.5 Z"/></g>
<g><path style="opacity:1" fill="#f8dad4" d="M 310.5,57.5 C 277.5,57.5 244.5,57.5 211.5,57.5C 219.026,43.3829 230.692,34.5496 246.5,31C 263.259,27.4053 279.259,29.4053 294.5,37C 302.341,41.9926 307.674,48.8259 310.5,57.5 Z"/></g>
<g><path style="opacity:1" fill="#f9d3cc" d="M 211.5,57.5 C 244.5,57.5 277.5,57.5 310.5,57.5C 312.806,61.0845 314.139,65.0845 314.5,69.5C 314.5,69.8333 314.5,70.1667 314.5,70.5C 278.833,70.5 243.167,70.5 207.5,70.5C 207.5,69.5 207.5,68.5 207.5,67.5C 207.934,63.7233 209.267,60.39 211.5,57.5 Z"/></g>
<g><path style="opacity:1" fill="#f9cdc6" d="M 207.5,67.5 C 207.5,68.5 207.5,69.5 207.5,70.5C 243.167,70.5 278.833,70.5 314.5,70.5C 314.5,75.1667 314.5,79.8333 314.5,84.5C 278.833,84.5 243.167,84.5 207.5,84.5C 206.167,78.8333 206.167,73.1667 207.5,67.5 Z"/></g>
<g><path style="opacity:1" fill="#6f819a" d="M 470.5,89.5 C 448.681,90.9659 427.014,92.6325 405.5,94.5C 401.861,92.3448 398.194,90.1782 394.5,88C 412.672,79.8642 431.672,74.6975 451.5,72.5C 461.994,73.667 468.328,79.3336 470.5,89.5 Z"/></g>
<g><path style="opacity:1" fill="#f9c7c0" d="M 207.5,84.5 C 243.167,84.5 278.833,84.5 314.5,84.5C 314.5,87.5 314.5,90.5 314.5,93.5C 279.5,93.5 244.5,93.5 209.5,93.5C 208.087,90.7814 207.42,87.7814 207.5,84.5 Z"/></g>
<g><path style="opacity:1" fill="#7689a2" d="M 470.5,89.5 C 471.495,101.322 471.828,113.322 471.5,125.5C 454.184,127.387 436.851,129.054 419.5,130.5C 419.5,129.167 419.5,127.833 419.5,126.5C 423.808,123.816 424.641,120.149 422,115.5C 417.916,107.302 412.416,100.302 405.5,94.5C 427.014,92.6325 448.681,90.9659 470.5,89.5 Z"/></g>
<g><path style="opacity:1" fill="#f9c7ba" d="M 209.5,93.5 C 244.5,93.5 279.5,93.5 314.5,93.5C 314.737,94.791 314.404,95.791 313.5,96.5C 308.774,94.5336 305.441,95.867 303.5,100.5C 299.167,100.5 294.833,100.5 290.5,100.5C 289.003,97.4905 286.503,95.8239 283,95.5C 280.599,96.3988 279.099,98.0655 278.5,100.5C 262.325,100.17 246.325,100.504 230.5,101.5C 224.8,97.6994 218.633,96.6994 212,98.5C 210.124,97.381 209.291,95.7144 209.5,93.5 Z"/></g>
<g><path style="opacity:1" fill="#e2847e" d="M 313.5,96.5 C 315.272,103.169 312.605,105.669 305.5,104C 304.177,103.184 303.511,102.017 303.5,100.5C 305.441,95.867 308.774,94.5336 313.5,96.5 Z"/></g>
<g><path style="opacity:1" fill="#e38680" d="M 290.5,100.5 C 290.582,103.585 289.082,105.252 286,105.5C 282.441,105.156 279.941,103.489 278.5,100.5C 279.099,98.0655 280.599,96.3988 283,95.5C 286.503,95.8239 289.003,97.4905 290.5,100.5 Z"/></g>
<g><path style="opacity:1" fill="#f9bfb5" d="M 314.5,69.5 C 315.496,84.6576 315.83,99.9909 315.5,115.5C 293.224,117.145 270.891,118.145 248.5,118.5C 241.186,114.185 235.186,108.518 230.5,101.5C 246.325,100.504 262.325,100.17 278.5,100.5C 279.941,103.489 282.441,105.156 286,105.5C 289.082,105.252 290.582,103.585 290.5,100.5C 294.833,100.5 299.167,100.5 303.5,100.5C 303.511,102.017 304.177,103.184 305.5,104C 312.605,105.669 315.272,103.169 313.5,96.5C 314.404,95.791 314.737,94.791 314.5,93.5C 314.5,90.5 314.5,87.5 314.5,84.5C 314.5,79.8333 314.5,75.1667 314.5,70.5C 314.5,70.1667 314.5,69.8333 314.5,69.5 Z"/></g>
<g><path style="opacity:1" fill="#f6b8ae" d="M 216.5,107.5 C 221.797,107.95 225.631,110.617 228,115.5C 228.667,120.167 228.667,124.833 228,129.5C 225.79,132.29 222.956,133.123 219.5,132C 213.838,125.902 212.005,118.736 214,110.5C 215.045,109.627 215.878,108.627 216.5,107.5 Z"/></g>
<g><path style="opacity:1" fill="#f6b8ac" d="M 315.5,115.5 C 315.82,118.898 315.487,122.232 314.5,125.5C 302.669,122.791 291.669,124.624 281.5,131C 278.386,134.06 275.886,137.56 274,141.5C 271.359,137.049 268.859,132.549 266.5,128C 263.053,126.891 260.386,127.891 258.5,131C 257.833,131.667 257.167,131.667 256.5,131C 254.399,126.413 251.732,122.247 248.5,118.5C 270.891,118.145 293.224,117.145 315.5,115.5 Z"/></g>
<g><path style="opacity:1" fill="#f5746f" d="M 338.5,168.5 C 335.946,169.388 333.279,169.721 330.5,169.5C 329.366,167.034 329.199,164.367 330,161.5C 333.002,158.994 334.835,155.827 335.5,152C 380.852,146.498 426.185,140.998 471.5,135.5C 471.5,139.167 471.5,142.833 471.5,146.5C 427.668,151.044 384.001,156.71 340.5,163.5C 339.05,164.85 338.383,166.516 338.5,168.5 Z"/></g>
<g><path style="opacity:1" fill="#5e5e70" d="M 297.5,134.5 C 305.521,133.339 312.854,134.839 319.5,139C 323.615,143.304 324.782,148.137 323,153.5C 313.494,147.637 303.327,146.137 292.5,149C 289.029,151.072 285.362,152.572 281.5,153.5C 282.485,143.514 287.819,137.181 297.5,134.5 Z"/></g>
<g><path style="opacity:1" fill="#5e5e70" d="M 278.5,163.5 C 272.871,165.89 266.871,167.223 260.5,167.5C 254.421,165.561 251.421,167.894 251.5,174.5C 250.448,174.649 249.448,174.483 248.5,174C 236.062,166.611 229.729,155.778 229.5,141.5C 235.733,138.051 239.233,132.718 240,125.5C 243.401,128.635 246.067,132.302 248,136.5C 248.523,141.071 250.023,145.238 252.5,149C 254.167,149.667 255.833,149.667 257.5,149C 259.123,146.92 260.623,144.754 262,142.5C 266.03,148.521 270.03,154.521 274,160.5C 275.271,161.883 276.771,162.883 278.5,163.5 Z"/></g>
<g><path style="opacity:1" fill="#3f3e51" d="M 208.5,161.5 C 208.919,164.325 207.919,166.491 205.5,168C 201.509,168.642 197.509,169.142 193.5,169.5C 178.04,171.515 162.707,173.515 147.5,175.5C 134.188,176.965 120.854,178.298 107.5,179.5C 107.5,183.167 107.5,186.833 107.5,190.5C 104.167,190.167 100.833,189.833 97.5,189.5C 97.5519,171.397 88.5519,163.897 70.5,167C 60.6231,168.903 51.2898,172.069 42.5,176.5C 36.9078,179.091 32.5744,183.091 29.5,188.5C 25.6286,188.815 21.9619,188.482 18.5,187.5C 22.6561,175.845 30.6561,168.011 42.5,164C 51.8884,160.315 61.555,157.648 71.5,156C 85.3251,153.42 96.3251,157.754 104.5,169C 136.994,165.543 169.494,161.709 202,157.5C 205.575,156.77 207.742,158.103 208.5,161.5 Z"/></g>
<g><path style="opacity:1" fill="#555568" d="M 319.5,193.5 C 317.777,194.8 315.61,195.467 313,195.5C 308.405,195.354 303.905,194.687 299.5,193.5C 283.871,188.888 270.871,180.221 260.5,167.5C 266.871,167.223 272.871,165.89 278.5,163.5C 280.402,164.511 282.402,164.678 284.5,164C 288.286,162.607 291.952,160.941 295.5,159C 303.737,156.488 311.404,157.654 318.5,162.5C 320.592,172.786 320.925,183.119 319.5,193.5 Z"/></g>
<g><path style="opacity:1" fill="#889ab5" d="M 475.5,189.5 C 474.596,188.791 474.263,187.791 474.5,186.5C 457.382,187.048 440.382,188.381 423.5,190.5C 426.066,181 427.733,171.333 428.5,161.5C 442.825,159.767 457.159,158.101 471.5,156.5C 471.875,167.628 473.208,178.628 475.5,189.5 Z"/></g>
<g><path style="opacity:1" fill="#f7d9d2" d="M 97.5,189.5 C 79.0378,186.303 60.7044,181.97 42.5,176.5C 51.2898,172.069 60.6231,168.903 70.5,167C 88.5519,163.897 97.5519,171.397 97.5,189.5 Z"/></g>
<g><path style="opacity:1" fill="#f7756b" d="M 219.5,160.5 C 217.711,167.03 215.044,173.197 211.5,179C 205.905,180.347 200.238,181.18 194.5,181.5C 193.081,178.404 192.081,175.071 191.5,171.5C 192.243,170.818 192.909,170.151 193.5,169.5C 197.509,169.142 201.509,168.642 205.5,168C 207.919,166.491 208.919,164.325 208.5,161.5C 212.215,161.577 215.881,161.244 219.5,160.5 Z"/></g>
<g><path style="opacity:1" fill="#e0837e" d="M 273.5,192.5 C 282.843,198.829 293.176,202.995 304.5,205C 304.957,205.414 305.291,205.914 305.5,206.5C 304.295,209.45 303.295,212.45 302.5,215.5C 286.187,212.261 272.02,204.927 260,193.5C 257.12,200.75 257.12,208.083 260,215.5C 262.029,220.392 264.196,225.226 266.5,230C 266.387,231.28 265.72,232.113 264.5,232.5C 252.059,224.291 245.892,212.624 246,197.5C 237.38,192.38 230.214,185.713 224.5,177.5C 225.377,174.699 226.544,172.032 228,169.5C 234.81,177.829 243.31,183.495 253.5,186.5C 256.281,186.393 258.281,185.059 259.5,182.5C 263.906,186.246 268.573,189.58 273.5,192.5 Z"/></g>
<g><path style="opacity:1" fill="#ea6b64" d="M 193.5,169.5 C 192.909,170.151 192.243,170.818 191.5,171.5C 192.081,175.071 193.081,178.404 194.5,181.5C 179.952,183.416 165.285,185.416 150.5,187.5C 150.498,183.126 149.498,179.126 147.5,175.5C 162.707,173.515 178.04,171.515 193.5,169.5 Z"/></g>
<g><path style="opacity:1" fill="#df615a" d="M 147.5,175.5 C 149.498,179.126 150.498,183.126 150.5,187.5C 145.124,187.949 139.791,188.616 134.5,189.5C 126.992,190.376 119.492,191.376 112,192.5C 110.014,192.431 108.514,191.765 107.5,190.5C 107.5,186.833 107.5,183.167 107.5,179.5C 120.854,178.298 134.188,176.965 147.5,175.5 Z"/></g>
<g><path style="opacity:1" fill="#f9dfd8" d="M 224.5,177.5 C 230.214,185.713 237.38,192.38 246,197.5C 245.892,212.624 252.059,224.291 264.5,232.5C 265.72,232.113 266.387,231.28 266.5,230C 264.196,225.226 262.029,220.392 260,215.5C 257.12,208.083 257.12,200.75 260,193.5C 272.02,204.927 286.187,212.261 302.5,215.5C 300.767,221.346 300.1,227.346 300.5,233.5C 276.5,233.5 252.5,233.5 228.5,233.5C 225.688,231.924 223.022,230.09 220.5,228C 218.975,226.991 217.308,226.491 215.5,226.5C 215.517,228.565 215.85,230.565 216.5,232.5C 194.167,233.833 171.833,233.833 149.5,232.5C 163.325,215.421 181.325,206.588 203.5,206C 208.411,201.594 212.745,196.76 216.5,191.5C 219.182,186.798 221.849,182.131 224.5,177.5 Z"/></g>
<g><path style="opacity:1" fill="#f9cfc8" d="M 42.5,176.5 C 60.7044,181.97 79.0378,186.303 97.5,189.5C 97.2249,196.601 95.3916,203.267 92,209.5C 90.9609,210.71 89.7942,211.71 88.5,212.5C 68.1458,207.828 47.8124,202.995 27.5,198C 26.944,197.617 26.6107,197.117 26.5,196.5C 27.1084,193.673 28.1084,191.007 29.5,188.5C 32.5744,183.091 36.9078,179.091 42.5,176.5 Z"/></g>
<g><path style="opacity:1" fill="#8da0b9" d="M 475.5,189.5 C 476.065,191.952 476.732,194.285 477.5,196.5C 474.744,199.389 471.411,201.556 467.5,203C 450.959,210.275 433.625,213.775 415.5,213.5C 417.697,207.574 419.697,201.574 421.5,195.5C 422.309,193.972 422.976,192.306 423.5,190.5C 440.382,188.381 457.382,187.048 474.5,186.5C 474.263,187.791 474.596,188.791 475.5,189.5 Z"/></g>
<g><path style="opacity:1" fill="#3f3e4b" d="M 18.5,187.5 C 21.9619,188.482 25.6286,188.815 29.5,188.5C 28.1084,191.007 27.1084,193.673 26.5,196.5C 23.0601,202.671 21.5601,209.337 22,216.5C 25.3965,226.884 32.5632,230.718 43.5,228C 58.2104,226.429 72.2104,222.429 85.5,216C 86.7101,214.961 87.7101,213.794 88.5,212.5C 89.7942,211.71 90.9609,210.71 92,209.5C 95.3916,203.267 97.2249,196.601 97.5,189.5C 100.833,189.833 104.167,190.167 107.5,190.5C 108.514,191.765 110.014,192.431 112,192.5C 119.492,191.376 126.992,190.376 134.5,189.5C 153.83,190.586 173.163,191.586 192.5,192.5C 163.663,196.731 134.663,200.731 105.5,204.5C 102.873,213.589 97.8731,221.089 90.5,227C 92.7238,234.393 94.3905,241.893 95.5,249.5C 92.3752,250.479 89.0419,250.813 85.5,250.5C 84.596,249.791 84.2627,248.791 84.5,247.5C 83.4947,242.478 82.3281,237.478 81,232.5C 80.6121,231.572 79.9454,230.905 79,230.5C 64.2976,235.801 49.1309,238.467 33.5,238.5C 33.0157,242.232 32.349,245.899 31.5,249.5C 28.1667,249.5 24.8333,249.5 21.5,249.5C 21.4719,244.862 22.1385,240.362 23.5,236C 11.9616,228.362 8.12831,217.862 12,204.5C 13.7043,198.539 15.8709,192.872 18.5,187.5 Z"/></g>
<g><path style="opacity:1" fill="#3f3f4c" d="M 202.5,191.5 C 207.167,191.5 211.833,191.5 216.5,191.5C 212.745,196.76 208.411,201.594 203.5,206C 181.325,206.588 163.325,215.421 149.5,232.5C 145.062,238.375 141.395,244.708 138.5,251.5C 134.958,251.813 131.625,251.479 128.5,250.5C 136.674,224.16 154.007,206.993 180.5,199C 186.777,197.389 193.11,196.056 199.5,195C 200.71,193.961 201.71,192.794 202.5,191.5 Z"/></g>
<g><path style="opacity:1" fill="#413f4b" d="M 273.5,192.5 C 282.142,193.299 290.809,193.632 299.5,193.5C 303.905,194.687 308.405,195.354 313,195.5C 315.61,195.467 317.777,194.8 319.5,193.5C 322.833,193.5 326.167,193.5 329.5,193.5C 330.678,203.322 326.344,207.988 316.5,207.5C 314.355,211.6 313.022,215.933 312.5,220.5C 309.613,227.746 310.446,234.746 315,241.5C 319.191,245.95 323.358,250.284 327.5,254.5C 321.5,254.5 315.5,254.5 309.5,254.5C 309.804,253.85 310.137,253.183 310.5,252.5C 306.693,247.868 303.693,242.868 301.5,237.5C 301.167,236.167 300.833,234.833 300.5,233.5C 300.1,227.346 300.767,221.346 302.5,215.5C 303.295,212.45 304.295,209.45 305.5,206.5C 305.291,205.914 304.957,205.414 304.5,205C 293.176,202.995 282.843,198.829 273.5,192.5 Z"/></g>
<g><path style="opacity:1" fill="#3f3f4c" d="M 344.5,194.5 C 350.5,194.5 356.5,194.5 362.5,194.5C 374.833,203.333 385.333,214 394,226.5C 401.07,217.028 406.57,206.695 410.5,195.5C 414.167,195.5 417.833,195.5 421.5,195.5C 419.697,201.574 417.697,207.574 415.5,213.5C 433.625,213.775 450.959,210.275 467.5,203C 471.411,201.556 474.744,199.389 477.5,196.5C 481.269,196.244 484.936,196.577 488.5,197.5C 491.745,208.668 495.579,219.668 500,230.5C 500.667,232.167 500.667,233.833 500,235.5C 492.544,244.129 484.044,251.462 474.5,257.5C 468.536,256.693 462.536,256.36 456.5,256.5C 457.167,255.833 457.833,255.167 458.5,254.5C 470.167,248.829 480.167,240.995 488.5,231C 485.575,223.983 483.075,216.816 481,209.5C 480.586,209.043 480.086,208.709 479.5,208.5C 471.048,212.974 462.381,216.641 453.5,219.5C 445.229,221.156 436.895,222.49 428.5,223.5C 422.158,223.334 415.825,223.5 409.5,224C 406.09,228.408 403.09,233.075 400.5,238C 402.163,244.222 401.496,250.056 398.5,255.5C 394.167,255.5 389.833,255.5 385.5,255.5C 390.153,252.196 391.819,247.863 390.5,242.5C 388.822,237.803 386.156,233.803 382.5,230.5C 372.075,216.074 359.409,204.074 344.5,194.5 Z"/></g>
<g><path style="opacity:1" fill="#f8c5bc" d="M 26.5,196.5 C 26.6107,197.117 26.944,197.617 27.5,198C 47.8124,202.995 68.1458,207.828 88.5,212.5C 87.7101,213.794 86.7101,214.961 85.5,216C 72.2104,222.429 58.2104,226.429 43.5,228C 32.5632,230.718 25.3965,226.884 22,216.5C 21.5601,209.337 23.0601,202.671 26.5,196.5 Z"/></g>
<g><path style="opacity:1" fill="#b35b50" d="M 344.5,194.5 C 359.409,204.074 372.075,216.074 382.5,230.5C 367.654,235.059 352.821,239.726 338,244.5C 336.97,244.836 336.47,245.503 336.5,246.5C 325.386,240.719 317.386,232.053 312.5,220.5C 313.022,215.933 314.355,211.6 316.5,207.5C 326.344,207.988 330.678,203.322 329.5,193.5C 329.383,191.516 330.05,189.85 331.5,188.5C 335.735,190.785 340.069,192.785 344.5,194.5 Z"/></g>
<g><path style="opacity:1" fill="#f7f7f7" d="M 458.5,254.5 C 456.883,253.411 456.05,251.744 456,249.5C 455.293,239.478 454.46,229.478 453.5,219.5C 462.381,216.641 471.048,212.974 479.5,208.5C 480.086,208.709 480.586,209.043 481,209.5C 483.075,216.816 485.575,223.983 488.5,231C 480.167,240.995 470.167,248.829 458.5,254.5 Z"/></g>
<g><path style="opacity:1" fill="#f0f8f8" d="M 453.5,219.5 C 454.46,229.478 455.293,239.478 456,249.5C 456.05,251.744 456.883,253.411 458.5,254.5C 457.833,255.167 457.167,255.833 456.5,256.5C 447.402,260.311 438.069,263.311 428.5,265.5C 427.144,251.872 426.144,238.205 425.5,224.5C 426.791,224.737 427.791,224.404 428.5,223.5C 436.895,222.49 445.229,221.156 453.5,219.5 Z"/></g>
<g><path style="opacity:1" fill="#823e38" d="M 312.5,220.5 C 317.386,232.053 325.386,240.719 336.5,246.5C 341.622,251.268 347.789,253.601 355,253.5C 366.261,252.873 377.095,250.373 387.5,246C 389.426,245.578 390.426,244.411 390.5,242.5C 391.819,247.863 390.153,252.196 385.5,255.5C 374.142,260.675 362.308,264.342 350,266.5C 346.765,266.418 343.598,265.918 340.5,265C 335.713,262.045 331.38,258.545 327.5,254.5C 323.358,250.284 319.191,245.95 315,241.5C 310.446,234.746 309.613,227.746 312.5,220.5 Z"/></g>
<g><path style="opacity:1" fill="#eaf1f8" d="M 428.5,223.5 C 427.791,224.404 426.791,224.737 425.5,224.5C 426.144,238.205 427.144,251.872 428.5,265.5C 422.566,266.896 416.566,268.063 410.5,269C 408.393,270.264 407.393,272.097 407.5,274.5C 404.518,274.963 401.518,275.296 398.5,275.5C 395.062,272.565 391.729,269.399 388.5,266C 392.734,263.268 396.067,259.768 398.5,255.5C 401.496,250.056 402.163,244.222 400.5,238C 403.09,233.075 406.09,228.408 409.5,224C 415.825,223.5 422.158,223.334 428.5,223.5 Z"/></g>
<g><path style="opacity:1" fill="#e28680" d="M 228.5,233.5 C 237.697,240.086 248.03,243.919 259.5,245C 260.833,246.667 260.833,248.333 259.5,250C 251.22,252.459 243.22,251.793 235.5,248C 228.322,243.761 221.989,238.594 216.5,232.5C 215.85,230.565 215.517,228.565 215.5,226.5C 217.308,226.491 218.975,226.991 220.5,228C 223.022,230.09 225.688,231.924 228.5,233.5 Z"/></g>
<g><path style="opacity:1" fill="#823e38" d="M 84.5,247.5 C 74.4944,255.84 64.4944,264.173 54.5,272.5C 46.4287,277.898 38.0954,282.898 29.5,287.5C 29.4356,274.788 30.1022,262.121 31.5,249.5C 32.349,245.899 33.0157,242.232 33.5,238.5C 49.1309,238.467 64.2976,235.801 79,230.5C 79.9454,230.905 80.6121,231.572 81,232.5C 82.3281,237.478 83.4947,242.478 84.5,247.5 Z"/></g>
<g><path style="opacity:1" fill="#ba5c56" d="M 382.5,230.5 C 386.156,233.803 388.822,237.803 390.5,242.5C 390.426,244.411 389.426,245.578 387.5,246C 377.095,250.373 366.261,252.873 355,253.5C 347.789,253.601 341.622,251.268 336.5,246.5C 336.47,245.503 336.97,244.836 338,244.5C 352.821,239.726 367.654,235.059 382.5,230.5 Z"/></g>
<g><path style="opacity:1" fill="#f9d9d3" d="M 149.5,232.5 C 171.833,233.833 194.167,233.833 216.5,232.5C 221.989,238.594 228.322,243.761 235.5,248C 243.22,251.793 251.22,252.459 259.5,250C 260.833,248.333 260.833,246.667 259.5,245C 248.03,243.919 237.697,240.086 228.5,233.5C 252.5,233.5 276.5,233.5 300.5,233.5C 300.833,234.833 301.167,236.167 301.5,237.5C 301.67,238.822 301.337,239.989 300.5,241C 294.944,242.806 289.278,244.139 283.5,245C 281.682,248.387 282.682,250.387 286.5,251C 291.871,251.676 297.204,251.509 302.5,250.5C 302.5,251.5 302.5,252.5 302.5,253.5C 247.833,253.5 193.167,253.5 138.5,253.5C 138.5,252.833 138.5,252.167 138.5,251.5C 141.395,244.708 145.062,238.375 149.5,232.5 Z"/></g>
<g><path style="opacity:1" fill="#e08580" d="M 301.5,237.5 C 303.693,242.868 306.693,247.868 310.5,252.5C 310.137,253.183 309.804,253.85 309.5,254.5C 308.5,256.167 307.167,257.5 305.5,258.5C 304.833,257.833 304.167,257.167 303.5,256.5C 303.737,255.209 303.404,254.209 302.5,253.5C 302.5,252.5 302.5,251.5 302.5,250.5C 297.204,251.509 291.871,251.676 286.5,251C 282.682,250.387 281.682,248.387 283.5,245C 289.278,244.139 294.944,242.806 300.5,241C 301.337,239.989 301.67,238.822 301.5,237.5 Z"/></g>
<g><path style="opacity:1" fill="#3a384a" d="M 21.5,249.5 C 24.8333,249.5 28.1667,249.5 31.5,249.5C 30.1022,262.121 29.4356,274.788 29.5,287.5C 29.5,287.833 29.5,288.167 29.5,288.5C 28.0048,311.052 28.5048,333.718 31,356.5C 46.2218,350.145 60.0551,341.645 72.5,331C 77.7437,326.261 82.4103,321.095 86.5,315.5C 90.6327,310.34 92.6327,304.34 92.5,297.5C 91.7383,287.611 90.405,277.944 88.5,268.5C 87.5,262.5 86.5,256.5 85.5,250.5C 89.0419,250.813 92.3752,250.479 95.5,249.5C 97.8539,257.922 99.6872,266.589 101,275.5C 107.462,268.851 115.296,264.684 124.5,263C 125.462,258.63 126.795,254.463 128.5,250.5C 131.625,251.479 134.958,251.813 138.5,251.5C 138.5,252.167 138.5,252.833 138.5,253.5C 138.5,253.833 138.5,254.167 138.5,254.5C 136.435,259.92 134.935,265.586 134,271.5C 130.534,272.941 127.034,273.941 123.5,274.5C 119.569,275.132 116.235,276.799 113.5,279.5C 108.767,281.9 105.433,285.566 103.5,290.5C 104.977,294.935 106.644,299.268 108.5,303.5C 110.142,312.075 110.809,320.741 110.5,329.5C 110.5,330.167 110.5,330.833 110.5,331.5C 110.192,335.595 109.359,339.595 108,343.5C 105.549,346.987 102.716,347.32 99.5,344.5C 98.2974,341.84 98.2974,339.173 99.5,336.5C 100.584,329.161 100.584,321.828 99.5,314.5C 95.1293,322.043 89.796,328.876 83.5,335C 72.2106,344.981 59.8773,353.481 46.5,360.5C 45.7025,360.957 45.3691,361.624 45.5,362.5C 39.1534,365.256 32.6534,367.59 26,369.5C 22.9397,369.775 20.9397,368.442 20,365.5C 17.302,333.187 16.9687,300.854 19,268.5C 19.3315,261.956 20.1648,255.623 21.5,249.5 Z"/></g>
<g><path style="opacity:1" fill="#b95c56" d="M 84.5,247.5 C 84.2627,248.791 84.596,249.791 85.5,250.5C 86.5,256.5 87.5,262.5 88.5,268.5C 88.5,269.833 88.5,271.167 88.5,272.5C 77.0052,273.569 65.6719,273.569 54.5,272.5C 64.4944,264.173 74.4944,255.84 84.5,247.5 Z"/></g>
<g><path style="opacity:1" fill="#f9d9cd" d="M 138.5,253.5 C 193.167,253.5 247.833,253.5 302.5,253.5C 303.404,254.209 303.737,255.209 303.5,256.5C 248.157,257.163 193.157,256.496 138.5,254.5C 138.5,254.167 138.5,253.833 138.5,253.5 Z"/></g>
<g><path style="opacity:1" fill="#3a394c" d="M 309.5,254.5 C 315.5,254.5 321.5,254.5 327.5,254.5C 331.38,258.545 335.713,262.045 340.5,265C 343.598,265.918 346.765,266.418 350,266.5C 362.308,264.342 374.142,260.675 385.5,255.5C 389.833,255.5 394.167,255.5 398.5,255.5C 396.067,259.768 392.734,263.268 388.5,266C 391.729,269.399 395.062,272.565 398.5,275.5C 414.57,294.631 426.237,316.297 433.5,340.5C 438.426,341.741 443.426,342.574 448.5,343C 449.931,343.465 451.097,344.299 452,345.5C 452.817,351.016 452.651,356.35 451.5,361.5C 448.167,361.5 444.833,361.5 441.5,361.5C 441.5,360.167 441.5,358.833 441.5,357.5C 441.5,355.833 441.5,354.167 441.5,352.5C 424.459,351.043 408.126,353.709 392.5,360.5C 385.978,360.823 379.645,360.49 373.5,359.5C 388.463,349.955 404.796,343.955 422.5,341.5C 418.391,328.621 412.724,316.621 405.5,305.5C 403.281,300.291 400.281,295.624 396.5,291.5C 394.885,288.55 392.885,285.884 390.5,283.5C 386.454,278.452 381.787,274.119 376.5,270.5C 371.532,271.878 366.699,273.544 362,275.5C 361.608,279.528 361.108,283.528 360.5,287.5C 357.821,301.528 351.488,313.528 341.5,323.5C 340.513,326.768 340.18,330.102 340.5,333.5C 342.354,337.221 344.687,340.554 347.5,343.5C 350.5,347.167 353.833,350.5 357.5,353.5C 359.833,355.5 362.167,357.5 364.5,359.5C 358.441,359.746 352.441,359.413 346.5,358.5C 344.537,357.04 342.704,355.373 341,353.5C 340.505,355.473 340.338,357.473 340.5,359.5C 337.167,359.5 333.833,359.5 330.5,359.5C 330.827,349.985 330.494,340.652 329.5,331.5C 319.645,335.932 309.312,338.099 298.5,338C 296.393,336.736 295.393,334.903 295.5,332.5C 296.08,330.251 297.413,328.585 299.5,327.5C 326.955,327.46 343.622,314.127 349.5,287.5C 350.301,285.958 350.634,284.292 350.5,282.5C 351.461,280.735 351.795,278.735 351.5,276.5C 349.167,276.5 346.833,276.5 344.5,276.5C 341.438,275.946 338.438,275.446 335.5,275C 313.903,306.437 288.236,334.27 258.5,358.5C 254.176,358.073 249.842,357.739 245.5,357.5C 263.542,341.865 280.708,325.198 297,307.5C 307.772,294.785 317.938,281.618 327.5,268C 324.537,266.039 321.871,263.706 319.5,261C 318.833,260.333 318.167,260.333 317.5,261C 291.669,291.664 263.669,320.164 233.5,346.5C 228.5,350.5 223.5,354.5 218.5,358.5C 213.833,357.833 209.167,357.167 204.5,356.5C 209.142,352.864 213.809,349.197 218.5,345.5C 221.003,343.167 223.669,341.001 226.5,339C 216.833,338.667 207.167,338.333 197.5,338C 190.011,336.454 183.345,333.287 177.5,328.5C 174.051,334.584 173.051,340.917 174.5,347.5C 174.5,350.5 174.5,353.5 174.5,356.5C 170.958,356.187 167.625,356.521 164.5,357.5C 163.833,357.5 163.167,357.5 162.5,357.5C 158.702,356.517 154.702,356.183 150.5,356.5C 154.09,351.064 157.923,345.73 162,340.5C 165.445,332.73 166.945,324.564 166.5,316C 166.499,312.317 166.165,308.817 165.5,305.5C 165.5,303.833 165.5,302.167 165.5,300.5C 168.424,296.905 171.757,296.572 175.5,299.5C 175.5,300.5 175.5,301.5 175.5,302.5C 176.789,315.307 183.789,323.473 196.5,327C 211.167,327.667 225.833,327.667 240.5,327C 248.768,319.38 256.768,311.547 264.5,303.5C 266.167,302.5 267.5,301.167 268.5,299.5C 275.185,293.782 281.185,287.449 286.5,280.5C 288.587,279.415 289.92,277.749 290.5,275.5C 296.196,270.437 301.196,264.771 305.5,258.5C 307.167,257.5 308.5,256.167 309.5,254.5 Z"/></g>
<g><path style="opacity:1" fill="#f9d3cd" d="M 138.5,254.5 C 193.157,256.496 248.157,257.163 303.5,256.5C 304.167,257.167 304.833,257.833 305.5,258.5C 301.196,264.771 296.196,270.437 290.5,275.5C 235.002,274.501 179.336,274.168 123.5,274.5C 127.034,273.941 130.534,272.941 134,271.5C 134.935,265.586 136.435,259.92 138.5,254.5 Z"/></g>
<g><path style="opacity:1" fill="#3a3a4c" d="M 456.5,256.5 C 462.536,256.36 468.536,256.693 474.5,257.5C 454.991,271.114 433.324,278.114 409.5,278.5C 408.295,277.423 407.628,276.09 407.5,274.5C 407.393,272.097 408.393,270.264 410.5,269C 416.566,268.063 422.566,266.896 428.5,265.5C 438.069,263.311 447.402,260.311 456.5,256.5 Z"/></g>
<g><path style="opacity:1" fill="#df827d" d="M 390.5,283.5 C 389.609,284.11 388.609,284.443 387.5,284.5C 378.49,285.406 369.49,286.406 360.5,287.5C 361.108,283.528 361.608,279.528 362,275.5C 366.699,273.544 371.532,271.878 376.5,270.5C 381.787,274.119 386.454,278.452 390.5,283.5 Z"/></g>
<g><path style="opacity:1" fill="#b45c50" d="M 88.5,268.5 C 90.405,277.944 91.7383,287.611 92.5,297.5C 92.6327,304.34 90.6327,310.34 86.5,315.5C 67.5,315.5 48.5,315.5 29.5,315.5C 29.5,306.5 29.5,297.5 29.5,288.5C 29.5,288.167 29.5,287.833 29.5,287.5C 38.0954,282.898 46.4287,277.898 54.5,272.5C 65.6719,273.569 77.0052,273.569 88.5,272.5C 88.5,271.167 88.5,269.833 88.5,268.5 Z"/></g>
<g><path style="opacity:1" fill="#f9d3c7" d="M 123.5,274.5 C 179.336,274.168 235.002,274.501 290.5,275.5C 289.92,277.749 288.587,279.415 286.5,280.5C 228.664,280.832 170.998,280.499 113.5,279.5C 116.235,276.799 119.569,275.132 123.5,274.5 Z"/></g>
<g><path style="opacity:1" fill="#57576a" d="M 245.5,357.5 C 245.167,357.5 244.833,357.5 244.5,357.5C 241.812,352.812 238.145,349.145 233.5,346.5C 263.669,320.164 291.669,291.664 317.5,261C 318.167,260.333 318.833,260.333 319.5,261C 321.871,263.706 324.537,266.039 327.5,268C 317.938,281.618 307.772,294.785 297,307.5C 280.708,325.198 263.542,341.865 245.5,357.5 Z"/></g>
<g><path style="opacity:1" fill="#dd817c" d="M 344.5,276.5 C 346.265,277.461 348.265,277.795 350.5,277.5C 350.5,279.167 350.5,280.833 350.5,282.5C 350.634,284.292 350.301,285.958 349.5,287.5C 344.407,287.579 339.74,286.246 335.5,283.5C 323.97,298.565 311.97,313.232 299.5,327.5C 297.413,328.585 296.08,330.251 295.5,332.5C 287.833,339.5 280.5,346.833 273.5,354.5C 254.78,372.021 234.446,387.354 212.5,400.5C 210.05,401.777 207.717,403.277 205.5,405C 238.824,415.915 272.824,418.749 307.5,413.5C 293.128,420.611 277.794,423.944 261.5,423.5C 236.595,423.533 212.595,419.033 189.5,410C 213.997,394.761 236.997,377.594 258.5,358.5C 288.236,334.27 313.903,306.437 335.5,275C 338.438,275.446 341.438,275.946 344.5,276.5 Z"/></g>
<g><path style="opacity:1" fill="#835960" d="M 344.5,276.5 C 346.833,276.5 349.167,276.5 351.5,276.5C 351.795,278.735 351.461,280.735 350.5,282.5C 350.5,280.833 350.5,279.167 350.5,277.5C 348.265,277.795 346.265,277.461 344.5,276.5 Z"/></g>
<g><path style="opacity:1" fill="#f9cdc7" d="M 113.5,279.5 C 170.998,280.499 228.664,280.832 286.5,280.5C 281.185,287.449 275.185,293.782 268.5,299.5C 237.5,298.167 206.5,298.167 175.5,299.5C 171.757,296.572 168.424,296.905 165.5,300.5C 164.596,301.209 164.263,302.209 164.5,303.5C 145.833,303.5 127.167,303.5 108.5,303.5C 106.644,299.268 104.977,294.935 103.5,290.5C 105.433,285.566 108.767,281.9 113.5,279.5 Z"/></g>
<g><path style="opacity:1" fill="#f8c6b9" d="M 387.5,284.5 C 372.491,301.568 356.824,317.901 340.5,333.5C 340.18,330.102 340.513,326.768 341.5,323.5C 351.488,313.528 357.821,301.528 360.5,287.5C 369.49,286.406 378.49,285.406 387.5,284.5 Z"/></g>
<g><path style="opacity:1" fill="#f9c0ba" d="M 390.5,283.5 C 392.885,285.884 394.885,288.55 396.5,291.5C 393.606,292.882 391.106,294.882 389,297.5C 375.667,311.5 362.333,325.5 349,339.5C 348.209,340.745 347.709,342.078 347.5,343.5C 344.687,340.554 342.354,337.221 340.5,333.5C 356.824,317.901 372.491,301.568 387.5,284.5C 388.609,284.443 389.609,284.11 390.5,283.5 Z"/></g>
<g><path style="opacity:1" fill="#f9c0b4" d="M 396.5,291.5 C 400.281,295.624 403.281,300.291 405.5,305.5C 394.2,316.968 383.034,328.635 372,340.5C 367.574,345.434 362.74,349.767 357.5,353.5C 353.833,350.5 350.5,347.167 347.5,343.5C 347.709,342.078 348.209,340.745 349,339.5C 362.333,325.5 375.667,311.5 389,297.5C 391.106,294.882 393.606,292.882 396.5,291.5 Z"/></g>
<g><path style="opacity:1" fill="#f9cdc0" d="M 268.5,299.5 C 267.5,301.167 266.167,302.5 264.5,303.5C 234.76,303.825 205.093,303.492 175.5,302.5C 175.5,301.5 175.5,300.5 175.5,299.5C 206.5,298.167 237.5,298.167 268.5,299.5 Z"/></g>
<g><path style="opacity:1" fill="#f8c7bf" d="M 349.5,287.5 C 343.622,314.127 326.955,327.46 299.5,327.5C 311.97,313.232 323.97,298.565 335.5,283.5C 339.74,286.246 344.407,287.579 349.5,287.5 Z"/></g>
<g><path style="opacity:1" fill="#f8c7c0" d="M 165.5,300.5 C 165.5,302.167 165.5,303.833 165.5,305.5C 165.665,308.85 165.498,312.183 165,315.5C 164.392,317.066 163.558,318.4 162.5,319.5C 145.5,319.5 128.5,319.5 111.5,319.5C 111.813,323.042 111.479,326.375 110.5,329.5C 110.809,320.741 110.142,312.075 108.5,303.5C 127.167,303.5 145.833,303.5 164.5,303.5C 164.263,302.209 164.596,301.209 165.5,300.5 Z"/></g>
<g><path style="opacity:1" fill="#f8c6be" d="M 175.5,302.5 C 205.093,303.492 234.76,303.825 264.5,303.5C 256.768,311.547 248.768,319.38 240.5,327C 225.833,327.667 211.167,327.667 196.5,327C 183.789,323.473 176.789,315.307 175.5,302.5 Z"/></g>
<g><path style="opacity:1" fill="#e1847e" d="M 211.5,309.5 C 215.514,309.334 219.514,309.501 223.5,310C 226.167,312.333 226.167,314.667 223.5,317C 219.5,317.667 215.5,317.667 211.5,317C 208.914,314.506 208.914,312.006 211.5,309.5 Z"/></g>
<g><path style="opacity:1" fill="#f8b9af" d="M 405.5,305.5 C 412.724,316.621 418.391,328.621 422.5,341.5C 404.796,343.955 388.463,349.955 373.5,359.5C 372.469,360.355 371.303,361.022 370,361.5C 368.2,360.68 366.366,360.014 364.5,359.5C 362.167,357.5 359.833,355.5 357.5,353.5C 362.74,349.767 367.574,345.434 372,340.5C 383.034,328.635 394.2,316.968 405.5,305.5 Z"/></g>
<g><path style="opacity:1" fill="#dd827d" d="M 165.5,305.5 C 166.165,308.817 166.499,312.317 166.5,316C 166.945,324.564 165.445,332.73 162,340.5C 157.923,345.73 154.09,351.064 150.5,356.5C 139.85,368.162 127.516,377.496 113.5,384.5C 114.833,382.833 116.167,381.167 117.5,379.5C 126.265,372.073 133.932,363.739 140.5,354.5C 144.46,350.603 147.96,346.269 151,341.5C 153.091,338.26 154.924,334.926 156.5,331.5C 159.008,327.818 161.008,323.818 162.5,319.5C 163.558,318.4 164.392,317.066 165,315.5C 165.498,312.183 165.665,308.85 165.5,305.5 Z"/></g>
<g><path style="opacity:1" fill="#ae564f" d="M 29.5,288.5 C 29.5,297.5 29.5,306.5 29.5,315.5C 48.5,315.5 67.5,315.5 86.5,315.5C 82.4103,321.095 77.7437,326.261 72.5,331C 60.0551,341.645 46.2218,350.145 31,356.5C 28.5048,333.718 28.0048,311.052 29.5,288.5 Z"/></g>
<g><path style="opacity:1" fill="#de837d" d="M 99.5,336.5 C 98.3994,335.152 97.3994,333.652 96.5,332C 95.5,331.333 94.5,331.333 93.5,332C 87.3316,339.666 80.9982,347.166 74.5,354.5C 66.9779,361.083 59.3112,367.416 51.5,373.5C 51.1583,374.338 50.4916,374.672 49.5,374.5C 48.1738,370.51 46.8405,366.51 45.5,362.5C 45.3691,361.624 45.7025,360.957 46.5,360.5C 59.8773,353.481 72.2106,344.981 83.5,335C 89.796,328.876 95.1293,322.043 99.5,314.5C 100.584,321.828 100.584,329.161 99.5,336.5 Z"/></g>
<g><path style="opacity:1" fill="#f9c7ba" d="M 162.5,319.5 C 161.008,323.818 159.008,327.818 156.5,331.5C 141.167,331.5 125.833,331.5 110.5,331.5C 110.5,330.833 110.5,330.167 110.5,329.5C 111.479,326.375 111.813,323.042 111.5,319.5C 128.5,319.5 145.5,319.5 162.5,319.5 Z"/></g>
<g><path style="opacity:1" fill="#de827d" d="M 218.5,345.5 C 217.378,344.844 216.045,344.511 214.5,344.5C 205.815,345.368 197.148,346.368 188.5,347.5C 183.931,347.533 179.598,346.533 175.5,344.5C 174.614,345.325 174.281,346.325 174.5,347.5C 173.051,340.917 174.051,334.584 177.5,328.5C 183.345,333.287 190.011,336.454 197.5,338C 207.167,338.333 216.833,338.667 226.5,339C 223.669,341.001 221.003,343.167 218.5,345.5 Z"/></g>
<g><path style="opacity:1" fill="#f9c0b5" d="M 99.5,336.5 C 98.2974,339.173 98.2974,341.84 99.5,344.5C 102.716,347.32 105.549,346.987 108,343.5C 109.359,339.595 110.192,335.595 110.5,331.5C 125.833,331.5 141.167,331.5 156.5,331.5C 154.924,334.926 153.091,338.26 151,341.5C 147.96,346.269 144.46,350.603 140.5,354.5C 118.5,354.5 96.5,354.5 74.5,354.5C 80.9982,347.166 87.3316,339.666 93.5,332C 94.5,331.333 95.5,331.333 96.5,332C 97.3994,333.652 98.3994,335.152 99.5,336.5 Z"/></g>
<g><path style="opacity:1" fill="#f8c0b4" d="M 329.5,331.5 C 329.5,339.167 329.5,346.833 329.5,354.5C 317.833,354.5 306.167,354.5 294.5,354.5C 294.326,351.237 292.659,349.57 289.5,349.5C 289.5,350.833 289.5,352.167 289.5,353.5C 284.36,354.488 279.026,354.821 273.5,354.5C 280.5,346.833 287.833,339.5 295.5,332.5C 295.393,334.903 296.393,336.736 298.5,338C 309.312,338.099 319.645,335.932 329.5,331.5 Z"/></g>
<g><path style="opacity:1" fill="#646476" d="M 233.5,346.5 C 238.145,349.145 241.812,352.812 244.5,357.5C 223.589,374.905 201.423,390.572 178,404.5C 175.54,403.402 173.04,402.402 170.5,401.5C 169.343,398.216 169.176,394.882 170,391.5C 186.869,381.452 203.036,370.452 218.5,358.5C 223.5,354.5 228.5,350.5 233.5,346.5 Z"/></g>
<g><path style="opacity:1" fill="#e2847e" d="M 294.5,354.5 C 296.041,361.047 296.874,367.714 297,374.5C 299.497,376.478 302.331,376.978 305.5,376C 308.432,374.855 311.432,374.022 314.5,373.5C 314.5,374.833 314.5,376.167 314.5,377.5C 310.187,381.909 305.02,384.909 299,386.5C 298.653,391.294 297.82,395.96 296.5,400.5C 295.649,402.71 294.316,404.71 292.5,406.5C 290.783,405.332 290.116,403.665 290.5,401.5C 290.666,397.486 290.499,393.486 290,389.5C 289.626,388.584 289.126,387.75 288.5,387C 282.419,386.862 276.419,386.196 270.5,385C 266.882,383.713 264.215,381.379 262.5,378C 262.833,377.5 263.167,377 263.5,376.5C 271.158,379.06 278.824,378.894 286.5,376C 290.049,368.699 291.049,361.199 289.5,353.5C 289.5,352.167 289.5,350.833 289.5,349.5C 292.659,349.57 294.326,351.237 294.5,354.5 Z"/></g>
<g><path style="opacity:1" fill="#b45c50" d="M 441.5,357.5 C 440.443,369.73 438.11,381.73 434.5,393.5C 416.059,390.199 397.392,387.532 378.5,385.5C 377.557,380.897 376.224,376.397 374.5,372C 380.056,367.393 386.056,363.56 392.5,360.5C 408.126,353.709 424.459,351.043 441.5,352.5C 441.5,354.167 441.5,355.833 441.5,357.5 Z"/></g>
<g><path style="opacity:1" fill="#393845" d="M 150.5,356.5 C 154.702,356.183 158.702,356.517 162.5,357.5C 143.746,382.397 119.079,398.563 88.5,406C 77.6221,408.393 67.9554,406.06 59.5,399C 54.8806,393.708 51.0472,387.875 48,381.5C 47.3333,379.5 47.3333,377.5 48,375.5C 48.3826,374.944 48.8826,374.611 49.5,374.5C 50.4916,374.672 51.1583,374.338 51.5,373.5C 52.8734,373.343 54.2068,373.51 55.5,374C 56.7332,375.667 58.0665,377.167 59.5,378.5C 64.1388,391.986 73.4721,397.486 87.5,395C 96.707,392.549 105.374,389.049 113.5,384.5C 127.516,377.496 139.85,368.162 150.5,356.5 Z"/></g>
<g><path style="opacity:1" fill="#3a3945" d="M 174.5,356.5 C 175.127,362.448 175.794,368.448 176.5,374.5C 186.201,368.988 195.535,362.988 204.5,356.5C 209.167,357.167 213.833,357.833 218.5,358.5C 203.036,370.452 186.869,381.452 170,391.5C 169.176,394.882 169.343,398.216 170.5,401.5C 173.04,402.402 175.54,403.402 178,404.5C 201.423,390.572 223.589,374.905 244.5,357.5C 244.833,357.5 245.167,357.5 245.5,357.5C 249.842,357.739 254.176,358.073 258.5,358.5C 236.997,377.594 213.997,394.761 189.5,410C 212.595,419.033 236.595,423.533 261.5,423.5C 277.794,423.944 293.128,420.611 307.5,413.5C 313.729,410.928 318.729,406.928 322.5,401.5C 325.061,399.36 327.395,397.027 329.5,394.5C 330.495,383.012 330.828,371.345 330.5,359.5C 333.833,359.5 337.167,359.5 340.5,359.5C 340.5,369.833 340.5,380.167 340.5,390.5C 350.906,391.401 357.073,397.068 359,407.5C 359.498,410.482 359.665,413.482 359.5,416.5C 361.167,416.5 362.833,416.5 364.5,416.5C 368.865,401.34 368.365,386.34 363,371.5C 357.313,367.303 351.813,362.97 346.5,358.5C 352.441,359.413 358.441,359.746 364.5,359.5C 366.366,360.014 368.2,360.68 370,361.5C 371.303,361.022 372.469,360.355 373.5,359.5C 379.645,360.49 385.978,360.823 392.5,360.5C 386.056,363.56 380.056,367.393 374.5,372C 376.224,376.397 377.557,380.897 378.5,385.5C 378.698,393.534 378.365,401.534 377.5,409.5C 375.976,413.003 375.642,416.67 376.5,420.5C 384.267,424.598 389.933,430.598 393.5,438.5C 389.684,437.38 386.017,437.38 382.5,438.5C 381.272,437.694 380.272,436.694 379.5,435.5C 369.954,426.773 359.287,425.273 347.5,431C 344.308,433.028 341.641,435.528 339.5,438.5C 336.772,437.795 333.939,437.128 331,436.5C 330.617,437.056 330.117,437.389 329.5,437.5C 330.242,435.02 331.242,432.687 332.5,430.5C 336.639,425.699 341.639,422.033 347.5,419.5C 349.421,413.232 348.421,407.565 344.5,402.5C 341.897,401.438 339.23,401.272 336.5,402C 320.508,422.162 299.508,432.495 273.5,433C 248.392,434.293 223.725,431.627 199.5,425C 188.335,421.416 177.668,416.749 167.5,411C 157.546,411.219 154.713,416.052 159,425.5C 162.228,428.13 165.395,427.964 168.5,425C 169.833,424.333 171.167,424.333 172.5,425C 175.122,427.736 177.122,430.903 178.5,434.5C 170.316,434.174 162.316,434.508 154.5,435.5C 153.5,434.833 152.5,434.167 151.5,433.5C 147.833,433.5 144.167,433.5 140.5,433.5C 141.769,428.957 143.603,424.624 146,420.5C 145.629,413.937 147.796,408.437 152.5,404C 154.217,402.441 156.217,401.608 158.5,401.5C 157.128,393.699 159.128,387.032 164.5,381.5C 164.833,379.833 165.167,378.167 165.5,376.5C 164.74,370.188 164.406,363.855 164.5,357.5C 167.625,356.521 170.958,356.187 174.5,356.5 Z"/></g>
<g><path style="opacity:1" fill="#f9baaf" d="M 74.5,354.5 C 96.5,354.5 118.5,354.5 140.5,354.5C 133.932,363.739 126.265,372.073 117.5,379.5C 98.3405,378.503 79.0072,378.17 59.5,378.5C 58.0665,377.167 56.7332,375.667 55.5,374C 54.2068,373.51 52.8734,373.343 51.5,373.5C 59.3112,367.416 66.9779,361.083 74.5,354.5 Z"/></g>
<g><path style="opacity:1" fill="#f6bab0" d="M 218.5,345.5 C 213.809,349.197 209.142,352.864 204.5,356.5C 195.535,362.988 186.201,368.988 176.5,374.5C 175.794,368.448 175.127,362.448 174.5,356.5C 174.5,353.5 174.5,350.5 174.5,347.5C 174.281,346.325 174.614,345.325 175.5,344.5C 179.598,346.533 183.931,347.533 188.5,347.5C 197.148,346.368 205.815,345.368 214.5,344.5C 216.045,344.511 217.378,344.844 218.5,345.5 Z"/></g>
<g><path style="opacity:1" fill="#f2b5ac" d="M 329.5,331.5 C 330.494,340.652 330.827,349.985 330.5,359.5C 330.828,371.345 330.495,383.012 329.5,394.5C 329.5,389.167 329.5,383.833 329.5,378.5C 324.305,378.821 319.305,378.487 314.5,377.5C 314.5,376.167 314.5,374.833 314.5,373.5C 311.432,374.022 308.432,374.855 305.5,376C 302.331,376.978 299.497,376.478 297,374.5C 296.874,367.714 296.041,361.047 294.5,354.5C 306.167,354.5 317.833,354.5 329.5,354.5C 329.5,346.833 329.5,339.167 329.5,331.5 Z"/></g>
<g><path style="opacity:1" fill="#393844" d="M 441.5,357.5 C 441.5,358.833 441.5,360.167 441.5,361.5C 444.833,361.5 448.167,361.5 451.5,361.5C 449.646,389.049 441.979,414.716 428.5,438.5C 424.5,438.5 420.5,438.5 416.5,438.5C 424.088,425.654 429.755,411.987 433.5,397.5C 434.234,396.292 434.567,394.959 434.5,393.5C 438.11,381.73 440.443,369.73 441.5,357.5 Z"/></g>
<g><path style="opacity:1" fill="#f7b3a8" d="M 59.5,378.5 C 79.0072,378.17 98.3405,378.503 117.5,379.5C 116.167,381.167 114.833,382.833 113.5,384.5C 105.374,389.049 96.707,392.549 87.5,395C 73.4721,397.486 64.1388,391.986 59.5,378.5 Z"/></g>
<g><path style="opacity:1" fill="#f9b5a9" d="M 289.5,353.5 C 291.049,361.199 290.049,368.699 286.5,376C 278.824,378.894 271.158,379.06 263.5,376.5C 263.167,377 262.833,377.5 262.5,378C 264.215,381.379 266.882,383.713 270.5,385C 276.419,386.196 282.419,386.862 288.5,387C 289.126,387.75 289.626,388.584 290,389.5C 290.499,393.486 290.666,397.486 290.5,401.5C 264.328,401.831 238.328,401.498 212.5,400.5C 234.446,387.354 254.78,372.021 273.5,354.5C 279.026,354.821 284.36,354.488 289.5,353.5 Z"/></g>
<g><path style="opacity:1" fill="#f9b4a8" d="M 314.5,377.5 C 319.305,378.487 324.305,378.821 329.5,378.5C 329.5,383.833 329.5,389.167 329.5,394.5C 327.395,397.027 325.061,399.36 322.5,401.5C 313.651,401.826 304.984,401.493 296.5,400.5C 297.82,395.96 298.653,391.294 299,386.5C 305.02,384.909 310.187,381.909 314.5,377.5 Z"/></g>
<g><path style="opacity:1" fill="#ba5d56" d="M 378.5,385.5 C 397.392,387.532 416.059,390.199 434.5,393.5C 434.567,394.959 434.234,396.292 433.5,397.5C 418.21,405.707 401.877,410.04 384.5,410.5C 381.975,410.497 379.641,410.163 377.5,409.5C 378.365,401.534 378.698,393.534 378.5,385.5 Z"/></g>
<g><path style="opacity:1" fill="#823e38" d="M 433.5,397.5 C 429.755,411.987 424.088,425.654 416.5,438.5C 411.962,445.509 406.462,451.842 400,457.5C 399.097,450.621 396.93,444.288 393.5,438.5C 389.933,430.598 384.267,424.598 376.5,420.5C 375.642,416.67 375.976,413.003 377.5,409.5C 379.641,410.163 381.975,410.497 384.5,410.5C 401.877,410.04 418.21,405.707 433.5,397.5 Z"/></g>
<g><path style="opacity:1" fill="#f9aea6" d="M 212.5,400.5 C 238.328,401.498 264.328,401.831 290.5,401.5C 290.116,403.665 290.783,405.332 292.5,406.5C 294.316,404.71 295.649,402.71 296.5,400.5C 304.984,401.493 313.651,401.826 322.5,401.5C 318.729,406.928 313.729,410.928 307.5,413.5C 272.824,418.749 238.824,415.915 205.5,405C 207.717,403.277 210.05,401.777 212.5,400.5 Z"/></g>
<g><path style="opacity:1" fill="#f7eae4" d="M 332.5,430.5 C 325.932,433.898 321.432,439.231 319,446.5C 318.661,449.88 318.161,453.213 317.5,456.5C 309.699,456.307 302.032,455.474 294.5,454C 292.019,457.039 290.352,460.539 289.5,464.5C 287.589,466.886 285.089,467.886 282,467.5C 273.298,466.578 264.798,464.744 256.5,462C 248.674,458.59 241.34,454.423 234.5,449.5C 232.617,449.876 231.117,450.876 230,452.5C 229.74,456.25 229.073,459.916 228,463.5C 227.225,465.223 225.892,466.223 224,466.5C 204.662,461.596 189.495,450.929 178.5,434.5C 177.122,430.903 175.122,427.736 172.5,425C 171.167,424.333 169.833,424.333 168.5,425C 165.395,427.964 162.228,428.13 159,425.5C 154.713,416.052 157.546,411.219 167.5,411C 177.668,416.749 188.335,421.416 199.5,425C 223.725,431.627 248.392,434.293 273.5,433C 299.508,432.495 320.508,422.162 336.5,402C 339.23,401.272 341.897,401.438 344.5,402.5C 348.421,407.565 349.421,413.232 347.5,419.5C 341.639,422.033 336.639,425.699 332.5,430.5 Z"/></g>
<g><path style="opacity:1" fill="#f7d3cd" d="M 379.5,435.5 C 365.912,441.255 351.912,446.255 337.5,450.5C 337.19,446.3 337.857,442.3 339.5,438.5C 341.641,435.528 344.308,433.028 347.5,431C 359.287,425.273 369.954,426.773 379.5,435.5 Z"/></g>
<g><path style="opacity:1" fill="#deb9b9" d="M 332.5,430.5 C 331.242,432.687 330.242,435.02 329.5,437.5C 326.857,443.085 325.857,449.085 326.5,455.5C 323.545,456.159 320.545,456.492 317.5,456.5C 318.161,453.213 318.661,449.88 319,446.5C 321.432,439.231 325.932,433.898 332.5,430.5 Z"/></g>
<g><path style="opacity:1" fill="#333243" d="M 140.5,433.5 C 144.167,433.5 147.833,433.5 151.5,433.5C 144.174,450.811 139.508,468.811 137.5,487.5C 133.833,487.5 130.167,487.5 126.5,487.5C 128.374,468.666 133.041,450.666 140.5,433.5 Z"/></g>
<g><path style="opacity:1" fill="#c1523f" d="M 151.5,433.5 C 152.5,434.167 153.5,434.833 154.5,435.5C 155.6,436.558 156.934,437.392 158.5,438C 161.907,438.482 165.24,438.482 168.5,438C 176.865,452.494 188.532,463.328 203.5,470.5C 193.665,478.066 182.998,483.733 171.5,487.5C 160.167,487.5 148.833,487.5 137.5,487.5C 139.508,468.811 144.174,450.811 151.5,433.5 Z"/></g>
<g><path style="opacity:1" fill="#353345" d="M 178.5,434.5 C 189.495,450.929 204.662,461.596 224,466.5C 225.892,466.223 227.225,465.223 228,463.5C 229.073,459.916 229.74,456.25 230,452.5C 231.117,450.876 232.617,449.876 234.5,449.5C 241.34,454.423 248.674,458.59 256.5,462C 264.798,464.744 273.298,466.578 282,467.5C 285.089,467.886 287.589,466.886 289.5,464.5C 290.352,460.539 292.019,457.039 294.5,454C 302.032,455.474 309.699,456.307 317.5,456.5C 320.545,456.492 323.545,456.159 326.5,455.5C 325.857,449.085 326.857,443.085 329.5,437.5C 330.117,437.389 330.617,437.056 331,436.5C 333.939,437.128 336.772,437.795 339.5,438.5C 337.857,442.3 337.19,446.3 337.5,450.5C 337.615,455.842 338.948,460.842 341.5,465.5C 343.395,470.063 346.395,473.73 350.5,476.5C 352.649,478.746 355.316,480.246 358.5,481C 364.833,481.667 371.167,481.667 377.5,481C 385.534,478.462 389.534,472.962 389.5,464.5C 389.665,461.15 389.498,457.817 389,454.5C 388.76,452.148 387.927,450.148 386.5,448.5C 385.724,444.948 384.391,441.614 382.5,438.5C 386.017,437.38 389.684,437.38 393.5,438.5C 396.93,444.288 399.097,450.621 400,457.5C 406.462,451.842 411.962,445.509 416.5,438.5C 420.5,438.5 424.5,438.5 428.5,438.5C 421.614,451.886 412.114,463.219 400,472.5C 394.932,487.207 384.598,493.874 369,492.5C 360.952,493.112 353.452,491.445 346.5,487.5C 338.72,481.938 333.387,474.604 330.5,465.5C 326.481,465.646 322.481,465.979 318.5,466.5C 312.95,466.763 307.45,466.43 302,465.5C 299.234,469.6 295.734,473.1 291.5,476C 284.54,477.83 277.54,477.997 270.5,476.5C 259.633,474.712 249.466,471.045 240,465.5C 237.398,469.271 234.231,472.605 230.5,475.5C 226.888,476.511 223.221,476.678 219.5,476C 214.106,474.258 208.773,472.424 203.5,470.5C 188.532,463.328 176.865,452.494 168.5,438C 165.24,438.482 161.907,438.482 158.5,438C 156.934,437.392 155.6,436.558 154.5,435.5C 162.316,434.508 170.316,434.174 178.5,434.5 Z"/></g>
<g><path style="opacity:1" fill="#f9c9c0" d="M 379.5,435.5 C 380.272,436.694 381.272,437.694 382.5,438.5C 384.391,441.614 385.724,444.948 386.5,448.5C 386.423,449.75 385.756,450.583 384.5,451C 370.101,455.744 355.768,460.577 341.5,465.5C 338.948,460.842 337.615,455.842 337.5,450.5C 351.912,446.255 365.912,441.255 379.5,435.5 Z"/></g>
<g><path style="opacity:1" fill="#f9bcb1" d="M 386.5,448.5 C 387.927,450.148 388.76,452.148 389,454.5C 389.498,457.817 389.665,461.15 389.5,464.5C 376.5,468.5 363.5,472.5 350.5,476.5C 346.395,473.73 343.395,470.063 341.5,465.5C 355.768,460.577 370.101,455.744 384.5,451C 385.756,450.583 386.423,449.75 386.5,448.5 Z"/></g>
<g><path style="opacity:1" fill="#bf513f" d="M 346.5,487.5 C 338.833,487.5 331.167,487.5 323.5,487.5C 320.809,480.756 319.142,473.756 318.5,466.5C 322.481,465.979 326.481,465.646 330.5,465.5C 333.387,474.604 338.72,481.938 346.5,487.5 Z"/></g>
<g><path style="opacity:1" fill="#f7b1a7" d="M 389.5,464.5 C 389.534,472.962 385.534,478.462 377.5,481C 371.167,481.667 364.833,481.667 358.5,481C 355.316,480.246 352.649,478.746 350.5,476.5C 363.5,472.5 376.5,468.5 389.5,464.5 Z"/></g>
<g><path style="opacity:1" fill="#c7634f" d="M 270.5,476.5 C 264.663,479.918 258.996,483.584 253.5,487.5C 241.833,487.5 230.167,487.5 218.5,487.5C 217.391,486.71 216.058,486.21 214.5,486C 220.07,482.725 225.403,479.225 230.5,475.5C 234.231,472.605 237.398,469.271 240,465.5C 249.466,471.045 259.633,474.712 270.5,476.5 Z"/></g>
<g><path style="opacity:1" fill="#cb6c59" d="M 318.5,466.5 C 319.142,473.756 320.809,480.756 323.5,487.5C 300.167,487.5 276.833,487.5 253.5,487.5C 258.996,483.584 264.663,479.918 270.5,476.5C 277.54,477.997 284.54,477.83 291.5,476C 295.734,473.1 299.234,469.6 302,465.5C 307.45,466.43 312.95,466.763 318.5,466.5 Z"/></g>
<g><path style="opacity:1" fill="#c75c4a" d="M 203.5,470.5 C 208.773,472.424 214.106,474.258 219.5,476C 223.221,476.678 226.888,476.511 230.5,475.5C 225.403,479.225 220.07,482.725 214.5,486C 216.058,486.21 217.391,486.71 218.5,487.5C 202.833,487.5 187.167,487.5 171.5,487.5C 182.998,483.733 193.665,478.066 203.5,470.5 Z"/></g>
</svg>
