<?xml version="1.0" encoding="UTF-8"?>
<!DOCTYPE svg PUBLIC "-//W3C//DTD SVG 1.1//EN" "http://www.w3.org/Graphics/SVG/1.1/DTD/svg11.dtd">
<svg xmlns="http://www.w3.org/2000/svg" version="1.1" width="512px" height="512px" style="shape-rendering:geometricPrecision; text-rendering:geometricPrecision; image-rendering:optimizeQuality; fill-rule:evenodd; clip-rule:evenodd" xmlns:xlink="http://www.w3.org/1999/xlink">
<g><path style="opacity:1" fill="#e6bc6f" d="M 347.5,44.5 C 332.871,46.4837 317.871,47.1503 302.5,46.5C 296.944,41.8737 290.611,39.207 283.5,38.5C 291.482,24.6811 303.482,19.1811 319.5,22C 333.19,24.1994 342.523,31.6994 347.5,44.5 Z"/></g>
<g><path style="opacity:1" fill="#e7bb6c" d="M 270.5,42.5 C 271.167,43.5 271.833,44.5 272.5,45.5C 244.672,46.498 216.672,46.8313 188.5,46.5C 198.082,33.544 211.082,27.2107 227.5,27.5C 243.387,28.2876 257.72,33.2876 270.5,42.5 Z"/></g>
<g><path style="opacity:1" fill="#819d6d" d="M 283.5,38.5 C 290.611,39.207 296.944,41.8737 302.5,46.5C 305.945,51.0552 308.612,56.0552 310.5,61.5C 304.824,61.6661 299.157,61.4994 293.5,61C 290.236,60.3623 287.236,59.1957 284.5,57.5C 280.86,53.1938 276.86,49.1938 272.5,45.5C 271.833,44.5 271.167,43.5 270.5,42.5C 274.583,40.4149 278.917,39.0815 283.5,38.5 Z"/></g>
<g><path style="opacity:1" fill="#e7b464" d="M 272.5,45.5 C 276.86,49.1938 280.86,53.1938 284.5,57.5C 285.11,58.391 285.443,59.391 285.5,60.5C 246.5,61.8333 207.5,61.8333 168.5,60.5C 173.228,53.1114 179.895,48.4448 188.5,46.5C 216.672,46.8313 244.672,46.498 272.5,45.5 Z"/></g>
<g><path style="opacity:1" fill="#4e6538" d="M 284.5,57.5 C 287.236,59.1957 290.236,60.3623 293.5,61C 299.157,61.4994 304.824,61.6661 310.5,61.5C 311.919,67.2362 311.586,72.9029 309.5,78.5C 306.572,83.2634 302.739,87.2634 298,90.5C 296.981,86.0884 295.814,81.7551 294.5,77.5C 292.784,71.0647 289.784,65.398 285.5,60.5C 285.443,59.391 285.11,58.391 284.5,57.5 Z"/></g>
<g><path style="opacity:1" fill="#e6ae58" d="M 168.5,60.5 C 207.5,61.8333 246.5,61.8333 285.5,60.5C 289.784,65.398 292.784,71.0647 294.5,77.5C 250.069,78.8298 205.736,78.8298 161.5,77.5C 162.097,71.0249 164.43,65.3582 168.5,60.5 Z"/></g>
<g><path style="opacity:1" fill="#e6b05c" d="M 347.5,44.5 C 349.749,48.4557 351.249,52.7891 352,57.5C 352.997,64.4673 353.497,71.4673 353.5,78.5C 338.833,78.5 324.167,78.5 309.5,78.5C 311.586,72.9029 311.919,67.2362 310.5,61.5C 308.612,56.0552 305.945,51.0552 302.5,46.5C 317.871,47.1503 332.871,46.4837 347.5,44.5 Z"/></g>
<g><path style="opacity:1" fill="#e7c7b3" d="M 195.5,95.5 C 197.907,101.981 201.574,107.648 206.5,112.5C 217.91,123.367 231.576,129.701 247.5,131.5C 249.267,120.566 255.6,116.066 266.5,118C 275.206,124.079 277.873,132.246 274.5,142.5C 256.326,142.83 238.326,142.497 220.5,141.5C 222.113,138.453 221.446,135.953 218.5,134C 215.509,134.305 212.509,134.972 209.5,136C 208.944,136.383 208.611,136.883 208.5,137.5C 207.566,138.568 207.232,139.901 207.5,141.5C 204.5,141.5 201.5,141.5 198.5,141.5C 198.768,139.901 198.434,138.568 197.5,137.5C 195.237,135.206 192.404,133.872 189,133.5C 185.667,134.664 184.167,136.998 184.5,140.5C 181.939,141.767 179.272,141.767 176.5,140.5C 175.8,136.202 175.467,131.869 175.5,127.5C 175.768,116.505 178.101,105.838 182.5,95.5C 185.078,92.0522 187.911,88.7188 191,85.5C 192.232,89.0609 193.732,92.3943 195.5,95.5 Z"/></g>
<g><path style="opacity:1" fill="#e6a74d" d="M 161.5,77.5 C 205.736,78.8298 250.069,78.8298 294.5,77.5C 295.814,81.7551 296.981,86.0884 298,90.5C 302.739,87.2634 306.572,83.2634 309.5,78.5C 324.167,78.5 338.833,78.5 353.5,78.5C 353.5,83.1667 353.5,87.8333 353.5,92.5C 352.596,93.209 352.263,94.209 352.5,95.5C 300.167,95.5 247.833,95.5 195.5,95.5C 193.732,92.3943 192.232,89.0609 191,85.5C 187.911,88.7188 185.078,92.0522 182.5,95.5C 175.167,95.5 167.833,95.5 160.5,95.5C 159.37,89.4525 159.703,83.4525 161.5,77.5 Z"/></g>
<g><path style="opacity:1" fill="#647790" d="M 129.5,115.5 C 128.532,117.607 128.198,119.941 128.5,122.5C 121.833,122.5 115.167,122.5 108.5,122.5C 108.498,118.489 107.332,114.822 105,111.5C 101.951,107.957 99.1181,104.291 96.5,100.5C 99.4284,100.148 102.262,99.4817 105,98.5C 106.018,90.5608 107.852,82.8941 110.5,75.5C 116.904,82.4012 122.737,89.7345 128,97.5C 129.361,103.407 129.861,109.407 129.5,115.5 Z"/></g>
<g><path style="opacity:1" fill="#38384b" d="M 96.5,100.5 C 99.1181,104.291 101.951,107.957 105,111.5C 107.332,114.822 108.498,118.489 108.5,122.5C 115.167,122.5 121.833,122.5 128.5,122.5C 128.198,119.941 128.532,117.607 129.5,115.5C 129.369,116.239 129.536,116.906 130,117.5C 136.437,123.624 142.937,129.624 149.5,135.5C 147.833,139.167 145.167,141.833 141.5,143.5C 136.854,138.188 131.854,133.188 126.5,128.5C 124.61,131.952 124.11,135.618 125,139.5C 128.667,142.336 132.167,145.336 135.5,148.5C 133.833,152.167 131.167,154.833 127.5,156.5C 124.371,152.869 121.037,149.369 117.5,146C 114.833,145.333 112.167,145.333 109.5,146C 114.37,150.702 119.037,155.535 123.5,160.5C 122.08,164.217 119.413,166.55 115.5,167.5C 108.167,159.833 100.833,152.167 93.5,144.5C 95.2646,143.539 97.2646,143.205 99.5,143.5C 99.9059,134.826 100.073,126.159 100,117.5C 96.6445,111.996 93.1445,106.663 89.5,101.5C 91.9029,101.552 94.2362,101.219 96.5,100.5 Z"/></g>
<g><path style="opacity:1" fill="#e7a144" d="M 160.5,95.5 C 167.833,95.5 175.167,95.5 182.5,95.5C 178.101,105.838 175.768,116.505 175.5,127.5C 165.66,119.151 160.66,108.484 160.5,95.5 Z"/></g>
<g><path style="opacity:1" fill="#e7a245" d="M 353.5,92.5 C 353.5,98.1667 353.5,103.833 353.5,109.5C 352.596,110.209 352.263,111.209 352.5,112.5C 303.833,112.5 255.167,112.5 206.5,112.5C 201.574,107.648 197.907,101.981 195.5,95.5C 247.833,95.5 300.167,95.5 352.5,95.5C 352.263,94.209 352.596,93.209 353.5,92.5 Z"/></g>
<g><path style="opacity:1" fill="#6a7d96" d="M 89.5,101.5 C 93.1445,106.663 96.6445,111.996 100,117.5C 100.073,126.159 99.9059,134.826 99.5,143.5C 97.2646,143.205 95.2646,143.539 93.5,144.5C 85.7618,144.856 78.0952,144.356 70.5,143C 61.7059,136.704 53.3726,129.87 45.5,122.5C 54.3445,120.025 63.3445,118.192 72.5,117C 74.4029,107.735 76.5695,98.5687 79,89.5C 82.3651,93.6932 85.8651,97.6932 89.5,101.5 Z"/></g>
<g><path style="opacity:1" fill="#e79b3c" d="M 353.5,109.5 C 353.5,116.167 353.5,122.833 353.5,129.5C 334.833,129.5 316.167,129.5 297.5,129.5C 296.379,127.046 295.546,124.379 295,121.5C 291.502,133.152 284.336,141.486 273.5,146.5C 273.833,145.167 274.167,143.833 274.5,142.5C 277.873,132.246 275.206,124.079 266.5,118C 255.6,116.066 249.267,120.566 247.5,131.5C 231.576,129.701 217.91,123.367 206.5,112.5C 255.167,112.5 303.833,112.5 352.5,112.5C 352.263,111.209 352.596,110.209 353.5,109.5 Z"/></g>
<g><path style="opacity:1" fill="#e79637" d="M 297.5,129.5 C 316.167,129.5 334.833,129.5 353.5,129.5C 352.998,141.532 357.998,150.365 368.5,156C 362.698,165.739 354.031,170.573 342.5,170.5C 326.324,168.823 313.824,161.156 305,147.5C 301.653,141.812 299.153,135.812 297.5,129.5 Z"/></g>
<g><path style="opacity:1" fill="#b8635b" d="M 172.5,147.5 C 157.833,162.5 143.167,177.5 128.5,192.5C 122.869,187.37 117.369,182.036 112,176.5C 111.481,172.868 112.647,169.868 115.5,167.5C 119.413,166.55 122.08,164.217 123.5,160.5C 125.167,159.5 126.5,158.167 127.5,156.5C 131.167,154.833 133.833,152.167 135.5,148.5C 138.109,147.557 140.109,145.89 141.5,143.5C 145.167,141.833 147.833,139.167 149.5,135.5C 152.177,133.568 155.177,133.068 158.5,134C 163.062,138.731 167.729,143.231 172.5,147.5 Z"/></g>
<g><path style="opacity:1" fill="#d4736d" d="M 197.5,137.5 C 197.739,139.467 197.406,141.301 196.5,143C 192.019,144.112 188.019,143.279 184.5,140.5C 184.167,136.998 185.667,134.664 189,133.5C 192.404,133.872 195.237,135.206 197.5,137.5 Z"/></g>
<g><path style="opacity:1" fill="#d4726c" d="M 220.5,141.5 C 217.028,143.258 213.362,143.758 209.5,143C 208.594,141.301 208.261,139.467 208.5,137.5C 208.611,136.883 208.944,136.383 209.5,136C 212.509,134.972 215.509,134.305 218.5,134C 221.446,135.953 222.113,138.453 220.5,141.5 Z"/></g>
<g><path style="opacity:1" fill="#e6beae" d="M 197.5,137.5 C 198.434,138.568 198.768,139.901 198.5,141.5C 201.5,141.5 204.5,141.5 207.5,141.5C 207.232,139.901 207.566,138.568 208.5,137.5C 208.261,139.467 208.594,141.301 209.5,143C 213.362,143.758 217.028,143.258 220.5,141.5C 238.326,142.497 256.326,142.83 274.5,142.5C 274.167,143.833 273.833,145.167 273.5,146.5C 270.602,150.112 266.935,152.445 262.5,153.5C 263.169,159.295 262.169,164.628 259.5,169.5C 234.828,169.472 210.162,169.139 185.5,168.5C 182.795,163.404 180.462,158.071 178.5,152.5C 177.448,148.574 176.782,144.574 176.5,140.5C 179.272,141.767 181.939,141.767 184.5,140.5C 188.019,143.279 192.019,144.112 196.5,143C 197.406,141.301 197.739,139.467 197.5,137.5 Z"/></g>
<g><path style="opacity:1" fill="#b05c54" d="M 172.5,147.5 C 174.5,149.167 176.5,150.833 178.5,152.5C 180.462,158.071 182.795,163.404 185.5,168.5C 186.471,170.483 187.471,172.483 188.5,174.5C 176.553,188.115 163.886,201.115 150.5,213.5C 142.534,207.202 135.201,200.202 128.5,192.5C 143.167,177.5 157.833,162.5 172.5,147.5 Z"/></g>
<g><path style="opacity:1" fill="#d4716b" d="M 262.5,153.5 C 264.216,162.616 265.216,171.95 265.5,181.5C 255.107,195.549 241.44,204.883 224.5,209.5C 223.564,205.265 223.231,200.931 223.5,196.5C 237.071,190.782 248.905,182.449 259,171.5C 259.464,170.906 259.631,170.239 259.5,169.5C 262.169,164.628 263.169,159.295 262.5,153.5 Z"/></g>
<g><path style="opacity:1" fill="#e6b2a4" d="M 185.5,168.5 C 210.162,169.139 234.828,169.472 259.5,169.5C 259.631,170.239 259.464,170.906 259,171.5C 248.905,182.449 237.071,190.782 223.5,196.5C 218.223,197.069 213.223,196.235 208.5,194C 200.64,188.639 193.973,182.139 188.5,174.5C 187.471,172.483 186.471,170.483 185.5,168.5 Z"/></g>
<g><path style="opacity:1" fill="#a6554e" d="M 188.5,174.5 C 193.973,182.139 200.64,188.639 208.5,194C 213.223,196.235 218.223,197.069 223.5,196.5C 223.231,200.931 223.564,205.265 224.5,209.5C 224.263,210.791 224.596,211.791 225.5,212.5C 225.5,214.833 225.5,217.167 225.5,219.5C 218.134,219.228 211.134,217.561 204.5,214.5C 193.806,206.768 184.472,208.101 176.5,218.5C 173.013,222.142 170.013,226.142 167.5,230.5C 161.5,225.167 155.833,219.5 150.5,213.5C 163.886,201.115 176.553,188.115 188.5,174.5 Z"/></g>
<g><path style="opacity:1" fill="#4c6538" d="M 353.5,252.5 C 349.016,254.243 344.683,256.243 340.5,258.5C 340.386,245.438 335.72,234.272 326.5,225C 315.338,219.551 305.005,220.884 295.5,229C 292.29,231.375 289.624,234.208 287.5,237.5C 274.779,249.889 261.445,261.556 247.5,272.5C 247.167,271.833 246.833,271.167 246.5,270.5C 255.449,259.713 264.615,249.046 274,238.5C 278.833,231.667 283.667,224.833 288.5,218C 284.933,211.386 279.6,206.886 272.5,204.5C 278.532,196.156 286.198,194.323 295.5,199C 299.682,203.349 304.015,207.515 308.5,211.5C 311.985,208.516 315.318,205.349 318.5,202C 326.167,197.333 333.833,197.333 341.5,202C 351.476,210.976 358.643,221.809 363,234.5C 364.812,243.213 361.645,249.213 353.5,252.5 Z"/></g>
<g><path style="opacity:1" fill="#e7cac4" d="M 87.5,216.5 C 75.3528,218.181 63.3528,220.181 51.5,222.5C 46.8199,216.656 41.3199,211.656 35,207.5C 31.4884,199.52 33.9884,194.854 42.5,193.5C 53.5726,196.116 61.7392,202.449 67,212.5C 67.8056,206.916 67.6389,201.416 66.5,196C 68.2038,188.316 72.8704,185.649 80.5,188C 81.9308,188.465 83.0975,189.299 84,190.5C 86.798,198.921 87.9647,207.587 87.5,216.5 Z"/></g>
<g><path style="opacity:1" fill="#e6b1a8" d="M 265.5,181.5 C 266.95,189.64 267.95,197.973 268.5,206.5C 266.906,209.764 264.573,212.431 261.5,214.5C 249.527,213.519 237.527,212.852 225.5,212.5C 224.596,211.791 224.263,210.791 224.5,209.5C 241.44,204.883 255.107,195.549 265.5,181.5 Z"/></g>
<g><path style="opacity:1" fill="#89a777" d="M 204.5,214.5 C 211.45,220.916 218.783,226.249 226.5,230.5C 227.488,231.795 228.488,233.128 229.5,234.5C 227.315,236.762 224.648,238.262 221.5,239C 199.473,238.428 198.973,241.261 220,247.5C 225.545,247.144 230.045,244.811 233.5,240.5C 234.161,242.134 234.494,243.967 234.5,246C 232.856,268.844 231.19,291.677 229.5,314.5C 209.999,304.252 191.665,292.252 174.5,278.5C 168.803,272.802 162.803,267.468 156.5,262.5C 153.018,259.516 150.518,255.849 149,251.5C 147.882,244.57 150.382,239.403 156.5,236C 160.021,234.326 163.687,233.16 167.5,232.5C 178.008,246.016 190.341,257.349 204.5,266.5C 204.649,265.448 204.483,264.448 204,263.5C 192.597,249.916 183.43,234.916 176.5,218.5C 184.472,208.101 193.806,206.768 204.5,214.5 Z"/></g>
<g><path style="opacity:1" fill="#e6beb6" d="M 225.5,212.5 C 237.527,212.852 249.527,213.519 261.5,214.5C 256.5,219.167 251.5,223.833 246.5,228.5C 243.369,231.129 240.369,233.962 237.5,237C 236.552,237.483 235.552,237.649 234.5,237.5C 233.078,236.075 231.411,235.075 229.5,234.5C 228.488,233.128 227.488,231.795 226.5,230.5C 226.577,226.785 226.244,223.119 225.5,219.5C 225.5,217.167 225.5,214.833 225.5,212.5 Z"/></g>
<g><path style="opacity:1" fill="#4f673a" d="M 204.5,214.5 C 211.134,217.561 218.134,219.228 225.5,219.5C 226.244,223.119 226.577,226.785 226.5,230.5C 218.783,226.249 211.45,220.916 204.5,214.5 Z"/></g>
<g><path style="opacity:1" fill="#4d6639" d="M 176.5,218.5 C 183.43,234.916 192.597,249.916 204,263.5C 204.483,264.448 204.649,265.448 204.5,266.5C 190.341,257.349 178.008,246.016 167.5,232.5C 167.5,231.833 167.5,231.167 167.5,230.5C 170.013,226.142 173.013,222.142 176.5,218.5 Z"/></g>
<g><path style="opacity:1" fill="#6f8d5d" d="M 340.5,258.5 C 331.637,263.765 323.304,269.765 315.5,276.5C 305.44,283.891 295.107,290.891 284.5,297.5C 285.37,277.957 286.703,258.457 288.5,239C 288.43,238.235 288.097,237.735 287.5,237.5C 289.624,234.208 292.29,231.375 295.5,229C 305.005,220.884 315.338,219.551 326.5,225C 335.72,234.272 340.386,245.438 340.5,258.5 Z"/></g>
<g><path style="opacity:1" fill="#e7b9b1" d="M 87.5,216.5 C 87.1334,229.499 86.8001,242.499 86.5,255.5C 85.8444,254.722 85.0111,254.056 84,253.5C 75.4714,254.712 66.9714,256.045 58.5,257.5C 57.7025,257.043 57.3691,256.376 57.5,255.5C 59.3761,249.51 58.7095,243.844 55.5,238.5C 54.675,237.614 53.675,237.281 52.5,237.5C 53.1623,243.563 51.9956,249.23 49,254.5C 46.2617,256.289 43.4284,257.622 40.5,258.5C 34.8149,260.204 29.9816,258.871 26,254.5C 20.2005,234.625 27.7005,224.791 48.5,225C 49.9423,224.623 50.9423,223.79 51.5,222.5C 63.3528,220.181 75.3528,218.181 87.5,216.5 Z"/></g>
<g><path style="opacity:1" fill="#38374a" d="M 469.5,224.5 C 466.103,230.023 464.103,236.023 463.5,242.5C 443.374,258.788 423.374,275.288 403.5,292C 397.24,294.412 394.407,292.245 395,285.5C 419.436,264.553 444.269,244.22 469.5,224.5 Z"/></g>
<g><path style="opacity:1" fill="#829c70" d="M 246.5,228.5 C 243.932,258.449 241.932,288.449 240.5,318.5C 242.833,318.5 245.167,318.5 247.5,318.5C 240.901,320.31 234.901,318.976 229.5,314.5C 231.19,291.677 232.856,268.844 234.5,246C 234.494,243.967 234.161,242.134 233.5,240.5C 234.11,239.609 234.443,238.609 234.5,237.5C 235.552,237.649 236.552,237.483 237.5,237C 240.369,233.962 243.369,231.129 246.5,228.5 Z"/></g>
<g><path style="opacity:1" fill="#4d673a" d="M 229.5,234.5 C 231.411,235.075 233.078,236.075 234.5,237.5C 234.443,238.609 234.11,239.609 233.5,240.5C 230.045,244.811 225.545,247.144 220,247.5C 198.973,241.261 199.473,238.428 221.5,239C 224.648,238.262 227.315,236.762 229.5,234.5 Z"/></g>
<g><path style="opacity:1" fill="#d4726c" d="M 57.5,255.5 C 54.0915,262.066 48.7582,265.733 41.5,266.5C 40.5269,264.052 40.1936,261.385 40.5,258.5C 43.4284,257.622 46.2617,256.289 49,254.5C 51.9956,249.23 53.1623,243.563 52.5,237.5C 53.675,237.281 54.675,237.614 55.5,238.5C 58.7095,243.844 59.3761,249.51 57.5,255.5 Z"/></g>
<g><path style="opacity:1" fill="#799766" d="M 272.5,204.5 C 279.6,206.886 284.933,211.386 288.5,218C 283.667,224.833 278.833,231.667 274,238.5C 264.615,249.046 255.449,259.713 246.5,270.5C 246.833,271.167 247.167,271.833 247.5,272.5C 261.445,261.556 274.779,249.889 287.5,237.5C 288.097,237.735 288.43,238.235 288.5,239C 286.703,258.457 285.37,277.957 284.5,297.5C 276.735,302.892 268.735,308.058 260.5,313C 256.376,315.397 252.043,317.231 247.5,318.5C 245.167,318.5 242.833,318.5 240.5,318.5C 241.932,288.449 243.932,258.449 246.5,228.5C 251.5,223.833 256.5,219.167 261.5,214.5C 264.573,212.431 266.906,209.764 268.5,206.5C 269.605,205.4 270.938,204.733 272.5,204.5 Z"/></g>
<g><path style="opacity:1" fill="#d2514a" d="M 486.5,282.5 C 477.872,280.929 469.539,278.595 461.5,275.5C 462.425,264.524 463.091,253.524 463.5,242.5C 464.103,236.023 466.103,230.023 469.5,224.5C 472.004,220.492 475.504,217.825 480,216.5C 481.326,216.755 482.326,217.422 483,218.5C 485.945,239.731 487.111,261.065 486.5,282.5 Z"/></g>
<g><path style="opacity:1" fill="#d3716b" d="M 353.5,252.5 C 352.242,258.455 351.242,264.455 350.5,270.5C 344.007,273.319 338.007,276.986 332.5,281.5C 333.23,284.109 333.73,286.776 334,289.5C 334.5,299.494 334.666,309.494 334.5,319.5C 333.252,322.942 332.419,326.608 332,330.5C 330.145,335.946 327.645,340.946 324.5,345.5C 323.087,342.339 321.42,339.339 319.5,336.5C 324.46,320.95 324.794,305.283 320.5,289.5C 319.117,285.066 317.45,280.732 315.5,276.5C 323.304,269.765 331.637,263.765 340.5,258.5C 344.683,256.243 349.016,254.243 353.5,252.5 Z"/></g>
<g><path style="opacity:1" fill="#e6a89d" d="M 86.5,255.5 C 86.5405,258.881 86.2071,262.214 85.5,265.5C 75.0063,270.913 64.673,276.579 54.5,282.5C 47.2271,279.56 42.8937,274.227 41.5,266.5C 48.7582,265.733 54.0915,262.066 57.5,255.5C 57.3691,256.376 57.7025,257.043 58.5,257.5C 66.9714,256.045 75.4714,254.712 84,253.5C 85.0111,254.056 85.8444,254.722 86.5,255.5 Z"/></g>
<g><path style="opacity:1" fill="#d4726c" d="M 156.5,262.5 C 162.803,267.468 168.803,272.802 174.5,278.5C 173.367,282.567 172.033,286.567 170.5,290.5C 169.645,297.862 168.645,305.195 167.5,312.5C 162.45,316.885 157.116,320.885 151.5,324.5C 151.062,324.565 150.728,324.399 150.5,324C 152.53,320.411 153.863,316.578 154.5,312.5C 156.975,303.025 157.142,293.358 155,283.5C 154.028,278.405 152.195,273.738 149.5,269.5C 152.027,267.395 154.36,265.061 156.5,262.5 Z"/></g>
<g><path style="opacity:1" fill="#cbd8e0" d="M 85.5,265.5 C 87.7972,270.77 90.1306,276.103 92.5,281.5C 87.0319,287.124 81.0319,292.29 74.5,297C 69.4856,300.009 64.1522,302.176 58.5,303.5C 56.6592,296.628 55.3258,289.628 54.5,282.5C 64.673,276.579 75.0063,270.913 85.5,265.5 Z"/></g>
<g><path style="opacity:1" fill="#c7968f" d="M 315.5,276.5 C 317.45,280.732 319.117,285.066 320.5,289.5C 300.507,302.314 281.173,316.147 262.5,331C 257.972,333.51 253.139,335.01 248,335.5C 242.258,334.475 236.758,332.642 231.5,330C 209.747,318.805 189.414,305.638 170.5,290.5C 172.033,286.567 173.367,282.567 174.5,278.5C 191.665,292.252 209.999,304.252 229.5,314.5C 234.901,318.976 240.901,320.31 247.5,318.5C 252.043,317.231 256.376,315.397 260.5,313C 268.735,308.058 276.735,302.892 284.5,297.5C 295.107,290.891 305.44,283.891 315.5,276.5 Z"/></g>
<g><path style="opacity:1" fill="#e7b8b0" d="M 149.5,269.5 C 152.195,273.738 154.028,278.405 155,283.5C 157.142,293.358 156.975,303.025 154.5,312.5C 148.7,301.575 142.367,290.908 135.5,280.5C 139.765,276.362 144.431,272.695 149.5,269.5 Z"/></g>
<g><path style="opacity:1" fill="#9db6c8" d="M 92.5,281.5 C 93.5,284.167 94.5,286.833 95.5,289.5C 86.3431,300.917 74.6764,308.583 60.5,312.5C 59.3428,309.727 58.6761,306.727 58.5,303.5C 64.1522,302.176 69.4856,300.009 74.5,297C 81.0319,292.29 87.0319,287.124 92.5,281.5 Z"/></g>
<g><path style="opacity:1" fill="#e7cbc4" d="M 135.5,280.5 C 142.367,290.908 148.7,301.575 154.5,312.5C 153.863,316.578 152.53,320.411 150.5,324C 150.728,324.399 151.062,324.565 151.5,324.5C 147.135,328.189 142.469,331.522 137.5,334.5C 133.703,325.899 129.537,317.232 125,308.5C 121.815,304.108 118.648,299.774 115.5,295.5C 122.167,290.5 128.833,285.5 135.5,280.5 Z"/></g>
<g><path style="opacity:1" fill="#38374a" d="M 375.5,300.5 C 382.673,298.839 385.173,301.506 383,308.5C 378.214,313.004 374.381,312.504 371.5,307C 372.25,304.429 373.583,302.262 375.5,300.5 Z"/></g>
<g><path style="opacity:1" fill="#9fb7c9" d="M 109.5,300.5 C 112.912,321.191 108.579,340.191 96.5,357.5C 90.139,361.011 83.4723,364.011 76.5,366.5C 89.5846,354.009 97.7513,338.675 101,320.5C 101.674,315.093 102.508,309.76 103.5,304.5C 105.228,302.774 107.228,301.441 109.5,300.5 Z"/></g>
<g><path style="opacity:1" fill="#e7b4ac" d="M 350.5,270.5 C 348.814,286.584 349.481,302.584 352.5,318.5C 346.69,319.49 340.69,319.823 334.5,319.5C 334.666,309.494 334.5,299.494 334,289.5C 333.73,286.776 333.23,284.109 332.5,281.5C 338.007,276.986 344.007,273.319 350.5,270.5 Z"/></g>
<g><path style="opacity:1" fill="#de5b54" d="M 461.5,275.5 C 469.539,278.595 477.872,280.929 486.5,282.5C 485.758,304.044 482.424,325.044 476.5,345.5C 468.207,343.344 459.874,341.344 451.5,339.5C 456.416,318.422 459.749,297.089 461.5,275.5 Z"/></g>
<g><path style="opacity:1" fill="#dee4e6" d="M 95.5,289.5 C 97.8973,294.627 100.564,299.627 103.5,304.5C 102.508,309.76 101.674,315.093 101,320.5C 97.7513,338.675 89.5846,354.009 76.5,366.5C 76.19,367.738 75.69,367.738 75,366.5C 68.4293,348.956 63.596,330.956 60.5,312.5C 74.6764,308.583 86.3431,300.917 95.5,289.5 Z"/></g>
<g><path style="opacity:1" fill="#e4e6e6" d="M 115.5,295.5 C 118.648,299.774 121.815,304.108 125,308.5C 129.537,317.232 133.703,325.899 137.5,334.5C 124.326,342.923 110.66,350.59 96.5,357.5C 108.579,340.191 112.912,321.191 109.5,300.5C 111.46,298.844 113.46,297.177 115.5,295.5 Z"/></g>
<g><path style="opacity:1" fill="#e7c6bf" d="M 352.5,318.5 C 354.735,323.994 356.735,329.66 358.5,335.5C 347.43,340.572 337.763,347.572 329.5,356.5C 327.594,353.017 325.928,349.35 324.5,345.5C 327.645,340.946 330.145,335.946 332,330.5C 332.419,326.608 333.252,322.942 334.5,319.5C 340.69,319.823 346.69,319.49 352.5,318.5 Z"/></g>
<g><path style="opacity:1" fill="#dfe5e6" d="M 358.5,335.5 C 362.085,341.668 365.418,348.001 368.5,354.5C 356.167,362.167 346.167,372.167 338.5,384.5C 334.901,375.467 331.901,366.134 329.5,356.5C 337.763,347.572 347.43,340.572 358.5,335.5 Z"/></g>
<g><path style="opacity:1" fill="#e4d6ce" d="M 320.5,289.5 C 324.794,305.283 324.46,320.95 319.5,336.5C 314.776,342.214 310.11,347.881 305.5,353.5C 305.719,352.325 305.386,351.325 304.5,350.5C 301.034,352.489 297.368,353.989 293.5,355C 286.167,355.667 278.833,355.667 271.5,355C 262.93,352.857 254.264,351.357 245.5,350.5C 230.465,353.288 215.465,355.288 200.5,356.5C 178.167,350.482 167.167,335.815 167.5,312.5C 168.645,305.195 169.645,297.862 170.5,290.5C 189.414,305.638 209.747,318.805 231.5,330C 236.758,332.642 242.258,334.475 248,335.5C 253.139,335.01 257.972,333.51 262.5,331C 281.173,316.147 300.507,302.314 320.5,289.5 Z"/></g>
<g><path style="opacity:1" fill="#c89790" d="M 305.5,353.5 C 302.342,363.143 299.675,372.81 297.5,382.5C 269.68,378.019 241.68,373.853 213.5,370C 209.985,369.881 206.985,368.714 204.5,366.5C 202.99,363.317 201.657,359.984 200.5,356.5C 215.465,355.288 230.465,353.288 245.5,350.5C 254.264,351.357 262.93,352.857 271.5,355C 278.833,355.667 286.167,355.667 293.5,355C 297.368,353.989 301.034,352.489 304.5,350.5C 305.386,351.325 305.719,352.325 305.5,353.5 Z"/></g>
<g><path style="opacity:1" fill="#e7645c" d="M 451.5,339.5 C 459.874,341.344 468.207,343.344 476.5,345.5C 469.407,376.021 455.74,403.021 435.5,426.5C 431.861,420.861 427.194,416.194 421.5,412.5C 419.5,410.833 417.5,409.167 415.5,407.5C 428.257,394.346 437.757,379.013 444,361.5C 446.437,354.021 448.937,346.687 451.5,339.5 Z"/></g>
<g><path style="opacity:1" fill="#9eb6c9" d="M 368.5,354.5 C 370.653,356.794 372.32,359.46 373.5,362.5C 361.112,369.558 351.778,379.558 345.5,392.5C 344.675,393.386 343.675,393.719 342.5,393.5C 340.895,390.622 339.561,387.622 338.5,384.5C 346.167,372.167 356.167,362.167 368.5,354.5 Z"/></g>
<g><path style="opacity:1" fill="#ced9e0" d="M 373.5,362.5 C 379.134,370.477 384.801,378.477 390.5,386.5C 374.76,388.946 362.427,396.613 353.5,409.5C 349.352,404.552 345.686,399.218 342.5,393.5C 343.675,393.719 344.675,393.386 345.5,392.5C 351.778,379.558 361.112,369.558 373.5,362.5 Z"/></g>
<g><path style="opacity:1" fill="#9db6c8" d="M 390.5,386.5 C 392.853,388.86 394.853,391.527 396.5,394.5C 388.584,395.799 380.918,398.299 373.5,402C 368.331,406.337 363.331,410.837 358.5,415.5C 356.844,413.54 355.177,411.54 353.5,409.5C 362.427,396.613 374.76,388.946 390.5,386.5 Z"/></g>
<g><path style="opacity:1" fill="#dec8c0" d="M 204.5,366.5 C 206.985,368.714 209.985,369.881 213.5,370C 241.68,373.853 269.68,378.019 297.5,382.5C 296.601,389.482 296.435,396.482 297,403.5C 297.759,406.785 299.092,409.785 301,412.5C 303.705,415.036 306.205,417.703 308.5,420.5C 287.514,422.3 266.514,422.633 245.5,421.5C 248.555,418.448 251.222,415.115 253.5,411.5C 252.514,407.853 250.181,406.686 246.5,408C 227.469,424.508 208.469,441.008 189.5,457.5C 190.548,450.31 192.381,443.31 195,436.5C 199.748,425.34 204.748,414.34 210,403.5C 209.905,390.926 208.071,378.593 204.5,366.5 Z"/></g>
<g><path style="opacity:1" fill="#c1cfd9" d="M 396.5,394.5 C 400.18,398.183 403.514,402.183 406.5,406.5C 406.158,407.338 405.492,407.672 404.5,407.5C 392.469,413.531 383.469,422.531 377.5,434.5C 370.833,428.5 364.5,422.167 358.5,415.5C 363.331,410.837 368.331,406.337 373.5,402C 380.918,398.299 388.584,395.799 396.5,394.5 Z"/></g>
<g><path style="opacity:1" fill="#e7b2aa" d="M 406.5,406.5 C 409.57,406.368 412.57,406.701 415.5,407.5C 417.5,409.167 419.5,410.833 421.5,412.5C 421.5,426.833 421.5,441.167 421.5,455.5C 416.78,461.536 410.78,464.203 403.5,463.5C 403.18,444.757 403.514,426.09 404.5,407.5C 405.492,407.672 406.158,407.338 406.5,406.5 Z"/></g>
<g><path style="opacity:1" fill="#3c3b4d" d="M 245.5,421.5 C 234.178,430.823 223.178,440.49 212.5,450.5C 208.518,453.152 204.851,456.152 201.5,459.5C 194.803,459.178 188.47,460.512 182.5,463.5C 184.607,461.273 186.94,459.273 189.5,457.5C 208.469,441.008 227.469,424.508 246.5,408C 250.181,406.686 252.514,407.853 253.5,411.5C 251.222,415.115 248.555,418.448 245.5,421.5 Z"/></g>
<g><path style="opacity:1" fill="#e7beb7" d="M 404.5,407.5 C 403.514,426.09 403.18,444.757 403.5,463.5C 401.379,463.675 399.379,463.341 397.5,462.5C 389.431,456.766 382.764,449.766 377.5,441.5C 377.5,439.167 377.5,436.833 377.5,434.5C 383.469,422.531 392.469,413.531 404.5,407.5 Z"/></g>
<g><path style="opacity:1" fill="#e7a69b" d="M 421.5,412.5 C 427.194,416.194 431.861,420.861 435.5,426.5C 438.321,434.872 436.488,442.205 430,448.5C 427.584,451.423 424.75,453.757 421.5,455.5C 421.5,441.167 421.5,426.833 421.5,412.5 Z"/></g>
<g><path style="opacity:1" fill="#d9c0b9" d="M 308.5,420.5 C 316.766,428.791 323.099,438.458 327.5,449.5C 294.16,449.796 260.827,450.463 227.5,451.5C 222.322,451.499 217.322,451.166 212.5,450.5C 223.178,440.49 234.178,430.823 245.5,421.5C 266.514,422.633 287.514,422.3 308.5,420.5 Z"/></g>
<g><path style="opacity:1" fill="#e6645b" d="M 377.5,441.5 C 382.764,449.766 389.431,456.766 397.5,462.5C 376.365,474.545 353.698,482.212 329.5,485.5C 330.996,480.664 331.663,475.664 331.5,470.5C 331.486,466.761 330.82,463.428 329.5,460.5C 329.5,459.833 329.833,459.5 330.5,459.5C 346.926,455.453 362.592,449.453 377.5,441.5 Z"/></g>
<g><path style="opacity:1" fill="#d9b9b3" d="M 327.5,449.5 C 328.503,452.85 329.503,456.183 330.5,459.5C 329.833,459.5 329.5,459.833 329.5,460.5C 302.804,465.989 275.804,467.989 248.5,466.5C 232.792,464.493 217.125,462.16 201.5,459.5C 204.851,456.152 208.518,453.152 212.5,450.5C 217.322,451.166 222.322,451.499 227.5,451.5C 260.827,450.463 294.16,449.796 327.5,449.5 Z"/></g>
<g><path style="opacity:1" fill="#d2514a" d="M 201.5,459.5 C 217.125,462.16 232.792,464.493 248.5,466.5C 248.5,473.5 248.5,480.5 248.5,487.5C 223.106,486.088 198.273,481.755 174,474.5C 173.333,473.167 173.333,471.833 174,470.5C 176.416,467.577 179.25,465.243 182.5,463.5C 188.47,460.512 194.803,459.178 201.5,459.5 Z"/></g>
<g><path style="opacity:1" fill="#db5a53" d="M 329.5,460.5 C 330.82,463.428 331.486,466.761 331.5,470.5C 331.663,475.664 330.996,480.664 329.5,485.5C 302.488,489.863 275.488,490.529 248.5,487.5C 248.5,480.5 248.5,473.5 248.5,466.5C 275.804,467.989 302.804,465.989 329.5,460.5 Z"/></g>
</svg>
