<?xml version="1.0" encoding="UTF-8"?>
<!DOCTYPE svg PUBLIC "-//W3C//DTD SVG 1.1//EN" "http://www.w3.org/Graphics/SVG/1.1/DTD/svg11.dtd">
<svg xmlns="http://www.w3.org/2000/svg" version="1.1" width="512px" height="512px" style="shape-rendering:geometricPrecision; text-rendering:geometricPrecision; image-rendering:optimizeQuality; fill-rule:evenodd; clip-rule:evenodd" xmlns:xlink="http://www.w3.org/1999/xlink">
<g><path style="opacity:1" fill="#3f3f51" d="M 369.5,151.5 C 364.695,152.487 359.695,152.821 354.5,152.5C 349.424,146.927 346.757,140.26 346.5,132.5C 346.667,110.164 346.5,87.8308 346,65.5C 345.509,57.8684 343.343,50.8684 339.5,44.5C 333.327,33.5417 323.827,28.2084 311,28.5C 303.725,27.9796 297.558,30.313 292.5,35.5C 298.062,37.751 302.729,41.0843 306.5,45.5C 312.9,52.9718 315.9,61.6385 315.5,71.5C 314.361,79.6191 310.694,86.2858 304.5,91.5C 303.883,91.6107 303.383,91.944 303,92.5C 302.734,105.207 300.567,117.54 296.5,129.5C 290.861,138.473 283.527,145.806 274.5,151.5C 268.974,151.821 263.64,151.488 258.5,150.5C 259.5,148.833 260.833,147.5 262.5,146.5C 269.77,143.295 272.103,137.962 269.5,130.5C 266.539,120.468 261.373,119.135 254,126.5C 253.058,129.443 251.892,132.276 250.5,135C 222.567,134.405 202.4,121.572 190,96.5C 186.092,102.222 183.758,108.555 183,115.5C 182.178,123.012 182.345,130.345 183.5,137.5C 183.298,139.95 183.631,142.283 184.5,144.5C 184.5,145.833 184.5,147.167 184.5,148.5C 179.695,149.487 174.695,149.821 169.5,149.5C 165.178,146.182 160.845,142.849 156.5,139.5C 152.215,142.448 148.215,145.781 144.5,149.5C 136.008,148.408 127.674,148.408 119.5,149.5C 116.87,147.372 114.37,145.039 112,142.5C 110.729,135.44 113.562,132.94 120.5,135C 124.056,139.059 128.056,142.559 132.5,145.5C 134.316,144.185 135.983,142.685 137.5,141C 133.8,136.965 129.8,133.298 125.5,130C 118.508,129.5 111.508,129.334 104.5,129.5C 103.833,134.16 103.667,138.826 104,143.5C 105.707,145.037 107.207,146.704 108.5,148.5C 93.8221,148.553 79.1554,148.22 64.5,147.5C 56.1192,141.209 47.9526,134.542 40,127.5C 38.8799,124.001 39.7132,121.167 42.5,119C 50.8464,117.498 59.1798,115.998 67.5,114.5C 68.678,105.438 70.678,96.6047 73.5,88C 75.8333,87.3333 78.1667,87.3333 80.5,88C 83.538,90.7026 86.2046,93.7026 88.5,97C 92.4934,97.1703 96.4934,97.0037 100.5,96.5C 101.55,89.0814 103.05,81.7481 105,74.5C 107.332,71.2091 110.165,70.7091 113.5,73C 119.786,80.408 125.953,87.908 132,95.5C 133.664,99.1563 134.497,102.99 134.5,107C 133.74,111.827 133.574,116.66 134,121.5C 138,125.5 142,129.5 146,133.5C 150.14,128.789 155.306,127.289 161.5,129C 165.092,131.713 168.592,134.547 172,137.5C 171.868,134.561 171.535,131.561 171,128.5C 158.152,114.645 153.486,98.3115 157,79.5C 159.715,60.8874 169.881,48.3874 187.5,42C 202.284,25.3797 220.617,19.713 242.5,25C 252.798,27.3999 262.298,31.5666 271,37.5C 273.351,36.2857 275.851,35.4523 278.5,35C 291.101,18.464 307.434,13.464 327.5,20C 344.737,27.9255 354.237,41.4255 356,60.5C 356.333,84.1667 356.667,107.833 357,131.5C 357.923,140.375 362.089,147.041 369.5,151.5 Z"/></g>
<g><path style="opacity:1" fill="#f7ca7d" d="M 267.5,49.5 C 243.833,49.5 220.167,49.5 196.5,49.5C 203.721,38.3911 214.054,33.3911 227.5,34.5C 242.74,34.7972 256.073,39.7972 267.5,49.5 Z"/></g>
<g><path style="opacity:1" fill="#f7cc7e" d="M 339.5,44.5 C 328.679,45.4946 317.679,45.8279 306.5,45.5C 302.729,41.0843 298.062,37.751 292.5,35.5C 297.558,30.313 303.725,27.9796 311,28.5C 323.827,28.2084 333.327,33.5417 339.5,44.5 Z"/></g>
<g><path style="opacity:1" fill="#f9c774" d="M 196.5,49.5 C 220.167,49.5 243.833,49.5 267.5,49.5C 272.479,52.4787 276.479,56.4787 279.5,61.5C 262.67,62.1666 245.67,62.4999 228.5,62.5C 211.153,62.4995 194.153,61.8329 177.5,60.5C 183.09,55.5385 189.424,51.8718 196.5,49.5 Z"/></g>
<g><path style="opacity:1" fill="#efbe72" d="M 339.5,44.5 C 343.343,50.8684 345.509,57.8684 346,65.5C 346.5,87.8308 346.667,110.164 346.5,132.5C 345.596,131.791 345.263,130.791 345.5,129.5C 345.5,117.167 345.5,104.833 345.5,92.5C 345.5,84.1667 345.5,75.8333 345.5,67.5C 335.833,67.5 326.167,67.5 316.5,67.5C 316.768,69.099 316.434,70.4324 315.5,71.5C 315.9,61.6385 312.9,52.9718 306.5,45.5C 317.679,45.8279 328.679,45.4946 339.5,44.5 Z"/></g>
<g><path style="opacity:1" fill="#8eab7d" d="M 303.5,61.5 C 299.967,62.7146 296.301,62.7146 292.5,61.5C 289.125,55.9506 285.125,50.7839 280.5,46C 292.509,44.6739 300.175,49.8406 303.5,61.5 Z"/></g>
<g><path style="opacity:1" fill="#5c734b" d="M 292.5,61.5 C 296.301,62.7146 299.967,62.7146 303.5,61.5C 306.8,68.4464 305.8,74.7798 300.5,80.5C 298.079,74.0004 295.413,67.6671 292.5,61.5 Z"/></g>
<g><path style="opacity:1" fill="#f9c06b" d="M 177.5,60.5 C 194.153,61.8329 211.153,62.4995 228.5,62.5C 245.67,62.4999 262.67,62.1666 279.5,61.5C 283.455,65.7403 286.122,70.7403 287.5,76.5C 247.833,76.5 208.167,76.5 168.5,76.5C 170.016,70.2402 173.016,64.9068 177.5,60.5 Z"/></g>
<g><path style="opacity:1" fill="#f7b961" d="M 168.5,76.5 C 208.167,76.5 247.833,76.5 287.5,76.5C 292.09,86.1051 293.423,96.1051 291.5,106.5C 291.5,101.833 291.5,97.1667 291.5,92.5C 261.167,92.5 230.833,92.5 200.5,92.5C 199.044,89.3856 197.878,86.0523 197,82.5C 194.847,80.5561 192.347,80.0561 189.5,81C 180.165,89.8367 174.665,100.67 173,113.5C 170.555,109.503 168.888,105.169 168,100.5C 167.23,92.4515 167.397,84.4515 168.5,76.5 Z"/></g>
<g><path style="opacity:1" fill="#f9bb64" d="M 345.5,92.5 C 331.656,92.829 317.99,92.4957 304.5,91.5C 310.694,86.2858 314.361,79.6191 315.5,71.5C 316.434,70.4324 316.768,69.099 316.5,67.5C 326.167,67.5 335.833,67.5 345.5,67.5C 345.5,75.8333 345.5,84.1667 345.5,92.5 Z"/></g>
<g><path style="opacity:1" fill="#a3b6cf" d="M 110.5,118.5 C 109.027,114.221 107.027,110.221 104.5,106.5C 106.03,105.933 107.53,105.267 109,104.5C 110.609,99.5636 111.942,94.5636 113,89.5C 116.716,93.5482 120.05,97.8815 123,102.5C 123.169,107.828 123.002,113.162 122.5,118.5C 118.5,118.5 114.5,118.5 110.5,118.5 Z"/></g>
<g><path style="opacity:1" fill="#f6d6c5" d="M 269.5,130.5 C 269.5,132.833 269.5,135.167 269.5,137.5C 253.422,137.817 237.422,137.484 221.5,136.5C 221.315,134.11 219.982,133.11 217.5,133.5C 213.759,133.497 210.759,134.83 208.5,137.5C 205.167,137.5 201.833,137.5 198.5,137.5C 198.423,136.25 197.756,135.417 196.5,135C 193.558,133.876 190.558,133.542 187.5,134C 186.177,134.816 185.511,135.983 185.5,137.5C 184.833,137.5 184.167,137.5 183.5,137.5C 182.345,130.345 182.178,123.012 183,115.5C 183.758,108.555 186.092,102.222 190,96.5C 202.4,121.572 222.567,134.405 250.5,135C 251.892,132.276 253.058,129.443 254,126.5C 261.373,119.135 266.539,120.468 269.5,130.5 Z"/></g>
<g><path style="opacity:1" fill="#f9b458" d="M 200.5,92.5 C 230.833,92.5 261.167,92.5 291.5,92.5C 291.5,97.1667 291.5,101.833 291.5,106.5C 291.795,108.735 291.461,110.735 290.5,112.5C 290.5,111.5 290.5,110.5 290.5,109.5C 264.328,109.169 238.328,109.502 212.5,110.5C 207.015,105.541 203.015,99.5409 200.5,92.5 Z"/></g>
<g><path style="opacity:1" fill="#7b7c89" d="M 104.5,106.5 C 107.027,110.221 109.027,114.221 110.5,118.5C 108.011,118.702 105.677,118.202 103.5,117C 101.667,114.5 99.8333,112 98,109.5C 97.5683,108.4 98.0683,107.733 99.5,107.5C 101.135,106.954 102.801,106.62 104.5,106.5 Z"/></g>
<g><path style="opacity:1" fill="#f7ad50" d="M 212.5,110.5 C 238.328,109.502 264.328,109.169 290.5,109.5C 290.5,110.5 290.5,111.5 290.5,112.5C 289.353,120.45 286.187,127.45 281,133.5C 278.433,114.312 268.266,108.145 250.5,115C 247.727,117.383 245.561,120.217 244,123.5C 231.874,123.395 221.374,119.062 212.5,110.5 Z"/></g>
<g><path style="opacity:1" fill="#f9b052" d="M 304.5,91.5 C 317.99,92.4957 331.656,92.829 345.5,92.5C 345.5,104.833 345.5,117.167 345.5,129.5C 329.167,129.5 312.833,129.5 296.5,129.5C 300.567,117.54 302.734,105.207 303,92.5C 303.383,91.944 303.883,91.6107 304.5,91.5 Z"/></g>
<g><path style="opacity:1" fill="#a6b9d2" d="M 79.5,104.5 C 84.4585,109.305 88.9585,114.638 93,120.5C 93.4996,127.158 93.6663,133.825 93.5,140.5C 86.4921,140.666 79.4921,140.5 72.5,140C 67.2114,136.38 62.2114,132.38 57.5,128C 63.0225,126.134 68.6891,124.801 74.5,124C 75,123.5 75.5,123 76,122.5C 77.9992,116.671 79.1658,110.671 79.5,104.5 Z"/></g>
<g><path style="opacity:1" fill="#f7a64b" d="M 296.5,129.5 C 312.833,129.5 329.167,129.5 345.5,129.5C 345.263,130.791 345.596,131.791 346.5,132.5C 346.757,140.26 349.424,146.927 354.5,152.5C 355.625,154.129 356.959,155.629 358.5,157C 345.64,165.893 332.974,165.559 320.5,156C 315.611,151.614 311.278,146.78 307.5,141.5C 305.253,140.626 302.92,140.292 300.5,140.5C 299.165,136.828 297.832,133.162 296.5,129.5 Z"/></g>
<g><path style="opacity:1" fill="#e28680" d="M 198.5,137.5 C 199.062,141.099 197.562,143.099 194,143.5C 189.598,143.556 186.765,141.556 185.5,137.5C 185.511,135.983 186.177,134.816 187.5,134C 190.558,133.542 193.558,133.876 196.5,135C 197.756,135.417 198.423,136.25 198.5,137.5 Z"/></g>
<g><path style="opacity:1" fill="#e28780" d="M 221.5,136.5 C 221.714,138.144 221.38,139.644 220.5,141C 216.297,143.914 212.463,143.747 209,140.5C 208.517,139.552 208.351,138.552 208.5,137.5C 210.759,134.83 213.759,133.497 217.5,133.5C 219.982,133.11 221.315,134.11 221.5,136.5 Z"/></g>
<g><path style="opacity:1" fill="#f7d1c5" d="M 269.5,130.5 C 272.103,137.962 269.77,143.295 262.5,146.5C 236.684,144.897 210.684,144.231 184.5,144.5C 183.631,142.283 183.298,139.95 183.5,137.5C 184.167,137.5 184.833,137.5 185.5,137.5C 186.765,141.556 189.598,143.556 194,143.5C 197.562,143.099 199.062,141.099 198.5,137.5C 201.833,137.5 205.167,137.5 208.5,137.5C 208.351,138.552 208.517,139.552 209,140.5C 212.463,143.747 216.297,143.914 220.5,141C 221.38,139.644 221.714,138.144 221.5,136.5C 237.422,137.484 253.422,137.817 269.5,137.5C 269.5,135.167 269.5,132.833 269.5,130.5 Z"/></g>
<g><path style="opacity:1" fill="#f9d3c0" d="M 184.5,144.5 C 210.684,144.231 236.684,144.897 262.5,146.5C 260.833,147.5 259.5,148.833 258.5,150.5C 257.662,150.842 257.328,151.508 257.5,152.5C 250.235,153.799 242.735,154.466 235,154.5C 218.835,154.031 202.668,153.698 186.5,153.5C 185.976,151.694 185.309,150.028 184.5,148.5C 184.5,147.167 184.5,145.833 184.5,144.5 Z"/></g>
<g><path style="opacity:1" fill="#3e3d4b" d="M 64.5,147.5 C 79.1554,148.22 93.8221,148.553 108.5,148.5C 112.131,151.629 115.631,154.963 119,158.5C 120.5,157 122,155.5 123.5,154C 121.959,152.629 120.625,151.129 119.5,149.5C 127.674,148.408 136.008,148.408 144.5,149.5C 136.395,157.104 128.395,164.937 120.5,173C 129.702,182.369 139.035,191.536 148.5,200.5C 152.13,204.631 155.963,208.631 160,212.5C 160.6,215.095 160.1,217.429 158.5,219.5C 156.073,220.974 153.74,220.807 151.5,219C 138.029,206.53 124.862,193.696 112,180.5C 109.607,176.019 108.94,171.353 110,166.5C 105.133,161.968 100.633,157.134 96.5,152C 88.5,151.667 80.5,151.333 72.5,151C 69.4006,150.613 66.734,149.446 64.5,147.5 Z"/></g>
<g><path style="opacity:1" fill="#c57169" d="M 169.5,149.5 C 171.461,151.963 173.628,154.297 176,156.5C 177.605,160.485 179.105,164.485 180.5,168.5C 169.5,178.833 158.833,189.5 148.5,200.5C 139.035,191.536 129.702,182.369 120.5,173C 128.395,164.937 136.395,157.104 144.5,149.5C 148.215,145.781 152.215,142.448 156.5,139.5C 160.845,142.849 165.178,146.182 169.5,149.5 Z"/></g>
<g><path style="opacity:1" fill="#3f3f4b" d="M 184.5,148.5 C 185.309,150.028 185.976,151.694 186.5,153.5C 187.576,158.061 189.243,162.395 191.5,166.5C 197.29,175.457 204.623,182.957 213.5,189C 216.833,189.667 220.167,189.667 223.5,189C 235.671,183.925 246.005,176.425 254.5,166.5C 255.558,165.4 256.392,164.066 257,162.5C 257.498,159.183 257.665,155.85 257.5,152.5C 257.328,151.508 257.662,150.842 258.5,150.5C 263.64,151.488 268.974,151.821 274.5,151.5C 271.987,153.18 269.987,155.347 268.5,158C 269.854,170.183 271.354,182.35 273,194.5C 280.721,188.414 288.888,187.914 297.5,193C 300.682,196.349 304.015,199.516 307.5,202.5C 318.942,189.84 331.609,188.34 345.5,198C 350.429,203.088 354.762,208.588 358.5,214.5C 354.035,213.264 349.701,213.264 345.5,214.5C 342.732,211.229 339.732,208.062 336.5,205C 331.959,202.301 327.292,201.968 322.5,204C 318.332,207.336 314.332,210.836 310.5,214.5C 306.702,213.517 302.702,213.183 298.5,213.5C 299.303,212.577 299.47,211.577 299,210.5C 295.833,207.333 292.667,204.167 289.5,201C 284.283,199.47 280.283,200.97 277.5,205.5C 274.681,208.075 271.681,210.408 268.5,212.5C 263.833,212.5 259.167,212.5 254.5,212.5C 257.796,209.385 260.462,205.885 262.5,202C 262.006,196.331 261.34,190.831 260.5,185.5C 260.813,182.753 260.48,180.086 259.5,177.5C 250.869,185.487 241.202,191.987 230.5,197C 229.183,199.937 229.183,202.77 230.5,205.5C 230.5,207.5 230.5,209.5 230.5,211.5C 217.989,211.171 205.655,211.505 193.5,212.5C 192.833,212.5 192.167,212.5 191.5,212.5C 186.654,211.673 181.654,211.006 176.5,210.5C 182.815,202.561 190.815,200.394 200.5,204C 206.012,208.449 212.345,210.615 219.5,210.5C 219.5,207.167 219.5,203.833 219.5,200.5C 215.59,200.737 211.923,199.904 208.5,198C 196.543,190.546 187.21,180.713 180.5,168.5C 179.105,164.485 177.605,160.485 176,156.5C 173.628,154.297 171.461,151.963 169.5,149.5C 174.695,149.821 179.695,149.487 184.5,148.5 Z"/></g>
<g><path style="opacity:1" fill="#3f3e4b" d="M 300.5,140.5 C 302.92,140.292 305.253,140.626 307.5,141.5C 311.278,146.78 315.611,151.614 320.5,156C 332.974,165.559 345.64,165.893 358.5,157C 356.959,155.629 355.625,154.129 354.5,152.5C 359.695,152.821 364.695,152.487 369.5,151.5C 370.947,152.134 371.613,153.301 371.5,155C 367.353,166.087 359.353,172.421 347.5,174C 325.821,175.244 309.655,166.411 299,147.5C 298.167,144.829 298.667,142.496 300.5,140.5 Z"/></g>
<g><path style="opacity:1" fill="#f8ccbc" d="M 257.5,152.5 C 257.665,155.85 257.498,159.183 257,162.5C 256.392,164.066 255.558,165.4 254.5,166.5C 233.431,165.595 212.431,165.595 191.5,166.5C 189.243,162.395 187.576,158.061 186.5,153.5C 202.668,153.698 218.835,154.031 235,154.5C 242.735,154.466 250.235,153.799 257.5,152.5 Z"/></g>
<g><path style="opacity:1" fill="#f8c5b7" d="M 254.5,166.5 C 246.005,176.425 235.671,183.925 223.5,189C 220.167,189.667 216.833,189.667 213.5,189C 204.623,182.957 197.29,175.457 191.5,166.5C 212.431,165.595 233.431,165.595 254.5,166.5 Z"/></g>
<g><path style="opacity:1" fill="#3f3f4c" d="M 89.5,207.5 C 86.081,209.115 82.4143,210.115 78.5,210.5C 78.9099,201.75 78.4099,193.084 77,184.5C 75.2672,182.398 73.2672,182.065 71,183.5C 70.5002,192.16 70.3336,200.827 70.5,209.5C 66.5234,209.371 62.8567,209.371 59.5,209.5C 56.7029,207.205 54.0362,204.705 51.5,202C 48.5395,200.121 45.3728,198.621 42,197.5C 39.2765,198.208 38.2765,199.875 39,202.5C 42.2913,203.975 45.1246,205.975 47.5,208.5C 41.8333,208.5 36.1667,208.5 30.5,208.5C 26.2346,201.348 27.2346,194.848 33.5,189C 43.0993,185.189 51.5993,187.022 59,194.5C 59.1011,189.054 59.7677,183.721 61,178.5C 66.7731,171.028 73.9398,169.528 82.5,174C 86.8461,178.178 89.0128,183.345 89,189.5C 89.4995,195.491 89.6662,201.491 89.5,207.5 Z"/></g>
<g><path style="opacity:1" fill="#b96861" d="M 180.5,168.5 C 187.21,180.713 196.543,190.546 208.5,198C 211.923,199.904 215.59,200.737 219.5,200.5C 219.5,203.833 219.5,207.167 219.5,210.5C 212.345,210.615 206.012,208.449 200.5,204C 190.815,200.394 182.815,202.561 176.5,210.5C 172.074,214.917 168.074,219.584 164.5,224.5C 162.5,222.833 160.5,221.167 158.5,219.5C 160.1,217.429 160.6,215.095 160,212.5C 155.963,208.631 152.13,204.631 148.5,200.5C 158.833,189.5 169.5,178.833 180.5,168.5 Z"/></g>
<g><path style="opacity:1" fill="#dd817c" d="M 260.5,185.5 C 252.54,195.152 242.54,201.819 230.5,205.5C 229.183,202.77 229.183,199.937 230.5,197C 241.202,191.987 250.869,185.487 259.5,177.5C 260.48,180.086 260.813,182.753 260.5,185.5 Z"/></g>
<g><path style="opacity:1" fill="#f0d2cc" d="M 78.5,210.5 C 78.719,211.675 78.3857,212.675 77.5,213.5C 75.2534,212.626 72.9201,212.292 70.5,212.5C 70.5,211.5 70.5,210.5 70.5,209.5C 70.3336,200.827 70.5002,192.16 71,183.5C 73.2672,182.065 75.2672,182.398 77,184.5C 78.4099,193.084 78.9099,201.75 78.5,210.5 Z"/></g>
<g><path style="opacity:1" fill="#5c754b" d="M 298.5,213.5 C 296.527,216.139 294.194,218.473 291.5,220.5C 287.966,214.422 283.299,209.422 277.5,205.5C 280.283,200.97 284.283,199.47 289.5,201C 292.667,204.167 295.833,207.333 299,210.5C 299.47,211.577 299.303,212.577 298.5,213.5 Z"/></g>
<g><path style="opacity:1" fill="#5c754b" d="M 345.5,214.5 C 349.269,219.445 352.435,224.778 355,230.5C 357.375,235.072 356.875,239.238 353.5,243C 348.473,245.513 343.473,248.013 338.5,250.5C 337.585,238.835 332.585,229.335 323.5,222C 321.593,220.878 319.593,220.045 317.5,219.5C 314.287,219.19 311.287,219.523 308.5,220.5C 307.833,220.5 307.167,220.5 306.5,220.5C 307.441,218.228 308.774,216.228 310.5,214.5C 314.332,210.836 318.332,207.336 322.5,204C 327.292,201.968 331.959,202.301 336.5,205C 339.732,208.062 342.732,211.229 345.5,214.5 Z"/></g>
<g><path style="opacity:1" fill="#f3d6d0" d="M 59.5,209.5 C 59.6775,210.695 60.0109,211.862 60.5,213C 59.0456,214.713 57.2123,215.88 55,216.5C 52.9999,213.334 50.4999,210.668 47.5,208.5C 45.1246,205.975 42.2913,203.975 39,202.5C 38.2765,199.875 39.2765,198.208 42,197.5C 45.3728,198.621 48.5395,200.121 51.5,202C 54.0362,204.705 56.7029,207.205 59.5,209.5 Z"/></g>
<g><path style="opacity:1" fill="#89a677" d="M 277.5,205.5 C 283.299,209.422 287.966,214.422 291.5,220.5C 280.393,233.728 269.059,246.728 257.5,259.5C 258.544,247.85 259.544,236.183 260.5,224.5C 260.48,223.274 260.147,222.274 259.5,221.5C 262.806,218.86 265.806,215.86 268.5,212.5C 271.681,210.408 274.681,208.075 277.5,205.5 Z"/></g>
<g><path style="opacity:1" fill="#3a394b" d="M 89.5,207.5 C 89.7507,210.909 89.4173,214.242 88.5,217.5C 90.2533,220.005 91.7533,222.671 93,225.5C 93.3333,237.833 93.6667,250.167 94,262.5C 97.8609,273.22 102.528,283.553 108,293.5C 122.182,282.741 136.182,271.741 150,260.5C 149.004,257.494 147.671,254.494 146,251.5C 143.749,243.191 145.915,236.357 152.5,231C 156.753,229.045 160.753,226.878 164.5,224.5C 168.074,219.584 172.074,214.917 176.5,210.5C 181.654,211.006 186.654,211.673 191.5,212.5C 184.017,216.484 178.35,222.318 174.5,230C 185.115,242.952 197.282,254.119 211,263.5C 212.267,267.731 210.767,270.398 206.5,271.5C 203.893,270.863 201.56,269.696 199.5,268C 187.166,258.748 176,248.248 166,236.5C 162.771,237.53 159.938,239.196 157.5,241.5C 156.438,244.103 156.272,246.77 157,249.5C 176.538,271.552 199.371,289.218 225.5,302.5C 228.678,305.258 232.345,307.258 236.5,308.5C 238.117,309.972 240.117,310.639 242.5,310.5C 246.855,310.16 250.855,308.826 254.5,306.5C 267.214,299.818 279.214,292.151 290.5,283.5C 295.643,280.425 300.643,277.092 305.5,273.5C 309.146,271.183 312.48,268.516 315.5,265.5C 322.996,260.251 330.663,255.251 338.5,250.5C 343.473,248.013 348.473,245.513 353.5,243C 356.875,239.238 357.375,235.072 355,230.5C 352.435,224.778 349.269,219.445 345.5,214.5C 349.701,213.264 354.035,213.264 358.5,214.5C 363.046,221.123 366.046,228.457 367.5,236.5C 367.043,244.086 363.543,249.753 357,253.5C 350.792,275.993 351.292,298.327 358.5,320.5C 354.936,319.577 351.269,319.244 347.5,319.5C 345.872,315.001 344.539,310.334 343.5,305.5C 342.616,294.193 342.283,282.86 342.5,271.5C 343.61,267.447 343.943,263.447 343.5,259.5C 335.382,263.879 328.049,269.212 321.5,275.5C 326.804,289.918 328.471,304.584 326.5,319.5C 323.545,318.841 320.545,318.508 317.5,318.5C 318.018,308.532 317.018,298.866 314.5,289.5C 314.174,286.689 313.341,284.022 312,281.5C 292.729,296.223 272.229,309.056 250.5,320C 245.5,320.667 240.5,320.667 235.5,320C 215.334,310.144 196.501,298.311 179,284.5C 177.711,286.645 176.878,288.978 176.5,291.5C 174.82,299.725 174.153,308.059 174.5,316.5C 171.167,316.5 167.833,316.5 164.5,316.5C 163.596,315.791 163.263,314.791 163.5,313.5C 163.684,301.572 165.684,289.905 169.5,278.5C 166.886,274.052 163.386,270.385 159,267.5C 157.008,268.328 155.508,269.661 154.5,271.5C 147.52,276.484 140.854,281.817 134.5,287.5C 131.227,289.434 128.227,291.768 125.5,294.5C 130.529,300.559 134.529,307.226 137.5,314.5C 134.375,315.479 131.042,315.813 127.5,315.5C 124.42,310.57 121.087,305.737 117.5,301C 115.565,301.058 113.898,301.891 112.5,303.5C 110.074,305.38 107.408,306.713 104.5,307.5C 99.6812,303.217 96.3478,297.884 94.5,291.5C 92.8007,288.101 91.134,284.768 89.5,281.5C 88.6226,278.699 87.4559,276.032 86,273.5C 79.9198,279.123 72.7532,282.456 64.5,283.5C 64.9075,288.537 65.5742,293.537 66.5,298.5C 67.134,302.373 68.134,306.039 69.5,309.5C 69.5,311.167 69.5,312.833 69.5,314.5C 65.8333,314.5 62.1667,314.5 58.5,314.5C 56.7793,303.73 54.6126,293.063 52,282.5C 44.7756,277.731 40.2756,271.064 38.5,262.5C 27.003,260.032 21.6697,252.865 22.5,241C 22.8188,228.508 29.1521,221.008 41.5,218.5C 37.8133,215.145 34.1466,211.811 30.5,208.5C 36.1667,208.5 41.8333,208.5 47.5,208.5C 50.4999,210.668 52.9999,213.334 55,216.5C 57.2123,215.88 59.0456,214.713 60.5,213C 60.0109,211.862 59.6775,210.695 59.5,209.5C 62.8567,209.371 66.5234,209.371 70.5,209.5C 70.5,210.5 70.5,211.5 70.5,212.5C 72.9201,212.292 75.2534,212.626 77.5,213.5C 78.3857,212.675 78.719,211.675 78.5,210.5C 82.4143,210.115 86.081,209.115 89.5,207.5 Z"/></g>
<g><path style="opacity:1" fill="#f8c3ba" d="M 260.5,185.5 C 261.34,190.831 262.006,196.331 262.5,202C 260.462,205.885 257.796,209.385 254.5,212.5C 253.5,213.167 252.5,213.833 251.5,214.5C 251.082,213.778 250.416,213.278 249.5,213C 243.319,212.181 237.319,212.347 231.5,213.5C 230.662,213.158 230.328,212.492 230.5,211.5C 230.5,209.5 230.5,207.5 230.5,205.5C 242.54,201.819 252.54,195.152 260.5,185.5 Z"/></g>
<g><path style="opacity:1" fill="#3a3a4c" d="M 193.5,212.5 C 205.655,211.505 217.989,211.171 230.5,211.5C 230.328,212.492 230.662,213.158 231.5,213.5C 231.335,217.182 231.501,220.848 232,224.5C 232.197,226.861 233.364,228.528 235.5,229.5C 240.88,224.45 246.213,219.45 251.5,214.5C 252.5,213.833 253.5,213.167 254.5,212.5C 259.167,212.5 263.833,212.5 268.5,212.5C 265.806,215.86 262.806,218.86 259.5,221.5C 253.474,227.195 247.474,232.861 241.5,238.5C 237.183,241.486 233.183,244.82 229.5,248.5C 221.715,251.688 214.381,250.855 207.5,246C 204.582,242.528 204.915,239.528 208.5,237C 209.833,236.333 211.167,236.333 212.5,237C 217.727,241.781 222.727,241.614 227.5,236.5C 216.459,227.989 205.126,219.989 193.5,212.5 Z"/></g>
<g><path style="opacity:1" fill="#f5ccc5" d="M 251.5,214.5 C 246.213,219.45 240.88,224.45 235.5,229.5C 233.364,228.528 232.197,226.861 232,224.5C 231.501,220.848 231.335,217.182 231.5,213.5C 237.319,212.347 243.319,212.181 249.5,213C 250.416,213.278 251.082,213.778 251.5,214.5 Z"/></g>
<g><path style="opacity:1" fill="#393a4b" d="M 298.5,213.5 C 302.702,213.183 306.702,213.517 310.5,214.5C 308.774,216.228 307.441,218.228 306.5,220.5C 301.49,225.512 296.823,230.845 292.5,236.5C 279.923,250.019 267.59,263.686 255.5,277.5C 249.501,277.998 247.334,275.331 249,269.5C 252.078,266.321 254.912,262.988 257.5,259.5C 269.059,246.728 280.393,233.728 291.5,220.5C 294.194,218.473 296.527,216.139 298.5,213.5 Z"/></g>
<g><path style="opacity:1" fill="#39384a" d="M 483.5,322.5 C 479.936,321.577 476.269,321.244 472.5,321.5C 472.704,318.482 473.037,315.482 473.5,312.5C 478.255,283.299 478.755,253.965 475,224.5C 474.692,223.692 474.192,223.025 473.5,222.5C 469.991,226.176 467.491,230.509 466,235.5C 465.647,260.342 463.48,285.009 459.5,309.5C 458.497,313.521 457.497,317.521 456.5,321.5C 453.167,321.5 449.833,321.5 446.5,321.5C 450.561,299.344 453.228,277.01 454.5,254.5C 454.167,251.833 453.833,249.167 453.5,246.5C 435.979,261.189 418.312,275.689 400.5,290C 393.837,291.666 391.004,289.166 392,282.5C 412.542,264.956 433.376,247.789 454.5,231C 457.642,224.183 461.976,218.183 467.5,213C 470.944,210.944 474.611,209.444 478.5,208.5C 480.697,208.848 482.53,209.848 484,211.5C 490.137,248.54 489.97,285.54 483.5,322.5 Z"/></g>
<g><path style="opacity:1" fill="#829b6f" d="M 317.5,219.5 C 316.478,232.992 315.478,246.492 314.5,260C 314.506,262.033 314.839,263.866 315.5,265.5C 312.48,268.516 309.146,271.183 305.5,273.5C 306.547,255.836 307.547,238.169 308.5,220.5C 311.287,219.523 314.287,219.19 317.5,219.5 Z"/></g>
<g><path style="opacity:1" fill="#82a16f" d="M 306.5,220.5 C 307.167,220.5 307.833,220.5 308.5,220.5C 307.547,238.169 306.547,255.836 305.5,273.5C 300.643,277.092 295.643,280.425 290.5,283.5C 289.844,282.378 289.511,281.045 289.5,279.5C 290.81,265.185 291.81,250.852 292.5,236.5C 296.823,230.845 301.49,225.512 306.5,220.5 Z"/></g>
<g><path style="opacity:1" fill="#7c9b69" d="M 317.5,219.5 C 319.593,220.045 321.593,220.878 323.5,222C 332.585,229.335 337.585,238.835 338.5,250.5C 330.663,255.251 322.996,260.251 315.5,265.5C 314.839,263.866 314.506,262.033 314.5,260C 315.478,246.492 316.478,232.992 317.5,219.5 Z"/></g>
<g><path style="opacity:1" fill="#8fae7c" d="M 259.5,221.5 C 260.147,222.274 260.48,223.274 260.5,224.5C 259.544,236.183 258.544,247.85 257.5,259.5C 254.912,262.988 252.078,266.321 249,269.5C 247.334,275.331 249.501,277.998 255.5,277.5C 256.156,278.622 256.489,279.955 256.5,281.5C 255.745,289.832 255.078,298.165 254.5,306.5C 250.855,308.826 246.855,310.16 242.5,310.5C 240.117,310.639 238.117,309.972 236.5,308.5C 238.356,285.187 240.022,261.854 241.5,238.5C 247.474,232.861 253.474,227.195 259.5,221.5 Z"/></g>
<g><path style="opacity:1" fill="#f6ccc5" d="M 82.5,234.5 C 78.4767,235.075 74.4767,235.741 70.5,236.5C 69.9423,235.21 68.9423,234.377 67.5,234C 64.8333,233.667 62.1667,233.333 59.5,233C 56.7265,231.395 56.0598,229.228 57.5,226.5C 64.2094,223.617 71.2094,222.784 78.5,224C 82.0482,226.591 83.3815,230.091 82.5,234.5 Z"/></g>
<g><path style="opacity:1" fill="#f1c3bc" d="M 41.5,229.5 C 43.1667,229.5 44.8333,229.5 46.5,229.5C 46.5465,232.928 47.7132,235.928 50,238.5C 51.8163,246.512 48.6496,250.512 40.5,250.5C 38.5711,250.46 36.7378,250.127 35,249.5C 31.2601,240.629 33.4268,233.963 41.5,229.5 Z"/></g>
<g><path style="opacity:1" fill="#94ad82" d="M 241.5,238.5 C 240.022,261.854 238.356,285.187 236.5,308.5C 232.345,307.258 228.678,305.258 225.5,302.5C 227.594,296.676 227.928,290.676 226.5,284.5C 231.85,285.137 234.017,282.803 233,277.5C 231.5,275.531 229.667,274.198 227.5,273.5C 229.051,266.219 230.051,258.719 230.5,251C 230.472,249.93 230.139,249.097 229.5,248.5C 233.183,244.82 237.183,241.486 241.5,238.5 Z"/></g>
<g><path style="opacity:1" fill="#89a576" d="M 292.5,236.5 C 291.81,250.852 290.81,265.185 289.5,279.5C 289.511,281.045 289.844,282.378 290.5,283.5C 279.214,292.151 267.214,299.818 254.5,306.5C 255.078,298.165 255.745,289.832 256.5,281.5C 256.489,279.955 256.156,278.622 255.5,277.5C 267.59,263.686 279.923,250.019 292.5,236.5 Z"/></g>
<g><path style="opacity:1" fill="#f7beb4" d="M 82.5,234.5 C 82.6665,243.839 82.4998,253.173 82,262.5C 74.3276,272.182 64.9943,274.848 54,270.5C 51.6884,267.543 50.1884,264.209 49.5,260.5C 55.9532,256.7 59.6199,251.033 60.5,243.5C 63.1873,243.664 65.854,243.497 68.5,243C 70.229,241.211 70.8957,239.044 70.5,236.5C 74.4767,235.741 78.4767,235.075 82.5,234.5 Z"/></g>
<g><path style="opacity:1" fill="#9ab688" d="M 191.5,212.5 C 192.167,212.5 192.833,212.5 193.5,212.5C 205.126,219.989 216.459,227.989 227.5,236.5C 222.727,241.614 217.727,241.781 212.5,237C 211.167,236.333 209.833,236.333 208.5,237C 204.915,239.528 204.582,242.528 207.5,246C 214.381,250.855 221.715,251.688 229.5,248.5C 230.139,249.097 230.472,249.93 230.5,251C 230.051,258.719 229.051,266.219 227.5,273.5C 222.011,274.331 220.344,277.331 222.5,282.5C 223.577,283.705 224.91,284.372 226.5,284.5C 227.928,290.676 227.594,296.676 225.5,302.5C 199.371,289.218 176.538,271.552 157,249.5C 156.272,246.77 156.438,244.103 157.5,241.5C 159.938,239.196 162.771,237.53 166,236.5C 176,248.248 187.166,258.748 199.5,268C 201.56,269.696 203.893,270.863 206.5,271.5C 210.767,270.398 212.267,267.731 211,263.5C 197.282,254.119 185.115,242.952 174.5,230C 178.35,222.318 184.017,216.484 191.5,212.5 Z"/></g>
<g><path style="opacity:1" fill="#dd817c" d="M 342.5,271.5 C 338.039,273.387 334.372,276.22 331.5,280C 333.246,289.077 333.912,298.244 333.5,307.5C 333.154,317.53 331.154,327.197 327.5,336.5C 325.859,334.713 324.859,332.546 324.5,330C 325.409,326.534 326.076,323.034 326.5,319.5C 328.471,304.584 326.804,289.918 321.5,275.5C 328.049,269.212 335.382,263.879 343.5,259.5C 343.943,263.447 343.61,267.447 342.5,271.5 Z"/></g>
<g><path style="opacity:1" fill="#df837e" d="M 163.5,313.5 C 161.475,315.196 159.475,316.863 157.5,318.5C 155.973,318.573 154.973,317.906 154.5,316.5C 158.375,301.525 158.375,286.525 154.5,271.5C 155.508,269.661 157.008,268.328 159,267.5C 163.386,270.385 166.886,274.052 169.5,278.5C 165.684,289.905 163.684,301.572 163.5,313.5 Z"/></g>
<g><path style="opacity:1" fill="#3b3b4c" d="M 227.5,273.5 C 229.667,274.198 231.5,275.531 233,277.5C 234.017,282.803 231.85,285.137 226.5,284.5C 224.91,284.372 223.577,283.705 222.5,282.5C 220.344,277.331 222.011,274.331 227.5,273.5 Z"/></g>
<g><path style="opacity:1" fill="#dee9f0" d="M 89.5,281.5 C 83.8774,289.77 76.2107,295.437 66.5,298.5C 65.5742,293.537 64.9075,288.537 64.5,283.5C 72.7532,282.456 79.9198,279.123 86,273.5C 87.4559,276.032 88.6226,278.699 89.5,281.5 Z"/></g>
<g><path style="opacity:1" fill="#d7a79b" d="M 314.5,289.5 C 298.303,300.099 282.636,311.432 267.5,323.5C 259.745,330.693 250.745,332.86 240.5,330C 236.567,327.864 232.567,326.031 228.5,324.5C 210.193,315.014 192.86,304.014 176.5,291.5C 176.878,288.978 177.711,286.645 179,284.5C 196.501,298.311 215.334,310.144 235.5,320C 240.5,320.667 245.5,320.667 250.5,320C 272.229,309.056 292.729,296.223 312,281.5C 313.341,284.022 314.174,286.689 314.5,289.5 Z"/></g>
<g><path style="opacity:1" fill="#e46660" d="M 473.5,312.5 C 468.833,311.5 464.167,310.5 459.5,309.5C 463.48,285.009 465.647,260.342 466,235.5C 467.491,230.509 469.991,226.176 473.5,222.5C 474.192,223.025 474.692,223.692 475,224.5C 478.755,253.965 478.255,283.299 473.5,312.5 Z"/></g>
<g><path style="opacity:1" fill="#aec6d8" d="M 89.5,281.5 C 91.134,284.768 92.8007,288.101 94.5,291.5C 87.4118,298.591 79.0785,303.591 69.5,306.5C 69.5,307.5 69.5,308.5 69.5,309.5C 68.134,306.039 67.134,302.373 66.5,298.5C 76.2107,295.437 83.8774,289.77 89.5,281.5 Z"/></g>
<g><path style="opacity:1" fill="#f8cfc8" d="M 154.5,271.5 C 158.375,286.525 158.375,301.525 154.5,316.5C 153.167,316.5 151.833,316.5 150.5,316.5C 150.918,315.778 151.584,315.278 152.5,315C 146.352,305.854 140.352,296.687 134.5,287.5C 140.854,281.817 147.52,276.484 154.5,271.5 Z"/></g>
<g><path style="opacity:1" fill="#f7d9d3" d="M 134.5,287.5 C 140.352,296.687 146.352,305.854 152.5,315C 151.584,315.278 150.918,315.778 150.5,316.5C 147.518,318.474 144.518,320.474 141.5,322.5C 140.125,319.75 138.792,317.084 137.5,314.5C 134.529,307.226 130.529,300.559 125.5,294.5C 128.227,291.768 131.227,289.434 134.5,287.5 Z"/></g>
<g><path style="opacity:1" fill="#37374a" d="M 373.5,296.5 C 380.442,294.943 383.275,297.61 382,304.5C 378.577,309.885 374.577,310.551 370,306.5C 369.333,304.5 369.333,302.5 370,300.5C 371.376,299.295 372.542,297.962 373.5,296.5 Z"/></g>
<g><path style="opacity:1" fill="#f6c1b8" d="M 342.5,271.5 C 342.283,282.86 342.616,294.193 343.5,305.5C 339.821,305.06 336.488,305.727 333.5,307.5C 333.912,298.244 333.246,289.077 331.5,280C 334.372,276.22 338.039,273.387 342.5,271.5 Z"/></g>
<g><path style="opacity:1" fill="#e9f1f6" d="M 94.5,291.5 C 96.3478,297.884 99.6812,303.217 104.5,307.5C 104.702,309.95 104.369,312.283 103.5,314.5C 93.3323,319.413 83.6656,325.08 74.5,331.5C 72.7271,325.859 71.0605,320.192 69.5,314.5C 69.5,312.833 69.5,311.167 69.5,309.5C 69.5,308.5 69.5,307.5 69.5,306.5C 79.0785,303.591 87.4118,298.591 94.5,291.5 Z"/></g>
<g><path style="opacity:1" fill="#afc7d9" d="M 112.5,303.5 C 113.669,317.479 111.336,330.813 105.5,343.5C 100.919,346.622 95.9194,348.956 90.5,350.5C 97.2069,339.381 101.54,327.381 103.5,314.5C 104.369,312.283 104.702,309.95 104.5,307.5C 107.408,306.713 110.074,305.38 112.5,303.5 Z"/></g>
<g><path style="opacity:1" fill="#f7eae0" d="M 314.5,289.5 C 317.018,298.866 318.018,308.532 317.5,318.5C 316.463,319.93 315.796,321.597 315.5,323.5C 299.335,324.478 283.335,324.478 267.5,323.5C 282.636,311.432 298.303,300.099 314.5,289.5 Z"/></g>
<g><path style="opacity:1" fill="#f8ebe1" d="M 176.5,291.5 C 192.86,304.014 210.193,315.014 228.5,324.5C 211.692,326.065 194.692,326.731 177.5,326.5C 176.503,323.183 175.503,319.85 174.5,316.5C 174.153,308.059 174.82,299.725 176.5,291.5 Z"/></g>
<g><path style="opacity:1" fill="#393945" d="M 58.5,314.5 C 62.1667,314.5 65.8333,314.5 69.5,314.5C 71.0605,320.192 72.7271,325.859 74.5,331.5C 76.3791,339.68 78.8791,347.68 82,355.5C 84.9788,353.933 87.8121,352.266 90.5,350.5C 95.9194,348.956 100.919,346.622 105.5,343.5C 113.94,339.111 122.274,334.444 130.5,329.5C 130.833,328.833 131.167,328.167 131.5,327.5C 130.156,323.484 128.822,319.484 127.5,315.5C 131.042,315.813 134.375,315.479 137.5,314.5C 138.792,317.084 140.125,319.75 141.5,322.5C 144.518,320.474 147.518,318.474 150.5,316.5C 151.833,316.5 153.167,316.5 154.5,316.5C 154.973,317.906 155.973,318.573 157.5,318.5C 157.662,320.527 157.495,322.527 157,324.5C 132.953,342.616 106.786,357.282 78.5,368.5C 75.8854,368.144 74.0521,366.811 73,364.5C 67.226,348.065 62.3927,331.398 58.5,314.5 Z"/></g>
<g><path style="opacity:1" fill="#393945" d="M 164.5,316.5 C 167.833,316.5 171.167,316.5 174.5,316.5C 175.503,319.85 176.503,323.183 177.5,326.5C 185.031,341.934 197.364,348.434 214.5,346C 224.657,344.277 234.824,342.777 245,341.5C 257.446,343.489 269.946,345.155 282.5,346.5C 298.869,346.486 309.869,338.819 315.5,323.5C 315.796,321.597 316.463,319.93 317.5,318.5C 320.545,318.508 323.545,318.841 326.5,319.5C 326.076,323.034 325.409,326.534 324.5,330C 324.859,332.546 325.859,334.713 327.5,336.5C 327.962,338.757 328.962,340.757 330.5,342.5C 337.219,337.757 343.553,332.757 349.5,327.5C 348.622,324.87 347.955,322.203 347.5,319.5C 351.269,319.244 354.936,319.577 358.5,320.5C 370.3,348.11 386.133,373.11 406,395.5C 408.064,396.591 410.231,396.758 412.5,396C 420.958,386.264 427.792,375.43 433,363.5C 438.446,349.688 442.946,335.688 446.5,321.5C 449.833,321.5 453.167,321.5 456.5,321.5C 452.051,346.016 443.551,369.016 431,390.5C 428.636,393.69 426.136,396.69 423.5,399.5C 414.167,398.167 404.833,398.167 395.5,399.5C 393.167,396.833 390.833,394.167 388.5,391.5C 386.397,388.28 384.064,385.28 381.5,382.5C 376.733,375.286 371.733,368.286 366.5,361.5C 365.226,358.24 363.56,355.24 361.5,352.5C 359.267,347.701 356.767,343.035 354,338.5C 347.311,342.678 340.978,347.345 335,352.5C 336.101,360.187 338.267,367.52 341.5,374.5C 342.376,378.582 344.043,382.249 346.5,385.5C 348.317,389.801 350.65,393.801 353.5,397.5C 349.167,397.5 344.833,397.5 340.5,397.5C 331.883,383.25 325.716,367.916 322,351.5C 320.589,348.421 319.089,345.421 317.5,342.5C 315.81,345.024 313.643,347.024 311,348.5C 304.416,363.917 301.25,379.917 301.5,396.5C 297.833,396.5 294.167,396.5 290.5,396.5C 290.5,392.5 290.5,388.5 290.5,384.5C 290.401,381.763 290.735,379.096 291.5,376.5C 292.739,369.737 294.406,363.07 296.5,356.5C 281.678,357.598 267.011,356.098 252.5,352C 247.5,351.333 242.5,351.333 237.5,352C 228.3,354.407 218.967,356.24 209.5,357.5C 210.365,360.662 211.365,363.662 212.5,366.5C 213.886,372.095 214.886,377.762 215.5,383.5C 216.162,387.466 216.495,391.466 216.5,395.5C 212.833,395.5 209.167,395.5 205.5,395.5C 205.007,382.37 202.341,369.704 197.5,357.5C 183.335,353.003 173.169,344.003 167,330.5C 165.208,326 164.375,321.333 164.5,316.5 Z"/></g>
<g><path style="opacity:1" fill="#f2f9f9" d="M 103.5,314.5 C 101.54,327.381 97.2069,339.381 90.5,350.5C 87.8121,352.266 84.9788,353.933 82,355.5C 78.8791,347.68 76.3791,339.68 74.5,331.5C 83.6656,325.08 93.3323,319.413 103.5,314.5 Z"/></g>
<g><path style="opacity:1" fill="#f2f5f6" d="M 127.5,315.5 C 128.822,319.484 130.156,323.484 131.5,327.5C 131.167,328.167 130.833,328.833 130.5,329.5C 122.274,334.444 113.94,339.111 105.5,343.5C 111.336,330.813 113.669,317.479 112.5,303.5C 113.898,301.891 115.565,301.058 117.5,301C 121.087,305.737 124.42,310.57 127.5,315.5 Z"/></g>
<g><path style="opacity:1" fill="#f6d0c9" d="M 343.5,305.5 C 344.539,310.334 345.872,315.001 347.5,319.5C 347.955,322.203 348.622,324.87 349.5,327.5C 343.553,332.757 337.219,337.757 330.5,342.5C 328.962,340.757 327.962,338.757 327.5,336.5C 331.154,327.197 333.154,317.53 333.5,307.5C 336.488,305.727 339.821,305.06 343.5,305.5 Z"/></g>
<g><path style="opacity:1" fill="#393844" d="M 472.5,321.5 C 476.269,321.244 479.936,321.577 483.5,322.5C 478.727,350.169 469.061,375.836 454.5,399.5C 450.5,399.5 446.5,399.5 442.5,399.5C 457.015,375.296 467.015,349.296 472.5,321.5 Z"/></g>
<g><path style="opacity:1" fill="#f6e5df" d="M 267.5,323.5 C 283.335,324.478 299.335,324.478 315.5,323.5C 309.869,338.819 298.869,346.486 282.5,346.5C 269.946,345.155 257.446,343.489 245,341.5C 234.824,342.777 224.657,344.277 214.5,346C 197.364,348.434 185.031,341.934 177.5,326.5C 194.692,326.731 211.692,326.065 228.5,324.5C 232.567,326.031 236.567,327.864 240.5,330C 250.745,332.86 259.745,330.693 267.5,323.5 Z"/></g>
<g><path style="opacity:1" fill="#edf4f6" d="M 361.5,352.5 C 356.276,357.221 351.109,362.221 346,367.5C 344.277,369.717 342.777,372.05 341.5,374.5C 338.267,367.52 336.101,360.187 335,352.5C 340.978,347.345 347.311,342.678 354,338.5C 356.767,343.035 359.267,347.701 361.5,352.5 Z"/></g>
<g><path style="opacity:1" fill="#d8a79b" d="M 291.5,376.5 C 266.15,373.212 240.817,369.545 215.5,365.5C 214.274,365.52 213.274,365.853 212.5,366.5C 211.365,363.662 210.365,360.662 209.5,357.5C 218.967,356.24 228.3,354.407 237.5,352C 242.5,351.333 247.5,351.333 252.5,352C 267.011,356.098 281.678,357.598 296.5,356.5C 294.406,363.07 292.739,369.737 291.5,376.5 Z"/></g>
<g><path style="opacity:1" fill="#afc7d9" d="M 361.5,352.5 C 363.56,355.24 365.226,358.24 366.5,361.5C 357.225,367.432 350.558,375.432 346.5,385.5C 344.043,382.249 342.376,378.582 341.5,374.5C 342.777,372.05 344.277,369.717 346,367.5C 351.109,362.221 356.276,357.221 361.5,352.5 Z"/></g>
<g><path style="opacity:1" fill="#f4736c" d="M 459.5,309.5 C 464.167,310.5 468.833,311.5 473.5,312.5C 473.037,315.482 472.704,318.482 472.5,321.5C 467.015,349.296 457.015,375.296 442.5,399.5C 439.418,403.984 436.084,408.317 432.5,412.5C 429.147,409.313 425.647,406.313 422,403.5C 421.7,401.934 422.2,400.601 423.5,399.5C 426.136,396.69 428.636,393.69 431,390.5C 443.551,369.016 452.051,346.016 456.5,321.5C 457.497,317.521 458.497,313.521 459.5,309.5 Z"/></g>
<g><path style="opacity:1" fill="#dfeaf1" d="M 366.5,361.5 C 371.733,368.286 376.733,375.286 381.5,382.5C 376.592,384.954 371.592,387.454 366.5,390C 362.617,393.098 358.617,395.932 354.5,398.5C 354.5,397.833 354.167,397.5 353.5,397.5C 350.65,393.801 348.317,389.801 346.5,385.5C 350.558,375.432 357.225,367.432 366.5,361.5 Z"/></g>
<g><path style="opacity:1" fill="#f2e0d5" d="M 291.5,376.5 C 290.735,379.096 290.401,381.763 290.5,384.5C 272.663,384.581 254.83,384.914 237,385.5C 229.598,385.464 222.431,384.797 215.5,383.5C 214.886,377.762 213.886,372.095 212.5,366.5C 213.274,365.853 214.274,365.52 215.5,365.5C 240.817,369.545 266.15,373.212 291.5,376.5 Z"/></g>
<g><path style="opacity:1" fill="#aec7d9" d="M 381.5,382.5 C 384.064,385.28 386.397,388.28 388.5,391.5C 377.317,392.707 368.317,397.707 361.5,406.5C 358.705,404.249 356.372,401.582 354.5,398.5C 358.617,395.932 362.617,393.098 366.5,390C 371.592,387.454 376.592,384.954 381.5,382.5 Z"/></g>
<g><path style="opacity:1" fill="#f1d8d2" d="M 215.5,383.5 C 222.431,384.797 229.598,385.464 237,385.5C 254.83,384.914 272.663,384.581 290.5,384.5C 290.5,388.5 290.5,392.5 290.5,396.5C 290.5,397.5 290.5,398.5 290.5,399.5C 265.848,400.418 241.182,401.085 216.5,401.5C 216.5,399.5 216.5,397.5 216.5,395.5C 216.495,391.466 216.162,387.466 215.5,383.5 Z"/></g>
<g><path style="opacity:1" fill="#d0dee9" d="M 388.5,391.5 C 390.833,394.167 393.167,396.833 395.5,399.5C 386.904,404.928 379.737,411.928 374,420.5C 369.255,416.26 365.088,411.593 361.5,406.5C 368.317,397.707 377.317,392.707 388.5,391.5 Z"/></g>
<g><path style="opacity:1" fill="#343445" d="M 205.5,395.5 C 209.167,395.5 212.833,395.5 216.5,395.5C 216.5,397.5 216.5,399.5 216.5,401.5C 212.03,410.439 207.53,419.439 203,428.5C 200.95,432.302 199.95,436.302 200,440.5C 215.5,427.667 231,414.833 246.5,402C 253.999,401.331 255.999,404.331 252.5,411C 240.02,420.319 228.02,430.153 216.5,440.5C 211.329,444.834 205.995,449 200.5,453C 214.83,455.233 229.164,457.4 243.5,459.5C 222.816,460.773 202.149,460.44 181.5,458.5C 183.316,456.589 184.483,454.256 185,451.5C 188.274,433.957 194.607,417.624 204,402.5C 204.977,400.26 205.477,397.927 205.5,395.5 Z"/></g>
<g><path style="opacity:1" fill="#343344" d="M 290.5,396.5 C 294.167,396.5 297.833,396.5 301.5,396.5C 302.03,398.924 302.864,401.257 304,403.5C 315.175,415.848 322.675,430.181 326.5,446.5C 326.517,449.719 327.184,452.052 328.5,453.5C 343.239,450.422 357.073,445.089 370,437.5C 370.667,435.5 370.667,433.5 370,431.5C 358.464,421.476 348.63,410.143 340.5,397.5C 344.833,397.5 349.167,397.5 353.5,397.5C 354.167,397.5 354.5,397.833 354.5,398.5C 356.372,401.582 358.705,404.249 361.5,406.5C 365.088,411.593 369.255,416.26 374,420.5C 379.737,411.928 386.904,404.928 395.5,399.5C 404.833,398.167 414.167,398.167 423.5,399.5C 422.2,400.601 421.7,401.934 422,403.5C 425.647,406.313 429.147,409.313 432.5,412.5C 436.084,408.317 439.418,403.984 442.5,399.5C 446.5,399.5 450.5,399.5 454.5,399.5C 450.3,408.055 444.966,415.889 438.5,423C 440.463,431.642 438.296,439.142 432,445.5C 425.274,452.903 417.44,458.736 408.5,463C 405.081,463.248 401.747,463.748 398.5,464.5C 393.167,463.833 387.833,463.167 382.5,462.5C 384.316,460.863 386.316,459.363 388.5,458C 384.593,454.139 380.426,450.639 376,447.5C 363.035,454.071 349.535,459.071 335.5,462.5C 318.335,462.036 301.335,461.37 284.5,460.5C 295.499,459.728 306.499,458.728 317.5,457.5C 316.705,450.826 315.038,444.492 312.5,438.5C 308.211,427.925 302.377,418.258 295,409.5C 293.396,406.179 291.896,402.846 290.5,399.5C 290.5,398.5 290.5,397.5 290.5,396.5 Z"/></g>
<g><path style="opacity:1" fill="#f8c7be" d="M 409.5,407.5 C 409.5,421.833 409.5,436.167 409.5,450.5C 405.88,452.581 402.214,452.915 398.5,451.5C 400.482,437.873 401.149,423.873 400.5,409.5C 403.123,407.735 406.123,407.068 409.5,407.5 Z"/></g>
<g><path style="opacity:1" fill="#ebd3cc" d="M 290.5,399.5 C 291.896,402.846 293.396,406.179 295,409.5C 302.377,418.258 308.211,427.925 312.5,438.5C 283.335,439.765 254.002,440.765 224.5,441.5C 221.645,441.497 218.978,441.164 216.5,440.5C 228.02,430.153 240.02,420.319 252.5,411C 255.999,404.331 253.999,401.331 246.5,402C 231,414.833 215.5,427.667 200,440.5C 199.95,436.302 200.95,432.302 203,428.5C 207.53,419.439 212.03,410.439 216.5,401.5C 241.182,401.085 265.848,400.418 290.5,399.5 Z"/></g>
<g><path style="opacity:1" fill="#f6bab0" d="M 409.5,407.5 C 415.412,411.238 420.912,415.571 426,420.5C 429.232,425.468 429.232,430.468 426,435.5C 420.929,441.076 415.429,446.076 409.5,450.5C 409.5,436.167 409.5,421.833 409.5,407.5 Z"/></g>
<g><path style="opacity:1" fill="#f7d0c8" d="M 400.5,409.5 C 401.149,423.873 400.482,437.873 398.5,451.5C 392.621,448.13 387.455,443.797 383,438.5C 380.335,432.136 381.335,426.469 386,421.5C 390.144,416.51 394.977,412.51 400.5,409.5 Z"/></g>
<g><path style="opacity:1" fill="#ebccc6" d="M 312.5,438.5 C 315.038,444.492 316.705,450.826 317.5,457.5C 306.499,458.728 295.499,459.728 284.5,460.5C 270.808,460.74 257.141,460.407 243.5,459.5C 229.164,457.4 214.83,455.233 200.5,453C 205.995,449 211.329,444.834 216.5,440.5C 218.978,441.164 221.645,441.497 224.5,441.5C 254.002,440.765 283.335,439.765 312.5,438.5 Z"/></g>
<g><path style="opacity:1" fill="#e1c4c0" d="M 326.5,446.5 C 327.924,448.515 328.59,450.848 328.5,453.5C 327.184,452.052 326.517,449.719 326.5,446.5 Z"/></g>
<g><path style="opacity:1" fill="#34323e" d="M 181.5,458.5 C 202.149,460.44 222.816,460.773 243.5,459.5C 257.141,460.407 270.808,460.74 284.5,460.5C 301.335,461.37 318.335,462.036 335.5,462.5C 310.471,469.652 284.804,472.652 258.5,471.5C 239.21,469.757 220.043,467.091 201,463.5C 194.495,463.835 188.662,466.002 183.5,470C 208.033,476.421 233.033,480.255 258.5,481.5C 301.517,485.594 342.85,479.26 382.5,462.5C 387.833,463.167 393.167,463.833 398.5,464.5C 383.243,474.621 366.576,481.787 348.5,486C 288.232,497.671 228.566,495.005 169.5,478C 167.009,475.032 166.843,471.865 169,468.5C 172.484,464.169 176.651,460.836 181.5,458.5 Z"/></g>
<g><path style="opacity:1" fill="#ef6f68" d="M 382.5,462.5 C 342.85,479.26 301.517,485.594 258.5,481.5C 258.5,478.167 258.5,474.833 258.5,471.5C 284.804,472.652 310.471,469.652 335.5,462.5C 349.535,459.071 363.035,454.071 376,447.5C 380.426,450.639 384.593,454.139 388.5,458C 386.316,459.363 384.316,460.863 382.5,462.5 Z"/></g>
<g><path style="opacity:1" fill="#e1635c" d="M 258.5,471.5 C 258.5,474.833 258.5,478.167 258.5,481.5C 233.033,480.255 208.033,476.421 183.5,470C 188.662,466.002 194.495,463.835 201,463.5C 220.043,467.091 239.21,469.757 258.5,471.5 Z"/></g>
</svg>
