<?xml version="1.0" encoding="UTF-8"?>
<!DOCTYPE svg PUBLIC "-//W3C//DTD SVG 1.1//EN" "http://www.w3.org/Graphics/SVG/1.1/DTD/svg11.dtd">
<svg xmlns="http://www.w3.org/2000/svg" version="1.1" width="512px" height="512px" style="shape-rendering:geometricPrecision; text-rendering:geometricPrecision; image-rendering:optimizeQuality; fill-rule:evenodd; clip-rule:evenodd" xmlns:xlink="http://www.w3.org/1999/xlink">
<g><path style="opacity:1" fill="#000000" d="M 250.5,39.5 C 258.187,39.3395 265.187,41.5061 271.5,46C 290.65,57.8158 304.817,73.9825 314,94.5C 318.675,108.693 323.842,122.693 329.5,136.5C 346.935,141.382 363.602,148.215 379.5,157C 384.116,159.56 388.282,162.727 392,166.5C 394.19,171.028 393.856,175.361 391,179.5C 386.087,186.137 380.587,192.304 374.5,198C 375.701,198.903 376.535,200.069 377,201.5C 377.333,206.833 377.667,212.167 378,217.5C 394.681,238.592 408.681,261.592 420,286.5C 434.505,315.844 446.505,346.177 456,377.5C 456.747,380.853 456.247,384.02 454.5,387C 458.47,395.106 462.303,403.273 466,411.5C 467.081,419.342 463.748,424.008 456,425.5C 452.911,424.949 450.078,423.783 447.5,422C 442.289,414.412 436.956,406.912 431.5,399.5C 422.18,406.164 412.18,411.498 401.5,415.5C 398.613,415.373 396.113,414.373 394,412.5C 393.261,416.062 391.761,419.228 389.5,422C 377.913,426.862 366.246,431.529 354.5,436C 345.454,437.466 340.12,433.632 338.5,424.5C 320.23,440.628 301.23,455.795 281.5,470C 274.563,472.22 269.73,470.053 267,463.5C 260.881,469.294 254.047,470.127 246.5,466C 245.069,465.535 243.903,464.701 243,463.5C 237.333,472.741 230.166,473.908 221.5,467C 204.116,453.956 187.616,439.789 172,424.5C 171.138,422.913 170.471,421.246 170,419.5C 169.546,425.177 167.379,430.01 163.5,434C 160.594,435.318 157.594,435.652 154.5,435C 142.679,431.06 131.012,426.727 119.5,422C 117.65,419.982 115.65,418.149 113.5,416.5C 109.793,417.806 106.126,417.64 102.5,416C 93.3077,412.154 84.4744,407.654 76,402.5C 71.5322,409.268 66.6989,415.768 61.5,422C 50.2307,425.394 44.7307,421.228 45,409.5C 48.3715,401.924 51.8715,394.424 55.5,387C 52.4453,383.159 51.9453,378.992 54,374.5C 69.6159,325.942 90.6159,279.942 117,236.5C 122.23,230.387 127.23,224.054 132,217.5C 132.333,212.5 132.667,207.5 133,202.5C 133.465,201.069 134.299,199.903 135.5,199C 128.959,192.128 122.793,184.961 117,177.5C 115,173.833 115,170.167 117,166.5C 124.406,160.209 132.573,155.042 141.5,151C 153.5,145.611 165.833,141.111 178.5,137.5C 179.919,135.664 181.086,133.664 182,131.5C 186.606,117.68 191.606,104.013 197,90.5C 208.881,67.1157 226.715,50.1157 250.5,39.5 Z M 254.5,50.5 C 277.508,60.6748 294.008,77.3414 304,100.5C 308.656,116.472 314.489,131.972 321.5,147C 343.28,151.531 363.28,160.031 381.5,172.5C 367.518,189.649 352.018,205.316 335,219.5C 334.333,233.167 334.333,246.833 335,260.5C 342,272.5 349,284.5 356,296.5C 377.716,328.104 399.549,359.604 421.5,391C 420.66,392.767 419.327,394.101 417.5,395C 412.5,397.833 407.5,400.667 402.5,403.5C 384.812,382.156 370.646,358.489 360,332.5C 354.187,318.051 348.187,303.718 342,289.5C 351.235,331.708 364.402,372.708 381.5,412.5C 371.391,416.927 361.225,421.26 351,425.5C 343.015,375.937 335.681,326.271 329,276.5C 326.756,255.885 326.089,235.218 327,214.5C 340.683,202.317 353.516,189.317 365.5,175.5C 351.319,166.75 335.986,160.75 319.5,157.5C 319.303,153.378 318.47,149.378 317,145.5C 308.589,128.344 299.922,111.344 291,94.5C 290.333,95.8333 290.333,97.1667 291,98.5C 297.474,114.116 302.808,130.116 307,146.5C 310.3,163.299 306.966,178.632 297,192.5C 285.651,206.923 271.485,217.589 254.5,224.5C 234.187,216.02 218.353,202.353 207,183.5C 201.394,170.622 200.061,157.289 203,143.5C 207.971,127.253 213.305,111.253 219,95.5C 209.65,110.194 201.317,125.527 194,141.5C 191.882,146.638 190.715,151.971 190.5,157.5C 173.898,160.867 158.231,166.7 143.5,175C 148.625,181.793 154.125,188.293 160,194.5C 167.667,201.5 175.333,208.5 183,215.5C 183.159,243.264 181.492,270.93 178,298.5C 171.814,340.281 164.981,381.948 157.5,423.5C 146.472,420.49 135.805,416.49 125.5,411.5C 145.426,373.553 159.26,333.553 167,291.5C 156.309,317.222 144.642,342.555 132,367.5C 125.002,380.166 117.502,392.5 109.5,404.5C 108.635,405.583 107.635,405.749 106.5,405C 98.5545,401.694 90.8878,397.861 83.5,393.5C 109.024,360.809 133.19,327.143 156,292.5C 162.402,281.753 168.402,270.753 174,259.5C 175.52,246.538 175.853,233.538 175,220.5C 157.464,205.964 141.631,189.798 127.5,172C 146.083,160.378 166.083,152.045 187.5,147C 194.041,133.714 199.208,119.881 203,105.5C 212.503,79.8356 229.669,61.5022 254.5,50.5 Z M 225.5,124.5 C 227.528,128.703 230.195,132.536 233.5,136C 236.536,138.006 239.869,138.84 243.5,138.5C 244.826,145.46 245.659,152.46 246,159.5C 243.73,154.902 241.063,150.569 238,146.5C 229.96,141.425 225.793,134.092 225.5,124.5 Z M 283.5,125.5 C 283.662,130.182 282.495,134.515 280,138.5C 272.817,144.342 267.15,151.342 263,159.5C 263.029,153.167 264.195,147.001 266.5,141C 266.355,140.228 266.022,139.561 265.5,139C 269.435,138.916 273.102,137.916 276.5,136C 279.229,132.692 281.562,129.192 283.5,125.5 Z M 187.5,168.5 C 188.833,168.5 190.167,168.5 191.5,168.5C 193.666,183.164 199.832,195.83 210,206.5C 223.106,219.261 238.106,229.261 255,236.5C 278.043,227.16 296.376,212.16 310,191.5C 313.838,184.158 316.838,176.492 319,168.5C 328.63,170.821 337.797,174.321 346.5,179C 320.14,207.203 289.474,229.37 254.5,245.5C 219.177,229.343 188.51,206.843 162.5,178C 170.57,173.924 178.904,170.758 187.5,168.5 Z M 231.5,175.5 C 238.044,182.367 245.711,187.7 254.5,191.5C 263.289,187.7 270.956,182.367 277.5,175.5C 272.18,185.486 264.514,193.153 254.5,198.5C 244.486,193.153 236.82,185.486 231.5,175.5 Z M 226.5,180.5 C 234.157,189.749 243.657,196.416 255,200.5C 265.659,196.344 274.825,190.01 282.5,181.5C 281.453,185.261 279.619,188.594 277,191.5C 269.952,199.05 262.452,206.05 254.5,212.5C 246.882,206.384 239.715,199.717 233,192.5C 230.026,188.882 227.859,184.882 226.5,180.5 Z M 365.5,206.5 C 366.774,210.074 366.607,213.741 365,217.5C 359.487,223.66 353.32,228.994 346.5,233.5C 345.348,230.894 345.182,228.227 346,225.5C 353.004,219.662 359.504,213.329 365.5,206.5 Z M 143.5,208.5 C 149.496,214.329 155.663,219.996 162,225.5C 162.667,228.167 162.667,230.833 162,233.5C 155.698,228.199 149.698,222.532 144,216.5C 143.503,213.854 143.336,211.187 143.5,208.5 Z M 313.5,224.5 C 315.114,257.441 317.614,290.441 321,323.5C 312.446,341.61 303.113,359.276 293,376.5C 280.723,395.109 268.057,413.442 255,431.5C 229.741,398.01 207.741,362.343 189,324.5C 191.71,292.392 193.877,260.226 195.5,228C 195.833,227.167 196.167,226.333 196.5,225.5C 212.841,237.344 230.174,247.677 248.5,256.5C 249.666,269.154 249.833,281.82 249,294.5C 237,280.5 225,266.5 213,252.5C 223.609,274.817 235.609,296.484 249,317.5C 249.667,337.167 249.667,356.833 249,376.5C 232.56,347.177 219.226,316.511 209,284.5C 206.91,274.702 204.577,265.035 202,255.5C 202.361,277.024 201.528,298.524 199.5,320C 215.148,353.282 233.648,384.782 255,414.5C 277.262,385.324 295.429,353.658 309.5,319.5C 307.337,298.896 306.17,278.229 306,257.5C 302.153,286.373 293.487,313.706 280,339.5C 273.586,351.329 266.92,362.996 260,374.5C 259.333,355.5 259.333,336.5 260,317.5C 273.116,296.94 284.949,275.607 295.5,253.5C 295.333,253.167 295.167,252.833 295,252.5C 283.333,266.833 271.667,281.167 260,295.5C 259.653,282.476 260.153,269.476 261.5,256.5C 279.901,247.313 297.234,236.646 313.5,224.5 Z M 140.5,225.5 C 146.326,231.662 152.826,236.995 160,241.5C 160.667,242.167 160.667,242.833 160,243.5C 157.715,245.907 155.549,248.407 153.5,251C 152.5,251.667 151.5,251.667 150.5,251C 143.833,246.667 137.167,242.333 130.5,238C 134.047,233.959 137.38,229.792 140.5,225.5 Z M 368.5,225.5 C 372.539,229.223 375.873,233.557 378.5,238.5C 371.413,242.459 364.58,246.792 358,251.5C 354.796,248.631 351.963,245.465 349.5,242C 356.279,236.954 362.612,231.454 368.5,225.5 Z M 125.5,244.5 C 132.811,248.491 139.811,252.991 146.5,258C 145.299,258.903 144.465,260.069 144,261.5C 142.951,262.517 141.784,262.684 140.5,262C 134.288,258.067 128.288,253.901 122.5,249.5C 123.763,247.971 124.763,246.305 125.5,244.5 Z M 382.5,244.5 C 384.63,246.127 386.63,247.96 388.5,250C 381.998,253.75 375.665,257.75 369.5,262C 367.097,262.63 365.263,261.797 364,259.5C 363.316,258.216 363.483,257.049 364.5,256C 370.734,252.392 376.734,248.559 382.5,244.5 Z M 61.5,401.5 C 73.0288,375.432 86.8622,350.766 103,327.5C 121.224,301.739 140.891,277.073 162,253.5C 160.197,259.446 157.53,265.113 154,270.5C 145.916,283.67 137.583,296.67 129,309.5C 106.251,340.068 83.7505,370.735 61.5,401.5 Z M 347.5,255.5 C 388.66,298.346 421.994,346.679 447.5,400.5C 423.444,368.746 399.611,336.746 376,304.5C 365.467,288.767 355.967,272.434 347.5,255.5 Z M 68.5,368.5 C 81.6079,329.679 98.1079,292.346 118,256.5C 124.585,260.542 131.085,264.709 137.5,269C 111.888,300.402 88.8883,333.569 68.5,368.5 Z M 389.5,257.5 C 390.675,257.281 391.675,257.614 392.5,258.5C 407.827,286.321 421.327,314.987 433,344.5C 436.636,353.736 439.636,363.07 442,372.5C 422.795,335.403 399.629,301.069 372.5,269.5C 378.058,265.232 383.725,261.232 389.5,257.5 Z M 240.5,443.5 C 219.333,423.172 200.167,401.172 183,377.5C 182.85,369.446 183.517,361.446 185,353.5C 201.373,384.99 219.873,414.99 240.5,443.5 Z M 265.5,447.5 C 279.474,428.239 292.974,408.572 306,388.5C 313.034,377.768 319.034,366.435 324,354.5C 325.132,359.94 325.965,365.44 326.5,371C 320.243,385.007 312.076,397.84 302,409.5C 289.966,422.365 277.8,435.032 265.5,447.5 Z M 220.5,450.5 C 206.705,440.818 193.872,429.818 182,417.5C 181.333,412.167 181.333,406.833 182,401.5C 193.395,418.953 206.228,435.286 220.5,450.5 Z M 286.5,451.5 C 302.149,436.513 315.649,419.846 327,401.5C 328.384,407.109 328.717,412.775 328,418.5C 314.849,430.498 301.016,441.498 286.5,451.5 Z"/></g>
<g><path style="opacity:1" fill="#000000" d="M 253.5,79.5 C 265.538,88.8718 275.871,99.8718 284.5,112.5C 278.491,116.894 271.824,118.728 264.5,118C 261.273,114.362 257.94,110.862 254.5,107.5C 251.06,110.862 247.727,114.362 244.5,118C 237.947,118.874 231.947,117.374 226.5,113.5C 225.417,114.365 225.251,115.365 226,116.5C 232.754,122.132 240.254,126.632 248.5,130C 251.024,134.573 253.024,139.407 254.5,144.5C 256.192,139.519 258.192,134.686 260.5,130C 267.167,126.667 273.833,123.333 280.5,120C 282.709,118.127 284.542,115.96 286,113.5C 312.884,159.338 302.384,193.338 254.5,215.5C 208.166,193.993 197.332,160.66 222,115.5C 231.247,102.418 241.747,90.4184 253.5,79.5 Z M 225.5,124.5 C 225.793,134.092 229.96,141.425 238,146.5C 241.063,150.569 243.73,154.902 246,159.5C 245.659,152.46 244.826,145.46 243.5,138.5C 239.869,138.84 236.536,138.006 233.5,136C 230.195,132.536 227.528,128.703 225.5,124.5 Z M 283.5,125.5 C 281.562,129.192 279.229,132.692 276.5,136C 273.102,137.916 269.435,138.916 265.5,139C 266.022,139.561 266.355,140.228 266.5,141C 264.195,147.001 263.029,153.167 263,159.5C 267.15,151.342 272.817,144.342 280,138.5C 282.495,134.515 283.662,130.182 283.5,125.5 Z M 231.5,175.5 C 238.044,182.367 245.711,187.7 254.5,191.5C 263.289,187.7 270.956,182.367 277.5,175.5C 272.18,185.486 264.514,193.153 254.5,198.5C 244.486,193.153 236.82,185.486 231.5,175.5 Z M 226.5,180.5 C 234.157,189.749 243.657,196.416 255,200.5C 265.659,196.344 274.825,190.01 282.5,181.5C 281.453,185.261 279.619,188.594 277,191.5C 269.952,199.05 262.452,206.05 254.5,212.5C 246.882,206.384 239.715,199.717 233,192.5C 230.026,188.882 227.859,184.882 226.5,180.5 Z"/></g>
</svg>
