<?xml version="1.0" encoding="UTF-8"?>
<!DOCTYPE svg PUBLIC "-//W3C//DTD SVG 1.1//EN" "http://www.w3.org/Graphics/SVG/1.1/DTD/svg11.dtd">
<svg xmlns="http://www.w3.org/2000/svg" version="1.1" width="512px" height="512px" style="shape-rendering:geometricPrecision; text-rendering:geometricPrecision; image-rendering:optimizeQuality; fill-rule:evenodd; clip-rule:evenodd" xmlns:xlink="http://www.w3.org/1999/xlink">
<g><path style="opacity:1" fill="#4c4c5d" d="M 400.5,60.5 C 357.093,60.027 313.759,59.027 270.5,57.5C 270.576,53.7715 271.743,50.4381 274,47.5C 280.088,40.5357 287.588,35.7024 296.5,33C 304.636,30.3661 312.97,28.6994 321.5,28C 338.834,27.9507 356.168,27.9507 373.5,28C 379.03,27.2124 384.363,25.7124 389.5,23.5C 391.15,30.7461 390.483,37.7461 387.5,44.5C 393.128,45.4954 398.794,45.8288 404.5,45.5C 404.549,50.977 403.216,55.977 400.5,60.5 Z"/></g>
<g><path style="opacity:1" fill="#aacbe7" d="M 145.5,50.5 C 135.521,49.7039 125.521,49.3705 115.5,49.5C 120.115,38.6578 125.115,27.9911 130.5,17.5C 135.772,28.3765 140.772,39.3765 145.5,50.5 Z"/></g>
<g><path style="opacity:1" fill="#b9d5e7" d="M 115.5,49.5 C 125.521,49.3705 135.521,49.7039 145.5,50.5C 146.964,53.2621 148.297,56.0954 149.5,59C 144.511,59.4993 139.511,59.6659 134.5,59.5C 134.5,62.1667 134.5,64.8333 134.5,67.5C 131.37,67.3003 128.37,66.6336 125.5,65.5C 125.5,63.5 125.5,61.5 125.5,59.5C 120.786,59.8266 116.12,59.4933 111.5,58.5C 113.122,55.5918 114.456,52.5918 115.5,49.5 Z"/></g>
<g><path style="opacity:1" fill="#444456" d="M 270.5,57.5 C 313.759,59.027 357.093,60.027 400.5,60.5C 397.893,68.0571 393.56,74.3904 387.5,79.5C 346.502,78.9535 305.502,78.4535 264.5,78C 263.944,77.6174 263.611,77.1174 263.5,76.5C 264.667,72.853 266.834,69.853 270,67.5C 269.793,64.0823 269.959,60.7489 270.5,57.5 Z"/></g>
<g><path style="opacity:1" fill="#cee1e5" d="M 125.5,65.5 C 128.37,66.6336 131.37,67.3003 134.5,67.5C 134.5,73.5 134.5,79.5 134.5,85.5C 131.604,86.7752 128.604,86.7752 125.5,85.5C 125.5,78.8333 125.5,72.1667 125.5,65.5 Z"/></g>
<g><path style="opacity:1" fill="#3d3d4f" d="M 263.5,76.5 C 263.611,77.1174 263.944,77.6174 264.5,78C 305.502,78.4535 346.502,78.9535 387.5,79.5C 383.394,83.2545 378.727,86.2545 373.5,88.5C 353.104,95.1379 332.437,96.1379 311.5,91.5C 311.665,95.1817 311.499,98.8484 311,102.5C 309.722,106.165 308.556,109.832 307.5,113.5C 305.248,116.932 302.748,120.266 300,123.5C 298.185,125.405 296.185,127.072 294,128.5C 290.988,116.911 283.822,113.077 272.5,117C 269.351,119.469 267.351,122.635 266.5,126.5C 257.423,113.362 255.257,99.0289 260,83.5C 260.67,80.8261 261.837,78.4927 263.5,76.5 Z"/></g>
<g><path style="opacity:1" fill="#e7635c" d="M 125.5,85.5 C 128.604,86.7752 131.604,86.7752 134.5,85.5C 140.508,84.9999 144.841,87.3332 147.5,92.5C 148.145,103.864 148.812,115.197 149.5,126.5C 149.5,133.833 149.5,141.167 149.5,148.5C 148.509,141.687 148.175,134.687 148.5,127.5C 136.5,127.5 124.5,127.5 112.5,127.5C 112.815,131.371 112.482,135.038 111.5,138.5C 111.5,134.167 111.5,129.833 111.5,125.5C 112.495,114.679 112.828,103.679 112.5,92.5C 115.226,87.3566 119.559,85.0233 125.5,85.5 Z"/></g>
<g><path style="opacity:1" fill="#b52b2b" d="M 112.5,92.5 C 112.828,103.679 112.495,114.679 111.5,125.5C 101.442,130.044 92.942,136.711 86,145.5C 78.5856,157.15 70.0856,167.983 60.5,178C 54.3333,183.328 47.3333,187.162 39.5,189.5C 33.6871,191.084 28.0204,190.751 22.5,188.5C 17.8108,185.63 14.8108,181.464 13.5,176C 31.0938,169.091 45.9272,158.257 58,143.5C 69.7866,124.047 85.2866,108.213 104.5,96C 107.071,94.5462 109.738,93.3795 112.5,92.5 Z"/></g>
<g><path style="opacity:1" fill="#b52b2b" d="M 147.5,92.5 C 156.042,95.5496 163.709,100.05 170.5,106C 184.496,119.32 196.996,133.82 208,149.5C 214.918,156.422 222.418,162.589 230.5,168C 235.525,171.015 240.858,173.182 246.5,174.5C 246.504,181.171 243.504,185.838 237.5,188.5C 231.93,190.572 226.263,190.905 220.5,189.5C 208.896,185.074 199.063,178.074 191,168.5C 182.697,154.194 172.197,141.694 159.5,131C 156.46,128.78 153.127,127.28 149.5,126.5C 148.812,115.197 148.145,103.864 147.5,92.5 Z"/></g>
<g><path style="opacity:1" fill="#e5b2ab" d="M 373.5,88.5 C 373.5,96.5 373.5,104.5 373.5,112.5C 351.575,113.489 329.575,113.822 307.5,113.5C 308.556,109.832 309.722,106.165 311,102.5C 311.499,98.8484 311.665,95.1817 311.5,91.5C 332.437,96.1379 353.104,95.1379 373.5,88.5 Z"/></g>
<g><path style="opacity:1" fill="#e56457" d="M 149.5,148.5 C 149.5,153.833 149.5,159.167 149.5,164.5C 148.518,161.038 148.185,157.371 148.5,153.5C 136.158,153.427 123.825,153.094 111.5,152.5C 111.5,147.833 111.5,143.167 111.5,138.5C 112.482,135.038 112.815,131.371 112.5,127.5C 124.5,127.5 136.5,127.5 148.5,127.5C 148.175,134.687 148.509,141.687 149.5,148.5 Z"/></g>
<g><path style="opacity:1" fill="#e6beb6" d="M 373.5,112.5 C 373.538,122.268 372.871,131.935 371.5,141.5C 336.5,141.5 301.5,141.5 266.5,141.5C 265.167,136.5 265.167,131.5 266.5,126.5C 267.351,122.635 269.351,119.469 272.5,117C 283.822,113.077 290.988,116.911 294,128.5C 296.185,127.072 298.185,125.405 300,123.5C 302.748,120.266 305.248,116.932 307.5,113.5C 329.575,113.822 351.575,113.489 373.5,112.5 Z"/></g>
<g><path style="opacity:1" fill="#d4726c" d="M 359.5,125.5 C 364.835,125.005 367.335,127.338 367,132.5C 363.853,136.551 359.687,138.051 354.5,137C 352.813,135.087 352.313,132.92 353,130.5C 354.926,128.461 357.093,126.794 359.5,125.5 Z"/></g>
<g><path style="opacity:1" fill="#d4736d" d="M 326.5,125.5 C 331.297,125.707 335.463,127.374 339,130.5C 339.648,134.693 337.815,137.026 333.5,137.5C 324.233,136.945 321.9,132.945 326.5,125.5 Z"/></g>
<g><path style="opacity:1" fill="#e7c7c1" d="M 266.5,141.5 C 301.5,141.5 336.5,141.5 371.5,141.5C 371.482,146.956 370.815,152.289 369.5,157.5C 342.167,157.5 314.833,157.5 287.5,157.5C 287.5,161.5 287.5,165.5 287.5,169.5C 287.167,169.5 286.833,169.5 286.5,169.5C 286.5,165.5 286.5,161.5 286.5,157.5C 276.276,156.413 269.609,151.079 266.5,141.5 Z"/></g>
<g><path style="opacity:1" fill="#e7cdc7" d="M 369.5,157.5 C 367.298,169.567 363.132,180.901 357,191.5C 352.497,197.059 346.663,199.392 339.5,198.5C 320.573,194.286 303.74,185.953 289,173.5C 288.59,172.099 288.09,170.766 287.5,169.5C 287.5,165.5 287.5,161.5 287.5,157.5C 314.833,157.5 342.167,157.5 369.5,157.5 Z"/></g>
<g><path style="opacity:1" fill="#d4726c" d="M 286.5,169.5 C 286.833,169.5 287.167,169.5 287.5,169.5C 288.09,170.766 288.59,172.099 289,173.5C 303.74,185.953 320.573,194.286 339.5,198.5C 339.5,200.5 339.5,202.5 339.5,204.5C 321.797,204.43 304.13,205.097 286.5,206.5C 286.5,194.167 286.5,181.833 286.5,169.5 Z"/></g>
<g><path style="opacity:1" fill="#7088c7" d="M 275.5,207.5 C 262.833,230.833 250.167,254.167 237.5,277.5C 233.788,274.789 230.788,271.456 228.5,267.5C 229.496,267.586 230.329,267.252 231,266.5C 240.079,249.34 249.413,232.34 259,215.5C 259.813,213.564 260.313,211.564 260.5,209.5C 264.94,205.104 269.94,204.438 275.5,207.5 Z"/></g>
<g><path style="opacity:1" fill="#e1e5e7" d="M 237.5,188.5 C 206.116,216.885 174.116,244.551 141.5,271.5C 141.5,266.833 141.5,262.167 141.5,257.5C 168.448,235.552 194.781,212.885 220.5,189.5C 226.263,190.905 231.93,190.572 237.5,188.5 Z"/></g>
<g><path style="opacity:1" fill="#697fc1" d="M 275.5,207.5 C 278.997,210.083 282.664,212.416 286.5,214.5C 293.581,218.415 300.914,221.748 308.5,224.5C 304.262,231.302 300.262,238.302 296.5,245.5C 287.167,243.778 278.167,240.945 269.5,237C 267.5,236.333 265.5,236.333 263.5,237C 272.393,243.609 281.726,249.443 291.5,254.5C 282.623,270.255 274.29,286.255 266.5,302.5C 255.923,295.259 246.257,286.926 237.5,277.5C 250.167,254.167 262.833,230.833 275.5,207.5 Z"/></g>
<g><path style="opacity:1" fill="#db5952" d="M 111.5,152.5 C 123.825,153.094 136.158,153.427 148.5,153.5C 148.185,157.371 148.518,161.038 149.5,164.5C 147.11,174.842 144.61,185.176 142,195.5C 141.5,216.164 141.333,236.831 141.5,257.5C 141.5,262.167 141.5,266.833 141.5,271.5C 141.5,275.167 141.5,278.833 141.5,282.5C 134.167,283.833 126.833,283.833 119.5,282.5C 119.5,278.833 119.5,275.167 119.5,271.5C 119.5,267.167 119.5,262.833 119.5,258.5C 119.898,235.804 119.398,213.137 118,190.5C 115.795,183.554 113.795,176.554 112,169.5C 111.501,163.843 111.334,158.176 111.5,152.5 Z"/></g>
<g><path style="opacity:1" fill="#e5b5ae" d="M 339.5,204.5 C 339.5,212.5 339.5,220.5 339.5,228.5C 335.154,228.666 330.821,228.499 326.5,228C 320.554,226.517 314.554,225.35 308.5,224.5C 300.914,221.748 293.581,218.415 286.5,214.5C 286.5,211.833 286.5,209.167 286.5,206.5C 304.13,205.097 321.797,204.43 339.5,204.5 Z"/></g>
<g><path style="opacity:1" fill="#7589cd" d="M 260.5,209.5 C 260.313,211.564 259.813,213.564 259,215.5C 249.413,232.34 240.079,249.34 231,266.5C 230.329,267.252 229.496,267.586 228.5,267.5C 225.14,264.806 222.14,261.806 219.5,258.5C 214.463,253.662 210.963,247.996 209,241.5C 216.5,234 224,226.5 231.5,219C 238.266,216.616 243.766,218.449 248,224.5C 252.408,219.602 256.574,214.602 260.5,209.5 Z"/></g>
<g><path style="opacity:1" fill="#e6635d" d="M 409.5,266.5 C 405.437,274.959 401.103,283.293 396.5,291.5C 384.7,282.098 372.367,273.431 359.5,265.5C 366.046,252.408 372.046,239.075 377.5,225.5C 378.377,222.699 379.544,220.032 381,217.5C 393.827,226.15 404.16,237.15 412,250.5C 413.068,256.175 412.235,261.508 409.5,266.5 Z"/></g>
<g><path style="opacity:1" fill="#e2e6e7" d="M 22.5,188.5 C 28.0204,190.751 33.6871,191.084 39.5,189.5C 66.1263,212.49 92.793,235.49 119.5,258.5C 119.5,262.833 119.5,267.167 119.5,271.5C 86.8472,244.179 54.5139,216.512 22.5,188.5 Z"/></g>
<g><path style="opacity:1" fill="#5b73b4" d="M 308.5,224.5 C 314.554,225.35 320.554,226.517 326.5,228C 330.821,228.499 335.154,228.666 339.5,228.5C 342.167,228.5 344.833,228.5 347.5,228.5C 345.295,229.198 343.461,230.532 342,232.5C 338.807,238.886 335.64,245.22 332.5,251.5C 320.176,251.074 308.176,249.074 296.5,245.5C 300.262,238.302 304.262,231.302 308.5,224.5 Z"/></g>
<g><path style="opacity:1" fill="#273970" d="M 377.5,225.5 C 372.046,239.075 366.046,252.408 359.5,265.5C 356.245,271.008 353.245,276.675 350.5,282.5C 347.566,287.368 344.9,292.368 342.5,297.5C 337.524,297.238 333.691,299.238 331,303.5C 329.223,306.059 327.723,308.726 326.5,311.5C 323.601,314.952 320.934,318.618 318.5,322.5C 316.167,325.833 313.833,329.167 311.5,332.5C 306.334,329.752 301.334,326.752 296.5,323.5C 303.429,311.058 311.762,299.558 321.5,289C 323.842,287.829 326.176,286.662 328.5,285.5C 332.871,279.927 336.871,274.094 340.5,268C 335.166,267.433 329.833,266.933 324.5,266.5C 313.276,263.401 302.276,259.401 291.5,254.5C 281.726,249.443 272.393,243.609 263.5,237C 265.5,236.333 267.5,236.333 269.5,237C 278.167,240.945 287.167,243.778 296.5,245.5C 308.176,249.074 320.176,251.074 332.5,251.5C 338.176,251.666 343.843,251.499 349.5,251C 353.249,243.67 356.582,236.17 359.5,228.5C 365.473,227.502 371.473,226.502 377.5,225.5 Z"/></g>
<g><path style="opacity:1" fill="#5169ae" d="M 347.5,228.5 C 351.5,228.5 355.5,228.5 359.5,228.5C 356.582,236.17 353.249,243.67 349.5,251C 343.843,251.499 338.176,251.666 332.5,251.5C 335.64,245.22 338.807,238.886 342,232.5C 343.461,230.532 345.295,229.198 347.5,228.5 Z"/></g>
<g><path style="opacity:1" fill="#5b73b4" d="M 291.5,254.5 C 302.276,259.401 313.276,263.401 324.5,266.5C 313.802,284.555 303.469,302.889 293.5,321.5C 284.2,315.523 275.2,309.19 266.5,302.5C 274.29,286.255 282.623,270.255 291.5,254.5 Z"/></g>
<g><path style="opacity:1" fill="#897671" d="M 219.5,258.5 C 222.14,261.806 225.14,264.806 228.5,267.5C 230.788,271.456 233.788,274.789 237.5,277.5C 246.257,286.926 255.923,295.259 266.5,302.5C 275.2,309.19 284.2,315.523 293.5,321.5C 294.5,322.167 295.5,322.833 296.5,323.5C 301.334,326.752 306.334,329.752 311.5,332.5C 311.5,332.833 311.5,333.167 311.5,333.5C 309.016,335.8 307.016,338.467 305.5,341.5C 304.21,342.058 303.377,343.058 303,344.5C 302.341,347.888 302.508,351.221 303.5,354.5C 303.167,355.167 302.833,355.833 302.5,356.5C 294.5,350.833 286.5,345.167 278.5,339.5C 275.064,335.943 271.397,332.609 267.5,329.5C 261.833,323.167 255.833,317.167 249.5,311.5C 237.031,297.877 226.031,283.21 216.5,267.5C 217.304,264.421 218.304,261.421 219.5,258.5 Z"/></g>
<g><path style="opacity:1" fill="#e46357" d="M 359.5,265.5 C 372.367,273.431 384.7,282.098 396.5,291.5C 393.67,297.83 390.337,303.83 386.5,309.5C 386.489,307.983 385.823,306.816 384.5,306C 373.286,297.946 361.953,290.113 350.5,282.5C 353.245,276.675 356.245,271.008 359.5,265.5 Z"/></g>
<g><path style="opacity:1" fill="#5269ad" d="M 324.5,266.5 C 329.833,266.933 335.166,267.433 340.5,268C 336.871,274.094 332.871,279.927 328.5,285.5C 326.176,286.662 323.842,287.829 321.5,289C 311.762,299.558 303.429,311.058 296.5,323.5C 295.5,322.833 294.5,322.167 293.5,321.5C 303.469,302.889 313.802,284.555 324.5,266.5 Z"/></g>
<g><path style="opacity:1" fill="#8a7670" d="M 409.5,266.5 C 414.321,272.138 418.654,278.138 422.5,284.5C 410.694,303.921 410.527,323.588 422,343.5C 425.625,349.292 430.125,354.292 435.5,358.5C 438.601,361.933 442.268,364.6 446.5,366.5C 444.525,368.137 442.525,369.804 440.5,371.5C 438.427,373.58 436.093,375.246 433.5,376.5C 420.271,364.624 407.104,352.624 394,340.5C 392.684,343.688 392.184,347.022 392.5,350.5C 381.539,366.311 369.205,381.144 355.5,395C 350.76,397.072 345.76,398.072 340.5,398C 339.944,398.383 339.611,398.883 339.5,399.5C 327.772,410.567 315.772,421.233 303.5,431.5C 292.641,440.088 281.641,448.421 270.5,456.5C 262.555,457.437 254.555,457.77 246.5,457.5C 264.33,445.681 281.33,432.681 297.5,418.5C 307.494,410.173 316.827,401.173 325.5,391.5C 328.138,388.526 330.805,385.526 333.5,382.5C 337.792,382.965 341.792,382.132 345.5,380C 357.347,366.473 367.847,351.973 377,336.5C 377.678,332.779 377.511,329.112 376.5,325.5C 380.831,320.848 384.165,315.514 386.5,309.5C 390.337,303.83 393.67,297.83 396.5,291.5C 401.103,283.293 405.437,274.959 409.5,266.5 Z"/></g>
<g><path style="opacity:1" fill="#e05d57" d="M 350.5,282.5 C 361.953,290.113 373.286,297.946 384.5,306C 385.823,306.816 386.489,307.983 386.5,309.5C 384.165,315.514 380.831,320.848 376.5,325.5C 373.167,321.833 369.833,318.167 366.5,314.5C 366.167,314.5 365.833,314.5 365.5,314.5C 359.409,306.629 351.742,300.962 342.5,297.5C 344.9,292.368 347.566,287.368 350.5,282.5 Z"/></g>
<g><path style="opacity:1" fill="#e7c2bb" d="M 119.5,282.5 C 126.833,283.833 134.167,283.833 141.5,282.5C 149.657,284.321 154.323,289.321 155.5,297.5C 155.67,298.822 155.337,299.989 154.5,301C 137.847,302.166 121.18,302.999 104.5,303.5C 103.712,292.297 108.712,285.297 119.5,282.5 Z"/></g>
<g><path style="opacity:1" fill="#d5c1b9" d="M 216.5,267.5 C 226.031,283.21 237.031,297.877 249.5,311.5C 248.207,312.158 246.707,312.492 245,312.5C 229.506,311.694 214.006,311.027 198.5,310.5C 204.813,296.218 210.813,281.885 216.5,267.5 Z"/></g>
<g><path style="opacity:1" fill="#e6bc71" d="M 342.5,297.5 C 351.742,300.962 359.409,306.629 365.5,314.5C 365.785,316.288 365.452,317.955 364.5,319.5C 351.962,316.199 339.295,313.532 326.5,311.5C 327.723,308.726 329.223,306.059 331,303.5C 333.691,299.238 337.524,297.238 342.5,297.5 Z"/></g>
<g><path style="opacity:1" fill="#ccb4ab" d="M 422.5,284.5 C 436.641,302.102 450.307,320.102 463.5,338.5C 454.833,346.161 445.5,352.827 435.5,358.5C 430.125,354.292 425.625,349.292 422,343.5C 410.527,323.588 410.694,303.921 422.5,284.5 Z"/></g>
<g><path style="opacity:1" fill="#d3bab4" d="M 198.5,310.5 C 214.006,311.027 229.506,311.694 245,312.5C 246.707,312.492 248.207,312.158 249.5,311.5C 255.833,317.167 261.833,323.167 267.5,329.5C 242.177,328.5 216.843,327.834 191.5,327.5C 193.557,321.719 195.89,316.053 198.5,310.5 Z"/></g>
<g><path style="opacity:1" fill="#e7b5ad" d="M 155.5,297.5 C 156.483,301.298 156.817,305.298 156.5,309.5C 155.509,316.313 155.175,323.313 155.5,330.5C 138.744,330.922 122.077,331.922 105.5,333.5C 104.526,323.582 104.193,313.582 104.5,303.5C 121.18,302.999 137.847,302.166 154.5,301C 155.337,299.989 155.67,298.822 155.5,297.5 Z"/></g>
<g><path style="opacity:1" fill="#9d5d5d" d="M 156.5,309.5 C 158.58,311.573 160.246,313.907 161.5,316.5C 162.615,318.307 163.281,320.307 163.5,322.5C 159.174,343.318 159.507,363.985 164.5,384.5C 170.015,408.019 183.682,425.019 205.5,435.5C 206.495,440.792 206.828,446.125 206.5,451.5C 191.002,446.829 177.335,438.996 165.5,428C 161.301,422.972 156.968,418.139 152.5,413.5C 151.656,409.901 151.323,406.234 151.5,402.5C 149.852,395.051 147.685,387.718 145,380.5C 144.162,375.357 143.328,370.357 142.5,365.5C 142.167,358.833 141.833,352.167 141.5,345.5C 149.608,343.725 154.275,338.725 155.5,330.5C 155.175,323.313 155.509,316.313 156.5,309.5 Z"/></g>
<g><path style="opacity:1" fill="#e0762c" d="M 366.5,314.5 C 369.833,318.167 373.167,321.833 376.5,325.5C 377.511,329.112 377.678,332.779 377,336.5C 367.847,351.973 357.347,366.473 345.5,380C 341.792,382.132 337.792,382.965 333.5,382.5C 328.626,379.893 324.292,376.56 320.5,372.5C 325.984,373.174 330.984,372.008 335.5,369C 339.721,363.379 344.055,357.879 348.5,352.5C 351.167,349.167 353.833,345.833 356.5,342.5C 359.228,339.101 361.561,335.434 363.5,331.5C 365.395,326.022 366.395,320.356 366.5,314.5 Z"/></g>
<g><path style="opacity:1" fill="#e6b566" d="M 326.5,311.5 C 339.295,313.532 351.962,316.199 364.5,319.5C 365.452,317.955 365.785,316.288 365.5,314.5C 365.833,314.5 366.167,314.5 366.5,314.5C 366.395,320.356 365.395,326.022 363.5,331.5C 348.42,328.884 333.42,325.884 318.5,322.5C 320.934,318.618 323.601,314.952 326.5,311.5 Z"/></g>
<g><path style="opacity:1" fill="#e6ae58" d="M 318.5,322.5 C 333.42,325.884 348.42,328.884 363.5,331.5C 361.561,335.434 359.228,339.101 356.5,342.5C 341.371,340.141 326.371,337.141 311.5,333.5C 311.5,333.167 311.5,332.833 311.5,332.5C 313.833,329.167 316.167,325.833 318.5,322.5 Z"/></g>
<g><path style="opacity:1" fill="#cfbaae" d="M 191.5,327.5 C 216.843,327.834 242.177,328.5 267.5,329.5C 271.397,332.609 275.064,335.943 278.5,339.5C 265.823,339.486 253.156,339.153 240.5,338.5C 239.661,336.219 238.661,333.885 237.5,331.5C 237.043,330.702 236.376,330.369 235.5,330.5C 234.527,332.948 234.194,335.615 234.5,338.5C 218.48,338.026 202.48,337.36 186.5,336.5C 187.929,333.304 189.595,330.304 191.5,327.5 Z"/></g>
<g><path style="opacity:1" fill="#e6aba0" d="M 155.5,330.5 C 154.275,338.725 149.608,343.725 141.5,345.5C 133.833,345.5 126.167,345.5 118.5,345.5C 111.605,344.271 107.272,340.271 105.5,333.5C 122.077,331.922 138.744,330.922 155.5,330.5 Z"/></g>
<g><path style="opacity:1" fill="#8b7772" d="M 235.5,330.5 C 236.376,330.369 237.043,330.702 237.5,331.5C 238.661,333.885 239.661,336.219 240.5,338.5C 240.713,345.211 240.38,351.877 239.5,358.5C 229.425,378.327 218.092,397.327 205.5,415.5C 203.352,401.764 199.685,388.431 194.5,375.5C 193.217,370.648 191.55,365.981 189.5,361.5C 194.301,366.472 198.968,371.638 203.5,377C 206.167,377.667 208.833,377.667 211.5,377C 220.35,367.468 227.85,356.968 234,345.5C 235.16,340.566 235.66,335.566 235.5,330.5 Z"/></g>
<g><path style="opacity:1" fill="#ccb3ac" d="M 235.5,330.5 C 235.66,335.566 235.16,340.566 234,345.5C 227.85,356.968 220.35,367.468 211.5,377C 208.833,377.667 206.167,377.667 203.5,377C 198.968,371.638 194.301,366.472 189.5,361.5C 186.308,356.45 183.642,351.117 181.5,345.5C 183.405,342.696 185.071,339.696 186.5,336.5C 202.48,337.36 218.48,338.026 234.5,338.5C 234.194,335.615 234.527,332.948 235.5,330.5 Z"/></g>
<g><path style="opacity:1" fill="#ccb3ab" d="M 240.5,338.5 C 253.156,339.153 265.823,339.486 278.5,339.5C 286.5,345.167 294.5,350.833 302.5,356.5C 298.754,360.906 295.42,365.573 292.5,370.5C 288.86,374.806 284.86,378.806 280.5,382.5C 268.525,381.751 256.525,381.251 244.5,381C 243.099,380.59 241.766,380.09 240.5,379.5C 240.674,372.465 240.341,365.465 239.5,358.5C 240.38,351.877 240.713,345.211 240.5,338.5 Z"/></g>
<g><path style="opacity:1" fill="#e6a74d" d="M 311.5,333.5 C 326.371,337.141 341.371,340.141 356.5,342.5C 353.833,345.833 351.167,349.167 348.5,352.5C 334.902,349.38 321.235,346.38 307.5,343.5C 306.287,343.253 305.62,342.586 305.5,341.5C 307.016,338.467 309.016,335.8 311.5,333.5 Z"/></g>
<g><path style="opacity:1" fill="#c7a79d" d="M 463.5,338.5 C 466.802,342.809 470.136,347.143 473.5,351.5C 470.06,353.724 466.393,355.724 462.5,357.5C 457.167,360.5 451.833,363.5 446.5,366.5C 442.268,364.6 438.601,361.933 435.5,358.5C 445.5,352.827 454.833,346.161 463.5,338.5 Z"/></g>
<g><path style="opacity:1" fill="#b52c2b" d="M 118.5,345.5 C 126.167,345.5 133.833,345.5 141.5,345.5C 141.833,352.167 142.167,358.833 142.5,365.5C 140.899,367.853 138.899,370.02 136.5,372C 128.604,378.076 120.604,383.909 112.5,389.5C 116.906,375.188 118.906,360.522 118.5,345.5 Z"/></g>
<g><path style="opacity:1" fill="#e69f42" d="M 305.5,341.5 C 305.62,342.586 306.287,343.253 307.5,343.5C 321.235,346.38 334.902,349.38 348.5,352.5C 344.055,357.879 339.721,363.379 335.5,369C 330.984,372.008 325.984,373.174 320.5,372.5C 314.13,367.131 308.463,361.131 303.5,354.5C 302.508,351.221 302.341,347.888 303,344.5C 303.377,343.058 304.21,342.058 305.5,341.5 Z"/></g>
<g><path style="opacity:1" fill="#b8736c" d="M 496.5,374.5 C 495.834,371.972 495.168,369.306 494.5,366.5C 489.478,371.854 484.478,377.187 479.5,382.5C 474.091,374.022 468.424,365.689 462.5,357.5C 466.393,355.724 470.06,353.724 473.5,351.5C 479.111,350.014 484.778,348.681 490.5,347.5C 491.167,347.833 491.833,348.167 492.5,348.5C 495.802,356.982 497.135,365.649 496.5,374.5 Z"/></g>
<g><path style="opacity:1" fill="#b52d2c" d="M 303.5,354.5 C 308.463,361.131 314.13,367.131 320.5,372.5C 324.292,376.56 328.626,379.893 333.5,382.5C 330.805,385.526 328.138,388.526 325.5,391.5C 313.2,386.532 302.2,379.532 292.5,370.5C 295.42,365.573 298.754,360.906 302.5,356.5C 302.833,355.833 303.167,355.167 303.5,354.5 Z"/></g>
<g><path style="opacity:1" fill="#bd7f77" d="M 161.5,316.5 C 168.914,325.593 175.581,335.26 181.5,345.5C 183.642,351.117 186.308,356.45 189.5,361.5C 191.55,365.981 193.217,370.648 194.5,375.5C 184.5,378.5 174.5,381.5 164.5,384.5C 159.507,363.985 159.174,343.318 163.5,322.5C 163.281,320.307 162.615,318.307 161.5,316.5 Z"/></g>
<g><path style="opacity:1" fill="#bf8079" d="M 462.5,357.5 C 468.424,365.689 474.091,374.022 479.5,382.5C 473.069,388.601 466.069,393.934 458.5,398.5C 452.5,389.5 446.5,380.5 440.5,371.5C 442.525,369.804 444.525,368.137 446.5,366.5C 451.833,363.5 457.167,360.5 462.5,357.5 Z"/></g>
<g><path style="opacity:1" fill="#9e5e5e" d="M 496.5,374.5 C 496.37,383.726 493.204,391.726 487,398.5C 469.276,415.062 451.443,431.395 433.5,447.5C 422.833,441.5 412.167,435.5 401.5,429.5C 403.502,421.465 406.835,414.132 411.5,407.5C 428.146,410.165 443.812,407.165 458.5,398.5C 466.069,393.934 473.069,388.601 479.5,382.5C 484.478,377.187 489.478,371.854 494.5,366.5C 495.168,369.306 495.834,371.972 496.5,374.5 Z"/></g>
<g><path style="opacity:1" fill="#c74a44" d="M 142.5,365.5 C 143.328,370.357 144.162,375.357 145,380.5C 147.685,387.718 149.852,395.051 151.5,402.5C 137.167,402.5 122.833,402.5 108.5,402.5C 109.435,398.03 110.768,393.697 112.5,389.5C 120.604,383.909 128.604,378.076 136.5,372C 138.899,370.02 140.899,367.853 142.5,365.5 Z"/></g>
<g><path style="opacity:1" fill="#c8aca1" d="M 240.5,379.5 C 241.766,380.09 243.099,380.59 244.5,381C 256.525,381.251 268.525,381.751 280.5,382.5C 276.563,387.776 272.229,392.776 267.5,397.5C 261.702,402.797 256.035,408.297 250.5,414C 247.603,416.41 244.603,418.577 241.5,420.5C 241.135,406.834 240.802,393.168 240.5,379.5 Z"/></g>
<g><path style="opacity:1" fill="#c68d82" d="M 440.5,371.5 C 446.5,380.5 452.5,389.5 458.5,398.5C 443.812,407.165 428.146,410.165 411.5,407.5C 417.104,395.966 424.437,385.633 433.5,376.5C 436.093,375.246 438.427,373.58 440.5,371.5 Z"/></g>
<g><path style="opacity:1" fill="#cf514b" d="M 292.5,370.5 C 302.2,379.532 313.2,386.532 325.5,391.5C 316.827,401.173 307.494,410.173 297.5,418.5C 288.578,410.032 278.578,403.032 267.5,397.5C 272.229,392.776 276.563,387.776 280.5,382.5C 284.86,378.806 288.86,374.806 292.5,370.5 Z"/></g>
<g><path style="opacity:1" fill="#c8afa3" d="M 392.5,350.5 C 391.319,367.154 390.319,383.821 389.5,400.5C 372.827,400.425 356.16,400.091 339.5,399.5C 339.611,398.883 339.944,398.383 340.5,398C 345.76,398.072 350.76,397.072 355.5,395C 369.205,381.144 381.539,366.311 392.5,350.5 Z"/></g>
<g><path style="opacity:1" fill="#b77069" d="M 194.5,375.5 C 199.685,388.431 203.352,401.764 205.5,415.5C 207.417,427.608 207.75,439.608 206.5,451.5C 206.828,446.125 206.495,440.792 205.5,435.5C 183.682,425.019 170.015,408.019 164.5,384.5C 174.5,381.5 184.5,378.5 194.5,375.5 Z"/></g>
<g><path style="opacity:1" fill="#c7443e" d="M 108.5,402.5 C 122.833,402.5 137.167,402.5 151.5,402.5C 151.323,406.234 151.656,409.901 152.5,413.5C 154.521,430.281 148.854,443.781 135.5,454C 132.634,455.457 129.634,455.79 126.5,455C 117.509,448.674 111.675,440.174 109,429.5C 108.5,420.506 108.334,411.506 108.5,402.5 Z"/></g>
<g><path style="opacity:1" fill="#c5a69c" d="M 339.5,399.5 C 356.16,400.091 372.827,400.425 389.5,400.5C 389.653,411.521 389.32,422.521 388.5,433.5C 360.168,432.79 331.834,432.124 303.5,431.5C 315.772,421.233 327.772,410.567 339.5,399.5 Z"/></g>
<g><path style="opacity:1" fill="#c94a43" d="M 267.5,397.5 C 278.578,403.032 288.578,410.032 297.5,418.5C 281.33,432.681 264.33,445.681 246.5,457.5C 242.5,459.833 238.5,462.167 234.5,464.5C 231.34,452.623 230.84,440.623 233,428.5C 235.703,425.629 238.536,422.962 241.5,420.5C 244.603,418.577 247.603,416.41 250.5,414C 256.035,408.297 261.702,402.797 267.5,397.5 Z"/></g>
<g><path style="opacity:1" fill="#c0a195" d="M 303.5,431.5 C 331.834,432.124 360.168,432.79 388.5,433.5C 388.5,441.167 388.5,448.833 388.5,456.5C 378.167,456.5 367.833,456.5 357.5,456.5C 355.901,456.232 354.568,456.566 353.5,457.5C 341.833,457.5 330.167,457.5 318.5,457.5C 302.675,456.504 286.675,456.17 270.5,456.5C 281.641,448.421 292.641,440.088 303.5,431.5 Z"/></g>
<g><path style="opacity:1" fill="#e6b8b1" d="M 401.5,429.5 C 412.167,435.5 422.833,441.5 433.5,447.5C 433.089,451.221 432.422,454.888 431.5,458.5C 419.451,456.323 407.451,453.823 395.5,451C 394.244,450.583 393.577,449.75 393.5,448.5C 395.373,441.764 398.039,435.43 401.5,429.5 Z"/></g>
<g><path style="opacity:1" fill="#525164" d="M 270.5,456.5 C 286.675,456.17 302.675,456.504 318.5,457.5C 304.829,457.333 291.163,457.5 277.5,458C 274.926,469.372 272.926,480.872 271.5,492.5C 273.099,492.232 274.432,492.566 275.5,493.5C 261.833,493.5 248.167,493.5 234.5,493.5C 234.5,483.833 234.5,474.167 234.5,464.5C 238.5,462.167 242.5,459.833 246.5,457.5C 254.555,457.77 262.555,457.437 270.5,456.5 Z"/></g>
<g><path style="opacity:1" fill="#49495b" d="M 318.5,457.5 C 318.5,466.167 318.5,474.833 318.5,483.5C 318.5,486.833 318.5,490.167 318.5,493.5C 304.167,493.5 289.833,493.5 275.5,493.5C 274.432,492.566 273.099,492.232 271.5,492.5C 272.926,480.872 274.926,469.372 277.5,458C 291.163,457.5 304.829,457.333 318.5,457.5 Z"/></g>
<g><path style="opacity:1" fill="#e0762b" d="M 357.5,456.5 C 357.5,468.833 357.5,481.167 357.5,493.5C 344.5,493.5 331.5,493.5 318.5,493.5C 318.5,490.167 318.5,486.833 318.5,483.5C 318.833,483.5 319.167,483.5 319.5,483.5C 333.412,483.386 343.745,477.386 350.5,465.5C 351.499,462.838 352.499,460.172 353.5,457.5C 354.568,456.566 355.901,456.232 357.5,456.5 Z"/></g>
<g><path style="opacity:1" fill="#3a394c" d="M 357.5,456.5 C 367.833,456.5 378.167,456.5 388.5,456.5C 388.5,458.833 388.5,461.167 388.5,463.5C 388.5,465.167 388.5,466.833 388.5,468.5C 388.104,476.918 387.104,485.251 385.5,493.5C 376.167,493.5 366.833,493.5 357.5,493.5C 357.5,481.167 357.5,468.833 357.5,456.5 Z"/></g>
<g><path style="opacity:1" fill="#e5b363" d="M 318.5,457.5 C 330.167,457.5 341.833,457.5 353.5,457.5C 352.499,460.172 351.499,462.838 350.5,465.5C 340.143,465.672 329.81,465.339 319.5,464.5C 319.5,470.833 319.5,477.167 319.5,483.5C 319.167,483.5 318.833,483.5 318.5,483.5C 318.5,474.833 318.5,466.167 318.5,457.5 Z"/></g>
<g><path style="opacity:1" fill="#e7c6bf" d="M 393.5,448.5 C 393.577,449.75 394.244,450.583 395.5,451C 407.451,453.823 419.451,456.323 431.5,458.5C 430.769,460.599 430.769,462.599 431.5,464.5C 441.825,467.16 446.825,473.827 446.5,484.5C 445.596,483.791 445.263,482.791 445.5,481.5C 426.45,477.757 407.45,473.757 388.5,469.5C 388.5,469.167 388.5,468.833 388.5,468.5C 388.5,466.833 388.5,465.167 388.5,463.5C 389.964,458.442 391.63,453.442 393.5,448.5 Z"/></g>
<g><path style="opacity:1" fill="#e7ac55" d="M 350.5,465.5 C 343.745,477.386 333.412,483.386 319.5,483.5C 319.5,477.167 319.5,470.833 319.5,464.5C 329.81,465.339 340.143,465.672 350.5,465.5 Z"/></g>
<g><path style="opacity:1" fill="#e7cdc8" d="M 388.5,469.5 C 407.45,473.757 426.45,477.757 445.5,481.5C 445.263,482.791 445.596,483.791 446.5,484.5C 446.149,487.238 445.482,489.904 444.5,492.5C 425.845,493.5 407.179,493.833 388.5,493.5C 388.5,485.5 388.5,477.5 388.5,469.5 Z"/></g>
<g><path style="opacity:1" fill="#83787f" d="M 388.5,468.5 C 388.5,468.833 388.5,469.167 388.5,469.5C 388.5,477.5 388.5,485.5 388.5,493.5C 387.5,493.5 386.5,493.5 385.5,493.5C 387.104,485.251 388.104,476.918 388.5,468.5 Z"/></g>
</svg>
