<?xml version="1.0" encoding="UTF-8"?>
<!DOCTYPE svg PUBLIC "-//W3C//DTD SVG 1.1//EN" "http://www.w3.org/Graphics/SVG/1.1/DTD/svg11.dtd">
<svg xmlns="http://www.w3.org/2000/svg" version="1.1" width="512px" height="512px" style="shape-rendering:geometricPrecision; text-rendering:geometricPrecision; image-rendering:optimizeQuality; fill-rule:evenodd; clip-rule:evenodd" xmlns:xlink="http://www.w3.org/1999/xlink">
<g><path style="opacity:1" fill="#3e3e51" d="M 131.5,15.5 C 133.441,15.8693 135.275,16.536 137,17.5C 146.88,32.0954 156.38,46.9288 165.5,62C 165.01,63.982 164.01,65.6487 162.5,67C 154.507,67.4997 146.507,67.6664 138.5,67.5C 138.789,70.6492 138.289,73.6492 137,76.5C 134,79.1667 131,79.1667 128,76.5C 126.711,73.6492 126.211,70.6492 126.5,67.5C 118.493,67.6664 110.493,67.4997 102.5,67C 100.99,65.6487 99.9903,63.982 99.5,62C 108.62,46.9288 118.12,32.0954 128,17.5C 129.302,16.9152 130.469,16.2485 131.5,15.5 Z"/></g>
<g><path style="opacity:1" fill="#3e3e51" d="M 375.5,144.5 C 372.047,142.838 368.714,141.171 365.5,139.5C 365.5,136.167 365.5,132.833 365.5,129.5C 366.078,119.176 366.412,108.843 366.5,98.5C 349.607,101.601 332.607,102.268 315.5,100.5C 314.51,112.813 309.51,123.146 300.5,131.5C 293.139,139.204 288.639,137.871 287,127.5C 284.774,123.139 281.274,121.639 276.5,123C 274.185,124.109 272.685,125.943 272,128.5C 271.501,132.821 271.334,137.154 271.5,141.5C 267.936,140.577 264.269,140.244 260.5,140.5C 261.511,133.201 260.011,126.534 256,120.5C 251.15,106.719 251.484,93.0525 257,79.5C 258.979,75.0435 261.813,71.2102 265.5,68C 263.624,58.8479 265.957,50.8479 272.5,44C 282.998,35.4206 294.998,30.0872 308.5,28C 325.629,24.8862 342.795,24.7195 360,27.5C 369.592,27.3486 378.759,25.3486 387.5,21.5C 389.614,22.0339 391.448,23.0339 393,24.5C 393.809,30.7489 393.642,36.9156 392.5,43C 396.167,43.3333 399.833,43.6667 403.5,44C 406.683,45.0183 408.016,47.185 407.5,50.5C 404.546,69.438 394.88,83.7714 378.5,93.5C 377.389,110.496 376.389,127.496 375.5,144.5 Z"/></g>
<g><path style="opacity:1" fill="#cbe6f6" d="M 143.5,47.5 C 136.49,47.3325 129.49,46.9991 122.5,46.5C 125.575,41.3566 128.908,36.3566 132.5,31.5C 136.192,36.8513 139.859,42.1846 143.5,47.5 Z"/></g>
<g><path style="opacity:1" fill="#656576" d="M 386.5,72.5 C 350.09,72.5107 313.756,71.8441 277.5,70.5C 274.676,65.0869 274.842,59.7535 278,54.5C 289.993,43.6146 304.16,37.7812 320.5,37C 333.003,36.5417 345.503,36.7083 358,37.5C 366.242,37.5596 374.408,36.893 382.5,35.5C 382.663,37.8568 382.497,40.1902 382,42.5C 379.042,45.3842 378.208,48.7175 379.5,52.5C 380.025,53.1924 380.692,53.6924 381.5,54C 386.155,54.4992 390.821,54.6658 395.5,54.5C 394.386,61.5502 391.386,67.5502 386.5,72.5 Z"/></g>
<g><path style="opacity:1" fill="#e2f6f8" d="M 122.5,46.5 C 129.49,46.9991 136.49,47.3325 143.5,47.5C 145.167,50.1667 146.833,52.8333 148.5,55.5C 137.833,56.8333 127.167,56.8333 116.5,55.5C 118.265,52.2911 120.265,49.2911 122.5,46.5 Z"/></g>
<g><path style="opacity:1" fill="#9097a3" d="M 116.5,55.5 C 127.167,56.8333 137.833,56.8333 148.5,55.5C 149.043,55.56 149.376,55.8933 149.5,56.5C 138.167,57.8333 126.833,57.8333 115.5,56.5C 115.624,55.8933 115.957,55.56 116.5,55.5 Z"/></g>
<g><path style="opacity:1" fill="#5c5c6f" d="M 277.5,70.5 C 313.756,71.8441 350.09,72.5107 386.5,72.5C 377.419,83.2709 365.752,89.4375 351.5,91C 333.033,92.9412 315.033,90.9412 297.5,85C 291.843,82.5066 286.51,79.5066 281.5,76C 279.536,74.549 278.203,72.7157 277.5,70.5 Z"/></g>
<g><path style="opacity:1" fill="#413e4f" d="M 205.5,139.5 C 201.167,139.5 196.833,139.5 192.5,139.5C 182.48,125.813 170.48,114.147 156.5,104.5C 155.336,110.807 155.169,117.141 156,123.5C 163.202,126.878 169.369,131.545 174.5,137.5C 170.167,138.167 165.833,138.833 161.5,139.5C 159.771,138.883 158.271,137.883 157,136.5C 156.667,147.5 156.333,158.5 156,169.5C 153.192,179.424 150.692,189.424 148.5,199.5C 145.167,199.5 141.833,199.5 138.5,199.5C 138.831,225.672 138.498,251.672 137.5,277.5C 137.333,250.165 137.5,222.831 138,195.5C 139.719,186.674 142.053,178.008 145,169.5C 145.83,145.33 145.663,121.33 144.5,97.5C 144.047,96.5416 143.381,95.7083 142.5,95C 135.833,94.3333 129.167,94.3333 122.5,95C 121.619,95.7083 120.953,96.5416 120.5,97.5C 119.337,121.33 119.17,145.33 120,169.5C 122.943,177.997 125.276,186.664 127,195.5C 127.5,222.831 127.667,250.165 127.5,277.5C 126.502,251.672 126.169,225.672 126.5,199.5C 123.167,199.5 119.833,199.5 116.5,199.5C 114.308,189.424 111.808,179.424 109,169.5C 108.667,158.5 108.333,147.5 108,136.5C 107.617,137.056 107.117,137.389 106.5,137.5C 101.305,137.821 96.3054,137.487 91.5,136.5C 96.3036,130.874 102.137,126.541 109,123.5C 109.831,117.141 109.664,110.807 108.5,104.5C 95.5318,113.469 84.1984,124.136 74.5,136.5C 70.1667,136.5 65.8333,136.5 61.5,136.5C 73.8176,117.016 90.1509,101.849 110.5,91C 116.284,84.2381 123.617,81.7381 132.5,83.5C 141.383,81.7381 148.716,84.2381 154.5,91C 175.897,102.564 192.897,118.731 205.5,139.5 Z"/></g>
<g><path style="opacity:1" fill="#565669" d="M 269.5,79.5 C 279.86,88.2678 291.693,94.6011 305,98.5C 305.137,107.07 302.304,114.57 296.5,121C 293.259,118.143 289.592,115.476 285.5,113C 278.436,111.255 272.269,112.755 267,117.5C 261.773,104.473 262.606,91.8065 269.5,79.5 Z"/></g>
<g><path style="opacity:1" fill="#c43e3e" d="M 91.5,136.5 C 82.4799,145.524 74.6466,155.524 68,166.5C 59.2343,176.948 48.2343,183.615 35,186.5C 31.7666,186.3 28.9333,185.133 26.5,183C 25.269,181.817 25.269,180.651 26.5,179.5C 42.4923,172.01 55.9923,161.343 67,147.5C 69.51,143.805 72.01,140.138 74.5,136.5C 84.1984,124.136 95.5318,113.469 108.5,104.5C 109.664,110.807 109.831,117.141 109,123.5C 102.137,126.541 96.3036,130.874 91.5,136.5 Z"/></g>
<g><path style="opacity:1" fill="#c43e3e" d="M 192.5,139.5 C 204.714,157.042 220.381,170.709 239.5,180.5C 237.427,184.539 234.093,186.539 229.5,186.5C 216.549,183.403 205.715,176.736 197,166.5C 190.447,156.041 182.947,146.374 174.5,137.5C 169.369,131.545 163.202,126.878 156,123.5C 155.169,117.141 155.336,110.807 156.5,104.5C 170.48,114.147 182.48,125.813 192.5,139.5 Z"/></g>
<g><path style="opacity:1" fill="#f9756b" d="M 144.5,97.5 C 144.5,113.5 144.5,129.5 144.5,145.5C 136.5,145.5 128.5,145.5 120.5,145.5C 120.5,129.5 120.5,113.5 120.5,97.5C 120.953,96.5416 121.619,95.7083 122.5,95C 129.167,94.3333 135.833,94.3333 142.5,95C 143.381,95.7083 144.047,96.5416 144.5,97.5 Z"/></g>
<g><path style="opacity:1" fill="#f8cac2" d="M 365.5,129.5 C 360.47,126.94 355.803,127.606 351.5,131.5C 347.167,131.5 342.833,131.5 338.5,131.5C 338.784,133.415 338.451,135.081 337.5,136.5C 337.896,133.956 337.229,131.789 335.5,130C 332.864,129.066 330.197,128.232 327.5,127.5C 324.013,128.469 322.68,130.802 323.5,134.5C 322.596,133.791 322.263,132.791 322.5,131.5C 315.167,131.5 307.833,131.5 300.5,131.5C 309.51,123.146 314.51,112.813 315.5,100.5C 332.607,102.268 349.607,101.601 366.5,98.5C 366.412,108.843 366.078,119.176 365.5,129.5 Z"/></g>
<g><path style="opacity:1" fill="#e2847f" d="M 337.5,136.5 C 336.608,138.714 334.942,139.714 332.5,139.5C 328.715,139.11 325.715,137.444 323.5,134.5C 322.68,130.802 324.013,128.469 327.5,127.5C 330.197,128.232 332.864,129.066 335.5,130C 337.229,131.789 337.896,133.956 337.5,136.5 Z"/></g>
<g><path style="opacity:1" fill="#de847f" d="M 365.5,129.5 C 365.5,132.833 365.5,136.167 365.5,139.5C 365.167,139.5 364.833,139.5 364.5,139.5C 364.649,138.448 364.483,137.448 364,136.5C 360.069,139.636 356.069,139.969 352,137.5C 351.505,135.527 351.338,133.527 351.5,131.5C 355.803,127.606 360.47,126.94 365.5,129.5 Z"/></g>
<g><path style="opacity:1" fill="#f8d2cb" d="M 300.5,131.5 C 307.833,131.5 315.167,131.5 322.5,131.5C 322.263,132.791 322.596,133.791 323.5,134.5C 325.715,137.444 328.715,139.11 332.5,139.5C 334.942,139.714 336.608,138.714 337.5,136.5C 338.451,135.081 338.784,133.415 338.5,131.5C 342.833,131.5 347.167,131.5 351.5,131.5C 351.338,133.527 351.505,135.527 352,137.5C 356.069,139.969 360.069,139.636 364,136.5C 364.483,137.448 364.649,138.448 364.5,139.5C 364.806,142.385 364.473,145.052 363.5,147.5C 349.015,146.167 334.182,145.501 319,145.5C 303.996,145.5 289.163,145.833 274.5,146.5C 273.263,145.035 272.263,143.368 271.5,141.5C 271.334,137.154 271.501,132.821 272,128.5C 272.685,125.943 274.185,124.109 276.5,123C 281.274,121.639 284.774,123.139 287,127.5C 288.639,137.871 293.139,139.204 300.5,131.5 Z"/></g>
<g><path style="opacity:1" fill="#3f3d4a" d="M 61.5,136.5 C 65.8333,136.5 70.1667,136.5 74.5,136.5C 72.01,140.138 69.51,143.805 67,147.5C 55.9923,161.343 42.4923,172.01 26.5,179.5C 25.269,180.651 25.269,181.817 26.5,183C 28.9333,185.133 31.7666,186.3 35,186.5C 48.2343,183.615 59.2343,176.948 68,166.5C 74.6466,155.524 82.4799,145.524 91.5,136.5C 96.3054,137.487 101.305,137.821 106.5,137.5C 95.3893,147.447 85.8893,158.781 78,171.5C 75.2031,175.299 72.0364,178.799 68.5,182C 61.4859,187.55 54.1526,192.384 46.5,196.5C 41.3595,197.488 36.0262,197.821 30.5,197.5C 18.4405,193.807 12.7738,185.807 13.5,173.5C 32.9953,165.668 48.9953,153.334 61.5,136.5 Z"/></g>
<g><path style="opacity:1" fill="#3f3d4a" d="M 174.5,137.5 C 182.947,146.374 190.447,156.041 197,166.5C 205.715,176.736 216.549,183.403 229.5,186.5C 234.093,186.539 237.427,184.539 239.5,180.5C 220.381,170.709 204.714,157.042 192.5,139.5C 196.833,139.5 201.167,139.5 205.5,139.5C 218.405,154.693 233.905,166.36 252,174.5C 252.299,179.607 250.966,184.273 248,188.5C 242.736,192.876 237.236,196.876 231.5,200.5C 225.974,200.821 220.64,200.488 215.5,199.5C 216.476,198.185 217.476,196.852 218.5,195.5C 205.826,190.323 195.326,182.323 187,171.5C 179.807,159.806 171.307,149.139 161.5,139.5C 165.833,138.833 170.167,138.167 174.5,137.5 Z"/></g>
<g><path style="opacity:1" fill="#3f3f4c" d="M 364.5,139.5 C 364.833,139.5 365.167,139.5 365.5,139.5C 368.714,141.171 372.047,142.838 375.5,144.5C 374.06,162.652 368.893,179.652 360,195.5C 357.499,198.848 354.332,201.182 350.5,202.5C 344.5,202.5 338.5,202.5 332.5,202.5C 318.259,199.048 304.926,193.382 292.5,185.5C 291.505,190.792 291.172,196.125 291.5,201.5C 288.167,201.5 284.833,201.5 281.5,201.5C 281.829,188.656 281.495,175.989 280.5,163.5C 268.825,160.16 262.159,152.494 260.5,140.5C 264.269,140.244 267.936,140.577 271.5,141.5C 272.263,143.368 273.263,145.035 274.5,146.5C 275.29,147.794 276.29,148.961 277.5,150C 281.809,151.985 285.976,154.152 290,156.5C 291.041,160.906 291.874,165.239 292.5,169.5C 292.751,171.17 293.418,172.67 294.5,174C 306.771,182.468 320.104,188.801 334.5,193C 343.887,195.556 350.387,192.389 354,183.5C 357.612,175.832 360.112,167.832 361.5,159.5C 363.25,155.817 363.917,151.817 363.5,147.5C 364.473,145.052 364.806,142.385 364.5,139.5 Z"/></g>
<g><path style="opacity:1" fill="#ee6d66" d="M 120.5,97.5 C 120.5,113.5 120.5,129.5 120.5,145.5C 128.5,145.5 136.5,145.5 144.5,145.5C 144.5,129.5 144.5,113.5 144.5,97.5C 145.663,121.33 145.83,145.33 145,169.5C 142.053,178.008 139.719,186.674 138,195.5C 137.5,222.831 137.333,250.165 137.5,277.5C 134.167,277.5 130.833,277.5 127.5,277.5C 127.667,250.165 127.5,222.831 127,195.5C 125.276,186.664 122.943,177.997 120,169.5C 119.17,145.33 119.337,121.33 120.5,97.5 Z"/></g>
<g><path style="opacity:1" fill="#f8d8d2" d="M 363.5,147.5 C 363.917,151.817 363.25,155.817 361.5,159.5C 338.5,159.5 315.5,159.5 292.5,159.5C 292.5,162.833 292.5,166.167 292.5,169.5C 291.874,165.239 291.041,160.906 290,156.5C 285.976,154.152 281.809,151.985 277.5,150C 276.29,148.961 275.29,147.794 274.5,146.5C 289.163,145.833 303.996,145.5 319,145.5C 334.182,145.501 349.015,146.167 363.5,147.5 Z"/></g>
<g><path style="opacity:1" fill="#f8dfd9" d="M 361.5,159.5 C 360.112,167.832 357.612,175.832 354,183.5C 350.387,192.389 343.887,195.556 334.5,193C 320.104,188.801 306.771,182.468 294.5,174C 293.418,172.67 292.751,171.17 292.5,169.5C 292.5,166.167 292.5,162.833 292.5,159.5C 315.5,159.5 338.5,159.5 361.5,159.5 Z"/></g>
<g><path style="opacity:1" fill="#dd817c" d="M 332.5,202.5 C 332.5,203.5 332.5,204.5 332.5,205.5C 318.824,205.513 305.157,205.846 291.5,206.5C 291.5,204.833 291.5,203.167 291.5,201.5C 291.172,196.125 291.505,190.792 292.5,185.5C 304.926,193.382 318.259,199.048 332.5,202.5 Z"/></g>
<g><path style="opacity:1" fill="#38374b" d="M 46.5,196.5 C 66.1262,212.288 85.6262,228.288 105,244.5C 105.861,253.327 102.361,255.494 94.5,251C 72.9109,233.386 51.5776,215.553 30.5,197.5C 36.0262,197.821 41.3595,197.488 46.5,196.5 Z"/></g>
<g><path style="opacity:1" fill="#38384b" d="M 116.5,199.5 C 119.833,199.5 123.167,199.5 126.5,199.5C 126.169,225.672 126.502,251.672 127.5,277.5C 130.833,277.5 134.167,277.5 137.5,277.5C 138.498,251.672 138.831,225.672 138.5,199.5C 141.833,199.5 145.167,199.5 148.5,199.5C 148.167,225.842 148.5,252.175 149.5,278.5C 158.135,282.811 162.802,289.811 163.5,299.5C 162.539,301.265 162.205,303.265 162.5,305.5C 159.167,305.5 155.833,305.5 152.5,305.5C 152.813,301.958 152.479,298.625 151.5,295.5C 150.409,292.572 148.409,290.406 145.5,289C 136.5,288.333 127.5,288.333 118.5,289C 116.21,290.777 114.543,292.944 113.5,295.5C 112.523,298.287 112.19,301.287 112.5,304.5C 109.167,304.5 105.833,304.5 102.5,304.5C 102.5,312.5 102.5,320.5 102.5,328.5C 101.122,316.297 101.289,303.964 103,291.5C 105.302,285.365 109.469,281.031 115.5,278.5C 116.5,252.175 116.833,225.842 116.5,199.5 Z"/></g>
<g><path style="opacity:1" fill="#38374a" d="M 215.5,199.5 C 220.64,200.488 225.974,200.821 231.5,200.5C 211.065,217.092 190.732,233.925 170.5,251C 162.639,255.494 159.139,253.327 160,244.5C 178.393,229.264 196.893,214.264 215.5,199.5 Z"/></g>
<g><path style="opacity:1" fill="#39394c" d="M 280.5,163.5 C 281.495,175.989 281.829,188.656 281.5,201.5C 284.833,201.5 288.167,201.5 291.5,201.5C 291.5,203.167 291.5,204.833 291.5,206.5C 291.338,208.527 291.505,210.527 292,212.5C 304.662,219.207 318.162,222.874 332.5,223.5C 332.5,217.5 332.5,211.5 332.5,205.5C 332.5,204.5 332.5,203.5 332.5,202.5C 338.5,202.5 344.5,202.5 350.5,202.5C 348.485,203.924 346.152,204.59 343.5,204.5C 343.5,210.833 343.5,217.167 343.5,223.5C 351.88,223.738 360.213,223.238 368.5,222C 369.766,221.691 370.933,221.191 372,220.5C 373.039,218.254 374.206,216.087 375.5,214C 377.833,213.333 380.167,213.333 382.5,214C 393.667,222.5 403.5,232.333 412,243.5C 414.282,247.179 415.449,251.179 415.5,255.5C 415.069,259.25 414.569,262.916 414,266.5C 425.096,281.048 435.929,295.714 446.5,310.5C 442.143,310.414 437.81,310.08 433.5,309.5C 427.817,303.146 422.484,296.48 417.5,289.5C 414.165,285.325 410.998,280.992 408,276.5C 405.936,280.961 403.602,285.294 401,289.5C 400.305,296.194 399.472,302.861 398.5,309.5C 392.167,309.5 385.833,309.5 379.5,309.5C 387.167,295.499 394.334,281.165 401,266.5C 402.773,262.848 403.94,259.015 404.5,255C 399.574,243.715 391.908,234.548 381.5,227.5C 371.631,249.572 360.964,271.239 349.5,292.5C 354.827,297.494 360.161,302.494 365.5,307.5C 361.366,308.485 357.032,308.818 352.5,308.5C 349.714,306.887 347.047,305.054 344.5,303C 338.627,301.042 334.627,302.875 332.5,308.5C 328.5,308.5 324.5,308.5 320.5,308.5C 324.198,300.135 330.198,294.135 338.5,290.5C 341.605,284.44 344.605,278.44 347.5,272.5C 343.833,272.5 340.167,272.5 336.5,272.5C 324.33,271.86 312.663,269.193 301.5,264.5C 291.252,260.043 281.252,255.043 271.5,249.5C 261.179,242.987 251.512,235.487 242.5,227C 240.217,224.81 237.551,224.143 234.5,225C 228.667,230.833 222.833,236.667 217,242.5C 216.685,243.908 217.018,245.241 218,246.5C 228.655,260.32 240.489,272.987 253.5,284.5C 261.247,291.877 269.58,298.543 278.5,304.5C 279.872,305.512 281.205,306.512 282.5,307.5C 276.833,307.5 271.167,307.5 265.5,307.5C 250.214,296.65 236.214,284.15 223.5,270C 221.762,270.227 220.762,271.394 220.5,273.5C 216.444,284.612 212.11,295.612 207.5,306.5C 203.821,306.276 200.154,305.942 196.5,305.5C 202.351,290.294 208.351,275.127 214.5,260C 210.609,255.107 207.109,249.94 204,244.5C 203.365,242.365 203.699,240.365 205,238.5C 213.232,229.598 222.066,221.431 231.5,214C 237.639,212.549 243.139,213.716 248,217.5C 251.833,211 257,205.833 263.5,202C 269.639,200.549 275.139,201.716 280,205.5C 280.5,191.504 280.667,177.504 280.5,163.5 Z"/></g>
<g><path style="opacity:1" fill="#7f95d5" d="M 287.5,222.5 C 283.663,228.17 280.33,234.17 277.5,240.5C 269.67,236.081 262.337,230.914 255.5,225C 258.833,221 262.167,217 265.5,213C 268.303,212.245 270.97,212.578 273.5,214C 278.064,217.11 282.731,219.944 287.5,222.5 Z"/></g>
<g><path style="opacity:1" fill="#f5c6bf" d="M 332.5,205.5 C 332.5,211.5 332.5,217.5 332.5,223.5C 318.162,222.874 304.662,219.207 292,212.5C 291.505,210.527 291.338,208.527 291.5,206.5C 305.157,205.846 318.824,205.513 332.5,205.5 Z"/></g>
<g><path style="opacity:1" fill="#738bcc" d="M 287.5,222.5 C 297.435,227.034 307.768,230.367 318.5,232.5C 316.538,237.757 314.038,242.757 311,247.5C 310.329,248.252 309.496,248.586 308.5,248.5C 298.582,247.194 288.915,244.86 279.5,241.5C 278.833,241.167 278.167,240.833 277.5,240.5C 280.33,234.17 283.663,228.17 287.5,222.5 Z"/></g>
<g><path style="opacity:1" fill="#f6746d" d="M 379.5,309.5 C 377.841,311.469 376.175,313.469 374.5,315.5C 371.48,312.811 368.48,310.144 365.5,307.5C 360.161,302.494 354.827,297.494 349.5,292.5C 360.964,271.239 371.631,249.572 381.5,227.5C 391.908,234.548 399.574,243.715 404.5,255C 403.94,259.015 402.773,262.848 401,266.5C 394.334,281.165 387.167,295.499 379.5,309.5 Z"/></g>
<g><path style="opacity:1" fill="#384b81" d="M 279.5,241.5 C 288.915,244.86 298.582,247.194 308.5,248.5C 321.224,251.287 334.224,252.454 347.5,252C 350.855,246.458 353.522,240.625 355.5,234.5C 359.559,234.434 363.559,234.267 367.5,234C 363.28,242.789 358.947,251.622 354.5,260.5C 342.059,263.305 329.726,262.805 317.5,259C 303.853,255.006 291.187,249.173 279.5,241.5 Z"/></g>
<g><path style="opacity:1" fill="#657dc0" d="M 318.5,232.5 C 330.743,234.25 343.076,234.917 355.5,234.5C 353.522,240.625 350.855,246.458 347.5,252C 334.224,252.454 321.224,251.287 308.5,248.5C 309.496,248.586 310.329,248.252 311,247.5C 314.038,242.757 316.538,237.757 318.5,232.5 Z"/></g>
<g><path style="opacity:1" fill="#8197d9" d="M 271.5,249.5 C 265.245,261.01 259.245,272.677 253.5,284.5C 240.489,272.987 228.655,260.32 218,246.5C 217.018,245.241 216.685,243.908 217,242.5C 222.833,236.667 228.667,230.833 234.5,225C 237.551,224.143 240.217,224.81 242.5,227C 251.512,235.487 261.179,242.987 271.5,249.5 Z"/></g>
<g><path style="opacity:1" fill="#748bcc" d="M 271.5,249.5 C 281.252,255.043 291.252,260.043 301.5,264.5C 294.324,278.195 286.657,291.528 278.5,304.5C 269.58,298.543 261.247,291.877 253.5,284.5C 259.245,272.677 265.245,261.01 271.5,249.5 Z"/></g>
<g><path style="opacity:1" fill="#9b8383" d="M 265.5,307.5 C 277.167,316.428 289.333,324.762 302,332.5C 300.934,335.966 299.267,339.299 297,342.5C 296.812,346.378 296.646,350.044 296.5,353.5C 296.141,351.629 295.141,350.129 293.5,349C 264.847,327.85 240.514,302.683 220.5,273.5C 220.762,271.394 221.762,270.227 223.5,270C 236.214,284.15 250.214,296.65 265.5,307.5 Z"/></g>
<g><path style="opacity:1" fill="#667ec1" d="M 301.5,264.5 C 312.663,269.193 324.33,271.86 336.5,272.5C 333.77,277.404 330.436,281.904 326.5,286C 322.103,287.617 318.269,290.117 315,293.5C 309.637,301.678 304.137,309.678 298.5,317.5C 292.901,314.562 287.567,311.229 282.5,307.5C 281.205,306.512 279.872,305.512 278.5,304.5C 286.657,291.528 294.324,278.195 301.5,264.5 Z"/></g>
<g><path style="opacity:1" fill="#384b82" d="M 336.5,272.5 C 340.167,272.5 343.833,272.5 347.5,272.5C 344.605,278.44 341.605,284.44 338.5,290.5C 330.198,294.135 324.198,300.135 320.5,308.5C 317.863,311.989 315.363,315.655 313,319.5C 311.705,321.122 310.205,322.455 308.5,323.5C 304.809,321.993 301.476,319.993 298.5,317.5C 304.137,309.678 309.637,301.678 315,293.5C 318.269,290.117 322.103,287.617 326.5,286C 330.436,281.904 333.77,277.404 336.5,272.5 Z"/></g>
<g><path style="opacity:1" fill="#9b8282" d="M 417.5,289.5 C 405.811,318.719 412.811,342.719 438.5,361.5C 436.211,363.448 433.878,365.448 431.5,367.5C 424.643,361.566 417.977,355.399 411.5,349C 408.303,346.88 405.303,347.047 402.5,349.5C 400.833,347.167 398.833,345.167 396.5,343.5C 395.939,342.092 395.605,340.592 395.5,339C 396.418,329.152 397.418,319.319 398.5,309.5C 399.472,302.861 400.305,296.194 401,289.5C 403.602,285.294 405.936,280.961 408,276.5C 410.998,280.992 414.165,285.325 417.5,289.5 Z"/></g>
<g><path style="opacity:1" fill="#f9cfc8" d="M 151.5,295.5 C 151.5,300.5 151.5,305.5 151.5,310.5C 138.807,310.752 126.141,311.418 113.5,312.5C 113.5,306.833 113.5,301.167 113.5,295.5C 114.543,292.944 116.21,290.777 118.5,289C 127.5,288.333 136.5,288.333 145.5,289C 148.409,290.406 150.409,292.572 151.5,295.5 Z"/></g>
<g><path style="opacity:1" fill="#393844" d="M 163.5,299.5 C 163.184,302.978 163.684,306.312 165,309.5C 171.567,316.968 177.4,324.968 182.5,333.5C 187.197,324.106 191.864,314.773 196.5,305.5C 200.154,305.942 203.821,306.276 207.5,306.5C 201.407,319.609 195.407,332.776 189.5,346C 193.312,354.455 196.979,362.955 200.5,371.5C 202.234,375.702 203.567,380.035 204.5,384.5C 201.167,384.5 197.833,384.5 194.5,384.5C 192.695,379.751 190.695,375.085 188.5,370.5C 182.559,354.611 174.559,339.945 164.5,326.5C 164.217,325.711 163.717,325.044 163,324.5C 163.086,335.013 158.586,342.68 149.5,347.5C 149.145,359.643 150.479,371.643 153.5,383.5C 150.167,383.5 146.833,383.5 143.5,383.5C 141.694,378.609 140.361,373.609 139.5,368.5C 138.89,362.185 138.557,355.851 138.5,349.5C 134.5,349.5 130.5,349.5 126.5,349.5C 126.376,359.611 125.376,369.611 123.5,379.5C 122.833,380.833 122.167,382.167 121.5,383.5C 118.375,382.521 115.042,382.187 111.5,382.5C 114.565,370.987 115.565,359.32 114.5,347.5C 106.411,343.745 102.411,337.412 102.5,328.5C 102.5,320.5 102.5,312.5 102.5,304.5C 105.833,304.5 109.167,304.5 112.5,304.5C 112.334,313.173 112.5,321.84 113,330.5C 114.105,333.937 116.272,336.437 119.5,338C 127.833,338.667 136.167,338.667 144.5,338C 148.307,336.86 150.807,334.36 152,330.5C 152.5,322.173 152.666,313.84 152.5,305.5C 155.833,305.5 159.167,305.5 162.5,305.5C 162.205,303.265 162.539,301.265 163.5,299.5 Z"/></g>
<g><path style="opacity:1" fill="#e2cac2" d="M 220.5,273.5 C 240.514,302.683 264.847,327.85 293.5,349C 295.141,350.129 296.141,351.629 296.5,353.5C 293.848,357.482 290.848,361.149 287.5,364.5C 273.82,364.588 260.153,364.255 246.5,363.5C 246.826,354.983 246.493,346.65 245.5,338.5C 244.199,332.223 242.033,326.223 239,320.5C 236.374,316.928 233.374,316.595 230,319.5C 229.833,320.667 229.667,321.833 229.5,323C 230.744,327.656 232.411,332.156 234.5,336.5C 234.887,341.08 234.053,345.414 232,349.5C 226.267,358.569 219.767,367.069 212.5,375C 207.643,376.407 203.643,375.24 200.5,371.5C 196.979,362.955 193.312,354.455 189.5,346C 195.407,332.776 201.407,319.609 207.5,306.5C 212.11,295.612 216.444,284.612 220.5,273.5 Z"/></g>
<g><path style="opacity:1" fill="#3a3945" d="M 265.5,307.5 C 271.167,307.5 276.833,307.5 282.5,307.5C 287.567,311.229 292.901,314.562 298.5,317.5C 301.476,319.993 304.809,321.993 308.5,323.5C 310.205,322.455 311.705,321.122 313,319.5C 315.363,315.655 317.863,311.989 320.5,308.5C 324.5,308.5 328.5,308.5 332.5,308.5C 329.5,313.167 326.5,317.833 323.5,322.5C 319.199,328.477 314.865,334.477 310.5,340.5C 307.167,344.01 306.667,348.01 309,352.5C 315.09,359.096 321.59,365.096 328.5,370.5C 331.406,375.382 335.406,376.549 340.5,374C 351.186,361.459 361.019,348.292 370,334.5C 371.211,328.878 369.377,324.544 364.5,321.5C 360.5,317.167 356.5,312.833 352.5,308.5C 357.032,308.818 361.366,308.485 365.5,307.5C 368.48,310.144 371.48,312.811 374.5,315.5C 376.175,313.469 377.841,311.469 379.5,309.5C 385.833,309.5 392.167,309.5 398.5,309.5C 397.418,319.319 396.418,329.152 395.5,339C 395.605,340.592 395.939,342.092 396.5,343.5C 394.961,357.979 393.961,372.646 393.5,387.5C 389.498,387.036 385.831,387.702 382.5,389.5C 382.638,379.825 382.971,370.158 383.5,360.5C 384.833,345.635 386,330.635 387,315.5C 385,318.833 383,322.167 381,325.5C 380.811,330.251 380.145,334.917 379,339.5C 369.688,353.955 359.521,367.789 348.5,381C 343.452,384.067 338.119,386.233 332.5,387.5C 328.702,386.517 324.702,386.183 320.5,386.5C 321.81,384.852 323.143,383.186 324.5,381.5C 317.383,375.885 310.716,369.718 304.5,363C 303.004,362.493 301.837,362.993 301,364.5C 298.946,367.047 297.113,369.714 295.5,372.5C 291.167,377.167 286.833,381.833 282.5,386.5C 278.702,385.517 274.702,385.183 270.5,385.5C 276.522,378.809 282.189,371.809 287.5,364.5C 290.848,361.149 293.848,357.482 296.5,353.5C 296.646,350.044 296.812,346.378 297,342.5C 299.267,339.299 300.934,335.966 302,332.5C 289.333,324.762 277.167,316.428 265.5,307.5 Z"/></g>
<g><path style="opacity:1" fill="#393845" d="M 433.5,309.5 C 437.81,310.08 442.143,310.414 446.5,310.5C 454.97,321.148 463.303,331.981 471.5,343C 476.825,342.508 482.158,341.674 487.5,340.5C 489.912,340.406 491.745,341.406 493,343.5C 497.809,355.49 499.143,367.823 497,380.5C 496.156,384.229 494.656,387.563 492.5,390.5C 489.038,389.518 485.371,389.185 481.5,389.5C 485.104,383.013 487.104,376.013 487.5,368.5C 487.506,363.363 486.673,358.363 485,353.5C 484.107,352.919 483.107,352.585 482,352.5C 470.517,355.162 460.017,359.829 450.5,366.5C 440.594,372.737 431.928,380.404 424.5,389.5C 420.954,388.385 417.288,387.385 413.5,386.5C 416.251,382.243 419.584,378.41 423.5,375C 416.667,368.833 409.833,362.667 403,356.5C 401.336,354.214 401.17,351.881 402.5,349.5C 405.303,347.047 408.303,346.88 411.5,349C 417.977,355.399 424.643,361.566 431.5,367.5C 433.878,365.448 436.211,363.448 438.5,361.5C 445.81,356.507 453.477,352.007 461.5,348C 451.924,335.27 442.59,322.437 433.5,309.5 Z"/></g>
<g><path style="opacity:1" fill="#f8c878" d="M 352.5,308.5 C 356.5,312.833 360.5,317.167 364.5,321.5C 363.503,324.817 362.503,328.15 361.5,331.5C 349.619,329.49 337.786,327.157 326,324.5C 324.624,324.316 323.791,323.649 323.5,322.5C 326.5,317.833 329.5,313.167 332.5,308.5C 334.627,302.875 338.627,301.042 344.5,303C 347.047,305.054 349.714,306.887 352.5,308.5 Z"/></g>
<g><path style="opacity:1" fill="#393945" d="M 245.5,338.5 C 245.619,354.172 245.953,369.839 246.5,385.5C 242.865,384.886 239.198,384.552 235.5,384.5C 235.664,381.813 235.497,379.146 235,376.5C 233.726,379.391 232.226,382.058 230.5,384.5C 226.5,384.5 222.5,384.5 218.5,384.5C 224.229,374.044 229.729,363.377 235,352.5C 235.817,346.984 235.651,341.65 234.5,336.5C 232.411,332.156 230.744,327.656 229.5,323C 229.667,321.833 229.833,320.667 230,319.5C 233.374,316.595 236.374,316.928 239,320.5C 242.033,326.223 244.199,332.223 245.5,338.5 Z"/></g>
<g><path style="opacity:1" fill="#9a8282" d="M 383.5,360.5 C 383.631,359.761 383.464,359.094 383,358.5C 374.707,371.209 364.873,382.709 353.5,393C 348.723,394.98 343.723,395.98 338.5,396C 330.938,403.73 323.272,411.23 315.5,418.5C 311.183,421.486 307.183,424.82 303.5,428.5C 297.19,432.815 291.19,437.482 285.5,442.5C 282.527,444.147 279.86,446.147 277.5,448.5C 273.486,448.666 269.486,448.499 265.5,448C 290.171,430.5 312.504,410.333 332.5,387.5C 338.119,386.233 343.452,384.067 348.5,381C 359.521,367.789 369.688,353.955 379,339.5C 380.145,334.917 380.811,330.251 381,325.5C 383,322.167 385,318.833 387,315.5C 386,330.635 384.833,345.635 383.5,360.5 Z"/></g>
<g><path style="opacity:1" fill="#ef873e" d="M 364.5,321.5 C 369.377,324.544 371.211,328.878 370,334.5C 361.019,348.292 351.186,361.459 340.5,374C 335.406,376.549 331.406,375.382 328.5,370.5C 331.401,369.464 333.901,367.797 336,365.5C 340,360.005 344.166,354.671 348.5,349.5C 353.608,344.059 357.941,338.059 361.5,331.5C 362.503,328.15 363.503,324.817 364.5,321.5 Z"/></g>
<g><path style="opacity:1" fill="#f0bab2" d="M 113.5,295.5 C 113.5,301.167 113.5,306.833 113.5,312.5C 113.5,316.833 113.5,321.167 113.5,325.5C 126.164,324.794 138.831,324.128 151.5,323.5C 151.5,319.167 151.5,314.833 151.5,310.5C 151.5,305.5 151.5,300.5 151.5,295.5C 152.479,298.625 152.813,301.958 152.5,305.5C 152.666,313.84 152.5,322.173 152,330.5C 150.807,334.36 148.307,336.86 144.5,338C 136.167,338.667 127.833,338.667 119.5,338C 116.272,336.437 114.105,333.937 113,330.5C 112.5,321.84 112.334,313.173 112.5,304.5C 112.19,301.287 112.523,298.287 113.5,295.5 Z"/></g>
<g><path style="opacity:1" fill="#fac7bf" d="M 151.5,310.5 C 151.5,314.833 151.5,319.167 151.5,323.5C 138.831,324.128 126.164,324.794 113.5,325.5C 113.5,321.167 113.5,316.833 113.5,312.5C 126.141,311.418 138.807,310.752 151.5,310.5 Z"/></g>
<g><path style="opacity:1" fill="#dbc1b8" d="M 417.5,289.5 C 422.484,296.48 427.817,303.146 433.5,309.5C 442.59,322.437 451.924,335.27 461.5,348C 453.477,352.007 445.81,356.507 438.5,361.5C 412.811,342.719 405.811,318.719 417.5,289.5 Z"/></g>
<g><path style="opacity:1" fill="#f9bc65" d="M 323.5,322.5 C 323.791,323.649 324.624,324.316 326,324.5C 337.786,327.157 349.619,329.49 361.5,331.5C 357.941,338.059 353.608,344.059 348.5,349.5C 335.745,346.485 323.078,343.485 310.5,340.5C 314.865,334.477 319.199,328.477 323.5,322.5 Z"/></g>
<g><path style="opacity:1" fill="#ad6e6f" d="M 164.5,326.5 C 162.942,334.268 162.276,342.268 162.5,350.5C 162.034,360.474 163.034,370.141 165.5,379.5C 169.379,401.869 181.212,418.536 201,429.5C 201.495,427.527 201.662,425.527 201.5,423.5C 202.489,428.975 202.822,434.642 202.5,440.5C 184.676,433.52 170.176,422.186 159,406.5C 159.11,398.337 157.276,390.67 153.5,383.5C 150.479,371.643 149.145,359.643 149.5,347.5C 158.586,342.68 163.086,335.013 163,324.5C 163.717,325.044 164.217,325.711 164.5,326.5 Z"/></g>
<g><path style="opacity:1" fill="#9a8282" d="M 234.5,336.5 C 235.651,341.65 235.817,346.984 235,352.5C 229.729,363.377 224.229,374.044 218.5,384.5C 215.196,389.326 212.03,394.326 209,399.5C 207.435,394.498 205.935,389.498 204.5,384.5C 203.567,380.035 202.234,375.702 200.5,371.5C 203.643,375.24 207.643,376.407 212.5,375C 219.767,367.069 226.267,358.569 232,349.5C 234.053,345.414 234.887,341.08 234.5,336.5 Z"/></g>
<g><path style="opacity:1" fill="#c53e3e" d="M 139.5,368.5 C 134.312,372.696 129.145,377.029 124,381.5C 123.536,380.906 123.369,380.239 123.5,379.5C 125.376,369.611 126.376,359.611 126.5,349.5C 130.5,349.5 134.5,349.5 138.5,349.5C 138.557,355.851 138.89,362.185 139.5,368.5 Z"/></g>
<g><path style="opacity:1" fill="#f9b053" d="M 310.5,340.5 C 323.078,343.485 335.745,346.485 348.5,349.5C 344.166,354.671 340,360.005 336,365.5C 333.901,367.797 331.401,369.464 328.5,370.5C 321.59,365.096 315.09,359.096 309,352.5C 306.667,348.01 307.167,344.01 310.5,340.5 Z"/></g>
<g><path style="opacity:1" fill="#ce9088" d="M 164.5,326.5 C 174.559,339.945 182.559,354.611 188.5,370.5C 188.423,371.75 187.756,372.583 186.5,373C 179.573,375.476 172.573,377.643 165.5,379.5C 163.034,370.141 162.034,360.474 162.5,350.5C 162.276,342.268 162.942,334.268 164.5,326.5 Z"/></g>
<g><path style="opacity:1" fill="#c53e3e" d="M 320.5,386.5 C 319.833,386.833 319.167,387.167 318.5,387.5C 310.569,382.901 302.902,377.901 295.5,372.5C 297.113,369.714 298.946,367.047 301,364.5C 301.837,362.993 303.004,362.493 304.5,363C 310.716,369.718 317.383,375.885 324.5,381.5C 323.143,383.186 321.81,384.852 320.5,386.5 Z"/></g>
<g><path style="opacity:1" fill="#cc8b84" d="M 487.5,368.5 C 480.825,376.174 473.492,383.174 465.5,389.5C 460.08,382.086 455.08,374.419 450.5,366.5C 460.017,359.829 470.517,355.162 482,352.5C 483.107,352.585 484.107,352.919 485,353.5C 486.673,358.363 487.506,363.363 487.5,368.5 Z"/></g>
<g><path style="opacity:1" fill="#ad6f6f" d="M 487.5,368.5 C 487.104,376.013 485.104,383.013 481.5,389.5C 464.837,405.328 448.004,420.995 431,436.5C 423.841,430.002 415.674,425.169 406.5,422C 408.798,416.568 411.465,411.402 414.5,406.5C 433.679,406.996 450.679,401.329 465.5,389.5C 473.492,383.174 480.825,376.174 487.5,368.5 Z"/></g>
<g><path style="opacity:1" fill="#d6bcb3" d="M 245.5,338.5 C 246.493,346.65 246.826,354.983 246.5,363.5C 260.153,364.255 273.82,364.588 287.5,364.5C 282.189,371.809 276.522,378.809 270.5,385.5C 263.14,392.528 255.807,399.528 248.5,406.5C 247.833,401.5 247.167,396.5 246.5,391.5C 246.5,389.5 246.5,387.5 246.5,385.5C 245.953,369.839 245.619,354.172 245.5,338.5 Z"/></g>
<g><path style="opacity:1" fill="#d59992" d="M 450.5,366.5 C 455.08,374.419 460.08,382.086 465.5,389.5C 450.679,401.329 433.679,406.996 414.5,406.5C 417.065,400.367 420.399,394.701 424.5,389.5C 431.928,380.404 440.594,372.737 450.5,366.5 Z"/></g>
<g><path style="opacity:1" fill="#333243" d="M 111.5,382.5 C 115.042,382.187 118.375,382.521 121.5,383.5C 120.103,388.86 118.603,394.193 117,399.5C 116.333,407.833 116.333,416.167 117,424.5C 118.474,434.451 123.64,441.785 132.5,446.5C 141.34,441.816 146.507,434.482 148,424.5C 148.667,415.5 148.667,406.5 148,397.5C 145.993,392.98 144.493,388.313 143.5,383.5C 146.833,383.5 150.167,383.5 153.5,383.5C 157.276,390.67 159.11,398.337 159,406.5C 170.176,422.186 184.676,433.52 202.5,440.5C 202.822,434.642 202.489,428.975 201.5,423.5C 200.352,410.28 198.019,397.28 194.5,384.5C 197.833,384.5 201.167,384.5 204.5,384.5C 205.935,389.498 207.435,394.498 209,399.5C 212.03,394.326 215.196,389.326 218.5,384.5C 222.5,384.5 226.5,384.5 230.5,384.5C 224.377,395.124 218.043,405.624 211.5,416C 213.686,427.811 213.853,439.644 212,451.5C 209.159,453.504 205.993,454.004 202.5,453C 186.165,446.84 171.831,437.673 159.5,425.5C 156.21,441.434 147.21,452.767 132.5,459.5C 117.679,452.869 108.846,441.536 106,425.5C 105.333,416.833 105.333,408.167 106,399.5C 106.774,393.374 108.607,387.708 111.5,382.5 Z"/></g>
<g><path style="opacity:1" fill="#333244" d="M 235.5,384.5 C 239.198,384.552 242.865,384.886 246.5,385.5C 246.5,387.5 246.5,389.5 246.5,391.5C 246.172,396.875 246.505,402.208 247.5,407.5C 248.107,407.376 248.44,407.043 248.5,406.5C 255.807,399.528 263.14,392.528 270.5,385.5C 274.702,385.183 278.702,385.517 282.5,386.5C 268.527,401.639 253.693,415.972 238,429.5C 237.501,436.514 237.668,443.514 238.5,450.5C 234.833,449.167 231.167,449.167 227.5,450.5C 226.601,443.518 226.435,436.518 227,429.5C 227.976,423.552 230.976,418.886 236,415.5C 236.672,405.148 236.506,394.814 235.5,384.5 Z"/></g>
<g><path style="opacity:1" fill="#343344" d="M 320.5,386.5 C 324.702,386.183 328.702,386.517 332.5,387.5C 312.504,410.333 290.171,430.5 265.5,448C 269.486,448.499 273.486,448.666 277.5,448.5C 312.167,448.5 346.833,448.5 381.5,448.5C 381.5,438.833 381.5,429.167 381.5,419.5C 381.271,409.468 381.604,399.468 382.5,389.5C 385.831,387.702 389.498,387.036 393.5,387.5C 392.587,400.823 392.42,414.157 393,427.5C 397.738,412.691 404.571,399.024 413.5,386.5C 417.288,387.385 420.954,388.385 424.5,389.5C 420.399,394.701 417.065,400.367 414.5,406.5C 411.465,411.402 408.798,416.568 406.5,422C 415.674,425.169 423.841,430.002 431,436.5C 448.004,420.995 464.837,405.328 481.5,389.5C 485.371,389.185 489.038,389.518 492.5,390.5C 491.657,393.516 490.157,396.183 488,398.5C 470.365,414.467 453.031,430.801 436,447.5C 435.648,449.247 435.148,450.914 434.5,452.5C 430.958,452.813 427.625,452.479 424.5,451.5C 425.382,447.091 424.048,443.591 420.5,441C 415.381,437.107 409.714,434.274 403.5,432.5C 399.441,438.624 396.441,445.29 394.5,452.5C 344.5,451.5 294.5,450.5 244.5,449.5C 271.757,432.165 296.423,411.499 318.5,387.5C 319.167,387.167 319.833,386.833 320.5,386.5 Z"/></g>
<g><path style="opacity:1" fill="#c8827b" d="M 188.5,370.5 C 190.695,375.085 192.695,379.751 194.5,384.5C 198.019,397.28 200.352,410.28 201.5,423.5C 201.662,425.527 201.495,427.527 201,429.5C 181.212,418.536 169.379,401.869 165.5,379.5C 172.573,377.643 179.573,375.476 186.5,373C 187.756,372.583 188.423,371.75 188.5,370.5 Z"/></g>
<g><path style="opacity:1" fill="#d65751" d="M 139.5,368.5 C 140.361,373.609 141.694,378.609 143.5,383.5C 144.493,388.313 145.993,392.98 148,397.5C 148.667,406.5 148.667,415.5 148,424.5C 146.507,434.482 141.34,441.816 132.5,446.5C 123.64,441.785 118.474,434.451 117,424.5C 116.333,416.167 116.333,407.833 117,399.5C 118.603,394.193 120.103,388.86 121.5,383.5C 122.167,382.167 122.833,380.833 123.5,379.5C 123.369,380.239 123.536,380.906 124,381.5C 129.145,377.029 134.312,372.696 139.5,368.5 Z"/></g>
<g><path style="opacity:1" fill="#74696e" d="M 246.5,391.5 C 247.167,396.5 247.833,401.5 248.5,406.5C 248.44,407.043 248.107,407.376 247.5,407.5C 246.505,402.208 246.172,396.875 246.5,391.5 Z"/></g>
<g><path style="opacity:1" fill="#dd5e57" d="M 295.5,372.5 C 302.902,377.901 310.569,382.901 318.5,387.5C 296.423,411.499 271.757,432.165 244.5,449.5C 242.695,450.237 241.029,451.237 239.5,452.5C 238.702,452.043 238.369,451.376 238.5,450.5C 237.668,443.514 237.501,436.514 238,429.5C 253.693,415.972 268.527,401.639 282.5,386.5C 286.833,381.833 291.167,377.167 295.5,372.5 Z"/></g>
<g><path style="opacity:1" fill="#d8bbb1" d="M 383.5,360.5 C 382.971,370.158 382.638,379.825 382.5,389.5C 381.604,399.468 381.271,409.468 381.5,419.5C 379.757,420.086 377.924,420.419 376,420.5C 355.85,419.393 335.683,418.726 315.5,418.5C 323.272,411.23 330.938,403.73 338.5,396C 343.723,395.98 348.723,394.98 353.5,393C 364.873,382.709 374.707,371.209 383,358.5C 383.464,359.094 383.631,359.761 383.5,360.5 Z"/></g>
<g><path style="opacity:1" fill="#d2b2ac" d="M 315.5,418.5 C 335.683,418.726 355.85,419.393 376,420.5C 377.924,420.419 379.757,420.086 381.5,419.5C 381.5,429.167 381.5,438.833 381.5,448.5C 346.833,448.5 312.167,448.5 277.5,448.5C 279.86,446.147 282.527,444.147 285.5,442.5C 316.984,444.431 348.651,445.764 380.5,446.5C 380.5,441.167 380.5,435.833 380.5,430.5C 354.829,429.979 329.162,429.312 303.5,428.5C 307.183,424.82 311.183,421.486 315.5,418.5 Z"/></g>
<g><path style="opacity:1" fill="#d3b4a7" d="M 303.5,428.5 C 329.162,429.312 354.829,429.979 380.5,430.5C 380.5,435.833 380.5,441.167 380.5,446.5C 348.651,445.764 316.984,444.431 285.5,442.5C 291.19,437.482 297.19,432.815 303.5,428.5 Z"/></g>
<g><path style="opacity:1" fill="#32323f" d="M 238.5,450.5 C 238.369,451.376 238.702,452.043 239.5,452.5C 241.029,451.237 242.695,450.237 244.5,449.5C 294.5,450.5 344.5,451.5 394.5,452.5C 393.85,454.435 393.517,456.435 393.5,458.5C 392.691,460.292 392.191,462.292 392,464.5C 391.5,471.158 391.334,477.825 391.5,484.5C 406.833,484.5 422.167,484.5 437.5,484.5C 438.715,478.299 437.048,473.132 432.5,469C 429.022,467.76 425.689,466.26 422.5,464.5C 422.335,461.15 422.502,457.817 423,454.5C 423.232,453.263 423.732,452.263 424.5,451.5C 427.625,452.479 430.958,452.813 434.5,452.5C 434.714,454.144 434.38,455.644 433.5,457C 448.348,464.869 452.515,476.703 446,492.5C 445.097,493.701 443.931,494.535 442.5,495C 373.5,495.667 304.5,495.667 235.5,495C 233.671,494.727 232.171,493.893 231,492.5C 230.26,478.44 229.093,464.44 227.5,450.5C 231.167,449.167 234.833,449.167 238.5,450.5 Z"/></g>
<g><path style="opacity:1" fill="#f7cec7" d="M 424.5,451.5 C 423.732,452.263 423.232,453.263 423,454.5C 422.502,457.817 422.335,461.15 422.5,464.5C 412.775,462.755 403.109,460.755 393.5,458.5C 393.517,456.435 393.85,454.435 394.5,452.5C 396.441,445.29 399.441,438.624 403.5,432.5C 409.714,434.274 415.381,437.107 420.5,441C 424.048,443.591 425.382,447.091 424.5,451.5 Z"/></g>
<g><path style="opacity:1" fill="#67677a" d="M 248.5,458.5 C 269.833,458.5 291.167,458.5 312.5,458.5C 312.5,467.167 312.5,475.833 312.5,484.5C 288.5,484.5 264.5,484.5 240.5,484.5C 240.17,477.468 240.503,470.468 241.5,463.5C 244.077,462.057 246.41,460.39 248.5,458.5 Z"/></g>
<g><path style="opacity:1" fill="#545467" d="M 361.5,458.5 C 368.167,458.5 374.833,458.5 381.5,458.5C 381.5,467.167 381.5,475.833 381.5,484.5C 374.833,484.5 368.167,484.5 361.5,484.5C 361.5,475.833 361.5,467.167 361.5,458.5 Z"/></g>
<g><path style="opacity:1" fill="#9d6f4c" d="M 322.5,458.5 C 332.167,458.5 341.833,458.5 351.5,458.5C 351.5,467.167 351.5,475.833 351.5,484.5C 341.833,484.5 332.167,484.5 322.5,484.5C 322.5,475.833 322.5,467.167 322.5,458.5 Z"/></g>
<g><path style="opacity:1" fill="#f3893e" d="M 350.5,460.5 C 350.5,468.167 350.5,475.833 350.5,483.5C 341.5,483.5 332.5,483.5 323.5,483.5C 323.5,482.167 323.5,480.833 323.5,479.5C 335.805,477.849 344.805,471.515 350.5,460.5 Z"/></g>
<g><path style="opacity:1" fill="#fac06b" d="M 350.5,460.5 C 344.805,471.515 335.805,477.849 323.5,479.5C 323.5,472.833 323.5,466.167 323.5,459.5C 332.682,459.173 341.682,459.507 350.5,460.5 Z"/></g>
<g><path style="opacity:1" fill="#f6dbd5" d="M 393.5,458.5 C 403.109,460.755 412.775,462.755 422.5,464.5C 425.689,466.26 429.022,467.76 432.5,469C 437.048,473.132 438.715,478.299 437.5,484.5C 422.167,484.5 406.833,484.5 391.5,484.5C 391.334,477.825 391.5,471.158 392,464.5C 392.191,462.292 392.691,460.292 393.5,458.5 Z"/></g>
</svg>
