<?xml version="1.0" encoding="UTF-8"?>
<!DOCTYPE svg PUBLIC "-//W3C//DTD SVG 1.1//EN" "http://www.w3.org/Graphics/SVG/1.1/DTD/svg11.dtd">
<svg xmlns="http://www.w3.org/2000/svg" version="1.1" width="512px" height="512px" style="shape-rendering:geometricPrecision; text-rendering:geometricPrecision; image-rendering:optimizeQuality; fill-rule:evenodd; clip-rule:evenodd" xmlns:xlink="http://www.w3.org/1999/xlink">
<g><path style="opacity:1" fill="#7a8ca6" d="M 299.5,35.5 C 294.772,47.8603 286.772,50.527 275.5,43.5C 281.806,35.5746 287.64,27.2413 293,18.5C 294.444,16.8446 296.278,16.178 298.5,16.5C 298.476,22.857 298.81,29.1903 299.5,35.5 Z"/></g>
<g><path style="opacity:1" fill="#4c4c5e" d="M 299.5,35.5 C 298.822,43.8347 297.988,52.168 297,60.5C 295.962,64.4683 294.462,68.135 292.5,71.5C 289.725,68.3954 286.392,66.0621 282.5,64.5C 284.666,62.1633 286.666,59.6633 288.5,57C 281.317,56.3344 274.983,53.8344 269.5,49.5C 271.167,47.1667 273.167,45.1667 275.5,43.5C 286.772,50.527 294.772,47.8603 299.5,35.5 Z"/></g>
<g><path style="opacity:1" fill="#e2e7e7" d="M 47.5,15.5 C 47.5,43.5 47.5,71.5 47.5,99.5C 39.5,99.5 31.5,99.5 23.5,99.5C 21.8583,96.8975 20.1916,94.2308 18.5,91.5C 25.0413,64.8622 34.7079,39.5288 47.5,15.5 Z"/></g>
<g><path style="opacity:1" fill="#6a7d96" d="M 269.5,49.5 C 274.983,53.8344 281.317,56.3344 288.5,57C 286.666,59.6633 284.666,62.1633 282.5,64.5C 276.923,71.408 269.923,73.2414 261.5,70C 257.073,68.4654 253.406,65.9654 250.5,62.5C 256.577,57.7504 262.91,53.4171 269.5,49.5 Z"/></g>
<g><path style="opacity:1" fill="#3e3e51" d="M 250.5,62.5 C 253.406,65.9654 257.073,68.4654 261.5,70C 269.923,73.2414 276.923,71.408 282.5,64.5C 286.392,66.0621 289.725,68.3954 292.5,71.5C 289.957,77.9152 285.957,83.2485 280.5,87.5C 267.205,97.5677 252.538,100.234 236.5,95.5C 232.242,93.2069 228.576,90.2069 225.5,86.5C 227.117,83.2157 229.45,80.5491 232.5,78.5C 235.695,80.0296 239.195,80.6963 243,80.5C 247.934,80.516 252.767,79.8493 257.5,78.5C 252.061,76.1261 247.395,72.7928 243.5,68.5C 245.808,66.5293 248.142,64.5293 250.5,62.5 Z"/></g>
<g><path style="opacity:1" fill="#5d6f89" d="M 243.5,68.5 C 247.395,72.7928 252.061,76.1261 257.5,78.5C 252.767,79.8493 247.934,80.516 243,80.5C 239.195,80.6963 235.695,80.0296 232.5,78.5C 236.141,75.1951 239.808,71.8617 243.5,68.5 Z"/></g>
<g><path style="opacity:1" fill="#6e81ad" d="M 49.5,16.5 C 62.2559,39.9204 71.5893,64.7538 77.5,91C 74.5892,97.3193 71.5892,103.486 68.5,109.5C 68.5,108.5 68.5,107.5 68.5,106.5C 61.8092,106.546 55.1426,106.212 48.5,105.5C 48.1686,75.662 48.5019,45.9953 49.5,16.5 Z"/></g>
<g><path style="opacity:1" fill="#ae5940" d="M 280.5,87.5 C 280.5,92.8333 280.5,98.1667 280.5,103.5C 271.586,105.329 262.586,105.829 253.5,105C 246.864,103.354 241.197,100.187 236.5,95.5C 252.538,100.234 267.205,97.5677 280.5,87.5 Z"/></g>
<g><path style="opacity:1" fill="#d6dde5" d="M 49.5,16.5 C 48.5019,45.9953 48.1686,75.662 48.5,105.5C 49.8589,119.433 45.1922,130.767 34.5,139.5C 32.7071,125.663 29.0404,112.329 23.5,99.5C 31.5,99.5 39.5,99.5 47.5,99.5C 47.5,71.5 47.5,43.5 47.5,15.5C 48.6226,14.2426 49.2893,14.5759 49.5,16.5 Z"/></g>
<g><path style="opacity:1" fill="#e6af8e" d="M 225.5,86.5 C 228.576,90.2069 232.242,93.2069 236.5,95.5C 241.197,100.187 246.864,103.354 253.5,105C 262.586,105.829 271.586,105.329 280.5,103.5C 281.644,107.964 282.31,112.63 282.5,117.5C 263.745,116.662 245.078,115.328 226.5,113.5C 225.538,109.854 223.205,108.687 219.5,110C 215.993,111.33 214.327,113.83 214.5,117.5C 206.319,117.224 198.319,116.557 190.5,115.5C 202.72,106.549 214.387,96.8823 225.5,86.5 Z"/></g>
<g><path style="opacity:1" fill="#b15a40" d="M 226.5,113.5 C 226.128,117.043 224.128,119.21 220.5,120C 217.706,120.972 215.706,120.139 214.5,117.5C 214.327,113.83 215.993,111.33 219.5,110C 223.205,108.687 225.538,109.854 226.5,113.5 Z"/></g>
<g><path style="opacity:1" fill="#e1a17d" d="M 226.5,113.5 C 245.078,115.328 263.745,116.662 282.5,117.5C 284.563,126.786 286.896,136.12 289.5,145.5C 280.148,144.999 270.815,144.332 261.5,143.5C 260.728,139.548 260.395,135.548 260.5,131.5C 260.631,130.761 260.464,130.094 260,129.5C 255.997,134.669 251.497,139.336 246.5,143.5C 222.677,141.45 198.677,139.783 174.5,138.5C 174.459,133.205 175.625,128.205 178,123.5C 182.28,120.947 186.446,118.281 190.5,115.5C 198.319,116.557 206.319,117.224 214.5,117.5C 215.706,120.139 217.706,120.972 220.5,120C 224.128,119.21 226.128,117.043 226.5,113.5 Z"/></g>
<g><path style="opacity:1" fill="#6174a0" d="M 48.5,105.5 C 55.1426,106.212 61.8092,106.546 68.5,106.5C 68.5,107.5 68.5,108.5 68.5,109.5C 64.0014,124.493 61.6681,139.826 61.5,155.5C 59.5,155.5 57.5,155.5 55.5,155.5C 48.8333,155.5 42.1667,155.5 35.5,155.5C 34.5509,150.26 34.2175,144.927 34.5,139.5C 45.1922,130.767 49.8589,119.433 48.5,105.5 Z"/></g>
<g><path style="opacity:1" fill="#c2907d" d="M 260.5,131.5 C 253.443,148.89 241.11,160.89 223.5,167.5C 223.5,165.167 223.5,162.833 223.5,160.5C 231.448,155.219 239.115,149.552 246.5,143.5C 251.497,139.336 255.997,134.669 260,129.5C 260.464,130.094 260.631,130.761 260.5,131.5 Z"/></g>
<g><path style="opacity:1" fill="#e6c6ad" d="M 260.5,131.5 C 260.395,135.548 260.728,139.548 261.5,143.5C 261.999,150.49 262.332,157.49 262.5,164.5C 250.116,171.346 236.783,174.346 222.5,173.5C 222.205,171.265 222.539,169.265 223.5,167.5C 241.11,160.89 253.443,148.89 260.5,131.5 Z"/></g>
<g><path style="opacity:1" fill="#dd916a" d="M 174.5,138.5 C 198.677,139.783 222.677,141.45 246.5,143.5C 239.115,149.552 231.448,155.219 223.5,160.5C 208.183,167.13 192.183,169.297 175.5,167C 172.123,166.548 168.789,165.882 165.5,165C 164.483,163.951 164.316,162.784 165,161.5C 167.706,159.129 170.039,156.463 172,153.5C 172.789,148.471 173.623,143.471 174.5,138.5 Z"/></g>
<g><path style="opacity:1" fill="#de936b" d="M 261.5,143.5 C 270.815,144.332 280.148,144.999 289.5,145.5C 291.7,151.433 293.7,157.433 295.5,163.5C 295.5,164.167 295.5,164.833 295.5,165.5C 284.499,165.206 273.499,164.872 262.5,164.5C 262.332,157.49 261.999,150.49 261.5,143.5 Z"/></g>
<g><path style="opacity:1" fill="#d88154" d="M 444.5,176.5 C 434.822,175.56 425.156,174.56 415.5,173.5C 416.827,146.831 428.494,126.164 450.5,111.5C 450.833,111.667 451.167,111.833 451.5,112C 446.729,121.246 443.896,131.079 443,141.5C 442.23,153.227 442.73,164.893 444.5,176.5 Z"/></g>
<g><path style="opacity:1" fill="#bf3b6d" d="M 35.5,155.5 C 42.1667,155.5 48.8333,155.5 55.5,155.5C 55.5,161.833 55.5,168.167 55.5,174.5C 48.8333,174.5 42.1667,174.5 35.5,174.5C 35.5,168.167 35.5,161.833 35.5,155.5 Z"/></g>
<g><path style="opacity:1" fill="#761f44" d="M 55.5,155.5 C 57.5,155.5 59.5,155.5 61.5,155.5C 61.3336,164.173 61.5002,172.84 62,181.5C 66.2807,188.115 70.9474,194.448 76,200.5C 84.6975,208.863 93.0308,217.53 101,226.5C 103.789,231.534 105.789,236.868 107,242.5C 109.09,254.236 111.424,265.902 114,277.5C 116.785,282.619 120.618,286.786 125.5,290C 111.816,289.742 100.649,284.242 92,273.5C 88.4934,268.49 85.4934,263.157 83,257.5C 79.8496,241.715 74.5163,226.715 67,212.5C 65.3029,209.98 63.4695,207.647 61.5,205.5C 53.2312,203.53 44.5645,202.864 35.5,203.5C 35.5,200.167 35.5,196.833 35.5,193.5C 43.7335,195.374 50.0669,192.874 54.5,186C 48.1754,185.5 41.8421,185.334 35.5,185.5C 35.5,181.833 35.5,178.167 35.5,174.5C 42.1667,174.5 48.8333,174.5 55.5,174.5C 55.5,168.167 55.5,161.833 55.5,155.5 Z"/></g>
<g><path style="opacity:1" fill="#c7d2e6" d="M 384.5,176.5 C 380.69,182.101 376.856,187.768 373,193.5C 367.247,199.628 360.413,204.128 352.5,207C 343.201,209.988 334.034,213.154 325,216.5C 319.781,214.95 316.114,211.617 314,206.5C 309.915,196.576 308.082,186.243 308.5,175.5C 309.167,175.5 309.5,175.833 309.5,176.5C 319.242,193.365 333.575,199.198 352.5,194C 364.972,188.911 372.638,179.744 375.5,166.5C 375.457,165.584 375.124,164.917 374.5,164.5C 378.353,162.318 382.186,159.984 386,157.5C 386.396,163.897 385.896,170.231 384.5,176.5 Z"/></g>
<g><path style="opacity:1" fill="#c2907e" d="M 262.5,164.5 C 262.253,167.939 262.586,171.272 263.5,174.5C 250.248,181.32 236.248,183.32 221.5,180.5C 222.219,178.236 222.552,175.903 222.5,173.5C 236.783,174.346 250.116,171.346 262.5,164.5 Z"/></g>
<g><path style="opacity:1" fill="#af5940" d="M 295.5,163.5 C 297.685,167.213 299.352,171.213 300.5,175.5C 301.823,183.686 300.157,191.019 295.5,197.5C 287.155,208.178 277.488,217.511 266.5,225.5C 265.527,223.052 265.194,220.385 265.5,217.5C 265.5,217.167 265.5,216.833 265.5,216.5C 271.945,210.295 277.445,203.295 282,195.5C 287.337,185.829 291.837,175.829 295.5,165.5C 295.5,164.833 295.5,164.167 295.5,163.5 Z"/></g>
<g><path style="opacity:1" fill="#d4dbe7" d="M 374.5,164.5 C 375.124,164.917 375.457,165.584 375.5,166.5C 372.638,179.744 364.972,188.911 352.5,194C 333.575,199.198 319.242,193.365 309.5,176.5C 332.025,176.913 353.692,172.913 374.5,164.5 Z"/></g>
<g><path style="opacity:1" fill="#e6c6ae" d="M 263.5,174.5 C 263.5,177.5 263.5,180.5 263.5,183.5C 263.793,187.437 263.46,191.27 262.5,195C 248.439,198.468 234.439,198.301 220.5,194.5C 220.942,190.846 221.276,187.179 221.5,183.5C 221.5,182.5 221.5,181.5 221.5,180.5C 236.248,183.32 250.248,181.32 263.5,174.5 Z"/></g>
<g><path style="opacity:1" fill="#d0d8e6" d="M 213.5,184.5 C 210.821,196.361 205.154,206.528 196.5,215C 190.886,218.209 184.886,219.209 178.5,218C 164.758,218.371 153.758,213.204 145.5,202.5C 142.575,196.138 141.242,189.471 141.5,182.5C 165.366,187.029 189.366,187.696 213.5,184.5 Z"/></g>
<g><path style="opacity:1" fill="#c13c6e" d="M 35.5,185.5 C 41.8421,185.334 48.1754,185.5 54.5,186C 50.0669,192.874 43.7335,195.374 35.5,193.5C 35.5,190.833 35.5,188.167 35.5,185.5 Z"/></g>
<g><path style="opacity:1" fill="#d67e53" d="M 262.5,164.5 C 273.499,164.872 284.499,165.206 295.5,165.5C 291.837,175.829 287.337,185.829 282,195.5C 277.445,203.295 271.945,210.295 265.5,216.5C 265.5,215.5 265.5,214.5 265.5,213.5C 265.269,203.319 264.603,193.319 263.5,183.5C 263.5,180.5 263.5,177.5 263.5,174.5C 262.586,171.272 262.253,167.939 262.5,164.5 Z"/></g>
<g><path style="opacity:1" fill="#c3917e" d="M 263.5,183.5 C 264.603,193.319 265.269,203.319 265.5,213.5C 264.834,210.311 264.167,206.977 263.5,203.5C 248.5,207.47 233.5,207.47 218.5,203.5C 219.167,200.5 219.833,197.5 220.5,194.5C 234.439,198.301 248.439,198.468 262.5,195C 263.46,191.27 263.793,187.437 263.5,183.5 Z"/></g>
<g><path style="opacity:1" fill="#c1cde6" d="M 295.5,197.5 C 293.774,218.111 293.107,238.778 293.5,259.5C 292.747,266.507 289.747,272.34 284.5,277C 276.44,284.03 267.44,289.53 257.5,293.5C 272.435,273.147 274.768,251.48 264.5,228.5C 265.167,227.5 265.833,226.5 266.5,225.5C 277.488,217.511 287.155,208.178 295.5,197.5 Z"/></g>
<g><path style="opacity:1" fill="#de8d62" d="M 415.5,173.5 C 425.156,174.56 434.822,175.56 444.5,176.5C 449.182,194.21 455.849,211.21 464.5,227.5C 463.036,228.16 461.369,228.493 459.5,228.5C 447.843,227.319 436.176,226.319 424.5,225.5C 418.479,208.707 415.479,191.374 415.5,173.5 Z"/></g>
<g><path style="opacity:1" fill="#e6c6ae" d="M 218.5,203.5 C 233.5,207.47 248.5,207.47 263.5,203.5C 264.167,206.977 264.834,210.311 265.5,213.5C 265.5,214.5 265.5,215.5 265.5,216.5C 265.5,216.833 265.5,217.167 265.5,217.5C 260.435,222.899 254.768,227.565 248.5,231.5C 241.512,228.341 234.846,224.674 228.5,220.5C 227.893,220.624 227.56,220.957 227.5,221.5C 223.434,218.437 220.101,214.771 217.5,210.5C 217.448,208.097 217.781,205.764 218.5,203.5 Z"/></g>
<g><path style="opacity:1" fill="#6d7fad" d="M 300.5,175.5 C 303.167,175.5 305.833,175.5 308.5,175.5C 308.082,186.243 309.915,196.576 314,206.5C 316.114,211.617 319.781,214.95 325,216.5C 334.034,213.154 343.201,209.988 352.5,207C 360.413,204.128 367.247,199.628 373,193.5C 376.856,187.768 380.69,182.101 384.5,176.5C 383.064,186.578 380.231,196.245 376,205.5C 371.876,210.467 367.042,214.467 361.5,217.5C 360.883,217.389 360.383,217.056 360,216.5C 349.548,221.31 339.048,225.977 328.5,230.5C 324.706,231.489 321.539,233.489 319,236.5C 314.49,242.863 309.99,249.196 305.5,255.5C 304.596,254.791 304.263,253.791 304.5,252.5C 301.167,252.5 297.833,252.5 294.5,252.5C 294.802,255.059 294.468,257.393 293.5,259.5C 293.107,238.778 293.774,218.111 295.5,197.5C 300.157,191.019 301.823,183.686 300.5,175.5 Z"/></g>
<g><path style="opacity:1" fill="#6c7fad" d="M 221.5,183.5 C 221.276,187.179 220.942,190.846 220.5,194.5C 219.833,197.5 219.167,200.5 218.5,203.5C 217.781,205.764 217.448,208.097 217.5,210.5C 215.261,215.894 213.594,221.561 212.5,227.5C 209.677,236.459 207.01,245.459 204.5,254.5C 201.514,247.859 198.514,241.193 195.5,234.5C 190.926,233.18 186.26,232.513 181.5,232.5C 162.03,231.435 150.03,221.435 145.5,202.5C 153.758,213.204 164.758,218.371 178.5,218C 184.886,219.209 190.886,218.209 196.5,215C 205.154,206.528 210.821,196.361 213.5,184.5C 216.096,183.735 218.763,183.401 221.5,183.5 Z"/></g>
<g><path style="opacity:1" fill="#af573e" d="M 361.5,217.5 C 365.353,223.205 368.686,229.205 371.5,235.5C 353.612,247.596 344.278,264.596 343.5,286.5C 342.686,291.119 342.353,295.786 342.5,300.5C 337.313,296.403 332.313,292.07 327.5,287.5C 328.435,268.523 328.769,249.523 328.5,230.5C 339.048,225.977 349.548,221.31 360,216.5C 360.383,217.056 360.883,217.389 361.5,217.5 Z"/></g>
<g><path style="opacity:1" fill="#d1d9e6" d="M 217.5,210.5 C 220.101,214.771 223.434,218.437 227.5,221.5C 233.801,227.326 240.135,233.159 246.5,239C 248.989,238.763 251.322,237.929 253.5,236.5C 259.413,250.879 258.58,264.879 251,278.5C 249.383,280.763 247.55,282.763 245.5,284.5C 245.526,271.157 245.859,257.824 246.5,244.5C 244.876,244.36 243.71,245.027 243,246.5C 237.183,233.175 227.017,226.842 212.5,227.5C 213.594,221.561 215.261,215.894 217.5,210.5 Z"/></g>
<g><path style="opacity:1" fill="#c1917f" d="M 265.5,217.5 C 265.194,220.385 265.527,223.052 266.5,225.5C 265.833,226.5 265.167,227.5 264.5,228.5C 260.293,230.435 256.627,233.102 253.5,236.5C 251.322,237.929 248.989,238.763 246.5,239C 240.135,233.159 233.801,227.326 227.5,221.5C 227.56,220.957 227.893,220.624 228.5,220.5C 234.846,224.674 241.512,228.341 248.5,231.5C 254.768,227.565 260.435,222.899 265.5,217.5 Z"/></g>
<g><path style="opacity:1" fill="#d4534c" d="M 35.5,203.5 C 44.5645,202.864 53.2312,203.53 61.5,205.5C 61.5,240.167 61.5,274.833 61.5,309.5C 52.9324,310.193 44.2658,310.86 35.5,311.5C 35.5,275.5 35.5,239.5 35.5,203.5 Z"/></g>
<g><path style="opacity:1" fill="#dde1e6" d="M 212.5,227.5 C 227.017,226.842 237.183,233.175 243,246.5C 243.71,245.027 244.876,244.36 246.5,244.5C 245.859,257.824 245.526,271.157 245.5,284.5C 245.177,291.022 245.51,297.355 246.5,303.5C 246.813,306.247 246.48,308.914 245.5,311.5C 243.067,306.692 240.734,301.859 238.5,297C 223.724,291.049 211.391,281.883 201.5,269.5C 202.341,264.468 203.341,259.468 204.5,254.5C 207.01,245.459 209.677,236.459 212.5,227.5 Z"/></g>
<g><path style="opacity:1" fill="#c9d3e6" d="M 264.5,228.5 C 274.768,251.48 272.435,273.147 257.5,293.5C 254.111,294.631 250.778,295.964 247.5,297.5C 246.534,299.396 246.201,301.396 246.5,303.5C 245.51,297.355 245.177,291.022 245.5,284.5C 247.55,282.763 249.383,280.763 251,278.5C 258.58,264.879 259.413,250.879 253.5,236.5C 256.627,233.102 260.293,230.435 264.5,228.5 Z"/></g>
<g><path style="opacity:1" fill="#af573e" d="M 181.5,232.5 C 186.26,232.513 190.926,233.18 195.5,234.5C 198.514,241.193 201.514,247.859 204.5,254.5C 203.341,259.468 202.341,264.468 201.5,269.5C 199.953,274.57 200.953,279.236 204.5,283.5C 203.137,296.629 202.137,309.795 201.5,323C 201.501,327.347 201.834,331.514 202.5,335.5C 202.5,339.5 202.5,343.5 202.5,347.5C 198.401,343.006 194.068,338.673 189.5,334.5C 187.513,341.135 186.179,347.802 185.5,354.5C 180.842,351.169 176.175,347.836 171.5,344.5C 171.5,343.833 171.5,343.167 171.5,342.5C 179.592,323.388 184.258,303.388 185.5,282.5C 186.596,271.867 186.763,261.2 186,250.5C 183.035,247.785 179.535,246.119 175.5,245.5C 177.229,241.042 179.229,236.709 181.5,232.5 Z"/></g>
<g><path style="opacity:1" fill="#e19a6f" d="M 424.5,225.5 C 436.176,226.319 447.843,227.319 459.5,228.5C 461.369,228.493 463.036,228.16 464.5,227.5C 478.69,247.909 487.357,270.576 490.5,295.5C 487.341,303.112 483.507,310.445 479,317.5C 466.562,333.63 450.062,340.963 429.5,339.5C 441.142,314.446 443.642,288.446 437,261.5C 433.916,249.081 429.75,237.081 424.5,225.5 Z"/></g>
<g><path style="opacity:1" fill="#e09065" d="M 371.5,235.5 C 379.757,249.353 386.423,264.02 391.5,279.5C 375.468,281.616 359.468,283.95 343.5,286.5C 344.278,264.596 353.612,247.596 371.5,235.5 Z"/></g>
<g><path style="opacity:1" fill="#e0976c" d="M 175.5,245.5 C 179.535,246.119 183.035,247.785 186,250.5C 186.763,261.2 186.596,271.867 185.5,282.5C 177.848,281.391 170.181,280.391 162.5,279.5C 165.674,267.633 170.007,256.3 175.5,245.5 Z"/></g>
<g><path style="opacity:1" fill="#4d4d5e" d="M 328.5,230.5 C 328.769,249.523 328.435,268.523 327.5,287.5C 325.677,292.48 323.343,297.147 320.5,301.5C 306.99,301.829 293.656,301.496 280.5,300.5C 289.109,294.392 296.943,287.392 304,279.5C 306.602,271.634 307.102,263.634 305.5,255.5C 309.99,249.196 314.49,242.863 319,236.5C 321.539,233.489 324.706,231.489 328.5,230.5 Z"/></g>
<g><path style="opacity:1" fill="#d9875b" d="M 391.5,279.5 C 392.167,280.5 392.833,281.5 393.5,282.5C 392.221,285.112 390.555,287.445 388.5,289.5C 386.203,291.294 384.037,293.294 382,295.5C 374.969,304.687 367.803,313.687 360.5,322.5C 354.878,314.876 348.878,307.543 342.5,300.5C 342.353,295.786 342.686,291.119 343.5,286.5C 359.468,283.95 375.468,281.616 391.5,279.5 Z"/></g>
<g><path style="opacity:1" fill="#4c4c5d" d="M 413.5,321.5 C 407.167,321.5 400.833,321.5 394.5,321.5C 394.5,322.5 394.5,323.5 394.5,324.5C 392.887,312.902 390.887,301.235 388.5,289.5C 390.555,287.445 392.221,285.112 393.5,282.5C 396.631,279.871 399.631,277.038 402.5,274C 403.332,273.312 403.998,273.479 404.5,274.5C 408.401,290.004 411.401,305.67 413.5,321.5 Z"/></g>
<g><path style="opacity:1" fill="#60729e" d="M 305.5,255.5 C 307.102,263.634 306.602,271.634 304,279.5C 296.943,287.392 289.109,294.392 280.5,300.5C 270.34,307.331 259.507,312.998 248,317.5C 231.67,308.429 217.17,297.096 204.5,283.5C 200.953,279.236 199.953,274.57 201.5,269.5C 211.391,281.883 223.724,291.049 238.5,297C 240.734,301.859 243.067,306.692 245.5,311.5C 246.48,308.914 246.813,306.247 246.5,303.5C 246.201,301.396 246.534,299.396 247.5,297.5C 250.778,295.964 254.111,294.631 257.5,293.5C 267.44,289.53 276.44,284.03 284.5,277C 289.747,272.34 292.747,266.507 293.5,259.5C 294.468,257.393 294.802,255.059 294.5,252.5C 297.833,252.5 301.167,252.5 304.5,252.5C 304.263,253.791 304.596,254.791 305.5,255.5 Z"/></g>
<g><path style="opacity:1" fill="#db875c" d="M 162.5,279.5 C 170.181,280.391 177.848,281.391 185.5,282.5C 184.258,303.388 179.592,323.388 171.5,342.5C 164.721,337.06 159.054,330.727 154.5,323.5C 155.874,308.591 158.54,293.924 162.5,279.5 Z"/></g>
<g><path style="opacity:1" fill="#af573e" d="M 490.5,295.5 C 495.529,355.431 474.863,404.431 428.5,442.5C 427.91,422.842 422.91,404.509 413.5,387.5C 414.955,377.895 415.621,368.228 415.5,358.5C 420.899,352.7 425.566,346.367 429.5,339.5C 450.062,340.963 466.562,333.63 479,317.5C 483.507,310.445 487.341,303.112 490.5,295.5 Z"/></g>
<g><path style="opacity:1" fill="#454457" d="M 204.5,283.5 C 217.17,297.096 231.67,308.429 248,317.5C 259.507,312.998 270.34,307.331 280.5,300.5C 293.656,301.496 306.99,301.829 320.5,301.5C 315.568,309.036 310.901,316.703 306.5,324.5C 271.833,324.5 237.167,324.5 202.5,324.5C 202.5,328.167 202.5,331.833 202.5,335.5C 201.834,331.514 201.501,327.347 201.5,323C 202.137,309.795 203.137,296.629 204.5,283.5 Z"/></g>
<g><path style="opacity:1" fill="#de8e63" d="M 61.5,309.5 C 69.6818,312.192 73.6818,317.859 73.5,326.5C 73.5,332.833 73.5,339.167 73.5,345.5C 57.766,347.092 42.0993,349.092 26.5,351.5C 26.3335,341.494 26.5002,331.494 27,321.5C 28.2545,316.751 31.0878,313.418 35.5,311.5C 44.2658,310.86 52.9324,310.193 61.5,309.5 Z"/></g>
<g><path style="opacity:1" fill="#667890" d="M 154.5,323.5 C 159.054,330.727 164.721,337.06 171.5,342.5C 171.5,343.167 171.5,343.833 171.5,344.5C 169.012,349.47 166.012,354.137 162.5,358.5C 151.731,359.91 141.064,359.244 130.5,356.5C 131.15,345.846 131.484,335.179 131.5,324.5C 139.15,323.857 146.817,323.523 154.5,323.5 Z"/></g>
<g><path style="opacity:1" fill="#72849e" d="M 388.5,289.5 C 390.887,301.235 392.887,312.902 394.5,324.5C 394.5,326.833 394.5,329.167 394.5,331.5C 394.5,333.833 394.5,336.167 394.5,338.5C 382.168,338.868 369.835,339.202 357.5,339.5C 355.667,333.326 356.667,327.659 360.5,322.5C 367.803,313.687 374.969,304.687 382,295.5C 384.037,293.294 386.203,291.294 388.5,289.5 Z"/></g>
<g><path style="opacity:1" fill="#73859f" d="M 131.5,324.5 C 131.484,335.179 131.15,345.846 130.5,356.5C 124.123,356.072 117.79,355.405 111.5,354.5C 100.778,355.89 92.9442,351.89 88,342.5C 87.4867,337.103 86.6533,331.77 85.5,326.5C 100.836,325.889 116.17,325.222 131.5,324.5 Z"/></g>
<g><path style="opacity:1" fill="#38384b" d="M 73.5,326.5 C 77.5,326.5 81.5,326.5 85.5,326.5C 86.6533,331.77 87.4867,337.103 88,342.5C 92.9442,351.89 100.778,355.89 111.5,354.5C 112.241,362.092 112.241,369.758 111.5,377.5C 97.7721,374.887 84.1055,371.887 70.5,368.5C 73.2521,361.147 74.2521,353.481 73.5,345.5C 73.5,339.167 73.5,332.833 73.5,326.5 Z"/></g>
<g><path style="opacity:1" fill="#c1cde5" d="M 321.5,369.5 C 311.915,382.09 301.581,394.09 290.5,405.5C 289.833,405.5 289.5,405.833 289.5,406.5C 278.489,418.511 266.822,429.844 254.5,440.5C 248.12,434.451 241.787,428.451 235.5,422.5C 239.957,421.213 243.79,418.88 247,415.5C 246.979,423.112 248.979,430.112 253,436.5C 253.494,434.866 253.66,433.199 253.5,431.5C 272.525,417.122 281.525,398.122 280.5,374.5C 288.105,367.397 295.605,360.063 303,352.5C 303.464,351.906 303.631,351.239 303.5,350.5C 309.496,344.671 315.663,339.004 322,333.5C 322.792,345.546 322.626,357.546 321.5,369.5 Z"/></g>
<g><path style="opacity:1" fill="#4b4b5c" d="M 171.5,344.5 C 176.175,347.836 180.842,351.169 185.5,354.5C 184.384,362.25 186.051,369.25 190.5,375.5C 188.938,379.392 186.605,382.725 183.5,385.5C 175.787,384.902 168.121,384.236 160.5,383.5C 161.588,375.718 162.588,367.885 163.5,360C 163.43,359.235 163.097,358.735 162.5,358.5C 166.012,354.137 169.012,349.47 171.5,344.5 Z"/></g>
<g><path style="opacity:1" fill="#3a3a4d" d="M 306.5,324.5 C 304.378,333.025 303.378,341.691 303.5,350.5C 303.631,351.239 303.464,351.906 303,352.5C 295.605,360.063 288.105,367.397 280.5,374.5C 273.5,380.833 266.833,387.5 260.5,394.5C 257.865,396.359 255.198,397.859 252.5,399C 235.994,381.661 219.327,364.494 202.5,347.5C 202.5,343.5 202.5,339.5 202.5,335.5C 202.5,331.833 202.5,328.167 202.5,324.5C 237.167,324.5 271.833,324.5 306.5,324.5 Z"/></g>
<g><path style="opacity:1" fill="#3f3e50" d="M 413.5,321.5 C 414.775,333.797 415.441,346.13 415.5,358.5C 415.621,368.228 414.955,377.895 413.5,387.5C 412.5,387.833 411.833,388.5 411.5,389.5C 403.167,396.167 394.833,402.833 386.5,409.5C 385.031,404.62 384.031,399.62 383.5,394.5C 391.81,378.636 395.81,361.636 395.5,343.5C 395.499,339.319 395.166,335.319 394.5,331.5C 394.5,329.167 394.5,326.833 394.5,324.5C 394.5,323.5 394.5,322.5 394.5,321.5C 400.833,321.5 407.167,321.5 413.5,321.5 Z"/></g>
<g><path style="opacity:1" fill="#424255" d="M 111.5,354.5 C 117.79,355.405 124.123,356.072 130.5,356.5C 141.064,359.244 151.731,359.91 162.5,358.5C 163.097,358.735 163.43,359.235 163.5,360C 162.588,367.885 161.588,375.718 160.5,383.5C 144.053,382.402 127.72,380.402 111.5,377.5C 112.241,369.758 112.241,362.092 111.5,354.5 Z"/></g>
<g><path style="opacity:1" fill="#647790" d="M 394.5,331.5 C 395.166,335.319 395.499,339.319 395.5,343.5C 395.81,361.636 391.81,378.636 383.5,394.5C 381.895,389.352 379.895,384.352 377.5,379.5C 375.957,374.743 374.124,370.076 372,365.5C 367.396,356.618 362.563,347.951 357.5,339.5C 369.835,339.202 382.168,338.868 394.5,338.5C 394.5,336.167 394.5,333.833 394.5,331.5 Z"/></g>
<g><path style="opacity:1" fill="#d77f53" d="M 73.5,345.5 C 74.2521,353.481 73.2521,361.147 70.5,368.5C 68.3709,370.95 65.7043,372.617 62.5,373.5C 53.4465,373.778 44.4465,373.444 35.5,372.5C 32.2364,371.073 29.7364,368.739 28,365.5C 26.6908,360.934 26.1908,356.267 26.5,351.5C 42.0993,349.092 57.766,347.092 73.5,345.5 Z"/></g>
<g><path style="opacity:1" fill="#b62d2c" d="M 35.5,372.5 C 44.4465,373.444 53.4465,373.778 62.5,373.5C 61.5187,387.088 61.1853,400.754 61.5,414.5C 52.8333,409.5 44.1667,404.5 35.5,399.5C 35.5,390.5 35.5,381.5 35.5,372.5 Z"/></g>
<g><path style="opacity:1" fill="#c8d3e6" d="M 280.5,374.5 C 281.525,398.122 272.525,417.122 253.5,431.5C 252.242,423.823 252.409,416.157 254,408.5C 257.675,404.173 259.842,399.507 260.5,394.5C 266.833,387.5 273.5,380.833 280.5,374.5 Z"/></g>
<g><path style="opacity:1" fill="#dcdfe5" d="M 202.5,347.5 C 219.327,364.494 235.994,381.661 252.5,399C 255.198,397.859 257.865,396.359 260.5,394.5C 259.842,399.507 257.675,404.173 254,408.5C 252.409,416.157 252.242,423.823 253.5,431.5C 253.66,433.199 253.494,434.866 253,436.5C 248.979,430.112 246.979,423.112 247,415.5C 243.79,418.88 239.957,421.213 235.5,422.5C 230.5,417.833 225.5,413.167 220.5,408.5C 210.472,397.474 200.472,386.474 190.5,375.5C 186.051,369.25 184.384,362.25 185.5,354.5C 186.179,347.802 187.513,341.135 189.5,334.5C 194.068,338.673 198.401,343.006 202.5,347.5 Z"/></g>
<g><path style="opacity:1" fill="#af573e" d="M 326.5,378.5 C 343.442,382.027 360.442,382.36 377.5,379.5C 379.895,384.352 381.895,389.352 383.5,394.5C 384.031,399.62 385.031,404.62 386.5,409.5C 387.247,421.142 387.747,432.808 388,444.5C 388.438,447.376 389.438,450.043 391,452.5C 393.084,455.399 395.251,458.066 397.5,460.5C 382.972,465.739 367.972,468.405 352.5,468.5C 350.344,459.373 348.677,450.04 347.5,440.5C 347.666,436.154 347.499,431.821 347,427.5C 346.434,425.277 345.6,423.277 344.5,421.5C 340.655,408.949 335.655,396.949 329.5,385.5C 328.773,383.046 327.773,380.713 326.5,378.5 Z"/></g>
<g><path style="opacity:1" fill="#de8e63" d="M 411.5,389.5 C 411.5,414.5 411.5,439.5 411.5,464.5C 406.663,463.747 401.996,462.414 397.5,460.5C 395.251,458.066 393.084,455.399 391,452.5C 389.438,450.043 388.438,447.376 388,444.5C 387.747,432.808 387.247,421.142 386.5,409.5C 394.833,402.833 403.167,396.167 411.5,389.5 Z"/></g>
<g><path style="opacity:1" fill="#7688b6" d="M 190.5,375.5 C 200.472,386.474 210.472,397.474 220.5,408.5C 220.5,416.167 220.5,423.833 220.5,431.5C 220.167,431.5 219.833,431.5 219.5,431.5C 212.492,424.492 205.158,417.826 197.5,411.5C 191.833,405.5 186.167,399.5 180.5,393.5C 181.5,390.833 182.5,388.167 183.5,385.5C 186.605,382.725 188.938,379.392 190.5,375.5 Z"/></g>
<g><path style="opacity:1" fill="#7789b7" d="M 321.5,369.5 C 323.924,372.008 325.59,375.008 326.5,378.5C 327.773,380.713 328.773,383.046 329.5,385.5C 321.483,394.854 313.817,404.521 306.5,414.5C 301.5,420.5 296.5,426.5 291.5,432.5C 291.827,423.318 291.493,414.318 290.5,405.5C 301.581,394.09 311.915,382.09 321.5,369.5 Z"/></g>
<g><path style="opacity:1" fill="#e6635c" d="M 35.5,399.5 C 44.1667,404.5 52.8333,409.5 61.5,414.5C 61.5,441.833 61.5,469.167 61.5,496.5C 52.8333,496.5 44.1667,496.5 35.5,496.5C 35.5,464.167 35.5,431.833 35.5,399.5 Z"/></g>
<g><path style="opacity:1" fill="#dbe0e6" d="M 180.5,393.5 C 186.167,399.5 191.833,405.5 197.5,411.5C 195.128,426.539 186.461,435.206 171.5,437.5C 169.215,437.324 167.215,436.657 165.5,435.5C 167.733,420.464 172.733,406.464 180.5,393.5 Z"/></g>
<g><path style="opacity:1" fill="#761f44" d="M 289.5,406.5 C 290.498,432.661 290.831,458.995 290.5,485.5C 282.236,479.909 274.236,473.909 266.5,467.5C 251.148,455.809 235.815,444.142 220.5,432.5C 220.5,432.167 220.5,431.833 220.5,431.5C 220.5,423.833 220.5,416.167 220.5,408.5C 225.5,413.167 230.5,417.833 235.5,422.5C 241.787,428.451 248.12,434.451 254.5,440.5C 266.822,429.844 278.489,418.511 289.5,406.5 Z"/></g>
<g><path style="opacity:1" fill="#dde1e5" d="M 329.5,385.5 C 335.655,396.949 340.655,408.949 344.5,421.5C 342.2,424.324 339.2,426.157 335.5,427C 322.892,429.356 313.225,425.19 306.5,414.5C 313.817,404.521 321.483,394.854 329.5,385.5 Z"/></g>
<g><path style="opacity:1" fill="#d67e52" d="M 413.5,387.5 C 422.91,404.509 427.91,422.842 428.5,442.5C 428.775,450.553 428.275,458.553 427,466.5C 426.586,466.957 426.086,467.291 425.5,467.5C 420.623,466.933 415.956,465.933 411.5,464.5C 411.5,439.5 411.5,414.5 411.5,389.5C 411.833,388.5 412.5,387.833 413.5,387.5 Z"/></g>
<g><path style="opacity:1" fill="#ccd5e6" d="M 197.5,411.5 C 205.158,417.826 212.492,424.492 219.5,431.5C 212.013,448.321 199.346,458.987 181.5,463.5C 176.409,458.418 171.743,453.084 167.5,447.5C 166.197,443.618 165.53,439.618 165.5,435.5C 167.215,436.657 169.215,437.324 171.5,437.5C 186.461,435.206 195.128,426.539 197.5,411.5 Z"/></g>
<g><path style="opacity:1" fill="#ccd5e6" d="M 306.5,414.5 C 313.225,425.19 322.892,429.356 335.5,427C 339.2,426.157 342.2,424.324 344.5,421.5C 345.6,423.277 346.434,425.277 347,427.5C 347.499,431.821 347.666,436.154 347.5,440.5C 346.36,443.368 345.36,446.368 344.5,449.5C 324.071,454.977 306.404,450.31 291.5,435.5C 291.5,434.5 291.5,433.5 291.5,432.5C 296.5,426.5 301.5,420.5 306.5,414.5 Z"/></g>
<g><path style="opacity:1" fill="#c1cde6" d="M 219.5,431.5 C 219.833,431.5 220.167,431.5 220.5,431.5C 220.5,431.833 220.5,432.167 220.5,432.5C 220.5,441.5 220.5,450.5 220.5,459.5C 212.884,465.895 204.384,470.895 195,474.5C 189.452,472.118 184.952,468.452 181.5,463.5C 199.346,458.987 212.013,448.321 219.5,431.5 Z"/></g>
<g><path style="opacity:1" fill="#c0cde6" d="M 291.5,435.5 C 306.404,450.31 324.071,454.977 344.5,449.5C 341.616,455.221 338.116,460.555 334,465.5C 330.519,469.235 326.519,472.235 322,474.5C 310.833,469.922 300.833,463.589 292,455.5C 291.5,448.842 291.334,442.175 291.5,435.5 Z"/></g>
<g><path style="opacity:1" fill="#c83e71" d="M 220.5,432.5 C 235.815,444.142 251.148,455.809 266.5,467.5C 251.319,468.247 235.986,468.914 220.5,469.5C 220.5,466.167 220.5,462.833 220.5,459.5C 220.5,450.5 220.5,441.5 220.5,432.5 Z"/></g>
<g><path style="opacity:1" fill="#6275a2" d="M 167.5,447.5 C 171.743,453.084 176.409,458.418 181.5,463.5C 184.952,468.452 189.452,472.118 195,474.5C 204.384,470.895 212.884,465.895 220.5,459.5C 220.5,462.833 220.5,466.167 220.5,469.5C 220.5,478.5 220.5,487.5 220.5,496.5C 200.833,496.5 181.167,496.5 161.5,496.5C 162.434,480.031 164.434,463.697 167.5,447.5 Z"/></g>
<g><path style="opacity:1" fill="#6475a1" d="M 289.5,406.5 C 289.5,405.833 289.833,405.5 290.5,405.5C 291.493,414.318 291.827,423.318 291.5,432.5C 291.5,433.5 291.5,434.5 291.5,435.5C 291.334,442.175 291.5,448.842 292,455.5C 300.833,463.589 310.833,469.922 322,474.5C 326.519,472.235 330.519,469.235 334,465.5C 338.116,460.555 341.616,455.221 344.5,449.5C 345.36,446.368 346.36,443.368 347.5,440.5C 348.677,450.04 350.344,459.373 352.5,468.5C 353.317,477.809 353.65,487.143 353.5,496.5C 332.5,496.5 311.5,496.5 290.5,496.5C 290.5,492.833 290.5,489.167 290.5,485.5C 290.831,458.995 290.498,432.661 289.5,406.5 Z"/></g>
<g><path style="opacity:1" fill="#bd396b" d="M 266.5,467.5 C 274.236,473.909 282.236,479.909 290.5,485.5C 290.5,489.167 290.5,492.833 290.5,496.5C 267.167,496.5 243.833,496.5 220.5,496.5C 220.5,487.5 220.5,478.5 220.5,469.5C 235.986,468.914 251.319,468.247 266.5,467.5 Z"/></g>
</svg>
