<?xml version="1.0" encoding="UTF-8"?>
<!DOCTYPE svg PUBLIC "-//W3C//DTD SVG 1.1//EN" "http://www.w3.org/Graphics/SVG/1.1/DTD/svg11.dtd">
<svg xmlns="http://www.w3.org/2000/svg" version="1.1" width="512px" height="512px" style="shape-rendering:geometricPrecision; text-rendering:geometricPrecision; image-rendering:optimizeQuality; fill-rule:evenodd; clip-rule:evenodd" xmlns:xlink="http://www.w3.org/1999/xlink">
<g><path style="opacity:1" fill="#bac17d" d="M 319.5,53.5 C 311.881,75.942 304.547,98.6086 297.5,121.5C 292.022,123.496 286.355,124.662 280.5,125C 263.496,126.929 246.496,126.929 229.5,125C 224.028,124.367 218.695,123.2 213.5,121.5C 206.759,98.4957 199.425,75.829 191.5,53.5C 188.297,43.2249 185.297,32.8915 182.5,22.5C 228.496,3.56109 274.829,2.72776 321.5,20C 324.216,20.7824 326.55,22.1157 328.5,24C 325.416,33.8452 322.416,43.6785 319.5,53.5 Z"/></g>
<g><path style="opacity:1" fill="#a8b576" d="M 191.5,53.5 C 199.425,75.829 206.759,98.4957 213.5,121.5C 218.695,123.2 224.028,124.367 229.5,125C 246.496,126.929 263.496,126.929 280.5,125C 286.355,124.662 292.022,123.496 297.5,121.5C 304.547,98.6086 311.881,75.942 319.5,53.5C 324.605,54.1211 329.605,55.1211 334.5,56.5C 328.097,76.7099 322.097,97.0433 316.5,117.5C 322.966,115.9 329.299,113.9 335.5,111.5C 337.354,115.221 339.687,118.554 342.5,121.5C 342.5,122.167 342.833,122.5 343.5,122.5C 344.847,125.193 346.18,127.86 347.5,130.5C 347.586,131.496 347.252,132.329 346.5,133C 285.1,157.77 223.766,157.603 162.5,132.5C 164.137,129.183 165.804,125.85 167.5,122.5C 168.167,122.5 168.5,122.167 168.5,121.5C 171.313,118.554 173.646,115.221 175.5,111.5C 181.398,113.688 187.398,115.688 193.5,117.5C 193.833,116.833 194.167,116.167 194.5,115.5C 188.489,95.804 182.489,76.1374 176.5,56.5C 181.395,55.1211 186.395,54.1211 191.5,53.5 Z"/></g>
<g><path style="opacity:1" fill="#bac07d" d="M 176.5,56.5 C 182.489,76.1374 188.489,95.804 194.5,115.5C 194.167,116.167 193.833,116.833 193.5,117.5C 187.398,115.688 181.398,113.688 175.5,111.5C 174.32,108.46 172.653,105.794 170.5,103.5C 163.887,89.9425 157.554,76.2758 151.5,62.5C 159.792,60.3437 168.125,58.3437 176.5,56.5 Z"/></g>
<g><path style="opacity:1" fill="#bac07d" d="M 334.5,56.5 C 342.875,58.3437 351.208,60.3437 359.5,62.5C 353.446,76.2758 347.113,89.9425 340.5,103.5C 338.347,105.794 336.68,108.46 335.5,111.5C 329.299,113.9 322.966,115.9 316.5,117.5C 322.097,97.0433 328.097,76.7099 334.5,56.5 Z"/></g>
<g><path style="opacity:1" fill="#f96f6f" d="M 170.5,103.5 C 172.653,105.794 174.32,108.46 175.5,111.5C 173.646,115.221 171.313,118.554 168.5,121.5C 167.833,121.5 167.5,121.833 167.5,122.5C 146.958,126.042 126.625,130.542 106.5,136C 94.0733,143.272 87.0733,154.105 85.5,168.5C 83.3537,168.122 81.187,167.788 79,167.5C 75.4486,168.361 71.9486,169.361 68.5,170.5C 69.3499,144.829 81.6833,127.329 105.5,118C 127.241,113.314 148.908,108.48 170.5,103.5 Z"/></g>
<g><path style="opacity:1" fill="#f96f6f" d="M 340.5,103.5 C 362.092,108.48 383.759,113.314 405.5,118C 429.79,127.472 442.124,145.306 442.5,171.5C 437.32,167.807 431.653,166.807 425.5,168.5C 424.398,153.782 417.398,142.949 404.5,136C 384.375,130.542 364.042,126.042 343.5,122.5C 342.833,122.5 342.5,122.167 342.5,121.5C 339.687,118.554 337.354,115.221 335.5,111.5C 336.68,108.46 338.347,105.794 340.5,103.5 Z"/></g>
<g><path style="opacity:1" fill="#bbc07d" d="M 347.5,130.5 C 373.32,170.795 398.653,211.461 423.5,252.5C 418.452,256.126 413.618,260.126 409,264.5C 407.423,273.421 410.923,277.087 419.5,275.5C 422.938,273.565 425.938,271.065 428.5,268C 429.745,267.209 431.078,266.709 432.5,266.5C 452.593,307.401 455.593,349.401 441.5,392.5C 412.422,402.186 382.755,409.52 352.5,414.5C 354.14,410.034 354.64,405.367 354,400.5C 349.561,394.348 344.727,394.014 339.5,399.5C 338.498,405.517 337.498,411.517 336.5,417.5C 282.165,425.46 227.831,425.46 173.5,417.5C 174.317,411.038 173.484,404.704 171,398.5C 165.651,394.057 160.985,394.724 157,400.5C 156.831,405.161 156.997,409.828 157.5,414.5C 127.588,409.417 98.2548,402.084 69.5,392.5C 55.4067,349.401 58.4067,307.401 78.5,266.5C 79.9217,266.709 81.255,267.209 82.5,268C 85.177,271.009 88.177,273.676 91.5,276C 100.164,277 103.664,273.166 102,264.5C 96.9234,260.587 92.4234,256.254 88.5,251.5C 112.418,211.322 137.085,171.655 162.5,132.5C 223.766,157.603 285.1,157.77 346.5,133C 347.252,132.329 347.586,131.496 347.5,130.5 Z"/></g>
<g><path style="opacity:1" fill="#fa3e75" d="M 85.5,168.5 C 92.5913,171.314 96.2579,176.647 96.5,184.5C 96.3424,193.494 93.009,200.994 86.5,207C 79.6555,208.33 74.1555,206.164 70,200.5C 64.1883,193.863 62.1883,186.196 64,177.5C 65.0121,174.798 66.5121,172.465 68.5,170.5C 71.9486,169.361 75.4486,168.361 79,167.5C 81.187,167.788 83.3537,168.122 85.5,168.5 Z"/></g>
<g><path style="opacity:1" fill="#fa3e75" d="M 442.5,171.5 C 444.708,172.894 446.208,174.894 447,177.5C 448.847,190.644 444.014,200.477 432.5,207C 425.682,208.547 420.849,206.047 418,199.5C 413.952,190.732 413.952,182.065 418,173.5C 419.857,170.8 422.357,169.134 425.5,168.5C 431.653,166.807 437.32,167.807 442.5,171.5 Z"/></g>
<g><path style="opacity:1" fill="#f97070" d="M 253.5,181.5 C 255.144,181.286 256.644,181.62 258,182.5C 266.21,193.757 274.043,205.257 281.5,217C 274.015,227.823 266.515,238.656 259,249.5C 256.667,253.5 254.333,253.5 252,249.5C 244.485,238.656 236.985,227.823 229.5,217C 237.638,205.212 245.638,193.379 253.5,181.5 Z"/></g>
<g><path style="opacity:1" fill="#f97070" d="M 208.5,242.5 C 211.764,243.927 214.264,246.261 216,249.5C 222.514,259.206 229.014,268.873 235.5,278.5C 227.814,291.205 219.147,303.205 209.5,314.5C 200.385,303.05 192.052,291.05 184.5,278.5C 192.098,266.235 200.098,254.235 208.5,242.5 Z"/></g>
<g><path style="opacity:1" fill="#f97070" d="M 299.5,242.5 C 301.39,242.297 302.89,242.963 304,244.5C 312.124,255.451 319.624,266.784 326.5,278.5C 319.564,289.279 312.398,299.945 305,310.5C 302.966,313.859 300.632,314.192 298,311.5C 290.093,300.596 282.593,289.429 275.5,278C 283.315,266.023 291.315,254.189 299.5,242.5 Z"/></g>
<g><path style="opacity:1" fill="#a8b076" d="M 88.5,251.5 C 92.4234,256.254 96.9234,260.587 102,264.5C 103.664,273.166 100.164,277 91.5,276C 88.177,273.676 85.177,271.009 82.5,268C 81.255,267.209 79.9217,266.709 78.5,266.5C 81.5984,261.291 84.9317,256.291 88.5,251.5 Z"/></g>
<g><path style="opacity:1" fill="#a8af76" d="M 423.5,252.5 C 426.486,257.13 429.486,261.797 432.5,266.5C 431.078,266.709 429.745,267.209 428.5,268C 425.938,271.065 422.938,273.565 419.5,275.5C 410.923,277.087 407.423,273.421 409,264.5C 413.618,260.126 418.452,256.126 423.5,252.5 Z"/></g>
<g><path style="opacity:1" fill="#a8af76" d="M 111.5,283.5 C 114.187,283.336 116.854,283.503 119.5,284C 127.817,292.648 134.983,302.148 141,312.5C 142.527,321.806 138.694,325.473 129.5,323.5C 123.47,313.536 116.637,304.203 109,295.5C 107.888,291.019 108.721,287.019 111.5,283.5 Z"/></g>
<g><path style="opacity:1" fill="#a8af76" d="M 391.5,283.5 C 400.789,282.406 404.289,286.406 402,295.5C 394.921,303.275 388.921,311.942 384,321.5C 379.046,325.677 374.38,325.343 370,320.5C 369.333,317.833 369.333,315.167 370,312.5C 376.227,302.11 383.394,292.444 391.5,283.5 Z"/></g>
<g><path style="opacity:1" fill="#f97070" d="M 253.5,301.5 C 255.144,301.286 256.644,301.62 258,302.5C 266.21,313.757 274.043,325.257 281.5,337C 274.015,347.823 266.515,358.656 259,369.5C 256.667,373.5 254.333,373.5 252,369.5C 244.485,358.656 236.985,347.823 229.5,337C 237.638,325.212 245.638,313.379 253.5,301.5 Z"/></g>
<g><path style="opacity:1" fill="#a8af76" d="M 144.5,336.5 C 148.603,335.769 152.103,336.769 155,339.5C 159.52,350.285 163.354,361.285 166.5,372.5C 165.137,379.179 161.137,381.845 154.5,380.5C 153.52,379.019 152.353,377.685 151,376.5C 148.408,366.804 145.074,357.471 141,348.5C 140.333,345.5 140.333,342.5 141,339.5C 142.145,338.364 143.312,337.364 144.5,336.5 Z"/></g>
<g><path style="opacity:1" fill="#a8af76" d="M 358.5,336.5 C 364.526,335.34 368.526,337.507 370.5,343C 366.98,354.069 363.48,365.236 360,376.5C 356.902,381.754 352.735,382.754 347.5,379.5C 345.435,378.037 344.435,376.037 344.5,373.5C 347.217,360.337 351.884,348.004 358.5,336.5 Z"/></g>
<g><path style="opacity:1" fill="#f93e75" d="M 69.5,392.5 C 98.2548,402.084 127.588,409.417 157.5,414.5C 162.756,415.87 168.089,416.87 173.5,417.5C 227.831,425.46 282.165,425.46 336.5,417.5C 342.004,416.731 347.338,415.731 352.5,414.5C 382.755,409.52 412.422,402.186 441.5,392.5C 428.76,430.403 405.427,459.903 371.5,481C 335.365,500.859 296.698,508.359 255.5,503.5C 200.208,510.229 151.874,495.395 110.5,459C 91.3644,440.233 77.6977,418.067 69.5,392.5 Z"/></g>
<g><path style="opacity:1" fill="#a9af76" d="M 173.5,417.5 C 168.089,416.87 162.756,415.87 157.5,414.5C 156.997,409.828 156.831,405.161 157,400.5C 160.985,394.724 165.651,394.057 171,398.5C 173.484,404.704 174.317,411.038 173.5,417.5 Z"/></g>
<g><path style="opacity:1" fill="#a9af76" d="M 352.5,414.5 C 347.338,415.731 342.004,416.731 336.5,417.5C 337.498,411.517 338.498,405.517 339.5,399.5C 344.727,394.014 349.561,394.348 354,400.5C 354.64,405.367 354.14,410.034 352.5,414.5 Z"/></g>
</svg>
