<?xml version="1.0" encoding="UTF-8"?>
<!DOCTYPE svg PUBLIC "-//W3C//DTD SVG 1.1//EN" "http://www.w3.org/Graphics/SVG/1.1/DTD/svg11.dtd">
<svg xmlns="http://www.w3.org/2000/svg" version="1.1" width="512px" height="512px" style="shape-rendering:geometricPrecision; text-rendering:geometricPrecision; image-rendering:optimizeQuality; fill-rule:evenodd; clip-rule:evenodd" xmlns:xlink="http://www.w3.org/1999/xlink">
<g><path style="opacity:1" fill="#3f3f51" d="M 328.5,146.5 C 324.936,145.577 321.269,145.244 317.5,145.5C 312.85,134.248 304.35,128.915 292,129.5C 278.594,128.941 269.094,134.608 263.5,146.5C 258.167,146.5 252.833,146.5 247.5,146.5C 246.833,146.5 246.167,146.5 245.5,146.5C 242.829,144.066 239.996,141.733 237,139.5C 236.517,140.448 236.351,141.448 236.5,142.5C 236.5,144.167 236.5,145.833 236.5,147.5C 233.167,147.5 229.833,147.5 226.5,147.5C 226.533,143.131 226.2,138.798 225.5,134.5C 224.002,118.529 223.502,102.529 224,86.5C 225.003,81.3266 226.503,76.3266 228.5,71.5C 238.356,54.7123 253.023,44.5456 272.5,41C 279.799,39.98 287.132,39.3134 294.5,39C 281.759,29.6409 267.426,24.6409 251.5,24C 227.12,21.5048 204.454,26.5048 183.5,39C 180.487,40.6792 178.154,43.0125 176.5,46C 178.79,51.4152 181.957,56.2485 186,60.5C 186.602,63.2205 186.435,65.8872 185.5,68.5C 182.25,75.7974 179.75,83.4641 178,91.5C 175.536,105.183 173.036,118.85 170.5,132.5C 168.376,138.081 165.71,143.414 162.5,148.5C 158.367,149.726 154.367,149.726 150.5,148.5C 154.455,142.254 157.622,135.588 160,128.5C 162.908,107.052 167.741,86.0516 174.5,65.5C 170.735,59.8784 167.568,53.8784 165,47.5C 164.245,44.6967 164.578,42.0301 166,39.5C 180.352,26.4086 197.185,18.2419 216.5,15C 239.635,10.5506 262.301,12.2172 284.5,20C 311.198,32.2142 322.698,53.0476 319,82.5C 315.628,96.63 314.628,110.963 316,125.5C 322.708,130.906 326.875,137.906 328.5,146.5 Z"/></g>
<g><path style="opacity:1" fill="#3e3f52" d="M 464.5,118.5 C 463.508,125.982 463.175,133.648 463.5,141.5C 460.14,141.616 456.807,141.949 453.5,142.5C 453.5,106.167 453.5,69.8333 453.5,33.5C 448.695,32.5128 443.695,32.1795 438.5,32.5C 438.5,69.1667 438.5,105.833 438.5,142.5C 435.5,142.5 432.5,142.5 429.5,142.5C 429.829,157.01 429.496,171.343 428.5,185.5C 428.5,162.5 428.5,139.5 428.5,116.5C 423.151,115.461 418.651,116.795 415,120.5C 414.5,140.164 414.333,159.831 414.5,179.5C 413.505,167.678 413.172,155.678 413.5,143.5C 410.5,143.5 407.5,143.5 404.5,143.5C 404.824,136.646 404.491,129.979 403.5,123.5C 404.011,113.822 409.011,107.989 418.5,106C 421.817,105.502 425.15,105.335 428.5,105.5C 428.333,78.4979 428.5,51.4979 429,24.5C 429.5,24 430,23.5 430.5,23C 440.833,22.3333 451.167,22.3333 461.5,23C 462.333,23.8333 463.167,24.6667 464,25.5C 464.5,56.4982 464.667,87.4982 464.5,118.5 Z"/></g>
<g><path style="opacity:1" fill="#e9b1ac" d="M 228.5,71.5 C 214.167,71.5 199.833,71.5 185.5,71.5C 185.5,70.5 185.5,69.5 185.5,68.5C 186.435,65.8872 186.602,63.2205 186,60.5C 181.957,56.2485 178.79,51.4152 176.5,46C 178.154,43.0125 180.487,40.6792 183.5,39C 204.454,26.5048 227.12,21.5048 251.5,24C 267.426,24.6409 281.759,29.6409 294.5,39C 287.132,39.3134 279.799,39.98 272.5,41C 253.023,44.5456 238.356,54.7123 228.5,71.5 Z"/></g>
<g><path style="opacity:1" fill="#f9faf9" d="M 452.5,33.5 C 452.5,64.8333 452.5,96.1667 452.5,127.5C 448.167,127.5 443.833,127.5 439.5,127.5C 439.5,96.1667 439.5,64.8333 439.5,33.5C 443.833,33.5 448.167,33.5 452.5,33.5 Z"/></g>
<g><path style="opacity:1" fill="#9c9ea7" d="M 453.5,33.5 C 453.167,33.5 452.833,33.5 452.5,33.5C 448.167,33.5 443.833,33.5 439.5,33.5C 439.5,64.8333 439.5,96.1667 439.5,127.5C 439.5,148.833 439.5,170.167 439.5,191.5C 439.5,194.167 439.5,196.833 439.5,199.5C 438.503,180.674 438.17,161.674 438.5,142.5C 438.5,105.833 438.5,69.1667 438.5,32.5C 443.695,32.1795 448.695,32.5128 453.5,33.5 Z"/></g>
<g><path style="opacity:1" fill="#dc827d" d="M 252.5,60.5 C 246.97,67.2289 243.303,74.8956 241.5,83.5C 240.71,84.6085 240.21,85.9419 240,87.5C 239.223,96.5476 239.389,105.548 240.5,114.5C 240.949,119.863 241.616,125.196 242.5,130.5C 239.87,128.372 237.37,126.039 235,123.5C 233.895,111.847 233.562,100.181 234,88.5C 236.066,76.3006 242.233,66.9673 252.5,60.5 Z"/></g>
<g><path style="opacity:1" fill="#f9dbd4" d="M 303.5,86.5 C 301.085,87.8142 298.252,88.4809 295,88.5C 280.502,87.6276 266.002,86.7942 251.5,86C 247.689,86.0835 244.355,85.2501 241.5,83.5C 243.303,74.8956 246.97,67.2289 252.5,60.5C 263.268,51.3512 274.935,50.1845 287.5,57C 297.132,64.4267 302.466,74.26 303.5,86.5 Z"/></g>
<g><path style="opacity:1" fill="#dea09b" d="M 185.5,68.5 C 185.5,69.5 185.5,70.5 185.5,71.5C 199.833,71.5 214.167,71.5 228.5,71.5C 226.503,76.3266 225.003,81.3266 224,86.5C 223.502,102.529 224.002,118.529 225.5,134.5C 207.243,133.398 188.91,132.731 170.5,132.5C 173.036,118.85 175.536,105.183 178,91.5C 179.75,83.4641 182.25,75.7974 185.5,68.5 Z"/></g>
<g><path style="opacity:1" fill="#e28681" d="M 304.5,92.5 C 304.5,95.5 304.5,98.5 304.5,101.5C 301.302,102.934 297.968,103.434 294.5,103C 290.271,99.1568 290.605,95.8235 295.5,93C 298.456,91.3374 301.456,91.1707 304.5,92.5 Z"/></g>
<g><path style="opacity:1" fill="#f9cfc8" d="M 241.5,83.5 C 244.355,85.2501 247.689,86.0835 251.5,86C 266.002,86.7942 280.502,87.6276 295,88.5C 298.252,88.4809 301.085,87.8142 303.5,86.5C 304.461,88.2646 304.795,90.2646 304.5,92.5C 301.456,91.1707 298.456,91.3374 295.5,93C 290.605,95.8235 290.271,99.1568 294.5,103C 297.968,103.434 301.302,102.934 304.5,101.5C 304.5,106.833 304.5,112.167 304.5,117.5C 283.174,116.344 261.841,115.344 240.5,114.5C 239.389,105.548 239.223,96.5476 240,87.5C 240.21,85.9419 240.71,84.6085 241.5,83.5 Z"/></g>
<g><path style="opacity:1" fill="#e28680" d="M 269.5,91.5 C 274.439,91.5244 278.939,92.8577 283,95.5C 284.203,99.9633 282.536,102.63 278,103.5C 275.044,103.053 272.211,102.22 269.5,101C 266.888,97.8359 266.888,94.6693 269.5,91.5 Z"/></g>
<g><path style="opacity:1" fill="#f8c6be" d="M 240.5,114.5 C 261.841,115.344 283.174,116.344 304.5,117.5C 304.719,118.675 304.386,119.675 303.5,120.5C 283.243,116.299 266.909,122.299 254.5,138.5C 249.785,136.816 245.785,134.149 242.5,130.5C 241.616,125.196 240.949,119.863 240.5,114.5 Z"/></g>
<g><path style="opacity:1" fill="#3d3e4a" d="M 464.5,118.5 C 464.5,136.167 464.5,153.833 464.5,171.5C 463.506,181.319 463.173,191.319 463.5,201.5C 460.167,201.833 456.833,202.167 453.5,202.5C 453.5,182.5 453.5,162.5 453.5,142.5C 456.807,141.949 460.14,141.616 463.5,141.5C 463.175,133.648 463.508,125.982 464.5,118.5 Z"/></g>
<g><path style="opacity:1" fill="#3e3e4b" d="M 403.5,123.5 C 404.491,129.979 404.824,136.646 404.5,143.5C 407.5,143.5 410.5,143.5 413.5,143.5C 413.172,155.678 413.505,167.678 414.5,179.5C 419.616,180.536 424.283,182.536 428.5,185.5C 429.496,171.343 429.829,157.01 429.5,142.5C 432.5,142.5 435.5,142.5 438.5,142.5C 438.17,161.674 438.503,180.674 439.5,199.5C 439.557,200.609 439.89,201.609 440.5,202.5C 436.671,201.931 433.337,202.598 430.5,204.5C 427.445,197.779 422.445,193.112 415.5,190.5C 415.44,189.957 415.107,189.624 414.5,189.5C 413.507,194.12 413.173,198.786 413.5,203.5C 410.167,203.5 406.833,203.5 403.5,203.5C 403.5,176.833 403.5,150.167 403.5,123.5 Z"/></g>
<g><path style="opacity:1" fill="#f1f8f8" d="M 452.5,33.5 C 452.833,33.5 453.167,33.5 453.5,33.5C 453.5,69.8333 453.5,106.167 453.5,142.5C 453.5,162.5 453.5,182.5 453.5,202.5C 447.666,200.258 442.999,196.591 439.5,191.5C 439.5,170.167 439.5,148.833 439.5,127.5C 443.833,127.5 448.167,127.5 452.5,127.5C 452.5,96.1667 452.5,64.8333 452.5,33.5 Z"/></g>
<g><path style="opacity:1" fill="#ba5044" d="M 245.5,146.5 C 245.166,160.655 245.166,174.988 245.5,189.5C 243.871,188.375 242.371,187.041 241,185.5C 240.41,170.922 238.91,156.588 236.5,142.5C 236.351,141.448 236.517,140.448 237,139.5C 239.996,141.733 242.829,144.066 245.5,146.5 Z"/></g>
<g><path style="opacity:1" fill="#f07069" d="M 317.5,145.5 C 317.723,147.342 318.057,149.175 318.5,151C 318.505,153.163 317.505,154.663 315.5,155.5C 298.456,145.938 281.623,146.271 265,156.5C 264.228,156.355 263.561,156.022 263,155.5C 262.366,152.445 262.532,149.445 263.5,146.5C 269.094,134.608 278.594,128.941 292,129.5C 304.35,128.915 312.85,134.248 317.5,145.5 Z"/></g>
<g><path style="opacity:1" fill="#403e4b" d="M 317.5,145.5 C 321.269,145.244 324.936,145.577 328.5,146.5C 331.128,156.912 327.295,163.579 317,166.5C 316.773,172.704 316.273,178.871 315.5,185C 318.934,188.434 322.434,191.934 326,195.5C 327.454,198.071 328.62,200.738 329.5,203.5C 326.663,205.402 323.329,206.069 319.5,205.5C 317.523,203.186 315.523,200.853 313.5,198.5C 312.163,201.239 310.83,203.906 309.5,206.5C 306.375,205.521 303.042,205.187 299.5,205.5C 304.651,192.689 306.651,179.355 305.5,165.5C 305.773,163.549 305.107,162.049 303.5,161C 296.258,158.229 288.924,157.896 281.5,160C 277.52,161.966 273.52,163.966 269.5,166C 266.518,166.498 263.518,166.665 260.5,166.5C 254.083,162.342 250.749,156.342 250.5,148.5C 249.261,148.058 248.261,147.391 247.5,146.5C 252.833,146.5 258.167,146.5 263.5,146.5C 262.532,149.445 262.366,152.445 263,155.5C 263.561,156.022 264.228,156.355 265,156.5C 281.623,146.271 298.456,145.938 315.5,155.5C 317.505,154.663 318.505,153.163 318.5,151C 318.057,149.175 317.723,147.342 317.5,145.5 Z"/></g>
<g><path style="opacity:1" fill="#d5958e" d="M 170.5,132.5 C 188.91,132.731 207.243,133.398 225.5,134.5C 226.2,138.798 226.533,143.131 226.5,147.5C 226.833,150.167 227.167,152.833 227.5,155.5C 221.705,156.83 215.538,157.496 209,157.5C 192.324,157.227 175.824,156.56 159.5,155.5C 160.758,153.313 161.758,150.98 162.5,148.5C 165.71,143.414 168.376,138.081 170.5,132.5 Z"/></g>
<g><path style="opacity:1" fill="#a7c0f4" d="M 428.5,185.5 C 424.283,182.536 419.616,180.536 414.5,179.5C 414.333,159.831 414.5,140.164 415,120.5C 418.651,116.795 423.151,115.461 428.5,116.5C 428.5,139.5 428.5,162.5 428.5,185.5 Z"/></g>
<g><path style="opacity:1" fill="#423f4b" d="M 236.5,142.5 C 238.91,156.588 240.41,170.922 241,185.5C 242.371,187.041 243.871,188.375 245.5,189.5C 248.576,192.552 251.91,195.386 255.5,198C 257.94,199.303 260.44,200.47 263,201.5C 266.055,200.389 268.888,198.889 271.5,197C 272.833,196.333 274.167,196.333 275.5,197C 278.453,199.752 280.786,202.918 282.5,206.5C 272.319,206.173 262.319,206.506 252.5,207.5C 247.702,205.26 243.369,202.26 239.5,198.5C 238.616,201.656 237.616,204.656 236.5,207.5C 233.061,207.253 229.728,207.586 226.5,208.5C 227.323,205.539 227.99,202.539 228.5,199.5C 230.11,184.638 229.777,169.971 227.5,155.5C 227.167,152.833 226.833,150.167 226.5,147.5C 229.833,147.5 233.167,147.5 236.5,147.5C 236.5,145.833 236.5,144.167 236.5,142.5 Z"/></g>
<g><path style="opacity:1" fill="#3f3e4b" d="M 150.5,148.5 C 154.367,149.726 158.367,149.726 162.5,148.5C 161.758,150.98 160.758,153.313 159.5,155.5C 153.406,163.098 146.739,170.264 139.5,177C 130.628,182.931 121.962,189.097 113.5,195.5C 109.474,199.195 105.474,202.862 101.5,206.5C 100.194,208.473 98.5273,210.139 96.5,211.5C 92.5575,211.125 88.8909,210.125 85.5,208.5C 90.5922,201.903 96.2589,195.737 102.5,190C 113.22,181.613 124.22,173.613 135.5,166C 141.11,160.561 146.11,154.727 150.5,148.5 Z"/></g>
<g><path style="opacity:1" fill="#b75045" d="M 305.5,165.5 C 298.291,163.591 290.958,163.091 283.5,164C 278.04,165.988 272.707,168.154 267.5,170.5C 264.372,170.439 262.039,169.106 260.5,166.5C 263.518,166.665 266.518,166.498 269.5,166C 273.52,163.966 277.52,161.966 281.5,160C 288.924,157.896 296.258,158.229 303.5,161C 305.107,162.049 305.773,163.549 305.5,165.5 Z"/></g>
<g><path style="opacity:1" fill="#38394b" d="M 464.5,171.5 C 464.5,196.5 464.5,221.5 464.5,246.5C 476.628,249.124 484.461,256.458 488,268.5C 488.499,272.821 488.666,277.154 488.5,281.5C 487.508,288.982 487.175,296.648 487.5,304.5C 484.5,304.5 481.5,304.5 478.5,304.5C 478.784,306.415 478.451,308.081 477.5,309.5C 477.5,307.5 477.5,305.5 477.5,303.5C 477.667,292.162 477.5,280.828 477,269.5C 471.476,257.317 462.309,253.484 449.5,258C 445.612,260.222 442.779,263.388 441,267.5C 439.564,279.09 439.064,290.757 439.5,302.5C 439.5,303.833 439.5,305.167 439.5,306.5C 436.219,305.372 432.885,305.372 429.5,306.5C 429.333,293.496 429.5,280.496 430,267.5C 430.847,265.146 431.68,262.812 432.5,260.5C 437.641,253.093 444.641,248.426 453.5,246.5C 453.5,239.5 453.5,232.5 453.5,225.5C 442.713,221.936 435.046,214.936 430.5,204.5C 433.337,202.598 436.671,201.931 440.5,202.5C 443.451,207.451 447.451,211.451 452.5,214.5C 453.491,210.555 453.824,206.555 453.5,202.5C 456.833,202.167 460.167,201.833 463.5,201.5C 463.173,191.319 463.506,181.319 464.5,171.5 Z"/></g>
<g><path style="opacity:1" fill="#e4645d" d="M 245.5,146.5 C 246.167,146.5 246.833,146.5 247.5,146.5C 248.261,147.391 249.261,148.058 250.5,148.5C 250.749,156.342 254.083,162.342 260.5,166.5C 262.039,169.106 264.372,170.439 267.5,170.5C 272.707,168.154 278.04,165.988 283.5,164C 290.958,163.091 298.291,163.591 305.5,165.5C 306.651,179.355 304.651,192.689 299.5,205.5C 298.03,207.151 296.697,208.985 295.5,211C 293.305,212.373 290.971,212.706 288.5,212C 286.63,209.96 284.63,208.127 282.5,206.5C 280.786,202.918 278.453,199.752 275.5,197C 274.167,196.333 272.833,196.333 271.5,197C 268.888,198.889 266.055,200.389 263,201.5C 260.44,200.47 257.94,199.303 255.5,198C 251.91,195.386 248.576,192.552 245.5,189.5C 245.166,174.988 245.166,160.655 245.5,146.5 Z"/></g>
<g><path style="opacity:1" fill="#cf8a83" d="M 159.5,155.5 C 175.824,156.56 192.324,157.227 209,157.5C 215.538,157.496 221.705,156.83 227.5,155.5C 229.777,169.971 230.11,184.638 228.5,199.5C 190.014,198.55 151.681,197.217 113.5,195.5C 121.962,189.097 130.628,182.931 139.5,177C 146.739,170.264 153.406,163.098 159.5,155.5 Z"/></g>
<g><path style="opacity:1" fill="#99b3e4" d="M 439.5,191.5 C 442.999,196.591 447.666,200.258 453.5,202.5C 453.824,206.555 453.491,210.555 452.5,214.5C 447.451,211.451 443.451,207.451 440.5,202.5C 439.89,201.609 439.557,200.609 439.5,199.5C 439.5,196.833 439.5,194.167 439.5,191.5 Z"/></g>
<g><path style="opacity:1" fill="#cd827c" d="M 113.5,195.5 C 151.681,197.217 190.014,198.55 228.5,199.5C 227.99,202.539 227.323,205.539 226.5,208.5C 226.5,208.833 226.5,209.167 226.5,209.5C 225.092,210.061 223.592,210.395 222,210.5C 181.669,209.483 141.502,208.15 101.5,206.5C 105.474,202.862 109.474,199.195 113.5,195.5 Z"/></g>
<g><path style="opacity:1" fill="#9b8383" d="M 252.5,207.5 C 254.273,208.892 256.273,210.059 258.5,211C 263.323,211.609 267.99,211.276 272.5,210C 276.464,216.132 281.798,220.632 288.5,223.5C 287.392,226.059 286.059,228.392 284.5,230.5C 279.399,226.31 275.232,221.31 272,215.5C 268.47,219.25 264.47,222.25 260,224.5C 254.817,221.999 250.151,218.665 246,214.5C 242.794,227.578 236.961,239.245 228.5,249.5C 210.429,269.526 187.762,279.193 160.5,278.5C 156.818,278.665 153.152,278.499 149.5,278C 143.762,276.98 138.095,275.814 132.5,274.5C 124.018,271.263 115.685,267.43 107.5,263C 103.332,259.998 99.6652,256.498 96.5,252.5C 120.701,264.799 146.368,269.966 173.5,268C 208.736,262.596 229.736,242.429 236.5,207.5C 237.616,204.656 238.616,201.656 239.5,198.5C 243.369,202.26 247.702,205.26 252.5,207.5 Z"/></g>
<g><path style="opacity:1" fill="#39394b" d="M 329.5,203.5 C 331.5,207.826 332.5,212.493 332.5,217.5C 331.209,226.829 329.209,235.996 326.5,245C 327.273,253.173 328.107,261.339 329,269.5C 334.378,284.029 344.212,294.529 358.5,301C 363.393,302.512 368.393,303.512 373.5,304C 383.494,304.5 393.494,304.666 403.5,304.5C 403.5,270.833 403.5,237.167 403.5,203.5C 406.833,203.5 410.167,203.5 413.5,203.5C 413.169,232.671 413.502,261.671 414.5,290.5C 420.277,289.106 422.777,291.44 422,297.5C 419.561,299.629 417.061,301.629 414.5,303.5C 413.596,304.209 413.263,305.209 413.5,306.5C 391.995,306.77 370.661,307.437 349.5,308.5C 343.675,305.855 338.509,302.188 334,297.5C 333.503,299.81 333.337,302.143 333.5,304.5C 333.5,305.833 333.5,307.167 333.5,308.5C 330.5,308.5 327.5,308.5 324.5,308.5C 323.051,298.474 321.385,288.474 319.5,278.5C 318.44,273.585 317.606,268.585 317,263.5C 313.333,270.833 309.667,278.167 306,285.5C 306.796,289.923 307.629,294.423 308.5,299C 308.403,302.788 307.403,306.288 305.5,309.5C 299.833,309.5 294.167,309.5 288.5,309.5C 285.167,307.167 281.833,304.833 278.5,302.5C 271.572,296.351 264.572,290.184 257.5,284C 256.241,283.018 254.908,282.685 253.5,283C 252.12,284.925 250.62,286.759 249,288.5C 248.251,289.635 248.417,290.635 249.5,291.5C 256.852,297.191 264.185,302.857 271.5,308.5C 267.02,309.521 262.353,310.187 257.5,310.5C 252.273,306.63 247.106,302.63 242,298.5C 236.537,302.246 236.371,305.912 241.5,309.5C 234.6,310.199 227.6,310.866 220.5,311.5C 222.905,307.027 225.571,302.694 228.5,298.5C 236.98,287.569 245.48,276.569 254,265.5C 258.029,261.569 262.863,259.403 268.5,259C 270.903,255.689 272.903,252.189 274.5,248.5C 278.337,242.83 281.67,236.83 284.5,230.5C 286.059,228.392 287.392,226.059 288.5,223.5C 281.798,220.632 276.464,216.132 272.5,210C 267.99,211.276 263.323,211.609 258.5,211C 256.273,210.059 254.273,208.892 252.5,207.5C 262.319,206.506 272.319,206.173 282.5,206.5C 284.63,208.127 286.63,209.96 288.5,212C 290.971,212.706 293.305,212.373 295.5,211C 296.697,208.985 298.03,207.151 299.5,205.5C 303.042,205.187 306.375,205.521 309.5,206.5C 299.645,225.042 289.645,243.542 279.5,262C 285.267,267.767 291.1,273.6 297,279.5C 308.717,259.681 316.883,238.514 321.5,216C 321.519,212.348 320.852,208.848 319.5,205.5C 323.329,206.069 326.663,205.402 329.5,203.5 Z"/></g>
<g><path style="opacity:1" fill="#c7827b" d="M 101.5,206.5 C 141.502,208.15 181.669,209.483 222,210.5C 223.592,210.395 225.092,210.061 226.5,209.5C 225.342,212.989 224.009,216.322 222.5,219.5C 184.501,218.689 146.501,217.856 108.5,217C 103.649,216.826 98.9819,216.326 94.5,215.5C 94.7329,213.938 95.3995,212.605 96.5,211.5C 98.5273,210.139 100.194,208.473 101.5,206.5 Z"/></g>
<g><path style="opacity:1" fill="#3a394c" d="M 236.5,207.5 C 229.736,242.429 208.736,262.596 173.5,268C 146.368,269.966 120.701,264.799 96.5,252.5C 86.8259,251.254 79.6592,254.92 75,263.5C 71.9711,267.562 69.4711,271.895 67.5,276.5C 65.7497,277.659 64.7497,279.326 64.5,281.5C 60.0339,287.657 56.3673,294.323 53.5,301.5C 51.4371,306.022 49.7705,310.688 48.5,315.5C 48.1667,315.5 47.8333,315.5 47.5,315.5C 44.0613,315.747 40.728,315.414 37.5,314.5C 44.8486,292.468 55.3486,272.134 69,253.5C 68.9479,236.305 74.4479,221.305 85.5,208.5C 88.8909,210.125 92.5575,211.125 96.5,211.5C 95.3995,212.605 94.7329,213.938 94.5,215.5C 89.3311,220.49 85.6644,226.49 83.5,233.5C 81.6335,236.694 81.3002,240.027 82.5,243.5C 87.3415,241.59 92.3415,241.09 97.5,242C 105.061,244.447 112.394,247.447 119.5,251C 140.816,257.968 162.482,259.302 184.5,255C 195.251,251.727 204.251,245.894 211.5,237.5C 216.669,232.51 220.336,226.51 222.5,219.5C 224.009,216.322 225.342,212.989 226.5,209.5C 226.5,209.167 226.5,208.833 226.5,208.5C 229.728,207.586 233.061,207.253 236.5,207.5 Z"/></g>
<g><path style="opacity:1" fill="#7c7d8a" d="M 415.5,190.5 C 414.502,223.662 414.168,256.996 414.5,290.5C 413.502,261.671 413.169,232.671 413.5,203.5C 413.173,198.786 413.507,194.12 414.5,189.5C 415.107,189.624 415.44,189.957 415.5,190.5 Z"/></g>
<g><path style="opacity:1" fill="#c77c75" d="M 94.5,215.5 C 98.9819,216.326 103.649,216.826 108.5,217C 146.501,217.856 184.501,218.689 222.5,219.5C 220.336,226.51 216.669,232.51 211.5,237.5C 169.007,235.68 126.34,234.347 83.5,233.5C 85.6644,226.49 89.3311,220.49 94.5,215.5 Z"/></g>
<g><path style="opacity:1" fill="#eaf2f9" d="M 415.5,190.5 C 422.445,193.112 427.445,197.779 430.5,204.5C 435.046,214.936 442.713,221.936 453.5,225.5C 453.5,232.5 453.5,239.5 453.5,246.5C 444.641,248.426 437.641,253.093 432.5,260.5C 427.577,265.013 424.743,270.679 424,277.5C 423.089,291.88 423.422,306.214 425,320.5C 432.522,336.182 445.022,342.848 462.5,340.5C 462.5,341.167 462.5,341.833 462.5,342.5C 460.417,343.029 458.583,344.029 457,345.5C 457.51,358.298 454.177,369.965 447,380.5C 438.082,369.382 427.415,360.382 415,353.5C 414.5,336.837 414.333,320.17 414.5,303.5C 417.061,301.629 419.561,299.629 422,297.5C 422.777,291.44 420.277,289.106 414.5,290.5C 414.168,256.996 414.502,223.662 415.5,190.5 Z"/></g>
<g><path style="opacity:1" fill="#e6d3cb" d="M 284.5,230.5 C 281.67,236.83 278.337,242.83 274.5,248.5C 259.269,249.01 244.102,249.677 229,250.5C 228.601,250.272 228.435,249.938 228.5,249.5C 236.961,239.245 242.794,227.578 246,214.5C 250.151,218.665 254.817,221.999 260,224.5C 264.47,222.25 268.47,219.25 272,215.5C 275.232,221.31 279.399,226.31 284.5,230.5 Z"/></g>
<g><path style="opacity:1" fill="#c67c6f" d="M 83.5,233.5 C 126.34,234.347 169.007,235.68 211.5,237.5C 204.251,245.894 195.251,251.727 184.5,255C 162.482,259.302 140.816,257.968 119.5,251C 112.394,247.447 105.061,244.447 97.5,242C 92.3415,241.09 87.3415,241.59 82.5,243.5C 81.3002,240.027 81.6335,236.694 83.5,233.5 Z"/></g>
<g><path style="opacity:1" fill="#656577" d="M 319.5,205.5 C 320.852,208.848 321.519,212.348 321.5,216C 316.883,238.514 308.717,259.681 297,279.5C 291.1,273.6 285.267,267.767 279.5,262C 289.645,243.542 299.645,225.042 309.5,206.5C 310.83,203.906 312.163,201.239 313.5,198.5C 315.523,200.853 317.523,203.186 319.5,205.5 Z"/></g>
<g><path style="opacity:1" fill="#e4ccc6" d="M 96.5,252.5 C 99.6652,256.498 103.332,259.998 107.5,263C 115.685,267.43 124.018,271.263 132.5,274.5C 110.879,275.598 89.2124,276.265 67.5,276.5C 69.4711,271.895 71.9711,267.562 75,263.5C 79.6592,254.92 86.8259,251.254 96.5,252.5 Z"/></g>
<g><path style="opacity:1" fill="#9b8282" d="M 319.5,278.5 C 313.303,283.847 312.47,289.847 317,296.5C 317.835,304.673 316.169,312.34 312,319.5C 300.815,336.199 287.981,351.532 273.5,365.5C 269.05,367.138 264.383,367.971 259.5,368C 254.963,372.369 250.63,376.869 246.5,381.5C 238.648,381.825 230.982,381.492 223.5,380.5C 226.208,377.791 229.208,375.458 232.5,373.5C 234.881,374.83 237.214,374.664 239.5,373C 244.467,367.031 249.801,361.365 255.5,356C 261.543,356.165 267.209,354.832 272.5,352C 285.626,339.387 296.626,325.22 305.5,309.5C 307.403,306.288 308.403,302.788 308.5,299C 307.629,294.423 306.796,289.923 306,285.5C 309.667,278.167 313.333,270.833 317,263.5C 317.606,268.585 318.44,273.585 319.5,278.5 Z"/></g>
<g><path style="opacity:1" fill="#f2c880" d="M 285.5,283.5 C 285.54,286.881 285.207,290.214 284.5,293.5C 276.637,287.067 268.971,280.4 261.5,273.5C 265.246,268.79 269.579,268.29 274.5,272C 278.37,275.702 282.037,279.536 285.5,283.5 Z"/></g>
<g><path style="opacity:1" fill="#e0cdc0" d="M 132.5,274.5 C 138.095,275.814 143.762,276.98 149.5,278C 153.152,278.499 156.818,278.665 160.5,278.5C 160.918,279.222 161.584,279.722 162.5,280C 134.164,280.741 105.83,281.574 77.5,282.5C 72.9866,282.499 68.6533,282.166 64.5,281.5C 64.7497,279.326 65.7497,277.659 67.5,276.5C 89.2124,276.265 110.879,275.598 132.5,274.5 Z"/></g>
<g><path style="opacity:1" fill="#e1c9c1" d="M 274.5,248.5 C 272.903,252.189 270.903,255.689 268.5,259C 262.863,259.403 258.029,261.569 254,265.5C 245.48,276.569 236.98,287.569 228.5,298.5C 174.523,299.278 120.357,300.611 66,302.5C 61.7523,302.47 57.5856,302.136 53.5,301.5C 56.3673,294.323 60.0339,287.657 64.5,281.5C 68.6533,282.166 72.9866,282.499 77.5,282.5C 105.83,281.574 134.164,280.741 162.5,280C 161.584,279.722 160.918,279.222 160.5,278.5C 187.762,279.193 210.429,269.526 228.5,249.5C 228.435,249.938 228.601,250.272 229,250.5C 244.102,249.677 259.269,249.01 274.5,248.5 Z"/></g>
<g><path style="opacity:1" fill="#656577" d="M 477.5,303.5 C 464.813,303.682 452.147,303.349 439.5,302.5C 439.064,290.757 439.564,279.09 441,267.5C 442.779,263.388 445.612,260.222 449.5,258C 462.309,253.484 471.476,257.317 477,269.5C 477.5,280.828 477.667,292.162 477.5,303.5 Z"/></g>
<g><path style="opacity:1" fill="#383845" d="M 488.5,281.5 C 488.667,292.172 488.5,302.839 488,313.5C 484.066,326.269 475.566,333.936 462.5,336.5C 442.647,336.316 431.647,326.316 429.5,306.5C 432.885,305.372 436.219,305.372 439.5,306.5C 442.033,322.188 451.033,328.021 466.5,324C 472.455,320.933 476.121,316.099 477.5,309.5C 478.451,308.081 478.784,306.415 478.5,304.5C 481.5,304.5 484.5,304.5 487.5,304.5C 487.175,296.648 487.508,288.982 488.5,281.5 Z"/></g>
<g><path style="opacity:1" fill="#ea853f" d="M 285.5,283.5 C 288.833,286.664 292.333,289.664 296,292.5C 299.043,296.071 299.21,299.738 296.5,303.5C 292.773,299.767 288.773,296.434 284.5,293.5C 285.207,290.214 285.54,286.881 285.5,283.5 Z"/></g>
<g><path style="opacity:1" fill="#f4bf6e" d="M 278.5,302.5 C 277.189,305.135 275.522,307.469 273.5,309.5C 272.833,309.167 272.167,308.833 271.5,308.5C 264.185,302.857 256.852,297.191 249.5,291.5C 248.417,290.635 248.251,289.635 249,288.5C 250.62,286.759 252.12,284.925 253.5,283C 254.908,282.685 256.241,283.018 257.5,284C 264.572,290.184 271.572,296.351 278.5,302.5 Z"/></g>
<g><path style="opacity:1" fill="#e0c7ba" d="M 228.5,298.5 C 225.571,302.694 222.905,307.027 220.5,311.5C 220.167,311.5 219.833,311.5 219.5,311.5C 195.494,311.908 171.494,312.574 147.5,313.5C 143.651,313.499 139.984,313.165 136.5,312.5C 138.218,310.074 138.718,307.407 138,304.5C 135,301.833 132,301.833 129,304.5C 126.653,307.194 124.82,310.194 123.5,313.5C 98.5502,314.813 73.5502,315.48 48.5,315.5C 49.7705,310.688 51.4371,306.022 53.5,301.5C 57.5856,302.136 61.7523,302.47 66,302.5C 120.357,300.611 174.523,299.278 228.5,298.5 Z"/></g>
<g><path style="opacity:1" fill="#9a8282" d="M 349.5,308.5 C 350.937,309.725 352.604,310.725 354.5,311.5C 358.909,334.697 362.576,358.03 365.5,381.5C 358.388,382.668 351.388,383.668 344.5,384.5C 342.273,385.401 341.273,387.067 341.5,389.5C 338.43,389.632 335.43,389.299 332.5,388.5C 330.589,387.925 328.922,386.925 327.5,385.5C 331.028,381.112 333.528,376.112 335,370.5C 335.892,360.186 336.392,349.853 336.5,339.5C 336.757,327.575 335.757,315.908 333.5,304.5C 333.337,302.143 333.503,299.81 334,297.5C 338.509,302.188 343.675,305.855 349.5,308.5 Z"/></g>
<g><path style="opacity:1" fill="#f4b661" d="M 257.5,310.5 C 260.794,313.156 264.127,315.822 267.5,318.5C 265.5,320.833 263.5,323.167 261.5,325.5C 254.833,320.167 248.167,314.833 241.5,309.5C 236.371,305.912 236.537,302.246 242,298.5C 247.106,302.63 252.273,306.63 257.5,310.5 Z"/></g>
<g><path style="opacity:1" fill="#5c5c6f" d="M 439.5,302.5 C 452.147,303.349 464.813,303.682 477.5,303.5C 477.5,305.5 477.5,307.5 477.5,309.5C 476.121,316.099 472.455,320.933 466.5,324C 451.033,328.021 442.033,322.188 439.5,306.5C 439.5,305.167 439.5,303.833 439.5,302.5 Z"/></g>
<g><path style="opacity:1" fill="#ec863e" d="M 278.5,302.5 C 281.833,304.833 285.167,307.167 288.5,309.5C 289.29,310.794 290.29,311.961 291.5,313C 289.954,315.257 288.288,317.424 286.5,319.5C 281.557,316.873 277.223,313.539 273.5,309.5C 275.522,307.469 277.189,305.135 278.5,302.5 Z"/></g>
<g><path style="opacity:1" fill="#3a3a46" d="M 414.5,303.5 C 414.333,320.17 414.5,336.837 415,353.5C 427.415,360.382 438.082,369.382 447,380.5C 454.177,369.965 457.51,358.298 457,345.5C 458.583,344.029 460.417,343.029 462.5,342.5C 464.371,342.859 465.871,343.859 467,345.5C 468.683,358.925 465.85,371.258 458.5,382.5C 450.833,382.5 443.167,382.5 435.5,382.5C 429.057,375.389 421.724,369.389 413.5,364.5C 411.029,368.766 408.529,373.099 406,377.5C 404.383,379.763 402.55,381.763 400.5,383.5C 396.5,383.5 392.5,383.5 388.5,383.5C 394.605,376.294 399.438,368.294 403,359.5C 403.499,354.511 403.666,349.511 403.5,344.5C 403.5,334.833 403.5,325.167 403.5,315.5C 391.15,315.618 378.817,315.285 366.5,314.5C 367.191,324.593 368.524,334.593 370.5,344.5C 372.717,357.8 374.717,371.133 376.5,384.5C 365.833,384.5 355.167,384.5 344.5,384.5C 351.388,383.668 358.388,382.668 365.5,381.5C 362.576,358.03 358.909,334.697 354.5,311.5C 352.604,310.725 350.937,309.725 349.5,308.5C 370.661,307.437 391.995,306.77 413.5,306.5C 413.263,305.209 413.596,304.209 414.5,303.5 Z"/></g>
<g><path style="opacity:1" fill="#3a3945" d="M 136.5,312.5 C 133.132,316.569 130.799,321.236 129.5,326.5C 127.656,331.551 126.656,336.884 126.5,342.5C 126.281,343.675 126.614,344.675 127.5,345.5C 133.256,347.464 138.09,350.797 142,355.5C 148.387,363.554 154.387,371.888 160,380.5C 176.257,368.078 191.424,354.411 205.5,339.5C 210.497,335.336 214.997,330.669 219,325.5C 219.692,324.563 219.525,323.897 218.5,323.5C 218.395,319.452 218.728,315.452 219.5,311.5C 219.833,311.5 220.167,311.5 220.5,311.5C 227.6,310.866 234.6,310.199 241.5,309.5C 248.167,314.833 254.833,320.167 261.5,325.5C 265.506,328.934 269.672,332.268 274,335.5C 277.036,333.509 278.703,330.842 279,327.5C 275.291,324.285 271.458,321.285 267.5,318.5C 264.127,315.822 260.794,313.156 257.5,310.5C 262.353,310.187 267.02,309.521 271.5,308.5C 272.167,308.833 272.833,309.167 273.5,309.5C 277.223,313.539 281.557,316.873 286.5,319.5C 288.288,317.424 289.954,315.257 291.5,313C 290.29,311.961 289.29,310.794 288.5,309.5C 294.167,309.5 299.833,309.5 305.5,309.5C 296.626,325.22 285.626,339.387 272.5,352C 267.209,354.832 261.543,356.165 255.5,356C 249.801,361.365 244.467,367.031 239.5,373C 237.214,374.664 234.881,374.83 232.5,373.5C 230.667,371.504 230.167,369.171 231,366.5C 236.533,361.302 241.7,355.802 246.5,350C 240.138,345.817 234.138,341.15 228.5,336C 227.241,335.018 225.908,334.685 224.5,335C 209.766,351.736 193.766,367.069 176.5,381C 191.907,381.182 207.241,381.682 222.5,382.5C 252.338,382.831 282.005,382.498 311.5,381.5C 320.455,378.957 325.122,372.957 325.5,363.5C 325.766,345.143 325.433,326.81 324.5,308.5C 327.5,308.5 330.5,308.5 333.5,308.5C 333.5,307.167 333.5,305.833 333.5,304.5C 335.757,315.908 336.757,327.575 336.5,339.5C 336.392,349.853 335.892,360.186 335,370.5C 333.528,376.112 331.028,381.112 327.5,385.5C 269.156,386.469 210.822,387.802 152.5,389.5C 151.833,388.5 151.167,387.5 150.5,386.5C 146.344,378.2 141.178,370.534 135,363.5C 132.463,360.628 129.63,358.128 126.5,356C 95.9403,350.941 65.9403,353.274 36.5,363C 44.8106,373.631 54.8106,382.131 66.5,388.5C 67.6935,389.272 68.6935,390.272 69.5,391.5C 63.5,391.5 57.5,391.5 51.5,391.5C 39.8986,384.399 30.3986,375.066 23,363.5C 22.3333,361.5 22.3333,359.5 23,357.5C 26.48,354.843 30.3134,352.843 34.5,351.5C 32.6222,338.933 33.6222,326.599 37.5,314.5C 40.728,315.414 44.0613,315.747 47.5,315.5C 44.8703,326.659 43.8703,337.992 44.5,349.5C 68.1659,344.039 92.1659,342.039 116.5,343.5C 116.004,332.819 118.337,322.819 123.5,313.5C 124.82,310.194 126.653,307.194 129,304.5C 132,301.833 135,301.833 138,304.5C 138.718,307.407 138.218,310.074 136.5,312.5 Z"/></g>
<g><path style="opacity:1" fill="#dbc0ba" d="M 219.5,311.5 C 218.728,315.452 218.395,319.452 218.5,323.5C 188.821,324.371 159.154,325.371 129.5,326.5C 130.799,321.236 133.132,316.569 136.5,312.5C 139.984,313.165 143.651,313.499 147.5,313.5C 171.494,312.574 195.494,311.908 219.5,311.5 Z"/></g>
<g><path style="opacity:1" fill="#ec853e" d="M 267.5,318.5 C 271.458,321.285 275.291,324.285 279,327.5C 278.703,330.842 277.036,333.509 274,335.5C 269.672,332.268 265.506,328.934 261.5,325.5C 263.5,323.167 265.5,320.833 267.5,318.5 Z"/></g>
<g><path style="opacity:1" fill="#d9c0b4" d="M 218.5,323.5 C 219.525,323.897 219.692,324.563 219,325.5C 214.997,330.669 210.497,335.336 205.5,339.5C 179.113,340.445 152.779,341.445 126.5,342.5C 126.656,336.884 127.656,331.551 129.5,326.5C 159.154,325.371 188.821,324.371 218.5,323.5 Z"/></g>
<g><path style="opacity:1" fill="#58586a" d="M 403.5,344.5 C 392.5,344.5 381.5,344.5 370.5,344.5C 368.524,334.593 367.191,324.593 366.5,314.5C 378.817,315.285 391.15,315.618 403.5,315.5C 403.5,325.167 403.5,334.833 403.5,344.5 Z"/></g>
<g><path style="opacity:1" fill="#f4ad52" d="M 253.5,332.5 C 252.109,334.89 250.109,336.557 247.5,337.5C 241.253,333.427 235.419,328.76 230,323.5C 229.179,320.446 229.345,317.446 230.5,314.5C 238.378,320.267 246.045,326.267 253.5,332.5 Z"/></g>
<g><path style="opacity:1" fill="#d9bfb5" d="M 123.5,313.5 C 118.337,322.819 116.004,332.819 116.5,343.5C 92.1659,342.039 68.1659,344.039 44.5,349.5C 43.8703,337.992 44.8703,326.659 47.5,315.5C 47.8333,315.5 48.1667,315.5 48.5,315.5C 73.5502,315.48 98.5502,314.813 123.5,313.5 Z"/></g>
<g><path style="opacity:1" fill="#a2baec" d="M 432.5,260.5 C 431.68,262.812 430.847,265.146 430,267.5C 429.5,280.496 429.333,293.496 429.5,306.5C 431.647,326.316 442.647,336.316 462.5,336.5C 462.5,337.833 462.5,339.167 462.5,340.5C 445.022,342.848 432.522,336.182 425,320.5C 423.422,306.214 423.089,291.88 424,277.5C 424.743,270.679 427.577,265.013 432.5,260.5 Z"/></g>
<g><path style="opacity:1" fill="#ea853e" d="M 253.5,332.5 C 257.959,335.787 262.292,339.287 266.5,343C 264.217,345.19 261.551,345.857 258.5,345C 254.42,342.971 250.754,340.471 247.5,337.5C 250.109,336.557 252.109,334.89 253.5,332.5 Z"/></g>
<g><path style="opacity:1" fill="#505063" d="M 370.5,344.5 C 381.5,344.5 392.5,344.5 403.5,344.5C 403.666,349.511 403.499,354.511 403,359.5C 399.438,368.294 394.605,376.294 388.5,383.5C 386.751,388.863 383.084,390.863 377.5,389.5C 377.371,387.784 377.038,386.117 376.5,384.5C 374.717,371.133 372.717,357.8 370.5,344.5 Z"/></g>
<g><path style="opacity:1" fill="#525264" d="M 232.5,373.5 C 229.208,375.458 226.208,377.791 223.5,380.5C 222.662,380.842 222.328,381.508 222.5,382.5C 207.241,381.682 191.907,381.182 176.5,381C 193.766,367.069 209.766,351.736 224.5,335C 225.908,334.685 227.241,335.018 228.5,336C 234.138,341.15 240.138,345.817 246.5,350C 241.7,355.802 236.533,361.302 231,366.5C 230.167,369.171 230.667,371.504 232.5,373.5 Z"/></g>
<g><path style="opacity:1" fill="#d8bcb1" d="M 319.5,278.5 C 321.385,288.474 323.051,298.474 324.5,308.5C 325.433,326.81 325.766,345.143 325.5,363.5C 322.587,364.241 319.587,364.741 316.5,365C 303.148,365.221 289.815,365.721 276.5,366.5C 275.274,366.48 274.274,366.147 273.5,365.5C 287.981,351.532 300.815,336.199 312,319.5C 316.169,312.34 317.835,304.673 317,296.5C 312.47,289.847 313.303,283.847 319.5,278.5 Z"/></g>
<g><path style="opacity:1" fill="#d7b9b0" d="M 205.5,339.5 C 191.424,354.411 176.257,368.078 160,380.5C 154.387,371.888 148.387,363.554 142,355.5C 138.09,350.797 133.256,347.464 127.5,345.5C 126.614,344.675 126.281,343.675 126.5,342.5C 152.779,341.445 179.113,340.445 205.5,339.5 Z"/></g>
<g><path style="opacity:1" fill="#646476" d="M 150.5,386.5 C 122.663,387.299 94.6628,387.966 66.5,388.5C 54.8106,382.131 44.8106,373.631 36.5,363C 65.9403,353.274 95.9403,350.941 126.5,356C 129.63,358.128 132.463,360.628 135,363.5C 141.178,370.534 146.344,378.2 150.5,386.5 Z"/></g>
<g><path style="opacity:1" fill="#d3b4ac" d="M 325.5,363.5 C 325.122,372.957 320.455,378.957 311.5,381.5C 289.833,381.5 268.167,381.5 246.5,381.5C 250.63,376.869 254.963,372.369 259.5,368C 264.383,367.971 269.05,367.138 273.5,365.5C 274.274,366.147 275.274,366.48 276.5,366.5C 289.815,365.721 303.148,365.221 316.5,365C 319.587,364.741 322.587,364.241 325.5,363.5 Z"/></g>
<g><path style="opacity:1" fill="#776b71" d="M 223.5,380.5 C 230.982,381.492 238.648,381.825 246.5,381.5C 268.167,381.5 289.833,381.5 311.5,381.5C 282.005,382.498 252.338,382.831 222.5,382.5C 222.328,381.508 222.662,380.842 223.5,380.5 Z"/></g>
<g><path style="opacity:1" fill="#353344" d="M 435.5,382.5 C 443.167,382.5 450.833,382.5 458.5,382.5C 446.275,402.065 439.941,423.398 439.5,446.5C 436.284,446.016 432.951,446.016 429.5,446.5C 429.5,448.833 429.5,451.167 429.5,453.5C 428.117,439.389 429.45,425.389 433.5,411.5C 435.6,404.629 438.267,397.963 441.5,391.5C 439.474,388.482 437.474,385.482 435.5,382.5 Z"/></g>
<g><path style="opacity:1" fill="#333244" d="M 388.5,383.5 C 392.5,383.5 396.5,383.5 400.5,383.5C 394.814,391.534 390.147,400.201 386.5,409.5C 381.806,419.959 379.14,430.959 378.5,442.5C 377.549,443.919 377.216,445.585 377.5,447.5C 374.167,447.5 370.833,447.5 367.5,447.5C 367.833,431.836 371.166,416.836 377.5,402.5C 371.205,402.539 367.538,399.539 366.5,393.5C 365.667,393.167 364.833,392.833 364,392.5C 357.244,394.188 350.411,394.688 343.5,394C 341.963,392.89 341.297,391.39 341.5,389.5C 341.273,387.067 342.273,385.401 344.5,384.5C 355.167,384.5 365.833,384.5 376.5,384.5C 377.038,386.117 377.371,387.784 377.5,389.5C 383.084,390.863 386.751,388.863 388.5,383.5 Z"/></g>
<g><path style="opacity:1" fill="#eb6a63" d="M 435.5,382.5 C 437.474,385.482 439.474,388.482 441.5,391.5C 438.267,397.963 435.6,404.629 433.5,411.5C 417.81,411.193 402.143,410.527 386.5,409.5C 390.147,400.201 394.814,391.534 400.5,383.5C 402.55,381.763 404.383,379.763 406,377.5C 408.529,373.099 411.029,368.766 413.5,364.5C 421.724,369.389 429.057,375.389 435.5,382.5 Z"/></g>
<g><path style="opacity:1" fill="#323244" d="M 327.5,385.5 C 328.922,386.925 330.589,387.925 332.5,388.5C 333.653,390.807 334.82,393.14 336,395.5C 336.5,413.164 336.667,430.83 336.5,448.5C 333.167,448.5 329.833,448.5 326.5,448.5C 326.83,431.991 326.496,415.658 325.5,399.5C 324.409,396.572 322.409,394.406 319.5,393C 303.17,392.5 286.837,392.333 270.5,392.5C 269.503,411.326 269.17,430.326 269.5,449.5C 266.518,449.963 263.518,450.296 260.5,450.5C 260.793,459.708 260.46,468.875 259.5,478C 260.017,480.077 260.684,482.077 261.5,484C 260.366,485.016 260.699,485.683 262.5,486C 262.167,486.333 261.833,486.667 261.5,487C 263.076,488.73 264.41,490.563 265.5,492.5C 240.833,492.5 216.167,492.5 191.5,492.5C 196.383,489.22 201.05,484.887 205.5,479.5C 209.122,470.336 212.122,461.003 214.5,451.5C 210.988,452.055 207.988,451.388 205.5,449.5C 208.636,440.091 211.97,430.757 215.5,421.5C 220.564,411.708 225.897,402.041 231.5,392.5C 209.006,391.503 186.339,391.169 163.5,391.5C 163.216,393.415 163.549,395.081 164.5,396.5C 165.462,403.412 165.795,410.412 165.5,417.5C 166.487,427.882 165.153,437.882 161.5,447.5C 158,450.753 154,453.253 149.5,455C 140.833,455.667 132.167,455.667 123.5,455C 118.822,453.324 114.989,450.491 112,446.5C 109.027,438.608 106.36,430.608 104,422.5C 102.163,418.819 99.3298,416.485 95.5,415.5C 85.924,411.049 76.2573,406.549 66.5,402C 61.0836,398.97 56.0836,395.47 51.5,391.5C 57.5,391.5 63.5,391.5 69.5,391.5C 79.5477,396.521 89.8811,401.021 100.5,405C 103.047,407.054 105.714,408.887 108.5,410.5C 113.963,418.636 117.463,427.636 119,437.5C 120.167,441.333 122.667,443.833 126.5,445C 133.167,445.667 139.833,445.667 146.5,445C 150.667,443.5 153.5,440.667 155,436.5C 155.826,424.659 155.659,412.993 154.5,401.5C 154.47,397.382 153.803,393.382 152.5,389.5C 210.822,387.802 269.156,386.469 327.5,385.5 Z"/></g>
<g><path style="opacity:1" fill="#5c5c6f" d="M 150.5,386.5 C 151.167,387.5 151.833,388.5 152.5,389.5C 153.803,393.382 154.47,397.382 154.5,401.5C 154.5,404.167 154.5,406.833 154.5,409.5C 139.174,410.109 123.841,410.442 108.5,410.5C 105.714,408.887 103.047,407.054 100.5,405C 89.8811,401.021 79.5477,396.521 69.5,391.5C 68.6935,390.272 67.6935,389.272 66.5,388.5C 94.6628,387.966 122.663,387.299 150.5,386.5 Z"/></g>
<g><path style="opacity:1" fill="#4c4451" d="M 231.5,392.5 C 209.167,392.5 186.833,392.5 164.5,392.5C 164.5,393.833 164.5,395.167 164.5,396.5C 163.549,395.081 163.216,393.415 163.5,391.5C 186.339,391.169 209.006,391.503 231.5,392.5 Z"/></g>
<g><path style="opacity:1" fill="#373843" d="M 244.5,391.5 C 249.762,391.195 254.928,391.529 260,392.5C 260.472,404.84 260.305,417.174 259.5,429.5C 247.814,429.832 236.148,429.499 224.5,428.5C 230.046,415.496 236.713,403.163 244.5,391.5 Z"/></g>
<g><path style="opacity:1" fill="#dfa09a" d="M 270.5,392.5 C 286.837,392.333 303.17,392.5 319.5,393C 322.409,394.406 324.409,396.572 325.5,399.5C 325.5,408.5 325.5,417.5 325.5,426.5C 307.148,425.773 288.815,424.773 270.5,423.5C 270.5,413.167 270.5,402.833 270.5,392.5 Z"/></g>
<g><path style="opacity:1" fill="#dc9d97" d="M 231.5,392.5 C 225.897,402.041 220.564,411.708 215.5,421.5C 199.031,419.581 182.364,418.248 165.5,417.5C 165.795,410.412 165.462,403.412 164.5,396.5C 164.5,395.167 164.5,393.833 164.5,392.5C 186.833,392.5 209.167,392.5 231.5,392.5 Z"/></g>
<g><path style="opacity:1" fill="#555567" d="M 154.5,401.5 C 155.659,412.993 155.826,424.659 155,436.5C 153.5,440.667 150.667,443.5 146.5,445C 139.833,445.667 133.167,445.667 126.5,445C 122.667,443.833 120.167,441.333 119,437.5C 117.463,427.636 113.963,418.636 108.5,410.5C 123.841,410.442 139.174,410.109 154.5,409.5C 154.5,406.833 154.5,404.167 154.5,401.5 Z"/></g>
<g><path style="opacity:1" fill="#e3625b" d="M 386.5,409.5 C 402.143,410.527 417.81,411.193 433.5,411.5C 429.45,425.389 428.117,439.389 429.5,453.5C 429.5,455.833 429.5,458.167 429.5,460.5C 429.5,461.5 429.5,462.5 429.5,463.5C 412.5,463.5 395.5,463.5 378.5,463.5C 378.5,456.5 378.5,449.5 378.5,442.5C 379.14,430.959 381.806,419.959 386.5,409.5 Z"/></g>
<g><path style="opacity:1" fill="#d4918a" d="M 165.5,417.5 C 182.364,418.248 199.031,419.581 215.5,421.5C 211.97,430.757 208.636,440.091 205.5,449.5C 204.662,449.842 204.328,450.508 204.5,451.5C 189.992,450.643 175.659,449.31 161.5,447.5C 165.153,437.882 166.487,427.882 165.5,417.5 Z"/></g>
<g><path style="opacity:1" fill="#d5918a" d="M 270.5,423.5 C 288.815,424.773 307.148,425.773 325.5,426.5C 325.667,437.172 325.5,447.839 325,458.5C 306.866,457.112 288.699,455.779 270.5,454.5C 270.5,444.167 270.5,433.833 270.5,423.5 Z"/></g>
<g><path style="opacity:1" fill="#cd8982" d="M 95.5,415.5 C 99.3298,416.485 102.163,418.819 104,422.5C 106.36,430.608 109.027,438.608 112,446.5C 114.989,450.491 118.822,453.324 123.5,455C 132.167,455.667 140.833,455.667 149.5,455C 154,453.253 158,450.753 161.5,447.5C 175.659,449.31 189.992,450.643 204.5,451.5C 202.821,456.252 201.154,460.918 199.5,465.5C 163.188,463.186 126.855,461.02 90.5,459C 86.3673,459.094 82.7006,458.26 79.5,456.5C 82.9345,446.964 87.4345,437.964 93,429.5C 93.6125,426.389 92.7791,423.723 90.5,421.5C 92.1563,419.54 93.823,417.54 95.5,415.5 Z"/></g>
<g><path style="opacity:1" fill="#32323f" d="M 439.5,446.5 C 439.84,453.884 440.673,461.217 442,468.5C 451.096,475.215 453.096,483.549 448,493.5C 445.531,495.652 442.698,497.152 439.5,498C 417.833,498.667 396.167,498.667 374.5,498C 363.678,493.557 360.178,485.724 364,474.5C 364.748,472.668 365.748,471.001 367,469.5C 366.516,462.104 366.683,454.771 367.5,447.5C 370.833,447.5 374.167,447.5 377.5,447.5C 377.5,453.167 377.5,458.833 377.5,464.5C 395.167,464.5 412.833,464.5 430.5,464.5C 430.768,462.901 430.434,461.568 429.5,460.5C 429.5,458.167 429.5,455.833 429.5,453.5C 429.5,451.167 429.5,448.833 429.5,446.5C 432.951,446.016 436.284,446.016 439.5,446.5 Z"/></g>
<g><path style="opacity:1" fill="#33323f" d="M 270.5,392.5 C 270.5,402.833 270.5,413.167 270.5,423.5C 270.5,433.833 270.5,444.167 270.5,454.5C 270.334,463.506 270.5,472.506 271,481.5C 271.785,483.286 272.951,484.786 274.5,486C 289.073,487.633 303.74,487.966 318.5,487C 321.913,485.923 324.413,483.756 326,480.5C 326.5,469.839 326.667,459.172 326.5,448.5C 329.833,448.5 333.167,448.5 336.5,448.5C 336.667,460.505 336.5,472.505 336,484.5C 333.296,491.873 328.13,496.373 320.5,498C 305.5,498.667 290.5,498.667 275.5,498C 271.654,496.914 268.32,495.081 265.5,492.5C 264.41,490.563 263.076,488.73 261.5,487C 261.833,486.667 262.167,486.333 262.5,486C 260.699,485.683 260.366,485.016 261.5,484C 260.684,482.077 260.017,480.077 259.5,478C 260.46,468.875 260.793,459.708 260.5,450.5C 263.518,450.296 266.518,449.963 269.5,449.5C 269.17,430.326 269.503,411.326 270.5,392.5 Z"/></g>
<g><path style="opacity:1" fill="#32323f" d="M 90.5,421.5 C 92.7791,423.723 93.6125,426.389 93,429.5C 87.4345,437.964 82.9345,446.964 79.5,456.5C 76.929,461.537 74.929,466.871 73.5,472.5C 71.4628,477.12 69.7961,481.953 68.5,487C 104.167,487.667 139.833,487.667 175.5,487C 181.374,486.063 186.374,483.563 190.5,479.5C 195.508,476.156 198.508,471.49 199.5,465.5C 201.154,460.918 202.821,456.252 204.5,451.5C 204.328,450.508 204.662,449.842 205.5,449.5C 207.988,451.388 210.988,452.055 214.5,451.5C 212.122,461.003 209.122,470.336 205.5,479.5C 201.05,484.887 196.383,489.22 191.5,492.5C 186.707,495.599 181.373,497.432 175.5,498C 136.416,498.988 97.4157,498.654 58.5,497C 56.3445,493.352 56.1779,489.519 58,485.5C 63.493,462.67 72.6596,441.503 85.5,422C 87.1341,421.506 88.8008,421.34 90.5,421.5 Z"/></g>
<g><path style="opacity:1" fill="#cb827c" d="M 79.5,456.5 C 82.7006,458.26 86.3673,459.094 90.5,459C 126.855,461.02 163.188,463.186 199.5,465.5C 198.508,471.49 195.508,476.156 190.5,479.5C 151.531,476.894 112.531,474.561 73.5,472.5C 74.929,466.871 76.929,461.537 79.5,456.5 Z"/></g>
<g><path style="opacity:1" fill="#7f464b" d="M 378.5,442.5 C 378.5,449.5 378.5,456.5 378.5,463.5C 395.5,463.5 412.5,463.5 429.5,463.5C 429.5,462.5 429.5,461.5 429.5,460.5C 430.434,461.568 430.768,462.901 430.5,464.5C 412.833,464.5 395.167,464.5 377.5,464.5C 377.5,458.833 377.5,453.167 377.5,447.5C 377.216,445.585 377.549,443.919 378.5,442.5 Z"/></g>
<g><path style="opacity:1" fill="#c77c75" d="M 73.5,472.5 C 112.531,474.561 151.531,476.894 190.5,479.5C 186.374,483.563 181.374,486.063 175.5,487C 139.833,487.667 104.167,487.667 68.5,487C 69.7961,481.953 71.4628,477.12 73.5,472.5 Z"/></g>
<g><path style="opacity:1" fill="#a4bdf1" d="M 400.5,474.5 C 398.559,478.718 396.892,483.051 395.5,487.5C 389.158,487.666 382.825,487.5 376.5,487C 372.315,482.741 372.648,478.741 377.5,475C 385.159,474.5 392.826,474.334 400.5,474.5 Z"/></g>
<g><path style="opacity:1" fill="#96afe1" d="M 400.5,474.5 C 410.506,474.334 420.506,474.5 430.5,475C 436.242,476.399 439.409,479.899 440,485.5C 439.5,486 439,486.5 438.5,487C 424.171,487.5 409.837,487.667 395.5,487.5C 396.892,483.051 398.559,478.718 400.5,474.5 Z"/></g>
<g><path style="opacity:1" fill="#c8827c" d="M 325.5,399.5 C 326.496,415.658 326.83,431.991 326.5,448.5C 326.667,459.172 326.5,469.839 326,480.5C 324.413,483.756 321.913,485.923 318.5,487C 303.74,487.966 289.073,487.633 274.5,486C 272.951,484.786 271.785,483.286 271,481.5C 270.5,472.506 270.334,463.506 270.5,454.5C 288.699,455.779 306.866,457.112 325,458.5C 325.5,447.839 325.667,437.172 325.5,426.5C 325.5,417.5 325.5,408.5 325.5,399.5 Z"/></g>
</svg>
