<?xml version="1.0" encoding="UTF-8"?>
<!DOCTYPE svg PUBLIC "-//W3C//DTD SVG 1.1//EN" "http://www.w3.org/Graphics/SVG/1.1/DTD/svg11.dtd">
<svg xmlns="http://www.w3.org/2000/svg" version="1.1" width="512px" height="512px" style="shape-rendering:geometricPrecision; text-rendering:geometricPrecision; image-rendering:optimizeQuality; fill-rule:evenodd; clip-rule:evenodd" xmlns:xlink="http://www.w3.org/1999/xlink">
<g><path style="opacity:1" fill="#dfe6e6" d="M 496.5,101.5 C 488.254,99.8482 479.921,98.5148 471.5,97.5C 470.32,87.8585 469.32,78.1918 468.5,68.5C 474.093,55.6574 481.926,44.3241 492,34.5C 493.892,43.0773 495.225,51.744 496,60.5C 496.5,74.1626 496.667,87.8293 496.5,101.5 Z"/></g>
<g><path style="opacity:1" fill="#e7bc71" d="M 282.5,51.5 C 239.83,51.4809 197.163,51.8142 154.5,52.5C 164.849,33.8205 180.849,25.3205 202.5,27C 223.281,14.0228 243.614,14.6895 263.5,29C 271.135,35.4628 277.468,42.9628 282.5,51.5 Z"/></g>
<g><path style="opacity:1" fill="#e7ba6a" d="M 282.5,51.5 C 285.868,55.5694 288.201,60.2361 289.5,65.5C 254.903,64.5129 220.236,64.5129 185.5,65.5C 173.148,65.499 161.148,64.8324 149.5,63.5C 150.382,59.4069 152.049,55.7403 154.5,52.5C 197.163,51.8142 239.83,51.4809 282.5,51.5 Z"/></g>
<g><path style="opacity:1" fill="#e7b564" d="M 149.5,63.5 C 161.148,64.8324 173.148,65.499 185.5,65.5C 220.236,64.5129 254.903,64.5129 289.5,65.5C 293.011,74.3773 294.677,83.7106 294.5,93.5C 265.899,92.3595 237.232,92.3595 208.5,93.5C 205.344,87.0268 203.01,80.3601 201.5,73.5C 201.762,72.0222 201.429,70.6888 200.5,69.5C 190.677,75.3186 183.344,83.3186 178.5,93.5C 166.833,93.5 155.167,93.5 143.5,93.5C 143.5,92.5 143.5,91.5 143.5,90.5C 143.988,81.0498 145.988,72.0498 149.5,63.5 Z"/></g>
<g><path style="opacity:1" fill="#d4716a" d="M 201.5,73.5 C 203.01,80.3601 205.344,87.0268 208.5,93.5C 214.377,105.225 222.044,115.725 231.5,125C 232.094,125.464 232.761,125.631 233.5,125.5C 238.018,130.179 243.018,134.346 248.5,138C 250.539,139.926 252.206,142.093 253.5,144.5C 252.872,151.052 250.872,157.052 247.5,162.5C 243.719,152.719 237.386,145.053 228.5,139.5C 227.751,137.754 226.417,136.754 224.5,136.5C 221.61,137.685 218.776,137.685 216,136.5C 214.832,133.107 215.666,130.441 218.5,128.5C 214.306,122.77 210.639,116.77 207.5,110.5C 205.384,103.928 203.551,97.2609 202,90.5C 201.501,84.8431 201.334,79.1764 201.5,73.5 Z"/></g>
<g><path style="opacity:1" fill="#e6c8c1" d="M 201.5,73.5 C 201.334,79.1764 201.501,84.8431 202,90.5C 203.551,97.2609 205.384,103.928 207.5,110.5C 202.376,111.829 196.876,112.495 191,112.5C 185.089,112.479 179.255,112.146 173.5,111.5C 174.357,105.265 176.023,99.2651 178.5,93.5C 183.344,83.3186 190.677,75.3186 200.5,69.5C 201.429,70.6888 201.762,72.0222 201.5,73.5 Z"/></g>
<g><path style="opacity:1" fill="#d8e0e6" d="M 471.5,97.5 C 479.921,98.5148 488.254,99.8482 496.5,101.5C 495.935,111.841 495.269,122.174 494.5,132.5C 486.79,131.826 479.123,130.826 471.5,129.5C 471.737,130.791 471.404,131.791 470.5,132.5C 471.361,120.856 471.695,109.19 471.5,97.5 Z"/></g>
<g><path style="opacity:1" fill="#e6ae58" d="M 294.5,93.5 C 294.572,101.725 293.906,109.891 292.5,118C 292.725,120.528 293.058,123.028 293.5,125.5C 273.5,125.5 253.5,125.5 233.5,125.5C 232.761,125.631 232.094,125.464 231.5,125C 222.044,115.725 214.377,105.225 208.5,93.5C 237.232,92.3595 265.899,92.3595 294.5,93.5 Z"/></g>
<g><path style="opacity:1" fill="#e7ae58" d="M 143.5,90.5 C 143.5,91.5 143.5,92.5 143.5,93.5C 155.167,93.5 166.833,93.5 178.5,93.5C 176.023,99.2651 174.357,105.265 173.5,111.5C 172.671,116.453 172.337,121.453 172.5,126.5C 161.833,126.5 151.167,126.5 140.5,126.5C 140.5,125.5 140.5,124.5 140.5,123.5C 141.153,112.328 142.153,101.328 143.5,90.5 Z"/></g>
<g><path style="opacity:1" fill="#6f89a3" d="M 468.5,68.5 C 469.32,78.1918 470.32,87.8585 471.5,97.5C 471.695,109.19 471.361,120.856 470.5,132.5C 469.218,142.242 467.551,151.908 465.5,161.5C 457.621,160.578 449.954,158.912 442.5,156.5C 446.989,130.209 453.823,104.543 463,79.5C 464.879,75.7415 466.713,72.0748 468.5,68.5 Z"/></g>
<g><path style="opacity:1" fill="#e7a74f" d="M 233.5,125.5 C 253.5,125.5 273.5,125.5 293.5,125.5C 294.437,130.81 296.271,135.81 299,140.5C 303.097,145.716 306.931,151.049 310.5,156.5C 293.898,155.385 277.231,155.385 260.5,156.5C 258.67,152.169 256.337,148.169 253.5,144.5C 252.206,142.093 250.539,139.926 248.5,138C 243.018,134.346 238.018,130.179 233.5,125.5 Z"/></g>
<g><path style="opacity:1" fill="#d2e0e0" d="M 494.5,132.5 C 492.263,147.488 489.93,162.488 487.5,177.5C 480.187,176.288 472.854,175.122 465.5,174C 464.663,172.989 464.33,171.822 464.5,170.5C 464.508,167.455 464.841,164.455 465.5,161.5C 467.551,151.908 469.218,142.242 470.5,132.5C 471.404,131.791 471.737,130.791 471.5,129.5C 479.123,130.826 486.79,131.826 494.5,132.5 Z"/></g>
<g><path style="opacity:1" fill="#e6bbb2" d="M 207.5,110.5 C 210.639,116.77 214.306,122.77 218.5,128.5C 215.666,130.441 214.832,133.107 216,136.5C 218.776,137.685 221.61,137.685 224.5,136.5C 226.417,136.754 227.751,137.754 228.5,139.5C 210.976,139.838 193.643,140.838 176.5,142.5C 174.565,137.427 173.232,132.094 172.5,126.5C 172.337,121.453 172.671,116.453 173.5,111.5C 179.255,112.146 185.089,112.479 191,112.5C 196.876,112.495 202.376,111.829 207.5,110.5 Z"/></g>
<g><path style="opacity:1" fill="#d4736d" d="M 190.5,127.5 C 194.24,127.241 197.906,127.574 201.5,128.5C 203.938,130.656 204.105,132.989 202,135.5C 198.591,136.622 195.091,136.789 191.5,136C 187.986,133.468 187.653,130.635 190.5,127.5 Z"/></g>
<g><path style="opacity:1" fill="#e6b2a9" d="M 228.5,139.5 C 237.386,145.053 243.719,152.719 247.5,162.5C 246.692,165.45 245.358,168.117 243.5,170.5C 223.5,170.5 203.5,170.5 183.5,170.5C 183.167,170.5 182.833,170.5 182.5,170.5C 182.13,165.578 181.13,160.911 179.5,156.5C 178.815,151.761 177.815,147.095 176.5,142.5C 193.643,140.838 210.976,139.838 228.5,139.5 Z"/></g>
<g><path style="opacity:1" fill="#e7a84d" d="M 140.5,123.5 C 140.5,124.5 140.5,125.5 140.5,126.5C 151.167,126.5 161.833,126.5 172.5,126.5C 173.232,132.094 174.565,137.427 176.5,142.5C 177.815,147.095 178.815,151.761 179.5,156.5C 158.34,157.497 137.007,157.831 115.5,157.5C 120.669,147.828 127.502,139.495 136,132.5C 137.546,129.408 139.046,126.408 140.5,123.5 Z"/></g>
<g><path style="opacity:1" fill="#c16438" d="M 253.5,144.5 C 256.337,148.169 258.67,152.169 260.5,156.5C 262.544,166.056 264.044,175.723 265,185.5C 267.048,194.038 271.882,200.371 279.5,204.5C 279.167,205.167 278.833,205.833 278.5,206.5C 277.363,207.789 276.03,208.789 274.5,209.5C 262.499,207.5 250.499,205.5 238.5,203.5C 238.5,201.167 238.5,198.833 238.5,196.5C 238.5,190.167 238.5,183.833 238.5,177.5C 239.921,174.991 241.588,172.657 243.5,170.5C 245.358,168.117 246.692,165.45 247.5,162.5C 250.872,157.052 252.872,151.052 253.5,144.5 Z"/></g>
<g><path style="opacity:1" fill="#e6a144" d="M 310.5,156.5 C 318.173,165.858 320.84,176.525 318.5,188.5C 302.977,188 289.977,193.333 279.5,204.5C 271.882,200.371 267.048,194.038 265,185.5C 264.044,175.723 262.544,166.056 260.5,156.5C 277.231,155.385 293.898,155.385 310.5,156.5 Z"/></g>
<g><path style="opacity:1" fill="#e6a043" d="M 179.5,156.5 C 181.13,160.911 182.13,165.578 182.5,170.5C 182.616,185.826 177.616,199.159 167.5,210.5C 154.351,220.919 141.017,221.086 127.5,211C 122.646,206.741 118.646,201.908 115.5,196.5C 115.408,194.152 114.408,192.486 112.5,191.5C 109.274,179.76 110.274,168.427 115.5,157.5C 137.007,157.831 158.34,157.497 179.5,156.5 Z"/></g>
<g><path style="opacity:1" fill="#c16438" d="M 182.5,170.5 C 182.833,170.5 183.167,170.5 183.5,170.5C 186.821,175.486 190.821,179.82 195.5,183.5C 195.5,190.5 195.5,197.5 195.5,204.5C 194.508,204.328 193.842,204.662 193.5,205.5C 184.705,206.532 176.038,208.199 167.5,210.5C 177.616,199.159 182.616,185.826 182.5,170.5 Z"/></g>
<g><path style="opacity:1" fill="#e6a69b" d="M 183.5,170.5 C 203.5,170.5 223.5,170.5 243.5,170.5C 241.588,172.657 239.921,174.991 238.5,177.5C 233.626,182.541 228.292,187.041 222.5,191C 217.234,194.256 211.901,194.256 206.5,191C 202.678,188.67 199.012,186.17 195.5,183.5C 190.821,179.82 186.821,175.486 183.5,170.5 Z"/></g>
<g><path style="opacity:1" fill="#c7d7dd" d="M 464.5,170.5 C 464.33,171.822 464.663,172.989 465.5,174C 472.854,175.122 480.187,176.288 487.5,177.5C 480.321,220.727 471.988,263.727 462.5,306.5C 456.811,305.885 451.144,305.052 445.5,304C 443.563,303.878 442.23,303.045 441.5,301.5C 442.167,296.5 442.833,291.5 443.5,286.5C 450.517,247.721 457.517,209.055 464.5,170.5 Z"/></g>
<g><path style="opacity:1" fill="#d3706a" d="M 238.5,177.5 C 238.5,183.833 238.5,190.167 238.5,196.5C 226.108,205.965 212.108,211.299 196.5,212.5C 196.806,209.615 196.473,206.948 195.5,204.5C 195.5,197.5 195.5,190.5 195.5,183.5C 199.012,186.17 202.678,188.67 206.5,191C 211.901,194.256 217.234,194.256 222.5,191C 228.292,187.041 233.626,182.541 238.5,177.5 Z"/></g>
<g><path style="opacity:1" fill="#d7e1e2" d="M 318.5,188.5 C 323.667,188.709 328.667,189.709 333.5,191.5C 335.989,208.36 329.322,219.86 313.5,226C 301.514,228.45 291.68,224.95 284,215.5C 282.128,212.404 280.295,209.404 278.5,206.5C 278.833,205.833 279.167,205.167 279.5,204.5C 289.977,193.333 302.977,188 318.5,188.5 Z"/></g>
<g><path style="opacity:1" fill="#dae3e5" d="M 112.5,191.5 C 114.408,192.486 115.408,194.152 115.5,196.5C 116.605,201.375 118.272,206.042 120.5,210.5C 117.38,226.279 107.713,234.613 91.5,235.5C 84.9821,235.383 79.1487,233.383 74,229.5C 73.6174,230.056 73.1174,230.389 72.5,230.5C 77.9538,209.379 91.2871,196.379 112.5,191.5 Z"/></g>
<g><path style="opacity:1" fill="#c7d7de" d="M 333.5,191.5 C 347.748,199.996 354.081,212.662 352.5,229.5C 330.889,254.889 305.222,259.889 275.5,244.5C 272.775,235.358 271.942,226.025 273,216.5C 273.45,214.481 274.283,212.648 275.5,211C 274.944,210.617 274.611,210.117 274.5,209.5C 276.03,208.789 277.363,207.789 278.5,206.5C 280.295,209.404 282.128,212.404 284,215.5C 291.68,224.95 301.514,228.45 313.5,226C 329.322,219.86 335.989,208.36 333.5,191.5 Z"/></g>
<g><path style="opacity:1" fill="#e5bdb7" d="M 238.5,196.5 C 238.5,198.833 238.5,201.167 238.5,203.5C 238.666,208.179 238.499,212.845 238,217.5C 237.528,221.11 236.028,224.11 233.5,226.5C 222.5,225.167 211.5,225.167 200.5,226.5C 199.442,225.4 198.608,224.066 198,222.5C 196.907,216.467 195.407,210.8 193.5,205.5C 193.842,204.662 194.508,204.328 195.5,204.5C 196.473,206.948 196.806,209.615 196.5,212.5C 212.108,211.299 226.108,205.965 238.5,196.5 Z"/></g>
<g><path style="opacity:1" fill="#c4d5dc" d="M 120.5,210.5 C 128.639,224.742 140.972,232.075 157.5,232.5C 157.569,237.613 156.903,242.613 155.5,247.5C 154.726,250.514 153.393,253.181 151.5,255.5C 142.204,250.457 132.537,246.291 122.5,243C 113.124,240.504 104.124,241.504 95.5,246C 89.6164,250.057 83.6164,253.89 77.5,257.5C 72.5943,249.183 70.9276,240.183 72.5,230.5C 73.1174,230.389 73.6174,230.056 74,229.5C 79.1487,233.383 84.9821,235.383 91.5,235.5C 107.713,234.613 117.38,226.279 120.5,210.5 Z"/></g>
<g><path style="opacity:1" fill="#647f98" d="M 442.5,156.5 C 449.954,158.912 457.621,160.578 465.5,161.5C 464.841,164.455 464.508,167.455 464.5,170.5C 457.517,209.055 450.517,247.721 443.5,286.5C 435.879,284.909 428.212,283.576 420.5,282.5C 426.533,240.301 433.867,198.301 442.5,156.5 Z"/></g>
<g><path style="opacity:1" fill="#708aa4" d="M 115.5,196.5 C 118.646,201.908 122.646,206.741 127.5,211C 141.017,221.086 154.351,220.919 167.5,210.5C 176.038,208.199 184.705,206.532 193.5,205.5C 195.407,210.8 196.907,216.467 198,222.5C 198.608,224.066 199.442,225.4 200.5,226.5C 207.167,234.493 215.501,236.659 225.5,233C 228.936,231.726 231.603,229.559 233.5,226.5C 236.028,224.11 237.528,221.11 238,217.5C 238.499,212.845 238.666,208.179 238.5,203.5C 250.499,205.5 262.499,207.5 274.5,209.5C 274.611,210.117 274.944,210.617 275.5,211C 274.283,212.648 273.45,214.481 273,216.5C 271.942,226.025 272.775,235.358 275.5,244.5C 275.833,245.833 276.167,247.167 276.5,248.5C 236.169,247.938 195.836,247.605 155.5,247.5C 156.903,242.613 157.569,237.613 157.5,232.5C 140.972,232.075 128.639,224.742 120.5,210.5C 118.272,206.042 116.605,201.375 115.5,196.5 Z"/></g>
<g><path style="opacity:1" fill="#e5b0a6" d="M 233.5,226.5 C 231.603,229.559 228.936,231.726 225.5,233C 215.501,236.659 207.167,234.493 200.5,226.5C 211.5,225.167 222.5,225.167 233.5,226.5 Z"/></g>
<g><path style="opacity:1" fill="#b8cdd8" d="M 352.5,229.5 C 352.739,235.565 352.239,241.565 351,247.5C 349.5,253 346,256.5 340.5,258C 332.348,258.806 324.348,260.306 316.5,262.5C 310.294,264.902 303.961,266.902 297.5,268.5C 291.304,267.824 286.471,264.824 283,259.5C 280.807,255.77 278.64,252.103 276.5,248.5C 276.167,247.167 275.833,245.833 275.5,244.5C 305.222,259.889 330.889,254.889 352.5,229.5 Z"/></g>
<g><path style="opacity:1" fill="#69839d" d="M 155.5,247.5 C 195.836,247.605 236.169,247.938 276.5,248.5C 278.64,252.103 280.807,255.77 283,259.5C 286.471,264.824 291.304,267.824 297.5,268.5C 297.5,275.167 297.5,281.833 297.5,288.5C 293.963,288.689 290.63,288.023 287.5,286.5C 283.289,284.469 279.455,281.803 276,278.5C 273.083,274.334 270.416,270.001 268,265.5C 263.298,270.37 258.465,275.037 253.5,279.5C 248.684,278.674 243.684,278.174 238.5,278C 211.477,277.816 184.477,277.316 157.5,276.5C 156.584,276.543 155.917,276.876 155.5,277.5C 149.5,273.833 143.5,270.167 137.5,266.5C 131.685,263.091 125.685,259.925 119.5,257C 113.235,255.516 106.902,255.182 100.5,256C 94.6299,259.102 88.6299,261.935 82.5,264.5C 82.1667,264.5 81.8333,264.5 81.5,264.5C 80.1389,262.15 78.8056,259.816 77.5,257.5C 83.6164,253.89 89.6164,250.057 95.5,246C 104.124,241.504 113.124,240.504 122.5,243C 132.537,246.291 142.204,250.457 151.5,255.5C 153.393,253.181 154.726,250.514 155.5,247.5 Z"/></g>
<g><path style="opacity:1" fill="#dee6e6" d="M 137.5,266.5 C 145.555,282.708 143.888,297.708 132.5,311.5C 125.185,306.509 117.185,303.176 108.5,301.5C 105.741,301.542 103.075,302.042 100.5,303C 95.9421,305.73 91.2754,308.23 86.5,310.5C 79.3934,304.222 75.7267,296.222 75.5,286.5C 76.2433,278.606 78.5766,271.272 82.5,264.5C 88.6299,261.935 94.6299,259.102 100.5,256C 106.902,255.182 113.235,255.516 119.5,257C 125.685,259.925 131.685,263.091 137.5,266.5 Z"/></g>
<g><path style="opacity:1" fill="#d3716b" d="M 316.5,262.5 C 314.276,283.462 313.943,304.462 315.5,325.5C 308.636,329.027 302.636,333.694 297.5,339.5C 288.994,347.514 283.327,357.181 280.5,368.5C 278.833,365.833 277.167,363.167 275.5,360.5C 275.948,354.469 276.615,348.469 277.5,342.5C 289.755,326.641 296.422,308.641 297.5,288.5C 297.5,281.833 297.5,275.167 297.5,268.5C 303.961,266.902 310.294,264.902 316.5,262.5 Z"/></g>
<g><path style="opacity:1" fill="#d3dfe2" d="M 81.5,264.5 C 81.8333,264.5 82.1667,264.5 82.5,264.5C 78.5766,271.272 76.2433,278.606 75.5,286.5C 75.7267,296.222 79.3934,304.222 86.5,310.5C 83.319,312.592 80.319,314.925 77.5,317.5C 68.7622,323.362 61.0956,330.362 54.5,338.5C 52.1455,340.788 49.4788,340.955 46.5,339C 36.0909,333.807 26.4243,327.641 17.5,320.5C 28.6251,304.875 41.9584,291.375 57.5,280C 65.4058,274.576 73.4058,269.41 81.5,264.5 Z"/></g>
<g><path style="opacity:1" fill="#d3dfe1" d="M 137.5,266.5 C 143.5,270.167 149.5,273.833 155.5,277.5C 172.235,288.733 186.569,302.567 198.5,319C 188.811,327.85 177.811,334.683 165.5,339.5C 160.109,334.613 154.776,329.446 149.5,324C 147.266,322.25 144.932,320.75 142.5,319.5C 139.455,316.453 136.122,313.787 132.5,311.5C 143.888,297.708 145.555,282.708 137.5,266.5 Z"/></g>
<g><path style="opacity:1" fill="#d9e3e4" d="M 287.5,286.5 C 289.997,300.843 285.997,313.01 275.5,323C 261.041,332.609 246.374,332.942 231.5,324C 222.985,316.803 218.318,307.636 217.5,296.5C 226.324,298.607 234.324,296.773 241.5,291C 245.395,286.935 249.395,283.102 253.5,279.5C 258.465,275.037 263.298,270.37 268,265.5C 270.416,270.001 273.083,274.334 276,278.5C 279.455,281.803 283.289,284.469 287.5,286.5 Z"/></g>
<g><path style="opacity:1" fill="#6f89a3" d="M 132.5,311.5 C 136.122,313.787 139.455,316.453 142.5,319.5C 141.089,339.746 130.256,351.079 110,353.5C 88.8211,350.794 77.9878,338.794 77.5,317.5C 80.319,314.925 83.319,312.592 86.5,310.5C 91.2754,308.23 95.9421,305.73 100.5,303C 103.075,302.042 105.741,301.542 108.5,301.5C 117.185,303.176 125.185,306.509 132.5,311.5 Z"/></g>
<g><path style="opacity:1" fill="#b8cdd7" d="M 441.5,301.5 C 442.23,303.045 443.563,303.878 445.5,304C 451.144,305.052 456.811,305.885 462.5,306.5C 457.864,327.699 452.864,348.699 447.5,369.5C 443.015,364.63 438.515,359.63 434,354.5C 434.762,336.491 437.262,318.824 441.5,301.5 Z"/></g>
<g><path style="opacity:1" fill="#68839d" d="M 77.5,317.5 C 77.9878,338.794 88.8211,350.794 110,353.5C 130.256,351.079 141.089,339.746 142.5,319.5C 144.932,320.75 147.266,322.25 149.5,324C 154.776,329.446 160.109,334.613 165.5,339.5C 152.046,369.232 129.046,381.732 96.5,377C 83.2406,373.391 72.4073,366.224 64,355.5C 60.7915,349.739 57.6248,344.072 54.5,338.5C 61.0956,330.362 68.7622,323.362 77.5,317.5 Z"/></g>
<g><path style="opacity:1" fill="#c5d5dc" d="M 217.5,296.5 C 218.318,307.636 222.985,316.803 231.5,324C 246.374,332.942 261.041,332.609 275.5,323C 285.997,313.01 289.997,300.843 287.5,286.5C 290.63,288.023 293.963,288.689 297.5,288.5C 296.422,308.641 289.755,326.641 277.5,342.5C 268.122,355.384 257.456,367.217 245.5,378C 235.318,386.396 224.984,386.563 214.5,378.5C 215.493,373.89 216.16,369.223 216.5,364.5C 217.458,350.511 217.625,336.511 217,322.5C 212.399,308.559 204.566,296.725 193.5,287C 201.299,290.389 209.299,293.556 217.5,296.5 Z"/></g>
<g><path style="opacity:1" fill="#627c96" d="M 253.5,279.5 C 249.395,283.102 245.395,286.935 241.5,291C 234.324,296.773 226.324,298.607 217.5,296.5C 209.299,293.556 201.299,290.389 193.5,287C 204.566,296.725 212.399,308.559 217,322.5C 217.625,336.511 217.458,350.511 216.5,364.5C 215.596,365.209 215.263,366.209 215.5,367.5C 210.637,367.819 205.97,367.486 201.5,366.5C 202.505,354.516 202.672,342.516 202,330.5C 191.857,338.492 180.69,344.826 168.5,349.5C 168.341,364.66 166.008,379.327 161.5,393.5C 161.631,392.761 161.464,392.094 161,391.5C 124.987,414.689 89.6536,413.689 55,388.5C 54.6012,388.728 54.4346,389.062 54.5,389.5C 51.0249,376.875 49.3583,363.875 49.5,350.5C 36.8372,346.336 25.1706,340.336 14.5,332.5C 14.0339,328.018 15.0339,324.018 17.5,320.5C 26.4243,327.641 36.0909,333.807 46.5,339C 49.4788,340.955 52.1455,340.788 54.5,338.5C 57.6248,344.072 60.7915,349.739 64,355.5C 72.4073,366.224 83.2406,373.391 96.5,377C 129.046,381.732 152.046,369.232 165.5,339.5C 177.811,334.683 188.811,327.85 198.5,319C 186.569,302.567 172.235,288.733 155.5,277.5C 155.917,276.876 156.584,276.543 157.5,276.5C 184.477,277.316 211.477,277.816 238.5,278C 243.684,278.174 248.684,278.674 253.5,279.5 Z"/></g>
<g><path style="opacity:1" fill="#c5d6dd" d="M 201.5,366.5 C 199.413,382.848 195.413,398.848 189.5,414.5C 173.752,423.032 157.086,429.365 139.5,433.5C 138.584,433.457 137.917,433.124 137.5,432.5C 149.282,421.957 157.282,408.957 161.5,393.5C 166.008,379.327 168.341,364.66 168.5,349.5C 180.69,344.826 191.857,338.492 202,330.5C 202.672,342.516 202.505,354.516 201.5,366.5 Z"/></g>
<g><path style="opacity:1" fill="#c5d6dd" d="M 14.5,332.5 C 25.1706,340.336 36.8372,346.336 49.5,350.5C 49.3583,363.875 51.0249,376.875 54.5,389.5C 58.9808,406.136 67.3141,420.469 79.5,432.5C 61.1316,429.751 43.965,423.085 28,412.5C 27.6012,412.728 27.4346,413.062 27.5,413.5C 21.6641,399.832 17.8308,385.498 16,370.5C 14.7392,357.866 14.2392,345.199 14.5,332.5 Z"/></g>
<g><path style="opacity:1" fill="#e7ada3" d="M 315.5,325.5 C 317.221,335.101 319.221,344.768 321.5,354.5C 316.543,357.623 312.376,361.623 309,366.5C 304.966,372.571 301.466,378.904 298.5,385.5C 297.504,370.342 297.17,355.009 297.5,339.5C 302.636,333.694 308.636,329.027 315.5,325.5 Z"/></g>
<g><path style="opacity:1" fill="#59728b" d="M 420.5,282.5 C 428.212,283.576 435.879,284.909 443.5,286.5C 442.833,291.5 442.167,296.5 441.5,301.5C 437.262,318.824 434.762,336.491 434,354.5C 438.515,359.63 443.015,364.63 447.5,369.5C 446.967,373.965 445.967,378.298 444.5,382.5C 444.565,382.938 444.399,383.272 444,383.5C 440.021,380.762 435.855,378.429 431.5,376.5C 429.883,375.028 427.883,374.361 425.5,374.5C 420.859,375.231 416.193,375.564 411.5,375.5C 413.401,344.394 416.401,313.394 420.5,282.5 Z"/></g>
<g><path style="opacity:1" fill="#e7b9b1" d="M 297.5,339.5 C 297.17,355.009 297.504,370.342 298.5,385.5C 298.088,387.887 297.088,389.887 295.5,391.5C 289.293,384.625 284.293,376.959 280.5,368.5C 283.327,357.181 288.994,347.514 297.5,339.5 Z"/></g>
<g><path style="opacity:1" fill="#537185" d="M 277.5,342.5 C 276.615,348.469 275.948,354.469 275.5,360.5C 275.675,362.621 275.341,364.621 274.5,366.5C 265.114,379.716 253.114,389.883 238.5,397C 234.864,398.268 231.197,399.434 227.5,400.5C 222.56,399.131 217.727,397.464 213,395.5C 212.5,395.833 212,396.167 211.5,396.5C 209.319,404.891 206.986,413.225 204.5,421.5C 199.609,418.887 194.609,416.554 189.5,414.5C 195.413,398.848 199.413,382.848 201.5,366.5C 205.97,367.486 210.637,367.819 215.5,367.5C 215.263,366.209 215.596,365.209 216.5,364.5C 216.16,369.223 215.493,373.89 214.5,378.5C 224.984,386.563 235.318,386.396 245.5,378C 257.456,367.217 268.122,355.384 277.5,342.5 Z"/></g>
<g><path style="opacity:1" fill="#e6a448" d="M 431.5,376.5 C 430.427,377.251 430.26,378.251 431,379.5C 436.332,391.336 441.165,403.336 445.5,415.5C 444.167,415.5 442.833,415.5 441.5,415.5C 441.088,407.089 436.754,402.089 428.5,400.5C 425.311,400.142 422.311,399.475 419.5,398.5C 416.219,390.939 413.219,383.272 410.5,375.5C 410.833,375.5 411.167,375.5 411.5,375.5C 416.193,375.564 420.859,375.231 425.5,374.5C 427.883,374.361 429.883,375.028 431.5,376.5 Z"/></g>
<g><path style="opacity:1" fill="#e6953e" d="M 410.5,375.5 C 413.219,383.272 416.219,390.939 419.5,398.5C 414.968,398.182 410.634,398.515 406.5,399.5C 403.891,400.443 401.891,402.11 400.5,404.5C 396.5,403.5 392.5,402.5 388.5,401.5C 384.558,400.41 380.891,398.743 377.5,396.5C 378.329,392.514 379.163,388.514 380,384.5C 381.122,382.376 382.622,380.543 384.5,379C 393.113,377.505 401.78,376.338 410.5,375.5 Z"/></g>
<g><path style="opacity:1" fill="#d7e2e3" d="M 321.5,354.5 C 331.018,368.25 343.018,379.25 357.5,387.5C 354.179,400.323 346.179,408.823 333.5,413C 322.9,415.151 313.234,413.151 304.5,407C 300.886,403.558 297.552,400.058 294.5,396.5C 295.038,394.883 295.371,393.216 295.5,391.5C 297.088,389.887 298.088,387.887 298.5,385.5C 301.466,378.904 304.966,372.571 309,366.5C 312.376,361.623 316.543,357.623 321.5,354.5 Z"/></g>
<g><path style="opacity:1" fill="#e6ae4f" d="M 431.5,376.5 C 435.855,378.429 440.021,380.762 444,383.5C 444.399,383.272 444.565,382.938 444.5,382.5C 451.279,386.106 457.945,389.939 464.5,394C 467.766,396.536 469.1,399.869 468.5,404C 468.305,409.342 467.305,414.509 465.5,419.5C 458.853,418.037 452.186,416.704 445.5,415.5C 441.165,403.336 436.332,391.336 431,379.5C 430.26,378.251 430.427,377.251 431.5,376.5 Z"/></g>
<g><path style="opacity:1" fill="#c9d7de" d="M 357.5,387.5 C 363.899,391.032 370.566,394.032 377.5,396.5C 380.891,398.743 384.558,400.41 388.5,401.5C 387.504,401.414 386.671,401.748 386,402.5C 379.442,416.057 369.276,425.891 355.5,432C 346.982,435.281 338.316,437.448 329.5,438.5C 316.928,435.146 305.095,430.146 294,423.5C 292.101,420.626 291.267,417.459 291.5,414C 291.912,408.025 292.912,402.191 294.5,396.5C 297.552,400.058 300.886,403.558 304.5,407C 313.234,413.151 322.9,415.151 333.5,413C 346.179,408.823 354.179,400.323 357.5,387.5 Z"/></g>
<g><path style="opacity:1" fill="#bed1d9" d="M 274.5,366.5 C 274.162,374.884 273.329,383.217 272,391.5C 270.45,396.21 267.617,399.876 263.5,402.5C 254.274,411.781 243.94,419.615 232.5,426C 228.695,426.961 224.862,427.794 221,428.5C 215.134,426.811 209.634,424.478 204.5,421.5C 206.986,413.225 209.319,404.891 211.5,396.5C 212,396.167 212.5,395.833 213,395.5C 217.727,397.464 222.56,399.131 227.5,400.5C 231.197,399.434 234.864,398.268 238.5,397C 253.114,389.883 265.114,379.716 274.5,366.5 Z"/></g>
<g><path style="opacity:1" fill="#e5beb6" d="M 406.5,399.5 C 409.167,399.5 411.833,399.5 414.5,399.5C 414.5,417.833 414.5,436.167 414.5,454.5C 409.141,453.997 403.807,453.33 398.5,452.5C 396.086,451.089 394.419,449.089 393.5,446.5C 394.329,432.19 396.663,418.19 400.5,404.5C 401.891,402.11 403.891,400.443 406.5,399.5 Z"/></g>
<g><path style="opacity:1" fill="#e6b0a7" d="M 406.5,399.5 C 410.634,398.515 414.968,398.182 419.5,398.5C 422.311,399.475 425.311,400.142 428.5,400.5C 428.5,418.5 428.5,436.5 428.5,454.5C 427.07,455.537 425.403,456.204 423.5,456.5C 420.5,455.833 417.5,455.167 414.5,454.5C 414.5,436.167 414.5,417.833 414.5,399.5C 411.833,399.5 409.167,399.5 406.5,399.5 Z"/></g>
<g><path style="opacity:1" fill="#e7a69b" d="M 428.5,400.5 C 436.754,402.089 441.088,407.089 441.5,415.5C 439.32,426.89 436.82,438.223 434,449.5C 432.945,452.056 431.112,453.723 428.5,454.5C 428.5,436.5 428.5,418.5 428.5,400.5 Z"/></g>
<g><path style="opacity:1" fill="#bacdd9" d="M 79.5,432.5 C 86.7594,438.05 94.5927,442.716 103,446.5C 103.5,460.163 103.667,473.829 103.5,487.5C 101.901,487.768 100.568,487.434 99.5,486.5C 100.5,486.5 101.5,486.5 102.5,486.5C 102.5,477.5 102.5,468.5 102.5,459.5C 83.3841,458.054 64.7174,454.387 46.5,448.5C 38.0507,438.033 31.7174,426.366 27.5,413.5C 27.4346,413.062 27.6012,412.728 28,412.5C 43.965,423.085 61.1316,429.751 79.5,432.5 Z"/></g>
<g><path style="opacity:1" fill="#bacdd9" d="M 189.5,414.5 C 184.485,427.48 177.485,439.146 168.5,449.5C 150.914,455.017 132.914,458.35 114.5,459.5C 114.5,454.833 114.5,450.167 114.5,445.5C 123.232,442.97 130.898,438.636 137.5,432.5C 137.917,433.124 138.584,433.457 139.5,433.5C 157.086,429.365 173.752,423.032 189.5,414.5 Z"/></g>
<g><path style="opacity:1" fill="#627d96" d="M 388.5,401.5 C 392.5,402.5 396.5,403.5 400.5,404.5C 396.663,418.19 394.329,432.19 393.5,446.5C 371.788,446.731 350.454,444.065 329.5,438.5C 338.316,437.448 346.982,435.281 355.5,432C 369.276,425.891 379.442,416.057 386,402.5C 386.671,401.748 387.504,401.414 388.5,401.5 Z"/></g>
<g><path style="opacity:1" fill="#59748c" d="M 161.5,393.5 C 157.282,408.957 149.282,421.957 137.5,432.5C 130.898,438.636 123.232,442.97 114.5,445.5C 114.5,450.167 114.5,454.833 114.5,459.5C 114.5,468.833 114.5,478.167 114.5,487.5C 110.8,488.758 107.134,488.758 103.5,487.5C 103.667,473.829 103.5,460.163 103,446.5C 94.5927,442.716 86.7594,438.05 79.5,432.5C 67.3141,420.469 58.9808,406.136 54.5,389.5C 54.4346,389.062 54.6012,388.728 55,388.5C 89.6536,413.689 124.987,414.689 161,391.5C 161.464,392.094 161.631,392.761 161.5,393.5 Z"/></g>
<g><path style="opacity:1" fill="#404052" d="M 263.5,402.5 C 263.598,415.865 264.264,429.199 265.5,442.5C 265.631,443.239 265.464,443.906 265,444.5C 257.83,451.999 249.33,457.332 239.5,460.5C 238.711,460.217 238.044,459.717 237.5,459C 225.488,458.597 213.488,458.93 201.5,460C 200.016,460.662 198.683,461.496 197.5,462.5C 187.314,459.663 177.648,455.663 168.5,450.5C 168.5,450.167 168.5,449.833 168.5,449.5C 177.485,439.146 184.485,427.48 189.5,414.5C 194.609,416.554 199.609,418.887 204.5,421.5C 209.634,424.478 215.134,426.811 221,428.5C 224.862,427.794 228.695,426.961 232.5,426C 243.94,419.615 254.274,411.781 263.5,402.5 Z"/></g>
<g><path style="opacity:1" fill="#b5ced4" d="M 46.5,448.5 C 64.7174,454.387 83.3841,458.054 102.5,459.5C 102.5,468.5 102.5,477.5 102.5,486.5C 101.5,486.5 100.5,486.5 99.5,486.5C 77.9286,479.259 60.2619,466.593 46.5,448.5 Z"/></g>
<g><path style="opacity:1" fill="#b05050" d="M 242.5,486.5 C 243.8,481.4 243.8,476.4 242.5,471.5C 243.056,467.334 242.056,463.668 239.5,460.5C 249.33,457.332 257.83,451.999 265,444.5C 265.464,443.906 265.631,443.239 265.5,442.5C 270.582,439.35 275.082,440.017 279,444.5C 283.999,451.151 284.666,458.151 281,465.5C 270.408,476.547 257.574,483.547 242.5,486.5 Z"/></g>
<g><path style="opacity:1" fill="#b5cdd3" d="M 168.5,449.5 C 168.5,449.833 168.5,450.167 168.5,450.5C 162.14,457.527 155.473,464.194 148.5,470.5C 138.525,478.791 127.191,484.457 114.5,487.5C 114.5,478.167 114.5,468.833 114.5,459.5C 132.914,458.35 150.914,455.017 168.5,449.5 Z"/></g>
<g><path style="opacity:1" fill="#a14545" d="M 168.5,450.5 C 177.648,455.663 187.314,459.663 197.5,462.5C 196.89,463.391 196.557,464.391 196.5,465.5C 194.972,473.155 195.306,480.822 197.5,488.5C 179.823,486.053 163.49,480.053 148.5,470.5C 155.473,464.194 162.14,457.527 168.5,450.5 Z"/></g>
<g><path style="opacity:1" fill="#e59b42" d="M 239.5,460.5 C 242.056,463.668 243.056,467.334 242.5,471.5C 242.5,473.167 242.5,474.833 242.5,476.5C 227.18,475.56 211.846,474.893 196.5,474.5C 196.5,471.5 196.5,468.5 196.5,465.5C 196.557,464.391 196.89,463.391 197.5,462.5C 198.683,461.496 200.016,460.662 201.5,460C 213.488,458.93 225.488,458.597 237.5,459C 238.044,459.717 238.711,460.217 239.5,460.5 Z"/></g>
<g><path style="opacity:1" fill="#4a4a5c" d="M 398.5,452.5 C 403.807,453.33 409.141,453.997 414.5,454.5C 417.5,455.167 420.5,455.833 423.5,456.5C 422.631,465.384 420.798,474.05 418,482.5C 414.405,484.456 410.572,484.956 406.5,484C 401.348,483.946 397.515,481.78 395,477.5C 395.51,469.101 396.677,460.768 398.5,452.5 Z"/></g>
<g><path style="opacity:1" fill="#e28837" d="M 196.5,465.5 C 196.5,468.5 196.5,471.5 196.5,474.5C 211.846,474.893 227.18,475.56 242.5,476.5C 242.5,474.833 242.5,473.167 242.5,471.5C 243.8,476.4 243.8,481.4 242.5,486.5C 241.976,489.188 240.309,490.688 237.5,491C 224.822,494.241 212.155,494.241 199.5,491C 198.619,490.292 197.953,489.458 197.5,488.5C 195.306,480.822 194.972,473.155 196.5,465.5 Z"/></g>
</svg>
