<?xml version="1.0" encoding="UTF-8"?>
<!DOCTYPE svg PUBLIC "-//W3C//DTD SVG 1.1//EN" "http://www.w3.org/Graphics/SVG/1.1/DTD/svg11.dtd">
<svg xmlns="http://www.w3.org/2000/svg" version="1.1" width="512px" height="512px" style="shape-rendering:geometricPrecision; text-rendering:geometricPrecision; image-rendering:optimizeQuality; fill-rule:evenodd; clip-rule:evenodd" xmlns:xlink="http://www.w3.org/1999/xlink">
<g><path style="opacity:1" fill="#000000" d="M 207.5,13.5 C 241.613,14.1187 263.946,30.6187 274.5,63C 278.012,74.2378 280.179,85.7378 281,97.5C 282.534,107.071 287.034,114.904 294.5,121C 305.963,127.799 315.463,136.632 323,147.5C 324.725,150.674 326.058,154.007 327,157.5C 328.16,165.22 328.827,172.886 329,180.5C 329.667,182.5 330.333,184.5 331,186.5C 343.392,199.331 347.392,214.331 343,231.5C 337.647,243.183 328.814,251.016 316.5,255C 338.415,278.935 356.415,305.601 370.5,335C 381.51,335.315 392.51,335.815 403.5,336.5C 405.5,336.167 407.5,335.833 409.5,335.5C 411.861,330.972 415.361,327.639 420,325.5C 420.667,287.167 420.667,248.833 420,210.5C 419.562,207.624 418.562,204.957 417,202.5C 406.14,190.081 402.307,175.747 405.5,159.5C 398.875,152.374 392.042,145.374 385,138.5C 376.107,122.565 378.274,108.398 391.5,96C 387.494,91.1628 385.994,85.6628 387,79.5C 400.464,59.4046 414.297,39.5713 428.5,20C 433.946,17.3821 438.446,18.5488 442,23.5C 455,41.5 468,59.5 481,77.5C 482.483,80.7024 482.817,84.0357 482,87.5C 479.971,90.0292 478.138,92.6959 476.5,95.5C 481.981,104.408 483.814,114.075 482,124.5C 477.063,138.645 471.729,152.645 466,166.5C 466.082,177.334 462.082,186.334 454,193.5C 453.167,237.837 453.333,282.17 454.5,326.5C 459.729,329.892 463.229,334.559 465,340.5C 465.667,353.833 465.667,367.167 465,380.5C 463.197,386.466 459.697,391.133 454.5,394.5C 453.667,427.828 453.167,461.162 453,494.5C 449.667,498.5 446.333,498.5 443,494.5C 442.5,462.168 442.333,429.835 442.5,397.5C 438.833,397.5 435.167,397.5 431.5,397.5C 431.667,429.835 431.5,462.168 431,494.5C 427.667,498.5 424.333,498.5 421,494.5C 420.833,461.495 420.333,428.495 419.5,395.5C 414.64,392.807 410.973,388.974 408.5,384C 401.842,383.5 395.175,383.334 388.5,383.5C 394.707,407.444 398.54,431.778 400,456.5C 400.792,469.198 400.459,481.865 399,494.5C 395.667,498.5 392.333,498.5 389,494.5C 390.505,456.886 386.338,419.886 376.5,383.5C 365.147,383.168 353.814,383.501 342.5,384.5C 356.822,419.92 361.655,456.587 357,494.5C 354.123,497.487 351.123,497.821 348,495.5C 350.229,456.943 344.396,419.609 330.5,383.5C 320.235,383.947 310.569,381.781 301.5,377C 284.12,365.124 267.454,352.29 251.5,338.5C 248.215,342.18 246.382,346.513 246,351.5C 245.333,363.167 245.333,374.833 246,386.5C 273.49,408.615 292.99,436.449 304.5,470C 307.202,476.973 309.202,484.14 310.5,491.5C 310.258,494.91 308.425,496.91 305,497.5C 303.108,496.87 301.441,495.87 300,494.5C 290.084,456.303 270.751,423.969 242,397.5C 232.46,410.04 221.294,420.873 208.5,430C 199.984,434.21 191.317,434.543 182.5,431C 168.566,424.456 155.733,416.29 144,406.5C 124.645,433.714 110.811,463.547 102.5,496C 97.1407,498.15 94.1407,496.317 93.5,490.5C 94.8963,481.581 97.2297,472.915 100.5,464.5C 88.9573,453.653 86.2906,440.819 92.5,426C 86.2426,421.287 80.076,416.454 74,411.5C 72.1013,438.293 73.9346,464.96 79.5,491.5C 77.7144,496.18 74.3811,497.68 69.5,496C 68.8742,495.25 68.3742,494.416 68,493.5C 62.2091,463.389 60.3758,433.055 62.5,402.5C 55.8637,396.023 49.697,389.023 44,381.5C 38.8352,417.77 38.3352,454.103 42.5,490.5C 41.8593,496.317 38.8593,498.15 33.5,496C 31.9963,494.509 31.1629,492.676 31,490.5C 25.8273,432.257 29.6606,374.591 42.5,317.5C 40.3173,313.117 38.8173,308.45 38,303.5C 36.9463,289.339 37.9463,275.339 41,261.5C 45.0141,253.573 51.5141,249.906 60.5,250.5C 60.3295,239.462 63.3295,229.462 69.5,220.5C 55.1199,189.104 60.6199,161.77 86,138.5C 91.116,132.831 94.116,126.165 95,118.5C 93.2872,98.0562 96.2872,78.3895 104,59.5C 118.744,37.9631 139.077,28.9631 165,32.5C 176.991,21.2281 191.158,14.8947 207.5,13.5 Z M 202.5,25.5 C 230.904,23.6083 250.737,35.6083 262,61.5C 266.718,75.8051 269.718,90.4717 271,105.5C 276.546,120.383 286.379,131.55 300.5,139C 314.372,150.934 320.206,166.1 318,184.5C 319.393,188.286 321.059,191.952 323,195.5C 334.433,206.73 336.433,219.397 329,233.5C 320.726,242.204 310.559,245.871 298.5,244.5C 298.445,234.614 296.945,224.948 294,215.5C 293.279,211.658 291.613,208.324 289,205.5C 285.777,181.874 274.944,162.707 256.5,148C 244.614,140.556 232.28,133.889 219.5,128C 209.711,121.878 201.544,114.045 195,104.5C 191.276,97.8559 189.609,90.8559 190,83.5C 188.309,79.7873 185.475,78.6206 181.5,80C 142.85,110.729 125.85,150.896 130.5,200.5C 124.268,199.878 118.101,198.878 112,197.5C 100.986,199.015 94.8196,205.348 93.5,216.5C 88.8038,216.097 84.1372,215.43 79.5,214.5C 67.2434,186.524 73.0767,162.858 97,143.5C 101.354,137.121 104.354,130.121 106,122.5C 106.179,109.801 106.845,97.1346 108,84.5C 112.481,58.9975 127.647,44.9975 153.5,42.5C 159.491,43.4682 165.491,43.9682 171.5,44C 179.4,33.718 189.734,27.5514 202.5,25.5 Z M 428.5,38.5 C 430.718,51.9666 432.552,65.6333 434,79.5C 437.333,82.1667 440.667,82.1667 444,79.5C 443.626,67.4731 442.959,55.4731 442,43.5C 450.833,55.6667 459.667,67.8333 468.5,80C 458.795,83.4016 449.128,86.9016 439.5,90.5C 426.549,86.8455 413.549,83.3455 400.5,80C 409.977,66.1956 419.311,52.3623 428.5,38.5 Z M 403.5,92.5 C 413.198,95.0081 422.865,97.6748 432.5,100.5C 432.488,107.778 431.655,115.111 430,122.5C 420.564,112.906 411.731,102.906 403.5,92.5 Z M 458.5,95.5 C 459.552,95.3505 460.552,95.5172 461.5,96C 455.333,103.5 449.167,111 443,118.5C 442.942,112.407 443.775,106.407 445.5,100.5C 450.011,99.0014 454.344,97.3348 458.5,95.5 Z M 178.5,97.5 C 182.674,106.811 188.174,115.478 195,123.5C 204.17,131.668 214.17,138.668 225,144.5C 226.33,169.521 215.663,187.188 193,197.5C 178.548,191.385 167.548,181.385 160,167.5C 155.744,154.522 154.077,141.188 155,127.5C 161.522,116.478 169.355,106.478 178.5,97.5 Z M 468.5,105.5 C 471.039,110.112 471.872,115.112 471,120.5C 467.396,131.311 463.396,141.977 459,152.5C 453.652,147.319 448.485,141.985 443.5,136.5C 451.602,125.953 459.935,115.62 468.5,105.5 Z M 397.5,106.5 C 402.406,109.898 406.906,113.898 411,118.5C 424.3,133.468 437.966,148.134 452,162.5C 455.907,169.974 454.74,176.641 448.5,182.5C 430.215,166.383 412.381,149.717 395,132.5C 388.962,123.185 389.795,114.518 397.5,106.5 Z M 236.5,150.5 C 252.061,157.56 263.561,168.893 271,184.5C 273.544,190.297 275.377,196.297 276.5,202.5C 257.916,204.745 239.25,205.745 220.5,205.5C 220.334,200.821 220.501,196.155 221,191.5C 231.752,179.987 236.919,166.32 236.5,150.5 Z M 144.5,155.5 C 147.556,171.272 155.056,184.606 167,195.5C 167.667,198.5 167.667,201.5 167,204.5C 158.927,203.302 150.76,202.635 142.5,202.5C 140.719,186.703 141.385,171.037 144.5,155.5 Z M 415.5,168.5 C 424.766,176.263 433.599,184.596 442,193.5C 442.5,236.832 442.667,280.165 442.5,323.5C 438.833,323.5 435.167,323.5 431.5,323.5C 431.667,284.499 431.5,245.499 431,206.5C 430.058,203.007 428.725,199.674 427,196.5C 419.579,188.655 415.745,179.322 415.5,168.5 Z M 207.5,202.5 C 209.472,211.44 210.139,220.773 209.5,230.5C 199.675,230.072 190.008,228.572 180.5,226C 179.211,222.598 178.544,218.931 178.5,215C 178.833,211.5 179.167,208 179.5,204.5C 186.455,208.663 193.788,209.496 201.5,207C 204.106,206.208 206.106,204.708 207.5,202.5 Z M 110.5,208.5 C 142.396,228.853 177.396,240.353 215.5,243C 214.565,245.381 214.232,247.881 214.5,250.5C 175.431,249.609 138.931,239.609 105,220.5C 104.828,215.492 106.661,211.492 110.5,208.5 Z M 145.5,214.5 C 145.917,213.876 146.584,213.543 147.5,213.5C 154.144,214.387 160.811,215.054 167.5,215.5C 167.808,217.924 167.474,220.257 166.5,222.5C 159.476,219.827 152.476,217.16 145.5,214.5 Z M 277.5,213.5 C 278.978,213.238 280.311,213.571 281.5,214.5C 287.351,229.243 288.517,244.243 285,259.5C 281.202,263.934 276.369,265.934 270.5,265.5C 270.828,254.148 268.328,243.481 263,233.5C 261.833,232.333 260.667,231.167 259.5,230C 266.296,225.371 272.296,219.871 277.5,213.5 Z M 253.5,215.5 C 255.199,215.34 256.866,215.506 258.5,216C 252.055,222.863 244.055,225.529 234.5,224C 229.5,225.584 225,228.084 221,231.5C 220.501,226.511 220.334,221.511 220.5,216.5C 231.679,216.828 242.679,216.495 253.5,215.5 Z M 83.5,226.5 C 87.8913,227.008 92.2246,227.842 96.5,229C 132.837,250.419 172.171,261.253 214.5,261.5C 215.502,274.695 222.169,283.528 234.5,288C 239.554,288.781 244.554,288.614 249.5,287.5C 253.579,305.182 250.079,321.182 239,335.5C 237.073,338.948 235.739,342.615 235,346.5C 234.667,360.167 234.333,373.833 234,387.5C 225.207,399.96 214.707,410.793 202.5,420C 198.006,422.833 193.339,423.166 188.5,421C 174.057,414.369 160.891,405.869 149,395.5C 148.939,379.447 148.272,363.447 147,347.5C 143.355,339.848 138.189,333.348 131.5,328C 162.262,322.969 191.262,312.969 218.5,298C 220.886,295.293 221.052,292.46 219,289.5C 217.087,287.813 214.92,287.313 212.5,288C 165.361,314.761 115.027,323.761 61.5,315C 56.8125,314.08 53.3125,311.58 51,307.5C 49.8765,302.728 49.0432,297.895 48.5,293C 49.1883,284.489 50.0216,275.989 51,267.5C 53.7175,261.889 57.8842,260.389 63.5,263C 98.431,279.571 135.098,287.238 173.5,286C 176.334,281.64 175.334,278.307 170.5,276C 136.125,275.025 103.125,267.859 71.5,254.5C 71.876,247.368 73.0426,240.368 75,233.5C 76.8507,229.843 79.6841,227.51 83.5,226.5 Z M 237.5,234.5 C 250.222,234.387 257.056,240.72 258,253.5C 260.872,269.285 254.372,277.118 238.5,277C 231.039,274.534 226.872,269.368 226,261.5C 222.622,249.067 226.455,240.067 237.5,234.5 Z M 298.5,256.5 C 299.873,256.343 301.207,256.51 302.5,257C 324.582,279.588 342.582,305.088 356.5,333.5C 348.492,334.6 340.492,334.434 332.5,333C 330.5,332 328.5,331 326.5,330C 310.09,312.928 294.424,295.261 279.5,277C 289.823,273.844 296.156,267.011 298.5,256.5 Z M 264.5,277.5 C 282.189,299.033 300.856,319.866 320.5,340C 325.102,342.867 330.102,344.534 335.5,345C 359.165,345.952 382.832,346.786 406.5,347.5C 406.5,355.833 406.5,364.167 406.5,372.5C 378.831,372.667 351.165,372.5 323.5,372C 314.06,370.778 305.727,367.112 298.5,361C 284.422,350.926 270.922,340.093 258,328.5C 259.622,322.669 260.955,316.669 262,310.5C 262.928,301.396 262.428,292.396 260.5,283.5C 262.278,281.736 263.611,279.736 264.5,277.5 Z M 53.5,324.5 C 64.9271,327.549 76.5938,329.215 88.5,329.5C 86.3121,338.9 83.8121,348.234 81,357.5C 80.3333,359.833 80.3333,362.167 81,364.5C 85.9497,371.784 91.2831,378.784 97,385.5C 106.167,395.167 115.333,404.833 124.5,414.5C 117.219,426.728 110.719,439.395 105,452.5C 102.25,449.758 100.75,446.424 100.5,442.5C 101.754,435.984 103.087,429.484 104.5,423C 104.375,421.373 103.875,419.873 103,418.5C 85.1945,406.372 68.8612,392.372 54,376.5C 50.5586,371.343 49.0586,365.677 49.5,359.5C 50.1102,347.729 51.4435,336.062 53.5,324.5 Z M 100.5,329.5 C 106.509,329.334 112.509,329.501 118.5,330C 122.633,335.134 127.133,339.968 132,344.5C 133.586,346.67 134.92,349.004 136,351.5C 137.617,366.432 137.951,381.432 137,396.5C 135.327,399.001 133.493,401.334 131.5,403.5C 117.036,390.875 104.203,376.875 93,361.5C 94.8557,350.74 97.3557,340.074 100.5,329.5 Z M 427.5,334.5 C 433.176,334.334 438.843,334.501 444.5,335C 448.499,335.668 451.332,337.835 453,341.5C 454.604,353.429 454.937,365.429 454,377.5C 452.5,381.667 449.667,384.5 445.5,386C 439.5,386.667 433.5,386.667 427.5,386C 423.427,384.928 420.593,382.428 419,378.5C 418.333,366.5 418.333,354.5 419,342.5C 421.074,338.923 423.907,336.256 427.5,334.5 Z"/></g>
<g><path style="opacity:1" fill="#000000" d="M 169.5,141.5 C 173.915,141.305 178.249,141.805 182.5,143C 185.835,145.679 186.335,148.845 184,152.5C 179.19,153.674 174.357,153.508 169.5,152C 166.88,148.502 166.88,145.002 169.5,141.5 Z"/></g>
<g><path style="opacity:1" fill="#000000" d="M 204.5,141.5 C 208.603,140.769 212.103,141.769 215,144.5C 216.125,150.381 213.625,153.214 207.5,153C 199.512,155.341 196.345,152.508 198,144.5C 200.166,143.269 202.333,142.269 204.5,141.5 Z"/></g>
</svg>
