<?xml version="1.0" encoding="UTF-8"?>
<!DOCTYPE svg PUBLIC "-//W3C//DTD SVG 1.1//EN" "http://www.w3.org/Graphics/SVG/1.1/DTD/svg11.dtd">
<svg xmlns="http://www.w3.org/2000/svg" version="1.1" width="512px" height="512px" style="shape-rendering:geometricPrecision; text-rendering:geometricPrecision; image-rendering:optimizeQuality; fill-rule:evenodd; clip-rule:evenodd" xmlns:xlink="http://www.w3.org/1999/xlink">
<g><path style="opacity:1" fill="#3f3e51" d="M 330.5,188.5 C 326.936,187.577 323.269,187.244 319.5,187.5C 318.71,186.391 318.21,185.058 318,183.5C 317.667,177.167 317.333,170.833 317,164.5C 316.768,163.263 316.268,162.263 315.5,161.5C 314.977,158.122 313.644,155.122 311.5,152.5C 306.713,145.043 300.38,139.376 292.5,135.5C 286.871,131.539 281.871,126.873 277.5,121.5C 275.2,117.238 273.2,112.905 271.5,108.5C 271.5,108.167 271.5,107.833 271.5,107.5C 270.032,99.4065 268.698,91.4065 267.5,83.5C 267.46,80.0124 266.793,76.6791 265.5,73.5C 254.919,35.3723 230.253,20.539 191.5,29C 182.804,32.1734 175.804,37.5067 170.5,45C 147.689,39.382 128.855,45.5487 114,63.5C 112.214,66.7365 110.714,70.0698 109.5,73.5C 107.584,77.1629 106.584,81.1629 106.5,85.5C 105.686,87.631 105.186,89.9644 105,92.5C 104.5,101.494 104.334,110.494 104.5,119.5C 103.975,124.6 102.975,129.6 101.5,134.5C 97.9733,141.035 93.64,147.035 88.5,152.5C 84.3717,155.29 81.3717,158.957 79.5,163.5C 77.0764,166.008 75.4097,169.008 74.5,172.5C 72.5663,176.235 71.5663,180.235 71.5,184.5C 67.7307,184.244 64.0641,184.577 60.5,185.5C 62.7833,165.937 71.6166,149.937 87,137.5C 90.09,133.318 92.09,128.651 93,123.5C 93.0642,109.093 94.0642,94.7601 96,80.5C 102.156,53.3443 118.99,37.511 146.5,33C 152.021,32.3476 157.521,32.5142 163,33.5C 186.337,14.1743 212.17,10.3409 240.5,22C 256.788,31.6292 267.955,45.4625 274,63.5C 277.647,78.0545 280.647,92.7211 283,107.5C 288.167,118 296,125.833 306.5,131C 319.415,140.666 326.749,153.499 328.5,169.5C 327.333,176.006 327.999,182.34 330.5,188.5 Z"/></g>
<g><path style="opacity:1" fill="#3f3e51" d="M 459.5,189.5 C 451.821,189.404 444.154,189.07 436.5,188.5C 429.837,182.005 423.004,175.671 416,169.5C 415.223,175.724 416.056,181.724 418.5,187.5C 415.167,188.167 411.833,188.833 408.5,189.5C 406.469,186.578 405.302,183.245 405,179.5C 404.622,172.811 404.622,166.144 405,159.5C 397.333,153.167 390.333,146.167 384,138.5C 376.66,123.032 379.16,109.365 391.5,97.5C 389.867,94.0397 388.034,90.7064 386,87.5C 385.294,85.0288 385.627,82.6954 387,80.5C 401.695,59.9717 416.195,39.305 430.5,18.5C 432.432,17.4798 434.432,17.3131 436.5,18C 453.719,39.5379 469.719,61.8712 484.5,85C 482.611,89.231 480.278,93.231 477.5,97C 483.279,106.895 484.779,117.395 482,128.5C 477.278,141.611 472.278,154.611 467,167.5C 466.916,173.017 465.916,178.351 464,183.5C 463.208,186.106 461.708,188.106 459.5,189.5 Z"/></g>
<g><path style="opacity:1" fill="#f9a788" d="M 265.5,73.5 C 213.5,73.5 161.5,73.5 109.5,73.5C 110.714,70.0698 112.214,66.7365 114,63.5C 128.855,45.5487 147.689,39.382 170.5,45C 175.804,37.5067 182.804,32.1734 191.5,29C 230.253,20.539 254.919,35.3723 265.5,73.5 Z"/></g>
<g><path style="opacity:1" fill="#daf0f6" d="M 444.5,47.5 C 439.393,49.2287 434.06,50.562 428.5,51.5C 427.041,51.4326 425.708,51.7659 424.5,52.5C 423.791,51.596 422.791,51.2627 421.5,51.5C 425.149,44.8812 429.315,38.5479 434,32.5C 437.745,37.3978 441.245,42.3978 444.5,47.5 Z"/></g>
<g><path style="opacity:1" fill="#f8f9fa" d="M 428.5,51.5 C 429.705,58.9058 430.705,66.2391 431.5,73.5C 431.505,77.5341 431.838,81.5341 432.5,85.5C 431.866,86.9468 430.699,87.6134 429,87.5C 426.863,86.9233 424.696,86.59 422.5,86.5C 418.047,84.7122 413.38,83.2122 408.5,82C 407.643,81.3109 406.977,80.4776 406.5,79.5C 412.769,70.6148 418.769,61.6148 424.5,52.5C 425.708,51.7659 427.041,51.4326 428.5,51.5 Z"/></g>
<g><path style="opacity:1" fill="#cce8f9" d="M 444.5,47.5 C 448.853,52.5266 452.853,57.86 456.5,63.5C 456.082,64.2216 455.416,64.7216 454.5,65C 446.823,65.8343 439.156,66.6676 431.5,67.5C 431.5,69.5 431.5,71.5 431.5,73.5C 430.705,66.2391 429.705,58.9058 428.5,51.5C 434.06,50.562 439.393,49.2287 444.5,47.5 Z"/></g>
<g><path style="opacity:1" fill="#f9a782" d="M 109.5,73.5 C 161.5,73.5 213.5,73.5 265.5,73.5C 266.793,76.6791 267.46,80.0124 267.5,83.5C 267.5,84.5 267.5,85.5 267.5,86.5C 241.092,86.8238 214.759,86.4905 188.5,85.5C 187.743,83.0807 186.077,81.7474 183.5,81.5C 180.308,82.3656 177.641,84.0323 175.5,86.5C 152.327,86.8308 129.327,86.4975 106.5,85.5C 106.584,81.1629 107.584,77.1629 109.5,73.5 Z"/></g>
<g><path style="opacity:1" fill="#b8dbf9" d="M 456.5,63.5 C 460.743,68.9829 464.743,74.6495 468.5,80.5C 467.486,81.7647 465.986,82.4313 464,82.5C 453.511,83.6841 443.011,84.6841 432.5,85.5C 431.838,81.5341 431.505,77.5341 431.5,73.5C 431.5,71.5 431.5,69.5 431.5,67.5C 439.156,66.6676 446.823,65.8343 454.5,65C 455.416,64.7216 456.082,64.2216 456.5,63.5 Z"/></g>
<g><path style="opacity:1" fill="#aad1f9" d="M 468.5,80.5 C 469.933,81.8333 471.267,83.3333 472.5,85C 471.29,86.0391 470.29,87.2058 469.5,88.5C 461.416,90.6944 453.416,93.1944 445.5,96C 442.591,97.4055 440.591,99.5722 439.5,102.5C 430.177,103.299 420.843,103.966 411.5,104.5C 406.126,100.752 402.459,95.7518 400.5,89.5C 407.833,88.5 415.167,87.5 422.5,86.5C 424.696,86.59 426.863,86.9233 429,87.5C 430.699,87.6134 431.866,86.9468 432.5,85.5C 443.011,84.6841 453.511,83.6841 464,82.5C 465.986,82.4313 467.486,81.7647 468.5,80.5 Z"/></g>
<g><path style="opacity:1" fill="#413f51" d="M 188.5,85.5 C 188.194,93.2948 190.194,100.295 194.5,106.5C 194.75,108.674 195.75,110.341 197.5,111.5C 200.167,116.167 203.833,119.833 208.5,122.5C 214.476,127.826 221.143,132.159 228.5,135.5C 239.585,140.209 249.918,146.209 259.5,153.5C 262.833,157.5 266.5,161.167 270.5,164.5C 274.931,171.027 278.598,178.027 281.5,185.5C 278.375,186.479 275.042,186.813 271.5,186.5C 264.051,170.05 252.051,158.383 235.5,151.5C 235.443,163.733 232.276,175.067 226,185.5C 224.094,186.131 222.094,186.464 220,186.5C 217.705,186.453 215.871,185.787 214.5,184.5C 215.529,182.483 216.529,180.483 217.5,178.5C 220.636,174.789 222.636,170.455 223.5,165.5C 224.461,163.735 224.795,161.735 224.5,159.5C 225.569,154.822 225.569,150.156 224.5,145.5C 207.427,137.756 193.761,126.089 183.5,110.5C 182.014,106.188 180.514,101.854 179,97.5C 168.347,106.968 159.847,117.968 153.5,130.5C 153.334,136.842 153.5,143.175 154,149.5C 154.05,154.127 154.883,158.46 156.5,162.5C 157.848,168.86 160.515,174.527 164.5,179.5C 166.167,181.5 167.833,183.5 169.5,185.5C 165.154,185.666 160.821,185.499 156.5,185C 149.252,176.554 145.085,166.72 144,155.5C 142.607,158.562 141.441,161.728 140.5,165C 140.833,165.333 141.167,165.667 141.5,166C 140.833,168 140.167,170 139.5,172C 139.833,172.333 140.167,172.667 140.5,173C 139.7,177.08 139.2,181.247 139,185.5C 135.943,184.549 132.777,184.216 129.5,184.5C 129.5,180.167 129.5,175.833 129.5,171.5C 130.219,169.236 130.552,166.903 130.5,164.5C 131.687,161.054 132.354,157.387 132.5,153.5C 134.673,147.647 136.673,141.647 138.5,135.5C 143.76,125.578 149.427,115.912 155.5,106.5C 161.833,99.5 168.5,92.8333 175.5,86.5C 177.641,84.0323 180.308,82.3656 183.5,81.5C 186.077,81.7474 187.743,83.0807 188.5,85.5 Z"/></g>
<g><path style="opacity:1" fill="#b8daf6" d="M 421.5,51.5 C 422.791,51.2627 423.791,51.596 424.5,52.5C 418.769,61.6148 412.769,70.6148 406.5,79.5C 406.977,80.4776 407.643,81.3109 408.5,82C 413.38,83.2122 418.047,84.7122 422.5,86.5C 415.167,87.5 407.833,88.5 400.5,89.5C 397.574,87.6587 397.074,85.3253 399,82.5C 406.521,72.0994 414.021,61.766 421.5,51.5 Z"/></g>
<g><path style="opacity:1" fill="#f8a17d" d="M 106.5,85.5 C 129.327,86.4975 152.327,86.8308 175.5,86.5C 168.5,92.8333 161.833,99.5 155.5,106.5C 138.833,106.5 122.167,106.5 105.5,106.5C 105.818,111.032 105.485,115.366 104.5,119.5C 104.334,110.494 104.5,101.494 105,92.5C 105.186,89.9644 105.686,87.631 106.5,85.5 Z"/></g>
<g><path style="opacity:1" fill="#f9a17d" d="M 267.5,83.5 C 268.698,91.4065 270.032,99.4065 271.5,107.5C 245.908,106.51 220.241,106.176 194.5,106.5C 190.194,100.295 188.194,93.2948 188.5,85.5C 214.759,86.4905 241.092,86.8238 267.5,86.5C 267.5,85.5 267.5,84.5 267.5,83.5 Z"/></g>
<g><path style="opacity:1" fill="#5789d8" d="M 469.5,88.5 C 458.547,102.625 447.38,116.625 436,130.5C 435.601,130.272 435.435,129.938 435.5,129.5C 437.205,120.568 438.538,111.568 439.5,102.5C 440.591,99.5722 442.591,97.4055 445.5,96C 453.416,93.1944 461.416,90.6944 469.5,88.5 Z"/></g>
<g><path style="opacity:1" fill="#96c4f8" d="M 439.5,102.5 C 438.538,111.568 437.205,120.568 435.5,129.5C 426.799,121.8 418.799,113.467 411.5,104.5C 420.843,103.966 430.177,103.299 439.5,102.5 Z"/></g>
<g><path style="opacity:1" fill="#f9a175" d="M 194.5,106.5 C 220.241,106.176 245.908,106.51 271.5,107.5C 271.5,107.833 271.5,108.167 271.5,108.5C 271.5,109.5 271.5,110.5 271.5,111.5C 246.833,111.5 222.167,111.5 197.5,111.5C 195.75,110.341 194.75,108.674 194.5,106.5 Z"/></g>
<g><path style="opacity:1" fill="#c53e3e" d="M 468.5,106.5 C 470.614,107.36 471.78,109.027 472,111.5C 472.667,115.5 472.667,119.5 472,123.5C 468.128,134.283 463.961,144.95 459.5,155.5C 454.195,149.86 448.861,144.193 443.5,138.5C 451.857,127.815 460.191,117.148 468.5,106.5 Z"/></g>
<g><path style="opacity:1" fill="#f89b75" d="M 271.5,108.5 C 273.2,112.905 275.2,117.238 277.5,121.5C 254.327,121.169 231.327,121.502 208.5,122.5C 203.833,119.833 200.167,116.167 197.5,111.5C 222.167,111.5 246.833,111.5 271.5,111.5C 271.5,110.5 271.5,109.5 271.5,108.5 Z"/></g>
<g><path style="opacity:1" fill="#df837d" d="M 183.5,110.5 C 193.761,126.089 207.427,137.756 224.5,145.5C 225.569,150.156 225.569,154.822 224.5,159.5C 220.317,158.146 216.484,156.146 213,153.5C 208.595,155.035 204.095,155.535 199.5,155C 196.39,150.363 197.724,147.363 203.5,146C 198.926,140.935 194.593,135.769 190.5,130.5C 187.369,124.108 185.036,117.441 183.5,110.5 Z"/></g>
<g><path style="opacity:1" fill="#f8c6bd" d="M 183.5,110.5 C 185.036,117.441 187.369,124.108 190.5,130.5C 178.167,130.5 165.833,130.5 153.5,130.5C 159.847,117.968 168.347,106.968 179,97.5C 180.514,101.854 182.014,106.188 183.5,110.5 Z"/></g>
<g><path style="opacity:1" fill="#f89b71" d="M 155.5,106.5 C 149.427,115.912 143.76,125.578 138.5,135.5C 125.989,135.829 113.655,135.495 101.5,134.5C 102.975,129.6 103.975,124.6 104.5,119.5C 105.485,115.366 105.818,111.032 105.5,106.5C 122.167,106.5 138.833,106.5 155.5,106.5 Z"/></g>
<g><path style="opacity:1" fill="#f99b6f" d="M 277.5,121.5 C 281.871,126.873 286.871,131.539 292.5,135.5C 271.167,135.5 249.833,135.5 228.5,135.5C 221.143,132.159 214.476,127.826 208.5,122.5C 231.327,121.502 254.327,121.169 277.5,121.5 Z"/></g>
<g><path style="opacity:1" fill="#f4726a" d="M 425.5,135.5 C 424.457,138.056 422.79,140.223 420.5,142C 417.29,144.717 413.956,147.217 410.5,149.5C 403.464,143.631 397.297,136.964 392,129.5C 388.816,120.19 391.15,112.523 399,106.5C 408.04,116.037 416.873,125.704 425.5,135.5 Z"/></g>
<g><path style="opacity:1" fill="#f9956a" d="M 101.5,134.5 C 113.655,135.495 125.989,135.829 138.5,135.5C 136.673,141.647 134.673,147.647 132.5,153.5C 118.01,152.504 103.343,152.171 88.5,152.5C 93.64,147.035 97.9733,141.035 101.5,134.5 Z"/></g>
<g><path style="opacity:1" fill="#f8956a" d="M 228.5,135.5 C 249.833,135.5 271.167,135.5 292.5,135.5C 300.38,139.376 306.713,145.043 311.5,152.5C 293.992,152.17 276.659,152.503 259.5,153.5C 249.918,146.209 239.585,140.209 228.5,135.5 Z"/></g>
<g><path style="opacity:1" fill="#f9d0c9" d="M 153.5,130.5 C 165.833,130.5 178.167,130.5 190.5,130.5C 194.593,135.769 198.926,140.935 203.5,146C 197.724,147.363 196.39,150.363 199.5,155C 204.095,155.535 208.595,155.035 213,153.5C 216.484,156.146 220.317,158.146 224.5,159.5C 224.795,161.735 224.461,163.735 223.5,165.5C 223.5,164.167 223.5,162.833 223.5,161.5C 200.994,161.169 178.66,161.503 156.5,162.5C 154.883,158.46 154.05,154.127 154,149.5C 153.5,143.175 153.334,136.842 153.5,130.5 Z"/></g>
<g><path style="opacity:1" fill="#e28781" d="M 169.5,146.5 C 174.378,146.174 178.878,147.174 183,149.5C 183.783,153.229 182.283,155.563 178.5,156.5C 175.855,155.892 173.188,155.392 170.5,155C 167.074,152.405 166.741,149.571 169.5,146.5 Z"/></g>
<g><path style="opacity:1" fill="#3f3e4b" d="M 271.5,186.5 C 275.042,186.813 278.375,186.479 281.5,185.5C 282.871,187.936 283.871,190.603 284.5,193.5C 285.814,198.425 286.981,203.425 288,208.5C 291.215,212.311 293.381,216.645 294.5,221.5C 296.871,229.655 297.871,237.989 297.5,246.5C 294.061,246.747 290.728,246.414 287.5,245.5C 287.391,235.514 285.558,225.847 282,216.5C 280.274,215.424 278.441,215.257 276.5,216C 270.924,222.081 264.924,227.581 258.5,232.5C 262.455,236.449 265.121,241.116 266.5,246.5C 263.167,246.5 259.833,246.5 256.5,246.5C 254.4,243.896 252.067,241.396 249.5,239C 239.512,234.091 231.512,236.257 225.5,245.5C 221.119,245.628 216.785,245.295 212.5,244.5C 196.804,243.773 181.47,241.106 166.5,236.5C 147.238,231.201 129.571,222.701 113.5,211C 110.788,210.174 108.455,210.674 106.5,212.5C 105.065,214.598 103.898,216.931 103,219.5C 102.219,220.944 102.386,222.277 103.5,223.5C 117.48,232.325 132.48,238.659 148.5,242.5C 148.5,243.167 148.833,243.5 149.5,243.5C 141.167,244.167 132.833,244.833 124.5,245.5C 114.721,241.519 105.388,236.685 96.5,231C 90.9419,229.19 85.2752,228.524 79.5,229C 74.4331,231.635 71.7664,235.801 71.5,241.5C 70.6618,241.842 70.3284,242.508 70.5,243.5C 67.1667,243.5 63.8333,243.5 60.5,243.5C 60.328,235.509 62.9946,228.676 68.5,223C 61.8138,211.405 59.1472,198.905 60.5,185.5C 64.0641,184.577 67.7307,184.244 71.5,184.5C 71.5,187.5 71.5,190.5 71.5,193.5C 71.43,202.392 73.7634,210.558 78.5,218C 83.1561,218.665 87.8228,219.165 92.5,219.5C 93.1862,210.665 97.5195,204.498 105.5,201C 113.807,201.604 122.141,202.437 130.5,203.5C 130.384,200.14 130.051,196.807 129.5,193.5C 129.5,190.5 129.5,187.5 129.5,184.5C 132.777,184.216 135.943,184.549 139,185.5C 139.2,181.247 139.7,177.08 140.5,173C 140.167,172.667 139.833,172.333 139.5,172C 140.167,170 140.833,168 141.5,166C 141.167,165.667 140.833,165.333 140.5,165C 141.441,161.728 142.607,158.562 144,155.5C 145.085,166.72 149.252,176.554 156.5,185C 160.821,185.499 165.154,185.666 169.5,185.5C 175.798,192.297 183.298,197.297 192,200.5C 195.488,199.673 198.654,198.173 201.5,196C 206.002,192.33 210.335,188.497 214.5,184.5C 215.871,185.787 217.705,186.453 220,186.5C 222.094,186.464 224.094,186.131 226,185.5C 232.276,175.067 235.443,163.733 235.5,151.5C 252.051,158.383 264.051,170.05 271.5,186.5 Z"/></g>
<g><path style="opacity:1" fill="#f99563" d="M 88.5,152.5 C 103.343,152.171 118.01,152.504 132.5,153.5C 132.354,157.387 131.687,161.054 130.5,164.5C 113.325,164.83 96.3251,164.497 79.5,163.5C 81.3717,158.957 84.3717,155.29 88.5,152.5 Z"/></g>
<g><path style="opacity:1" fill="#f89563" d="M 311.5,152.5 C 313.644,155.122 314.977,158.122 315.5,161.5C 315.5,162.5 315.5,163.5 315.5,164.5C 300.5,164.5 285.5,164.5 270.5,164.5C 266.5,161.167 262.833,157.5 259.5,153.5C 276.659,152.503 293.992,152.17 311.5,152.5 Z"/></g>
<g><path style="opacity:1" fill="#e2645d" d="M 425.5,135.5 C 433.437,143.938 441.604,152.272 450,160.5C 457.386,168.738 457.22,176.905 449.5,185C 448.833,185.667 448.167,185.667 447.5,185C 434.968,173.3 422.635,161.466 410.5,149.5C 413.956,147.217 417.29,144.717 420.5,142C 422.79,140.223 424.457,138.056 425.5,135.5 Z"/></g>
<g><path style="opacity:1" fill="#f9d9d2" d="M 223.5,165.5 C 222.636,170.455 220.636,174.789 217.5,178.5C 208.84,177.834 200.006,177.5 191,177.5C 181.807,177.502 172.974,178.168 164.5,179.5C 160.515,174.527 157.848,168.86 156.5,162.5C 178.66,161.503 200.994,161.169 223.5,161.5C 223.5,162.833 223.5,164.167 223.5,165.5 Z"/></g>
<g><path style="opacity:1" fill="#f98e63" d="M 79.5,163.5 C 96.3251,164.497 113.325,164.83 130.5,164.5C 130.552,166.903 130.219,169.236 129.5,171.5C 111.09,171.18 92.7569,171.514 74.5,172.5C 75.4097,169.008 77.0764,166.008 79.5,163.5 Z"/></g>
<g><path style="opacity:1" fill="#c53e3e" d="M 436.5,188.5 C 438.461,190.963 440.628,193.297 443,195.5C 443.5,206.495 443.667,217.495 443.5,228.5C 439.5,223.167 435.5,217.833 431.5,212.5C 431.102,207.807 429.602,203.474 427,199.5C 423.899,195.609 421.066,191.609 418.5,187.5C 416.056,181.724 415.223,175.724 416,169.5C 423.004,175.671 429.837,182.005 436.5,188.5 Z"/></g>
<g><path style="opacity:1" fill="#f98e5c" d="M 129.5,171.5 C 129.5,175.833 129.5,180.167 129.5,184.5C 129.5,187.5 129.5,190.5 129.5,193.5C 110.167,193.5 90.8333,193.5 71.5,193.5C 71.5,190.5 71.5,187.5 71.5,184.5C 71.5663,180.235 72.5663,176.235 74.5,172.5C 92.7569,171.514 111.09,171.18 129.5,171.5 Z"/></g>
<g><path style="opacity:1" fill="#f78e5d" d="M 315.5,161.5 C 316.268,162.263 316.768,163.263 317,164.5C 317.333,170.833 317.667,177.167 318,183.5C 318.21,185.058 318.71,186.391 319.5,187.5C 319.629,189.216 319.962,190.883 320.5,192.5C 308.678,193.495 296.678,193.828 284.5,193.5C 283.871,190.603 282.871,187.936 281.5,185.5C 278.598,178.027 274.931,171.027 270.5,164.5C 285.5,164.5 300.5,164.5 315.5,164.5C 315.5,163.5 315.5,162.5 315.5,161.5 Z"/></g>
<g><path style="opacity:1" fill="#f8dfd8" d="M 217.5,178.5 C 216.529,180.483 215.529,182.483 214.5,184.5C 210.335,188.497 206.002,192.33 201.5,196C 198.654,198.173 195.488,199.673 192,200.5C 183.298,197.297 175.798,192.297 169.5,185.5C 167.833,183.5 166.167,181.5 164.5,179.5C 172.974,178.168 181.807,177.502 191,177.5C 200.006,177.5 208.84,177.834 217.5,178.5 Z"/></g>
<g><path style="opacity:1" fill="#37384a" d="M 271.5,186.5 C 273.223,191.913 274.889,197.413 276.5,203C 276.355,203.772 276.022,204.439 275.5,205C 270.256,205.403 264.923,206.236 259.5,207.5C 257.899,206.835 256.399,206.501 255,206.5C 250,207.167 245,207.833 240,208.5C 233.56,207.445 226.727,207.445 219.5,208.5C 219.334,203.489 219.501,198.489 220,193.5C 221.353,192.315 222.52,190.981 223.5,189.5C 239.455,187.918 255.455,186.918 271.5,186.5 Z"/></g>
<g><path style="opacity:1" fill="#3f3e4b" d="M 319.5,187.5 C 323.269,187.244 326.936,187.577 330.5,188.5C 339.521,197.55 344.521,208.55 345.5,221.5C 345.142,232.546 340.809,241.546 332.5,248.5C 325.352,247.508 318.019,247.175 310.5,247.5C 322.209,244.964 330.042,237.964 334,226.5C 334.808,222.973 334.641,219.64 333.5,216.5C 333.263,213.353 332.43,210.353 331,207.5C 327.248,202.597 323.748,197.597 320.5,192.5C 319.962,190.883 319.629,189.216 319.5,187.5 Z"/></g>
<g><path style="opacity:1" fill="#3e3d4a" d="M 418.5,187.5 C 421.066,191.609 423.899,195.609 427,199.5C 429.602,203.474 431.102,207.807 431.5,212.5C 431.5,224.5 431.5,236.5 431.5,248.5C 428.167,248.5 424.833,248.5 421.5,248.5C 421.827,258.681 421.494,268.681 420.5,278.5C 420.667,255.831 420.5,233.164 420,210.5C 416.762,204.257 413.095,198.257 409,192.5C 408.517,191.552 408.351,190.552 408.5,189.5C 411.833,188.833 415.167,188.167 418.5,187.5 Z"/></g>
<g><path style="opacity:1" fill="#3e3e4a" d="M 436.5,188.5 C 444.154,189.07 451.821,189.404 459.5,189.5C 458.627,191.886 457.127,193.886 455,195.5C 454.5,203.493 454.334,211.493 454.5,219.5C 453.506,228.986 453.173,238.652 453.5,248.5C 450.167,248.5 446.833,248.5 443.5,248.5C 443.5,241.833 443.5,235.167 443.5,228.5C 443.667,217.495 443.5,206.495 443,195.5C 440.628,193.297 438.461,190.963 436.5,188.5 Z"/></g>
<g><path style="opacity:1" fill="#37384a" d="M 139.5,190.5 C 146.532,190.17 153.532,190.503 160.5,191.5C 166.04,194.947 168.04,199.947 166.5,206.5C 157.73,206.123 149.063,205.289 140.5,204C 140.833,203 141.167,202 141.5,201C 140.713,197.545 140.046,194.045 139.5,190.5 Z"/></g>
<g><path style="opacity:1" fill="#f68755" d="M 71.5,193.5 C 90.8333,193.5 110.167,193.5 129.5,193.5C 130.051,196.807 130.384,200.14 130.5,203.5C 122.141,202.437 113.807,201.604 105.5,201C 97.5195,204.498 93.1862,210.665 92.5,219.5C 87.8228,219.165 83.1561,218.665 78.5,218C 73.7634,210.558 71.43,202.392 71.5,193.5 Z"/></g>
<g><path style="opacity:1" fill="#725762" d="M 207.5,204.5 C 207.56,203.957 207.893,203.624 208.5,203.5C 209.499,213.812 209.832,224.145 209.5,234.5C 207.901,234.768 206.568,234.434 205.5,233.5C 206.5,233.5 207.5,233.5 208.5,233.5C 208.5,230.5 208.5,227.5 208.5,224.5C 208.824,217.646 208.491,210.979 207.5,204.5 Z"/></g>
<g><path style="opacity:1" fill="#e0827d" d="M 207.5,204.5 C 208.491,210.979 208.824,217.646 208.5,224.5C 196.993,224.709 186.66,221.375 177.5,214.5C 177.335,211.482 177.502,208.482 178,205.5C 188.093,212.385 197.926,212.052 207.5,204.5 Z"/></g>
<g><path style="opacity:1" fill="#f88853" d="M 320.5,192.5 C 323.748,197.597 327.248,202.597 331,207.5C 332.43,210.353 333.263,213.353 333.5,216.5C 333.5,218.167 333.5,219.833 333.5,221.5C 320.5,221.5 307.5,221.5 294.5,221.5C 293.381,216.645 291.215,212.311 288,208.5C 286.981,203.425 285.814,198.425 284.5,193.5C 296.678,193.828 308.678,193.495 320.5,192.5 Z"/></g>
<g><path style="opacity:1" fill="#8e3963" d="M 106.5,212.5 C 118.048,223.289 131.048,232.122 145.5,239C 147.063,239.759 148.063,240.926 148.5,242.5C 132.48,238.659 117.48,232.325 103.5,223.5C 102.386,222.277 102.219,220.944 103,219.5C 103.898,216.931 105.065,214.598 106.5,212.5 Z"/></g>
<g><path style="opacity:1" fill="#f7756e" d="M 431.5,212.5 C 435.5,217.833 439.5,223.167 443.5,228.5C 443.5,235.167 443.5,241.833 443.5,248.5C 443.5,274.5 443.5,300.5 443.5,326.5C 439.5,326.5 435.5,326.5 431.5,326.5C 431.5,300.5 431.5,274.5 431.5,248.5C 431.5,236.5 431.5,224.5 431.5,212.5 Z"/></g>
<g><path style="opacity:1" fill="#37384a" d="M 251.5,217.5 C 253.924,217.192 256.257,217.526 258.5,218.5C 255.393,221.56 252.059,224.394 248.5,227C 246.633,227.711 245.133,227.211 244,225.5C 240.589,226.293 237.089,226.793 233.5,227C 228.337,229.369 223.337,231.869 218.5,234.5C 218.195,229.238 218.529,224.072 219.5,219C 230.268,219.346 240.935,218.846 251.5,217.5 Z"/></g>
<g><path style="opacity:1" fill="#3a394b" d="M 454.5,219.5 C 454.333,256.168 454.5,292.835 455,329.5C 462.478,334.454 466.312,341.454 466.5,350.5C 465.448,351.53 464.114,352.197 462.5,352.5C 460.182,352.003 457.848,351.67 455.5,351.5C 455.5,351.167 455.5,350.833 455.5,350.5C 455.43,344.259 452.43,340.092 446.5,338C 439.5,337.333 432.5,337.333 425.5,338C 421.569,340.042 419.236,343.209 418.5,347.5C 417.566,348.568 417.232,349.901 417.5,351.5C 414.061,351.747 410.728,351.414 407.5,350.5C 403.5,350.5 399.5,350.5 395.5,350.5C 387.016,349.507 378.349,349.174 369.5,349.5C 356.683,348.244 343.683,347.411 330.5,347C 327.479,345.82 324.479,344.654 321.5,343.5C 316.554,337.887 311.221,332.554 305.5,327.5C 301.539,321.871 296.873,316.871 291.5,312.5C 285.203,304.202 278.537,296.202 271.5,288.5C 269.552,285.379 267.385,282.379 265,279.5C 262.778,281.385 260.944,283.551 259.5,286C 260.035,288.996 260.702,291.829 261.5,294.5C 262.516,306.574 260.85,318.24 256.5,329.5C 259.826,334.826 264.159,339.159 269.5,342.5C 271.808,344.471 274.142,346.471 276.5,348.5C 271.35,349.651 266.016,349.817 260.5,349C 257.631,345.796 254.465,342.963 251,340.5C 248.441,342.809 246.607,345.643 245.5,349C 241.973,349.808 238.64,349.641 235.5,348.5C 235.604,346.297 236.27,344.297 237.5,342.5C 240.931,337.067 243.931,331.4 246.5,325.5C 249.024,320.911 250.358,315.911 250.5,310.5C 251.164,307.854 251.498,305.021 251.5,302C 251.67,297.669 251.003,293.502 249.5,289.5C 241.866,291.26 234.533,290.593 227.5,287.5C 223.456,284.457 220.123,280.791 217.5,276.5C 217.204,274.597 216.537,272.93 215.5,271.5C 214.908,268.873 214.575,266.206 214.5,263.5C 192.034,263.671 170.034,260.671 148.5,254.5C 140.838,251.835 133.172,249.168 125.5,246.5C 125.5,245.833 125.167,245.5 124.5,245.5C 132.833,244.833 141.167,244.167 149.5,243.5C 155.109,245.088 160.776,246.422 166.5,247.5C 177.122,250.707 188.122,252.373 199.5,252.5C 204.305,253.487 209.305,253.821 214.5,253.5C 214.5,251.833 214.5,250.167 214.5,248.5C 214.473,246.801 213.806,245.467 212.5,244.5C 216.785,245.295 221.119,245.628 225.5,245.5C 224.074,253.517 224.241,261.517 226,269.5C 231.431,280.827 239.931,283.66 251.5,278C 254.433,275.736 256.6,272.902 258,269.5C 258.868,261.725 258.368,254.058 256.5,246.5C 259.833,246.5 263.167,246.5 266.5,246.5C 268.927,253.597 269.927,260.931 269.5,268.5C 284.273,268.024 290.273,260.357 287.5,245.5C 290.728,246.414 294.061,246.747 297.5,246.5C 301.735,247.436 306.069,247.769 310.5,247.5C 318.019,247.175 325.352,247.508 332.5,248.5C 327.733,252.884 322.066,255.717 315.5,257C 337.792,281.23 356.125,308.23 370.5,338C 383.507,338.63 396.507,338.963 409.5,339C 412.333,334.833 415.833,331.333 420,328.5C 420.5,311.837 420.667,295.17 420.5,278.5C 421.494,268.681 421.827,258.681 421.5,248.5C 424.833,248.5 428.167,248.5 431.5,248.5C 431.5,274.5 431.5,300.5 431.5,326.5C 435.5,326.5 439.5,326.5 443.5,326.5C 443.5,300.5 443.5,274.5 443.5,248.5C 446.833,248.5 450.167,248.5 453.5,248.5C 453.173,238.652 453.506,228.986 454.5,219.5 Z"/></g>
<g><path style="opacity:1" fill="#f7cac3" d="M 177.5,214.5 C 186.66,221.375 196.993,224.709 208.5,224.5C 208.5,227.5 208.5,230.5 208.5,233.5C 207.5,233.5 206.5,233.5 205.5,233.5C 196.329,232.732 187.329,231.066 178.5,228.5C 177.507,223.88 177.173,219.214 177.5,214.5 Z"/></g>
<g><path style="opacity:1" fill="#da5b8f" d="M 287.5,245.5 C 290.273,260.357 284.273,268.024 269.5,268.5C 269.927,260.931 268.927,253.597 266.5,246.5C 265.121,241.116 262.455,236.449 258.5,232.5C 264.924,227.581 270.924,222.081 276.5,216C 278.441,215.257 280.274,215.424 282,216.5C 285.558,225.847 287.391,235.514 287.5,245.5 Z"/></g>
<g><path style="opacity:1" fill="#f8824c" d="M 333.5,216.5 C 334.641,219.64 334.808,222.973 334,226.5C 330.042,237.964 322.209,244.964 310.5,247.5C 306.069,247.769 301.735,247.436 297.5,246.5C 297.871,237.989 296.871,229.655 294.5,221.5C 307.5,221.5 320.5,221.5 333.5,221.5C 333.5,219.833 333.5,218.167 333.5,216.5 Z"/></g>
<g><path style="opacity:1" fill="#eb689e" d="M 124.5,245.5 C 125.167,245.5 125.5,245.833 125.5,246.5C 124.876,246.917 124.543,247.584 124.5,248.5C 125.415,254.151 126.248,259.818 127,265.5C 128.302,266.085 129.469,266.751 130.5,267.5C 109.892,263.529 90.5584,256.196 72.5,245.5C 71.5713,244.311 71.238,242.978 71.5,241.5C 71.7664,235.801 74.4331,231.635 79.5,229C 85.2752,228.524 90.9419,229.19 96.5,231C 105.388,236.685 114.721,241.519 124.5,245.5 Z"/></g>
<g><path style="opacity:1" fill="#db5d90" d="M 166.5,236.5 C 167.62,240.316 167.62,243.983 166.5,247.5C 160.776,246.422 155.109,245.088 149.5,243.5C 148.833,243.5 148.5,243.167 148.5,242.5C 148.063,240.926 147.063,239.759 145.5,239C 131.048,232.122 118.048,223.289 106.5,212.5C 108.455,210.674 110.788,210.174 113.5,211C 129.571,222.701 147.238,231.201 166.5,236.5 Z"/></g>
<g><path style="opacity:1" fill="#f7bf63" d="M 256.5,246.5 C 258.368,254.058 258.868,261.725 258,269.5C 256.6,272.902 254.433,275.736 251.5,278C 239.931,283.66 231.431,280.827 226,269.5C 224.241,261.517 224.074,253.517 225.5,245.5C 231.512,236.257 239.512,234.091 249.5,239C 252.067,241.396 254.4,243.896 256.5,246.5 Z"/></g>
<g><path style="opacity:1" fill="#cd5183" d="M 166.5,236.5 C 181.47,241.106 196.804,243.773 212.5,244.5C 213.806,245.467 214.473,246.801 214.5,248.5C 213.566,249.568 213.232,250.901 213.5,252.5C 208.833,252.5 204.167,252.5 199.5,252.5C 188.122,252.373 177.122,250.707 166.5,247.5C 167.62,243.983 167.62,240.316 166.5,236.5 Z"/></g>
<g><path style="opacity:1" fill="#3b394c" d="M 60.5,243.5 C 63.8333,243.5 67.1667,243.5 70.5,243.5C 69.9844,248.229 69.9844,252.896 70.5,257.5C 102.02,271.456 135.02,278.622 169.5,279C 171.324,279.66 172.657,280.827 173.5,282.5C 173.919,285.325 172.919,287.491 170.5,289C 162.151,289.573 153.818,289.407 145.5,288.5C 140.331,287.619 134.998,286.952 129.5,286.5C 117.042,283.969 104.709,280.969 92.5,277.5C 81.5598,273.124 70.5598,268.624 59.5,264C 54.5768,263.045 51.0768,264.879 49,269.5C 46.7316,281.072 46.0649,292.738 47,304.5C 47.8839,311.049 51.3839,315.549 57.5,318C 70.6429,321 83.9763,322.167 97.5,321.5C 109.982,321.986 122.316,320.986 134.5,318.5C 138.524,317.962 142.524,317.295 146.5,316.5C 163.465,312.623 179.798,306.956 195.5,299.5C 200.757,297.538 205.757,295.038 210.5,292C 212.833,291.333 215.167,291.333 217.5,292C 218.056,292.383 218.389,292.883 218.5,293.5C 220.017,295.936 219.684,298.102 217.5,300C 190.02,315.438 160.686,325.605 129.5,330.5C 134.591,335.582 139.257,340.916 143.5,346.5C 143.5,346.833 143.5,347.167 143.5,347.5C 139.098,347.772 134.765,347.439 130.5,346.5C 125.103,342.272 120.603,337.272 117,331.5C 111.613,331.653 105.447,332.32 98.5,333.5C 97.0706,338.077 96.0706,342.744 95.5,347.5C 91.6286,347.815 87.9619,347.482 84.5,346.5C 85.2931,342.12 86.2931,337.787 87.5,333.5C 88.0431,333.44 88.3764,333.107 88.5,332.5C 85.9135,331.52 83.2469,331.187 80.5,331.5C 71.1584,331.296 61.9918,329.962 53,327.5C 52.0546,327.905 51.3879,328.572 51,329.5C 50.3583,333.491 49.8583,337.491 49.5,341.5C 48.5489,342.919 48.2155,344.585 48.5,346.5C 44.5,346.5 40.5,346.5 36.5,346.5C 37.5234,337.383 39.19,328.383 41.5,319.5C 39.4728,316.779 37.9728,313.779 37,310.5C 35.6449,296.508 35.9782,282.508 38,268.5C 38.8894,263.944 41.0561,260.111 44.5,257C 49.0618,254.483 53.8952,252.65 59,251.5C 59.1829,248.635 59.6829,245.969 60.5,243.5 Z"/></g>
<g><path style="opacity:1" fill="#8e3863" d="M 71.5,241.5 C 71.238,242.978 71.5713,244.311 72.5,245.5C 90.5584,256.196 109.892,263.529 130.5,267.5C 137.034,269.144 143.701,270.144 150.5,270.5C 159.718,271.981 169.051,272.647 178.5,272.5C 190.834,272.131 203.168,271.798 215.5,271.5C 216.537,272.93 217.204,274.597 217.5,276.5C 208.205,279.154 198.871,281.154 189.5,282.5C 184.167,282.5 178.833,282.5 173.5,282.5C 172.657,280.827 171.324,279.66 169.5,279C 135.02,278.622 102.02,271.456 70.5,257.5C 69.9844,252.896 69.9844,248.229 70.5,243.5C 70.3284,242.508 70.6618,241.842 71.5,241.5 Z"/></g>
<g><path style="opacity:1" fill="#e06195" d="M 125.5,246.5 C 133.172,249.168 140.838,251.835 148.5,254.5C 149.815,259.711 150.482,265.044 150.5,270.5C 143.701,270.144 137.034,269.144 130.5,267.5C 129.469,266.751 128.302,266.085 127,265.5C 126.248,259.818 125.415,254.151 124.5,248.5C 124.543,247.584 124.876,246.917 125.5,246.5 Z"/></g>
<g><path style="opacity:1" fill="#91466b" d="M 214.5,248.5 C 214.5,250.167 214.5,251.833 214.5,253.5C 209.305,253.821 204.305,253.487 199.5,252.5C 204.167,252.5 208.833,252.5 213.5,252.5C 213.232,250.901 213.566,249.568 214.5,248.5 Z"/></g>
<g><path style="opacity:1" fill="#8e3863" d="M 312.5,270.5 C 309.285,273.731 305.952,276.897 302.5,280C 296.773,282.864 291.106,285.697 285.5,288.5C 282.97,285.312 280.304,282.145 277.5,279C 287.963,276.37 294.63,269.87 297.5,259.5C 299.074,258.369 300.741,258.202 302.5,259C 306.416,262.41 309.749,266.243 312.5,270.5 Z"/></g>
<g><path style="opacity:1" fill="#d35588" d="M 148.5,254.5 C 170.034,260.671 192.034,263.671 214.5,263.5C 214.575,266.206 214.908,268.873 215.5,271.5C 203.168,271.798 190.834,272.131 178.5,272.5C 169.051,272.647 159.718,271.981 150.5,270.5C 150.482,265.044 149.815,259.711 148.5,254.5 Z"/></g>
<g><path style="opacity:1" fill="#f16fa1" d="M 92.5,277.5 C 94.1667,292.167 95.8333,306.833 97.5,321.5C 83.9763,322.167 70.6429,321 57.5,318C 51.3839,315.549 47.8839,311.049 47,304.5C 46.0649,292.738 46.7316,281.072 49,269.5C 51.0768,264.879 54.5768,263.045 59.5,264C 70.5598,268.624 81.5598,273.124 92.5,277.5 Z"/></g>
<g><path style="opacity:1" fill="#c64a7d" d="M 312.5,270.5 C 321.698,279.891 329.698,290.224 336.5,301.5C 323.5,301.5 310.5,301.5 297.5,301.5C 292.811,297.778 288.811,293.445 285.5,288.5C 291.106,285.697 296.773,282.864 302.5,280C 305.952,276.897 309.285,273.731 312.5,270.5 Z"/></g>
<g><path style="opacity:1" fill="#ed689f" d="M 92.5,277.5 C 104.709,280.969 117.042,283.969 129.5,286.5C 131.169,297.193 132.836,307.86 134.5,318.5C 122.316,320.986 109.982,321.986 97.5,321.5C 95.8333,306.833 94.1667,292.167 92.5,277.5 Z"/></g>
<g><path style="opacity:1" fill="#c94f80" d="M 217.5,276.5 C 220.123,280.791 223.456,284.457 227.5,287.5C 224.709,289.735 221.709,291.735 218.5,293.5C 218.389,292.883 218.056,292.383 217.5,292C 215.167,291.333 212.833,291.333 210.5,292C 205.757,295.038 200.757,297.538 195.5,299.5C 195.178,294.413 194.345,289.413 193,284.5C 192.29,283.027 191.124,282.36 189.5,282.5C 198.871,281.154 208.205,279.154 217.5,276.5 Z"/></g>
<g><path style="opacity:1" fill="#d9807b" d="M 271.5,288.5 C 266.818,288.498 263.485,290.498 261.5,294.5C 260.702,291.829 260.035,288.996 259.5,286C 260.944,283.551 262.778,281.385 265,279.5C 267.385,282.379 269.552,285.379 271.5,288.5 Z"/></g>
<g><path style="opacity:1" fill="#e46395" d="M 129.5,286.5 C 134.998,286.952 140.331,287.619 145.5,288.5C 144.307,288.97 143.64,289.97 143.5,291.5C 144.911,299.791 145.911,308.124 146.5,316.5C 142.524,317.295 138.524,317.962 134.5,318.5C 132.836,307.86 131.169,297.193 129.5,286.5 Z"/></g>
<g><path style="opacity:1" fill="#b3cbd8" d="M 227.5,287.5 C 234.533,290.593 241.866,291.26 249.5,289.5C 251.003,293.502 251.67,297.669 251.5,302C 251.498,305.021 251.164,307.854 250.5,310.5C 250.665,307.482 250.498,304.482 250,301.5C 238.359,310.067 226.193,317.733 213.5,324.5C 199.495,330.667 185.161,336.001 170.5,340.5C 161.61,342.972 152.61,344.972 143.5,346.5C 139.257,340.916 134.591,335.582 129.5,330.5C 160.686,325.605 190.02,315.438 217.5,300C 219.684,298.102 220.017,295.936 218.5,293.5C 221.709,291.735 224.709,289.735 227.5,287.5 Z"/></g>
<g><path style="opacity:1" fill="#d95a8e" d="M 173.5,282.5 C 178.833,282.5 184.167,282.5 189.5,282.5C 191.124,282.36 192.29,283.027 193,284.5C 194.345,289.413 195.178,294.413 195.5,299.5C 179.798,306.956 163.465,312.623 146.5,316.5C 145.911,308.124 144.911,299.791 143.5,291.5C 143.64,289.97 144.307,288.97 145.5,288.5C 153.818,289.407 162.151,289.573 170.5,289C 172.919,287.491 173.919,285.325 173.5,282.5 Z"/></g>
<g><path style="opacity:1" fill="#f8b8ae" d="M 271.5,288.5 C 278.537,296.202 285.203,304.202 291.5,312.5C 283.812,322.196 276.479,332.196 269.5,342.5C 264.159,339.159 259.826,334.826 256.5,329.5C 260.85,318.24 262.516,306.574 261.5,294.5C 263.485,290.498 266.818,288.498 271.5,288.5 Z"/></g>
<g><path style="opacity:1" fill="#ce5183" d="M 297.5,301.5 C 310.5,301.5 323.5,301.5 336.5,301.5C 344.356,312.693 351.356,324.526 357.5,337C 349.5,337.667 341.5,337.667 333.5,337C 330.554,336.194 327.888,334.861 325.5,333C 315.565,322.906 306.232,312.406 297.5,301.5 Z"/></g>
<g><path style="opacity:1" fill="#dfebf2" d="M 250.5,310.5 C 250.358,315.911 249.024,320.911 246.5,325.5C 235.679,324.505 224.679,324.172 213.5,324.5C 226.193,317.733 238.359,310.067 250,301.5C 250.498,304.482 250.665,307.482 250.5,310.5 Z"/></g>
<g><path style="opacity:1" fill="#f8c0b5" d="M 291.5,312.5 C 296.873,316.871 301.539,321.871 305.5,327.5C 297.806,335.849 290.806,344.849 284.5,354.5C 281.55,352.885 278.884,350.885 276.5,348.5C 274.142,346.471 271.808,344.471 269.5,342.5C 276.479,332.196 283.812,322.196 291.5,312.5 Z"/></g>
<g><path style="opacity:1" fill="#e5f2f2" d="M 213.5,324.5 C 224.679,324.172 235.679,324.505 246.5,325.5C 243.931,331.4 240.931,337.067 237.5,342.5C 215.069,341.843 192.735,341.177 170.5,340.5C 185.161,336.001 199.495,330.667 213.5,324.5 Z"/></g>
<g><path style="opacity:1" fill="#e0837d" d="M 80.5,331.5 C 82.8333,332.167 85.1667,332.833 87.5,333.5C 86.2931,337.787 85.2931,342.12 84.5,346.5C 83.6618,346.842 83.3284,347.508 83.5,348.5C 72.7077,347.979 62.041,346.479 51.5,344C 50.244,343.583 49.5774,342.75 49.5,341.5C 49.8583,337.491 50.3583,333.491 51,329.5C 51.3879,328.572 52.0546,327.905 53,327.5C 61.9918,329.962 71.1584,331.296 80.5,331.5 Z"/></g>
<g><path style="opacity:1" fill="#393945" d="M 143.5,347.5 C 145.404,350.534 146.738,353.867 147.5,357.5C 147.333,371.837 147.5,386.171 148,400.5C 159.602,409.941 172.102,417.941 185.5,424.5C 178.978,424.177 172.645,424.51 166.5,425.5C 161.999,423.084 157.666,420.417 153.5,417.5C 149.876,415.049 146.376,412.383 143,409.5C 138.9,414.724 135.067,420.057 131.5,425.5C 128.038,424.518 124.371,424.185 120.5,424.5C 121.11,423.609 121.443,422.609 121.5,421.5C 123.416,420.335 124.249,418.668 124,416.5C 112.237,405.241 101.071,393.574 90.5,381.5C 86.832,376.993 83.332,372.327 80,367.5C 79.7309,360.908 80.8976,354.575 83.5,348.5C 83.3284,347.508 83.6618,346.842 84.5,346.5C 87.9619,347.482 91.6286,347.815 95.5,347.5C 96.0706,342.744 97.0706,338.077 98.5,333.5C 105.447,332.32 111.613,331.653 117,331.5C 120.603,337.272 125.103,342.272 130.5,346.5C 134.765,347.439 139.098,347.772 143.5,347.5 Z"/></g>
<g><path style="opacity:1" fill="#8a5b61" d="M 80.5,331.5 C 83.2469,331.187 85.9135,331.52 88.5,332.5C 88.3764,333.107 88.0431,333.44 87.5,333.5C 85.1667,332.833 82.8333,332.167 80.5,331.5 Z"/></g>
<g><path style="opacity:1" fill="#f7c6bd" d="M 305.5,327.5 C 311.221,332.554 316.554,337.887 321.5,343.5C 315.157,350.995 309.157,358.828 303.5,367C 304.056,367.383 304.389,367.883 304.5,368.5C 297.475,364.323 290.808,359.656 284.5,354.5C 290.806,344.849 297.806,335.849 305.5,327.5 Z"/></g>
<g><path style="opacity:1" fill="#393845" d="M 276.5,348.5 C 278.884,350.885 281.55,352.885 284.5,354.5C 290.808,359.656 297.475,364.323 304.5,368.5C 307.99,371.415 311.99,373.582 316.5,375C 326.161,375.5 335.828,375.666 345.5,375.5C 362.833,375.5 380.167,375.5 397.5,375.5C 400.833,375.5 404.167,375.5 407.5,375.5C 407.5,367.167 407.5,358.833 407.5,350.5C 410.728,351.414 414.061,351.747 417.5,351.5C 417.232,349.901 417.566,348.568 418.5,347.5C 418.5,349.833 418.5,352.167 418.5,354.5C 418.5,361.5 418.5,368.5 418.5,375.5C 418.914,386.899 424.914,391.899 436.5,390.5C 449.519,392.143 455.853,386.476 455.5,373.5C 455.5,366.167 455.5,358.833 455.5,351.5C 457.848,351.67 460.182,352.003 462.5,352.5C 464.114,352.197 465.448,351.53 466.5,350.5C 466.666,360.839 466.5,371.172 466,381.5C 464.718,388.939 460.885,394.606 454.5,398.5C 453.506,408.319 453.173,418.319 453.5,428.5C 450.167,428.5 446.833,428.5 443.5,428.5C 443.5,419.167 443.5,409.833 443.5,400.5C 439.5,400.5 435.5,400.5 431.5,400.5C 431.5,409.833 431.5,419.167 431.5,428.5C 428.193,427.949 424.86,427.616 421.5,427.5C 421.5,448.833 421.5,470.167 421.5,491.5C 424.833,491.5 428.167,491.5 431.5,491.5C 431.5,492.833 431.5,494.167 431.5,495.5C 427.833,495.5 424.167,495.5 420.5,495.5C 420.833,463.16 420.5,430.826 419.5,398.5C 414.287,395.963 410.954,391.963 409.5,386.5C 402.5,386.5 395.5,386.5 388.5,386.5C 391.935,400.01 394.602,413.676 396.5,427.5C 393.167,427.5 389.833,427.5 386.5,427.5C 383.657,413.796 380.657,400.129 377.5,386.5C 365.495,386.333 353.495,386.5 341.5,387C 347.217,399.986 351.217,413.486 353.5,427.5C 349.881,426.756 346.215,426.423 342.5,426.5C 342.5,425.167 342.5,423.833 342.5,422.5C 324.658,422.63 306.825,422.297 289,421.5C 284.833,421.833 280.667,422.167 276.5,422.5C 278.276,423.315 278.943,424.482 278.5,426C 274.338,425.594 270.338,425.761 266.5,426.5C 265.833,425.833 265.167,425.167 264.5,424.5C 258.199,415.758 250.866,407.924 242.5,401C 241.365,400.251 240.365,400.417 239.5,401.5C 237.491,404.196 235.491,406.863 233.5,409.5C 228.157,415.843 222.157,421.509 215.5,426.5C 210.36,425.512 205.026,425.179 199.5,425.5C 213.139,416.527 224.473,405.194 233.5,391.5C 234.167,377.167 234.833,362.833 235.5,348.5C 238.64,349.641 241.973,349.808 245.5,349C 246.607,345.643 248.441,342.809 251,340.5C 254.465,342.963 257.631,345.796 260.5,349C 266.016,349.817 271.35,349.651 276.5,348.5 Z"/></g>
<g><path style="opacity:1" fill="#f8d4cd" d="M 455.5,350.5 C 454.596,351.209 454.263,352.209 454.5,353.5C 442.487,353.461 430.487,353.794 418.5,354.5C 418.5,352.167 418.5,349.833 418.5,347.5C 419.236,343.209 421.569,340.042 425.5,338C 432.5,337.333 439.5,337.333 446.5,338C 452.43,340.092 455.43,344.259 455.5,350.5 Z"/></g>
<g><path style="opacity:1" fill="#393845" d="M 36.5,346.5 C 40.5,346.5 44.5,346.5 48.5,346.5C 43.1324,365.752 48.4657,381.086 64.5,392.5C 75.9557,403.962 88.289,414.296 101.5,423.5C 95.1318,423.83 88.7985,423.496 82.5,422.5C 80.8058,420.156 78.4725,419.156 75.5,419.5C 73.1191,419.488 71.4525,420.488 70.5,422.5C 67.2317,423.487 63.8984,423.82 60.5,423.5C 60.6663,416.492 60.4996,409.492 60,402.5C 53.6345,396.469 47.6345,390.136 42,383.5C 40.0678,396.454 38.5678,409.454 37.5,422.5C 34.1667,422.5 30.8333,422.5 27.5,422.5C 28.5468,396.799 31.5468,371.466 36.5,346.5 Z"/></g>
<g><path style="opacity:1" fill="#ebf2f9" d="M 170.5,340.5 C 192.735,341.177 215.069,341.843 237.5,342.5C 236.27,344.297 235.604,346.297 235.5,348.5C 234.833,362.833 234.167,377.167 233.5,391.5C 233.5,380.167 233.5,368.833 233.5,357.5C 204.833,357.5 176.167,357.5 147.5,357.5C 146.738,353.867 145.404,350.534 143.5,347.5C 143.5,347.167 143.5,346.833 143.5,346.5C 152.61,344.972 161.61,342.972 170.5,340.5 Z"/></g>
<g><path style="opacity:1" fill="#f8d0c9" d="M 321.5,343.5 C 324.479,344.654 327.479,345.82 330.5,347C 343.683,347.411 356.683,348.244 369.5,349.5C 367.396,349.201 365.396,349.534 363.5,350.5C 357.245,358.686 351.245,367.019 345.5,375.5C 335.828,375.666 326.161,375.5 316.5,375C 311.99,373.582 307.99,371.415 304.5,368.5C 304.389,367.883 304.056,367.383 303.5,367C 309.157,358.828 315.157,350.995 321.5,343.5 Z"/></g>
<g><path style="opacity:1" fill="#f9ddd6" d="M 369.5,349.5 C 378.349,349.174 387.016,349.507 395.5,350.5C 396.37,358.811 397.037,367.144 397.5,375.5C 380.167,375.5 362.833,375.5 345.5,375.5C 351.245,367.019 357.245,358.686 363.5,350.5C 365.396,349.534 367.396,349.201 369.5,349.5 Z"/></g>
<g><path style="opacity:1" fill="#e1837d" d="M 395.5,350.5 C 399.5,350.5 403.5,350.5 407.5,350.5C 407.5,358.833 407.5,367.167 407.5,375.5C 404.167,375.5 400.833,375.5 397.5,375.5C 397.037,367.144 396.37,358.811 395.5,350.5 Z"/></g>
<g><path style="opacity:1" fill="#f9c9c1" d="M 455.5,350.5 C 455.5,350.833 455.5,351.167 455.5,351.5C 455.5,358.833 455.5,366.167 455.5,373.5C 443.416,375.449 431.083,376.116 418.5,375.5C 418.5,368.5 418.5,361.5 418.5,354.5C 430.487,353.794 442.487,353.461 454.5,353.5C 454.263,352.209 454.596,351.209 455.5,350.5 Z"/></g>
<g><path style="opacity:1" fill="#f8cac3" d="M 49.5,341.5 C 49.5774,342.75 50.244,343.583 51.5,344C 62.041,346.479 72.7077,347.979 83.5,348.5C 80.8976,354.575 79.7309,360.908 80,367.5C 83.332,372.327 86.832,376.993 90.5,381.5C 81.5345,384.655 72.8678,388.321 64.5,392.5C 48.4657,381.086 43.1324,365.752 48.5,346.5C 48.2155,344.585 48.5489,342.919 49.5,341.5 Z"/></g>
<g><path style="opacity:1" fill="#f1f9f9" d="M 147.5,357.5 C 176.167,357.5 204.833,357.5 233.5,357.5C 233.5,368.833 233.5,380.167 233.5,391.5C 224.473,405.194 213.139,416.527 199.5,425.5C 194.679,427.048 190.012,426.715 185.5,424.5C 172.102,417.941 159.602,409.941 148,400.5C 147.5,386.171 147.333,371.837 147.5,357.5 Z"/></g>
<g><path style="opacity:1" fill="#f7bdb4" d="M 455.5,373.5 C 455.853,386.476 449.519,392.143 436.5,390.5C 424.914,391.899 418.914,386.899 418.5,375.5C 431.083,376.116 443.416,375.449 455.5,373.5 Z"/></g>
<g><path style="opacity:1" fill="#323243" d="M 454.5,398.5 C 454.5,430.833 454.5,463.167 454.5,495.5C 450.833,495.5 447.167,495.5 443.5,495.5C 443.5,473.167 443.5,450.833 443.5,428.5C 446.833,428.5 450.167,428.5 453.5,428.5C 453.173,418.319 453.506,408.319 454.5,398.5 Z"/></g>
<g><path style="opacity:1" fill="#f7d5cf" d="M 90.5,381.5 C 101.071,393.574 112.237,405.241 124,416.5C 124.249,418.668 123.416,420.335 121.5,421.5C 121.44,420.957 121.107,420.624 120.5,420.5C 114.479,422.846 108.479,425.18 102.5,427.5C 102.768,425.901 102.434,424.568 101.5,423.5C 88.289,414.296 75.9557,403.962 64.5,392.5C 72.8678,388.321 81.5345,384.655 90.5,381.5 Z"/></g>
<g><path style="opacity:1" fill="#deeaf0" d="M 264.5,424.5 C 251.833,424.5 239.167,424.5 226.5,424.5C 229.09,419.651 231.424,414.651 233.5,409.5C 235.491,406.863 237.491,404.196 239.5,401.5C 240.365,400.417 241.365,400.251 242.5,401C 250.866,407.924 258.199,415.758 264.5,424.5 Z"/></g>
<g><path style="opacity:1" fill="#e8659b" d="M 386.5,427.5 C 387.32,437.855 388.32,448.189 389.5,458.5C 388.532,456.393 388.198,454.059 388.5,451.5C 378.167,451.5 367.833,451.5 357.5,451.5C 357.143,443.292 355.809,435.292 353.5,427.5C 351.217,413.486 347.217,399.986 341.5,387C 353.495,386.5 365.495,386.333 377.5,386.5C 380.657,400.129 383.657,413.796 386.5,427.5 Z"/></g>
<g><path style="opacity:1" fill="#d15587" d="M 60.5,423.5 C 60.5,427.5 60.5,431.5 60.5,435.5C 59.5318,433.393 59.1984,431.059 59.5,428.5C 52.5,428.5 45.5,428.5 38.5,428.5C 38.8168,432.702 38.4834,436.702 37.5,440.5C 37.5,434.5 37.5,428.5 37.5,422.5C 38.5678,409.454 40.0678,396.454 42,383.5C 47.6345,390.136 53.6345,396.469 60,402.5C 60.4996,409.492 60.6663,416.492 60.5,423.5 Z"/></g>
<g><path style="opacity:1" fill="#b2cbd7" d="M 233.5,409.5 C 231.424,414.651 229.09,419.651 226.5,424.5C 222.51,429.126 218.51,433.793 214.5,438.5C 211.333,441.498 208,444.331 204.5,447C 199.167,449 193.833,449 188.5,447C 184.112,444.477 179.778,441.977 175.5,439.5C 168.23,433.404 161.063,427.07 154,420.5C 153.517,419.552 153.351,418.552 153.5,417.5C 157.666,420.417 161.999,423.084 166.5,425.5C 174.684,431.089 183.684,434.756 193.5,436.5C 202.104,435.863 209.437,432.53 215.5,426.5C 222.157,421.509 228.157,415.843 233.5,409.5 Z"/></g>
<g><path style="opacity:1" fill="#333244" d="M 101.5,423.5 C 102.434,424.568 102.768,425.901 102.5,427.5C 100.106,434.638 98.9391,441.971 99,449.5C 100.015,452.21 101.515,454.543 103.5,456.5C 108.671,445.486 114.338,434.82 120.5,424.5C 124.371,424.185 128.038,424.518 131.5,425.5C 128.566,430.368 125.9,435.368 123.5,440.5C 120.659,444.849 118.326,449.516 116.5,454.5C 114.895,457.378 113.561,460.378 112.5,463.5C 108.166,473.836 104.833,484.503 102.5,495.5C 90.5,495.5 78.5,495.5 66.5,495.5C 64.4424,481.879 62.7758,468.213 61.5,454.5C 61.2329,448.162 60.8995,441.829 60.5,435.5C 60.5,431.5 60.5,427.5 60.5,423.5C 63.8984,423.82 67.2317,423.487 70.5,422.5C 71.4525,420.488 73.1191,419.488 75.5,419.5C 78.4725,419.156 80.8058,420.156 82.5,422.5C 88.7985,423.496 95.1318,423.83 101.5,423.5 Z"/></g>
<g><path style="opacity:1" fill="#f4dbd5" d="M 121.5,421.5 C 121.443,422.609 121.11,423.609 120.5,424.5C 114.338,434.82 108.671,445.486 103.5,456.5C 101.515,454.543 100.015,452.21 99,449.5C 98.9391,441.971 100.106,434.638 102.5,427.5C 108.479,425.18 114.479,422.846 120.5,420.5C 121.107,420.624 121.44,420.957 121.5,421.5 Z"/></g>
<g><path style="opacity:1" fill="#323244" d="M 353.5,427.5 C 355.809,435.292 357.143,443.292 357.5,451.5C 358.833,466.167 358.833,480.833 357.5,495.5C 338.167,495.5 318.833,495.5 299.5,495.5C 296.863,484.247 292.863,473.581 287.5,463.5C 286.925,460.088 285.592,457.088 283.5,454.5C 281.251,448.995 278.251,443.995 274.5,439.5C 272.597,434.693 269.93,430.36 266.5,426.5C 270.338,425.761 274.338,425.594 278.5,426C 278.943,424.482 278.276,423.315 276.5,422.5C 280.667,422.167 284.833,421.833 289,421.5C 306.825,422.297 324.658,422.63 342.5,422.5C 342.5,423.833 342.5,425.167 342.5,426.5C 346.215,426.423 349.881,426.756 353.5,427.5 Z"/></g>
<g><path style="opacity:1" fill="#333244" d="M 27.5,422.5 C 30.8333,422.5 34.1667,422.5 37.5,422.5C 37.5,428.5 37.5,434.5 37.5,440.5C 37.1734,449.682 37.5067,458.682 38.5,467.5C 38.6377,476.876 39.3043,486.209 40.5,495.5C 36.8333,495.5 33.1667,495.5 29.5,495.5C 26.5944,471.23 25.9277,446.897 27.5,422.5 Z"/></g>
<g><path style="opacity:1" fill="#333445" d="M 185.5,424.5 C 190.012,426.715 194.679,427.048 199.5,425.5C 205.026,425.179 210.36,425.512 215.5,426.5C 209.437,432.53 202.104,435.863 193.5,436.5C 183.684,434.756 174.684,431.089 166.5,425.5C 172.645,424.51 178.978,424.177 185.5,424.5 Z"/></g>
<g><path style="opacity:1" fill="#e3f0f1" d="M 153.5,417.5 C 153.351,418.552 153.517,419.552 154,420.5C 161.063,427.07 168.23,433.404 175.5,439.5C 158.09,439.181 140.756,439.515 123.5,440.5C 125.9,435.368 128.566,430.368 131.5,425.5C 135.067,420.057 138.9,414.724 143,409.5C 146.376,412.383 149.876,415.049 153.5,417.5 Z"/></g>
<g><path style="opacity:1" fill="#e5f2f2" d="M 226.5,424.5 C 239.167,424.5 251.833,424.5 264.5,424.5C 265.167,425.167 265.833,425.833 266.5,426.5C 269.93,430.36 272.597,434.693 274.5,439.5C 254.326,439.83 234.326,439.497 214.5,438.5C 218.51,433.793 222.51,429.126 226.5,424.5 Z"/></g>
<g><path style="opacity:1" fill="#333244" d="M 386.5,427.5 C 389.833,427.5 393.167,427.5 396.5,427.5C 400.172,449.213 401.339,471.213 400,493.5C 396.851,495.362 393.351,496.029 389.5,495.5C 389.5,483.167 389.5,470.833 389.5,458.5C 388.32,448.189 387.32,437.855 386.5,427.5 Z"/></g>
<g><path style="opacity:1" fill="#313243" d="M 431.5,428.5 C 431.5,449.5 431.5,470.5 431.5,491.5C 428.167,491.5 424.833,491.5 421.5,491.5C 421.5,470.167 421.5,448.833 421.5,427.5C 424.86,427.616 428.193,427.949 431.5,428.5 Z"/></g>
<g><path style="opacity:1" fill="#eaf2f9" d="M 214.5,438.5 C 234.326,439.497 254.326,439.83 274.5,439.5C 278.251,443.995 281.251,448.995 283.5,454.5C 227.833,453.167 172.167,453.167 116.5,454.5C 118.326,449.516 120.659,444.849 123.5,440.5C 140.756,439.515 158.09,439.181 175.5,439.5C 179.778,441.977 184.112,444.477 188.5,447C 193.833,449 199.167,449 204.5,447C 208,444.331 211.333,441.498 214.5,438.5 Z"/></g>
<g><path style="opacity:1" fill="#e16196" d="M 60.5,435.5 C 60.8995,441.829 61.2329,448.162 61.5,454.5C 54.1081,452.586 46.4415,451.919 38.5,452.5C 38.5,457.5 38.5,462.5 38.5,467.5C 37.5067,458.682 37.1734,449.682 37.5,440.5C 38.4834,436.702 38.8168,432.702 38.5,428.5C 45.5,428.5 52.5,428.5 59.5,428.5C 59.1984,431.059 59.5318,433.393 60.5,435.5 Z"/></g>
<g><path style="opacity:1" fill="#f26fa1" d="M 357.5,451.5 C 367.833,451.5 378.167,451.5 388.5,451.5C 388.198,454.059 388.532,456.393 389.5,458.5C 389.5,470.833 389.5,483.167 389.5,495.5C 378.833,495.5 368.167,495.5 357.5,495.5C 358.833,480.833 358.833,466.167 357.5,451.5 Z"/></g>
<g><path style="opacity:1" fill="#ecf9f9" d="M 283.5,454.5 C 285.592,457.088 286.925,460.088 287.5,463.5C 229.167,463.5 170.833,463.5 112.5,463.5C 113.561,460.378 114.895,457.378 116.5,454.5C 172.167,453.167 227.833,453.167 283.5,454.5 Z"/></g>
<g><path style="opacity:1" fill="#f2f9f9" d="M 112.5,463.5 C 170.833,463.5 229.167,463.5 287.5,463.5C 292.863,473.581 296.863,484.247 299.5,495.5C 233.833,495.5 168.167,495.5 102.5,495.5C 104.833,484.503 108.166,473.836 112.5,463.5 Z"/></g>
<g><path style="opacity:1" fill="#df615a" d="M 443.5,428.5 C 443.5,450.833 443.5,473.167 443.5,495.5C 439.5,495.5 435.5,495.5 431.5,495.5C 431.5,494.167 431.5,492.833 431.5,491.5C 431.5,470.5 431.5,449.5 431.5,428.5C 431.5,419.167 431.5,409.833 431.5,400.5C 435.5,400.5 439.5,400.5 443.5,400.5C 443.5,409.833 443.5,419.167 443.5,428.5 Z"/></g>
<g><path style="opacity:1" fill="#ee6c65" d="M 432.5,401.5 C 435.833,401.5 439.167,401.5 442.5,401.5C 442.5,417.167 442.5,432.833 442.5,448.5C 439.167,448.5 435.833,448.5 432.5,448.5C 432.5,432.833 432.5,417.167 432.5,401.5 Z"/></g>
<g><path style="opacity:1" fill="#f06da0" d="M 61.5,454.5 C 62.7758,468.213 64.4424,481.879 66.5,495.5C 57.8333,495.5 49.1667,495.5 40.5,495.5C 39.3043,486.209 38.6377,476.876 38.5,467.5C 38.5,462.5 38.5,457.5 38.5,452.5C 46.4415,451.919 54.1081,452.586 61.5,454.5 Z"/></g>
</svg>
