<?xml version="1.0" encoding="UTF-8"?>
<!DOCTYPE svg PUBLIC "-//W3C//DTD SVG 1.1//EN" "http://www.w3.org/Graphics/SVG/1.1/DTD/svg11.dtd">
<svg xmlns="http://www.w3.org/2000/svg" version="1.1" width="512px" height="512px" style="shape-rendering:geometricPrecision; text-rendering:geometricPrecision; image-rendering:optimizeQuality; fill-rule:evenodd; clip-rule:evenodd" xmlns:xlink="http://www.w3.org/1999/xlink">
<g><path style="opacity:1" fill="#744242" d="M 46.5,111.5 C 38.8203,119.685 31.6537,128.352 25,137.5C 24.3292,136.748 23.4959,136.414 22.5,136.5C 13.9558,121.778 12.2892,106.278 17.5,90C 14.204,75.9328 13.704,61.7661 16,47.5C 19.4589,33.5509 27.4589,23.2175 40,16.5C 44.948,19.8062 47.948,24.4728 49,30.5C 51.374,41.0858 50.2073,51.2525 45.5,61C 53.205,76.6725 51.8716,91.5058 41.5,105.5C 43.1897,107.519 44.8564,109.519 46.5,111.5 Z"/></g>
<g><path style="opacity:1" fill="#915353" d="M 257.5,116.5 C 257.315,111.393 256.482,106.393 255,101.5C 250.833,93.8282 246.166,86.4948 241,79.5C 237.683,73.8825 235.35,67.8825 234,61.5C 232.956,68.2469 230.789,74.5803 227.5,80.5C 210.7,63.5328 194.034,46.3661 177.5,29C 178.056,28.6174 178.389,28.1174 178.5,27.5C 180.562,26.2237 182.896,25.3903 185.5,25C 199.372,22.5865 212.705,24.2532 225.5,30C 228.98,32.6458 232.314,35.4791 235.5,38.5C 252.482,35.2465 263.649,41.9132 269,58.5C 275.572,80.0495 271.738,99.3829 257.5,116.5 Z"/></g>
<g><path style="opacity:1" fill="#895151" d="M 178.5,27.5 C 178.389,28.1174 178.056,28.6174 177.5,29C 194.034,46.3661 210.7,63.5328 227.5,80.5C 225.518,83.8103 223.185,86.8103 220.5,89.5C 203.76,70.5884 186.427,52.0884 168.5,34C 169.056,33.6174 169.389,33.1174 169.5,32.5C 172.008,30.0764 175.008,28.4097 178.5,27.5 Z"/></g>
<g><path style="opacity:1" fill="#844b4b" d="M 169.5,32.5 C 169.389,33.1174 169.056,33.6174 168.5,34C 186.427,52.0884 203.76,70.5884 220.5,89.5C 214.413,96.25 207.413,101.917 199.5,106.5C 196.73,109.257 194.396,112.257 192.5,115.5C 192.649,114.448 192.483,113.448 192,112.5C 177.167,97 162.333,81.5 147.5,66C 146.906,65.5357 146.239,65.369 145.5,65.5C 149.856,51.7623 157.856,40.7623 169.5,32.5 Z"/></g>
<g><path style="opacity:1" fill="#e6cbc5" d="M 257.5,116.5 C 257.54,119.881 257.207,123.214 256.5,126.5C 254.265,126.795 252.265,126.461 250.5,125.5C 251.875,119.063 249.209,116.896 242.5,119C 240.081,120.509 239.081,122.675 239.5,125.5C 235.5,125.5 231.5,125.5 227.5,125.5C 228.305,120.475 226.139,118.142 221,118.5C 216.914,118.42 215.081,120.42 215.5,124.5C 207.35,125.493 199.017,125.826 190.5,125.5C 190.5,124.5 190.5,123.5 190.5,122.5C 190.767,120.035 191.434,117.701 192.5,115.5C 194.396,112.257 196.73,109.257 199.5,106.5C 207.413,101.917 214.413,96.25 220.5,89.5C 223.185,86.8103 225.518,83.8103 227.5,80.5C 230.789,74.5803 232.956,68.2469 234,61.5C 235.35,67.8825 237.683,73.8825 241,79.5C 246.166,86.4948 250.833,93.8282 255,101.5C 256.482,106.393 257.315,111.393 257.5,116.5 Z"/></g>
<g><path style="opacity:1" fill="#7c4343" d="M 145.5,65.5 C 146.239,65.369 146.906,65.5357 147.5,66C 162.333,81.5 177.167,97 192,112.5C 192.483,113.448 192.649,114.448 192.5,115.5C 191.434,117.701 190.767,120.035 190.5,122.5C 189.345,129.68 189.345,137.013 190.5,144.5C 190.529,148.64 191.196,152.64 192.5,156.5C 186.539,155.79 181.039,153.79 176,150.5C 175.826,155.684 175.326,160.684 174.5,165.5C 174.828,160.125 174.495,154.792 173.5,149.5C 165.925,145.588 159.592,140.254 154.5,133.5C 154.158,132.662 153.492,132.328 152.5,132.5C 140.624,111.227 138.291,88.8935 145.5,65.5 Z"/></g>
<g><path style="opacity:1" fill="#d4736e" d="M 227.5,125.5 C 223.311,128.251 219.311,127.917 215.5,124.5C 215.081,120.42 216.914,118.42 221,118.5C 226.139,118.142 228.305,120.475 227.5,125.5 Z"/></g>
<g><path style="opacity:1" fill="#d5746e" d="M 250.5,125.5 C 246.763,128.077 243.097,128.077 239.5,125.5C 239.081,122.675 240.081,120.509 242.5,119C 249.209,116.896 251.875,119.063 250.5,125.5 Z"/></g>
<g><path style="opacity:1" fill="#e6beb6" d="M 190.5,122.5 C 190.5,123.5 190.5,124.5 190.5,125.5C 199.017,125.826 207.35,125.493 215.5,124.5C 219.311,127.917 223.311,128.251 227.5,125.5C 231.5,125.5 235.5,125.5 239.5,125.5C 243.097,128.077 246.763,128.077 250.5,125.5C 252.265,126.461 254.265,126.795 256.5,126.5C 255.961,132.943 254.961,139.276 253.5,145.5C 232.51,144.709 211.51,144.375 190.5,144.5C 189.345,137.013 189.345,129.68 190.5,122.5 Z"/></g>
<g><path style="opacity:1" fill="#663939" d="M 46.5,111.5 C 51.3953,119.181 54.7286,127.515 56.5,136.5C 64.0549,138.277 70.7215,141.611 76.5,146.5C 68.9197,153.61 62.2531,161.61 56.5,170.5C 36.1457,168.146 24.8123,156.812 22.5,136.5C 23.4959,136.414 24.3292,136.748 25,137.5C 31.6537,128.352 38.8203,119.685 46.5,111.5 Z"/></g>
<g><path style="opacity:1" fill="#563232" d="M 152.5,132.5 C 153.492,132.328 154.158,132.662 154.5,133.5C 143.249,147.683 132.249,162.016 121.5,176.5C 116.663,177.62 111.663,177.62 106.5,176.5C 101.558,178.296 96.5583,180.129 91.5,182C 78.5635,184.467 67.8968,180.8 59.5,171C 58.552,170.517 57.552,170.351 56.5,170.5C 62.2531,161.61 68.9197,153.61 76.5,146.5C 79.0562,147.543 81.2228,149.21 83,151.5C 93.6844,145.163 105.018,143.829 117,147.5C 127.254,138.911 139.088,133.911 152.5,132.5 Z"/></g>
<g><path style="opacity:1" fill="#4c2b2b" d="M 154.5,133.5 C 159.592,140.254 165.925,145.588 173.5,149.5C 174.495,154.792 174.828,160.125 174.5,165.5C 173.508,165.328 172.842,165.662 172.5,166.5C 164.869,167.564 157.202,167.731 149.5,167C 146.851,166.548 144.351,165.714 142,164.5C 137.597,172.458 130.764,176.458 121.5,176.5C 132.249,162.016 143.249,147.683 154.5,133.5 Z"/></g>
<g><path style="opacity:1" fill="#d4716b" d="M 192.5,156.5 C 195.167,159.833 198.167,162.833 201.5,165.5C 205.659,168.747 209.992,171.747 214.5,174.5C 214.5,178.833 214.5,183.167 214.5,187.5C 200.576,183.852 186.576,180.519 172.5,177.5C 172.5,173.833 172.5,170.167 172.5,166.5C 172.842,165.662 173.508,165.328 174.5,165.5C 175.326,160.684 175.826,155.684 176,150.5C 181.039,153.79 186.539,155.79 192.5,156.5 Z"/></g>
<g><path style="opacity:1" fill="#e6b0a6" d="M 190.5,144.5 C 211.51,144.375 232.51,144.709 253.5,145.5C 253.285,152.803 251.285,159.47 247.5,165.5C 232.167,165.5 216.833,165.5 201.5,165.5C 198.167,162.833 195.167,159.833 192.5,156.5C 191.196,152.64 190.529,148.64 190.5,144.5 Z"/></g>
<g><path style="opacity:1" fill="#e6a79c" d="M 201.5,165.5 C 216.833,165.5 232.167,165.5 247.5,165.5C 239.588,179.339 228.588,182.339 214.5,174.5C 209.992,171.747 205.659,168.747 201.5,165.5 Z"/></g>
<g><path style="opacity:1" fill="#e6bcb4" d="M 172.5,177.5 C 186.576,180.519 200.576,183.852 214.5,187.5C 214.5,190.5 214.5,193.5 214.5,196.5C 214.5,203.833 214.5,211.167 214.5,218.5C 213.509,212.021 213.176,205.354 213.5,198.5C 200.5,198.5 187.5,198.5 174.5,198.5C 173.011,194.764 172.344,190.764 172.5,186.5C 172.5,183.5 172.5,180.5 172.5,177.5 Z"/></g>
<g><path style="opacity:1" fill="#e7b0a7" d="M 174.5,198.5 C 187.5,198.5 200.5,198.5 213.5,198.5C 213.176,205.354 213.509,212.021 214.5,218.5C 214.5,223.5 214.5,228.5 214.5,233.5C 214.5,236.833 214.5,240.167 214.5,243.5C 208.538,240.852 202.871,237.686 197.5,234C 193.298,229.63 188.964,225.463 184.5,221.5C 179.82,214.468 176.486,206.801 174.5,198.5 Z"/></g>
<g><path style="opacity:1" fill="#e7cbc5" d="M 220.5,200.5 C 233.926,203.698 246.926,208.198 259.5,214C 263.418,215.156 267.418,215.656 271.5,215.5C 269.882,225.757 268.882,236.09 268.5,246.5C 262.271,241.943 256.604,236.609 251.5,230.5C 247.753,226.744 243.753,223.41 239.5,220.5C 233.869,213.202 227.536,206.535 220.5,200.5 Z"/></g>
<g><path style="opacity:1" fill="#b9746d" d="M 367.5,205.5 C 362.971,218.421 358.637,231.421 354.5,244.5C 348.694,242.898 343.027,240.898 337.5,238.5C 333.566,232.295 329.899,225.962 326.5,219.5C 324.875,215.457 323.542,211.29 322.5,207C 322.598,204.127 323.932,202.127 326.5,201C 340.454,200.954 354.12,202.454 367.5,205.5 Z"/></g>
<g><path style="opacity:1" fill="#e7e0d5" d="M 172.5,186.5 C 172.344,190.764 173.011,194.764 174.5,198.5C 176.486,206.801 179.82,214.468 184.5,221.5C 173.824,221.254 163.158,220.754 152.5,220C 148.843,219.95 145.51,219.117 142.5,217.5C 140.983,211.471 138.65,205.804 135.5,200.5C 148.946,198.576 161.28,193.91 172.5,186.5 Z"/></g>
<g><path style="opacity:1" fill="#be7d75" d="M 367.5,205.5 C 375.989,206.531 384.323,208.198 392.5,210.5C 388.774,222.845 384.941,235.179 381,247.5C 379.989,248.337 378.822,248.67 377.5,248.5C 369.6,248.277 361.933,246.944 354.5,244.5C 358.637,231.421 362.971,218.421 367.5,205.5 Z"/></g>
<g><path style="opacity:1" fill="#e7c4bc" d="M 135.5,200.5 C 138.65,205.804 140.983,211.471 142.5,217.5C 142.629,219.216 142.962,220.883 143.5,222.5C 141.337,229.163 138.337,235.496 134.5,241.5C 123.86,236.18 113.193,230.847 102.5,225.5C 101.702,225.043 101.369,224.376 101.5,223.5C 107.738,214.432 115.738,207.266 125.5,202C 128.726,200.801 132.059,200.301 135.5,200.5 Z"/></g>
<g><path style="opacity:1" fill="#e7bcb5" d="M 271.5,215.5 C 276.07,216.441 280.737,216.774 285.5,216.5C 285.5,227.5 285.5,238.5 285.5,249.5C 281.154,249.666 276.821,249.499 272.5,249C 270.68,248.8 269.347,247.966 268.5,246.5C 268.882,236.09 269.882,225.757 271.5,215.5 Z"/></g>
<g><path style="opacity:1" fill="#e7b1a8" d="M 285.5,216.5 C 291.301,217.08 296.968,217.747 302.5,218.5C 300.517,229.152 301.517,239.486 305.5,249.5C 298.833,249.5 292.167,249.5 285.5,249.5C 285.5,238.5 285.5,227.5 285.5,216.5 Z"/></g>
<g><path style="opacity:1" fill="#c48880" d="M 392.5,210.5 C 409.433,214.233 426.099,218.9 442.5,224.5C 440.521,232.708 439.521,241.041 439.5,249.5C 418.66,249.831 397.993,249.497 377.5,248.5C 378.822,248.67 379.989,248.337 381,247.5C 384.941,235.179 388.774,222.845 392.5,210.5 Z"/></g>
<g><path style="opacity:1" fill="#d3e0e6" d="M 302.5,218.5 C 308.358,218.178 314.025,218.511 319.5,219.5C 321.513,230.36 325.847,240.193 332.5,249C 323.506,249.5 314.506,249.666 305.5,249.5C 301.517,239.486 300.517,229.152 302.5,218.5 Z"/></g>
<g><path style="opacity:1" fill="#9eb5c7" d="M 319.5,219.5 C 321.833,219.5 324.167,219.5 326.5,219.5C 329.899,225.962 333.566,232.295 337.5,238.5C 343.96,248.963 352.627,256.963 363.5,262.5C 346.833,262.5 330.167,262.5 313.5,262.5C 310.07,258.64 307.403,254.307 305.5,249.5C 314.506,249.666 323.506,249.5 332.5,249C 325.847,240.193 321.513,230.36 319.5,219.5 Z"/></g>
<g><path style="opacity:1" fill="#d3716b" d="M 143.5,222.5 C 143.5,222.833 143.5,223.167 143.5,223.5C 144.033,232.075 142.866,240.408 140,248.5C 135.225,257.739 129.725,266.405 123.5,274.5C 121.303,270.762 118.636,267.429 115.5,264.5C 121.456,256.542 127.789,248.875 134.5,241.5C 138.337,235.496 141.337,229.163 143.5,222.5 Z"/></g>
<g><path style="opacity:1" fill="#e7b8b1" d="M 442.5,224.5 C 449.979,225.064 457.313,225.731 464.5,226.5C 464.111,234.164 463.778,241.83 463.5,249.5C 455.5,249.5 447.5,249.5 439.5,249.5C 439.521,241.041 440.521,232.708 442.5,224.5 Z"/></g>
<g><path style="opacity:1" fill="#d4726d" d="M 239.5,220.5 C 243.753,223.41 247.753,226.744 251.5,230.5C 256.604,236.609 262.271,241.943 268.5,246.5C 269.347,247.966 270.68,248.8 272.5,249C 276.821,249.499 281.154,249.666 285.5,249.5C 292.167,249.5 298.833,249.5 305.5,249.5C 307.403,254.307 310.07,258.64 313.5,262.5C 296.167,262.5 278.833,262.5 261.5,262.5C 256.828,247.157 249.494,233.157 239.5,220.5 Z"/></g>
<g><path style="opacity:1" fill="#e7c7c0" d="M 464.5,226.5 C 490.195,224.87 500.861,236.87 496.5,262.5C 484.871,263.738 475.538,259.738 468.5,250.5C 466.955,249.548 465.288,249.215 463.5,249.5C 463.778,241.83 464.111,234.164 464.5,226.5 Z"/></g>
<g><path style="opacity:1" fill="#a97d6b" d="M 143.5,223.5 C 144.776,225.562 145.61,227.896 146,230.5C 147.398,244.443 145.232,257.776 139.5,270.5C 133.906,278.359 129.906,287.026 127.5,296.5C 125.625,301.206 124.625,306.206 124.5,311.5C 120.833,306.833 117.167,302.167 113.5,297.5C 116.575,289.686 119.909,282.02 123.5,274.5C 129.725,266.405 135.225,257.739 140,248.5C 142.866,240.408 144.033,232.075 143.5,223.5 Z"/></g>
<g><path style="opacity:1" fill="#e7b5ae" d="M 101.5,223.5 C 101.369,224.376 101.702,225.043 102.5,225.5C 113.193,230.847 123.86,236.18 134.5,241.5C 127.789,248.875 121.456,256.542 115.5,264.5C 115.167,264.5 114.833,264.5 114.5,264.5C 106.221,256.856 96.5541,251.523 85.5,248.5C 88.1476,242.538 91.3143,236.871 95,231.5C 96.9461,228.58 99.1128,225.913 101.5,223.5 Z"/></g>
<g><path style="opacity:1" fill="#e4d7cd" d="M 142.5,217.5 C 145.51,219.117 148.843,219.95 152.5,220C 163.158,220.754 173.824,221.254 184.5,221.5C 188.964,225.463 193.298,229.63 197.5,234C 202.871,237.686 208.538,240.852 214.5,243.5C 218.949,251.519 221.615,260.186 222.5,269.5C 222.5,271.833 222.5,274.167 222.5,276.5C 197.829,275.315 173.162,273.981 148.5,272.5C 145.087,272.483 142.087,271.816 139.5,270.5C 145.232,257.776 147.398,244.443 146,230.5C 145.61,227.896 144.776,225.562 143.5,223.5C 143.5,223.167 143.5,222.833 143.5,222.5C 142.962,220.883 142.629,219.216 142.5,217.5 Z"/></g>
<g><path style="opacity:1" fill="#a97e6c" d="M 214.5,233.5 C 225.136,245.787 231.136,260.12 232.5,276.5C 232.963,285.027 231.963,293.36 229.5,301.5C 225.359,309.758 220.193,317.424 214,324.5C 208.211,333.727 205.044,343.727 204.5,354.5C 200.833,354.5 197.167,354.5 193.5,354.5C 197.023,337.786 204.523,323.119 216,310.5C 217.454,307.929 218.62,305.262 219.5,302.5C 223.266,291.647 224.266,280.647 222.5,269.5C 221.615,260.186 218.949,251.519 214.5,243.5C 214.5,240.167 214.5,236.833 214.5,233.5 Z"/></g>
<g><path style="opacity:1" fill="#9e5e5e" d="M 337.5,238.5 C 343.027,240.898 348.694,242.898 354.5,244.5C 361.933,246.944 369.6,248.277 377.5,248.5C 397.993,249.497 418.66,249.831 439.5,249.5C 439.232,254.5 440.232,259.166 442.5,263.5C 449.321,264.167 455.988,264.833 462.5,265.5C 433.165,265.667 403.831,265.5 374.5,265C 370.779,264.319 367.113,263.486 363.5,262.5C 352.627,256.963 343.96,248.963 337.5,238.5 Z"/></g>
<g><path style="opacity:1" fill="#d3e0e6" d="M 85.5,248.5 C 96.5541,251.523 106.221,256.856 114.5,264.5C 111.947,269.938 109.113,275.271 106,280.5C 96.9328,274.644 87.0995,270.644 76.5,268.5C 78.9479,261.603 81.9479,254.936 85.5,248.5 Z"/></g>
<g><path style="opacity:1" fill="#d4726c" d="M 439.5,249.5 C 447.5,249.5 455.5,249.5 463.5,249.5C 465.288,249.215 466.955,249.548 468.5,250.5C 475.538,259.738 484.871,263.738 496.5,262.5C 496.015,268.305 493.015,272.138 487.5,274C 482.079,274.839 476.746,274.506 471.5,273C 468.894,269.882 465.894,267.382 462.5,265.5C 455.988,264.833 449.321,264.167 442.5,263.5C 440.232,259.166 439.232,254.5 439.5,249.5 Z"/></g>
<g><path style="opacity:1" fill="#e4d6ce" d="M 214.5,196.5 C 216.772,197.441 218.772,198.774 220.5,200.5C 227.536,206.535 233.869,213.202 239.5,220.5C 249.494,233.157 256.828,247.157 261.5,262.5C 263.142,268.045 264.142,273.711 264.5,279.5C 253.815,278.721 243.149,277.721 232.5,276.5C 231.136,260.12 225.136,245.787 214.5,233.5C 214.5,228.5 214.5,223.5 214.5,218.5C 214.5,211.167 214.5,203.833 214.5,196.5 Z"/></g>
<g><path style="opacity:1" fill="#9eb5c8" d="M 114.5,264.5 C 114.833,264.5 115.167,264.5 115.5,264.5C 118.636,267.429 121.303,270.762 123.5,274.5C 119.909,282.02 116.575,289.686 113.5,297.5C 106.692,313.259 101.692,329.593 98.5,346.5C 92.5106,344.173 86.5106,341.84 80.5,339.5C 72.5964,336.525 64.5964,333.858 56.5,331.5C 57.3686,329.283 57.702,326.95 57.5,324.5C 66.4568,326.492 75.4568,327.992 84.5,329C 88.9909,326.524 91.3243,322.691 91.5,317.5C 81.8001,313.646 71.8001,310.98 61.5,309.5C 61.7556,306.402 62.4222,303.402 63.5,300.5C 74.1197,302.029 84.2863,305.029 94,309.5C 97.1681,302.663 99.5014,295.663 101,288.5C 92.6701,282.778 83.5034,279.111 73.5,277.5C 73.5,276.5 73.5,275.5 73.5,274.5C 73.9925,272.181 74.9925,270.181 76.5,268.5C 87.0995,270.644 96.9328,274.644 106,280.5C 109.113,275.271 111.947,269.938 114.5,264.5 Z"/></g>
<g><path style="opacity:1" fill="#e0cdc6" d="M 222.5,269.5 C 224.266,280.647 223.266,291.647 219.5,302.5C 190.824,301.259 162.157,299.759 133.5,298C 131.292,297.809 129.292,297.309 127.5,296.5C 129.906,287.026 133.906,278.359 139.5,270.5C 142.087,271.816 145.087,272.483 148.5,272.5C 173.162,273.981 197.829,275.315 222.5,276.5C 222.5,274.167 222.5,271.833 222.5,269.5 Z"/></g>
<g><path style="opacity:1" fill="#d3e0e6" d="M 73.5,274.5 C 73.5,275.5 73.5,276.5 73.5,277.5C 83.5034,279.111 92.6701,282.778 101,288.5C 99.5014,295.663 97.1681,302.663 94,309.5C 84.2863,305.029 74.1197,302.029 63.5,300.5C 66.2647,291.528 69.598,282.861 73.5,274.5 Z"/></g>
<g><path style="opacity:1" fill="#e0cdc6" d="M 232.5,276.5 C 243.149,277.721 253.815,278.721 264.5,279.5C 265.62,289.466 262.953,298.133 256.5,305.5C 249.068,304.698 241.568,304.032 234,303.5C 232.014,303.431 230.514,302.765 229.5,301.5C 231.963,293.36 232.963,285.027 232.5,276.5 Z"/></g>
<g><path style="opacity:1" fill="#dec5be" d="M 127.5,296.5 C 129.292,297.309 131.292,297.809 133.5,298C 162.157,299.759 190.824,301.259 219.5,302.5C 218.62,305.262 217.454,307.929 216,310.5C 204.523,323.119 197.023,337.786 193.5,354.5C 175.151,354.703 156.818,354.369 138.5,353.5C 138.666,346.825 138.5,340.158 138,333.5C 134.255,325.67 129.755,318.337 124.5,311.5C 124.625,306.206 125.625,301.206 127.5,296.5 Z"/></g>
<g><path style="opacity:1" fill="#ddc5bd" d="M 229.5,301.5 C 230.514,302.765 232.014,303.431 234,303.5C 241.568,304.032 249.068,304.698 256.5,305.5C 253.538,308.964 250.371,312.297 247,315.5C 244.148,319.204 241.815,323.204 240,327.5C 238.661,336.107 238.161,344.774 238.5,353.5C 227.181,354.222 215.848,354.555 204.5,354.5C 205.044,343.727 208.211,333.727 214,324.5C 220.193,317.424 225.359,309.758 229.5,301.5 Z"/></g>
<g><path style="opacity:1" fill="#d2e0e6" d="M 61.5,309.5 C 71.8001,310.98 81.8001,313.646 91.5,317.5C 91.3243,322.691 88.9909,326.524 84.5,329C 75.4568,327.992 66.4568,326.492 57.5,324.5C 58.3877,319.276 59.7211,314.276 61.5,309.5 Z"/></g>
<g><path style="opacity:1" fill="#b9746c" d="M 56.5,331.5 C 64.5964,333.858 72.5964,336.525 80.5,339.5C 70.8063,349.86 60.8063,359.86 50.5,369.5C 48.9505,368.559 47.2838,367.893 45.5,367.5C 37.7482,358.227 30.9148,348.227 25,337.5C 24.284,332.208 26.6173,329.208 32,328.5C 40.2047,329.253 48.3714,330.253 56.5,331.5 Z"/></g>
<g><path style="opacity:1" fill="#37374a" d="M 345.5,385.5 C 338.365,383.072 331.031,381.406 323.5,380.5C 301.143,381.504 278.809,382.838 256.5,384.5C 255.209,384.737 254.209,384.404 253.5,383.5C 271.466,373.851 289.132,363.684 306.5,353C 327.056,344.79 347.722,344.457 368.5,352C 370.332,352.748 371.999,353.748 373.5,355C 363.961,365.037 354.627,375.203 345.5,385.5 Z"/></g>
<g><path style="opacity:1" fill="#bf8179" d="M 80.5,339.5 C 86.5106,341.84 92.5106,344.173 98.5,346.5C 107.623,352.086 115.623,359.086 122.5,367.5C 107.013,381.22 89.3465,384.72 69.5,378C 62.84,375.666 56.5067,372.832 50.5,369.5C 60.8063,359.86 70.8063,349.86 80.5,339.5 Z"/></g>
<g><path style="opacity:1" fill="#646495" d="M 138.5,353.5 C 156.818,354.369 175.151,354.703 193.5,354.5C 197.167,354.5 200.833,354.5 204.5,354.5C 215.848,354.555 227.181,354.222 238.5,353.5C 238.5,361.5 238.5,369.5 238.5,377.5C 214.655,381.073 190.655,382.407 166.5,381.5C 165.211,378.609 163.211,376.275 160.5,374.5C 156.637,371.802 152.304,370.969 147.5,372C 143.448,373.686 139.781,375.852 136.5,378.5C 137.255,370.178 137.922,361.845 138.5,353.5 Z"/></g>
<g><path style="opacity:1" fill="#9d5d5d" d="M 45.5,367.5 C 47.2838,367.893 48.9505,368.559 50.5,369.5C 56.5067,372.832 62.84,375.666 69.5,378C 89.3465,384.72 107.013,381.22 122.5,367.5C 126.564,371.947 129.898,376.947 132.5,382.5C 132.649,383.552 132.483,384.552 132,385.5C 128.15,389.207 125.317,393.54 123.5,398.5C 119.738,404.77 116.738,411.437 114.5,418.5C 113.292,417.766 111.959,417.433 110.5,417.5C 84.7692,406.101 63.1025,389.434 45.5,367.5 Z"/></g>
<g><path style="opacity:1" fill="#e6bdb6" d="M 160.5,374.5 C 157.267,388.997 154.267,403.664 151.5,418.5C 151.863,419.183 152.196,419.85 152.5,420.5C 144.519,418.343 137.186,414.843 130.5,410C 127.115,406.787 124.782,402.954 123.5,398.5C 125.317,393.54 128.15,389.207 132,385.5C 132.483,384.552 132.649,383.552 132.5,382.5C 134.167,381.5 135.5,380.167 136.5,378.5C 139.781,375.852 143.448,373.686 147.5,372C 152.304,370.969 156.637,371.802 160.5,374.5 Z"/></g>
<g><path style="opacity:1" fill="#39394d" d="M 238.5,377.5 C 238.5,378.833 238.5,380.167 238.5,381.5C 238.5,383.833 238.5,386.167 238.5,388.5C 215.596,391.207 192.596,392.207 169.5,391.5C 168.85,391.196 168.183,390.863 167.5,390.5C 166.516,387.572 166.183,384.572 166.5,381.5C 190.655,382.407 214.655,381.073 238.5,377.5 Z"/></g>
<g><path style="opacity:1" fill="#605f8f" d="M 238.5,381.5 C 243.47,382.353 248.47,383.02 253.5,383.5C 254.209,384.404 255.209,384.737 256.5,384.5C 253.833,393.167 251.167,401.833 248.5,410.5C 247.167,410.5 245.833,410.5 244.5,410.5C 244.158,409.662 243.492,409.328 242.5,409.5C 239.904,408.735 237.237,408.401 234.5,408.5C 230.766,408.323 227.099,408.656 223.5,409.5C 209.5,409.5 195.5,409.5 181.5,409.5C 180.292,401.627 176.292,395.627 169.5,391.5C 192.596,392.207 215.596,391.207 238.5,388.5C 238.5,386.167 238.5,383.833 238.5,381.5 Z"/></g>
<g><path style="opacity:1" fill="#50507c" d="M 323.5,380.5 C 331.031,381.406 338.365,383.072 345.5,385.5C 347.368,386.263 349.035,387.263 350.5,388.5C 345.671,403.654 340.671,418.654 335.5,433.5C 328.942,429.054 321.942,425.387 314.5,422.5C 314.196,421.85 313.863,421.183 313.5,420.5C 317.599,408.036 321.599,395.536 325.5,383C 324.944,381.989 324.278,381.156 323.5,380.5 Z"/></g>
<g><path style="opacity:1" fill="#555585" d="M 323.5,380.5 C 324.278,381.156 324.944,381.989 325.5,383C 321.599,395.536 317.599,408.036 313.5,420.5C 313.863,421.183 314.196,421.85 314.5,422.5C 307.94,420.359 301.273,418.526 294.5,417C 278.923,415.548 263.589,413.381 248.5,410.5C 251.167,401.833 253.833,393.167 256.5,384.5C 278.809,382.838 301.143,381.504 323.5,380.5 Z"/></g>
<g><path style="opacity:1" fill="#4b4b7c" d="M 350.5,388.5 C 357.435,391.139 363.102,395.472 367.5,401.5C 362.87,417.717 357.87,433.717 352.5,449.5C 347.463,443.462 341.797,438.129 335.5,433.5C 340.671,418.654 345.671,403.654 350.5,388.5 Z"/></g>
<g><path style="opacity:1" fill="#e6cac4" d="M 160.5,374.5 C 163.211,376.275 165.211,378.609 166.5,381.5C 166.183,384.572 166.516,387.572 167.5,390.5C 168.183,390.863 168.85,391.196 169.5,391.5C 176.292,395.627 180.292,401.627 181.5,409.5C 181.5,412.167 181.5,414.833 181.5,417.5C 172.512,424.318 162.845,425.318 152.5,420.5C 152.196,419.85 151.863,419.183 151.5,418.5C 154.267,403.664 157.267,388.997 160.5,374.5 Z"/></g>
<g><path style="opacity:1" fill="#d3706a" d="M 123.5,398.5 C 124.782,402.954 127.115,406.787 130.5,410C 137.186,414.843 144.519,418.343 152.5,420.5C 162.845,425.318 172.512,424.318 181.5,417.5C 180.224,422.718 177.891,427.385 174.5,431.5C 170.672,433.579 166.672,435.412 162.5,437C 155.054,438.056 148.054,436.722 141.5,433C 132.155,428.663 123.155,423.83 114.5,418.5C 116.738,411.437 119.738,404.77 123.5,398.5 Z"/></g>
<g><path style="opacity:1" fill="#4a4a75" d="M 367.5,401.5 C 373.414,407.092 377.748,413.759 380.5,421.5C 375.819,438.041 370.652,454.375 365,470.5C 361.829,462.811 357.662,455.811 352.5,449.5C 357.87,433.717 362.87,417.717 367.5,401.5 Z"/></g>
<g><path style="opacity:1" fill="#a97e6c" d="M 234.5,408.5 C 223.643,416.021 215.31,425.688 209.5,437.5C 206.786,434.785 203.786,432.451 200.5,430.5C 206.758,421.885 214.425,414.885 223.5,409.5C 227.099,408.656 230.766,408.323 234.5,408.5 Z"/></g>
<g><path style="opacity:1" fill="#a97e6b" d="M 110.5,417.5 C 111.959,417.433 113.292,417.766 114.5,418.5C 123.155,423.83 132.155,428.663 141.5,433C 148.054,436.722 155.054,438.056 162.5,437C 166.672,435.412 170.672,433.579 174.5,431.5C 164.578,444.307 151.911,448.14 136.5,443C 123.476,438.984 110.81,434.15 98.5,428.5C 102.5,424.833 106.5,421.167 110.5,417.5 Z"/></g>
<g><path style="opacity:1" fill="#e4d5cc" d="M 234.5,408.5 C 237.237,408.401 239.904,408.735 242.5,409.5C 242.842,410.338 243.508,410.672 244.5,410.5C 262.288,421.614 277.955,435.281 291.5,451.5C 290.378,452.156 289.045,452.489 287.5,452.5C 264.53,450.374 241.53,448.707 218.5,447.5C 215.529,444.192 212.529,440.859 209.5,437.5C 215.31,425.688 223.643,416.021 234.5,408.5 Z"/></g>
<g><path style="opacity:1" fill="#38384b" d="M 200.5,430.5 C 203.786,432.451 206.786,434.785 209.5,437.5C 212.529,440.859 215.529,444.192 218.5,447.5C 224.247,454.654 229.247,462.321 233.5,470.5C 237.092,482.086 244.425,490.086 255.5,494.5C 218.833,494.5 182.167,494.5 145.5,494.5C 162.472,491.525 174.472,482.192 181.5,466.5C 185.767,453.294 192.1,441.294 200.5,430.5 Z"/></g>
<g><path style="opacity:1" fill="#e1cfc7" d="M 181.5,409.5 C 195.5,409.5 209.5,409.5 223.5,409.5C 214.425,414.885 206.758,421.885 200.5,430.5C 192.1,441.294 185.767,453.294 181.5,466.5C 145.467,464.19 109.467,461.523 73.5,458.5C 80.3561,447.307 88.6895,437.307 98.5,428.5C 110.81,434.15 123.476,438.984 136.5,443C 151.911,448.14 164.578,444.307 174.5,431.5C 177.891,427.385 180.224,422.718 181.5,417.5C 181.5,414.833 181.5,412.167 181.5,409.5 Z"/></g>
<g><path style="opacity:1" fill="#e0cdc7" d="M 218.5,447.5 C 241.53,448.707 264.53,450.374 287.5,452.5C 289.045,452.489 290.378,452.156 291.5,451.5C 298.723,458.942 304.723,467.275 309.5,476.5C 284.144,474.652 258.811,472.652 233.5,470.5C 229.247,462.321 224.247,454.654 218.5,447.5 Z"/></g>
<g><path style="opacity:1" fill="#dec6bf" d="M 73.5,458.5 C 109.467,461.523 145.467,464.19 181.5,466.5C 174.472,482.192 162.472,491.525 145.5,494.5C 114.832,494.667 84.1649,494.5 53.5,494C 58.7873,481.245 65.4539,469.412 73.5,458.5 Z"/></g>
<g><path style="opacity:1" fill="#e0c7c0" d="M 233.5,470.5 C 258.811,472.652 284.144,474.652 309.5,476.5C 313.563,481.609 316.896,487.276 319.5,493.5C 298.177,494.5 276.844,494.833 255.5,494.5C 244.425,490.086 237.092,482.086 233.5,470.5 Z"/></g>
</svg>
