<?xml version="1.0" encoding="UTF-8"?>
<!DOCTYPE svg PUBLIC "-//W3C//DTD SVG 1.1//EN" "http://www.w3.org/Graphics/SVG/1.1/DTD/svg11.dtd">
<svg xmlns="http://www.w3.org/2000/svg" version="1.1" width="512px" height="512px" style="shape-rendering:geometricPrecision; text-rendering:geometricPrecision; image-rendering:optimizeQuality; fill-rule:evenodd; clip-rule:evenodd" xmlns:xlink="http://www.w3.org/1999/xlink">
<g><path style="opacity:1" fill="#3f3e50" d="M 241.5,181.5 C 231.167,181.5 220.833,181.5 210.5,181.5C 210.737,180.209 210.404,179.209 209.5,178.5C 202.195,174.712 195.862,169.545 190.5,163C 186.822,161.826 183.156,160.659 179.5,159.5C 178.509,166.313 178.175,173.313 178.5,180.5C 175.167,180.5 171.833,180.5 168.5,180.5C 168.5,176.5 168.5,172.5 168.5,168.5C 168.828,163.125 168.495,157.792 167.5,152.5C 162.721,149.224 158.388,145.391 154.5,141C 145.067,140.533 136.734,143.367 129.5,149.5C 137.209,156.703 146.209,161.536 156.5,164C 158.155,165.444 158.822,167.278 158.5,169.5C 158.67,170.822 158.337,171.989 157.5,173C 153.775,173.76 150.108,173.593 146.5,172.5C 135.534,182.784 122.7,186.117 108,182.5C 101.6,187.06 94.4338,189.06 86.5,188.5C 75.6115,189.039 66.6115,185.206 59.5,177C 37.2678,175.434 24.7678,163.601 22,141.5C 12.5979,125.925 10.4312,109.425 15.5,92C 11.3943,76.4355 11.561,60.9355 16,45.5C 20.5103,31.9903 29.0103,21.8237 41.5,15C 43.1667,14.3333 44.8333,14.3333 46.5,15C 56.8946,25.3947 60.728,37.8947 58,52.5C 57.4317,56.5366 56.265,60.3699 54.5,64C 60.6374,79.0362 59.6374,93.5362 51.5,107.5C 57.6108,115.154 61.6108,123.82 63.5,133.5C 71.9366,136.549 79.6033,140.883 86.5,146.5C 96.624,141.43 107.124,140.43 118,143.5C 126.239,137.13 135.406,132.463 145.5,129.5C 133.004,100.142 135.504,72.1418 153,45.5C 167.228,26.8603 186.061,19.3603 209.5,23C 220.476,23.9052 229.643,28.4052 237,36.5C 251.677,33.3929 262.677,38.3929 270,51.5C 281.239,75.9141 278.906,98.9141 263,120.5C 261.559,133.256 259.559,145.923 257,158.5C 254.38,167.941 249.213,175.608 241.5,181.5 Z"/></g>
<g><path style="opacity:1" fill="#875656" d="M 41.5,27.5 C 42.4959,27.4142 43.3292,27.7476 44,28.5C 45.2754,30.7173 46.2754,33.0506 47,35.5C 48.5184,44.6061 47.3518,53.2728 43.5,61.5C 36.5192,66.6473 30.3525,72.6473 25,79.5C 20.3477,58.73 25.8477,41.3966 41.5,27.5 Z"/></g>
<g><path style="opacity:1" fill="#a26465" d="M 226.5,74.5 C 221.26,70.767 216.426,66.4337 212,61.5C 203.627,52.6295 195.46,43.6295 187.5,34.5C 196.821,33.2722 206.154,33.4389 215.5,35C 222.013,37.5246 227.347,41.5246 231.5,47C 237.147,46.7005 242.814,46.7005 248.5,47C 252.813,48.3062 256.313,50.8062 259,54.5C 268.484,70.6061 268.984,86.9394 260.5,103.5C 256.664,95.1723 251.83,87.5056 246,80.5C 242.574,73.8811 239.74,67.0478 237.5,60C 234.901,59.231 232.401,59.3977 230,60.5C 228.727,65.1368 227.56,69.8035 226.5,74.5 Z"/></g>
<g><path style="opacity:1" fill="#9b6363" d="M 187.5,34.5 C 195.46,43.6295 203.627,52.6295 212,61.5C 216.426,66.4337 221.26,70.767 226.5,74.5C 224.254,79.7268 221.254,84.3935 217.5,88.5C 203.511,71.8444 188.511,56.1778 172.5,41.5C 176.808,37.8478 181.808,35.5144 187.5,34.5 Z"/></g>
<g><path style="opacity:1" fill="#975c5c" d="M 172.5,41.5 C 188.511,56.1778 203.511,71.8444 217.5,88.5C 216.04,90.4628 214.373,92.2962 212.5,94C 205.673,98.3445 199.34,103.178 193.5,108.5C 180.872,94.7028 168.038,81.0362 155,67.5C 154.617,68.056 154.117,68.3893 153.5,68.5C 157.13,57.5638 163.464,48.5638 172.5,41.5 Z"/></g>
<g><path style="opacity:1" fill="#8e5556" d="M 193.5,108.5 C 189.959,112.915 187.459,117.915 186,123.5C 185.626,132.596 185.46,141.596 185.5,150.5C 163.938,141.733 151.771,125.733 149,102.5C 147.378,90.6149 148.878,79.2815 153.5,68.5C 154.117,68.3893 154.617,68.056 155,67.5C 168.038,81.0362 180.872,94.7028 193.5,108.5 Z"/></g>
<g><path style="opacity:1" fill="#835151" d="M 45.5,72.5 C 50.8469,87.7702 46.6803,99.7702 33,108.5C 30.0055,111.82 27.5055,115.487 25.5,119.5C 22.8841,112.175 23.0508,104.841 26,97.5C 31.0822,87.9716 37.5822,79.6383 45.5,72.5 Z"/></g>
<g><path style="opacity:1" fill="#f7ded7" d="M 251.5,112.5 C 251.5,114.167 251.5,115.833 251.5,117.5C 234.655,117.351 217.989,116.685 201.5,115.5C 208.247,109.613 215.247,103.946 222.5,98.5C 227.246,93.2549 231.412,87.5883 235,81.5C 238.504,87.8441 242.504,93.8441 247,99.5C 249.602,103.474 251.102,107.807 251.5,112.5 Z"/></g>
<g><path style="opacity:1" fill="#7a4e4e" d="M 41.5,114.5 C 43.6237,115.031 45.1237,116.365 46,118.5C 52.1984,128.218 54.0318,138.718 51.5,150C 51.3292,154.835 51.9958,159.502 53.5,164C 42.4612,162.295 35.9612,155.795 34,144.5C 31.8242,133.203 34.3242,123.203 41.5,114.5 Z"/></g>
<g><path style="opacity:1" fill="#df8681" d="M 251.5,122.5 C 251.795,124.735 251.461,126.735 250.5,128.5C 247.555,129.468 244.555,129.634 241.5,129C 239.409,122.001 242.075,119.334 249.5,121C 250.044,121.717 250.711,122.217 251.5,122.5 Z"/></g>
<g><path style="opacity:1" fill="#f8d4cd" d="M 251.5,112.5 C 252.782,115.731 252.782,119.064 251.5,122.5C 250.711,122.217 250.044,121.717 249.5,121C 242.075,119.334 239.409,122.001 241.5,129C 244.555,129.634 247.555,129.468 250.5,128.5C 250.702,130.95 250.369,133.283 249.5,135.5C 231.833,135.5 214.167,135.5 196.5,135.5C 196.5,132.5 196.5,129.5 196.5,126.5C 196.837,122.164 198.504,118.497 201.5,115.5C 217.989,116.685 234.655,117.351 251.5,117.5C 251.5,115.833 251.5,114.167 251.5,112.5 Z"/></g>
<g><path style="opacity:1" fill="#e28781" d="M 218.5,120.5 C 221.271,120.421 223.937,120.921 226.5,122C 228.978,123.938 229.145,126.105 227,128.5C 224.199,129.795 221.366,129.795 218.5,128.5C 215.848,125.799 215.848,123.132 218.5,120.5 Z"/></g>
<g><path style="opacity:1" fill="#f7cac2" d="M 196.5,126.5 C 196.5,129.5 196.5,132.5 196.5,135.5C 214.167,135.5 231.833,135.5 249.5,135.5C 249.118,142.811 247.785,149.811 245.5,156.5C 230.002,155.511 214.669,155.511 199.5,156.5C 198.883,156.389 198.383,156.056 198,155.5C 195.57,145.774 195.07,136.107 196.5,126.5 Z"/></g>
<g><path style="opacity:1" fill="#5e3e3e" d="M 168.5,168.5 C 165.236,169.324 161.902,169.658 158.5,169.5C 158.822,167.278 158.155,165.444 156.5,164C 146.209,161.536 137.209,156.703 129.5,149.5C 136.734,143.367 145.067,140.533 154.5,141C 158.388,145.391 162.721,149.224 167.5,152.5C 168.495,157.792 168.828,163.125 168.5,168.5 Z"/></g>
<g><path style="opacity:1" fill="#654243" d="M 99.5,152.5 C 105.678,152.107 111.678,152.94 117.5,155C 123.5,159 129.5,163 135.5,167C 132.676,169.613 129.342,171.279 125.5,172C 119.833,172.667 114.167,172.667 108.5,172C 103.646,166.647 98.9791,161.147 94.5,155.5C 96.3596,154.675 98.0262,153.675 99.5,152.5 Z"/></g>
<g><path style="opacity:1" fill="#e0837d" d="M 179.5,159.5 C 183.156,160.659 186.822,161.826 190.5,163C 195.862,169.545 202.195,174.712 209.5,178.5C 209.5,181.167 209.5,183.833 209.5,186.5C 199.357,184.798 189.357,182.464 179.5,179.5C 179.5,172.833 179.5,166.167 179.5,159.5 Z"/></g>
<g><path style="opacity:1" fill="#f7bdb3" d="M 245.5,156.5 C 243.836,165.868 238.502,171.868 229.5,174.5C 217.193,172.026 207.193,166.026 199.5,156.5C 214.669,155.511 230.002,155.511 245.5,156.5 Z"/></g>
<g><path style="opacity:1" fill="#6c4646" d="M 61.5,145.5 C 67.699,147.182 73.3657,150.015 78.5,154C 85.0192,161.018 91.3525,168.185 97.5,175.5C 72.8041,181.118 60.8041,171.118 61.5,145.5 Z"/></g>
<g><path style="opacity:1" fill="#403f4c" d="M 179.5,159.5 C 179.5,166.167 179.5,172.833 179.5,179.5C 177.944,190.694 179.944,201.028 185.5,210.5C 190.401,221.069 198.067,229.069 208.5,234.5C 209.499,220.85 209.833,207.183 209.5,193.5C 209.5,191.167 209.5,188.833 209.5,186.5C 209.5,183.833 209.5,181.167 209.5,178.5C 210.404,179.209 210.737,180.209 210.5,181.5C 220.833,181.5 231.167,181.5 241.5,181.5C 235.214,185.419 228.547,186.086 221.5,183.5C 220.341,187.122 220.175,190.789 221,194.5C 221.5,195 222,195.5 222.5,196C 236.011,199.281 249.011,203.948 261.5,210C 280.13,211.964 298.796,213.464 317.5,214.5C 316.426,210.371 315.426,206.204 314.5,202C 314.615,200.105 315.282,198.438 316.5,197C 344.997,196.642 372.997,200.309 400.5,208C 413.953,211.595 427.286,215.595 440.5,220C 451.493,220.777 462.493,221.444 473.5,222C 488.043,224.376 496.376,232.876 498.5,247.5C 494.833,247.5 491.167,247.5 487.5,247.5C 486.424,239.256 481.757,234.423 473.5,233C 465.324,232.64 457.157,232.14 449,231.5C 443.654,230.852 441.487,233.186 442.5,238.5C 441.527,240.948 441.194,243.615 441.5,246.5C 438.167,246.5 434.833,246.5 431.5,246.5C 431.376,240.401 432.043,234.401 433.5,228.5C 419.443,224.983 405.443,221.149 391.5,217C 383.209,215.175 374.876,213.675 366.5,212.5C 353.796,209.126 340.796,207.793 327.5,208.5C 331.366,221.915 338.033,233.582 347.5,243.5C 347.5,243.833 347.5,244.167 347.5,244.5C 343.298,244.183 339.298,244.517 335.5,245.5C 330.77,239.741 326.77,233.407 323.5,226.5C 322.311,225.571 320.978,225.238 319.5,225.5C 319.167,225.5 318.833,225.5 318.5,225.5C 314.366,224.515 310.032,224.182 305.5,224.5C 305.182,229.032 305.515,233.366 306.5,237.5C 307.167,240.167 307.833,242.833 308.5,245.5C 304.757,243.824 301.424,244.157 298.5,246.5C 295.945,239.176 294.945,231.509 295.5,223.5C 286.159,223.333 276.826,223 267.5,222.5C 258.044,220.735 249.044,217.902 240.5,214C 246.702,220.914 252.036,228.414 256.5,236.5C 257.227,238.954 258.227,241.287 259.5,243.5C 255.833,243.5 252.167,243.5 248.5,243.5C 241.783,230.439 232.783,219.106 221.5,209.5C 221.44,208.957 221.107,208.624 220.5,208.5C 219.181,215.99 219.181,223.323 220.5,230.5C 220.294,234.898 220.627,239.232 221.5,243.5C 215.401,242.194 209.401,242.194 203.5,243.5C 185.815,232.806 174.148,217.473 168.5,197.5C 160.781,200.733 153.114,203.733 145.5,206.5C 150.964,218.556 151.964,230.89 148.5,243.5C 146.012,241.612 143.012,240.945 139.5,241.5C 139.5,240.167 139.5,238.833 139.5,237.5C 141.903,226.971 140.237,217.138 134.5,208C 129.705,208.222 125.371,209.889 121.5,213C 116.898,217.094 112.898,221.594 109.5,226.5C 105.351,230.804 101.684,235.47 98.5,240.5C 94.6286,240.815 90.9619,240.482 87.5,239.5C 94.4038,225.222 104.07,213.055 116.5,203C 120.221,200.473 124.221,198.473 128.5,197C 142.383,196.113 155.383,192.28 167.5,185.5C 168.452,183.955 168.785,182.288 168.5,180.5C 171.833,180.5 175.167,180.5 178.5,180.5C 178.175,173.313 178.509,166.313 179.5,159.5 Z"/></g>
<g><path style="opacity:1" fill="#f9c9c0" d="M 179.5,179.5 C 189.357,182.464 199.357,184.798 209.5,186.5C 209.5,188.833 209.5,191.167 209.5,193.5C 208.511,198.975 208.178,204.642 208.5,210.5C 200.833,210.5 193.167,210.5 185.5,210.5C 179.944,201.028 177.944,190.694 179.5,179.5 Z"/></g>
<g><path style="opacity:1" fill="#cb8780" d="M 366.5,212.5 C 363.011,223.455 359.678,234.455 356.5,245.5C 357.791,245.263 358.791,245.596 359.5,246.5C 355.516,245.512 351.516,244.512 347.5,243.5C 338.033,233.582 331.366,221.915 327.5,208.5C 340.796,207.793 353.796,209.126 366.5,212.5 Z"/></g>
<g><path style="opacity:1" fill="#afa9aa" d="M 221.5,209.5 C 220.509,216.313 220.175,223.313 220.5,230.5C 219.181,223.323 219.181,215.99 220.5,208.5C 221.107,208.624 221.44,208.957 221.5,209.5 Z"/></g>
<g><path style="opacity:1" fill="#f6bdb3" d="M 209.5,193.5 C 209.833,207.183 209.499,220.85 208.5,234.5C 198.067,229.069 190.401,221.069 185.5,210.5C 193.167,210.5 200.833,210.5 208.5,210.5C 208.178,204.642 208.511,198.975 209.5,193.5 Z"/></g>
<g><path style="opacity:1" fill="#f7d3cd" d="M 139.5,237.5 C 138.833,238.167 138.167,238.833 137.5,239.5C 128.167,235.167 118.833,230.833 109.5,226.5C 112.898,221.594 116.898,217.094 121.5,213C 125.371,209.889 129.705,208.222 134.5,208C 140.237,217.138 141.903,226.971 139.5,237.5 Z"/></g>
<g><path style="opacity:1" fill="#d2958d" d="M 366.5,212.5 C 374.876,213.675 383.209,215.175 391.5,217C 405.443,221.149 419.443,224.983 433.5,228.5C 432.043,234.401 431.376,240.401 431.5,246.5C 431.5,247.5 431.5,248.5 431.5,249.5C 413.164,249.667 394.83,249.5 376.5,249C 370.789,248.381 365.122,247.548 359.5,246.5C 358.791,245.596 357.791,245.263 356.5,245.5C 359.678,234.455 363.011,223.455 366.5,212.5 Z"/></g>
<g><path style="opacity:1" fill="#f8d9d3" d="M 267.5,222.5 C 267.825,230.352 267.492,238.018 266.5,245.5C 262.538,243.205 259.205,240.205 256.5,236.5C 252.036,228.414 246.702,220.914 240.5,214C 249.044,217.902 258.044,220.735 267.5,222.5 Z"/></g>
<g><path style="opacity:1" fill="#f9ccc4" d="M 267.5,222.5 C 276.826,223 286.159,223.333 295.5,223.5C 294.945,231.509 295.945,239.176 298.5,246.5C 298.5,247.5 298.5,248.5 298.5,249.5C 289.827,249.666 281.16,249.5 272.5,249C 269.975,248.576 267.975,247.41 266.5,245.5C 267.492,238.018 267.825,230.352 267.5,222.5 Z"/></g>
<g><path style="opacity:1" fill="#e5f1f9" d="M 318.5,225.5 C 318.833,225.5 319.167,225.5 319.5,225.5C 322.286,233.905 326.286,241.739 331.5,249C 324.508,249.5 317.508,249.666 310.5,249.5C 309.833,248.167 309.167,246.833 308.5,245.5C 307.833,242.833 307.167,240.167 306.5,237.5C 306.5,233.5 306.5,229.5 306.5,225.5C 310.5,225.5 314.5,225.5 318.5,225.5 Z"/></g>
<g><path style="opacity:1" fill="#adc5d7" d="M 319.5,225.5 C 320.978,225.238 322.311,225.571 323.5,226.5C 326.77,233.407 330.77,239.741 335.5,245.5C 337.787,249.122 340.453,252.455 343.5,255.5C 334.348,256.494 325.015,256.827 315.5,256.5C 313.478,254.469 311.811,252.135 310.5,249.5C 317.508,249.666 324.508,249.5 331.5,249C 326.286,241.739 322.286,233.905 319.5,225.5 Z"/></g>
<g><path style="opacity:1" fill="#9da3af" d="M 318.5,225.5 C 314.5,225.5 310.5,225.5 306.5,225.5C 306.5,229.5 306.5,233.5 306.5,237.5C 305.515,233.366 305.182,229.032 305.5,224.5C 310.032,224.182 314.366,224.515 318.5,225.5 Z"/></g>
<g><path style="opacity:1" fill="#f8d2cb" d="M 487.5,247.5 C 487.5,252.5 487.5,257.5 487.5,262.5C 477.84,262.003 470.173,257.836 464.5,250C 457.174,249.5 449.841,249.334 442.5,249.5C 442.5,245.833 442.5,242.167 442.5,238.5C 441.487,233.186 443.654,230.852 449,231.5C 457.157,232.14 465.324,232.64 473.5,233C 481.757,234.423 486.424,239.256 487.5,247.5 Z"/></g>
<g><path style="opacity:1" fill="#f8c8c0" d="M 109.5,226.5 C 118.833,230.833 128.167,235.167 137.5,239.5C 132.554,246.779 126.887,253.446 120.5,259.5C 112.823,254.327 104.823,249.66 96.5,245.5C 97.4565,243.925 98.1231,242.258 98.5,240.5C 101.684,235.47 105.351,230.804 109.5,226.5 Z"/></g>
<g><path style="opacity:1" fill="#e0847e" d="M 256.5,236.5 C 259.205,240.205 262.538,243.205 266.5,245.5C 267.975,247.41 269.975,248.576 272.5,249C 281.16,249.5 289.827,249.666 298.5,249.5C 299.933,251.519 301.267,253.686 302.5,256C 294.5,256.333 286.5,256.667 278.5,257C 276.84,258.488 275.84,260.321 275.5,262.5C 272.5,262.5 269.5,262.5 266.5,262.5C 264.76,255.947 262.427,249.614 259.5,243.5C 258.227,241.287 257.227,238.954 256.5,236.5 Z"/></g>
<g><path style="opacity:1" fill="#39394b" d="M 87.5,239.5 C 90.9619,240.482 94.6286,240.815 98.5,240.5C 98.1231,242.258 97.4565,243.925 96.5,245.5C 104.823,249.66 112.823,254.327 120.5,259.5C 121.812,261.479 123.479,263.145 125.5,264.5C 131.479,257.526 136.145,249.859 139.5,241.5C 143.012,240.945 146.012,241.612 148.5,243.5C 147.962,245.117 147.629,246.784 147.5,248.5C 141.357,260.167 134.523,271.5 127,282.5C 124.893,286.381 123.059,290.381 121.5,294.5C 123.506,297.829 125.839,300.829 128.5,303.5C 133.167,310.167 137.833,316.833 142.5,323.5C 143.32,325.14 144.153,326.807 145,328.5C 145.499,334.491 145.666,340.491 145.5,346.5C 142.477,346.643 139.143,346.643 135.5,346.5C 135.691,341.101 135.191,335.767 134,330.5C 128.577,322.655 122.911,314.989 117,307.5C 112.897,318.809 109.397,330.309 106.5,342C 107.645,343.402 108.978,344.569 110.5,345.5C 104.355,346.49 98.0221,346.823 91.5,346.5C 88.4262,345.698 85.4262,344.698 82.5,343.5C 66.8776,337.209 50.5443,334.043 33.5,334C 35.9031,337.311 37.9031,340.811 39.5,344.5C 36.0381,345.482 32.3714,345.815 28.5,345.5C 24.288,340.251 20.9546,334.418 18.5,328C 18.8902,325.541 20.2235,323.874 22.5,323C 33.253,322.14 43.9196,322.64 54.5,324.5C 61.3768,294.438 72.3768,266.104 87.5,239.5 Z"/></g>
<g><path style="opacity:1" fill="#db807c" d="M 139.5,237.5 C 139.5,238.833 139.5,240.167 139.5,241.5C 136.145,249.859 131.479,257.526 125.5,264.5C 123.479,263.145 121.812,261.479 120.5,259.5C 126.887,253.446 132.554,246.779 137.5,239.5C 138.167,238.833 138.833,238.167 139.5,237.5 Z"/></g>
<g><path style="opacity:1" fill="#3b3a4c" d="M 203.5,243.5 C 209.401,242.194 215.401,242.194 221.5,243.5C 229.416,261.238 231.249,279.572 227,298.5C 222.205,310.093 215.871,320.759 208,330.5C 204.938,335.953 202.438,341.62 200.5,347.5C 197.167,347.5 193.833,347.5 190.5,347.5C 191.765,339.97 194.431,332.97 198.5,326.5C 204.093,318.308 209.427,309.975 214.5,301.5C 215.956,298.386 217.122,295.052 218,291.5C 218.822,283.988 218.655,276.655 217.5,269.5C 217.001,262.166 215.168,255.166 212,248.5C 209.294,246.55 206.461,244.883 203.5,243.5 Z"/></g>
<g><path style="opacity:1" fill="#39394b" d="M 248.5,243.5 C 252.167,243.5 255.833,243.5 259.5,243.5C 262.427,249.614 264.76,255.947 266.5,262.5C 272.41,277.889 270.91,292.555 262,306.5C 254.761,313.062 249.095,320.729 245,329.5C 244.506,331.134 244.34,332.801 244.5,334.5C 243.514,338.97 243.181,343.637 243.5,348.5C 236.646,348.824 229.979,348.491 223.5,347.5C 226.833,347.5 230.167,347.5 233.5,347.5C 230.895,333.557 234.062,321.224 243,310.5C 250.851,304.119 256.184,296.119 259,286.5C 259.808,281.241 259.308,276.241 257.5,271.5C 255.701,261.77 252.701,252.437 248.5,243.5 Z"/></g>
<g><path style="opacity:1" fill="#39384b" d="M 308.5,245.5 C 309.167,246.833 309.833,248.167 310.5,249.5C 311.811,252.135 313.478,254.469 315.5,256.5C 325.008,257.823 334.675,257.823 344.5,256.5C 344.376,255.893 344.043,255.56 343.5,255.5C 340.453,252.455 337.787,249.122 335.5,245.5C 339.298,244.517 343.298,244.183 347.5,244.5C 353.453,251.823 361.12,256.656 370.5,259C 391.164,259.5 411.831,259.667 432.5,259.5C 431.949,256.193 431.616,252.86 431.5,249.5C 431.5,248.5 431.5,247.5 431.5,246.5C 434.833,246.5 438.167,246.5 441.5,246.5C 441.078,250.712 441.744,254.712 443.5,258.5C 449.138,259.33 454.804,259.83 460.5,260C 465.007,261.506 468.673,264.173 471.5,268C 475.956,268.867 480.289,268.534 484.5,267C 485.883,265.729 486.883,264.229 487.5,262.5C 487.5,257.5 487.5,252.5 487.5,247.5C 491.167,247.5 494.833,247.5 498.5,247.5C 502.329,272.506 491.996,282.673 467.5,278C 463.928,276.431 460.928,274.098 458.5,271C 398.136,269.992 337.803,268.658 277.5,267C 276.418,265.67 275.751,264.17 275.5,262.5C 275.84,260.321 276.84,258.488 278.5,257C 286.5,256.667 294.5,256.333 302.5,256C 301.267,253.686 299.933,251.519 298.5,249.5C 298.5,248.5 298.5,247.5 298.5,246.5C 301.424,244.157 304.757,243.824 308.5,245.5 Z"/></g>
<g><path style="opacity:1" fill="#ae6f6f" d="M 347.5,244.5 C 347.5,244.167 347.5,243.833 347.5,243.5C 351.516,244.512 355.516,245.512 359.5,246.5C 365.122,247.548 370.789,248.381 376.5,249C 394.83,249.5 413.164,249.667 431.5,249.5C 431.616,252.86 431.949,256.193 432.5,259.5C 411.831,259.667 391.164,259.5 370.5,259C 361.12,256.656 353.453,251.823 347.5,244.5 Z"/></g>
<g><path style="opacity:1" fill="#b68d7e" d="M 221.5,243.5 C 227.633,252.121 231.299,261.788 232.5,272.5C 233.583,283.564 232.083,294.231 228,304.5C 224.112,311.72 219.445,318.386 214,324.5C 210.027,331.772 207.194,339.439 205.5,347.5C 209.833,347.5 214.167,347.5 218.5,347.5C 212.5,348.833 206.5,348.833 200.5,347.5C 202.438,341.62 204.938,335.953 208,330.5C 215.871,320.759 222.205,310.093 227,298.5C 231.249,279.572 229.416,261.238 221.5,243.5 Z"/></g>
<g><path style="opacity:1" fill="#de837e" d="M 442.5,238.5 C 442.5,242.167 442.5,245.833 442.5,249.5C 449.841,249.334 457.174,249.5 464.5,250C 470.173,257.836 477.84,262.003 487.5,262.5C 486.883,264.229 485.883,265.729 484.5,267C 480.289,268.534 475.956,268.867 471.5,268C 468.673,264.173 465.007,261.506 460.5,260C 454.804,259.83 449.138,259.33 443.5,258.5C 441.744,254.712 441.078,250.712 441.5,246.5C 441.194,243.615 441.527,240.948 442.5,238.5 Z"/></g>
<g><path style="opacity:1" fill="#f5e7e0" d="M 203.5,243.5 C 206.461,244.883 209.294,246.55 212,248.5C 215.168,255.166 217.001,262.166 217.5,269.5C 215.777,270.8 213.61,271.467 211,271.5C 188.298,270.432 165.798,268.765 143.5,266.5C 145.148,260.574 146.481,254.574 147.5,248.5C 147.629,246.784 147.962,245.117 148.5,243.5C 151.964,230.89 150.964,218.556 145.5,206.5C 153.114,203.733 160.781,200.733 168.5,197.5C 174.148,217.473 185.815,232.806 203.5,243.5 Z"/></g>
<g><path style="opacity:1" fill="#b78d7d" d="M 147.5,248.5 C 146.481,254.574 145.148,260.574 143.5,266.5C 137.103,275.26 132.436,284.926 129.5,295.5C 128.527,297.948 128.194,300.615 128.5,303.5C 125.839,300.829 123.506,297.829 121.5,294.5C 123.059,290.381 124.893,286.381 127,282.5C 134.523,271.5 141.357,260.167 147.5,248.5 Z"/></g>
<g><path style="opacity:1" fill="#e3eff6" d="M 114.5,269.5 C 112.36,273.103 110.193,276.77 108,280.5C 100.841,275.632 93.3407,271.632 85.5,268.5C 86.6096,263.614 88.7762,259.281 92,255.5C 100.607,258.545 108.107,263.212 114.5,269.5 Z"/></g>
<g><path style="opacity:1" fill="#646b7e" d="M 343.5,255.5 C 344.043,255.56 344.376,255.893 344.5,256.5C 334.675,257.823 325.008,257.823 315.5,256.5C 325.015,256.827 334.348,256.494 343.5,255.5 Z"/></g>
<g><path style="opacity:1" fill="#f5e7df" d="M 221.5,209.5 C 232.783,219.106 241.783,230.439 248.5,243.5C 252.701,252.437 255.701,261.77 257.5,271.5C 254.913,272.816 251.913,273.483 248.5,273.5C 243.156,273.24 237.823,272.907 232.5,272.5C 231.299,261.788 227.633,252.121 221.5,243.5C 220.627,239.232 220.294,234.898 220.5,230.5C 220.175,223.313 220.509,216.313 221.5,209.5 Z"/></g>
<g><path style="opacity:1" fill="#f2e0d8" d="M 143.5,266.5 C 165.798,268.765 188.298,270.432 211,271.5C 213.61,271.467 215.777,270.8 217.5,269.5C 218.655,276.655 218.822,283.988 218,291.5C 217.122,295.052 215.956,298.386 214.5,301.5C 188.993,300.37 163.493,299.037 138,297.5C 134.748,297.481 131.915,296.814 129.5,295.5C 132.436,284.926 137.103,275.26 143.5,266.5 Z"/></g>
<g><path style="opacity:1" fill="#aec6d8" d="M 85.5,268.5 C 93.3407,271.632 100.841,275.632 108,280.5C 110.193,276.77 112.36,273.103 114.5,269.5C 116.683,270.85 118.35,272.684 119.5,275C 109.382,295.061 101.382,315.894 95.5,337.5C 86.2361,332.968 76.5695,329.634 66.5,327.5C 66.5,326.5 66.5,325.5 66.5,324.5C 73.4117,326.421 80.4117,327.588 87.5,328C 96.1761,320.788 95.1761,315.788 84.5,313C 79.522,311.672 74.522,310.505 69.5,309.5C 70.3891,305.569 71.7225,301.902 73.5,298.5C 73.4142,299.496 73.7476,300.329 74.5,301C 82.1465,302.604 89.4799,305.104 96.5,308.5C 99.1642,302.176 101.831,295.843 104.5,289.5C 97.7932,283.149 89.7932,279.482 80.5,278.5C 81.6566,274.853 83.3233,271.52 85.5,268.5 Z"/></g>
<g><path style="opacity:1" fill="#e5f1f8" d="M 80.5,278.5 C 89.7932,279.482 97.7932,283.149 104.5,289.5C 101.831,295.843 99.1642,302.176 96.5,308.5C 89.4799,305.104 82.1465,302.604 74.5,301C 73.7476,300.329 73.4142,299.496 73.5,298.5C 75.2714,291.626 77.6048,284.96 80.5,278.5 Z"/></g>
<g><path style="opacity:1" fill="#f0d9d2" d="M 129.5,295.5 C 131.915,296.814 134.748,297.481 138,297.5C 163.493,299.037 188.993,300.37 214.5,301.5C 209.427,309.975 204.093,318.308 198.5,326.5C 179.807,325.869 161.141,324.869 142.5,323.5C 137.833,316.833 133.167,310.167 128.5,303.5C 128.194,300.615 128.527,297.948 129.5,295.5 Z"/></g>
<g><path style="opacity:1" fill="#eed8d1" d="M 257.5,271.5 C 259.308,276.241 259.808,281.241 259,286.5C 256.184,296.119 250.851,304.119 243,310.5C 234.062,321.224 230.895,333.557 233.5,347.5C 230.167,347.5 226.833,347.5 223.5,347.5C 221.833,347.5 220.167,347.5 218.5,347.5C 214.167,347.5 209.833,347.5 205.5,347.5C 207.194,339.439 210.027,331.772 214,324.5C 219.445,318.386 224.112,311.72 228,304.5C 232.083,294.231 233.583,283.564 232.5,272.5C 237.823,272.907 243.156,273.24 248.5,273.5C 251.913,273.483 254.913,272.816 257.5,271.5 Z"/></g>
<g><path style="opacity:1" fill="#e4f0f7" d="M 69.5,309.5 C 74.522,310.505 79.522,311.672 84.5,313C 95.1761,315.788 96.1761,320.788 87.5,328C 80.4117,327.588 73.4117,326.421 66.5,324.5C 67.0251,319.4 68.0251,314.4 69.5,309.5 Z"/></g>
<g><path style="opacity:1" fill="#e8d0ca" d="M 142.5,323.5 C 161.141,324.869 179.807,325.869 198.5,326.5C 194.431,332.97 191.765,339.97 190.5,347.5C 175.573,348.766 160.573,348.433 145.5,346.5C 145.666,340.491 145.499,334.491 145,328.5C 144.153,326.807 143.32,325.14 142.5,323.5 Z"/></g>
<g><path style="opacity:1" fill="#383844" d="M 244.5,334.5 C 244.5,348.167 244.5,361.833 244.5,375.5C 247.493,376.135 250.493,376.301 253.5,376C 266.167,369.671 278.167,362.337 289.5,354C 292.736,352.214 296.07,350.714 299.5,349.5C 324.827,350.228 350.16,350.562 375.5,350.5C 376.802,353.107 376.636,355.773 375,358.5C 367.135,366.03 359.635,373.864 352.5,382C 367.78,390.102 378.113,402.269 383.5,418.5C 383.12,422.688 382.12,426.688 380.5,430.5C 376.755,430.228 373.422,429.228 370.5,427.5C 371.339,424.165 371.839,420.832 372,417.5C 368.684,410.498 364.184,404.498 358.5,399.5C 355.313,396.407 351.646,394.073 347.5,392.5C 338.612,387.317 328.945,384.317 318.5,383.5C 311.124,383.274 303.791,383.608 296.5,384.5C 282.968,387.023 269.301,388.023 255.5,387.5C 251.466,387.495 247.466,387.162 243.5,386.5C 243.171,392.206 243.505,397.872 244.5,403.5C 248.289,405.963 252.289,407.963 256.5,409.5C 256.5,410.167 256.833,410.5 257.5,410.5C 260.32,412.745 263.32,414.745 266.5,416.5C 270.14,419.473 273.473,422.806 276.5,426.5C 272.167,427.167 267.833,427.833 263.5,428.5C 255.591,422.437 247.258,416.937 238.5,412C 234.833,411.333 231.167,411.333 227.5,412C 226.584,412.278 225.918,412.778 225.5,413.5C 218.61,416.39 213.276,421.057 209.5,427.5C 205.265,426.564 200.931,426.231 196.5,426.5C 199.38,421.278 203.047,416.612 207.5,412.5C 201.592,411.501 194.926,411.167 187.5,411.5C 187.5,412.833 187.5,414.167 187.5,415.5C 187.128,419.297 185.794,422.63 183.5,425.5C 179.5,425.5 175.5,425.5 171.5,425.5C 172.833,423.5 174.167,421.5 175.5,419.5C 178.775,411.686 177.941,404.353 173,397.5C 169.484,395.074 166.151,392.407 163,389.5C 162.667,386.5 162.333,383.5 162,380.5C 160.924,377.921 159.091,376.254 156.5,375.5C 155.054,374.387 153.387,374.22 151.5,375C 144.052,378.782 138.218,384.282 134,391.5C 131.888,394.727 130.055,398.06 128.5,401.5C 125.527,405.414 124.193,409.748 124.5,414.5C 131.229,418.195 137.895,421.861 144.5,425.5C 137.978,425.177 131.645,425.51 125.5,426.5C 120.257,423.047 114.591,420.38 108.5,418.5C 74.2091,402.543 47.5424,378.21 28.5,345.5C 32.3714,345.815 36.0381,345.482 39.5,344.5C 45.4559,352.458 51.7893,360.125 58.5,367.5C 60.1667,369.833 62.1667,371.833 64.5,373.5C 78.4247,389.093 95.0914,400.759 114.5,408.5C 117.381,398.607 122.048,389.607 128.5,381.5C 126.213,376.892 123.213,372.892 119.5,369.5C 117.757,366.25 115.423,363.416 112.5,361C 105.782,355.651 98.782,350.817 91.5,346.5C 98.0221,346.823 104.355,346.49 110.5,345.5C 119.165,351.999 126.665,359.666 133,368.5C 134.383,361.326 135.216,353.993 135.5,346.5C 139.143,346.643 142.477,346.643 145.5,346.5C 160.573,348.433 175.573,348.766 190.5,347.5C 193.833,347.5 197.167,347.5 200.5,347.5C 206.5,348.833 212.5,348.833 218.5,347.5C 220.167,347.5 221.833,347.5 223.5,347.5C 229.979,348.491 236.646,348.824 243.5,348.5C 243.181,343.637 243.514,338.97 244.5,334.5 Z M 257.5,410.5 C 260.279,410.279 262.946,410.612 265.5,411.5C 265.629,413.216 265.962,414.883 266.5,416.5C 263.32,414.745 260.32,412.745 257.5,410.5 Z"/></g>
<g><path style="opacity:1" fill="#ca867f" d="M 82.5,343.5 C 74.1937,351.14 66.1937,359.14 58.5,367.5C 51.7893,360.125 45.4559,352.458 39.5,344.5C 37.9031,340.811 35.9031,337.311 33.5,334C 50.5443,334.043 66.8776,337.209 82.5,343.5 Z"/></g>
<g><path style="opacity:1" fill="#37374a" d="M 375.5,350.5 C 350.16,350.562 324.827,350.228 299.5,349.5C 311.398,342.985 324.232,339.985 338,340.5C 350.412,340.228 362.245,342.728 373.5,348C 374.381,348.708 375.047,349.542 375.5,350.5 Z"/></g>
<g><path style="opacity:1" fill="#d1938a" d="M 82.5,343.5 C 85.4262,344.698 88.4262,345.698 91.5,346.5C 98.782,350.817 105.782,355.651 112.5,361C 115.423,363.416 117.757,366.25 119.5,369.5C 114.475,374.133 108.475,376.966 101.5,378C 88.6398,379.748 76.3065,378.248 64.5,373.5C 62.1667,371.833 60.1667,369.833 58.5,367.5C 66.1937,359.14 74.1937,351.14 82.5,343.5 Z"/></g>
<g><path style="opacity:1" fill="#7373a3" d="M 233.5,376.5 C 213.357,379.892 193.023,381.225 172.5,380.5C 170.162,369.973 163.495,364.64 152.5,364.5C 150.44,364.572 148.44,364.905 146.5,365.5C 145.52,362.914 145.187,360.247 145.5,357.5C 174.856,360.052 204.189,360.052 233.5,357.5C 233.5,363.833 233.5,370.167 233.5,376.5 Z"/></g>
<g><path style="opacity:1" fill="#ae6f6f" d="M 119.5,369.5 C 123.213,372.892 126.213,376.892 128.5,381.5C 122.048,389.607 117.381,398.607 114.5,408.5C 95.0914,400.759 78.4247,389.093 64.5,373.5C 76.3065,378.248 88.6398,379.748 101.5,378C 108.475,376.966 114.475,374.133 119.5,369.5 Z"/></g>
<g><path style="opacity:1" fill="#f7cac3" d="M 156.5,375.5 C 155.178,375.33 154.011,375.663 153,376.5C 150.684,389.247 148.184,401.914 145.5,414.5C 137.766,412.755 132.1,408.421 128.5,401.5C 130.055,398.06 131.888,394.727 134,391.5C 138.218,384.282 144.052,378.782 151.5,375C 153.387,374.22 155.054,374.387 156.5,375.5 Z"/></g>
<g><path style="opacity:1" fill="#4b4b5d" d="M 233.5,376.5 C 233.5,380.167 233.5,383.833 233.5,387.5C 215.551,389.218 197.551,389.885 179.5,389.5C 175.819,387.507 173.485,384.507 172.5,380.5C 193.023,381.225 213.357,379.892 233.5,376.5 Z"/></g>
<g><path style="opacity:1" fill="#636395" d="M 318.5,383.5 C 319.568,384.434 320.901,384.768 322.5,384.5C 320.227,393.754 317.56,402.921 314.5,412C 314.164,413.03 313.497,413.53 312.5,413.5C 304.645,411.19 296.645,409.524 288.5,408.5C 288.389,407.883 288.056,407.383 287.5,407C 289.47,402.125 291.137,397.125 292.5,392C 293.001,388.952 294.334,386.452 296.5,384.5C 303.791,383.608 311.124,383.274 318.5,383.5 Z"/></g>
<g><path style="opacity:1" fill="#f8d8d1" d="M 156.5,375.5 C 159.091,376.254 160.924,377.921 162,380.5C 162.333,383.5 162.667,386.5 163,389.5C 166.151,392.407 169.484,395.074 173,397.5C 177.941,404.353 178.775,411.686 175.5,419.5C 164.814,421.466 154.814,419.799 145.5,414.5C 148.184,401.914 150.684,389.247 153,376.5C 154.011,375.663 155.178,375.33 156.5,375.5 Z"/></g>
<g><path style="opacity:1" fill="#63638e" d="M 318.5,383.5 C 328.945,384.317 338.612,387.317 347.5,392.5C 343.801,402.428 340.468,412.595 337.5,423C 337.164,424.03 336.497,424.53 335.5,424.5C 327.916,420.541 320.25,416.874 312.5,413.5C 313.497,413.53 314.164,413.03 314.5,412C 317.56,402.921 320.227,393.754 322.5,384.5C 320.901,384.768 319.568,384.434 318.5,383.5 Z"/></g>
<g><path style="opacity:1" fill="#676792" d="M 296.5,384.5 C 294.334,386.452 293.001,388.952 292.5,392C 291.137,397.125 289.47,402.125 287.5,407C 288.056,407.383 288.389,407.883 288.5,408.5C 282.51,407.76 276.51,407.094 270.5,406.5C 270.68,400.767 272.013,395.101 274.5,389.5C 268.012,388.833 261.679,388.167 255.5,387.5C 269.301,388.023 282.968,387.023 296.5,384.5 Z"/></g>
<g><path style="opacity:1" fill="#7070a0" d="M 233.5,387.5 C 233.5,392.167 233.5,396.833 233.5,401.5C 217.819,401.833 202.152,401.499 186.5,400.5C 184.905,396.297 182.571,392.63 179.5,389.5C 197.551,389.885 215.551,389.218 233.5,387.5 Z"/></g>
<g><path style="opacity:1" fill="#69699b" d="M 255.5,387.5 C 261.679,388.167 268.012,388.833 274.5,389.5C 272.013,395.101 270.68,400.767 270.5,406.5C 267.833,407.167 266.167,408.833 265.5,411.5C 262.946,410.612 260.279,410.279 257.5,410.5C 256.833,410.5 256.5,410.167 256.5,409.5C 252.289,407.963 248.289,405.963 244.5,403.5C 243.505,397.872 243.171,392.206 243.5,386.5C 247.466,387.162 251.466,387.495 255.5,387.5 Z"/></g>
<g><path style="opacity:1" fill="#5c5c8e" d="M 347.5,392.5 C 351.646,394.073 355.313,396.407 358.5,399.5C 355.587,411.512 351.92,423.178 347.5,434.5C 344.786,431.785 341.786,429.451 338.5,427.5C 337.306,426.728 336.306,425.728 335.5,424.5C 336.497,424.53 337.164,424.03 337.5,423C 340.468,412.595 343.801,402.428 347.5,392.5 Z"/></g>
<g><path style="opacity:1" fill="#5c5c88" d="M 358.5,399.5 C 364.184,404.498 368.684,410.498 372,417.5C 371.839,420.832 371.339,424.165 370.5,427.5C 367.786,435.473 364.952,443.473 362,451.5C 357.647,445.322 352.814,439.656 347.5,434.5C 351.92,423.178 355.587,411.512 358.5,399.5 Z"/></g>
<g><path style="opacity:1" fill="#dc817c" d="M 128.5,401.5 C 132.1,408.421 137.766,412.755 145.5,414.5C 154.814,419.799 164.814,421.466 175.5,419.5C 174.167,421.5 172.833,423.5 171.5,425.5C 167.593,427.531 163.426,428.864 159,429.5C 153.945,428.869 149.112,427.536 144.5,425.5C 137.895,421.861 131.229,418.195 124.5,414.5C 124.193,409.748 125.527,405.414 128.5,401.5 Z"/></g>
<g><path style="opacity:1" fill="#383844" d="M 270.5,406.5 C 276.51,407.094 282.51,407.76 288.5,408.5C 296.645,409.524 304.645,411.19 312.5,413.5C 320.25,416.874 327.916,420.541 335.5,424.5C 336.306,425.728 337.306,426.728 338.5,427.5C 333.167,428.167 327.833,428.833 322.5,429.5C 304.69,421.604 286.023,417.27 266.5,416.5C 265.962,414.883 265.629,413.216 265.5,411.5C 266.167,408.833 267.833,407.167 270.5,406.5 Z"/></g>
<g><path style="opacity:1" fill="#a19a9e" d="M 207.5,412.5 C 201.167,412.5 194.833,412.5 188.5,412.5C 188.737,413.791 188.404,414.791 187.5,415.5C 187.5,414.167 187.5,412.833 187.5,411.5C 194.926,411.167 201.592,411.501 207.5,412.5 Z"/></g>
<g><path style="opacity:1" fill="#b88e7d" d="M 225.5,413.5 C 220.688,418.467 216.354,423.8 212.5,429.5C 211.5,428.833 210.5,428.167 209.5,427.5C 213.276,421.057 218.61,416.39 225.5,413.5 Z"/></g>
<g><path style="opacity:1" fill="#ba907f" d="M 108.5,418.5 C 114.591,420.38 120.257,423.047 125.5,426.5C 136.623,434.208 148.956,438.541 162.5,439.5C 156.942,442.386 150.942,443.219 144.5,442C 131.02,437.952 117.854,433.119 105,427.5C 104.768,428.737 104.268,429.737 103.5,430.5C 103.552,428.097 103.219,425.764 102.5,423.5C 104.54,421.823 106.54,420.156 108.5,418.5 Z"/></g>
<g><path style="opacity:1" fill="#333343" d="M 102.5,423.5 C 103.219,425.764 103.552,428.097 103.5,430.5C 96.0498,438.275 89.3832,446.608 83.5,455.5C 76.1319,464.385 70.1319,474.218 65.5,485C 93.1667,485.667 120.833,485.667 148.5,485C 161.477,482.369 170.81,475.203 176.5,463.5C 180.071,454.351 184.237,445.351 189,436.5C 190.979,432.7 193.479,429.366 196.5,426.5C 200.931,426.231 205.265,426.564 209.5,427.5C 210.5,428.167 211.5,428.833 212.5,429.5C 223.795,440.784 233.128,453.451 240.5,467.5C 242.448,475.948 247.448,481.781 255.5,485C 273.509,485.833 291.509,485.666 309.5,484.5C 306.476,479.769 303.476,475.102 300.5,470.5C 290.341,454.669 278.008,440.669 263.5,428.5C 267.833,427.833 272.167,427.167 276.5,426.5C 297.332,444.145 313.332,465.478 324.5,490.5C 324.144,493.115 322.811,494.948 320.5,496C 299.167,496.667 277.833,496.667 256.5,496C 252.139,495.314 248.139,493.814 244.5,491.5C 237.298,486.296 232.631,479.296 230.5,470.5C 215.5,469.917 200.5,469.75 185.5,470C 179.869,479.517 172.202,486.683 162.5,491.5C 158.244,493.905 153.577,495.405 148.5,496C 117.167,496.667 85.8333,496.667 54.5,496C 52.8481,494.53 51.8481,492.697 51.5,490.5C 61.2978,465.06 75.9644,442.893 95.5,424C 97.7398,422.193 100.073,422.026 102.5,423.5 Z"/></g>
<g><path style="opacity:1" fill="#343345" d="M 144.5,425.5 C 149.112,427.536 153.945,428.869 159,429.5C 163.426,428.864 167.593,427.531 171.5,425.5C 175.5,425.5 179.5,425.5 183.5,425.5C 178.772,433.378 171.772,438.044 162.5,439.5C 148.956,438.541 136.623,434.208 125.5,426.5C 131.645,425.51 137.978,425.177 144.5,425.5 Z"/></g>
<g><path style="opacity:1" fill="#323244" d="M 338.5,427.5 C 341.786,429.451 344.786,431.785 347.5,434.5C 352.814,439.656 357.647,445.322 362,451.5C 364.952,443.473 367.786,435.473 370.5,427.5C 373.422,429.228 376.755,430.228 380.5,430.5C 376.976,443.239 373.143,455.906 369,468.5C 366.451,472.925 363.118,473.592 359,470.5C 351.559,452.563 339.393,438.896 322.5,429.5C 327.833,428.833 333.167,428.167 338.5,427.5 Z"/></g>
<g><path style="opacity:1" fill="#f2e0d8" d="M 207.5,412.5 C 203.047,416.612 199.38,421.278 196.5,426.5C 193.479,429.366 190.979,432.7 189,436.5C 184.237,445.351 180.071,454.351 176.5,463.5C 145.4,460.875 114.4,458.209 83.5,455.5C 89.3832,446.608 96.0498,438.275 103.5,430.5C 104.268,429.737 104.768,428.737 105,427.5C 117.854,433.119 131.02,437.952 144.5,442C 150.942,443.219 156.942,442.386 162.5,439.5C 171.772,438.044 178.772,433.378 183.5,425.5C 185.794,422.63 187.128,419.297 187.5,415.5C 188.404,414.791 188.737,413.791 188.5,412.5C 194.833,412.5 201.167,412.5 207.5,412.5 Z"/></g>
<g><path style="opacity:1" fill="#f3e1d9" d="M 263.5,428.5 C 278.008,440.669 290.341,454.669 300.5,470.5C 300.209,471.649 299.376,472.316 298,472.5C 278.805,470.903 259.639,469.236 240.5,467.5C 233.128,453.451 223.795,440.784 212.5,429.5C 216.354,423.8 220.688,418.467 225.5,413.5C 225.918,412.778 226.584,412.278 227.5,412C 231.167,411.333 234.833,411.333 238.5,412C 247.258,416.937 255.591,422.437 263.5,428.5 Z"/></g>
<g><path style="opacity:1" fill="#efd8d1" d="M 83.5,455.5 C 114.4,458.209 145.4,460.875 176.5,463.5C 170.81,475.203 161.477,482.369 148.5,485C 120.833,485.667 93.1667,485.667 65.5,485C 70.1319,474.218 76.1319,464.385 83.5,455.5 Z"/></g>
<g><path style="opacity:1" fill="#f0d8d2" d="M 240.5,467.5 C 259.639,469.236 278.805,470.903 298,472.5C 299.376,472.316 300.209,471.649 300.5,470.5C 303.476,475.102 306.476,479.769 309.5,484.5C 291.509,485.666 273.509,485.833 255.5,485C 247.448,481.781 242.448,475.948 240.5,467.5 Z"/></g>
<g><path style="opacity:1" fill="#31323d" d="M 244.5,491.5 C 217.167,491.5 189.833,491.5 162.5,491.5C 172.202,486.683 179.869,479.517 185.5,470C 200.5,469.75 215.5,469.917 230.5,470.5C 232.631,479.296 237.298,486.296 244.5,491.5 Z"/></g>
</svg>
