<?xml version="1.0" encoding="UTF-8"?>
<!DOCTYPE svg PUBLIC "-//W3C//DTD SVG 1.1//EN" "http://www.w3.org/Graphics/SVG/1.1/DTD/svg11.dtd">
<svg xmlns="http://www.w3.org/2000/svg" version="1.1" width="512px" height="512px" style="shape-rendering:geometricPrecision; text-rendering:geometricPrecision; image-rendering:optimizeQuality; fill-rule:evenodd; clip-rule:evenodd" xmlns:xlink="http://www.w3.org/1999/xlink">
<g><path style="opacity:1" fill="#000000" d="M 43.5,15.5 C 47.138,15.7377 49.9713,17.4044 52,20.5C 59.025,30.808 61.3584,42.1413 59,54.5C 58.3667,58.2091 57.2001,61.7091 55.5,65C 57.0444,67.9995 58.2111,71.1662 59,74.5C 61.2868,86.6352 59.1202,97.8019 52.5,108C 58.5275,115.89 62.5275,124.724 64.5,134.5C 72.3934,136.779 79.3934,140.612 85.5,146C 92.1245,144.142 98.9579,142.976 106,142.5C 110.489,142.418 114.823,143.085 119,144.5C 126.98,137.593 136.147,132.926 146.5,130.5C 134.671,103.081 136.171,76.4146 151,50.5C 166.245,27.7422 187.411,19.2422 214.5,25C 223.555,26.4425 231.055,30.6092 237,37.5C 254.982,34.8319 266.982,42.1652 273,59.5C 280.448,81.9194 277.115,102.586 263,121.5C 261.41,135.298 259.077,148.965 256,162.5C 252.691,170.8 247.524,177.633 240.5,183C 234.03,186.056 227.53,186.222 221,183.5C 220.173,187.541 220.34,191.541 221.5,195.5C 234.903,199.245 247.903,204.079 260.5,210C 279.434,212.424 298.434,213.757 317.5,214C 316.115,210.296 315.115,206.463 314.5,202.5C 314.437,200.519 315.104,198.852 316.5,197.5C 340.117,196.701 363.45,199.201 386.5,205C 404.115,209.07 421.448,214.07 438.5,220C 451.518,220.816 464.518,221.816 477.5,223C 487,225.833 493.167,232 496,241.5C 498.516,251.768 497.849,261.768 494,271.5C 489.61,277.609 483.61,280.275 476,279.5C 468.395,279.781 462.229,276.947 457.5,271C 397.803,269.992 338.136,268.658 278.5,267C 275,263.996 274.667,260.663 277.5,257C 285.5,256.667 293.5,256.333 301.5,256C 296.046,246.231 293.712,235.731 294.5,224.5C 283.491,223.856 272.491,223.023 261.5,222C 255.493,220.72 249.826,218.553 244.5,215.5C 244.167,215.833 243.833,216.167 243.5,216.5C 261.468,238.235 269.968,263.235 269,291.5C 265.74,301.434 260.074,309.767 252,316.5C 249.148,320.204 246.815,324.204 245,328.5C 244.333,343.833 244.333,359.167 245,374.5C 248.073,375.617 251.24,375.784 254.5,375C 268.694,367.461 282.36,359.127 295.5,350C 321.228,336.932 347.228,336.265 373.5,348C 376.545,350.448 377.045,353.281 375,356.5C 367.315,364.684 359.815,373.017 352.5,381.5C 367.148,389.813 377.481,401.813 383.5,417.5C 378.488,434.546 373.322,451.546 368,468.5C 366.136,471.207 363.636,472.041 360.5,471C 348.531,445.373 328.865,428.706 301.5,421C 290.634,418.48 279.634,416.813 268.5,416C 267.584,415.626 266.75,415.126 266,414.5C 264.075,407.425 266.741,404.425 274,405.5C 305.439,405.968 332.105,417.302 354,439.5C 356.692,442.692 359.192,446.025 361.5,449.5C 364.987,439.22 368.32,428.886 371.5,418.5C 361.771,398.453 345.771,386.953 323.5,384C 309.016,382.867 294.683,383.867 280.5,387C 268.478,387.725 256.478,387.558 244.5,386.5C 244.334,391.511 244.501,396.511 245,401.5C 279.022,422.52 305.022,450.853 323,486.5C 323.944,489.347 323.444,491.847 321.5,494C 310.76,495.145 299.927,495.645 289,495.5C 278.833,495.333 268.667,495.167 258.5,495C 249.188,494.094 241.688,489.927 236,482.5C 228.185,464.516 217.185,448.849 203,435.5C 201.088,437.657 199.421,439.991 198,442.5C 193.186,453.287 188.186,463.953 183,474.5C 173.659,486.924 161.159,493.757 145.5,495C 115.833,495.667 86.1667,495.667 56.5,495C 54.0786,494.002 52.7453,492.168 52.5,489.5C 62.2978,464.06 76.9644,441.893 96.5,423C 103.257,420.749 106.091,423.249 105,430.5C 89.6779,445.975 77.1779,463.475 67.5,483C 94.8333,483.667 122.167,483.667 149.5,483C 159.118,481.046 166.952,476.213 173,468.5C 178.728,456.044 184.728,443.711 191,431.5C 195.433,424.07 200.933,417.57 207.5,412C 201.5,411.333 195.5,411.333 189.5,412C 186.706,428.958 176.706,438.125 159.5,439.5C 143.492,435.995 128.826,429.495 115.5,420C 98.5867,413.549 83.2533,404.549 69.5,393C 49.6087,375.355 33.4421,354.855 21,331.5C 20.0218,328.331 20.5218,325.497 22.5,323C 33.8497,322.34 45.183,322.507 56.5,323.5C 64.0153,287.479 77.8486,254.145 98,223.5C 105.878,210.947 116.712,202.113 130.5,197C 143.757,196.271 156.09,192.605 167.5,186C 168.819,175.228 168.819,164.395 167.5,153.5C 162.721,150.224 158.388,146.391 154.5,142C 145.742,142.253 137.742,144.919 130.5,150C 138.373,156.881 147.373,161.548 157.5,164C 159.729,166.553 160.062,169.386 158.5,172.5C 157.148,173.896 155.481,174.563 153.5,174.5C 148.486,172.334 144.486,173.5 141.5,178C 132.146,183.392 122.146,185.226 111.5,183.5C 105.615,185.604 99.6148,187.437 93.5,189C 81.0621,190.576 70.3955,187.076 61.5,178.5C 49.5052,177.086 39.3386,172.086 31,163.5C 26.8818,157.48 24.5485,150.813 24,143.5C 13.861,127.745 11.6944,111.078 17.5,93.5C 16.2393,89.9387 15.406,86.2721 15,82.5C 10.931,59.0503 17.0977,38.8836 33.5,22C 36.7278,19.5603 40.0611,17.3936 43.5,15.5 Z M 42.5,29.5 C 45.5778,31.9755 47.4112,35.3088 48,39.5C 48.9493,47.0896 47.9493,54.423 45,61.5C 38.0313,66.3024 31.8646,71.9691 26.5,78.5C 22.782,58.9828 28.1154,42.6494 42.5,29.5 Z M 195.5,34.5 C 210.439,33.1926 222.772,38.026 232.5,49C 249.401,44.8772 259.901,51.3772 264,68.5C 265.506,75.4333 265.839,82.4333 265,89.5C 264.386,94.1773 262.886,98.5106 260.5,102.5C 255.601,93.4382 250.101,84.7715 244,76.5C 241.934,71.6366 240.268,66.6366 239,61.5C 236.366,59.406 233.533,59.0727 230.5,60.5C 226.928,79.5756 216.595,93.7423 199.5,103C 192.523,108.637 188.023,115.804 186,124.5C 185.6,133.291 185.434,141.958 185.5,150.5C 159.475,138.133 147.642,117.466 150,88.5C 151.595,73.3669 157.261,60.0336 167,48.5C 174.85,40.2834 184.35,35.6167 195.5,34.5 Z M 46.5,74.5 C 51.1821,89.6102 46.6821,101.277 33,109.5C 30.497,112.502 28.497,115.835 27,119.5C 24.8772,112.417 25.2106,105.417 28,98.5C 32.988,89.4899 39.1546,81.4899 46.5,74.5 Z M 234.5,83.5 C 238.398,89.6081 242.564,95.6081 247,101.5C 249.368,105.9 250.868,110.566 251.5,115.5C 243.614,115.206 240.947,118.706 243.5,126C 245.677,127.202 248.011,127.702 250.5,127.5C 249.518,139.06 247.351,150.393 244,161.5C 240.905,167.597 236.239,171.93 230,174.5C 217.379,171.699 207.046,165.366 199,155.5C 195.91,144.11 195.91,132.777 199,121.5C 200.738,117.759 203.238,114.592 206.5,112C 219.293,105.795 228.626,96.2954 234.5,83.5 Z M 42.5,116.5 C 44.0174,116.511 45.1841,117.177 46,118.5C 52.8756,128.537 54.7089,139.37 51.5,151C 51.9814,155.037 52.648,159.037 53.5,163C 53.1667,163.5 52.8333,164 52.5,164.5C 37.4152,157.655 31.9152,145.988 36,129.5C 37.1258,124.582 39.2925,120.248 42.5,116.5 Z M 63.5,146.5 C 68.0856,148.126 72.4189,150.293 76.5,153C 84.0504,160.048 91.0504,167.548 97.5,175.5C 80.6602,181.163 69.4935,175.496 64,158.5C 63.5012,154.514 63.3345,150.514 63.5,146.5 Z M 102.5,153.5 C 106.897,153.425 111.23,153.925 115.5,155C 122.262,158.611 128.596,162.777 134.5,167.5C 132.323,169.758 129.657,171.258 126.5,172C 121.167,172.667 115.833,172.667 110.5,172C 105.133,166.968 100.133,161.635 95.5,156C 98.0037,155.302 100.337,154.469 102.5,153.5 Z M 180.5,160.5 C 183.767,161.756 187.101,162.923 190.5,164C 195.488,170.162 201.488,174.995 208.5,178.5C 209.666,197.158 209.833,215.824 209,234.5C 194.767,225.927 185.434,213.593 181,197.5C 180.5,185.171 180.333,172.838 180.5,160.5 Z M 167.5,198.5 C 168.497,198.47 169.164,198.97 169.5,200C 175.821,222.821 189.821,238.988 211.5,248.5C 219.995,267.043 220.495,285.71 213,304.5C 202.187,316.954 194.354,331.121 189.5,347C 175.834,347.094 162.168,346.76 148.5,346C 147.811,339.126 146.645,332.292 145,325.5C 137.818,314.99 130.652,304.49 123.5,294C 128.671,281.152 135.504,269.319 144,258.5C 152.933,241.679 153.766,224.512 146.5,207C 153.904,205.035 160.904,202.202 167.5,198.5 Z M 327.5,207.5 C 362.295,210.759 396.295,217.926 429.5,229C 430.578,229.674 431.245,230.674 431.5,232C 429.692,240.803 429.359,249.636 430.5,258.5C 408.78,258.956 387.113,258.456 365.5,257C 352,250.167 341.833,240 335,226.5C 331.933,220.37 329.433,214.036 327.5,207.5 Z M 131.5,208.5 C 132.822,208.33 133.989,208.663 135,209.5C 144.018,229.421 141.018,247.421 126,263.5C 117.719,255.948 108.552,249.782 98.5,245C 105.882,229.457 116.882,217.29 131.5,208.5 Z M 220.5,210.5 C 237.2,224.19 248.7,241.524 255,262.5C 257.569,270.669 258.569,279.002 258,287.5C 257.226,291.049 255.893,294.382 254,297.5C 247.244,304.252 241.244,311.586 236,319.5C 235.333,321.5 234.667,323.5 234,325.5C 233.5,332.492 233.334,339.492 233.5,346.5C 222.806,347.022 212.14,347.022 201.5,346.5C 207.223,332.711 214.723,320.044 224,308.5C 231.742,286.627 231.075,264.96 222,243.5C 220.752,232.536 220.252,221.536 220.5,210.5 Z M 306.5,225.5 C 311.179,225.334 315.845,225.501 320.5,226C 321.308,226.308 321.975,226.808 322.5,227.5C 322.718,237.098 322.718,246.765 322.5,256.5C 318.713,257.186 315.546,256.186 313,253.5C 307.359,244.793 305.192,235.46 306.5,225.5 Z M 443.5,231.5 C 453.804,232.332 464.138,233.166 474.5,234C 483.253,238.002 486.92,244.835 485.5,254.5C 487.037,266.461 482.037,270.627 470.5,267C 467.832,263.67 464.498,261.337 460.5,260C 454.565,258.761 448.565,258.261 442.5,258.5C 440.951,249.391 441.285,240.391 443.5,231.5 Z M 333.5,246.5 C 336.831,249.305 339.831,252.472 342.5,256C 339.854,256.497 337.187,256.664 334.5,256.5C 334.167,253.167 333.833,249.833 333.5,246.5 Z M 91.5,256.5 C 102.305,259.463 111.472,265.13 119,273.5C 118.201,277.441 116.534,281.107 114,284.5C 106.474,276.902 97.4739,271.902 87,269.5C 88.3698,265.228 89.8698,260.894 91.5,256.5 Z M 81.5,280.5 C 93.1698,282.164 102.503,287.664 109.5,297C 107.476,301.403 105.642,305.903 104,310.5C 94.9067,304.704 85.0734,300.704 74.5,298.5C 76.4492,292.314 78.7825,286.314 81.5,280.5 Z M 117.5,307.5 C 123.857,315.038 129.69,323.038 135,331.5C 135.865,343.543 135.532,355.543 134,367.5C 126.957,357.456 118.29,349.123 108,342.5C 110.026,330.578 113.193,318.911 117.5,307.5 Z M 70.5,310.5 C 80.2513,311.583 89.2513,314.75 97.5,320C 98.6872,321.019 99.6872,322.186 100.5,323.5C 98.8706,327.351 97.8706,331.351 97.5,335.5C 87.6095,331.981 77.6095,328.648 67.5,325.5C 68.6589,320.531 69.6589,315.531 70.5,310.5 Z M 35.5,334.5 C 68.4442,333.715 96.6109,345.048 120,368.5C 123.204,372.407 126.038,376.574 128.5,381C 122.509,389.144 117.676,397.977 114,407.5C 80.5706,390.901 54.404,366.568 35.5,334.5 Z M 335.5,350.5 C 344.023,350.851 352.356,352.351 360.5,355C 354.017,362.65 347.017,369.817 339.5,376.5C 330.3,373.164 320.8,371.83 311,372.5C 300.081,372.74 289.247,373.573 278.5,375C 286.994,368.583 295.994,362.917 305.5,358C 315.241,353.898 325.241,351.398 335.5,350.5 Z M 146.5,357.5 C 175.514,360.12 204.514,360.12 233.5,357.5C 233.5,362.5 233.5,367.5 233.5,372.5C 218.295,375.317 202.962,377.151 187.5,378C 183.5,381.333 183.5,384.667 187.5,388C 202.915,388.619 218.081,387.119 233,383.5C 233.499,388.823 233.666,394.156 233.5,399.5C 218.168,400.671 202.835,400.671 187.5,399.5C 184.969,393.136 180.802,388.136 175,384.5C 172.935,367.923 163.768,361.256 147.5,364.5C 146.526,362.257 146.192,359.924 146.5,357.5 Z M 152.5,374.5 C 156.025,374.346 158.859,375.679 161,378.5C 162,382.5 163,386.5 164,390.5C 176.391,396.936 180.057,406.603 175,419.5C 168.779,427.344 160.946,429.511 151.5,426C 142.06,422.114 133.06,417.447 124.5,412C 129.656,398.688 137.323,387.022 147.5,377C 149.315,376.243 150.981,375.41 152.5,374.5 Z M 231.5,410.5 C 236.416,410.29 240.749,411.79 244.5,415C 271.357,432.522 292.69,455.189 308.5,483C 291.167,483.667 273.833,483.667 256.5,483C 251.123,481.398 246.956,478.231 244,473.5C 236.047,455.263 224.881,439.263 210.5,425.5C 216.177,418.465 223.177,413.465 231.5,410.5 Z"/></g>
<g><path style="opacity:1" fill="#000000" d="M 220.5,114.5 C 224.166,114.958 227.666,115.958 231,117.5C 233.574,122.684 232.074,126.017 226.5,127.5C 222.882,127.143 219.715,125.809 217,123.5C 215.665,119.392 216.832,116.392 220.5,114.5 Z"/></g>
</svg>
