<?xml version="1.0" encoding="UTF-8"?>
<!DOCTYPE svg PUBLIC "-//W3C//DTD SVG 1.1//EN" "http://www.w3.org/Graphics/SVG/1.1/DTD/svg11.dtd">
<svg xmlns="http://www.w3.org/2000/svg" version="1.1" width="512px" height="512px" style="shape-rendering:geometricPrecision; text-rendering:geometricPrecision; image-rendering:optimizeQuality; fill-rule:evenodd; clip-rule:evenodd" xmlns:xlink="http://www.w3.org/1999/xlink">
<g><path style="opacity:1" fill="#000000" d="M 44.5,13.5 C 54.1724,13.3335 63.8391,13.5002 73.5,14C 75.8483,14.1102 77.3483,15.2769 78,17.5C 78.3333,98.8333 78.6667,180.167 79,261.5C 89.1393,241.715 100.473,222.715 113,204.5C 120.477,196.703 129.311,190.87 139.5,187C 169.221,174.029 200.055,164.862 232,159.5C 238.592,159.764 244.926,161.097 251,163.5C 252.265,147.735 260.765,139.069 276.5,137.5C 289.57,138.409 298.07,145.076 302,157.5C 311.463,150.163 312.13,142.496 304,134.5C 299.617,126.064 299.45,117.564 303.5,109C 289.514,79.2725 295.848,54.9392 322.5,36C 343.821,25.4449 365.821,23.7782 388.5,31C 409.854,41.505 422.021,58.6716 425,82.5C 425.667,102.833 425.667,123.167 425,143.5C 422.468,160.431 417.134,176.431 409,191.5C 405.313,196.181 400.48,198.681 394.5,199C 384.892,199.937 375.559,198.77 366.5,195.5C 363.679,196.074 361.346,197.408 359.5,199.5C 377.923,204.68 385.423,216.68 382,235.5C 379.477,242.521 374.977,247.854 368.5,251.5C 363.522,259.571 362.189,268.238 364.5,277.5C 363.779,287.612 362.613,297.612 361,307.5C 371.399,317.484 380.232,328.651 387.5,341C 400.5,337.166 412.5,331.166 423.5,323C 427.821,319.177 428.654,314.677 426,309.5C 425.333,304.167 425.333,298.833 426,293.5C 426.936,290.232 428.936,287.899 432,286.5C 432.746,275.807 433.746,265.14 435,254.5C 436.105,249.794 438.938,246.627 443.5,245C 453.833,244.333 464.167,244.333 474.5,245C 479.876,247.04 483.043,250.873 484,256.5C 484.667,277.167 484.667,297.833 484,318.5C 483.34,324.148 481.673,329.481 479,334.5C 456.413,367.088 427.58,392.588 392.5,411C 384.232,414.286 376.232,413.62 368.5,409C 352.279,399.152 337.112,387.986 323,375.5C 322.167,369.667 324.667,367.167 330.5,368C 345.675,380.171 361.675,391.171 378.5,401C 381.167,401.667 383.833,401.667 386.5,401C 419.477,384.366 446.643,360.866 468,330.5C 469.608,327.618 470.941,324.618 472,321.5C 472.833,299.826 472.666,278.159 471.5,256.5C 468.579,255.593 465.579,255.26 462.5,255.5C 462.442,262.86 461.942,270.194 461,277.5C 457.996,281 454.663,281.333 451,278.5C 450.403,270.815 450.57,263.148 451.5,255.5C 449.278,255.178 447.444,255.845 446,257.5C 444.988,266.824 444.155,276.157 443.5,285.5C 448.599,285.175 453.599,285.675 458.5,287C 465.138,292.636 466.138,299.136 461.5,306.5C 465.762,313.289 465.428,319.789 460.5,326C 457.503,326.755 455.003,325.922 453,323.5C 452.68,320.46 452.68,317.46 453,314.5C 450.929,313.475 448.762,312.642 446.5,312C 444.114,309.293 443.948,306.46 446,303.5C 448.589,301.789 451.089,299.955 453.5,298C 448.345,296.39 443.012,296.057 437.5,297C 436.884,298.4 436.551,299.9 436.5,301.5C 437.213,306.661 437.88,311.828 438.5,317C 438.373,323.917 435.373,329.251 429.5,333C 418.386,340.892 406.386,347.225 393.5,352C 389.682,353.944 385.682,354.611 381.5,354C 377.625,346.412 373.125,339.246 368,332.5C 361.333,325.167 354.667,317.833 348,310.5C 349.651,302.56 350.985,294.56 352,286.5C 343.288,305.266 331.621,321.932 317,336.5C 316.981,357.483 314.481,378.15 309.5,398.5C 309.833,399.167 310.167,399.833 310.5,400.5C 351.868,424.025 389.034,453.025 422,487.5C 424.578,492.678 423.078,496.011 417.5,497.5C 407.35,488.518 397.35,479.351 387.5,470C 329.507,480.667 278.173,466.667 233.5,428C 230.833,427.833 228.167,427.667 225.5,427.5C 215.789,428.486 206.122,428.653 196.5,428C 227.386,458.613 264.386,477.947 307.5,486C 311.738,488.172 312.572,491.338 310,495.5C 308.667,496.167 307.333,496.833 306,497.5C 255.574,488.381 213.408,464.881 179.5,427C 173.134,426.078 166.8,425.411 160.5,425C 169.243,442.808 180.91,458.475 195.5,472C 208.981,481.16 223.814,486.326 240,487.5C 241.806,492.713 240.139,496.047 235,497.5C 213.033,496.516 194.366,488.182 179,472.5C 165.247,457.34 154.247,440.34 146,421.5C 136.505,434.488 127.505,447.821 119,461.5C 109.445,471.724 101.445,483.057 95,495.5C 92.2709,497.788 89.4376,497.955 86.5,496C 84.8131,494.087 84.3131,491.92 85,489.5C 93.1121,474.723 102.779,461.057 114,448.5C 121.578,435.76 129.744,423.426 138.5,411.5C 134.777,403.942 132.944,395.942 133,387.5C 124.285,373.977 121.285,359.31 124,343.5C 127.84,336.663 133.674,333.663 141.5,334.5C 141.29,326.788 142.79,319.455 146,312.5C 147.167,310 149,308.167 151.5,307C 155.948,304.964 160.448,303.13 165,301.5C 172.118,282.467 180.952,264.3 191.5,247C 177.902,248.871 164.235,250.704 150.5,252.5C 132.675,279.172 115.842,306.505 100,334.5C 94.4283,341.533 87.2617,345.866 78.5,347.5C 78.6667,396.168 78.5,444.834 78,493.5C 75.1625,498.329 71.8292,498.663 68,494.5C 67.6667,446.167 67.3333,397.833 67,349.5C 61.9255,350.565 56.7588,351.231 51.5,351.5C 51.6667,398.501 51.5,445.501 51,492.5C 47.6976,498.682 44.031,499.015 40,493.5C 39.8333,445.497 39.3333,397.497 38.5,349.5C 30.0702,344.882 26.0702,337.715 26.5,328C 27.071,321.506 27.571,315.006 28,308.5C 29.7933,302.372 33.46,297.705 39,294.5C 39.3333,202.167 39.6667,109.833 40,17.5C 40.9066,15.3909 42.4066,14.0576 44.5,13.5 Z M 51.5,25.5 C 56.8333,25.5 62.1667,25.5 67.5,25.5C 67.6667,112.167 67.5,198.834 67,285.5C 66.1667,287.167 65.3333,288.833 64.5,290.5C 60.2172,291.492 55.8839,291.826 51.5,291.5C 51.5,202.833 51.5,114.167 51.5,25.5 Z M 356.5,37.5 C 390.182,36.9106 409.349,53.2439 414,86.5C 414.832,95.1858 414.665,103.853 413.5,112.5C 410.716,113.392 408.05,114.558 405.5,116C 402.524,120.094 403.191,123.427 407.5,126C 409.818,126.342 411.985,125.842 414,124.5C 414.83,145.846 409.997,165.846 399.5,184.5C 398.5,185.333 397.5,186.167 396.5,187C 384.706,189.139 373.706,187.139 363.5,181C 352.717,175.217 344.217,167.051 338,156.5C 337.912,150.39 337.245,144.39 336,138.5C 330.192,136.917 324.359,135.084 318.5,133C 311.5,127.016 310.333,120.183 315,112.5C 323.687,107.679 328.687,110.346 330,120.5C 332.679,123.835 335.845,124.335 339.5,122C 340.576,102.597 331.576,95.43 312.5,100.5C 302.742,77.9391 308.075,59.7724 328.5,46C 337.488,41.5926 346.822,38.7592 356.5,37.5 Z M 321.5,146.5 C 322.822,146.33 323.989,146.663 325,147.5C 325.276,156.328 327.943,164.328 333,171.5C 339.396,177.732 346.229,183.399 353.5,188.5C 347.254,195.227 343.92,203.227 343.5,212.5C 325.913,210.541 313.413,217.541 306,233.5C 289.561,236.113 281.894,229.113 283,212.5C 288.57,200.641 297.404,197.474 309.5,203C 311.86,205.36 314.194,207.694 316.5,210C 322.333,210.833 324.833,208.333 324,202.5C 319.626,194.294 312.793,189.961 303.5,189.5C 303.529,183.469 301.862,177.969 298.5,173C 307.281,168.881 314.114,162.714 319,154.5C 319.941,151.846 320.774,149.179 321.5,146.5 Z M 272.5,149.5 C 283.046,148.565 288.88,153.231 290,163.5C 289.667,163.833 289.333,164.167 289,164.5C 280.544,160.521 272.044,160.521 263.5,164.5C 262.581,161.374 263.081,158.374 265,155.5C 267.114,152.879 269.614,150.879 272.5,149.5 Z M 179.5,297.5 C 186.736,278.359 196.07,260.359 207.5,243.5C 214.469,240.35 221.469,237.183 228.5,234C 232.241,232.262 235.408,229.762 238,226.5C 239.324,219.495 236.49,216.995 229.5,219C 221.67,224.915 213.003,229.248 203.5,232C 183.996,236.528 164.329,239.862 144.5,242C 137.477,249.881 131.31,258.381 126,267.5C 113.898,288.595 101.398,309.429 88.5,330C 84.6306,333.204 80.2973,335.538 75.5,337C 66.7166,338.528 57.8832,339.695 49,340.5C 44.5455,340.276 41.2121,338.276 39,334.5C 38.0946,326.089 38.4279,317.755 40,309.5C 41.8734,307.291 44.04,305.458 46.5,304C 54.4772,303.068 62.4772,302.402 70.5,302C 71.3333,301.167 72.1667,300.333 73,299.5C 86.8763,270.072 102.543,241.739 120,214.5C 126.851,206.324 135.351,200.49 145.5,197C 170.228,186.869 195.561,178.535 221.5,172C 232.46,170.115 242.793,171.782 252.5,177C 246.757,195.347 252.924,207.847 271,214.5C 270.678,220.192 271.845,225.692 274.5,231C 248.449,261.222 216.783,283.389 179.5,297.5 Z M 273.5,172.5 C 285.215,172.881 291.215,178.881 291.5,190.5C 283.854,192.302 278.021,196.636 274,203.5C 264.355,200.209 260.355,193.542 262,183.5C 264.437,178.226 268.271,174.56 273.5,172.5 Z M 355.5,211.5 C 367.244,213.076 372.41,219.743 371,231.5C 370.417,233.002 369.584,234.335 368.5,235.5C 366.127,228.089 361.794,222.089 355.5,217.5C 354.481,215.54 354.481,213.54 355.5,211.5 Z M 331.5,223.5 C 349.469,222.303 357.969,230.636 357,248.5C 353.989,258.005 347.489,263.339 337.5,264.5C 319.33,260.489 313.496,249.822 320,232.5C 323.161,228.491 326.994,225.491 331.5,223.5 Z M 281.5,240.5 C 287.424,243.809 293.757,246.143 300.5,247.5C 295.187,253.981 289.687,260.314 284,266.5C 282.671,272.834 285.171,275.668 291.5,275C 297.742,269.429 303.242,263.262 308,256.5C 315.89,271.194 328.056,277.527 344.5,275.5C 319.107,330.699 276.44,364.199 216.5,376C 200.92,378.827 185.254,379.827 169.5,379C 165.191,381.573 164.524,384.906 167.5,389C 218.403,393.403 263.903,379.903 304,348.5C 305.085,365.738 302.585,382.405 296.5,398.5C 278.551,407.571 259.551,413.071 239.5,415C 210.708,417.597 182.041,416.597 153.5,412C 146.262,403.573 143.096,393.74 144,382.5C 135.889,371.891 133.056,360.058 135.5,347C 185.519,345.11 229.852,328.443 268.5,297C 271.334,292.64 270.334,289.307 265.5,287C 263.711,286.48 262.044,286.813 260.5,288C 229.367,314.391 193.367,329.558 152.5,333.5C 153.1,328.802 153.933,324.136 155,319.5C 155.833,318.667 156.667,317.833 157.5,317C 206.693,303.922 248.026,278.422 281.5,240.5 Z M 299.5,409.5 C 300.873,409.343 302.207,409.51 303.5,410C 329.206,424.713 353.539,441.38 376.5,460C 346.027,465.524 316.693,461.858 288.5,449C 274.676,442.594 261.676,434.927 249.5,426C 258.847,423.796 268.18,421.463 277.5,419C 285.273,416.608 292.606,413.441 299.5,409.5 Z"/></g>
<g><path style="opacity:1" fill="#000000" d="M 390.5,61.5 C 396.051,60.0071 399.051,62.0071 399.5,67.5C 397.827,73.4155 394.327,74.7488 389,71.5C 386.739,67.6537 387.239,64.3204 390.5,61.5 Z"/></g>
<g><path style="opacity:1" fill="#000000" d="M 394.5,79.5 C 403.024,79.3448 405.358,83.0115 401.5,90.5C 394.202,92.7009 391.036,90.0343 392,82.5C 393.045,81.6266 393.878,80.6266 394.5,79.5 Z"/></g>
<g><path style="opacity:1" fill="#000000" d="M 374.5,112.5 C 381.731,111.841 387.398,114.341 391.5,120C 391.389,123.944 389.389,126.11 385.5,126.5C 381.395,125.281 377.395,123.781 373.5,122C 370.797,118.552 371.131,115.385 374.5,112.5 Z"/></g>
</svg>
