<?xml version="1.0" encoding="UTF-8"?>
<!DOCTYPE svg PUBLIC "-//W3C//DTD SVG 1.1//EN" "http://www.w3.org/Graphics/SVG/1.1/DTD/svg11.dtd">
<svg xmlns="http://www.w3.org/2000/svg" version="1.1" width="512px" height="512px" style="shape-rendering:geometricPrecision; text-rendering:geometricPrecision; image-rendering:optimizeQuality; fill-rule:evenodd; clip-rule:evenodd" xmlns:xlink="http://www.w3.org/1999/xlink">
<g><path style="opacity:1" fill="#000000" d="M 245.5,13.5 C 287.102,13.0568 324.435,25.2234 357.5,50C 363.963,54.787 368.463,60.9537 371,68.5C 374.928,86.4407 375.261,104.441 372,122.5C 367.897,129.969 361.731,132.635 353.5,130.5C 351.353,138.085 349.353,145.751 347.5,153.5C 350.95,157.849 352.616,162.849 352.5,168.5C 348.929,196.508 335.595,218.341 312.5,234C 310.533,237.166 310.366,240.333 312,243.5C 333.343,266.91 358.176,285.576 386.5,299.5C 400.174,284.82 411.508,268.486 420.5,250.5C 415.274,238.796 417.274,228.629 426.5,220C 428.025,218.991 429.692,218.491 431.5,218.5C 431.333,207.495 431.5,196.495 432,185.5C 434.131,178.345 438.964,175.011 446.5,175.5C 450.299,175.087 453.633,176.087 456.5,178.5C 462.683,174.683 469.016,174.517 475.5,178C 477.43,180.258 478.93,182.758 480,185.5C 480.168,196.182 480.668,206.849 481.5,217.5C 488.131,220.752 491.797,226.085 492.5,233.5C 491.577,245.499 487.244,255.999 479.5,265C 475.719,268.209 471.386,270.375 466.5,271.5C 459.022,313.634 439.689,349.134 408.5,378C 405.726,380.471 402.56,382.305 399,383.5C 397.775,383.138 396.609,382.638 395.5,382C 392.287,376.575 389.62,370.908 387.5,365C 371.491,358.829 356.158,351.329 341.5,342.5C 341.167,347 340.833,351.5 340.5,356C 340.935,367.185 341.602,378.351 342.5,389.5C 390.222,388.085 437.888,385.918 485.5,383C 487.01,384.351 488.01,386.018 488.5,388C 486.13,399.075 481.13,408.742 473.5,417C 466.982,421.798 459.649,424.131 451.5,424C 421.512,426.366 391.512,428.533 361.5,430.5C 355.449,430.415 353.282,427.415 355,421.5C 356.491,419.996 358.324,419.163 360.5,419C 392.864,417.093 425.198,414.76 457.5,412C 465.609,409.058 471.276,403.558 474.5,395.5C 431.206,397.276 387.873,399.276 344.5,401.5C 345.122,411.179 345.956,420.846 347,430.5C 351.412,450.472 354.579,470.638 356.5,491C 356.406,494.928 354.406,497.094 350.5,497.5C 347.867,496.699 346.033,495.033 345,492.5C 343.478,475.011 340.978,457.678 337.5,440.5C 308.496,450.708 278.829,453.208 248.5,448C 239.71,445.959 231.21,443.126 223,439.5C 211.832,456.835 202.499,475.168 195,494.5C 191.667,498.5 188.333,498.5 185,494.5C 184.333,492.5 184.333,490.5 185,488.5C 189.543,477.707 194.376,467.041 199.5,456.5C 193.876,452.318 191.543,446.651 192.5,439.5C 187.786,439.173 183.12,439.507 178.5,440.5C 175.28,449.772 169.947,457.606 162.5,464C 152.918,470.446 142.918,471.113 132.5,466C 124.667,462.167 118.833,456.333 115,448.5C 114.502,445.518 114.335,442.518 114.5,439.5C 104.161,439.666 93.828,439.5 83.5,439C 82.2986,438.097 81.4652,436.931 81,435.5C 80.3333,429.167 80.3333,422.833 81,416.5C 84.1363,407.031 90.6363,401.531 100.5,400C 108.521,399.832 116.521,399.332 124.5,398.5C 103.052,364.249 95.052,327.415 100.5,288C 105.907,287.819 111.24,287.652 116.5,287.5C 138.867,252.127 166.867,221.794 200.5,196.5C 202.103,191.362 204.103,186.362 206.5,181.5C 206,181.167 205.5,180.833 205,180.5C 174.739,188.877 147.905,203.377 124.5,224C 98.1778,237.231 71.5111,237.898 44.5,226C 33.1289,219.962 24.4622,211.296 18.5,200C 19.0622,196.605 21.0622,194.771 24.5,194.5C 37.5924,197.16 50.5924,196.66 63.5,193C 81.4902,188.448 98.8236,182.115 115.5,174C 89.4871,170.909 66.9871,160.409 48,142.5C 36.5807,125.86 35.5807,108.526 45,90.5C 52.9741,71.3562 65.1407,55.5229 81.5,43C 84.7907,40.9255 87.9574,41.0922 91,43.5C 90.5055,52.8262 89.6722,62.1595 88.5,71.5C 89.8545,100.025 104.188,118.525 131.5,127C 139.318,129.525 147.318,131.192 155.5,132C 181.206,132.009 206.873,132.842 232.5,134.5C 233.5,134.167 234.5,133.833 235.5,133.5C 238.976,127.019 240.476,120.019 240,112.5C 242.081,108.75 245.081,106.084 249,104.5C 249.667,96.5 249.667,88.5 249,80.5C 245.212,76.2954 241.878,71.6288 239,66.5C 238.036,60.4154 236.702,54.4154 235,48.5C 228.755,41.3398 225.255,33.0065 224.5,23.5C 224.353,20.7466 225.02,18.2466 226.5,16C 232.953,15.012 239.286,14.1787 245.5,13.5 Z M 236.5,25.5 C 281.796,22.4348 321.629,35.4348 356,64.5C 358.434,67.7954 360.101,71.462 361,75.5C 362.955,89.8406 362.955,104.174 361,118.5C 360,119.167 359,119.833 358,120.5C 331.852,106.509 305.352,93.176 278.5,80.5C 273.208,82.7349 272.208,86.2349 275.5,91C 278.994,92.5795 282.327,94.4128 285.5,96.5C 286.833,105.167 286.833,113.833 285.5,122.5C 278.035,118.198 270.701,113.698 263.5,109C 262.299,108.097 261.465,106.931 261,105.5C 260.667,95.1667 260.333,84.8333 260,74.5C 256.667,70.5 253.333,66.5 250,62.5C 248.816,57.5462 247.816,52.5462 247,47.5C 243.7,41.52 240.366,35.52 237,29.5C 236.51,28.2068 236.343,26.8734 236.5,25.5 Z M 77.5,62.5 C 75.0402,99.4495 91.0402,124.283 125.5,137C 133.948,139.945 142.615,141.945 151.5,143C 171.5,143.333 191.5,143.667 211.5,144C 218.86,144.383 226.193,145.05 233.5,146C 234.416,146.374 235.25,146.874 236,147.5C 237.537,151.537 239.704,155.204 242.5,158.5C 241.867,162.134 240.033,164.8 237,166.5C 203.615,161.107 170.115,160.107 136.5,163.5C 112.097,163.567 89.4308,157.4 68.5,145C 59.9967,139.506 54.1634,132.006 51,122.5C 50.3333,117.5 50.3333,112.5 51,107.5C 56.291,90.2273 65.1243,75.2273 77.5,62.5 Z M 297.5,102.5 C 311.963,109.565 326.296,116.898 340.5,124.5C 340.863,132.697 339.53,140.697 336.5,148.5C 323.768,143.301 311.435,137.301 299.5,130.5C 297.82,121.249 297.153,111.916 297.5,102.5 Z M 251.5,115.5 C 279.683,133.679 309.183,149.679 340,163.5C 339.66,187.344 329.826,206.511 310.5,221C 309.551,221.617 308.718,221.451 308,220.5C 287.287,195.456 266.954,170.122 247,144.5C 246.182,141.773 246.348,139.106 247.5,136.5C 262.731,149.9 278.397,162.734 294.5,175C 300.359,175.13 302.526,172.297 301,166.5C 284.333,152.5 267.667,138.5 251,124.5C 250.264,121.408 250.431,118.408 251.5,115.5 Z M 250.5,168.5 C 267.481,189.096 284.481,209.763 301.5,230.5C 299.082,234.909 298.249,239.575 299,244.5C 307.399,257.907 315.399,271.574 323,285.5C 324.535,289.773 325.869,294.106 327,298.5C 328.422,317.793 328.922,337.126 328.5,356.5C 301.803,360.648 275.136,360.481 248.5,356C 243.087,354.98 237.754,353.647 232.5,352C 221.833,337.333 211.167,322.667 200.5,308C 193.837,306.334 191.004,308.834 192,315.5C 201.667,329.167 211.333,342.833 221,356.5C 221.494,365.226 220.994,373.893 219.5,382.5C 213.824,382.334 208.157,382.501 202.5,383C 194.74,385.668 191.407,391.168 192.5,399.5C 188.233,399.797 184.066,399.464 180,398.5C 179.742,378.152 179.075,357.818 178,337.5C 177.404,331.114 175.571,325.114 172.5,319.5C 186.824,304.671 202.491,291.504 219.5,280C 232.169,268.83 240.335,254.997 244,238.5C 245.97,221.871 241.803,207.038 231.5,194C 226.852,190.255 221.518,188.589 215.5,189C 217.601,186.23 220.268,184.23 223.5,183C 231.306,181.867 238.973,180.2 246.5,178C 248.515,175.135 249.848,171.968 250.5,168.5 Z M 162.5,173.5 C 170.507,173.334 178.507,173.5 186.5,174C 161.329,183.246 138.663,196.579 118.5,214C 97.0007,225.468 75.0007,226.468 52.5,217C 47.4936,214.499 42.8269,211.499 38.5,208C 72.8661,204.1 105.199,193.767 135.5,177C 144.652,175.856 153.652,174.69 162.5,173.5 Z M 444.5,186.5 C 447.238,185.965 449.072,186.965 450,189.5C 450.5,198.827 450.666,208.161 450.5,217.5C 447.833,217.5 445.167,217.5 442.5,217.5C 442.334,207.828 442.5,198.161 443,188.5C 443.717,187.956 444.217,187.289 444.5,186.5 Z M 464.5,186.5 C 466.911,186.137 468.411,187.137 469,189.5C 469.333,201.5 469.667,213.5 470,225.5C 473.57,226.723 476.903,228.39 480,230.5C 478.62,259.945 464.786,267.779 438.5,254C 429.842,247.407 427.842,239.407 432.5,230C 440.109,228.27 447.776,228.104 455.5,229.5C 453.815,235.434 449.815,238.268 443.5,238C 440.197,243.561 441.697,247.061 448,248.5C 463.876,245.421 469.542,236.088 465,220.5C 464.333,219.167 463.333,218.167 462,217.5C 461.333,208.833 461.333,200.167 462,191.5C 462.847,189.807 463.68,188.14 464.5,186.5 Z M 214.5,200.5 C 220.347,199.84 224.513,202.173 227,207.5C 231.682,215.931 233.682,224.931 233,234.5C 226.454,223.234 217.954,213.734 207.5,206C 209.903,204.147 212.236,202.314 214.5,200.5 Z M 197.5,213.5 C 211.214,222.741 221.548,234.908 228.5,250C 225.774,255.393 222.274,260.226 218,264.5C 214.162,249.975 206.662,237.808 195.5,228C 188.495,226.676 185.995,229.51 188,236.5C 199.145,246.622 205.978,259.122 208.5,274C 206.167,275.5 203.833,277 201.5,278.5C 191.435,264.6 178.768,253.767 163.5,246C 174.373,234.626 185.706,223.792 197.5,213.5 Z M 154.5,255.5 C 169.459,261.622 181.625,271.289 191,284.5C 191.667,285.167 191.667,285.833 191,286.5C 186.645,290.356 182.145,294.023 177.5,297.5C 169.818,284.319 160.152,272.819 148.5,263C 150.32,260.348 152.32,257.848 154.5,255.5 Z M 428.5,260.5 C 436.016,266.735 444.683,270.569 454.5,272C 448.868,301.589 436.701,328.089 418,351.5C 413.313,357.687 407.813,363.02 401.5,367.5C 394.323,348.737 392.156,329.403 395,309.5C 396.08,307.004 397.414,304.67 399,302.5C 410.61,289.728 420.443,275.728 428.5,260.5 Z M 140.5,272.5 C 153.119,281.12 162.453,292.453 168.5,306.5C 167.52,307.981 166.353,309.315 165,310.5C 154.365,300.559 141.865,294.059 127.5,291C 131.664,284.677 135.997,278.51 140.5,272.5 Z M 333.5,279.5 C 348.443,291.583 364.609,301.916 382,310.5C 382.311,324.226 382.978,337.893 384,351.5C 369.147,344.992 354.98,337.325 341.5,328.5C 341.19,311.731 338.523,295.398 333.5,279.5 Z M 108.5,299.5 C 129.249,300.628 146.749,308.628 161,323.5C 164.8,329.235 166.8,335.569 167,342.5C 168.198,356.838 168.364,371.171 167.5,385.5C 155.313,380.684 143.813,382.018 133,389.5C 116.736,361.784 108.569,331.784 108.5,299.5 Z M 232.5,364.5 C 264.773,371.731 297.106,372.731 329.5,367.5C 329.508,370.545 329.841,373.545 330.5,376.5C 297.972,386.818 265.305,387.151 232.5,377.5C 232.182,373.266 232.182,368.933 232.5,364.5 Z M 328.5,388.5 C 329.5,388.5 330.5,388.5 331.5,388.5C 332.569,401.194 333.903,413.861 335.5,426.5C 335.182,427.647 334.516,428.481 333.5,429C 305.479,439.536 276.812,441.869 247.5,436C 240.618,434.262 233.952,431.928 227.5,429C 226.707,425.889 226.874,422.723 228,419.5C 261.159,428.263 293.659,426.096 325.5,413C 328.592,408.882 327.925,405.549 323.5,403C 314.863,405.095 306.197,407.429 297.5,410C 274.368,415.013 251.368,414.513 228.5,408.5C 229.101,402.158 229.768,395.824 230.5,389.5C 256.219,396.133 282.219,397.633 308.5,394C 315.456,392.764 322.122,390.931 328.5,388.5 Z M 151.5,393.5 C 157.341,393.625 162.674,395.292 167.5,398.5C 168.298,400.078 168.798,401.744 169,403.5C 169.667,412.833 169.667,422.167 169,431.5C 166.346,444.645 158.846,453.645 146.5,458.5C 136.947,456.73 129.947,451.563 125.5,443C 127.933,438.896 130.767,435.063 134,431.5C 139.687,421.667 141.021,411.334 138,400.5C 141.985,396.978 146.485,394.645 151.5,393.5 Z M 205.5,393.5 C 209.833,393.5 214.167,393.5 218.5,393.5C 217.4,405.499 216.233,417.499 215,429.5C 211.667,434.833 208.333,440.167 205,445.5C 203.846,437.158 203.346,428.658 203.5,420C 203.667,411.833 203.833,403.667 204,395.5C 204.717,394.956 205.217,394.289 205.5,393.5 Z M 99.5,411.5 C 108.833,411.5 118.167,411.5 127.5,411.5C 128.176,417.98 126.176,423.48 121.5,428C 111.506,428.5 101.506,428.666 91.5,428.5C 90.1981,420.777 92.8647,415.11 99.5,411.5 Z M 180.5,411.5 C 184.5,411.5 188.5,411.5 192.5,411.5C 192.5,417.167 192.5,422.833 192.5,428.5C 188.445,428.824 184.445,428.491 180.5,427.5C 181.725,422.181 181.725,416.848 180.5,411.5 Z"/></g>
<g><path style="opacity:1" fill="#000000" d="M 310.5,118.5 C 317.374,117.769 322.374,120.436 325.5,126.5C 325.162,130.171 323.162,132.171 319.5,132.5C 316.387,131.444 313.387,130.111 310.5,128.5C 307.952,125.207 307.952,121.873 310.5,118.5 Z"/></g>
<g><path style="opacity:1" fill="#000000" d="M 309.5,178.5 C 315.518,177.191 319.185,179.524 320.5,185.5C 317.32,191.391 313.153,192.058 308,187.5C 307.068,184.177 307.568,181.177 309.5,178.5 Z"/></g>
</svg>
