<?xml version="1.0" encoding="UTF-8"?>
<!DOCTYPE svg PUBLIC "-//W3C//DTD SVG 1.1//EN" "http://www.w3.org/Graphics/SVG/1.1/DTD/svg11.dtd">
<svg xmlns="http://www.w3.org/2000/svg" version="1.1" width="512px" height="512px" style="shape-rendering:geometricPrecision; text-rendering:geometricPrecision; image-rendering:optimizeQuality; fill-rule:evenodd; clip-rule:evenodd" xmlns:xlink="http://www.w3.org/1999/xlink">
<g><path style="opacity:1" fill="#32323e" d="M 354.5,428.5 C 355.198,426.333 356.531,424.5 358.5,423C 377.85,421.984 397.183,420.818 416.5,419.5C 430.811,418.151 445.145,416.984 459.5,416C 468.235,412.931 473.902,406.931 476.5,398C 456.311,398.301 436.311,399.468 416.5,401.5C 392.504,402.3 368.504,402.967 344.5,403.5C 344.692,412.406 345.692,421.073 347.5,429.5C 349.555,442.831 351.722,456.165 354,469.5C 355.237,478.134 356.071,486.8 356.5,495.5C 352.833,495.5 349.167,495.5 345.5,495.5C 345.818,490.968 345.485,486.634 344.5,482.5C 344.187,477.647 343.521,472.98 342.5,468.5C 341.454,460.307 340.121,452.14 338.5,444C 338.167,443.5 337.833,443 337.5,442.5C 334.471,443.84 331.471,445.173 328.5,446.5C 300.113,454.355 271.447,455.522 242.5,450C 235.938,447.701 229.438,445.201 223,442.5C 211.75,458.998 202.583,476.665 195.5,495.5C 191.445,495.824 187.445,495.491 183.5,494.5C 188.431,482.805 193.765,471.305 199.5,460C 193.5,456.156 191.166,450.656 192.5,443.5C 187.821,443.334 183.155,443.501 178.5,444C 174,456.332 166,465.665 154.5,472C 136.139,474.902 122.639,468.069 114,451.5C 113.503,448.854 113.336,446.187 113.5,443.5C 103.494,443.666 93.4944,443.5 83.5,443C 81.2769,442.348 80.1102,440.848 80,438.5C 78.898,430.321 79.5646,422.321 82,414.5C 85.3229,408.921 90.1562,405.421 96.5,404C 105.833,403.667 115.167,403.333 124.5,403C 102.65,368.304 94.3165,330.97 99.5,291C 104.956,290.677 110.289,290.51 115.5,290.5C 138.201,254.792 166.534,224.126 200.5,198.5C 202.107,193.346 204.107,188.346 206.5,183.5C 192.59,185.637 179.256,190.137 166.5,197C 151.455,205.186 137.455,214.853 124.5,226C 97.5658,240.519 70.2325,241.186 42.5,228C 31.276,222.277 22.9427,213.777 17.5,202.5C 17.7857,199.049 19.619,197.049 23,196.5C 35.1423,199.134 47.309,198.967 59.5,196C 78.893,191.314 97.5597,184.647 115.5,176C 89.0082,173.167 66.1748,162.667 47,144.5C 36.9302,130.62 34.9302,115.62 41,99.5C 48.1379,79.3848 59.6379,62.2181 75.5,48C 78.601,46.0335 81.7676,44.2002 85,42.5C 86.982,42.9903 88.6487,43.9903 90,45.5C 79.2607,95.243 98.7607,124.41 148.5,133C 177.511,133.943 206.511,135.109 235.5,136.5C 236.397,132.866 237.73,129.366 239.5,126C 237.258,116.988 240.258,110.488 248.5,106.5C 249.882,97.4566 249.715,88.4566 248,79.5C 244.962,76.7974 242.295,73.7974 240,70.5C 238.12,63.8899 236.454,57.2233 235,50.5C 230.08,44.6599 226.747,37.9932 225,30.5C 224.233,26.4425 224.4,22.4425 225.5,18.5C 273.999,10.7912 317.999,21.6245 357.5,51C 368.207,59.5811 373.707,70.7478 374,84.5C 374.667,94.8333 374.667,105.167 374,115.5C 373.412,129.595 366.245,135.261 352.5,132.5C 351.857,140.569 350.191,148.402 347.5,156C 351.407,159.817 353.407,164.484 353.5,170C 349.754,198.015 336.254,219.848 313,235.5C 310.23,239.671 310.23,243.671 313,247.5C 331.103,265.614 350.936,281.447 372.5,295C 377.5,297.5 382.5,300 387.5,302.5C 400.809,288.02 411.976,272.02 421,254.5C 420.312,249.382 419.479,244.215 418.5,239C 418.771,229.953 423.104,223.786 431.5,220.5C 432.332,209.515 432.832,198.515 433,187.5C 434.068,182.765 436.901,179.598 441.5,178C 447.18,176.833 452.514,177.666 457.5,180.5C 464.617,176.231 471.451,176.564 478,181.5C 479.439,183.275 480.439,185.275 481,187.5C 481.333,198.167 481.667,208.833 482,219.5C 489.326,222.822 493.159,228.489 493.5,236.5C 492.654,249.9 487.321,261.067 477.5,270C 474.149,271.928 470.649,273.428 467,274.5C 459.751,320.197 438.251,357.364 402.5,386C 399.364,387.041 396.864,386.207 395,383.5C 392.539,378.614 390.372,373.614 388.5,368.5C 371.883,361.915 356.05,353.915 341,344.5C 340.242,360.915 341.075,377.248 343.5,393.5C 390.22,391.74 436.887,389.073 483.5,385.5C 486.168,385.745 488.002,387.079 489,389.5C 487.915,402.503 482.415,413.336 472.5,422C 469.618,423.608 466.618,424.941 463.5,426C 427.929,429.898 392.262,432.231 356.5,433C 355.418,431.67 354.751,430.17 354.5,428.5 Z M 192.5,303.5 C 192.674,305.861 193.007,308.194 193.5,310.5C 191.039,313.642 190.872,316.975 193,320.5C 202.333,333.833 211.667,347.167 221,360.5C 221.164,368.861 220.664,377.195 219.5,385.5C 211.965,384.927 204.632,385.761 197.5,388C 193.077,392.221 191.41,397.387 192.5,403.5C 188.167,403.5 183.833,403.5 179.5,403.5C 179.321,381.141 178.488,358.808 177,336.5C 176.134,331.558 174.3,327.058 171.5,323C 178.069,315.927 185.069,309.427 192.5,303.5 Z"/></g>
<g><path style="opacity:1" fill="#686f82" d="M 252.5,26.5 C 279.999,34.9963 307.666,43.3296 335.5,51.5C 336.107,51.3764 336.44,51.0431 336.5,50.5C 343.064,54.0659 349.064,58.3993 354.5,63.5C 354.265,64.0967 353.765,64.4301 353,64.5C 314.216,52.9298 275.383,41.5965 236.5,30.5C 235.766,29.2921 235.433,27.9587 235.5,26.5C 241.167,26.5 246.833,26.5 252.5,26.5 Z"/></g>
<g><path style="opacity:1" fill="#687481" d="M 252.5,26.5 C 275.129,26.459 296.796,30.959 317.5,40C 324.217,43.0205 330.551,46.5205 336.5,50.5C 336.44,51.0431 336.107,51.3764 335.5,51.5C 307.666,43.3296 279.999,34.9963 252.5,26.5 Z"/></g>
<g><path style="opacity:1" fill="#636f7c" d="M 236.5,30.5 C 275.383,41.5965 314.216,52.9298 353,64.5C 353.765,64.4301 354.265,64.0967 354.5,63.5C 358.238,66.626 360.738,70.626 362,75.5C 363.188,81.7782 363.688,88.1115 363.5,94.5C 326.063,83.4112 288.563,72.4112 251,61.5C 250.098,61.7432 249.265,62.0766 248.5,62.5C 248.515,58.4402 248.015,54.4402 247,50.5C 243.678,43.6946 240.178,37.0279 236.5,30.5 Z"/></g>
<g><path style="opacity:1" fill="#63697c" d="M 363.5,94.5 C 363.5,97.1667 363.5,99.8333 363.5,102.5C 327.788,92.3221 292.122,81.9887 256.5,71.5C 252.435,69.7671 249.768,66.7671 248.5,62.5C 249.265,62.0766 250.098,61.7432 251,61.5C 288.563,72.4112 326.063,83.4112 363.5,94.5 Z"/></g>
<g><path style="opacity:1" fill="#6e7b87" d="M 72.5,67.5 C 66.888,89.6477 60.2213,111.314 52.5,132.5C 48.7144,125.31 47.5478,117.643 49,109.5C 54.0313,93.7548 61.8647,79.7548 72.5,67.5 Z"/></g>
<g><path style="opacity:1" fill="#6b7587" d="M 79.5,91.5 C 73.8313,108.845 68.1646,126.178 62.5,143.5C 58.4564,140.457 55.1231,136.791 52.5,132.5C 60.2213,111.314 66.888,89.6477 72.5,67.5C 73.3981,65.0948 74.8981,63.0948 77,61.5C 77.1222,71.5893 77.9556,81.5893 79.5,91.5 Z"/></g>
<g><path style="opacity:1" fill="#3d4a56" d="M 259.5,79.5 C 264.232,81.866 268.899,84.1993 273.5,86.5C 273.829,88.9908 274.829,91.1575 276.5,93C 279.971,95.0719 283.638,96.5719 287.5,97.5C 287.666,107.172 287.5,116.839 287,126.5C 278.571,120.609 269.904,114.942 261,109.5C 260.758,99.4672 260.258,89.4672 259.5,79.5 Z"/></g>
<g><path style="opacity:1" fill="#5d6975" d="M 256.5,71.5 C 292.122,81.9887 327.788,92.3221 363.5,102.5C 363.804,108.577 363.304,114.577 362,120.5C 361.196,121.804 360.029,122.471 358.5,122.5C 332.318,109.576 306.318,96.4094 280.5,83C 277.348,82.5761 275.014,83.7428 273.5,86.5C 268.899,84.1993 264.232,81.866 259.5,79.5C 259.984,76.2118 258.984,73.5452 256.5,71.5 Z"/></g>
<g><path style="opacity:1" fill="#697582" d="M 79.5,91.5 C 82.0737,101.981 86.7404,111.314 93.5,119.5C 90.3696,131.558 87.0362,143.558 83.5,155.5C 75.4917,153.135 68.4917,149.135 62.5,143.5C 68.1646,126.178 73.8313,108.845 79.5,91.5 Z"/></g>
<g><path style="opacity:1" fill="#f3bbb1" d="M 326.5,118.5 C 325.551,119.152 324.385,119.486 323,119.5C 314.84,118.376 306.673,117.376 298.5,116.5C 298.5,118.167 298.5,119.833 298.5,121.5C 298.5,125.167 298.5,128.833 298.5,132.5C 297.342,123.009 297.175,113.342 298,103.5C 307.64,108.402 317.14,113.402 326.5,118.5 Z"/></g>
<g><path style="opacity:1" fill="#f7c6bd" d="M 326.5,118.5 C 331.788,120.477 336.788,122.977 341.5,126C 342.811,128.274 342.811,130.44 341.5,132.5C 335.617,131.182 329.617,130.515 323.5,130.5C 323.66,128.801 323.494,127.134 323,125.5C 319.564,122.507 315.731,121.507 311.5,122.5C 310.691,124.071 310.357,125.738 310.5,127.5C 309.839,126.282 309.172,124.949 308.5,123.5C 305.137,122.832 301.803,122.165 298.5,121.5C 298.5,119.833 298.5,118.167 298.5,116.5C 306.673,117.376 314.84,118.376 323,119.5C 324.385,119.486 325.551,119.152 326.5,118.5 Z"/></g>
<g><path style="opacity:1" fill="#697582" d="M 338.5,184.5 C 309.696,166.046 280.363,148.379 250.5,131.5C 250.091,127.152 249.924,122.819 250,118.5C 251.388,117.446 252.888,117.28 254.5,118C 281.005,135.589 309.005,150.589 338.5,163C 340.726,164.62 342.06,166.786 342.5,169.5C 341.903,174.818 340.569,179.818 338.5,184.5 Z"/></g>
<g><path style="opacity:1" fill="#e2847f" d="M 323.5,130.5 C 318.475,133.487 314.142,132.487 310.5,127.5C 310.357,125.738 310.691,124.071 311.5,122.5C 315.731,121.507 319.564,122.507 323,125.5C 323.494,127.134 323.66,128.801 323.5,130.5 Z"/></g>
<g><path style="opacity:1" fill="#646e7d" d="M 93.5,119.5 C 104.88,129.691 117.88,137.024 132.5,141.5C 130.441,148.845 128.274,156.179 126,163.5C 123.281,164.444 120.448,164.777 117.5,164.5C 110.339,164.195 103.339,163.029 96.5,161C 91.7798,159.824 87.4465,157.99 83.5,155.5C 87.0362,143.558 90.3696,131.558 93.5,119.5 Z"/></g>
<g><path style="opacity:1" fill="#f9d1ca" d="M 298.5,121.5 C 301.803,122.165 305.137,122.832 308.5,123.5C 309.172,124.949 309.839,126.282 310.5,127.5C 314.142,132.487 318.475,133.487 323.5,130.5C 329.617,130.515 335.617,131.182 341.5,132.5C 341.768,134.099 341.434,135.432 340.5,136.5C 327.285,135.202 314.119,133.536 301,131.5C 300.235,131.57 299.735,131.903 299.5,132.5C 299.167,132.5 298.833,132.5 298.5,132.5C 298.5,128.833 298.5,125.167 298.5,121.5 Z"/></g>
<g><path style="opacity:1" fill="#686f82" d="M 250.5,131.5 C 280.363,148.379 309.696,166.046 338.5,184.5C 338.598,186.553 337.931,188.22 336.5,189.5C 318.171,177.999 299.504,166.999 280.5,156.5C 269.866,149.194 259.533,141.528 249.5,133.5C 249.328,132.508 249.662,131.842 250.5,131.5 Z"/></g>
<g><path style="opacity:1" fill="#3e4b57" d="M 249.5,133.5 C 259.533,141.528 269.866,149.194 280.5,156.5C 287.086,161.804 294.086,166.638 301.5,171C 302.833,172.667 302.833,174.333 301.5,176C 296.973,176.734 292.639,176.067 288.5,174C 277.881,170.021 267.548,165.521 257.5,160.5C 253.865,156.693 250.365,152.693 247,148.5C 245,144.167 245,139.833 247,135.5C 247.417,134.244 248.25,133.577 249.5,133.5 Z"/></g>
<g><path style="opacity:1" fill="#f5d9d3" d="M 340.5,136.5 C 340.401,141.769 339.234,146.769 337,151.5C 323.956,146.062 311.456,139.729 299.5,132.5C 299.735,131.903 300.235,131.57 301,131.5C 314.119,133.536 327.285,135.202 340.5,136.5 Z"/></g>
<g><path style="opacity:1" fill="#596470" d="M 132.5,141.5 C 139.124,142.771 145.79,143.938 152.5,145C 173.164,145.5 193.831,145.667 214.5,145.5C 215.263,146.268 216.263,146.768 217.5,147C 210.763,154.26 203.096,160.094 194.5,164.5C 168.728,164.227 143.061,164.227 117.5,164.5C 120.448,164.777 123.281,164.444 126,163.5C 128.274,156.179 130.441,148.845 132.5,141.5 Z"/></g>
<g><path style="opacity:1" fill="#43505c" d="M 214.5,145.5 C 221.501,146.25 228.501,147.083 235.5,148C 237.847,152.362 240.18,156.695 242.5,161C 241.776,163.779 240.776,166.446 239.5,169C 224.653,166.592 209.653,165.092 194.5,164.5C 203.096,160.094 210.763,154.26 217.5,147C 216.263,146.768 215.263,146.268 214.5,145.5 Z"/></g>
<g><path style="opacity:1" fill="#636f7c" d="M 280.5,156.5 C 299.504,166.999 318.171,177.999 336.5,189.5C 334.558,196.051 331.558,202.051 327.5,207.5C 307.801,195.317 287.801,183.65 267.5,172.5C 263.692,168.878 260.359,164.878 257.5,160.5C 267.548,165.521 277.881,170.021 288.5,174C 292.639,176.067 296.973,176.734 301.5,176C 302.833,174.333 302.833,172.667 301.5,171C 294.086,166.638 287.086,161.804 280.5,156.5 Z"/></g>
<g><path style="opacity:1" fill="#3e4b57" d="M 299.5,240.5 C 294.833,236.833 290.167,233.167 285.5,229.5C 280.5,223.833 275.167,218.5 269.5,213.5C 260.277,203.386 252.277,192.386 245.5,180.5C 248.368,177.403 250.201,173.736 251,169.5C 268.167,190.667 285.333,211.833 302.5,233C 301.718,235.672 300.718,238.172 299.5,240.5 Z"/></g>
<g><path style="opacity:1" fill="#63697c" d="M 267.5,172.5 C 287.801,183.65 307.801,195.317 327.5,207.5C 326.136,209.191 324.803,210.858 323.5,212.5C 308.149,203.473 292.816,194.473 277.5,185.5C 273.443,181.716 270.109,177.383 267.5,172.5 Z"/></g>
<g><path style="opacity:1" fill="#3d4a56" d="M 153.5,174.5 C 165.505,174.333 177.505,174.5 189.5,175C 178.049,179.814 166.716,184.814 155.5,190C 141.3,198.86 127.633,208.527 114.5,219C 86.5859,231.382 60.5859,228.382 36.5,210C 56.8358,208.33 76.5025,203.997 95.5,197C 108.378,191.562 121.045,185.562 133.5,179C 140.299,177.464 146.965,175.964 153.5,174.5 Z"/></g>
<g><path style="opacity:1" fill="#6f7b8d" d="M 245.5,180.5 C 252.277,192.386 260.277,203.386 269.5,213.5C 260.363,214.819 251.029,215.486 241.5,215.5C 238.607,207.769 234.273,200.936 228.5,195C 224.358,192.928 220.025,191.428 215.5,190.5C 217.024,188.142 219.024,186.309 221.5,185C 229.51,183.497 237.51,181.997 245.5,180.5 Z"/></g>
<g><path style="opacity:1" fill="#f5d3cd" d="M 444.5,188.5 C 448.158,187.872 450.658,189.206 452,192.5C 452.5,201.827 452.666,211.161 452.5,220.5C 449.5,220.5 446.5,220.5 443.5,220.5C 443.191,209.752 443.524,199.085 444.5,188.5 Z"/></g>
<g><path style="opacity:1" fill="#5d6975" d="M 277.5,185.5 C 292.816,194.473 308.149,203.473 323.5,212.5C 319.697,218.166 314.697,221.999 308.5,224C 298.333,211.003 288,198.17 277.5,185.5 Z"/></g>
<g><path style="opacity:1" fill="#f9d8d2" d="M 470.5,218.5 C 468.208,218.756 466.041,218.423 464,217.5C 463.5,209.173 463.334,200.84 463.5,192.5C 464.385,188.736 466.552,187.736 470,189.5C 470.5,199.161 470.666,208.828 470.5,218.5 Z"/></g>
<g><path style="opacity:1" fill="#67677a" d="M 233.5,239.5 C 225.199,228.203 216.199,217.536 206.5,207.5C 211.635,202.296 217.468,201.296 224,204.5C 231.626,214.887 234.793,226.554 233.5,239.5 Z"/></g>
<g><path style="opacity:1" fill="#39394c" d="M 206.5,207.5 C 216.199,217.536 225.199,228.203 233.5,239.5C 232.679,243.522 231.345,247.522 229.5,251.5C 222.32,236.133 211.653,223.799 197.5,214.5C 200.27,211.939 203.27,209.606 206.5,207.5 Z"/></g>
<g><path style="opacity:1" fill="#636375" d="M 197.5,214.5 C 211.653,223.799 222.32,236.133 229.5,251.5C 226.345,258.982 221.679,265.316 215.5,270.5C 212.894,263.284 209.727,256.284 206,249.5C 199.966,240.744 193.466,232.411 186.5,224.5C 190.192,221.138 193.859,217.805 197.5,214.5 Z"/></g>
<g><path style="opacity:1" fill="#6f7c88" d="M 269.5,213.5 C 275.167,218.5 280.5,223.833 285.5,229.5C 272.015,230.95 258.349,231.95 244.5,232.5C 244.795,230.265 244.461,228.265 243.5,226.5C 243.309,222.738 242.642,219.071 241.5,215.5C 251.029,215.486 260.363,214.819 269.5,213.5 Z"/></g>
<g><path style="opacity:1" fill="#38384b" d="M 186.5,224.5 C 193.466,232.411 199.966,240.744 206,249.5C 209.727,256.284 212.894,263.284 215.5,270.5C 213.879,273.171 211.546,275.171 208.5,276.5C 202.7,258.53 192.7,243.53 178.5,231.5C 180.751,228.705 183.418,226.372 186.5,224.5 Z"/></g>
<g><path style="opacity:1" fill="#626273" d="M 178.5,231.5 C 192.7,243.53 202.7,258.53 208.5,276.5C 205.72,279.064 202.72,281.397 199.5,283.5C 194.894,277.556 189.894,271.89 184.5,266.5C 176.747,260.391 169.081,254.391 161.5,248.5C 167.5,243.167 173.167,237.5 178.5,231.5 Z"/></g>
<g><path style="opacity:1" fill="#6b7587" d="M 243.5,226.5 C 244.461,228.265 244.795,230.265 244.5,232.5C 258.349,231.95 272.015,230.95 285.5,229.5C 290.167,233.167 294.833,236.833 299.5,240.5C 299.5,241.167 299.5,241.833 299.5,242.5C 281.201,242.181 262.868,242.848 244.5,244.5C 244.737,243.209 244.404,242.209 243.5,241.5C 243.5,236.5 243.5,231.5 243.5,226.5 Z"/></g>
<g><path style="opacity:1" fill="#697582" d="M 299.5,242.5 C 299.34,244.199 299.506,245.866 300,247.5C 303.096,252.028 305.929,256.695 308.5,261.5C 287.224,262.745 265.89,264.412 244.5,266.5C 245.833,259.167 245.833,251.833 244.5,244.5C 262.868,242.848 281.201,242.181 299.5,242.5 Z"/></g>
<g><path style="opacity:1" fill="#f5c0b7" d="M 463.5,192.5 C 463.334,200.84 463.5,209.173 464,217.5C 466.041,218.423 468.208,218.756 470.5,218.5C 469.183,226.352 472.516,230.519 480.5,231C 482.612,240.083 480.945,248.583 475.5,256.5C 461.798,255.114 448.131,253.447 434.5,251.5C 430.422,246.98 428.922,241.647 430,235.5C 431.167,233.667 432.667,232.167 434.5,231C 441.826,230.5 449.159,230.334 456.5,230.5C 456.927,237.474 453.594,240.64 446.5,240C 442.965,242.838 442.632,246.005 445.5,249.5C 455.553,251.055 462.387,247.055 466,237.5C 466.667,232.833 466.667,228.167 466,223.5C 465,222.5 464,221.5 463,220.5C 462.176,210.991 462.342,201.657 463.5,192.5 Z"/></g>
<g><path style="opacity:1" fill="#3e4a57" d="M 243.5,241.5 C 244.404,242.209 244.737,243.209 244.5,244.5C 245.833,251.833 245.833,259.167 244.5,266.5C 243.85,268.435 243.517,270.435 243.5,272.5C 241.57,281.287 239.237,289.953 236.5,298.5C 235.331,309.863 236.331,321.196 239.5,332.5C 241.012,336.201 243.012,339.534 245.5,342.5C 249.35,347.767 254.35,351.6 260.5,354C 274.31,357.801 288.31,360.635 302.5,362.5C 278.939,364.424 255.606,362.257 232.5,356C 221.478,341.469 210.811,326.636 200.5,311.5C 198.257,310.526 195.924,310.192 193.5,310.5C 193.007,308.194 192.674,305.861 192.5,303.5C 201.024,295.159 210.357,287.659 220.5,281C 232.371,270.153 240.038,256.986 243.5,241.5 Z"/></g>
<g><path style="opacity:1" fill="#38384b" d="M 161.5,248.5 C 169.081,254.391 176.747,260.391 184.5,266.5C 189.894,271.89 194.894,277.556 199.5,283.5C 196.98,285.263 194.647,287.263 192.5,289.5C 182.684,275.253 170.017,264.253 154.5,256.5C 156.094,253.236 158.427,250.569 161.5,248.5 Z"/></g>
<g><path style="opacity:1" fill="#f5b7ae" d="M 434.5,251.5 C 448.131,253.447 461.798,255.114 475.5,256.5C 473.053,259.899 469.72,262.065 465.5,263C 456.502,264.667 448.169,263 440.5,258C 437.591,256.594 435.591,254.428 434.5,251.5 Z"/></g>
<g><path style="opacity:1" fill="#5c5c6f" d="M 154.5,256.5 C 170.017,264.253 182.684,275.253 192.5,289.5C 185.91,293.753 179.91,298.753 174.5,304.5C 170.602,298.392 166.436,292.392 162,286.5C 156.251,279.924 150.417,273.591 144.5,267.5C 147.833,263.833 151.167,260.167 154.5,256.5 Z"/></g>
<g><path style="opacity:1" fill="#686f82" d="M 308.5,261.5 C 310.153,264.131 311.819,266.797 313.5,269.5C 290.167,270.5 266.833,271.5 243.5,272.5C 243.517,270.435 243.85,268.435 244.5,266.5C 265.89,264.412 287.224,262.745 308.5,261.5 Z"/></g>
<g><path style="opacity:1" fill="#3e4a57" d="M 449.5,298.5 C 445.809,295.465 441.809,292.632 437.5,290C 431.872,285.214 427.205,279.714 423.5,273.5C 425.225,269.718 427.225,266.052 429.5,262.5C 436.961,268.88 445.627,272.547 455.5,273.5C 454.574,282.201 452.574,290.535 449.5,298.5 Z"/></g>
<g><path style="opacity:1" fill="#38384b" d="M 144.5,267.5 C 150.417,273.591 156.251,279.924 162,286.5C 166.436,292.392 170.602,298.392 174.5,304.5C 172.5,307.167 170.167,309.5 167.5,311.5C 160.418,297.654 150.751,285.988 138.5,276.5C 139.78,272.942 141.78,269.942 144.5,267.5 Z"/></g>
<g><path style="opacity:1" fill="#636f7c" d="M 313.5,269.5 C 319.068,276.635 323.068,284.635 325.5,293.5C 296.016,295.684 266.349,297.351 236.5,298.5C 239.237,289.953 241.57,281.287 243.5,272.5C 266.833,271.5 290.167,270.5 313.5,269.5 Z"/></g>
<g><path style="opacity:1" fill="#5b5b6d" d="M 138.5,276.5 C 150.751,285.988 160.418,297.654 167.5,311.5C 166.162,313.113 164.495,313.613 162.5,313C 152.088,303.626 140.088,297.126 126.5,293.5C 129.785,287.24 133.785,281.574 138.5,276.5 Z"/></g>
<g><path style="opacity:1" fill="#37374a" d="M 330.5,279.5 C 330.897,278.475 331.563,278.308 332.5,279C 347.529,292.187 364.029,303.353 382,312.5C 382.333,312.167 382.667,311.833 383,311.5C 383.374,312.416 383.874,313.25 384.5,314C 383.668,322.054 383.335,330.221 383.5,338.5C 384.167,341.167 384.833,343.833 385.5,346.5C 384.897,348.452 385.23,350.452 386.5,352.5C 385.855,353.646 385.022,354.646 384,355.5C 369.448,349.131 355.281,341.464 341.5,332.5C 340.698,323.927 339.698,315.427 338.5,307C 339.197,304.841 338.863,302.674 337.5,300.5C 337.709,299.914 338.043,299.414 338.5,299C 337.276,295.168 335.609,291.168 333.5,287C 333.833,286.667 334.167,286.333 334.5,286C 332.578,284.54 331.911,282.873 332.5,281C 331.956,280.283 331.289,279.783 330.5,279.5 Z"/></g>
<g><path style="opacity:1" fill="#6a7584" d="M 423.5,273.5 C 427.205,279.714 431.872,285.214 437.5,290C 441.809,292.632 445.809,295.465 449.5,298.5C 447.776,304.278 445.776,309.945 443.5,315.5C 430.068,310.92 417.068,305.586 404.5,299.5C 411.334,291.15 417.668,282.483 423.5,273.5 Z"/></g>
<g><path style="opacity:1" fill="#63697c" d="M 325.5,293.5 C 326.924,295.515 327.59,297.848 327.5,300.5C 326.737,301.268 325.737,301.768 324.5,302C 295.168,303.588 265.834,305.088 236.5,306.5C 236.5,303.833 236.5,301.167 236.5,298.5C 266.349,297.351 296.016,295.684 325.5,293.5 Z"/></g>
<g><path style="opacity:1" fill="#5d6975" d="M 236.5,298.5 C 236.5,301.167 236.5,303.833 236.5,306.5C 265.834,305.088 295.168,303.588 324.5,302C 325.737,301.768 326.737,301.268 327.5,300.5C 328.309,302.292 328.809,304.292 329,306.5C 329.5,313.158 329.666,319.825 329.5,326.5C 299.427,328.047 269.427,330.047 239.5,332.5C 236.331,321.196 235.331,309.863 236.5,298.5 Z"/></g>
<g><path style="opacity:1" fill="#646e7d" d="M 404.5,299.5 C 417.068,305.586 430.068,310.92 443.5,315.5C 439.992,323.188 435.992,330.522 431.5,337.5C 419.331,333.754 407.331,329.421 395.5,324.5C 394.516,321.572 394.183,318.572 394.5,315.5C 395.092,312.309 396.259,309.309 398,306.5C 400.4,304.271 402.567,301.937 404.5,299.5 Z"/></g>
<g><path style="opacity:1" fill="#6f7c89" d="M 157.5,322.5 C 141.341,323.872 125.007,324.872 108.5,325.5C 107.677,317.529 107.344,309.529 107.5,301.5C 122.517,302.895 136.517,307.395 149.5,315C 152.666,317 155.332,319.5 157.5,322.5 Z"/></g>
<g><path style="opacity:1" fill="#6b7588" d="M 157.5,322.5 C 159.9,324.296 161.567,326.63 162.5,329.5C 162.082,330.222 161.416,330.722 160.5,331C 144.12,331.529 127.787,332.363 111.5,333.5C 110.817,333.137 110.15,332.804 109.5,332.5C 109.702,330.05 109.369,327.717 108.5,325.5C 125.007,324.872 141.341,323.872 157.5,322.5 Z"/></g>
<g><path style="opacity:1" fill="#5c6371" d="M 329.5,326.5 C 329.5,330.167 329.5,333.833 329.5,337.5C 301.5,339.167 273.5,340.833 245.5,342.5C 243.012,339.534 241.012,336.201 239.5,332.5C 269.427,330.047 299.427,328.047 329.5,326.5 Z"/></g>
<g><path style="opacity:1" fill="#56636f" d="M 329.5,337.5 C 329.814,345.087 329.481,352.587 328.5,360C 319.852,361.091 311.185,361.924 302.5,362.5C 288.31,360.635 274.31,357.801 260.5,354C 254.35,351.6 249.35,347.767 245.5,342.5C 273.5,340.833 301.5,339.167 329.5,337.5 Z"/></g>
<g><path style="opacity:1" fill="#65707e" d="M 162.5,329.5 C 164.856,332.715 166.356,336.381 167,340.5C 167.5,347.158 167.666,353.825 167.5,360.5C 155.07,371.648 140.404,377.315 123.5,377.5C 116.829,363.152 112.162,348.152 109.5,332.5C 110.15,332.804 110.817,333.137 111.5,333.5C 127.787,332.363 144.12,331.529 160.5,331C 161.416,330.722 162.082,330.222 162.5,329.5 Z"/></g>
<g><path style="opacity:1" fill="#596471" d="M 394.5,315.5 C 394.183,318.572 394.516,321.572 395.5,324.5C 407.331,329.421 419.331,333.754 431.5,337.5C 423.698,350.809 413.864,362.475 402,372.5C 394.851,353.966 392.351,334.966 394.5,315.5 Z"/></g>
<g><path style="opacity:1" fill="#3e4a57" d="M 167.5,360.5 C 168.483,370.176 168.483,379.843 167.5,389.5C 155.113,384.615 143.446,385.949 132.5,393.5C 128.991,388.485 125.991,383.151 123.5,377.5C 140.404,377.315 155.07,371.648 167.5,360.5 Z"/></g>
<g><path style="opacity:1" fill="#38384b" d="M 256.5,371.5 C 256.5,375.833 256.5,380.167 256.5,384.5C 281.148,388.085 305.481,386.752 329.5,380.5C 330.466,378.604 330.799,376.604 330.5,374.5C 331.612,379.523 332.279,384.523 332.5,389.5C 321.232,391.887 309.899,393.887 298.5,395.5C 284.099,395.876 269.765,395.209 255.5,393.5C 254.815,401.816 254.482,410.149 254.5,418.5C 263.133,419.377 271.8,419.711 280.5,419.5C 298.78,419.583 316.78,417.583 334.5,413.5C 334.475,416.27 334.808,419.27 335.5,422.5C 321.527,425.604 307.527,427.604 293.5,428.5C 280.137,428.758 266.804,428.425 253.5,427.5C 253.167,432.167 252.833,436.833 252.5,441.5C 250.595,441.928 248.762,441.262 247,439.5C 245.657,440.214 244.324,439.88 243,438.5C 242.667,438.833 242.333,439.167 242,439.5C 239.333,438.167 236.667,436.833 234,435.5C 232.127,436.089 230.46,435.422 229,433.5C 227.984,434.634 227.317,434.301 227,432.5C 226.667,432.833 226.333,433.167 226,433.5C 226.319,431.405 226.152,429.405 225.5,427.5C 226.708,418.133 228.041,408.799 229.5,399.5C 228.823,396.003 229.156,392.503 230.5,389C 229.88,385.511 230.213,382.011 231.5,378.5C 231.455,374.635 231.455,370.802 231.5,367C 232.825,367.148 233.992,366.982 235,366.5C 237.333,367.5 239.667,368.5 242,369.5C 243.779,368.521 245.445,368.854 247,370.5C 247.414,370.043 247.914,369.709 248.5,369.5C 251.287,370.969 253.954,371.636 256.5,371.5 Z"/></g>
<g><path style="opacity:1" fill="#626274" d="M 330.5,374.5 C 330.799,376.604 330.466,378.604 329.5,380.5C 305.481,386.752 281.148,388.085 256.5,384.5C 256.5,380.167 256.5,375.833 256.5,371.5C 281.181,374.256 305.848,373.923 330.5,370.5C 330.5,371.833 330.5,373.167 330.5,374.5 Z"/></g>
<g><path style="opacity:1" fill="#5b5b6e" d="M 332.5,389.5 C 332.843,397.535 333.51,405.535 334.5,413.5C 316.78,417.583 298.78,419.583 280.5,419.5C 286.115,411.217 292.115,403.217 298.5,395.5C 309.899,393.887 321.232,391.887 332.5,389.5 Z"/></g>
<g><path style="opacity:1" fill="#636375" d="M 298.5,395.5 C 292.115,403.217 286.115,411.217 280.5,419.5C 271.8,419.711 263.133,419.377 254.5,418.5C 254.482,410.149 254.815,401.816 255.5,393.5C 269.765,395.209 284.099,395.876 298.5,395.5 Z"/></g>
<g><path style="opacity:1" fill="#37374a" d="M 203.5,396.5 C 208.511,396.334 213.511,396.501 218.5,397C 219.365,400.376 219.032,403.71 217.5,407C 218.059,407.725 218.392,408.558 218.5,409.5C 217.288,417.448 216.288,425.448 215.5,433.5C 212.644,438.079 209.977,442.746 207.5,447.5C 206.15,448.95 204.484,449.617 202.5,449.5C 202.181,431.757 202.514,414.09 203.5,396.5 Z"/></g>
<g><path style="opacity:1" fill="#e7eef5" d="M 416.5,419.5 C 417.702,417.277 418.369,414.777 418.5,412C 418.621,408.218 417.954,404.718 416.5,401.5C 436.311,399.468 456.311,398.301 476.5,398C 473.902,406.931 468.235,412.931 459.5,416C 445.145,416.984 430.811,418.151 416.5,419.5 Z"/></g>
<g><path style="opacity:1" fill="#f1f7f7" d="M 416.5,401.5 C 417.954,404.718 418.621,408.218 418.5,412C 418.369,414.777 417.702,417.277 416.5,419.5C 397.183,420.818 377.85,421.984 358.5,423C 356.531,424.5 355.198,426.333 354.5,428.5C 352.283,429.369 349.95,429.702 347.5,429.5C 345.692,421.073 344.692,412.406 344.5,403.5C 368.504,402.967 392.504,402.3 416.5,401.5 Z"/></g>
<g><path style="opacity:1" fill="#f7bdb3" d="M 169.5,416.5 C 158.803,414.627 148.136,412.627 137.5,410.5C 137.682,408.409 137.348,406.409 136.5,404.5C 146.672,394.614 157.505,393.947 169,402.5C 169.499,407.155 169.666,411.821 169.5,416.5 Z"/></g>
<g><path style="opacity:1" fill="#37374a" d="M 99.5,413.5 C 109.12,414.283 118.787,414.783 128.5,415C 128.413,417.13 128.413,419.297 128.5,421.5C 127.124,425.495 124.791,429.329 121.5,433C 110.833,433.667 100.167,433.667 89.5,433C 89.5246,430.346 89.5246,427.679 89.5,425C 90.5968,419.079 93.9301,415.245 99.5,413.5 Z"/></g>
<g><path style="opacity:1" fill="#37374a" d="M 179.5,413.5 C 184.001,414.806 188.501,414.806 193,413.5C 193.5,420.158 193.666,426.825 193.5,433.5C 188.786,433.827 184.12,433.493 179.5,432.5C 180.371,426.249 180.371,419.916 179.5,413.5 Z"/></g>
<g><path style="opacity:1" fill="#f7c9c2" d="M 137.5,410.5 C 148.136,412.627 158.803,414.627 169.5,416.5C 169.823,422.69 169.49,428.69 168.5,434.5C 157.905,432.289 147.239,430.289 136.5,428.5C 137.307,422.536 137.64,416.536 137.5,410.5 Z"/></g>
<g><path style="opacity:1" fill="#555568" d="M 335.5,422.5 C 335.67,424.848 336.003,427.182 336.5,429.5C 336.291,430.994 335.624,432.161 334.5,433C 321.284,438.092 307.618,441.258 293.5,442.5C 296.809,438.185 300.143,433.852 303.5,429.5C 300.232,428.513 296.898,428.18 293.5,428.5C 307.527,427.604 321.527,425.604 335.5,422.5 Z"/></g>
<g><path style="opacity:1" fill="#5d5d70" d="M 293.5,428.5 C 296.898,428.18 300.232,428.513 303.5,429.5C 300.143,433.852 296.809,438.185 293.5,442.5C 279.79,443.892 266.123,443.559 252.5,441.5C 252.833,436.833 253.167,432.167 253.5,427.5C 266.804,428.425 280.137,428.758 293.5,428.5 Z"/></g>
<g><path style="opacity:1" fill="#f8d6cf" d="M 136.5,428.5 C 147.239,430.289 157.905,432.289 168.5,434.5C 168.416,440.325 166.416,445.325 162.5,449.5C 150.216,447.175 137.883,445.175 125.5,443.5C 129.585,438.757 133.251,433.757 136.5,428.5 Z"/></g>
<g><path style="opacity:1" fill="#f7ded8" d="M 125.5,443.5 C 137.883,445.175 150.216,447.175 162.5,449.5C 159.35,454.815 155.017,458.981 149.5,462C 143.607,463.062 138.274,461.729 133.5,458C 130.667,455.167 127.833,452.333 125,449.5C 124.211,447.288 124.378,445.288 125.5,443.5 Z"/></g>
<g><path style="opacity:1" fill="#3e4a57" d="M 328.5,446.5 C 312.464,458.185 294.464,465.185 274.5,467.5C 263.533,468.266 252.533,468.766 241.5,469C 235.392,471.02 231.059,474.853 228.5,480.5C 225.705,485.104 223.705,490.104 222.5,495.5C 213.5,495.5 204.5,495.5 195.5,495.5C 202.583,476.665 211.75,458.998 223,442.5C 229.438,445.201 235.938,447.701 242.5,450C 271.447,455.522 300.113,454.355 328.5,446.5 Z"/></g>
<g><path style="opacity:1" fill="#636e7c" d="M 342.5,468.5 C 342.785,470.288 342.452,471.955 341.5,473.5C 318.996,471.936 296.662,469.936 274.5,467.5C 294.464,465.185 312.464,458.185 328.5,446.5C 331.471,445.173 334.471,443.84 337.5,442.5C 337.833,443 338.167,443.5 338.5,444C 340.121,452.14 341.454,460.307 342.5,468.5 Z"/></g>
<g><path style="opacity:1" fill="#5d6975" d="M 274.5,467.5 C 296.662,469.936 318.996,471.936 341.5,473.5C 342.452,471.955 342.785,470.288 342.5,468.5C 343.521,472.98 344.187,477.647 344.5,482.5C 344.5,484.5 344.5,486.5 344.5,488.5C 305.828,485.877 267.162,483.211 228.5,480.5C 231.059,474.853 235.392,471.02 241.5,469C 252.533,468.766 263.533,468.266 274.5,467.5 Z"/></g>
<g><path style="opacity:1" fill="#5b6370" d="M 228.5,480.5 C 267.162,483.211 305.828,485.877 344.5,488.5C 344.5,486.5 344.5,484.5 344.5,482.5C 345.485,486.634 345.818,490.968 345.5,495.5C 304.5,495.5 263.5,495.5 222.5,495.5C 223.705,490.104 225.705,485.104 228.5,480.5 Z"/></g>
</svg>
