<?xml version="1.0" encoding="UTF-8"?>
<!DOCTYPE svg PUBLIC "-//W3C//DTD SVG 1.1//EN" "http://www.w3.org/Graphics/SVG/1.1/DTD/svg11.dtd">
<svg xmlns="http://www.w3.org/2000/svg" version="1.1" width="512px" height="512px" style="shape-rendering:geometricPrecision; text-rendering:geometricPrecision; image-rendering:optimizeQuality; fill-rule:evenodd; clip-rule:evenodd" xmlns:xlink="http://www.w3.org/1999/xlink">
<g><path style="opacity:1" fill="#e7c175" d="M 429.5,30.5 C 397.338,31.4982 365.004,31.8316 332.5,31.5C 346.703,19.5976 363.203,13.9309 382,14.5C 399.873,14.1795 415.707,19.5129 429.5,30.5 Z"/></g>
<g><path style="opacity:1" fill="#e7b96a" d="M 429.5,30.5 C 443.264,40.6811 452.597,54.0144 457.5,70.5C 449.252,69.5314 440.918,69.1981 432.5,69.5C 423.968,53.6435 410.968,43.3102 393.5,38.5C 385.491,35.8832 377.491,35.8832 369.5,38.5C 351.282,43.7303 337.948,54.7303 329.5,71.5C 321.5,71.5 313.5,71.5 305.5,71.5C 310.033,55.0864 319.033,41.7531 332.5,31.5C 365.004,31.8316 397.338,31.4982 429.5,30.5 Z"/></g>
<g><path style="opacity:1" fill="#505063" d="M 244.5,63.5 C 205.33,63.8319 166.33,63.4985 127.5,62.5C 141.722,38.5927 161.555,32.2594 187,43.5C 197.795,41.0853 208.629,40.9187 219.5,43C 230.693,46.3611 239.027,53.1945 244.5,63.5 Z"/></g>
<g><path style="opacity:1" fill="#e1762b" d="M 393.5,38.5 C 393.5,52.8333 393.5,67.1667 393.5,81.5C 407.833,81.5 422.167,81.5 436.5,81.5C 437.268,82.2625 437.768,83.2625 438,84.5C 438.499,88.1516 438.665,91.8183 438.5,95.5C 438.247,99.0399 437.581,102.373 436.5,105.5C 422.167,105.5 407.833,105.5 393.5,105.5C 393.5,119.833 393.5,134.167 393.5,148.5C 385.5,151.167 377.5,151.167 369.5,148.5C 369.5,134.167 369.5,119.833 369.5,105.5C 355.167,105.5 340.833,105.5 326.5,105.5C 325.542,99.2564 325.209,92.923 325.5,86.5C 325.216,84.5853 325.549,82.9187 326.5,81.5C 340.833,81.5 355.167,81.5 369.5,81.5C 369.5,67.1667 369.5,52.8333 369.5,38.5C 377.491,35.8832 385.491,35.8832 393.5,38.5 Z"/></g>
<g><path style="opacity:1" fill="#4b4b5c" d="M 127.5,62.5 C 166.33,63.4985 205.33,63.8319 244.5,63.5C 250.979,77.136 253.312,91.4693 251.5,106.5C 232.5,106.5 213.5,106.5 194.5,106.5C 189.346,99.0447 186.346,90.7113 185.5,81.5C 171.316,85.0132 160.983,93.3466 154.5,106.5C 140.323,106.829 126.323,106.496 112.5,105.5C 113.325,95.5427 115.492,85.8761 119,76.5C 121.106,71.2697 123.939,66.603 127.5,62.5 Z"/></g>
<g><path style="opacity:1" fill="#e7af58" d="M 305.5,71.5 C 313.5,71.5 321.5,71.5 329.5,71.5C 328.899,74.9679 327.899,78.3012 326.5,81.5C 325.549,82.9187 325.216,84.5853 325.5,86.5C 324.523,89.2869 324.19,92.2869 324.5,95.5C 317.167,95.5 309.833,95.5 302.5,95.5C 302.079,87.2777 303.079,79.2777 305.5,71.5 Z"/></g>
<g><path style="opacity:1" fill="#e7af58" d="M 432.5,69.5 C 440.918,69.1981 449.252,69.5314 457.5,70.5C 459.85,78.631 461.183,86.9644 461.5,95.5C 453.833,95.5 446.167,95.5 438.5,95.5C 438.665,91.8183 438.499,88.1516 438,84.5C 437.768,83.2625 437.268,82.2625 436.5,81.5C 435.364,77.4262 434.031,73.4262 432.5,69.5 Z"/></g>
<g><path style="opacity:1" fill="#e5ccc7" d="M 194.5,106.5 C 201.79,117.991 211.457,126.991 223.5,133.5C 199.358,133.577 175.025,133.577 150.5,133.5C 150.5,129.5 150.5,125.5 150.5,121.5C 151.019,116.278 152.352,111.278 154.5,106.5C 160.983,93.3466 171.316,85.0132 185.5,81.5C 186.346,90.7113 189.346,99.0447 194.5,106.5 Z"/></g>
<g><path style="opacity:1" fill="#444456" d="M 112.5,105.5 C 126.323,106.496 140.323,106.829 154.5,106.5C 152.352,111.278 151.019,116.278 150.5,121.5C 149.508,128.648 149.175,135.981 149.5,143.5C 135.167,143.5 120.833,143.5 106.5,143.5C 109.462,130.866 111.462,118.199 112.5,105.5 Z"/></g>
<g><path style="opacity:1" fill="#454457" d="M 194.5,106.5 C 213.5,106.5 232.5,106.5 251.5,106.5C 251.405,119.181 251.739,131.848 252.5,144.5C 244.252,143.531 235.918,143.198 227.5,143.5C 227.821,148.695 227.487,153.695 226.5,158.5C 226.5,154.167 226.5,149.833 226.5,145.5C 226.665,141.818 226.499,138.152 226,134.5C 225.329,133.748 224.496,133.414 223.5,133.5C 211.457,126.991 201.79,117.991 194.5,106.5 Z"/></g>
<g><path style="opacity:1" fill="#e7a64c" d="M 325.5,86.5 C 325.209,92.923 325.542,99.2564 326.5,105.5C 328.42,112.671 331.42,119.338 335.5,125.5C 326.5,125.5 317.5,125.5 308.5,125.5C 304.601,115.901 302.601,105.901 302.5,95.5C 309.833,95.5 317.167,95.5 324.5,95.5C 324.19,92.2869 324.523,89.2869 325.5,86.5 Z"/></g>
<g><path style="opacity:1" fill="#e7a447" d="M 438.5,95.5 C 446.167,95.5 453.833,95.5 461.5,95.5C 460.552,112.688 454.885,128.021 444.5,141.5C 433.752,141.809 423.085,141.476 412.5,140.5C 424.692,131.807 432.692,120.14 436.5,105.5C 437.581,102.373 438.247,99.0399 438.5,95.5 Z"/></g>
<g><path style="opacity:1" fill="#e6c7bf" d="M 150.5,133.5 C 175.025,133.577 199.358,133.577 223.5,133.5C 224.496,133.414 225.329,133.748 226,134.5C 226.499,138.152 226.665,141.818 226.5,145.5C 221.354,146.09 216.687,145.09 212.5,142.5C 210.763,139.988 208.263,138.988 205,139.5C 203.167,139.667 201.333,139.833 199.5,140C 198.058,140.377 197.058,141.21 196.5,142.5C 192.403,144.782 188.069,145.116 183.5,143.5C 182.657,141.827 181.324,140.66 179.5,140C 175.833,139.333 172.167,139.333 168.5,140C 167.944,140.383 167.611,140.883 167.5,141.5C 166.596,142.209 166.263,143.209 166.5,144.5C 161.167,144.5 155.833,144.5 150.5,144.5C 150.5,140.833 150.5,137.167 150.5,133.5 Z"/></g>
<g><path style="opacity:1" fill="#d4736d" d="M 183.5,143.5 C 183.582,147.251 181.749,149.251 178,149.5C 175.176,148.946 172.343,148.446 169.5,148C 167.771,146.211 167.104,144.044 167.5,141.5C 167.611,140.883 167.944,140.383 168.5,140C 172.167,139.333 175.833,139.333 179.5,140C 181.324,140.66 182.657,141.827 183.5,143.5 Z"/></g>
<g><path style="opacity:1" fill="#d4736d" d="M 212.5,142.5 C 212.617,144.484 211.95,146.15 210.5,147.5C 207.198,148.258 203.865,148.925 200.5,149.5C 197.013,148.531 195.68,146.198 196.5,142.5C 197.058,141.21 198.058,140.377 199.5,140C 201.333,139.833 203.167,139.667 205,139.5C 208.263,138.988 210.763,139.988 212.5,142.5 Z"/></g>
<g><path style="opacity:1" fill="#e79c3d" d="M 308.5,125.5 C 317.5,125.5 326.5,125.5 335.5,125.5C 344.066,137.127 355.4,144.793 369.5,148.5C 377.5,151.167 385.5,151.167 393.5,148.5C 400.169,146.667 406.502,144 412.5,140.5C 423.085,141.476 433.752,141.809 444.5,141.5C 431.838,158.677 414.838,169.011 393.5,172.5C 386.057,172.378 378.39,172.378 370.5,172.5C 370.5,180.833 370.5,189.167 370.5,197.5C 370.167,197.5 369.833,197.5 369.5,197.5C 369.5,188.833 369.5,180.167 369.5,171.5C 341.141,166.808 320.808,151.474 308.5,125.5 Z"/></g>
<g><path style="opacity:1" fill="#3e3e50" d="M 106.5,143.5 C 120.833,143.5 135.167,143.5 149.5,143.5C 149.091,150.965 149.757,158.298 151.5,165.5C 153.401,170.972 156.068,175.972 159.5,180.5C 133.339,181.498 107.005,181.831 80.5,181.5C 85.6534,172.499 91.82,164.166 99,156.5C 101.527,152.104 104.027,147.771 106.5,143.5 Z"/></g>
<g><path style="opacity:1" fill="#e4bbb3" d="M 150.5,121.5 C 150.5,125.5 150.5,129.5 150.5,133.5C 150.5,137.167 150.5,140.833 150.5,144.5C 155.833,144.5 161.167,144.5 166.5,144.5C 166.263,143.209 166.596,142.209 167.5,141.5C 167.104,144.044 167.771,146.211 169.5,148C 172.343,148.446 175.176,148.946 178,149.5C 181.749,149.251 183.582,147.251 183.5,143.5C 188.069,145.116 192.403,144.782 196.5,142.5C 195.68,146.198 197.013,148.531 200.5,149.5C 203.865,148.925 207.198,148.258 210.5,147.5C 211.95,146.15 212.617,144.484 212.5,142.5C 216.687,145.09 221.354,146.09 226.5,145.5C 226.5,149.833 226.5,154.167 226.5,158.5C 226.721,161.279 226.388,163.946 225.5,166.5C 200.835,166.067 176.168,165.733 151.5,165.5C 149.757,158.298 149.091,150.965 149.5,143.5C 149.175,135.981 149.508,128.648 150.5,121.5 Z"/></g>
<g><path style="opacity:1" fill="#e6b2a9" d="M 151.5,165.5 C 176.168,165.733 200.835,166.067 225.5,166.5C 222.886,176.061 217.553,183.728 209.5,189.5C 196.156,189.512 182.823,189.179 169.5,188.5C 167.445,186.445 165.112,184.779 162.5,183.5C 161.833,182.167 160.833,181.167 159.5,180.5C 156.068,175.972 153.401,170.972 151.5,165.5 Z"/></g>
<g><path style="opacity:1" fill="#3a394c" d="M 252.5,144.5 C 253.158,149.927 254.324,155.26 256,160.5C 259.922,168.016 264.589,175.016 270,181.5C 277.488,193.877 278.155,206.544 272,219.5C 269.604,222.067 267.104,224.4 264.5,226.5C 257.554,222.691 250.554,218.858 243.5,215C 235.428,211.587 227.095,209.087 218.5,207.5C 215.339,206.087 212.339,204.42 209.5,202.5C 207.909,199.648 206.576,196.648 205.5,193.5C 207.139,192.527 208.473,191.194 209.5,189.5C 217.553,183.728 222.886,176.061 225.5,166.5C 226.388,163.946 226.721,161.279 226.5,158.5C 227.487,153.695 227.821,148.695 227.5,143.5C 235.918,143.198 244.252,143.531 252.5,144.5 Z"/></g>
<g><path style="opacity:1" fill="#e1762b" d="M 393.5,172.5 C 393.5,184.833 393.5,197.167 393.5,209.5C 385.703,205.768 378.036,201.768 370.5,197.5C 370.5,189.167 370.5,180.833 370.5,172.5C 378.39,172.378 386.057,172.378 393.5,172.5 Z"/></g>
<g><path style="opacity:1" fill="#38384b" d="M 159.5,180.5 C 160.833,181.167 161.833,182.167 162.5,183.5C 162.955,191.586 159.955,197.92 153.5,202.5C 151.091,203.701 149.091,205.367 147.5,207.5C 136.25,214.748 126.583,223.748 118.5,234.5C 113.764,239.23 109.431,244.23 105.5,249.5C 82.8239,249.491 70.8239,238.158 69.5,215.5C 69.9863,203.043 73.653,191.71 80.5,181.5C 107.005,181.831 133.339,181.498 159.5,180.5 Z"/></g>
<g><path style="opacity:1" fill="#d3716b" d="M 162.5,183.5 C 165.112,184.779 167.445,186.445 169.5,188.5C 177.043,194.773 185.709,197.939 195.5,198C 199.191,197.164 202.524,195.664 205.5,193.5C 206.576,196.648 207.909,199.648 209.5,202.5C 196.923,210.632 183.257,212.798 168.5,209C 163.177,207.333 158.177,205.166 153.5,202.5C 159.955,197.92 162.955,191.586 162.5,183.5 Z"/></g>
<g><path style="opacity:1" fill="#e6a69c" d="M 169.5,188.5 C 182.823,189.179 196.156,189.512 209.5,189.5C 208.473,191.194 207.139,192.527 205.5,193.5C 202.524,195.664 199.191,197.164 195.5,198C 185.709,197.939 177.043,194.773 169.5,188.5 Z"/></g>
<g><path style="opacity:1" fill="#7588cc" d="M 147.5,207.5 C 152.213,214.546 158.213,220.213 165.5,224.5C 171.57,228.868 178.236,232.202 185.5,234.5C 163.167,235.833 140.833,235.833 118.5,234.5C 126.583,223.748 136.25,214.748 147.5,207.5 Z"/></g>
<g><path style="opacity:1" fill="#e5afa7" d="M 153.5,202.5 C 158.177,205.166 163.177,207.333 168.5,209C 183.257,212.798 196.923,210.632 209.5,202.5C 212.339,204.42 215.339,206.087 218.5,207.5C 219.804,213.266 219.804,218.933 218.5,224.5C 218.5,222.833 218.5,221.167 218.5,219.5C 200.842,221.227 183.175,222.893 165.5,224.5C 158.213,220.213 152.213,214.546 147.5,207.5C 149.091,205.367 151.091,203.701 153.5,202.5 Z"/></g>
<g><path style="opacity:1" fill="#e5a69c" d="M 218.5,224.5 C 218.5,226.167 218.5,227.833 218.5,229.5C 211.422,229.2 206.422,232.2 203.5,238.5C 197.342,237.802 191.342,236.469 185.5,234.5C 178.236,232.202 171.57,228.868 165.5,224.5C 183.175,222.893 200.842,221.227 218.5,219.5C 218.5,221.167 218.5,222.833 218.5,224.5 Z"/></g>
<g><path style="opacity:1" fill="#6f86c7" d="M 218.5,207.5 C 227.095,209.087 235.428,211.587 243.5,215C 250.554,218.858 257.554,222.691 264.5,226.5C 267.5,229.167 270.5,231.833 273.5,234.5C 258.5,235.833 243.5,237.167 228.5,238.5C 226.468,234.139 223.135,231.139 218.5,229.5C 218.5,227.833 218.5,226.167 218.5,224.5C 219.804,218.933 219.804,213.266 218.5,207.5 Z"/></g>
<g><path style="opacity:1" fill="#e7b96a" d="M 369.5,197.5 C 369.833,197.5 370.167,197.5 370.5,197.5C 378.036,201.768 385.703,205.768 393.5,209.5C 393.5,226.833 393.5,244.167 393.5,261.5C 385.5,258.833 377.5,258.833 369.5,261.5C 369.5,240.167 369.5,218.833 369.5,197.5 Z"/></g>
<g><path style="opacity:1" fill="#7088c7" d="M 118.5,234.5 C 140.833,235.833 163.167,235.833 185.5,234.5C 191.342,236.469 197.342,237.802 203.5,238.5C 204.21,244.632 205.543,250.632 207.5,256.5C 172.24,255.507 136.906,255.174 101.5,255.5C 102.833,253.5 104.167,251.5 105.5,249.5C 109.431,244.23 113.764,239.23 118.5,234.5 Z"/></g>
<g><path style="opacity:1" fill="#6078b9" d="M 273.5,234.5 C 278.881,239.6 281.881,245.933 282.5,253.5C 266.072,255.463 249.405,256.13 232.5,255.5C 231.458,249.754 230.124,244.087 228.5,238.5C 243.5,237.167 258.5,235.833 273.5,234.5 Z"/></g>
<g><path style="opacity:1" fill="#e1e6e6" d="M 218.5,229.5 C 223.135,231.139 226.468,234.139 228.5,238.5C 230.124,244.087 231.458,249.754 232.5,255.5C 231.461,257.901 230.127,260.235 228.5,262.5C 241.866,271.535 253.199,282.535 262.5,295.5C 243.012,296.763 223.345,297.43 203.5,297.5C 206.921,286.487 211.588,275.987 217.5,266C 215.807,265.153 214.14,264.32 212.5,263.5C 210.123,261.772 208.456,259.439 207.5,256.5C 205.543,250.632 204.21,244.632 203.5,238.5C 206.422,232.2 211.422,229.2 218.5,229.5 Z"/></g>
<g><path style="opacity:1" fill="#6c83c8" d="M 101.5,255.5 C 136.906,255.174 172.24,255.507 207.5,256.5C 208.456,259.439 210.123,261.772 212.5,263.5C 209.925,266.319 207.592,269.319 205.5,272.5C 167.5,272.5 129.5,272.5 91.5,272.5C 94.5812,266.669 97.9145,261.002 101.5,255.5 Z"/></g>
<g><path style="opacity:1" fill="#9bb4c7" d="M 212.5,263.5 C 214.14,264.32 215.807,265.153 217.5,266C 211.588,275.987 206.921,286.487 203.5,297.5C 198.926,308.437 195.259,319.77 192.5,331.5C 191.35,336.44 190.35,341.44 189.5,346.5C 204.17,346.667 218.837,346.5 233.5,346C 235.74,345.023 238.073,344.523 240.5,344.5C 239.493,350.622 238.493,356.622 237.5,362.5C 237.785,360.712 237.452,359.045 236.5,357.5C 219.349,362.161 202.349,367.328 185.5,373C 183.331,386.694 182.331,400.528 182.5,414.5C 182.177,421.022 182.51,427.355 183.5,433.5C 183.603,441.22 184.27,448.887 185.5,456.5C 185.84,461.89 186.507,467.223 187.5,472.5C 188.661,480.642 190.328,488.642 192.5,496.5C 182.5,496.5 172.5,496.5 162.5,496.5C 161.187,477.187 160.187,457.853 159.5,438.5C 159.729,429.492 160.063,420.492 160.5,411.5C 161.646,401.516 162.646,391.516 163.5,381.5C 164.903,377.345 165.903,373.012 166.5,368.5C 167.343,363.464 168.343,358.464 169.5,353.5C 170.992,347.881 172.659,342.214 174.5,336.5C 176.167,331.167 177.833,325.833 179.5,320.5C 181.815,315.244 184.148,309.91 186.5,304.5C 189.245,298.675 192.245,293.008 195.5,287.5C 198.8,282.523 202.133,277.523 205.5,272.5C 207.592,269.319 209.925,266.319 212.5,263.5 Z"/></g>
<g><path style="opacity:1" fill="#6a83c1" d="M 91.5,272.5 C 129.5,272.5 167.5,272.5 205.5,272.5C 202.133,277.523 198.8,282.523 195.5,287.5C 158.961,286.154 122.294,284.821 85.5,283.5C 87.246,279.673 89.246,276.007 91.5,272.5 Z"/></g>
<g><path style="opacity:1" fill="#9cb5c8" d="M 280.5,270.5 C 283.438,276.099 286.771,281.433 290.5,286.5C 282.764,299.043 278.431,312.71 277.5,327.5C 277.24,337.872 277.573,348.206 278.5,358.5C 279.04,361.865 279.706,365.198 280.5,368.5C 271.921,357.009 263.588,345.343 255.5,333.5C 256.925,332.078 257.925,330.411 258.5,328.5C 264.153,318.887 265.82,308.554 263.5,297.5C 267.434,295.402 270.6,292.402 273,288.5C 275.818,282.521 278.318,276.521 280.5,270.5 Z"/></g>
<g><path style="opacity:1" fill="#5169ac" d="M 282.5,253.5 C 282.207,259.217 281.54,264.884 280.5,270.5C 278.318,276.521 275.818,282.521 273,288.5C 270.6,292.402 267.434,295.402 263.5,297.5C 263.672,296.508 263.338,295.842 262.5,295.5C 253.199,282.535 241.866,271.535 228.5,262.5C 230.127,260.235 231.461,257.901 232.5,255.5C 249.405,256.13 266.072,255.463 282.5,253.5 Z"/></g>
<g><path style="opacity:1" fill="#e7bbb2" d="M 393.5,261.5 C 398.497,263.441 401.664,267.107 403,272.5C 403.5,279.492 403.666,286.492 403.5,293.5C 389.418,295.547 375.084,296.547 360.5,296.5C 360.821,290.974 360.488,285.64 359.5,280.5C 358.94,271.948 362.273,265.614 369.5,261.5C 377.5,258.833 385.5,258.833 393.5,261.5 Z"/></g>
<g><path style="opacity:1" fill="#657dc1" d="M 85.5,283.5 C 122.294,284.821 158.961,286.154 195.5,287.5C 192.245,293.008 189.245,298.675 186.5,304.5C 149.996,304.832 113.663,304.498 77.5,303.5C 79.9709,296.754 82.6376,290.087 85.5,283.5 Z"/></g>
<g><path style="opacity:1" fill="#dae1e6" d="M 359.5,280.5 C 360.488,285.64 360.821,290.974 360.5,296.5C 349.646,299.701 343.979,307.034 343.5,318.5C 342.532,320.607 342.198,322.941 342.5,325.5C 320.752,325.523 299.085,326.19 277.5,327.5C 278.431,312.71 282.764,299.043 290.5,286.5C 296.596,293.1 303.43,298.767 311,303.5C 323.049,287.394 339.216,279.727 359.5,280.5 Z"/></g>
<g><path style="opacity:1" fill="#d9e0e6" d="M 262.5,295.5 C 263.338,295.842 263.672,296.508 263.5,297.5C 265.82,308.554 264.153,318.887 258.5,328.5C 256.696,327.838 254.696,327.505 252.5,327.5C 239.51,328.212 226.51,328.712 213.5,329C 206.228,328.924 199.228,329.757 192.5,331.5C 195.259,319.77 198.926,308.437 203.5,297.5C 223.345,297.43 243.012,296.763 262.5,295.5 Z"/></g>
<g><path style="opacity:1" fill="#7d8fa8" d="M 360.5,296.5 C 359.37,304.967 362.203,311.633 369,316.5C 369.5,349.832 369.667,383.165 369.5,416.5C 364.511,415.838 360.178,413.838 356.5,410.5C 349.004,403.554 344.838,394.887 344,384.5C 343.5,362.503 343.333,340.503 343.5,318.5C 343.979,307.034 349.646,299.701 360.5,296.5 Z"/></g>
<g><path style="opacity:1" fill="#e1aa9c" d="M 403.5,293.5 C 405.384,303.886 402.051,311.886 393.5,317.5C 386.512,318.722 379.178,318.722 371.5,317.5C 370.503,324.803 370.169,332.137 370.5,339.5C 370.5,351.833 370.5,364.167 370.5,376.5C 370.5,392.833 370.5,409.167 370.5,425.5C 370.825,433.352 370.492,441.018 369.5,448.5C 369.5,441.833 369.5,435.167 369.5,428.5C 369.5,424.5 369.5,420.5 369.5,416.5C 369.667,383.165 369.5,349.832 369,316.5C 362.203,311.633 359.37,304.967 360.5,296.5C 375.084,296.547 389.418,295.547 403.5,293.5 Z"/></g>
<g><path style="opacity:1" fill="#647dbb" d="M 77.5,303.5 C 113.663,304.498 149.996,304.832 186.5,304.5C 184.148,309.91 181.815,315.244 179.5,320.5C 143.5,320.5 107.5,320.5 71.5,320.5C 72.7313,314.468 74.7313,308.801 77.5,303.5 Z"/></g>
<g><path style="opacity:1" fill="#e1762b" d="M 393.5,317.5 C 393.5,328.833 393.5,340.167 393.5,351.5C 385.964,347.232 378.297,343.232 370.5,339.5C 370.169,332.137 370.503,324.803 371.5,317.5C 379.178,318.722 386.512,318.722 393.5,317.5 Z"/></g>
<g><path style="opacity:1" fill="#5f75bb" d="M 71.5,320.5 C 107.5,320.5 143.5,320.5 179.5,320.5C 177.833,325.833 176.167,331.167 174.5,336.5C 138.5,336.5 102.5,336.5 66.5,336.5C 67.7964,330.95 69.463,325.617 71.5,320.5 Z"/></g>
<g><path style="opacity:1" fill="#d4e0e0" d="M 342.5,325.5 C 342.5,336.167 342.5,346.833 342.5,357.5C 324.331,358.052 306.165,358.719 288,359.5C 284.749,359.458 281.583,359.125 278.5,358.5C 277.573,348.206 277.24,337.872 277.5,327.5C 299.085,326.19 320.752,325.523 342.5,325.5 Z"/></g>
<g><path style="opacity:1" fill="#d4dfe0" d="M 258.5,328.5 C 257.925,330.411 256.925,332.078 255.5,333.5C 251.342,338.326 246.342,341.992 240.5,344.5C 238.073,344.523 235.74,345.023 233.5,346C 218.837,346.5 204.17,346.667 189.5,346.5C 190.35,341.44 191.35,336.44 192.5,331.5C 199.228,329.757 206.228,328.924 213.5,329C 226.51,328.712 239.51,328.212 252.5,327.5C 254.696,327.505 256.696,327.838 258.5,328.5 Z"/></g>
<g><path style="opacity:1" fill="#253870" d="M 255.5,333.5 C 263.588,345.343 271.921,357.009 280.5,368.5C 288.5,380.5 296.5,392.5 304.5,404.5C 304.5,405.167 304.833,405.5 305.5,405.5C 310.271,435.917 316.937,465.917 325.5,495.5C 313.518,496.499 301.518,496.832 289.5,496.5C 286.116,487.09 282.783,477.757 279.5,468.5C 278.406,462.561 276.739,456.894 274.5,451.5C 272.565,444.301 269.565,437.635 265.5,431.5C 261.883,425.255 257.549,419.588 252.5,414.5C 247.817,409.655 242.65,405.322 237,401.5C 236.266,388.478 236.432,375.478 237.5,362.5C 238.493,356.622 239.493,350.622 240.5,344.5C 246.342,341.992 251.342,338.326 255.5,333.5 Z"/></g>
<g><path style="opacity:1" fill="#5d76b5" d="M 66.5,336.5 C 102.5,336.5 138.5,336.5 174.5,336.5C 172.659,342.214 170.992,347.881 169.5,353.5C 169.5,352.5 169.5,351.5 169.5,350.5C 133.76,350.174 98.0938,350.507 62.5,351.5C 63.6813,346.44 65.0146,341.44 66.5,336.5 Z"/></g>
<g><path style="opacity:1" fill="#e7a74c" d="M 370.5,339.5 C 378.297,343.232 385.964,347.232 393.5,351.5C 393.5,359.833 393.5,368.167 393.5,376.5C 385.833,376.5 378.167,376.5 370.5,376.5C 370.5,364.167 370.5,351.833 370.5,339.5 Z"/></g>
<g><path style="opacity:1" fill="#5870b4" d="M 169.5,353.5 C 168.343,358.464 167.343,363.464 166.5,368.5C 130.833,368.5 95.1667,368.5 59.5,368.5C 60.1154,362.757 61.1154,357.091 62.5,351.5C 98.0938,350.507 133.76,350.174 169.5,350.5C 169.5,351.5 169.5,352.5 169.5,353.5 Z"/></g>
<g><path style="opacity:1" fill="#5770af" d="M 59.5,368.5 C 95.1667,368.5 130.833,368.5 166.5,368.5C 165.903,373.012 164.903,377.345 163.5,381.5C 127.76,381.826 92.0938,381.493 56.5,380.5C 57.2941,376.361 58.2941,372.361 59.5,368.5 Z"/></g>
<g><path style="opacity:1" fill="#cdd9e0" d="M 343.5,318.5 C 343.333,340.503 343.5,362.503 344,384.5C 344.838,394.887 349.004,403.554 356.5,410.5C 342.202,412.416 327.535,413.416 312.5,413.5C 310.167,410.833 307.833,408.167 305.5,405.5C 304.833,405.5 304.5,405.167 304.5,404.5C 296.5,392.5 288.5,380.5 280.5,368.5C 279.706,365.198 279.04,361.865 278.5,358.5C 281.583,359.125 284.749,359.458 288,359.5C 306.165,358.719 324.331,358.052 342.5,357.5C 342.5,346.833 342.5,336.167 342.5,325.5C 342.198,322.941 342.532,320.607 343.5,318.5 Z"/></g>
<g><path style="opacity:1" fill="#cdd9e0" d="M 237.5,362.5 C 236.432,375.478 236.266,388.478 237,401.5C 242.65,405.322 247.817,409.655 252.5,414.5C 229.675,415.934 206.675,416.934 183.5,417.5C 183.737,416.209 183.404,415.209 182.5,414.5C 182.331,400.528 183.331,386.694 185.5,373C 202.349,367.328 219.349,362.161 236.5,357.5C 237.452,359.045 237.785,360.712 237.5,362.5 Z"/></g>
<g><path style="opacity:1" fill="#526aad" d="M 56.5,380.5 C 92.0938,381.493 127.76,381.826 163.5,381.5C 162.646,391.516 161.646,401.516 160.5,411.5C 124.427,411.174 88.4271,411.507 52.5,412.5C 53.8332,401.834 55.1665,391.168 56.5,380.5 Z"/></g>
<g><path style="opacity:1" fill="#e7a145" d="M 370.5,376.5 C 378.167,376.5 385.833,376.5 393.5,376.5C 393.5,392.833 393.5,409.167 393.5,425.5C 385.833,425.5 378.167,425.5 370.5,425.5C 370.5,409.167 370.5,392.833 370.5,376.5 Z"/></g>
<g><path style="opacity:1" fill="#c7d3e0" d="M 356.5,410.5 C 360.178,413.838 364.511,415.838 369.5,416.5C 369.5,420.5 369.5,424.5 369.5,428.5C 354.97,428.276 340.637,428.942 326.5,430.5C 321.108,425.44 316.441,419.774 312.5,413.5C 327.535,413.416 342.202,412.416 356.5,410.5 Z"/></g>
<g><path style="opacity:1" fill="#c7d3e0" d="M 182.5,414.5 C 183.404,415.209 183.737,416.209 183.5,417.5C 206.675,416.934 229.675,415.934 252.5,414.5C 257.549,419.588 261.883,425.255 265.5,431.5C 238.174,432.429 210.84,433.096 183.5,433.5C 182.51,427.355 182.177,421.022 182.5,414.5 Z"/></g>
<g><path style="opacity:1" fill="#4b64a8" d="M 160.5,411.5 C 160.063,420.492 159.729,429.492 159.5,438.5C 160.187,457.853 161.187,477.187 162.5,496.5C 125.167,496.5 87.8333,496.5 50.5,496.5C 49.3732,468.462 50.0399,440.462 52.5,412.5C 88.4271,411.507 124.427,411.174 160.5,411.5 Z"/></g>
<g><path style="opacity:1" fill="#e79a3b" d="M 370.5,425.5 C 378.167,425.5 385.833,425.5 393.5,425.5C 393.5,449.167 393.5,472.833 393.5,496.5C 385.5,496.5 377.5,496.5 369.5,496.5C 369.5,480.5 369.5,464.5 369.5,448.5C 370.492,441.018 370.825,433.352 370.5,425.5 Z"/></g>
<g><path style="opacity:1" fill="#c8d4da" d="M 369.5,428.5 C 369.5,435.167 369.5,441.833 369.5,448.5C 352.082,449.96 337.749,443.96 326.5,430.5C 340.637,428.942 354.97,428.276 369.5,428.5 Z"/></g>
<g><path style="opacity:1" fill="#c7d3d9" d="M 265.5,431.5 C 269.565,437.635 272.565,444.301 274.5,451.5C 274.5,452.5 274.5,453.5 274.5,454.5C 244.837,455.328 215.171,455.995 185.5,456.5C 184.27,448.887 183.603,441.22 183.5,433.5C 210.84,433.096 238.174,432.429 265.5,431.5 Z"/></g>
<g><path style="opacity:1" fill="#c0d3d9" d="M 274.5,451.5 C 276.739,456.894 278.406,462.561 279.5,468.5C 248.994,470.122 218.327,471.455 187.5,472.5C 186.507,467.223 185.84,461.89 185.5,456.5C 215.171,455.995 244.837,455.328 274.5,454.5C 274.5,453.5 274.5,452.5 274.5,451.5 Z"/></g>
<g><path style="opacity:1" fill="#c0cdd9" d="M 279.5,468.5 C 282.783,477.757 286.116,487.09 289.5,496.5C 257.167,496.5 224.833,496.5 192.5,496.5C 190.328,488.642 188.661,480.642 187.5,472.5C 218.327,471.455 248.994,470.122 279.5,468.5 Z"/></g>
</svg>
