<?xml version="1.0" encoding="UTF-8"?>
<!DOCTYPE svg PUBLIC "-//W3C//DTD SVG 1.1//EN" "http://www.w3.org/Graphics/SVG/1.1/DTD/svg11.dtd">
<svg xmlns="http://www.w3.org/2000/svg" version="1.1" width="512px" height="512px" style="shape-rendering:geometricPrecision; text-rendering:geometricPrecision; image-rendering:optimizeQuality; fill-rule:evenodd; clip-rule:evenodd" xmlns:xlink="http://www.w3.org/1999/xlink">
<g><path style="opacity:1" fill="#3f3e50" d="M 396.5,260.5 C 395.515,256.366 395.182,252.032 395.5,247.5C 392.5,247.5 389.5,247.5 386.5,247.5C 386.831,225.327 386.497,203.327 385.5,181.5C 381.5,181.5 377.5,181.5 373.5,181.5C 372.549,182.919 372.216,184.585 372.5,186.5C 369.167,186.5 365.833,186.5 362.5,186.5C 362.799,184.396 362.466,182.396 361.5,180.5C 315.875,166.356 294.375,135.356 297,87.5C 302.033,55.9331 319.2,33.7664 348.5,21C 387.047,8.3024 419.547,17.1357 446,47.5C 469.948,83.5322 468.948,118.866 443,153.5C 430.716,167.23 415.549,176.23 397.5,180.5C 396.5,207.158 396.167,233.825 396.5,260.5 Z M 391.5,50.5 C 408.256,54.7519 419.923,64.9186 426.5,81C 416.506,81.4998 406.506,81.6665 396.5,81.5C 396.666,73.8261 396.5,66.1594 396,58.5C 394.67,57.4178 393.17,56.7512 391.5,56.5C 391.5,54.5 391.5,52.5 391.5,50.5 Z M 361.5,51.5 C 362.494,61.3194 362.827,71.3194 362.5,81.5C 352.494,81.6665 342.494,81.4998 332.5,81C 338.354,67.3137 348.02,57.4804 361.5,51.5 Z M 332.5,116.5 C 342.319,115.506 352.319,115.173 362.5,115.5C 362.832,125.522 362.499,135.522 361.5,145.5C 348.091,139.425 338.425,129.758 332.5,116.5 Z M 396.5,115.5 C 406.522,115.168 416.522,115.501 426.5,116.5C 420.5,129.833 410.833,139.5 397.5,145.5C 396.501,135.522 396.168,125.522 396.5,115.5 Z"/></g>
<g><path style="opacity:1" fill="#f5ca80" d="M 448.5,76.5 C 445.038,77.4816 441.371,77.815 437.5,77.5C 420.469,43.3246 393.469,31.4913 356.5,42C 346.712,46.2247 338.379,52.3914 331.5,60.5C 327.167,60.5 322.833,60.5 318.5,60.5C 329.602,42.602 345.602,31.4353 366.5,27C 397.975,22.9949 422.808,33.8282 441,59.5C 444.372,64.7827 446.872,70.4494 448.5,76.5 Z"/></g>
<g><path style="opacity:1" fill="#3e3e50" d="M 274.5,184.5 C 271.038,185.482 267.371,185.815 263.5,185.5C 252.872,174.813 247.372,161.813 247,146.5C 246.5,132.837 246.333,119.171 246.5,105.5C 247.584,89.8143 243.417,75.8143 234,63.5C 223.75,54.9755 211.917,51.4755 198.5,53C 194.486,53.7694 190.486,54.6028 186.5,55.5C 169.219,45.7013 153.719,48.0346 140,62.5C 133.61,69.9498 128.776,78.2831 125.5,87.5C 120.647,100.953 118.313,114.953 118.5,129.5C 117.44,140.966 113.94,151.633 108,161.5C 102.333,168.5 96.6667,175.5 91,182.5C 87.0136,188.805 83.847,195.472 81.5,202.5C 80.678,204.389 79.8447,206.389 79,208.5C 75.6257,222.713 79.459,234.38 90.5,243.5C 91.3742,245.747 91.7076,248.08 91.5,250.5C 87.1847,253.263 83.1847,252.763 79.5,249C 70.8065,240.927 66.8065,230.927 67.5,219C 67.8119,206.729 70.9785,195.229 77,184.5C 83.0267,174.451 90.0267,165.118 98,156.5C 102.67,149.154 105.67,141.154 107,132.5C 107.082,110.749 111.749,90.0821 121,70.5C 128.3,57.1986 138.8,47.3652 152.5,41C 165.112,37.3429 177.445,38.1763 189.5,43.5C 225.75,36.361 247.917,50.6943 256,86.5C 256.851,91.9679 257.351,97.4679 257.5,103C 256.016,120.886 256.516,138.719 259,156.5C 259.714,159.595 260.714,162.595 262,165.5C 266.415,171.733 270.582,178.067 274.5,184.5 Z"/></g>
<g><path style="opacity:1" fill="#424051" d="M 437.5,77.5 C 439.482,85.3558 440.482,93.3558 440.5,101.5C 439.481,116.912 433.815,130.245 423.5,141.5C 399.911,162.211 374.244,165.045 346.5,150C 342.625,146.619 338.625,143.453 334.5,140.5C 321.879,125.021 316.879,107.355 319.5,87.5C 321.553,77.7202 325.553,68.7202 331.5,60.5C 338.379,52.3914 346.712,46.2247 356.5,42C 393.469,31.4913 420.469,43.3246 437.5,77.5 Z M 391.5,50.5 C 408.256,54.7519 419.923,64.9186 426.5,81C 416.506,81.4998 406.506,81.6665 396.5,81.5C 396.666,73.8261 396.5,66.1594 396,58.5C 394.67,57.4178 393.17,56.7512 391.5,56.5C 391.5,54.5 391.5,52.5 391.5,50.5 Z M 361.5,51.5 C 348.02,57.4804 338.354,67.3137 332.5,81C 342.494,81.4998 352.494,81.6665 362.5,81.5C 362.827,71.3194 362.494,61.3194 361.5,51.5 Z M 332.5,116.5 C 338.425,129.758 348.091,139.425 361.5,145.5C 362.499,135.522 362.832,125.522 362.5,115.5C 352.319,115.173 342.319,115.506 332.5,116.5 Z M 396.5,115.5 C 396.168,125.522 396.501,135.522 397.5,145.5C 410.833,139.5 420.5,129.833 426.5,116.5C 416.522,115.501 406.522,115.168 396.5,115.5 Z"/></g>
<g><path style="opacity:1" fill="#f1883e" d="M 391.5,50.5 C 391.5,52.5 391.5,54.5 391.5,56.5C 388.852,56.7385 387.018,58.0718 386,60.5C 385.333,69.8333 385.333,79.1667 386,88.5C 386.465,89.9308 387.299,91.0975 388.5,92C 402.496,92.4999 416.496,92.6666 430.5,92.5C 430.5,96.5 430.5,100.5 430.5,104.5C 416.829,104.333 403.163,104.5 389.5,105C 388.333,106.167 387.167,107.333 386,108.5C 385.5,122.163 385.333,135.829 385.5,149.5C 381.5,149.5 377.5,149.5 373.5,149.5C 373.966,135.069 373.466,120.736 372,106.5C 371.25,105.874 370.416,105.374 369.5,105C 356.171,104.5 342.837,104.333 329.5,104.5C 329.5,100.5 329.5,96.5 329.5,92.5C 343.171,92.6666 356.837,92.4999 370.5,92C 371.333,91.1667 372.167,90.3333 373,89.5C 373.5,75.8374 373.667,62.1707 373.5,48.5C 379.176,48.3339 384.843,48.5006 390.5,49C 391.056,49.3826 391.389,49.8826 391.5,50.5 Z"/></g>
<g><path style="opacity:1" fill="#68687a" d="M 246.5,105.5 C 245.508,113.316 245.174,121.316 245.5,129.5C 237.167,129.5 228.833,129.5 220.5,129.5C 203.264,119.417 193.43,104.417 191,84.5C 188.79,81.7104 185.956,80.877 182.5,82C 177.687,83.9072 173.02,86.0739 168.5,88.5C 154.343,87.5041 140.01,87.1707 125.5,87.5C 128.776,78.2831 133.61,69.9498 140,62.5C 153.719,48.0346 169.219,45.7013 186.5,55.5C 190.486,54.6028 194.486,53.7694 198.5,53C 211.917,51.4755 223.75,54.9755 234,63.5C 243.417,75.8143 247.584,89.8143 246.5,105.5 Z"/></g>
<g><path style="opacity:1" fill="#f5c372" d="M 318.5,60.5 C 322.833,60.5 327.167,60.5 331.5,60.5C 325.553,68.7202 321.553,77.7202 319.5,87.5C 316.316,85.5864 312.649,84.9197 308.5,85.5C 309.895,76.2998 313.228,67.9665 318.5,60.5 Z"/></g>
<g><path style="opacity:1" fill="#3f3f52" d="M 220.5,129.5 C 224.353,131.682 228.186,134.016 232,136.5C 232.5,153.83 232.667,171.163 232.5,188.5C 231.672,182.347 231.172,176.013 231,169.5C 229.471,174.277 227.638,178.943 225.5,183.5C 221.351,184.809 217.351,184.809 213.5,183.5C 214.167,182.5 214.833,181.5 215.5,180.5C 218.704,176.078 220.871,171.078 222,165.5C 222.822,157.655 222.656,149.989 221.5,142.5C 217.508,140.17 213.508,137.837 209.5,135.5C 195.695,124.579 186.362,110.579 181.5,93.5C 168.158,100.193 160.158,110.86 157.5,125.5C 156.34,138.327 156.173,151.327 157,164.5C 158.555,170.615 161.388,175.948 165.5,180.5C 166.5,181.833 167.5,183.167 168.5,184.5C 164.167,184.5 159.833,184.5 155.5,184.5C 150.833,178.681 148,172.014 147,164.5C 146.5,152.838 146.333,141.171 146.5,129.5C 147.828,112.504 155.162,98.8374 168.5,88.5C 173.02,86.0739 177.687,83.9072 182.5,82C 185.956,80.877 188.79,81.7104 191,84.5C 193.43,104.417 203.264,119.417 220.5,129.5 Z"/></g>
<g><path style="opacity:1" fill="#f1bb6a" d="M 448.5,76.5 C 451.913,85.6266 452.913,94.96 451.5,104.5C 451.5,102.167 451.5,99.8333 451.5,97.5C 448.167,97.5 444.833,97.5 441.5,97.5C 441.768,99.099 441.434,100.432 440.5,101.5C 440.482,93.3558 439.482,85.3558 437.5,77.5C 441.371,77.815 445.038,77.4816 448.5,76.5 Z"/></g>
<g><path style="opacity:1" fill="#636375" d="M 125.5,87.5 C 140.01,87.1707 154.343,87.5041 168.5,88.5C 155.162,98.8374 147.828,112.504 146.5,129.5C 137.167,129.5 127.833,129.5 118.5,129.5C 118.313,114.953 120.647,100.953 125.5,87.5 Z"/></g>
<g><path style="opacity:1" fill="#f8dfd8" d="M 209.5,135.5 C 192.341,136.497 175.008,136.83 157.5,136.5C 157.5,132.833 157.5,129.167 157.5,125.5C 160.158,110.86 168.158,100.193 181.5,93.5C 186.362,110.579 195.695,124.579 209.5,135.5 Z"/></g>
<g><path style="opacity:1" fill="#f6b55c" d="M 308.5,85.5 C 312.649,84.9197 316.316,85.5864 319.5,87.5C 316.879,107.355 321.879,125.021 334.5,140.5C 330.5,141.167 326.5,141.833 322.5,142.5C 309.206,125.619 304.54,106.619 308.5,85.5 Z"/></g>
<g><path style="opacity:1" fill="#f5b45b" d="M 451.5,104.5 C 450.741,118.46 446.074,130.794 437.5,141.5C 432.833,141.5 428.167,141.5 423.5,141.5C 433.815,130.245 439.481,116.912 440.5,101.5C 441.434,100.432 441.768,99.099 441.5,97.5C 444.833,97.5 448.167,97.5 451.5,97.5C 451.5,99.8333 451.5,102.167 451.5,104.5 Z"/></g>
<g><path style="opacity:1" fill="#f9d5ce" d="M 209.5,135.5 C 213.508,137.837 217.508,140.17 221.5,142.5C 221.5,147.833 221.5,153.167 221.5,158.5C 200.18,157.624 178.847,157.29 157.5,157.5C 157.5,150.5 157.5,143.5 157.5,136.5C 175.008,136.83 192.341,136.497 209.5,135.5 Z"/></g>
<g><path style="opacity:1" fill="#f6c9c1" d="M 157.5,125.5 C 157.5,129.167 157.5,132.833 157.5,136.5C 157.5,143.5 157.5,150.5 157.5,157.5C 178.847,157.29 200.18,157.624 221.5,158.5C 221.5,153.167 221.5,147.833 221.5,142.5C 222.656,149.989 222.822,157.655 222,165.5C 220.871,171.078 218.704,176.078 215.5,180.5C 198.833,180.5 182.167,180.5 165.5,180.5C 161.388,175.948 158.555,170.615 157,164.5C 156.173,151.327 156.34,138.327 157.5,125.5 Z"/></g>
<g><path style="opacity:1" fill="#e38781" d="M 203.5,143.5 C 207.007,142.994 210.174,143.66 213,145.5C 214.14,148.528 213.306,150.695 210.5,152C 206.483,152.671 202.483,153.004 198.5,153C 196.15,150.627 195.983,148.127 198,145.5C 199.948,144.891 201.782,144.224 203.5,143.5 Z"/></g>
<g><path style="opacity:1" fill="#e2857f" d="M 170.5,143.5 C 175.046,143.268 179.379,144.101 183.5,146C 185.597,150.389 184.264,152.889 179.5,153.5C 176.5,153 173.5,152.5 170.5,152C 167.899,149.17 167.899,146.337 170.5,143.5 Z"/></g>
<g><path style="opacity:1" fill="#f5ab4d" d="M 334.5,140.5 C 338.625,143.453 342.625,146.619 346.5,150C 374.244,165.045 399.911,162.211 423.5,141.5C 428.167,141.5 432.833,141.5 437.5,141.5C 423.148,161.095 403.648,171.095 379,171.5C 355.446,170.725 336.612,161.058 322.5,142.5C 326.5,141.833 330.5,141.167 334.5,140.5 Z"/></g>
<g><path style="opacity:1" fill="#58586b" d="M 118.5,129.5 C 127.833,129.5 137.167,129.5 146.5,129.5C 146.333,141.171 146.5,152.838 147,164.5C 148,172.014 150.833,178.681 155.5,184.5C 160.871,193.455 158.538,199.788 148.5,203.5C 125.994,203.831 103.66,203.497 81.5,202.5C 83.847,195.472 87.0136,188.805 91,182.5C 96.6667,175.5 102.333,168.5 108,161.5C 113.94,151.633 117.44,140.966 118.5,129.5 Z"/></g>
<g><path style="opacity:1" fill="#565669" d="M 246.5,105.5 C 246.333,119.171 246.5,132.837 247,146.5C 247.372,161.813 252.872,174.813 263.5,185.5C 267.318,192.121 269.651,199.287 270.5,207C 270.154,211.885 268.654,216.385 266,220.5C 265.196,221.804 264.029,222.471 262.5,222.5C 253.451,217.309 244.117,212.642 234.5,208.5C 233.307,201.903 232.64,195.236 232.5,188.5C 232.667,171.163 232.5,153.83 232,136.5C 228.186,134.016 224.353,131.682 220.5,129.5C 228.833,129.5 237.167,129.5 245.5,129.5C 245.174,121.316 245.508,113.316 246.5,105.5 Z"/></g>
<g><path style="opacity:1" fill="#3f3f4c" d="M 232.5,188.5 C 232.64,195.236 233.307,201.903 234.5,208.5C 244.117,212.642 253.451,217.309 262.5,222.5C 264.029,222.471 265.196,221.804 266,220.5C 268.654,216.385 270.154,211.885 270.5,207C 269.651,199.287 267.318,192.121 263.5,185.5C 267.371,185.815 271.038,185.482 274.5,184.5C 278.973,191.051 280.973,198.384 280.5,206.5C 281.353,215.438 278.686,223.105 272.5,229.5C 278.442,233.433 282.442,238.767 284.5,245.5C 280.5,245.5 276.5,245.5 272.5,245.5C 270.833,243.167 268.833,241.167 266.5,239.5C 254.532,228.514 240.532,221.181 224.5,217.5C 224.334,221.514 224.501,225.514 225,229.5C 229.111,231.775 231.944,235.108 233.5,239.5C 233.629,241.216 233.962,242.883 234.5,244.5C 231.332,245.444 227.999,245.444 224.5,244.5C 222.405,238.199 218.405,236.365 212.5,239C 210.84,240.488 209.84,242.321 209.5,244.5C 204.968,244.182 200.634,244.515 196.5,245.5C 177.38,241.442 161.047,232.442 147.5,218.5C 138.153,226.182 129.486,234.515 121.5,243.5C 117.167,243.5 112.833,243.5 108.5,243.5C 120.194,228.473 133.527,215.14 148.5,203.5C 158.538,199.788 160.871,193.455 155.5,184.5C 159.833,184.5 164.167,184.5 168.5,184.5C 173.349,187.838 178.349,191.004 183.5,194C 188.711,196.766 194.044,197.099 199.5,195C 204.622,191.71 209.289,187.877 213.5,183.5C 217.351,184.809 221.351,184.809 225.5,183.5C 227.638,178.943 229.471,174.277 231,169.5C 231.172,176.013 231.672,182.347 232.5,188.5 Z"/></g>
<g><path style="opacity:1" fill="#f2893e" d="M 373.5,181.5 C 377.5,181.5 381.5,181.5 385.5,181.5C 385.5,191.167 385.5,200.833 385.5,210.5C 381.783,207.975 377.783,205.975 373.5,204.5C 373.5,196.833 373.5,189.167 373.5,181.5 Z"/></g>
<g><path style="opacity:1" fill="#f7beb4" d="M 165.5,180.5 C 182.167,180.5 198.833,180.5 215.5,180.5C 214.833,181.5 214.167,182.5 213.5,183.5C 209.289,187.877 204.622,191.71 199.5,195C 194.044,197.099 188.711,196.766 183.5,194C 178.349,191.004 173.349,187.838 168.5,184.5C 167.5,183.167 166.5,181.833 165.5,180.5 Z"/></g>
<g><path style="opacity:1" fill="#3f3f4b" d="M 373.5,181.5 C 373.5,189.167 373.5,196.833 373.5,204.5C 373.5,221.833 373.5,239.167 373.5,256.5C 373.5,256.833 373.5,257.167 373.5,257.5C 372.518,254.038 372.185,250.371 372.5,246.5C 369.5,246.5 366.5,246.5 363.5,246.5C 364.108,251.944 363.442,256.944 361.5,261.5C 362.49,236.575 362.823,211.575 362.5,186.5C 365.833,186.5 369.167,186.5 372.5,186.5C 372.216,184.585 372.549,182.919 373.5,181.5 Z"/></g>
<g><path style="opacity:1" fill="#df837d" d="M 205.5,208.5 C 190.523,216.36 175.523,216.36 160.5,208.5C 164.052,205.613 166.385,201.947 167.5,197.5C 174.169,201.164 181.169,204.33 188.5,207C 193.644,207.92 198.477,207.087 203,204.5C 204.481,205.471 205.315,206.804 205.5,208.5 Z"/></g>
<g><path style="opacity:1" fill="#505063" d="M 81.5,202.5 C 103.66,203.497 125.994,203.831 148.5,203.5C 133.527,215.14 120.194,228.473 108.5,243.5C 106.397,246.72 104.064,249.72 101.5,252.5C 98.2389,251.622 94.9055,250.956 91.5,250.5C 91.7076,248.08 91.3742,245.747 90.5,243.5C 79.459,234.38 75.6257,222.713 79,208.5C 79.8447,206.389 80.678,204.389 81.5,202.5 Z"/></g>
<g><path style="opacity:1" fill="#f8beb4" d="M 160.5,208.5 C 175.523,216.36 190.523,216.36 205.5,208.5C 208.216,210.613 211.05,212.613 214,214.5C 214.499,218.821 214.666,223.154 214.5,227.5C 209.349,228.238 205.349,230.738 202.5,235C 184.07,233.285 168.737,225.452 156.5,211.5C 157.852,210.476 159.185,209.476 160.5,208.5 Z"/></g>
<g><path style="opacity:1" fill="#facc7d" d="M 373.5,204.5 C 377.783,205.975 381.783,207.975 385.5,210.5C 385.5,225.833 385.5,241.167 385.5,256.5C 381.5,256.5 377.5,256.5 373.5,256.5C 373.5,239.167 373.5,221.833 373.5,204.5 Z"/></g>
<g><path style="opacity:1" fill="#8f725a" d="M 385.5,181.5 C 386.497,203.327 386.831,225.327 386.5,247.5C 386.5,250.833 386.5,254.167 386.5,257.5C 382.167,257.5 377.833,257.5 373.5,257.5C 373.5,257.167 373.5,256.833 373.5,256.5C 377.5,256.5 381.5,256.5 385.5,256.5C 385.5,241.167 385.5,225.833 385.5,210.5C 385.5,200.833 385.5,191.167 385.5,181.5 Z"/></g>
<g><path style="opacity:1" fill="#7e95d6" d="M 266.5,239.5 C 255.5,239.5 244.5,239.5 233.5,239.5C 231.944,235.108 229.111,231.775 225,229.5C 224.501,225.514 224.334,221.514 224.5,217.5C 240.532,221.181 254.532,228.514 266.5,239.5 Z"/></g>
<g><path style="opacity:1" fill="#829bda" d="M 196.5,245.5 C 197.5,245.5 198.5,245.5 199.5,245.5C 199.993,247.806 200.326,250.139 200.5,252.5C 172.093,252.825 143.759,252.491 115.5,251.5C 117.5,248.833 119.5,246.167 121.5,243.5C 129.486,234.515 138.153,226.182 147.5,218.5C 161.047,232.442 177.38,241.442 196.5,245.5 Z"/></g>
<g><path style="opacity:1" fill="#f3f3f4" d="M 224.5,244.5 C 226.085,249.072 226.919,253.738 227,258.5C 223.011,263.356 218.678,263.689 214,259.5C 212.59,254.441 211.09,249.441 209.5,244.5C 209.84,242.321 210.84,240.488 212.5,239C 218.405,236.365 222.405,238.199 224.5,244.5 Z"/></g>
<g><path style="opacity:1" fill="#738bcc" d="M 233.5,239.5 C 244.5,239.5 255.5,239.5 266.5,239.5C 268.833,241.167 270.833,243.167 272.5,245.5C 276.196,250.841 277.196,256.508 275.5,262.5C 275.5,260.5 275.5,258.5 275.5,256.5C 262.754,256.813 250.087,256.48 237.5,255.5C 237.483,251.466 236.483,247.799 234.5,244.5C 233.962,242.883 233.629,241.216 233.5,239.5 Z"/></g>
<g><path style="opacity:1" fill="#38384b" d="M 108.5,243.5 C 112.833,243.5 117.167,243.5 121.5,243.5C 119.5,246.167 117.5,248.833 115.5,251.5C 111.439,256.897 107.773,262.564 104.5,268.5C 100.675,274.143 97.3418,280.143 94.5,286.5C 92.3065,291.08 90.3065,295.746 88.5,300.5C 85.6537,306.21 83.3204,312.21 81.5,318.5C 79.7679,322.697 78.4345,327.031 77.5,331.5C 75.6588,336.357 73.9921,341.357 72.5,346.5C 68.9581,346.813 65.6248,346.479 62.5,345.5C 69.7468,312.016 82.7468,281.016 101.5,252.5C 104.064,249.72 106.397,246.72 108.5,243.5 Z"/></g>
<g><path style="opacity:1" fill="#3a3a4d" d="M 196.5,245.5 C 200.634,244.515 204.968,244.182 209.5,244.5C 211.09,249.441 212.59,254.441 214,259.5C 218.678,263.689 223.011,263.356 227,258.5C 226.919,253.738 226.085,249.072 224.5,244.5C 227.999,245.444 231.332,245.444 234.5,244.5C 236.483,247.799 237.483,251.466 237.5,255.5C 236.865,258.493 236.699,261.493 237,264.5C 247.958,271.791 257.291,280.791 265,291.5C 271.563,282.979 275.063,273.313 275.5,262.5C 277.196,256.508 276.196,250.841 272.5,245.5C 276.5,245.5 280.5,245.5 284.5,245.5C 286.031,249.668 287.031,254.001 287.5,258.5C 286.663,263.189 286.163,267.856 286,272.5C 291.924,282.754 299.59,291.421 309,298.5C 320.564,284.635 335.397,277.635 353.5,277.5C 353.529,270.776 356.195,265.443 361.5,261.5C 363.442,256.944 364.108,251.944 363.5,246.5C 366.5,246.5 369.5,246.5 372.5,246.5C 372.185,250.371 372.518,254.038 373.5,257.5C 377.833,257.5 382.167,257.5 386.5,257.5C 386.5,254.167 386.5,250.833 386.5,247.5C 389.5,247.5 392.5,247.5 395.5,247.5C 395.182,252.032 395.515,256.366 396.5,260.5C 400.617,263.124 403.45,266.79 405,271.5C 407,284.5 407,297.5 405,310.5C 403.523,314.985 400.857,318.651 397,321.5C 396.5,331.161 396.334,340.828 396.5,350.5C 393.167,350.5 389.833,350.5 386.5,350.5C 386.5,341.833 386.5,333.167 386.5,324.5C 381.968,324.182 377.634,324.515 373.5,325.5C 372.507,333.65 372.174,341.983 372.5,350.5C 369.5,350.5 366.5,350.5 363.5,350.5C 363.83,370.34 363.497,390.007 362.5,409.5C 362.667,379.831 362.5,350.165 362,320.5C 357.38,316.928 354.547,312.261 353.5,306.5C 350.678,308.837 348.845,311.837 348,315.5C 347.5,338.164 347.333,360.831 347.5,383.5C 346.505,372.346 346.172,361.012 346.5,349.5C 343.5,349.5 340.5,349.5 337.5,349.5C 337.5,338.5 337.5,327.5 337.5,316.5C 338.548,306.283 343.714,298.949 353,294.5C 353.495,292.527 353.662,290.527 353.5,288.5C 328.667,289.4 314.333,302.067 310.5,326.5C 310.665,330.182 310.499,333.848 310,337.5C 306.141,341.753 302.974,341.42 300.5,336.5C 299.596,326.953 300.93,317.786 304.5,309C 298.373,304.706 292.706,299.873 287.5,294.5C 285.552,291.379 283.385,288.379 281,285.5C 278.505,291.658 274.838,296.991 270,301.5C 270.491,313.199 267.991,324.199 262.5,334.5C 265.194,338.851 267.86,343.184 270.5,347.5C 267.024,348.643 263.358,348.81 259.5,348C 258,346.167 256.5,344.333 255,342.5C 252.766,344.7 250.266,346.533 247.5,348C 220.833,348.26 194.166,348.093 167.5,347.5C 168.677,342.457 170.011,337.457 171.5,332.5C 173.45,327.598 175.117,322.598 176.5,317.5C 179.134,312.232 181.801,306.899 184.5,301.5C 186.771,297.291 188.771,292.958 190.5,288.5C 195.068,282.377 199.401,276.044 203.5,269.5C 204.88,269.038 205.547,268.038 205.5,266.5C 204.124,261.625 202.458,256.958 200.5,252.5C 200.326,250.139 199.993,247.806 199.5,245.5C 198.5,245.5 197.5,245.5 196.5,245.5 Z"/></g>
<g><path style="opacity:1" fill="#7e95d9" d="M 115.5,251.5 C 143.759,252.491 172.093,252.825 200.5,252.5C 202.458,256.958 204.124,261.625 205.5,266.5C 205.547,268.038 204.88,269.038 203.5,269.5C 170.329,269.832 137.329,269.498 104.5,268.5C 107.773,262.564 111.439,256.897 115.5,251.5 Z"/></g>
<g><path style="opacity:1" fill="#647cbf" d="M 237.5,255.5 C 250.087,256.48 262.754,256.813 275.5,256.5C 275.5,258.5 275.5,260.5 275.5,262.5C 275.063,273.313 271.563,282.979 265,291.5C 257.291,280.791 247.958,271.791 237,264.5C 236.699,261.493 236.865,258.493 237.5,255.5 Z"/></g>
<g><path style="opacity:1" fill="#7c95d3" d="M 104.5,268.5 C 137.329,269.498 170.329,269.832 203.5,269.5C 199.401,276.044 195.068,282.377 190.5,288.5C 158.598,287.826 126.598,287.16 94.5,286.5C 97.3418,280.143 100.675,274.143 104.5,268.5 Z"/></g>
<g><path style="opacity:1" fill="#eff8f8" d="M 255.5,297.5 C 238.514,299.192 221.514,299.525 204.5,298.5C 207.557,290.054 210.89,281.721 214.5,273.5C 218.941,274.045 223.441,273.378 228,271.5C 239.292,277.96 248.459,286.626 255.5,297.5 Z"/></g>
<g><path style="opacity:1" fill="#f9ccc4" d="M 394.5,275.5 C 394.5,282.833 394.5,290.167 394.5,297.5C 384.482,297.41 374.482,297.743 364.5,298.5C 364.5,291.167 364.5,283.833 364.5,276.5C 366.601,269.356 371.434,266.356 379,267.5C 386.378,266.322 391.545,268.989 394.5,275.5 Z"/></g>
<g><path style="opacity:1" fill="#adc4d5" d="M 214.5,273.5 C 210.89,281.721 207.557,290.054 204.5,298.5C 199.923,309.453 196.256,320.786 193.5,332.5C 192.677,335.461 192.01,338.461 191.5,341.5C 205.167,341.5 218.833,341.5 232.5,341.5C 215.341,342.497 198.008,342.83 180.5,342.5C 186.807,316.887 198.14,293.887 214.5,273.5 Z"/></g>
<g><path style="opacity:1" fill="#acc4d6" d="M 287.5,294.5 C 282.433,302.332 279.267,310.999 278,320.5C 276.247,332.487 276.08,344.487 277.5,356.5C 275.408,353.319 273.075,350.319 270.5,347.5C 267.86,343.184 265.194,338.851 262.5,334.5C 267.991,324.199 270.491,313.199 270,301.5C 274.838,296.991 278.505,291.658 281,285.5C 283.385,288.379 285.552,291.379 287.5,294.5 Z"/></g>
<g><path style="opacity:1" fill="#788ed3" d="M 94.5,286.5 C 126.598,287.16 158.598,287.826 190.5,288.5C 188.771,292.958 186.771,297.291 184.5,301.5C 152.329,301.832 120.329,301.498 88.5,300.5C 90.3065,295.746 92.3065,291.08 94.5,286.5 Z"/></g>
<g><path style="opacity:1" fill="#e9f0f6" d="M 337.5,316.5 C 336.521,319.625 336.187,322.958 336.5,326.5C 327.76,327.28 319.094,327.28 310.5,326.5C 314.333,302.067 328.667,289.4 353.5,288.5C 353.662,290.527 353.495,292.527 353,294.5C 343.714,298.949 338.548,306.283 337.5,316.5 Z"/></g>
<g><path style="opacity:1" fill="#ecf2f9" d="M 255.5,297.5 C 257.173,298.343 258.34,299.676 259,301.5C 260.034,309.427 259.034,317.094 256,324.5C 255.303,326.584 254.136,328.251 252.5,329.5C 233.831,329.833 215.164,330.333 196.5,331C 195.473,331.513 194.473,332.013 193.5,332.5C 196.256,320.786 199.923,309.453 204.5,298.5C 221.514,299.525 238.514,299.192 255.5,297.5 Z"/></g>
<g><path style="opacity:1" fill="#758ecd" d="M 88.5,300.5 C 120.329,301.498 152.329,301.832 184.5,301.5C 181.801,306.899 179.134,312.232 176.5,317.5C 144.76,317.175 113.093,317.508 81.5,318.5C 83.3204,312.21 85.6537,306.21 88.5,300.5 Z"/></g>
<g><path style="opacity:1" fill="#f3bbb2" d="M 394.5,275.5 C 395.659,285.658 395.825,295.992 395,306.5C 391.772,313.114 386.439,315.781 379,314.5C 371.883,315.702 366.883,313.035 364,306.5C 363.175,296.325 363.342,286.325 364.5,276.5C 364.5,283.833 364.5,291.167 364.5,298.5C 374.482,297.743 384.482,297.41 394.5,297.5C 394.5,290.167 394.5,282.833 394.5,275.5 Z"/></g>
<g><path style="opacity:1" fill="#8ea1ba" d="M 362.5,409.5 C 353.4,403.312 348.4,394.645 347.5,383.5C 347.333,360.831 347.5,338.164 348,315.5C 348.845,311.837 350.678,308.837 353.5,306.5C 354.547,312.261 357.38,316.928 362,320.5C 362.5,350.165 362.667,379.831 362.5,409.5 Z"/></g>
<g><path style="opacity:1" fill="#7188cd" d="M 176.5,317.5 C 175.117,322.598 173.45,327.598 171.5,332.5C 139.996,332.832 108.662,332.498 77.5,331.5C 78.4345,327.031 79.7679,322.697 81.5,318.5C 113.093,317.508 144.76,317.175 176.5,317.5 Z"/></g>
<g><path style="opacity:1" fill="#f3893e" d="M 373.5,325.5 C 377.5,325.5 381.5,325.5 385.5,325.5C 385.5,333.5 385.5,341.5 385.5,349.5C 381.783,346.975 377.783,344.975 373.5,343.5C 373.5,337.5 373.5,331.5 373.5,325.5 Z"/></g>
<g><path style="opacity:1" fill="#e6f2f2" d="M 310.5,326.5 C 319.094,327.28 327.76,327.28 336.5,326.5C 336.5,334.167 336.5,341.833 336.5,349.5C 316.842,350.328 297.175,350.995 277.5,351.5C 277.5,343.833 277.5,336.167 277.5,328.5C 284.854,328.521 292.187,328.187 299.5,327.5C 299.19,330.713 299.523,333.713 300.5,336.5C 302.974,341.42 306.141,341.753 310,337.5C 310.499,333.848 310.665,330.182 310.5,326.5 Z"/></g>
<g><path style="opacity:1" fill="#e6f1f2" d="M 252.5,329.5 C 247.816,336.52 241.149,340.52 232.5,341.5C 218.833,341.5 205.167,341.5 191.5,341.5C 192.01,338.461 192.677,335.461 193.5,332.5C 194.473,332.013 195.473,331.513 196.5,331C 215.164,330.333 233.831,329.833 252.5,329.5 Z"/></g>
<g><path style="opacity:1" fill="#6f88c7" d="M 77.5,331.5 C 108.662,332.498 139.996,332.832 171.5,332.5C 170.011,337.457 168.677,342.457 167.5,347.5C 167.5,348.167 167.167,348.5 166.5,348.5C 135.338,347.502 104.004,347.168 72.5,347.5C 72.5,347.167 72.5,346.833 72.5,346.5C 73.9921,341.357 75.6588,336.357 77.5,331.5 Z"/></g>
<g><path style="opacity:1" fill="#383845" d="M 270.5,347.5 C 273.075,350.319 275.408,353.319 277.5,356.5C 288.354,372.889 299.688,388.889 311.5,404.5C 317.191,411.852 322.857,419.185 328.5,426.5C 324.167,426.5 319.833,426.5 315.5,426.5C 314.833,426.167 314.167,425.833 313.5,425.5C 313.565,425.062 313.399,424.728 313,424.5C 312.612,425.428 311.945,426.095 311,426.5C 292.704,426.424 274.537,426.424 256.5,426.5C 250.811,419.646 244.311,413.646 237,408.5C 227.844,415.653 218.678,422.819 209.5,430C 201.106,432.548 193.106,431.714 185.5,427.5C 179.562,424.194 173.562,420.861 167.5,417.5C 166.526,419.743 166.192,422.076 166.5,424.5C 163.167,424.5 159.833,424.5 156.5,424.5C 156.5,421.5 156.5,418.5 156.5,415.5C 157.487,410.695 157.821,405.695 157.5,400.5C 158.824,392.889 159.824,385.222 160.5,377.5C 161.768,375.095 162.435,372.428 162.5,369.5C 163.675,362.467 165.008,355.467 166.5,348.5C 167.167,348.5 167.5,348.167 167.5,347.5C 194.166,348.093 220.833,348.26 247.5,348C 250.266,346.533 252.766,344.7 255,342.5C 256.5,344.333 258,346.167 259.5,348C 263.358,348.81 267.024,348.643 270.5,347.5 Z"/></g>
<g><path style="opacity:1" fill="#383845" d="M 62.5,345.5 C 65.6248,346.479 68.9581,346.813 72.5,346.5C 72.5,346.833 72.5,347.167 72.5,347.5C 70.3984,354.342 69.065,361.342 68.5,368.5C 66.9605,370.838 66.2938,373.505 66.5,376.5C 65.211,383.09 64.211,389.756 63.5,396.5C 62.6004,401.332 61.9338,406.332 61.5,411.5C 61.4476,415.198 61.1143,418.865 60.5,422.5C 56.8333,422.5 53.1667,422.5 49.5,422.5C 51.5846,396.324 55.9179,370.657 62.5,345.5 Z"/></g>
<g><path style="opacity:1" fill="#393945" d="M 337.5,316.5 C 337.5,327.5 337.5,338.5 337.5,349.5C 340.5,349.5 343.5,349.5 346.5,349.5C 346.172,361.012 346.505,372.346 347.5,383.5C 348.4,394.645 353.4,403.312 362.5,409.5C 363.497,390.007 363.83,370.34 363.5,350.5C 366.5,350.5 369.5,350.5 372.5,350.5C 372.5,375.833 372.5,401.167 372.5,426.5C 369.5,426.5 366.5,426.5 363.5,426.5C 363.795,424.265 363.461,422.265 362.5,420.5C 352.623,417.287 345.623,410.954 341.5,401.5C 339.536,395.977 338.036,390.31 337,384.5C 336.5,372.838 336.333,361.171 336.5,349.5C 336.5,341.833 336.5,334.167 336.5,326.5C 336.187,322.958 336.521,319.625 337.5,316.5 Z"/></g>
<g><path style="opacity:1" fill="#373843" d="M 386.5,350.5 C 389.833,350.5 393.167,350.5 396.5,350.5C 396.5,376.167 396.5,401.833 396.5,427.5C 393.167,427.5 389.833,427.5 386.5,427.5C 386.5,401.833 386.5,376.167 386.5,350.5 Z"/></g>
<g><path style="opacity:1" fill="#adc6d8" d="M 232.5,361.5 C 232.631,360.761 232.464,360.094 232,359.5C 217,364.167 202,368.833 187,373.5C 184.332,387.016 183.165,400.682 183.5,414.5C 178.557,412.062 173.723,409.396 169,406.5C 168.547,399.808 168.881,393.141 170,386.5C 171.85,375.085 174.017,363.752 176.5,352.5C 195.5,352.5 214.5,352.5 233.5,352.5C 233.81,355.713 233.477,358.713 232.5,361.5 Z"/></g>
<g><path style="opacity:1" fill="#6b82c7" d="M 72.5,347.5 C 104.004,347.168 135.338,347.502 166.5,348.5C 165.008,355.467 163.675,362.467 162.5,369.5C 130.996,369.832 99.6622,369.498 68.5,368.5C 69.065,361.342 70.3984,354.342 72.5,347.5 Z"/></g>
<g><path style="opacity:1" fill="#e2ecf2" d="M 287.5,294.5 C 292.706,299.873 298.373,304.706 304.5,309C 300.93,317.786 299.596,326.953 300.5,336.5C 299.523,333.713 299.19,330.713 299.5,327.5C 292.187,328.187 284.854,328.521 277.5,328.5C 277.5,336.167 277.5,343.833 277.5,351.5C 297.175,350.995 316.842,350.328 336.5,349.5C 336.333,361.171 336.5,372.838 337,384.5C 338.036,390.31 339.536,395.977 341.5,401.5C 339.603,402.805 337.269,403.471 334.5,403.5C 326.848,404.207 319.181,404.541 311.5,404.5C 299.688,388.889 288.354,372.889 277.5,356.5C 276.08,344.487 276.247,332.487 278,320.5C 279.267,310.999 282.433,302.332 287.5,294.5 Z"/></g>
<g><path style="opacity:1" fill="#dfebf1" d="M 232.5,361.5 C 231.845,374.155 231.345,386.821 231,399.5C 222.105,407.029 212.939,414.195 203.5,421C 201.167,421.667 198.833,421.667 196.5,421C 192.14,418.82 187.807,416.653 183.5,414.5C 183.165,400.682 184.332,387.016 187,373.5C 202,368.833 217,364.167 232,359.5C 232.464,360.094 232.631,360.761 232.5,361.5 Z"/></g>
<g><path style="opacity:1" fill="#6982c0" d="M 68.5,368.5 C 99.6622,369.498 130.996,369.832 162.5,369.5C 162.435,372.428 161.768,375.095 160.5,377.5C 129.338,376.502 98.0044,376.168 66.5,376.5C 66.2938,373.505 66.9605,370.838 68.5,368.5 Z"/></g>
<g><path style="opacity:1" fill="#657cc0" d="M 66.5,376.5 C 98.0044,376.168 129.338,376.502 160.5,377.5C 159.824,385.222 158.824,392.889 157.5,400.5C 126.167,400.5 94.8333,400.5 63.5,400.5C 63.5,399.167 63.5,397.833 63.5,396.5C 64.211,389.756 65.211,383.09 66.5,376.5 Z"/></g>
<g><path style="opacity:1" fill="#fab65a" d="M 373.5,343.5 C 377.783,344.975 381.783,346.975 385.5,349.5C 385.5,372.167 385.5,394.833 385.5,417.5C 381.5,417.5 377.5,417.5 373.5,417.5C 373.5,392.833 373.5,368.167 373.5,343.5 Z"/></g>
<g><path style="opacity:1" fill="#886749" d="M 373.5,325.5 C 377.634,324.515 381.968,324.182 386.5,324.5C 386.5,333.167 386.5,341.833 386.5,350.5C 386.5,376.167 386.5,401.833 386.5,427.5C 386.5,450.167 386.5,472.833 386.5,495.5C 386.167,495.5 385.833,495.5 385.5,495.5C 385.5,469.5 385.5,443.5 385.5,417.5C 385.5,394.833 385.5,372.167 385.5,349.5C 385.5,341.5 385.5,333.5 385.5,325.5C 381.5,325.5 377.5,325.5 373.5,325.5 Z"/></g>
<g><path style="opacity:1" fill="#637cba" d="M 63.5,396.5 C 63.5,397.833 63.5,399.167 63.5,400.5C 94.8333,400.5 126.167,400.5 157.5,400.5C 157.821,405.695 157.487,410.695 156.5,415.5C 156.5,414.167 156.5,412.833 156.5,411.5C 124.833,411.5 93.1667,411.5 61.5,411.5C 61.9338,406.332 62.6004,401.332 63.5,396.5 Z"/></g>
<g><path style="opacity:1" fill="#4c4346" d="M 373.5,325.5 C 373.5,331.5 373.5,337.5 373.5,343.5C 373.5,368.167 373.5,392.833 373.5,417.5C 373.5,443.5 373.5,469.5 373.5,495.5C 371.833,495.5 370.167,495.5 368.5,495.5C 369.568,494.566 370.901,494.232 372.5,494.5C 372.5,471.833 372.5,449.167 372.5,426.5C 372.5,401.167 372.5,375.833 372.5,350.5C 372.174,341.983 372.507,333.65 373.5,325.5 Z"/></g>
<g><path style="opacity:1" fill="#d8e5ec" d="M 341.5,401.5 C 345.623,410.954 352.623,417.287 362.5,420.5C 362.5,427.833 362.5,435.167 362.5,442.5C 360.833,442.5 359.167,442.5 357.5,442.5C 352.552,441.906 347.886,440.406 343.5,438C 338.339,434.334 333.339,430.501 328.5,426.5C 322.857,419.185 317.191,411.852 311.5,404.5C 319.181,404.541 326.848,404.207 334.5,403.5C 337.269,403.471 339.603,402.805 341.5,401.5 Z"/></g>
<g><path style="opacity:1" fill="#5d75ba" d="M 61.5,411.5 C 93.1667,411.5 124.833,411.5 156.5,411.5C 156.5,412.833 156.5,414.167 156.5,415.5C 156.5,418.5 156.5,421.5 156.5,424.5C 155.962,448.292 156.962,471.958 159.5,495.5C 126.167,495.5 92.8333,495.5 59.5,495.5C 57.9452,471.136 58.2786,446.802 60.5,422.5C 61.1143,418.865 61.4476,415.198 61.5,411.5 Z"/></g>
<g><path style="opacity:1" fill="#d7e5ec" d="M 256.5,426.5 C 263.476,435.748 268.142,446.081 270.5,457.5C 268.695,459.197 266.361,460.03 263.5,460C 238.16,460.75 212.827,461.584 187.5,462.5C 186.121,453.189 185.121,443.689 184.5,434C 184.504,431.639 184.837,429.473 185.5,427.5C 193.106,431.714 201.106,432.548 209.5,430C 218.678,422.819 227.844,415.653 237,408.5C 244.311,413.646 250.811,419.646 256.5,426.5 Z"/></g>
<g><path style="opacity:1" fill="#aec6d8" d="M 185.5,427.5 C 184.837,429.473 184.504,431.639 184.5,434C 185.121,443.689 186.121,453.189 187.5,462.5C 188.572,473.672 190.572,484.672 193.5,495.5C 185.5,495.5 177.5,495.5 169.5,495.5C 166.962,471.907 165.962,448.241 166.5,424.5C 166.192,422.076 166.526,419.743 167.5,417.5C 173.562,420.861 179.562,424.194 185.5,427.5 Z"/></g>
<g><path style="opacity:1" fill="#858a97" d="M 362.5,420.5 C 363.461,422.265 363.795,424.265 363.5,426.5C 363.5,432.167 363.5,437.833 363.5,443.5C 361.265,443.795 359.265,443.461 357.5,442.5C 359.167,442.5 360.833,442.5 362.5,442.5C 362.5,435.167 362.5,427.833 362.5,420.5 Z"/></g>
<g><path style="opacity:1" fill="#323243" d="M 49.5,422.5 C 53.1667,422.5 56.8333,422.5 60.5,422.5C 58.2786,446.802 57.9452,471.136 59.5,495.5C 55.8333,495.5 52.1667,495.5 48.5,495.5C 47.6146,471.167 47.9479,446.834 49.5,422.5 Z"/></g>
<g><path style="opacity:1" fill="#333345" d="M 156.5,424.5 C 159.833,424.5 163.167,424.5 166.5,424.5C 165.962,448.241 166.962,471.907 169.5,495.5C 166.167,495.5 162.833,495.5 159.5,495.5C 156.962,471.958 155.962,448.292 156.5,424.5 Z"/></g>
<g><path style="opacity:1" fill="#323244" d="M 313.5,425.5 C 317.888,449.051 323.221,472.385 329.5,495.5C 314.167,495.5 298.833,495.5 283.5,495.5C 279.139,482.748 274.806,470.081 270.5,457.5C 268.142,446.081 263.476,435.748 256.5,426.5C 274.537,426.424 292.704,426.424 311,426.5C 311.945,426.095 312.612,425.428 313,424.5C 313.399,424.728 313.565,425.062 313.5,425.5 Z"/></g>
<g><path style="opacity:1" fill="#323244" d="M 315.5,426.5 C 319.833,426.5 324.167,426.5 328.5,426.5C 333.339,430.501 338.339,434.334 343.5,438C 347.886,440.406 352.552,441.906 357.5,442.5C 359.265,443.461 361.265,443.795 363.5,443.5C 363.5,437.833 363.5,432.167 363.5,426.5C 366.5,426.5 369.5,426.5 372.5,426.5C 372.5,449.167 372.5,471.833 372.5,494.5C 370.901,494.232 369.568,494.566 368.5,495.5C 366.5,495.5 364.5,495.5 362.5,495.5C 362.5,481.5 362.5,467.5 362.5,453.5C 342.191,452.514 326.525,443.514 315.5,426.5 Z"/></g>
<g><path style="opacity:1" fill="#323243" d="M 386.5,427.5 C 389.833,427.5 393.167,427.5 396.5,427.5C 396.5,450.167 396.5,472.833 396.5,495.5C 393.167,495.5 389.833,495.5 386.5,495.5C 386.5,472.833 386.5,450.167 386.5,427.5 Z"/></g>
<g><path style="opacity:1" fill="#faad4c" d="M 373.5,417.5 C 377.5,417.5 381.5,417.5 385.5,417.5C 385.5,443.5 385.5,469.5 385.5,495.5C 381.5,495.5 377.5,495.5 373.5,495.5C 373.5,469.5 373.5,443.5 373.5,417.5 Z"/></g>
<g><path style="opacity:1" fill="#d3e0ec" d="M 270.5,457.5 C 274.806,470.081 279.139,482.748 283.5,495.5C 253.5,495.5 223.5,495.5 193.5,495.5C 190.572,484.672 188.572,473.672 187.5,462.5C 212.827,461.584 238.16,460.75 263.5,460C 266.361,460.03 268.695,459.197 270.5,457.5 Z"/></g>
</svg>
