<?xml version="1.0" encoding="UTF-8"?>
<!DOCTYPE svg PUBLIC "-//W3C//DTD SVG 1.1//EN" "http://www.w3.org/Graphics/SVG/1.1/DTD/svg11.dtd">
<svg xmlns="http://www.w3.org/2000/svg" version="1.1" width="512px" height="512px" style="shape-rendering:geometricPrecision; text-rendering:geometricPrecision; image-rendering:optimizeQuality; fill-rule:evenodd; clip-rule:evenodd" xmlns:xlink="http://www.w3.org/1999/xlink">
<g><path style="opacity:1" fill="#000000" d="M 233.5,-0.5 C 248.5,-0.5 263.5,-0.5 278.5,-0.5C 378.271,12.4486 449.438,64.4486 492,155.5C 502.136,180.379 508.636,206.046 511.5,232.5C 511.5,247.833 511.5,263.167 511.5,278.5C 505.655,335.342 483.655,384.842 445.5,427C 436.499,428.329 432.999,424.496 435,415.5C 492.271,347.159 508.938,269.826 485,183.5C 453.385,94.6065 391.552,39.7732 299.5,19C 220.311,6.4028 150.978,26.7361 91.5,80C 81.6667,82.1667 77.8333,78.3333 80,68.5C 123.43,28.5393 174.597,5.53933 233.5,-0.5 Z M 255.5,58.5 C 257.803,60.3247 260.136,62.1581 262.5,64C 260.468,66.0134 258.134,67.5134 255.5,68.5C 253.056,67.2331 250.723,65.7331 248.5,64C 251.02,62.3029 253.353,60.4695 255.5,58.5 Z"/></g>
<g><path style="opacity:1" fill="#000000" d="M 235.5,24.5 C 237.512,25.2283 239.512,26.0617 241.5,27C 246.085,30.8728 250.919,34.3728 256,37.5C 261.396,33.5492 266.896,29.7159 272.5,26C 282.095,24.587 285.595,28.4203 283,37.5C 278.786,41.3821 274.286,44.8821 269.5,48C 274.687,52.189 279.52,56.689 284,61.5C 284.706,63.9712 284.373,66.3046 283,68.5C 278.645,72.3559 274.145,76.0226 269.5,79.5C 274.145,82.9774 278.645,86.6441 283,90.5C 285.539,99.6332 282.039,103.467 272.5,102C 266.403,98.2014 260.569,94.0348 255,89.5C 249.59,93.7881 244.09,97.9548 238.5,102C 229.884,103.717 226.051,100.217 227,91.5C 231.7,87.2251 236.533,83.0584 241.5,79C 236.714,75.8821 232.214,72.3821 228,68.5C 226,65.5 226,62.5 228,59.5C 232.355,55.6441 236.855,51.9774 241.5,48.5C 236.822,44.3211 232.322,39.9878 228,35.5C 227.192,29.4882 229.692,25.8215 235.5,24.5 Z M 255.5,58.5 C 253.353,60.4695 251.02,62.3029 248.5,64C 250.723,65.7331 253.056,67.2331 255.5,68.5C 258.134,67.5134 260.468,66.0134 262.5,64C 260.136,62.1581 257.803,60.3247 255.5,58.5 Z"/></g>
<g><path style="opacity:1" fill="#000000" d="M 156.5,48.5 C 161.223,47.5531 165.056,48.8864 168,52.5C 176.081,66.9972 184.414,81.3305 193,95.5C 196.128,99.7289 197.462,104.396 197,109.5C 193.632,114.128 189.465,115.128 184.5,112.5C 176.748,99.9983 169.248,87.3316 162,74.5C 160.642,77.381 159.142,80.2143 157.5,83C 153.901,84.0139 150.235,84.8473 146.5,85.5C 153.253,96.6703 159.753,108.004 166,119.5C 167.622,128.79 163.789,132.29 154.5,130C 143.705,113.582 133.538,96.7486 124,79.5C 122,75.5 122,71.5 124,67.5C 124.75,66.8742 125.584,66.3742 126.5,66C 132.564,65.5091 138.564,66.0091 144.5,67.5C 145.5,67.1667 146.5,66.8333 147.5,66.5C 149.751,60.049 152.751,54.049 156.5,48.5 Z"/></g>
<g><path style="opacity:1" fill="#000000" d="M 349.5,49.5 C 358.111,48.2807 361.778,51.7807 360.5,60C 368.603,60.0633 376.603,60.73 384.5,62C 387.394,64.9087 388.227,68.4087 387,72.5C 386.5,74.3333 385.333,75.5 383.5,76C 372.833,76.3333 362.167,76.6667 351.5,77C 350.084,79.8349 348.417,82.5015 346.5,85C 354.167,85.3333 361.833,85.6667 369.5,86C 373.277,88.9109 374.444,92.7442 373,97.5C 371.786,99.0488 370.286,100.215 368.5,101C 358.141,101.505 347.807,101.505 337.5,101C 334.749,105.837 331.749,110.503 328.5,115C 321.574,117.575 317.24,115.242 315.5,108C 325.688,87.7836 337.022,68.2836 349.5,49.5 Z"/></g>
<g><path style="opacity:1" fill="#000000" d="M 277.5,511.5 C 262.833,511.5 248.167,511.5 233.5,511.5C 133.191,499.013 61.6912,447.013 19,355.5C 8.86452,330.623 2.36452,304.957 -0.5,278.5C -0.5,263.167 -0.5,247.833 -0.5,232.5C 5.03507,182.053 23.2017,136.719 54,96.5C 56.9557,91.7694 61.1224,89.9361 66.5,91C 70.2771,93.9109 71.4437,97.7442 70,102.5C 11.5736,178.749 -0.0931059,261.749 35,351.5C 79.6018,443.25 153.102,491.584 255.5,496.5C 315.291,495.076 367.958,475.243 413.5,437C 422.79,435.378 426.29,439.211 424,448.5C 381.905,484.929 333.072,505.929 277.5,511.5 Z"/></g>
<g><path style="opacity:1" fill="#000000" d="M 242.5,111.5 C 277.939,109.275 310.273,118.108 339.5,138C 344.917,141.308 346.417,145.808 344,151.5C 341.005,154.265 337.505,155.098 333.5,154C 295.391,126.402 254.058,120.402 209.5,136C 163.287,155.89 136.12,190.724 128,240.5C 124.58,244.753 120.413,245.587 115.5,243C 113.556,241.278 112.556,239.111 112.5,236.5C 123.03,176.138 157.363,136.305 215.5,117C 224.551,114.719 233.551,112.885 242.5,111.5 Z"/></g>
<g><path style="opacity:1" fill="#000000" d="M 435.5,121.5 C 440.28,120.641 443.78,122.308 446,126.5C 448.661,140.789 450.661,155.123 452,169.5C 450.5,172.333 448.333,174.5 445.5,176C 433.167,183 420.833,190 408.5,197C 399.21,198.622 395.71,194.789 398,185.5C 409.586,177.287 421.752,169.953 434.5,163.5C 434.576,156.512 433.743,149.512 432,142.5C 418.254,149.955 404.754,157.788 391.5,166C 382.211,168.29 378.378,164.79 380,155.5C 380.465,154.069 381.299,152.903 382.5,152C 400.229,141.806 417.896,131.64 435.5,121.5 Z"/></g>
<g><path style="opacity:1" fill="#000000" d="M 86.5,130.5 C 90.1785,130.777 93.0118,132.444 95,135.5C 95.9677,148.929 97.4677,162.263 99.5,175.5C 105.07,178.242 110.237,181.576 115,185.5C 117.29,194.789 113.79,198.622 104.5,197C 85.2541,186.463 66.4208,175.296 48,163.5C 45.9486,159.648 46.4486,156.148 49.5,153C 61.7617,145.208 74.095,137.708 86.5,130.5 Z M 78.5,153.5 C 80.1171,154.589 80.9504,156.256 81,158.5C 81.8077,160.579 81.641,162.579 80.5,164.5C 77.0397,162.867 73.7064,161.034 70.5,159C 73.4068,157.391 76.0734,155.558 78.5,153.5 Z"/></g>
<g><path style="opacity:1" fill="#000000" d="M 252.5,142.5 C 255.32,142.248 257.986,142.748 260.5,144C 270.333,153.833 280.167,163.667 290,173.5C 291.457,176.366 291.79,179.366 291,182.5C 282.985,190.348 275.152,198.348 267.5,206.5C 279.319,218.819 291.319,230.986 303.5,243C 304.167,243.667 304.833,243.667 305.5,243C 313.167,235.333 320.833,227.667 328.5,220C 330.833,219.333 333.167,219.333 335.5,220C 346.304,229.803 356.804,239.97 367,250.5C 369,253.833 369,257.167 367,260.5C 356.804,271.03 346.304,281.197 335.5,291C 333.167,291.667 330.833,291.667 328.5,291C 320.833,283.333 313.167,275.667 305.5,268C 304.833,267.333 304.167,267.333 303.5,268C 291.319,280.014 279.319,292.181 267.5,304.5C 275.152,312.652 282.985,320.652 291,328.5C 291.667,330.833 291.667,333.167 291,335.5C 281.197,346.304 271.03,356.804 260.5,367C 257.167,369 253.833,369 250.5,367C 239.97,356.804 229.803,346.304 220,335.5C 219.333,333.167 219.333,330.833 220,328.5C 227.667,320.833 235.333,313.167 243,305.5C 243.667,304.833 243.667,304.167 243,303.5C 230.986,291.319 218.819,279.319 206.5,267.5C 198.348,275.152 190.348,282.985 182.5,291C 180.167,291.667 177.833,291.667 175.5,291C 164.696,281.197 154.196,271.03 144,260.5C 142,257.167 142,253.833 144,250.5C 154.196,239.97 164.696,229.803 175.5,220C 177.833,219.333 180.167,219.333 182.5,220C 190.348,228.015 198.348,235.848 206.5,243.5C 218.819,231.681 230.986,219.681 243,207.5C 243.667,206.833 243.667,206.167 243,205.5C 235.333,197.833 227.667,190.167 220,182.5C 219.333,180.167 219.333,177.833 220,175.5C 230.366,163.968 241.2,152.968 252.5,142.5 Z M 254.5,162.5 C 260.756,167.085 266.422,172.419 271.5,178.5C 266.5,184.167 261.167,189.5 255.5,194.5C 249.833,189.5 244.5,184.167 239.5,178.5C 244.522,173.146 249.522,167.813 254.5,162.5 Z M 254.5,218.5 C 267.761,230.092 280.427,242.426 292.5,255.5C 280.5,268.167 268.167,280.5 255.5,292.5C 242.833,280.5 230.5,268.167 218.5,255.5C 230.521,243.146 242.521,230.813 254.5,218.5 Z M 177.5,239.5 C 183.756,244.085 189.422,249.419 194.5,255.5C 189.5,261.167 184.167,266.5 178.5,271.5C 172.833,266.5 167.5,261.167 162.5,255.5C 167.522,250.146 172.522,244.813 177.5,239.5 Z M 331.5,239.5 C 337.756,244.085 343.422,249.419 348.5,255.5C 343.5,261.167 338.167,266.5 332.5,271.5C 326.833,266.5 321.5,261.167 316.5,255.5C 321.522,250.146 326.522,244.813 331.5,239.5 Z M 254.5,316.5 C 260.756,321.085 266.422,326.419 271.5,332.5C 266.5,338.167 261.167,343.5 255.5,348.5C 249.833,343.5 244.5,338.167 239.5,332.5C 244.522,327.146 249.522,321.813 254.5,316.5 Z"/></g>
<g><path style="opacity:1" fill="#000000" d="M 359.5,163.5 C 363.803,162.796 367.303,164.13 370,167.5C 401.925,212.475 407.925,260.808 388,312.5C 364.183,363.299 324.35,392.132 268.5,399C 208.926,401.799 163.093,378.299 131,328.5C 121.13,311.057 114.964,292.391 112.5,272.5C 112.342,266.991 115.009,263.991 120.5,263.5C 123.811,264.064 126.311,265.731 128,268.5C 136.416,324.583 167.583,361.416 221.5,379C 283.996,391.958 332.496,371.792 367,318.5C 392.397,267.975 388.397,219.975 355,174.5C 353.776,169.626 355.276,165.959 359.5,163.5 Z M 254.5,316.5 C 249.522,321.813 244.522,327.146 239.5,332.5C 244.5,338.167 249.833,343.5 255.5,348.5C 261.167,343.5 266.5,338.167 271.5,332.5C 266.422,326.419 260.756,321.085 254.5,316.5 Z"/></g>
<g><path style="opacity:1" fill="#000000" d="M 43.5,221.5 C 46.4245,221.46 49.0912,222.293 51.5,224C 58.8333,231.333 66.1667,238.667 73.5,246C 81.0624,247.267 88.7291,247.934 96.5,248C 103.167,253 103.167,258 96.5,263C 89.5,263.333 82.5,263.667 75.5,264C 67.1968,271.302 59.1968,278.969 51.5,287C 45.7755,290.536 41.2755,289.369 38,283.5C 37.3333,281.833 37.3333,280.167 38,278.5C 42.1329,273.366 46.6329,268.532 51.5,264C 44.8333,263.667 38.1667,263.333 31.5,263C 26.4648,259.987 25.2981,255.82 28,250.5C 28.9025,249.299 30.0692,248.465 31.5,248C 38.1667,247.667 44.8333,247.333 51.5,247C 46.6329,242.468 42.1329,237.634 38,232.5C 37.1948,227.444 39.0281,223.777 43.5,221.5 Z"/></g>
<g><path style="opacity:1" fill="#000000" d="M 415.5,230.5 C 437.169,230.333 458.836,230.5 480.5,231C 486.259,234.892 486.926,239.559 482.5,245C 479.23,245.995 475.897,246.828 472.5,247.5C 466.426,258.401 459.759,268.901 452.5,279C 448.286,281.269 444.453,280.769 441,277.5C 435,267.5 429,257.5 423,247.5C 419.194,246.984 415.528,245.984 412,244.5C 408.564,238.646 409.731,233.979 415.5,230.5 Z M 441.5,247.5 C 445.351,246.191 449.351,246.191 453.5,247.5C 451.667,250.5 449.833,253.5 448,256.5C 445.812,253.433 443.645,250.433 441.5,247.5 Z"/></g>
<g><path style="opacity:1" fill="#000000" d="M 399.5,313.5 C 404.997,313.243 409.997,314.743 414.5,318C 429.337,326.919 444.337,335.586 459.5,344C 463.943,347.32 465.109,351.486 463,356.5C 452.756,363.707 442.256,370.54 431.5,377C 425.707,381.996 420.54,381.496 416,375.5C 415.203,366.47 414.203,357.47 413,348.5C 405.125,351.519 397.292,354.686 389.5,358C 380.783,358.949 377.283,355.116 379,346.5C 379.833,345.667 380.667,344.833 381.5,344C 390.197,340.316 398.864,336.649 407.5,333C 403.411,330.873 399.577,328.373 396,325.5C 394.593,320.556 395.759,316.556 399.5,313.5 Z M 429.5,346.5 C 433.423,347.795 437.09,349.628 440.5,352C 437.5,353.833 434.5,355.667 431.5,357.5C 430.079,353.973 429.412,350.306 429.5,346.5 Z"/></g>
<g><path style="opacity:1" fill="#000000" d="M 60.5,328.5 C 64.4257,328.047 67.5923,329.38 70,332.5C 71.212,339.087 71.8787,345.754 72,352.5C 85.1853,343.983 98.8519,336.316 113,329.5C 115.887,329.903 118.221,331.236 120,333.5C 120.962,346.928 120.629,360.261 119,373.5C 114.409,376.367 110.076,376.034 106,372.5C 104.952,365.885 104.119,359.218 103.5,352.5C 91.1667,359.667 78.8333,366.833 66.5,374C 62.1019,375.378 58.6019,374.212 56,370.5C 55.3333,357.833 55.3333,345.167 56,332.5C 57.3968,330.93 58.8968,329.596 60.5,328.5 Z"/></g>
<g><path style="opacity:1" fill="#000000" d="M 153.5,378.5 C 162.778,377.376 166.278,381.376 164,390.5C 161.896,393.71 160.063,397.043 158.5,400.5C 161.696,409.224 165.696,417.558 170.5,425.5C 175.793,416.412 181.459,407.579 187.5,399C 199.007,398.19 202.174,403.024 197,413.5C 187.333,430.167 177.667,446.833 168,463.5C 162.58,467.809 157.914,467.142 154,461.5C 153.333,459.5 153.333,457.5 154,455.5C 155.966,451.374 158.132,447.374 160.5,443.5C 156.061,434.955 151.894,426.289 148,417.5C 142.898,426.929 137.398,436.095 131.5,445C 124.574,447.575 120.24,445.242 118.5,438C 128.598,418.972 139.098,400.139 150,381.5C 151.145,380.364 152.312,379.364 153.5,378.5 Z"/></g>
<g><path style="opacity:1" fill="#000000" d="M 322.5,394.5 C 338.41,398.526 353.91,403.859 369,410.5C 370.112,412.39 370.946,414.39 371.5,416.5C 369.19,431.869 366.19,447.036 362.5,462C 356.775,465.536 352.275,464.369 349,458.5C 349.911,446.198 351.745,434.031 354.5,422C 343.089,417.863 331.755,413.53 320.5,409C 316.128,403.408 316.794,398.575 322.5,394.5 Z"/></g>
<g><path style="opacity:1" fill="#000000" d="M 239.5,415.5 C 241.924,416.03 244.257,416.864 246.5,418C 249.141,422.795 252.141,427.295 255.5,431.5C 258.859,427.295 261.859,422.795 264.5,418C 273.429,413.879 277.929,416.712 278,426.5C 274.205,433.929 270.038,441.095 265.5,448C 269.251,455.416 273.418,462.582 278,469.5C 278.949,478.217 275.116,481.717 266.5,480C 262.219,475.273 258.552,470.106 255.5,464.5C 252.448,470.106 248.781,475.273 244.5,480C 235.884,481.717 232.051,478.217 233,469.5C 237.403,462.607 241.57,455.607 245.5,448.5C 240.941,440.444 236.607,432.277 232.5,424C 232.911,419.434 235.245,416.601 239.5,415.5 Z"/></g>
</svg>
