<?xml version="1.0" encoding="UTF-8"?>
<!DOCTYPE svg PUBLIC "-//W3C//DTD SVG 1.1//EN" "http://www.w3.org/Graphics/SVG/1.1/DTD/svg11.dtd">
<svg xmlns="http://www.w3.org/2000/svg" version="1.1" width="512px" height="512px" style="shape-rendering:geometricPrecision; text-rendering:geometricPrecision; image-rendering:optimizeQuality; fill-rule:evenodd; clip-rule:evenodd" xmlns:xlink="http://www.w3.org/1999/xlink">
<g><path style="opacity:1" fill="#4b4b5d" d="M 337.5,49.5 C 303.833,49.5 270.167,49.5 236.5,49.5C 248.847,23.9898 269.18,13.1565 297.5,17C 307.974,20.0281 318.641,22.0281 329.5,23C 325.456,28.7114 320.456,33.3781 314.5,37C 323.403,39.1144 331.07,43.281 337.5,49.5 Z"/></g>
<g><path style="opacity:1" fill="#434356" d="M 236.5,49.5 C 270.167,49.5 303.833,49.5 337.5,49.5C 345.544,55.2098 352.21,62.2098 357.5,70.5C 306.669,71.4989 255.669,71.8322 204.5,71.5C 209.106,62.7339 216.106,56.5672 225.5,53C 229.384,52.1362 233.051,50.9695 236.5,49.5 Z"/></g>
<g><path style="opacity:1" fill="#3c3b4e" d="M 357.5,70.5 C 363.194,75.0169 369.528,78.5169 376.5,81C 367.234,89.5731 356.234,93.4065 343.5,92.5C 347.838,98.5081 350.505,105.175 351.5,112.5C 343.142,112.621 334.809,112.288 326.5,111.5C 309.391,108.36 294.891,100.36 283,87.5C 283.272,97.0144 281.272,106.014 277,114.5C 274.246,117.762 271.079,120.429 267.5,122.5C 264.594,121.103 262.094,119.103 260,116.5C 258.37,123.1 255.203,128.767 250.5,133.5C 248.074,135.38 245.408,136.713 242.5,137.5C 241.866,128.2 236.866,123.2 227.5,122.5C 220.498,123.51 215.498,127.176 212.5,133.5C 198.937,121.986 193.77,107.319 197,89.5C 198.263,82.8486 200.763,76.8486 204.5,71.5C 255.669,71.8322 306.669,71.4989 357.5,70.5 Z"/></g>
<g><path style="opacity:1" fill="#d2706a" d="M 326.5,111.5 C 326.821,116.695 326.487,121.695 325.5,126.5C 312.325,124.243 300.325,119.243 289.5,111.5C 285.401,118.434 280.068,124.267 273.5,129C 271.305,130.373 268.971,130.706 266.5,130C 264.983,128.315 263.316,126.815 261.5,125.5C 258.356,128.99 254.69,131.657 250.5,133.5C 255.203,128.767 258.37,123.1 260,116.5C 262.094,119.103 264.594,121.103 267.5,122.5C 271.079,120.429 274.246,117.762 277,114.5C 281.272,106.014 283.272,97.0144 283,87.5C 294.891,100.36 309.391,108.36 326.5,111.5 Z"/></g>
<g><path style="opacity:1" fill="#d8e0e7" d="M 153.5,147.5 C 152.503,147.47 151.836,147.97 151.5,149C 149.791,155.293 147.791,161.46 145.5,167.5C 117.112,159.279 88.6125,151.612 60,144.5C 56.2543,144.325 52.7543,145.158 49.5,147C 44.6389,151.032 39.9723,155.199 35.5,159.5C 27.9241,150.859 22.2574,141.025 18.5,130C 28.7377,124.087 39.7377,120.254 51.5,118.5C 85.7232,127.802 119.723,137.469 153.5,147.5 Z"/></g>
<g><path style="opacity:1" fill="#e6bbb4" d="M 325.5,126.5 C 325.5,132.833 325.5,139.167 325.5,145.5C 323.265,145.795 321.265,145.461 319.5,144.5C 321.573,140.294 320.406,137.627 316,136.5C 309.622,136.397 306.789,139.397 307.5,145.5C 302.968,145.818 298.634,145.485 294.5,144.5C 294.822,142.278 294.155,140.444 292.5,139C 290,138.167 287.5,137.333 285,136.5C 280.589,137.691 279.422,140.358 281.5,144.5C 258.598,145.176 235.598,145.843 212.5,146.5C 212.5,142.167 212.5,137.833 212.5,133.5C 215.498,127.176 220.498,123.51 227.5,122.5C 236.866,123.2 241.866,128.2 242.5,137.5C 245.408,136.713 248.074,135.38 250.5,133.5C 254.69,131.657 258.356,128.99 261.5,125.5C 263.316,126.815 264.983,128.315 266.5,130C 268.971,130.706 271.305,130.373 273.5,129C 280.068,124.267 285.401,118.434 289.5,111.5C 300.325,119.243 312.325,124.243 325.5,126.5 Z"/></g>
<g><path style="opacity:1" fill="#d4726c" d="M 294.5,144.5 C 290.233,147.099 285.9,147.099 281.5,144.5C 279.422,140.358 280.589,137.691 285,136.5C 287.5,137.333 290,138.167 292.5,139C 294.155,140.444 294.822,142.278 294.5,144.5 Z"/></g>
<g><path style="opacity:1" fill="#d4726c" d="M 319.5,144.5 C 315.585,146.378 311.585,146.711 307.5,145.5C 306.789,139.397 309.622,136.397 316,136.5C 320.406,137.627 321.573,140.294 319.5,144.5 Z"/></g>
<g><path style="opacity:1" fill="#e0e6e7" d="M 153.5,147.5 C 182.884,155.295 212.218,163.295 241.5,171.5C 241.5,179.167 241.5,186.833 241.5,194.5C 224.809,189.961 208.142,185.294 191.5,180.5C 176.046,176.471 160.712,172.137 145.5,167.5C 147.791,161.46 149.791,155.293 151.5,149C 151.836,147.97 152.503,147.47 153.5,147.5 Z"/></g>
<g><path style="opacity:1" fill="#8da7db" d="M 145.5,167.5 C 160.712,172.137 176.046,176.471 191.5,180.5C 189.808,187.937 187.808,195.27 185.5,202.5C 135.501,188.167 85.5007,173.834 35.5,159.5C 39.9723,155.199 44.6389,151.032 49.5,147C 52.7543,145.158 56.2543,144.325 60,144.5C 88.6125,151.612 117.112,159.279 145.5,167.5 Z"/></g>
<g><path style="opacity:1" fill="#e6b0a7" d="M 281.5,144.5 C 285.9,147.099 290.233,147.099 294.5,144.5C 298.634,145.485 302.968,145.818 307.5,145.5C 311.585,146.711 315.585,146.378 319.5,144.5C 321.265,145.461 323.265,145.795 325.5,145.5C 324.48,155.129 323.814,164.796 323.5,174.5C 296.833,174.5 270.167,174.5 243.5,174.5C 242.506,184.653 242.172,194.986 242.5,205.5C 242.167,205.5 241.833,205.5 241.5,205.5C 241.5,201.833 241.5,198.167 241.5,194.5C 241.5,186.833 241.5,179.167 241.5,171.5C 241.665,167.818 241.499,164.152 241,160.5C 239.269,162.617 237.102,164.117 234.5,165C 220.394,167.07 213.061,160.904 212.5,146.5C 235.598,145.843 258.598,145.176 281.5,144.5 Z"/></g>
<g><path style="opacity:1" fill="#d4706b" d="M 243.5,174.5 C 245.41,181.248 249.41,186.415 255.5,190C 267.008,197.337 279.341,202.837 292.5,206.5C 292.5,207.5 292.5,208.5 292.5,209.5C 292.423,213.962 293.09,218.295 294.5,222.5C 290.313,223.662 285.98,223.662 281.5,222.5C 274.523,221.507 267.856,219.507 261.5,216.5C 254.385,214.023 248.052,210.356 242.5,205.5C 242.172,194.986 242.506,184.653 243.5,174.5 Z"/></g>
<g><path style="opacity:1" fill="#e7ae50" d="M 401.5,216.5 C 399.539,218.963 397.372,221.297 395,223.5C 393.241,226.608 392.408,229.941 392.5,233.5C 383.593,231.799 374.593,230.465 365.5,229.5C 368.451,222.6 371.118,215.6 373.5,208.5C 377.263,199.201 381.597,190.201 386.5,181.5C 392.357,177.035 398.69,176.368 405.5,179.5C 405.833,180.5 406.167,181.5 406.5,182.5C 404.645,193.816 402.979,205.149 401.5,216.5 Z"/></g>
<g><path style="opacity:1" fill="#e6a398" d="M 243.5,174.5 C 270.167,174.5 296.833,174.5 323.5,174.5C 323.059,181.034 321.726,187.368 319.5,193.5C 317.023,197.101 314.523,200.767 312,204.5C 310.786,206.049 309.286,207.215 307.5,208C 302.311,208.908 297.311,208.408 292.5,206.5C 279.341,202.837 267.008,197.337 255.5,190C 249.41,186.415 245.41,181.248 243.5,174.5 Z"/></g>
<g><path style="opacity:1" fill="#e5e5e6" d="M 319.5,193.5 C 328.759,196.363 338.093,199.03 347.5,201.5C 342.402,208.028 337.069,214.361 331.5,220.5C 318.513,216.613 305.513,212.946 292.5,209.5C 292.5,208.5 292.5,207.5 292.5,206.5C 297.311,208.408 302.311,208.908 307.5,208C 309.286,207.215 310.786,206.049 312,204.5C 314.523,200.767 317.023,197.101 319.5,193.5 Z"/></g>
<g><path style="opacity:1" fill="#9bb3e6" d="M 347.5,201.5 C 356.064,204.141 364.731,206.475 373.5,208.5C 371.118,215.6 368.451,222.6 365.5,229.5C 365.464,238.185 365.797,246.851 366.5,255.5C 353.833,251.833 341.167,248.167 328.5,244.5C 322.391,236.783 314.391,233.449 304.5,234.5C 300.039,231.378 296.705,227.378 294.5,222.5C 293.09,218.295 292.423,213.962 292.5,209.5C 305.513,212.946 318.513,216.613 331.5,220.5C 337.069,214.361 342.402,208.028 347.5,201.5 Z"/></g>
<g><path style="opacity:1" fill="#dce1e7" d="M 224.5,207.5 C 235.41,230.356 229.744,247.856 207.5,260C 181.069,265.29 165.069,254.79 159.5,228.5C 170.259,216.785 183.593,209.785 199.5,207.5C 207.775,206.345 216.109,206.345 224.5,207.5 Z"/></g>
<g><path style="opacity:1" fill="#d2d9e7" d="M 224.5,207.5 C 227.179,208.226 229.846,209.059 232.5,210C 236.47,226.785 232.97,241.952 222,255.5C 204.224,270.562 185.057,272.395 164.5,261C 156.872,254.903 152.538,247.07 151.5,237.5C 153.453,233.88 156.119,230.88 159.5,228.5C 165.069,254.79 181.069,265.29 207.5,260C 229.744,247.856 235.41,230.356 224.5,207.5 Z"/></g>
<g><path style="opacity:1" fill="#9ab3e4" d="M 191.5,180.5 C 208.142,185.294 224.809,189.961 241.5,194.5C 241.5,198.167 241.5,201.833 241.5,205.5C 241.334,209.514 241.501,213.514 242,217.5C 245.413,221.908 246.913,226.908 246.5,232.5C 240.359,253.276 229.692,271.443 214.5,287C 211.621,289.385 208.621,291.552 205.5,293.5C 202.57,294.299 199.57,294.632 196.5,294.5C 194.407,293.955 192.407,293.122 190.5,292C 179.785,281.774 167.451,274.274 153.5,269.5C 149.71,267.442 145.71,265.609 141.5,264C 140.282,262.562 139.615,260.895 139.5,259C 142.107,250.943 146.107,243.776 151.5,237.5C 152.538,247.07 156.872,254.903 164.5,261C 185.057,272.395 204.224,270.562 222,255.5C 232.97,241.952 236.47,226.785 232.5,210C 229.846,209.059 227.179,208.226 224.5,207.5C 216.109,206.345 207.775,206.345 199.5,207.5C 194.833,205.833 190.167,204.167 185.5,202.5C 187.808,195.27 189.808,187.937 191.5,180.5 Z"/></g>
<g><path style="opacity:1" fill="#e6c1bb" d="M 241.5,205.5 C 241.833,205.5 242.167,205.5 242.5,205.5C 248.052,210.356 254.385,214.023 261.5,216.5C 261.828,227.679 261.495,238.679 260.5,249.5C 257.991,248.079 255.657,246.412 253.5,244.5C 250.662,240.828 248.329,236.828 246.5,232.5C 246.913,226.908 245.413,221.908 242,217.5C 241.501,213.514 241.334,209.514 241.5,205.5 Z"/></g>
<g><path style="opacity:1" fill="#e7c4bc" d="M 416.5,216.5 C 416.5,236.5 416.5,256.5 416.5,276.5C 413.594,275.213 410.594,274.213 407.5,273.5C 402.494,270.999 397.827,267.999 393.5,264.5C 391.307,254.207 390.974,243.874 392.5,233.5C 392.408,229.941 393.241,226.608 395,223.5C 397.372,221.297 399.539,218.963 401.5,216.5C 406.631,215.249 411.631,215.249 416.5,216.5 Z"/></g>
<g><path style="opacity:1" fill="#e6b4ad" d="M 261.5,216.5 C 267.856,219.507 274.523,221.507 281.5,222.5C 281.81,234.801 282.81,246.801 284.5,258.5C 275.181,259.526 267.181,256.526 260.5,249.5C 261.495,238.679 261.828,227.679 261.5,216.5 Z"/></g>
<g><path style="opacity:1" fill="#e6b1a7" d="M 416.5,216.5 C 424.965,217.76 432.631,220.76 439.5,225.5C 439.5,244.167 439.5,262.833 439.5,281.5C 440.5,281.5 441.5,281.5 442.5,281.5C 433.442,282.408 424.776,280.741 416.5,276.5C 416.5,256.5 416.5,236.5 416.5,216.5 Z"/></g>
<g><path style="opacity:1" fill="#e6a79c" d="M 281.5,222.5 C 285.98,223.662 290.313,223.662 294.5,222.5C 296.705,227.378 300.039,231.378 304.5,234.5C 303.437,247.35 296.77,255.35 284.5,258.5C 282.81,246.801 281.81,234.801 281.5,222.5 Z"/></g>
<g><path style="opacity:1" fill="#e6a69b" d="M 439.5,225.5 C 450.389,228.38 456.056,235.38 456.5,246.5C 455.445,254.326 454.612,262.326 454,270.5C 453.616,273.06 452.783,275.394 451.5,277.5C 451.5,278.167 451.167,278.5 450.5,278.5C 448.046,280.06 445.38,281.06 442.5,281.5C 441.5,281.5 440.5,281.5 439.5,281.5C 439.5,262.833 439.5,244.167 439.5,225.5 Z"/></g>
<g><path style="opacity:1" fill="#772045" d="M 246.5,232.5 C 248.329,236.828 250.662,240.828 253.5,244.5C 251.449,250.711 252.283,256.378 256,261.5C 266.098,273.282 277.931,282.782 291.5,290C 298.153,292.013 304.153,290.68 309.5,286C 313.8,282.702 317.8,279.035 321.5,275C 322.793,274.51 324.127,274.343 325.5,274.5C 325.371,276.216 325.038,277.883 324.5,279.5C 320.888,285.198 316.888,290.698 312.5,296C 300.189,304.596 287.855,304.596 275.5,296C 265.634,289.9 256.301,283.066 247.5,275.5C 242.02,290.147 233.353,302.48 221.5,312.5C 219.973,312.427 218.973,313.094 218.5,314.5C 213.805,307.787 209.472,300.787 205.5,293.5C 208.621,291.552 211.621,289.385 214.5,287C 229.692,271.443 240.359,253.276 246.5,232.5 Z"/></g>
<g><path style="opacity:1" fill="#38384b" d="M 456.5,246.5 C 466.653,249.496 476.653,252.996 486.5,257C 493.966,264.324 494.466,272.157 488,280.5C 483.492,284.252 478.326,285.752 472.5,285C 465.475,282.483 458.475,279.983 451.5,277.5C 452.783,275.394 453.616,273.06 454,270.5C 454.612,262.326 455.445,254.326 456.5,246.5 Z"/></g>
<g><path style="opacity:1" fill="#e6953e" d="M 365.5,229.5 C 374.593,230.465 383.593,231.799 392.5,233.5C 390.974,243.874 391.307,254.207 393.5,264.5C 384.583,264.183 375.583,263.183 366.5,261.5C 366.5,259.5 366.5,257.5 366.5,255.5C 365.797,246.851 365.464,238.185 365.5,229.5 Z"/></g>
<g><path style="opacity:1" fill="#ca4a7e" d="M 304.5,234.5 C 314.391,233.449 322.391,236.783 328.5,244.5C 329.462,247.757 330.962,250.757 333,253.5C 338.301,257.8 343.301,262.466 348,267.5C 348.791,268.745 349.291,270.078 349.5,271.5C 348.342,274.989 347.009,278.322 345.5,281.5C 338.5,280.833 331.5,280.167 324.5,279.5C 325.038,277.883 325.371,276.216 325.5,274.5C 324.127,274.343 322.793,274.51 321.5,275C 317.8,279.035 313.8,282.702 309.5,286C 304.153,290.68 298.153,292.013 291.5,290C 277.931,282.782 266.098,273.282 256,261.5C 252.283,256.378 251.449,250.711 253.5,244.5C 255.657,246.412 257.991,248.079 260.5,249.5C 267.181,256.526 275.181,259.526 284.5,258.5C 296.77,255.35 303.437,247.35 304.5,234.5 Z"/></g>
<g><path style="opacity:1" fill="#d3706a" d="M 153.5,269.5 C 167.451,274.274 179.785,281.774 190.5,292C 192.407,293.122 194.407,293.955 196.5,294.5C 190.833,299.833 185.167,305.167 179.5,310.5C 178.5,311.167 177.5,311.833 176.5,312.5C 168.314,306.236 159.314,301.236 149.5,297.5C 143.646,294.771 137.646,292.438 131.5,290.5C 138.833,283.5 146.167,276.5 153.5,269.5 Z"/></g>
<g><path style="opacity:1" fill="#e18333" d="M 366.5,261.5 C 375.583,263.183 384.583,264.183 393.5,264.5C 392.668,274.33 391.001,283.997 388.5,293.5C 381.271,293.815 375.104,291.481 370,286.5C 369.333,285.167 368.667,283.833 368,282.5C 367.108,275.524 366.608,268.524 366.5,261.5 Z"/></g>
<g><path style="opacity:1" fill="#771f45" d="M 349.5,271.5 C 353.342,279.066 354.342,287.066 352.5,295.5C 352.128,299.372 351.128,303.039 349.5,306.5C 338.612,319.788 325.279,329.955 309.5,337C 300.175,340.104 291.842,338.437 284.5,332C 281.921,330.388 281.921,328.888 284.5,327.5C 298.26,332.144 309.927,329.144 319.5,318.5C 331.374,308.418 340.041,296.084 345.5,281.5C 347.009,278.322 348.342,274.989 349.5,271.5 Z"/></g>
<g><path style="opacity:1" fill="#9db5e6" d="M 407.5,273.5 C 410.594,274.213 413.594,275.213 416.5,276.5C 424.776,280.741 433.442,282.408 442.5,281.5C 445.38,281.06 448.046,280.06 450.5,278.5C 451.854,292.472 452.854,306.472 453.5,320.5C 450.993,319.108 448.327,318.108 445.5,317.5C 431.166,310.672 417.832,302.338 405.5,292.5C 405.875,286.128 406.541,279.795 407.5,273.5 Z"/></g>
<g><path style="opacity:1" fill="#c1a795" d="M 205.5,293.5 C 209.472,300.787 213.805,307.787 218.5,314.5C 236.473,339.323 259.806,357.156 288.5,368C 295.871,368.433 302.538,366.433 308.5,362C 313.789,358.38 318.789,354.38 323.5,350C 328.074,344.935 332.407,339.769 336.5,334.5C 336.5,337.833 336.5,341.167 336.5,344.5C 336.048,349.998 335.381,355.331 334.5,360.5C 325.763,369.374 315.763,376.541 304.5,382C 295.402,385.152 286.069,386.152 276.5,385C 242.008,375.178 211.841,358.011 186,333.5C 185.601,333.728 185.435,334.062 185.5,334.5C 182.883,326.78 180.883,318.78 179.5,310.5C 185.167,305.167 190.833,299.833 196.5,294.5C 199.57,294.632 202.57,294.299 205.5,293.5 Z"/></g>
<g><path style="opacity:1" fill="#e6b2a9" d="M 131.5,290.5 C 137.646,292.438 143.646,294.771 149.5,297.5C 149.5,310.5 149.5,323.5 149.5,336.5C 143.5,342.167 137.5,347.833 131.5,353.5C 129.999,352.248 128.332,351.248 126.5,350.5C 123.618,348.892 120.618,347.559 117.5,346.5C 117.829,331.99 117.496,317.657 116.5,303.5C 121.179,298.822 126.179,294.489 131.5,290.5 Z"/></g>
<g><path style="opacity:1" fill="#bc3f72" d="M 324.5,279.5 C 331.5,280.167 338.5,280.833 345.5,281.5C 340.041,296.084 331.374,308.418 319.5,318.5C 287.51,316.91 255.51,315.41 223.5,314C 222.584,313.722 221.918,313.222 221.5,312.5C 233.353,302.48 242.02,290.147 247.5,275.5C 256.301,283.066 265.634,289.9 275.5,296C 287.855,304.596 300.189,304.596 312.5,296C 316.888,290.698 320.888,285.198 324.5,279.5 Z"/></g>
<g><path style="opacity:1" fill="#d3706b" d="M 352.5,295.5 C 355.526,298.195 358.526,300.862 361.5,303.5C 358.527,319.77 352.527,334.77 343.5,348.5C 341.184,347.194 338.85,345.861 336.5,344.5C 336.5,341.167 336.5,337.833 336.5,334.5C 341.894,325.708 346.228,316.375 349.5,306.5C 351.128,303.039 352.128,299.372 352.5,295.5 Z"/></g>
<g><path style="opacity:1" fill="#e6a59b" d="M 149.5,297.5 C 159.314,301.236 168.314,306.236 176.5,312.5C 167.729,320.725 158.729,328.725 149.5,336.5C 149.5,323.5 149.5,310.5 149.5,297.5 Z"/></g>
<g><path style="opacity:1" fill="#e6b4ad" d="M 361.5,303.5 C 367.857,308.198 374.19,312.865 380.5,317.5C 380.5,336.167 380.5,354.833 380.5,373.5C 375.666,370.248 370.666,367.248 365.5,364.5C 357.887,359.553 350.553,354.22 343.5,348.5C 352.527,334.77 358.527,319.77 361.5,303.5 Z"/></g>
<g><path style="opacity:1" fill="#c8d2e6" d="M 405.5,292.5 C 417.832,302.338 431.166,310.672 445.5,317.5C 412.362,336.485 402.195,364.151 415,400.5C 419.853,409.894 426.353,417.894 434.5,424.5C 427.312,420.98 420.645,416.647 414.5,411.5C 414.5,410.833 414.167,410.5 413.5,410.5C 410.104,405.387 406.938,400.054 404,394.5C 403.315,391.421 402.481,388.421 401.5,385.5C 401.465,367.158 401.798,348.825 402.5,330.5C 403.059,317.787 404.059,305.121 405.5,292.5 Z"/></g>
<g><path style="opacity:1" fill="#e7bdb5" d="M 116.5,303.5 C 117.496,317.657 117.829,331.99 117.5,346.5C 103.775,341.818 89.7748,339.485 75.5,339.5C 89.1667,327.5 102.833,315.5 116.5,303.5 Z"/></g>
<g><path style="opacity:1" fill="#d2dae7" d="M 445.5,317.5 C 448.327,318.108 450.993,319.108 453.5,320.5C 453.5,325.833 453.5,331.167 453.5,336.5C 433.388,347.289 425.888,363.955 431,386.5C 434.807,396.796 441.307,404.796 450.5,410.5C 450.273,416.829 449.273,422.996 447.5,429C 442.576,429.205 438.243,427.705 434.5,424.5C 426.353,417.894 419.853,409.894 415,400.5C 402.195,364.151 412.362,336.485 445.5,317.5 Z"/></g>
<g><path style="opacity:1" fill="#e6aa9f" d="M 380.5,317.5 C 387.851,321.861 395.184,326.194 402.5,330.5C 401.798,348.825 401.465,367.158 401.5,385.5C 394.337,381.753 387.337,377.753 380.5,373.5C 380.5,354.833 380.5,336.167 380.5,317.5 Z"/></g>
<g><path style="opacity:1" fill="#b03566" d="M 349.5,306.5 C 346.228,316.375 341.894,325.708 336.5,334.5C 332.407,339.769 328.074,344.935 323.5,350C 318.789,354.38 313.789,358.38 308.5,362C 302.538,366.433 295.871,368.433 288.5,368C 259.806,357.156 236.473,339.323 218.5,314.5C 218.973,313.094 219.973,312.427 221.5,312.5C 221.918,313.222 222.584,313.722 223.5,314C 255.51,315.41 287.51,316.91 319.5,318.5C 309.927,329.144 298.26,332.144 284.5,327.5C 281.921,328.888 281.921,330.388 284.5,332C 291.842,338.437 300.175,340.104 309.5,337C 325.279,329.955 338.612,319.788 349.5,306.5 Z"/></g>
<g><path style="opacity:1" fill="#dbe1e7" d="M 453.5,336.5 C 454.175,361.104 453.175,385.771 450.5,410.5C 441.307,404.796 434.807,396.796 431,386.5C 425.888,363.955 433.388,347.289 453.5,336.5 Z"/></g>
<g><path style="opacity:1" fill="#dde2e7" d="M 75.5,339.5 C 89.7748,339.485 103.775,341.818 117.5,346.5C 120.618,347.559 123.618,348.892 126.5,350.5C 123.322,375.924 108.989,387.257 83.5,384.5C 82.609,383.89 81.609,383.557 80.5,383.5C 70.9468,371.578 63.2801,358.411 57.5,344C 57.7591,342.739 58.4258,341.739 59.5,341C 64.8222,340.316 70.1556,339.816 75.5,339.5 Z"/></g>
<g><path style="opacity:1" fill="#772045" d="M 185.5,338.5 C 189.798,350.904 193.631,363.57 197,376.5C 197.23,389.833 197.064,403.166 196.5,416.5C 196.5,419.833 196.5,423.167 196.5,426.5C 195.679,429.641 195.179,432.975 195,436.5C 191.814,425.463 185.648,416.463 176.5,409.5C 175.833,408.167 174.833,407.167 173.5,406.5C 168.793,401.795 164.46,396.795 160.5,391.5C 172.84,375.816 181.173,358.149 185.5,338.5 Z"/></g>
<g><path style="opacity:1" fill="#761f44" d="M 336.5,344.5 C 338.85,345.861 341.184,347.194 343.5,348.5C 350.553,354.22 357.887,359.553 365.5,364.5C 373.419,388.845 379.752,413.512 384.5,438.5C 386.124,453.125 387.291,467.791 388,482.5C 389.963,487.956 393.463,491.956 398.5,494.5C 375.5,494.5 352.5,494.5 329.5,494.5C 329.5,487.5 329.5,480.5 329.5,473.5C 329.5,469.5 329.5,465.5 329.5,461.5C 329.5,452.5 329.5,443.5 329.5,434.5C 329.5,426.833 329.5,419.167 329.5,411.5C 329.767,394.362 331.434,377.362 334.5,360.5C 335.381,355.331 336.048,349.998 336.5,344.5 Z"/></g>
<g><path style="opacity:1" fill="#b33769" d="M 179.5,310.5 C 180.883,318.78 182.883,326.78 185.5,334.5C 185.5,335.833 185.5,337.167 185.5,338.5C 181.173,358.149 172.84,375.816 160.5,391.5C 157.833,388.833 155.167,386.167 152.5,383.5C 146.761,375.031 141.261,366.364 136,357.5C 134.629,355.959 133.129,354.625 131.5,353.5C 137.5,347.833 143.5,342.167 149.5,336.5C 158.729,328.725 167.729,320.725 176.5,312.5C 177.5,311.833 178.5,311.167 179.5,310.5 Z"/></g>
<g><path style="opacity:1" fill="#d0d7e6" d="M 126.5,350.5 C 128.332,351.248 129.999,352.248 131.5,353.5C 133.129,354.625 134.629,355.959 136,357.5C 141.261,366.364 146.761,375.031 152.5,383.5C 134.634,392.361 115.968,394.528 96.5,390C 91.8461,388.666 87.5128,386.833 83.5,384.5C 108.989,387.257 123.322,375.924 126.5,350.5 Z"/></g>
<g><path style="opacity:1" fill="#e0cdbe" d="M 334.5,360.5 C 331.434,377.362 329.767,394.362 329.5,411.5C 285.5,411.5 241.5,411.5 197.5,411.5C 197.784,413.415 197.451,415.081 196.5,416.5C 197.064,403.166 197.23,389.833 197,376.5C 193.631,363.57 189.798,350.904 185.5,338.5C 185.5,337.167 185.5,335.833 185.5,334.5C 185.435,334.062 185.601,333.728 186,333.5C 211.841,358.011 242.008,375.178 276.5,385C 286.069,386.152 295.402,385.152 304.5,382C 315.763,376.541 325.763,369.374 334.5,360.5 Z"/></g>
<g><path style="opacity:1" fill="#9cb4e6" d="M 80.5,383.5 C 81.609,383.557 82.609,383.89 83.5,384.5C 87.5128,386.833 91.8461,388.666 96.5,390C 115.968,394.528 134.634,392.361 152.5,383.5C 155.167,386.167 157.833,388.833 160.5,391.5C 164.46,396.795 168.793,401.795 173.5,406.5C 169.407,407.382 165.74,409.049 162.5,411.5C 152.062,415.933 143.729,422.933 137.5,432.5C 134.807,431.153 132.14,429.82 129.5,428.5C 117.301,420.229 105.634,411.229 94.5,401.5C 89.4513,395.786 84.7846,389.786 80.5,383.5 Z"/></g>
<g><path style="opacity:1" fill="#e6b3ab" d="M 173.5,406.5 C 174.833,407.167 175.833,408.167 176.5,409.5C 175.502,436.995 175.169,464.662 175.5,492.5C 170.131,491.454 165.797,488.787 162.5,484.5C 163.833,460.167 163.833,435.833 162.5,411.5C 165.74,409.049 169.407,407.382 173.5,406.5 Z"/></g>
<g><path style="opacity:1" fill="#bf4174" d="M 365.5,364.5 C 370.666,367.248 375.666,370.248 380.5,373.5C 387.337,377.753 394.337,381.753 401.5,385.5C 402.481,388.421 403.315,391.421 404,394.5C 406.938,400.054 410.104,405.387 413.5,410.5C 414.167,410.5 414.5,410.833 414.5,411.5C 415.992,418.467 417.325,425.467 418.5,432.5C 406.957,434.05 395.623,436.05 384.5,438.5C 379.752,413.512 373.419,388.845 365.5,364.5 Z"/></g>
<g><path style="opacity:1" fill="#e6d3c7" d="M 329.5,411.5 C 329.5,419.167 329.5,426.833 329.5,434.5C 285.167,434.5 240.833,434.5 196.5,434.5C 196.5,431.833 196.5,429.167 196.5,426.5C 196.5,423.167 196.5,419.833 196.5,416.5C 197.451,415.081 197.784,413.415 197.5,411.5C 241.5,411.5 285.5,411.5 329.5,411.5 Z"/></g>
<g><path style="opacity:1" fill="#e6bcb4" d="M 162.5,411.5 C 163.833,435.833 163.833,460.167 162.5,484.5C 158.32,481.133 155.487,476.8 154,471.5C 153.955,461.551 151.622,452.218 147,443.5C 143.998,439.666 140.831,436 137.5,432.5C 143.729,422.933 152.062,415.933 162.5,411.5 Z"/></g>
<g><path style="opacity:1" fill="#e4a59b" d="M 176.5,409.5 C 185.648,416.463 191.814,425.463 195,436.5C 195.179,432.975 195.679,429.641 196.5,426.5C 196.5,429.167 196.5,431.833 196.5,434.5C 195.797,443.149 195.464,451.815 195.5,460.5C 195.5,460.833 195.5,461.167 195.5,461.5C 195.5,472.5 195.5,483.5 195.5,494.5C 189.833,494.5 184.167,494.5 178.5,494.5C 177.5,493.833 176.5,493.167 175.5,492.5C 175.169,464.662 175.502,436.995 176.5,409.5 Z"/></g>
<g><path style="opacity:1" fill="#cf4d83" d="M 94.5,401.5 C 105.634,411.229 117.301,420.229 129.5,428.5C 119.758,441.313 112.092,455.313 106.5,470.5C 87.8333,464.167 69.1667,457.833 50.5,451.5C 54.0566,445.104 58.2233,439.104 63,433.5C 73.7566,422.911 84.2566,412.245 94.5,401.5 Z"/></g>
<g><path style="opacity:1" fill="#761f44" d="M 129.5,428.5 C 132.14,429.82 134.807,431.153 137.5,432.5C 140.831,436 143.998,439.666 147,443.5C 151.622,452.218 153.955,461.551 154,471.5C 155.487,476.8 158.32,481.133 162.5,484.5C 165.797,488.787 170.131,491.454 175.5,492.5C 176.5,493.167 177.5,493.833 178.5,494.5C 149.5,494.5 120.5,494.5 91.5,494.5C 94.9907,493.163 98.1574,491.163 101,488.5C 103.764,482.775 105.598,476.775 106.5,470.5C 112.092,455.313 119.758,441.313 129.5,428.5 Z"/></g>
<g><path style="opacity:1" fill="#e6d9c7" d="M 196.5,434.5 C 240.833,434.5 285.167,434.5 329.5,434.5C 329.5,443.5 329.5,452.5 329.5,461.5C 316.833,461.5 304.167,461.5 291.5,461.5C 259.671,460.502 227.671,460.168 195.5,460.5C 195.464,451.815 195.797,443.149 196.5,434.5 Z"/></g>
<g><path style="opacity:1" fill="#937879" d="M 195.5,461.5 C 195.5,461.167 195.5,460.833 195.5,460.5C 227.671,460.168 259.671,460.502 291.5,461.5C 291.5,465.5 291.5,469.5 291.5,473.5C 291.5,480.5 291.5,487.5 291.5,494.5C 291.167,494.5 290.833,494.5 290.5,494.5C 290.5,483.5 290.5,472.5 290.5,461.5C 274.5,461.5 258.5,461.5 242.5,461.5C 226.833,461.5 211.167,461.5 195.5,461.5 Z"/></g>
<g><path style="opacity:1" fill="#3c3b4e" d="M 195.5,461.5 C 211.167,461.5 226.833,461.5 242.5,461.5C 242.5,472.167 242.5,482.833 242.5,493.5C 238.298,493.183 234.298,493.517 230.5,494.5C 218.833,494.5 207.167,494.5 195.5,494.5C 195.5,483.5 195.5,472.5 195.5,461.5 Z"/></g>
<g><path style="opacity:1" fill="#48485a" d="M 242.5,461.5 C 258.5,461.5 274.5,461.5 290.5,461.5C 290.5,472.5 290.5,483.5 290.5,494.5C 270.5,494.5 250.5,494.5 230.5,494.5C 234.298,493.517 238.298,493.183 242.5,493.5C 242.5,482.833 242.5,472.167 242.5,461.5 Z"/></g>
<g><path style="opacity:1" fill="#d04e83" d="M 418.5,432.5 C 423.174,452.886 426.174,473.552 427.5,494.5C 417.833,494.5 408.167,494.5 398.5,494.5C 393.463,491.956 389.963,487.956 388,482.5C 387.291,467.791 386.124,453.125 384.5,438.5C 395.623,436.05 406.957,434.05 418.5,432.5 Z"/></g>
<g><path style="opacity:1" fill="#de588f" d="M 50.5,451.5 C 69.1667,457.833 87.8333,464.167 106.5,470.5C 105.598,476.775 103.764,482.775 101,488.5C 98.1574,491.163 94.9907,493.163 91.5,494.5C 72.4883,494.833 53.4883,494.5 34.5,493.5C 37.0744,478.368 42.4077,464.368 50.5,451.5 Z"/></g>
<g><path style="opacity:1" fill="#e7a447" d="M 291.5,461.5 C 304.167,461.5 316.833,461.5 329.5,461.5C 329.5,465.5 329.5,469.5 329.5,473.5C 316.833,473.5 304.167,473.5 291.5,473.5C 291.5,469.5 291.5,465.5 291.5,461.5 Z"/></g>
<g><path style="opacity:1" fill="#e6943d" d="M 291.5,473.5 C 304.167,473.5 316.833,473.5 329.5,473.5C 329.5,480.5 329.5,487.5 329.5,494.5C 316.833,494.5 304.167,494.5 291.5,494.5C 291.5,487.5 291.5,480.5 291.5,473.5 Z"/></g>
</svg>
