<?xml version="1.0" encoding="UTF-8"?>
<!DOCTYPE svg PUBLIC "-//W3C//DTD SVG 1.1//EN" "http://www.w3.org/Graphics/SVG/1.1/DTD/svg11.dtd">
<svg xmlns="http://www.w3.org/2000/svg" version="1.1" width="512px" height="512px" style="shape-rendering:geometricPrecision; text-rendering:geometricPrecision; image-rendering:optimizeQuality; fill-rule:evenodd; clip-rule:evenodd" xmlns:xlink="http://www.w3.org/1999/xlink">
<g><path style="opacity:1" fill="#4c4c5d" d="M 318.5,34.5 C 283.416,52.9313 249.083,72.598 215.5,93.5C 207.015,77.2293 205.515,60.2293 211,42.5C 216.262,41.5396 221.428,40.2063 226.5,38.5C 231.804,27.6971 239.138,18.5305 248.5,11C 273.957,12.7634 297.291,20.5967 318.5,34.5 Z"/></g>
<g><path style="opacity:1" fill="#444456" d="M 318.5,34.5 C 327.017,39.0166 334.683,44.6832 341.5,51.5C 317.635,64.9292 293.968,78.5958 270.5,92.5C 265.836,88.669 261.67,84.3357 258,79.5C 249.898,88.9593 245.398,99.9593 244.5,112.5C 239.104,103.141 231.104,99.8073 220.5,102.5C 218.568,99.6339 216.901,96.6339 215.5,93.5C 249.083,72.598 283.416,52.9313 318.5,34.5 Z"/></g>
<g><path style="opacity:1" fill="#3c3c4f" d="M 341.5,51.5 C 350.498,58.6388 358.498,66.8055 365.5,76C 357.12,76.1798 348.787,76.3465 340.5,76.5C 346.076,90.6805 348.076,105.347 346.5,120.5C 340.154,119.573 333.82,118.573 327.5,117.5C 306.334,113.743 287.334,105.409 270.5,92.5C 293.968,78.5958 317.635,64.9292 341.5,51.5 Z"/></g>
<g><path style="opacity:1" fill="#e5ada3" d="M 270.5,92.5 C 287.334,105.409 306.334,113.743 327.5,117.5C 327.524,123.857 327.19,130.19 326.5,136.5C 323.933,135.525 321.267,134.858 318.5,134.5C 322.766,132.533 323.432,129.7 320.5,126C 317.366,125.21 314.366,125.543 311.5,127C 310.594,128.699 310.261,130.533 310.5,132.5C 306.532,130.831 302.532,130.498 298.5,131.5C 300.532,125.678 298.365,122.678 292,122.5C 289.648,122.414 288.148,123.414 287.5,125.5C 286.735,125.923 285.902,126.257 285,126.5C 261.91,120.769 238.743,115.436 215.5,110.5C 216.344,107.322 218.011,104.655 220.5,102.5C 231.104,99.8073 239.104,103.141 244.5,112.5C 245.398,99.9593 249.898,88.9593 258,79.5C 261.67,84.3357 265.836,88.669 270.5,92.5 Z"/></g>
<g><path style="opacity:1" fill="#e6b4ae" d="M 215.5,110.5 C 238.743,115.436 261.91,120.769 285,126.5C 285.902,126.257 286.735,125.923 287.5,125.5C 287.64,129.782 289.973,132.115 294.5,132.5C 295.849,132.154 297.183,131.821 298.5,131.5C 302.532,130.498 306.532,130.831 310.5,132.5C 312.82,134.226 315.487,134.893 318.5,134.5C 321.267,134.858 323.933,135.525 326.5,136.5C 325.938,139.546 325.271,142.546 324.5,145.5C 319.951,145.376 315.618,144.709 311.5,143.5C 312.873,143.657 314.207,143.49 315.5,143C 282.518,135.004 249.518,127.171 216.5,119.5C 215.597,116.609 215.264,113.609 215.5,110.5 Z"/></g>
<g><path style="opacity:1" fill="#e6635b" d="M 442.5,135.5 C 443.556,139.168 444.722,142.835 446,146.5C 446.83,152.196 446.663,157.863 445.5,163.5C 438.612,161.223 431.612,160.889 424.5,162.5C 420.424,156.019 416.59,149.353 413,142.5C 410.872,132.923 411.706,123.59 415.5,114.5C 416.723,113.386 418.056,113.219 419.5,114C 429.277,118.945 436.944,126.112 442.5,135.5 Z"/></g>
<g><path style="opacity:1" fill="#b52b2b" d="M 460.5,189.5 C 444.387,182.926 427.72,180.926 410.5,183.5C 410.437,173.281 415.103,166.281 424.5,162.5C 431.612,160.889 438.612,161.223 445.5,163.5C 446.663,157.863 446.83,152.196 446,146.5C 444.722,142.835 443.556,139.168 442.5,135.5C 449.578,128.542 457.745,123.208 467,119.5C 474.109,138.519 469.609,154.352 453.5,167C 459.33,173.329 461.664,180.829 460.5,189.5 Z"/></g>
<g><path style="opacity:1" fill="#d4726d" d="M 298.5,131.5 C 297.183,131.821 295.849,132.154 294.5,132.5C 289.973,132.115 287.64,129.782 287.5,125.5C 288.148,123.414 289.648,122.414 292,122.5C 298.365,122.678 300.532,125.678 298.5,131.5 Z"/></g>
<g><path style="opacity:1" fill="#d4726c" d="M 318.5,134.5 C 315.487,134.893 312.82,134.226 310.5,132.5C 310.261,130.533 310.594,128.699 311.5,127C 314.366,125.543 317.366,125.21 320.5,126C 323.432,129.7 322.766,132.533 318.5,134.5 Z"/></g>
<g><path style="opacity:1" fill="#e6bbb3" d="M 216.5,119.5 C 249.518,127.171 282.518,135.004 315.5,143C 314.207,143.49 312.873,143.657 311.5,143.5C 298.202,142.86 285.535,145.36 273.5,151C 269.5,151.667 265.5,151.667 261.5,151C 254.503,146.002 246.836,142.335 238.5,140C 236.5,139.333 234.5,139.333 232.5,140C 231.529,141.481 230.196,142.315 228.5,142.5C 222.667,135.835 218.667,128.169 216.5,119.5 Z"/></g>
<g><path style="opacity:1" fill="#636294" d="M 208.5,152.5 C 202.06,156.481 195.06,158.981 187.5,160C 174.849,159.552 162.183,159.052 149.5,158.5C 148.833,158.5 148.5,158.833 148.5,159.5C 146.801,159.34 145.134,159.506 143.5,160C 127.5,167.222 110.833,172.222 93.5,175C 83.8333,175.667 74.1667,175.667 64.5,175C 57.0493,174.389 50.0493,172.389 43.5,169C 55.5,157.667 67.5,146.333 79.5,135C 83.4432,132.196 87.7766,130.196 92.5,129C 115.741,131.293 139.075,132.627 162.5,133C 180.202,134.386 195.536,140.886 208.5,152.5 Z"/></g>
<g><path style="opacity:1" fill="#646494" d="M 311.5,143.5 C 315.618,144.709 319.951,145.376 324.5,145.5C 328.062,147.227 329.729,150.06 329.5,154C 329.308,158.485 328.308,162.652 326.5,166.5C 323.854,165.836 321.021,165.502 318,165.5C 286.158,167.117 254.324,168.784 222.5,170.5C 221.833,169.167 221.167,167.833 220.5,166.5C 221.746,158.097 224.412,150.097 228.5,142.5C 230.196,142.315 231.529,141.481 232.5,140C 234.5,139.333 236.5,139.333 238.5,140C 246.836,142.335 254.503,146.002 261.5,151C 265.5,151.667 269.5,151.667 273.5,151C 285.535,145.36 298.202,142.86 311.5,143.5 Z"/></g>
<g><path style="opacity:1" fill="#37374a" d="M 208.5,152.5 C 213.594,156.258 217.594,160.925 220.5,166.5C 221.167,167.833 221.833,169.167 222.5,170.5C 222.5,171.5 222.5,172.5 222.5,173.5C 214.891,171.482 208.224,173.149 202.5,178.5C 185.633,166.481 170.133,168.148 156,183.5C 149.946,192.942 144.946,202.942 141,213.5C 133.204,223.566 122.87,228.899 110,229.5C 100.735,229.215 91.9019,227.215 83.5,223.5C 91.9787,216.856 100.312,210.022 108.5,203C 117.501,193.813 125.668,183.979 133,173.5C 137.765,168.228 142.931,163.561 148.5,159.5C 149.167,159.5 149.5,159.167 149.5,158.5C 162.183,159.052 174.849,159.552 187.5,160C 195.06,158.981 202.06,156.481 208.5,152.5 Z"/></g>
<g><path style="opacity:1" fill="#5c5c8d" d="M 326.5,166.5 C 322.848,182.308 315.181,195.808 303.5,207C 299.69,207.587 296.023,207.087 292.5,205.5C 278.078,197.917 264.578,188.917 252,178.5C 250.378,178.954 249.212,179.954 248.5,181.5C 251.265,191.03 255.598,199.697 261.5,207.5C 252.447,207.634 243.78,208.634 235.5,210.5C 224.471,198.985 211.138,191.652 195.5,188.5C 197.088,184.59 199.421,181.257 202.5,178.5C 208.224,173.149 214.891,171.482 222.5,173.5C 222.5,172.5 222.5,171.5 222.5,170.5C 254.324,168.784 286.158,167.117 318,165.5C 321.021,165.502 323.854,165.836 326.5,166.5 Z"/></g>
<g><path style="opacity:1" fill="#38384c" d="M 292.5,205.5 C 290.262,210.811 291.595,214.978 296.5,218C 302.221,221.527 308.221,224.527 314.5,227C 319.918,231.754 321.585,237.588 319.5,244.5C 318.688,250.144 318.021,255.81 317.5,261.5C 315.003,274.437 310.503,286.77 304,298.5C 299.354,304.827 293.187,306.994 285.5,305C 253.904,289.045 224.904,269.378 198.5,246C 188.093,239.885 177.093,237.718 165.5,239.5C 163.167,239.5 160.833,239.5 158.5,239.5C 154.763,237.702 152.763,234.702 152.5,230.5C 153.12,222.93 156.12,216.597 161.5,211.5C 161.335,214.85 161.502,218.183 162,221.5C 162.465,222.931 163.299,224.097 164.5,225C 182.332,220.792 198.332,224.459 212.5,236C 216.76,240.768 221.427,244.934 226.5,248.5C 232.626,255.297 239.626,260.964 247.5,265.5C 258.998,275.004 271.831,282.337 286,287.5C 290.159,286.921 293.825,285.254 297,282.5C 300.354,276.131 302.854,269.464 304.5,262.5C 307.648,253.997 308.481,245.33 307,236.5C 305.649,234.981 304.149,233.648 302.5,232.5C 299.387,236.787 296.054,240.953 292.5,245C 290.681,245.783 289.348,245.283 288.5,243.5C 290.5,239.167 292.5,234.833 294.5,230.5C 281.507,225.478 270.507,217.811 261.5,207.5C 255.598,199.697 251.265,191.03 248.5,181.5C 249.212,179.954 250.378,178.954 252,178.5C 264.578,188.917 278.078,197.917 292.5,205.5 Z"/></g>
<g><path style="opacity:1" fill="#38384c" d="M 195.5,188.5 C 211.138,191.652 224.471,198.985 235.5,210.5C 242.151,219.124 248.318,228.124 254,237.5C 260.127,243.128 266.627,248.128 273.5,252.5C 273.392,253.442 273.059,254.275 272.5,255C 270.5,255.667 268.5,255.667 266.5,255C 261.118,252.772 256.118,249.938 251.5,246.5C 243.678,238.842 237.178,230.175 232,220.5C 222.163,208.332 209.663,200.332 194.5,196.5C 194.575,193.794 194.908,191.127 195.5,188.5 Z"/></g>
<g><path style="opacity:1" fill="#e56358" d="M 460.5,189.5 C 467.281,191.952 472.948,195.952 477.5,201.5C 445.167,205.5 412.833,209.5 380.5,213.5C 385.5,198.5 395.5,188.5 410.5,183.5C 427.72,180.926 444.387,182.926 460.5,189.5 Z"/></g>
<g><path style="opacity:1" fill="#e15c56" d="M 477.5,201.5 C 481.417,204.988 484.083,209.321 485.5,214.5C 485.389,215.117 485.056,215.617 484.5,216C 448.799,220.421 413.132,224.921 377.5,229.5C 377.732,224.01 378.732,218.676 380.5,213.5C 412.833,209.5 445.167,205.5 477.5,201.5 Z"/></g>
<g><path style="opacity:1" fill="#575787" d="M 194.5,196.5 C 209.663,200.332 222.163,208.332 232,220.5C 237.178,230.175 243.678,238.842 251.5,246.5C 243.384,248.043 235.05,248.71 226.5,248.5C 221.427,244.934 216.76,240.768 212.5,236C 198.332,224.459 182.332,220.792 164.5,225C 163.299,224.097 162.465,222.931 162,221.5C 161.502,218.183 161.335,214.85 161.5,211.5C 170.056,201.393 181.056,196.393 194.5,196.5 Z"/></g>
<g><path style="opacity:1" fill="#dc5d51" d="M 485.5,214.5 C 487.41,217.452 488.41,220.786 488.5,224.5C 453.822,228.501 419.155,232.668 384.5,237C 381.496,237.117 378.829,237.951 376.5,239.5C 376.253,236.061 376.586,232.728 377.5,229.5C 413.132,224.921 448.799,220.421 484.5,216C 485.056,215.617 485.389,215.117 485.5,214.5 Z"/></g>
<g><path style="opacity:1" fill="#d95751" d="M 488.5,224.5 C 489.492,231.648 489.825,238.981 489.5,246.5C 488.732,245.737 488.232,244.737 488,243.5C 451.48,248.712 414.98,253.045 378.5,256.5C 376.877,250.991 376.21,245.324 376.5,239.5C 378.829,237.951 381.496,237.117 384.5,237C 419.155,232.668 453.822,228.501 488.5,224.5 Z"/></g>
<g><path style="opacity:1" fill="#e6a69c" d="M 158.5,239.5 C 160.833,239.5 163.167,239.5 165.5,239.5C 177.188,241.108 186.021,247.108 192,257.5C 197.226,266.953 198.726,276.953 196.5,287.5C 179.815,275.808 163.149,264.141 146.5,252.5C 150.5,248.167 154.5,243.833 158.5,239.5 Z"/></g>
<g><path style="opacity:1" fill="#897670" d="M 165.5,239.5 C 177.093,237.718 188.093,239.885 198.5,246C 224.904,269.378 253.904,289.045 285.5,305C 293.187,306.994 299.354,304.827 304,298.5C 310.503,286.77 315.003,274.437 317.5,261.5C 317.015,281.438 311.848,300.104 302,317.5C 296.23,324.519 289.063,326.352 280.5,323C 257.532,313.521 235.865,302.021 215.5,288.5C 213.819,302.194 208.152,313.861 198.5,323.5C 194.247,316.663 190.247,309.663 186.5,302.5C 190.648,298.023 193.982,293.023 196.5,287.5C 198.726,276.953 197.226,266.953 192,257.5C 186.021,247.108 177.188,241.108 165.5,239.5 Z"/></g>
<g><path style="opacity:1" fill="#535383" d="M 261.5,207.5 C 270.507,217.811 281.507,225.478 294.5,230.5C 292.5,234.833 290.5,239.167 288.5,243.5C 289.348,245.283 290.681,245.783 292.5,245C 296.054,240.953 299.387,236.787 302.5,232.5C 304.149,233.648 305.649,234.981 307,236.5C 308.481,245.33 307.648,253.997 304.5,262.5C 285.417,263.004 266.417,264.004 247.5,265.5C 239.626,260.964 232.626,255.297 226.5,248.5C 235.05,248.71 243.384,248.043 251.5,246.5C 256.118,249.938 261.118,252.772 266.5,255C 268.5,255.667 270.5,255.667 272.5,255C 273.059,254.275 273.392,253.442 273.5,252.5C 266.627,248.128 260.127,243.128 254,237.5C 248.318,228.124 242.151,219.124 235.5,210.5C 243.78,208.634 252.447,207.634 261.5,207.5 Z"/></g>
<g><path style="opacity:1" fill="#d15049" d="M 489.5,246.5 C 483.092,283.547 461.092,300.714 423.5,298C 399.981,293.311 384.981,279.478 378.5,256.5C 414.98,253.045 451.48,248.712 488,243.5C 488.232,244.737 488.732,245.737 489.5,246.5 Z"/></g>
<g><path style="opacity:1" fill="#e6b1a6" d="M 146.5,252.5 C 163.149,264.141 179.815,275.808 196.5,287.5C 193.982,293.023 190.648,298.023 186.5,302.5C 179.833,306.5 173.167,310.5 166.5,314.5C 152.071,302.779 137.071,291.779 121.5,281.5C 128.741,270.923 137.074,261.257 146.5,252.5 Z"/></g>
<g><path style="opacity:1" fill="#50507c" d="M 304.5,262.5 C 302.854,269.464 300.354,276.131 297,282.5C 293.825,285.254 290.159,286.921 286,287.5C 271.831,282.337 258.998,275.004 247.5,265.5C 266.417,264.004 285.417,263.004 304.5,262.5 Z"/></g>
<g><path style="opacity:1" fill="#e7bab3" d="M 121.5,281.5 C 137.071,291.779 152.071,302.779 166.5,314.5C 161.767,317.89 156.767,320.89 151.5,323.5C 137.851,314.192 124.185,304.859 110.5,295.5C 113.695,290.431 117.362,285.765 121.5,281.5 Z"/></g>
<g><path style="opacity:1" fill="#e7c1b9" d="M 110.5,295.5 C 124.185,304.859 137.851,314.192 151.5,323.5C 146.552,327.648 141.218,331.314 135.5,334.5C 123.695,326.424 112.028,318.091 100.5,309.5C 103.478,304.531 106.811,299.865 110.5,295.5 Z"/></g>
<g><path style="opacity:1" fill="#d8e1e7" d="M 62.5,347.5 C 61.5416,347.047 60.7083,346.381 60,345.5C 48.4143,350.879 36.5809,355.546 24.5,359.5C 17.7225,334.613 14.8892,309.279 16,283.5C 32.9037,303.89 48.4037,325.223 62.5,347.5 Z"/></g>
<g><path style="opacity:1" fill="#b29d96" d="M 319.5,244.5 C 328.974,272.402 335.64,301.068 339.5,330.5C 294.191,331.873 248.857,332.873 203.5,333.5C 201.308,330.45 199.642,327.117 198.5,323.5C 208.152,313.861 213.819,302.194 215.5,288.5C 235.865,302.021 257.532,313.521 280.5,323C 289.063,326.352 296.23,324.519 302,317.5C 311.848,300.104 317.015,281.438 317.5,261.5C 318.021,255.81 318.688,250.144 319.5,244.5 Z"/></g>
<g><path style="opacity:1" fill="#e7ccc5" d="M 100.5,309.5 C 112.028,318.091 123.695,326.424 135.5,334.5C 132.851,336.14 130.184,337.807 127.5,339.5C 126.501,354.152 126.167,368.818 126.5,383.5C 115.423,377.128 103.756,372.128 91.5,368.5C 90.2976,355.858 89.7976,343.191 90,330.5C 91.9192,322.662 95.4192,315.662 100.5,309.5 Z"/></g>
<g><path style="opacity:1" fill="#af958e" d="M 339.5,330.5 C 340.234,331.708 340.567,333.041 340.5,334.5C 340.942,338.154 341.276,341.821 341.5,345.5C 298.654,346.222 255.987,347.555 213.5,349.5C 209.68,344.539 206.347,339.206 203.5,333.5C 248.857,332.873 294.191,331.873 339.5,330.5 Z"/></g>
<g><path style="opacity:1" fill="#d3706a" d="M 340.5,334.5 C 356.861,356.349 378.861,367.683 406.5,368.5C 404.463,381.416 401.797,394.083 398.5,406.5C 379.837,406.502 362.504,401.835 346.5,392.5C 345.577,388.936 345.244,385.269 345.5,381.5C 345.795,379.265 345.461,377.265 344.5,375.5C 344.817,371.298 344.483,367.298 343.5,363.5C 343.806,360.615 343.473,357.948 342.5,355.5C 342.658,352.098 342.324,348.764 341.5,345.5C 341.276,341.821 340.942,338.154 340.5,334.5 Z"/></g>
<g><path style="opacity:1" fill="#e1e7e7" d="M 62.5,347.5 C 71.1686,359.494 78.8352,372.16 85.5,385.5C 71.234,391.366 56.9007,397.032 42.5,402.5C 34.9573,388.888 28.9573,374.555 24.5,359.5C 36.5809,355.546 48.4143,350.879 60,345.5C 60.7083,346.381 61.5416,347.047 62.5,347.5 Z"/></g>
<g><path style="opacity:1" fill="#af9588" d="M 341.5,345.5 C 342.324,348.764 342.658,352.098 342.5,355.5C 301.499,356.267 260.499,356.767 219.5,357C 218.956,356.283 218.289,355.783 217.5,355.5C 215.674,353.853 214.34,351.853 213.5,349.5C 255.987,347.555 298.654,346.222 341.5,345.5 Z"/></g>
<g><path style="opacity:1" fill="#917469" d="M 469.5,404.5 C 464.297,389.235 458.297,374.235 451.5,359.5C 451.863,358.817 452.196,358.15 452.5,357.5C 458.627,353.439 465.294,350.439 472.5,348.5C 481.614,350.424 489.114,355.09 495,362.5C 490.864,379.099 482.364,393.099 469.5,404.5 Z"/></g>
<g><path style="opacity:1" fill="#a98e88" d="M 217.5,355.5 C 218.289,355.783 218.956,356.283 219.5,357C 260.499,356.767 301.499,356.267 342.5,355.5C 343.473,357.948 343.806,360.615 343.5,363.5C 303.664,365.339 263.664,366.672 223.5,367.5C 221.5,363.5 219.5,359.5 217.5,355.5 Z"/></g>
<g><path style="opacity:1" fill="#967c74" d="M 452.5,357.5 C 452.196,358.15 451.863,358.817 451.5,359.5C 458.297,374.235 464.297,389.235 469.5,404.5C 464.245,409.801 458.245,414.134 451.5,417.5C 444.893,400.014 437.893,382.68 430.5,365.5C 437.757,362.883 445.09,360.216 452.5,357.5 Z"/></g>
<g><path style="opacity:1" fill="#a88e82" d="M 343.5,363.5 C 344.483,367.298 344.817,371.298 344.5,375.5C 308.834,376.701 273,377.701 237,378.5C 233.085,378.467 229.251,378.133 225.5,377.5C 225.689,373.963 225.023,370.63 223.5,367.5C 263.664,366.672 303.664,365.339 343.5,363.5 Z"/></g>
<g><path style="opacity:1" fill="#9d867e" d="M 430.5,365.5 C 437.893,382.68 444.893,400.014 451.5,417.5C 433.559,427.482 414.225,431.816 393.5,430.5C 395.167,422.496 396.834,414.496 398.5,406.5C 401.797,394.083 404.463,381.416 406.5,368.5C 414.541,367.792 422.541,366.792 430.5,365.5 Z"/></g>
<g><path style="opacity:1" fill="#a88882" d="M 344.5,375.5 C 345.461,377.265 345.795,379.265 345.5,381.5C 338.772,383.243 331.772,384.076 324.5,384C 291.426,384.488 258.426,385.321 225.5,386.5C 225.5,383.5 225.5,380.5 225.5,377.5C 229.251,378.133 233.085,378.467 237,378.5C 273,377.701 308.834,376.701 344.5,375.5 Z"/></g>
<g><path style="opacity:1" fill="#e6e6e6" d="M 85.5,385.5 C 88.083,388.997 90.4164,392.664 92.5,396.5C 93.383,401.132 94.0496,405.798 94.5,410.5C 94.666,415.844 94.4994,421.177 94,426.5C 91.6148,429.379 89.4482,432.379 87.5,435.5C 83.3971,440.055 80.0638,445.055 77.5,450.5C 62.9015,436.636 51.2349,420.636 42.5,402.5C 56.9007,397.032 71.234,391.366 85.5,385.5 Z"/></g>
<g><path style="opacity:1" fill="#b6a199" d="M 91.5,368.5 C 103.756,372.128 115.423,377.128 126.5,383.5C 133.05,387.541 138.883,392.541 144,398.5C 143.819,403.588 142.985,408.588 141.5,413.5C 125.853,412.467 110.187,411.467 94.5,410.5C 94.0496,405.798 93.383,401.132 92.5,396.5C 92.1667,387.167 91.8333,377.833 91.5,368.5 Z"/></g>
<g><path style="opacity:1" fill="#a3897d" d="M 345.5,381.5 C 345.244,385.269 345.577,388.936 346.5,392.5C 346.5,393.833 346.5,395.167 346.5,396.5C 305.103,397.381 263.77,398.714 222.5,400.5C 222.994,395.697 223.994,391.03 225.5,386.5C 258.426,385.321 291.426,384.488 324.5,384C 331.772,384.076 338.772,383.243 345.5,381.5 Z"/></g>
<g><path style="opacity:1" fill="#a2837c" d="M 346.5,396.5 C 347.414,399.728 347.747,403.061 347.5,406.5C 344.417,405.875 341.251,405.542 338,405.5C 300.493,406.44 262.993,407.44 225.5,408.5C 223.667,408.415 222.334,407.748 221.5,406.5C 221.325,404.379 221.659,402.379 222.5,400.5C 263.77,398.714 305.103,397.381 346.5,396.5 Z"/></g>
<g><path style="opacity:1" fill="#9f8075" d="M 347.5,406.5 C 347.5,412.5 347.5,418.5 347.5,424.5C 325.167,424.5 302.833,424.5 280.5,424.5C 280.167,424.5 279.833,424.5 279.5,424.5C 267.011,423.505 254.344,423.171 241.5,423.5C 234.602,418.889 226.936,417.223 218.5,418.5C 219.008,414.264 220.008,410.264 221.5,406.5C 222.334,407.748 223.667,408.415 225.5,408.5C 262.993,407.44 300.493,406.44 338,405.5C 341.251,405.542 344.417,405.875 347.5,406.5 Z"/></g>
<g><path style="opacity:1" fill="#ac938a" d="M 94.5,410.5 C 110.187,411.467 125.853,412.467 141.5,413.5C 140.489,421.231 139.156,428.898 137.5,436.5C 120.888,437.187 104.221,436.854 87.5,435.5C 89.4482,432.379 91.6148,429.379 94,426.5C 94.4994,421.177 94.666,415.844 94.5,410.5 Z"/></g>
<g><path style="opacity:1" fill="#ba635c" d="M 218.5,418.5 C 226.936,417.223 234.602,418.889 241.5,423.5C 243.496,426.331 244.496,429.498 244.5,433C 241.776,448.178 239.109,463.345 236.5,478.5C 235.698,481.574 234.698,484.574 233.5,487.5C 227.862,494.147 220.862,498.48 212.5,500.5C 201.769,500.903 191.102,500.403 180.5,499C 172.252,495.408 167.919,489.075 167.5,480C 169.69,460.761 175.857,442.928 186,426.5C 189.453,422.855 193.62,420.355 198.5,419C 205.158,418.5 211.825,418.334 218.5,418.5 Z"/></g>
<g><path style="opacity:1" fill="#8e4444" d="M 241.5,423.5 C 254.344,423.171 267.011,423.505 279.5,424.5C 279.667,439.17 279.5,453.837 279,468.5C 276.773,473.06 273.273,476.226 268.5,478C 257.839,478.5 247.172,478.667 236.5,478.5C 239.109,463.345 241.776,448.178 244.5,433C 244.496,429.498 243.496,426.331 241.5,423.5 Z"/></g>
<g><path style="opacity:1" fill="#3c3c4f" d="M 280.5,424.5 C 302.833,424.5 325.167,424.5 347.5,424.5C 347.5,430.167 347.5,435.833 347.5,441.5C 346.691,442.469 345.691,443.302 344.5,444C 323.087,445.557 301.753,447.39 280.5,449.5C 280.5,441.167 280.5,432.833 280.5,424.5 Z"/></g>
<g><path style="opacity:1" fill="#a2847a" d="M 87.5,435.5 C 104.221,436.854 120.888,437.187 137.5,436.5C 137.627,447.272 132.96,454.939 123.5,459.5C 115.193,464.822 107.526,470.822 100.5,477.5C 93.6071,480.868 87.4405,479.868 82,474.5C 76.7808,467.132 75.2808,459.132 77.5,450.5C 80.0638,445.055 83.3971,440.055 87.5,435.5 Z"/></g>
<g><path style="opacity:1" fill="#444356" d="M 347.5,441.5 C 347.5,447.5 347.5,453.5 347.5,459.5C 325.283,461.375 303.117,463.375 281,465.5C 280.501,460.177 280.334,454.844 280.5,449.5C 301.753,447.39 323.087,445.557 344.5,444C 345.691,443.302 346.691,442.469 347.5,441.5 Z"/></g>
<g><path style="opacity:1" fill="#4b4a5c" d="M 279.5,424.5 C 279.833,424.5 280.167,424.5 280.5,424.5C 280.5,432.833 280.5,441.167 280.5,449.5C 280.334,454.844 280.501,460.177 281,465.5C 303.117,463.375 325.283,461.375 347.5,459.5C 347.5,465.833 347.5,472.167 347.5,478.5C 309.499,481.5 271.499,484.5 233.5,487.5C 234.698,484.574 235.698,481.574 236.5,478.5C 247.172,478.667 257.839,478.5 268.5,478C 273.273,476.226 276.773,473.06 279,468.5C 279.5,453.837 279.667,439.17 279.5,424.5 Z"/></g>
<g><path style="opacity:1" fill="#434355" d="M 123.5,459.5 C 127.373,467.25 130.706,475.25 133.5,483.5C 133.2,486.579 131.867,489.079 129.5,491C 126.478,493.188 123.144,494.688 119.5,495.5C 117.803,495.101 116.137,494.601 114.5,494C 109.469,488.747 104.803,483.247 100.5,477.5C 107.526,470.822 115.193,464.822 123.5,459.5 Z"/></g>
<g><path style="opacity:1" fill="#515163" d="M 347.5,478.5 C 347.5,485.833 347.5,493.167 347.5,500.5C 302.5,500.5 257.5,500.5 212.5,500.5C 220.862,498.48 227.862,494.147 233.5,487.5C 271.499,484.5 309.499,481.5 347.5,478.5 Z"/></g>
</svg>
