<?xml version="1.0" encoding="UTF-8"?>
<!DOCTYPE svg PUBLIC "-//W3C//DTD SVG 1.1//EN" "http://www.w3.org/Graphics/SVG/1.1/DTD/svg11.dtd">
<svg xmlns="http://www.w3.org/2000/svg" version="1.1" width="512px" height="512px" style="shape-rendering:geometricPrecision; text-rendering:geometricPrecision; image-rendering:optimizeQuality; fill-rule:evenodd; clip-rule:evenodd" xmlns:xlink="http://www.w3.org/1999/xlink">
<g><path style="opacity:1" fill="#000000" d="M 247.5,10.5 C 285.122,13.4832 317.789,27.6499 345.5,53C 354.68,60.836 362.347,69.836 368.5,80C 368.01,81.982 367.01,83.6487 365.5,85C 359.448,85.7903 353.448,85.6236 347.5,84.5C 347.167,85 346.833,85.5 346.5,86C 350.006,98.9548 351.173,112.121 350,125.5C 348.649,127.01 346.982,128.01 345,128.5C 340.818,127.866 336.651,127.199 332.5,126.5C 332.167,127 331.833,127.5 331.5,128C 330.702,132.973 330.036,137.973 329.5,143C 331.373,147.102 332.706,151.435 333.5,156C 330.085,178.832 320.085,198.165 303.5,214C 302.167,214.333 300.833,214.667 299.5,215C 305.221,218.527 311.221,221.527 317.5,224C 322.788,229.762 324.954,236.595 324,244.5C 332.578,273.477 339.578,302.811 345,332.5C 369.731,359.653 399.565,367.153 434.5,355C 443.406,351.547 452.073,347.547 460.5,343C 467.429,340.82 474.095,341.487 480.5,345C 485.333,349.167 490.167,353.333 495,357.5C 495.887,362.072 495.22,366.405 493,370.5C 472.03,413.414 437.53,433.914 389.5,432C 386.558,431.06 385.225,429.06 385.5,426C 386.456,420.213 387.79,414.546 389.5,409C 376.006,407.771 363.173,404.271 351,398.5C 351.544,430.823 351.544,463.156 351,495.5C 349.291,500.391 346.125,501.558 341.5,499C 340.874,498.25 340.374,497.416 340,496.5C 339.5,485.172 339.333,473.838 339.5,462.5C 321.167,462.5 302.833,462.5 284.5,462.5C 282.735,471.432 277.401,476.932 268.5,479C 259.5,479.333 250.5,479.667 241.5,480C 237.021,489.146 230.021,495.48 220.5,499C 168.409,508.237 152.576,488.403 173,439.5C 176.543,430.235 181.709,422.068 188.5,415C 196.915,410.417 205.915,408.584 215.5,409.5C 217.138,399.809 218.971,390.143 221,380.5C 221.761,374.54 220.761,368.873 218,363.5C 208.66,350.161 200.326,336.161 193,321.5C 191.422,316.818 192.922,313.818 197.5,312.5C 199.697,312.848 201.53,313.848 203,315.5C 212.094,332.028 221.428,348.362 231,364.5C 232.496,371.099 232.829,377.766 232,384.5C 230.394,392.755 228.56,400.922 226.5,409C 232.623,409.279 238.29,410.946 243.5,414C 275.498,414.5 307.498,414.667 339.5,414.5C 338.278,366.116 331.778,318.449 320,271.5C 316.535,283.242 311.535,294.242 305,304.5C 298.307,310.048 290.807,311.548 282.5,309C 254.155,294.636 227.988,277.136 204,256.5C 209.548,272.988 206.881,287.988 196,301.5C 176.088,314.874 155.922,327.874 135.5,340.5C 134.334,353.154 134.167,365.82 135,378.5C 140.926,382.421 146.259,387.088 151,392.5C 149.638,409.988 146.971,427.321 143,444.5C 140.596,449.565 137.43,454.065 133.5,458C 136.849,464.522 139.183,471.355 140.5,478.5C 139.598,487.575 134.598,493.075 125.5,495C 120.819,495.665 116.486,494.665 112.5,492C 109.167,488 105.833,484 102.5,480C 89.7877,481.889 81.2877,476.723 77,464.5C 74.9007,458.926 74.234,453.259 75,447.5C 39.4579,408.936 19.7912,363.269 16,310.5C 15.3333,300.167 15.3333,289.833 16,279.5C 18.7065,277.114 21.5398,276.948 24.5,279C 48.3373,308.176 69.8373,339.01 89,371.5C 89.2398,359.147 88.7398,346.813 87.5,334.5C 87.8275,328.197 89.3275,322.197 92,316.5C 109.883,289.276 130.716,264.442 154.5,242C 149.85,237.426 148.35,231.926 150,225.5C 156.887,206.468 170.387,195.635 190.5,193C 191.487,188.872 193.154,185.039 195.5,181.5C 186.528,176.046 177.528,176.212 168.5,182C 164.964,185.201 161.797,188.701 159,192.5C 155.333,200.5 151.667,208.5 148,216.5C 136.371,232.16 120.871,237.993 101.5,234C 95.5997,233.108 89.933,231.442 84.5,229C 80.5,225.667 80.5,222.333 84.5,219C 101.793,206.707 116.793,192.04 129.5,175C 118.379,177.943 107.045,180.277 95.5,182C 78.3045,184.082 61.6378,182.082 45.5,176C 42.4548,173.552 41.9548,170.719 44,167.5C 56.1667,156 68.3333,144.5 80.5,133C 87.3086,128.508 94.8086,126.008 103,125.5C 122.018,128.798 141.184,130.298 160.5,130C 180.533,130.609 198.033,137.442 213,150.5C 214.69,155.392 213.023,158.392 208,159.5C 201.102,154.95 193.936,150.784 186.5,147C 180.057,144.445 173.39,142.778 166.5,142C 143.206,141.201 119.873,139.868 96.5,138C 92.3847,139.223 88.718,141.223 85.5,144C 77.47,152.364 69.1367,160.364 60.5,168C 67.5578,170.414 74.8911,171.581 82.5,171.5C 102.862,170.743 122.195,165.909 140.5,157C 164.666,151.055 186.166,156.222 205,172.5C 208.751,170.018 212.918,168.684 217.5,168.5C 217.426,160.462 219.093,152.795 222.5,145.5C 217.682,138.862 214.182,131.529 212,123.5C 210.804,117.016 211.637,110.85 214.5,105C 202.629,85.515 200.462,65.015 208,43.5C 212.947,41.3605 218.114,39.6938 223.5,38.5C 229.181,27.1114 237.181,17.7781 247.5,10.5 Z M 250.5,22.5 C 289.643,26.904 322.31,43.7373 348.5,73C 343.5,73.3333 338.5,73.6667 333.5,74C 331.718,76.2431 331.218,78.7431 332,81.5C 337.327,92.6329 339.494,104.3 338.5,116.5C 315.999,113.835 295.332,106.335 276.5,94C 270.646,89.6464 265.646,84.4797 261.5,78.5C 258.589,77.0165 255.922,77.3498 253.5,79.5C 247.873,86.4197 243.539,94.0864 240.5,102.5C 238.833,101.667 237.167,100.833 235.5,100C 231.579,99.797 227.745,99.297 224,98.5C 215.284,84.0958 212.95,68.7625 217,52.5C 221.499,51.3877 225.999,50.221 230.5,49C 235.909,39.108 242.576,30.2747 250.5,22.5 Z M 257.5,92.5 C 274.51,109.175 294.844,119.842 318.5,124.5C 318.833,124.833 319.167,125.167 319.5,125.5C 311.821,126.63 309.821,130.463 313.5,137C 315.134,137.494 316.801,137.66 318.5,137.5C 318.5,138.833 318.5,140.167 318.5,141.5C 300.51,138.915 283.343,141.582 267,149.5C 260.768,145.632 254.268,142.132 247.5,139C 241.992,137.149 236.325,136.149 230.5,136C 225.187,129.395 222.687,121.895 223,113.5C 227.258,109.607 231.591,109.607 236,113.5C 237.973,116.617 239.807,119.784 241.5,123C 243.899,123.711 246.232,123.544 248.5,122.5C 250.511,115.302 252.344,107.968 254,100.5C 255.454,97.9289 256.62,95.2622 257.5,92.5 Z M 235.5,147.5 C 243.583,148.875 250.583,152.375 256.5,158C 259.613,159.779 262.946,160.945 266.5,161.5C 273.7,159.567 280.7,157.067 287.5,154C 298.782,150.563 309.949,150.729 321,154.5C 319.105,172.958 311.772,188.958 299,202.5C 282.36,197.439 268.526,188.273 257.5,175C 248.673,174.139 246.506,177.639 251,185.5C 259.992,196.143 270.992,204.143 284,209.5C 284.206,212.623 284.873,215.623 286,218.5C 288.188,220.688 290.355,222.855 292.5,225C 291.026,228.114 289.693,231.281 288.5,234.5C 289.818,239.078 292.818,240.578 297.5,239C 299.797,236.226 301.964,233.392 304,230.5C 307.155,231.41 309.822,233.076 312,235.5C 312.527,256.394 307.86,276.061 298,294.5C 294.95,298.13 291.117,299.297 286.5,298C 256.077,282.464 228.077,263.464 202.5,241C 190.821,234.064 178.321,231.897 165,234.5C 162.717,234.051 161.217,232.717 160.5,230.5C 168.677,208.244 184.011,200.744 206.5,208C 214.499,211.587 221.332,216.754 227,223.5C 235.167,239.667 247.333,251.833 263.5,260C 270.967,261.666 277.633,260.166 283.5,255.5C 285.704,248.072 283.037,245.238 275.5,247C 273.983,248.508 272.149,249.342 270,249.5C 265.844,248.339 262.011,246.505 258.5,244C 248.815,234.989 240.648,224.822 234,213.5C 224.683,204.764 214.183,197.931 202.5,193C 205.401,184.065 211.401,180.065 220.5,181C 225.105,185.715 229.105,190.882 232.5,196.5C 241.4,198.412 243.9,195.079 240,186.5C 236.715,181.546 233.048,176.88 229,172.5C 227.94,163.288 230.107,154.955 235.5,147.5 Z M 156.5,165.5 C 161.435,165.197 166.101,166.03 170.5,168C 163.162,171.338 156.995,176.171 152,182.5C 146.411,192.677 141.078,203.01 136,213.5C 125.925,223.296 114.092,226.129 100.5,222C 116.79,209.379 130.624,194.546 142,177.5C 146.732,173.258 151.565,169.258 156.5,165.5 Z M 169.5,244.5 C 179.399,243.558 186.565,247.558 191,256.5C 198.443,270.805 196.61,283.638 185.5,295C 164.745,307.793 144.245,320.959 124,334.5C 122.873,346.419 122.039,358.419 121.5,370.5C 115.12,366.985 108.453,364.151 101.5,362C 99.7171,350.607 99.2171,339.107 100,327.5C 118.577,296.081 141.744,268.414 169.5,244.5 Z M 26.5,300.5 C 50.9628,331.387 72.4628,364.387 91,399.5C 91.6017,406.517 91.935,413.517 92,420.5C 88,425.833 84,431.167 80,436.5C 46.6116,397.539 28.7783,352.206 26.5,300.5 Z M 346.5,351.5 C 360.979,363.442 377.645,370.108 396.5,371.5C 395.43,380.444 393.43,389.111 390.5,397.5C 376.181,396.212 362.681,392.212 350,385.5C 348.743,374.169 347.576,362.836 346.5,351.5 Z M 464.5,353.5 C 472.629,353.27 478.962,356.603 483.5,363.5C 466.992,399.937 438.659,419.27 398.5,421.5C 401.705,404.806 405.039,388.14 408.5,371.5C 428.719,370.093 447.385,364.093 464.5,353.5 Z M 101.5,374.5 C 116.404,379.281 129.404,387.114 140.5,398C 137.751,411.078 135.251,424.245 133,437.5C 132.275,439.949 131.275,442.283 130,444.5C 121.167,451.333 112.333,458.167 103.5,465C 98.6456,469.731 94.1456,469.564 90,464.5C 85.3333,457.167 85.3333,449.833 90,442.5C 94.7206,436.779 99.054,430.779 103,424.5C 102.967,407.828 102.467,391.161 101.5,374.5 Z M 200.5,421.5 C 211.838,421.333 223.172,421.5 234.5,422C 237.178,423.841 238.845,426.341 239.5,429.5C 235.807,444.325 232.973,459.325 231,474.5C 228.406,481.428 223.573,485.928 216.5,488C 205.827,489.969 195.161,489.969 184.5,488C 179.664,486.181 176.831,482.681 176,477.5C 177.266,459.037 182.932,442.037 193,426.5C 195.479,424.686 197.979,423.019 200.5,421.5 Z M 250.5,426.5 C 258.167,426.5 265.833,426.5 273.5,426.5C 273.667,438.171 273.5,449.838 273,461.5C 271.878,463.624 270.378,465.457 268.5,467C 260.21,468.704 251.876,468.871 243.5,467.5C 246.158,453.885 248.491,440.218 250.5,426.5 Z M 285.5,426.5 C 293.5,426.5 301.5,426.5 309.5,426.5C 309.5,434.5 309.5,442.5 309.5,450.5C 301.5,450.5 293.5,450.5 285.5,450.5C 285.5,442.5 285.5,434.5 285.5,426.5 Z M 320.5,426.5 C 326.833,426.5 333.167,426.5 339.5,426.5C 339.5,434.5 339.5,442.5 339.5,450.5C 333.167,450.5 326.833,450.5 320.5,450.5C 320.5,442.5 320.5,434.5 320.5,426.5 Z M 122.5,464.5 C 125.179,468.687 127.512,473.187 129.5,478C 127.778,482.026 124.778,483.693 120.5,483C 117.734,479.478 114.734,476.145 111.5,473C 115.597,470.63 119.264,467.797 122.5,464.5 Z"/></g>
<g><path style="opacity:1" fill="#000000" d="M 411.5,110.5 C 418.959,112.452 425.626,115.952 431.5,121C 434.4,123.9 437.233,126.733 440,129.5C 446.399,124.12 453.566,119.953 461.5,117C 463.92,116.313 466.087,116.813 468,118.5C 474.277,137.7 470.777,154.867 457.5,170C 460.016,175.565 461.516,181.399 462,187.5C 478.929,196.784 488.262,211.117 490,230.5C 492.715,257.893 482.882,279.393 460.5,295C 426.921,310.14 399.088,302.974 377,273.5C 365.648,249.403 365.981,225.403 378,201.5C 383.721,192.384 391.554,185.717 401.5,181.5C 403.405,173.591 407.405,166.924 413.5,161.5C 403.854,150.113 401.021,137.113 405,122.5C 405.783,117.563 407.95,113.563 411.5,110.5 Z M 416.5,124.5 C 429.377,132.206 436.21,143.539 437,158.5C 432.879,157.861 428.713,157.195 424.5,156.5C 415.243,147.472 412.576,136.806 416.5,124.5 Z M 458.5,130.5 C 461.222,142.255 458.056,152.255 449,160.5C 448.731,154.158 447.565,147.991 445.5,142C 446.776,139.719 448.443,137.719 450.5,136C 453.407,134.391 456.073,132.558 458.5,130.5 Z M 426.5,168.5 C 432.974,168.119 438.974,169.619 444.5,173C 447.723,175.586 449.057,178.752 448.5,182.5C 437.402,178.795 426.069,177.295 414.5,178C 417.618,173.621 421.618,170.454 426.5,168.5 Z M 414.5,189.5 C 436.445,187.757 455.278,194.424 471,209.5C 473.804,213.443 475.804,217.777 477,222.5C 482.591,245.253 477.091,264.753 460.5,281C 444.988,292.512 428.322,294.512 410.5,287C 380.815,270.175 372.315,245.675 385,213.5C 390.866,200.453 400.699,192.453 414.5,189.5 Z"/></g>
<g><path style="opacity:1" fill="#000000" d="M 286.5,121.5 C 291.287,120.97 295.62,122.137 299.5,125C 302.783,130.267 301.449,133.767 295.5,135.5C 292.505,134.336 289.505,133.17 286.5,132C 283.88,128.502 283.88,125.002 286.5,121.5 Z"/></g>
</svg>
