<!DOCTYPE svg PUBLIC "-//W3C//DTD SVG 1.1//EN" "http://www.w3.org/Graphics/SVG/1.1/DTD/svg11.dtd">
<!-- Uploaded to: SVG Repo, www.svgrepo.com, Transformed by: SVG Repo Mixer Tools -->
<svg fill="#ffffff" width="800px" height="800px" viewBox="0 0 32 32" version="1.1" xmlns="http://www.w3.org/2000/svg">
<g id="SVGRepo_bgCarrier" stroke-width="0"/>
<g id="SVGRepo_tracerCarrier" stroke-linecap="round" stroke-linejoin="round"/>
<g id="SVGRepo_iconCarrier"> <title>spider-face</title> <path d="M21.914 13.282c0 1.036-0.84 1.876-1.876 1.876s-1.876-0.84-1.876-1.876c0-1.036 0.84-1.876 1.876-1.876s1.876 0.84 1.876 1.876zM23.283 16.118c0 0.518-0.42 0.938-0.938 0.938s-0.938-0.42-0.938-0.938c0-0.518 0.42-0.938 0.938-0.938s0.938 0.42 0.938 0.938zM6.187 20.267c-0.742 0-1.592 0.313-2.491 1.079-0.623 1.101-0.97 2.324-0.97 3.613 0 2.309 1.115 4.409 2.933 5.968-0.007-0.186-0.010-0.374-0.010-0.562 0-2.925 1.272-5.524 3.235-7.13 0.001-1.515-1.098-2.968-2.697-2.968zM29.326 24.958c0-1.289-0.347-2.512-0.97-3.613-0.898-0.766-1.748-1.079-2.491-1.079-1.599 0-2.698 1.453-2.698 2.967 1.963 1.607 3.235 4.205 3.235 7.13 0 0.188-0.004 0.375-0.010 0.562 1.819-1.558 2.934-3.657 2.934-5.967v0zM1 1.074v14.791c0 1.28 1.208 2.523 3.010 3.592 0.719-0.379 1.454-0.597 2.176-0.597 1.814 0 3.34 1.269 3.88 3.012 0.118 0.031 0.235 0.053 0.352 0.083 0.864-0.62 1.641-0.763 2.168-0.763 1.097 0 2.065 0.604 2.633 1.518 0.268 0.013 0.544 0.034 0.798 0.034 0.261 0 0.532-0.011 0.809-0.027 0.568-0.918 1.537-1.525 2.637-1.525 0.505 0 1.24 0.136 2.060 0.692 0.166-0.046 0.332-0.097 0.499-0.145 0.576-1.674 2.073-2.878 3.841-2.878 0.642 0 1.294 0.171 1.937 0.472 1.907-1.107 3.2-2.337 3.2-3.459v-14.8h-30zM5.22 13.657c-1.295 0-2.345-1.050-2.345-2.345s1.050-2.345 2.345-2.345 2.345 1.049 2.345 2.345c0 1.295-1.050 2.345-2.345 2.345zM11.316 17.955c-2.071 0-3.751-1.68-3.751-3.751s1.68-3.751 3.751-3.751 3.751 1.679 3.751 3.751c0.001 2.071-1.679 3.751-3.751 3.751zM20.695 17.955c-2.071 0-3.751-1.68-3.751-3.751s1.68-3.751 3.751-3.751 3.751 1.679 3.751 3.751c0.001 2.071-1.679 3.751-3.751 3.751zM26.791 13.657c-1.295 0-2.345-1.050-2.345-2.345s1.050-2.345 2.345-2.345c1.295 0 2.345 1.049 2.345 2.345 0 1.295-1.050 2.345-2.345 2.345zM5.841 10.736c0 0.569-0.462 1.031-1.031 1.031s-1.031-0.462-1.031-1.031c0-0.569 0.462-1.031 1.031-1.031s1.031 0.462 1.031 1.031zM6.662 12.509c0 0.227-0.184 0.411-0.411 0.411s-0.411-0.184-0.411-0.411c0-0.227 0.184-0.411 0.411-0.411s0.411 0.184 0.411 0.411zM27.412 10.736c0 0.569-0.462 1.031-1.031 1.031s-1.031-0.462-1.031-1.031c0-0.569 0.462-1.031 1.031-1.031s1.031 0.462 1.031 1.031zM28.233 12.509c0 0.227-0.184 0.411-0.411 0.411s-0.411-0.184-0.411-0.411c0-0.227 0.184-0.411 0.411-0.411s0.411 0.184 0.411 0.411zM12.588 22.507c-0.509 0-1.093 0.22-1.709 0.759-0.427 0.775-0.666 1.636-0.666 2.543 0 1.626 0.765 3.104 2.013 4.201-0.005-0.131-0.007-0.263-0.007-0.395 0-2.059 0.873-3.889 2.22-5.020 0-1.064-0.754-2.088-1.851-2.088zM21.839 25.81c0-0.907-0.238-1.768-0.666-2.543-0.616-0.539-1.199-0.76-1.709-0.759-1.097 0-1.851 1.023-1.851 2.089 1.347 1.131 2.22 2.96 2.22 5.020 0 0.132-0.002 0.264-0.007 0.395 1.248-1.098 2.013-2.576 2.013-4.202v0zM12.536 13.282c0 1.036-0.84 1.876-1.876 1.876s-1.876-0.84-1.876-1.876c0-1.036 0.84-1.876 1.876-1.876s1.876 0.84 1.876 1.876zM13.905 16.118c0 0.518-0.42 0.938-0.938 0.938s-0.938-0.42-0.938-0.938c0-0.518 0.42-0.938 0.938-0.938s0.938 0.42 0.938 0.938z"/> </g>
</svg>