<?xml version="1.0" encoding="UTF-8"?>
<!DOCTYPE svg PUBLIC "-//W3C//DTD SVG 1.1//EN" "http://www.w3.org/Graphics/SVG/1.1/DTD/svg11.dtd">
<svg xmlns="http://www.w3.org/2000/svg" version="1.1" width="512px" height="512px" style="shape-rendering:geometricPrecision; text-rendering:geometricPrecision; image-rendering:optimizeQuality; fill-rule:evenodd; clip-rule:evenodd" xmlns:xlink="http://www.w3.org/1999/xlink">
<g><path style="opacity:1" fill="#393e51" d="M 385.5,306.5 C 383.486,303.806 381.986,300.806 381,297.5C 380.654,291.143 380.154,284.81 379.5,278.5C 375.983,280.085 372.316,281.418 368.5,282.5C 366.486,282.563 364.819,281.897 363.5,280.5C 363.34,278.801 363.506,277.134 364,275.5C 367.577,272.627 371.411,270.127 375.5,268C 376.894,267.044 377.561,265.711 377.5,264C 375.944,251.718 369.777,242.552 359,236.5C 358.694,229.463 361.861,227.629 368.5,231C 382.554,241.108 389.387,254.941 389,272.5C 389.612,280.171 390.278,287.838 391,295.5C 392.679,299.77 395.845,302.27 400.5,303C 417.68,304.841 432.513,311.675 445,323.5C 448.229,327.733 451.062,332.233 453.5,337C 455.367,337.711 456.867,337.211 458,335.5C 461.553,322.793 457.72,313.293 446.5,307C 438.413,304.583 430.413,301.916 422.5,299C 417,296.167 412.833,292 410,286.5C 408.738,269.175 407.738,251.842 407,234.5C 408.393,230.714 410.059,227.048 412,223.5C 413.789,221.771 415.956,221.104 418.5,221.5C 420.478,222.317 421.478,223.817 421.5,226C 419.25,230.827 417.583,235.827 416.5,241C 418.127,254.435 418.961,267.935 419,281.5C 419.333,281.833 419.667,282.167 420,282.5C 446.188,261.127 460.522,233.461 463,199.5C 463.839,190.78 463.505,182.113 462,173.5C 460.392,169.944 458.559,166.611 456.5,163.5C 455.836,161.513 454.669,159.846 453,158.5C 452.322,156.402 452.489,154.402 453.5,152.5C 458.98,150.176 462.813,151.843 465,157.5C 467.688,129.594 465.022,102.26 457,75.5C 454.182,68.5134 449.682,62.8467 443.5,58.5C 441.287,73.5462 432.62,82.0462 417.5,84C 405.881,86.4322 395.881,83.5989 387.5,75.5C 385.489,72.131 384.489,68.4643 384.5,64.5C 386.073,55.0216 390.906,47.6882 399,42.5C 402.36,39.1247 404.026,35.1247 404,30.5C 402.192,28.6041 400.025,28.1041 397.5,29C 388.576,38.7715 378.576,47.1048 367.5,54C 368.756,55.8449 369.756,57.8449 370.5,60C 370.022,61.3026 369.355,62.4693 368.5,63.5C 366.283,64.3686 363.95,64.702 361.5,64.5C 358.769,61.3657 357.436,57.699 357.5,53.5C 335.494,50.0325 324.494,59.1991 324.5,81C 328.723,82.4725 333.057,83.4725 337.5,84C 348.665,84.2597 359.831,84.0931 371,83.5C 386.005,82.3764 399.839,85.8764 412.5,94C 419.047,95.7772 425.714,96.7772 432.5,97C 435.167,100 435.167,103 432.5,106C 421.152,107.047 410.485,104.88 400.5,99.5C 387.477,109.507 372.811,116.007 356.5,119C 349.174,119.5 341.841,119.666 334.5,119.5C 334.22,123.713 335.887,126.88 339.5,129C 345.833,129.667 352.167,129.667 358.5,129C 382.814,123.608 406.814,124.608 430.5,132C 432.016,133.897 432.683,136.064 432.5,138.5C 431.026,140.137 429.192,141.137 427,141.5C 421.605,139.644 416.105,138.311 410.5,137.5C 410.351,138.552 410.517,139.552 411,140.5C 421.493,148.147 427.326,158.481 428.5,171.5C 429.492,174.779 429.659,178.112 429,181.5C 428.184,182.823 427.017,183.489 425.5,183.5C 423.278,183.822 421.444,183.155 420,181.5C 419.769,171.233 416.769,161.9 411,153.5C 409.846,152.257 408.512,151.257 407,150.5C 402.107,161.059 394.274,168.559 383.5,173C 371.923,175.15 360.59,178.15 349.5,182C 333.389,189.555 317.722,197.888 302.5,207C 275.523,217.213 247.69,220.38 219,216.5C 208.837,216.571 199.004,218.404 189.5,222C 175.898,228.937 161.898,234.937 147.5,240C 133.338,243.266 119.005,244.266 104.5,243C 95.8461,241.67 87.8461,238.67 80.5,234C 73.7791,227.402 66.9457,220.902 60,214.5C 44.2398,195.835 37.2398,174.168 39,149.5C 24.3665,169.998 19.6998,192.664 25,217.5C 31.0649,241.845 44.5649,260.678 65.5,274C 89.6879,281.149 114.355,283.482 139.5,281C 141.141,282.129 142.141,283.629 142.5,285.5C 142.703,287.39 142.037,288.89 140.5,290C 138.5,290.333 136.5,290.667 134.5,291C 120.473,291.554 106.473,291.554 92.5,291C 112.241,300.103 132.908,306.103 154.5,309C 159.5,310.667 164.5,312.333 169.5,314C 180.708,320.104 192.041,325.937 203.5,331.5C 203.833,331.333 204.167,331.167 204.5,331C 193.344,318.703 188.01,304.203 188.5,287.5C 185.15,287.665 181.817,287.498 178.5,287C 177.177,286.184 176.511,285.017 176.5,283.5C 176.178,281.278 176.845,279.444 178.5,278C 182.211,277.825 185.878,277.325 189.5,276.5C 191.581,268.418 194.914,260.918 199.5,254C 205.493,252.332 207.993,254.498 207,260.5C 196.126,279.011 195.792,297.678 206,316.5C 217.5,330.335 227.833,345.002 237,360.5C 238.337,366.813 237.004,372.48 233,377.5C 221.202,385.154 210.702,394.32 201.5,405C 196.698,407.807 192.531,411.307 189,415.5C 188.554,430.54 187.888,445.54 187,460.5C 187.667,461.833 188.333,463.167 189,464.5C 195.522,470.023 201.688,475.857 207.5,482C 217.517,482.832 227.517,482.666 237.5,481.5C 238.289,477.898 236.955,475.065 233.5,473C 228.064,469.887 222.398,467.221 216.5,465C 209.084,457.778 204.918,448.945 204,438.5C 203.163,434.705 203.496,431.039 205,427.5C 216.377,415.727 230.211,408.56 246.5,406C 261.943,397.963 271.777,385.463 276,368.5C 281.175,337.546 278.842,307.212 269,277.5C 265.529,267.885 260.529,259.218 254,251.5C 251.431,245.744 253.264,242.911 259.5,243C 271.498,255.827 279.164,270.994 282.5,288.5C 302.838,289.439 322.838,287.439 342.5,282.5C 345.549,282.352 347.549,283.686 348.5,286.5C 348.552,289.952 346.885,292.119 343.5,293C 324.417,297.408 305.084,299.242 285.5,298.5C 288.016,312.705 289.016,327.039 288.5,341.5C 300.97,339.177 312.97,335.344 324.5,330C 338.558,320.969 353.225,312.969 368.5,306C 371.652,305.576 373.986,306.743 375.5,309.5C 375.739,311.467 375.406,313.301 374.5,315C 362.77,320.279 351.604,326.445 341,333.5C 339.846,343.189 338.513,352.855 337,362.5C 334.08,373.503 328.247,382.669 319.5,390C 310.671,396.584 301.338,402.418 291.5,407.5C 284.488,414.547 282.321,422.88 285,432.5C 287.089,441.86 291.589,449.693 298.5,456C 308.85,458.031 316.683,463.531 322,472.5C 325.209,481.877 322.376,488.711 313.5,493C 302.5,493.667 291.5,493.667 280.5,493C 276.76,491.71 273.593,489.543 271,486.5C 268.725,479.674 266.058,473.007 263,466.5C 257.667,459.167 252.333,451.833 247,444.5C 246.137,441.731 245.637,438.898 245.5,436C 246.55,429.869 247.217,423.702 247.5,417.5C 234.861,419.236 224.028,424.57 215,433.5C 214.803,440.587 216.47,447.253 220,453.5C 221.41,454.787 222.91,455.954 224.5,457C 235.185,459.084 243.019,464.918 248,474.5C 250.138,483.053 247.305,489.219 239.5,493C 227.442,493.915 215.442,493.581 203.5,492C 195.041,485.542 187.208,478.376 180,470.5C 177.098,466.127 175.598,461.294 175.5,456C 177.618,444.714 178.285,433.381 177.5,422C 177.024,416.764 178.19,411.931 181,407.5C 186.209,402.622 191.709,398.122 197.5,394C 201.466,389.033 205.799,384.366 210.5,380C 215.934,376.532 221.101,372.699 226,368.5C 226.667,366.5 226.667,364.5 226,362.5C 223.081,357.66 219.914,352.994 216.5,348.5C 198.707,341.937 181.707,333.77 165.5,324C 146.28,318.622 126.947,313.622 107.5,309C 81.1501,299.418 57.9834,284.918 38,265.5C 8.52981,229.231 4.52981,190.231 26,148.5C 48.0815,114.718 79.2482,100.885 119.5,107C 122.113,110.204 122.113,113.37 119.5,116.5C 95.3287,124.839 78.4954,140.839 69,164.5C 62.8452,185.706 67.0118,204.539 81.5,221C 92.1759,229.337 104.343,233.504 118,233.5C 127.617,232.814 137.117,231.314 146.5,229C 159.617,223.608 172.617,217.942 185.5,212C 197.341,208.032 209.508,205.865 222,205.5C 236.49,206.528 250.99,206.694 265.5,206C 275.07,204.608 284.403,202.274 293.5,199C 309.294,190.936 324.96,182.603 340.5,174C 352.144,169.422 364.144,166.089 376.5,164C 389.438,159.23 397.105,150.063 399.5,136.5C 382.433,136.925 365.433,138.258 348.5,140.5C 330.456,140.954 322.122,132.12 323.5,114C 323.667,110.833 323.833,107.667 324,104.5C 327.286,100.515 330.619,100.515 334,104.5C 334.49,105.793 334.657,107.127 334.5,108.5C 337.127,109.092 339.794,109.425 342.5,109.5C 342.81,103.697 345.81,101.53 351.5,103C 352.655,105.215 354.155,107.048 356,108.5C 360.4,107.855 364.567,106.521 368.5,104.5C 367.102,96.732 370.102,94.232 377.5,97C 378.191,98.0674 378.691,99.2341 379,100.5C 381.748,98.5421 384.582,96.7088 387.5,95C 379.177,93.3716 370.844,93.2049 362.5,94.5C 362.759,98.4134 360.926,100.747 357,101.5C 353.074,100.747 351.241,98.4134 351.5,94.5C 348.5,94.5 345.5,94.5 342.5,94.5C 342.582,98.2512 340.749,100.251 337,100.5C 332.788,100.088 330.954,97.7542 331.5,93.5C 328.882,93.2208 326.382,92.5541 324,91.5C 323.147,97.302 319.981,98.9687 314.5,96.5C 309.218,77.799 313.551,61.6324 327.5,48C 330.382,46.3921 333.382,45.0587 336.5,44C 345.5,43.6667 354.5,43.3333 363.5,43C 373.39,37.1095 382.057,29.7762 389.5,21C 403.177,13.9379 411.844,17.7712 415.5,32.5C 415.331,34.8395 414.664,37.0061 413.5,39C 434.314,38.8244 450.814,46.9911 463,63.5C 471.08,82.3042 475.414,101.971 476,122.5C 476.945,153.27 475.612,183.936 472,214.5C 469.916,225.17 466.749,235.503 462.5,245.5C 490.467,252.799 501.633,270.466 496,298.5C 490.612,303.53 484.446,304.697 477.5,302C 472.833,296 468.167,290 463.5,284C 457.292,279.264 450.292,276.931 442.5,277C 438.292,281.376 433.959,285.543 429.5,289.5C 430.665,290.584 431.998,291.417 433.5,292C 464.443,296.591 475.276,313.758 466,343.5C 452.98,351.475 443.98,348.142 439,333.5C 426.659,320.582 411.493,313.415 393.5,312C 390.244,310.884 387.578,309.051 385.5,306.5 Z"/></g>
<g><path style="opacity:1" fill="#c54a57" d="M 384.5,64.5 C 379.985,66.2794 375.318,66.7794 370.5,66C 369.244,65.5831 368.577,64.7498 368.5,63.5C 369.355,62.4693 370.022,61.3026 370.5,60C 369.756,57.8449 368.756,55.8449 367.5,54C 378.576,47.1048 388.576,38.7715 397.5,29C 400.025,28.1041 402.192,28.6041 404,30.5C 404.026,35.1247 402.36,39.1247 399,42.5C 390.906,47.6882 386.073,55.0216 384.5,64.5 Z"/></g>
<g><path style="opacity:1" fill="#c59494" d="M 361.5,64.5 C 367.153,74.6471 375.82,78.3138 387.5,75.5C 395.881,83.5989 405.881,86.4322 417.5,84C 432.62,82.0462 441.287,73.5462 443.5,58.5C 449.682,62.8467 454.182,68.5134 457,75.5C 465.022,102.26 467.688,129.594 465,157.5C 462.813,151.843 458.98,150.176 453.5,152.5C 447.327,146.581 440.327,141.914 432.5,138.5C 432.683,136.064 432.016,133.897 430.5,132C 406.814,124.608 382.814,123.608 358.5,129C 352.167,129.667 345.833,129.667 339.5,129C 335.887,126.88 334.22,123.713 334.5,119.5C 341.841,119.666 349.174,119.5 356.5,119C 372.811,116.007 387.477,109.507 400.5,99.5C 410.485,104.88 421.152,107.047 432.5,106C 435.167,103 435.167,100 432.5,97C 425.714,96.7772 419.047,95.7772 412.5,94C 399.839,85.8764 386.005,82.3764 371,83.5C 359.831,84.0931 348.665,84.2597 337.5,84C 333.057,83.4725 328.723,82.4725 324.5,81C 324.494,59.1991 335.494,50.0325 357.5,53.5C 357.436,57.699 358.769,61.3657 361.5,64.5 Z"/></g>
<g><path style="opacity:1" fill="#d55563" d="M 411.5,57.5 C 418.493,55.9959 421.327,58.6625 420,65.5C 417.083,67.3933 413.916,67.8933 410.5,67C 407.753,63.5527 408.087,60.386 411.5,57.5 Z"/></g>
<g><path style="opacity:1" fill="#83575d" d="M 368.5,63.5 C 368.577,64.7498 369.244,65.5831 370.5,66C 375.318,66.7794 379.985,66.2794 384.5,64.5C 384.489,68.4643 385.489,72.131 387.5,75.5C 375.82,78.3138 367.153,74.6471 361.5,64.5C 363.95,64.702 366.283,64.3686 368.5,63.5 Z"/></g>
<g><path style="opacity:1" fill="#84585f" d="M 337.5,65.5 C 344.997,64.8038 346.997,67.6372 343.5,74C 336.188,74.8714 334.188,72.0381 337.5,65.5 Z"/></g>
<g><path style="opacity:1" fill="#f8f0d7" d="M 432.5,138.5 C 440.327,141.914 447.327,146.581 453.5,152.5C 452.489,154.402 452.322,156.402 453,158.5C 454.669,159.846 455.836,161.513 456.5,163.5C 445.465,160.589 436.132,163.256 428.5,171.5C 427.326,158.481 421.493,148.147 411,140.5C 410.517,139.552 410.351,138.552 410.5,137.5C 416.105,138.311 421.605,139.644 427,141.5C 429.192,141.137 431.026,140.137 432.5,138.5 Z"/></g>
<g><path style="opacity:1" fill="#c69595" d="M 425.5,183.5 C 424.564,187.735 424.231,192.069 424.5,196.5C 418.905,197.56 417.071,200.893 419,206.5C 419.72,208.056 420.887,209.056 422.5,209.5C 421.759,213.723 420.426,217.723 418.5,221.5C 415.956,221.104 413.789,221.771 412,223.5C 410.059,227.048 408.393,230.714 407,234.5C 407.738,251.842 408.738,269.175 410,286.5C 412.833,292 417,296.167 422.5,299C 430.413,301.916 438.413,304.583 446.5,307C 457.72,313.293 461.553,322.793 458,335.5C 456.867,337.211 455.367,337.711 453.5,337C 451.062,332.233 448.229,327.733 445,323.5C 432.513,311.675 417.68,304.841 400.5,303C 395.845,302.27 392.679,299.77 391,295.5C 390.278,287.838 389.612,280.171 389,272.5C 389.387,254.941 382.554,241.108 368.5,231C 361.861,227.629 358.694,229.463 359,236.5C 369.777,242.552 375.944,251.718 377.5,264C 377.561,265.711 376.894,267.044 375.5,268C 371.411,270.127 367.577,272.627 364,275.5C 363.506,277.134 363.34,278.801 363.5,280.5C 358.664,282.89 353.664,284.89 348.5,286.5C 347.549,283.686 345.549,282.352 342.5,282.5C 322.838,287.439 302.838,289.439 282.5,288.5C 279.164,270.994 271.498,255.827 259.5,243C 253.264,242.911 251.431,245.744 254,251.5C 260.529,259.218 265.529,267.885 269,277.5C 278.842,307.212 281.175,337.546 276,368.5C 271.777,385.463 261.943,397.963 246.5,406C 230.211,408.56 216.377,415.727 205,427.5C 203.496,431.039 203.163,434.705 204,438.5C 204.918,448.945 209.084,457.778 216.5,465C 222.398,467.221 228.064,469.887 233.5,473C 236.955,475.065 238.289,477.898 237.5,481.5C 227.517,482.666 217.517,482.832 207.5,482C 201.688,475.857 195.522,470.023 189,464.5C 188.333,463.167 187.667,461.833 187,460.5C 187.888,445.54 188.554,430.54 189,415.5C 192.531,411.307 196.698,407.807 201.5,405C 210.702,394.32 221.202,385.154 233,377.5C 237.004,372.48 238.337,366.813 237,360.5C 227.833,345.002 217.5,330.335 206,316.5C 195.792,297.678 196.126,279.011 207,260.5C 207.993,254.498 205.493,252.332 199.5,254C 194.914,260.918 191.581,268.418 189.5,276.5C 185.878,277.325 182.211,277.825 178.5,278C 176.845,279.444 176.178,281.278 176.5,283.5C 172.6,282.57 168.6,282.237 164.5,282.5C 163.722,279.39 161.722,277.724 158.5,277.5C 154.35,277.984 152.35,280.317 152.5,284.5C 149.193,285.051 145.86,285.384 142.5,285.5C 142.141,283.629 141.141,282.129 139.5,281C 114.355,283.482 89.6879,281.149 65.5,274C 44.5649,260.678 31.0649,241.845 25,217.5C 19.6998,192.664 24.3665,169.998 39,149.5C 37.2398,174.168 44.2398,195.835 60,214.5C 66.9457,220.902 73.7791,227.402 80.5,234C 87.8461,238.67 95.8461,241.67 104.5,243C 119.005,244.266 133.338,243.266 147.5,240C 161.898,234.937 175.898,228.937 189.5,222C 199.004,218.404 208.837,216.571 219,216.5C 247.69,220.38 275.523,217.213 302.5,207C 317.722,197.888 333.389,189.555 349.5,182C 360.59,178.15 371.923,175.15 383.5,173C 394.274,168.559 402.107,161.059 407,150.5C 408.512,151.257 409.846,152.257 411,153.5C 416.769,161.9 419.769,171.233 420,181.5C 421.444,183.155 423.278,183.822 425.5,183.5 Z"/></g>
<g><path style="opacity:1" fill="#f1ae8e" d="M 456.5,163.5 C 458.559,166.611 460.392,169.944 462,173.5C 463.505,182.113 463.839,190.78 463,199.5C 460.522,233.461 446.188,261.127 420,282.5C 419.667,282.167 419.333,281.833 419,281.5C 418.961,267.935 418.127,254.435 416.5,241C 417.583,235.827 419.25,230.827 421.5,226C 421.478,223.817 420.478,222.317 418.5,221.5C 420.426,217.723 421.759,213.723 422.5,209.5C 424.903,209.607 426.736,208.607 428,206.5C 428.667,203.833 428.667,201.167 428,198.5C 427.184,197.177 426.017,196.511 424.5,196.5C 424.231,192.069 424.564,187.735 425.5,183.5C 427.017,183.489 428.184,182.823 429,181.5C 429.659,178.112 429.492,174.779 428.5,171.5C 436.132,163.256 445.465,160.589 456.5,163.5 Z"/></g>
<g><path style="opacity:1" fill="#3d4053" d="M 424.5,196.5 C 426.017,196.511 427.184,197.177 428,198.5C 428.667,201.167 428.667,203.833 428,206.5C 426.736,208.607 424.903,209.607 422.5,209.5C 420.887,209.056 419.72,208.056 419,206.5C 417.071,200.893 418.905,197.56 424.5,196.5 Z"/></g>
<g><path style="opacity:1" fill="#434455" d="M 164.5,282.5 C 163.438,287.369 160.438,289.202 155.5,288C 154.29,286.961 153.29,285.794 152.5,284.5C 152.35,280.317 154.35,277.984 158.5,277.5C 161.722,277.724 163.722,279.39 164.5,282.5 Z"/></g>
<g><path style="opacity:1" fill="#f1ae8e" d="M 385.5,306.5 C 382.167,307.5 378.833,308.5 375.5,309.5C 373.986,306.743 371.652,305.576 368.5,306C 353.225,312.969 338.558,320.969 324.5,330C 312.97,335.344 300.97,339.177 288.5,341.5C 289.016,327.039 288.016,312.705 285.5,298.5C 305.084,299.242 324.417,297.408 343.5,293C 346.885,292.119 348.552,289.952 348.5,286.5C 353.664,284.89 358.664,282.89 363.5,280.5C 364.819,281.897 366.486,282.563 368.5,282.5C 372.316,281.418 375.983,280.085 379.5,278.5C 380.154,284.81 380.654,291.143 381,297.5C 381.986,300.806 383.486,303.806 385.5,306.5 Z"/></g>
<g><path style="opacity:1" fill="#eeac8d" d="M 164.5,282.5 C 168.6,282.237 172.6,282.57 176.5,283.5C 176.511,285.017 177.177,286.184 178.5,287C 181.817,287.498 185.15,287.665 188.5,287.5C 188.01,304.203 193.344,318.703 204.5,331C 204.167,331.167 203.833,331.333 203.5,331.5C 192.041,325.937 180.708,320.104 169.5,314C 164.5,312.333 159.5,310.667 154.5,309C 132.908,306.103 112.241,300.103 92.5,291C 106.473,291.554 120.473,291.554 134.5,291C 136.5,290.667 138.5,290.333 140.5,290C 142.037,288.89 142.703,287.39 142.5,285.5C 145.86,285.384 149.193,285.051 152.5,284.5C 153.29,285.794 154.29,286.961 155.5,288C 160.438,289.202 163.438,287.369 164.5,282.5 Z"/></g>
</svg>
