<?xml version="1.0" encoding="UTF-8"?>
<!DOCTYPE svg PUBLIC "-//W3C//DTD SVG 1.1//EN" "http://www.w3.org/Graphics/SVG/1.1/DTD/svg11.dtd">
<svg xmlns="http://www.w3.org/2000/svg" version="1.1" width="512px" height="512px" style="shape-rendering:geometricPrecision; text-rendering:geometricPrecision; image-rendering:optimizeQuality; fill-rule:evenodd; clip-rule:evenodd" xmlns:xlink="http://www.w3.org/1999/xlink">
<g><path style="opacity:1" fill="#383e51" d="M 420.5,30.5 C 430.279,30.0376 438.946,32.8709 446.5,39C 468.46,57.403 482.96,80.5697 490,108.5C 507.639,177.331 496.973,241.331 458,300.5C 459.795,328.133 450.795,351.467 431,370.5C 425.625,391.714 427.292,412.38 436,432.5C 440.281,439.115 444.947,445.448 450,451.5C 452.812,460.065 450.312,466.565 442.5,471C 435.144,471.169 427.811,471.669 420.5,472.5C 418.04,476.797 414.374,479.297 409.5,480C 399.833,480.667 390.167,480.667 380.5,480C 374.159,478.325 369.659,474.492 367,468.5C 368.784,446.829 363.451,427.162 351,409.5C 339.48,414.088 327.48,416.421 315,416.5C 308.852,415.783 302.686,415.45 296.5,415.5C 295.6,429.655 300.433,441.321 311,450.5C 314.761,459.785 312.261,466.619 303.5,471C 293.758,471.92 284.092,471.587 274.5,470C 272.04,468.542 269.873,466.709 268,464.5C 265.335,457.196 262.668,449.862 260,442.5C 258,439.833 256,437.167 254,434.5C 252.255,437.797 251.088,441.297 250.5,445C 252.18,449.532 254.013,454.032 256,458.5C 258.373,469.599 254.206,476.766 243.5,480C 208.477,485.305 195.643,470.805 205,436.5C 206.839,429.333 208.839,422.333 211,415.5C 172.779,430.097 133.279,439.097 92.5,442.5C 49.6279,441.136 23.4612,419.47 14,377.5C 9.3857,341.947 18.719,310.613 42,283.5C 62.8945,261.471 87.0611,243.971 114.5,231C 118.109,209.755 129.109,193.755 147.5,183C 154.49,180.995 157.324,183.495 156,190.5C 148.966,194.872 142.632,200.205 137,206.5C 133.112,211.609 130.279,217.275 128.5,223.5C 129,223.833 129.5,224.167 130,224.5C 148.466,216.481 167.632,213.981 187.5,217C 203.667,221.167 213.833,231.333 218,247.5C 220.259,269.822 211.093,285.322 190.5,294C 167.29,302.829 147.123,298.329 130,280.5C 125.577,272.923 127.743,269.423 136.5,270C 150.116,287.213 166.782,291.213 186.5,282C 196.369,274.4 198.869,264.9 194,253.5C 191.736,250.567 188.902,248.4 185.5,247C 171.351,245.636 157.684,247.636 144.5,253C 107.979,268.52 80.8128,294.02 63,329.5C 49.0243,374.08 65.1909,393.913 111.5,389C 123.989,385.922 135.656,380.922 146.5,374C 155.013,367.909 163.346,361.576 171.5,355C 188.167,338 204.833,321 221.5,304C 269.226,264.664 324.226,243.33 386.5,240C 400.762,233.741 411.929,223.908 420,210.5C 432.221,186.864 436.221,161.864 432,135.5C 430.541,123.994 427.374,112.994 422.5,102.5C 421.833,102.167 421.167,101.833 420.5,101.5C 414.018,103.996 407.351,105.663 400.5,106.5C 386.536,105.694 378.869,98.3607 377.5,84.5C 377.608,80.6735 378.442,77.0068 380,73.5C 383.632,68.8663 387.632,64.533 392,60.5C 394.571,43.7652 404.071,33.7652 420.5,30.5 Z"/></g>
<g><path style="opacity:1" fill="#8888a0" d="M 487.5,178.5 C 481.848,190.671 474.348,201.671 465,211.5C 464.506,213.134 464.34,214.801 464.5,216.5C 464.167,216.5 463.833,216.5 463.5,216.5C 463.5,215.5 463.5,214.5 463.5,213.5C 463.747,210.061 463.414,206.728 462.5,203.5C 468.156,203.133 469.989,200.133 468,194.5C 466.89,192.963 465.39,192.297 463.5,192.5C 463.665,189.482 463.498,186.482 463,183.5C 462.302,182.309 461.469,181.309 460.5,180.5C 465.562,180.595 467.562,178.095 466.5,173C 465.435,165.445 464.102,157.945 462.5,150.5C 466.967,150.867 471.3,150.367 475.5,149C 477.013,146.084 476.68,143.418 474.5,141C 470.167,140.667 465.833,140.333 461.5,140C 460.376,139.751 459.376,139.251 458.5,138.5C 453.226,123.945 445.893,110.612 436.5,98.5C 441.518,97.7859 446.518,97.1192 451.5,96.5C 454.113,93.6286 454.113,90.7953 451.5,88C 435.288,86.6516 419.621,88.9849 404.5,95C 392.667,96.5 387.5,91.3333 389,79.5C 391.667,75.5 395,72.1667 399,69.5C 402.576,64.7752 404.576,59.4418 405,53.5C 414.962,39.7529 426.795,37.9196 440.5,48C 457.142,61.8045 468.808,78.9711 475.5,99.5C 470.94,100.298 466.606,101.798 462.5,104C 461.409,106.064 461.242,108.231 462,110.5C 462.956,111.894 464.289,112.561 466,112.5C 470.262,111.468 474.429,110.135 478.5,108.5C 485.926,131.238 488.926,154.571 487.5,178.5 Z"/></g>
<g><path style="opacity:1" fill="#52587e" d="M 421.5,53.5 C 427.758,54.4774 429.091,57.6441 425.5,63C 418.6,66.0976 415.766,63.931 417,56.5C 418.409,55.2189 419.909,54.2189 421.5,53.5 Z"/></g>
<g><path style="opacity:1" fill="#f5eed6" d="M 460.5,180.5 C 461.469,181.309 462.302,182.309 463,183.5C 463.498,186.482 463.665,189.482 463.5,192.5C 460.15,192.651 458.484,194.485 458.5,198C 458.529,200.925 459.862,202.758 462.5,203.5C 463.414,206.728 463.747,210.061 463.5,213.5C 454.863,220.158 446.197,226.825 437.5,233.5C 444.787,198.04 446.287,162.374 442,126.5C 449.947,142.621 454.947,159.621 457,177.5C 457.422,179.426 458.589,180.426 460.5,180.5 Z"/></g>
<g><path style="opacity:1" fill="#50567c" d="M 487.5,178.5 C 486.546,210.317 478.713,240.317 464,268.5C 465.494,254.382 466.994,240.215 468.5,226C 468.333,223.5 468.167,221 468,218.5C 467.184,217.177 466.017,216.511 464.5,216.5C 464.34,214.801 464.506,213.134 465,211.5C 474.348,201.671 481.848,190.671 487.5,178.5 Z"/></g>
<g><path style="opacity:1" fill="#3d4255" d="M 463.5,192.5 C 465.39,192.297 466.89,192.963 468,194.5C 469.989,200.133 468.156,203.133 462.5,203.5C 459.862,202.758 458.529,200.925 458.5,198C 458.484,194.485 460.15,192.651 463.5,192.5 Z"/></g>
<g><path style="opacity:1" fill="#8888a1" d="M 427.5,253.5 C 427.301,256.941 427.801,260.274 429,263.5C 429.498,265.544 430.665,266.878 432.5,267.5C 430.685,269.468 430.185,271.802 431,274.5C 437.024,282.545 442.024,291.212 446,300.5C 446.499,306.157 446.666,311.824 446.5,317.5C 440.779,321.027 434.779,324.027 428.5,326.5C 425.087,324.728 422.254,325.395 420,328.5C 419.798,333.989 418.798,339.322 417,344.5C 412.886,356.062 408.219,367.395 403,378.5C 395.669,397.478 395.669,416.478 403,435.5C 402.737,446.455 405.57,456.455 411.5,465.5C 411.471,467.029 410.804,468.196 409.5,469C 400.167,469.667 390.833,469.667 381.5,469C 379.333,468.167 377.833,466.667 377,464.5C 376.726,454.139 376.059,443.805 375,433.5C 370.801,422.769 365.801,412.436 360,402.5C 358.595,398.928 358.262,395.261 359,391.5C 359.388,390.572 360.055,389.905 361,389.5C 365.552,390.883 370.052,390.717 374.5,389C 377.833,386.333 381.167,383.667 384.5,381C 388.481,378.449 392.814,376.949 397.5,376.5C 400.113,373.629 400.113,370.795 397.5,368C 391.774,366.896 386.44,367.896 381.5,371C 377.217,373.615 373.217,376.615 369.5,380C 367.559,380.743 365.726,380.576 364,379.5C 363.333,375.833 363.333,372.167 364,368.5C 372.787,352.136 374.453,335.136 369,317.5C 367.114,313.56 364.614,310.06 361.5,307C 357.771,306.217 355.437,307.717 354.5,311.5C 364.644,327.493 365.144,343.826 356,360.5C 336.936,377.645 315.436,381.811 291.5,373C 287.072,369.908 284.239,365.741 283,360.5C 282.333,354.167 282.333,347.833 283,341.5C 284.271,338.567 285.938,335.901 288,333.5C 288.718,329.541 287.051,327.208 283,326.5C 277.002,329.535 273.668,334.535 273,341.5C 272.57,351.67 272.737,361.837 273.5,372C 274.375,381.636 272.209,390.469 267,398.5C 255.465,407.912 247.132,419.579 242,433.5C 240.67,439.452 240.337,445.452 241,451.5C 243.37,455.577 245.203,459.91 246.5,464.5C 246.471,466.029 245.804,467.196 244.5,468C 236.27,469.604 227.937,469.937 219.5,469C 216.572,467.74 214.739,465.573 214,462.5C 212.808,444.459 216.475,427.459 225,411.5C 226.158,407.203 227.158,402.869 228,398.5C 228.957,386.736 228.623,375.07 227,363.5C 223.626,360.595 220.626,360.928 218,364.5C 217.568,369.846 217.734,375.18 218.5,380.5C 215.46,381.68 212.794,383.347 210.5,385.5C 209.173,382.343 206.84,381.176 203.5,382C 187.95,391.553 172.95,401.886 158.5,413C 129.852,430.552 99.1856,435.552 66.5,428C 41.016,416.914 26.8494,397.414 24,369.5C 21.589,350.29 25.089,332.29 34.5,315.5C 39.2366,322.63 43.7366,329.964 48,337.5C 42.4825,383.315 62.6492,404.148 108.5,400C 126.823,396.835 143.49,389.835 158.5,379C 177.217,365.953 193.717,350.453 208,332.5C 255.193,282.412 313.36,255.578 382.5,252C 398.87,248.402 412.036,239.902 422,226.5C 424.667,222.5 427.333,218.5 430,214.5C 428.973,225.933 426.473,237.1 422.5,248C 422.616,251.281 424.283,253.115 427.5,253.5 Z"/></g>
<g><path style="opacity:1" fill="#f0ad8e" d="M 463.5,213.5 C 463.5,214.5 463.5,215.5 463.5,216.5C 461.629,216.859 460.129,217.859 459,219.5C 457.941,240.458 454.941,261.125 450,281.5C 449.333,282.833 448.667,282.833 448,281.5C 445.112,276.224 441.612,271.391 437.5,267C 435.735,266.36 434.068,266.527 432.5,267.5C 430.665,266.878 429.498,265.544 429,263.5C 427.801,260.274 427.301,256.941 427.5,253.5C 429.09,253.372 430.423,252.705 431.5,251.5C 433.711,245.535 435.711,239.535 437.5,233.5C 446.197,226.825 454.863,220.158 463.5,213.5 Z"/></g>
<g><path style="opacity:1" fill="#3a3f53" d="M 403.5,277.5 C 405.989,277.298 408.323,277.798 410.5,279C 418.504,285.489 423.837,293.655 426.5,303.5C 425.888,307.481 423.554,308.981 419.5,308C 416.387,302.279 412.887,296.779 409,291.5C 406.961,289.126 404.628,287.126 402,285.5C 401.109,282.502 401.609,279.836 403.5,277.5 Z"/></g>
<g><path style="opacity:1" fill="#50567b" d="M 446.5,317.5 C 444.375,336.816 435.875,352.816 421,365.5C 424.433,356.516 427.1,347.183 429,337.5C 429.755,333.745 429.589,330.078 428.5,326.5C 434.779,324.027 440.779,321.027 446.5,317.5 Z"/></g>
<g><path style="opacity:1" fill="#e9aa8d" d="M 339.5,388.5 C 341.084,385.574 343.084,382.908 345.5,380.5C 348.021,378.981 350.521,377.314 353,375.5C 353.667,377.833 353.667,380.167 353,382.5C 348.92,387.387 347.42,393.053 348.5,399.5C 345.574,400.461 342.574,401.127 339.5,401.5C 339.5,397.167 339.5,392.833 339.5,388.5 Z"/></g>
<g><path style="opacity:1" fill="#eeac8e" d="M 291.5,384.5 C 291.989,389.832 294.656,393.499 299.5,395.5C 298.597,398.391 298.264,401.391 298.5,404.5C 291.319,403.953 284.319,402.62 277.5,400.5C 280.752,393.821 282.919,386.821 284,379.5C 286.099,381.797 288.599,383.464 291.5,384.5 Z"/></g>
<g><path style="opacity:1" fill="#eeac8e" d="M 218.5,380.5 C 218.869,387.812 218.203,394.979 216.5,402C 201.535,408.433 186.202,413.433 170.5,417C 182.618,407.552 195.284,398.885 208.5,391C 210.155,389.556 210.822,387.722 210.5,385.5C 212.794,383.347 215.46,381.68 218.5,380.5 Z"/></g>
<g><path style="opacity:1" fill="#f3ead2" d="M 345.5,380.5 C 343.084,382.908 341.084,385.574 339.5,388.5C 338.665,383.633 340.665,380.966 345.5,380.5 Z"/></g>
<g><path style="opacity:1" fill="#f6efd7" d="M 291.5,384.5 C 297.164,387.113 303.164,388.447 309.5,388.5C 316.163,387.738 322.83,387.072 329.5,386.5C 329.5,389.833 329.5,393.167 329.5,396.5C 322.52,397.165 315.52,397.498 308.5,397.5C 306.243,393.185 303.243,392.518 299.5,395.5C 294.656,393.499 291.989,389.832 291.5,384.5 Z"/></g>
<g><path style="opacity:1" fill="#ebac8e" d="M 329.5,396.5 C 329.5,399.167 329.5,401.833 329.5,404.5C 322.535,405.341 315.535,405.674 308.5,405.5C 308.5,402.833 308.5,400.167 308.5,397.5C 315.52,397.498 322.52,397.165 329.5,396.5 Z"/></g>
</svg>
