<?xml version="1.0" encoding="UTF-8"?>
<!DOCTYPE svg PUBLIC "-//W3C//DTD SVG 1.1//EN" "http://www.w3.org/Graphics/SVG/1.1/DTD/svg11.dtd">
<svg xmlns="http://www.w3.org/2000/svg" version="1.1" width="512px" height="512px" style="shape-rendering:geometricPrecision; text-rendering:geometricPrecision; image-rendering:optimizeQuality; fill-rule:evenodd; clip-rule:evenodd" xmlns:xlink="http://www.w3.org/1999/xlink">
<g><path style="opacity:1" fill="#393e51" d="M 339.5,348.5 C 340.167,348.5 340.5,348.167 340.5,347.5C 344.017,343.425 345.017,338.759 343.5,333.5C 338.354,329.522 333.354,325.355 328.5,321C 321.332,322.694 313.999,323.861 306.5,324.5C 296.845,323.534 287.178,322.701 277.5,322C 275.944,321.28 274.944,320.113 274.5,318.5C 274.329,316.007 275.329,314.174 277.5,313C 286.9,312.269 296.233,312.769 305.5,314.5C 310.693,314.395 315.693,313.395 320.5,311.5C 299.253,283.839 293.253,253.173 302.5,219.5C 306.101,211.066 311.101,203.566 317.5,197C 324.931,195.766 327.098,198.6 324,205.5C 313.762,214.97 308.762,226.637 309,240.5C 313.412,231.855 319.579,224.688 327.5,219C 333.493,217.332 335.993,219.498 335,225.5C 324.556,233.044 317.556,243.044 314,255.5C 313.333,257.5 313.333,259.5 314,261.5C 319.627,269.461 326.294,276.461 334,282.5C 338.458,275.708 343.958,269.875 350.5,265C 355.84,264.011 358.34,266.178 358,271.5C 352.28,276.718 347.113,282.384 342.5,288.5C 344.167,289.833 345.833,291.167 347.5,292.5C 349.984,290.517 352.317,288.35 354.5,286C 360.493,284.332 362.993,286.498 362,292.5C 358.931,294.513 357.265,297.18 357,300.5C 357.804,301.804 358.971,302.471 360.5,302.5C 364.061,299.982 367.561,299.982 371,302.5C 372.173,306.305 371.007,309.139 367.5,311C 363.289,312.534 358.956,312.867 354.5,312C 345.409,303.572 335.742,295.905 325.5,289C 321.291,285.491 317.457,281.658 314,277.5C 321.267,298.458 334.267,315.124 353,327.5C 353.991,333.157 356.491,337.99 360.5,342C 363.903,342.1 367.07,342.934 370,344.5C 370.944,347.347 370.444,349.847 368.5,352C 363.002,353.101 357.835,352.268 353,349.5C 350.289,351.892 348.289,354.892 347,358.5C 343.567,372.324 342.567,386.324 344,400.5C 343.066,404.637 341.732,408.637 340,412.5C 338.259,419.204 338.259,425.871 340,432.5C 346.109,441.716 351.442,451.383 356,461.5C 357.167,462.667 358.333,463.833 359.5,465C 369.061,466.448 378.727,466.948 388.5,466.5C 388.896,463.956 388.229,461.789 386.5,460C 378.263,457.469 371.763,452.635 367,445.5C 365.36,440.607 364.193,435.607 363.5,430.5C 364.167,423.157 364.834,415.823 365.5,408.5C 359.962,408.468 357.462,405.801 358,400.5C 358.899,398.632 360.399,397.632 362.5,397.5C 364.453,398.156 366.453,398.489 368.5,398.5C 368.895,395.314 369.895,392.314 371.5,389.5C 369.613,387.96 367.78,386.293 366,384.5C 365.087,381.648 365.92,379.481 368.5,378C 371.437,378.011 374.27,377.845 377,377.5C 381.115,371.489 383.449,364.822 384,357.5C 387.651,326.779 387.318,296.113 383,265.5C 378.896,237.965 367.396,214.299 348.5,194.5C 349.437,190.717 351.771,189.217 355.5,190C 370.73,202.943 381.064,219.109 386.5,238.5C 387.829,242.476 389.163,246.476 390.5,250.5C 396.998,246.083 403.665,241.916 410.5,238C 415.835,236.833 418.169,239 417.5,244.5C 417.063,246.074 416.063,247.241 414.5,248C 406.417,251.459 399.25,256.293 393,262.5C 393.928,272.113 394.928,281.779 396,291.5C 404.667,280.167 414.667,270.167 426,261.5C 426.5,254.174 426.666,246.841 426.5,239.5C 416.909,230.056 413.576,218.723 416.5,205.5C 417.81,200.712 419.81,196.212 422.5,192C 427.016,189.756 430.016,191.089 431.5,196C 427.905,201.451 425.905,207.451 425.5,214C 425.325,217.746 426.158,221.246 428,224.5C 429.545,217.407 432.211,210.74 436,204.5C 439.472,201.582 442.472,201.915 445,205.5C 445.667,206.833 445.667,208.167 445,209.5C 438.482,221.086 435.649,233.586 436.5,247C 435.677,258.524 438.51,269.024 445,278.5C 456.034,289.578 465.367,301.911 473,315.5C 473.575,325.42 475.408,335.087 478.5,344.5C 481.995,347.368 485.162,347.035 488,343.5C 491.256,329.52 488.923,316.52 481,304.5C 472.037,292.848 464.704,280.181 459,266.5C 458.11,261.372 457.61,256.205 457.5,251C 460.156,233.517 460.156,216.017 457.5,198.5C 456.508,193.492 458.508,191.492 463.5,192.5C 465.017,192.511 466.184,193.177 467,194.5C 467.303,198.894 467.97,203.227 469,207.5C 481.475,184.713 483.642,161.047 475.5,136.5C 472.48,128.126 468.647,120.126 464,112.5C 463.109,109.502 463.609,106.836 465.5,104.5C 467.527,104.338 469.527,104.505 471.5,105C 474.046,108.59 476.213,112.423 478,116.5C 478.667,114.5 478.667,112.5 478,110.5C 469.933,91.7029 462.433,72.7029 455.5,53.5C 453.483,46.6324 449.816,40.7991 444.5,36C 431.171,29.3695 421.005,32.5361 414,45.5C 413.505,47.4727 413.338,49.4727 413.5,51.5C 421.808,52.2053 430.141,52.7053 438.5,53C 440.644,53.7921 441.977,55.2921 442.5,57.5C 442.148,60.0794 440.814,61.9127 438.5,63C 428.862,63.7746 419.362,62.9413 410,60.5C 400.977,71.2644 389.477,77.7644 375.5,80C 371.034,83.0985 369.534,87.2652 371,92.5C 383.504,93.1136 395.67,95.6136 407.5,100C 413.569,100.804 419.569,100.471 425.5,99C 430.989,96.5316 434.489,92.3649 436,86.5C 437.128,81.8614 438.128,77.1947 439,72.5C 442,68.5 445,68.5 448,72.5C 448.179,75.5535 448.679,78.5535 449.5,81.5C 454.009,81.7402 457.009,83.9068 458.5,88C 458.043,89.9402 457.043,91.4402 455.5,92.5C 448.083,89.6256 443.25,91.9589 441,99.5C 434.975,106.929 427.141,110.762 417.5,111C 428.136,122.126 437.802,133.96 446.5,146.5C 452.05,154.427 456.717,162.927 460.5,172C 459.993,174.545 458.659,176.379 456.5,177.5C 452.367,177.358 449.7,175.358 448.5,171.5C 447.341,167.849 445.674,164.515 443.5,161.5C 440.979,156.134 437.812,151.134 434,146.5C 428.681,159.8 418.847,165.633 404.5,164C 397.966,162.6 391.633,160.6 385.5,158C 369.001,154.948 353.001,156.614 337.5,163C 320.308,170.754 304.641,180.754 290.5,193C 278.833,203.333 267.833,214.333 257.5,226C 229.232,247.926 206.399,274.426 189,305.5C 170.054,347.099 145.387,384.766 115,418.5C 99.6211,434.223 82.7878,448.056 64.5,460C 52.5855,465.86 40.5855,471.526 28.5,477C 64.6399,473.343 97.9732,461.843 128.5,442.5C 142.334,434.329 155,424.662 166.5,413.5C 176.915,403.999 186.415,393.666 195,382.5C 204.75,368.672 213.75,354.339 222,339.5C 227.78,332.878 234.28,327.212 241.5,322.5C 245.477,320.342 249.643,318.675 254,317.5C 256.703,317.12 258.537,318.12 259.5,320.5C 259.919,323.325 258.919,325.491 256.5,327C 245.502,331.002 236.502,337.669 229.5,347C 238.606,345.809 247.606,343.809 256.5,341C 263.567,340.161 270.567,340.494 277.5,342C 284.405,344.62 291.405,346.953 298.5,349C 307.444,349.987 316.277,349.487 325,347.5C 327.831,347.845 329.997,349.178 331.5,351.5C 331.556,354.561 330.222,356.728 327.5,358C 318.388,360.516 309.222,361.016 300,359.5C 282.946,372.554 267.946,387.554 255,404.5C 248.829,414.69 246.495,425.69 248,437.5C 250.528,442.702 253.861,447.369 258,451.5C 263.064,459.458 262.564,466.958 256.5,474C 246.344,478.32 236.01,478.653 225.5,475C 223.5,473.667 221.5,472.333 219.5,471C 215.042,462.297 210.208,453.797 205,445.5C 203.714,442.595 202.714,439.595 202,436.5C 201.605,426.444 202.272,416.444 204,406.5C 206.447,398.269 210.447,390.936 216,384.5C 220.635,376.896 224.469,368.896 227.5,360.5C 225.647,359.24 223.814,359.24 222,360.5C 176.2,437.721 108.367,480.721 18.5,489.5C 9.91167,487.234 8.41167,482.567 14,475.5C 16.5366,472.628 19.3699,470.128 22.5,468C 42.2108,460.315 60.5441,450.315 77.5,438C 105.687,414.491 129.52,387.324 149,356.5C 160.069,337.086 170.735,317.419 181,297.5C 196.739,269.417 217.239,245.25 242.5,225C 256.529,210.637 270.862,196.637 285.5,183C 302.502,168.662 321.502,157.662 342.5,150C 358.003,145.089 373.669,144.422 389.5,148C 395.813,150.578 402.313,152.411 409,153.5C 424.465,150.366 427.798,142.033 419,128.5C 412.5,122 406,115.5 399.5,109C 395.019,107.046 390.352,105.713 385.5,105C 379.419,104.862 373.419,104.196 367.5,103C 361.999,100.002 359.332,95.3352 359.5,89C 359.711,82.6897 362.044,77.3564 366.5,73C 374.068,69.853 381.734,66.853 389.5,64C 394.604,61.196 398.77,57.3627 402,52.5C 405.147,29.1818 418.314,19.3485 441.5,23C 451.579,26.7449 458.746,33.5782 463,43.5C 469.413,61.0734 476.413,78.4067 484,95.5C 497.941,131.888 497.608,168.222 483,204.5C 479.503,211.498 475.503,218.165 471,224.5C 469.881,233.831 468.714,243.165 467.5,252.5C 468.068,257.643 469.234,262.643 471,267.5C 479.366,281.853 487.699,296.187 496,310.5C 501.812,324.227 501.812,337.894 496,351.5C 487.333,359.5 478.667,359.5 470,351.5C 468.275,348.326 466.942,344.993 466,341.5C 464.666,333.489 463.333,325.489 462,317.5C 457.065,309.299 451.399,301.632 445,294.5C 445.207,303.492 445.207,312.492 445,321.5C 444.641,331.931 440.808,340.764 433.5,348C 419.649,353.411 411.316,348.911 408.5,334.5C 410.489,324.389 412.155,314.222 413.5,304C 412.927,299.842 412.427,295.676 412,291.5C 410.853,290.542 409.853,290.875 409,292.5C 405.24,297.683 401.24,302.683 397,307.5C 396.932,326.221 395.932,344.888 394,363.5C 393.408,367.276 392.408,370.943 391,374.5C 379.257,393.139 373.923,413.473 375,435.5C 375.725,437.949 376.725,440.283 378,442.5C 382.685,445.514 387.518,448.347 392.5,451C 399.864,456.946 401.364,464.112 397,472.5C 395.786,474.049 394.286,475.215 392.5,476C 380.847,477.948 369.181,477.948 357.5,476C 352.573,474.125 348.74,470.958 346,466.5C 341.903,456.091 336.57,446.424 330,437.5C 327.315,424.859 328.315,412.525 333,400.5C 333.333,389.833 333.667,379.167 334,368.5C 334.907,361.535 336.74,354.869 339.5,348.5 Z"/></g>
<g><path style="opacity:1" fill="#5c6375" d="M 455.5,53.5 C 451.421,55.604 447.088,56.9373 442.5,57.5C 441.977,55.2921 440.644,53.7921 438.5,53C 430.141,52.7053 421.808,52.2053 413.5,51.5C 413.338,49.4727 413.505,47.4727 414,45.5C 421.005,32.5361 431.171,29.3695 444.5,36C 449.816,40.7991 453.483,46.6324 455.5,53.5 Z"/></g>
<g><path style="opacity:1" fill="#a0adb3" d="M 455.5,53.5 C 462.433,72.7029 469.933,91.7029 478,110.5C 478.667,112.5 478.667,114.5 478,116.5C 476.213,112.423 474.046,108.59 471.5,105C 469.527,104.505 467.527,104.338 465.5,104.5C 462.863,101.011 460.363,97.3447 458,93.5C 457.329,92.7476 456.496,92.4142 455.5,92.5C 457.043,91.4402 458.043,89.9402 458.5,88C 457.009,83.9068 454.009,81.7402 449.5,81.5C 448.679,78.5535 448.179,75.5535 448,72.5C 445,68.5 442,68.5 439,72.5C 438.128,77.1947 437.128,81.8614 436,86.5C 434.489,92.3649 430.989,96.5316 425.5,99C 419.569,100.471 413.569,100.804 407.5,100C 395.67,95.6136 383.504,93.1136 371,92.5C 369.534,87.2652 371.034,83.0985 375.5,80C 389.477,77.7644 400.977,71.2644 410,60.5C 419.362,62.9413 428.862,63.7746 438.5,63C 440.814,61.9127 442.148,60.0794 442.5,57.5C 447.088,56.9373 451.421,55.604 455.5,53.5 Z"/></g>
<g><path style="opacity:1" fill="#5f6778" d="M 412.5,67.5 C 419.341,68.0158 421.007,71.1825 417.5,77C 410.778,79.7321 407.945,77.5655 409,70.5C 410.145,69.3636 411.312,68.3636 412.5,67.5 Z"/></g>
<g><path style="opacity:1" fill="#f7f0d8" d="M 455.5,92.5 C 456.496,92.4142 457.329,92.7476 458,93.5C 460.363,97.3447 462.863,101.011 465.5,104.5C 463.609,106.836 463.109,109.502 464,112.5C 468.647,120.126 472.48,128.126 475.5,136.5C 469.179,149.148 459.512,152.482 446.5,146.5C 437.802,133.96 428.136,122.126 417.5,111C 427.141,110.762 434.975,106.929 441,99.5C 443.25,91.9589 448.083,89.6256 455.5,92.5 Z"/></g>
<g><path style="opacity:1" fill="#efad8e" d="M 475.5,136.5 C 483.642,161.047 481.475,184.713 469,207.5C 467.97,203.227 467.303,198.894 467,194.5C 466.184,193.177 465.017,192.511 463.5,192.5C 462.791,191.596 461.791,191.263 460.5,191.5C 459.788,186.654 458.455,181.987 456.5,177.5C 458.659,176.379 459.993,174.545 460.5,172C 456.717,162.927 452.05,154.427 446.5,146.5C 459.512,152.482 469.179,149.148 475.5,136.5 Z"/></g>
<g><path style="opacity:1" fill="#a0adb3" d="M 443.5,161.5 C 438.418,166.945 432.085,170.445 424.5,172C 411.333,174.883 398,176.216 384.5,176C 382.717,177.067 382.217,178.567 383,180.5C 385.543,182.354 388.376,183.521 391.5,184C 407.318,185.697 422.652,183.697 437.5,178C 441.524,176.326 445.191,174.159 448.5,171.5C 449.7,175.358 452.367,177.358 456.5,177.5C 458.455,181.987 459.788,186.654 460.5,191.5C 461.791,191.263 462.791,191.596 463.5,192.5C 458.508,191.492 456.508,193.492 457.5,198.5C 460.156,216.017 460.156,233.517 457.5,251C 457.61,256.205 458.11,261.372 459,266.5C 464.704,280.181 472.037,292.848 481,304.5C 488.923,316.52 491.256,329.52 488,343.5C 485.162,347.035 481.995,347.368 478.5,344.5C 475.408,335.087 473.575,325.42 473,315.5C 465.367,301.911 456.034,289.578 445,278.5C 438.51,269.024 435.677,258.524 436.5,247C 435.649,233.586 438.482,221.086 445,209.5C 445.667,208.167 445.667,206.833 445,205.5C 442.472,201.915 439.472,201.582 436,204.5C 432.211,210.74 429.545,217.407 428,224.5C 426.158,221.246 425.325,217.746 425.5,214C 425.905,207.451 427.905,201.451 431.5,196C 430.016,191.089 427.016,189.756 422.5,192C 419.81,196.212 417.81,200.712 416.5,205.5C 414.777,207.253 413.277,209.253 412,211.5C 410.665,216.183 409.331,220.85 408,225.5C 406.833,226.667 405.667,227.833 404.5,229C 398.315,231.925 392.315,235.091 386.5,238.5C 381.064,219.109 370.73,202.943 355.5,190C 351.771,189.217 349.437,190.717 348.5,194.5C 367.396,214.299 378.896,237.965 383,265.5C 387.318,296.113 387.651,326.779 384,357.5C 383.449,364.822 381.115,371.489 377,377.5C 374.27,377.845 371.437,378.011 368.5,378C 365.92,379.481 365.087,381.648 366,384.5C 367.78,386.293 369.613,387.96 371.5,389.5C 369.895,392.314 368.895,395.314 368.5,398.5C 366.453,398.489 364.453,398.156 362.5,397.5C 360.399,397.632 358.899,398.632 358,400.5C 357.462,405.801 359.962,408.468 365.5,408.5C 364.834,415.823 364.167,423.157 363.5,430.5C 364.193,435.607 365.36,440.607 367,445.5C 371.763,452.635 378.263,457.469 386.5,460C 388.229,461.789 388.896,463.956 388.5,466.5C 378.727,466.948 369.061,466.448 359.5,465C 358.333,463.833 357.167,462.667 356,461.5C 351.442,451.383 346.109,441.716 340,432.5C 338.259,425.871 338.259,419.204 340,412.5C 341.732,408.637 343.066,404.637 344,400.5C 342.567,386.324 343.567,372.324 347,358.5C 348.289,354.892 350.289,351.892 353,349.5C 357.835,352.268 363.002,353.101 368.5,352C 370.444,349.847 370.944,347.347 370,344.5C 367.07,342.934 363.903,342.1 360.5,342C 356.491,337.99 353.991,333.157 353,327.5C 334.267,315.124 321.267,298.458 314,277.5C 317.457,281.658 321.291,285.491 325.5,289C 335.742,295.905 345.409,303.572 354.5,312C 358.956,312.867 363.289,312.534 367.5,311C 371.007,309.139 372.173,306.305 371,302.5C 367.561,299.982 364.061,299.982 360.5,302.5C 358.971,302.471 357.804,301.804 357,300.5C 357.265,297.18 358.931,294.513 362,292.5C 362.993,286.498 360.493,284.332 354.5,286C 352.317,288.35 349.984,290.517 347.5,292.5C 345.833,291.167 344.167,289.833 342.5,288.5C 347.113,282.384 352.28,276.718 358,271.5C 358.34,266.178 355.84,264.011 350.5,265C 343.958,269.875 338.458,275.708 334,282.5C 326.294,276.461 319.627,269.461 314,261.5C 313.333,259.5 313.333,257.5 314,255.5C 317.556,243.044 324.556,233.044 335,225.5C 335.993,219.498 333.493,217.332 327.5,219C 319.579,224.688 313.412,231.855 309,240.5C 308.762,226.637 313.762,214.97 324,205.5C 327.098,198.6 324.931,195.766 317.5,197C 311.101,203.566 306.101,211.066 302.5,219.5C 295.471,225.887 291.304,233.887 290,243.5C 289.323,255.844 289.489,268.177 290.5,280.5C 290.991,289.019 287.658,295.519 280.5,300C 265.604,304.441 252.604,311.941 241.5,322.5C 234.28,327.212 227.78,332.878 222,339.5C 213.75,354.339 204.75,368.672 195,382.5C 186.415,393.666 176.915,403.999 166.5,413.5C 182.043,389.088 195.543,363.421 207,336.5C 216.187,319.309 227.687,303.809 241.5,290C 244.219,289.472 246.719,289.972 249,291.5C 255.658,289.016 256.158,285.516 250.5,281C 245.806,279.068 241.139,279.068 236.5,281C 224.109,292.381 213.609,305.214 205,319.5C 195.238,337.451 186.238,355.784 178,374.5C 165.149,399.846 148.649,422.513 128.5,442.5C 97.9732,461.843 64.6399,473.343 28.5,477C 40.5855,471.526 52.5855,465.86 64.5,460C 82.7878,448.056 99.6211,434.223 115,418.5C 145.387,384.766 170.054,347.099 189,305.5C 206.399,274.426 229.232,247.926 257.5,226C 267.833,214.333 278.833,203.333 290.5,193C 304.641,180.754 320.308,170.754 337.5,163C 353.001,156.614 369.001,154.948 385.5,158C 391.633,160.6 397.966,162.6 404.5,164C 418.847,165.633 428.681,159.8 434,146.5C 437.812,151.134 440.979,156.134 443.5,161.5 Z"/></g>
<g><path style="opacity:1" fill="#f7cc8a" d="M 443.5,161.5 C 445.674,164.515 447.341,167.849 448.5,171.5C 445.191,174.159 441.524,176.326 437.5,178C 422.652,183.697 407.318,185.697 391.5,184C 388.376,183.521 385.543,182.354 383,180.5C 382.217,178.567 382.717,177.067 384.5,176C 398,176.216 411.333,174.883 424.5,172C 432.085,170.445 438.418,166.945 443.5,161.5 Z"/></g>
<g><path style="opacity:1" fill="#f7cd8a" d="M 357.5,173.5 C 360.85,173.335 364.183,173.502 367.5,174C 370.371,176.84 370.037,179.174 366.5,181C 362.5,181.667 358.5,181.667 354.5,181C 353.919,180.107 353.585,179.107 353.5,178C 354.167,175.849 355.5,174.349 357.5,173.5 Z"/></g>
<g><path style="opacity:1" fill="#5d6475" d="M 416.5,205.5 C 413.576,218.723 416.909,230.056 426.5,239.5C 422.125,239.145 419.125,240.811 417.5,244.5C 418.169,239 415.835,236.833 410.5,238C 403.665,241.916 396.998,246.083 390.5,250.5C 389.163,246.476 387.829,242.476 386.5,238.5C 392.315,235.091 398.315,231.925 404.5,229C 405.667,227.833 406.833,226.667 408,225.5C 409.331,220.85 410.665,216.183 412,211.5C 413.277,209.253 414.777,207.253 416.5,205.5 Z"/></g>
<g><path style="opacity:1" fill="#5d6475" d="M 302.5,219.5 C 293.253,253.173 299.253,283.839 320.5,311.5C 315.693,313.395 310.693,314.395 305.5,314.5C 296.233,312.769 286.9,312.269 277.5,313C 275.329,314.174 274.329,316.007 274.5,318.5C 269.43,318.685 264.43,319.352 259.5,320.5C 258.537,318.12 256.703,317.12 254,317.5C 249.643,318.675 245.477,320.342 241.5,322.5C 252.604,311.941 265.604,304.441 280.5,300C 287.658,295.519 290.991,289.019 290.5,280.5C 289.489,268.177 289.323,255.844 290,243.5C 291.304,233.887 295.471,225.887 302.5,219.5 Z"/></g>
<g><path style="opacity:1" fill="#f0ad8e" d="M 426.5,239.5 C 426.666,246.841 426.5,254.174 426,261.5C 414.667,270.167 404.667,280.167 396,291.5C 394.928,281.779 393.928,272.113 393,262.5C 399.25,256.293 406.417,251.459 414.5,248C 416.063,247.241 417.063,246.074 417.5,244.5C 419.125,240.811 422.125,239.145 426.5,239.5 Z"/></g>
<g><path style="opacity:1" fill="#3b4154" d="M 345.5,239.5 C 351.456,240.087 353.289,243.087 351,248.5C 345.5,252.667 340.667,257.5 336.5,263C 329.069,264.234 326.902,261.4 330,254.5C 334.401,248.597 339.568,243.597 345.5,239.5 Z"/></g>
<g><path style="opacity:1" fill="#f5cc8c" d="M 268.5,253.5 C 275.749,254.207 278.749,258.041 277.5,265C 271.987,265.187 268.32,262.52 266.5,257C 266.978,255.697 267.645,254.531 268.5,253.5 Z"/></g>
<g><path style="opacity:1" fill="#f7cc8b" d="M 254.5,262.5 C 261.122,262.781 265.455,266.115 267.5,272.5C 266.783,276.525 264.45,278.025 260.5,277C 254.06,273.661 252.06,268.827 254.5,262.5 Z"/></g>
<g><path style="opacity:1" fill="#f7cc8a" d="M 166.5,413.5 C 155,424.662 142.334,434.329 128.5,442.5C 148.649,422.513 165.149,399.846 178,374.5C 186.238,355.784 195.238,337.451 205,319.5C 213.609,305.214 224.109,292.381 236.5,281C 241.139,279.068 245.806,279.068 250.5,281C 256.158,285.516 255.658,289.016 249,291.5C 246.719,289.972 244.219,289.472 241.5,290C 227.687,303.809 216.187,319.309 207,336.5C 195.543,363.421 182.043,389.088 166.5,413.5 Z"/></g>
<g><path style="opacity:1" fill="#f0ad8e" d="M 274.5,318.5 C 274.944,320.113 275.944,321.28 277.5,322C 287.178,322.701 296.845,323.534 306.5,324.5C 313.999,323.861 321.332,322.694 328.5,321C 333.354,325.355 338.354,329.522 343.5,333.5C 345.017,338.759 344.017,343.425 340.5,347.5C 339.833,347.5 339.5,347.833 339.5,348.5C 336.833,349.5 334.167,350.5 331.5,351.5C 329.997,349.178 327.831,347.845 325,347.5C 316.277,349.487 307.444,349.987 298.5,349C 291.405,346.953 284.405,344.62 277.5,342C 270.567,340.494 263.567,340.161 256.5,341C 247.606,343.809 238.606,345.809 229.5,347C 236.502,337.669 245.502,331.002 256.5,327C 258.919,325.491 259.919,323.325 259.5,320.5C 264.43,319.352 269.43,318.685 274.5,318.5 Z"/></g>
<g><path style="opacity:1" fill="#3c4255" d="M 368.5,318.5 C 374.157,318.324 376.324,320.991 375,326.5C 371.894,328.976 368.394,330.142 364.5,330C 360.928,327.374 360.595,324.374 363.5,321C 365.315,320.243 366.981,319.41 368.5,318.5 Z"/></g>
</svg>
