<?xml version="1.0" encoding="UTF-8"?>
<!DOCTYPE svg PUBLIC "-//W3C//DTD SVG 1.1//EN" "http://www.w3.org/Graphics/SVG/1.1/DTD/svg11.dtd">
<svg xmlns="http://www.w3.org/2000/svg" version="1.1" width="512px" height="512px" style="shape-rendering:geometricPrecision; text-rendering:geometricPrecision; image-rendering:optimizeQuality; fill-rule:evenodd; clip-rule:evenodd" xmlns:xlink="http://www.w3.org/1999/xlink">
<g><path style="opacity:1" fill="#383e51" d="M 181.5,12.5 C 184.685,12.0196 187.519,12.6863 190,14.5C 195.721,58.5752 211.387,98.5752 237,134.5C 246.375,143.708 255.542,153.041 264.5,162.5C 272.026,153.807 280.36,145.974 289.5,139C 303.5,132 317.5,125 331.5,118C 342.091,111.072 351.757,103.072 360.5,94C 368.679,91.0114 377.013,90.6781 385.5,93C 394.396,96.9491 403.396,100.616 412.5,104C 419.17,104.453 425.837,104.953 432.5,105.5C 468.365,99.8764 490.365,114.71 498.5,150C 498.646,152.034 497.98,153.701 496.5,155C 490.944,156.986 487.944,155.153 487.5,149.5C 484.813,149.336 482.146,149.503 479.5,150C 480.922,156.578 478.256,159.245 471.5,158C 470.034,156.448 469.034,154.614 468.5,152.5C 462.273,149.784 459.439,151.784 460,158.5C 454.174,163.301 450.674,161.968 449.5,154.5C 446.794,154.575 444.127,154.908 441.5,155.5C 442.275,162.56 439.275,165.06 432.5,163C 430.963,161.89 430.297,160.39 430.5,158.5C 429.167,158.5 427.833,158.5 426.5,158.5C 423.597,166.712 423.097,175.046 425,183.5C 426.734,186.922 429.567,188.589 433.5,188.5C 434.446,181.616 437.946,179.616 444,182.5C 445.651,184.754 445.818,187.088 444.5,189.5C 446.743,190.474 449.076,190.808 451.5,190.5C 451.702,183.124 455.202,180.791 462,183.5C 463.044,185.715 463.71,188.048 464,190.5C 465.509,189.91 467.009,189.244 468.5,188.5C 469.35,183.15 472.35,181.317 477.5,183C 479.357,184.182 480.357,185.849 480.5,188C 479.103,199.893 474.103,209.893 465.5,218C 459.613,221.847 453.113,223.681 446,223.5C 419.795,223.367 395.462,216.701 373,203.5C 365.488,209.351 358.321,215.518 351.5,222C 345.011,224.456 338.344,226.289 331.5,227.5C 346.456,240.954 360.956,254.954 375,269.5C 381.75,279.079 385.75,289.745 387,301.5C 387.489,328.593 392.155,354.926 401,380.5C 403.473,386.779 406.473,392.779 410,398.5C 411.395,400.14 412.895,401.64 414.5,403C 418.5,403.333 422.5,403.667 426.5,404C 429.621,404.726 432.287,406.226 434.5,408.5C 439.159,417.33 445.159,425.163 452.5,432C 456.644,433.543 459.644,436.209 461.5,440C 460.242,444.473 457.242,446.806 452.5,447C 448.167,447.667 443.833,447.667 439.5,447C 430.799,443.896 422.299,440.396 414,436.5C 402.001,442.181 391.668,440.181 383,430.5C 377.333,422.5 371.667,414.5 366,406.5C 345.667,384.167 325.333,361.833 305,339.5C 304.078,358.871 304.411,378.205 306,397.5C 314.706,412.244 322.372,427.578 329,443.5C 331.463,446.965 334.296,450.131 337.5,453C 342.5,453.5 347.5,454 352.5,454.5C 359.152,453.556 365.819,453.39 372.5,454C 374.949,454.725 377.283,455.725 379.5,457C 384.123,463.292 389.123,469.292 394.5,475C 401.829,480.333 409.496,485.167 417.5,489.5C 419.062,492.614 418.729,495.447 416.5,498C 405.167,498.667 393.833,498.667 382.5,498C 374.619,495.929 366.952,493.262 359.5,490C 356.567,489.107 353.567,488.607 350.5,488.5C 341.24,489.565 332.24,491.732 323.5,495C 317.747,495.851 312.08,495.517 306.5,494C 261.746,464.614 215.08,438.281 166.5,415C 159.824,411.33 153.491,407.164 147.5,402.5C 134.263,405.078 121.929,409.911 110.5,417C 106.298,420.867 102.465,425.033 99,429.5C 97.1319,432.605 95.9652,435.938 95.5,439.5C 111.958,437.146 124.124,443.146 132,457.5C 137.14,461.797 141.307,466.797 144.5,472.5C 144.24,474.187 143.573,475.687 142.5,477C 133.231,480.11 123.898,480.276 114.5,477.5C 113.236,483.788 111.07,489.788 108,495.5C 105.441,498.349 102.274,499.183 98.5,498C 90.1608,485.998 79.1608,477.332 65.5,472C 61.3383,469.188 58.505,465.355 57,460.5C 56.8874,446.284 56.0541,432.117 54.5,418C 54.8667,410.933 57.8667,405.266 63.5,401C 74.1586,397.447 84.4919,393.114 94.5,388C 43.3628,380.368 16.0295,350.868 12.5,299.5C 11.8415,281.333 17.5082,265.5 29.5,252C 31.6954,250.627 34.0288,250.294 36.5,251C 48.5638,257.74 56.0638,267.906 59,281.5C 60.3968,288.452 60.7301,295.452 60,302.5C 58.4644,308.938 56.6311,315.271 54.5,321.5C 57.6907,335.197 66.024,344.364 79.5,349C 86.0333,351.109 92.7,351.776 99.5,351C 99.9574,350.586 100.291,350.086 100.5,349.5C 85.3992,325.63 73.2325,300.297 64,273.5C 43.8988,199.021 48.2321,126.021 77,54.5C 80.6015,46.1278 85.1015,38.2944 90.5,31C 93.2569,30.218 95.7569,30.718 98,32.5C 97.3569,44.303 96.8569,56.1364 96.5,68C 96.1447,79.657 97.3113,91.157 100,102.5C 115.637,157.292 141.804,206.125 178.5,249C 179.996,249.507 181.163,249.007 182,247.5C 186.623,241.208 191.623,235.208 197,229.5C 197.667,228.5 197.667,227.5 197,226.5C 165.154,165.77 157.154,102.103 173,35.5C 175.35,27.6122 178.183,19.9455 181.5,12.5 Z"/></g>
<g><path style="opacity:1" fill="#c77c7c" d="M 237.5,284.5 C 219.427,277.476 204.76,266.143 193.5,250.5C 198.592,243.903 204.259,237.737 210.5,232C 227.567,221.195 243.067,208.361 257,193.5C 266.287,177.545 277.787,163.378 291.5,151C 294.672,149.248 297.672,147.248 300.5,145C 315.018,138.824 329.185,131.99 343,124.5C 344.249,136.503 349.749,146.003 359.5,153C 361.899,153.711 364.232,153.544 366.5,152.5C 368.124,151.131 368.624,149.464 368,147.5C 349.278,133.323 348.778,118.489 366.5,103C 371.472,101.183 376.472,101.183 381.5,103C 390.818,107.825 400.485,111.825 410.5,115C 427.553,115.057 444.553,115.724 461.5,117C 471.088,121.587 478.421,128.587 483.5,138C 452.087,140.437 421.754,147.437 392.5,159C 389.167,160.667 385.833,162.333 382.5,164C 380.012,166.627 379.845,169.46 382,172.5C 396.592,187.047 414.092,196.214 434.5,200C 444.478,200.999 454.478,201.833 464.5,202.5C 462.238,207.26 458.571,210.427 453.5,212C 420.192,214.503 390.859,205.336 365.5,184.5C 362.404,184.429 360.738,185.929 360.5,189C 360.795,191.923 362.129,194.257 364.5,196C 358.865,200.633 353.532,205.633 348.5,211C 343.876,214.241 338.876,215.408 333.5,214.5C 338.436,206.729 344.603,200.063 352,194.5C 352.718,190.541 351.051,188.208 347,187.5C 339.534,190.623 333.534,195.623 329,202.5C 324.966,208.571 321.466,214.904 318.5,221.5C 308.834,221.327 302.167,225.66 298.5,234.5C 295.131,232.808 292.298,233.474 290,236.5C 287.333,243.167 284.667,249.833 282,256.5C 280.989,264.983 281.656,273.316 284,281.5C 287.333,287.5 290.667,293.5 294,299.5C 294.03,317.493 293.863,335.493 293.5,353.5C 293.441,368.524 293.941,383.524 295,398.5C 296.274,402.99 297.941,407.323 300,411.5C 305.679,417.858 309.512,425.191 311.5,433.5C 306.957,432.231 302.624,430.397 298.5,428C 284.01,417.585 269.01,407.919 253.5,399C 226.167,383.667 198.833,368.333 171.5,353C 164.167,347 156.833,341 149.5,335C 139.559,324.901 130.225,314.401 121.5,303.5C 107.6,280.03 96.1004,255.363 87,229.5C 84.9361,228.409 82.7695,228.242 80.5,229C 79.1059,229.956 78.4393,231.289 78.5,233C 90.5262,269.886 107.693,304.053 130,335.5C 151.476,363.321 177.976,384.821 209.5,400C 211.5,400.667 213.5,400.667 215.5,400C 216.056,399.617 216.389,399.117 216.5,398.5C 220.007,400.754 223.673,402.754 227.5,404.5C 227.301,409.971 229.967,412.971 235.5,413.5C 237.355,413.66 238.688,412.993 239.5,411.5C 243.5,413.833 247.5,416.167 251.5,418.5C 250.959,421.652 251.959,424.152 254.5,426C 265.003,432.417 275.337,439.084 285.5,446C 312.097,461.326 340.763,467.659 371.5,465C 377.795,473.629 385.128,481.295 393.5,488C 390.833,488.667 388.167,488.667 385.5,488C 377.291,485.562 369.291,482.562 361.5,479C 353.833,477 346.167,477 338.5,479C 333.121,480.459 327.788,482.126 322.5,484C 318.5,484.667 314.5,484.667 310.5,484C 264.587,454.202 216.92,427.202 167.5,403C 139.333,383.837 117.166,359.337 101,329.5C 89.4785,309.124 80.1451,287.79 73,265.5C 63.2957,223.602 60.629,181.269 65,138.5C 69.5172,112.908 76.1839,87.9081 85,63.5C 85.2141,89.9033 90.5474,115.237 101,139.5C 119.596,190.57 148.096,235.07 186.5,273C 199.057,284.221 212.723,293.888 227.5,302C 238.521,302.558 249.188,304.725 259.5,308.5C 265.582,307.198 266.915,304.031 263.5,299C 256.771,296.988 250.105,294.988 243.5,293C 251.534,285.995 254.201,277.495 251.5,267.5C 248.709,265.96 246.209,266.294 244,268.5C 242.964,271.753 242.297,275.086 242,278.5C 241.208,281.106 239.708,283.106 237.5,284.5 Z"/></g>
<g><path style="opacity:1" fill="#854b76" d="M 375.5,114.5 C 379.459,114.071 382.959,115.071 386,117.5C 386.77,124.885 383.604,127.052 376.5,124C 372.956,121.127 372.623,117.96 375.5,114.5 Z"/></g>
<g><path style="opacity:1" fill="#864c76" d="M 452.5,124.5 C 459.628,124.706 461.294,127.873 457.5,134C 451.498,134.993 449.332,132.493 451,126.5C 451.717,125.956 452.217,125.289 452.5,124.5 Z"/></g>
<g><path style="opacity:1" fill="#444254" d="M 73.5,195.5 C 81.4721,196.613 83.4721,200.779 79.5,208C 75.7929,210.209 72.9596,209.376 71,205.5C 69.8613,201.579 70.6946,198.246 73.5,195.5 Z"/></g>
<g><path style="opacity:1" fill="#f6f0d7" d="M 318.5,221.5 C 317.382,227.084 317.215,232.751 318,238.5C 325.564,257.676 325.231,276.676 317,295.5C 314.015,300.311 310.515,304.644 306.5,308.5C 305.833,306.5 305.167,304.5 304.5,302.5C 304.579,299.729 304.079,297.063 303,294.5C 299.063,287.626 295.397,280.626 292,273.5C 291.333,268.5 291.333,263.5 292,258.5C 294.333,252.833 296.667,247.167 299,241.5C 299.703,239.071 299.537,236.738 298.5,234.5C 302.167,225.66 308.834,221.327 318.5,221.5 Z"/></g>
<g><path style="opacity:1" fill="#3a3e51" d="M 121.5,303.5 C 143.583,342.748 174.917,372.248 215.5,392C 217.684,393.898 218.017,396.064 216.5,398.5C 216.389,399.117 216.056,399.617 215.5,400C 213.5,400.667 211.5,400.667 209.5,400C 177.976,384.821 151.476,363.321 130,335.5C 107.693,304.053 90.5262,269.886 78.5,233C 78.4393,231.289 79.1059,229.956 80.5,229C 82.7695,228.242 84.9361,228.409 87,229.5C 96.1004,255.363 107.6,280.03 121.5,303.5 Z"/></g>
<g><path style="opacity:1" fill="#824b75" d="M 193.5,250.5 C 204.76,266.143 219.427,277.476 237.5,284.5C 235.114,287.04 232.281,289.04 229,290.5C 213.435,281.942 199.269,271.442 186.5,259C 188.698,255.977 191.031,253.144 193.5,250.5 Z"/></g>
<g><path style="opacity:1" fill="#aca8a2" d="M 304.5,302.5 C 305.167,304.5 305.833,306.5 306.5,308.5C 306.217,309.289 305.717,309.956 305,310.5C 304.503,307.854 304.336,305.187 304.5,302.5 Z"/></g>
<g><path style="opacity:1" fill="#824b75" d="M 121.5,303.5 C 130.225,314.401 139.559,324.901 149.5,335C 156.833,341 164.167,347 171.5,353C 198.833,368.333 226.167,383.667 253.5,399C 269.01,407.919 284.01,417.585 298.5,428C 302.624,430.397 306.957,432.231 311.5,433.5C 313.869,438.566 316.535,443.566 319.5,448.5C 319,448.833 318.5,449.167 318,449.5C 309.426,446.919 301.259,443.419 293.5,439C 282.167,431.667 270.833,424.333 259.5,417C 256.502,416.109 253.836,416.609 251.5,418.5C 247.5,416.167 243.5,413.833 239.5,411.5C 240.757,406.058 238.424,403.058 232.5,402.5C 230.486,402.437 228.819,403.103 227.5,404.5C 223.673,402.754 220.007,400.754 216.5,398.5C 218.017,396.064 217.684,393.898 215.5,392C 174.917,372.248 143.583,342.748 121.5,303.5 Z"/></g>
<g><path style="opacity:1" fill="#814a75" d="M 108.5,405.5 C 103.519,403.255 98.186,401.921 92.5,401.5C 103.943,395.274 114.943,388.274 125.5,380.5C 129.606,384.529 133.606,388.695 137.5,393C 127.445,396.295 117.779,400.462 108.5,405.5 Z"/></g>
<g><path style="opacity:1" fill="#c57b7c" d="M 92.5,401.5 C 98.186,401.921 103.519,403.255 108.5,405.5C 92.0582,414.72 84.2249,428.72 85,447.5C 85.5,448 86,448.5 86.5,449C 93.1667,449.333 99.8333,449.667 106.5,450C 111.861,451.432 116.361,454.266 120,458.5C 121.677,461.853 123.843,464.853 126.5,467.5C 119.807,468.995 113.807,467.495 108.5,463C 105.692,462.08 103.525,462.913 102,465.5C 101.664,469.001 101.831,472.501 102.5,476C 102.435,478.591 101.935,481.091 101,483.5C 96.8006,478.966 92.3006,474.799 87.5,471C 80.8881,467.352 74.3881,463.519 68,459.5C 67.5543,444.46 66.8876,429.46 66,414.5C 67.1667,412 69,410.167 71.5,409C 78.6374,406.788 85.6374,404.288 92.5,401.5 Z"/></g>
<g><path style="opacity:1" fill="#3c3f52" d="M 239.5,411.5 C 238.688,412.993 237.355,413.66 235.5,413.5C 229.967,412.971 227.301,409.971 227.5,404.5C 228.819,403.103 230.486,402.437 232.5,402.5C 238.424,403.058 240.757,406.058 239.5,411.5 Z"/></g>
</svg>
