<?xml version="1.0" encoding="UTF-8"?>
<!DOCTYPE svg PUBLIC "-//W3C//DTD SVG 1.1//EN" "http://www.w3.org/Graphics/SVG/1.1/DTD/svg11.dtd">
<svg xmlns="http://www.w3.org/2000/svg" version="1.1" width="512px" height="512px" style="shape-rendering:geometricPrecision; text-rendering:geometricPrecision; image-rendering:optimizeQuality; fill-rule:evenodd; clip-rule:evenodd" xmlns:xlink="http://www.w3.org/1999/xlink">
<g><path style="opacity:1" fill="#393f52" d="M 180.5,125.5 C 182.857,125.337 185.19,125.503 187.5,126C 193.057,132.614 200.057,136.948 208.5,139C 235.48,140.856 262.48,142.523 289.5,144C 319.892,149.063 340.725,165.897 352,194.5C 355.101,202.569 357.101,210.902 358,219.5C 358.5,230.495 358.667,241.495 358.5,252.5C 357.863,255.456 357.363,258.456 357,261.5C 355.556,263.155 353.722,263.822 351.5,263.5C 348.224,262.878 346.891,260.878 347.5,257.5C 348.725,246.348 348.725,235.348 347.5,224.5C 347.811,219.234 347.145,214.234 345.5,209.5C 343.495,198.161 338.828,188.161 331.5,179.5C 326.774,171.927 320.441,166.427 312.5,163C 316.079,167.325 318.746,172.158 320.5,177.5C 322.899,184.318 324.732,191.318 326,198.5C 329.2,200.765 332.533,202.765 336,204.5C 336.495,206.473 336.662,208.473 336.5,210.5C 333.454,212.781 330.121,213.115 326.5,211.5C 326.5,215.5 326.5,219.5 326.5,223.5C 324.303,232.232 320.636,240.399 315.5,248C 320.408,250.776 325.741,252.109 331.5,252C 333.426,252.422 334.426,253.589 334.5,255.5C 335.145,258.547 334.145,260.713 331.5,262C 323.48,262.287 315.98,260.453 309,256.5C 306.216,258.28 303.716,260.447 301.5,263C 313.43,269.256 323.93,277.423 333,287.5C 338.812,282.694 344.645,278.027 350.5,273.5C 354.722,271.556 359.055,269.89 363.5,268.5C 367.913,269.96 372.413,270.96 377,271.5C 380.746,271.675 384.246,270.842 387.5,269C 388.686,263.566 389.686,258.066 390.5,252.5C 393.635,230.618 395.302,208.618 395.5,186.5C 395.826,177.983 395.493,169.65 394.5,161.5C 394.5,158.833 394.5,156.167 394.5,153.5C 393.857,147.31 392.857,141.31 391.5,135.5C 391.375,130.206 390.375,125.206 388.5,120.5C 388.074,116.573 387.074,112.907 385.5,109.5C 381.509,92.6851 374.175,77.5185 363.5,64C 355.265,58.0205 346.265,53.3539 336.5,50C 330.46,44.2908 324.126,38.9575 317.5,34C 304.027,27.0164 290.36,26.683 276.5,33C 267.304,37.5403 258.638,42.8736 250.5,49C 240.242,52.2518 229.909,55.2518 219.5,58C 195.369,65.7891 183.036,82.2891 182.5,107.5C 206.184,106.012 229.851,106.179 253.5,108C 266.218,109.906 278.551,113.239 290.5,118C 293.978,120.706 294.311,123.706 291.5,127C 289.167,127.667 286.833,127.667 284.5,127C 269.45,120.99 253.784,117.656 237.5,117C 222.167,116.333 206.833,116.333 191.5,117C 186.873,117.05 182.54,117.883 178.5,119.5C 175.331,119.161 173.164,117.495 172,114.5C 169.358,85.1631 181.191,63.9964 207.5,51C 218.59,46.859 229.924,43.5257 241.5,41C 248.634,38.1855 254.968,34.1855 260.5,29C 278.527,17.7047 297.527,15.3713 317.5,22C 327.391,27.4473 336.391,34.114 344.5,42C 359.712,45.8901 371.545,54.3901 380,67.5C 394.409,94.7288 402.742,123.729 405,154.5C 407.42,183.479 406.586,212.313 402.5,241C 414.977,244.029 427.477,244.195 440,241.5C 442.352,241.305 444.352,241.972 446,243.5C 453.863,290.587 446.196,334.92 423,376.5C 381.758,449.186 319.258,488.186 235.5,493.5C 193.935,492.698 156.935,479.531 124.5,454C 93.737,424.746 78.737,388.746 79.5,346C 79.1778,320.607 84.3445,296.441 95,273.5C 108.256,252.569 123.423,233.069 140.5,215C 147.555,209.651 155.555,207.317 164.5,208C 167.876,202.747 171.376,197.58 175,192.5C 180.211,188.071 186.044,186.904 192.5,189C 197.843,193.004 203.843,195.337 210.5,196C 212.167,197 213.833,198 215.5,199C 218.833,203 222.167,207 225.5,211C 227.87,212.185 230.203,213.351 232.5,214.5C 245.129,213.678 257.129,210.512 268.5,205C 273.544,204.123 278.211,205.123 282.5,208C 289.623,219.06 299.623,225.894 312.5,228.5C 318.905,204.952 314.739,183.286 300,163.5C 295.194,158.349 289.361,155.182 282.5,154C 258.505,152.556 234.505,151.222 210.5,150C 198.245,148.29 188.078,142.79 180,133.5C 179.278,130.739 179.445,128.073 180.5,125.5 Z"/></g>
<g><path style="opacity:1" fill="#adada1" d="M 385.5,109.5 C 385.631,110.239 385.464,110.906 385,111.5C 380.994,114.676 377.16,118.009 373.5,121.5C 374,122.881 375,123.547 376.5,123.5C 380.584,122.751 384.584,121.751 388.5,120.5C 390.375,125.206 391.375,130.206 391.5,135.5C 390.797,137.716 389.464,139.549 387.5,141C 381.88,143.972 376.88,147.639 372.5,152C 372.667,153.5 373.5,154.333 375,154.5C 381.223,153.356 387.39,152.022 393.5,150.5C 393.263,151.791 393.596,152.791 394.5,153.5C 394.5,156.167 394.5,158.833 394.5,161.5C 394.789,165.106 394.456,168.606 393.5,172C 385.662,175.724 377.662,179.057 369.5,182C 368.167,183.333 368.167,184.667 369.5,186C 378.16,186.5 386.827,186.666 395.5,186.5C 395.302,208.618 393.635,230.618 390.5,252.5C 386.554,253.527 382.554,253.694 378.5,253C 374.899,251.613 371.399,250.113 368,248.5C 364.647,249.428 361.48,250.761 358.5,252.5C 358.667,241.495 358.5,230.495 358,219.5C 357.101,210.902 355.101,202.569 352,194.5C 340.725,165.897 319.892,149.063 289.5,144C 262.48,142.523 235.48,140.856 208.5,139C 200.057,136.948 193.057,132.614 187.5,126C 185.19,125.503 182.857,125.337 180.5,125.5C 179.27,123.703 178.604,121.703 178.5,119.5C 182.54,117.883 186.873,117.05 191.5,117C 206.833,116.333 222.167,116.333 237.5,117C 253.784,117.656 269.45,120.99 284.5,127C 286.833,127.667 289.167,127.667 291.5,127C 294.311,123.706 293.978,120.706 290.5,118C 278.551,113.239 266.218,109.906 253.5,108C 229.851,106.179 206.184,106.012 182.5,107.5C 183.036,82.2891 195.369,65.7891 219.5,58C 229.909,55.2518 240.242,52.2518 250.5,49C 258.638,42.8736 267.304,37.5403 276.5,33C 290.36,26.683 304.027,27.0164 317.5,34C 324.126,38.9575 330.46,44.2908 336.5,50C 346.265,53.3539 355.265,58.0205 363.5,64C 374.175,77.5185 381.509,92.6851 385.5,109.5 Z"/></g>
<g><path style="opacity:1" fill="#3b4053" d="M 291.5,40.5 C 296.371,40.1922 301.037,41.0255 305.5,43C 311.449,48.28 317.949,52.78 325,56.5C 325.667,58.5 325.667,60.5 325,62.5C 319.167,67 314,72.1667 309.5,78C 304.141,82.0727 298.141,83.406 291.5,82C 285.938,79.1059 280.938,75.4392 276.5,71C 273.051,68.9412 269.384,67.4412 265.5,66.5C 262.92,64.0444 262.92,61.5444 265.5,59C 273.026,56.2436 279.026,51.577 283.5,45C 286.391,43.7258 289.058,42.2258 291.5,40.5 Z"/></g>
<g><path style="opacity:1" fill="#f5f5f6" d="M 291.5,51.5 C 305.732,51.1403 309.732,57.3069 303.5,70C 291.803,74.9599 285.969,71.1265 286,58.5C 287.371,55.7339 289.204,53.4006 291.5,51.5 Z"/></g>
<g><path style="opacity:1" fill="#78736d" d="M 205.5,78.5 C 211.989,78.1563 213.989,80.9896 211.5,87C 206.984,89.2444 203.984,87.9111 202.5,83C 202.957,81.0598 203.957,79.5598 205.5,78.5 Z"/></g>
<g><path style="opacity:1" fill="#76716b" d="M 385.5,109.5 C 387.074,112.907 388.074,116.573 388.5,120.5C 384.584,121.751 380.584,122.751 376.5,123.5C 375,123.547 374,122.881 373.5,121.5C 377.16,118.009 380.994,114.676 385,111.5C 385.464,110.906 385.631,110.239 385.5,109.5 Z"/></g>
<g><path style="opacity:1" fill="#76716b" d="M 391.5,135.5 C 392.857,141.31 393.857,147.31 394.5,153.5C 393.596,152.791 393.263,151.791 393.5,150.5C 387.39,152.022 381.223,153.356 375,154.5C 373.5,154.333 372.667,153.5 372.5,152C 376.88,147.639 381.88,143.972 387.5,141C 389.464,139.549 390.797,137.716 391.5,135.5 Z"/></g>
<g><path style="opacity:1" fill="#eaab8e" d="M 331.5,179.5 C 327.924,178.515 324.258,177.848 320.5,177.5C 318.746,172.158 316.079,167.325 312.5,163C 320.441,166.427 326.774,171.927 331.5,179.5 Z"/></g>
<g><path style="opacity:1" fill="#77726c" d="M 394.5,161.5 C 395.493,169.65 395.826,177.983 395.5,186.5C 386.827,186.666 378.16,186.5 369.5,186C 368.167,184.667 368.167,183.333 369.5,182C 377.662,179.057 385.662,175.724 393.5,172C 394.456,168.606 394.789,165.106 394.5,161.5 Z"/></g>
<g><path style="opacity:1" fill="#f5eed6" d="M 320.5,177.5 C 324.258,177.848 327.924,178.515 331.5,179.5C 338.828,188.161 343.495,198.161 345.5,209.5C 342.713,210.477 339.713,210.81 336.5,210.5C 336.662,208.473 336.495,206.473 336,204.5C 332.533,202.765 329.2,200.765 326,198.5C 324.732,191.318 322.899,184.318 320.5,177.5 Z"/></g>
<g><path style="opacity:1" fill="#abac9f" d="M 184.5,198.5 C 189.089,199.553 193.422,201.386 197.5,204C 200.529,204.539 203.529,205.206 206.5,206C 210.582,210.774 214.916,215.441 219.5,220C 227.315,222.813 231.815,228.313 233,236.5C 233.953,243.006 233.62,249.339 232,255.5C 227.539,246.369 221.539,238.369 214,231.5C 215.702,226.662 214.036,223.662 209,222.5C 206.849,222.643 205.182,223.643 204,225.5C 201.542,237.376 200.208,249.376 200,261.5C 191.542,252.449 188.542,241.782 191,229.5C 193.267,226.016 193.767,222.349 192.5,218.5C 189.329,215.665 186.496,215.998 184,219.5C 183,222.167 182,224.833 181,227.5C 176,231.167 171.667,235.5 168,240.5C 167.149,234.747 167.483,229.08 169,223.5C 173.176,214.468 178.342,206.134 184.5,198.5 Z"/></g>
<g><path style="opacity:1" fill="#efae8f" d="M 345.5,209.5 C 347.145,214.234 347.811,219.234 347.5,224.5C 340.567,225.842 333.567,225.508 326.5,223.5C 326.5,219.5 326.5,215.5 326.5,211.5C 330.121,213.115 333.454,212.781 336.5,210.5C 339.713,210.81 342.713,210.477 345.5,209.5 Z"/></g>
<g><path style="opacity:1" fill="#f9e6e0" d="M 435.5,253.5 C 436.167,255.5 436.833,257.5 437.5,259.5C 440.926,297.383 433.759,333.05 416,366.5C 395.322,406.178 365.489,437.011 326.5,459C 288.431,479.067 248.097,486.067 205.5,480C 124.771,461.256 86.6046,410.422 91,327.5C 92.1649,312.174 95.8316,297.507 102,283.5C 115.145,260.407 131.311,239.573 150.5,221C 153.312,219.451 156.312,218.618 159.5,218.5C 157.054,230.423 156.888,242.423 159,254.5C 159.689,257.408 160.855,260.075 162.5,262.5C 165.58,264.105 168.08,263.438 170,260.5C 171.783,253.596 175.117,247.596 180,242.5C 182.71,257.194 190.21,268.694 202.5,277C 205.347,277.944 207.847,277.444 210,275.5C 210.07,264.761 210.737,254.094 212,243.5C 220.003,253.34 225.169,264.506 227.5,277C 224.239,293.067 221.572,309.234 219.5,325.5C 212.129,326.339 204.796,327.506 197.5,329C 193.493,337.515 189.326,346.015 185,354.5C 184.167,355.333 183.333,356.167 182.5,357C 174.603,358.27 166.603,358.937 158.5,359C 154.915,361.528 154.582,364.528 157.5,368C 163.833,368.333 170.167,368.667 176.5,369C 182.333,370.833 186.167,374.667 188,380.5C 190.519,391.911 193.353,403.244 196.5,414.5C 203.455,416.989 210.122,420.156 216.5,424C 220.318,427.973 223.651,432.306 226.5,437C 232.553,437.944 234.72,435.444 233,429.5C 227.255,417.925 218.088,410.592 205.5,407.5C 201.602,393.077 197.936,378.577 194.5,364C 196.992,355.015 200.325,346.348 204.5,338C 211.107,336.412 217.774,335.079 224.5,334C 225.931,333.535 227.097,332.701 228,331.5C 231.609,311.514 235.109,291.514 238.5,271.5C 259.457,272.832 280.457,273.666 301.5,274C 309.582,279.411 317.082,285.578 324,292.5C 328.667,299.167 333.333,305.833 338,312.5C 338.568,329.176 338.901,345.842 339,362.5C 330.667,372.5 322.333,382.5 314,392.5C 311.381,397.046 312.548,400.046 317.5,401.5C 319.187,401.24 320.687,400.573 322,399.5C 331,388.5 340,377.5 349,366.5C 349.045,347.169 348.712,327.835 348,308.5C 346.024,302.923 344.691,297.256 344,291.5C 350.07,286.546 356.57,282.213 363.5,278.5C 377.08,283.487 389.747,281.654 401.5,273C 411.202,263.649 422.536,257.149 435.5,253.5 Z"/></g>
<g><path style="opacity:1" fill="#f7f0d8" d="M 326.5,223.5 C 333.567,225.508 340.567,225.842 347.5,224.5C 348.725,235.348 348.725,246.348 347.5,257.5C 342.847,258.001 338.514,257.334 334.5,255.5C 334.426,253.589 333.426,252.422 331.5,252C 325.741,252.109 320.408,250.776 315.5,248C 320.636,240.399 324.303,232.232 326.5,223.5 Z"/></g>
<g><path style="opacity:1" fill="#756f6a" d="M 390.5,252.5 C 389.686,258.066 388.686,263.566 387.5,269C 384.246,270.842 380.746,271.675 377,271.5C 372.413,270.96 367.913,269.96 363.5,268.5C 359.055,269.89 354.722,271.556 350.5,273.5C 351.324,270.236 351.658,266.902 351.5,263.5C 353.722,263.822 355.556,263.155 357,261.5C 357.363,258.456 357.863,255.456 358.5,252.5C 361.48,250.761 364.647,249.428 368,248.5C 371.399,250.113 374.899,251.613 378.5,253C 382.554,253.694 386.554,253.527 390.5,252.5 Z"/></g>
<g><path style="opacity:1" fill="#f0ad8e" d="M 334.5,255.5 C 338.514,257.334 342.847,258.001 347.5,257.5C 346.891,260.878 348.224,262.878 351.5,263.5C 351.658,266.902 351.324,270.236 350.5,273.5C 344.645,278.027 338.812,282.694 333,287.5C 323.93,277.423 313.43,269.256 301.5,263C 303.716,260.447 306.216,258.28 309,256.5C 315.98,260.453 323.48,262.287 331.5,262C 334.145,260.713 335.145,258.547 334.5,255.5 Z"/></g>
<g><path style="opacity:1" fill="#928993" d="M 435.5,253.5 C 435.56,252.957 435.893,252.624 436.5,252.5C 437.474,254.743 437.808,257.076 437.5,259.5C 436.833,257.5 436.167,255.5 435.5,253.5 Z"/></g>
<g><path style="opacity:1" fill="#383e51" d="M 452.5,412.5 C 465.079,410.873 474.579,415.54 481,426.5C 480.733,435.636 478.233,444.136 473.5,452C 456.719,451.851 442.219,446.017 430,434.5C 429.218,431.743 429.718,429.243 431.5,427C 438.425,421.884 445.425,417.05 452.5,412.5 Z"/></g>
<g><path style="opacity:1" fill="#9e807b" d="M 455.5,422.5 C 462.242,422.572 467.242,425.572 470.5,431.5C 468.905,434.68 467.905,438.013 467.5,441.5C 458.925,439.808 450.925,436.641 443.5,432C 447.399,428.589 451.399,425.422 455.5,422.5 Z"/></g>
<g><path style="opacity:1" fill="#393e51" d="M 401.5,438.5 C 419.428,438.378 433.261,445.711 443,460.5C 446.035,466.515 447.035,472.848 446,479.5C 445.097,480.701 443.931,481.535 442.5,482C 425.539,483.942 408.539,484.942 391.5,485C 385.26,483.092 381.427,478.925 380,472.5C 379.209,468.074 379.543,463.741 381,459.5C 384.333,454.833 387.667,450.167 391,445.5C 393.998,442.262 397.498,439.929 401.5,438.5 Z"/></g>
<g><path style="opacity:1" fill="#383e51" d="M 46.5,441.5 C 63.1292,445.401 76.2959,454.401 86,468.5C 89.2135,472.195 89.8802,476.195 88,480.5C 83.4581,482.845 78.6248,484.345 73.5,485C 64.5323,486.332 55.5323,486.665 46.5,486C 32.4684,482.121 26.9684,472.955 30,458.5C 30.5611,456.275 31.5611,454.275 33,452.5C 37.3986,448.591 41.8986,444.924 46.5,441.5 Z"/></g>
<g><path style="opacity:1" fill="#a0817c" d="M 402.5,449.5 C 415.058,449.863 425.225,454.863 433,464.5C 434.707,466.909 435.54,469.575 435.5,472.5C 424.31,472.736 413.144,473.402 402,474.5C 392.584,476.418 388.917,472.751 391,463.5C 394.624,458.539 398.457,453.873 402.5,449.5 Z"/></g>
<g><path style="opacity:1" fill="#9f817c" d="M 48.5,453.5 C 59.8899,456.543 68.8899,463.043 75.5,473C 65.2122,475.808 54.8789,476.141 44.5,474C 38.9624,469.607 38.1291,464.441 42,458.5C 44.3256,456.934 46.4922,455.268 48.5,453.5 Z"/></g>
</svg>
