<?xml version="1.0" encoding="UTF-8"?>
<!DOCTYPE svg PUBLIC "-//W3C//DTD SVG 1.1//EN" "http://www.w3.org/Graphics/SVG/1.1/DTD/svg11.dtd">
<svg xmlns="http://www.w3.org/2000/svg" version="1.1" width="512px" height="512px" style="shape-rendering:geometricPrecision; text-rendering:geometricPrecision; image-rendering:optimizeQuality; fill-rule:evenodd; clip-rule:evenodd" xmlns:xlink="http://www.w3.org/1999/xlink">
<g><path style="opacity:1" fill="#393f52" d="M 417.5,56.5 C 419.845,67.697 418.512,78.3636 413.5,88.5C 415.771,90.2659 417.937,92.2659 420,94.5C 430.948,84.9889 441.615,85.3222 452,95.5C 458.423,103.394 459.09,111.728 454,120.5C 449.998,124.446 445.164,126.112 439.5,125.5C 440.815,130.744 441.482,136.077 441.5,141.5C 460.054,143.232 467.22,153.232 463,171.5C 459.48,181.178 452.647,185.011 442.5,183C 438.759,181.262 435.592,178.762 433,175.5C 430.814,179.198 428.147,182.532 425,185.5C 428.382,194.634 431.549,203.967 434.5,213.5C 431.461,225.44 424.628,228.44 414,222.5C 413.789,233.662 416.122,244.329 421,254.5C 422.227,256.726 424.061,258.226 426.5,259C 440.175,259.32 453.842,259.32 467.5,259C 479.768,263.023 486.102,271.523 486.5,284.5C 486.144,300.585 478.477,311.251 463.5,316.5C 461.626,316.61 460.126,315.944 459,314.5C 458.667,308.5 458.333,302.5 458,296.5C 457.208,294.413 456.041,292.579 454.5,291C 450.266,289.016 445.933,288.516 441.5,289.5C 438.145,295.433 432.978,298.433 426,298.5C 416.772,297.723 410.439,293.056 407,284.5C 395.45,273.606 387.116,260.606 382,245.5C 378.516,242.089 374.516,239.422 370,237.5C 370.695,241.927 372.029,246.26 374,250.5C 379.318,260.969 384.485,271.469 389.5,282C 388.592,286.586 385.926,288.252 381.5,287C 369.263,280.775 358.763,272.275 350,261.5C 344.91,254.972 340.076,248.306 335.5,241.5C 333.667,242.052 332,242.885 330.5,244C 345.282,269.459 363.782,291.959 386,311.5C 386.782,314.257 386.282,316.757 384.5,319C 376.168,319.23 368.168,317.563 360.5,314C 333.867,302.029 312.867,283.695 297.5,259C 294.288,259.347 291.621,260.847 289.5,263.5C 301.887,283.722 317.887,300.555 337.5,314C 348.085,320.877 358.918,327.377 370,333.5C 370.782,336.257 370.282,338.757 368.5,341C 336.937,342.257 309.103,332.757 285,312.5C 284.248,319.348 282.748,326.014 280.5,332.5C 287.616,339.061 295.95,343.561 305.5,346C 317.104,348.383 328.771,350.383 340.5,352C 353.325,358.778 357.825,369.278 354,383.5C 351.258,390.41 346.424,395.077 339.5,397.5C 334.967,398.984 330.3,399.65 325.5,399.5C 325.233,401.965 324.566,404.299 323.5,406.5C 321.95,410.22 319.783,413.553 317,416.5C 313.333,418.833 310.333,421.833 308,425.5C 307.834,435.328 312.667,439.495 322.5,438C 324.333,437.5 325.5,436.333 326,434.5C 326.333,428.5 326.667,422.5 327,416.5C 327.396,413.343 328.229,410.343 329.5,407.5C 331.379,406.659 333.379,406.325 335.5,406.5C 337.931,407.607 338.931,409.607 338.5,412.5C 336.377,430.297 341.71,445.463 354.5,458C 355.833,458.667 357.167,459.333 358.5,460C 365.404,461.572 372.404,462.572 379.5,463C 389.515,465.015 395.515,471.015 397.5,481C 396.946,487.132 393.946,491.465 388.5,494C 374.167,494.667 359.833,494.667 345.5,494C 342.382,492.941 339.382,491.608 336.5,490C 317.491,473.138 304.158,452.638 296.5,428.5C 296.978,424.602 298.145,420.935 300,417.5C 304.644,413.186 308.978,408.52 313,403.5C 315.076,400.783 315.743,397.783 315,394.5C 311.555,389.945 308.888,384.945 307,379.5C 297.904,370.801 287.07,366.635 274.5,367C 262.301,380.548 252.467,395.715 245,412.5C 239.378,427.026 241.045,440.693 250,453.5C 252.537,456.372 255.37,458.872 258.5,461C 265.551,463.514 272.551,466.18 279.5,469C 288.364,475.885 290.364,484.218 285.5,494C 271.833,494.667 258.167,494.667 244.5,494C 239.139,492.568 234.639,489.734 231,485.5C 226.322,473.144 220.322,461.478 213,450.5C 209.333,446.167 205.333,442.167 201,438.5C 197.667,431.833 197.667,425.167 201,418.5C 210.737,409.176 218.904,398.676 225.5,387C 216.709,389.148 207.875,388.981 199,386.5C 190.677,388.617 188.177,393.784 191.5,402C 191.075,418.055 182.909,426.555 167,427.5C 154.679,427.676 147.845,421.676 146.5,409.5C 147.155,406.044 148.489,402.877 150.5,400C 147.475,399.639 144.475,399.139 141.5,398.5C 140.558,398.608 139.725,398.941 139,399.5C 135.557,416.465 125.39,423.298 108.5,420C 94.9331,414.417 91.7664,405.251 99,392.5C 99.7504,391.874 100.584,391.374 101.5,391C 96.3976,388.032 91.231,385.199 86,382.5C 72.3613,391.806 60.3613,390.139 50,377.5C 44.7783,366.33 47.6116,357.997 58.5,352.5C 56.5936,349.36 55.2603,346.027 54.5,342.5C 31.0677,343.909 21.901,333.242 27,310.5C 32.2819,302.63 39.2819,300.63 48,304.5C 49.6016,299.955 50.2683,295.288 50,290.5C 47.3,286.78 44.9666,282.78 43,278.5C 39.7975,263.904 45.4641,254.904 60,251.5C 64.8922,251.728 68.8922,253.728 72,257.5C 78.8208,254.526 81.3208,249.526 79.5,242.5C 80.8773,230.957 87.3773,224.623 99,223.5C 103.901,224.396 108.401,225.896 112.5,228C 119.835,225.33 124.335,220.163 126,212.5C 131.647,203.091 139.814,199.258 150.5,201C 160.913,186.804 163.246,171.304 157.5,154.5C 158.134,149.699 160.8,147.865 165.5,149C 189.771,171.452 192.937,196.618 175,224.5C 169.245,229.917 163.911,235.584 159,241.5C 160.454,253.607 155.121,259.94 143,260.5C 138.109,260.638 133.942,258.971 130.5,255.5C 129.328,255.919 128.328,256.585 127.5,257.5C 132.231,265.218 131.231,272.051 124.5,278C 116.702,283.559 108.868,283.726 101,278.5C 99.8179,280.344 98.6512,282.177 97.5,284C 105.961,289.383 108.461,296.883 105,306.5C 102.345,312.915 97.5114,315.915 90.5,315.5C 90.6432,318.097 91.4766,320.431 93,322.5C 104.088,311.176 114.088,312.176 123,325.5C 126.777,333.553 125.277,340.386 118.5,346C 121.86,348.064 125.526,349.231 129.5,349.5C 128.085,330.079 136.752,322.912 155.5,328C 162.11,330.606 165.61,335.439 166,342.5C 170.362,337.113 173.695,331.113 176,324.5C 179.433,308.518 185.767,293.851 195,280.5C 204.518,269.31 216.351,261.81 230.5,258C 222.426,245.777 224.426,235.444 236.5,227C 244.761,221.686 252.261,222.519 259,229.5C 260.153,232.711 260.82,236.044 261,239.5C 263.234,237.3 265.734,235.467 268.5,234C 261.654,225.359 260.82,216.192 266,206.5C 273.49,199.113 282.324,196.613 292.5,199C 299.636,203.856 301.303,210.189 297.5,218C 301.927,217.305 306.26,215.971 310.5,214C 301.435,199.689 304.435,188.689 319.5,181C 334.109,176.595 342.109,181.595 343.5,196C 346.064,194.938 347.731,193.104 348.5,190.5C 338.18,171.978 343.18,159.812 363.5,154C 370.912,152.789 376.079,155.622 379,162.5C 379.291,167.189 379.291,171.856 379,176.5C 379.941,178.727 381.108,180.727 382.5,182.5C 383.167,185.833 383.833,189.167 384.5,192.5C 394.995,190.909 403.495,194.242 410,202.5C 412.191,209.195 416.691,213.195 423.5,214.5C 421.698,207.598 419.198,200.931 416,194.5C 409.884,194.388 407.551,191.388 409,185.5C 418.265,178.394 425.099,169.394 429.5,158.5C 432.58,156.895 435.08,157.562 437,160.5C 437.74,165.345 440.24,169.179 444.5,172C 446.5,172.667 448.5,172.667 450.5,172C 454.793,165.666 454.46,159.666 449.5,154C 440.939,151.847 432.272,150.347 423.5,149.5C 420.299,142.672 422.632,139.672 430.5,140.5C 430.665,137.482 430.498,134.482 430,131.5C 429.722,130.584 429.222,129.918 428.5,129.5C 428.429,126.689 427.762,124.022 426.5,121.5C 427.672,118.164 430.005,115.997 433.5,115C 446.365,116.834 449.532,112.334 443,101.5C 439.577,98.82 435.744,97.9866 431.5,99C 426.461,102.526 421.794,106.526 417.5,111C 412.954,113.619 409.954,112.452 408.5,107.5C 408.848,105.303 409.848,103.47 411.5,102C 409.946,100.108 408.112,98.608 406,97.5C 402.38,100.117 399.047,103.117 396,106.5C 395.333,110.833 395.333,115.167 396,119.5C 401.029,123.364 405.529,127.697 409.5,132.5C 417.4,147.416 415.566,161.083 404,173.5C 400.556,176.786 396.723,179.453 392.5,181.5C 390.823,180.813 389.156,180.146 387.5,179.5C 387.337,177.143 387.503,174.81 388,172.5C 397.081,167.1 402.581,159.267 404.5,149C 403.235,142.141 399.902,136.474 394.5,132C 393.668,131.312 393.002,131.479 392.5,132.5C 387.477,143.023 379.143,149.19 367.5,151C 344.272,148.613 320.939,147.279 297.5,147C 281.97,141.786 274.47,130.952 275,114.5C 279.741,110.181 283.741,110.847 287,116.5C 288.766,115.767 290.599,115.433 292.5,115.5C 292.765,108.537 296.098,106.37 302.5,109C 303.525,111.071 304.358,113.238 305,115.5C 308.271,114.87 311.438,113.87 314.5,112.5C 313.104,104.856 316.104,102.356 323.5,105C 324.071,106.205 324.738,107.372 325.5,108.5C 328.975,106.192 332.308,103.692 335.5,101C 337.81,100.503 340.143,100.337 342.5,100.5C 342.328,101.492 342.662,102.158 343.5,102.5C 343.662,104.527 343.495,106.527 343,108.5C 328.063,121.757 310.563,127.757 290.5,126.5C 290.171,129.228 290.837,131.562 292.5,133.5C 293.429,134.315 294.429,135.148 295.5,136C 309.135,137.284 322.801,137.784 336.5,137.5C 335.742,131.568 337.076,126.234 340.5,121.5C 345.139,117.547 350.472,114.881 356.5,113.5C 357.5,114.167 358.5,114.833 359.5,115.5C 360.511,117.402 360.678,119.402 360,121.5C 355.004,123.502 350.67,126.502 347,130.5C 346.36,132.265 346.527,133.932 347.5,135.5C 348.117,137.229 349.117,138.729 350.5,140C 373.236,144.403 384.569,135.237 384.5,112.5C 379.795,113.864 375.128,113.697 370.5,112C 361.618,107.396 352.951,102.563 344.5,97.5C 341.168,94.1752 337.501,91.1752 333.5,88.5C 330.604,91.7786 327.27,92.2786 323.5,90C 322.205,87.1993 322.205,84.3659 323.5,81.5C 322.055,79.9373 320.389,78.604 318.5,77.5C 316.486,82.1678 313.153,83.5012 308.5,81.5C 306.319,78.737 305.985,75.737 307.5,72.5C 305.029,70.9294 302.363,69.9294 299.5,69.5C 299.133,75.1558 296.133,76.9891 290.5,75C 288.406,72.3661 288.073,69.5328 289.5,66.5C 286.957,65.1965 284.29,64.1965 281.5,63.5C 279.714,68.1805 276.381,69.6805 271.5,68C 269.972,66.3523 269.305,64.3523 269.5,62C 270.969,43.7019 279.302,29.7019 294.5,20C 310.662,14.5742 326.328,15.9075 341.5,24C 346.833,27 352.167,30 357.5,33C 367.5,33.3333 377.5,33.6667 387.5,34C 401.439,36.4482 411.439,43.9482 417.5,56.5 Z"/></g>
<g><path style="opacity:1" fill="#ddeef6" d="M 303.5,27.5 C 311.668,26.95 319.668,27.7833 327.5,30C 337.112,34.1394 346.446,38.8061 355.5,44C 365.157,43.7418 374.824,43.7418 384.5,44C 406.265,49.0349 413.099,61.8683 405,82.5C 399.127,90.04 392.294,96.54 384.5,102C 380.833,102.667 377.167,102.667 373.5,102C 370.167,100.333 366.833,98.6667 363.5,97C 350.833,87.6667 338.167,78.3333 325.5,69C 312.575,62.2487 299.075,57.082 285,53.5C 284.848,44.6361 288.348,37.4695 295.5,32C 298.391,30.7258 301.058,29.2258 303.5,27.5 Z"/></g>
<g><path style="opacity:1" fill="#3e455b" d="M 304.5,39.5 C 313.361,38.823 316.027,42.323 312.5,50C 303.63,51.0749 300.964,47.5749 304.5,39.5 Z"/></g>
<g><path style="opacity:1" fill="#3a4053" d="M 337.5,45.5 C 348.546,44.3877 355.212,49.2211 357.5,60C 356.194,69.3007 350.86,73.3007 341.5,72C 332.24,69.0957 328.407,62.929 330,53.5C 332.028,50.3078 334.528,47.6411 337.5,45.5 Z"/></g>
<g><path style="opacity:1" fill="#393f52" d="M 377.5,53.5 C 395.36,52.2579 402.194,60.2579 398,77.5C 393.114,88.6941 384.614,93.1941 372.5,91C 361.262,84.2782 358.762,75.1115 365,63.5C 368.489,59.1621 372.656,55.8287 377.5,53.5 Z"/></g>
<g><path style="opacity:1" fill="#d4e1ea" d="M 417.5,56.5 C 421.776,66.5733 421.276,76.5733 416,86.5C 415.292,87.3805 414.458,88.0472 413.5,88.5C 418.512,78.3636 419.845,67.697 417.5,56.5 Z"/></g>
<g><path style="opacity:1" fill="#8194de" d="M 428.5,129.5 C 421.92,129.776 415.587,130.776 409.5,132.5C 405.529,127.697 401.029,123.364 396,119.5C 395.333,115.167 395.333,110.833 396,106.5C 399.047,103.117 402.38,100.117 406,97.5C 408.112,98.608 409.946,100.108 411.5,102C 409.848,103.47 408.848,105.303 408.5,107.5C 409.954,112.452 412.954,113.619 417.5,111C 421.794,106.526 426.461,102.526 431.5,99C 435.744,97.9866 439.577,98.82 443,101.5C 449.532,112.334 446.365,116.834 433.5,115C 430.005,115.997 427.672,118.164 426.5,121.5C 427.762,124.022 428.429,126.689 428.5,129.5 Z"/></g>
<g><path style="opacity:1" fill="#8396df" d="M 344.5,97.5 C 352.951,102.563 361.618,107.396 370.5,112C 375.128,113.697 379.795,113.864 384.5,112.5C 384.569,135.237 373.236,144.403 350.5,140C 349.117,138.729 348.117,137.229 347.5,135.5C 356.577,136.866 364.077,134.199 370,127.5C 370.667,125.5 370.667,123.5 370,121.5C 367.015,118.591 363.515,116.591 359.5,115.5C 358.5,114.833 357.5,114.167 356.5,113.5C 352.021,110.081 347.688,106.414 343.5,102.5C 342.662,102.158 342.328,101.492 342.5,100.5C 343.906,100.027 344.573,99.0269 344.5,97.5 Z"/></g>
<g><path style="opacity:1" fill="#ddeef7" d="M 343.5,102.5 C 347.688,106.414 352.021,110.081 356.5,113.5C 350.472,114.881 345.139,117.547 340.5,121.5C 339.761,121.369 339.094,121.536 338.5,122C 335.813,125.683 332.813,129.017 329.5,132C 319.609,132.205 309.776,133.038 300,134.5C 297.502,134.083 295.002,133.749 292.5,133.5C 290.837,131.562 290.171,129.228 290.5,126.5C 310.563,127.757 328.063,121.757 343,108.5C 343.495,106.527 343.662,104.527 343.5,102.5 Z"/></g>
<g><path style="opacity:1" fill="#ddeef7" d="M 359.5,115.5 C 363.515,116.591 367.015,118.591 370,121.5C 370.667,123.5 370.667,125.5 370,127.5C 364.077,134.199 356.577,136.866 347.5,135.5C 346.527,133.932 346.36,132.265 347,130.5C 350.67,126.502 355.004,123.502 360,121.5C 360.678,119.402 360.511,117.402 359.5,115.5 Z"/></g>
<g><path style="opacity:1" fill="#8394d9" d="M 340.5,121.5 C 337.076,126.234 335.742,131.568 336.5,137.5C 322.801,137.784 309.135,137.284 295.5,136C 294.429,135.148 293.429,134.315 292.5,133.5C 295.002,133.749 297.502,134.083 300,134.5C 309.776,133.038 319.609,132.205 329.5,132C 332.813,129.017 335.813,125.683 338.5,122C 339.094,121.536 339.761,121.369 340.5,121.5 Z"/></g>
<g><path style="opacity:1" fill="#dcedf5" d="M 428.5,129.5 C 429.222,129.918 429.722,130.584 430,131.5C 430.498,134.482 430.665,137.482 430.5,140.5C 422.632,139.672 420.299,142.672 423.5,149.5C 432.272,150.347 440.939,151.847 449.5,154C 454.46,159.666 454.793,165.666 450.5,172C 448.5,172.667 446.5,172.667 444.5,172C 440.24,169.179 437.74,165.345 437,160.5C 435.08,157.562 432.58,156.895 429.5,158.5C 425.099,169.394 418.265,178.394 409,185.5C 407.551,191.388 409.884,194.388 416,194.5C 419.198,200.931 421.698,207.598 423.5,214.5C 416.691,213.195 412.191,209.195 410,202.5C 403.495,194.242 394.995,190.909 384.5,192.5C 383.833,189.167 383.167,185.833 382.5,182.5C 384.434,181.89 386.101,180.89 387.5,179.5C 389.156,180.146 390.823,180.813 392.5,181.5C 396.723,179.453 400.556,176.786 404,173.5C 415.566,161.083 417.4,147.416 409.5,132.5C 415.587,130.776 421.92,129.776 428.5,129.5 Z"/></g>
<g><path style="opacity:1" fill="#ddeef6" d="M 362.5,164.5 C 364.5,164.5 366.5,164.5 368.5,164.5C 367.603,169.14 367.436,173.806 368,178.5C 370.76,183.687 373.26,189.02 375.5,194.5C 372.236,197.942 369.069,201.609 366,205.5C 364.107,208.618 362.774,211.951 362,215.5C 357.947,219.273 355.781,223.94 355.5,229.5C 359.002,241.512 363.168,253.179 368,264.5C 357.635,254.14 348.801,242.64 341.5,230C 339.167,229.333 336.833,229.333 334.5,230C 329.58,232.196 324.58,234.196 319.5,236C 318.106,236.956 317.439,238.289 317.5,240C 327.592,262.429 341.259,282.429 358.5,300C 353.89,298.866 349.557,296.866 345.5,294C 327.262,281.432 312.928,265.432 302.5,246C 298.091,245.195 294.091,246.195 290.5,249C 286.5,251.667 282.5,254.333 278.5,257C 277.106,257.956 276.439,259.289 276.5,261C 290.869,288.374 311.202,310.374 337.5,327C 316.482,321.993 298.315,311.826 283,296.5C 277.595,276.262 264.762,263.595 244.5,258.5C 242.573,255.65 240.406,252.983 238,250.5C 235.219,244.956 236.386,240.456 241.5,237C 243.783,234.81 246.449,234.143 249.5,235C 249.658,238.72 249.825,242.554 250,246.5C 252.354,251.858 255.854,256.358 260.5,260C 268.793,260.034 270.459,256.7 265.5,250C 269.936,245.61 274.936,241.943 280.5,239C 282.396,237.192 282.896,235.025 282,232.5C 275.582,228.106 272.916,222.106 274,214.5C 277.471,210.011 281.971,208.178 287.5,209C 288.885,210.965 288.718,212.798 287,214.5C 286.333,217.5 286.333,220.5 287,223.5C 289.11,228.055 290.944,232.722 292.5,237.5C 300.581,240.755 303.248,238.088 300.5,229.5C 308.463,226.457 316.297,223.124 324,219.5C 325.301,217.635 325.635,215.635 325,213.5C 321.962,210.797 319.295,207.797 317,204.5C 315.627,202.305 315.294,199.971 316,197.5C 319.369,192.065 324.202,189.732 330.5,190.5C 328.694,196.712 329.194,202.712 332,208.5C 334.29,211.58 336.457,214.747 338.5,218C 346.575,218.938 348.575,215.772 344.5,208.5C 350.807,205.36 355.64,200.693 359,194.5C 359.667,191.833 359.667,189.167 359,186.5C 357.008,182.684 355.174,178.851 353.5,175C 354.905,170.097 357.905,166.597 362.5,164.5 Z"/></g>
<g><path style="opacity:1" fill="#ddeff6" d="M 384.5,202.5 C 392.999,201.039 399.166,204.039 403,211.5C 401.237,228.761 404.237,245.094 412,260.5C 416.061,266.884 421.895,270.384 429.5,271C 434.472,275.61 434.806,280.61 430.5,286C 425.903,288.54 422.07,287.707 419,283.5C 412.618,276.12 406.618,268.453 401,260.5C 397.41,253.652 394.077,246.652 391,239.5C 386.561,234.283 381.228,230.283 375,227.5C 370.307,216.214 373.474,207.881 384.5,202.5 Z"/></g>
<g><path style="opacity:1" fill="#ddeef6" d="M 96.5,234.5 C 98.1439,234.286 99.6439,234.62 101,235.5C 101.284,244.027 104.118,251.527 109.5,258C 108.007,263.651 104.34,266.317 98.5,266C 92.5427,271.787 87.5427,278.287 83.5,285.5C 79.0366,287.467 74.3699,287.967 69.5,287C 64.7202,285.444 60.3869,283.111 56.5,280C 50.8747,273.923 51.208,268.257 57.5,263C 60.5527,261.928 62.5527,262.928 63.5,266C 60.7553,272.538 62.7553,275.871 69.5,276C 75.6667,269.833 81.8333,263.667 88,257.5C 91.3838,251.864 92.3838,245.864 91,239.5C 92.7297,237.598 94.563,235.931 96.5,234.5 Z"/></g>
<g><path style="opacity:1" fill="#d7e7f0" d="M 120.5,235.5 C 121.239,235.369 121.906,235.536 122.5,236C 120.206,240.088 118.039,244.255 116,248.5C 113.293,246.428 112.293,243.761 113,240.5C 115.479,238.686 117.979,237.019 120.5,235.5 Z"/></g>
<g><path style="opacity:1" fill="#deeff7" d="M 221.5,334.5 C 220.207,335.842 219.374,337.509 219,339.5C 218.283,344.22 218.45,348.886 219.5,353.5C 211.964,353.471 207.131,349.805 205,342.5C 204.327,332.018 206.827,322.351 212.5,313.5C 208.823,306.856 204.99,306.856 201,313.5C 197.095,321.046 194.928,329.046 194.5,337.5C 191.861,348.582 193.695,358.916 200,368.5C 205.388,373.798 211.888,376.465 219.5,376.5C 203.818,379.086 191.318,373.753 182,360.5C 179.935,357.04 178.435,353.374 177.5,349.5C 180.321,342.52 183.154,335.52 186,328.5C 188.864,312.555 195.197,298.221 205,285.5C 216.366,272.38 230.532,267.214 247.5,270C 265.567,277.268 274.234,290.768 273.5,310.5C 273.531,315.235 273.031,319.901 272,324.5C 261.769,310.192 248.936,307.025 233.5,315C 227.202,320.122 223.202,326.622 221.5,334.5 Z"/></g>
<g><path style="opacity:1" fill="#dcedf5" d="M 452.5,269.5 C 462.913,266.732 470.413,270.066 475,279.5C 476.316,287.233 474.65,294.233 470,300.5C 467.89,285.23 459.057,277.564 443.5,277.5C 443.682,275.409 443.348,273.409 442.5,271.5C 445.977,270.833 449.311,270.166 452.5,269.5 Z"/></g>
<g><path style="opacity:1" fill="#3e4357" d="M 219.5,291.5 C 225.555,291.052 227.721,293.719 226,299.5C 221.34,305.171 217.507,304.837 214.5,298.5C 214.719,297.062 215.219,295.729 216,294.5C 217.518,293.837 218.685,292.837 219.5,291.5 Z"/></g>
<g><path style="opacity:1" fill="#deeff7" d="M 101.5,369.5 C 87.1451,362.478 76.4784,351.812 69.5,337.5C 71.437,336.069 73.2703,334.402 75,332.5C 75.7176,328.541 74.051,326.208 70,325.5C 68.0614,325.954 66.228,326.621 64.5,327.5C 62.5307,323.619 60.8641,319.619 59.5,315.5C 59.0492,308.364 59.7159,301.364 61.5,294.5C 65.6786,296.881 70.1786,297.881 75,297.5C 81.7672,296.303 88.6006,295.636 95.5,295.5C 95.9383,298.893 95.1049,301.893 93,304.5C 88.6703,299.462 84.0036,298.795 79,302.5C 77.888,315.223 81.0546,326.723 88.5,337C 90.9712,337.706 93.3046,337.373 95.5,336C 98.7341,332.855 101.734,329.522 104.5,326C 106.635,325.365 108.635,325.699 110.5,327C 111.304,328.771 112.471,330.271 114,331.5C 114.72,333.112 114.554,334.612 113.5,336C 107.192,335.866 102.359,338.366 99,343.5C 98.3333,344.833 98.3333,346.167 99,347.5C 100.981,349.657 103.314,351.324 106,352.5C 106.623,358.788 105.123,364.454 101.5,369.5 Z"/></g>
<g><path style="opacity:1" fill="#8092da" d="M 59.5,315.5 C 60.8641,319.619 62.5307,323.619 64.5,327.5C 58.0188,331.022 51.0188,332.189 43.5,331C 35.8393,327.516 33.8393,322.016 37.5,314.5C 39.0745,313.369 40.7412,313.202 42.5,314C 44.3771,316.921 46.3771,319.754 48.5,322.5C 56.7635,327.532 60.4301,325.199 59.5,315.5 Z"/></g>
<g><path style="opacity:1" fill="#deeff7" d="M 243.5,320.5 C 252.156,319.966 258.989,323.299 264,330.5C 271.102,340.924 280.602,348.424 292.5,353C 305.077,357.728 318.077,360.394 331.5,361C 343.762,364.359 347.262,371.859 342,383.5C 336.442,389.924 329.942,391.091 322.5,387C 321.152,385.426 320.486,383.593 320.5,381.5C 322.009,378.463 323.342,375.297 324.5,372C 323.792,367.949 321.459,366.282 317.5,367C 316.315,368.353 314.981,369.52 313.5,370.5C 295.083,356.234 274.583,352.234 252,358.5C 234.084,355.008 228.418,344.674 235,327.5C 237.441,324.546 240.275,322.213 243.5,320.5 Z"/></g>
<g><path style="opacity:1" fill="#879adf" d="M 221.5,334.5 C 220.942,340.932 222.275,346.932 225.5,352.5C 223.604,353.466 221.604,353.799 219.5,353.5C 218.45,348.886 218.283,344.22 219,339.5C 219.374,337.509 220.207,335.842 221.5,334.5 Z"/></g>
<g><path style="opacity:1" fill="#ddeef6" d="M 161.5,358.5 C 161.5,361.5 161.5,364.5 161.5,367.5C 153.217,365.459 150.217,368.792 152.5,377.5C 138.404,379.689 124.737,378.355 111.5,373.5C 114.309,368.542 115.976,363.209 116.5,357.5C 122.546,360.009 128.88,361.175 135.5,361C 136.333,360.167 137.167,359.333 138,358.5C 139.434,351.898 140.434,345.232 141,338.5C 142.299,337.02 143.966,336.354 146,336.5C 148.663,336.826 151.163,337.659 153.5,339C 154.357,339.689 155.023,340.522 155.5,341.5C 152.423,344.409 149.923,347.742 148,351.5C 146.422,356.132 147.922,359.132 152.5,360.5C 155.479,359.672 158.479,359.005 161.5,358.5 Z"/></g>
<g><path style="opacity:1" fill="#8194dd" d="M 69.5,337.5 C 76.4784,351.812 87.1451,362.478 101.5,369.5C 99.8501,371.651 98.0168,373.651 96,375.5C 92.5584,373.052 88.8917,371.052 85,369.5C 83.7741,369.645 82.6074,369.978 81.5,370.5C 74.3191,379.338 66.8191,379.671 59,371.5C 57.4608,367.195 58.7941,364.528 63,363.5C 66.4714,364.455 69.9714,364.622 73.5,364C 74.8941,363.044 75.5607,361.711 75.5,360C 71.5996,353.539 67.933,346.872 64.5,340C 65.619,338.124 67.2856,337.291 69.5,337.5 Z"/></g>
<g><path style="opacity:1" fill="#8194dd" d="M 194.5,337.5 C 197.583,359.967 210.083,367.967 232,361.5C 233.626,362.289 235.126,363.289 236.5,364.5C 232.356,370.732 226.689,374.732 219.5,376.5C 211.888,376.465 205.388,373.798 200,368.5C 193.695,358.916 191.861,348.582 194.5,337.5 Z"/></g>
<g><path style="opacity:1" fill="#8093dd" d="M 161.5,367.5 C 161.5,364.5 161.5,361.5 161.5,358.5C 163.64,357.095 165.974,356.262 168.5,356C 172.21,365.586 178.21,373.42 186.5,379.5C 184.476,381.69 182.643,384.023 181,386.5C 180.667,393.5 180.333,400.5 180,407.5C 176.351,415.505 170.184,418.339 161.5,416C 158.009,414.179 156.843,411.346 158,407.5C 161,405.5 164,403.5 167,401.5C 170.082,398.021 171.415,394.021 171,389.5C 167.982,386.371 164.482,385.704 160.5,387.5C 162.41,380.853 162.743,374.187 161.5,367.5 Z"/></g>
<g><path style="opacity:1" fill="#8093dc" d="M 111.5,373.5 C 124.737,378.355 138.404,379.689 152.5,377.5C 151.754,381.07 150.421,384.404 148.5,387.5C 143.198,388.329 137.864,388.829 132.5,389C 129.46,394.657 126.793,400.491 124.5,406.5C 119.558,411.045 114.225,411.545 108.5,408C 104.5,405 104.5,402 108.5,399C 114.188,398.979 118.688,396.813 122,392.5C 122.896,389.975 122.396,387.808 120.5,386C 115.637,384.657 110.971,382.824 106.5,380.5C 107.943,377.923 109.61,375.59 111.5,373.5 Z"/></g>
<g><path style="opacity:1" fill="#8597dd" d="M 339.5,397.5 C 337.892,400.382 336.559,403.382 335.5,406.5C 333.379,406.325 331.379,406.659 329.5,407.5C 327.435,407.483 325.435,407.15 323.5,406.5C 324.566,404.299 325.233,401.965 325.5,399.5C 330.3,399.65 334.967,398.984 339.5,397.5 Z"/></g>
<g><path style="opacity:1" fill="#ddeff6" d="M 323.5,406.5 C 325.435,407.15 327.435,407.483 329.5,407.5C 328.229,410.343 327.396,413.343 327,416.5C 326.667,422.5 326.333,428.5 326,434.5C 325.5,436.333 324.333,437.5 322.5,438C 312.667,439.495 307.834,435.328 308,425.5C 310.333,421.833 313.333,418.833 317,416.5C 319.783,413.553 321.95,410.22 323.5,406.5 Z"/></g>
<g><path style="opacity:1" fill="#7f92db" d="M 330.5,444.5 C 333.365,447.19 335.531,450.523 337,454.5C 346.027,468.261 358.86,474.428 375.5,473C 380.019,473.519 383.519,475.686 386,479.5C 386.711,481.367 386.211,482.867 384.5,484C 372.5,484.667 360.5,484.667 348.5,484C 346.5,483 344.5,482 342.5,481C 331.974,471.667 323.64,460.834 317.5,448.5C 322.569,449.141 326.903,447.808 330.5,444.5 Z"/></g>
</svg>
