<?xml version="1.0" encoding="UTF-8"?>
<!DOCTYPE svg PUBLIC "-//W3C//DTD SVG 1.1//EN" "http://www.w3.org/Graphics/SVG/1.1/DTD/svg11.dtd">
<svg xmlns="http://www.w3.org/2000/svg" version="1.1" width="512px" height="512px" style="shape-rendering:geometricPrecision; text-rendering:geometricPrecision; image-rendering:optimizeQuality; fill-rule:evenodd; clip-rule:evenodd" xmlns:xlink="http://www.w3.org/1999/xlink">
<g><path style="opacity:1" fill="#393e51" d="M 388.5,312.5 C 376.988,305.455 372.488,295.122 375,281.5C 372.192,283.821 369.025,285.488 365.5,286.5C 363.927,286.248 362.594,285.582 361.5,284.5C 360.489,282.598 360.322,280.598 361,278.5C 365.758,275.872 370.258,272.872 374.5,269.5C 370.544,262.565 365.878,256.232 360.5,250.5C 358.044,247.392 356.044,244.058 354.5,240.5C 355.256,235.662 357.922,234.328 362.5,236.5C 370.962,245.793 378.462,255.793 385,266.5C 385.333,276.167 385.667,285.833 386,295.5C 386.667,296.833 387.333,298.167 388,299.5C 403.394,306.443 417.561,315.276 430.5,326C 435.185,330.551 439.518,335.384 443.5,340.5C 446.624,342.094 449.124,341.428 451,338.5C 452.132,326.931 447.965,317.764 438.5,311C 430.224,307.909 422.224,304.242 414.5,300C 410.619,297.072 408.119,293.239 407,288.5C 406.656,270.791 405.99,253.124 405,235.5C 406.504,232.316 408.004,229.149 409.5,226C 411.456,224.388 413.456,224.222 415.5,225.5C 417.246,226.249 418.246,227.583 418.5,229.5C 416.256,233.731 414.923,238.231 414.5,243C 417.708,257.339 418.375,271.839 416.5,286.5C 436.652,272.57 449.652,253.57 455.5,229.5C 456.927,227.852 457.76,225.852 458,223.5C 464.952,198.902 459.952,177.235 443,158.5C 442.36,156.735 442.527,155.068 443.5,153.5C 445.963,151.059 448.629,150.893 451.5,153C 455.382,157.214 458.882,161.714 462,166.5C 463.508,136.876 457.508,108.876 444,82.5C 440.768,77.2116 436.935,72.3783 432.5,68C 425.863,68.4405 419.196,68.4405 412.5,68C 407.72,66.4443 403.387,64.1109 399.5,61C 385.792,60.1155 372.125,60.4489 358.5,62C 341.616,64.714 332.616,74.5473 331.5,91.5C 342.793,93.4908 354.127,95.1575 365.5,96.5C 375.82,95.1652 386.154,94.3319 396.5,94C 402.636,95.5723 407.636,98.9056 411.5,104C 415.241,106.732 419.241,109.066 423.5,111C 425.984,113.284 426.151,115.784 424,118.5C 421.599,119.602 419.099,119.769 416.5,119C 409.323,115.491 402.99,110.825 397.5,105C 394.649,103.711 391.649,103.211 388.5,103.5C 386.088,112.422 381.088,119.589 373.5,125C 363.771,130.906 353.437,135.239 342.5,138C 349.493,144.376 357.493,146.043 366.5,143C 374.981,139.591 383.314,135.924 391.5,132C 402.844,131.391 413.844,133.057 424.5,137C 427.436,138.91 428.102,141.41 426.5,144.5C 425.376,145.809 423.876,146.475 422,146.5C 417.236,145.027 412.403,144.027 407.5,143.5C 407.337,145.857 407.503,148.19 408,150.5C 418.4,164.431 423.4,180.098 423,197.5C 422.292,198.381 421.458,199.047 420.5,199.5C 420.167,199.5 419.833,199.5 419.5,199.5C 416.762,200.035 414.928,199.035 414,196.5C 413.247,184.676 409.914,173.676 404,163.5C 396.551,179.311 384.051,185.811 366.5,183C 360.094,183.673 353.927,185.173 348,187.5C 346.829,198.259 347.995,208.759 351.5,219C 349.942,224.642 346.776,225.809 342,222.5C 338.603,212.115 336.936,201.449 337,190.5C 320.183,199.807 303.016,208.474 285.5,216.5C 284.152,226.447 284.819,236.28 287.5,246C 286.63,250.536 283.963,252.203 279.5,251C 278.299,250.097 277.465,248.931 277,247.5C 275.412,238.549 274.245,229.549 273.5,220.5C 261.883,221.936 250.217,222.603 238.5,222.5C 238.666,227.511 238.499,232.511 238,237.5C 235,241.5 232,241.5 229,237.5C 227.775,232.915 227.275,228.248 227.5,223.5C 222.488,223.92 217.488,224.087 212.5,224C 211.837,222.482 210.837,221.315 209.5,220.5C 208.833,215.84 208.667,211.174 209,206.5C 212.286,202.515 215.619,202.515 219,206.5C 219.151,209.119 219.985,211.453 221.5,213.5C 228.436,212.354 235.436,211.688 242.5,211.5C 241.455,202.354 244.955,199.687 253,203.5C 253.497,206.146 253.664,208.813 253.5,211.5C 261.275,211.07 268.941,209.903 276.5,208C 275.858,204.543 276.524,201.21 278.5,198C 280.833,197.333 283.167,197.333 285.5,198C 286.747,199.946 288.08,201.78 289.5,203.5C 294.574,201.214 299.408,198.547 304,195.5C 303.862,193.51 303.362,191.51 302.5,189.5C 306.35,181.546 310.517,181.546 315,189.5C 320.968,186.1 327.134,183.1 333.5,180.5C 333.676,178.328 333.843,175.995 334,173.5C 336.167,170.713 339.001,169.88 342.5,171C 343.747,172.946 345.08,174.78 346.5,176.5C 352.728,174.654 359.062,173.321 365.5,172.5C 364.725,165.44 367.725,162.94 374.5,165C 375.971,167.243 376.971,169.743 377.5,172.5C 387.717,170.784 393.884,164.784 396,154.5C 396.499,150.514 396.666,146.514 396.5,142.5C 386.632,146.597 376.632,150.431 366.5,154C 350.112,157.051 337.612,151.551 329,137.5C 326.95,133.698 325.95,129.698 326,125.5C 328.287,121.47 331.454,120.636 335.5,123C 336.445,127.807 338.778,128.641 342.5,125.5C 341.349,119.154 344.016,116.654 350.5,118C 351.726,119.635 353.059,121.135 354.5,122.5C 356.167,121.833 357.833,121.167 359.5,120.5C 360.681,118.865 360.681,117.198 359.5,115.5C 361.914,108.984 365.747,107.984 371,112.5C 372.685,110.983 374.185,109.316 375.5,107.5C 369.196,107.812 362.862,107.478 356.5,106.5C 356.427,112.546 353.427,114.713 347.5,113C 345.206,110.282 344.206,107.115 344.5,103.5C 341.103,102.808 337.77,102.808 334.5,103.5C 335.162,109.32 332.496,111.487 326.5,110C 322.447,104.589 320.447,98.4226 320.5,91.5C 321.226,72.2906 330.56,59.4573 348.5,53C 354.739,51.2624 361.073,50.0957 367.5,49.5C 367.334,44.1563 367.501,38.8229 368,33.5C 368.19,29.8121 369.024,26.3121 370.5,23C 371.872,22.5983 373.205,22.0983 374.5,21.5C 383.578,24.8713 391.911,29.538 399.5,35.5C 401.655,29.8518 403.822,24.1851 406,18.5C 408.153,16.5561 410.653,16.0561 413.5,17C 425.333,28.1466 433.5,41.6466 438,57.5C 442.411,62.0192 446.578,66.6859 450.5,71.5C 458.448,68.6185 461.615,71.2852 460,79.5C 458.581,80.4601 457.081,81.2935 455.5,82C 459.246,88.0761 461.913,94.5761 463.5,101.5C 471,100.166 473.833,103.166 472,110.5C 470.197,111.313 468.697,112.48 467.5,114C 474.537,148.317 475.37,182.817 470,217.5C 467.739,229.114 464.572,240.447 460.5,251.5C 484.548,258.895 495.048,275.228 492,300.5C 490.386,307.984 485.719,311.984 478,312.5C 474.633,311.867 471.467,310.7 468.5,309C 465.186,302.723 461.686,296.556 458,290.5C 451.978,285.715 445.145,283.548 437.5,284C 434.133,287.703 430.466,291.036 426.5,294C 448.585,299.415 460.585,313.415 462.5,336C 461.734,345.932 456.401,351.432 446.5,352.5C 442.926,352.031 439.592,350.864 436.5,349C 423.774,332.43 407.774,320.263 388.5,312.5 Z"/></g>
<g><path style="opacity:1" fill="#6e4a51" d="M 412.5,31.5 C 418.284,38.8868 422.951,47.0535 426.5,56C 426.095,56.9454 425.428,57.6121 424.5,58C 417.412,59.4691 411.412,57.6358 406.5,52.5C 408.039,45.3413 410.039,38.3413 412.5,31.5 Z"/></g>
<g><path style="opacity:1" fill="#cb6969" d="M 443.5,153.5 C 438.556,149.194 432.889,146.194 426.5,144.5C 428.102,141.41 427.436,138.91 424.5,137C 413.844,133.057 402.844,131.391 391.5,132C 383.314,135.924 374.981,139.591 366.5,143C 357.493,146.043 349.493,144.376 342.5,138C 353.437,135.239 363.771,130.906 373.5,125C 381.088,119.589 386.088,112.422 388.5,103.5C 391.649,103.211 394.649,103.711 397.5,105C 402.99,110.825 409.323,115.491 416.5,119C 419.099,119.769 421.599,119.602 424,118.5C 426.151,115.784 425.984,113.284 423.5,111C 419.241,109.066 415.241,106.732 411.5,104C 407.636,98.9056 402.636,95.5723 396.5,94C 386.154,94.3319 375.82,95.1652 365.5,96.5C 354.127,95.1575 342.793,93.4908 331.5,91.5C 332.616,74.5473 341.616,64.714 358.5,62C 372.125,60.4489 385.792,60.1155 399.5,61C 403.387,64.1109 407.72,66.4443 412.5,68C 419.196,68.4405 425.863,68.4405 432.5,68C 436.935,72.3783 440.768,77.2116 444,82.5C 457.508,108.876 463.508,136.876 462,166.5C 458.882,161.714 455.382,157.214 451.5,153C 448.629,150.893 445.963,151.059 443.5,153.5 Z"/></g>
<g><path style="opacity:1" fill="#744c52" d="M 390.5,71.5 C 397.297,72.1073 398.964,75.2739 395.5,81C 390.322,83.9638 386.655,82.7971 384.5,77.5C 385.24,74.1486 387.24,72.1486 390.5,71.5 Z"/></g>
<g><path style="opacity:1" fill="#734b51" d="M 350.5,74.5 C 357.309,74.9514 358.976,78.118 355.5,84C 350.932,85.6505 348.266,84.1505 347.5,79.5C 348.092,77.5775 349.092,75.9108 350.5,74.5 Z"/></g>
<g><path style="opacity:1" fill="#3d3f51" d="M 436.5,113.5 C 444.993,112.471 447.327,115.637 443.5,123C 435.189,124.208 432.856,121.041 436.5,113.5 Z"/></g>
<g><path style="opacity:1" fill="#393e51" d="M 203.5,221.5 C 203.056,224.222 201.723,226.389 199.5,228C 196.204,228.457 193.037,229.291 190,230.5C 188.908,236.782 188.242,243.116 188,249.5C 184.706,252.311 181.706,251.978 179,248.5C 178.501,244.179 178.334,239.846 178.5,235.5C 170.804,238.181 163.471,241.681 156.5,246C 132.352,255.476 108.685,254.476 85.5,243C 72.0388,233.206 60.2055,221.706 50,208.5C 42.1161,195.964 38.4494,182.298 39,167.5C 33.5002,177.497 30.3336,188.164 29.5,199.5C 28.1863,204.348 28.1863,209.348 29.5,214.5C 30.1067,214.376 30.44,214.043 30.5,213.5C 32.6803,210.839 35.5137,209.172 39,208.5C 43.051,209.208 44.7176,211.541 44,215.5C 39.2842,218.549 35.6176,222.549 33,227.5C 36.049,243.914 44.049,257.58 57,268.5C 57.3333,264.5 57.6667,260.5 58,256.5C 61,253.833 64,253.833 67,256.5C 66.989,263.546 68.1556,270.379 70.5,277C 73.8599,280.014 77.8599,281.681 82.5,282C 96.8295,282.5 111.163,282.667 125.5,282.5C 128.85,282.335 132.183,282.502 135.5,283C 137.141,284.129 138.141,285.629 138.5,287.5C 137.781,289.091 136.781,290.591 135.5,292C 131.514,292.499 127.514,292.666 123.5,292.5C 113.161,292.334 102.828,292.5 92.5,293C 93.0442,293.717 93.7109,294.217 94.5,294.5C 113.371,304.178 133.371,310.345 154.5,313C 170.089,317.807 185.422,323.307 200.5,329.5C 200.833,329.167 201.167,328.833 201.5,328.5C 194.647,317.803 190.98,306.137 190.5,293.5C 186.812,293.219 183.145,292.719 179.5,292C 177.859,290.871 176.859,289.371 176.5,287.5C 176.297,285.61 176.963,284.11 178.5,283C 182.859,282.466 187.192,282.632 191.5,283.5C 192.167,276.667 194.333,270.334 198,264.5C 200.83,261.899 203.663,261.899 206.5,264.5C 206.982,265.416 207.315,266.416 207.5,267.5C 198.863,282.43 198.197,297.764 205.5,313.5C 207.835,319.514 211.169,324.848 215.5,329.5C 220.158,334.658 224.991,339.658 230,344.5C 239.218,361.208 236.718,375.875 222.5,388.5C 219.141,391.529 215.808,394.529 212.5,397.5C 206.333,401.478 199.999,405.311 193.5,409C 191.622,410.543 190.122,412.376 189,414.5C 187.464,428.86 186.13,443.194 185,457.5C 192.106,465.55 198.606,474.05 204.5,483C 216.762,484.606 229.096,484.939 241.5,484C 245.213,482.309 246.379,479.475 245,475.5C 243.833,473.667 242.333,472.167 240.5,471C 234.255,469.261 227.922,467.927 221.5,467C 212.342,464.175 207.175,458.008 206,448.5C 202.154,431.025 208.321,418.525 224.5,411C 237.222,406.475 248.889,400.141 259.5,392C 266.447,385.61 270.947,377.777 273,368.5C 275.756,343.011 274.756,317.677 270,292.5C 268.252,277.786 261.252,266.453 249,258.5C 247.733,254.269 249.233,251.602 253.5,250.5C 266.528,256.867 274.528,267.2 277.5,281.5C 278.66,285.292 279.66,289.126 280.5,293C 299.223,293.389 317.723,291.556 336,287.5C 338.96,287.041 341.126,288.041 342.5,290.5C 342.822,292.722 342.155,294.556 340.5,296C 321.605,301.571 302.271,304.071 282.5,303.5C 284.013,316.116 284.68,328.782 284.5,341.5C 288.964,341.402 293.297,340.569 297.5,339C 322.769,328.911 348.436,320.244 374.5,313C 375.705,314.376 377.038,315.542 378.5,316.5C 378.518,320.606 376.518,323.106 372.5,324C 361.65,327.839 350.817,331.672 340,335.5C 341.213,352.983 337.213,369.316 328,384.5C 324.799,388.036 321.299,391.203 317.5,394C 309.001,397.278 300.667,400.945 292.5,405C 285.612,410.997 283.112,418.497 285,427.5C 286.689,438.376 291.189,447.876 298.5,456C 304.132,459.435 310.132,462.102 316.5,464C 328.405,473.107 329.072,482.774 318.5,493C 307.239,494.6 295.906,494.933 284.5,494C 280.187,492.694 276.687,490.194 274,486.5C 268.124,470.403 259.457,456.07 248,443.5C 247.178,441.212 246.511,438.878 246,436.5C 245.831,429.144 245.331,421.811 244.5,414.5C 234.513,417.574 225.68,422.574 218,429.5C 214.908,437.819 215.408,445.986 219.5,454C 221.717,455.275 224.051,456.275 226.5,457C 232.937,457.872 239.27,459.205 245.5,461C 255.775,467.489 258.608,476.323 254,487.5C 251.736,490.433 248.902,492.6 245.5,494C 230.432,494.951 215.432,494.617 200.5,493C 194.364,489.915 190.198,485.081 188,478.5C 182.147,472.989 177.48,466.655 174,459.5C 175.324,444.88 176.658,430.213 178,415.5C 178.58,410.34 180.747,406.006 184.5,402.5C 193.847,396.827 202.847,390.661 211.5,384C 215.702,380.133 219.535,375.967 223,371.5C 226.991,361.626 224.824,353.46 216.5,347C 200.755,341.196 185.088,335.196 169.5,329C 148.5,323.333 127.5,317.667 106.5,312C 82.3324,301.823 60.8324,287.657 42,269.5C 20.0521,243.367 13.3854,213.7 22,180.5C 32.9401,147.771 55.1068,126.937 88.5,118C 103.031,114.395 117.698,113.395 132.5,115C 134.703,117.76 135.036,120.76 133.5,124C 114.424,129.766 98.5905,140.266 86,155.5C 79.0132,165.813 74.5132,177.146 72.5,189.5C 76.3647,190.457 79.0314,192.79 80.5,196.5C 79.6943,200.909 77.0276,202.909 72.5,202.5C 72.6408,208.735 74.4741,214.402 78,219.5C 83.4798,213.566 87.6464,214.232 90.5,221.5C 88.6516,224.129 87.1516,226.796 86,229.5C 91.8545,234.844 98.6878,238.177 106.5,239.5C 105.812,234.864 107.645,231.864 112,230.5C 113.982,230.99 115.649,231.99 117,233.5C 117.001,236.687 117.834,239.52 119.5,242C 127.943,242.342 136.277,241.508 144.5,239.5C 144.244,237.063 143.577,234.729 142.5,232.5C 143.989,226.922 147.322,225.422 152.5,228C 153.794,230.087 154.961,232.254 156,234.5C 162.391,230.221 169.224,226.888 176.5,224.5C 176.557,222.116 176.223,219.782 175.5,217.5C 176.868,212.922 179.868,211.422 184.5,213C 186.451,214.734 187.451,216.901 187.5,219.5C 190.821,218.837 194.154,218.17 197.5,217.5C 200.549,217.352 202.549,218.686 203.5,221.5 Z"/></g>
<g><path style="opacity:1" fill="#f8f1d8" d="M 426.5,144.5 C 432.889,146.194 438.556,149.194 443.5,153.5C 442.527,155.068 442.36,156.735 443,158.5C 459.952,177.235 464.952,198.902 458,223.5C 457.76,225.852 456.927,227.852 455.5,229.5C 445.712,232.571 437.545,230.238 431,222.5C 428.225,218.604 425.725,214.604 423.5,210.5C 422.89,209.609 422.557,208.609 422.5,207.5C 421.25,204.994 420.584,202.327 420.5,199.5C 421.458,199.047 422.292,198.381 423,197.5C 423.4,180.098 418.4,164.431 408,150.5C 407.503,148.19 407.337,145.857 407.5,143.5C 412.403,144.027 417.236,145.027 422,146.5C 423.876,146.475 425.376,145.809 426.5,144.5 Z"/></g>
<g><path style="opacity:1" fill="#cc6969" d="M 419.5,199.5 C 418.631,201.717 418.298,204.05 418.5,206.5C 413.224,207.293 411.391,210.293 413,215.5C 414.039,216.71 415.206,217.71 416.5,218.5C 416.007,220.806 415.674,223.139 415.5,225.5C 413.456,224.222 411.456,224.388 409.5,226C 408.004,229.149 406.504,232.316 405,235.5C 405.99,253.124 406.656,270.791 407,288.5C 408.119,293.239 410.619,297.072 414.5,300C 422.224,304.242 430.224,307.909 438.5,311C 447.965,317.764 452.132,326.931 451,338.5C 449.124,341.428 446.624,342.094 443.5,340.5C 439.518,335.384 435.185,330.551 430.5,326C 417.561,315.276 403.394,306.443 388,299.5C 387.333,298.167 386.667,296.833 386,295.5C 385.667,285.833 385.333,276.167 385,266.5C 378.462,255.793 370.962,245.793 362.5,236.5C 357.922,234.328 355.256,235.662 354.5,240.5C 356.044,244.058 358.044,247.392 360.5,250.5C 362.318,255.349 362.818,260.349 362,265.5C 360.108,269.058 357.275,271.558 353.5,273C 328.516,278.869 303.183,281.702 277.5,281.5C 274.528,267.2 266.528,256.867 253.5,250.5C 249.233,251.602 247.733,254.269 249,258.5C 261.252,266.453 268.252,277.786 270,292.5C 274.756,317.677 275.756,343.011 273,368.5C 270.947,377.777 266.447,385.61 259.5,392C 248.889,400.141 237.222,406.475 224.5,411C 208.321,418.525 202.154,431.025 206,448.5C 207.175,458.008 212.342,464.175 221.5,467C 227.922,467.927 234.255,469.261 240.5,471C 242.333,472.167 243.833,473.667 245,475.5C 246.379,479.475 245.213,482.309 241.5,484C 229.096,484.939 216.762,484.606 204.5,483C 198.606,474.05 192.106,465.55 185,457.5C 186.13,443.194 187.464,428.86 189,414.5C 190.122,412.376 191.622,410.543 193.5,409C 199.999,405.311 206.333,401.478 212.5,397.5C 219.031,400.967 226.031,402.3 233.5,401.5C 232.3,398.172 229.967,395.672 226.5,394C 224.536,392.549 223.203,390.716 222.5,388.5C 236.718,375.875 239.218,361.208 230,344.5C 224.991,339.658 220.158,334.658 215.5,329.5C 219.59,327.892 223.923,326.725 228.5,326C 229.517,324.951 229.684,323.784 229,322.5C 220.897,320.188 213.064,317.188 205.5,313.5C 198.197,297.764 198.863,282.43 207.5,267.5C 207.315,266.416 206.982,265.416 206.5,264.5C 206.859,262.629 207.859,261.129 209.5,260C 212.672,258.248 215.672,256.248 218.5,254C 206.448,254.693 196.448,259.693 188.5,269C 185.911,270.197 183.244,271.197 180.5,272C 161.418,272.251 143.085,275.751 125.5,282.5C 111.163,282.667 96.8295,282.5 82.5,282C 77.8599,281.681 73.8599,280.014 70.5,277C 68.1556,270.379 66.989,263.546 67,256.5C 64,253.833 61,253.833 58,256.5C 57.6667,260.5 57.3333,264.5 57,268.5C 44.049,257.58 36.049,243.914 33,227.5C 35.6176,222.549 39.2842,218.549 44,215.5C 44.7176,211.541 43.051,209.208 39,208.5C 35.5137,209.172 32.6803,210.839 30.5,213.5C 29.5139,209.03 29.1805,204.363 29.5,199.5C 30.3336,188.164 33.5002,177.497 39,167.5C 38.4494,182.298 42.1161,195.964 50,208.5C 60.2055,221.706 72.0388,233.206 85.5,243C 108.685,254.476 132.352,255.476 156.5,246C 163.471,241.681 170.804,238.181 178.5,235.5C 178.334,239.846 178.501,244.179 179,248.5C 181.706,251.978 184.706,252.311 188,249.5C 188.242,243.116 188.908,236.782 190,230.5C 193.037,229.291 196.204,228.457 199.5,228C 201.723,226.389 203.056,224.222 203.5,221.5C 205.5,221.167 207.5,220.833 209.5,220.5C 210.837,221.315 211.837,222.482 212.5,224C 217.488,224.087 222.488,223.92 227.5,223.5C 227.275,228.248 227.775,232.915 229,237.5C 232,241.5 235,241.5 238,237.5C 238.499,232.511 238.666,227.511 238.5,222.5C 250.217,222.603 261.883,221.936 273.5,220.5C 274.245,229.549 275.412,238.549 277,247.5C 277.465,248.931 278.299,250.097 279.5,251C 283.963,252.203 286.63,250.536 287.5,246C 284.819,236.28 284.152,226.447 285.5,216.5C 303.016,208.474 320.183,199.807 337,190.5C 336.936,201.449 338.603,212.115 342,222.5C 346.776,225.809 349.942,224.642 351.5,219C 347.995,208.759 346.829,198.259 348,187.5C 353.927,185.173 360.094,183.673 366.5,183C 384.051,185.811 396.551,179.311 404,163.5C 409.914,173.676 413.247,184.676 414,196.5C 414.928,199.035 416.762,200.035 419.5,199.5 Z"/></g>
<g><path style="opacity:1" fill="#3e3f52" d="M 386.5,189.5 C 389.325,189.081 391.491,190.081 393,192.5C 394.302,195.954 395.802,199.288 397.5,202.5C 396.734,207.15 394.068,208.65 389.5,207C 383.633,201.684 382.633,195.851 386.5,189.5 Z"/></g>
<g><path style="opacity:1" fill="#e8ab91" d="M 419.5,199.5 C 419.833,199.5 420.167,199.5 420.5,199.5C 420.584,202.327 421.25,204.994 422.5,207.5C 421.167,207.167 419.833,206.833 418.5,206.5C 418.298,204.05 418.631,201.717 419.5,199.5 Z"/></g>
<g><path style="opacity:1" fill="#7b525b" d="M 29.5,199.5 C 29.1805,204.363 29.5139,209.03 30.5,213.5C 30.44,214.043 30.1067,214.376 29.5,214.5C 28.1863,209.348 28.1863,204.348 29.5,199.5 Z"/></g>
<g><path style="opacity:1" fill="#434254" d="M 418.5,206.5 C 419.833,206.833 421.167,207.167 422.5,207.5C 422.557,208.609 422.89,209.609 423.5,210.5C 423.939,215.633 421.606,218.3 416.5,218.5C 415.206,217.71 414.039,216.71 413,215.5C 411.391,210.293 413.224,207.293 418.5,206.5 Z"/></g>
<g><path style="opacity:1" fill="#f1ae8e" d="M 423.5,210.5 C 425.725,214.604 428.225,218.604 431,222.5C 437.545,230.238 445.712,232.571 455.5,229.5C 449.652,253.57 436.652,272.57 416.5,286.5C 418.375,271.839 417.708,257.339 414.5,243C 414.923,238.231 416.256,233.731 418.5,229.5C 418.246,227.583 417.246,226.249 415.5,225.5C 415.674,223.139 416.007,220.806 416.5,218.5C 421.606,218.3 423.939,215.633 423.5,210.5 Z"/></g>
<g><path style="opacity:1" fill="#3d3f51" d="M 311.5,217.5 C 315.182,216.725 317.682,218.059 319,221.5C 319.105,227.66 320.105,233.66 322,239.5C 325.118,245.606 328.618,251.439 332.5,257C 330.868,261.126 327.868,262.459 323.5,261C 313.313,249.441 308.48,235.941 309,220.5C 310.045,219.627 310.878,218.627 311.5,217.5 Z"/></g>
<g><path style="opacity:1" fill="#3e3f52" d="M 63.5,233.5 C 72.0256,233.56 73.6923,237.06 68.5,244C 62.5557,245.72 60.0557,243.553 61,237.5C 61.6622,236.016 62.4955,234.683 63.5,233.5 Z"/></g>
<g><path style="opacity:1" fill="#704b51" d="M 360.5,250.5 C 365.878,256.232 370.544,262.565 374.5,269.5C 370.258,272.872 365.758,275.872 361,278.5C 360.322,280.598 360.489,282.598 361.5,284.5C 355.311,286.896 348.978,288.896 342.5,290.5C 341.126,288.041 338.96,287.041 336,287.5C 317.723,291.556 299.223,293.389 280.5,293C 279.66,289.126 278.66,285.292 277.5,281.5C 303.183,281.702 328.516,278.869 353.5,273C 357.275,271.558 360.108,269.058 362,265.5C 362.818,260.349 362.318,255.349 360.5,250.5 Z"/></g>
<g><path style="opacity:1" fill="#714b51" d="M 206.5,264.5 C 203.663,261.899 200.83,261.899 198,264.5C 194.333,270.334 192.167,276.667 191.5,283.5C 187.192,282.632 182.859,282.466 178.5,283C 176.963,284.11 176.297,285.61 176.5,287.5C 172.265,286.564 167.931,286.231 163.5,286.5C 163.72,282.681 161.887,281.014 158,281.5C 154.346,281.789 152.846,283.789 153.5,287.5C 148.5,287.5 143.5,287.5 138.5,287.5C 138.141,285.629 137.141,284.129 135.5,283C 132.183,282.502 128.85,282.335 125.5,282.5C 143.085,275.751 161.418,272.251 180.5,272C 183.244,271.197 185.911,270.197 188.5,269C 196.448,259.693 206.448,254.693 218.5,254C 215.672,256.248 212.672,258.248 209.5,260C 207.859,261.129 206.859,262.629 206.5,264.5 Z"/></g>
<g><path style="opacity:1" fill="#3d3f51" d="M 152.5,254.5 C 155.044,254.104 157.211,254.771 159,256.5C 159.667,260.167 159.667,263.833 159,267.5C 155.592,271.483 152.592,271.15 150,266.5C 149.333,263.5 149.333,260.5 150,257.5C 150.698,256.309 151.531,255.309 152.5,254.5 Z"/></g>
<g><path style="opacity:1" fill="#3c3f51" d="M 106.5,257.5 C 109.325,257.081 111.491,258.081 113,260.5C 113.667,263.833 113.667,267.167 113,270.5C 109.528,273.418 106.528,273.085 104,269.5C 102.773,264.938 103.607,260.938 106.5,257.5 Z"/></g>
<g><path style="opacity:1" fill="#3d4052" d="M 163.5,286.5 C 162.615,290.784 159.949,292.284 155.5,291C 154.177,290.184 153.511,289.017 153.5,287.5C 152.846,283.789 154.346,281.789 158,281.5C 161.887,281.014 163.72,282.681 163.5,286.5 Z"/></g>
<g><path style="opacity:1" fill="#f1ad8e" d="M 388.5,312.5 C 385.082,313.639 381.749,314.972 378.5,316.5C 377.038,315.542 375.705,314.376 374.5,313C 348.436,320.244 322.769,328.911 297.5,339C 293.297,340.569 288.964,341.402 284.5,341.5C 284.68,328.782 284.013,316.116 282.5,303.5C 302.271,304.071 321.605,301.571 340.5,296C 342.155,294.556 342.822,292.722 342.5,290.5C 348.978,288.896 355.311,286.896 361.5,284.5C 362.594,285.582 363.927,286.248 365.5,286.5C 369.025,285.488 372.192,283.821 375,281.5C 372.488,295.122 376.988,305.455 388.5,312.5 Z"/></g>
<g><path style="opacity:1" fill="#efad8e" d="M 163.5,286.5 C 167.931,286.231 172.265,286.564 176.5,287.5C 176.859,289.371 177.859,290.871 179.5,292C 183.145,292.719 186.812,293.219 190.5,293.5C 190.98,306.137 194.647,317.803 201.5,328.5C 201.167,328.833 200.833,329.167 200.5,329.5C 185.422,323.307 170.089,317.807 154.5,313C 133.371,310.345 113.371,304.178 94.5,294.5C 104.167,293.833 113.833,293.167 123.5,292.5C 127.514,292.666 131.514,292.499 135.5,292C 136.781,290.591 137.781,289.091 138.5,287.5C 143.5,287.5 148.5,287.5 153.5,287.5C 153.511,289.017 154.177,290.184 155.5,291C 159.949,292.284 162.615,290.784 163.5,286.5 Z"/></g>
<g><path style="opacity:1" fill="#6e5d64" d="M 123.5,292.5 C 113.833,293.167 104.167,293.833 94.5,294.5C 93.7109,294.217 93.0442,293.717 92.5,293C 102.828,292.5 113.161,292.334 123.5,292.5 Z"/></g>
<g><path style="opacity:1" fill="#724b51" d="M 205.5,313.5 C 213.064,317.188 220.897,320.188 229,322.5C 229.684,323.784 229.517,324.951 228.5,326C 223.923,326.725 219.59,327.892 215.5,329.5C 211.169,324.848 207.835,319.514 205.5,313.5 Z"/></g>
<g><path style="opacity:1" fill="#764c52" d="M 251.5,317.5 C 254.32,317.248 256.986,317.748 259.5,319C 262.306,323.258 260.973,325.591 255.5,326C 251.683,327.023 248.183,326.523 245,324.5C 244.333,323.167 244.333,321.833 245,320.5C 247.166,319.269 249.333,318.269 251.5,317.5 Z"/></g>
<g><path style="opacity:1" fill="#754c52" d="M 239.5,361.5 C 248.833,361.5 258.167,361.5 267.5,361.5C 267.67,362.822 267.337,363.989 266.5,365C 258.313,370.455 249.98,370.788 241.5,366C 239.963,364.89 239.297,363.39 239.5,361.5 Z"/></g>
<g><path style="opacity:1" fill="#724b51" d="M 222.5,388.5 C 223.203,390.716 224.536,392.549 226.5,394C 229.967,395.672 232.3,398.172 233.5,401.5C 226.031,402.3 219.031,400.967 212.5,397.5C 215.808,394.529 219.141,391.529 222.5,388.5 Z"/></g>
</svg>
