<?xml version="1.0" encoding="UTF-8"?>
<!DOCTYPE svg PUBLIC "-//W3C//DTD SVG 1.1//EN" "http://www.w3.org/Graphics/SVG/1.1/DTD/svg11.dtd">
<svg xmlns="http://www.w3.org/2000/svg" version="1.1" width="512px" height="512px" style="shape-rendering:geometricPrecision; text-rendering:geometricPrecision; image-rendering:optimizeQuality; fill-rule:evenodd; clip-rule:evenodd" xmlns:xlink="http://www.w3.org/1999/xlink">
<g><path style="opacity:1" fill="#393e51" d="M 74.5,343.5 C 85.4255,343.548 94.5922,347.548 102,355.5C 120.242,377.314 133.242,401.98 141,429.5C 141.964,436.955 141.464,444.288 139.5,451.5C 145.888,457.031 153.221,461.031 161.5,463.5C 182.208,471.846 203.874,476.346 226.5,477C 249.55,477.977 272.55,477.31 295.5,475C 329.314,468.514 358.147,453.014 382,428.5C 394.42,411.942 403.42,393.609 409,373.5C 429.013,306.812 430.346,239.812 413,172.5C 401.151,129.452 380.484,91.4521 351,58.5C 306.566,21.844 259.066,17.6774 208.5,46C 193.069,55.4179 179.402,67.0846 167.5,81C 165.455,81.4901 163.455,81.3235 161.5,80.5C 159.667,78.5043 159.167,76.171 160,73.5C 196.547,29.8709 243.047,12.0376 299.5,20C 327.671,26.1603 350.837,40.327 369,62.5C 408.919,114.564 430.919,173.564 435,239.5C 435.5,251.162 435.667,262.829 435.5,274.5C 448.947,273.813 460.114,278.48 469,288.5C 482.49,304.82 491.157,323.486 495,344.5C 501.257,370.95 500.923,397.283 494,423.5C 479.055,466.069 449.222,482.902 404.5,474C 390.672,471.253 378.672,465.087 368.5,455.5C 339.942,476.187 307.942,487.02 272.5,488C 238.659,490.402 205.325,487.402 172.5,479C 159.662,475.388 147.496,470.222 136,463.5C 126.811,480.356 112.645,490.19 93.5,493C 77.4523,494.733 61.7856,493.066 46.5,488C 18.7506,474.335 7.58394,452.169 13,421.5C 18.9335,392.929 33.1002,369.429 55.5,351C 60.9979,346.444 67.3312,343.944 74.5,343.5 Z"/></g>
<g><path style="opacity:1" fill="#f9cd88" d="M 161.5,463.5 C 164.722,441.833 161.555,421.166 152,401.5C 143.3,383.816 132.634,367.483 120,352.5C 108.675,337.919 93.8417,331.086 75.5,332C 74.7476,332.671 74.4142,333.504 74.5,334.5C 73.5655,333.432 73.2322,332.099 73.5,330.5C 75.9032,330.607 77.7365,329.607 79,327.5C 78.7328,276.341 87.8995,227.008 106.5,179.5C 112.597,181.877 118.93,182.877 125.5,182.5C 126.136,185.795 128.136,187.128 131.5,186.5C 143.889,184.278 151.056,176.944 153,164.5C 153.126,148.28 145.626,137.113 130.5,131C 134,125.5 137.5,120 141,114.5C 141.6,111.905 141.1,109.571 139.5,107.5C 141.5,104.5 143.5,101.5 145.5,98.5C 153.919,100.395 156.919,97.0619 154.5,88.5C 156.372,85.4181 158.705,82.7514 161.5,80.5C 163.455,81.3235 165.455,81.4901 167.5,81C 179.402,67.0846 193.069,55.4179 208.5,46C 259.066,17.6774 306.566,21.844 351,58.5C 380.484,91.4521 401.151,129.452 413,172.5C 430.346,239.812 429.013,306.812 409,373.5C 403.42,393.609 394.42,411.942 382,428.5C 358.147,453.014 329.314,468.514 295.5,475C 272.55,477.31 249.55,477.977 226.5,477C 203.874,476.346 182.208,471.846 161.5,463.5 Z"/></g>
<g><path style="opacity:1" fill="#fa9960" d="M 260.5,68.5 C 263.93,68.1065 267.096,68.7732 270,70.5C 270.694,79.3289 267.027,81.6622 259,77.5C 258.068,74.1769 258.568,71.1769 260.5,68.5 Z"/></g>
<g><path style="opacity:1" fill="#3d4152" d="M 340.5,81.5 C 339.711,81.7828 339.044,82.2828 338.5,83C 322.604,80.9032 315.104,87.7365 316,103.5C 318.031,112.374 323.531,116.374 332.5,115.5C 340.279,116.529 345.779,113.529 349,106.5C 349.333,101.833 349.667,97.1667 350,92.5C 350.995,91.9341 351.828,91.2674 352.5,90.5C 358.71,91.3223 361.377,94.989 360.5,101.5C 357.922,118.236 348.089,126.569 331,126.5C 316.978,125.652 308.644,118.319 306,104.5C 304.059,85.9592 312.226,75.6259 330.5,73.5C 337.273,72.2228 340.606,74.8895 340.5,81.5 Z"/></g>
<g><path style="opacity:1" fill="#f7945d" d="M 340.5,81.5 C 345.661,83.0001 349.661,86.0001 352.5,90.5C 351.828,91.2674 350.995,91.9341 350,92.5C 349.667,97.1667 349.333,101.833 349,106.5C 345.779,113.529 340.279,116.529 332.5,115.5C 323.531,116.374 318.031,112.374 316,103.5C 315.104,87.7365 322.604,80.9032 338.5,83C 339.044,82.2828 339.711,81.7828 340.5,81.5 Z"/></g>
<g><path style="opacity:1" fill="#faf9f9" d="M 206.5,84.5 C 236.205,84.0275 249.038,98.3608 245,127.5C 232.265,145.571 218.765,163.071 204.5,180C 187.579,189.932 173.746,186.765 163,170.5C 159.616,160.086 159.949,149.752 164,139.5C 170.093,120.137 180.593,103.637 195.5,90C 199.259,88.1207 202.925,86.2874 206.5,84.5 Z"/></g>
<g><path style="opacity:1" fill="#3b3f50" d="M 154.5,88.5 C 156.919,97.0619 153.919,100.395 145.5,98.5C 143.082,96.1221 142.915,93.4554 145,90.5C 147.739,87.5858 150.906,86.9192 154.5,88.5 Z"/></g>
<g><path style="opacity:1" fill="#3a3f51" d="M 139.5,107.5 C 141.1,109.571 141.6,111.905 141,114.5C 137.5,120 134,125.5 130.5,131C 145.626,137.113 153.126,148.28 153,164.5C 151.056,176.944 143.889,184.278 131.5,186.5C 128.136,187.128 126.136,185.795 125.5,182.5C 125.393,180.097 126.393,178.264 128.5,177C 137.946,175.641 142.946,170.141 143.5,160.5C 141.386,150.384 135.386,143.717 125.5,140.5C 117.824,152.852 111.491,165.852 106.5,179.5C 87.8995,227.008 78.7328,276.341 79,327.5C 77.7365,329.607 75.9032,330.607 73.5,330.5C 71.629,330.141 70.129,329.141 69,327.5C 67.7618,247.905 88.7618,174.905 132,108.5C 134.382,106.548 136.882,106.215 139.5,107.5 Z"/></g>
<g><path style="opacity:1" fill="#f7945d" d="M 125.5,182.5 C 118.93,182.877 112.597,181.877 106.5,179.5C 111.491,165.852 117.824,152.852 125.5,140.5C 135.386,143.717 141.386,150.384 143.5,160.5C 142.946,170.141 137.946,175.641 128.5,177C 126.393,178.264 125.393,180.097 125.5,182.5 Z"/></g>
<g><path style="opacity:1" fill="#3c4052" d="M 348.5,213.5 C 346.667,211.504 346.167,209.171 347,206.5C 361.339,195.11 367.673,180.444 366,162.5C 362.901,158.034 358.735,156.534 353.5,158C 317.861,165.641 289.861,184.474 269.5,214.5C 274.742,226.464 278.908,238.798 282,251.5C 286.911,254.192 292.077,256.192 297.5,257.5C 318.506,266.41 340.506,270.244 363.5,269C 369.103,268.178 374.436,266.511 379.5,264C 387.037,254.224 385.704,245.891 375.5,239C 361.255,232.438 346.255,229.105 330.5,229C 317.171,228.5 303.837,228.333 290.5,228.5C 282.514,229.002 280.514,225.835 284.5,219C 302.145,217.304 319.812,217.137 337.5,218.5C 353.752,219.567 369.086,224.067 383.5,232C 397.287,244.733 397.954,258.066 385.5,272C 379.193,276.316 372.193,278.649 364.5,279C 353.461,279.819 342.461,279.486 331.5,278C 316.743,275.064 302.41,271.064 288.5,266C 310.739,296.545 323.406,330.711 326.5,368.5C 326.189,382.313 319.189,388.479 305.5,387C 293.565,379.733 284.399,369.899 278,357.5C 271.955,345.7 267.289,333.367 264,320.5C 260.679,303.587 258.013,286.587 256,269.5C 238.811,309.686 212.978,343.186 178.5,370C 163.342,375.338 152.842,370.505 147,355.5C 146.277,346.721 147.943,338.388 152,330.5C 163.522,307.146 178.689,286.48 197.5,268.5C 205.949,260.771 214.615,253.271 223.5,246C 230.219,245.274 232.219,248.107 229.5,254.5C 198.456,277.038 174.956,305.705 159,340.5C 153.756,351.666 156.923,358.999 168.5,362.5C 173.213,361.643 177.213,359.477 180.5,356C 206.294,333.523 226.628,307.023 241.5,276.5C 243.734,271.304 246.067,266.137 248.5,261C 240.414,250.982 236.081,239.482 235.5,226.5C 206.311,218.466 177.645,219.966 149.5,231C 135.647,236.529 124.48,245.362 116,257.5C 114.142,263.581 115.975,268.081 121.5,271C 141.457,270.193 161.29,268.027 181,264.5C 183.954,264.955 185.788,266.622 186.5,269.5C 186.607,271.903 185.607,273.736 183.5,275C 162.278,278.324 140.945,280.324 119.5,281C 105.459,274.742 101.625,264.575 108,250.5C 120.178,235 135.678,224.167 154.5,218C 175.617,211.216 197.117,209.716 219,213.5C 219.5,213.167 220,212.833 220.5,212.5C 213.422,195.562 218.089,183.062 234.5,175C 252.842,171.331 264.675,178.498 270,196.5C 292.62,169.434 321.454,153.1 356.5,147.5C 370.071,148.238 377.071,155.405 377.5,169C 375.748,186.504 368.414,201.171 355.5,213C 353.214,214.664 350.881,214.83 348.5,213.5 Z"/></g>
<g><path style="opacity:1" fill="#d2826f" d="M 348.5,213.5 C 344.983,215.424 341.316,217.091 337.5,218.5C 319.812,217.137 302.145,217.304 284.5,219C 280.514,225.835 282.514,229.002 290.5,228.5C 293.615,237.961 295.948,247.627 297.5,257.5C 292.077,256.192 286.911,254.192 282,251.5C 278.908,238.798 274.742,226.464 269.5,214.5C 289.861,184.474 317.861,165.641 353.5,158C 358.735,156.534 362.901,158.034 366,162.5C 367.673,180.444 361.339,195.11 347,206.5C 346.167,209.171 346.667,211.504 348.5,213.5 Z"/></g>
<g><path style="opacity:1" fill="#f6b294" d="M 239.5,183.5 C 255.168,183.658 261.334,191.325 258,206.5C 253.488,214.568 246.655,217.401 237.5,215C 228.97,210.774 225.803,203.941 228,194.5C 230.412,189.252 234.246,185.586 239.5,183.5 Z"/></g>
<g><path style="opacity:1" fill="#f4b194" d="M 258.5,220.5 C 260.017,220.511 261.184,221.177 262,222.5C 268.375,232.282 271.041,242.948 270,254.5C 266.832,258.533 262.999,259.367 258.5,257C 250.173,248.176 245.84,237.676 245.5,225.5C 250.602,225.581 254.935,223.915 258.5,220.5 Z"/></g>
<g><path style="opacity:1" fill="#d2826f" d="M 241.5,276.5 C 236.488,269.815 232.488,262.482 229.5,254.5C 232.219,248.107 230.219,245.274 223.5,246C 214.615,253.271 205.949,260.771 197.5,268.5C 197.083,267.876 196.416,267.543 195.5,267.5C 192.481,268.17 189.481,268.837 186.5,269.5C 185.788,266.622 183.954,264.955 181,264.5C 161.29,268.027 141.457,270.193 121.5,271C 115.975,268.081 114.142,263.581 116,257.5C 124.48,245.362 135.647,236.529 149.5,231C 177.645,219.966 206.311,218.466 235.5,226.5C 236.081,239.482 240.414,250.982 248.5,261C 246.067,266.137 243.734,271.304 241.5,276.5 Z"/></g>
<g><path style="opacity:1" fill="#f8b395" d="M 290.5,228.5 C 303.837,228.333 317.171,228.5 330.5,229C 346.255,229.105 361.255,232.438 375.5,239C 385.704,245.891 387.037,254.224 379.5,264C 374.436,266.511 369.103,268.178 363.5,269C 340.506,270.244 318.506,266.41 297.5,257.5C 295.948,247.627 293.615,237.961 290.5,228.5 Z"/></g>
<g><path style="opacity:1" fill="#f8b395" d="M 229.5,254.5 C 232.488,262.482 236.488,269.815 241.5,276.5C 226.628,307.023 206.294,333.523 180.5,356C 177.213,359.477 173.213,361.643 168.5,362.5C 156.923,358.999 153.756,351.666 159,340.5C 174.956,305.705 198.456,277.038 229.5,254.5 Z"/></g>
<g><path style="opacity:1" fill="#f5b294" d="M 268.5,280.5 C 267.515,276.366 267.182,272.032 267.5,267.5C 269.84,266.914 272.007,265.914 274,264.5C 277.193,267.725 280.026,271.225 282.5,275C 277.607,276.351 272.94,278.185 268.5,280.5 Z"/></g>
<g><path style="opacity:1" fill="#a17e75" d="M 267.5,267.5 C 267.182,272.032 267.515,276.366 268.5,280.5C 268.44,281.043 268.107,281.376 267.5,281.5C 266.188,276.682 266.188,272.015 267.5,267.5 Z"/></g>
<g><path style="opacity:1" fill="#f5b294" d="M 281.5,285.5 C 284.187,285.336 286.854,285.503 289.5,286C 292.547,290.592 295.214,295.426 297.5,300.5C 288.529,301.713 280.196,304.713 272.5,309.5C 270.238,304.596 268.905,299.43 268.5,294C 272.219,290.146 276.553,287.313 281.5,285.5 Z"/></g>
<g><path style="opacity:1" fill="#f5b193" d="M 292.5,311.5 C 296.106,311.211 299.606,311.544 303,312.5C 305.753,318.591 307.587,324.924 308.5,331.5C 298.854,331.715 290.187,334.715 282.5,340.5C 279.062,334.527 276.395,328.193 274.5,321.5C 276.431,319.196 278.764,317.362 281.5,316C 285.343,314.639 289.009,313.139 292.5,311.5 Z"/></g>
<g><path style="opacity:1" fill="#f8955d" d="M 161.5,463.5 C 153.221,461.031 145.888,457.031 139.5,451.5C 141.464,444.288 141.964,436.955 141,429.5C 133.242,401.98 120.242,377.314 102,355.5C 94.5922,347.548 85.4255,343.548 74.5,343.5C 74.5,340.5 74.5,337.5 74.5,334.5C 74.4142,333.504 74.7476,332.671 75.5,332C 93.8417,331.086 108.675,337.919 120,352.5C 132.634,367.483 143.3,383.816 152,401.5C 161.555,421.166 164.722,441.833 161.5,463.5 Z"/></g>
<g><path style="opacity:1" fill="#f6b294" d="M 303.5,341.5 C 306.5,341.5 309.5,341.5 312.5,341.5C 314.723,352.73 315.556,364.063 315,375.5C 312.757,377.282 310.257,377.782 307.5,377C 299.104,369.442 292.437,360.609 287.5,350.5C 288.748,348.541 290.415,347.041 292.5,346C 296.266,344.441 299.932,342.941 303.5,341.5 Z"/></g>
<g><path style="opacity:1" fill="#f8cc88" d="M 70.5,354.5 C 81.5834,352.804 90.4167,356.471 97,365.5C 112.167,383.828 123.167,404.494 130,427.5C 133.843,455.999 122.01,474.166 94.5,482C 81.388,483.1 68.388,482.433 55.5,480C 28.5494,469.012 18.0494,449.179 24,420.5C 30.9404,392.223 46.4404,370.223 70.5,354.5 Z"/></g>
<g><path style="opacity:1" fill="#fa975e" d="M 79.5,381.5 C 86.5868,379.923 89.7534,382.59 89,389.5C 85.8169,391.523 82.3169,392.023 78.5,391C 75.7651,387.508 76.0985,384.342 79.5,381.5 Z"/></g>
<g><path style="opacity:1" fill="#3d4152" d="M 240.5,432.5 C 238.629,432.141 237.129,431.141 236,429.5C 233.88,413.66 224.713,406.16 208.5,407C 191.939,412.954 186.106,424.454 191,441.5C 199.304,451.539 209.804,454.706 222.5,451C 224.983,449.674 227.483,448.507 230,447.5C 231.833,447.519 233.333,448.185 234.5,449.5C 236.202,453.164 235.202,455.997 231.5,458C 213.625,466.236 197.791,463.403 184,449.5C 174.476,430.764 177.976,414.931 194.5,402C 208.183,394.432 221.516,395.099 234.5,404C 242.794,411.067 246.127,419.9 244.5,430.5C 243.423,431.705 242.09,432.372 240.5,432.5 Z"/></g>
<g><path style="opacity:1" fill="#f8955d" d="M 240.5,432.5 C 239.35,438.467 237.35,444.134 234.5,449.5C 233.333,448.185 231.833,447.519 230,447.5C 227.483,448.507 224.983,449.674 222.5,451C 209.804,454.706 199.304,451.539 191,441.5C 186.106,424.454 191.939,412.954 208.5,407C 224.713,406.16 233.88,413.66 236,429.5C 237.129,431.141 238.629,432.141 240.5,432.5 Z"/></g>
<g><path style="opacity:1" fill="#3c4052" d="M 69.5,454.5 C 69.2965,452.61 69.9632,451.11 71.5,450C 78.4931,448.032 81.8264,443.366 81.5,436C 79.748,424.123 73.0814,419.79 61.5,423C 51.5831,430.775 51.0831,438.942 60,447.5C 60.3845,449.197 60.2178,450.863 59.5,452.5C 54.5011,454.824 50.3344,453.491 47,448.5C 40.2396,431.788 45.073,419.621 61.5,412C 75.8844,410.272 85.7178,416.105 91,429.5C 92.0339,436.797 91.0339,443.797 88,450.5C 84.4598,456.353 79.2932,459.186 72.5,459C 70.8588,457.871 69.8588,456.371 69.5,454.5 Z"/></g>
<g><path style="opacity:1" fill="#f5f5f6" d="M 69.5,454.5 C 66.1667,453.833 62.8333,453.167 59.5,452.5C 60.2178,450.863 60.3845,449.197 60,447.5C 51.0831,438.942 51.5831,430.775 61.5,423C 73.0814,419.79 79.748,424.123 81.5,436C 81.8264,443.366 78.4931,448.032 71.5,450C 69.9632,451.11 69.2965,452.61 69.5,454.5 Z"/></g>
<g><path style="opacity:1" fill="#fa985f" d="M 290.5,427.5 C 296.71,428.597 299.544,432.264 299,438.5C 292.767,442.011 288.601,440.177 286.5,433C 287.007,430.455 288.341,428.621 290.5,427.5 Z"/></g>
</svg>
