<?xml version="1.0" encoding="UTF-8"?>
<!DOCTYPE svg PUBLIC "-//W3C//DTD SVG 1.1//EN" "http://www.w3.org/Graphics/SVG/1.1/DTD/svg11.dtd">
<svg xmlns="http://www.w3.org/2000/svg" version="1.1" width="512px" height="512px" style="shape-rendering:geometricPrecision; text-rendering:geometricPrecision; image-rendering:optimizeQuality; fill-rule:evenodd; clip-rule:evenodd" xmlns:xlink="http://www.w3.org/1999/xlink">
<g><path style="opacity:1" fill="#393e52" d="M 338.5,331.5 C 339.167,331.5 339.5,331.167 339.5,330.5C 341.64,328.3 343.14,325.633 344,322.5C 346.774,311.136 350.607,300.136 355.5,289.5C 348.058,288.136 340.724,288.636 333.5,291C 327.758,292.803 322.091,294.803 316.5,297C 300.329,306.586 283.996,315.92 267.5,325C 259.392,328.536 251.059,331.369 242.5,333.5C 243.938,340.755 244.605,348.088 244.5,355.5C 271.376,351.264 297.042,343.098 321.5,331C 324.813,330.136 327.146,331.302 328.5,334.5C 328.739,336.467 328.406,338.301 327.5,340C 301.619,353.349 274.286,362.183 245.5,366.5C 244.606,389.356 237.106,409.689 223,427.5C 208.655,440.844 198.322,456.844 192,475.5C 189.029,479.092 185.696,479.425 182,476.5C 170.782,460.741 167.115,443.408 171,424.5C 160.978,432.927 149.478,438.26 136.5,440.5C 131.699,439.866 129.865,437.2 131,432.5C 133.194,429.446 134.861,426.112 136,422.5C 136.333,412.833 136.667,403.167 137,393.5C 137.327,388.209 138.16,383.042 139.5,378C 117.395,373.729 96.3949,376.729 76.5,387C 68.1415,396.259 64.9748,407.093 67,419.5C 71.3933,435.56 81.56,446.06 97.5,451C 111.256,454.636 125.256,456.303 139.5,456C 142.512,458.221 143.179,461.054 141.5,464.5C 112.289,483.687 81.956,485.854 50.5,471C 24.031,452.883 12.531,427.716 16,395.5C 20.7807,364.434 34.614,338.267 57.5,317C 67.3062,308.93 77.6395,301.596 88.5,295C 104.414,287.141 120.414,279.474 136.5,272C 146.026,266.405 155.026,260.071 163.5,253C 177.804,237.695 192.471,222.695 207.5,208C 240.222,179.081 278.555,163.414 322.5,161C 343.203,160.19 363.87,159.19 384.5,158C 389.892,156.47 394.892,154.137 399.5,151C 406.627,145.541 413.461,139.708 420,133.5C 428.979,119.896 428.646,106.562 419,93.5C 412.962,89.0407 406.129,86.5407 398.5,86C 375.67,85.1622 354.336,90.4956 334.5,102C 317.777,114.389 300.777,126.389 283.5,138C 265.352,148.074 246.686,157.074 227.5,165C 221.833,176 213.5,184.333 202.5,190C 198.943,191.408 195.276,192.408 191.5,193C 175.159,193.297 158.826,193.797 142.5,194.5C 134.149,195.407 127.649,192.407 123,185.5C 119.482,178.005 119.816,170.672 124,163.5C 132.062,154.372 139.395,144.705 146,134.5C 166.493,111.535 191.826,103.868 222,111.5C 226.599,111.226 231.099,110.392 235.5,109C 266.301,93.1846 294.634,73.8512 320.5,51C 363.92,23.878 408.253,22.5447 453.5,47C 482.752,67.3378 496.752,95.5044 495.5,131.5C 494.837,153.31 491.337,174.643 485,195.5C 481.861,203.112 478.194,210.446 474,217.5C 466.485,229.01 458.985,240.51 451.5,252C 456.724,281.076 453.557,309.242 442,336.5C 436.559,346.947 431.559,357.614 427,368.5C 422.93,380.044 419.263,391.711 416,403.5C 414.687,404.573 413.187,405.24 411.5,405.5C 397.077,400.071 388.41,389.737 385.5,374.5C 363.572,393.631 338.238,405.464 309.5,410C 307.99,408.649 306.99,406.982 306.5,405C 308.533,401.102 310.7,397.268 313,393.5C 315.788,379.01 320.122,365.01 326,351.5C 330.022,344.665 334.189,337.999 338.5,331.5 Z"/></g>
<g><path style="opacity:1" fill="#88a0c6" d="M 377.5,40.5 C 402.298,39.2254 425.631,44.3921 447.5,56C 466.612,68.1042 478.112,85.2709 482,107.5C 459.546,67.0233 425.379,50.1899 379.5,57C 363.812,61.7125 349.812,69.3791 337.5,80C 317.297,101.598 294.297,119.598 268.5,134C 255.842,140.27 243.175,146.436 230.5,152.5C 229.672,148.204 229.172,143.871 229,139.5C 226,135.5 223,135.5 220,139.5C 219.667,145.5 219.333,151.5 219,157.5C 213.331,169.172 204.498,177.338 192.5,182C 173.492,182.572 154.492,182.905 135.5,183C 131.329,179.146 130.496,174.646 133,169.5C 141.151,159.86 148.818,149.86 156,139.5C 173.928,121.14 195.428,115.14 220.5,121.5C 233.181,121.552 244.848,118.052 255.5,111C 281.56,95.2725 306.227,77.6059 329.5,58C 344.282,48.6851 360.282,42.8517 377.5,40.5 Z"/></g>
<g><path style="opacity:1" fill="#def0f7" d="M 389.5,64.5 C 431.146,63.8943 460.312,82.5609 477,120.5C 484.834,145.158 483.834,169.491 474,193.5C 460.989,219.531 444.989,243.531 426,265.5C 424.523,255.8 423.19,246.133 422,236.5C 448.265,203.337 458.265,165.67 452,123.5C 443.913,91.0272 423.08,74.6939 389.5,74.5C 384.12,74.5355 378.786,75.0355 373.5,76C 366.781,77.8064 360.114,79.473 353.5,81C 364.46,73.0169 376.46,67.5169 389.5,64.5 Z"/></g>
<g><path style="opacity:1" fill="#88a1c7" d="M 368.5,268.5 C 339.303,268.77 311.97,275.936 286.5,290C 271.88,301.48 255.88,310.646 238.5,317.5C 236.524,312.591 233.357,311.591 229,314.5C 228.833,315.667 228.667,316.833 228.5,318C 236.624,344.554 236.458,371.054 228,397.5C 225.363,404.777 221.696,411.444 217,417.5C 203.212,429.747 192.878,444.414 186,461.5C 180.913,451.778 179.246,441.444 181,430.5C 184.721,417.97 184.054,405.637 179,393.5C 178.333,386.5 178.333,379.5 179,372.5C 180.196,367.777 182.196,363.443 185,359.5C 196.734,349.031 203.4,336.031 205,320.5C 200.793,316.177 197.626,316.843 195.5,322.5C 163.962,320.238 134.629,327.072 107.5,343C 105.382,344.049 103.716,345.549 102.5,347.5C 78.3312,362.184 61.1646,382.851 51,409.5C 45.6493,422.634 42.9826,436.301 43,450.5C 28.3565,433.882 23.0231,414.549 27,392.5C 28.3316,388.171 29.4982,383.838 30.5,379.5C 33.8867,381.275 37.3867,382.942 41,384.5C 43.1875,383.941 43.8542,382.607 43,380.5C 39.5587,376.898 36.7253,372.898 34.5,368.5C 41.02,352.316 50.6867,338.316 63.5,326.5C 67.1274,331.028 70.794,335.695 74.5,340.5C 77.4061,341.946 78.7394,340.946 78.5,337.5C 76.2686,331.01 74.9353,324.343 74.5,317.5C 84.8734,309.309 96.2068,302.643 108.5,297.5C 109.376,297.369 110.043,297.702 110.5,298.5C 112.746,303.326 115.246,307.992 118,312.5C 121.189,315.493 123.022,314.826 123.5,310.5C 122.091,304.225 121.091,297.892 120.5,291.5C 135.774,285.536 149.774,277.536 162.5,267.5C 166.308,273.77 170.141,280.103 174,286.5C 177.189,289.493 179.022,288.826 179.5,284.5C 177.408,275.898 175.742,267.232 174.5,258.5C 183.161,248.506 192.161,238.839 201.5,229.5C 205.716,242.599 211.55,254.933 219,266.5C 221.856,269.435 223.689,268.935 224.5,265C 219.502,249.509 216.169,233.676 214.5,217.5C 224.685,207.654 236.019,199.321 248.5,192.5C 254.584,208.893 261.751,224.893 270,240.5C 273.085,245.672 276.419,250.672 280,255.5C 282.532,258.372 284.365,258.039 285.5,254.5C 277.486,231.098 272.153,207.098 269.5,182.5C 286.883,176.023 304.883,172.356 323.5,171.5C 323.973,183.7 325.806,195.7 329,207.5C 330.549,210.003 332.216,210.003 334,207.5C 335.011,194.914 337.177,182.581 340.5,170.5C 356.569,170.967 372.569,170.3 388.5,168.5C 385.001,190.272 388.835,191.939 400,173.5C 402.403,169.365 404.237,165.032 405.5,160.5C 413.411,153.765 421.244,146.765 429,139.5C 434.449,131.717 437.449,123.05 438,113.5C 447.462,149.135 443.129,183.135 425,215.5C 422.732,219.051 420.232,222.384 417.5,225.5C 416.48,222.258 414.813,219.425 412.5,217C 406.447,216.056 404.28,218.556 406,224.5C 433.382,308.058 406.216,365.391 324.5,396.5C 325.999,385.824 328.499,375.158 332,364.5C 339,352.167 346,339.833 353,327.5C 356.416,316.42 360.083,305.42 364,294.5C 369.552,284.055 376.552,274.722 385,266.5C 385.993,260.498 383.493,258.332 377.5,260C 374.631,263.038 371.631,265.871 368.5,268.5 Z"/></g>
<g><path style="opacity:1" fill="#4d5f73" d="M 181.5,138.5 C 185.733,137.742 188.399,139.409 189.5,143.5C 187.888,147.488 184.888,149.821 180.5,150.5C 176.233,149.398 174.733,146.731 176,142.5C 177.812,141.023 179.645,139.69 181.5,138.5 Z"/></g>
<g><path style="opacity:1" fill="#4b5d71" d="M 405.5,160.5 C 404.237,165.032 402.403,169.365 400,173.5C 388.835,191.939 385.001,190.272 388.5,168.5C 394.314,166.093 399.98,163.426 405.5,160.5 Z"/></g>
<g><path style="opacity:1" fill="#4b5e71" d="M 340.5,170.5 C 337.177,182.581 335.011,194.914 334,207.5C 332.216,210.003 330.549,210.003 329,207.5C 325.806,195.7 323.973,183.7 323.5,171.5C 329.227,171.74 334.894,171.407 340.5,170.5 Z"/></g>
<g><path style="opacity:1" fill="#4b5e71" d="M 269.5,182.5 C 272.153,207.098 277.486,231.098 285.5,254.5C 284.365,258.039 282.532,258.372 280,255.5C 276.419,250.672 273.085,245.672 270,240.5C 261.751,224.893 254.584,208.893 248.5,192.5C 255.049,188.417 262.049,185.084 269.5,182.5 Z"/></g>
<g><path style="opacity:1" fill="#4c5e72" d="M 383.5,201.5 C 387.58,201.081 389.58,202.914 389.5,207C 389.538,211.603 387.704,215.103 384,217.5C 381.116,216.576 379.949,214.576 380.5,211.5C 380.702,207.898 381.702,204.565 383.5,201.5 Z"/></g>
<g><path style="opacity:1" fill="#4c5e72" d="M 214.5,217.5 C 216.169,233.676 219.502,249.509 224.5,265C 223.689,268.935 221.856,269.435 219,266.5C 211.55,254.933 205.716,242.599 201.5,229.5C 205.207,224.792 209.54,220.792 214.5,217.5 Z"/></g>
<g><path style="opacity:1" fill="#4c5e72" d="M 335.5,230.5 C 338.292,230.452 340.125,231.785 341,234.5C 341.667,237.833 341.667,241.167 341,244.5C 338.23,247.28 335.896,246.946 334,243.5C 332.978,238.871 333.478,234.538 335.5,230.5 Z"/></g>
<g><path style="opacity:1" fill="#4c5e72" d="M 174.5,258.5 C 175.742,267.232 177.408,275.898 179.5,284.5C 179.022,288.826 177.189,289.493 174,286.5C 170.141,280.103 166.308,273.77 162.5,267.5C 166.495,264.507 170.495,261.507 174.5,258.5 Z"/></g>
<g><path style="opacity:1" fill="#4b5d70" d="M 368.5,268.5 C 366.745,271.436 364.745,274.269 362.5,277C 339.561,277.313 318.227,283.313 298.5,295C 281.121,307.689 262.121,317.189 241.5,323.5C 239.749,321.936 238.749,319.936 238.5,317.5C 255.88,310.646 271.88,301.48 286.5,290C 311.97,275.936 339.303,268.77 368.5,268.5 Z"/></g>
<g><path style="opacity:1" fill="#dff0f8" d="M 339.5,330.5 C 338.833,330.5 338.5,330.833 338.5,331.5C 335.177,332.492 331.844,333.492 328.5,334.5C 327.146,331.302 324.813,330.136 321.5,331C 297.042,343.098 271.376,351.264 244.5,355.5C 244.605,348.088 243.938,340.755 242.5,333.5C 251.059,331.369 259.392,328.536 267.5,325C 283.996,315.92 300.329,306.586 316.5,297C 322.091,294.803 327.758,292.803 333.5,291C 340.724,288.636 348.058,288.136 355.5,289.5C 350.607,300.136 346.774,311.136 344,322.5C 343.14,325.633 341.64,328.3 339.5,330.5 Z"/></g>
<g><path style="opacity:1" fill="#4c5f73" d="M 120.5,291.5 C 121.091,297.892 122.091,304.225 123.5,310.5C 123.022,314.826 121.189,315.493 118,312.5C 115.246,307.992 112.746,303.326 110.5,298.5C 110.043,297.702 109.376,297.369 108.5,297.5C 112.187,294.99 116.187,292.99 120.5,291.5 Z"/></g>
<g><path style="opacity:1" fill="#4d6074" d="M 181.5,294.5 C 188.716,296.772 191.716,301.605 190.5,309C 187.364,310.041 184.864,309.207 183,306.5C 181.556,303.945 180.389,301.279 179.5,298.5C 179.752,296.927 180.418,295.594 181.5,294.5 Z"/></g>
<g><path style="opacity:1" fill="#4d5f73" d="M 74.5,317.5 C 74.9353,324.343 76.2686,331.01 78.5,337.5C 78.7394,340.946 77.4061,341.946 74.5,340.5C 70.794,335.695 67.1274,331.028 63.5,326.5C 66.9433,323.271 70.61,320.271 74.5,317.5 Z"/></g>
<g><path style="opacity:1" fill="#4c5e72" d="M 195.5,322.5 C 194.664,326.172 193.331,329.672 191.5,333C 172.24,335.329 152.906,336.995 133.5,338C 122.802,340.018 112.469,343.184 102.5,347.5C 103.716,345.549 105.382,344.049 107.5,343C 134.629,327.072 163.962,320.238 195.5,322.5 Z"/></g>
<g><path style="opacity:1" fill="#deeff7" d="M 166.5,345.5 C 172.176,345.334 177.843,345.501 183.5,346C 178.728,351.093 174.394,356.426 170.5,362C 152.564,366.461 134.398,367.628 116,365.5C 107.723,365.876 99.556,366.709 91.5,368C 101.376,359.394 112.709,353.394 125.5,350C 139.218,347.666 152.885,346.166 166.5,345.5 Z"/></g>
<g><path style="opacity:1" fill="#4c5e72" d="M 34.5,368.5 C 36.7253,372.898 39.5587,376.898 43,380.5C 43.8542,382.607 43.1875,383.941 41,384.5C 37.3867,382.942 33.8867,381.275 30.5,379.5C 31.8579,375.752 33.1913,372.086 34.5,368.5 Z"/></g>
</svg>
