<?xml version="1.0" encoding="UTF-8"?>
<!DOCTYPE svg PUBLIC "-//W3C//DTD SVG 1.1//EN" "http://www.w3.org/Graphics/SVG/1.1/DTD/svg11.dtd">
<svg xmlns="http://www.w3.org/2000/svg" version="1.1" width="512px" height="512px" style="shape-rendering:geometricPrecision; text-rendering:geometricPrecision; image-rendering:optimizeQuality; fill-rule:evenodd; clip-rule:evenodd" xmlns:xlink="http://www.w3.org/1999/xlink">
<g><path style="opacity:1" fill="#3a4052" d="M 354.5,59.5 C 352.277,61.7791 349.611,62.6125 346.5,62C 321.126,51.2085 295.126,42.2085 268.5,35C 243.833,34.3333 219.167,34.3333 194.5,35C 155.641,71.8521 118.974,110.519 84.5,151C 81.9218,152.813 79.2551,152.98 76.5,151.5C 75.1147,148.454 75.2814,145.454 77,142.5C 113.066,101.431 150.899,61.9311 190.5,24C 218.207,23.0433 245.874,23.3766 273.5,25C 301.459,32.0938 328.292,41.9271 354,54.5C 354.494,56.1341 354.66,57.8008 354.5,59.5 Z"/></g>
<g><path style="opacity:1" fill="#f9f1d9" d="M 354.5,59.5 C 358.065,61.1157 361.731,62.4491 365.5,63.5C 361.832,72.8383 358.165,82.1716 354.5,91.5C 315.095,72.8165 273.762,66.3165 230.5,72C 166.63,84.1581 124.463,120.991 104,182.5C 100.106,201.135 99.6055,219.802 102.5,238.5C 99.9272,239.555 97.2605,239.722 94.5,239C 90.1667,236.667 85.8333,234.333 81.5,232C 79.5,231.333 77.5,231.333 75.5,232C 67.3454,241.121 58.8454,249.955 50,258.5C 44.6335,253.468 39.6335,248.135 35,242.5C 34.3333,233.833 34.3333,225.167 35,216.5C 44.6431,201.381 55.1431,186.881 66.5,173C 68.1667,172.833 69.8333,172.667 71.5,172.5C 84.332,177.367 95.1653,174.7 104,164.5C 105.539,160.195 104.206,157.528 100,156.5C 96.599,158.219 93.4324,160.386 90.5,163C 82.9572,163.592 75.6239,163.092 68.5,161.5C 71.5466,158.455 74.2133,155.122 76.5,151.5C 79.2551,152.98 81.9218,152.813 84.5,151C 118.974,110.519 155.641,71.8521 194.5,35C 219.167,34.3333 243.833,34.3333 268.5,35C 295.126,42.2085 321.126,51.2085 346.5,62C 349.611,62.6125 352.277,61.7791 354.5,59.5 Z"/></g>
<g><path style="opacity:1" fill="#3a3f52" d="M 68.5,161.5 C 75.6239,163.092 82.9572,163.592 90.5,163C 93.4324,160.386 96.599,158.219 100,156.5C 104.206,157.528 105.539,160.195 104,164.5C 95.1653,174.7 84.332,177.367 71.5,172.5C 69.8333,172.667 68.1667,172.833 66.5,173C 55.1431,186.881 44.6431,201.381 35,216.5C 34.3333,225.167 34.3333,233.833 35,242.5C 39.6335,248.135 44.6335,253.468 50,258.5C 58.8454,249.955 67.3454,241.121 75.5,232C 77.5,231.333 79.5,231.333 81.5,232C 85.8333,234.333 90.1667,236.667 94.5,239C 97.2605,239.722 99.9272,239.555 102.5,238.5C 108.856,237.607 115.189,236.607 121.5,235.5C 126.932,234.233 132.432,233.233 138,232.5C 144.698,233.153 146.198,236.319 142.5,242C 137.882,242.353 133.548,243.519 129.5,245.5C 131.872,253.289 135.205,260.622 139.5,267.5C 148.278,264.281 156.278,259.781 163.5,254C 171.167,252 173.5,254.667 170.5,262C 162.599,268.119 153.933,272.952 144.5,276.5C 150.792,285.792 158.458,293.792 167.5,300.5C 179.573,292.76 187.906,282.093 192.5,268.5C 193.59,265.733 194.59,262.899 195.5,260C 188.217,250.834 184.051,240.334 183,228.5C 180.579,226.303 177.745,224.97 174.5,224.5C 166.289,221.172 157.622,219.672 148.5,220C 145.022,217.294 144.689,214.294 147.5,211C 157.33,210.052 166.996,210.885 176.5,213.5C 178.89,215.02 181.557,216.02 184.5,216.5C 186.695,209.882 184.695,204.882 178.5,201.5C 163.214,190.924 146.214,185.424 127.5,185C 126.189,188.354 125.356,191.854 125,195.5C 124.667,203.5 124.333,211.5 124,219.5C 122.871,221.141 121.371,222.141 119.5,222.5C 117.61,222.703 116.11,222.037 115,220.5C 112.839,167.981 134.339,128.481 179.5,102C 203.928,88.518 230.095,82.018 258,82.5C 285.483,81.3305 311.983,85.8305 337.5,96C 339.229,97.7889 339.896,99.9556 339.5,102.5C 338.089,103.908 336.423,104.908 334.5,105.5C 319.999,99.7467 304.999,96.0801 289.5,94.5C 285.805,93.5397 282.139,93.5397 278.5,94.5C 281.859,110.181 280.692,125.514 275,140.5C 272.758,142.715 270.258,143.048 267.5,141.5C 266.939,140.092 266.605,138.592 266.5,137C 270.563,124.031 271.396,110.864 269,97.5C 268.727,95.8988 268.227,94.3988 267.5,93C 260.476,92.1689 253.476,92.3356 246.5,93.5C 253.671,108.911 255.338,124.911 251.5,141.5C 249.834,145.457 249.167,149.457 249.5,153.5C 270.851,149.734 291.185,152.901 310.5,163C 312.81,163.497 315.143,163.663 317.5,163.5C 324.042,162.437 330.542,161.104 337,159.5C 342.654,160.93 343.82,164.097 340.5,169C 335.682,170.036 331.015,171.369 326.5,173C 329.833,176.333 333.167,179.667 336.5,183C 355.519,182.771 372.519,176.771 387.5,165C 393.493,163.332 395.993,165.498 395,171.5C 380.377,183.824 363.544,191.324 344.5,194C 346.712,196.921 348.545,200.088 350,203.5C 352.669,206.164 355.836,207.998 359.5,209C 380.5,209.667 401.5,209.667 422.5,209C 425.018,207.13 426.352,204.63 426.5,201.5C 425.985,197.758 425.152,194.091 424,190.5C 414.987,171.972 403.154,155.472 388.5,141C 384.077,143.387 380.077,146.72 376.5,151C 372.148,154.692 367.315,157.526 362,159.5C 357.625,159.08 355.958,156.747 357,152.5C 361.833,149 366.667,145.5 371.5,142C 374.612,139.561 376.945,136.561 378.5,133C 374.341,128.761 369.675,125.261 364.5,122.5C 362.125,119.975 359.291,117.975 356,116.5C 353.5,124.333 348.333,129.5 340.5,132C 330.167,132.333 319.833,132.667 309.5,133C 307.627,134.704 305.96,136.537 304.5,138.5C 302.179,142.197 299.013,143.197 295,141.5C 293.627,139.305 293.294,136.971 294,134.5C 298.167,130.333 302.333,126.167 306.5,122C 317.833,121.667 329.167,121.333 340.5,121C 341.416,120.626 342.25,120.126 343,119.5C 344.938,115.178 346.771,110.845 348.5,106.5C 350.5,101.5 352.5,96.5 354.5,91.5C 358.165,82.1716 361.832,72.8383 365.5,63.5C 367.186,60.9953 369.519,60.162 372.5,61C 404.304,81.3253 437.471,99.4919 472,115.5C 476.158,146.265 481.158,176.931 487,207.5C 487.667,245.5 487.667,283.5 487,321.5C 474.751,339.65 463.751,358.65 454,378.5C 452.982,381.743 452.482,385.076 452.5,388.5C 453.086,393.505 453.252,398.505 453,403.5C 440.631,426.519 427.464,449.019 413.5,471C 399.061,475.702 384.561,480.202 370,484.5C 368.775,484.138 367.609,483.638 366.5,483C 362.033,477.532 357.2,472.365 352,467.5C 350.336,464.711 350.17,461.877 351.5,459C 348.667,456.167 345.833,453.333 343,450.5C 343.074,461.831 343.074,473.164 343,484.5C 342.167,485.333 341.333,486.167 340.5,487C 294.833,487.667 249.167,487.667 203.5,487C 184.393,478.947 165.393,470.614 146.5,462C 134.854,449.452 122.354,437.952 109,427.5C 108.5,420.842 108.334,414.175 108.5,407.5C 100.514,406.403 92.681,404.737 85,402.5C 78.1366,385.774 70.47,369.441 62,353.5C 49.8331,333.162 37.1664,313.162 24,293.5C 23.3333,267.167 23.3333,240.833 24,214.5C 34.9049,195.855 47.4049,178.355 61.5,162C 63.8098,161.503 66.1432,161.337 68.5,161.5 Z"/></g>
<g><path style="opacity:1" fill="#e49b83" d="M 354.5,91.5 C 352.5,96.5 350.5,101.5 348.5,106.5C 345.314,105.403 342.314,104.07 339.5,102.5C 339.896,99.9556 339.229,97.7889 337.5,96C 311.983,85.8305 285.483,81.3305 258,82.5C 230.095,82.018 203.928,88.518 179.5,102C 134.339,128.481 112.839,167.981 115,220.5C 116.11,222.037 117.61,222.703 119.5,222.5C 120.167,226.833 120.833,231.167 121.5,235.5C 115.189,236.607 108.856,237.607 102.5,238.5C 99.6055,219.802 100.106,201.135 104,182.5C 124.463,120.991 166.63,84.1581 230.5,72C 273.762,66.3165 315.095,72.8165 354.5,91.5 Z"/></g>
<g><path style="opacity:1" fill="#e59b83" d="M 393.5,87.5 C 388.886,93.1228 384.22,98.7895 379.5,104.5C 416.223,128.424 440.057,161.757 451,204.5C 452.375,214.711 449.208,223.211 441.5,230C 439.913,230.862 438.246,231.529 436.5,232C 414.503,232.5 392.503,232.667 370.5,232.5C 371.244,281.197 349.91,316.364 306.5,338C 292.229,343.736 277.562,347.236 262.5,348.5C 261.747,343.964 260.08,339.631 257.5,335.5C 282.909,331.761 305.576,321.927 325.5,306C 351.23,282.277 360.897,253.111 354.5,218.5C 359.284,219.436 364.117,220.103 369,220.5C 387.489,219.74 405.989,219.24 424.5,219C 434.758,214.943 438.591,207.443 436,196.5C 433.984,187.135 430.318,178.468 425,170.5C 408.263,143.929 386.429,122.596 359.5,106.5C 363.704,95.9278 368.037,85.4278 372.5,75C 373.167,74.3333 373.833,74.3333 374.5,75C 380.899,79.1904 387.232,83.357 393.5,87.5 Z"/></g>
<g><path style="opacity:1" fill="#f8f1d8" d="M 393.5,87.5 C 416.011,99.9225 439.011,111.589 462.5,122.5C 466.261,150.258 470.595,177.925 475.5,205.5C 475.333,207.167 475.167,208.833 475,210.5C 460.12,235.756 445.62,261.256 431.5,287C 428.224,285.763 425.391,283.597 423,280.5C 422.667,273.167 422.333,265.833 422,258.5C 417.167,254.333 412.333,250.167 407.5,246C 401.839,245.333 399.672,247.833 401,253.5C 404.522,256.266 407.855,259.266 411,262.5C 411.499,267.489 411.666,272.489 411.5,277.5C 398.671,278.242 389.005,284.075 382.5,295C 376.476,294.883 370.476,294.55 364.5,294C 362.556,296.153 362.056,298.653 363,301.5C 364.171,302.893 365.671,303.727 367.5,304C 373.785,305.438 380.118,306.105 386.5,306C 390.263,301.147 394.263,296.48 398.5,292C 404.059,288.622 410.059,287.289 416.5,288C 423.333,295.5 430.167,303 437,310.5C 437.497,313.146 437.664,315.813 437.5,318.5C 434.659,322.849 432.326,327.516 430.5,332.5C 427.949,331.051 425.615,331.385 423.5,333.5C 416.5,346.833 409.5,360.167 402.5,373.5C 393.251,375.328 383.918,376.161 374.5,376C 355.5,365.667 336.5,355.333 317.5,345C 311.498,344.007 309.332,346.507 311,352.5C 316.995,364.997 322.495,377.663 327.5,390.5C 286.282,394.835 244.949,396.668 203.5,396C 188.046,389.071 172.046,383.738 155.5,380C 144.933,368.856 134.6,357.523 124.5,346C 135.426,343.965 146.426,343.298 157.5,344C 161.112,345.139 164.446,346.806 167.5,349C 171.5,353.667 175.5,358.333 179.5,363C 188.51,363.285 197.51,362.952 206.5,362C 209.978,359.294 210.311,356.294 207.5,353C 205,352.833 202.5,352.667 200,352.5C 194.826,353.044 189.659,353.211 184.5,353C 175.509,339.503 162.843,332.836 146.5,333C 129.228,324.699 111.895,316.365 94.5,308C 81.9812,294.316 69.6478,280.482 57.5,266.5C 64.4931,258.174 71.8264,250.174 79.5,242.5C 83.8333,245 88.1667,247.5 92.5,250C 95.5314,250.495 98.5314,250.329 101.5,249.5C 102.822,249.33 103.989,249.663 105,250.5C 112.77,281.611 129.937,305.777 156.5,323C 185.806,340.321 217.473,348.821 251.5,348.5C 251.596,356.201 254.596,362.701 260.5,368C 263.12,370.271 266.12,370.938 269.5,370C 271.536,367.701 271.869,365.201 270.5,362.5C 264.738,359.646 262.071,354.979 262.5,348.5C 277.562,347.236 292.229,343.736 306.5,338C 349.91,316.364 371.244,281.197 370.5,232.5C 392.503,232.667 414.503,232.5 436.5,232C 438.246,231.529 439.913,230.862 441.5,230C 449.208,223.211 452.375,214.711 451,204.5C 440.057,161.757 416.223,128.424 379.5,104.5C 384.22,98.7895 388.886,93.1228 393.5,87.5 Z"/></g>
<g><path style="opacity:1" fill="#f6efd7" d="M 267.5,141.5 C 262.167,141.5 256.833,141.5 251.5,141.5C 255.338,124.911 253.671,108.911 246.5,93.5C 253.476,92.3356 260.476,92.1689 267.5,93C 268.227,94.3988 268.727,95.8988 269,97.5C 271.396,110.864 270.563,124.031 266.5,137C 266.605,138.592 266.939,140.092 267.5,141.5 Z"/></g>
<g><path style="opacity:1" fill="#e39b82" d="M 289.5,94.5 C 291.142,111.628 287.809,127.628 279.5,142.5C 288.073,145.306 296.406,148.806 304.5,153C 309.311,155.985 313.644,159.485 317.5,163.5C 315.143,163.663 312.81,163.497 310.5,163C 291.185,152.901 270.851,149.734 249.5,153.5C 249.167,149.457 249.834,145.457 251.5,141.5C 256.833,141.5 262.167,141.5 267.5,141.5C 270.258,143.048 272.758,142.715 275,140.5C 280.692,125.514 281.859,110.181 278.5,94.5C 282.139,93.5397 285.805,93.5397 289.5,94.5 Z"/></g>
<g><path style="opacity:1" fill="#e29a82" d="M 219.5,152.5 C 225.116,150.461 230.616,148.127 236,145.5C 238.656,128.279 235.489,112.279 226.5,97.5C 225.311,96.5713 223.978,96.238 222.5,96.5C 226.945,94.5655 231.612,94.2321 236.5,95.5C 246.038,115.93 245.705,136.263 235.5,156.5C 231.326,159.088 226.993,161.421 222.5,163.5C 221.604,159.772 220.604,156.105 219.5,152.5 Z"/></g>
<g><path style="opacity:1" fill="#f8f0d8" d="M 289.5,94.5 C 304.999,96.0801 319.999,99.7467 334.5,105.5C 336.423,104.908 338.089,103.908 339.5,102.5C 342.314,104.07 345.314,105.403 348.5,106.5C 346.771,110.845 344.938,115.178 343,119.5C 342.25,120.126 341.416,120.626 340.5,121C 329.167,121.333 317.833,121.667 306.5,122C 302.333,126.167 298.167,130.333 294,134.5C 293.294,136.971 293.627,139.305 295,141.5C 299.013,143.197 302.179,142.197 304.5,138.5C 308.682,137.048 313.016,136.382 317.5,136.5C 328.158,137.444 338.824,137.611 349.5,137C 355.664,133.335 360.664,128.502 364.5,122.5C 369.675,125.261 374.341,128.761 378.5,133C 376.945,136.561 374.612,139.561 371.5,142C 366.667,145.5 361.833,149 357,152.5C 355.958,156.747 357.625,159.08 362,159.5C 367.315,157.526 372.148,154.692 376.5,151C 380.077,146.72 384.077,143.387 388.5,141C 403.154,155.472 414.987,171.972 424,190.5C 425.152,194.091 425.985,197.758 426.5,201.5C 426.352,204.63 425.018,207.13 422.5,209C 401.5,209.667 380.5,209.667 359.5,209C 355.836,207.998 352.669,206.164 350,203.5C 348.545,200.088 346.712,196.921 344.5,194C 363.544,191.324 380.377,183.824 395,171.5C 395.993,165.498 393.493,163.332 387.5,165C 372.519,176.771 355.519,182.771 336.5,183C 333.167,179.667 329.833,176.333 326.5,173C 331.015,171.369 335.682,170.036 340.5,169C 343.82,164.097 342.654,160.93 337,159.5C 330.542,161.104 324.042,162.437 317.5,163.5C 313.644,159.485 309.311,155.985 304.5,153C 296.406,148.806 288.073,145.306 279.5,142.5C 287.809,127.628 291.142,111.628 289.5,94.5 Z"/></g>
<g><path style="opacity:1" fill="#f8f0d8" d="M 222.5,96.5 C 223.978,96.238 225.311,96.5713 226.5,97.5C 235.489,112.279 238.656,128.279 236,145.5C 230.616,148.127 225.116,150.461 219.5,152.5C 215.205,148.072 211.872,148.739 209.5,154.5C 210.046,156.135 210.38,157.801 210.5,159.5C 199.805,166.363 191.305,175.363 185,186.5C 178.591,181.104 171.424,176.937 163.5,174C 154.029,170.454 144.362,167.62 134.5,165.5C 139.371,153.595 146.371,143.095 155.5,134C 157.788,133.582 159.788,134.249 161.5,136C 166.467,139.966 171.134,144.299 175.5,149C 181.167,150.328 183.667,148.161 183,142.5C 177.309,136.309 171.143,130.642 164.5,125.5C 170.934,119.776 177.934,114.776 185.5,110.5C 192.446,118.893 198.78,127.726 204.5,137C 209.822,137.34 211.989,134.84 211,129.5C 206.619,121.125 201.452,113.291 195.5,106C 204.029,101.546 213.029,98.379 222.5,96.5 Z"/></g>
<g><path style="opacity:1" fill="#e49c84" d="M 364.5,122.5 C 360.664,128.502 355.664,133.335 349.5,137C 338.824,137.611 328.158,137.444 317.5,136.5C 313.016,136.382 308.682,137.048 304.5,138.5C 305.96,136.537 307.627,134.704 309.5,133C 319.833,132.667 330.167,132.333 340.5,132C 348.333,129.5 353.5,124.333 356,116.5C 359.291,117.975 362.125,119.975 364.5,122.5 Z"/></g>
<g><path style="opacity:1" fill="#424758" d="M 188.5,158.5 C 194.086,158.92 196.586,161.92 196,167.5C 190.463,171.99 186.963,170.657 185.5,163.5C 186.092,161.577 187.092,159.911 188.5,158.5 Z"/></g>
<g><path style="opacity:1" fill="#e39b82" d="M 210.5,159.5 C 211.645,163.311 211.812,167.311 211,171.5C 202.195,178.806 195.028,187.472 189.5,197.5C 182.14,190.817 173.807,185.651 164.5,182C 153.315,178.464 141.981,175.631 130.5,173.5C 131.661,170.642 132.994,167.975 134.5,165.5C 144.362,167.62 154.029,170.454 163.5,174C 171.424,176.937 178.591,181.104 185,186.5C 191.305,175.363 199.805,166.363 210.5,159.5 Z"/></g>
<g><path style="opacity:1" fill="#f4edd5" d="M 276.5,187.5 C 272.828,185.247 268.828,183.914 264.5,183.5C 265.753,176.187 265.753,168.854 264.5,161.5C 269.87,161.392 275.203,161.725 280.5,162.5C 281.193,171.179 279.86,179.512 276.5,187.5 Z"/></g>
<g><path style="opacity:1" fill="#f7efd7" d="M 256.5,183.5 C 243.482,183.512 232.482,188.178 223.5,197.5C 222.163,196.685 221.163,195.518 220.5,194C 214.507,192.332 212.007,194.498 213,200.5C 213.997,202.323 215.164,203.99 216.5,205.5C 215.908,208.691 214.741,211.691 213,214.5C 211.809,219.767 211.309,225.101 211.5,230.5C 205.545,231.363 199.545,231.697 193.5,231.5C 193.183,206.636 203.517,187.469 224.5,174C 233.781,168.295 243.781,164.462 254.5,162.5C 255.09,169.547 255.756,176.547 256.5,183.5 Z"/></g>
<g><path style="opacity:1" fill="#e29b82" d="M 296.5,167.5 C 296.83,177.846 294.497,187.512 289.5,196.5C 292.556,200.542 295.556,204.542 298.5,208.5C 296.35,209.67 294.016,210.67 291.5,211.5C 288.043,207.542 284.377,203.708 280.5,200C 287.475,189.614 291.142,178.114 291.5,165.5C 293.195,166.174 294.862,166.841 296.5,167.5 Z"/></g>
<g><path style="opacity:1" fill="#f8f0d8" d="M 296.5,167.5 C 331.586,181.663 347.919,207.663 345.5,245.5C 330.804,247.198 316.804,244.865 303.5,238.5C 302.709,232.164 302.042,225.83 301.5,219.5C 309.318,216.337 316.485,212.003 323,206.5C 324.72,200.556 322.553,198.056 316.5,199C 311.162,203.501 305.162,206.668 298.5,208.5C 295.556,204.542 292.556,200.542 289.5,196.5C 294.497,187.512 296.83,177.846 296.5,167.5 Z"/></g>
<g><path style="opacity:1" fill="#e29a82" d="M 256.5,183.5 C 259.167,184.833 261.833,184.833 264.5,183.5C 268.828,183.914 272.828,185.247 276.5,187.5C 275.392,189.781 274.058,191.948 272.5,194C 264.64,192.565 256.64,192.231 248.5,193C 241.404,194.464 235.237,197.631 230,202.5C 227.331,201.423 225.164,199.757 223.5,197.5C 232.482,188.178 243.482,183.512 256.5,183.5 Z"/></g>
<g><path style="opacity:1" fill="#f7f0d8" d="M 178.5,201.5 C 177.705,205.476 177.038,209.476 176.5,213.5C 166.996,210.885 157.33,210.052 147.5,211C 144.689,214.294 145.022,217.294 148.5,220C 157.622,219.672 166.289,221.172 174.5,224.5C 175.107,239.154 179.607,252.487 188,264.5C 189.371,266.041 190.871,267.375 192.5,268.5C 187.906,282.093 179.573,292.76 167.5,300.5C 158.458,293.792 150.792,285.792 144.5,276.5C 153.933,272.952 162.599,268.119 170.5,262C 173.5,254.667 171.167,252 163.5,254C 156.278,259.781 148.278,264.281 139.5,267.5C 135.205,260.622 131.872,253.289 129.5,245.5C 133.548,243.519 137.882,242.353 142.5,242C 146.198,236.319 144.698,233.153 138,232.5C 132.432,233.233 126.932,234.233 121.5,235.5C 120.833,231.167 120.167,226.833 119.5,222.5C 121.371,222.141 122.871,221.141 124,219.5C 124.333,211.5 124.667,203.5 125,195.5C 125.356,191.854 126.189,188.354 127.5,185C 146.214,185.424 163.214,190.924 178.5,201.5 Z"/></g>
<g><path style="opacity:1" fill="#f7f0d7" d="M 249.5,256.5 C 257.554,254.613 263.388,249.946 267,242.5C 269.217,235.941 267.051,231.941 260.5,230.5C 257.69,227.008 254.524,226.675 251,229.5C 247.635,238.264 242.135,239.764 234.5,234C 229.198,218.931 234.198,208.598 249.5,203C 273.639,201.14 285.473,212.306 285,236.5C 281.451,256.207 269.617,266.54 249.5,267.5C 249.5,263.833 249.5,260.167 249.5,256.5 Z"/></g>
<g><path style="opacity:1" fill="#de9982" d="M 178.5,201.5 C 184.695,204.882 186.695,209.882 184.5,216.5C 181.557,216.02 178.89,215.02 176.5,213.5C 177.038,209.476 177.705,205.476 178.5,201.5 Z"/></g>
<g><path style="opacity:1" fill="#e49c83" d="M 216.5,205.5 C 219.003,207.833 221.669,209.999 224.5,212C 220.923,218.459 219.757,225.292 221,232.5C 212.708,236.758 203.875,238.758 194.5,238.5C 194.702,236.05 194.369,233.717 193.5,231.5C 199.545,231.697 205.545,231.363 211.5,230.5C 211.309,225.101 211.809,219.767 213,214.5C 214.741,211.691 215.908,208.691 216.5,205.5 Z"/></g>
<g><path style="opacity:1" fill="#e39c83" d="M 301.5,219.5 C 302.042,225.83 302.709,232.164 303.5,238.5C 316.804,244.865 330.804,247.198 345.5,245.5C 345.007,247.806 344.674,250.139 344.5,252.5C 326.696,252.62 310.529,247.62 296,237.5C 295.627,231.811 295.127,226.145 294.5,220.5C 296.861,220.326 299.194,219.993 301.5,219.5 Z"/></g>
<g><path style="opacity:1" fill="#e39b83" d="M 174.5,224.5 C 177.745,224.97 180.579,226.303 183,228.5C 184.051,240.334 188.217,250.834 195.5,260C 194.59,262.899 193.59,265.733 192.5,268.5C 190.871,267.375 189.371,266.041 188,264.5C 179.607,252.487 175.107,239.154 174.5,224.5 Z"/></g>
<g><path style="opacity:1" fill="#e49b83" d="M 260.5,230.5 C 267.051,231.941 269.217,235.941 267,242.5C 263.388,249.946 257.554,254.613 249.5,256.5C 247.593,253.668 244.927,252.834 241.5,254C 240.177,254.816 239.511,255.983 239.5,257.5C 229.897,257.698 222.564,253.698 217.5,245.5C 220.404,243.805 223.571,242.472 227,241.5C 236.163,248.8 245.663,249.3 255.5,243C 258.635,239.428 260.302,235.262 260.5,230.5 Z"/></g>
<g><path style="opacity:1" fill="#f5eed6" d="M 217.5,245.5 C 222.564,253.698 229.897,257.698 239.5,257.5C 239.5,261.167 239.5,264.833 239.5,268.5C 223.458,268.312 210.458,261.979 200.5,249.5C 206.05,247.8 211.717,246.466 217.5,245.5 Z"/></g>
<g><path style="opacity:1" fill="#e59b83" d="M 251.5,348.5 C 217.473,348.821 185.806,340.321 156.5,323C 129.937,305.777 112.77,281.611 105,250.5C 103.989,249.663 102.822,249.33 101.5,249.5C 107.302,247.536 113.302,246.869 119.5,247.5C 133.709,289.209 161.709,317.042 203.5,331C 216.669,334.119 230.002,336.119 243.5,337C 248.291,339.434 250.958,343.267 251.5,348.5 Z"/></g>
<g><path style="opacity:1" fill="#e19a82" d="M 298.5,251.5 C 297.308,256.217 295.308,260.55 292.5,264.5C 287.203,258.954 287.536,253.621 293.5,248.5C 295.396,249.275 297.063,250.275 298.5,251.5 Z"/></g>
<g><path style="opacity:1" fill="#f7f0d8" d="M 298.5,251.5 C 309.459,257.375 321.125,261.042 333.5,262.5C 336.167,263.167 338.833,263.833 341.5,264.5C 335.866,280.969 325.866,294.136 311.5,304C 309.783,305.559 307.783,306.392 305.5,306.5C 305.496,301.011 302.829,299.178 297.5,301C 297,301.5 296.5,302 296,302.5C 295.797,306.421 295.297,310.255 294.5,314C 271.74,323.515 248.073,326.848 223.5,324C 229.903,315.027 234.569,305.193 237.5,294.5C 235.624,289.294 232.457,288.294 228,291.5C 225.314,302.708 220.147,312.541 212.5,321C 204.381,320.617 196.714,318.451 189.5,314.5C 199.141,303.743 203.308,291.076 202,276.5C 209.655,281.831 218.155,284.998 227.5,286C 237.878,286.838 248.212,286.505 258.5,285C 259.337,283.989 259.67,282.822 259.5,281.5C 260.329,288.989 260.829,296.656 261,304.5C 264.692,307.328 267.692,306.662 270,302.5C 270.5,295.174 270.666,287.841 270.5,280.5C 275.465,278.351 280.132,275.684 284.5,272.5C 287.127,276.51 289.294,280.844 291,285.5C 297.68,287.822 300.347,285.488 299,278.5C 296.548,273.932 294.382,269.265 292.5,264.5C 295.308,260.55 297.308,256.217 298.5,251.5 Z"/></g>
<g><path style="opacity:1" fill="#e49b82" d="M 85.5,313.5 C 85.8305,334.007 85.4972,354.34 84.5,374.5C 70.54,345.235 54.04,317.568 35,291.5C 34.3333,280.167 34.3333,268.833 35,257.5C 37.6298,261.132 40.6298,264.465 44,267.5C 44.3333,274.167 44.6667,280.833 45,287.5C 47.332,290.791 50.1653,291.291 53.5,289C 54.1253,286.2 54.792,283.366 55.5,280.5C 65.5504,291.546 75.5504,302.546 85.5,313.5 Z"/></g>
<g><path style="opacity:1" fill="#969393" d="M 333.5,262.5 C 336.572,262.183 339.572,262.516 342.5,263.5C 342.376,264.107 342.043,264.44 341.5,264.5C 338.833,263.833 336.167,263.167 333.5,262.5 Z"/></g>
<g><path style="opacity:1" fill="#e39b83" d="M 284.5,272.5 C 280.132,275.684 275.465,278.351 270.5,280.5C 269.551,277.792 269.551,275.126 270.5,272.5C 273.834,271.169 276.834,269.335 279.5,267C 280.449,266.383 281.282,266.549 282,267.5C 282.847,269.193 283.68,270.86 284.5,272.5 Z"/></g>
<g><path style="opacity:1" fill="#e49b83" d="M 259.5,281.5 C 259.67,282.822 259.337,283.989 258.5,285C 248.212,286.505 237.878,286.838 227.5,286C 218.155,284.998 209.655,281.831 202,276.5C 203.308,291.076 199.141,303.743 189.5,314.5C 184.867,312.517 180.534,310.017 176.5,307C 189.557,296.599 198.723,283.432 204,267.5C 221.124,278.522 239.624,281.522 259.5,276.5C 259.5,278.167 259.5,279.833 259.5,281.5 Z"/></g>
<g><path style="opacity:1" fill="#8e6f69" d="M 85.5,313.5 C 86.6627,334.329 86.8293,355.329 86,376.5C 85.2828,375.956 84.7828,375.289 84.5,374.5C 85.4972,354.34 85.8305,334.007 85.5,313.5 Z"/></g>
<g><path style="opacity:1" fill="#e49a82" d="M 437.5,318.5 C 439.643,346.144 441.143,373.811 442,401.5C 433,416.833 424,432.167 415,447.5C 413.855,442.917 413.189,438.251 413,433.5C 410.294,430.022 407.294,429.689 404,432.5C 404.169,442.519 404.002,452.519 403.5,462.5C 394.882,465.373 386.215,468.04 377.5,470.5C 376.51,464.69 376.177,458.69 376.5,452.5C 377.633,430.515 378.299,408.515 378.5,386.5C 385.817,385.882 393.151,385.549 400.5,385.5C 400.409,395.196 400.909,404.863 402,414.5C 405,417.167 408,417.167 411,414.5C 411.222,402.827 411.222,391.16 411,379.5C 418,365.833 425,352.167 432,338.5C 432.748,336.16 432.248,334.16 430.5,332.5C 432.326,327.516 434.659,322.849 437.5,318.5 Z"/></g>
<g><path style="opacity:1" fill="#e49a82" d="M 199.5,447.5 C 199.826,456.017 199.493,464.35 198.5,472.5C 184.425,465.797 170.092,459.631 155.5,454C 154.483,449.737 154.483,445.404 155.5,441C 155.739,435.246 153.072,433.246 147.5,435C 147,435.5 146.5,436 146,436.5C 145.818,439.226 145.318,441.893 144.5,444.5C 136.729,436.461 128.396,429.127 119.5,422.5C 118.334,400.174 118.167,377.841 119,355.5C 128.333,365.5 137.667,375.5 147,385.5C 146.465,397.062 146.632,408.562 147.5,420C 150.835,422.291 153.668,421.791 156,418.5C 156.284,409.475 156.784,400.475 157.5,391.5C 160.522,391.804 163.522,392.304 166.5,393C 177.522,396.848 188.522,400.681 199.5,404.5C 199.5,418.833 199.5,433.167 199.5,447.5 Z"/></g>
<g><path style="opacity:1" fill="#e69b82" d="M 210.5,476.5 C 210.5,453.5 210.5,430.5 210.5,407.5C 216.026,407.821 221.36,407.488 226.5,406.5C 261.57,405.672 296.57,403.672 331.5,400.5C 331.534,425.838 331.867,451.172 332.5,476.5C 291.833,476.5 251.167,476.5 210.5,476.5 Z"/></g>
<g><path style="opacity:1" fill="#a67970" d="M 226.5,406.5 C 221.36,407.488 216.026,407.821 210.5,407.5C 210.5,430.5 210.5,453.5 210.5,476.5C 209.502,453.339 209.169,430.006 209.5,406.5C 215.167,406.5 220.833,406.5 226.5,406.5 Z"/></g>
<g><path style="opacity:1" fill="#9f766e" d="M 376.5,452.5 C 376.177,458.69 376.51,464.69 377.5,470.5C 377.44,471.043 377.107,471.376 376.5,471.5C 375.183,465.012 375.183,458.678 376.5,452.5 Z"/></g>
<g><path style="opacity:1" fill="#7b6264" d="M 199.5,447.5 C 200.821,456.009 200.821,464.675 199.5,473.5C 198.893,473.376 198.56,473.043 198.5,472.5C 199.493,464.35 199.826,456.017 199.5,447.5 Z"/></g>
</svg>
