<?xml version="1.0" encoding="UTF-8"?>
<!DOCTYPE svg PUBLIC "-//W3C//DTD SVG 1.1//EN" "http://www.w3.org/Graphics/SVG/1.1/DTD/svg11.dtd">
<svg xmlns="http://www.w3.org/2000/svg" version="1.1" width="512px" height="512px" style="shape-rendering:geometricPrecision; text-rendering:geometricPrecision; image-rendering:optimizeQuality; fill-rule:evenodd; clip-rule:evenodd" xmlns:xlink="http://www.w3.org/1999/xlink">
<g><path style="opacity:1" fill="#383e51" d="M 373.5,28.5 C 380.672,28.4435 384.005,32.1102 383.5,39.5C 387.793,39.6524 391.626,40.9857 395,43.5C 396.147,50.8389 392.981,53.5055 385.5,51.5C 385.5,55.1667 385.5,58.8333 385.5,62.5C 389.865,61.9928 392.198,63.8261 392.5,68C 392.167,72.9316 389.5,74.7649 384.5,73.5C 383.841,76.4552 383.508,79.4552 383.5,82.5C 388.85,83.1837 390.684,86.1837 389,91.5C 386.426,93.0019 383.593,94.0019 380.5,94.5C 379.634,96.4317 378.967,98.4317 378.5,100.5C 384.886,107.962 383.219,112.295 373.5,113.5C 366.163,144.143 377.829,163.476 408.5,171.5C 408.336,168.813 408.503,166.146 409,163.5C 412.696,160.575 416.029,160.908 419,164.5C 419.497,167.146 419.664,169.813 419.5,172.5C 424.203,172.563 428.87,172.229 433.5,171.5C 432.529,164.131 435.529,161.464 442.5,163.5C 443.877,165.289 444.877,167.289 445.5,169.5C 448.81,170.349 452.144,170.182 455.5,169C 452.495,162.035 454.828,159.035 462.5,160C 464.057,162.296 465.724,164.462 467.5,166.5C 469.071,165.691 470.738,165.357 472.5,165.5C 470.804,156.685 473.97,154.018 482,157.5C 483.741,160.309 484.908,163.309 485.5,166.5C 488.325,166.081 490.491,167.081 492,169.5C 495.992,185.349 490.492,196.516 475.5,203C 459.066,205.69 443.4,210.69 428.5,218C 423.986,221.091 419.653,224.425 415.5,228C 412.052,229.927 408.385,231.261 404.5,232C 398.922,240.249 392.588,247.916 385.5,255C 408.633,265.466 424.966,282.466 434.5,306C 434.235,308.151 433.235,309.818 431.5,311C 424.167,311.333 416.833,311.667 409.5,312C 404.931,312.266 400.597,313.266 396.5,315C 411.358,338.586 418.692,364.419 418.5,392.5C 418.055,398.838 417.555,405.171 417,411.5C 415.785,417.191 412.618,418.691 407.5,416C 402.909,409.405 397.576,403.405 391.5,398C 377.188,386.844 362.521,376.177 347.5,366C 341.967,360.802 336.8,355.302 332,349.5C 309.305,387.126 276.138,409.792 232.5,417.5C 232.67,436.365 226.67,452.865 214.5,467C 200.315,478.838 183.982,483.838 165.5,482C 162.793,480.136 161.959,477.636 163,474.5C 169.009,469.168 173.009,462.501 175,454.5C 175.109,441.751 177.276,429.418 181.5,417.5C 177.124,417.363 172.791,417.196 168.5,417C 155.021,442.255 134.021,456.921 105.5,461C 82.9291,464.111 61.5958,460.444 41.5,450C 38.0354,447.537 34.8688,444.704 32,441.5C 30.9595,438.364 31.7928,435.864 34.5,434C 42.0344,433.266 49.0344,430.933 55.5,427C 62.4956,421.004 69.1623,414.671 75.5,408C 82.2063,402.645 89.5397,398.312 97.5,395C 70.4235,380.258 51.5902,358.425 41,329.5C 37.4471,313.84 32.1138,298.84 25,284.5C 22.9083,281.319 20.575,278.319 18,275.5C 17.3333,273.5 17.3333,271.5 18,269.5C 21.242,266.795 24.742,264.461 28.5,262.5C 23.3044,250.931 22.1377,238.931 25,226.5C 25.5,225.333 26.3333,224.5 27.5,224C 30.146,223.503 32.8127,223.336 35.5,223.5C 35.1805,213.416 37.0138,203.749 41,194.5C 41.8333,193.667 42.6667,192.833 43.5,192C 47.7097,191.262 51.8764,191.428 56,192.5C 56.9454,192.095 57.6121,191.428 58,190.5C 59.6279,180.493 58.4612,170.659 54.5,161C 54.8623,159.775 55.3623,158.609 56,157.5C 61.7647,153.887 67.7647,153.554 74,156.5C 71.7069,144.822 72.0403,133.155 75,121.5C 76.3129,120.427 77.8129,119.76 79.5,119.5C 89.8084,122.404 98.6417,127.737 106,135.5C 106.333,135.167 106.667,134.833 107,134.5C 103.696,120.438 102.696,106.105 104,91.5C 105.052,89.189 106.885,87.8557 109.5,87.5C 113.859,89.0305 117.859,91.1971 121.5,94C 127.747,99.7426 133.414,105.909 138.5,112.5C 151.171,104.668 162.838,95.5013 173.5,85C 175.897,83.2759 178.231,83.2759 180.5,85C 201.421,130.237 191.087,166.57 149.5,194C 138.83,199.836 127.497,203.836 115.5,206C 86.927,218.651 76.7603,240.151 85,270.5C 90.6481,289.816 102.481,303.983 120.5,313C 127.653,315.725 134.986,316.225 142.5,314.5C 142.021,310.089 142.688,305.922 144.5,302C 154.429,297.864 164.429,294.364 174.5,291.5C 172.134,287.245 172.134,283.078 174.5,279C 183.814,274.673 193.481,271.34 203.5,269C 201.348,264.309 201.015,259.476 202.5,254.5C 205.837,251.829 209.504,249.663 213.5,248C 219.311,245.925 224.978,243.592 230.5,241C 228.331,235.973 227.998,230.807 229.5,225.5C 236.319,219.921 243.653,215.088 251.5,211C 249.401,207.279 248.068,203.279 247.5,199C 247.493,197.188 248.16,195.688 249.5,194.5C 260.565,187.299 272.232,181.133 284.5,176C 289.868,172.097 293.368,166.93 295,160.5C 299.365,138.106 307.365,117.106 319,97.5C 334.284,72.288 352.451,49.288 373.5,28.5 Z"/></g>
<g><path style="opacity:1" fill="#88a1c6" d="M 395.5,225.5 C 389.381,224.109 383.715,221.609 378.5,218C 367.909,210.08 357.909,201.414 348.5,192C 347.552,191.517 346.552,191.351 345.5,191.5C 350.101,205.616 358.434,217.116 370.5,226C 356.102,224.31 342.769,219.477 330.5,211.5C 328.899,212.035 328.399,213.035 329,214.5C 341.87,227.52 357.37,235.686 375.5,239C 370.562,243.303 364.896,246.303 358.5,248C 350.247,248.66 342.08,248.16 334,246.5C 320.929,246.442 311.429,252.109 305.5,263.5C 298.963,275.293 296.796,287.96 299,301.5C 302.339,304.299 305.339,303.966 308,300.5C 307.491,290.424 309.158,280.758 313,271.5C 321.169,258.896 332.002,256.063 345.5,263C 350.206,265.998 352.706,270.165 353,275.5C 338.541,267.766 327.541,271.099 320,285.5C 319.503,287.81 319.337,290.143 319.5,292.5C 317.905,295.285 316.905,298.285 316.5,301.5C 313.286,309.027 308.619,315.361 302.5,320.5C 294.417,319.092 292.417,322.092 296.5,329.5C 263.894,364.625 223.56,380.625 175.5,377.5C 174.692,375.075 173.692,372.742 172.5,370.5C 171.18,375.074 170.513,379.74 170.5,384.5C 168.901,384.232 167.568,384.566 166.5,385.5C 165.206,386.29 164.039,387.29 163,388.5C 161.339,417.977 146.506,437.477 118.5,447C 98.0563,453.177 77.7229,452.843 57.5,446C 55.0038,444.92 52.6705,443.586 50.5,442C 62.2084,436.308 72.2084,428.308 80.5,418C 97.1827,404.004 116.516,396.671 138.5,396C 139.416,395.626 140.25,395.126 141,394.5C 141.495,392.527 141.662,390.527 141.5,388.5C 143.805,387.011 146.138,385.511 148.5,384C 129.847,386.228 112.847,381.895 97.5,371C 84.6356,361.709 75.3023,350.209 69.5,336.5C 83.5869,342.233 98.2535,344.067 113.5,342C 116.234,341.79 118.734,340.956 121,339.5C 121.17,335.507 121.004,331.507 120.5,327.5C 130.768,326.036 141.102,325.203 151.5,325C 152.416,324.626 153.25,324.126 154,323.5C 153.985,318.778 154.152,314.111 154.5,309.5C 165.381,304.814 176.714,302.314 188.5,302C 189.43,300.806 190.097,299.473 190.5,298C 187.685,294.539 185.851,290.706 185,286.5C 194.575,282.684 204.409,279.684 214.5,277.5C 215.84,276.312 216.507,274.812 216.5,273C 214.984,269.457 213.651,265.79 212.5,262C 221.398,256.137 231.064,251.804 241.5,249C 242.43,247.806 243.097,246.473 243.5,245C 240.65,240.448 239.65,235.615 240.5,230.5C 248.753,225.122 257.253,220.122 266,215.5C 266.667,214.167 266.667,212.833 266,211.5C 263.262,209.423 261.262,206.757 260,203.5C 259.316,202.216 259.483,201.049 260.5,200C 271.535,194.327 282.535,188.66 293.5,183C 298.13,178.378 301.963,173.211 305,167.5C 314.618,172.475 323.285,171.142 331,163.5C 332.65,158.932 331.15,156.266 326.5,155.5C 323.985,157.162 321.318,158.662 318.5,160C 314.418,161.293 311.251,160.126 309,156.5C 308.376,151.777 308.71,147.11 310,142.5C 324.174,105.349 345.174,72.6828 373,44.5C 375.832,65.5084 373.165,85.8417 365,105.5C 358.651,118.198 352.318,130.864 346,143.5C 344.522,151.111 344.188,158.778 345,166.5C 351.272,170.816 358.106,173.983 365.5,176C 390.465,182.176 415.799,184.176 441.5,182C 450.332,181.195 458.999,179.528 467.5,177C 472.489,176.501 477.489,176.334 482.5,176.5C 483.13,183.718 480.13,188.884 473.5,192C 459.155,194.753 445.155,198.753 431.5,204C 424.618,207.552 418.284,211.885 412.5,217C 408.186,219.66 403.519,221.327 398.5,222C 397.29,223.039 396.29,224.206 395.5,225.5 Z"/></g>
<g><path style="opacity:1" fill="#4c5e72" d="M 335.5,111.5 C 341.555,111.052 343.721,113.719 342,119.5C 339.749,123.126 336.582,124.293 332.5,123C 330.294,120.791 329.96,118.291 331.5,115.5C 333.188,114.479 334.521,113.145 335.5,111.5 Z"/></g>
<g><path style="opacity:1" fill="#f07a86" d="M 359.5,137.5 C 362.431,148.856 368.098,158.689 376.5,167C 368.767,166.868 361.6,164.701 355,160.5C 354.119,152.358 355.619,144.691 359.5,137.5 Z"/></g>
<g><path style="opacity:1" fill="#4b5e71" d="M 395.5,225.5 C 388.737,236.096 380.403,245.263 370.5,253C 366.975,256.557 363.809,260.39 361,264.5C 348.799,248.574 333.632,245.074 315.5,254C 311.639,256.696 308.306,259.863 305.5,263.5C 311.429,252.109 320.929,246.442 334,246.5C 342.08,248.16 350.247,248.66 358.5,248C 364.896,246.303 370.562,243.303 375.5,239C 357.37,235.686 341.87,227.52 329,214.5C 328.399,213.035 328.899,212.035 330.5,211.5C 342.769,219.477 356.102,224.31 370.5,226C 358.434,217.116 350.101,205.616 345.5,191.5C 346.552,191.351 347.552,191.517 348.5,192C 357.909,201.414 367.909,210.08 378.5,218C 383.715,221.609 389.381,224.109 395.5,225.5 Z"/></g>
<g><path style="opacity:1" fill="#4d5f73" d="M 288.5,196.5 C 295.297,197.107 296.964,200.274 293.5,206C 286.861,209.371 283.694,207.537 284,200.5C 285.397,198.93 286.897,197.596 288.5,196.5 Z"/></g>
<g><path style="opacity:1" fill="#4c5e72" d="M 273.5,221.5 C 280.632,221.789 282.298,224.956 278.5,231C 271.6,234.098 268.766,231.931 270,224.5C 271.145,223.364 272.312,222.364 273.5,221.5 Z"/></g>
<g><path style="opacity:1" fill="#4c5e72" d="M 280.5,245.5 C 289.53,244.66 291.53,247.827 286.5,255C 277.219,256.234 275.219,253.067 280.5,245.5 Z"/></g>
<g><path style="opacity:1" fill="#4c5e72" d="M 252.5,256.5 C 258.986,254.835 261.819,257.168 261,263.5C 258.347,266.194 255.18,267.027 251.5,266C 248.636,262.376 248.969,259.209 252.5,256.5 Z"/></g>
<g><path style="opacity:1" fill="#88a1c6" d="M 326.5,313.5 C 325.791,312.596 324.791,312.263 323.5,312.5C 322.78,306.862 322.447,301.196 322.5,295.5C 323.791,295.737 324.791,295.404 325.5,294.5C 326.496,294.586 327.329,294.252 328,293.5C 329.863,284.946 335.03,281.112 343.5,282C 381.97,302.051 403.137,333.885 407,377.5C 407.831,384.192 407.664,390.858 406.5,397.5C 391.472,383.306 375.138,370.806 357.5,360C 342.087,349.005 332.921,334.171 330,315.5C 329.184,314.177 328.017,313.511 326.5,313.5 Z"/></g>
<g><path style="opacity:1" fill="#4d5f73" d="M 219.5,286.5 C 225.986,284.835 228.819,287.168 228,293.5C 225.347,296.194 222.18,297.027 218.5,296C 215.636,292.376 215.969,289.209 219.5,286.5 Z"/></g>
<g><path style="opacity:1" fill="#4d6074" d="M 250.5,288.5 C 254.925,287.757 257.592,289.59 258.5,294C 255.866,299.411 252.033,300.577 247,297.5C 245.665,293.392 246.832,290.392 250.5,288.5 Z"/></g>
<g><path style="opacity:1" fill="#555d81" d="M 319.5,292.5 C 321.142,294.081 323.142,294.747 325.5,294.5C 324.791,295.404 323.791,295.737 322.5,295.5C 322.447,301.196 322.78,306.862 323.5,312.5C 324.791,312.263 325.791,312.596 326.5,313.5C 324.708,313.366 323.042,313.699 321.5,314.5C 320.945,308.846 320.445,303.18 320,297.5C 319.051,299.093 317.885,300.426 316.5,301.5C 316.905,298.285 317.905,295.285 319.5,292.5 Z"/></g>
<g><path style="opacity:1" fill="#4c5e72" d="M 321.5,314.5 C 320.631,316.717 320.298,319.05 320.5,321.5C 314.072,325.573 310.072,331.24 308.5,338.5C 309.983,331.209 307.983,325.209 302.5,320.5C 308.619,315.361 313.286,309.027 316.5,301.5C 317.885,300.426 319.051,299.093 320,297.5C 320.445,303.18 320.945,308.846 321.5,314.5 Z"/></g>
<g><path style="opacity:1" fill="#4d5f73" d="M 186.5,315.5 C 194.877,315.274 196.544,318.441 191.5,325C 185.24,327.412 182.407,325.245 183,318.5C 184.145,317.364 185.312,316.364 186.5,315.5 Z"/></g>
<g><path style="opacity:1" fill="#393f53" d="M 302.5,320.5 C 307.983,325.209 309.983,331.209 308.5,338.5C 307.955,340.593 307.122,342.593 306,344.5C 296.047,354.793 285.213,363.96 273.5,372C 271.16,372.748 269.16,372.248 267.5,370.5C 266.489,368.598 266.322,366.598 267,364.5C 277.876,357.297 287.876,348.964 297,339.5C 299.145,335.863 298.978,332.53 296.5,329.5C 292.417,322.092 294.417,319.092 302.5,320.5 Z"/></g>
<g><path style="opacity:1" fill="#4c5f73" d="M 216.5,319.5 C 223.524,319.489 225.524,322.489 222.5,328.5C 215.228,332.575 212.062,330.575 213,322.5C 214.145,321.364 215.312,320.364 216.5,319.5 Z"/></g>
<g><path style="opacity:1" fill="#deeff7" d="M 320.5,321.5 C 321.986,327.089 323.653,332.756 325.5,338.5C 305.842,375.033 275.509,397.533 234.5,406C 213.521,409.146 192.521,409.313 171.5,406.5C 172.021,402.519 172.354,398.519 172.5,394.5C 188.525,394.752 204.525,394.252 220.5,393C 224.099,392.236 226.099,390.07 226.5,386.5C 231.891,385.486 237.224,384.152 242.5,382.5C 243.911,383.908 245.577,384.908 247.5,385.5C 249.382,384.469 251.382,383.635 253.5,383C 254.252,382.329 254.586,381.496 254.5,380.5C 255.161,379.282 255.828,377.949 256.5,376.5C 260.034,374.234 263.7,372.234 267.5,370.5C 269.16,372.248 271.16,372.748 273.5,372C 285.213,363.96 296.047,354.793 306,344.5C 307.122,342.593 307.955,340.593 308.5,338.5C 310.072,331.24 314.072,325.573 320.5,321.5 Z"/></g>
<g><path style="opacity:1" fill="#4b5d70" d="M 69.5,336.5 C 75.3023,350.209 84.6356,361.709 97.5,371C 112.847,381.895 129.847,386.228 148.5,384C 146.138,385.511 143.805,387.011 141.5,388.5C 140.012,387.061 138.178,386.395 136,386.5C 127.517,387.874 119.017,388.707 110.5,389C 81.4524,376.299 61.9524,355.132 52,325.5C 57.1727,330.33 63.006,333.997 69.5,336.5 Z"/></g>
<g><path style="opacity:1" fill="#4c5e72" d="M 296.5,329.5 C 298.978,332.53 299.145,335.863 297,339.5C 287.876,348.964 277.876,357.297 267,364.5C 266.322,366.598 266.489,368.598 267.5,370.5C 263.7,372.234 260.034,374.234 256.5,376.5C 255.828,377.949 255.161,379.282 254.5,380.5C 255.517,376.211 253.85,373.878 249.5,373.5C 244.502,374.492 242.168,377.492 242.5,382.5C 237.224,384.152 231.891,385.486 226.5,386.5C 225.152,383.492 222.818,382.159 219.5,382.5C 204.514,383.268 189.514,383.768 174.5,384C 171.937,385.079 169.271,385.579 166.5,385.5C 167.568,384.566 168.901,384.232 170.5,384.5C 170.513,379.74 171.18,375.074 172.5,370.5C 173.692,372.742 174.692,375.075 175.5,377.5C 223.56,380.625 263.894,364.625 296.5,329.5 Z"/></g>
<g><path style="opacity:1" fill="#4c5f73" d="M 150.5,335.5 C 157.547,334.701 159.881,337.535 157.5,344C 153.612,346.733 149.778,346.9 146,344.5C 145.333,342.5 145.333,340.5 146,338.5C 147.652,337.601 149.152,336.601 150.5,335.5 Z"/></g>
<g><path style="opacity:1" fill="#4d5f73" d="M 177.5,345.5 C 181.733,344.742 184.399,346.409 185.5,350.5C 183.497,355.501 179.831,357.335 174.5,356C 171.374,351.338 172.374,347.838 177.5,345.5 Z"/></g>
<g><path style="opacity:1" fill="#4c5e72" d="M 125.5,359.5 C 132.981,357.494 136.147,360.161 135,367.5C 132.083,369.393 128.916,369.893 125.5,369C 122.888,365.836 122.888,362.669 125.5,359.5 Z"/></g>
<g><path style="opacity:1" fill="#3c4255" d="M 254.5,380.5 C 254.586,381.496 254.252,382.329 253.5,383C 251.382,383.635 249.382,384.469 247.5,385.5C 245.577,384.908 243.911,383.908 242.5,382.5C 242.168,377.492 244.502,374.492 249.5,373.5C 253.85,373.878 255.517,376.211 254.5,380.5 Z"/></g>
</svg>
