<?xml version="1.0" encoding="UTF-8"?>
<!DOCTYPE svg PUBLIC "-//W3C//DTD SVG 1.1//EN" "http://www.w3.org/Graphics/SVG/1.1/DTD/svg11.dtd">
<svg xmlns="http://www.w3.org/2000/svg" version="1.1" width="512px" height="512px" style="shape-rendering:geometricPrecision; text-rendering:geometricPrecision; image-rendering:optimizeQuality; fill-rule:evenodd; clip-rule:evenodd" xmlns:xlink="http://www.w3.org/1999/xlink">
<g><path style="opacity:1" fill="#383e51" d="M 285.5,140.5 C 286.435,143.113 286.602,145.779 286,148.5C 267.85,165.962 252.017,185.128 238.5,206C 239.383,209.222 241.383,211.555 244.5,213C 251.155,214.332 257.822,215.666 264.5,217C 268.508,218.113 272.341,219.613 276,221.5C 283.333,204.833 290.667,188.167 298,171.5C 301.234,161.143 301.234,150.81 298,140.5C 297.208,137.894 295.708,135.894 293.5,134.5C 291.714,130.494 292.38,126.994 295.5,124C 328.904,94.4469 365.904,70.1135 406.5,51C 416.893,48.0206 425.893,50.354 433.5,58C 443.777,67.2711 452.943,77.4378 461,88.5C 462.176,92.2601 461.01,95.0934 457.5,97C 451,101.5 444.5,106 438,110.5C 437.167,124.845 437.334,139.178 438.5,153.5C 440.833,152.833 443.167,152.167 445.5,151.5C 446.976,146.407 448.976,141.573 451.5,137C 455.542,135.263 459.542,133.43 463.5,131.5C 465.21,124.963 466.377,118.296 467,111.5C 469.332,108.209 472.165,107.709 475.5,110C 484.232,117.055 491.065,125.555 496,135.5C 498.391,143.755 497.724,151.755 494,159.5C 484.183,174.658 472.849,188.658 460,201.5C 453.254,214.659 446.254,227.659 439,240.5C 449.87,297.479 438.037,349.312 403.5,396C 400.873,398.017 398.373,397.85 396,395.5C 394.915,377.245 389.248,360.578 379,345.5C 375.624,340.623 371.457,336.623 366.5,333.5C 363.615,330.109 360.448,326.776 357,323.5C 354.95,319.739 353.783,315.739 353.5,311.5C 354.438,299.912 357.771,289.079 363.5,279C 350.594,267.795 335.594,260.795 318.5,258C 312.516,256.907 306.516,255.907 300.5,255C 280.757,255.105 261.09,254.105 241.5,252C 229.654,250.386 218.821,246.219 209,239.5C 190.834,262.667 173.834,286.667 158,311.5C 143.483,328.843 124.983,339.01 102.5,342C 78.3631,342.348 59.5298,332.515 46,312.5C 44.1701,339.192 52.6701,361.859 71.5,380.5C 77.2489,386.212 83.5822,391.212 90.5,395.5C 111.385,408.056 134.051,415.556 158.5,418C 235.048,424.604 299.048,399.604 350.5,343C 353.221,342.398 355.887,342.565 358.5,343.5C 358.421,344.93 358.754,346.264 359.5,347.5C 342.04,368.794 321.373,386.294 297.5,400C 288.127,405.238 278.461,409.904 268.5,414C 260.865,439.593 245.198,458.593 221.5,471C 217.78,473.058 214.28,472.891 211,470.5C 211.384,461.517 211.384,452.517 211,443.5C 210.098,438.462 208.598,433.628 206.5,429C 170.316,432.402 135.316,427.402 101.5,414C 44.947,386.381 24.447,341.881 40,280.5C 40.9762,270.713 40.3096,261.046 38,251.5C 9.79619,198.328 5.79619,143.328 26,86.5C 32.5809,68.8252 42.0809,52.9918 54.5,39C 57.2569,38.218 59.7569,38.718 62,40.5C 66.6079,93.0475 88.2745,137.047 127,172.5C 132.548,181.291 132.881,190.291 128,199.5C 110.08,217.671 98.747,239.338 94,264.5C 92.7869,276.366 93.7869,288.033 97,299.5C 103.086,313.626 113.586,318.793 128.5,315C 124.248,311.419 120.748,307.252 118,302.5C 115.289,291.749 110.955,281.749 105,272.5C 104.333,270.5 104.333,268.5 105,266.5C 108.932,264.411 113.099,262.911 117.5,262C 133.858,259.414 150.192,256.747 166.5,254C 177.59,249.23 187.923,243.23 197.5,236C 206.879,222.948 217.379,210.782 229,199.5C 243.616,178.801 259.783,159.301 277.5,141C 280.119,139.304 282.786,139.137 285.5,140.5 Z"/></g>
<g><path style="opacity:1" fill="#bac0e5" d="M 410.5,60.5 C 417.34,59.6701 422.84,62.0034 427,67.5C 426.739,98.1488 426.406,128.815 426,159.5C 425.187,169.565 423.854,179.565 422,189.5C 403.829,196.206 388.162,192.54 375,178.5C 369.11,168.856 366.944,158.356 368.5,147C 366.447,127.805 372.947,112.305 388,100.5C 390.466,94.288 388.299,91.4547 381.5,92C 377.298,95.8666 373.465,100.033 370,104.5C 369.169,97.144 369.335,89.8107 370.5,82.5C 383.574,74.6309 396.908,67.2975 410.5,60.5 Z"/></g>
<g><path style="opacity:1" fill="#f0f6f8" d="M 397.5,72.5 C 409.359,72.231 414.192,77.8976 412,89.5C 407.902,96.5052 402.069,98.3385 394.5,95C 385.887,86.1806 386.887,78.6806 397.5,72.5 Z"/></g>
<g><path style="opacity:1" fill="#b7bde2" d="M 437.5,77.5 C 441.853,80.8542 445.52,84.8542 448.5,89.5C 445.167,91.8333 441.833,94.1667 438.5,96.5C 437.504,90.2015 437.17,83.8682 437.5,77.5 Z"/></g>
<g><path style="opacity:1" fill="#595f83" d="M 398.5,79.5 C 405.241,79.3902 407.408,82.3902 405,88.5C 400.114,91.4772 396.947,90.1438 395.5,84.5C 396.092,82.5775 397.092,80.9108 398.5,79.5 Z"/></g>
<g><path style="opacity:1" fill="#b9bfe5" d="M 357.5,90.5 C 358.496,106.658 358.83,122.991 358.5,139.5C 357.38,163.557 355.88,187.557 354,211.5C 356.358,215.358 359.525,218.358 363.5,220.5C 363.705,235.419 357.538,247.086 345,255.5C 330.9,250.35 316.4,246.85 301.5,245C 297.798,238.292 292.965,232.459 287,227.5C 286.743,221.19 288.076,215.19 291,209.5C 294.667,202.833 298.333,196.167 302,189.5C 304.7,180.391 308.367,171.724 313,163.5C 314.822,161.955 316.989,161.288 319.5,161.5C 325.716,162.349 331.716,164.016 337.5,166.5C 342.15,165.734 343.65,163.068 342,158.5C 332.327,152.666 321.827,149.999 310.5,150.5C 310.014,143.54 308.014,137.04 304.5,131C 321.117,116.036 338.784,102.536 357.5,90.5 Z"/></g>
<g><path style="opacity:1" fill="#868ca9" d="M 357.5,90.5 C 357.56,89.9569 357.893,89.6236 358.5,89.5C 359.827,106.329 359.827,122.995 358.5,139.5C 358.83,122.991 358.496,106.658 357.5,90.5 Z"/></g>
<g><path style="opacity:1" fill="#b8bee3" d="M 475.5,126.5 C 485.405,133.002 488.572,142.002 485,153.5C 476.391,167.786 465.891,180.619 453.5,192C 446.486,192.499 439.486,192.332 432.5,191.5C 433.087,182.391 434.42,173.391 436.5,164.5C 442.11,163.12 447.777,161.953 453.5,161C 456.015,156.127 457.848,150.961 459,145.5C 464.341,143.393 469.341,140.726 474,137.5C 474.936,133.886 475.436,130.22 475.5,126.5 Z"/></g>
<g><path style="opacity:1" fill="#b9bfe5" d="M 293.5,134.5 C 295.708,135.894 297.208,137.894 298,140.5C 301.234,150.81 301.234,161.143 298,171.5C 290.667,188.167 283.333,204.833 276,221.5C 272.341,219.613 268.508,218.113 264.5,217C 257.822,215.666 251.155,214.332 244.5,213C 241.383,211.555 239.383,209.222 238.5,206C 252.017,185.128 267.85,165.962 286,148.5C 286.602,145.779 286.435,143.113 285.5,140.5C 287.884,138.115 290.55,136.115 293.5,134.5 Z"/></g>
<g><path style="opacity:1" fill="#b7bde2" d="M 365.5,183.5 C 369.298,186.796 372.964,190.296 376.5,194C 384.338,199.335 393.004,202.168 402.5,202.5C 410.892,201.741 419.225,200.908 427.5,200C 411.329,210.104 393.662,214.771 374.5,214C 370.637,212.819 367.137,210.986 364,208.5C 364.002,200.148 364.502,191.815 365.5,183.5 Z"/></g>
<g><path style="opacity:1" fill="#b8bee3" d="M 440.5,202.5 C 442.857,202.337 445.19,202.503 447.5,203C 442.379,212.745 436.879,222.245 431,231.5C 424.265,227.276 417.098,226.443 409.5,229C 393.355,239.979 379.688,253.479 368.5,269.5C 364.462,266.488 360.462,263.488 356.5,260.5C 367.013,250.807 372.679,238.807 373.5,224.5C 392.119,224.943 409.785,221.11 426.5,213C 431.772,210.209 436.438,206.709 440.5,202.5 Z"/></g>
<g><path style="opacity:1" fill="#b7bde2" d="M 229.5,213.5 C 237.454,222.217 247.454,226.383 259.5,226C 271.099,228.793 280.766,234.626 288.5,243.5C 271.704,245.218 255.037,244.385 238.5,241C 232.227,239.798 226.227,237.798 220.5,235C 218.415,233.959 216.748,232.459 215.5,230.5C 220.19,224.814 224.857,219.147 229.5,213.5 Z"/></g>
<g><path style="opacity:1" fill="#88a1c7" d="M 366.5,333.5 C 363.453,336.545 360.787,339.878 358.5,343.5C 355.887,342.565 353.221,342.398 350.5,343C 299.048,399.604 235.048,424.604 158.5,418C 134.051,415.556 111.385,408.056 90.5,395.5C 124.35,397.914 157.017,392.414 188.5,379C 207.107,369.73 221.941,356.23 233,338.5C 234.822,331.662 232.322,329.162 225.5,331C 219.198,336.301 213.198,341.968 207.5,348C 184.701,367.225 158.368,378.558 128.5,382C 109.425,382.987 90.4254,382.487 71.5,380.5C 52.6701,361.859 44.1701,339.192 46,312.5C 59.5298,332.515 78.3631,342.348 102.5,342C 124.983,339.01 143.483,328.843 158,311.5C 173.834,286.667 190.834,262.667 209,239.5C 218.821,246.219 229.654,250.386 241.5,252C 261.09,254.105 280.757,255.105 300.5,255C 306.516,255.907 312.516,256.907 318.5,258C 335.594,260.795 350.594,267.795 363.5,279C 357.771,289.079 354.438,299.912 353.5,311.5C 353.783,315.739 354.95,319.739 357,323.5C 360.448,326.776 363.615,330.109 366.5,333.5 Z"/></g>
<g><path style="opacity:1" fill="#4c5e72" d="M 282.5,260.5 C 288.527,261.004 290.027,264.004 287,269.5C 282.558,277.235 277.058,284.068 270.5,290C 265.504,290.664 263.67,288.498 265,283.5C 268.925,274.288 274.758,266.621 282.5,260.5 Z"/></g>
<g><path style="opacity:1" fill="#4b5d71" d="M 340.5,285.5 C 344.493,285.245 347.326,286.911 349,290.5C 350.007,295.111 349.34,299.445 347,303.5C 321.132,346.107 284.465,375.107 237,390.5C 233.089,388.687 232.589,386.187 235.5,383C 277.68,358.323 312.68,325.823 340.5,285.5 Z"/></g>
<g><path style="opacity:1" fill="#4c5e71" d="M 251.5,301.5 C 259.378,300.946 261.545,304.28 258,311.5C 255.282,318.255 250.449,321.755 243.5,322C 241.522,319.503 241.022,316.669 242,313.5C 244.619,309.05 247.786,305.05 251.5,301.5 Z"/></g>
<g><path style="opacity:1" fill="#4c5e71" d="M 90.5,395.5 C 83.5822,391.212 77.2489,386.212 71.5,380.5C 90.4254,382.487 109.425,382.987 128.5,382C 158.368,378.558 184.701,367.225 207.5,348C 213.198,341.968 219.198,336.301 225.5,331C 232.322,329.162 234.822,331.662 233,338.5C 221.941,356.23 207.107,369.73 188.5,379C 157.017,392.414 124.35,397.914 90.5,395.5 Z"/></g>
</svg>
