<?xml version="1.0" encoding="UTF-8"?>
<!DOCTYPE svg PUBLIC "-//W3C//DTD SVG 1.1//EN" "http://www.w3.org/Graphics/SVG/1.1/DTD/svg11.dtd">
<svg xmlns="http://www.w3.org/2000/svg" version="1.1" width="512px" height="512px" style="shape-rendering:geometricPrecision; text-rendering:geometricPrecision; image-rendering:optimizeQuality; fill-rule:evenodd; clip-rule:evenodd" xmlns:xlink="http://www.w3.org/1999/xlink">
<g><path style="opacity:1" fill="#383e51" d="M 246.5,107.5 C 253.992,107.942 261.325,107.108 268.5,105C 272.351,102.64 275.018,99.3071 276.5,95C 276.43,94.2352 276.097,93.7352 275.5,93.5C 265.786,82.1302 253.786,73.9635 239.5,69C 224.903,63.9345 209.903,60.6011 194.5,59C 190.509,57.892 186.675,56.392 183,54.5C 181.5,54.6667 180.667,55.5 180.5,57C 181.315,58.6434 182.315,60.1434 183.5,61.5C 185.913,63.8872 188.58,66.0539 191.5,68C 212.086,72.0417 229.919,81.2084 245,95.5C 245.6,98.0953 245.1,100.429 243.5,102.5C 241.598,103.511 239.598,103.678 237.5,103C 228.819,94.6553 218.819,88.322 207.5,84C 200.155,81.6646 192.822,79.3312 185.5,77C 179.333,73.5 174.5,68.6667 171,62.5C 168.192,51.7717 172.192,45.4383 183,43.5C 196.448,48.2329 210.282,51.3995 224.5,53C 241.538,57.0206 257.204,64.0206 271.5,74C 276.5,77.6667 280.833,82 284.5,87C 294.447,86.2812 303.78,88.2812 312.5,93C 318.728,98.8063 324.728,104.806 330.5,111C 360.304,122.901 389.638,135.901 418.5,150C 434.636,155.934 450.969,161.267 467.5,166C 485.535,172.684 496.202,185.351 499.5,204C 498.869,207.529 498.036,211.029 497,214.5C 494.032,216.991 490.865,217.157 487.5,215C 476.353,204.093 463.019,197.426 447.5,195C 434.489,194.1 421.489,193.1 408.5,192C 404.675,191.294 401.008,190.128 397.5,188.5C 385.514,189.83 373.514,191.164 361.5,192.5C 352.71,192.719 344.376,190.886 336.5,187C 320.306,183.798 303.973,182.798 287.5,184C 276.262,184.518 266.429,188.352 258,195.5C 254.779,204.579 253.779,213.913 255,223.5C 269.412,231.288 283.578,239.454 297.5,248C 313.489,260.323 325.322,275.823 333,294.5C 338.06,307.013 342.727,319.679 347,332.5C 352.249,343.491 359.749,352.658 369.5,360C 375.693,363.262 381.36,367.262 386.5,372C 402.139,374.907 407.639,383.74 403,398.5C 399.81,402.095 395.81,403.761 391,403.5C 383.573,402.1 376.073,401.1 368.5,400.5C 354.671,403.434 342.004,400.934 330.5,393C 307.836,373.164 284.17,354.664 259.5,337.5C 258.773,351.769 258.607,366.103 259,380.5C 259.75,395.159 265.25,407.659 275.5,418C 285.249,424.292 295.082,430.458 305,436.5C 312.225,445.068 314.225,454.734 311,465.5C 308.713,468.462 305.88,470.629 302.5,472C 291.945,487.306 281.278,487.306 270.5,472C 268.33,470.414 265.996,469.08 263.5,468C 254.169,467.744 244.836,467.91 235.5,468.5C 223.087,469.371 211.42,466.871 200.5,461C 167.287,445.911 136.954,426.577 109.5,403C 94.4894,387.835 80.8227,371.668 68.5,354.5C 62.2104,358.566 56.3771,363.233 51,368.5C 49.6591,371.022 48.8257,373.689 48.5,376.5C 65.2627,380.003 72.7627,390.336 71,407.5C 70.5,408.667 69.6667,409.5 68.5,410C 56.8333,410.667 45.1667,410.667 33.5,410C 26.6322,408.659 21.7989,404.825 19,398.5C 16.6669,387.506 14.5003,376.506 12.5,365.5C 12.2302,359.143 14.0635,353.476 18,348.5C 29.6864,339.647 39.8531,329.314 48.5,317.5C 33.106,285.482 23.2727,251.815 19,216.5C 13.5525,177.673 11.5525,138.673 13,99.5C 15.299,77.2707 21.6323,56.2707 32,36.5C 36.0937,33.5244 39.427,34.191 42,38.5C 42.5701,104.692 56.9035,167.692 85,227.5C 91.9313,240.246 99.4313,252.579 107.5,264.5C 122.98,287.479 142.313,306.646 165.5,322C 168.312,323.549 171.312,324.382 174.5,324.5C 184.747,326.026 193.414,322.859 200.5,315C 204.229,314.217 206.563,315.717 207.5,319.5C 204.959,325.454 200.626,329.62 194.5,332C 190.213,333.488 185.88,334.822 181.5,336C 192.766,343.65 204.766,349.983 217.5,355C 221.5,358 221.5,361 217.5,364C 215.833,364.667 214.167,364.667 212.5,364C 192.882,355.866 174.882,345.199 158.5,332C 136.296,314.13 116.463,293.963 99,271.5C 68.0458,225.331 48.0458,174.665 39,119.5C 36.2565,101.219 33.9232,82.8855 32,64.5C 25.2164,82.7013 22.0497,101.535 22.5,121C 23.2811,168.747 28.7811,215.913 39,262.5C 54.5609,316.001 82.3942,361.835 122.5,400C 151.668,423.444 183.668,442.444 218.5,457C 233.843,457.374 249.176,457.374 264.5,457C 273.173,459.341 279.84,464.341 284.5,472C 288.85,472.645 291.017,470.812 291,466.5C 287.564,461.064 282.897,457.064 277,454.5C 275.461,450.195 276.794,447.528 281,446.5C 289.604,448.634 295.937,453.634 300,461.5C 303.234,453.098 301.068,446.265 293.5,441C 285.405,437.894 278.072,433.561 271.5,428C 266.966,431.947 261.632,434.947 255.5,437C 232.917,440.807 211.417,437.641 191,427.5C 189.35,422.932 190.85,420.266 195.5,419.5C 212.105,426.721 229.439,429.888 247.5,429C 253.887,427.818 258.887,424.651 262.5,419.5C 254.978,409.776 250.478,398.776 249,386.5C 248.667,368.5 248.333,350.5 248,332.5C 246.364,309.576 238.364,289.243 224,271.5C 208.069,240.735 213.569,214.568 240.5,193C 254.16,181.671 269.827,175.004 287.5,173C 299.846,172.616 312.179,172.616 324.5,173C 321.442,165.864 321.942,159.031 326,152.5C 329.966,149.536 333.633,146.203 337,142.5C 340.491,136.808 340.325,131.308 336.5,126C 331.269,123.769 326.269,121.103 321.5,118C 316.824,112.958 312.157,107.958 307.5,103C 301.066,98.9749 294.066,97.3083 286.5,98C 280.706,111.571 270.372,118.071 255.5,117.5C 254.538,145.593 241.872,166.427 217.5,180C 195.235,185.302 174.902,194.635 156.5,208C 150.43,212.947 144.93,218.447 140,224.5C 133.167,234.162 126.834,244.162 121,254.5C 120.184,255.823 119.017,256.489 117.5,256.5C 115.833,256.5 114.167,256.5 112.5,256.5C 111.933,254.97 111.267,253.47 110.5,252C 114.75,243.421 119.416,235.088 124.5,227C 96.2108,190.835 80.0442,149.668 76,103.5C 72.7658,79.1583 72.7658,54.825 76,30.5C 79.3333,26.5 82.6667,26.5 86,30.5C 95.4869,93.3483 125.32,143.848 175.5,182C 185.487,178.249 195.82,175.249 206.5,173C 233.726,159.724 247.059,137.891 246.5,107.5 Z"/></g>
<g><path style="opacity:1" fill="#f7be69" d="M 275.5,93.5 C 271.437,98.5781 266.104,100.411 259.5,99C 240.295,81.8982 217.962,70.8982 192.5,66C 189.447,64.4734 186.447,62.9734 183.5,61.5C 182.315,60.1434 181.315,58.6434 180.5,57C 180.667,55.5 181.5,54.6667 183,54.5C 186.675,56.392 190.509,57.892 194.5,59C 209.903,60.6011 224.903,63.9345 239.5,69C 253.786,73.9635 265.786,82.1302 275.5,93.5 Z"/></g>
<g><path style="opacity:1" fill="#ee7c45" d="M 183.5,61.5 C 186.447,62.9734 189.447,64.4734 192.5,66C 217.962,70.8982 240.295,81.8982 259.5,99C 266.104,100.411 271.437,98.5781 275.5,93.5C 276.097,93.7352 276.43,94.2352 276.5,95C 275.018,99.3071 272.351,102.64 268.5,105C 261.325,107.108 253.992,107.942 246.5,107.5C 245.248,105.999 244.248,104.332 243.5,102.5C 245.1,100.429 245.6,98.0953 245,95.5C 229.919,81.2084 212.086,72.0417 191.5,68C 188.58,66.0539 185.913,63.8872 183.5,61.5 Z"/></g>
<g><path style="opacity:1" fill="#b48e9b" d="M 174.5,324.5 C 162.839,312.672 151.339,300.672 140,288.5C 134.333,281.167 128.667,273.833 123,266.5C 120.888,263.273 119.055,259.94 117.5,256.5C 119.017,256.489 120.184,255.823 121,254.5C 126.834,244.162 133.167,234.162 140,224.5C 144.93,218.447 150.43,212.947 156.5,208C 174.902,194.635 195.235,185.302 217.5,180C 241.872,166.427 254.538,145.593 255.5,117.5C 270.372,118.071 280.706,111.571 286.5,98C 294.066,97.3083 301.066,98.9749 307.5,103C 312.157,107.958 316.824,112.958 321.5,118C 326.269,121.103 331.269,123.769 336.5,126C 340.325,131.308 340.491,136.808 337,142.5C 333.633,146.203 329.966,149.536 326,152.5C 321.942,159.031 321.442,165.864 324.5,173C 312.179,172.616 299.846,172.616 287.5,173C 269.827,175.004 254.16,181.671 240.5,193C 213.569,214.568 208.069,240.735 224,271.5C 238.364,289.243 246.364,309.576 248,332.5C 248.333,350.5 248.667,368.5 249,386.5C 250.478,398.776 254.978,409.776 262.5,419.5C 258.887,424.651 253.887,427.818 247.5,429C 229.439,429.888 212.105,426.721 195.5,419.5C 190.85,420.266 189.35,422.932 191,427.5C 211.417,437.641 232.917,440.807 255.5,437C 261.632,434.947 266.966,431.947 271.5,428C 278.072,433.561 285.405,437.894 293.5,441C 301.068,446.265 303.234,453.098 300,461.5C 295.937,453.634 289.604,448.634 281,446.5C 276.794,447.528 275.461,450.195 277,454.5C 282.897,457.064 287.564,461.064 291,466.5C 291.017,470.812 288.85,472.645 284.5,472C 279.84,464.341 273.173,459.341 264.5,457C 249.176,457.374 233.843,457.374 218.5,457C 183.668,442.444 151.668,423.444 122.5,400C 82.3942,361.835 54.5609,316.001 39,262.5C 28.7811,215.913 23.2811,168.747 22.5,121C 22.0497,101.535 25.2164,82.7013 32,64.5C 33.9232,82.8855 36.2565,101.219 39,119.5C 48.0458,174.665 68.0458,225.331 99,271.5C 116.463,293.963 136.296,314.13 158.5,332C 174.882,345.199 192.882,355.866 212.5,364C 214.167,364.667 215.833,364.667 217.5,364C 221.5,361 221.5,358 217.5,355C 204.766,349.983 192.766,343.65 181.5,336C 185.88,334.822 190.213,333.488 194.5,332C 200.626,329.62 204.959,325.454 207.5,319.5C 206.563,315.717 204.229,314.217 200.5,315C 193.414,322.859 184.747,326.026 174.5,324.5 Z"/></g>
<g><path style="opacity:1" fill="#6c586b" d="M 293.5,113.5 C 298.126,112.7 301.96,114.034 305,117.5C 306.833,125 304,127.833 296.5,126C 291.269,122.759 290.269,118.593 293.5,113.5 Z"/></g>
<g><path style="opacity:1" fill="#f67c69" d="M 349.5,131.5 C 354.657,132.831 359.657,134.664 364.5,137C 394.068,152.951 425.068,165.285 457.5,174C 467.517,176.755 476.017,181.921 483,189.5C 490.075,200.364 488.908,202.197 479.5,195C 468.306,188.713 456.306,185.047 443.5,184C 432.858,182.971 422.191,182.304 411.5,182C 405.868,180.789 400.534,178.789 395.5,176C 386.261,167.435 375.927,160.435 364.5,155C 357.856,152.676 351.189,150.676 344.5,149C 348.101,143.769 349.768,137.936 349.5,131.5 Z"/></g>
<g><path style="opacity:1" fill="#d64a51" d="M 333.5,159.5 C 352.549,159.364 368.883,165.864 382.5,179C 375.52,180.329 368.52,181.496 361.5,182.5C 349.085,182.665 339.585,177.665 333,167.5C 332.278,164.739 332.445,162.073 333.5,159.5 Z"/></g>
<g><path style="opacity:1" fill="#f7f7f7" d="M 243.5,203.5 C 244.097,203.735 244.43,204.235 244.5,205C 243.919,219.84 243.085,234.674 242,249.5C 239.787,255.191 236.62,260.191 232.5,264.5C 223.851,249.442 223.351,234.109 231,218.5C 234.625,213.043 238.791,208.043 243.5,203.5 Z"/></g>
<g><path style="opacity:1" fill="#6a576b" d="M 112.5,256.5 C 114.167,256.5 115.833,256.5 117.5,256.5C 119.055,259.94 120.888,263.273 123,266.5C 128.667,273.833 134.333,281.167 140,288.5C 151.339,300.672 162.839,312.672 174.5,324.5C 171.312,324.382 168.312,323.549 165.5,322C 142.313,306.646 122.98,287.479 107.5,264.5C 109.95,262.371 111.617,259.704 112.5,256.5 Z"/></g>
<g><path style="opacity:1" fill="#695669" d="M 53.5,328.5 C 57.284,333.368 60.6173,338.702 63.5,344.5C 56.2872,348.543 49.7872,353.543 44,359.5C 37.762,367.695 36.9287,376.362 41.5,385.5C 49.466,386.23 55.6326,389.896 60,396.5C 60.4828,397.448 60.6495,398.448 60.5,399.5C 51.4938,399.666 42.4938,399.5 33.5,399C 31.6217,397.457 30.1217,395.624 29,393.5C 27.237,384.217 25.0703,375.05 22.5,366C 22.7261,362.988 23.5594,360.155 25,357.5C 35.3718,348.629 44.8718,338.962 53.5,328.5 Z"/></g>
<g><path style="opacity:1" fill="#3b3f52" d="M 100.5,348.5 C 101.873,348.343 103.207,348.51 104.5,349C 120.067,366.568 136.9,382.735 155,397.5C 155.228,404.54 152.061,406.373 145.5,403C 128.437,388.726 112.604,373.226 98,356.5C 97.0182,353.225 97.8515,350.559 100.5,348.5 Z"/></g>
<g><path style="opacity:1" fill="#3f4255" d="M 168.5,407.5 C 171.841,407.656 174.674,408.989 177,411.5C 177.944,417.553 175.444,419.72 169.5,418C 164.539,415.008 164.205,411.508 168.5,407.5 Z"/></g>
</svg>
