<?xml version="1.0" encoding="UTF-8"?>
<!DOCTYPE svg PUBLIC "-//W3C//DTD SVG 1.1//EN" "http://www.w3.org/Graphics/SVG/1.1/DTD/svg11.dtd">
<svg xmlns="http://www.w3.org/2000/svg" version="1.1" width="512px" height="512px" style="shape-rendering:geometricPrecision; text-rendering:geometricPrecision; image-rendering:optimizeQuality; fill-rule:evenodd; clip-rule:evenodd" xmlns:xlink="http://www.w3.org/1999/xlink">
<g><path style="opacity:1" fill="#383e51" d="M 447.5,16.5 C 463.352,16.8554 469.852,24.8554 467,40.5C 466.562,43.376 465.562,46.0427 464,48.5C 451.904,62.6847 442.904,78.6847 437,96.5C 431.306,108.07 422.806,116.904 411.5,123C 389.958,134.271 368.291,145.271 346.5,156C 349.343,156.446 352.176,156.946 355,157.5C 357.444,155.105 360.444,153.438 364,152.5C 369.024,153.514 370.524,156.348 368.5,161C 373.093,163.54 376.426,162.374 378.5,157.5C 386.935,156.287 389.268,159.621 385.5,167.5C 387.5,168.833 389.5,170.167 391.5,171.5C 394.576,167.459 398.576,165.959 403.5,167C 407.291,171.333 406.624,175 401.5,178C 403.35,180.018 405.35,181.851 407.5,183.5C 410.013,181.494 412.846,180.16 416,179.5C 421.205,180.308 422.872,183.308 421,188.5C 419.255,189.956 417.422,191.289 415.5,192.5C 416.441,194.772 417.774,196.772 419.5,198.5C 423.319,195.724 427.319,195.224 431.5,197C 433.886,199.707 434.052,202.54 432,205.5C 429.437,206.741 426.937,208.074 424.5,209.5C 425.503,212.035 424.837,214.202 422.5,216C 387.939,230.602 355.939,249.269 326.5,272C 312.058,280.554 297.058,288.054 281.5,294.5C 275.449,317.706 263.449,337.206 245.5,353C 234.51,357.672 227.843,354.172 225.5,342.5C 227.327,332.897 228.16,323.23 228,313.5C 213.5,316.261 201.167,323.261 191,334.5C 183.453,353.861 188.619,368.694 206.5,379C 225.813,384.873 245.48,386.873 265.5,385C 268.618,383.941 271.618,382.608 274.5,381C 285.362,367.626 296.695,354.626 308.5,342C 317.628,333.938 327.295,326.605 337.5,320C 359.074,310.546 380.408,300.546 401.5,290C 416.33,287.083 424.997,293.083 427.5,308C 424.955,320.092 419.289,330.426 410.5,339C 394.788,350.373 379.954,362.873 366,376.5C 341.371,403.657 340.038,431.99 362,461.5C 365.522,464.266 368.855,467.266 372,470.5C 378.159,485.17 373.326,493.17 357.5,494.5C 318.746,492.866 288.913,475.866 268,443.5C 267.275,442.941 266.442,442.608 265.5,442.5C 224.377,453.486 183.044,454.319 141.5,445C 73.3001,425.108 41.4668,379.608 46,308.5C 48.6279,276.453 57.7946,246.453 73.5,218.5C 71.5035,207.011 68.0035,196.011 63,185.5C 56.6525,174.135 50.3192,162.801 44,151.5C 41.5677,136.267 47.7344,126.434 62.5,122C 79.3152,116.031 96.6486,113.197 114.5,113.5C 131.013,114.251 147.513,115.251 164,116.5C 168.87,116.353 173.703,115.853 178.5,115C 262.868,67.473 352.535,34.6397 447.5,16.5 Z"/></g>
<g><path style="opacity:1" fill="#88a1c7" d="M 319.5,163.5 C 310.589,166.955 301.923,170.955 293.5,175.5C 291.814,172.995 289.481,172.162 286.5,173C 268.178,182.493 250.178,192.493 232.5,203C 174.762,204.283 128.928,228.117 95,274.5C 89.6667,283.167 84.3333,291.833 79,300.5C 76.2246,307.173 77.7246,312.673 83.5,317C 87.9588,318.983 92.2921,318.65 96.5,316C 104.198,308.234 112.532,302.067 121.5,297.5C 101.798,328.186 96.6309,361.186 106,396.5C 109.05,407.773 114.55,417.606 122.5,426C 83.8204,410.275 61.9871,381.441 57,339.5C 53.7505,299.747 61.7505,262.414 81,227.5C 108.425,179.741 146.591,143.241 195.5,118C 263.338,81.418 334.671,53.7514 409.5,35C 422.874,31.8587 436.374,29.3587 450,27.5C 455.829,28.3354 458.162,31.6687 457,37.5C 451.248,46.672 445.248,55.672 439,64.5C 433.317,76.5308 427.65,88.5308 422,100.5C 416.649,106.419 410.483,111.253 403.5,115C 377.112,128.861 350.445,142.194 323.5,155C 320.159,156.85 318.826,159.683 319.5,163.5 Z"/></g>
<g><path style="opacity:1" fill="#4c5e73" d="M 423.5,52.5 C 428.813,52.6438 430.979,55.3105 430,60.5C 428.167,62.3333 426.333,64.1667 424.5,66C 418.556,67.7199 416.056,65.5533 417,59.5C 419.372,57.2968 421.539,54.9635 423.5,52.5 Z"/></g>
<g><path style="opacity:1" fill="#4d6074" d="M 359.5,71.5 C 367.164,70.6662 370.664,73.9995 370,81.5C 366.455,87.2087 362.121,87.8754 357,83.5C 354.455,78.7229 355.288,74.7229 359.5,71.5 Z"/></g>
<g><path style="opacity:1" fill="#4d5f73" d="M 276.5,103.5 C 277.496,103.414 278.329,103.748 279,104.5C 280.083,120.25 283.583,135.416 289.5,150C 289.333,151.5 288.5,152.333 287,152.5C 270.368,139.186 266.868,122.852 276.5,103.5 Z"/></g>
<g><path style="opacity:1" fill="#4c5f73" d="M 253.5,114.5 C 254.822,114.33 255.989,114.663 257,115.5C 257.383,131.432 260.883,146.599 267.5,161C 267.333,162.5 266.5,163.333 265,163.5C 252.2,154.452 247.2,142.118 250,126.5C 251.072,122.453 252.239,118.453 253.5,114.5 Z"/></g>
<g><path style="opacity:1" fill="#4d5f73" d="M 232.5,124.5 C 233.822,124.33 234.989,124.663 236,125.5C 235.84,141.368 239.007,156.535 245.5,171C 245.387,172.28 244.72,173.113 243.5,173.5C 231.582,165.327 226.416,153.993 228,139.5C 228.733,134.229 230.233,129.229 232.5,124.5 Z"/></g>
<g><path style="opacity:1" fill="#f1f9f9" d="M 319.5,163.5 C 320.683,164.504 322.016,165.338 323.5,166C 345.516,164.889 366.183,169.556 385.5,180C 396.882,187.048 405.882,196.382 412.5,208C 398.042,215.063 383.708,222.396 369.5,230C 352.649,240.257 336.315,251.257 320.5,263C 289.812,280.898 257.145,293.898 222.5,302C 212.893,305.479 203.893,309.979 195.5,315.5C 185.128,316.298 177.295,312.298 172,303.5C 170.595,299.928 170.262,296.261 171,292.5C 172.892,287.459 175.392,282.792 178.5,278.5C 183.448,277.906 188.114,276.406 192.5,274C 207.937,264.862 220.437,252.696 230,237.5C 230.993,231.498 228.493,229.332 222.5,231C 218.408,237.036 213.742,242.536 208.5,247.5C 195.602,250.094 182.602,252.261 169.5,254C 148.33,258.088 129.33,266.754 112.5,280C 109.285,281.774 105.952,283.274 102.5,284.5C 101.893,284.376 101.56,284.043 101.5,283.5C 134.111,236.857 179.111,213.357 236.5,213C 254.347,201.907 272.681,191.574 291.5,182C 293.229,180.211 293.896,178.044 293.5,175.5C 301.923,170.955 310.589,166.955 319.5,163.5 Z"/></g>
<g><path style="opacity:1" fill="#bad2f1" d="M 208.5,247.5 C 201.498,255.664 193.165,262.164 183.5,267C 147.033,269.823 115.533,283.656 89,308.5C 88.3076,307.975 87.8076,307.308 87.5,306.5C 91.9411,298.603 96.6078,290.936 101.5,283.5C 101.56,284.043 101.893,284.376 102.5,284.5C 105.952,283.274 109.285,281.774 112.5,280C 129.33,266.754 148.33,258.088 169.5,254C 182.602,252.261 195.602,250.094 208.5,247.5 Z"/></g>
<g><path style="opacity:1" fill="#bad3f2" d="M 178.5,278.5 C 175.392,282.792 172.892,287.459 171,292.5C 170.262,296.261 170.595,299.928 172,303.5C 177.295,312.298 185.128,316.298 195.5,315.5C 161.694,344.368 156.527,377.702 180,415.5C 188.358,426.363 198.858,434.363 211.5,439.5C 203.684,440.492 195.684,440.826 187.5,440.5C 160.852,441.087 139.352,431.087 123,410.5C 104.774,370.411 108.44,332.411 134,296.5C 136.825,292.675 139.992,289.175 143.5,286C 154.795,281.774 166.461,279.274 178.5,278.5 Z"/></g>
<g><path style="opacity:1" fill="#7f90ac" d="M 211.5,439.5 C 212.043,439.56 212.376,439.893 212.5,440.5C 204.009,441.821 195.676,441.821 187.5,440.5C 195.684,440.826 203.684,440.492 211.5,439.5 Z"/></g>
</svg>
