<?xml version="1.0" encoding="UTF-8"?>
<!DOCTYPE svg PUBLIC "-//W3C//DTD SVG 1.1//EN" "http://www.w3.org/Graphics/SVG/1.1/DTD/svg11.dtd">
<svg xmlns="http://www.w3.org/2000/svg" version="1.1" width="512px" height="512px" style="shape-rendering:geometricPrecision; text-rendering:geometricPrecision; image-rendering:optimizeQuality; fill-rule:evenodd; clip-rule:evenodd" xmlns:xlink="http://www.w3.org/1999/xlink">
<g><path style="opacity:1" fill="#393e51" d="M 186.5,204.5 C 188.751,207.295 191.418,209.628 194.5,211.5C 198.479,214.812 202.146,218.479 205.5,222.5C 213.858,215.803 222.191,209.136 230.5,202.5C 228.312,197.445 225.645,192.778 222.5,188.5C 220.247,183.665 217.247,179.331 213.5,175.5C 211.267,180.691 208.934,185.858 206.5,191C 208.37,193.04 210.37,194.873 212.5,196.5C 216.583,203.679 214.583,206.845 206.5,206C 205.627,204.955 204.627,204.122 203.5,203.5C 201.5,201.329 199.666,198.996 198,196.5C 197.184,195.177 196.017,194.511 194.5,194.5C 187.985,186.93 189.652,182.264 199.5,180.5C 201.368,175.563 203.035,170.563 204.5,165.5C 202.851,163.35 201.018,161.35 199,159.5C 197.33,154.499 198.996,151.499 204,150.5C 206.886,151.546 209.386,153.213 211.5,155.5C 218.413,164.33 225.08,173.33 231.5,182.5C 234.252,187.674 237.252,192.674 240.5,197.5C 244.372,195.403 248.039,193.069 251.5,190.5C 250.333,187.5 249.167,184.5 248,181.5C 247.214,175.627 249.714,173.627 255.5,175.5C 257.692,179.228 259.859,182.894 262,186.5C 264.806,185.43 267.473,184.097 270,182.5C 270.667,180.833 270.667,179.167 270,177.5C 268.658,173.768 267.491,170.101 266.5,166.5C 264.307,156.922 261.307,147.588 257.5,138.5C 252.642,137.708 247.975,138.541 243.5,141C 237.166,144.165 231.166,147.831 225.5,152C 222.187,152.864 219.854,151.698 218.5,148.5C 218.357,146.738 218.691,145.071 219.5,143.5C 229.22,135.473 240.22,129.806 252.5,126.5C 250.802,119.696 253.468,116.863 260.5,118C 262.565,121.298 264.232,124.798 265.5,128.5C 269.327,140.647 273.327,152.647 277.5,164.5C 278.481,169.144 279.481,173.811 280.5,178.5C 293.612,174.759 306.945,172.092 320.5,170.5C 320.5,167.167 320.5,163.833 320.5,160.5C 320.5,157.5 320.5,154.5 320.5,151.5C 314.966,151.449 309.633,150.449 304.5,148.5C 304.892,152.582 305.558,156.582 306.5,160.5C 306.11,165.534 303.444,167.367 298.5,166C 297.117,164.729 296.117,163.229 295.5,161.5C 295.115,154.803 294.448,148.136 293.5,141.5C 288.181,140.003 282.848,138.503 277.5,137C 274.959,135.152 273.959,132.652 274.5,129.5C 275.641,127.757 277.308,126.757 279.5,126.5C 290.918,128.708 301.585,132.875 311.5,139C 313.74,139.977 316.073,140.477 318.5,140.5C 318.944,134.847 321.944,133.014 327.5,135C 328.701,135.903 329.535,137.069 330,138.5C 330.498,141.482 330.665,144.482 330.5,147.5C 330.5,150.167 330.5,152.833 330.5,155.5C 330.5,160.167 330.5,164.833 330.5,169.5C 332.735,169.795 334.735,169.461 336.5,168.5C 341.179,168.666 345.845,168.499 350.5,168C 347.29,165.283 343.956,162.783 340.5,160.5C 339.266,157.535 339.266,154.535 340.5,151.5C 342.402,150.489 344.402,150.322 346.5,151C 357.696,161.098 370.696,167.765 385.5,171C 399.741,173.13 408.908,167.296 413,153.5C 415.647,145.074 414.313,137.407 409,130.5C 405.833,128 402.667,125.5 399.5,123C 388.184,121.203 376.851,119.537 365.5,118C 358.5,117.333 351.5,117.333 344.5,118C 332.002,119.833 319.502,121.666 307,123.5C 296.622,123.114 286.789,120.614 277.5,116C 270.754,109.91 269.588,102.744 274,94.5C 274.936,90.7926 276.769,87.6259 279.5,85C 286.337,83.6733 289.004,86.5067 287.5,93.5C 289.167,93.5 290.833,93.5 292.5,93.5C 292.787,86.5271 296.12,84.3604 302.5,87C 303.594,88.7803 304.594,90.6136 305.5,92.5C 306.167,92.1667 306.833,91.8333 307.5,91.5C 308.759,88.2928 310.092,85.1261 311.5,82C 313.833,81.3333 316.167,81.3333 318.5,82C 320.037,83.1096 320.703,84.6096 320.5,86.5C 322.5,86.1667 324.5,85.8333 326.5,85.5C 325.729,79.1274 328.396,76.294 334.5,77C 336.635,77.7589 337.968,79.2589 338.5,81.5C 343.802,82.6628 349.136,82.8295 354.5,82C 357.533,78.6111 358.199,74.7777 356.5,70.5C 353.164,69.7604 349.83,69.0938 346.5,68.5C 345.258,75.447 341.591,77.447 335.5,74.5C 334.526,72.2573 334.192,69.924 334.5,67.5C 331.167,67.5 327.833,67.5 324.5,67.5C 324.992,72.0059 322.992,74.3392 318.5,74.5C 314.187,74.1739 312.52,71.8406 313.5,67.5C 311.266,67.6199 309.099,67.2865 307,66.5C 305.155,67.9521 303.655,69.7854 302.5,72C 299.331,72.9782 296.497,72.4782 294,70.5C 293.83,67.5321 293.664,64.6988 293.5,62C 292.5,61.5 291.5,61 290.5,60.5C 288.526,64.1699 285.526,65.3366 281.5,64C 277.92,61.0737 277.587,57.7404 280.5,54C 278.367,51.3235 276.7,51.3235 275.5,54C 268,55.8333 265.167,53 267,45.5C 269.016,39.2971 272.183,33.7971 276.5,29C 279.205,27.1285 282.205,26.2952 285.5,26.5C 292.753,28.3042 300.086,29.8042 307.5,31C 320.5,31.6667 333.5,31.6667 346.5,31C 354.151,28.6723 361.818,26.339 369.5,24C 386.492,20.7481 401.826,24.4148 415.5,35C 423.724,37.2041 432.057,38.8707 440.5,40C 451.783,44.2368 461.283,51.0701 469,60.5C 494.188,95.1207 500.855,133.121 489,174.5C 475.604,218.185 452.77,256.019 420.5,288C 424.616,289.09 428.782,289.923 433,290.5C 439.942,287.909 447.108,286.243 454.5,285.5C 459.801,285.365 464.634,286.699 469,289.5C 470.257,296.778 468.757,303.612 464.5,310C 474.054,311.921 476.221,316.754 471,324.5C 469.442,326.359 467.609,327.859 465.5,329C 470.115,332.617 473.615,337.117 476,342.5C 476.667,343.833 476.667,345.167 476,346.5C 474.482,348.348 472.649,349.848 470.5,351C 466.436,352.338 462.436,353.672 458.5,355C 459.635,359.748 459.802,364.581 459,369.5C 457.883,371.124 456.383,372.124 454.5,372.5C 434.711,364.939 415.711,355.772 397.5,345C 393.348,344.074 389.181,343.24 385,342.5C 372.607,346.944 362.107,344.277 353.5,334.5C 351.458,344.996 348.625,355.329 345,365.5C 339.922,375.99 334.589,386.323 329,396.5C 327.545,405.138 329.211,413.138 334,420.5C 339.723,430.222 346.889,438.722 355.5,446C 362.453,448.426 369.119,451.426 375.5,455C 385.171,463.538 386.838,473.204 380.5,484C 378.1,485.701 375.433,486.534 372.5,486.5C 366.593,484.985 360.593,483.985 354.5,483.5C 348.981,484.003 343.481,484.67 338,485.5C 331.486,485.311 326.82,482.311 324,476.5C 319.375,458.232 310.209,442.732 296.5,430C 289.88,425.77 283.713,420.937 278,415.5C 274.625,407.857 273.625,399.857 275,391.5C 277.667,384.833 280.333,378.167 283,371.5C 284.175,366.816 284.341,362.15 283.5,357.5C 277.046,358.429 270.713,359.762 264.5,361.5C 255.974,380.849 244.474,398.183 230,413.5C 226.836,425.728 230.002,436.228 239.5,445C 251.016,449.005 261.183,455.172 270,463.5C 276.784,476.49 273.117,484.823 259,488.5C 245.706,484.734 232.206,483.567 218.5,485C 214.532,484.036 211.365,481.869 209,478.5C 205.267,464.361 198.434,452.028 188.5,441.5C 183.816,436.981 178.982,432.648 174,428.5C 169.264,421.04 168.264,413.04 171,404.5C 175.927,392.321 181.094,380.321 186.5,368.5C 154.827,369.857 124.16,365.023 94.5,354C 73.0209,344.179 53.8542,331.012 37,314.5C 14.8196,282.893 10.4862,248.893 24,212.5C 48.0738,162.796 87.4072,142.462 142,151.5C 144.052,154.46 143.886,157.293 141.5,160C 99.5534,169.945 75.8867,196.278 70.5,239C 71.2461,257.502 79.2461,271.835 94.5,282C 116.3,293.624 136.633,291.458 155.5,275.5C 171.041,257.378 178.541,236.378 178,212.5C 173.661,210.488 171.994,207.155 173,202.5C 174.182,200.643 175.849,199.643 178,199.5C 181.463,200.137 184.296,201.803 186.5,204.5 Z"/></g>
<g><path style="opacity:1" fill="#c67c7c" d="M 427.5,107.5 C 424.933,106.525 422.267,105.858 419.5,105.5C 421.526,99.1761 420.193,93.6761 415.5,89C 412.975,88.1041 410.808,88.6041 409,90.5C 411.81,106.025 405.31,112.859 389.5,111C 364.739,104.782 340.072,105.115 315.5,112C 304.264,113.786 293.597,112.119 283.5,107C 282.663,105.989 282.33,104.822 282.5,103.5C 290.522,104.904 298.522,104.737 306.5,103C 316.029,100.567 325.362,97.5666 334.5,94C 350.833,93.6667 367.167,93.3333 383.5,93C 388.411,92.5878 391.744,90.0878 393.5,85.5C 396.107,84.6816 398.774,84.1816 401.5,84C 403.706,81.791 404.04,79.291 402.5,76.5C 388.616,67.036 373.283,61.2026 356.5,59C 339.124,57.7591 321.791,56.4257 304.5,55C 296.747,52.232 289.747,48.232 283.5,43C 282.167,41 282.167,39 283.5,37C 288.846,37.8852 294.179,39.2186 299.5,41C 316.833,41.6667 334.167,41.6667 351.5,41C 358.783,38.4611 366.116,36.1278 373.5,34C 381.76,32.9175 389.76,33.9175 397.5,37C 410.021,45.9116 424.021,50.5783 439.5,51C 453,57.8333 463.167,68 470,81.5C 483.039,105.37 487.039,130.704 482,157.5C 478.87,171.557 474.537,185.223 469,198.5C 470.342,184.227 470.676,169.894 470,155.5C 467.75,138.679 461.416,123.679 451,110.5C 448.463,107.628 445.63,105.128 442.5,103C 438.833,102.333 435.167,102.333 431.5,103C 429.356,103.792 428.023,105.292 427.5,107.5 Z"/></g>
<g><path style="opacity:1" fill="#874d76" d="M 376.5,44.5 C 379.249,44.2739 381.916,44.6072 384.5,45.5C 387.804,50.3896 386.471,53.5562 380.5,55C 374.667,55.8333 372.167,53.3333 373,47.5C 374.145,46.3636 375.312,45.3636 376.5,44.5 Z"/></g>
<g><path style="opacity:1" fill="#f1ae8e" d="M 419.5,105.5 C 422.267,105.858 424.933,106.525 427.5,107.5C 427.751,109.17 428.418,110.67 429.5,112C 432.711,113.153 436.044,113.82 439.5,114C 452.182,127.208 459.015,143.041 460,161.5C 461.516,215.462 441.183,259.129 399,292.5C 398.667,290.167 398.333,287.833 398,285.5C 397.292,284.619 396.458,283.953 395.5,283.5C 395.5,282.833 395.5,282.167 395.5,281.5C 425.753,251.409 437.753,215.409 431.5,173.5C 433.856,151.055 426.856,132.221 410.5,117C 414.478,113.864 417.478,110.031 419.5,105.5 Z"/></g>
<g><path style="opacity:1" fill="#f68188" d="M 265.5,128.5 C 268.57,128.368 271.57,128.701 274.5,129.5C 273.959,132.652 274.959,135.152 277.5,137C 282.848,138.503 288.181,140.003 293.5,141.5C 294.448,148.136 295.115,154.803 295.5,161.5C 289.404,162.132 283.404,163.132 277.5,164.5C 273.327,152.647 269.327,140.647 265.5,128.5 Z"/></g>
<g><path style="opacity:1" fill="#f68187" d="M 266.5,166.5 C 254.377,170.66 242.71,175.994 231.5,182.5C 225.08,173.33 218.413,164.33 211.5,155.5C 213.473,152.861 215.806,150.527 218.5,148.5C 219.854,151.698 222.187,152.864 225.5,152C 231.166,147.831 237.166,144.165 243.5,141C 247.975,138.541 252.642,137.708 257.5,138.5C 261.307,147.588 264.307,156.922 266.5,166.5 Z"/></g>
<g><path style="opacity:1" fill="#f37f87" d="M 330.5,147.5 C 334.078,148.292 337.412,149.625 340.5,151.5C 339.266,154.535 339.266,157.535 340.5,160.5C 337.5,160.5 334.5,160.5 331.5,160.5C 331.784,158.585 331.451,156.919 330.5,155.5C 330.5,152.833 330.5,150.167 330.5,147.5 Z"/></g>
<g><path style="opacity:1" fill="#f68187" d="M 320.5,160.5 C 315.833,160.5 311.167,160.5 306.5,160.5C 305.558,156.582 304.892,152.582 304.5,148.5C 309.633,150.449 314.966,151.449 320.5,151.5C 320.5,154.5 320.5,157.5 320.5,160.5 Z"/></g>
<g><path style="opacity:1" fill="#424154" d="M 240.5,153.5 C 244.575,153.399 247.075,155.399 248,159.5C 248.993,165.502 246.493,167.668 240.5,166C 238.05,163.611 236.883,160.778 237,157.5C 237.69,155.65 238.856,154.316 240.5,153.5 Z"/></g>
<g><path style="opacity:1" fill="#c64b57" d="M 306.5,160.5 C 311.167,160.5 315.833,160.5 320.5,160.5C 320.5,163.833 320.5,167.167 320.5,170.5C 306.945,172.092 293.612,174.759 280.5,178.5C 279.481,173.811 278.481,169.144 277.5,164.5C 283.404,163.132 289.404,162.132 295.5,161.5C 296.117,163.229 297.117,164.729 298.5,166C 303.444,167.367 306.11,165.534 306.5,160.5 Z"/></g>
<g><path style="opacity:1" fill="#c64a57" d="M 331.5,160.5 C 334.5,160.5 337.5,160.5 340.5,160.5C 343.956,162.783 347.29,165.283 350.5,168C 345.845,168.499 341.179,168.666 336.5,168.5C 334.833,168.5 333.167,168.5 331.5,168.5C 331.5,165.833 331.5,163.167 331.5,160.5 Z"/></g>
<g><path style="opacity:1" fill="#874b5c" d="M 330.5,155.5 C 331.451,156.919 331.784,158.585 331.5,160.5C 331.5,163.167 331.5,165.833 331.5,168.5C 333.167,168.5 334.833,168.5 336.5,168.5C 334.735,169.461 332.735,169.795 330.5,169.5C 330.5,164.833 330.5,160.167 330.5,155.5 Z"/></g>
<g><path style="opacity:1" fill="#c77c7c" d="M 396.5,271.5 C 395.949,274.807 395.616,278.14 395.5,281.5C 395.5,282.167 395.5,282.833 395.5,283.5C 392.675,283.081 390.509,284.081 389,286.5C 387.244,293.025 385.411,299.525 383.5,306C 386.287,313.447 391.62,318.113 399.5,320C 404.167,320.333 408.833,320.667 413.5,321C 420.22,324.035 427.22,325.035 434.5,324C 438.5,322.333 442.5,320.667 446.5,319C 450.888,318.423 455.221,318.756 459.5,320C 457.099,322.062 454.433,323.729 451.5,325C 447.5,328 447.5,331 451.5,334C 456.154,335.662 460.154,338.329 463.5,342C 457.897,343.124 452.231,343.79 446.5,344C 444.604,345.808 444.104,347.975 445,350.5C 446.167,352.833 447.333,355.167 448.5,357.5C 448.167,357.833 447.833,358.167 447.5,358.5C 433.234,352.368 419.567,345.201 406.5,337C 395.541,332.482 384.208,331.316 372.5,333.5C 367.967,333.651 364.8,331.651 363,327.5C 367.447,298.612 358.281,275.445 335.5,258C 329.076,253.621 325.576,255.121 325,262.5C 327.306,265.25 330.139,267.416 333.5,269C 336.922,271.719 339.422,274.886 341,278.5C 333.961,281.052 326.794,283.219 319.5,285C 317.081,286.509 316.081,288.675 316.5,291.5C 309.857,292.385 303.19,293.052 296.5,293.5C 296.141,291.629 295.141,290.129 293.5,289C 287.509,288.501 281.509,288.334 275.5,288.5C 275.884,284.396 277.384,280.729 280,277.5C 283.367,273.797 287.034,270.464 291,267.5C 291.306,260.463 288.139,258.629 281.5,262C 272.605,268.288 267.105,276.788 265,287.5C 268.225,333.513 253.892,372.846 222,405.5C 214.802,420.503 216.469,434.503 227,447.5C 229.5,450 232,452.5 234.5,455C 241.621,458.148 248.621,461.481 255.5,465C 257.667,467.167 259.833,469.333 262,471.5C 262.825,473.701 262.325,475.534 260.5,477C 251.753,475.802 242.919,474.635 234,473.5C 229.164,474.127 224.331,474.294 219.5,474C 212.845,452.832 200.679,435.666 183,422.5C 180.021,416.691 179.688,410.691 182,404.5C 184.887,397.058 188.554,390.058 193,383.5C 200.825,364.857 200.158,346.524 191,328.5C 185.569,319.726 177.902,314.06 168,311.5C 165.158,311.515 163.325,312.848 162.5,315.5C 160.062,317.267 157.395,318.601 154.5,319.5C 152.164,317.609 149.498,317.109 146.5,318C 123.381,332.922 98.7139,336.255 72.5,328C 47.0568,315.316 32.2235,294.816 28,266.5C 23.8237,233.88 33.4903,206.214 57,183.5C 56.2253,189.896 55.7253,196.396 55.5,203C 56.7205,217.207 58.2205,231.374 60,245.5C 66.2752,278.612 86.1085,296.945 119.5,300.5C 133.926,300.08 146.926,295.58 158.5,287C 171.063,276.769 181.897,264.936 191,251.5C 246.633,191.066 315.133,167.899 396.5,182C 408.063,180.305 416.23,174.138 421,163.5C 422.546,185.106 418.212,205.439 408,224.5C 402.735,232.7 397.735,241.033 393,249.5C 392.333,255.833 392.333,262.167 393,268.5C 393.422,270.426 394.589,271.426 396.5,271.5 Z"/></g>
<g><path style="opacity:1" fill="#c54b57" d="M 266.5,166.5 C 267.491,170.101 268.658,173.768 270,177.5C 270.667,179.167 270.667,180.833 270,182.5C 267.473,184.097 264.806,185.43 262,186.5C 259.859,182.894 257.692,179.228 255.5,175.5C 249.714,173.627 247.214,175.627 248,181.5C 249.167,184.5 250.333,187.5 251.5,190.5C 248.039,193.069 244.372,195.403 240.5,197.5C 237.252,192.674 234.252,187.674 231.5,182.5C 242.71,175.994 254.377,170.66 266.5,166.5 Z"/></g>
<g><path style="opacity:1" fill="#f48087" d="M 222.5,188.5 C 218.854,190.817 215.52,193.484 212.5,196.5C 210.37,194.873 208.37,193.04 206.5,191C 208.934,185.858 211.267,180.691 213.5,175.5C 217.247,179.331 220.247,183.665 222.5,188.5 Z"/></g>
<g><path style="opacity:1" fill="#f5ecd4" d="M 431.5,173.5 C 437.753,215.409 425.753,251.409 395.5,281.5C 395.616,278.14 395.949,274.807 396.5,271.5C 398.993,271.671 400.826,270.671 402,268.5C 402.138,262.419 402.804,256.419 404,250.5C 421.577,227.942 430.744,202.275 431.5,173.5 Z"/></g>
<g><path style="opacity:1" fill="#854c76" d="M 318.5,187.5 C 322.555,187.176 326.555,187.509 330.5,188.5C 322.02,192.906 313.353,197.072 304.5,201C 275.529,217.64 255.696,241.807 245,273.5C 241.599,287.724 238.932,302.057 237,316.5C 236.167,318.667 234.667,320.167 232.5,321C 228.683,322.023 225.183,321.523 222,319.5C 220.334,313.669 222.501,311.002 228.5,311.5C 229.954,268.9 246.621,233.734 278.5,206C 290.765,197.366 304.098,191.199 318.5,187.5 Z"/></g>
<g><path style="opacity:1" fill="#c44b57" d="M 222.5,188.5 C 225.645,192.778 228.312,197.445 230.5,202.5C 222.191,209.136 213.858,215.803 205.5,222.5C 202.146,218.479 198.479,214.812 194.5,211.5C 198.1,209.57 201.1,206.903 203.5,203.5C 204.627,204.122 205.627,204.955 206.5,206C 214.583,206.845 216.583,203.679 212.5,196.5C 215.52,193.484 218.854,190.817 222.5,188.5 Z"/></g>
<g><path style="opacity:1" fill="#f68188" d="M 194.5,194.5 C 196.017,194.511 197.184,195.177 198,196.5C 199.666,198.996 201.5,201.329 203.5,203.5C 201.1,206.903 198.1,209.57 194.5,211.5C 191.418,209.628 188.751,207.295 186.5,204.5C 189.547,201.455 192.213,198.122 194.5,194.5 Z"/></g>
<g><path style="opacity:1" fill="#c34a57" d="M 189.5,221.5 C 192.479,223.812 195.146,226.479 197.5,229.5C 194.167,233.167 190.833,236.833 187.5,240.5C 187.167,240 186.833,239.5 186.5,239C 187.987,233.244 188.987,227.411 189.5,221.5 Z"/></g>
<g><path style="opacity:1" fill="#f1ae8e" d="M 273.5,309.5 C 274.479,306.375 274.813,303.042 274.5,299.5C 277.167,299.5 279.833,299.5 282.5,299.5C 281.223,314.383 287.889,321.549 302.5,321C 312.566,319.721 322.233,317.055 331.5,313C 337.929,306.899 340.262,299.399 338.5,290.5C 341.267,289.41 344.101,288.41 347,287.5C 347.945,287.905 348.612,288.572 349,289.5C 352.46,300.515 353.293,311.681 351.5,323C 325.455,336.849 297.788,345.349 268.5,348.5C 272.088,335.741 273.754,322.741 273.5,309.5 Z"/></g>
<g><path style="opacity:1" fill="#f8f1d8" d="M 338.5,290.5 C 340.262,299.399 337.929,306.899 331.5,313C 322.233,317.055 312.566,319.721 302.5,321C 287.889,321.549 281.223,314.383 282.5,299.5C 286.042,299.813 289.375,299.479 292.5,298.5C 295.297,298.033 296.631,296.367 296.5,293.5C 303.19,293.052 309.857,292.385 316.5,291.5C 317.392,293.714 319.058,294.714 321.5,294.5C 327.22,293.32 332.887,291.986 338.5,290.5 Z"/></g>
<g><path style="opacity:1" fill="#8e7f7f" d="M 292.5,298.5 C 289.375,299.479 286.042,299.813 282.5,299.5C 279.833,299.5 277.167,299.5 274.5,299.5C 274.813,303.042 274.479,306.375 273.5,309.5C 273.5,305.833 273.5,302.167 273.5,298.5C 279.833,298.5 286.167,298.5 292.5,298.5 Z"/></g>
<g><path style="opacity:1" fill="#f0ad8e" d="M 162.5,315.5 C 162.393,317.903 163.393,319.736 165.5,321C 178.76,326.333 186.094,336.166 187.5,350.5C 187.5,352.833 187.5,355.167 187.5,357.5C 180.167,357.5 172.833,357.5 165.5,357.5C 141.57,357.081 118.57,352.247 96.5,343C 116.667,342.46 135.334,336.96 152.5,326.5C 154.171,324.49 154.838,322.157 154.5,319.5C 157.395,318.601 160.062,317.267 162.5,315.5 Z"/></g>
<g><path style="opacity:1" fill="#864c76" d="M 218.5,331.5 C 221.91,331.782 225.243,332.449 228.5,333.5C 231.764,338.948 230.097,341.948 223.5,342.5C 216.359,341.312 214.692,337.645 218.5,331.5 Z"/></g>
<g><path style="opacity:1" fill="#864c76" d="M 213.5,350.5 C 217.516,349.9 221.016,350.9 224,353.5C 224.247,361.218 220.747,363.385 213.5,360C 210.888,356.836 210.888,353.669 213.5,350.5 Z"/></g>
<g><path style="opacity:1" fill="#7b6668" d="M 187.5,350.5 C 188.473,352.948 188.806,355.615 188.5,358.5C 180.648,358.825 172.982,358.492 165.5,357.5C 172.833,357.5 180.167,357.5 187.5,357.5C 187.5,355.167 187.5,352.833 187.5,350.5 Z"/></g>
<g><path style="opacity:1" fill="#874c76" d="M 210.5,368.5 C 217.632,368.789 219.298,371.956 215.5,378C 207.349,378.198 205.683,375.031 210.5,368.5 Z"/></g>
</svg>
