<?xml version="1.0" encoding="UTF-8"?>
<!DOCTYPE svg PUBLIC "-//W3C//DTD SVG 1.1//EN" "http://www.w3.org/Graphics/SVG/1.1/DTD/svg11.dtd">
<svg xmlns="http://www.w3.org/2000/svg" version="1.1" width="512px" height="512px" style="shape-rendering:geometricPrecision; text-rendering:geometricPrecision; image-rendering:optimizeQuality; fill-rule:evenodd; clip-rule:evenodd" xmlns:xlink="http://www.w3.org/1999/xlink">
<g><path style="opacity:1" fill="#393e51" d="M 123.5,196.5 C 119.567,200.185 115.401,200.185 111,196.5C 101.52,205.123 96.6864,215.79 96.5,228.5C 97.2021,231.44 98.2021,234.273 99.5,237C 103.835,237.263 108.168,237.097 112.5,236.5C 111.901,233.037 110.901,229.704 109.5,226.5C 111.139,222.181 114.139,220.848 118.5,222.5C 119.829,225.48 121.162,228.48 122.5,231.5C 127.543,228.985 132.21,225.985 136.5,222.5C 135.121,219.741 133.787,217.075 132.5,214.5C 131.315,209.866 130.315,205.199 129.5,200.5C 129.5,199.833 129.167,199.5 128.5,199.5C 126.918,179.755 131.918,161.922 143.5,146C 160.35,146.117 175.683,150.95 189.5,160.5C 192.478,163.813 195.478,167.147 198.5,170.5C 202.224,175.282 204.891,180.615 206.5,186.5C 210.167,185.833 213.833,185.167 217.5,184.5C 217.034,178.509 216.701,172.509 216.5,166.5C 219.104,162.112 222.438,161.446 226.5,164.5C 227.452,170.075 227.786,175.741 227.5,181.5C 230.833,181.5 234.167,181.5 237.5,181.5C 237.5,175.5 237.5,169.5 237.5,163.5C 236.302,156.01 239.302,153.177 246.5,155C 247.252,155.671 247.586,156.504 247.5,157.5C 247.5,165.5 247.5,173.5 247.5,181.5C 254.196,181.622 260.862,181.789 267.5,182C 270.188,177.101 272.188,171.935 273.5,166.5C 275.342,152.862 272.175,140.529 264,129.5C 254.102,116.593 242.102,106.26 228,98.5C 211.171,112.481 200.171,130.148 195,151.5C 193.416,152.861 191.582,153.528 189.5,153.5C 186.686,152.549 185.352,150.549 185.5,147.5C 191.01,121.421 204.677,101.088 226.5,86.5C 251.286,96.7831 269.452,114.116 281,138.5C 282.15,141.768 282.984,145.101 283.5,148.5C 284.74,155.821 284.74,163.154 283.5,170.5C 282.013,175.441 280.013,180.274 277.5,185C 281.632,186.825 285.799,188.659 290,190.5C 292.957,186.25 295.124,181.583 296.5,176.5C 302.613,172.889 305.946,174.556 306.5,181.5C 304.138,185.733 302.138,190.233 300.5,195C 302.421,197.961 305.088,199.294 308.5,199C 310.833,196 313.167,193 315.5,190C 316.793,189.51 318.127,189.343 319.5,189.5C 321.23,190.026 322.564,191.026 323.5,192.5C 323.657,193.873 323.49,195.207 323,196.5C 321.03,199.968 318.864,203.301 316.5,206.5C 319.876,209.878 323.543,212.878 327.5,215.5C 332.271,213.066 335.604,209.4 337.5,204.5C 339.656,201.563 341.156,198.229 342,194.5C 343.511,183.878 343.844,173.211 343,162.5C 341.39,154.505 339.89,146.505 338.5,138.5C 323.462,138.901 308.962,141.901 295,147.5C 292.808,147.137 290.974,146.137 289.5,144.5C 289.317,142.064 289.984,139.897 291.5,138C 308.418,130.683 326.085,127.35 344.5,128C 346.824,131.099 348.324,134.599 349,138.5C 354.558,158.268 355.725,178.268 352.5,198.5C 350.187,203.058 347.854,207.724 345.5,212.5C 343.213,216.622 340.046,219.955 336,222.5C 336.401,225.101 337.901,227.101 340.5,228.5C 343.022,226.144 345.688,223.977 348.5,222C 350.265,221.36 351.932,221.527 353.5,222.5C 354.5,222.833 355.167,223.5 355.5,224.5C 355.66,226.199 355.494,227.866 355,229.5C 352.261,232.118 349.427,234.618 346.5,237C 349.021,239.22 351.188,241.72 353,244.5C 357.028,241.637 360.528,238.304 363.5,234.5C 365.934,231.829 368.267,228.996 370.5,226C 375.822,225.66 377.989,228.16 377,233.5C 374.67,237.322 372.17,240.988 369.5,244.5C 366.805,247.191 363.805,249.525 360.5,251.5C 359.417,252.365 359.251,253.365 360,254.5C 361.174,257.239 363.007,259.239 365.5,260.5C 369.01,259.582 372.01,257.916 374.5,255.5C 381.696,250.81 386.196,244.144 388,235.5C 390.574,225.954 391.074,216.288 389.5,206.5C 381.021,204.166 372.354,202.999 363.5,203C 361.561,201.568 360.228,199.735 359.5,197.5C 359.297,195.61 359.963,194.11 361.5,193C 374.79,191.931 387.623,193.765 400,198.5C 403.273,216.037 401.44,233.037 394.5,249.5C 390.255,255.416 385.255,260.749 379.5,265.5C 376.165,266.832 373.165,268.665 370.5,271C 371.615,273.616 372.949,276.116 374.5,278.5C 378.813,279.186 382.48,277.853 385.5,274.5C 387.354,272.404 389.687,271.071 392.5,270.5C 397.461,272.003 398.627,275.003 396,279.5C 393.809,280.833 391.976,282.5 390.5,284.5C 387.517,285.658 384.85,287.325 382.5,289.5C 386.617,298.132 392.617,299.799 400.5,294.5C 406.095,292.073 410.262,288.073 413,282.5C 416.062,274.118 417.562,265.451 417.5,256.5C 413.168,255.734 408.834,254.9 404.5,254C 402.859,252.871 401.859,251.371 401.5,249.5C 401.034,245.469 402.867,243.469 407,243.5C 412.58,244.291 418.08,245.458 423.5,247C 424.931,247.465 426.097,248.299 427,249.5C 430.463,268.544 425.963,285.378 413.5,300C 409.6,303.083 405.266,305.416 400.5,307C 405.217,311.027 410.551,314.027 416.5,316C 424.046,316.754 431.38,318.421 438.5,321C 444.172,325.015 449.506,329.348 454.5,334C 460.793,335.023 467.126,335.689 473.5,336C 488.326,341.493 494.493,351.993 492,367.5C 489.5,372.667 485.667,376.5 480.5,379C 472.978,380.969 465.311,381.969 457.5,382C 441.671,391.542 425.671,391.876 409.5,383C 405.333,382.833 401.167,382.667 397,382.5C 380.81,383.577 364.644,384.91 348.5,386.5C 346.444,394.152 346.277,401.818 348,409.5C 352.38,416.964 354.047,424.964 353,433.5C 351.257,438.91 347.757,442.744 342.5,445C 321.231,446.633 299.897,446.966 278.5,446C 269.246,443.746 263.746,437.912 262,428.5C 262.902,411.769 260.902,395.435 256,379.5C 252.214,378.093 248.381,376.76 244.5,375.5C 241.973,379.951 240.639,384.785 240.5,390C 242.538,402.482 245.204,414.816 248.5,427C 247.857,437.308 242.524,443.641 232.5,446C 213.167,446.667 193.833,446.667 174.5,446C 166.87,444.373 161.704,439.873 159,432.5C 157.128,422.14 155.128,411.807 153,401.5C 150.168,385.465 151.502,369.798 157,354.5C 157.499,350.514 157.666,346.514 157.5,342.5C 125.151,341.546 94.8178,333.379 66.5,318C 30.8252,295.483 14.6585,262.983 18,220.5C 18.8335,192.666 26.1669,166.666 40,142.5C 46.9327,131.622 54.0994,120.955 61.5,110.5C 59.6391,97.9735 57.6391,85.4735 55.5,73C 56.6078,67.977 59.6078,66.3103 64.5,68C 65.7014,68.9025 66.5348,70.0692 67,71.5C 68.4811,81.8684 70.1478,92.2017 72,102.5C 78.7157,96.7831 85.7157,91.4497 93,86.5C 93.9847,84.6341 94.4847,82.6341 94.5,80.5C 93.6305,76.1823 93.4639,71.8489 94,67.5C 96.9707,63.9083 100.304,63.5749 104,66.5C 104.752,70.8517 105.585,75.1851 106.5,79.5C 119.51,72.7188 133.177,67.7188 147.5,64.5C 152.736,65.6379 154.236,68.6379 152,73.5C 140.686,80.5792 130.186,88.7459 120.5,98C 124.21,98.8947 127.877,99.8947 131.5,101C 133.036,104.24 132.703,107.24 130.5,110C 125.653,110.533 120.82,110.366 116,109.5C 113.7,109.494 111.534,109.994 109.5,111C 103.645,117.212 98.6446,124.045 94.5,131.5C 103.042,132.478 111.375,134.311 119.5,137C 120.602,139.401 120.769,141.901 120,144.5C 118.701,145.98 117.034,146.646 115,146.5C 108.89,145.175 102.723,144.175 96.5,143.5C 90.2614,143.566 86.0947,146.566 84,152.5C 78.4556,165.293 75.289,178.626 74.5,192.5C 74.0307,206.349 77.5307,219.016 85,230.5C 85.6449,213.377 92.1449,198.877 104.5,187C 110.362,185.204 116.029,185.871 121.5,189C 124.147,191.09 124.814,193.59 123.5,196.5 Z"/></g>
<g><path style="opacity:1" fill="#f88288" d="M 273.5,166.5 C 268.804,167.342 264.137,166.842 259.5,165C 255.848,164.501 252.182,164.335 248.5,164.5C 248.802,161.941 248.468,159.607 247.5,157.5C 247.586,156.504 247.252,155.671 246.5,155C 239.302,153.177 236.302,156.01 237.5,163.5C 233.766,163.323 230.099,163.656 226.5,164.5C 222.438,161.446 219.104,162.112 216.5,166.5C 210.407,167.452 204.407,168.785 198.5,170.5C 195.478,167.147 192.478,163.813 189.5,160.5C 189.5,158.167 189.5,155.833 189.5,153.5C 191.582,153.528 193.416,152.861 195,151.5C 200.171,130.148 211.171,112.481 228,98.5C 242.102,106.26 254.102,116.593 264,129.5C 272.175,140.529 275.342,152.862 273.5,166.5 Z"/></g>
<g><path style="opacity:1" fill="#464255" d="M 239.5,132.5 C 246.088,132.657 248.588,135.99 247,142.5C 240.958,147.411 237.458,145.911 236.5,138C 236.863,135.808 237.863,133.974 239.5,132.5 Z"/></g>
<g><path style="opacity:1" fill="#8888a1" d="M 378.5,358.5 C 377.596,357.791 377.263,356.791 377.5,355.5C 375.167,355.5 372.833,355.5 370.5,355.5C 372.312,351.932 371.312,349.432 367.5,348C 365.167,347.333 362.833,347.333 360.5,348C 359.619,348.708 358.953,349.542 358.5,350.5C 356.216,350.025 354.216,349.025 352.5,347.5C 349.327,343.581 346.16,343.581 343,347.5C 339.667,363.844 329.833,372.678 313.5,374C 308.316,371.468 303.149,368.968 298,366.5C 293.949,367.208 292.282,369.541 293,373.5C 296.516,375.926 299.849,378.593 303,381.5C 304.977,391.052 305.977,400.719 306,410.5C 307.449,415.399 309.449,420.065 312,424.5C 312.667,427.167 312.667,429.833 312,432.5C 311.5,433.667 310.667,434.5 309.5,435C 299.167,435.667 288.833,435.667 278.5,435C 276.083,433.337 274.25,431.171 273,428.5C 272.667,418.167 272.333,407.833 272,397.5C 268.229,386.095 266.229,374.429 266,362.5C 267.632,356.07 271.132,350.903 276.5,347C 286.781,341.612 296.281,335.112 305,327.5C 316.326,313.916 317.326,299.583 308,284.5C 298.4,271.886 286.734,261.886 273,254.5C 269.078,255.141 267.578,257.475 268.5,261.5C 267.776,259.782 267.109,257.948 266.5,256C 263.572,254.62 260.738,253.12 258,251.5C 257.098,251.743 256.265,252.077 255.5,252.5C 256.561,247.876 254.561,245.543 249.5,245.5C 244.623,245.595 242.957,247.928 244.5,252.5C 239.878,254.133 236.545,257.133 234.5,261.5C 232.377,259.079 230.044,258.912 227.5,261C 225.646,263.543 224.479,266.376 224,269.5C 224.144,293.923 222.811,318.257 220,342.5C 213.709,358.038 209.042,374.038 206,390.5C 205.333,395.833 205.333,401.167 206,406.5C 207.969,414.047 209.469,421.714 210.5,429.5C 210.594,431.912 209.594,433.745 207.5,435C 196.5,435.667 185.5,435.667 174.5,435C 172.43,434.052 170.93,432.552 170,430.5C 164.613,411.518 162.28,392.185 163,372.5C 168.608,355.625 168.941,338.625 164,321.5C 161.483,301.888 160.817,282.221 162,262.5C 157.462,259.305 154.295,260.305 152.5,265.5C 152.631,264.761 152.464,264.094 152,263.5C 148.717,265.891 145.217,267.891 141.5,269.5C 140.488,267.124 138.655,266.124 136,266.5C 125.739,270.141 115.239,272.974 104.5,275C 76.9667,279.832 54.8,271.332 38,249.5C 29.4186,235.517 26.7519,220.517 30,204.5C 33.7609,180.21 42.4276,157.877 56,137.5C 55.4505,148.801 55.4505,160.135 56,171.5C 58.8663,188.625 62.1996,205.625 66,222.5C 73.8648,240.015 87.3648,248.181 106.5,247C 112.13,246.852 117.463,245.518 122.5,243C 140.834,232.502 158.834,221.502 176.5,210C 237.242,177.105 290.076,186.605 335,238.5C 346.819,252.797 357.153,268.131 366,284.5C 376.546,300.713 390.046,313.879 406.5,324C 404.762,326.642 403.429,329.475 402.5,332.5C 404.003,337.461 407.003,338.627 411.5,336C 412.574,332.841 414.574,330.507 417.5,329C 423.886,327.791 429.886,328.791 435.5,332C 439.578,336.749 444.245,340.749 449.5,344C 456.103,345.163 462.77,345.83 469.5,346C 479.308,349.112 483.141,355.612 481,365.5C 478.806,368.181 475.973,369.681 472.5,370C 467.167,370.333 461.833,370.667 456.5,371C 448.84,375.109 440.673,377.609 432,378.5C 426.12,378.429 420.62,376.929 415.5,374C 409.362,365.525 401.695,358.859 392.5,354C 388.62,352.36 384.62,351.693 380.5,352C 378.771,353.789 378.104,355.956 378.5,358.5 Z"/></g>
<g><path style="opacity:1" fill="#f88288" d="M 337.5,204.5 C 333.587,199.555 328.92,195.555 323.5,192.5C 322.564,191.026 321.23,190.026 319.5,189.5C 315.677,186.084 311.343,183.418 306.5,181.5C 305.946,174.556 302.613,172.889 296.5,176.5C 292.286,174.226 287.953,172.226 283.5,170.5C 284.74,163.154 284.74,155.821 283.5,148.5C 285.882,147.649 287.882,146.316 289.5,144.5C 290.974,146.137 292.808,147.137 295,147.5C 308.962,141.901 323.462,138.901 338.5,138.5C 339.89,146.505 341.39,154.505 343,162.5C 343.844,173.211 343.511,183.878 342,194.5C 341.156,198.229 339.656,201.563 337.5,204.5 Z"/></g>
<g><path style="opacity:1" fill="#3f4053" d="M 312.5,156.5 C 318.93,156.693 320.763,159.693 318,165.5C 313.364,169.962 309.864,169.296 307.5,163.5C 308.06,160.288 309.727,157.955 312.5,156.5 Z"/></g>
<g><path style="opacity:1" fill="#f78188" d="M 188.5,175.5 C 183.349,177.576 178.349,179.91 173.5,182.5C 171.4,180.502 169.4,178.335 167.5,176C 163.269,174.733 160.602,176.233 159.5,180.5C 160.921,183.678 162.587,186.678 164.5,189.5C 156.833,195.5 149.167,201.5 141.5,207.5C 136.569,189.12 139.402,172.12 150,156.5C 161.311,158.159 171.811,161.992 181.5,168C 184.117,170.442 186.45,172.942 188.5,175.5 Z"/></g>
<g><path style="opacity:1" fill="#c74c58" d="M 237.5,163.5 C 237.5,169.5 237.5,175.5 237.5,181.5C 234.167,181.5 230.833,181.5 227.5,181.5C 227.786,175.741 227.452,170.075 226.5,164.5C 230.099,163.656 233.766,163.323 237.5,163.5 Z"/></g>
<g><path style="opacity:1" fill="#c44b57" d="M 247.5,157.5 C 248.468,159.607 248.802,161.941 248.5,164.5C 252.182,164.335 255.848,164.501 259.5,165C 264.137,166.842 268.804,167.342 273.5,166.5C 272.188,171.935 270.188,177.101 267.5,182C 260.862,181.789 254.196,181.622 247.5,181.5C 247.5,173.5 247.5,165.5 247.5,157.5 Z"/></g>
<g><path style="opacity:1" fill="#c54b57" d="M 216.5,166.5 C 216.701,172.509 217.034,178.509 217.5,184.5C 213.833,185.167 210.167,185.833 206.5,186.5C 204.891,180.615 202.224,175.282 198.5,170.5C 204.407,168.785 210.407,167.452 216.5,166.5 Z"/></g>
<g><path style="opacity:1" fill="#c44b57" d="M 283.5,170.5 C 287.953,172.226 292.286,174.226 296.5,176.5C 295.124,181.583 292.957,186.25 290,190.5C 285.799,188.659 281.632,186.825 277.5,185C 280.013,180.274 282.013,175.441 283.5,170.5 Z"/></g>
<g><path style="opacity:1" fill="#c64b57" d="M 188.5,175.5 C 192.987,179.47 195.653,184.47 196.5,190.5C 191.077,191.808 185.911,193.808 181,196.5C 178.242,191.925 175.742,187.258 173.5,182.5C 178.349,179.91 183.349,177.576 188.5,175.5 Z"/></g>
<g><path style="opacity:1" fill="#c44b57" d="M 306.5,181.5 C 311.343,183.418 315.677,186.084 319.5,189.5C 318.127,189.343 316.793,189.51 315.5,190C 313.167,193 310.833,196 308.5,199C 305.088,199.294 302.421,197.961 300.5,195C 302.138,190.233 304.138,185.733 306.5,181.5 Z"/></g>
<g><path style="opacity:1" fill="#c44b57" d="M 164.5,189.5 C 167.399,192.919 169.732,196.752 171.5,201C 169.664,202.419 167.664,203.586 165.5,204.5C 163.674,200.482 160.674,198.982 156.5,200C 153.923,203.262 153.923,206.595 156.5,210C 152.833,212.5 149.167,215 145.5,217.5C 143.966,214.227 142.632,210.894 141.5,207.5C 149.167,201.5 156.833,195.5 164.5,189.5 Z"/></g>
<g><path style="opacity:1" fill="#c54b57" d="M 323.5,192.5 C 328.92,195.555 333.587,199.555 337.5,204.5C 335.604,209.4 332.271,213.066 327.5,215.5C 323.543,212.878 319.876,209.878 316.5,206.5C 318.864,203.301 321.03,199.968 323,196.5C 323.49,195.207 323.657,193.873 323.5,192.5 Z"/></g>
<g><path style="opacity:1" fill="#f78288" d="M 123.5,196.5 C 125.001,197.752 126.668,198.752 128.5,199.5C 129.167,199.5 129.5,199.833 129.5,200.5C 130.315,205.199 131.315,209.866 132.5,214.5C 128.162,217.671 123.496,220.338 118.5,222.5C 114.139,220.848 111.139,222.181 109.5,226.5C 105.246,227.646 100.913,228.313 96.5,228.5C 96.6864,215.79 101.52,205.123 111,196.5C 115.401,200.185 119.567,200.185 123.5,196.5 Z"/></g>
<g><path style="opacity:1" fill="#f78188" d="M 359.5,197.5 C 360.228,199.735 361.561,201.568 363.5,203C 372.354,202.999 381.021,204.166 389.5,206.5C 391.074,216.288 390.574,225.954 388,235.5C 386.196,244.144 381.696,250.81 374.5,255.5C 372.562,251.957 370.895,248.29 369.5,244.5C 372.17,240.988 374.67,237.322 377,233.5C 377.989,228.16 375.822,225.66 370.5,226C 368.267,228.996 365.934,231.829 363.5,234.5C 360.833,231.167 358.167,227.833 355.5,224.5C 355.167,223.5 354.5,222.833 353.5,222.5C 351.312,218.793 348.645,215.46 345.5,212.5C 347.854,207.724 350.187,203.058 352.5,198.5C 354.95,198.702 357.283,198.369 359.5,197.5 Z"/></g>
<g><path style="opacity:1" fill="#393f52" d="M 225.5,199.5 C 232.981,197.494 236.147,200.161 235,207.5C 231.817,209.523 228.317,210.023 224.5,209C 221.675,205.476 222.008,202.31 225.5,199.5 Z"/></g>
<g><path style="opacity:1" fill="#3a3f53" d="M 274.5,207.5 C 278.422,207.069 281.922,208.069 285,210.5C 286.357,216.981 283.857,219.481 277.5,218C 272.26,215.612 271.26,212.112 274.5,207.5 Z"/></g>
<g><path style="opacity:1" fill="#c44b57" d="M 345.5,212.5 C 348.645,215.46 351.312,218.793 353.5,222.5C 351.932,221.527 350.265,221.36 348.5,222C 345.688,223.977 343.022,226.144 340.5,228.5C 337.901,227.101 336.401,225.101 336,222.5C 340.046,219.955 343.213,216.622 345.5,212.5 Z"/></g>
<g><path style="opacity:1" fill="#393f53" d="M 187.5,214.5 C 195.877,214.274 197.544,217.441 192.5,224C 184.921,227.563 181.921,225.396 183.5,217.5C 184.901,216.479 186.235,215.479 187.5,214.5 Z"/></g>
<g><path style="opacity:1" fill="#c44b57" d="M 132.5,214.5 C 133.787,217.075 135.121,219.741 136.5,222.5C 132.21,225.985 127.543,228.985 122.5,231.5C 121.162,228.48 119.829,225.48 118.5,222.5C 123.496,220.338 128.162,217.671 132.5,214.5 Z"/></g>
<g><path style="opacity:1" fill="#3a3f53" d="M 244.5,216.5 C 247.518,216.335 250.518,216.502 253.5,217C 257.142,225.04 254.475,228.04 245.5,226C 241.956,223.127 241.623,219.96 244.5,216.5 Z"/></g>
<g><path style="opacity:1" fill="#3b4155" d="M 211.5,220.5 C 217.831,219.029 220.998,221.362 221,227.5C 218.173,230.665 214.673,231.831 210.5,231C 206.514,227.105 206.847,223.605 211.5,220.5 Z"/></g>
<g><path style="opacity:1" fill="#c34c58" d="M 109.5,226.5 C 110.901,229.704 111.901,233.037 112.5,236.5C 108.168,237.097 103.835,237.263 99.5,237C 98.2021,234.273 97.2021,231.44 96.5,228.5C 100.913,228.313 105.246,227.646 109.5,226.5 Z"/></g>
<g><path style="opacity:1" fill="#c24b57" d="M 355.5,224.5 C 358.167,227.833 360.833,231.167 363.5,234.5C 360.528,238.304 357.028,241.637 353,244.5C 351.188,241.72 349.021,239.22 346.5,237C 349.427,234.618 352.261,232.118 355,229.5C 355.494,227.866 355.66,226.199 355.5,224.5 Z"/></g>
<g><path style="opacity:1" fill="#3c4256" d="M 284.5,227.5 C 290.501,228.323 293.335,231.656 293,237.5C 288.483,241.552 284.483,240.886 281,235.5C 280.279,231.946 281.446,229.28 284.5,227.5 Z"/></g>
<g><path style="opacity:1" fill="#3a4054" d="M 310.5,231.5 C 318.42,232.191 320.753,236.025 317.5,243C 310.825,243.989 307.658,241.156 308,234.5C 309.045,233.627 309.878,232.627 310.5,231.5 Z"/></g>
<g><path style="opacity:1" fill="#3a4054" d="M 165.5,233.5 C 172.297,234.107 173.964,237.274 170.5,243C 167.827,245.501 164.827,246.001 161.5,244.5C 159.047,242.004 158.88,239.338 161,236.5C 162.652,235.601 164.152,234.601 165.5,233.5 Z"/></g>
<g><path style="opacity:1" fill="#3d4355" d="M 255.5,252.5 C 254.608,254.714 252.942,255.714 250.5,255.5C 247.898,255.533 245.898,254.533 244.5,252.5C 242.957,247.928 244.623,245.595 249.5,245.5C 254.561,245.543 256.561,247.876 255.5,252.5 Z"/></g>
<g><path style="opacity:1" fill="#c44b57" d="M 369.5,244.5 C 370.895,248.29 372.562,251.957 374.5,255.5C 372.01,257.916 369.01,259.582 365.5,260.5C 363.007,259.239 361.174,257.239 360,254.5C 359.251,253.365 359.417,252.365 360.5,251.5C 363.805,249.525 366.805,247.191 369.5,244.5 Z"/></g>
<g><path style="opacity:1" fill="#f78188" d="M 394.5,249.5 C 396.833,249.5 399.167,249.5 401.5,249.5C 401.859,251.371 402.859,252.871 404.5,254C 408.834,254.9 413.168,255.734 417.5,256.5C 417.562,265.451 416.062,274.118 413,282.5C 410.262,288.073 406.095,292.073 400.5,294.5C 399.761,294.631 399.094,294.464 398.5,294C 395.707,290.895 393.04,287.728 390.5,284.5C 391.976,282.5 393.809,280.833 396,279.5C 398.627,275.003 397.461,272.003 392.5,270.5C 389.687,271.071 387.354,272.404 385.5,274.5C 382.419,272.326 380.419,269.326 379.5,265.5C 385.255,260.749 390.255,255.416 394.5,249.5 Z"/></g>
<g><path style="opacity:1" fill="#f9f2d9" d="M 268.5,261.5 C 278.399,269.223 287.899,277.557 297,286.5C 308.325,301.392 306.492,314.559 291.5,326C 288.273,328.112 284.94,329.945 281.5,331.5C 274.273,330.055 267.606,327.222 261.5,323C 254.864,317.366 248.531,311.366 242.5,305C 239.778,302.642 236.778,300.809 233.5,299.5C 232.991,287.907 233.658,276.407 235.5,265C 235.352,263.744 235.018,262.577 234.5,261.5C 236.545,257.133 239.878,254.133 244.5,252.5C 245.898,254.533 247.898,255.533 250.5,255.5C 252.942,255.714 254.608,254.714 255.5,252.5C 256.265,252.077 257.098,251.743 258,251.5C 260.738,253.12 263.572,254.62 266.5,256C 267.109,257.948 267.776,259.782 268.5,261.5 Z"/></g>
<g><path style="opacity:1" fill="#3b4055" d="M 331.5,258.5 C 336.284,258.108 339.284,260.275 340.5,265C 338.249,271.183 334.749,272.017 330,267.5C 327.801,263.978 328.301,260.978 331.5,258.5 Z"/></g>
<g><path style="opacity:1" fill="#f8f1d8" d="M 141.5,269.5 C 145.217,267.891 148.717,265.891 152,263.5C 152.464,264.094 152.631,264.761 152.5,265.5C 152.001,272.49 151.668,279.49 151.5,286.5C 147.572,293.2 144.572,300.367 142.5,308C 130.374,314.229 117.707,319.062 104.5,322.5C 78.6753,315.828 57.8419,301.828 42,280.5C 37.5758,273.998 34.5758,266.998 33,259.5C 50.1139,279.657 71.9473,288.49 98.5,286C 112.824,284.781 126.49,281.114 139.5,275C 141.155,273.556 141.822,271.722 141.5,269.5 Z"/></g>
<g><path style="opacity:1" fill="#c44b57" d="M 379.5,265.5 C 380.419,269.326 382.419,272.326 385.5,274.5C 382.48,277.853 378.813,279.186 374.5,278.5C 372.949,276.116 371.615,273.616 370.5,271C 373.165,268.665 376.165,266.832 379.5,265.5 Z"/></g>
<g><path style="opacity:1" fill="#c34b57" d="M 390.5,284.5 C 393.04,287.728 395.707,290.895 398.5,294C 399.094,294.464 399.761,294.631 400.5,294.5C 392.617,299.799 386.617,298.132 382.5,289.5C 384.85,287.325 387.517,285.658 390.5,284.5 Z"/></g>
<g><path style="opacity:1" fill="#efad8e" d="M 151.5,286.5 C 151.332,301.663 152.666,316.663 155.5,331.5C 137.934,330.963 120.934,327.963 104.5,322.5C 117.707,319.062 130.374,314.229 142.5,308C 144.572,300.367 147.572,293.2 151.5,286.5 Z"/></g>
<g><path style="opacity:1" fill="#f1ae8e" d="M 233.5,299.5 C 236.778,300.809 239.778,302.642 242.5,305C 248.531,311.366 254.864,317.366 261.5,323C 267.606,327.222 274.273,330.055 281.5,331.5C 273.643,335.857 266.81,341.524 261,348.5C 257.465,354.345 255.631,360.678 255.5,367.5C 245.264,364.882 235.597,360.882 226.5,355.5C 227.82,351.886 228.987,348.22 230,344.5C 231.872,329.553 233.038,314.553 233.5,299.5 Z"/></g>
<g><path style="opacity:1" fill="#3a3f54" d="M 423.5,338.5 C 431.889,338.35 434.223,341.85 430.5,349C 425.203,350.521 421.869,348.688 420.5,343.5C 421.092,341.577 422.092,339.911 423.5,338.5 Z"/></g>
<g><path style="opacity:1" fill="#3b4053" d="M 370.5,355.5 C 370.389,356.117 370.056,356.617 369.5,357C 362.925,359.276 359.258,357.109 358.5,350.5C 358.953,349.542 359.619,348.708 360.5,348C 362.833,347.333 365.167,347.333 367.5,348C 371.312,349.432 372.312,351.932 370.5,355.5 Z"/></g>
<g><path style="opacity:1" fill="#eeac8d" d="M 352.5,347.5 C 354.216,349.025 356.216,350.025 358.5,350.5C 359.258,357.109 362.925,359.276 369.5,357C 370.056,356.617 370.389,356.117 370.5,355.5C 372.833,355.5 375.167,355.5 377.5,355.5C 377.263,356.791 377.596,357.791 378.5,358.5C 378.953,359.458 379.619,360.292 380.5,361C 387.835,362.5 394.168,365.833 399.5,371C 378.884,373.535 358.217,375.201 337.5,376C 346.592,368.649 351.592,359.149 352.5,347.5 Z"/></g>
</svg>
