<?xml version="1.0" encoding="UTF-8"?>
<!DOCTYPE svg PUBLIC "-//W3C//DTD SVG 1.1//EN" "http://www.w3.org/Graphics/SVG/1.1/DTD/svg11.dtd">
<svg xmlns="http://www.w3.org/2000/svg" version="1.1" width="512px" height="512px" style="shape-rendering:geometricPrecision; text-rendering:geometricPrecision; image-rendering:optimizeQuality; fill-rule:evenodd; clip-rule:evenodd" xmlns:xlink="http://www.w3.org/1999/xlink">
<g><path style="opacity:1" fill="#383e51" d="M 245.5,195.5 C 244.071,198.748 241.571,200.081 238,199.5C 209.835,195.038 182.335,197.538 155.5,207C 125.858,220.105 108.025,242.605 102,274.5C 100.318,285.816 98.9849,297.149 98,308.5C 89.3816,328.444 74.2149,337.61 52.5,336C 39.9299,333.799 29.0965,328.299 20,319.5C 19.8989,344.573 32.3989,358.573 57.5,361.5C 64.7001,361.092 71.7001,359.758 78.5,357.5C 82.0485,355.061 85.5485,355.061 89,357.5C 89.4935,359.134 89.6602,360.801 89.5,362.5C 89.0472,363.458 88.3805,364.292 87.5,365C 73.5321,370.332 59.1988,371.998 44.5,370C 39.475,368.342 34.8083,366.342 30.5,364C 42.2483,379.429 57.915,386.929 77.5,386.5C 84.8704,386.162 92.2037,385.495 99.5,384.5C 99.876,374.375 99.2094,364.375 97.5,354.5C 96.5024,350.193 96.0024,345.86 96,341.5C 97.7889,339.771 99.9556,339.104 102.5,339.5C 103.458,339.953 104.292,340.619 105,341.5C 108.714,356.587 110.38,371.92 110,387.5C 112.42,398.76 116.42,409.426 122,419.5C 123.461,426.217 125.128,432.884 127,439.5C 128.558,441.359 130.391,442.859 132.5,444C 142.833,444.667 153.167,444.667 163.5,444C 166.383,442.568 167.717,440.235 167.5,437C 166.08,429.406 164.247,421.906 162,414.5C 160.546,406.214 160.213,397.881 161,389.5C 167.785,368.583 168.118,347.583 162,326.5C 158.993,317.824 155.993,309.157 153,300.5C 151.701,294.881 151.368,289.214 152,283.5C 155.374,280.595 158.374,280.928 161,284.5C 161.497,287.146 161.664,289.813 161.5,292.5C 163.904,303.212 167.404,313.545 172,323.5C 173.612,330.829 175.112,338.162 176.5,345.5C 180.68,359.847 190.014,369.013 204.5,373C 210.088,374.289 215.755,374.789 221.5,374.5C 222.255,367.456 223.255,360.456 224.5,353.5C 213.849,352.668 203.182,352.168 192.5,352C 190.393,350.736 189.393,348.903 189.5,346.5C 189.511,344.983 190.177,343.816 191.5,343C 204.167,342.667 216.833,342.333 229.5,342C 235.447,335.898 240.78,329.398 245.5,322.5C 248.728,317.66 250.895,312.327 252,306.5C 256.244,302.217 259.744,302.717 262.5,308C 260.633,315.234 257.8,322.067 254,328.5C 248.708,335.46 243.042,342.127 237,348.5C 235.438,350.957 234.438,353.624 234,356.5C 233.082,364.667 232.249,372.834 231.5,381C 232.293,390.923 233.793,400.757 236,410.5C 236.652,419.39 236.152,428.224 234.5,437C 234.305,439.352 234.972,441.352 236.5,443C 248.07,444.623 259.736,444.957 271.5,444C 275.665,442.517 277.165,439.684 276,435.5C 266.286,415.217 266.286,394.884 276,374.5C 280.395,368.434 284.395,362.1 288,355.5C 290.242,353.285 292.742,352.952 295.5,354.5C 297.238,356.119 297.738,358.119 297,360.5C 294.542,365.253 291.708,369.753 288.5,374C 299.746,372.042 310.08,367.875 319.5,361.5C 329.007,354.165 338.674,346.998 348.5,340C 362.823,334.931 374.989,326.764 385,315.5C 395.859,295.971 409.692,278.804 426.5,264C 431.249,260.206 436.416,257.039 442,254.5C 441.805,245.837 443.305,237.504 446.5,229.5C 450.516,219.634 457.016,211.634 466,205.5C 468.627,199.726 469.127,193.726 467.5,187.5C 453.611,181.87 439.277,177.87 424.5,175.5C 422.167,174.167 419.833,172.833 417.5,171.5C 415.801,168.804 413.467,166.804 410.5,165.5C 406.536,171.651 400.869,174.985 393.5,175.5C 384.601,177.262 377.101,174.929 371,168.5C 369.441,166.783 368.608,164.783 368.5,162.5C 362.041,163.568 357.041,166.901 353.5,172.5C 345.357,178.41 336.691,183.577 327.5,188C 322.704,192.236 322.204,197.07 326,202.5C 330.46,206.968 335.46,210.635 341,213.5C 341.667,219.161 339.167,221.328 333.5,220C 320.802,215.146 314.135,205.979 313.5,192.5C 306.825,192.334 300.158,192.5 293.5,193C 286.254,198.981 284.754,206.147 289,214.5C 297.474,231.16 310.641,242.327 328.5,248C 339.558,251.732 350.891,253.066 362.5,252C 363.833,251.333 365.167,250.667 366.5,250C 369.5,245.667 372.5,241.333 375.5,237C 377.134,236.506 378.801,236.34 380.5,236.5C 382.607,238.727 384.94,240.727 387.5,242.5C 391.223,249.194 396.89,251.861 404.5,250.5C 407.723,237.609 415.723,229.276 428.5,225.5C 431.377,225.381 433.044,226.714 433.5,229.5C 433.5,230.5 433.5,231.5 433.5,232.5C 432.564,233.974 431.23,234.974 429.5,235.5C 419.584,238.925 414.417,245.925 414,256.5C 413.5,258.333 412.333,259.5 410.5,260C 404.833,260.667 399.167,260.667 393.5,260C 388.444,257.45 383.777,254.284 379.5,250.5C 376.131,254.869 372.131,258.536 367.5,261.5C 360.533,262.221 353.533,262.721 346.5,263C 336.874,271.765 325.541,275.765 312.5,275C 302.849,268.258 300.849,259.591 306.5,249C 306.167,248.667 305.833,248.333 305.5,248C 298.296,249.345 290.963,249.679 283.5,249C 277.002,247.503 271.502,244.337 267,239.5C 262.864,228.564 266.364,221.398 277.5,218C 278.833,216.333 278.833,214.667 277.5,213C 271.024,209.176 266.024,204.009 262.5,197.5C 259.691,191.833 258.858,185.833 260,179.5C 264.017,172.862 269.85,170.696 277.5,173C 288.8,180.465 301.3,183.632 315,182.5C 321.9,178.298 329.066,174.465 336.5,171C 340.458,168.766 343.958,165.933 347,162.5C 354.811,130.251 352.645,98.7515 340.5,68C 340.667,64.5 342.5,62.6667 346,62.5C 352.796,65.2365 358.796,69.2365 364,74.5C 369.061,79.6267 373.394,85.2934 377,91.5C 377.718,94.4071 377.218,97.0738 375.5,99.5C 373.473,99.6621 371.473,99.4955 369.5,99C 366.028,93.8936 362.194,89.0603 358,84.5C 363.022,105.549 363.855,126.882 360.5,148.5C 360.833,150.167 361.167,151.833 361.5,153.5C 363.382,152.907 365.215,152.24 367,151.5C 372.418,137.157 376.585,122.49 379.5,107.5C 380.871,99.7379 381.538,91.9046 381.5,84C 381.265,75.4471 380.765,66.9471 380,58.5C 382.497,56.5218 385.331,56.0218 388.5,57C 407.71,76.4435 417.044,99.9435 416.5,127.5C 416.449,136.624 415.449,145.624 413.5,154.5C 419.376,157.932 425.042,161.599 430.5,165.5C 432.029,165.471 433.196,164.804 434,163.5C 436.39,158.997 438.39,154.331 440,149.5C 447.709,141.509 455.375,141.509 463,149.5C 467.926,157.844 469.76,166.844 468.5,176.5C 477.542,178.356 485.876,181.856 493.5,187C 501.499,194.667 503.833,203.667 500.5,214C 499.127,214.875 497.627,215.375 496,215.5C 487.092,212.686 478.259,212.853 469.5,216C 466.462,218.703 463.795,221.703 461.5,225C 470.455,227.128 479.455,228.128 488.5,228C 491.112,241.783 486.112,252.116 473.5,259C 465.213,262.571 456.546,264.238 447.5,264C 434.926,270.562 424.092,279.395 415,290.5C 407.258,300.314 400.258,310.648 394,321.5C 385.36,330.953 375.693,338.953 365,345.5C 361.683,363.618 364.683,380.618 374,396.5C 378.667,402.5 383.333,408.5 388,414.5C 393.638,423.405 395.971,433.071 395,443.5C 392.833,448.333 389.333,451.833 384.5,454C 372.167,454.667 359.833,454.667 347.5,454C 341.159,452.325 336.659,448.492 334,442.5C 332.546,435.777 330.88,429.11 329,422.5C 318.536,410.005 310.536,396.005 305,380.5C 298.451,383.347 291.618,385.347 284.5,386.5C 283.353,386.818 282.519,387.484 282,388.5C 277.518,403.429 278.851,417.762 286,431.5C 288.791,442.19 285.291,449.69 275.5,454C 261.833,454.667 248.167,454.667 234.5,454C 229.243,451.744 225.743,447.91 224,442.5C 224.054,434.827 224.554,427.161 225.5,419.5C 223.776,408.214 222.443,396.881 221.5,385.5C 215.816,384.527 210.15,384.527 204.5,385.5C 200.875,392.776 199.708,400.443 201,408.5C 202.814,416.461 205.48,424.128 209,431.5C 211.548,441.9 208.048,449.4 198.5,454C 175.5,454.667 152.5,454.667 129.5,454C 124.844,452.353 121.011,449.52 118,445.5C 115.18,436.557 112.514,427.557 110,418.5C 106.046,411.298 102.88,403.798 100.5,396C 88.5265,396.532 76.5265,396.532 64.5,396C 30.4569,388.613 11.9569,367.446 9,332.5C 6.80495,308.075 14.9716,287.908 33.5,272C 36.9794,268.918 40.9794,267.585 45.5,268C 47.0097,269.351 48.0097,271.018 48.5,273C 42.5821,284.504 40.4154,296.67 42,309.5C 46.0262,324.262 55.1929,329.095 69.5,324C 78.0836,319.751 84.2503,313.251 88,304.5C 87.6464,273.896 96.6464,246.563 115,222.5C 136.131,200.859 161.964,189.359 192.5,188C 209.196,187.147 225.863,187.48 242.5,189C 245.145,190.287 246.145,192.453 245.5,195.5 Z"/></g>
<g><path style="opacity:1" fill="#f5f5f6" d="M 405.5,134.5 C 399.372,144.403 390.372,149.403 378.5,149.5C 381.556,139.832 384.723,130.165 388,120.5C 390.734,106.963 392.4,93.2966 393,79.5C 403.303,96.3822 407.469,114.716 405.5,134.5 Z"/></g>
<g><path style="opacity:1" fill="#acbef6" d="M 375.5,99.5 C 376.326,102.485 377.659,105.151 379.5,107.5C 376.585,122.49 372.418,137.157 367,151.5C 365.215,152.24 363.382,152.907 361.5,153.5C 361.167,151.833 360.833,150.167 360.5,148.5C 363.855,126.882 363.022,105.549 358,84.5C 362.194,89.0603 366.028,93.8936 369.5,99C 371.473,99.4955 373.473,99.6621 375.5,99.5 Z"/></g>
<g><path style="opacity:1" fill="#adbff7" d="M 405.5,134.5 C 404.808,142.56 403.641,150.56 402,158.5C 401.167,162 399,164.167 395.5,165C 381.381,168.347 375.715,163.18 378.5,149.5C 390.372,149.403 399.372,144.403 405.5,134.5 Z"/></g>
<g><path style="opacity:1" fill="#f2f2f4" d="M 456.5,161.5 C 456.67,162.822 456.337,163.989 455.5,165C 452.516,167.326 449.183,168.826 445.5,169.5C 444.624,169.631 443.957,169.298 443.5,168.5C 445.926,164.151 447.926,159.651 449.5,155C 450.833,154.333 452.167,154.333 453.5,155C 454.914,156.993 455.914,159.16 456.5,161.5 Z"/></g>
<g><path style="opacity:1" fill="#52587c" d="M 393.5,175.5 C 379.846,178.886 366.513,177.886 353.5,172.5C 357.041,166.901 362.041,163.568 368.5,162.5C 368.608,164.783 369.441,166.783 371,168.5C 377.101,174.929 384.601,177.262 393.5,175.5 Z"/></g>
<g><path style="opacity:1" fill="#a3b1e4" d="M 456.5,161.5 C 458.467,165.262 458.8,169.262 457.5,173.5C 453.386,172.147 449.386,170.814 445.5,169.5C 449.183,168.826 452.516,167.326 455.5,165C 456.337,163.989 456.67,162.822 456.5,161.5 Z"/></g>
<g><path style="opacity:1" fill="#8888a1" d="M 417.5,171.5 C 415.083,174.22 412.083,176.22 408.5,177.5C 407.614,178.325 407.281,179.325 407.5,180.5C 410.187,180.664 412.854,180.497 415.5,180C 418.983,179.235 421.983,177.735 424.5,175.5C 439.277,177.87 453.611,181.87 467.5,187.5C 469.127,193.726 468.627,199.726 466,205.5C 457.016,211.634 450.516,219.634 446.5,229.5C 442.267,228.206 437.934,228.206 433.5,229.5C 433.044,226.714 431.377,225.381 428.5,225.5C 415.723,229.276 407.723,237.609 404.5,250.5C 396.89,251.861 391.223,249.194 387.5,242.5C 388.9,237.638 389.566,232.638 389.5,227.5C 388.448,227.351 387.448,227.517 386.5,228C 384.601,230.988 382.601,233.821 380.5,236.5C 378.801,236.34 377.134,236.506 375.5,237C 372.5,241.333 369.5,245.667 366.5,250C 365.167,250.667 363.833,251.333 362.5,252C 350.891,253.066 339.558,251.732 328.5,248C 310.641,242.327 297.474,231.16 289,214.5C 284.754,206.147 286.254,198.981 293.5,193C 300.158,192.5 306.825,192.334 313.5,192.5C 314.135,205.979 320.802,215.146 333.5,220C 339.167,221.328 341.667,219.161 341,213.5C 335.46,210.635 330.46,206.968 326,202.5C 322.204,197.07 322.704,192.236 327.5,188C 336.691,183.577 345.357,178.41 353.5,172.5C 366.513,177.886 379.846,178.886 393.5,175.5C 400.869,174.985 406.536,171.651 410.5,165.5C 413.467,166.804 415.801,168.804 417.5,171.5 Z"/></g>
<g><path style="opacity:1" fill="#545a7e" d="M 417.5,171.5 C 419.833,172.833 422.167,174.167 424.5,175.5C 421.983,177.735 418.983,179.235 415.5,180C 412.854,180.497 410.187,180.664 407.5,180.5C 407.281,179.325 407.614,178.325 408.5,177.5C 412.083,176.22 415.083,174.22 417.5,171.5 Z"/></g>
<g><path style="opacity:1" fill="#efeff1" d="M 270.5,182.5 C 274.979,183.972 278.979,186.305 282.5,189.5C 280.398,192.705 278.565,196.038 277,199.5C 271.95,194.765 269.783,189.098 270.5,182.5 Z"/></g>
<g><path style="opacity:1" fill="#4f5479" d="M 478.5,191.5 C 484.329,193.324 488.663,196.991 491.5,202.5C 486.88,203.493 482.214,203.827 477.5,203.5C 478.272,199.548 478.605,195.548 478.5,191.5 Z"/></g>
<g><path style="opacity:1" fill="#8888a1" d="M 245.5,195.5 C 248.059,195.198 250.393,195.532 252.5,196.5C 256.765,203.767 262.432,209.767 269.5,214.5C 262.104,217.809 254.604,220.809 247,223.5C 246.333,224.833 246.333,226.167 247,227.5C 257.758,247.708 274.591,256.708 297.5,254.5C 295.982,262.722 293.649,270.722 290.5,278.5C 290.745,281.168 292.079,283.002 294.5,284C 314.384,286.239 333.718,284.073 352.5,277.5C 353.107,277.624 353.44,277.957 353.5,278.5C 350.597,284.449 346.597,289.616 341.5,294C 333.707,297.73 326.041,301.73 318.5,306C 308.893,312.101 302.56,320.601 299.5,331.5C 299.757,333.692 300.757,335.359 302.5,336.5C 300.142,342.541 297.808,348.541 295.5,354.5C 292.742,352.952 290.242,353.285 288,355.5C 284.395,362.1 280.395,368.434 276,374.5C 266.286,394.884 266.286,415.217 276,435.5C 277.165,439.684 275.665,442.517 271.5,444C 259.736,444.957 248.07,444.623 236.5,443C 234.972,441.352 234.305,439.352 234.5,437C 236.152,428.224 236.652,419.39 236,410.5C 233.793,400.757 232.293,390.923 231.5,381C 232.249,372.834 233.082,364.667 234,356.5C 234.438,353.624 235.438,350.957 237,348.5C 243.042,342.127 248.708,335.46 254,328.5C 257.8,322.067 260.633,315.234 262.5,308C 259.744,302.717 256.244,302.217 252,306.5C 250.895,312.327 248.728,317.66 245.5,322.5C 230.171,336.199 212.505,340.699 192.5,336C 188.363,334.363 185.363,331.53 183.5,327.5C 192.863,327.357 201.863,325.524 210.5,322C 211.451,321.282 211.617,320.449 211,319.5C 194.699,320.012 180.365,315.012 168,304.5C 165.536,300.566 163.369,296.566 161.5,292.5C 161.664,289.813 161.497,287.146 161,284.5C 158.374,280.928 155.374,280.595 152,283.5C 151.368,289.214 151.701,294.881 153,300.5C 155.993,309.157 158.993,317.824 162,326.5C 168.118,347.583 167.785,368.583 161,389.5C 160.213,397.881 160.546,406.214 162,414.5C 164.247,421.906 166.08,429.406 167.5,437C 167.717,440.235 166.383,442.568 163.5,444C 153.167,444.667 142.833,444.667 132.5,444C 130.391,442.859 128.558,441.359 127,439.5C 125.128,432.884 123.461,426.217 122,419.5C 116.42,409.426 112.42,398.76 110,387.5C 110.38,371.92 108.714,356.587 105,341.5C 104.292,340.619 103.458,339.953 102.5,339.5C 101.432,338.566 100.099,338.232 98.5,338.5C 99.1373,330.937 97.304,329.604 93,334.5C 89.5546,343.098 84.7213,350.764 78.5,357.5C 71.7001,359.758 64.7001,361.092 57.5,361.5C 32.3989,358.573 19.8989,344.573 20,319.5C 29.0965,328.299 39.9299,333.799 52.5,336C 74.2149,337.61 89.3816,328.444 98,308.5C 98.9849,297.149 100.318,285.816 102,274.5C 108.025,242.605 125.858,220.105 155.5,207C 182.335,197.538 209.835,195.038 238,199.5C 241.571,200.081 244.071,198.748 245.5,195.5 Z"/></g>
<g><path style="opacity:1" fill="#51577c" d="M 252.5,196.5 C 255.881,196.46 259.214,196.793 262.5,197.5C 266.024,204.009 271.024,209.176 277.5,213C 278.833,214.667 278.833,216.333 277.5,218C 266.364,221.398 262.864,228.564 267,239.5C 271.502,244.337 277.002,247.503 283.5,249C 290.963,249.679 298.296,249.345 305.5,248C 305.833,248.333 306.167,248.667 306.5,249C 300.849,259.591 302.849,268.258 312.5,275C 325.541,275.765 336.874,271.765 346.5,263C 353.533,262.721 360.533,262.221 367.5,261.5C 365.891,265.054 364.558,268.721 363.5,272.5C 362.662,272.842 362.328,273.508 362.5,274.5C 358.33,272.97 355.33,274.303 353.5,278.5C 353.44,277.957 353.107,277.624 352.5,277.5C 333.718,284.073 314.384,286.239 294.5,284C 292.079,283.002 290.745,281.168 290.5,278.5C 293.649,270.722 295.982,262.722 297.5,254.5C 274.591,256.708 257.758,247.708 247,227.5C 246.333,226.167 246.333,224.833 247,223.5C 254.604,220.809 262.104,217.809 269.5,214.5C 262.432,209.767 256.765,203.767 252.5,196.5 Z"/></g>
<g><path style="opacity:1" fill="#53597e" d="M 401.5,197.5 C 404.978,197.184 408.312,197.684 411.5,199C 413.984,201.284 414.151,203.784 412,206.5C 408.256,207.626 404.423,207.793 400.5,207C 397.753,203.553 398.087,200.386 401.5,197.5 Z"/></g>
<g><path style="opacity:1" fill="#f2f2f3" d="M 282.5,226.5 C 283.496,226.414 284.329,226.748 285,227.5C 287.412,231.916 290.578,235.749 294.5,239C 287.694,240.177 281.527,238.677 276,234.5C 275.333,233.167 275.333,231.833 276,230.5C 278.314,229.267 280.481,227.933 282.5,226.5 Z"/></g>
<g><path style="opacity:1" fill="#52587c" d="M 387.5,242.5 C 384.94,240.727 382.607,238.727 380.5,236.5C 382.601,233.821 384.601,230.988 386.5,228C 387.448,227.517 388.448,227.351 389.5,227.5C 389.566,232.638 388.9,237.638 387.5,242.5 Z"/></g>
<g><path style="opacity:1" fill="#e6b39a" d="M 446.5,229.5 C 441.765,228.962 437.431,229.962 433.5,232.5C 433.5,231.5 433.5,230.5 433.5,229.5C 437.934,228.206 442.267,228.206 446.5,229.5 Z"/></g>
<g><path style="opacity:1" fill="#f8f1d8" d="M 446.5,229.5 C 443.305,237.504 441.805,245.837 442,254.5C 436.416,257.039 431.249,260.206 426.5,264C 409.692,278.804 395.859,295.971 385,315.5C 374.989,326.764 362.823,334.931 348.5,340C 338.674,346.998 329.007,354.165 319.5,361.5C 315.444,357.389 312.944,352.389 312,346.5C 311.347,340.138 311.513,333.805 312.5,327.5C 314.539,322.622 317.873,318.788 322.5,316C 330.704,311.066 339.037,306.399 347.5,302C 354.518,296.323 360.018,289.489 364,281.5C 364.833,278.829 364.333,276.496 362.5,274.5C 362.328,273.508 362.662,272.842 363.5,272.5C 369.132,268.704 374.632,264.704 380,260.5C 382.752,261.586 385.252,263.086 387.5,265C 397.167,265.667 406.833,265.667 416.5,265C 418.049,263.786 419.215,262.286 420,260.5C 420.519,251.104 423.685,242.77 429.5,235.5C 431.23,234.974 432.564,233.974 433.5,232.5C 437.431,229.962 441.765,228.962 446.5,229.5 Z"/></g>
<g><path style="opacity:1" fill="#50567b" d="M 455.5,235.5 C 463.098,236.808 470.765,237.808 478.5,238.5C 472.765,248.371 464.098,253.038 452.5,252.5C 452.534,246.629 453.534,240.962 455.5,235.5 Z"/></g>
<g><path style="opacity:1" fill="#efae8f" d="M 429.5,235.5 C 423.685,242.77 420.519,251.104 420,260.5C 419.215,262.286 418.049,263.786 416.5,265C 406.833,265.667 397.167,265.667 387.5,265C 385.252,263.086 382.752,261.586 380,260.5C 374.632,264.704 369.132,268.704 363.5,272.5C 364.558,268.721 365.891,265.054 367.5,261.5C 372.131,258.536 376.131,254.869 379.5,250.5C 383.777,254.284 388.444,257.45 393.5,260C 399.167,260.667 404.833,260.667 410.5,260C 412.333,259.5 413.5,258.333 414,256.5C 414.417,245.925 419.584,238.925 429.5,235.5 Z"/></g>
<g><path style="opacity:1" fill="#eeeef0" d="M 315.5,253.5 C 321.63,256.155 327.963,258.321 334.5,260C 328.861,263.241 322.861,264.908 316.5,265C 315.101,263.938 314.101,262.605 313.5,261C 314.249,258.503 314.916,256.003 315.5,253.5 Z"/></g>
<g><path style="opacity:1" fill="#3a4053" d="M 362.5,274.5 C 364.333,276.496 364.833,278.829 364,281.5C 360.018,289.489 354.518,296.323 347.5,302C 339.037,306.399 330.704,311.066 322.5,316C 317.873,318.788 314.539,322.622 312.5,327.5C 311.122,330.42 309.455,333.254 307.5,336C 305.866,336.494 304.199,336.66 302.5,336.5C 300.757,335.359 299.757,333.692 299.5,331.5C 302.56,320.601 308.893,312.101 318.5,306C 326.041,301.73 333.707,297.73 341.5,294C 346.597,289.616 350.597,284.449 353.5,278.5C 355.33,274.303 358.33,272.97 362.5,274.5 Z"/></g>
<g><path style="opacity:1" fill="#52587d" d="M 244.5,285.5 C 245.822,285.33 246.989,285.663 248,286.5C 250.455,306.033 241.955,316.533 222.5,318C 221.483,316.951 221.316,315.784 222,314.5C 231.975,306.699 239.475,297.032 244.5,285.5 Z"/></g>
<g><path style="opacity:1" fill="#51577c" d="M 161.5,292.5 C 163.369,296.566 165.536,300.566 168,304.5C 180.365,315.012 194.699,320.012 211,319.5C 211.617,320.449 211.451,321.282 210.5,322C 201.863,325.524 192.863,327.357 183.5,327.5C 185.363,331.53 188.363,334.363 192.5,336C 212.505,340.699 230.171,336.199 245.5,322.5C 240.78,329.398 235.447,335.898 229.5,342C 216.833,342.333 204.167,342.667 191.5,343C 190.177,343.816 189.511,344.983 189.5,346.5C 185.176,346.073 180.842,345.739 176.5,345.5C 175.112,338.162 173.612,330.829 172,323.5C 167.404,313.545 163.904,303.212 161.5,292.5 Z"/></g>
<g><path style="opacity:1" fill="#efad8e" d="M 312.5,327.5 C 311.513,333.805 311.347,340.138 312,346.5C 312.944,352.389 315.444,357.389 319.5,361.5C 310.08,367.875 299.746,372.042 288.5,374C 291.708,369.753 294.542,365.253 297,360.5C 297.738,358.119 297.238,356.119 295.5,354.5C 297.808,348.541 300.142,342.541 302.5,336.5C 304.199,336.66 305.866,336.494 307.5,336C 309.455,333.254 311.122,330.42 312.5,327.5 Z"/></g>
<g><path style="opacity:1" fill="#53587d" d="M 102.5,339.5 C 99.9556,339.104 97.7889,339.771 96,341.5C 96.0024,345.86 96.5024,350.193 97.5,354.5C 95.6917,355.907 93.6917,357.074 91.5,358C 90.9011,359.622 90.2344,361.122 89.5,362.5C 89.6602,360.801 89.4935,359.134 89,357.5C 85.5485,355.061 82.0485,355.061 78.5,357.5C 84.7213,350.764 89.5546,343.098 93,334.5C 97.304,329.604 99.1373,330.937 98.5,338.5C 100.099,338.232 101.432,338.566 102.5,339.5 Z"/></g>
<g><path style="opacity:1" fill="#eeac8d" d="M 176.5,345.5 C 180.842,345.739 185.176,346.073 189.5,346.5C 189.393,348.903 190.393,350.736 192.5,352C 203.182,352.168 213.849,352.668 224.5,353.5C 223.255,360.456 222.255,367.456 221.5,374.5C 215.755,374.789 210.088,374.289 204.5,373C 190.014,369.013 180.68,359.847 176.5,345.5 Z"/></g>
<g><path style="opacity:1" fill="#edab8d" d="M 97.5,354.5 C 99.2094,364.375 99.876,374.375 99.5,384.5C 92.2037,385.495 84.8704,386.162 77.5,386.5C 57.915,386.929 42.2483,379.429 30.5,364C 34.8083,366.342 39.475,368.342 44.5,370C 59.1988,371.998 73.5321,370.332 87.5,365C 88.3805,364.292 89.0472,363.458 89.5,362.5C 90.2344,361.122 90.9011,359.622 91.5,358C 93.6917,357.074 95.6917,355.907 97.5,354.5 Z"/></g>
</svg>
