<?xml version="1.0" encoding="UTF-8"?>
<!DOCTYPE svg PUBLIC "-//W3C//DTD SVG 1.1//EN" "http://www.w3.org/Graphics/SVG/1.1/DTD/svg11.dtd">
<svg xmlns="http://www.w3.org/2000/svg" version="1.1" width="512px" height="512px" style="shape-rendering:geometricPrecision; text-rendering:geometricPrecision; image-rendering:optimizeQuality; fill-rule:evenodd; clip-rule:evenodd" xmlns:xlink="http://www.w3.org/1999/xlink">
<g><path style="opacity:1" fill="#393e51" d="M 410.5,39.5 C 422.678,38.7924 433.678,41.9591 443.5,49C 466.449,67.379 480.282,91.2124 485,120.5C 489.73,151.923 489.063,183.256 483,214.5C 474.378,250.259 455.545,279.259 426.5,301.5C 430.762,307.019 435.262,312.352 440,317.5C 443.599,323.887 444.265,330.554 442,337.5C 435.157,347.189 430.49,357.856 428,369.5C 423.081,378.81 415.581,381.644 405.5,378C 402.751,376.877 400.251,375.377 398,373.5C 394.131,377.034 390.631,380.867 387.5,385C 376.196,391.639 365.53,390.639 355.5,382C 347.442,375.278 341.775,366.945 338.5,357C 339.608,351.977 342.608,350.31 347.5,352C 360.122,363.821 371.622,362.654 382,348.5C 385.333,343.833 385.333,339.167 382,334.5C 378.283,331.115 374.283,328.115 370,325.5C 353.541,332.812 336.708,339.145 319.5,344.5C 309.9,359.601 297.733,372.268 283,382.5C 277.817,390.794 277.15,399.46 281,408.5C 282.357,412.746 284.19,416.746 286.5,420.5C 296.999,412.522 308.666,410.355 321.5,414C 327.745,415.594 332.079,419.261 334.5,425C 333.743,426.512 332.743,427.846 331.5,429C 325.634,430.4 319.967,432.4 314.5,435C 326.844,440.176 334.178,449.343 336.5,462.5C 335.357,467.253 332.357,468.753 327.5,467C 317.338,461.731 306.672,460.065 295.5,462C 290.204,467.207 283.871,468.874 276.5,467C 271.269,464.768 267.769,460.935 266,455.5C 259.231,432.769 248.231,412.435 233,394.5C 231.189,390.012 230.189,385.346 230,380.5C 226.006,381.972 221.839,382.639 217.5,382.5C 204.553,380.509 191.553,378.843 178.5,377.5C 160.235,379.261 148.901,389.094 144.5,407C 149.252,406.235 154.085,405.402 159,404.5C 177.011,406.819 184.677,416.819 182,434.5C 180.559,435.26 179.059,435.926 177.5,436.5C 174.017,434.331 170.351,432.664 166.5,431.5C 163.553,431.93 161.219,433.43 159.5,436C 172.725,438.224 182.225,445.391 188,457.5C 191.686,471.753 187.186,474.92 174.5,467C 171.07,466.044 167.57,465.544 164,465.5C 152.901,467.809 141.735,469.809 130.5,471.5C 112.57,470.404 103.237,460.904 102.5,443C 102.515,439.097 103.015,435.264 104,431.5C 110.3,419.6 113.967,406.933 115,393.5C 115.333,382.167 115.667,370.833 116,359.5C 118.167,353.333 122.333,349.167 128.5,347C 138.83,346.449 147.83,342.783 155.5,336C 168.396,329.687 182.062,326.687 196.5,327C 201.041,325.893 202.708,323.226 201.5,319C 186.661,310.413 171.661,302.08 156.5,294C 134.633,287.266 112.966,279.933 91.5,272C 37.3609,248.909 15.1942,208.075 25,149.5C 34.9501,111.548 59.1167,88.7149 97.5,81C 126.839,77.5592 152.505,85.5592 174.5,105C 180.857,112.356 187.524,119.356 194.5,126C 201.64,132.447 208.14,131.947 214,124.5C 217.571,117.545 219.904,110.212 221,102.5C 224,99.8333 227,99.8333 230,102.5C 240.754,118.997 241.088,135.664 231,152.5C 220.434,164.356 207.267,168.856 191.5,166C 186.721,165.074 182.054,163.741 177.5,162C 162.491,152.827 147.158,144.16 131.5,136C 116.8,132.05 103.967,135.217 93,145.5C 82.1144,169.485 88.9477,186.652 113.5,197C 124.282,200.223 135.282,201.223 146.5,200C 169.831,196.001 193.164,192.001 216.5,188C 242.227,184.382 267.893,184.715 293.5,189C 310.32,193.789 327.32,197.789 344.5,201C 355.173,202.917 365.84,202.917 376.5,201C 390.109,197.058 398.609,188.225 402,174.5C 402.691,166.805 402.525,159.139 401.5,151.5C 381.004,148.844 360.504,148.844 340,151.5C 329.682,150.678 321.682,146.012 316,137.5C 311.751,131.001 308.584,124.001 306.5,116.5C 306.829,112.838 308.829,110.838 312.5,110.5C 316.019,111.512 318.186,113.845 319,117.5C 321.228,115.887 323.728,115.22 326.5,115.5C 325.829,108.007 328.995,105.674 336,108.5C 337.128,110.345 337.628,112.345 337.5,114.5C 339.5,114.5 341.5,114.5 343.5,114.5C 342.782,109.586 344.782,106.586 349.5,105.5C 352.494,107.005 354.994,109.005 357,111.5C 360.143,111.258 360.977,109.924 359.5,107.5C 362.79,100.21 366.79,99.8763 371.5,106.5C 375.796,101.374 376.13,96.0406 372.5,90.5C 369.914,89.52 367.247,89.1866 364.5,89.5C 364.496,94.9885 361.829,96.8219 356.5,95C 353.959,93.1516 352.959,90.6516 353.5,87.5C 351.856,87.7135 350.356,87.3802 349,86.5C 348.749,90.5851 346.582,92.9184 342.5,93.5C 338.085,92.0927 336.418,89.0927 337.5,84.5C 335.533,84.7394 333.699,84.4061 332,83.5C 330.231,90.5618 326.565,91.8952 321,87.5C 320.808,85.4233 320.308,83.4233 319.5,81.5C 317.5,80.8333 315.5,80.1667 313.5,79.5C 312.827,85.0172 309.827,87.1838 304.5,86C 303.333,85.5 302.5,84.6667 302,83.5C 301.469,65.0517 309.303,51.5517 325.5,43C 328.107,42.1816 330.774,41.6816 333.5,41.5C 359.465,47.1645 385.132,46.4978 410.5,39.5 Z"/></g>
<g><path style="opacity:1" fill="#c67c7c" d="M 476.5,173.5 C 473.203,163.237 468.536,153.57 462.5,144.5C 465.406,140.181 464.739,136.348 460.5,133C 458.071,132.297 455.738,132.463 453.5,133.5C 452.5,131.833 451.167,130.5 449.5,129.5C 451.707,123.161 449.373,119.328 442.5,118C 437.06,116.826 432.06,117.826 427.5,121C 424.08,126.507 420.414,131.841 416.5,137C 412.995,139.78 408.995,141.28 404.5,141.5C 382.544,137.996 360.544,137.662 338.5,140.5C 331.552,138.723 326.552,134.556 323.5,128C 323.645,127.228 323.978,126.561 324.5,126C 353.828,126.166 380.495,117.999 404.5,101.5C 411.595,104.917 418.929,105.417 426.5,103C 429.405,99.6258 429.072,96.6258 425.5,94C 421.199,94.3631 416.866,94.3631 412.5,94C 396.568,83.2164 378.902,77.883 359.5,78C 345.736,75.796 332.069,73.1293 318.5,70C 316.675,68.5341 316.175,66.7008 317,64.5C 320.791,57.6901 326.458,53.6901 334,52.5C 360.965,56.9629 387.798,56.2962 414.5,50.5C 421.677,50.5016 428.344,52.335 434.5,56C 459.1,75.0175 472.934,100.184 476,131.5C 477.489,145.524 477.655,159.524 476.5,173.5 Z"/></g>
<g><path style="opacity:1" fill="#874d76" d="M 331.5,58.5 C 336.835,58.005 339.335,60.3384 339,65.5C 336.294,68.9779 333.294,69.3112 330,66.5C 329.109,63.5024 329.609,60.8357 331.5,58.5 Z"/></g>
<g><path style="opacity:1" fill="#854b76" d="M 407.5,62.5 C 413.496,61.3327 415.996,63.6661 415,69.5C 411.867,72.877 408.034,74.0437 403.5,73C 400.232,67.7636 401.565,64.2636 407.5,62.5 Z"/></g>
<g><path style="opacity:1" fill="#c67c7c" d="M 189.5,203.5 C 188.013,208.442 187.18,213.442 187,218.5C 188.667,221.167 190.333,221.167 192,218.5C 194.319,212.528 197.153,206.861 200.5,201.5C 209.913,199.302 219.58,197.969 229.5,197.5C 227.348,209.078 226.514,220.744 227,232.5C 229.454,234.013 231.121,233.346 232,230.5C 234.685,218.897 238.185,207.564 242.5,196.5C 250.167,196.5 257.833,196.5 265.5,196.5C 263.987,209.116 263.32,221.782 263.5,234.5C 265.167,234.5 266.833,234.5 268.5,234.5C 270.774,221.734 274.441,209.4 279.5,197.5C 287.041,198.75 294.374,200.417 301.5,202.5C 301.19,214.508 301.023,226.508 301,238.5C 302.356,239.38 303.856,239.714 305.5,239.5C 309.676,228.647 313.01,217.647 315.5,206.5C 322.951,208.199 330.285,209.866 337.5,211.5C 337.5,219.833 337.5,228.167 337.5,236.5C 339.288,236.785 340.955,236.452 342.5,235.5C 346.775,228.341 349.441,220.674 350.5,212.5C 359.173,212.666 367.84,212.5 376.5,212C 399.798,205.857 412.465,190.69 414.5,166.5C 427.614,184.325 430.114,203.658 422,224.5C 420.654,227.87 418.821,230.87 416.5,233.5C 414.309,230.957 411.642,229.291 408.5,228.5C 405.404,228.429 403.738,229.929 403.5,233C 406.276,237.127 409.11,241.293 412,245.5C 414.004,252.637 412.171,258.47 406.5,263C 395.062,268.464 384.562,275.298 375,283.5C 372.623,280.484 369.623,278.484 366,277.5C 361.794,278.528 360.461,281.195 362,285.5C 369.113,292.613 376.279,299.779 383.5,307C 391.84,312.437 399.34,318.937 406,326.5C 410.168,333.336 410.501,340.336 407,347.5C 397.833,357.333 388.667,367.167 379.5,377C 376.298,378.483 372.964,378.817 369.5,378C 365.89,376.056 362.557,373.723 359.5,371C 365.845,371.102 371.845,369.768 377.5,367C 382.301,363.201 386.801,359.034 391,354.5C 396.979,345.765 396.979,337.098 391,328.5C 387.419,324.248 383.252,320.748 378.5,318C 368.144,313.661 357.811,309.328 347.5,305C 339.14,297.536 337.307,288.702 342,278.5C 347.499,272.546 354.332,269.046 362.5,268C 374.253,263.879 382.42,256.046 387,244.5C 387.993,238.498 385.493,236.332 379.5,238C 376.728,244.193 372.728,249.526 367.5,254C 359.101,258.246 350.434,261.913 341.5,265C 336.429,268.14 332.762,272.473 330.5,278C 325.781,279.121 321.114,280.454 316.5,282C 314.845,283.444 314.178,285.278 314.5,287.5C 311.513,287.998 308.513,288.498 305.5,289C 303.676,289.66 302.343,290.827 301.5,292.5C 297.812,290.753 294.645,291.42 292,294.5C 278.015,324.146 257.848,348.646 231.5,368C 226.828,370.585 221.828,372.085 216.5,372.5C 200.421,368.322 184.088,366.822 167.5,368C 146.766,375.078 135.266,389.578 133,411.5C 129.852,435.674 140.352,448.174 164.5,449C 168.016,450.256 171.016,452.256 173.5,455C 167.528,454.594 161.528,454.594 155.5,455C 149.186,456.828 142.853,458.495 136.5,460C 122.661,462.487 114.661,456.82 112.5,443C 113.095,436.305 115.261,430.138 119,424.5C 121.277,418.668 122.944,412.668 124,406.5C 125.887,391.562 126.887,376.562 127,361.5C 128.543,359.622 130.376,358.122 132.5,357C 137.594,356.476 142.594,355.476 147.5,354C 154.712,348.893 162.379,344.56 170.5,341C 180.775,339.17 191.109,337.837 201.5,337C 212.196,330.949 216.362,321.782 214,309.5C 210.636,290.271 202.136,273.771 188.5,260C 185.007,259.058 181.674,257.725 178.5,256C 173.165,254.833 170.831,257 171.5,262.5C 170.751,261.469 170.085,260.302 169.5,259C 166.454,258.261 163.454,257.428 160.5,256.5C 161.145,253.453 160.145,251.287 157.5,250C 155.167,249.333 152.833,249.333 150.5,250C 149.177,250.816 148.511,251.983 148.5,253.5C 145.5,252.833 142.5,252.167 139.5,251.5C 139.822,249.278 139.155,247.444 137.5,246C 113.341,242.75 90.3406,235.75 68.5,225C 53.4805,216.316 42.3139,204.149 35,188.5C 28.6227,148.431 42.7893,118.265 77.5,98C 106.527,85.6177 133.86,88.6177 159.5,107C 149.624,107.479 139.957,109.146 130.5,112C 117.312,118.427 104.312,125.093 91.5,132C 76.9866,144.212 72.8199,159.378 79,177.5C 86.9356,195.076 100.436,205.91 119.5,210C 131.156,211.844 142.822,211.844 154.5,210C 166.168,207.766 177.835,205.6 189.5,203.5 Z"/></g>
<g><path style="opacity:1" fill="#f8f1d8" d="M 449.5,129.5 C 451.167,130.5 452.5,131.833 453.5,133.5C 451.767,137.731 452.767,141.231 456.5,144C 458.473,144.495 460.473,144.662 462.5,144.5C 468.536,153.57 473.203,163.237 476.5,173.5C 476.797,223.399 457.463,263.566 418.5,294C 413.271,297.113 407.938,299.947 402.5,302.5C 400.563,301.069 398.73,299.402 397,297.5C 396.792,293.887 397.792,290.554 400,287.5C 406.302,282.199 412.302,276.532 418,270.5C 419.741,267.691 420.908,264.691 421.5,261.5C 422.162,257.843 422.829,254.176 423.5,250.5C 423.37,248.625 423.037,246.792 422.5,245C 434.161,227.857 438.661,209.024 436,188.5C 431.904,174.137 425.07,161.304 415.5,150C 423.111,145.722 428.611,139.555 432,131.5C 433.907,127.99 436.74,126.824 440.5,128C 443.166,130.584 446.166,131.084 449.5,129.5 Z"/></g>
<g><path style="opacity:1" fill="#3d4153" d="M 462.5,144.5 C 460.473,144.662 458.473,144.495 456.5,144C 452.767,141.231 451.767,137.731 453.5,133.5C 455.738,132.463 458.071,132.297 460.5,133C 464.739,136.348 465.406,140.181 462.5,144.5 Z"/></g>
<g><path style="opacity:1" fill="#844b75" d="M 242.5,196.5 C 238.185,207.564 234.685,218.897 232,230.5C 231.121,233.346 229.454,234.013 227,232.5C 226.514,220.744 227.348,209.078 229.5,197.5C 233.735,196.564 238.069,196.231 242.5,196.5 Z"/></g>
<g><path style="opacity:1" fill="#844b75" d="M 265.5,196.5 C 270.152,196.998 274.819,197.331 279.5,197.5C 274.441,209.4 270.774,221.734 268.5,234.5C 266.833,234.5 265.167,234.5 263.5,234.5C 263.32,221.782 263.987,209.116 265.5,196.5 Z"/></g>
<g><path style="opacity:1" fill="#854c75" d="M 200.5,201.5 C 197.153,206.861 194.319,212.528 192,218.5C 190.333,221.167 188.667,221.167 187,218.5C 187.18,213.442 188.013,208.442 189.5,203.5C 193.076,202.515 196.742,201.848 200.5,201.5 Z"/></g>
<g><path style="opacity:1" fill="#844b75" d="M 301.5,202.5 C 306.438,203.231 311.105,204.565 315.5,206.5C 313.01,217.647 309.676,228.647 305.5,239.5C 303.856,239.714 302.356,239.38 301,238.5C 301.023,226.508 301.19,214.508 301.5,202.5 Z"/></g>
<g><path style="opacity:1" fill="#854c76" d="M 337.5,211.5 C 341.824,211.927 346.158,212.261 350.5,212.5C 349.441,220.674 346.775,228.341 342.5,235.5C 340.955,236.452 339.288,236.785 337.5,236.5C 337.5,228.167 337.5,219.833 337.5,211.5 Z"/></g>
<g><path style="opacity:1" fill="#efad8e" d="M 139.5,251.5 C 142.5,252.167 145.5,252.833 148.5,253.5C 149.56,259.095 152.893,260.929 158.5,259C 159.381,258.292 160.047,257.458 160.5,256.5C 163.454,257.428 166.454,258.261 169.5,259C 170.085,260.302 170.751,261.469 171.5,262.5C 174.701,265.937 178.701,268.104 183.5,269C 193.471,279.769 199.471,292.269 201.5,306.5C 188.154,298.492 174.488,290.992 160.5,284C 139.363,277.399 118.363,270.399 97.5,263C 75.7325,254.893 58.3991,241.226 45.5,222C 72.4031,241.642 102.736,252.642 136.5,255C 137.71,253.961 138.71,252.794 139.5,251.5 Z"/></g>
<g><path style="opacity:1" fill="#894e76" d="M 262.5,247.5 C 267.705,249.584 268.872,253.251 266,258.5C 262.229,259.749 260.396,258.249 260.5,254C 260.482,251.59 261.149,249.423 262.5,247.5 Z"/></g>
<g><path style="opacity:1" fill="#3d4052" d="M 160.5,256.5 C 160.047,257.458 159.381,258.292 158.5,259C 152.893,260.929 149.56,259.095 148.5,253.5C 148.511,251.983 149.177,250.816 150.5,250C 152.833,249.333 155.167,249.333 157.5,250C 160.145,251.287 161.145,253.453 160.5,256.5 Z"/></g>
<g><path style="opacity:1" fill="#eead8e" d="M 421.5,261.5 C 420.908,264.691 419.741,267.691 418,270.5C 412.302,276.532 406.302,282.199 400,287.5C 397.792,290.554 396.792,293.887 397,297.5C 398.73,299.402 400.563,301.069 402.5,302.5C 400.775,303.905 398.775,304.405 396.5,304C 391.604,300.058 386.937,295.892 382.5,291.5C 391.922,282.612 402.589,275.445 414.5,270C 417.21,267.372 419.544,264.539 421.5,261.5 Z"/></g>
<g><path style="opacity:1" fill="#f0ad8e" d="M 314.5,287.5 C 315.267,288.172 315.934,289.005 316.5,290C 320.848,290.415 325.181,290.249 329.5,289.5C 330.752,305.31 339.086,315.31 354.5,319.5C 340.02,327.16 324.687,332.327 308.5,335C 298.816,335.832 289.149,335.665 279.5,334.5C 287.751,323.005 295.251,311.005 302,298.5C 302.678,296.402 302.511,294.402 301.5,292.5C 302.343,290.827 303.676,289.66 305.5,289C 308.513,288.498 311.513,287.998 314.5,287.5 Z"/></g>
</svg>
