<?xml version="1.0" encoding="UTF-8"?>
<svg version="1.1" xmlns="http://www.w3.org/2000/svg" width="1080" height="1080">
<path d="M0 0 C0.7312207 0.34442139 1.46244141 0.68884277 2.21582031 1.04370117 C7.86296029 3.74165417 13.22124273 6.76128061 18.5 10.125 C19.86898437 10.88876953 19.86898437 10.88876953 21.265625 11.66796875 C22.00296875 12.14878906 22.7403125 12.62960937 23.5 13.125 C23.5 13.785 23.5 14.445 23.5 15.125 C24.55960938 15.4653125 24.55960938 15.4653125 25.640625 15.8125 C29.06969767 17.38650057 31.54372649 19.56000374 34.25 22.125 C35.03661011 22.86411621 35.03661011 22.86411621 35.83911133 23.61816406 C62.9678463 49.39521591 66.80049578 79.18672996 68.14575195 115.20239258 C67.24383228 169.46904346 67.24383228 169.46904346 83.5 219.125 C84.32564453 220.30449219 84.32564453 220.30449219 85.16796875 221.5078125 C95.34511904 234.31062417 111.29922758 240.5505918 126.625 244.5625 C138.3684596 247.67438911 147.38598649 252.54967247 153.78125 263.2734375 C158.13090225 271.63098362 158.99932948 280.77641058 156.81640625 290.01953125 C153.54157734 298.86564587 147.96149124 304.97202544 139.5 309.125 C119.63497925 316.86991233 94.55619455 305.19888358 76.3828125 297.328125 C59.02503893 289.62119111 43.27583102 280.26670546 29.5 267.125 C28.0906449 265.88745674 26.67462323 264.65743598 25.25 263.4375 C23.996565 262.33723425 22.74641112 261.23321629 21.5 260.125 C20.90574219 259.59777344 20.31148437 259.07054687 19.69921875 258.52734375 C5.15684854 244.88782579 2.33039121 227.81960056 0.08691406 208.94750977 C-1.17486915 198.35903248 -2.69505176 187.83287751 -4.4375 177.3125 C-4.6282309 176.1607579 -4.6282309 176.1607579 -4.82281494 174.98574829 C-6.69467689 163.80907233 -9.04209112 152.92579905 -12.5 142.125 C-12.84735444 140.79525048 -13.18876082 139.46366316 -13.5 138.125 C-14.16 138.125 -14.82 138.125 -15.5 138.125 C-16.87826612 152.11229462 -18.03024716 166.07539883 -18.5 180.125 C-18.54253906 181.3625 -18.58507812 182.6 -18.62890625 183.875 C-18.77745551 193.06524756 -18.2077458 202.20663366 -17.625 211.375 C-17.54660889 212.64263184 -17.46821777 213.91026367 -17.38745117 215.21630859 C-16.85986498 222.95862331 -15.93922589 230.50073785 -14.5 238.125 C-14.34450684 238.97175293 -14.18901367 239.81850586 -14.02880859 240.69091797 C-8.77337806 275.25266956 -8.77337806 275.25266956 8.5 304.125 C14.98533338 308.17371856 20.96201497 309.32134049 28.5390625 309.73828125 C30.40678381 309.85007196 32.27445804 309.96265155 34.14208984 310.07592773 C35.11990417 310.13448944 36.09771851 310.19305115 37.10516357 310.25338745 C59.27730573 311.60517246 81.26569016 313.12130517 102.5 320.125 C103.47066406 320.39699219 104.44132812 320.66898438 105.44140625 320.94921875 C114.51737147 323.62004207 122.47093112 328.2161709 130.5 333.125 C131.0971582 333.48851562 131.69431641 333.85203125 132.30957031 334.2265625 C133.74481728 335.13462737 135.12866028 336.12303042 136.5 337.125 C136.5 337.785 136.5 338.445 136.5 339.125 C137.09167969 339.38667969 137.68335938 339.64835937 138.29296875 339.91796875 C147.04387601 344.70386316 152.44431189 356.20551854 155.5703125 365.20703125 C156.37077637 368.17185615 156.98676808 371.09773361 157.5 374.125 C157.665 375.06730469 157.83 376.00960938 158 376.98046875 C160.15357883 393.60340533 154.20328545 409.84050198 144.5 423.125 C125.49582845 446.69871392 88.02609043 455.08909527 59.4375 458.375 C-14.68999593 465.75125653 -86.28438588 432.92600314 -151.40649414 401.47558594 C-163.4550665 395.66872263 -175.64140709 390.29459635 -188 385.1875 C-188.75056671 384.87718842 -189.50113342 384.56687683 -190.27444458 384.24716187 C-201.52732911 379.61042824 -212.76297415 375.38732902 -224.5 372.125 C-225.59957031 371.80273438 -226.69914063 371.48046875 -227.83203125 371.1484375 C-235.88718467 368.84080319 -243.57689914 367.94414067 -251.9375 367.9375 C-252.74509766 367.92525391 -253.55269531 367.91300781 -254.38476562 367.90039062 C-259.75664918 367.88740461 -264.33921264 368.62594236 -269.5 370.125 C-268.42363281 370.16238281 -267.34726562 370.19976563 -266.23828125 370.23828125 C-244.69926259 371.13811596 -226.33940962 378.11122395 -207.5 388.125 C-206.60845215 388.59808594 -205.7169043 389.07117188 -204.79833984 389.55859375 C-201.88137554 391.11325315 -198.97064561 392.67891046 -196.0625 394.25 C-195.15097168 394.74064941 -194.23944336 395.23129883 -193.30029297 395.73681641 C-188.2089391 398.51654114 -183.34568717 401.48432776 -178.54907227 404.74511719 C-166.16238858 413.08653697 -152.38277455 419.02840709 -138.84375 425.20703125 C-134.00747351 427.41511332 -129.23372449 429.70541062 -124.5 432.125 C-124.5 433.445 -124.5 434.765 -124.5 436.125 C-150.92582513 444.69061228 -177.98321558 450.95279133 -205.50195312 454.84130859 C-207.37291276 455.1069556 -209.24127569 455.39071415 -211.109375 455.67578125 C-214.89977289 456.22749472 -218.69365381 456.70103002 -222.5 457.125 C-223.30920898 457.21668457 -224.11841797 457.30836914 -224.95214844 457.40283203 C-253.51655874 460.49582699 -283.1201946 460.86255169 -311.5 456.125 C-312.41861816 455.98046387 -313.33723633 455.83592773 -314.28369141 455.68701172 C-340.68953064 451.47941108 -370.71934283 442.34136184 -388.5 421.125 C-390.81027163 417.9233222 -392.71047325 414.64162815 -394.5 411.125 C-395.19609375 409.78695312 -395.19609375 409.78695312 -395.90625 408.421875 C-402.30937862 394.79661293 -403.07303387 379.2872686 -398.4921875 364.9765625 C-394.72245608 355.2651352 -389.45782722 345.97243272 -381.5 339.125 C-380.84 339.125 -380.18 339.125 -379.5 339.125 C-379.5 338.465 -379.5 337.805 -379.5 337.125 C-365.24007076 326.09538126 -347.87488242 319.90383069 -330.5 315.9375 C-329.82549805 315.7825708 -329.15099609 315.6276416 -328.45605469 315.46801758 C-317.65099769 313.13942892 -306.74138492 312.05871355 -295.7265625 311.4140625 C-294.78391541 311.35846664 -293.84126831 311.30287079 -292.87005615 311.24559021 C-288.96514024 311.01928193 -285.06022077 310.79764477 -281.15380859 310.59863281 C-278.26028188 310.4484812 -275.36867629 310.27660348 -272.4765625 310.1015625 C-271.6076236 310.06286041 -270.73868469 310.02415833 -269.84341431 309.98428345 C-261.02993261 309.41949588 -253.79296055 306.34392572 -247.5 300.125 C-240.90698822 290.39760557 -238.06533392 278.85025097 -235.14794922 267.6171875 C-234.57580198 265.41655487 -233.98210684 263.22351566 -233.37890625 261.03125 C-222.67455501 220.71291538 -223.25599792 179.32890365 -227.5 138.125 C-229.66860881 138.93234899 -229.66860881 138.93234899 -230.26367188 141.03662109 C-232.02211916 147.23867929 -233.5929186 153.45898446 -235 159.75 C-235.29970703 161.05517578 -235.29970703 161.05517578 -235.60546875 162.38671875 C-238.9870147 177.35598266 -241.22098403 192.14024481 -242.57861328 207.41601562 C-245.21267251 236.58370691 -257.39219395 255.23968771 -279.5 274.125 C-302.05846974 292.25525322 -330.59615606 303.5820297 -358.5 310.125 C-359.17546875 310.31964844 -359.8509375 310.51429688 -360.546875 310.71484375 C-369.43248947 312.58082279 -378.66011274 311.73349025 -386.5 307.125 C-394.53299241 301.65633145 -398.94944892 294.77468149 -401 285.3125 C-402.31222783 275.4895374 -399.18139418 266.13130073 -393.5 258.125 C-386.74487916 249.80084131 -378.62866351 246.95279681 -368.5 244.375 C-351.31236206 239.70518542 -334.14058817 231.92073293 -324.5 216.125 C-313.54376792 195.34488384 -313.57859308 167.24769883 -312.4375 144.1875 C-312.35315055 142.57046032 -312.26851049 140.95343577 -312.18359375 139.33642578 C-311.68717111 129.72645988 -311.30885861 120.11784307 -311 110.5 C-309.8252497 75.37991496 -303.42151074 47.46703435 -277.71875 22.4140625 C-270.56648254 15.7456249 -270.56648254 15.7456249 -266.5 15.125 C-266.5 14.465 -266.5 13.805 -266.5 13.125 C-264.05091316 11.47592776 -261.6169895 9.97080017 -259.0625 8.5 C-258.29768311 8.0563208 -257.53286621 7.6126416 -256.74487305 7.15551758 C-187.60654582 -32.33491372 -72.1476387 -34.05280603 0 0 Z " fill="#000000" transform="translate(661.5,432.875)"/>
<path d="M0 0 C15.94518683 12.50346618 27.20670682 27.61663863 34.27148438 46.70605469 C34.51737305 47.36492676 34.76326172 48.02379883 35.01660156 48.70263672 C43.33069948 72.08022757 42.07904702 102.00550745 31.40673828 124.53125 C23.37567044 140.7078233 23.37567044 140.7078233 18.27148438 146.70605469 C17.61148438 146.70605469 16.95148438 146.70605469 16.27148438 146.70605469 C16.03042969 147.269375 15.789375 147.83269531 15.54101562 148.41308594 C10.54397316 157.43851341 0.03820514 164.61570069 -8.72851562 169.70605469 C-9.71851563 169.70605469 -10.70851563 169.70605469 -11.72851562 169.70605469 C-11.72851562 170.36605469 -11.72851562 171.02605469 -11.72851562 171.70605469 C-13.97451641 172.65416158 -16.2246965 173.58934856 -18.47851562 174.51855469 C-19.09339844 174.77958984 -19.70828125 175.040625 -20.34179688 175.30957031 C-30.95111908 179.64974758 -41.10375758 181.24384715 -52.54101562 181.14355469 C-53.7756958 181.13453125 -55.01037598 181.12550781 -56.2824707 181.11621094 C-65.39284056 180.94326344 -73.20681643 180.13220482 -81.72851562 176.70605469 C-82.73350098 176.31135986 -82.73350098 176.31135986 -83.75878906 175.90869141 C-98.33302163 170.05847129 -111.62616221 160.86629491 -121.72851562 148.70605469 C-121.72851562 148.04605469 -121.72851562 147.38605469 -121.72851562 146.70605469 C-122.38851563 146.70605469 -123.04851562 146.70605469 -123.72851562 146.70605469 C-141.93707282 123.47784118 -147.10017297 94.9079274 -144.49414062 66.11669922 C-141.32474937 41.75721674 -128.00625492 17.91629374 -108.79101562 2.58105469 C-105.03496724 -0.29394531 -105.03496724 -0.29394531 -102.72851562 -0.29394531 C-102.72851562 -0.95394531 -102.72851562 -1.61394531 -102.72851562 -2.29394531 C-69.98777675 -21.31672904 -31.52840917 -23.60177523 0 0 Z " fill="#000000" transform="translate(592.728515625,205.2939453125)"/>
</svg>
